solid 480 W Main Street (Louisville)
facet normal 0.129236532763631 0.991613795083164 0.0
outer loop
vertex -29.4530612951355 -14.3197077820358 4.11753237550712
vertex 14.3140570770713 -20.023854553214 3.90163237550712
vertex -29.4530612951355 -14.3197077820358 3.90163237550712
endloop
endfacet
facet normal 0.129236532763631 0.991613795083164 0.0
outer loop
vertex 14.3140570770713 -20.023854553214 3.90163237550712
vertex -29.4530612951355 -14.3197077820358 4.11753237550712
vertex 14.3140570770713 -20.023854553214 4.11753237550712
endloop
endfacet
facet normal 0.991613795083164 -0.129236532763631 3.29635538301535e-18
outer loop
vertex 18.5589528267784 28.4712863145123 -4.36484296581607
vertex 13.3558140912516 -11.4516676486404 5.13829487550712
vertex 13.3558140912516 -11.4516676486404 -4.36484296581607
endloop
endfacet
facet normal 0.991613795083164 -0.129236532763631 3.29635538301535e-18
outer loop
vertex 13.3558140912516 -11.4516676486404 5.13829487550712
vertex 18.5589528267784 28.4712863145123 -4.36484296581607
vertex 18.5589528267784 28.4712863145123 5.13829487550712
endloop
endfacet
facet normal 0.0 0.0 -1.0
outer loop
vertex -28.6381225532084 -8.06679708130822 5.13829487550712
vertex 14.9630198780467 -15.0444539752056 5.13829487550712
vertex -28.8040984941601 -9.34030720402735 5.13829487550712
endloop
endfacet
facet normal 0.0 0.0 -1.0
outer loop
vertex 14.9630198780467 -15.0444539752056 5.13829487550712
vertex -28.6381225532084 -8.06679708130822 5.13829487550712
vertex 15.1289958189984 -13.7709438524865 5.13829487550712
endloop
endfacet
facet normal 0.991613795083164 -0.129236532763631 -9.21900029696626e-17
outer loop
vertex 18.5589528267784 28.4712863145124 10.6302448752261
vertex 13.3558140912516 -11.4516676486404 24.2438573755071
vertex 13.3558140912516 -11.4516676486404 10.6302448752262
endloop
endfacet
facet normal 0.991613795083164 -0.129236532763631 -9.21900029696626e-17
outer loop
vertex 13.3558140912516 -11.4516676486404 24.2438573755071
vertex 18.5589528267784 28.4712863145124 10.6302448752261
vertex 18.5589528267784 28.4712863145123 24.2438573755071
endloop
endfacet
facet normal -0.129236532763631 -0.991613795083164 0.0
outer loop
vertex 13.3558140912516 -11.4516676486404 -4.36484296581607
vertex -25.0826816254892 -6.44199761811747 -6.62190512449288
vertex 13.3558140912516 -11.4516676486404 -6.62190512449288
endloop
endfacet
facet normal -0.129236532763631 -0.991613795083164 0.0
outer loop
vertex -25.0826816254892 -6.44199761811747 -6.62190512449288
vertex 13.3558140912516 -11.4516676486404 -4.36484296581607
vertex -25.0826816254892 -6.44199761811747 -4.36484296581607
endloop
endfacet
facet normal -0.129236532763632 -0.991613795083164 -0.0
outer loop
vertex 17.2409025934979 27.4571843211091 24.2438573755071
vertex -18.8654408965593 32.1629061117548 23.2262698755071
vertex 17.2409025934979 27.4571843211091 23.2262698755071
endloop
endfacet
facet normal -0.129236532763632 -0.991613795083164 -0.0
outer loop
vertex -18.8654408965593 32.1629061117548 23.2262698755071
vertex 17.2409025934979 27.4571843211091 24.2438573755071
vertex -18.8654408965593 32.1629061117548 24.2438573755071
endloop
endfacet
facet normal -0.991613795083164 0.12923653276363 -3.29635538301441e-18
outer loop
vertex -19.8795428899625 33.4809563450354 5.13829487550712
vertex -25.0826816254892 -6.44199761811747 -4.36484296581607
vertex -25.0826816254892 -6.44199761811747 5.13829487550712
endloop
endfacet
facet normal -0.991613795083164 0.12923653276363 -3.29635538301441e-18
outer loop
vertex -25.0826816254892 -6.44199761811747 -4.36484296581607
vertex -19.8795428899625 33.4809563450354 5.13829487550712
vertex -19.8795428899625 33.4809563450354 -4.36484296581607
endloop
endfacet
facet normal 0.0 0.0 1.0
outer loop
vertex 13.3558140912516 -11.4516676486404 24.2438573755071
vertex -23.7646313922087 -5.42789562471426 24.2438573755071
vertex -25.0826816254892 -6.44199761811747 24.2438573755071
endloop
endfacet
facet normal 0.0 0.0 1.0
outer loop
vertex -23.7646313922087 -5.42789562471426 24.2438573755071
vertex 13.3558140912516 -11.4516676486404 24.2438573755071
vertex 12.3417120978484 -10.1336174153599 24.2438573755071
endloop
endfacet
facet normal 0.0 0.0 1.0
outer loop
vertex 12.3417120978484 -10.1336174153599 24.2438573755071
vertex 13.3558140912516 -11.4516676486404 24.2438573755071
vertex 17.2409025934979 27.4571843211091 24.2438573755071
endloop
endfacet
facet normal 0.0 0.0 1.0
outer loop
vertex 17.2409025934979 27.4571843211091 24.2438573755071
vertex 13.3558140912516 -11.4516676486404 24.2438573755071
vertex 18.5589528267784 28.4712863145123 24.2438573755071
endloop
endfacet
facet normal 0.0 0.0 1.0
outer loop
vertex -23.7646313922087 -5.42789562471426 24.2438573755071
vertex -19.8795428899625 33.4809563450354 24.2438573755071
vertex -25.0826816254892 -6.44199761811747 24.2438573755071
endloop
endfacet
facet normal 0.0 0.0 1.0
outer loop
vertex -19.8795428899625 33.4809563450354 24.2438573755071
vertex -23.7646313922087 -5.42789562471426 24.2438573755071
vertex -18.8654408965593 32.1629061117548 24.2438573755071
endloop
endfacet
facet normal 0.0 0.0 1.0
outer loop
vertex -19.8795428899625 33.4809563450354 24.2438573755071
vertex -18.8654408965593 32.1629061117548 24.2438573755071
vertex 18.5589528267784 28.4712863145123 24.2438573755071
endloop
endfacet
facet normal 0.0 0.0 1.0
outer loop
vertex 18.5589528267784 28.4712863145123 24.2438573755071
vertex -18.8654408965593 32.1629061117548 24.2438573755071
vertex 17.2409025934979 27.4571843211091 24.2438573755071
endloop
endfacet
facet normal 0.0 0.0 1.0
outer loop
vertex 9.64810213858304 -2.86892928546355 25.8170698755071
vertex -16.7876673765672 24.7472074896202 25.8170698755071
vertex -19.8852182865859 0.980133678032293 25.8170698755071
endloop
endfacet
facet normal 0.0 0.0 1.0
outer loop
vertex -16.7876673765672 24.7472074896202 25.8170698755071
vertex 9.64810213858304 -2.86892928546355 25.8170698755071
vertex 12.7456530486017 20.8981445261243 25.8170698755071
endloop
endfacet
facet normal -0.991613795083164 0.129236532763629 0.0
outer loop
vertex -22.6738784197079 -23.3861108650468 2.84435737550712
vertex -22.8659753310786 -24.8600435312569 2.10775737550712
vertex -22.8659753310786 -24.8600435312569 2.84435737550712
endloop
endfacet
facet normal -0.991613795083164 0.129236532763629 0.0
outer loop
vertex -22.8659753310786 -24.8600435312569 2.10775737550712
vertex -22.6738784197079 -23.3861108650468 2.84435737550712
vertex -22.7814481768246 -24.2114785285827 2.10775737550712
endloop
endfacet
facet normal -0.991613795083164 0.129236532763629 0.0
outer loop
vertex -22.7814481768246 -24.2114785285827 2.10775737550712
vertex -22.6738784197079 -23.3861108650468 2.84435737550712
vertex -22.6738784197079 -23.3861108650468 2.52368237550712
endloop
endfacet
facet normal -0.991613795083164 0.129236532763629 0.0
outer loop
vertex -22.7814481768246 -24.2114785285827 2.10775737550712
vertex -22.6738784197079 -23.3861108650468 2.52368237550712
vertex -22.6008403932165 -22.8257003287555 2.10775737550712
endloop
endfacet
facet normal -0.991613795083164 0.129236532763629 0.0
outer loop
vertex -22.6008403932165 -22.8257003287555 2.10775737550712
vertex -22.6738784197079 -23.3861108650468 2.52368237550712
vertex -22.6008403932165 -22.8257003287555 2.52368237550712
endloop
endfacet
facet normal 0.991613795083164 -0.129236532763631 -0.0
outer loop
vertex 22.3272771693764 49.2642360124996 5.13829487550712
vertex 14.3965263320599 -11.5873031574178 5.81298237550712
vertex 14.3965263320599 -11.5873031574178 5.13829487550712
endloop
endfacet
facet normal 0.991613795083164 -0.129236532763631 -0.0
outer loop
vertex 14.3965263320599 -11.5873031574178 5.81298237550712
vertex 22.3272771693764 49.2642360124996 5.13829487550712
vertex 22.3272771693764 49.2642360124996 5.81298237550712
endloop
endfacet
facet normal 0.129236532763632 0.991613795083164 6.41533144856831e-16
outer loop
vertex -19.8795428899625 33.4809563450354 10.6302448752262
vertex 18.5589528267784 28.4712863145123 24.2438573755071
vertex 18.5589528267784 28.4712863145124 10.6302448752261
endloop
endfacet
facet normal 0.129236532763632 0.991613795083164 6.41533144856831e-16
outer loop
vertex 18.5589528267784 28.4712863145123 24.2438573755071
vertex -19.8795428899625 33.4809563450354 10.6302448752262
vertex -19.8795428899625 33.4809563450354 24.2438573755071
endloop
endfacet
facet normal -0.129236532763631 -0.991613795083164 -1.36531021898972e-17
outer loop
vertex 14.3965263320599 -11.5873031574178 5.13829487550712
vertex 13.3558140912516 -11.4516676486404 5.81298237550712
vertex 13.3558140912516 -11.4516676486404 5.13829487550712
endloop
endfacet
facet normal -0.129236532763631 -0.991613795083164 -1.36531021898972e-17
outer loop
vertex 13.3558140912516 -11.4516676486404 5.81298237550712
vertex 14.3965263320599 -11.5873031574178 5.13829487550712
vertex 14.3965263320599 -11.5873031574178 5.81298237550712
endloop
endfacet
facet normal -0.991613795083164 0.129236532763628 0.0
outer loop
vertex -22.4299396177466 -21.51440264131 2.84435737550712
vertex -22.6738784197079 -23.3861108650468 2.52368237550712
vertex -22.6738784197079 -23.3861108650468 2.84435737550712
endloop
endfacet
facet normal -0.991613795083164 0.129236532763628 0.0
outer loop
vertex -22.6738784197079 -23.3861108650468 2.52368237550712
vertex -22.4299396177466 -21.51440264131 2.84435737550712
vertex -22.6008403932165 -22.8257003287555 2.52368237550712
endloop
endfacet
facet normal -0.991613795083164 0.129236532763628 0.0
outer loop
vertex -22.6008403932165 -22.8257003287555 2.52368237550712
vertex -22.4299396177466 -21.51440264131 2.84435737550712
vertex -22.4299396177466 -21.51440264131 2.52368237550712
endloop
endfacet
facet normal 0.12923653276363 0.991613795083164 2.47865205633345e-16
outer loop
vertex -22.2450877585648 -20.0960602446853 3.12851987550712
vertex 5.43856305946308 -23.7040566881604 2.84435737550712
vertex -22.2450877585648 -20.0960602446853 2.84435737550712
endloop
endfacet
facet normal 0.12923653276363 0.991613795083164 2.47865205633345e-16
outer loop
vertex 5.43856305946308 -23.7040566881604 2.84435737550712
vertex -22.2450877585648 -20.0960602446853 3.12851987550712
vertex 5.43856305946308 -23.7040566881604 3.12851987550712
endloop
endfacet
facet normal 0.129236532763631 0.991613795083164 0.0
outer loop
vertex -23.7646313922087 -5.42789562471426 24.2438573755071
vertex 12.3417120978484 -10.1336174153599 23.2262698755071
vertex -23.7646313922087 -5.42789562471426 23.2262698755071
endloop
endfacet
facet normal 0.129236532763631 0.991613795083164 0.0
outer loop
vertex 12.3417120978484 -10.1336174153599 23.2262698755071
vertex -23.7646313922087 -5.42789562471426 24.2438573755071
vertex 12.3417120978484 -10.1336174153599 24.2438573755071
endloop
endfacet
facet normal 0.129236532763631 0.991613795083164 2.54109874790747e-17
outer loop
vertex -22.7814481768246 -24.2114785285827 2.10775737550712
vertex 3.18004217293746 -27.595026654694 -6.62190512449288
vertex -22.7814481768246 -24.2114785285827 -6.62190512449288
endloop
endfacet
facet normal 0.129236532763631 0.991613795083164 2.54109874790747e-17
outer loop
vertex 3.18004217293746 -27.595026654694 -6.62190512449288
vertex -22.7814481768246 -24.2114785285827 2.10775737550712
vertex 4.90220264120328 -27.8194749720579 -6.62190512449288
endloop
endfacet
facet normal 0.129236532763631 0.991613795083164 2.54109874790747e-17
outer loop
vertex 4.90220264120328 -27.8194749720579 -6.62190512449288
vertex -22.7814481768246 -24.2114785285827 2.10775737550712
vertex 4.90220264120328 -27.8194749720579 2.10775737550712
endloop
endfacet
facet normal 3.28402791589566e-18 2.5197885730936e-17 -1.0
outer loop
vertex -22.7814481768246 -24.2114785285827 -6.62190512449288
vertex 3.0955150186834 -28.2435916573681 -6.62190512449288
vertex -22.8659753310786 -24.8600435312569 -6.62190512449288
endloop
endfacet
facet normal 3.28402791589566e-18 2.5197885730936e-17 -1.0
outer loop
vertex 3.0955150186834 -28.2435916573681 -6.62190512449288
vertex -22.7814481768246 -24.2114785285827 -6.62190512449288
vertex 3.18004217293746 -27.595026654694 -6.62190512449288
endloop
endfacet
facet normal 0.991613795083162 -0.129236532763644 -0.0
outer loop
vertex 5.25371120028128 -25.1223990847852 2.52368237550712
vertex 5.22416772889151 -25.3490819983412 2.84435737550712
vertex 5.08281042481129 -26.4336967722307 2.52368237550712
endloop
endfacet
facet normal 0.991613795083162 -0.129236532763644 -0.0
outer loop
vertex 5.22416772889151 -25.3490819983412 2.84435737550712
vertex 5.25371120028128 -25.1223990847852 2.52368237550712
vertex 5.25371120028128 -25.1223990847852 2.84435737550712
endloop
endfacet
facet normal 0.991613795083162 -0.129236532763644 -0.0
outer loop
vertex 5.08281042481129 -26.4336967722307 2.52368237550712
vertex 5.00977239831993 -26.994107308522 3.37616987550712
vertex 5.00977239831993 -26.994107308522 2.52368237550712
endloop
endfacet
facet normal 0.991613795083162 -0.129236532763644 -0.0
outer loop
vertex 5.00977239831993 -26.994107308522 3.37616987550712
vertex 5.08281042481129 -26.4336967722307 2.52368237550712
vertex 5.22416772889151 -25.3490819983412 3.37616987550712
endloop
endfacet
facet normal 0.991613795083162 -0.129236532763644 -0.0
outer loop
vertex 5.22416772889151 -25.3490819983412 3.37616987550712
vertex 5.08281042481129 -26.4336967722307 2.52368237550712
vertex 5.22416772889151 -25.3490819983412 2.84435737550712
endloop
endfacet
facet normal 0.0 0.0 -1.0
outer loop
vertex -28.5008561126842 -7.01357092988681 5.47960737550712
vertex 15.1289958189984 -13.7709438524865 5.47960737550712
vertex -28.6381225532084 -8.06679708130822 5.47960737550712
endloop
endfacet
facet normal 0.0 0.0 -1.0
outer loop
vertex 15.1289958189984 -13.7709438524865 5.47960737550712
vertex -28.5008561126842 -7.01357092988681 5.47960737550712
vertex 15.2662622595226 -12.717717701065 5.47960737550712
endloop
endfacet
facet normal 0.129236532763632 0.991613795083164 0.0
outer loop
vertex -28.6381225532084 -8.06679708130822 5.47960737550712
vertex 15.1289958189984 -13.7709438524865 5.13829487550712
vertex -28.6381225532084 -8.06679708130822 5.13829487550712
endloop
endfacet
facet normal 0.129236532763632 0.991613795083164 0.0
outer loop
vertex 15.1289958189984 -13.7709438524865 5.13829487550712
vertex -28.6381225532084 -8.06679708130822 5.47960737550712
vertex 15.1289958189984 -13.7709438524865 5.47960737550712
endloop
endfacet
facet normal 0.991613795083163 -0.129236532763638 -1.7296643824968e-17
outer loop
vertex 5.08281042481129 -26.4336967722307 2.10775737550712
vertex 5.00977239831993 -26.994107308522 2.52368237550712
vertex 4.90220264120328 -27.8194749720579 2.10775737550712
endloop
endfacet
facet normal 0.991613795083163 -0.129236532763638 -1.7296643824968e-17
outer loop
vertex 5.00977239831993 -26.994107308522 2.52368237550712
vertex 5.08281042481129 -26.4336967722307 2.10775737550712
vertex 5.08281042481129 -26.4336967722307 2.52368237550712
endloop
endfacet
facet normal 0.991613795083163 -0.129236532763638 -1.7296643824968e-17
outer loop
vertex 4.90220264120328 -27.8194749720579 2.10775737550712
vertex 4.81767548694922 -28.4680399747321 3.37616987550712
vertex 4.81767548694922 -28.4680399747321 2.10775737550712
endloop
endfacet
facet normal 0.991613795083163 -0.129236532763638 -1.7296643824968e-17
outer loop
vertex 4.81767548694922 -28.4680399747321 3.37616987550712
vertex 4.90220264120328 -27.8194749720579 2.10775737550712
vertex 5.00977239831993 -26.994107308522 3.37616987550712
endloop
endfacet
facet normal 0.991613795083163 -0.129236532763638 -1.7296643824968e-17
outer loop
vertex 5.00977239831993 -26.994107308522 3.37616987550712
vertex 4.90220264120328 -27.8194749720579 2.10775737550712
vertex 5.00977239831993 -26.994107308522 2.52368237550712
endloop
endfacet
facet normal 0.991613795083164 -0.129236532763631 0.0
outer loop
vertex 12.7456530486017 20.8981445261243 23.2262698755071
vertex 9.64810213858304 -2.86892928546355 25.8170698755071
vertex 9.64810213858304 -2.86892928546355 23.2262698755071
endloop
endfacet
facet normal 0.991613795083164 -0.129236532763631 0.0
outer loop
vertex 9.64810213858304 -2.86892928546355 25.8170698755071
vertex 12.7456530486017 20.8981445261243 23.2262698755071
vertex 12.7456530486017 20.8981445261243 25.8170698755071
endloop
endfacet
facet normal -0.129236532763631 -0.991613795083164 -4.7685434864546e-17
outer loop
vertex -25.0826816254892 -6.44199761811747 5.81298237550712
vertex -27.370441569037 -6.14383500242409 5.13829487550712
vertex -25.0826816254892 -6.44199761811747 5.13829487550712
endloop
endfacet
facet normal -0.129236532763631 -0.991613795083164 -4.7685434864546e-17
outer loop
vertex -27.370441569037 -6.14383500242409 5.13829487550712
vertex -25.0826816254892 -6.44199761811747 5.81298237550712
vertex -27.370441569037 -6.14383500242409 5.81298237550712
endloop
endfacet
facet normal -0.991613795083164 0.129236532763632 0.0
outer loop
vertex -22.8659753310786 -24.8600435312569 2.84435737550712
vertex -23.0514105055791 -26.2828616245327 -6.62190512449288
vertex -23.0514105055791 -26.2828616245327 2.84435737550712
endloop
endfacet
facet normal -0.991613795083164 0.129236532763632 0.0
outer loop
vertex -23.0514105055791 -26.2828616245327 -6.62190512449288
vertex -22.8659753310786 -24.8600435312569 2.84435737550712
vertex -22.8659753310786 -24.8600435312569 -6.62190512449288
endloop
endfacet
facet normal -0.991613795083164 0.129236532763632 0.0
outer loop
vertex -22.8659753310786 -24.8600435312569 -6.62190512449288
vertex -22.8659753310786 -24.8600435312569 2.84435737550712
vertex -22.8659753310786 -24.8600435312569 2.10775737550712
endloop
endfacet
facet normal -0.991613795083164 0.129236532763632 0.0
outer loop
vertex -22.8659753310786 -24.8600435312569 -6.62190512449288
vertex -22.8659753310786 -24.8600435312569 2.10775737550712
vertex -22.7814481768246 -24.2114785285827 2.10775737550712
endloop
endfacet
facet normal -0.991613795083164 0.129236532763632 0.0
outer loop
vertex -22.8659753310786 -24.8600435312569 -6.62190512449288
vertex -22.7814481768246 -24.2114785285827 2.10775737550712
vertex -22.7814481768246 -24.2114785285827 -6.62190512449288
endloop
endfacet
facet normal 0.0 0.0 -1.0
outer loop
vertex -20.3094266591832 55.8381187111406 5.81298237550712
vertex -27.370441569037 -6.14383500242409 5.81298237550712
vertex -28.5008561126842 -7.01357092988681 5.81298237550712
endloop
endfacet
facet normal 0.0 0.0 -1.0
outer loop
vertex -27.370441569037 -6.14383500242409 5.81298237550712
vertex -20.3094266591832 55.8381187111406 5.81298237550712
vertex -19.4396907317205 54.7077041674933 5.81298237550712
endloop
endfacet
facet normal 0.0 0.0 -1.0
outer loop
vertex -19.4396907317205 54.7077041674933 5.81298237550712
vertex -20.3094266591832 55.8381187111406 5.81298237550712
vertex 23.4576917130236 50.1339719399623 5.81298237550712
endloop
endfacet
facet normal 0.0 0.0 -1.0
outer loop
vertex -19.4396907317205 54.7077041674933 5.81298237550712
vertex 23.4576917130236 50.1339719399623 5.81298237550712
vertex 22.3272771693764 49.2642360124996 5.81298237550712
endloop
endfacet
facet normal 0.0 0.0 -1.0
outer loop
vertex -27.370441569037 -6.14383500242409 5.81298237550712
vertex 15.2662622595226 -12.717717701065 5.81298237550712
vertex -28.5008561126842 -7.01357092988681 5.81298237550712
endloop
endfacet
facet normal 0.0 0.0 -1.0
outer loop
vertex 15.2662622595226 -12.717717701065 5.81298237550712
vertex -27.370441569037 -6.14383500242409 5.81298237550712
vertex -25.0826816254892 -6.44199761811747 5.81298237550712
endloop
endfacet
facet normal 0.0 0.0 -1.0
outer loop
vertex 15.2662622595226 -12.717717701065 5.81298237550712
vertex -25.0826816254892 -6.44199761811747 5.81298237550712
vertex 13.3558140912516 -11.4516676486404 5.81298237550712
endloop
endfacet
facet normal 0.0 0.0 -1.0
outer loop
vertex 15.2662622595226 -12.717717701065 5.81298237550712
vertex 13.3558140912516 -11.4516676486404 5.81298237550712
vertex 14.3965263320599 -11.5873031574178 5.81298237550712
endloop
endfacet
facet normal 0.0 0.0 -1.0
outer loop
vertex 15.2662622595226 -12.717717701065 5.81298237550712
vertex 14.3965263320599 -11.5873031574178 5.81298237550712
vertex 22.3272771693764 49.2642360124996 5.81298237550712
endloop
endfacet
facet normal 0.0 0.0 -1.0
outer loop
vertex 15.2662622595226 -12.717717701065 5.81298237550712
vertex 22.3272771693764 49.2642360124996 5.81298237550712
vertex 23.4576917130236 50.1339719399623 5.81298237550712
endloop
endfacet
facet normal 0.0 0.0 -1.0
outer loop
vertex -29.579496190903 -15.2898250092771 3.59206987550712
vertex 14.0385819708917 -22.1375364173766 3.59206987550712
vertex -29.7285364013151 -16.4333896461984 3.59206987550712
endloop
endfacet
facet normal 0.0 0.0 -1.0
outer loop
vertex 14.0385819708917 -22.1375364173766 3.59206987550712
vertex -29.579496190903 -15.2898250092771 3.59206987550712
vertex 14.1876221813039 -20.9939717804553 3.59206987550712
endloop
endfacet
facet normal 0.129236532763631 0.991613795083164 0.0
outer loop
vertex -29.2842810745708 -13.0246808150466 4.36835737550712
vertex 14.482837297636 -18.7288275862248 4.11753237550712
vertex -29.2842810745708 -13.0246808150466 4.11753237550712
endloop
endfacet
facet normal 0.129236532763631 0.991613795083164 0.0
outer loop
vertex 14.482837297636 -18.7288275862248 4.11753237550712
vertex -29.2842810745708 -13.0246808150466 4.36835737550712
vertex 14.482837297636 -18.7288275862248 4.36835737550712
endloop
endfacet
facet normal 0.129236532763631 0.991613795083164 0.0
outer loop
vertex -29.7285364013151 -16.4333896461984 3.59206987550712
vertex 14.0385819708917 -22.1375364173766 3.37616987550712
vertex -29.7285364013151 -16.4333896461984 3.37616987550712
endloop
endfacet
facet normal 0.129236532763631 0.991613795083164 0.0
outer loop
vertex 14.0385819708917 -22.1375364173766 3.37616987550712
vertex -29.7285364013151 -16.4333896461984 3.59206987550712
vertex 14.0385819708917 -22.1375364173766 3.59206987550712
endloop
endfacet
facet normal 0.129236532763632 0.991613795083164 -0.0
outer loop
vertex -19.8795428899625 33.4809563450354 -4.36484296581607
vertex 18.5589528267784 28.4712863145123 -6.62190512449288
vertex -19.8795428899625 33.4809563450354 -6.62190512449288
endloop
endfacet
facet normal 0.129236532763632 0.991613795083164 -0.0
outer loop
vertex 18.5589528267784 28.4712863145123 -6.62190512449288
vertex -19.8795428899625 33.4809563450354 -4.36484296581607
vertex 18.5589528267784 28.4712863145123 -4.36484296581607
endloop
endfacet
facet normal -0.991613795083164 0.12923653276363 0.0
outer loop
vertex -19.8795428899625 33.4809563450354 -4.36484296581607
vertex -25.0826816254892 -6.44199761811747 -6.62190512449288
vertex -25.0826816254892 -6.44199761811747 -4.36484296581607
endloop
endfacet
facet normal -0.991613795083164 0.12923653276363 0.0
outer loop
vertex -25.0826816254892 -6.44199761811747 -6.62190512449288
vertex -19.8795428899625 33.4809563450354 -4.36484296581607
vertex -19.8795428899625 33.4809563450354 -6.62190512449288
endloop
endfacet
facet normal 0.991613795083164 -0.12923653276363 -0.0
outer loop
vertex -18.8654408965593 32.1629061117548 23.2262698755071
vertex -23.7646313922087 -5.42789562471426 24.2438573755071
vertex -23.7646313922087 -5.42789562471426 23.2262698755071
endloop
endfacet
facet normal 0.991613795083164 -0.12923653276363 -0.0
outer loop
vertex -23.7646313922087 -5.42789562471426 24.2438573755071
vertex -18.8654408965593 32.1629061117548 23.2262698755071
vertex -18.8654408965593 32.1629061117548 24.2438573755071
endloop
endfacet
facet normal 2.93608409933309e-18 2.59953479583241e-17 -1.0
outer loop
vertex -19.4396907317205 54.7077041674933 5.13829487550712
vertex -25.0826816254892 -6.44199761811747 5.13829487550712
vertex -27.370441569037 -6.14383500242409 5.13829487550712
endloop
endfacet
facet normal 2.93608409933309e-18 2.59953479583241e-17 -1.0
outer loop
vertex -25.0826816254892 -6.44199761811747 5.13829487550712
vertex -19.4396907317205 54.7077041674933 5.13829487550712
vertex -19.8795428899625 33.4809563450354 5.13829487550712
endloop
endfacet
facet normal 2.93608409933309e-18 2.59953479583241e-17 -1.0
outer loop
vertex -19.8795428899625 33.4809563450354 5.13829487550712
vertex -19.4396907317205 54.7077041674933 5.13829487550712
vertex 18.5589528267784 28.4712863145123 5.13829487550712
endloop
endfacet
facet normal 2.93608409933309e-18 2.59953479583241e-17 -1.0
outer loop
vertex 18.5589528267784 28.4712863145123 5.13829487550712
vertex -19.4396907317205 54.7077041674933 5.13829487550712
vertex 22.3272771693764 49.2642360124996 5.13829487550712
endloop
endfacet
facet normal 2.93608409933309e-18 2.59953479583241e-17 -1.0
outer loop
vertex 18.5589528267784 28.4712863145123 5.13829487550712
vertex 14.3965263320599 -11.5873031574178 5.13829487550712
vertex 13.3558140912516 -11.4516676486404 5.13829487550712
endloop
endfacet
facet normal 2.93608409933309e-18 2.59953479583241e-17 -1.0
outer loop
vertex 14.3965263320599 -11.5873031574178 5.13829487550712
vertex 18.5589528267784 28.4712863145123 5.13829487550712
vertex 22.3272771693764 49.2642360124996 5.13829487550712
endloop
endfacet
facet normal 0.129236532763632 0.991613795083164 -1.57693531635235e-15
outer loop
vertex -19.8795428899625 33.4809563450354 10.6302448752262
vertex 18.5589528267784 28.4712863145123 5.13829487550712
vertex -19.8795428899625 33.4809563450354 5.13829487550712
endloop
endfacet
facet normal 0.129236532763632 0.991613795083164 -1.57693531635235e-15
outer loop
vertex 18.5589528267784 28.4712863145123 5.13829487550712
vertex -19.8795428899625 33.4809563450354 10.6302448752262
vertex 18.5589528267784 28.4712863145124 10.6302448752261
endloop
endfacet
facet normal 0.129236532763631 0.991613795083164 0.0
outer loop
vertex -31.0646863860284 -26.6854811315454 2.84435737550712
vertex -23.2368456800796 -27.7056797178086 -6.62190512449288
vertex -31.0646863860284 -26.6854811315454 -6.62190512449288
endloop
endfacet
facet normal 0.129236532763631 0.991613795083164 0.0
outer loop
vertex -23.2368456800796 -27.7056797178086 -6.62190512449288
vertex -31.0646863860284 -26.6854811315454 2.84435737550712
vertex -23.2368456800796 -27.7056797178086 2.84435737550712
endloop
endfacet
facet normal 0.0 0.0 -1.0
outer loop
vertex -29.9007324329144 -17.7546256523103 3.12851987550712
vertex -22.2450877585648 -20.0960602446853 3.12851987550712
vertex -30.0729284645136 -19.0758616584221 3.12851987550712
endloop
endfacet
facet normal 0.0 0.0 -1.0
outer loop
vertex -22.2450877585648 -20.0960602446853 3.12851987550712
vertex -29.9007324329144 -17.7546256523103 3.12851987550712
vertex 13.8663859392924 -23.4587724234885 3.12851987550712
endloop
endfacet
facet normal 0.0 0.0 -1.0
outer loop
vertex -22.2450877585648 -20.0960602446853 3.12851987550712
vertex 13.8663859392924 -23.4587724234885 3.12851987550712
vertex 5.43856305946308 -23.7040566881604 3.12851987550712
endloop
endfacet
facet normal 0.0 0.0 -1.0
outer loop
vertex 5.43856305946308 -23.7040566881604 3.12851987550712
vertex 13.8663859392924 -23.4587724234885 3.12851987550712
vertex 13.6941899076932 -24.7800084296004 3.12851987550712
endloop
endfacet
facet normal 0.991613795083164 -0.129236532763632 0.0
outer loop
vertex -30.0729284645136 -19.0758616584221 -6.62190512449288
vertex -31.0646863860284 -26.6854811315454 2.84435737550712
vertex -31.0646863860284 -26.6854811315454 -6.62190512449288
endloop
endfacet
facet normal 0.991613795083164 -0.129236532763632 0.0
outer loop
vertex -31.0646863860284 -26.6854811315454 2.84435737550712
vertex -30.0729284645136 -19.0758616584221 -6.62190512449288
vertex -30.0729284645136 -19.0758616584221 2.84435737550712
endloop
endfacet
facet normal 0.991613795083163 -0.129236532763638 -6.98505197503721e-19
outer loop
vertex 4.90220264120328 -27.8194749720579 -6.62190512449288
vertex 4.63224031244873 -29.8908580680079 3.37616987550712
vertex 4.63224031244873 -29.8908580680079 -6.62190512449288
endloop
endfacet
facet normal 0.991613795083163 -0.129236532763638 -6.98505197503721e-19
outer loop
vertex 4.63224031244873 -29.8908580680079 3.37616987550712
vertex 4.90220264120328 -27.8194749720579 -6.62190512449288
vertex 4.81767548694922 -28.4680399747321 2.10775737550712
endloop
endfacet
facet normal 0.991613795083163 -0.129236532763638 -6.98505197503721e-19
outer loop
vertex 4.81767548694922 -28.4680399747321 2.10775737550712
vertex 4.90220264120328 -27.8194749720579 -6.62190512449288
vertex 4.90220264120328 -27.8194749720579 2.10775737550712
endloop
endfacet
facet normal 0.991613795083163 -0.129236532763638 -6.98505197503721e-19
outer loop
vertex 4.81767548694922 -28.4680399747321 3.37616987550712
vertex 4.63224031244873 -29.8908580680079 3.37616987550712
vertex 4.81767548694922 -28.4680399747321 2.10775737550712
endloop
endfacet
facet normal 0.0 0.0 -1.0
outer loop
vertex 4.63224031244873 -29.8908580680079 3.37616987550712
vertex 12.7024319861784 -32.3896279027237 3.37616987550712
vertex 4.44680513794825 -31.3136761612837 3.37616987550712
endloop
endfacet
facet normal 0.0 0.0 -1.0
outer loop
vertex 12.7024319861784 -32.3896279027237 3.37616987550712
vertex 4.63224031244873 -29.8908580680079 3.37616987550712
vertex 4.81767548694922 -28.4680399747321 3.37616987550712
endloop
endfacet
facet normal 0.0 0.0 -1.0
outer loop
vertex 12.7024319861784 -32.3896279027237 3.37616987550712
vertex 4.81767548694922 -28.4680399747321 3.37616987550712
vertex 5.00977239831993 -26.994107308522 3.37616987550712
endloop
endfacet
facet normal 0.0 0.0 -1.0
outer loop
vertex 12.7024319861784 -32.3896279027237 3.37616987550712
vertex 5.00977239831993 -26.994107308522 3.37616987550712
vertex 5.22416772889151 -25.3490819983412 3.37616987550712
endloop
endfacet
facet normal 0.0 0.0 -1.0
outer loop
vertex 12.7024319861784 -32.3896279027237 3.37616987550712
vertex 5.22416772889151 -25.3490819983412 3.37616987550712
vertex 5.43856305946308 -23.7040566881604 3.37616987550712
endloop
endfacet
facet normal 0.0 0.0 -1.0
outer loop
vertex 12.7024319861784 -32.3896279027237 3.37616987550712
vertex 5.43856305946308 -23.7040566881604 3.37616987550712
vertex 13.6941899076932 -24.7800084296004 3.37616987550712
endloop
endfacet
facet normal -0.129236532763632 -0.991613795083164 0.0
outer loop
vertex 23.4576917130236 50.1339719399623 5.81298237550712
vertex -15.4451891391271 55.2041650542351 -6.62190512449288
vertex 23.4576917130236 50.1339719399623 -6.62190512449288
endloop
endfacet
facet normal -0.129236532763632 -0.991613795083164 0.0
outer loop
vertex -15.4451891391271 55.2041650542351 -6.62190512449288
vertex 23.4576917130236 50.1339719399623 5.81298237550712
vertex -20.3094266591832 55.8381187111406 -6.62190512449288
endloop
endfacet
facet normal -0.129236532763632 -0.991613795083164 0.0
outer loop
vertex -20.3094266591832 55.8381187111406 -6.62190512449288
vertex 23.4576917130236 50.1339719399623 5.81298237550712
vertex -20.3094266591832 55.8381187111406 5.81298237550712
endloop
endfacet
facet normal 0.0 0.0 -1.0
outer loop
vertex -29.1265522596238 -11.8144497337961 4.36835737550712
vertex 14.482837297636 -18.7288275862248 4.36835737550712
vertex -29.2842810745708 -13.0246808150466 4.36835737550712
endloop
endfacet
facet normal 0.0 0.0 -1.0
outer loop
vertex 14.482837297636 -18.7288275862248 4.36835737550712
vertex -29.1265522596238 -11.8144497337961 4.36835737550712
vertex 14.640566112583 -17.5185965049743 4.36835737550712
endloop
endfacet
facet normal 0.991613795083164 -0.129236532763631 -0.0
outer loop
vertex 4.63224031244873 -29.8908580680079 -6.62190512449288
vertex 4.44680513794825 -31.3136761612837 3.37616987550712
vertex 4.44680513794825 -31.3136761612837 -6.62190512449288
endloop
endfacet
facet normal 0.991613795083164 -0.129236532763631 -0.0
outer loop
vertex 4.44680513794825 -31.3136761612837 3.37616987550712
vertex 4.63224031244873 -29.8908580680079 -6.62190512449288
vertex 4.63224031244873 -29.8908580680079 3.37616987550712
endloop
endfacet
facet normal 0.129236532763632 0.991613795083164 -1.08846918146628e-32
outer loop
vertex 4.44680513794825 -31.3136761612837 3.37616987550712
vertex 12.7024319861784 -32.3896279027237 -6.62190512449288
vertex 4.44680513794825 -31.3136761612837 -6.62190512449288
endloop
endfacet
facet normal 0.129236532763632 0.991613795083164 -1.08846918146628e-32
outer loop
vertex 12.7024319861784 -32.3896279027237 -6.62190512449288
vertex 4.44680513794825 -31.3136761612837 3.37616987550712
vertex 12.7024319861784 -32.3896279027237 3.37616987550712
endloop
endfacet
facet normal 0.0 0.0 -1.0
outer loop
vertex -29.7285364013151 -16.4333896461984 3.37616987550712
vertex 13.8663859392924 -23.4587724234885 3.37616987550712
vertex -29.9007324329144 -17.7546256523103 3.37616987550712
endloop
endfacet
facet normal 0.0 0.0 -1.0
outer loop
vertex 13.8663859392924 -23.4587724234885 3.37616987550712
vertex -29.7285364013151 -16.4333896461984 3.37616987550712
vertex 14.0385819708917 -22.1375364173766 3.37616987550712
endloop
endfacet
facet normal 0.129236532763632 0.991613795083164 -1.748495965212e-17
outer loop
vertex -19.8795428899625 33.4809563450354 5.13829487550712
vertex 18.5589528267784 28.4712863145123 -4.36484296581607
vertex -19.8795428899625 33.4809563450354 -4.36484296581607
endloop
endfacet
facet normal 0.129236532763632 0.991613795083164 -1.748495965212e-17
outer loop
vertex 18.5589528267784 28.4712863145123 -4.36484296581607
vertex -19.8795428899625 33.4809563450354 5.13829487550712
vertex 18.5589528267784 28.4712863145123 5.13829487550712
endloop
endfacet
facet normal -0.991613795083164 0.129236532763632 -8.31779368141461e-17
outer loop
vertex 13.6941899076932 -24.7800084296004 3.37616987550712
vertex 12.7024319861784 -32.3896279027237 -6.62190512449288
vertex 12.7024319861784 -32.3896279027237 3.37616987550712
endloop
endfacet
facet normal -0.991613795083164 0.129236532763632 -8.31779368141461e-17
outer loop
vertex 12.7024319861784 -32.3896279027237 -6.62190512449288
vertex 13.6941899076932 -24.7800084296004 3.37616987550712
vertex 13.6941899076932 -24.7800084296004 -6.62190512449288
endloop
endfacet
facet normal -0.991613795083164 0.129236532763632 -8.31779368141461e-17
outer loop
vertex 13.6941899076932 -24.7800084296004 -6.62190512449288
vertex 13.6941899076932 -24.7800084296004 3.37616987550712
vertex 13.6941899076932 -24.7800084296004 3.12851987550712
endloop
endfacet
facet normal -2.07846043497196e-17 -1.53737681861948e-17 -1.0
outer loop
vertex -19.8795428899625 33.4809563450354 10.6302448752262
vertex 13.3558140912516 -11.4516676486404 10.6302448752262
vertex -25.0826816254892 -6.44199761811747 10.6302448752262
endloop
endfacet
facet normal -2.07846043497196e-17 -1.53737681861948e-17 -1.0
outer loop
vertex 13.3558140912516 -11.4516676486404 10.6302448752262
vertex -19.8795428899625 33.4809563450354 10.6302448752262
vertex 18.5589528267784 28.4712863145124 10.6302448752261
endloop
endfacet
facet normal -0.129236532763631 -0.991613795083164 -3.24069812246618e-17
outer loop
vertex 13.3558140912516 -11.4516676486404 10.6302448752262
vertex -25.0826816254892 -6.44199761811747 5.81298237550712
vertex 13.3558140912516 -11.4516676486404 5.81298237550712
endloop
endfacet
facet normal -0.129236532763631 -0.991613795083164 -3.24069812246618e-17
outer loop
vertex -25.0826816254892 -6.44199761811747 5.81298237550712
vertex 13.3558140912516 -11.4516676486404 10.6302448752262
vertex -25.0826816254892 -6.44199761811747 10.6302448752262
endloop
endfacet
facet normal 0.0 0.0 -1.0
outer loop
vertex -22.6008403932165 -22.8257003287555 2.10775737550712
vertex 4.90220264120328 -27.8194749720579 2.10775737550712
vertex -22.7814481768246 -24.2114785285827 2.10775737550712
endloop
endfacet
facet normal 0.0 0.0 -1.0
outer loop
vertex 4.90220264120328 -27.8194749720579 2.10775737550712
vertex -22.6008403932165 -22.8257003287555 2.10775737550712
vertex 5.08281042481129 -26.4336967722307 2.10775737550712
endloop
endfacet
facet normal -0.991613795083164 0.129236532763631 1.67367995054796e-16
outer loop
vertex 14.0385819708917 -22.1375364173766 3.37616987550712
vertex 13.8663859392924 -23.4587724234885 3.12851987550712
vertex 13.8663859392924 -23.4587724234885 3.37616987550712
endloop
endfacet
facet normal -0.991613795083164 0.129236532763631 1.67367995054796e-16
outer loop
vertex 14.1876221813039 -20.9939717804553 3.59206987550712
vertex 14.0385819708917 -22.1375364173766 3.37616987550712
vertex 14.0385819708917 -22.1375364173766 3.59206987550712
endloop
endfacet
facet normal -0.991613795083164 0.129236532763631 1.67367995054796e-16
outer loop
vertex 14.3140570770713 -20.023854553214 3.90163237550712
vertex 14.1876221813039 -20.9939717804553 3.59206987550712
vertex 14.1876221813039 -20.9939717804553 3.90163237550712
endloop
endfacet
facet normal -0.991613795083164 0.129236532763631 1.67367995054796e-16
outer loop
vertex 14.482837297636 -18.7288275862248 4.11753237550712
vertex 14.3140570770713 -20.023854553214 3.90163237550712
vertex 14.3140570770713 -20.023854553214 4.11753237550712
endloop
endfacet
facet normal -0.991613795083164 0.129236532763631 1.67367995054796e-16
outer loop
vertex 14.640566112583 -17.5185965049743 4.36835737550712
vertex 14.482837297636 -18.7288275862248 4.11753237550712
vertex 14.482837297636 -18.7288275862248 4.36835737550712
endloop
endfacet
facet normal -0.991613795083164 0.129236532763631 1.67367995054796e-16
outer loop
vertex 14.791245338089 -16.3624559350516 4.60806987550712
vertex 14.640566112583 -17.5185965049743 4.36835737550712
vertex 14.640566112583 -17.5185965049743 4.60806987550712
endloop
endfacet
facet normal -0.991613795083164 0.129236532763631 1.67367995054796e-16
outer loop
vertex 14.9630198780467 -15.0444539752056 4.85889487550712
vertex 14.791245338089 -16.3624559350516 4.60806987550712
vertex 14.791245338089 -16.3624559350516 4.85889487550712
endloop
endfacet
facet normal -0.991613795083164 0.129236532763631 1.67367995054796e-16
outer loop
vertex 15.1289958189984 -13.7709438524865 5.13829487550712
vertex 14.9630198780467 -15.0444539752056 4.85889487550712
vertex 14.9630198780467 -15.0444539752056 5.13829487550712
endloop
endfacet
facet normal -0.991613795083164 0.129236532763631 1.67367995054796e-16
outer loop
vertex 15.2662622595226 -12.717717701065 5.47960737550712
vertex 15.1289958189984 -13.7709438524865 5.13829487550712
vertex 15.1289958189984 -13.7709438524865 5.47960737550712
endloop
endfacet
facet normal -0.991613795083164 0.129236532763631 1.67367995054796e-16
outer loop
vertex 23.4576917130236 50.1339719399623 5.81298237550712
vertex 15.2662622595226 -12.717717701065 5.47960737550712
vertex 15.2662622595226 -12.717717701065 5.81298237550712
endloop
endfacet
facet normal -0.991613795083164 0.129236532763631 1.67367995054796e-16
outer loop
vertex 13.8663859392924 -23.4587724234885 3.12851987550712
vertex 13.6941899076932 -24.7800084296004 -6.62190512449288
vertex 13.6941899076932 -24.7800084296004 3.12851987550712
endloop
endfacet
facet normal -0.991613795083164 0.129236532763631 1.67367995054796e-16
outer loop
vertex 13.6941899076932 -24.7800084296004 -6.62190512449288
vertex 13.8663859392924 -23.4587724234885 3.12851987550712
vertex 23.4576917130236 50.1339719399623 -6.62190512449288
endloop
endfacet
facet normal -0.991613795083164 0.129236532763631 1.67367995054796e-16
outer loop
vertex 23.4576917130236 50.1339719399623 -6.62190512449288
vertex 13.8663859392924 -23.4587724234885 3.12851987550712
vertex 14.0385819708917 -22.1375364173766 3.37616987550712
endloop
endfacet
facet normal -0.991613795083164 0.129236532763631 1.67367995054796e-16
outer loop
vertex 23.4576917130236 50.1339719399623 -6.62190512449288
vertex 14.0385819708917 -22.1375364173766 3.37616987550712
vertex 14.1876221813039 -20.9939717804553 3.59206987550712
endloop
endfacet
facet normal -0.991613795083164 0.129236532763631 1.67367995054796e-16
outer loop
vertex 23.4576917130236 50.1339719399623 -6.62190512449288
vertex 14.1876221813039 -20.9939717804553 3.59206987550712
vertex 14.3140570770713 -20.023854553214 3.90163237550712
endloop
endfacet
facet normal -0.991613795083164 0.129236532763631 1.67367995054796e-16
outer loop
vertex 23.4576917130236 50.1339719399623 -6.62190512449288
vertex 14.3140570770713 -20.023854553214 3.90163237550712
vertex 14.482837297636 -18.7288275862248 4.11753237550712
endloop
endfacet
facet normal -0.991613795083164 0.129236532763631 1.67367995054796e-16
outer loop
vertex 23.4576917130236 50.1339719399623 -6.62190512449288
vertex 14.482837297636 -18.7288275862248 4.11753237550712
vertex 14.640566112583 -17.5185965049743 4.36835737550712
endloop
endfacet
facet normal -0.991613795083164 0.129236532763631 1.67367995054796e-16
outer loop
vertex 23.4576917130236 50.1339719399623 -6.62190512449288
vertex 14.640566112583 -17.5185965049743 4.36835737550712
vertex 14.791245338089 -16.3624559350516 4.60806987550712
endloop
endfacet
facet normal -0.991613795083164 0.129236532763631 1.67367995054796e-16
outer loop
vertex 23.4576917130236 50.1339719399623 -6.62190512449288
vertex 14.791245338089 -16.3624559350516 4.60806987550712
vertex 14.9630198780467 -15.0444539752056 4.85889487550712
endloop
endfacet
facet normal -0.991613795083164 0.129236532763631 1.67367995054796e-16
outer loop
vertex 23.4576917130236 50.1339719399623 -6.62190512449288
vertex 14.9630198780467 -15.0444539752056 4.85889487550712
vertex 15.1289958189984 -13.7709438524865 5.13829487550712
endloop
endfacet
facet normal -0.991613795083164 0.129236532763631 1.67367995054796e-16
outer loop
vertex 23.4576917130236 50.1339719399623 -6.62190512449288
vertex 15.1289958189984 -13.7709438524865 5.13829487550712
vertex 15.2662622595226 -12.717717701065 5.47960737550712
endloop
endfacet
facet normal -0.991613795083164 0.129236532763631 1.67367995054796e-16
outer loop
vertex 23.4576917130236 50.1339719399623 -6.62190512449288
vertex 15.2662622595226 -12.717717701065 5.47960737550712
vertex 23.4576917130236 50.1339719399623 5.81298237550712
endloop
endfacet
facet normal 0.991613795083164 -0.129236532763631 -0.0
outer loop
vertex 18.5589528267784 28.4712863145123 -6.62190512449288
vertex 13.3558140912516 -11.4516676486404 -4.36484296581607
vertex 13.3558140912516 -11.4516676486404 -6.62190512449288
endloop
endfacet
facet normal 0.991613795083164 -0.129236532763631 -0.0
outer loop
vertex 13.3558140912516 -11.4516676486404 -4.36484296581607
vertex 18.5589528267784 28.4712863145123 -6.62190512449288
vertex 18.5589528267784 28.4712863145123 -4.36484296581607
endloop
endfacet
facet normal 0.991613795083164 -0.129236532763631 1.09437291790621e-16
outer loop
vertex -20.3094266591832 55.8381187111406 -6.62190512449288
vertex -30.0729284645136 -19.0758616584221 2.84435737550712
vertex -30.0729284645136 -19.0758616584221 -6.62190512449288
endloop
endfacet
facet normal 0.991613795083164 -0.129236532763631 1.09437291790621e-16
outer loop
vertex -30.0729284645136 -19.0758616584221 2.84435737550712
vertex -20.3094266591832 55.8381187111406 -6.62190512449288
vertex -30.0729284645136 -19.0758616584221 3.12851987550712
endloop
endfacet
facet normal 0.991613795083164 -0.129236532763631 1.09437291790621e-16
outer loop
vertex -30.0729284645136 -19.0758616584221 3.12851987550712
vertex -20.3094266591832 55.8381187111406 -6.62190512449288
vertex -29.9007324329144 -17.7546256523103 3.12851987550712
endloop
endfacet
facet normal 0.991613795083164 -0.129236532763631 1.09437291790621e-16
outer loop
vertex -29.9007324329144 -17.7546256523103 3.12851987550712
vertex -20.3094266591832 55.8381187111406 -6.62190512449288
vertex -29.9007324329144 -17.7546256523103 3.37616987550712
endloop
endfacet
facet normal 0.991613795083164 -0.129236532763631 1.09437291790621e-16
outer loop
vertex -29.9007324329144 -17.7546256523103 3.37616987550712
vertex -20.3094266591832 55.8381187111406 -6.62190512449288
vertex -29.7285364013151 -16.4333896461984 3.37616987550712
endloop
endfacet
facet normal 0.991613795083164 -0.129236532763631 1.09437291790621e-16
outer loop
vertex -29.7285364013151 -16.4333896461984 3.37616987550712
vertex -20.3094266591832 55.8381187111406 -6.62190512449288
vertex -29.7285364013151 -16.4333896461984 3.59206987550712
endloop
endfacet
facet normal 0.991613795083164 -0.129236532763631 1.09437291790621e-16
outer loop
vertex -29.7285364013151 -16.4333896461984 3.59206987550712
vertex -20.3094266591832 55.8381187111406 -6.62190512449288
vertex -29.579496190903 -15.2898250092771 3.59206987550712
endloop
endfacet
facet normal 0.991613795083164 -0.129236532763631 1.09437291790621e-16
outer loop
vertex -29.579496190903 -15.2898250092771 3.59206987550712
vertex -20.3094266591832 55.8381187111406 -6.62190512449288
vertex -29.579496190903 -15.2898250092771 3.90163237550712
endloop
endfacet
facet normal 0.991613795083164 -0.129236532763631 1.09437291790621e-16
outer loop
vertex -29.579496190903 -15.2898250092771 3.90163237550712
vertex -20.3094266591832 55.8381187111406 -6.62190512449288
vertex -29.4530612951355 -14.3197077820358 3.90163237550712
endloop
endfacet
facet normal 0.991613795083164 -0.129236532763631 1.09437291790621e-16
outer loop
vertex -29.4530612951355 -14.3197077820358 3.90163237550712
vertex -20.3094266591832 55.8381187111406 -6.62190512449288
vertex -29.4530612951355 -14.3197077820358 4.11753237550712
endloop
endfacet
facet normal 0.991613795083164 -0.129236532763631 1.09437291790621e-16
outer loop
vertex -29.4530612951355 -14.3197077820358 4.11753237550712
vertex -20.3094266591832 55.8381187111406 -6.62190512449288
vertex -29.2842810745708 -13.0246808150466 4.11753237550712
endloop
endfacet
facet normal 0.991613795083164 -0.129236532763631 1.09437291790621e-16
outer loop
vertex -29.2842810745708 -13.0246808150466 4.11753237550712
vertex -20.3094266591832 55.8381187111406 -6.62190512449288
vertex -29.2842810745708 -13.0246808150466 4.36835737550712
endloop
endfacet
facet normal 0.991613795083164 -0.129236532763631 1.09437291790621e-16
outer loop
vertex -29.2842810745708 -13.0246808150466 4.36835737550712
vertex -20.3094266591832 55.8381187111406 -6.62190512449288
vertex -29.1265522596238 -11.8144497337961 4.36835737550712
endloop
endfacet
facet normal 0.991613795083164 -0.129236532763631 1.09437291790621e-16
outer loop
vertex -29.1265522596238 -11.8144497337961 4.36835737550712
vertex -20.3094266591832 55.8381187111406 -6.62190512449288
vertex -29.1265522596238 -11.8144497337961 4.60806987550712
endloop
endfacet
facet normal 0.991613795083164 -0.129236532763631 1.09437291790621e-16
outer loop
vertex -29.1265522596238 -11.8144497337961 4.60806987550712
vertex -20.3094266591832 55.8381187111406 -6.62190512449288
vertex -28.9758730341178 -10.6583091638734 4.60806987550712
endloop
endfacet
facet normal 0.991613795083164 -0.129236532763631 1.09437291790621e-16
outer loop
vertex -28.9758730341178 -10.6583091638734 4.60806987550712
vertex -20.3094266591832 55.8381187111406 -6.62190512449288
vertex -28.9758730341178 -10.6583091638734 4.85889487550712
endloop
endfacet
facet normal 0.991613795083164 -0.129236532763631 1.09437291790621e-16
outer loop
vertex -28.9758730341178 -10.6583091638734 4.85889487550712
vertex -20.3094266591832 55.8381187111406 -6.62190512449288
vertex -28.8040984941601 -9.34030720402735 4.85889487550712
endloop
endfacet
facet normal 0.991613795083164 -0.129236532763631 1.09437291790621e-16
outer loop
vertex -28.8040984941601 -9.34030720402735 4.85889487550712
vertex -20.3094266591832 55.8381187111406 -6.62190512449288
vertex -28.8040984941601 -9.34030720402735 5.13829487550712
endloop
endfacet
facet normal 0.991613795083164 -0.129236532763631 1.09437291790621e-16
outer loop
vertex -28.8040984941601 -9.34030720402735 5.13829487550712
vertex -20.3094266591832 55.8381187111406 -6.62190512449288
vertex -28.6381225532084 -8.06679708130822 5.13829487550712
endloop
endfacet
facet normal 0.991613795083164 -0.129236532763631 1.09437291790621e-16
outer loop
vertex -28.6381225532084 -8.06679708130822 5.13829487550712
vertex -20.3094266591832 55.8381187111406 -6.62190512449288
vertex -28.6381225532084 -8.06679708130822 5.47960737550712
endloop
endfacet
facet normal 0.991613795083164 -0.129236532763631 1.09437291790621e-16
outer loop
vertex -28.6381225532084 -8.06679708130822 5.47960737550712
vertex -20.3094266591832 55.8381187111406 -6.62190512449288
vertex -28.5008561126842 -7.01357092988681 5.47960737550712
endloop
endfacet
facet normal 0.991613795083164 -0.129236532763631 1.09437291790621e-16
outer loop
vertex -28.5008561126842 -7.01357092988681 5.47960737550712
vertex -20.3094266591832 55.8381187111406 -6.62190512449288
vertex -28.5008561126842 -7.01357092988681 5.81298237550712
endloop
endfacet
facet normal 0.991613795083164 -0.129236532763631 1.09437291790621e-16
outer loop
vertex -28.5008561126842 -7.01357092988681 5.81298237550712
vertex -20.3094266591832 55.8381187111406 -6.62190512449288
vertex -20.3094266591832 55.8381187111406 5.81298237550712
endloop
endfacet
facet normal -0.991613795083164 0.129236532763631 0.0
outer loop
vertex -23.0514105055791 -26.2828616245327 2.84435737550712
vertex -23.2368456800796 -27.7056797178086 -6.62190512449288
vertex -23.2368456800796 -27.7056797178086 2.84435737550712
endloop
endfacet
facet normal -0.991613795083164 0.129236532763631 0.0
outer loop
vertex -23.2368456800796 -27.7056797178086 -6.62190512449288
vertex -23.0514105055791 -26.2828616245327 2.84435737550712
vertex -23.0514105055791 -26.2828616245327 -6.62190512449288
endloop
endfacet
facet normal 0.129236532763633 0.991613795083164 -0.0
outer loop
vertex -30.0729284645136 -19.0758616584221 3.12851987550712
vertex -22.2450877585648 -20.0960602446853 2.84435737550712
vertex -30.0729284645136 -19.0758616584221 2.84435737550712
endloop
endfacet
facet normal 0.129236532763633 0.991613795083164 -0.0
outer loop
vertex -22.2450877585648 -20.0960602446853 2.84435737550712
vertex -30.0729284645136 -19.0758616584221 3.12851987550712
vertex -22.2450877585648 -20.0960602446853 3.12851987550712
endloop
endfacet
facet normal 0.991613795083164 -0.129236532763631 -0.0
outer loop
vertex 5.25371120028128 -25.1223990847852 2.84435737550712
vertex 5.22416772889151 -25.3490819983412 3.37616987550712
vertex 5.22416772889151 -25.3490819983412 2.84435737550712
endloop
endfacet
facet normal 0.991613795083164 -0.129236532763631 -0.0
outer loop
vertex 5.22416772889151 -25.3490819983412 3.37616987550712
vertex 5.25371120028128 -25.1223990847852 2.84435737550712
vertex 5.43856305946308 -23.7040566881604 3.37616987550712
endloop
endfacet
facet normal 0.991613795083164 -0.129236532763631 -0.0
outer loop
vertex 5.43856305946308 -23.7040566881604 3.37616987550712
vertex 5.25371120028128 -25.1223990847852 2.84435737550712
vertex 5.43856305946308 -23.7040566881604 2.84435737550712
endloop
endfacet
facet normal 0.991613795083164 -0.129236532763631 -0.0
outer loop
vertex 5.43856305946308 -23.7040566881604 3.37616987550712
vertex 5.43856305946308 -23.7040566881604 2.84435737550712
vertex 5.43856305946308 -23.7040566881604 3.12851987550712
endloop
endfacet
facet normal 0.129236532763631 0.991613795083164 0.0
outer loop
vertex -28.9758730341178 -10.6583091638734 4.85889487550712
vertex 14.791245338089 -16.3624559350516 4.60806987550712
vertex -28.9758730341178 -10.6583091638734 4.60806987550712
endloop
endfacet
facet normal 0.129236532763631 0.991613795083164 0.0
outer loop
vertex 14.791245338089 -16.3624559350516 4.60806987550712
vertex -28.9758730341178 -10.6583091638734 4.85889487550712
vertex 14.791245338089 -16.3624559350516 4.85889487550712
endloop
endfacet
facet normal 0.129236532763632 0.991613795083164 1.94634081308031e-16
outer loop
vertex -22.4299396177466 -21.51440264131 2.84435737550712
vertex 5.25371120028128 -25.1223990847852 2.52368237550712
vertex -22.4299396177466 -21.51440264131 2.52368237550712
endloop
endfacet
facet normal 0.129236532763632 0.991613795083164 1.94634081308031e-16
outer loop
vertex 5.25371120028128 -25.1223990847852 2.52368237550712
vertex -22.4299396177466 -21.51440264131 2.84435737550712
vertex 5.25371120028128 -25.1223990847852 2.84435737550712
endloop
endfacet
facet normal 0.129236532763632 0.991613795083164 0.0
outer loop
vertex -22.6008403932165 -22.8257003287555 2.52368237550712
vertex 5.08281042481129 -26.4336967722307 2.10775737550712
vertex -22.6008403932165 -22.8257003287555 2.10775737550712
endloop
endfacet
facet normal 0.129236532763632 0.991613795083164 0.0
outer loop
vertex 5.08281042481129 -26.4336967722307 2.10775737550712
vertex -22.6008403932165 -22.8257003287555 2.52368237550712
vertex 5.08281042481129 -26.4336967722307 2.52368237550712
endloop
endfacet
facet normal -0.129236532763631 -0.991613795083164 -0.0
outer loop
vertex 9.64810213858304 -2.86892928546355 25.8170698755071
vertex -19.8852182865859 0.980133678032293 23.2262698755071
vertex 9.64810213858304 -2.86892928546355 23.2262698755071
endloop
endfacet
facet normal -0.129236532763631 -0.991613795083164 -0.0
outer loop
vertex -19.8852182865859 0.980133678032293 23.2262698755071
vertex 9.64810213858304 -2.86892928546355 25.8170698755071
vertex -19.8852182865859 0.980133678032293 25.8170698755071
endloop
endfacet
facet normal 2.56416323448505e-17 -3.3418611914032e-18 -1.0
outer loop
vertex -22.2450877585648 -20.0960602446853 2.84435737550712
vertex 5.25371120028128 -25.1223990847852 2.84435737550712
vertex -22.4299396177466 -21.51440264131 2.84435737550712
endloop
endfacet
facet normal 2.56416323448505e-17 -3.3418611914032e-18 -1.0
outer loop
vertex 5.25371120028128 -25.1223990847852 2.84435737550712
vertex -22.2450877585648 -20.0960602446853 2.84435737550712
vertex 5.43856305946308 -23.7040566881604 2.84435737550712
endloop
endfacet
facet normal -0.991613795083164 0.12923653276363 0.0
outer loop
vertex -19.8795428899625 33.4809563450354 24.2438573755071
vertex -25.0826816254892 -6.44199761811747 10.6302448752262
vertex -25.0826816254892 -6.44199761811747 24.2438573755071
endloop
endfacet
facet normal -0.991613795083164 0.12923653276363 0.0
outer loop
vertex -25.0826816254892 -6.44199761811747 10.6302448752262
vertex -19.8795428899625 33.4809563450354 24.2438573755071
vertex -19.8795428899625 33.4809563450354 10.6302448752262
endloop
endfacet
facet normal 0.129236532763631 0.991613795083164 0.0
outer loop
vertex -28.5008561126842 -7.01357092988681 5.81298237550712
vertex 15.2662622595226 -12.717717701065 5.47960737550712
vertex -28.5008561126842 -7.01357092988681 5.47960737550712
endloop
endfacet
facet normal 0.129236532763631 0.991613795083164 0.0
outer loop
vertex 15.2662622595226 -12.717717701065 5.47960737550712
vertex -28.5008561126842 -7.01357092988681 5.81298237550712
vertex 15.2662622595226 -12.717717701065 5.81298237550712
endloop
endfacet
facet normal 0.0 0.0 1.0
outer loop
vertex 12.3417120978484 -10.1336174153599 23.2262698755071
vertex -19.8852182865859 0.980133678032293 23.2262698755071
vertex -23.7646313922087 -5.42789562471426 23.2262698755071
endloop
endfacet
facet normal 0.0 0.0 1.0
outer loop
vertex -19.8852182865859 0.980133678032293 23.2262698755071
vertex 12.3417120978484 -10.1336174153599 23.2262698755071
vertex 9.64810213858304 -2.86892928546355 23.2262698755071
endloop
endfacet
facet normal 0.0 0.0 1.0
outer loop
vertex 9.64810213858304 -2.86892928546355 23.2262698755071
vertex 12.3417120978484 -10.1336174153599 23.2262698755071
vertex 12.7456530486017 20.8981445261243 23.2262698755071
endloop
endfacet
facet normal 0.0 0.0 1.0
outer loop
vertex 12.7456530486017 20.8981445261243 23.2262698755071
vertex 12.3417120978484 -10.1336174153599 23.2262698755071
vertex 17.2409025934979 27.4571843211091 23.2262698755071
endloop
endfacet
facet normal 0.0 0.0 1.0
outer loop
vertex -19.8852182865859 0.980133678032293 23.2262698755071
vertex -18.8654408965593 32.1629061117548 23.2262698755071
vertex -23.7646313922087 -5.42789562471426 23.2262698755071
endloop
endfacet
facet normal 0.0 0.0 1.0
outer loop
vertex -18.8654408965593 32.1629061117548 23.2262698755071
vertex -19.8852182865859 0.980133678032293 23.2262698755071
vertex -16.7876673765672 24.7472074896202 23.2262698755071
endloop
endfacet
facet normal 0.0 0.0 1.0
outer loop
vertex -18.8654408965593 32.1629061117548 23.2262698755071
vertex -16.7876673765672 24.7472074896202 23.2262698755071
vertex 17.2409025934979 27.4571843211091 23.2262698755071
endloop
endfacet
facet normal 0.0 0.0 1.0
outer loop
vertex 17.2409025934979 27.4571843211091 23.2262698755071
vertex -16.7876673765672 24.7472074896202 23.2262698755071
vertex 12.7456530486017 20.8981445261243 23.2262698755071
endloop
endfacet
facet normal -0.991613795083164 0.129236532763631 0.0
outer loop
vertex -16.7876673765672 24.7472074896202 25.8170698755071
vertex -19.8852182865859 0.980133678032293 23.2262698755071
vertex -19.8852182865859 0.980133678032293 25.8170698755071
endloop
endfacet
facet normal -0.991613795083164 0.129236532763631 0.0
outer loop
vertex -19.8852182865859 0.980133678032293 23.2262698755071
vertex -16.7876673765672 24.7472074896202 25.8170698755071
vertex -16.7876673765672 24.7472074896202 23.2262698755071
endloop
endfacet
facet normal 0.0 0.0 -1.0
outer loop
vertex -22.4299396177466 -21.51440264131 2.52368237550712
vertex 5.08281042481129 -26.4336967722307 2.52368237550712
vertex -22.6008403932165 -22.8257003287555 2.52368237550712
endloop
endfacet
facet normal 0.0 0.0 -1.0
outer loop
vertex 5.08281042481129 -26.4336967722307 2.52368237550712
vertex -22.4299396177466 -21.51440264131 2.52368237550712
vertex 5.25371120028128 -25.1223990847852 2.52368237550712
endloop
endfacet
facet normal -0.129236532763631 -0.991613795083164 0.0
outer loop
vertex 13.3558140912516 -11.4516676486404 5.81298237550712
vertex -25.0826816254892 -6.44199761811747 5.13829487550712
vertex 13.3558140912516 -11.4516676486404 5.13829487550712
endloop
endfacet
facet normal -0.129236532763631 -0.991613795083164 0.0
outer loop
vertex -25.0826816254892 -6.44199761811747 5.13829487550712
vertex 13.3558140912516 -11.4516676486404 5.81298237550712
vertex -25.0826816254892 -6.44199761811747 5.81298237550712
endloop
endfacet
facet normal 0.0 0.0 -1.0
outer loop
vertex 2.91007984418293 -29.666409750644 -6.62190512449288
vertex 4.44680513794825 -31.3136761612837 -6.62190512449288
vertex 2.72464466968245 -31.0892278439198 -6.62190512449288
endloop
endfacet
facet normal 0.0 0.0 -1.0
outer loop
vertex 4.44680513794825 -31.3136761612837 -6.62190512449288
vertex 2.91007984418293 -29.666409750644 -6.62190512449288
vertex 4.63224031244873 -29.8908580680079 -6.62190512449288
endloop
endfacet
facet normal 0.129236532763631 0.991613795083164 0.0
outer loop
vertex -28.8040984941601 -9.34030720402735 5.13829487550712
vertex 14.9630198780467 -15.0444539752056 4.85889487550712
vertex -28.8040984941601 -9.34030720402735 4.85889487550712
endloop
endfacet
facet normal 0.129236532763631 0.991613795083164 0.0
outer loop
vertex 14.9630198780467 -15.0444539752056 4.85889487550712
vertex -28.8040984941601 -9.34030720402735 5.13829487550712
vertex 14.9630198780467 -15.0444539752056 5.13829487550712
endloop
endfacet
facet normal -0.129236532763632 -0.991613795083164 0.0
outer loop
vertex 13.3558140912516 -11.4516676486404 24.2438573755071
vertex -25.0826816254892 -6.44199761811747 10.6302448752262
vertex 13.3558140912516 -11.4516676486404 10.6302448752262
endloop
endfacet
facet normal -0.129236532763632 -0.991613795083164 0.0
outer loop
vertex -25.0826816254892 -6.44199761811747 10.6302448752262
vertex 13.3558140912516 -11.4516676486404 24.2438573755071
vertex -25.0826816254892 -6.44199761811747 24.2438573755071
endloop
endfacet
facet normal 0.0 0.0 -1.0
outer loop
vertex -30.0729284645136 -19.0758616584221 2.84435737550712
vertex -23.2368456800796 -27.7056797178086 2.84435737550712
vertex -31.0646863860284 -26.6854811315454 2.84435737550712
endloop
endfacet
facet normal 0.0 0.0 -1.0
outer loop
vertex -23.2368456800796 -27.7056797178086 2.84435737550712
vertex -30.0729284645136 -19.0758616584221 2.84435737550712
vertex -22.4299396177466 -21.51440264131 2.84435737550712
endloop
endfacet
facet normal 0.0 0.0 -1.0
outer loop
vertex -22.4299396177466 -21.51440264131 2.84435737550712
vertex -30.0729284645136 -19.0758616584221 2.84435737550712
vertex -22.2450877585648 -20.0960602446853 2.84435737550712
endloop
endfacet
facet normal 0.0 0.0 -1.0
outer loop
vertex -23.2368456800796 -27.7056797178086 2.84435737550712
vertex -22.4299396177466 -21.51440264131 2.84435737550712
vertex -23.0514105055791 -26.2828616245327 2.84435737550712
endloop
endfacet
facet normal 0.0 0.0 -1.0
outer loop
vertex -23.0514105055791 -26.2828616245327 2.84435737550712
vertex -22.4299396177466 -21.51440264131 2.84435737550712
vertex -22.8659753310786 -24.8600435312569 2.84435737550712
endloop
endfacet
facet normal 0.0 0.0 -1.0
outer loop
vertex -22.8659753310786 -24.8600435312569 2.84435737550712
vertex -22.4299396177466 -21.51440264131 2.84435737550712
vertex -22.6738784197079 -23.3861108650468 2.84435737550712
endloop
endfacet
facet normal 0.0 0.0 -1.0
outer loop
vertex 3.0955150186834 -28.2435916573681 -6.62190512449288
vertex 4.63224031244873 -29.8908580680079 -6.62190512449288
vertex 2.91007984418293 -29.666409750644 -6.62190512449288
endloop
endfacet
facet normal 0.0 0.0 -1.0
outer loop
vertex 4.63224031244873 -29.8908580680079 -6.62190512449288
vertex 3.0955150186834 -28.2435916573681 -6.62190512449288
vertex 3.18004217293746 -27.595026654694 -6.62190512449288
endloop
endfacet
facet normal 0.0 0.0 -1.0
outer loop
vertex 4.63224031244873 -29.8908580680079 -6.62190512449288
vertex 3.18004217293746 -27.595026654694 -6.62190512449288
vertex 4.90220264120328 -27.8194749720579 -6.62190512449288
endloop
endfacet
facet normal -0.991613795083164 0.12923653276363 2.4354843211418e-17
outer loop
vertex -19.8795428899625 33.4809563450354 10.6302448752262
vertex -25.0826816254892 -6.44199761811747 5.81298237550712
vertex -25.0826816254892 -6.44199761811747 10.6302448752262
endloop
endfacet
facet normal -0.991613795083164 0.12923653276363 2.4354843211418e-17
outer loop
vertex -25.0826816254892 -6.44199761811747 5.81298237550712
vertex -19.8795428899625 33.4809563450354 10.6302448752262
vertex -25.0826816254892 -6.44199761811747 5.13829487550712
endloop
endfacet
facet normal -0.991613795083164 0.12923653276363 2.4354843211418e-17
outer loop
vertex -25.0826816254892 -6.44199761811747 5.13829487550712
vertex -19.8795428899625 33.4809563450354 10.6302448752262
vertex -19.8795428899625 33.4809563450354 5.13829487550712
endloop
endfacet
facet normal 0.0 0.0 -1.0
outer loop
vertex -29.4530612951355 -14.3197077820358 3.90163237550712
vertex 14.1876221813039 -20.9939717804553 3.90163237550712
vertex -29.579496190903 -15.2898250092771 3.90163237550712
endloop
endfacet
facet normal 0.0 0.0 -1.0
outer loop
vertex 14.1876221813039 -20.9939717804553 3.90163237550712
vertex -29.4530612951355 -14.3197077820358 3.90163237550712
vertex 14.3140570770713 -20.023854553214 3.90163237550712
endloop
endfacet
facet normal -0.129236532763631 -0.991613795083164 1.54556136520744e-16
outer loop
vertex 13.6941899076932 -24.7800084296004 3.37616987550712
vertex 5.43856305946308 -23.7040566881604 3.12851987550712
vertex 13.6941899076932 -24.7800084296004 3.12851987550712
endloop
endfacet
facet normal -0.129236532763631 -0.991613795083164 1.54556136520744e-16
outer loop
vertex 5.43856305946308 -23.7040566881604 3.12851987550712
vertex 13.6941899076932 -24.7800084296004 3.37616987550712
vertex 5.43856305946308 -23.7040566881604 3.37616987550712
endloop
endfacet
facet normal 0.12923653276363 0.991613795083164 0.0
outer loop
vertex -29.579496190903 -15.2898250092771 3.90163237550712
vertex 14.1876221813039 -20.9939717804553 3.59206987550712
vertex -29.579496190903 -15.2898250092771 3.59206987550712
endloop
endfacet
facet normal 0.12923653276363 0.991613795083164 0.0
outer loop
vertex 14.1876221813039 -20.9939717804553 3.59206987550712
vertex -29.579496190903 -15.2898250092771 3.90163237550712
vertex 14.1876221813039 -20.9939717804553 3.90163237550712
endloop
endfacet
facet normal -0.991613795083164 0.129236532763631 -0.0
outer loop
vertex -19.4396907317205 54.7077041674933 5.81298237550712
vertex -27.370441569037 -6.14383500242409 5.13829487550712
vertex -27.370441569037 -6.14383500242409 5.81298237550712
endloop
endfacet
facet normal -0.991613795083164 0.129236532763631 -0.0
outer loop
vertex -27.370441569037 -6.14383500242409 5.13829487550712
vertex -19.4396907317205 54.7077041674933 5.81298237550712
vertex -19.4396907317205 54.7077041674933 5.13829487550712
endloop
endfacet
facet normal 0.12923653276363 0.991613795083164 0.0
outer loop
vertex -29.9007324329144 -17.7546256523103 3.37616987550712
vertex 13.8663859392924 -23.4587724234885 3.12851987550712
vertex -29.9007324329144 -17.7546256523103 3.12851987550712
endloop
endfacet
facet normal 0.12923653276363 0.991613795083164 0.0
outer loop
vertex 13.8663859392924 -23.4587724234885 3.12851987550712
vertex -29.9007324329144 -17.7546256523103 3.37616987550712
vertex 13.8663859392924 -23.4587724234885 3.37616987550712
endloop
endfacet
facet normal 0.991613795083164 -0.129236532763631 2.67903275325598e-16
outer loop
vertex 18.5589528267784 28.4712863145123 5.13829487550712
vertex 13.3558140912516 -11.4516676486404 5.81298237550712
vertex 13.3558140912516 -11.4516676486404 5.13829487550712
endloop
endfacet
facet normal 0.991613795083164 -0.129236532763631 2.67903275325598e-16
outer loop
vertex 13.3558140912516 -11.4516676486404 5.81298237550712
vertex 18.5589528267784 28.4712863145123 5.13829487550712
vertex 13.3558140912516 -11.4516676486404 10.6302448752262
endloop
endfacet
facet normal 0.991613795083164 -0.129236532763631 2.67903275325598e-16
outer loop
vertex 13.3558140912516 -11.4516676486404 10.6302448752262
vertex 18.5589528267784 28.4712863145123 5.13829487550712
vertex 18.5589528267784 28.4712863145124 10.6302448752261
endloop
endfacet
facet normal 0.0 0.0 -1.0
outer loop
vertex -28.9758730341178 -10.6583091638734 4.60806987550712
vertex 14.640566112583 -17.5185965049743 4.60806987550712
vertex -29.1265522596238 -11.8144497337961 4.60806987550712
endloop
endfacet
facet normal 0.0 0.0 -1.0
outer loop
vertex 14.640566112583 -17.5185965049743 4.60806987550712
vertex -28.9758730341178 -10.6583091638734 4.60806987550712
vertex 14.791245338089 -16.3624559350516 4.60806987550712
endloop
endfacet
facet normal 0.129236532763631 0.991613795083164 0.0
outer loop
vertex -29.1265522596238 -11.8144497337961 4.60806987550712
vertex 14.640566112583 -17.5185965049743 4.36835737550712
vertex -29.1265522596238 -11.8144497337961 4.36835737550712
endloop
endfacet
facet normal 0.129236532763631 0.991613795083164 0.0
outer loop
vertex 14.640566112583 -17.5185965049743 4.36835737550712
vertex -29.1265522596238 -11.8144497337961 4.60806987550712
vertex 14.640566112583 -17.5185965049743 4.60806987550712
endloop
endfacet
facet normal 9.26934598982898e-18 7.11223920849401e-17 -1.0
outer loop
vertex -19.8795428899625 33.4809563450354 5.13829487550712
vertex 13.3558140912516 -11.4516676486404 5.13829487550712
vertex -25.0826816254892 -6.44199761811747 5.13829487550712
endloop
endfacet
facet normal 9.26934598982898e-18 7.11223920849401e-17 -1.0
outer loop
vertex 13.3558140912516 -11.4516676486404 5.13829487550712
vertex -19.8795428899625 33.4809563450354 5.13829487550712
vertex 18.5589528267784 28.4712863145123 5.13829487550712
endloop
endfacet
facet normal 0.0 0.0 -1.0
outer loop
vertex -29.2842810745708 -13.0246808150466 4.11753237550712
vertex 14.3140570770713 -20.023854553214 4.11753237550712
vertex -29.4530612951355 -14.3197077820358 4.11753237550712
endloop
endfacet
facet normal 0.0 0.0 -1.0
outer loop
vertex 14.3140570770713 -20.023854553214 4.11753237550712
vertex -29.2842810745708 -13.0246808150466 4.11753237550712
vertex 14.482837297636 -18.7288275862248 4.11753237550712
endloop
endfacet
facet normal -0.129236532763631 -0.991613795083164 0.0
outer loop
vertex 13.3558140912516 -11.4516676486404 5.13829487550712
vertex -25.0826816254892 -6.44199761811747 -4.36484296581607
vertex 13.3558140912516 -11.4516676486404 -4.36484296581607
endloop
endfacet
facet normal -0.129236532763631 -0.991613795083164 0.0
outer loop
vertex -25.0826816254892 -6.44199761811747 -4.36484296581607
vertex 13.3558140912516 -11.4516676486404 5.13829487550712
vertex -25.0826816254892 -6.44199761811747 5.13829487550712
endloop
endfacet
facet normal 0.129236532763632 0.991613795083164 0.0
outer loop
vertex -19.4396907317205 54.7077041674933 5.81298237550712
vertex 22.3272771693764 49.2642360124996 5.13829487550712
vertex -19.4396907317205 54.7077041674933 5.13829487550712
endloop
endfacet
facet normal 0.129236532763632 0.991613795083164 0.0
outer loop
vertex 22.3272771693764 49.2642360124996 5.13829487550712
vertex -19.4396907317205 54.7077041674933 5.81298237550712
vertex 22.3272771693764 49.2642360124996 5.81298237550712
endloop
endfacet
facet normal -0.991613795083164 0.129236532763631 -0.0
outer loop
vertex 17.2409025934979 27.4571843211091 24.2438573755071
vertex 12.3417120978484 -10.1336174153599 23.2262698755071
vertex 12.3417120978484 -10.1336174153599 24.2438573755071
endloop
endfacet
facet normal -0.991613795083164 0.129236532763631 -0.0
outer loop
vertex 12.3417120978484 -10.1336174153599 23.2262698755071
vertex 17.2409025934979 27.4571843211091 24.2438573755071
vertex 17.2409025934979 27.4571843211091 23.2262698755071
endloop
endfacet
facet normal 0.0 0.0 -1.0
outer loop
vertex -28.8040984941601 -9.34030720402735 4.85889487550712
vertex 14.791245338089 -16.3624559350516 4.85889487550712
vertex -28.9758730341178 -10.6583091638734 4.85889487550712
endloop
endfacet
facet normal 0.0 0.0 -1.0
outer loop
vertex 14.791245338089 -16.3624559350516 4.85889487550712
vertex -28.8040984941601 -9.34030720402735 4.85889487550712
vertex 14.9630198780467 -15.0444539752056 4.85889487550712
endloop
endfacet
facet normal 0.129236532763631 0.991613795083164 0.0
outer loop
vertex -16.7876673765672 24.7472074896202 25.8170698755071
vertex 12.7456530486017 20.8981445261243 23.2262698755071
vertex -16.7876673765672 24.7472074896202 23.2262698755071
endloop
endfacet
facet normal 0.129236532763631 0.991613795083164 0.0
outer loop
vertex 12.7456530486017 20.8981445261243 23.2262698755071
vertex -16.7876673765672 24.7472074896202 25.8170698755071
vertex 12.7456530486017 20.8981445261243 25.8170698755071
endloop
endfacet
endsolid 480 W Main Street (Louisville)
