solid 600WMainOffice
facet normal -0.944965219222672 -0.327170803189172 0.0
outer loop
vertex 0.24877451924031 -23.4643095149787 23.0646760000001
vertex 0.531715319240313 -24.2815255149787 1.15505827125162e-14
vertex 0.531715319240313 -24.2815255149787 23.0646760000001
endloop
endfacet
facet normal -0.944965219222672 -0.327170803189172 0.0
outer loop
vertex 0.531715319240313 -24.2815255149787 1.15505827125162e-14
vertex 0.24877451924031 -23.4643095149787 23.0646760000001
vertex 0.24877451924031 -23.4643095149787 1.15505827125162e-14
endloop
endfacet
facet normal 0.0 0.0 -1.0
outer loop
vertex -16.0644830807597 23.6582184850214 1.15505827125162e-14
vertex -13.7700830807597 -24.1194455149787 1.15505827125162e-14
vertex -23.3745950807597 -22.6566615149787 1.15505827125162e-14
endloop
endfacet
facet normal 0.0 0.0 -1.0
outer loop
vertex -13.7700830807597 -24.1194455149787 1.15505827125162e-14
vertex -16.0644830807597 23.6582184850214 1.15505827125162e-14
vertex -13.0159710807597 -20.0527895149787 1.15505827125162e-14
endloop
endfacet
facet normal 0.0 0.0 -1.0
outer loop
vertex -13.0159710807597 -20.0527895149787 1.15505827125162e-14
vertex -16.0644830807597 23.6582184850214 1.15505827125162e-14
vertex 19.5514209192403 18.9650024850214 1.15505827125162e-14
endloop
endfacet
facet normal 0.0 0.0 -1.0
outer loop
vertex -13.0159710807597 -20.0527895149787 1.15505827125162e-14
vertex 19.5514209192403 18.9650024850214 1.15505827125162e-14
vertex 0.149459319240313 -22.4260055149787 1.15505827125162e-14
endloop
endfacet
facet normal 0.0 0.0 -1.0
outer loop
vertex 0.149459319240313 -22.4260055149787 1.15505827125162e-14
vertex 19.5514209192403 18.9650024850214 1.15505827125162e-14
vertex 0.24877451924031 -23.4643095149787 1.15505827125162e-14
endloop
endfacet
facet normal 0.0 0.0 -1.0
outer loop
vertex 0.24877451924031 -23.4643095149787 1.15505827125162e-14
vertex 19.5514209192403 18.9650024850214 1.15505827125162e-14
vertex 0.531715319240313 -24.2815255149787 1.15505827125162e-14
endloop
endfacet
facet normal 0.0 0.0 -1.0
outer loop
vertex 0.531715319240313 -24.2815255149787 1.15505827125162e-14
vertex 19.5514209192403 18.9650024850214 1.15505827125162e-14
vertex 1.39817291924031 -24.9120855149787 1.15505827125162e-14
endloop
endfacet
facet normal 0.0 0.0 -1.0
outer loop
vertex 1.39817291924031 -24.9120855149787 1.15505827125162e-14
vertex 19.5514209192403 18.9650024850214 1.15505827125162e-14
vertex 2.31375691924032 -25.6975895149787 1.15505827125162e-14
endloop
endfacet
facet normal 0.0 0.0 -1.0
outer loop
vertex 2.31375691924032 -25.6975895149787 1.15505827125162e-14
vertex 19.5514209192403 18.9650024850214 1.15505827125162e-14
vertex 4.37046091924032 -26.0908695149787 1.15505827125162e-14
endloop
endfacet
facet normal 0.0 0.0 -1.0
outer loop
vertex 4.37046091924032 -26.0908695149787 1.15505827125162e-14
vertex 19.5514209192403 18.9650024850214 1.15505827125162e-14
vertex 6.01612491924035 -23.2413335149787 1.15505827125162e-14
endloop
endfacet
facet normal 0.0 0.0 -1.0
outer loop
vertex 4.37046091924032 -26.0908695149787 1.15505827125162e-14
vertex 6.01612491924035 -23.2413335149787 1.15505827125162e-14
vertex 5.50492491924034 -26.1094615149787 1.15505827125162e-14
endloop
endfacet
facet normal 0.0 0.0 -1.0
outer loop
vertex 6.01612491924035 -23.2413335149787 1.15505827125162e-14
vertex 19.5514209192403 18.9650024850214 1.15505827125162e-14
vertex 12.9648609192404 -24.1257175149787 1.15505827125162e-14
endloop
endfacet
facet normal -0.177401961902072 -0.984138478016837 0.0
outer loop
vertex 0.149459319240313 -22.4260055149787 23.0646760000001
vertex -13.0159710807597 -20.0527895149787 1.15505827125162e-14
vertex 0.149459319240313 -22.4260055149787 1.15505827125162e-14
endloop
endfacet
facet normal -0.177401961902072 -0.984138478016837 0.0
outer loop
vertex -13.0159710807597 -20.0527895149787 1.15505827125162e-14
vertex 0.149459319240313 -22.4260055149787 23.0646760000001
vertex -13.0159710807597 -20.0527895149787 23.0646760000001
endloop
endfacet
facet normal -0.150565516566818 -0.98860003298653 0.0
outer loop
vertex -13.7700830807597 -24.1194455149787 23.0646760000001
vertex -23.3745950807597 -22.6566615149787 1.15505827125162e-14
vertex -13.7700830807597 -24.1194455149787 1.15505827125162e-14
endloop
endfacet
facet normal -0.150565516566818 -0.98860003298653 0.0
outer loop
vertex -23.3745950807597 -22.6566615149787 1.15505827125162e-14
vertex -13.7700830807597 -24.1194455149787 23.0646760000001
vertex -23.3745950807597 -22.6566615149787 23.0646760000001
endloop
endfacet
facet normal 0.983237493191702 -0.182329459995082 -0.0
outer loop
vertex -13.0159710807597 -20.0527895149787 1.15505827125162e-14
vertex -13.7700830807597 -24.1194455149787 23.0646760000001
vertex -13.7700830807597 -24.1194455149787 1.15505827125162e-14
endloop
endfacet
facet normal 0.983237493191702 -0.182329459995082 -0.0
outer loop
vertex -13.7700830807597 -24.1194455149787 23.0646760000001
vertex -13.0159710807597 -20.0527895149787 1.15505827125162e-14
vertex -13.0159710807597 -20.0527895149787 23.0646760000001
endloop
endfacet
facet normal -0.987772044249256 0.155905062777471 0.0
outer loop
vertex -16.0644830807597 23.6582184850214 23.0646760000001
vertex -23.3745950807597 -22.6566615149787 1.15505827125162e-14
vertex -23.3745950807597 -22.6566615149787 23.0646760000001
endloop
endfacet
facet normal -0.987772044249256 0.155905062777471 0.0
outer loop
vertex -23.3745950807597 -22.6566615149787 1.15505827125162e-14
vertex -16.0644830807597 23.6582184850214 23.0646760000001
vertex -16.0644830807597 23.6582184850214 1.15505827125162e-14
endloop
endfacet
facet normal -0.995456560627754 -0.0952167837262036 0.0
outer loop
vertex 0.149459319240313 -22.4260055149787 23.0646760000001
vertex 0.24877451924031 -23.4643095149787 1.15505827125162e-14
vertex 0.24877451924031 -23.4643095149787 23.0646760000001
endloop
endfacet
facet normal -0.995456560627754 -0.0952167837262036 0.0
outer loop
vertex 0.24877451924031 -23.4643095149787 1.15505827125162e-14
vertex 0.149459319240313 -22.4260055149787 23.0646760000001
vertex 0.149459319240313 -22.4260055149787 1.15505827125162e-14
endloop
endfacet
facet normal -0.588421311986008 -0.808554487712897 0.0
outer loop
vertex 1.39817291924031 -24.9120855149787 23.0646760000001
vertex 0.531715319240313 -24.2815255149787 1.15505827125162e-14
vertex 1.39817291924031 -24.9120855149787 1.15505827125162e-14
endloop
endfacet
facet normal -0.588421311986008 -0.808554487712897 0.0
outer loop
vertex 0.531715319240313 -24.2815255149787 1.15505827125162e-14
vertex 1.39817291924031 -24.9120855149787 23.0646760000001
vertex 0.531715319240313 -24.2815255149787 23.0646760000001
endloop
endfacet
facet normal -0.651134272927458 -0.758962554161422 0.0
outer loop
vertex 2.31375691924032 -25.6975895149787 23.0646760000001
vertex 1.39817291924031 -24.9120855149787 1.15505827125162e-14
vertex 2.31375691924032 -25.6975895149787 1.15505827125162e-14
endloop
endfacet
facet normal -0.651134272927458 -0.758962554161422 0.0
outer loop
vertex 1.39817291924031 -24.9120855149787 1.15505827125162e-14
vertex 2.31375691924032 -25.6975895149787 23.0646760000001
vertex 1.39817291924031 -24.9120855149787 23.0646760000001
endloop
endfacet
facet normal -0.187815700387118 -0.982204287655117 0.0
outer loop
vertex 4.37046091924032 -26.0908695149787 23.0646760000001
vertex 2.31375691924032 -25.6975895149787 1.15505827125162e-14
vertex 4.37046091924032 -26.0908695149787 1.15505827125162e-14
endloop
endfacet
facet normal -0.187815700387118 -0.982204287655117 0.0
outer loop
vertex 2.31375691924032 -25.6975895149787 1.15505827125162e-14
vertex 4.37046091924032 -26.0908695149787 23.0646760000001
vertex 2.31375691924032 -25.6975895149787 23.0646760000001
endloop
endfacet
facet normal -0.0 -0.0 1.0
outer loop
vertex 9.406644888467 1.96831454269397 24.595788
vertex 2.57197064597093 9.03555490185547 24.595788
vertex 1.26406733010178 3.08602377439587 24.595788
endloop
endfacet
facet normal -0.0 -0.0 1.0
outer loop
vertex 2.57197064597093 9.03555490185547 24.595788
vertex 9.406644888467 1.96831454269397 24.595788
vertex 10.2324053462538 7.98402809452902 24.595788
endloop
endfacet
facet normal -0.976678679560113 0.214706210652404 0.0
outer loop
vertex 2.57197064597093 9.03555490185547 24.595788
vertex 1.26406733010178 3.08602377439587 21.943012
vertex 1.26406733010178 3.08602377439587 24.595788
endloop
endfacet
facet normal -0.976678679560113 0.214706210652404 0.0
outer loop
vertex 1.26406733010178 3.08602377439587 21.943012
vertex 2.57197064597093 9.03555490185547 24.595788
vertex 2.57197064597093 9.03555490185547 21.943012
endloop
endfacet
facet normal -0.135992028125053 -0.990709931456445 0.0
outer loop
vertex 9.406644888467 1.96831454269397 24.595788
vertex 1.26406733010178 3.08602377439587 21.943012
vertex 9.406644888467 1.96831454269397 21.943012
endloop
endfacet
facet normal -0.135992028125053 -0.990709931456445 0.0
outer loop
vertex 1.26406733010178 3.08602377439587 21.943012
vertex 9.406644888467 1.96831454269397 24.595788
vertex 1.26406733010178 3.08602377439587 24.595788
endloop
endfacet
facet normal 0.990709931456445 -0.135992028125055 -0.0
outer loop
vertex 10.2324053462538 7.98402809452902 21.943012
vertex 9.406644888467 1.96831454269397 24.595788
vertex 9.406644888467 1.96831454269397 21.943012
endloop
endfacet
facet normal 0.990709931456445 -0.135992028125055 -0.0
outer loop
vertex 9.406644888467 1.96831454269397 24.595788
vertex 10.2324053462538 7.98402809452902 21.943012
vertex 10.2324053462538 7.98402809452902 24.595788
endloop
endfacet
facet normal 0.135992028125053 0.990709931456445 -0.0
outer loop
vertex 2.57197064597093 9.03555490185547 24.595788
vertex 10.2324053462538 7.98402809452902 21.943012
vertex 2.57197064597093 9.03555490185547 21.943012
endloop
endfacet
facet normal 0.135992028125053 0.990709931456445 -0.0
outer loop
vertex 10.2324053462538 7.98402809452902 21.943012
vertex 2.57197064597093 9.03555490185547 24.595788
vertex 10.2324053462538 7.98402809452902 24.595788
endloop
endfacet
facet normal -0.0 -0.0 1.0
outer loop
vertex 1.4022997150557 -23.2132121870853 21.943012
vertex 1.26406733010178 3.08602377439587 21.943012
vertex 1.2317342060113 -21.4300123314454 21.943012
endloop
endfacet
facet normal -0.0 -0.0 1.0
outer loop
vertex 1.26406733010178 3.08602377439587 21.943012
vertex 1.4022997150557 -23.2132121870853 21.943012
vertex 9.406644888467 1.96831454269397 21.943012
endloop
endfacet
facet normal -0.0 -0.0 1.0
outer loop
vertex 9.406644888467 1.96831454269397 21.943012
vertex 1.4022997150557 -23.2132121870853 21.943012
vertex 1.5190004854607 -23.5502782333653 21.943012
endloop
endfacet
facet normal -0.0 -0.0 1.0
outer loop
vertex 9.406644888467 1.96831454269397 21.943012
vertex 1.5190004854607 -23.5502782333653 21.943012
vertex 2.12583490354765 -23.9918988166101 21.943012
endloop
endfacet
facet normal -0.0 -0.0 1.0
outer loop
vertex 9.406644888467 1.96831454269397 21.943012
vertex 2.12583490354765 -23.9918988166101 21.943012
vertex 2.84027891694259 -24.6048394428091 21.943012
endloop
endfacet
facet normal -0.0 -0.0 1.0
outer loop
vertex 9.406644888467 1.96831454269397 21.943012
vertex 2.84027891694259 -24.6048394428091 21.943012
vertex 4.49103818931495 -24.9204952720575 21.943012
endloop
endfacet
facet normal -0.0 -0.0 1.0
outer loop
vertex 9.406644888467 1.96831454269397 21.943012
vertex 4.49103818931495 -24.9204952720575 21.943012
vertex 5.05780833684911 -21.9377174825011 21.943012
endloop
endfacet
facet normal -0.0 -0.0 1.0
outer loop
vertex 5.05780833684911 -21.9377174825011 21.943012
vertex 4.49103818931495 -24.9204952720575 21.943012
vertex 4.52607143215451 -24.9210694093161 21.943012
endloop
endfacet
facet normal -0.0 -0.0 1.0
outer loop
vertex 9.406644888467 1.96831454269397 21.943012
vertex 5.05780833684911 -21.9377174825011 21.943012
vertex 11.9788541756293 -22.8185772824825 21.943012
endloop
endfacet
facet normal -0.0 -0.0 1.0
outer loop
vertex 9.406644888467 1.96831454269397 21.943012
vertex 11.9788541756293 -22.8185772824825 21.943012
vertex 10.2324053462538 7.98402809452902 21.943012
endloop
endfacet
facet normal -0.0 -0.0 1.0
outer loop
vertex -14.7156783495532 -22.7897197409203 21.943012
vertex -15.0847682458329 22.3467923191951 21.943012
vertex -22.0329947440311 -21.6752796376876 21.943012
endloop
endfacet
facet normal -0.0 -0.0 1.0
outer loop
vertex -15.0847682458329 22.3467923191951 21.943012
vertex -14.7156783495532 -22.7897197409203 21.943012
vertex -13.9558577138614 -18.6922791126581 21.943012
endloop
endfacet
facet normal -0.0 -0.0 1.0
outer loop
vertex -15.0847682458329 22.3467923191951 21.943012
vertex -13.9558577138614 -18.6922791126581 21.943012
vertex 2.57197064597093 9.03555490185547 21.943012
endloop
endfacet
facet normal -0.0 -0.0 1.0
outer loop
vertex -15.0847682458329 22.3467923191951 21.943012
vertex 2.57197064597093 9.03555490185547 21.943012
vertex 18.2118720731473 17.9591927487537 21.943012
endloop
endfacet
facet normal -0.0 -0.0 1.0
outer loop
vertex 2.57197064597093 9.03555490185547 21.943012
vertex -13.9558577138614 -18.6922791126581 21.943012
vertex 1.26406733010178 3.08602377439587 21.943012
endloop
endfacet
facet normal -0.0 -0.0 1.0
outer loop
vertex 1.26406733010178 3.08602377439587 21.943012
vertex -13.9558577138614 -18.6922791126581 21.943012
vertex 1.2317342060113 -21.4300123314454 21.943012
endloop
endfacet
facet normal -0.0 -0.0 1.0
outer loop
vertex 18.2118720731473 17.9591927487537 21.943012
vertex 2.57197064597093 9.03555490185547 21.943012
vertex 10.2324053462538 7.98402809452902 21.943012
endloop
endfacet
facet normal -0.0 -0.0 1.0
outer loop
vertex 18.2118720731473 17.9591927487537 21.943012
vertex 10.2324053462538 7.98402809452902 21.943012
vertex 11.9788541756293 -22.8185772824825 21.943012
endloop
endfacet
facet normal -0.0 -0.0 1.0
outer loop
vertex -13.7700830807597 -24.1194455149787 23.0646760000001
vertex -22.0329947440311 -21.6752796376876 23.0646760000001
vertex -23.3745950807597 -22.6566615149787 23.0646760000001
endloop
endfacet
facet normal -0.0 -0.0 1.0
outer loop
vertex -22.0329947440311 -21.6752796376876 23.0646760000001
vertex -13.7700830807597 -24.1194455149787 23.0646760000001
vertex -14.7156783495532 -22.7897197409203 23.0646760000001
endloop
endfacet
facet normal -0.0 -0.0 1.0
outer loop
vertex -14.7156783495532 -22.7897197409203 23.0646760000001
vertex -13.7700830807597 -24.1194455149787 23.0646760000001
vertex -13.9558577138614 -18.6922791126581 23.0646760000001
endloop
endfacet
facet normal -0.0 -0.0 1.0
outer loop
vertex -13.9558577138614 -18.6922791126581 23.0646760000001
vertex -13.7700830807597 -24.1194455149787 23.0646760000001
vertex -13.0159710807597 -20.0527895149787 23.0646760000001
endloop
endfacet
facet normal -0.0 -0.0 1.0
outer loop
vertex -13.9558577138614 -18.6922791126581 23.0646760000001
vertex -13.0159710807597 -20.0527895149787 23.0646760000001
vertex 1.2317342060113 -21.4300123314454 23.0646760000001
endloop
endfacet
facet normal -0.0 -0.0 1.0
outer loop
vertex 1.2317342060113 -21.4300123314454 23.0646760000001
vertex -13.0159710807597 -20.0527895149787 23.0646760000001
vertex 0.149459319240313 -22.4260055149787 23.0646760000001
endloop
endfacet
facet normal -0.0 -0.0 1.0
outer loop
vertex 1.2317342060113 -21.4300123314454 23.0646760000001
vertex 0.149459319240313 -22.4260055149787 23.0646760000001
vertex 0.24877451924031 -23.4643095149787 23.0646760000001
endloop
endfacet
facet normal -0.0 -0.0 1.0
outer loop
vertex 1.2317342060113 -21.4300123314454 23.0646760000001
vertex 0.24877451924031 -23.4643095149787 23.0646760000001
vertex 0.531715319240313 -24.2815255149787 23.0646760000001
endloop
endfacet
facet normal -0.0 -0.0 1.0
outer loop
vertex 1.2317342060113 -21.4300123314454 23.0646760000001
vertex 0.531715319240313 -24.2815255149787 23.0646760000001
vertex 1.39817291924031 -24.9120855149787 23.0646760000001
endloop
endfacet
facet normal -0.0 -0.0 1.0
outer loop
vertex 1.2317342060113 -21.4300123314454 23.0646760000001
vertex 1.39817291924031 -24.9120855149787 23.0646760000001
vertex 1.4022997150557 -23.2132121870853 23.0646760000001
endloop
endfacet
facet normal -0.0 -0.0 1.0
outer loop
vertex 1.4022997150557 -23.2132121870853 23.0646760000001
vertex 1.39817291924031 -24.9120855149787 23.0646760000001
vertex 1.5190004854607 -23.5502782333653 23.0646760000001
endloop
endfacet
facet normal -0.0 -0.0 1.0
outer loop
vertex 1.5190004854607 -23.5502782333653 23.0646760000001
vertex 1.39817291924031 -24.9120855149787 23.0646760000001
vertex 2.31375691924032 -25.6975895149787 23.0646760000001
endloop
endfacet
facet normal -0.0 -0.0 1.0
outer loop
vertex 1.5190004854607 -23.5502782333653 23.0646760000001
vertex 2.31375691924032 -25.6975895149787 23.0646760000001
vertex 2.12583490354765 -23.9918988166101 23.0646760000001
endloop
endfacet
facet normal -0.0 -0.0 1.0
outer loop
vertex 2.12583490354765 -23.9918988166101 23.0646760000001
vertex 2.31375691924032 -25.6975895149787 23.0646760000001
vertex 2.84027891694259 -24.6048394428091 23.0646760000001
endloop
endfacet
facet normal -0.0 -0.0 1.0
outer loop
vertex 2.84027891694259 -24.6048394428091 23.0646760000001
vertex 2.31375691924032 -25.6975895149787 23.0646760000001
vertex 4.37046091924032 -26.0908695149787 23.0646760000001
endloop
endfacet
facet normal -0.0 -0.0 1.0
outer loop
vertex 2.84027891694259 -24.6048394428091 23.0646760000001
vertex 4.37046091924032 -26.0908695149787 23.0646760000001
vertex 4.49103818931495 -24.9204952720575 23.0646760000001
endloop
endfacet
facet normal -0.0 -0.0 1.0
outer loop
vertex 4.49103818931495 -24.9204952720575 23.0646760000001
vertex 4.37046091924032 -26.0908695149787 23.0646760000001
vertex 5.50492491924034 -26.1094615149787 23.0646760000001
endloop
endfacet
facet normal -0.0 -0.0 1.0
outer loop
vertex 4.49103818931495 -24.9204952720575 23.0646760000001
vertex 5.50492491924034 -26.1094615149787 23.0646760000001
vertex 4.52607143215451 -24.9210694093161 23.0646760000001
endloop
endfacet
facet normal -0.0 -0.0 1.0
outer loop
vertex 4.52607143215451 -24.9210694093161 23.0646760000001
vertex 5.50492491924034 -26.1094615149787 23.0646760000001
vertex 5.05780833684911 -21.9377174825011 23.0646760000001
endloop
endfacet
facet normal -0.0 -0.0 1.0
outer loop
vertex 5.05780833684911 -21.9377174825011 23.0646760000001
vertex 5.50492491924034 -26.1094615149787 23.0646760000001
vertex 6.01612491924035 -23.2413335149787 23.0646760000001
endloop
endfacet
facet normal -0.0 -0.0 1.0
outer loop
vertex 5.05780833684911 -21.9377174825011 23.0646760000001
vertex 6.01612491924035 -23.2413335149787 23.0646760000001
vertex 11.9788541756293 -22.8185772824825 23.0646760000001
endloop
endfacet
facet normal -0.0 -0.0 1.0
outer loop
vertex 11.9788541756293 -22.8185772824825 23.0646760000001
vertex 6.01612491924035 -23.2413335149787 23.0646760000001
vertex 12.9648609192404 -24.1257175149787 23.0646760000001
endloop
endfacet
facet normal -0.0 -0.0 1.0
outer loop
vertex 11.9788541756293 -22.8185772824825 23.0646760000001
vertex 12.9648609192404 -24.1257175149787 23.0646760000001
vertex 18.2118720731473 17.9591927487537 23.0646760000001
endloop
endfacet
facet normal -0.0 -0.0 1.0
outer loop
vertex 18.2118720731473 17.9591927487537 23.0646760000001
vertex 12.9648609192404 -24.1257175149787 23.0646760000001
vertex 19.5514209192403 18.9650024850214 23.0646760000001
endloop
endfacet
facet normal -0.0 -0.0 1.0
outer loop
vertex -22.0329947440311 -21.6752796376876 23.0646760000001
vertex -16.0644830807597 23.6582184850214 23.0646760000001
vertex -23.3745950807597 -22.6566615149787 23.0646760000001
endloop
endfacet
facet normal -0.0 -0.0 1.0
outer loop
vertex -16.0644830807597 23.6582184850214 23.0646760000001
vertex -22.0329947440311 -21.6752796376876 23.0646760000001
vertex -15.0847682458329 22.3467923191951 23.0646760000001
endloop
endfacet
facet normal -0.0 -0.0 1.0
outer loop
vertex -16.0644830807597 23.6582184850214 23.0646760000001
vertex -15.0847682458329 22.3467923191951 23.0646760000001
vertex 19.5514209192403 18.9650024850214 23.0646760000001
endloop
endfacet
facet normal -0.0 -0.0 1.0
outer loop
vertex 19.5514209192403 18.9650024850214 23.0646760000001
vertex -15.0847682458329 22.3467923191951 23.0646760000001
vertex 18.2118720731473 17.9591927487537 23.0646760000001
endloop
endfacet
facet normal 0.987772044249256 -0.15590506277747 -0.0
outer loop
vertex -15.0847682458329 22.3467923191951 21.943012
vertex -22.0329947440311 -21.6752796376876 23.0646760000001
vertex -22.0329947440311 -21.6752796376876 21.943012
endloop
endfacet
facet normal 0.987772044249256 -0.15590506277747 -0.0
outer loop
vertex -22.0329947440311 -21.6752796376876 23.0646760000001
vertex -15.0847682458329 22.3467923191951 21.943012
vertex -15.0847682458329 22.3467923191951 23.0646760000001
endloop
endfacet
facet normal -0.130643666079358 -0.991429388566501 0.0
outer loop
vertex 18.2118720731473 17.9591927487537 23.0646760000001
vertex -15.0847682458329 22.3467923191951 21.943012
vertex 18.2118720731473 17.9591927487537 21.943012
endloop
endfacet
facet normal -0.130643666079358 -0.991429388566501 0.0
outer loop
vertex -15.0847682458329 22.3467923191951 21.943012
vertex 18.2118720731473 17.9591927487537 23.0646760000001
vertex -15.0847682458329 22.3467923191951 23.0646760000001
endloop
endfacet
facet normal -0.988518730203972 0.151098378667431 0.0
outer loop
vertex 18.2118720731473 17.9591927487537 23.0646760000001
vertex 11.9788541756293 -22.8185772824825 21.943012
vertex 11.9788541756293 -22.8185772824825 23.0646760000001
endloop
endfacet
facet normal -0.988518730203972 0.151098378667431 0.0
outer loop
vertex 11.9788541756293 -22.8185772824825 21.943012
vertex 18.2118720731473 17.9591927487537 23.0646760000001
vertex 18.2118720731473 17.9591927487537 21.943012
endloop
endfacet
facet normal 0.126254197937843 0.991997922126388 -0.0
outer loop
vertex 5.05780833684911 -21.9377174825011 23.0646760000001
vertex 11.9788541756293 -22.8185772824825 21.943012
vertex 5.05780833684911 -21.9377174825011 21.943012
endloop
endfacet
facet normal 0.126254197937843 0.991997922126388 -0.0
outer loop
vertex 11.9788541756293 -22.8185772824825 21.943012
vertex 5.05780833684911 -21.9377174825011 23.0646760000001
vertex 11.9788541756293 -22.8185772824825 23.0646760000001
endloop
endfacet
facet normal -0.984484886998602 0.175469391266256 0.0
outer loop
vertex 5.05780833684911 -21.9377174825011 23.0646760000001
vertex 4.52607143215451 -24.9210694093161 21.943012
vertex 4.52607143215451 -24.9210694093161 23.0646760000001
endloop
endfacet
facet normal -0.984484886998602 0.175469391266256 0.0
outer loop
vertex 4.52607143215451 -24.9210694093161 21.943012
vertex 5.05780833684911 -21.9377174825011 23.0646760000001
vertex 5.05780833684911 -21.9377174825011 21.943012
endloop
endfacet
facet normal 0.0163861557527507 0.999865737936673 -0.0
outer loop
vertex 4.49103818931495 -24.9204952720575 23.0646760000001
vertex 4.52607143215451 -24.9210694093161 21.943012
vertex 4.49103818931495 -24.9204952720575 21.943012
endloop
endfacet
facet normal 0.0163861557527507 0.999865737936673 -0.0
outer loop
vertex 4.52607143215451 -24.9210694093161 21.943012
vertex 4.49103818931495 -24.9204952720575 23.0646760000001
vertex 4.52607143215451 -24.9210694093161 23.0646760000001
endloop
endfacet
facet normal 0.18781570038713 0.982204287655115 -0.0
outer loop
vertex 2.84027891694259 -24.6048394428091 23.0646760000001
vertex 4.49103818931495 -24.9204952720575 21.943012
vertex 2.84027891694259 -24.6048394428091 21.943012
endloop
endfacet
facet normal 0.18781570038713 0.982204287655115 -0.0
outer loop
vertex 4.49103818931495 -24.9204952720575 21.943012
vertex 2.84027891694259 -24.6048394428091 23.0646760000001
vertex 4.49103818931495 -24.9204952720575 23.0646760000001
endloop
endfacet
facet normal 0.651134272927457 0.758962554161424 -0.0
outer loop
vertex 2.12583490354765 -23.9918988166101 23.0646760000001
vertex 2.84027891694259 -24.6048394428091 21.943012
vertex 2.12583490354765 -23.9918988166101 21.943012
endloop
endfacet
facet normal 0.651134272927457 0.758962554161424 -0.0
outer loop
vertex 2.84027891694259 -24.6048394428091 21.943012
vertex 2.12583490354765 -23.9918988166101 23.0646760000001
vertex 2.84027891694259 -24.6048394428091 23.0646760000001
endloop
endfacet
facet normal 0.588421311985992 0.808554487712909 -0.0
outer loop
vertex 1.5190004854607 -23.5502782333653 23.0646760000001
vertex 2.12583490354765 -23.9918988166101 21.943012
vertex 1.5190004854607 -23.5502782333653 21.943012
endloop
endfacet
facet normal 0.588421311985992 0.808554487712909 -0.0
outer loop
vertex 2.12583490354765 -23.9918988166101 21.943012
vertex 1.5190004854607 -23.5502782333653 23.0646760000001
vertex 2.12583490354765 -23.9918988166101 23.0646760000001
endloop
endfacet
facet normal 0.944965219222681 0.327170803189146 -0.0
outer loop
vertex 1.4022997150557 -23.2132121870853 21.943012
vertex 1.5190004854607 -23.5502782333653 23.0646760000001
vertex 1.5190004854607 -23.5502782333653 21.943012
endloop
endfacet
facet normal 0.944965219222681 0.327170803189146 -0.0
outer loop
vertex 1.5190004854607 -23.5502782333653 23.0646760000001
vertex 1.4022997150557 -23.2132121870853 21.943012
vertex 1.4022997150557 -23.2132121870853 23.0646760000001
endloop
endfacet
facet normal 0.995456560627754 0.0952167837262065 -0.0
outer loop
vertex 1.2317342060113 -21.4300123314454 21.943012
vertex 1.4022997150557 -23.2132121870853 23.0646760000001
vertex 1.4022997150557 -23.2132121870853 21.943012
endloop
endfacet
facet normal 0.995456560627754 0.0952167837262065 -0.0
outer loop
vertex 1.4022997150557 -23.2132121870853 23.0646760000001
vertex 1.2317342060113 -21.4300123314454 21.943012
vertex 1.2317342060113 -21.4300123314454 23.0646760000001
endloop
endfacet
facet normal 0.177401961902074 0.984138478016836 -0.0
outer loop
vertex -13.9558577138614 -18.6922791126581 23.0646760000001
vertex 1.2317342060113 -21.4300123314454 21.943012
vertex -13.9558577138614 -18.6922791126581 21.943012
endloop
endfacet
facet normal 0.177401961902074 0.984138478016836 -0.0
outer loop
vertex 1.2317342060113 -21.4300123314454 21.943012
vertex -13.9558577138614 -18.6922791126581 23.0646760000001
vertex 1.2317342060113 -21.4300123314454 23.0646760000001
endloop
endfacet
facet normal -0.983237493191701 0.182329459995087 0.0
outer loop
vertex -13.9558577138614 -18.6922791126581 23.0646760000001
vertex -14.7156783495532 -22.7897197409203 21.943012
vertex -14.7156783495532 -22.7897197409203 23.0646760000001
endloop
endfacet
facet normal -0.983237493191701 0.182329459995087 0.0
outer loop
vertex -14.7156783495532 -22.7897197409203 21.943012
vertex -13.9558577138614 -18.6922791126581 23.0646760000001
vertex -13.9558577138614 -18.6922791126581 21.943012
endloop
endfacet
facet normal 0.150565516566816 0.98860003298653 -0.0
outer loop
vertex -22.0329947440311 -21.6752796376876 23.0646760000001
vertex -14.7156783495532 -22.7897197409203 21.943012
vertex -22.0329947440311 -21.6752796376876 21.943012
endloop
endfacet
facet normal 0.150565516566816 0.98860003298653 -0.0
outer loop
vertex -14.7156783495532 -22.7897197409203 21.943012
vertex -22.0329947440311 -21.6752796376876 23.0646760000001
vertex -14.7156783495532 -22.7897197409203 23.0646760000001
endloop
endfacet
facet normal 0.130643666079359 0.991429388566501 -0.0
outer loop
vertex -16.0644830807597 23.6582184850214 23.0646760000001
vertex 19.5514209192403 18.9650024850214 1.15505827125162e-14
vertex -16.0644830807597 23.6582184850214 1.15505827125162e-14
endloop
endfacet
facet normal 0.130643666079359 0.991429388566501 -0.0
outer loop
vertex 19.5514209192403 18.9650024850214 1.15505827125162e-14
vertex -16.0644830807597 23.6582184850214 23.0646760000001
vertex 19.5514209192403 18.9650024850214 23.0646760000001
endloop
endfacet
facet normal 0.984484886998602 -0.175469391266253 -0.0
outer loop
vertex 6.01612491924035 -23.2413335149787 1.15505827125162e-14
vertex 5.50492491924034 -26.1094615149787 23.0646760000001
vertex 5.50492491924034 -26.1094615149787 1.15505827125162e-14
endloop
endfacet
facet normal 0.984484886998602 -0.175469391266253 -0.0
outer loop
vertex 5.50492491924034 -26.1094615149787 23.0646760000001
vertex 6.01612491924035 -23.2413335149787 1.15505827125162e-14
vertex 6.01612491924035 -23.2413335149787 23.0646760000001
endloop
endfacet
facet normal -0.126254197937843 -0.991997922126388 0.0
outer loop
vertex 12.9648609192404 -24.1257175149787 23.0646760000001
vertex 6.01612491924035 -23.2413335149787 1.15505827125162e-14
vertex 12.9648609192404 -24.1257175149787 1.15505827125162e-14
endloop
endfacet
facet normal -0.126254197937843 -0.991997922126388 0.0
outer loop
vertex 6.01612491924035 -23.2413335149787 1.15505827125162e-14
vertex 12.9648609192404 -24.1257175149787 23.0646760000001
vertex 6.01612491924035 -23.2413335149787 23.0646760000001
endloop
endfacet
facet normal -0.0163861557525997 -0.999865737936675 0.0
outer loop
vertex 5.50492491924034 -26.1094615149787 23.0646760000001
vertex 4.37046091924032 -26.0908695149787 1.15505827125162e-14
vertex 5.50492491924034 -26.1094615149787 1.15505827125162e-14
endloop
endfacet
facet normal -0.0163861557525997 -0.999865737936675 0.0
outer loop
vertex 4.37046091924032 -26.0908695149787 1.15505827125162e-14
vertex 5.50492491924034 -26.1094615149787 23.0646760000001
vertex 4.37046091924032 -26.0908695149787 23.0646760000001
endloop
endfacet
facet normal 0.988518730203972 -0.151098378667431 -0.0
outer loop
vertex 19.5514209192403 18.9650024850214 1.15505827125162e-14
vertex 12.9648609192404 -24.1257175149787 23.0646760000001
vertex 12.9648609192404 -24.1257175149787 1.15505827125162e-14
endloop
endfacet
facet normal 0.988518730203972 -0.151098378667431 -0.0
outer loop
vertex 12.9648609192404 -24.1257175149787 23.0646760000001
vertex 19.5514209192403 18.9650024850214 1.15505827125162e-14
vertex 19.5514209192403 18.9650024850214 23.0646760000001
endloop
endfacet
endsolid 600WMainOffice
