solid 620 West Main Street
facet normal 0.0 0.0 -1.0
outer loop
vertex 6.5209561988758 29.0695257543623 18.3310873350031
vertex 12.0761755306983 28.0128417543081 18.3310873350031
vertex 6.47514086860604 28.6912904367196 18.3310873350031
endloop
endfacet
facet normal 0.0 0.0 -1.0
outer loop
vertex 12.0761755306983 28.0128417543081 18.3310873350031
vertex 6.5209561988758 29.0695257543623 18.3310873350031
vertex 12.1219908609681 28.3910770719508 18.3310873350031
endloop
endfacet
facet normal 0.0633166129354672 0.522719776648896 -0.850150011248902
outer loop
vertex 18.1643000603102 27.6591771708913 18.3310873350031
vertex 18.5869502623694 27.5575830855714 18.3000993234901
vertex 18.158283569041 27.6095071265438 18.3000993234901
endloop
endfacet
facet normal 0.0633166129354672 0.522719776648896 -0.850150011248902
outer loop
vertex 18.5869502623694 27.5575830855714 18.3000993234901
vertex 18.1643000603102 27.6591771708913 18.3310873350031
vertex 18.5929667536386 27.6072531299189 18.3310873350031
endloop
endfacet
facet normal 0.106784353748162 0.881574218092417 -0.459808655626808
outer loop
vertex 18.1296808511437 27.373373107087 18.0432462303739
vertex 18.5550934896282 27.2945847292163 17.9909845153208
vertex 18.1264267962998 27.3465087701887 17.9909845153208
endloop
endfacet
facet normal 0.106784353748162 0.881574218092417 -0.459808655626808
outer loop
vertex 18.5550934896282 27.2945847292163 17.9909845153208
vertex 18.1296808511437 27.373373107087 18.0432462303739
vertex 18.5583475444721 27.3214490661146 18.0432462303739
endloop
endfacet
facet normal -0.992743615860098 0.120250210681805 1.72866476083373e-15
outer loop
vertex 18.1184847300404 27.2809418532486 18.3310873350031
vertex 18.1196825240251 27.2908304207999 17.8239403508864
vertex 18.1184847300404 27.2809418532486 17.7659373350031
endloop
endfacet
facet normal -0.992743615860098 0.120250210681805 1.72866476083373e-15
outer loop
vertex 18.1196825240251 27.2908304207999 17.8239403508864
vertex 18.1184847300404 27.2809418532486 18.3310873350031
vertex 18.1214128041681 27.3051150075451 17.8810063218529
endloop
endfacet
facet normal -0.992743615860098 0.120250210681805 1.72866476083373e-15
outer loop
vertex 18.1214128041681 27.3051150075451 17.8810063218529
vertex 18.1184847300404 27.2809418532486 18.3310873350031
vertex 18.1236653360758 27.3237111219156 17.9367977097235
endloop
endfacet
facet normal -0.992743615860098 0.120250210681805 1.72866476083373e-15
outer loop
vertex 18.1236653360758 27.3237111219156 17.9367977097235
vertex 18.1184847300404 27.2809418532486 18.3310873350031
vertex 18.1264267962998 27.3465087701887 17.9909845153208
endloop
endfacet
facet normal -0.992743615860098 0.120250210681805 1.72866476083373e-15
outer loop
vertex 18.1264267962998 27.3465087701887 17.9909845153208
vertex 18.1184847300404 27.2809418532486 18.3310873350031
vertex 18.1296808511437 27.373373107087 18.0432462303739
endloop
endfacet
facet normal -0.992743615860098 0.120250210681805 1.72866476083373e-15
outer loop
vertex 18.1296808511437 27.373373107087 18.0432462303739
vertex 18.1184847300404 27.2809418532486 18.3310873350031
vertex 18.1334082532742 27.4041452333716 18.0932737332846
endloop
endfacet
facet normal -0.992743615860098 0.120250210681805 1.72866476083373e-15
outer loop
vertex 18.1334082532742 27.4041452333716 18.0932737332846
vertex 18.1184847300404 27.2809418532486 18.3310873350031
vertex 18.1375869555677 27.4386431357112 18.1407711175443
endloop
endfacet
facet normal -0.992743615860098 0.120250210681805 1.72866476083373e-15
outer loop
vertex 18.1375869555677 27.4386431357112 18.1407711175443
vertex 18.1184847300404 27.2809418532486 18.3310873350031
vertex 18.1421922415154 27.4766627632689 18.1854574419838
endloop
endfacet
facet normal -0.992743615860098 0.120250210681805 1.72866476083373e-15
outer loop
vertex 18.1421922415154 27.4766627632689 18.1854574419838
vertex 18.1184847300404 27.2809418532486 18.3310873350031
vertex 18.1471968714192 27.5179792346374 18.2270683925063
endloop
endfacet
facet normal -0.992743615860098 0.120250210681805 1.72866476083373e-15
outer loop
vertex 18.1471968714192 27.5179792346374 18.2270683925063
vertex 18.1184847300404 27.2809418532486 18.3310873350031
vertex 18.1525712435104 27.5623481679849 18.2653578454722
endloop
endfacet
facet normal -0.992743615860098 0.120250210681805 1.72866476083373e-15
outer loop
vertex 18.1525712435104 27.5623481679849 18.2653578454722
vertex 18.1184847300404 27.2809418532486 18.3310873350031
vertex 18.158283569041 27.6095071265438 18.3000993234901
endloop
endfacet
facet normal -0.992743615860098 0.120250210681805 1.72866476083373e-15
outer loop
vertex 18.158283569041 27.6095071265438 18.3000993234901
vertex 18.1184847300404 27.2809418532486 18.3310873350031
vertex 18.1643000603102 27.6591771708913 18.3310873350031
endloop
endfacet
facet normal 0.992743615860097 -0.120250210681809 0.0
outer loop
vertex 12.5060400180114 27.970806280887 17.8239403508864
vertex 12.5048422240267 27.9609177133357 18.3310873350031
vertex 12.5048422240267 27.9609177133357 17.7659373350031
endloop
endfacet
facet normal 0.992743615860097 -0.120250210681809 0.0
outer loop
vertex 12.5048422240267 27.9609177133357 18.3310873350031
vertex 12.5060400180114 27.970806280887 17.8239403508864
vertex 12.5077702981544 27.9850908676322 17.8810063218529
endloop
endfacet
facet normal 0.992743615860097 -0.120250210681809 0.0
outer loop
vertex 12.5048422240267 27.9609177133357 18.3310873350031
vertex 12.5077702981544 27.9850908676322 17.8810063218529
vertex 12.5100228300621 28.0036869820027 17.9367977097235
endloop
endfacet
facet normal 0.992743615860097 -0.120250210681809 0.0
outer loop
vertex 12.5048422240267 27.9609177133357 18.3310873350031
vertex 12.5100228300621 28.0036869820027 17.9367977097235
vertex 12.5127842902861 28.0264846302758 17.9909845153208
endloop
endfacet
facet normal 0.992743615860097 -0.120250210681809 0.0
outer loop
vertex 12.5048422240267 27.9609177133357 18.3310873350031
vertex 12.5127842902861 28.0264846302758 17.9909845153208
vertex 12.51603834513 28.0533489671742 18.0432462303739
endloop
endfacet
facet normal 0.992743615860097 -0.120250210681809 0.0
outer loop
vertex 12.5048422240267 27.9609177133357 18.3310873350031
vertex 12.51603834513 28.0533489671742 18.0432462303739
vertex 12.5197657472605 28.0841210934587 18.0932737332846
endloop
endfacet
facet normal 0.992743615860097 -0.120250210681809 0.0
outer loop
vertex 12.5048422240267 27.9609177133357 18.3310873350031
vertex 12.5197657472605 28.0841210934587 18.0932737332846
vertex 12.523944449554 28.1186189957983 18.1407711175443
endloop
endfacet
facet normal 0.992743615860097 -0.120250210681809 0.0
outer loop
vertex 12.5048422240267 27.9609177133357 18.3310873350031
vertex 12.523944449554 28.1186189957983 18.1407711175443
vertex 12.5285497355017 28.156638623356 18.1854574419838
endloop
endfacet
facet normal 0.992743615860097 -0.120250210681809 0.0
outer loop
vertex 12.5048422240267 27.9609177133357 18.3310873350031
vertex 12.5285497355017 28.156638623356 18.1854574419838
vertex 12.5335543654055 28.1979550947245 18.2270683925063
endloop
endfacet
facet normal 0.992743615860097 -0.120250210681809 0.0
outer loop
vertex 12.5048422240267 27.9609177133357 18.3310873350031
vertex 12.5335543654055 28.1979550947245 18.2270683925063
vertex 12.5389287374967 28.2423240280721 18.2653578454722
endloop
endfacet
facet normal 0.992743615860097 -0.120250210681809 0.0
outer loop
vertex 12.5048422240267 27.9609177133357 18.3310873350031
vertex 12.5389287374967 28.2423240280721 18.2653578454722
vertex 12.5446410630273 28.289482986631 18.3000993234901
endloop
endfacet
facet normal 0.992743615860097 -0.120250210681809 0.0
outer loop
vertex 12.5048422240267 27.9609177133357 18.3310873350031
vertex 12.5446410630273 28.289482986631 18.3000993234901
vertex 12.5506575542965 28.3391530309784 18.3310873350031
endloop
endfacet
facet normal 0.0633166129354611 0.522719776648874 -0.850150011248916
outer loop
vertex 6.09228950554741 29.1214497953347 18.3310873350031
vertex 6.51493970760662 29.0198557100148 18.3000993234901
vertex 6.08627301427823 29.0717797509872 18.3000993234901
endloop
endfacet
facet normal 0.0633166129354611 0.522719776648874 -0.850150011248916
outer loop
vertex 6.51493970760662 29.0198557100148 18.3000993234901
vertex 6.09228950554741 29.1214497953347 18.3310873350031
vertex 6.5209561988758 29.0695257543623 18.3310873350031
endloop
endfacet
facet normal 0.118515333074175 0.978421074057538 -0.169252230905271
outer loop
vertex 6.0476719692623 28.7531030452433 17.8239403508864
vertex 6.47514086860604 28.6912904367196 17.7659373350031
vertex 6.04647417527765 28.743214477692 17.7659373350031
endloop
endfacet
facet normal 0.118515333074175 0.978421074057538 -0.169252230905271
outer loop
vertex 6.47514086860604 28.6912904367196 17.7659373350031
vertex 6.0476719692623 28.7531030452433 17.8239403508864
vertex 6.47633866259069 28.7011790042709 17.8239403508864
endloop
endfacet
facet normal 0.0850220559329219 0.701912310640938 -0.707170671178916
outer loop
vertex 6.07518631665643 28.9802518590808 18.2270683925063
vertex 6.49884838008107 28.8870113467399 18.1854574419838
vertex 6.07018168675268 28.9389353877123 18.1854574419838
endloop
endfacet
facet normal 0.0850220559329219 0.701912310640938 -0.707170671178916
outer loop
vertex 6.49884838008107 28.8870113467399 18.1854574419838
vertex 6.07518631665643 28.9802518590808 18.2270683925063
vertex 6.50385300998482 28.9283278181084 18.2270683925063
endloop
endfacet
facet normal 0.116600705209956 0.962614577102833 -0.244494277016203
outer loop
vertex 6.0494022494053 28.7673876319885 17.8810063218529
vertex 6.47633866259069 28.7011790042709 17.8239403508864
vertex 6.0476719692623 28.7531030452433 17.8239403508864
endloop
endfacet
facet normal 0.116600705209956 0.962614577102833 -0.244494277016203
outer loop
vertex 6.47633866259069 28.7011790042709 17.8239403508864
vertex 6.0494022494053 28.7673876319885 17.8810063218529
vertex 6.47806894273369 28.7154635910161 17.8810063218529
endloop
endfacet
facet normal -0.992743615860098 0.120250210681804 1.73608572305846e-15
outer loop
vertex 6.09228950554741 29.1214497953347 19.0867373350031
vertex 6.04647417527765 28.743214477692 18.3310873350031
vertex 6.04647417527765 28.743214477692 19.0867373350031
endloop
endfacet
facet normal -0.992743615860098 0.120250210681804 1.73608572305846e-15
outer loop
vertex 6.04647417527765 28.743214477692 18.3310873350031
vertex 6.09228950554741 29.1214497953347 19.0867373350031
vertex 6.0494022494053 28.7673876319885 17.8810063218529
endloop
endfacet
facet normal -0.992743615860098 0.120250210681804 1.73608572305846e-15
outer loop
vertex 6.04647417527765 28.743214477692 18.3310873350031
vertex 6.0494022494053 28.7673876319885 17.8810063218529
vertex 6.0476719692623 28.7531030452433 17.8239403508864
endloop
endfacet
facet normal -0.992743615860098 0.120250210681804 1.73608572305846e-15
outer loop
vertex 6.04647417527765 28.743214477692 18.3310873350031
vertex 6.0476719692623 28.7531030452433 17.8239403508864
vertex 6.04647417527765 28.743214477692 17.7659373350031
endloop
endfacet
facet normal -0.992743615860098 0.120250210681804 1.73608572305846e-15
outer loop
vertex 6.0494022494053 28.7673876319885 17.8810063218529
vertex 6.09228950554741 29.1214497953347 19.0867373350031
vertex 6.05165478131302 28.7859837463589 17.9367977097235
endloop
endfacet
facet normal -0.992743615860098 0.120250210681804 1.73608572305846e-15
outer loop
vertex 6.05165478131302 28.7859837463589 17.9367977097235
vertex 6.09228950554741 29.1214497953347 19.0867373350031
vertex 6.05441624153709 28.8087813946321 17.9909845153208
endloop
endfacet
facet normal -0.992743615860098 0.120250210681804 1.73608572305846e-15
outer loop
vertex 6.05441624153709 28.8087813946321 17.9909845153208
vertex 6.09228950554741 29.1214497953347 19.0867373350031
vertex 6.0576702963809 28.8356457315304 18.0432462303739
endloop
endfacet
facet normal -0.992743615860098 0.120250210681804 1.73608572305846e-15
outer loop
vertex 6.0576702963809 28.8356457315304 18.0432462303739
vertex 6.09228950554741 29.1214497953347 19.0867373350031
vertex 6.06139769851145 28.866417857815 18.0932737332846
endloop
endfacet
facet normal -0.992743615860098 0.120250210681804 1.73608572305846e-15
outer loop
vertex 6.06139769851145 28.866417857815 18.0932737332846
vertex 6.09228950554741 29.1214497953347 19.0867373350031
vertex 6.06557640080491 28.9009157601546 18.1407711175443
endloop
endfacet
facet normal -0.992743615860098 0.120250210681804 1.73608572305846e-15
outer loop
vertex 6.06557640080491 28.9009157601546 18.1407711175443
vertex 6.09228950554741 29.1214497953347 19.0867373350031
vertex 6.07018168675268 28.9389353877123 18.1854574419838
endloop
endfacet
facet normal -0.992743615860098 0.120250210681804 1.73608572305846e-15
outer loop
vertex 6.07018168675268 28.9389353877123 18.1854574419838
vertex 6.09228950554741 29.1214497953347 19.0867373350031
vertex 6.07518631665643 28.9802518590808 18.2270683925063
endloop
endfacet
facet normal -0.992743615860098 0.120250210681804 1.73608572305846e-15
outer loop
vertex 6.07518631665643 28.9802518590808 18.2270683925063
vertex 6.09228950554741 29.1214497953347 19.0867373350031
vertex 6.08056068874761 29.0246207924283 18.2653578454722
endloop
endfacet
facet normal -0.992743615860098 0.120250210681804 1.73608572305846e-15
outer loop
vertex 6.08056068874761 29.0246207924283 18.2653578454722
vertex 6.09228950554741 29.1214497953347 19.0867373350031
vertex 6.08627301427823 29.0717797509872 18.3000993234901
endloop
endfacet
facet normal -0.992743615860098 0.120250210681804 1.73608572305846e-15
outer loop
vertex 6.08627301427823 29.0717797509872 18.3000993234901
vertex 6.09228950554741 29.1214497953347 19.0867373350031
vertex 6.09228950554741 29.1214497953347 18.3310873350031
endloop
endfacet
facet normal 0.0 0.0 -1.0
outer loop
vertex 12.1219908609681 28.3910770719508 18.3310873350031
vertex 12.5048422240267 27.9609177133357 18.3310873350031
vertex 12.0761755306983 28.0128417543081 18.3310873350031
endloop
endfacet
facet normal 0.0 0.0 -1.0
outer loop
vertex 12.5048422240267 27.9609177133357 18.3310873350031
vertex 12.1219908609681 28.3910770719508 18.3310873350031
vertex 12.5506575542965 28.3391530309784 18.3310873350031
endloop
endfacet
facet normal -0.992743615860097 0.120250210681809 0.0
outer loop
vertex 12.0761755306983 28.0128417543081 18.3310873350031
vertex 12.077373324683 28.0227303218594 17.8239403508864
vertex 12.0761755306983 28.0128417543081 17.7659373350031
endloop
endfacet
facet normal -0.992743615860097 0.120250210681809 0.0
outer loop
vertex 12.077373324683 28.0227303218594 17.8239403508864
vertex 12.0761755306983 28.0128417543081 18.3310873350031
vertex 12.079103604826 28.0370149086046 17.8810063218529
endloop
endfacet
facet normal -0.992743615860097 0.120250210681809 0.0
outer loop
vertex 12.079103604826 28.0370149086046 17.8810063218529
vertex 12.0761755306983 28.0128417543081 18.3310873350031
vertex 12.0813561367337 28.0556110229751 17.9367977097235
endloop
endfacet
facet normal -0.992743615860097 0.120250210681809 0.0
outer loop
vertex 12.0813561367337 28.0556110229751 17.9367977097235
vertex 12.0761755306983 28.0128417543081 18.3310873350031
vertex 12.0841175969578 28.0784086712482 17.9909845153208
endloop
endfacet
facet normal -0.992743615860097 0.120250210681809 0.0
outer loop
vertex 12.0841175969578 28.0784086712482 17.9909845153208
vertex 12.0761755306983 28.0128417543081 18.3310873350031
vertex 12.0873716518016 28.1052730081466 18.0432462303739
endloop
endfacet
facet normal -0.992743615860097 0.120250210681809 0.0
outer loop
vertex 12.0873716518016 28.1052730081466 18.0432462303739
vertex 12.0761755306983 28.0128417543081 18.3310873350031
vertex 12.0910990539321 28.1360451344311 18.0932737332846
endloop
endfacet
facet normal -0.992743615860097 0.120250210681809 0.0
outer loop
vertex 12.0910990539321 28.1360451344311 18.0932737332846
vertex 12.0761755306983 28.0128417543081 18.3310873350031
vertex 12.0952777562256 28.1705430367707 18.1407711175443
endloop
endfacet
facet normal -0.992743615860097 0.120250210681809 0.0
outer loop
vertex 12.0952777562256 28.1705430367707 18.1407711175443
vertex 12.0761755306983 28.0128417543081 18.3310873350031
vertex 12.0998830421733 28.2085626643284 18.1854574419838
endloop
endfacet
facet normal -0.992743615860097 0.120250210681809 0.0
outer loop
vertex 12.0998830421733 28.2085626643284 18.1854574419838
vertex 12.0761755306983 28.0128417543081 18.3310873350031
vertex 12.1048876720771 28.2498791356969 18.2270683925063
endloop
endfacet
facet normal -0.992743615860097 0.120250210681809 0.0
outer loop
vertex 12.1048876720771 28.2498791356969 18.2270683925063
vertex 12.0761755306983 28.0128417543081 18.3310873350031
vertex 12.1102620441683 28.2942480690445 18.2653578454722
endloop
endfacet
facet normal -0.992743615860097 0.120250210681809 0.0
outer loop
vertex 12.1102620441683 28.2942480690445 18.2653578454722
vertex 12.0761755306983 28.0128417543081 18.3310873350031
vertex 12.1159743696989 28.3414070276034 18.3000993234901
endloop
endfacet
facet normal -0.992743615860097 0.120250210681809 0.0
outer loop
vertex 12.1159743696989 28.3414070276034 18.3000993234901
vertex 12.0761755306983 28.0128417543081 18.3310873350031
vertex 12.1219908609681 28.3910770719508 18.3310873350031
endloop
endfacet
facet normal 0.0970495797497117 0.801207334042584 -0.590464382453996
outer loop
vertex 12.0952777562256 28.1705430367707 18.1407711175443
vertex 12.5197657472605 28.0841210934587 18.0932737332846
vertex 12.0910990539321 28.1360451344311 18.0932737332846
endloop
endfacet
facet normal 0.0970495797497117 0.801207334042584 -0.590464382453996
outer loop
vertex 12.5197657472605 28.0841210934587 18.0932737332846
vertex 12.0952777562256 28.1705430367707 18.1407711175443
vertex 12.523944449554 28.1186189957983 18.1407711175443
endloop
endfacet
facet normal 0.0913058492591666 0.753789107135709 -0.650742056313109
outer loop
vertex 12.0998830421733 28.2085626643284 18.1854574419838
vertex 12.523944449554 28.1186189957983 18.1407711175443
vertex 12.0952777562256 28.1705430367707 18.1407711175443
endloop
endfacet
facet normal 0.0913058492591666 0.753789107135709 -0.650742056313109
outer loop
vertex 12.523944449554 28.1186189957983 18.1407711175443
vertex 12.0998830421733 28.2085626643284 18.1854574419838
vertex 12.5285497355017 28.156638623356 18.1854574419838
endloop
endfacet
facet normal 0.0850220559329421 0.701912310640937 -0.707170671178915
outer loop
vertex 12.1048876720771 28.2498791356969 18.2270683925063
vertex 12.5285497355017 28.156638623356 18.1854574419838
vertex 12.0998830421733 28.2085626643284 18.1854574419838
endloop
endfacet
facet normal 0.0850220559329421 0.701912310640937 -0.707170671178915
outer loop
vertex 12.5285497355017 28.156638623356 18.1854574419838
vertex 12.1048876720771 28.2498791356969 18.2270683925063
vertex 12.5335543654055 28.1979550947245 18.2270683925063
endloop
endfacet
facet normal 0.0782353676334542 0.645883789410511 -0.759416458754995
outer loop
vertex 12.1102620441683 28.2942480690445 18.2653578454722
vertex 12.5335543654055 28.1979550947245 18.2270683925063
vertex 12.1048876720771 28.2498791356969 18.2270683925063
endloop
endfacet
facet normal 0.0782353676334542 0.645883789410511 -0.759416458754995
outer loop
vertex 12.5335543654055 28.1979550947245 18.2270683925063
vertex 12.1102620441683 28.2942480690445 18.2653578454722
vertex 12.5389287374967 28.2423240280721 18.2653578454722
endloop
endfacet
facet normal 0.070985926784831 0.58603494523618 -0.807170391652547
outer loop
vertex 12.1159743696989 28.3414070276034 18.3000993234901
vertex 12.5389287374967 28.2423240280721 18.2653578454722
vertex 12.1102620441683 28.2942480690445 18.2653578454722
endloop
endfacet
facet normal 0.070985926784831 0.58603494523618 -0.807170391652547
outer loop
vertex 12.5389287374967 28.2423240280721 18.2653578454722
vertex 12.1159743696989 28.3414070276034 18.3000993234901
vertex 12.5446410630273 28.289482986631 18.3000993234901
endloop
endfacet
facet normal 0.0633166129354752 0.522719776648894 -0.850150011248903
outer loop
vertex 12.1219908609681 28.3910770719508 18.3310873350031
vertex 12.5446410630273 28.289482986631 18.3000993234901
vertex 12.1159743696989 28.3414070276034 18.3000993234901
endloop
endfacet
facet normal 0.0633166129354752 0.522719776648894 -0.850150011248903
outer loop
vertex 12.5446410630273 28.289482986631 18.3000993234901
vertex 12.1219908609681 28.3910770719508 18.3310873350031
vertex 12.5506575542965 28.3391530309784 18.3310873350031
endloop
endfacet
facet normal 0.0782353676334342 0.645883789410538 -0.759416458754974
outer loop
vertex 6.08056068874761 29.0246207924283 18.2653578454722
vertex 6.50385300998482 28.9283278181084 18.2270683925063
vertex 6.07518631665643 28.9802518590808 18.2270683925063
endloop
endfacet
facet normal 0.0782353676334342 0.645883789410538 -0.759416458754974
outer loop
vertex 6.50385300998482 28.9283278181084 18.2270683925063
vertex 6.08056068874761 29.0246207924283 18.2653578454722
vertex 6.509227382076 28.9726967514559 18.2653578454722
endloop
endfacet
facet normal -0.120250210681809 -0.992743615860098 -0.0
outer loop
vertex 12.5048422240267 27.9609177133357 18.3310873350031
vertex 12.0761755306983 28.0128417543081 17.7659373350031
vertex 12.5048422240267 27.9609177133357 17.7659373350031
endloop
endfacet
facet normal -0.120250210681809 -0.992743615860098 -0.0
outer loop
vertex 12.0761755306983 28.0128417543081 17.7659373350031
vertex 12.5048422240267 27.9609177133357 18.3310873350031
vertex 12.0761755306983 28.0128417543081 18.3310873350031
endloop
endfacet
facet normal 0.113996398557266 0.941114333664245 -0.318290169637199
outer loop
vertex 6.05165478131302 28.7859837463589 17.9367977097235
vertex 6.47806894273369 28.7154635910161 17.8810063218529
vertex 6.0494022494053 28.7673876319885 17.8810063218529
endloop
endfacet
facet normal 0.113996398557266 0.941114333664245 -0.318290169637199
outer loop
vertex 6.47806894273369 28.7154635910161 17.8810063218529
vertex 6.05165478131302 28.7859837463589 17.9367977097235
vertex 6.48032147464141 28.7340597053865 17.9367977097235
endloop
endfacet
facet normal 0.106784353748161 0.881574218092416 -0.459808655626809
outer loop
vertex 6.0576702963809 28.8356457315304 18.0432462303739
vertex 6.48308293486548 28.7568573536597 17.9909845153208
vertex 6.05441624153709 28.8087813946321 17.9909845153208
endloop
endfacet
facet normal 0.106784353748161 0.881574218092416 -0.459808655626809
outer loop
vertex 6.48308293486548 28.7568573536597 17.9909845153208
vertex 6.0576702963809 28.8356457315304 18.0432462303739
vertex 6.48633698970929 28.783721690558 18.0432462303739
endloop
endfacet
facet normal 0.992743615860097 -0.120250210681809 -7.1473639149855e-16
outer loop
vertex 6.47633866259069 28.7011790042709 17.8239403508864
vertex 6.47514086860604 28.6912904367196 18.3310873350031
vertex 6.47514086860604 28.6912904367196 17.7659373350031
endloop
endfacet
facet normal 0.992743615860097 -0.120250210681809 -7.1473639149855e-16
outer loop
vertex 6.47514086860604 28.6912904367196 18.3310873350031
vertex 6.47633866259069 28.7011790042709 17.8239403508864
vertex 6.47806894273369 28.7154635910161 17.8810063218529
endloop
endfacet
facet normal 0.992743615860097 -0.120250210681809 -7.1473639149855e-16
outer loop
vertex 6.47514086860604 28.6912904367196 18.3310873350031
vertex 6.47806894273369 28.7154635910161 17.8810063218529
vertex 6.48032147464141 28.7340597053865 17.9367977097235
endloop
endfacet
facet normal 0.992743615860097 -0.120250210681809 -7.1473639149855e-16
outer loop
vertex 6.47514086860604 28.6912904367196 18.3310873350031
vertex 6.48032147464141 28.7340597053865 17.9367977097235
vertex 6.48308293486548 28.7568573536597 17.9909845153208
endloop
endfacet
facet normal 0.992743615860097 -0.120250210681809 -7.1473639149855e-16
outer loop
vertex 6.47514086860604 28.6912904367196 18.3310873350031
vertex 6.48308293486548 28.7568573536597 17.9909845153208
vertex 6.48633698970929 28.783721690558 18.0432462303739
endloop
endfacet
facet normal 0.992743615860097 -0.120250210681809 -7.1473639149855e-16
outer loop
vertex 6.47514086860604 28.6912904367196 18.3310873350031
vertex 6.48633698970929 28.783721690558 18.0432462303739
vertex 6.49006439183984 28.8144938168426 18.0932737332846
endloop
endfacet
facet normal 0.992743615860097 -0.120250210681809 -7.1473639149855e-16
outer loop
vertex 6.47514086860604 28.6912904367196 18.3310873350031
vertex 6.49006439183984 28.8144938168426 18.0932737332846
vertex 6.49424309413331 28.8489917191822 18.1407711175443
endloop
endfacet
facet normal 0.992743615860097 -0.120250210681809 -7.1473639149855e-16
outer loop
vertex 6.47514086860604 28.6912904367196 18.3310873350031
vertex 6.49424309413331 28.8489917191822 18.1407711175443
vertex 6.49884838008107 28.8870113467399 18.1854574419838
endloop
endfacet
facet normal 0.992743615860097 -0.120250210681809 -7.1473639149855e-16
outer loop
vertex 6.47514086860604 28.6912904367196 18.3310873350031
vertex 6.49884838008107 28.8870113467399 18.1854574419838
vertex 6.50385300998482 28.9283278181084 18.2270683925063
endloop
endfacet
facet normal 0.992743615860097 -0.120250210681809 -7.1473639149855e-16
outer loop
vertex 6.47514086860604 28.6912904367196 18.3310873350031
vertex 6.50385300998482 28.9283278181084 18.2270683925063
vertex 6.509227382076 28.9726967514559 18.2653578454722
endloop
endfacet
facet normal 0.992743615860097 -0.120250210681809 -7.1473639149855e-16
outer loop
vertex 6.47514086860604 28.6912904367196 18.3310873350031
vertex 6.509227382076 28.9726967514559 18.2653578454722
vertex 6.51493970760662 29.0198557100148 18.3000993234901
endloop
endfacet
facet normal 0.992743615860097 -0.120250210681809 -7.1473639149855e-16
outer loop
vertex 6.47514086860604 28.6912904367196 18.3310873350031
vertex 6.51493970760662 29.0198557100148 18.3000993234901
vertex 6.5209561988758 29.0695257543623 18.3310873350031
endloop
endfacet
facet normal 0.1107178172687 0.914047515029595 -0.390203415166343
outer loop
vertex 6.05441624153709 28.8087813946321 17.9909845153208
vertex 6.48032147464141 28.7340597053865 17.9367977097235
vertex 6.05165478131302 28.7859837463589 17.9367977097235
endloop
endfacet
facet normal 0.1107178172687 0.914047515029595 -0.390203415166343
outer loop
vertex 6.48032147464141 28.7340597053865 17.9367977097235
vertex 6.05441624153709 28.8087813946321 17.9909845153208
vertex 6.48308293486548 28.7568573536597 17.9909845153208
endloop
endfacet
facet normal 0.091305849259135 0.753789107135714 -0.650742056313107
outer loop
vertex 6.07018168675268 28.9389353877123 18.1854574419838
vertex 6.49424309413331 28.8489917191822 18.1407711175443
vertex 6.06557640080491 28.9009157601546 18.1407711175443
endloop
endfacet
facet normal 0.091305849259135 0.753789107135714 -0.650742056313107
outer loop
vertex 6.49424309413331 28.8489917191822 18.1407711175443
vertex 6.07018168675268 28.9389353877123 18.1854574419838
vertex 6.49884838008107 28.8870113467399 18.1854574419838
endloop
endfacet
facet normal 0.102219273947175 0.843886518398417 -0.526694184607263
outer loop
vertex 6.06139769851145 28.866417857815 18.0932737332846
vertex 6.48633698970929 28.783721690558 18.0432462303739
vertex 6.0576702963809 28.8356457315304 18.0432462303739
endloop
endfacet
facet normal 0.102219273947175 0.843886518398417 -0.526694184607263
outer loop
vertex 6.48633698970929 28.783721690558 18.0432462303739
vertex 6.06139769851145 28.866417857815 18.0932737332846
vertex 6.49006439183984 28.8144938168426 18.0932737332846
endloop
endfacet
facet normal 0.0970495797496753 0.801207334042613 -0.590464382453964
outer loop
vertex 6.06557640080491 28.9009157601546 18.1407711175443
vertex 6.49006439183984 28.8144938168426 18.0932737332846
vertex 6.06139769851145 28.866417857815 18.0932737332846
endloop
endfacet
facet normal 0.0970495797496753 0.801207334042613 -0.590464382453964
outer loop
vertex 6.49006439183984 28.8144938168426 18.0932737332846
vertex 6.06557640080491 28.9009157601546 18.1407711175443
vertex 6.49424309413331 28.8489917191822 18.1407711175443
endloop
endfacet
facet normal 0.0709859267848142 0.586034945236182 -0.807170391652547
outer loop
vertex 6.08627301427823 29.0717797509872 18.3000993234901
vertex 6.509227382076 28.9726967514559 18.2653578454722
vertex 6.08056068874761 29.0246207924283 18.2653578454722
endloop
endfacet
facet normal 0.0709859267848142 0.586034945236182 -0.807170391652547
outer loop
vertex 6.509227382076 28.9726967514559 18.2653578454722
vertex 6.08627301427823 29.0717797509872 18.3000993234901
vertex 6.51493970760662 29.0198557100148 18.3000993234901
endloop
endfacet
facet normal 0.118515333074197 0.978421074057543 -0.169252230905225
outer loop
vertex 12.077373324683 28.0227303218594 17.8239403508864
vertex 12.5048422240267 27.9609177133357 17.7659373350031
vertex 12.0761755306983 28.0128417543081 17.7659373350031
endloop
endfacet
facet normal 0.118515333074197 0.978421074057543 -0.169252230905225
outer loop
vertex 12.5048422240267 27.9609177133357 17.7659373350031
vertex 12.077373324683 28.0227303218594 17.8239403508864
vertex 12.5060400180114 27.970806280887 17.8239403508864
endloop
endfacet
facet normal 0.116600705209983 0.962614577102829 -0.244494277016203
outer loop
vertex 12.079103604826 28.0370149086046 17.8810063218529
vertex 12.5060400180114 27.970806280887 17.8239403508864
vertex 12.077373324683 28.0227303218594 17.8239403508864
endloop
endfacet
facet normal 0.116600705209983 0.962614577102829 -0.244494277016203
outer loop
vertex 12.5060400180114 27.970806280887 17.8239403508864
vertex 12.079103604826 28.0370149086046 17.8810063218529
vertex 12.5077702981544 27.9850908676322 17.8810063218529
endloop
endfacet
facet normal 0.113996398557293 0.941114333664242 -0.318290169637199
outer loop
vertex 12.0813561367337 28.0556110229751 17.9367977097235
vertex 12.5077702981544 27.9850908676322 17.8810063218529
vertex 12.079103604826 28.0370149086046 17.8810063218529
endloop
endfacet
facet normal 0.113996398557293 0.941114333664242 -0.318290169637199
outer loop
vertex 12.5077702981544 27.9850908676322 17.8810063218529
vertex 12.0813561367337 28.0556110229751 17.9367977097235
vertex 12.5100228300621 28.0036869820027 17.9367977097235
endloop
endfacet
facet normal 0.110717817268726 0.914047515029592 -0.390203415166343
outer loop
vertex 12.0841175969578 28.0784086712482 17.9909845153208
vertex 12.5100228300621 28.0036869820027 17.9367977097235
vertex 12.0813561367337 28.0556110229751 17.9367977097235
endloop
endfacet
facet normal 0.110717817268726 0.914047515029592 -0.390203415166343
outer loop
vertex 12.5100228300621 28.0036869820027 17.9367977097235
vertex 12.0841175969578 28.0784086712482 17.9909845153208
vertex 12.5127842902861 28.0264846302758 17.9909845153208
endloop
endfacet
facet normal 0.10678435374819 0.881574218092393 -0.459808655626846
outer loop
vertex 12.0873716518016 28.1052730081466 18.0432462303739
vertex 12.5127842902861 28.0264846302758 17.9909845153208
vertex 12.0841175969578 28.0784086712482 17.9909845153208
endloop
endfacet
facet normal 0.10678435374819 0.881574218092393 -0.459808655626846
outer loop
vertex 12.5127842902861 28.0264846302758 17.9909845153208
vertex 12.0873716518016 28.1052730081466 18.0432462303739
vertex 12.51603834513 28.0533489671742 18.0432462303739
endloop
endfacet
facet normal 0.102219273947216 0.843886518398457 -0.526694184607192
outer loop
vertex 12.0910990539321 28.1360451344311 18.0932737332846
vertex 12.51603834513 28.0533489671742 18.0432462303739
vertex 12.0873716518016 28.1052730081466 18.0432462303739
endloop
endfacet
facet normal 0.102219273947216 0.843886518398457 -0.526694184607192
outer loop
vertex 12.51603834513 28.0533489671742 18.0432462303739
vertex 12.0910990539321 28.1360451344311 18.0932737332846
vertex 12.5197657472605 28.0841210934587 18.0932737332846
endloop
endfacet
facet normal 0.120250210681795 0.992743615860099 -0.0
outer loop
vertex 18.1184847300404 27.2809418532486 18.3310873350031
vertex 18.5471514233688 27.2290178122762 17.7659373350031
vertex 18.1184847300404 27.2809418532486 17.7659373350031
endloop
endfacet
facet normal 0.120250210681795 0.992743615860099 -0.0
outer loop
vertex 18.5471514233688 27.2290178122762 17.7659373350031
vertex 18.1184847300404 27.2809418532486 18.3310873350031
vertex 18.5471514233688 27.2290178122762 18.3310873350031
endloop
endfacet
facet normal -0.869132174774192 0.494579885127048 3.53943871229784e-31
outer loop
vertex 17.8790465577191 27.3768390736403 23.9141
vertex 17.8434350082634 27.3142583978864 19.0867373350031
vertex 17.8434350082634 27.3142583978864 23.9141
endloop
endfacet
facet normal -0.869132174774192 0.494579885127048 3.53943871229784e-31
outer loop
vertex 17.8434350082634 27.3142583978864 19.0867373350031
vertex 17.8790465577191 27.3768390736403 23.9141
vertex 17.8790465577191 27.3768390736403 19.0867373350031
endloop
endfacet
facet normal -0.58634596768891 0.810060742274896 0.0
outer loop
vertex 17.9271066944523 27.4304557379306 23.9141
vertex 17.9854340123501 27.4726747788873 19.0867373350031
vertex 17.9271066944523 27.4304557379306 19.0867373350031
endloop
endfacet
facet normal -0.58634596768891 0.810060742274896 0.0
outer loop
vertex 17.9854340123501 27.4726747788873 19.0867373350031
vertex 17.9271066944523 27.4304557379306 23.9141
vertex 17.9854340123501 27.4726747788873 23.9141
endloop
endfacet
facet normal 0.882464735180592 0.470378561546598 0.0
outer loop
vertex 18.4329258920616 27.3691862781148 19.0867373350031
vertex 18.4667948582512 27.3056456095497 23.9141
vertex 18.4667948582512 27.3056456095497 19.0867373350031
endloop
endfacet
facet normal 0.882464735180592 0.470378561546598 0.0
outer loop
vertex 18.4667948582512 27.3056456095497 23.9141
vertex 18.4329258920616 27.3691862781148 19.0867373350031
vertex 18.4329258920616 27.3691862781148 23.9141
endloop
endfacet
facet normal 0.608502633483678 0.793551854035657 0.0
outer loop
vertex 18.3292268134748 27.4679246901098 23.9141
vertex 18.3863654314119 27.4241102886797 19.0867373350031
vertex 18.3292268134748 27.4679246901098 19.0867373350031
endloop
endfacet
facet normal 0.608502633483678 0.793551854035657 0.0
outer loop
vertex 18.3863654314119 27.4241102886797 19.0867373350031
vertex 18.3292268134748 27.4679246901098 23.9141
vertex 18.3863654314119 27.4241102886797 23.9141
endloop
endfacet
facet normal 0.225316615213559 0.974285596172244 0.0
outer loop
vertex 18.1939514040972 27.5148644016641 23.9141
vertex 18.2641035084093 27.4986407863753 19.0867373350031
vertex 18.1939514040972 27.5148644016641 19.0867373350031
endloop
endfacet
facet normal 0.225316615213559 0.974285596172244 0.0
outer loop
vertex 18.2641035084093 27.4986407863753 19.0867373350031
vertex 18.1939514040972 27.5148644016641 23.9141
vertex 18.2641035084093 27.4986407863753 23.9141
endloop
endfacet
facet normal -0.0 -0.0 1.0
outer loop
vertex 6.68947421527024 28.6653284162334 19.0867373350031
vertex 6.08208572473336 28.8057951534459 19.0867373350031
vertex 6.04647417527765 28.743214477692 19.0867373350031
endloop
endfacet
facet normal -0.0 -0.0 1.0
outer loop
vertex 6.08208572473336 28.8057951534459 19.0867373350031
vertex 6.68947421527024 28.6653284162334 19.0867373350031
vertex 6.13014586146661 28.8594118177363 19.0867373350031
endloop
endfacet
facet normal -0.0 -0.0 1.0
outer loop
vertex 6.13014586146661 28.8594118177363 19.0867373350031
vertex 6.68947421527024 28.6653284162334 19.0867373350031
vertex 6.18847317936439 28.9016308586929 19.0867373350031
endloop
endfacet
facet normal -0.0 -0.0 1.0
outer loop
vertex 6.18847317936439 28.9016308586929 19.0867373350031
vertex 6.68947421527024 28.6653284162334 19.0867373350031
vertex 6.25442025425222 28.9305359922541 19.0867373350031
endloop
endfacet
facet normal -0.0 -0.0 1.0
outer loop
vertex 6.25442025425222 28.9305359922541 19.0867373350031
vertex 6.68947421527024 28.6653284162334 19.0867373350031
vertex 6.32499380808153 28.9448152405658 19.0867373350031
endloop
endfacet
facet normal -0.0 -0.0 1.0
outer loop
vertex 6.32499380808153 28.9448152405658 19.0867373350031
vertex 6.68947421527024 28.6653284162334 19.0867373350031
vertex 6.39699057111146 28.9438204814697 19.0867373350031
endloop
endfacet
facet normal -0.0 -0.0 1.0
outer loop
vertex 6.39699057111146 28.9438204814697 19.0867373350031
vertex 6.68947421527024 28.6653284162334 19.0867373350031
vertex 6.46714267542352 28.927596866181 19.0867373350031
endloop
endfacet
facet normal -0.0 -0.0 1.0
outer loop
vertex 6.46714267542352 28.927596866181 19.0867373350031
vertex 6.68947421527024 28.6653284162334 19.0867373350031
vertex 6.53226598048902 28.8968807699154 19.0867373350031
endloop
endfacet
facet normal -0.0 -0.0 1.0
outer loop
vertex 6.53226598048902 28.8968807699154 19.0867373350031
vertex 6.68947421527024 28.6653284162334 19.0867373350031
vertex 6.58940459842615 28.8530663684853 19.0867373350031
endloop
endfacet
facet normal -0.0 -0.0 1.0
outer loop
vertex 6.58940459842615 28.8530663684853 19.0867373350031
vertex 6.68947421527024 28.6653284162334 19.0867373350031
vertex 6.63596505907588 28.7981423579204 19.0867373350031
endloop
endfacet
facet normal -0.0 -0.0 1.0
outer loop
vertex 6.63596505907588 28.7981423579204 19.0867373350031
vertex 6.68947421527024 28.6653284162334 19.0867373350031
vertex 6.66983402526548 28.7346016893553 19.0867373350031
endloop
endfacet
facet normal 0.992743615860098 -0.120250210681803 0.0
outer loop
vertex 18.5039963552522 8.32644287331886 0.0
vertex 12.7915882594501 -38.8331973147648 23.9141
vertex 12.7915882594501 -38.8331973147648 0.0
endloop
endfacet
facet normal 0.992743615860098 -0.120250210681803 0.0
outer loop
vertex 12.7915882594501 -38.8331973147648 23.9141
vertex 18.5039963552522 8.32644287331886 0.0
vertex 18.5039963552522 8.32644287331886 23.9141
endloop
endfacet
facet normal -0.120250210681803 -0.992743615860098 0.0
outer loop
vertex 12.7915882594501 -38.8331973147648 23.9141
vertex -2.47651072939344 -36.9837851495419 0.0
vertex 12.7915882594501 -38.8331973147648 0.0
endloop
endfacet
facet normal -0.120250210681803 -0.992743615860098 0.0
outer loop
vertex -2.47651072939344 -36.9837851495419 0.0
vertex 12.7915882594501 -38.8331973147648 23.9141
vertex -2.47651072939344 -36.9837851495419 23.9141
endloop
endfacet
facet normal -0.992743615860098 0.120250210681803 0.0
outer loop
vertex 5.49306597103251 28.8102483544053 23.9141
vertex -2.47651072939344 -36.9837851495419 0.0
vertex -2.47651072939344 -36.9837851495419 23.9141
endloop
endfacet
facet normal -0.992743615860098 0.120250210681803 0.0
outer loop
vertex -2.47651072939344 -36.9837851495419 0.0
vertex 5.49306597103251 28.8102483544053 23.9141
vertex 5.49306597103251 28.8102483544053 0.0
endloop
endfacet
facet normal 0.120250210681803 0.992743615860098 1.98405772175271e-15
outer loop
vertex 6.09228950554741 29.1214497953347 19.0867373350031
vertex 6.5209561988758 29.0695257543623 18.3310873350031
vertex 6.09228950554741 29.1214497953347 18.3310873350031
endloop
endfacet
facet normal 0.120250210681803 0.992743615860098 1.98405772175271e-15
outer loop
vertex 6.5209561988758 29.0695257543623 18.3310873350031
vertex 6.09228950554741 29.1214497953347 19.0867373350031
vertex 12.1219908609681 28.3910770719508 18.3310873350031
endloop
endfacet
facet normal 0.120250210681803 0.992743615860098 1.98405772175271e-15
outer loop
vertex 12.1219908609681 28.3910770719508 18.3310873350031
vertex 6.09228950554741 29.1214497953347 19.0867373350031
vertex 12.5506575542965 28.3391530309784 18.3310873350031
endloop
endfacet
facet normal 0.120250210681803 0.992743615860098 1.98405772175271e-15
outer loop
vertex 12.5506575542965 28.3391530309784 18.3310873350031
vertex 6.09228950554741 29.1214497953347 19.0867373350031
vertex 18.1643000603102 27.6591771708913 18.3310873350031
endloop
endfacet
facet normal 0.120250210681803 0.992743615860098 1.98405772175271e-15
outer loop
vertex 18.1643000603102 27.6591771708913 18.3310873350031
vertex 6.09228950554741 29.1214497953347 19.0867373350031
vertex 18.5929667536386 27.6072531299189 18.3310873350031
endloop
endfacet
facet normal 0.120250210681803 0.992743615860098 1.98405772175271e-15
outer loop
vertex 18.5929667536386 27.6072531299189 18.3310873350031
vertex 6.09228950554741 29.1214497953347 19.0867373350031
vertex 18.5929667536386 27.6072531299189 19.0867373350031
endloop
endfacet
facet normal 0.120250210681803 0.992743615860098 -1.06620249167473e-16
outer loop
vertex 5.49306597103251 28.8102483544053 0.0
vertex 6.04647417527765 28.743214477692 18.3310873350031
vertex 18.8321648398983 27.1944943735582 0.0
endloop
endfacet
facet normal 0.120250210681803 0.992743615860098 -1.06620249167473e-16
outer loop
vertex 6.04647417527765 28.743214477692 18.3310873350031
vertex 5.49306597103251 28.8102483544053 0.0
vertex 5.49306597103251 28.8102483544053 23.9141
endloop
endfacet
facet normal 0.120250210681803 0.992743615860098 -1.06620249167473e-16
outer loop
vertex 18.8321648398983 27.1944943735582 0.0
vertex 6.04647417527765 28.743214477692 18.3310873350031
vertex 12.0761755306983 28.0128417543081 17.7659373350031
endloop
endfacet
facet normal 0.120250210681803 0.992743615860098 -1.06620249167473e-16
outer loop
vertex 6.04647417527765 28.743214477692 18.3310873350031
vertex 5.49306597103251 28.8102483544053 23.9141
vertex 6.04647417527765 28.743214477692 19.0867373350031
endloop
endfacet
facet normal 0.120250210681803 0.992743615860098 -1.06620249167473e-16
outer loop
vertex 6.04647417527765 28.743214477692 19.0867373350031
vertex 5.49306597103251 28.8102483544053 23.9141
vertex 6.04647417527765 28.743214477692 23.9141
endloop
endfacet
facet normal 0.120250210681803 0.992743615860098 -1.06620249167473e-16
outer loop
vertex 6.04647417527765 28.743214477692 18.3310873350031
vertex 12.0761755306983 28.0128417543081 18.3310873350031
vertex 12.0761755306983 28.0128417543081 17.7659373350031
endloop
endfacet
facet normal 0.120250210681803 0.992743615860098 -1.06620249167473e-16
outer loop
vertex 12.0761755306983 28.0128417543081 18.3310873350031
vertex 6.04647417527765 28.743214477692 18.3310873350031
vertex 6.47514086860604 28.6912904367196 18.3310873350031
endloop
endfacet
facet normal 0.120250210681803 0.992743615860098 -1.06620249167473e-16
outer loop
vertex 12.5048422240267 27.9609177133357 18.3310873350031
vertex 18.1184847300404 27.2809418532486 17.7659373350031
vertex 12.5048422240267 27.9609177133357 17.7659373350031
endloop
endfacet
facet normal 0.120250210681803 0.992743615860098 -1.06620249167473e-16
outer loop
vertex 18.1184847300404 27.2809418532486 17.7659373350031
vertex 12.5048422240267 27.9609177133357 18.3310873350031
vertex 18.1184847300404 27.2809418532486 18.3310873350031
endloop
endfacet
facet normal 0.120250210681803 0.992743615860098 -1.06620249167473e-16
outer loop
vertex 18.486435048256 27.2363723364278 23.9141
vertex 18.5471514233688 27.2290178122762 19.0867373350031
vertex 18.486435048256 27.2363723364278 19.0867373350031
endloop
endfacet
facet normal 0.120250210681803 0.992743615860098 -1.06620249167473e-16
outer loop
vertex 18.8321648398983 27.1944943735582 0.0
vertex 18.5471514233688 27.2290178122762 17.7659373350031
vertex 18.8321648398983 27.1944943735582 23.9141
endloop
endfacet
facet normal 0.120250210681803 0.992743615860098 -1.06620249167473e-16
outer loop
vertex 18.5471514233688 27.2290178122762 17.7659373350031
vertex 18.8321648398983 27.1944943735582 0.0
vertex 12.0761755306983 28.0128417543081 17.7659373350031
endloop
endfacet
facet normal 0.120250210681803 0.992743615860098 -1.06620249167473e-16
outer loop
vertex 18.5471514233688 27.2290178122762 17.7659373350031
vertex 12.0761755306983 28.0128417543081 17.7659373350031
vertex 12.5048422240267 27.9609177133357 17.7659373350031
endloop
endfacet
facet normal 0.120250210681803 0.992743615860098 -1.06620249167473e-16
outer loop
vertex 18.5471514233688 27.2290178122762 17.7659373350031
vertex 12.5048422240267 27.9609177133357 17.7659373350031
vertex 18.1184847300404 27.2809418532486 17.7659373350031
endloop
endfacet
facet normal 0.120250210681803 0.992743615860098 -1.06620249167473e-16
outer loop
vertex 18.8321648398983 27.1944943735582 23.9141
vertex 18.5471514233688 27.2290178122762 17.7659373350031
vertex 18.5471514233688 27.2290178122762 18.3310873350031
endloop
endfacet
facet normal 0.120250210681803 0.992743615860098 -1.06620249167473e-16
outer loop
vertex 18.8321648398983 27.1944943735582 23.9141
vertex 18.5471514233688 27.2290178122762 18.3310873350031
vertex 18.5471514233688 27.2290178122762 19.0867373350031
endloop
endfacet
facet normal 0.120250210681803 0.992743615860098 -1.06620249167473e-16
outer loop
vertex 18.8321648398983 27.1944943735582 23.9141
vertex 18.5471514233688 27.2290178122762 19.0867373350031
vertex 18.486435048256 27.2363723364278 23.9141
endloop
endfacet
facet normal 0.0 0.0 -1.0
outer loop
vertex 5.49306597103251 28.8102483544053 0.0
vertex 12.7915882594501 -38.8331973147648 0.0
vertex -2.47651072939344 -36.9837851495419 0.0
endloop
endfacet
facet normal 0.0 0.0 -1.0
outer loop
vertex 12.7915882594501 -38.8331973147648 0.0
vertex 5.49306597103251 28.8102483544053 0.0
vertex 16.5749962352745 8.56010105769468 0.0
endloop
endfacet
facet normal 0.0 0.0 -1.0
outer loop
vertex 16.5749962352745 8.56010105769468 0.0
vertex 5.49306597103251 28.8102483544053 0.0
vertex 18.8321648398983 27.1944943735582 0.0
endloop
endfacet
facet normal 0.0 0.0 -1.0
outer loop
vertex 18.5039963552522 8.32644287331886 0.0
vertex 12.7915882594501 -38.8331973147648 0.0
vertex 16.5749962352745 8.56010105769468 0.0
endloop
endfacet
facet normal -0.0 -0.0 1.0
outer loop
vertex 18.5039963552522 8.32644287331886 23.9141
vertex 16.5749962352745 8.56010105769468 23.9141
vertex 12.7915882594501 -38.8331973147648 23.9141
endloop
endfacet
facet normal -0.0 -0.0 1.0
outer loop
vertex 12.7915882594501 -38.8331973147648 23.9141
vertex 5.49306597103251 28.8102483544053 23.9141
vertex -2.47651072939344 -36.9837851495419 23.9141
endloop
endfacet
facet normal -0.0 -0.0 1.0
outer loop
vertex 5.49306597103251 28.8102483544053 23.9141
vertex 12.7915882594501 -38.8331973147648 23.9141
vertex 6.04647417527765 28.743214477692 23.9141
endloop
endfacet
facet normal -0.0 -0.0 1.0
outer loop
vertex 6.04647417527765 28.743214477692 23.9141
vertex 12.7915882594501 -38.8331973147648 23.9141
vertex 6.68947421527024 28.6653284162334 23.9141
endloop
endfacet
facet normal -0.0 -0.0 1.0
outer loop
vertex 6.68947421527024 28.6653284162334 23.9141
vertex 12.7915882594501 -38.8331973147648 23.9141
vertex 11.8402127892376 28.0414237254439 23.9141
endloop
endfacet
facet normal -0.0 -0.0 1.0
outer loop
vertex 11.8402127892376 28.0414237254439 23.9141
vertex 12.7915882594501 -38.8331973147648 23.9141
vertex 12.4832128292302 27.9635376639853 23.9141
endloop
endfacet
facet normal -0.0 -0.0 1.0
outer loop
vertex 12.4832128292302 27.9635376639853 23.9141
vertex 12.7915882594501 -38.8331973147648 23.9141
vertex 17.8434350082634 27.3142583978864 23.9141
endloop
endfacet
facet normal -0.0 -0.0 1.0
outer loop
vertex 17.8434350082634 27.3142583978864 23.9141
vertex 12.7915882594501 -38.8331973147648 23.9141
vertex 16.5749962352745 8.56010105769468 23.9141
endloop
endfacet
facet normal -0.0 -0.0 1.0
outer loop
vertex 17.8434350082634 27.3142583978864 23.9141
vertex 16.5749962352745 8.56010105769468 23.9141
vertex 18.486435048256 27.2363723364278 23.9141
endloop
endfacet
facet normal -0.0 -0.0 1.0
outer loop
vertex 18.486435048256 27.2363723364278 23.9141
vertex 16.5749962352745 8.56010105769468 23.9141
vertex 18.8321648398983 27.1944943735582 23.9141
endloop
endfacet
facet normal 0.0782353676334344 0.645883789410538 -0.759416458754974
outer loop
vertex 18.1525712435104 27.5623481679849 18.2653578454722
vertex 18.5758635647476 27.466055193665 18.2270683925063
vertex 18.1471968714192 27.5179792346374 18.2270683925063
endloop
endfacet
facet normal 0.0782353676334344 0.645883789410538 -0.759416458754974
outer loop
vertex 18.5758635647476 27.466055193665 18.2270683925063
vertex 18.1525712435104 27.5623481679849 18.2653578454722
vertex 18.5812379368388 27.5104241270125 18.2653578454722
endloop
endfacet
facet normal 0.113996398557266 0.941114333664245 -0.3182901696372
outer loop
vertex 18.1236653360758 27.3237111219156 17.9367977097235
vertex 18.5500794974965 27.2531909665727 17.8810063218529
vertex 18.1214128041681 27.3051150075451 17.8810063218529
endloop
endfacet
facet normal 0.113996398557266 0.941114333664245 -0.3182901696372
outer loop
vertex 18.5500794974965 27.2531909665727 17.8810063218529
vertex 18.1236653360758 27.3237111219156 17.9367977097235
vertex 18.5523320294042 27.2717870809432 17.9367977097235
endloop
endfacet
facet normal 0.118515333074175 0.978421074057538 -0.16925223090527
outer loop
vertex 18.1196825240251 27.2908304207999 17.8239403508864
vertex 18.5471514233688 27.2290178122762 17.7659373350031
vertex 18.1184847300404 27.2809418532486 17.7659373350031
endloop
endfacet
facet normal 0.118515333074175 0.978421074057538 -0.16925223090527
outer loop
vertex 18.5471514233688 27.2290178122762 17.7659373350031
vertex 18.1196825240251 27.2908304207999 17.8239403508864
vertex 18.5483492173535 27.2389063798275 17.8239403508864
endloop
endfacet
facet normal 0.102219273947176 0.843886518398418 -0.526694184607262
outer loop
vertex 18.1334082532742 27.4041452333716 18.0932737332846
vertex 18.5583475444721 27.3214490661146 18.0432462303739
vertex 18.1296808511437 27.373373107087 18.0432462303739
endloop
endfacet
facet normal 0.102219273947176 0.843886518398418 -0.526694184607262
outer loop
vertex 18.5583475444721 27.3214490661146 18.0432462303739
vertex 18.1334082532742 27.4041452333716 18.0932737332846
vertex 18.5620749466026 27.3522211923992 18.0932737332846
endloop
endfacet
facet normal 0.110717817268701 0.914047515029595 -0.390203415166343
outer loop
vertex 18.1264267962998 27.3465087701887 17.9909845153208
vertex 18.5523320294042 27.2717870809432 17.9367977097235
vertex 18.1236653360758 27.3237111219156 17.9367977097235
endloop
endfacet
facet normal 0.110717817268701 0.914047515029595 -0.390203415166343
outer loop
vertex 18.5523320294042 27.2717870809432 17.9367977097235
vertex 18.1264267962998 27.3465087701887 17.9909845153208
vertex 18.5550934896282 27.2945847292163 17.9909845153208
endloop
endfacet
facet normal 0.085022055932922 0.701912310640939 -0.707170671178915
outer loop
vertex 18.1471968714192 27.5179792346374 18.2270683925063
vertex 18.5708589348438 27.4247387222965 18.1854574419838
vertex 18.1421922415154 27.4766627632689 18.1854574419838
endloop
endfacet
facet normal 0.085022055932922 0.701912310640939 -0.707170671178915
outer loop
vertex 18.5708589348438 27.4247387222965 18.1854574419838
vertex 18.1471968714192 27.5179792346374 18.2270683925063
vertex 18.5758635647476 27.466055193665 18.2270683925063
endloop
endfacet
facet normal 0.0709859267848141 0.586034945236181 -0.807170391652548
outer loop
vertex 18.158283569041 27.6095071265438 18.3000993234901
vertex 18.5812379368388 27.5104241270125 18.2653578454722
vertex 18.1525712435104 27.5623481679849 18.2653578454722
endloop
endfacet
facet normal 0.0709859267848141 0.586034945236181 -0.807170391652548
outer loop
vertex 18.5812379368388 27.5104241270125 18.2653578454722
vertex 18.158283569041 27.6095071265438 18.3000993234901
vertex 18.5869502623694 27.5575830855714 18.3000993234901
endloop
endfacet
facet normal 0.116600705209956 0.962614577102832 -0.244494277016206
outer loop
vertex 18.1214128041681 27.3051150075451 17.8810063218529
vertex 18.5483492173535 27.2389063798275 17.8239403508864
vertex 18.1196825240251 27.2908304207999 17.8239403508864
endloop
endfacet
facet normal 0.116600705209956 0.962614577102832 -0.244494277016206
outer loop
vertex 18.5483492173535 27.2389063798275 17.8239403508864
vertex 18.1214128041681 27.3051150075451 17.8810063218529
vertex 18.5500794974965 27.2531909665727 17.8810063218529
endloop
endfacet
facet normal 0.0970495797496753 0.801207334042612 -0.590464382453965
outer loop
vertex 18.1375869555677 27.4386431357112 18.1407711175443
vertex 18.5620749466026 27.3522211923992 18.0932737332846
vertex 18.1334082532742 27.4041452333716 18.0932737332846
endloop
endfacet
facet normal 0.0970495797496753 0.801207334042612 -0.590464382453965
outer loop
vertex 18.5620749466026 27.3522211923992 18.0932737332846
vertex 18.1375869555677 27.4386431357112 18.1407711175443
vertex 18.5662536488961 27.3867190947388 18.1407711175443
endloop
endfacet
facet normal 0.992743615860097 -0.120250210681816 -4.46097313453643e-16
outer loop
vertex 18.5483492173535 27.2389063798275 17.8239403508864
vertex 18.5471514233688 27.2290178122762 18.3310873350031
vertex 18.5471514233688 27.2290178122762 17.7659373350031
endloop
endfacet
facet normal 0.992743615860097 -0.120250210681816 -4.46097313453643e-16
outer loop
vertex 18.5471514233688 27.2290178122762 18.3310873350031
vertex 18.5483492173535 27.2389063798275 17.8239403508864
vertex 18.5471514233688 27.2290178122762 19.0867373350031
endloop
endfacet
facet normal 0.992743615860097 -0.120250210681816 -4.46097313453643e-16
outer loop
vertex 18.5471514233688 27.2290178122762 19.0867373350031
vertex 18.5483492173535 27.2389063798275 17.8239403508864
vertex 18.5500794974965 27.2531909665727 17.8810063218529
endloop
endfacet
facet normal 0.992743615860097 -0.120250210681816 -4.46097313453643e-16
outer loop
vertex 18.5471514233688 27.2290178122762 19.0867373350031
vertex 18.5500794974965 27.2531909665727 17.8810063218529
vertex 18.5929667536386 27.6072531299189 19.0867373350031
endloop
endfacet
facet normal 0.992743615860097 -0.120250210681816 -4.46097313453643e-16
outer loop
vertex 18.5929667536386 27.6072531299189 19.0867373350031
vertex 18.5500794974965 27.2531909665727 17.8810063218529
vertex 18.5523320294042 27.2717870809432 17.9367977097235
endloop
endfacet
facet normal 0.992743615860097 -0.120250210681816 -4.46097313453643e-16
outer loop
vertex 18.5929667536386 27.6072531299189 19.0867373350031
vertex 18.5523320294042 27.2717870809432 17.9367977097235
vertex 18.5550934896282 27.2945847292163 17.9909845153208
endloop
endfacet
facet normal 0.992743615860097 -0.120250210681816 -4.46097313453643e-16
outer loop
vertex 18.5929667536386 27.6072531299189 19.0867373350031
vertex 18.5550934896282 27.2945847292163 17.9909845153208
vertex 18.5583475444721 27.3214490661146 18.0432462303739
endloop
endfacet
facet normal 0.992743615860097 -0.120250210681816 -4.46097313453643e-16
outer loop
vertex 18.5929667536386 27.6072531299189 19.0867373350031
vertex 18.5583475444721 27.3214490661146 18.0432462303739
vertex 18.5620749466026 27.3522211923992 18.0932737332846
endloop
endfacet
facet normal 0.992743615860097 -0.120250210681816 -4.46097313453643e-16
outer loop
vertex 18.5929667536386 27.6072531299189 19.0867373350031
vertex 18.5620749466026 27.3522211923992 18.0932737332846
vertex 18.5662536488961 27.3867190947388 18.1407711175443
endloop
endfacet
facet normal 0.992743615860097 -0.120250210681816 -4.46097313453643e-16
outer loop
vertex 18.5929667536386 27.6072531299189 19.0867373350031
vertex 18.5662536488961 27.3867190947388 18.1407711175443
vertex 18.5708589348438 27.4247387222965 18.1854574419838
endloop
endfacet
facet normal 0.992743615860097 -0.120250210681816 -4.46097313453643e-16
outer loop
vertex 18.5929667536386 27.6072531299189 19.0867373350031
vertex 18.5708589348438 27.4247387222965 18.1854574419838
vertex 18.5758635647476 27.466055193665 18.2270683925063
endloop
endfacet
facet normal 0.992743615860097 -0.120250210681816 -4.46097313453643e-16
outer loop
vertex 18.5929667536386 27.6072531299189 19.0867373350031
vertex 18.5758635647476 27.466055193665 18.2270683925063
vertex 18.5812379368388 27.5104241270125 18.2653578454722
endloop
endfacet
facet normal 0.992743615860097 -0.120250210681816 -4.46097313453643e-16
outer loop
vertex 18.5929667536386 27.6072531299189 19.0867373350031
vertex 18.5812379368388 27.5104241270125 18.2653578454722
vertex 18.5869502623694 27.5575830855714 18.3000993234901
endloop
endfacet
facet normal 0.992743615860097 -0.120250210681816 -4.46097313453643e-16
outer loop
vertex 18.5929667536386 27.6072531299189 19.0867373350031
vertex 18.5869502623694 27.5575830855714 18.3000993234901
vertex 18.5929667536386 27.6072531299189 18.3310873350031
endloop
endfacet
facet normal 0.0913058492591348 0.753789107135713 -0.650742056313108
outer loop
vertex 18.1421922415154 27.4766627632689 18.1854574419838
vertex 18.5662536488961 27.3867190947388 18.1407711175443
vertex 18.1375869555677 27.4386431357112 18.1407711175443
endloop
endfacet
facet normal 0.0913058492591348 0.753789107135713 -0.650742056313108
outer loop
vertex 18.5662536488961 27.3867190947388 18.1407711175443
vertex 18.1421922415154 27.4766627632689 18.1854574419838
vertex 18.5708589348438 27.4247387222965 18.1854574419838
endloop
endfacet
facet normal 0.0 0.0 -1.0
outer loop
vertex 12.5506575542965 28.3391530309784 18.3310873350031
vertex 18.1184847300404 27.2809418532486 18.3310873350031
vertex 12.5048422240267 27.9609177133357 18.3310873350031
endloop
endfacet
facet normal 0.0 0.0 -1.0
outer loop
vertex 18.1184847300404 27.2809418532486 18.3310873350031
vertex 12.5506575542965 28.3391530309784 18.3310873350031
vertex 18.1643000603102 27.6591771708913 18.3310873350031
endloop
endfacet
facet normal -0.0 -0.0 1.0
outer loop
vertex 18.486435048256 27.2363723364278 19.0867373350031
vertex 17.8790465577191 27.3768390736403 19.0867373350031
vertex 17.8434350082634 27.3142583978864 19.0867373350031
endloop
endfacet
facet normal -0.0 -0.0 1.0
outer loop
vertex 17.8790465577191 27.3768390736403 19.0867373350031
vertex 18.486435048256 27.2363723364278 19.0867373350031
vertex 17.9271066944523 27.4304557379306 19.0867373350031
endloop
endfacet
facet normal -0.0 -0.0 1.0
outer loop
vertex 17.9271066944523 27.4304557379306 19.0867373350031
vertex 18.486435048256 27.2363723364278 19.0867373350031
vertex 17.9854340123501 27.4726747788873 19.0867373350031
endloop
endfacet
facet normal -0.0 -0.0 1.0
outer loop
vertex 17.9854340123501 27.4726747788873 19.0867373350031
vertex 18.486435048256 27.2363723364278 19.0867373350031
vertex 18.051381087238 27.5015799124484 19.0867373350031
endloop
endfacet
facet normal -0.0 -0.0 1.0
outer loop
vertex 18.051381087238 27.5015799124484 19.0867373350031
vertex 18.486435048256 27.2363723364278 19.0867373350031
vertex 18.1219546410673 27.5158591607602 19.0867373350031
endloop
endfacet
facet normal -0.0 -0.0 1.0
outer loop
vertex 18.1219546410673 27.5158591607602 19.0867373350031
vertex 18.486435048256 27.2363723364278 19.0867373350031
vertex 18.1939514040972 27.5148644016641 19.0867373350031
endloop
endfacet
facet normal -0.0 -0.0 1.0
outer loop
vertex 18.1939514040972 27.5148644016641 19.0867373350031
vertex 18.486435048256 27.2363723364278 19.0867373350031
vertex 18.2641035084093 27.4986407863753 19.0867373350031
endloop
endfacet
facet normal -0.0 -0.0 1.0
outer loop
vertex 18.2641035084093 27.4986407863753 19.0867373350031
vertex 18.486435048256 27.2363723364278 19.0867373350031
vertex 18.3292268134748 27.4679246901098 19.0867373350031
endloop
endfacet
facet normal -0.0 -0.0 1.0
outer loop
vertex 18.3292268134748 27.4679246901098 19.0867373350031
vertex 18.486435048256 27.2363723364278 19.0867373350031
vertex 18.3863654314119 27.4241102886797 19.0867373350031
endloop
endfacet
facet normal -0.0 -0.0 1.0
outer loop
vertex 18.3863654314119 27.4241102886797 19.0867373350031
vertex 18.486435048256 27.2363723364278 19.0867373350031
vertex 18.4329258920616 27.3691862781148 19.0867373350031
endloop
endfacet
facet normal -0.0 -0.0 1.0
outer loop
vertex 18.4329258920616 27.3691862781148 19.0867373350031
vertex 18.486435048256 27.2363723364278 19.0867373350031
vertex 18.4667948582512 27.3056456095497 19.0867373350031
endloop
endfacet
facet normal -0.0 -0.0 1.0
outer loop
vertex 12.4832128292302 27.9635376639853 23.9141
vertex 11.8758243386933 28.1040044011978 23.9141
vertex 11.8402127892376 28.0414237254439 23.9141
endloop
endfacet
facet normal -0.0 -0.0 1.0
outer loop
vertex 11.8758243386933 28.1040044011978 23.9141
vertex 12.4832128292302 27.9635376639853 23.9141
vertex 11.9238844754266 28.1576210654882 23.9141
endloop
endfacet
facet normal -0.0 -0.0 1.0
outer loop
vertex 11.9238844754266 28.1576210654882 23.9141
vertex 12.4832128292302 27.9635376639853 23.9141
vertex 11.9822117933244 28.1998401064448 23.9141
endloop
endfacet
facet normal -0.0 -0.0 1.0
outer loop
vertex 11.9822117933244 28.1998401064448 23.9141
vertex 12.4832128292302 27.9635376639853 23.9141
vertex 12.0481588682122 28.2287452400059 23.9141
endloop
endfacet
facet normal -0.0 -0.0 1.0
outer loop
vertex 12.0481588682122 28.2287452400059 23.9141
vertex 12.4832128292302 27.9635376639853 23.9141
vertex 12.1187324220415 28.2430244883177 23.9141
endloop
endfacet
facet normal -0.0 -0.0 1.0
outer loop
vertex 12.1187324220415 28.2430244883177 23.9141
vertex 12.4832128292302 27.9635376639853 23.9141
vertex 12.1907291850714 28.2420297292216 23.9141
endloop
endfacet
facet normal -0.0 -0.0 1.0
outer loop
vertex 12.1907291850714 28.2420297292216 23.9141
vertex 12.4832128292302 27.9635376639853 23.9141
vertex 12.2608812893835 28.2258061139328 23.9141
endloop
endfacet
facet normal -0.0 -0.0 1.0
outer loop
vertex 12.2608812893835 28.2258061139328 23.9141
vertex 12.4832128292302 27.9635376639853 23.9141
vertex 12.326004594449 28.1950900176673 23.9141
endloop
endfacet
facet normal -0.0 -0.0 1.0
outer loop
vertex 12.326004594449 28.1950900176673 23.9141
vertex 12.4832128292302 27.9635376639853 23.9141
vertex 12.3831432123861 28.1512756162372 23.9141
endloop
endfacet
facet normal -0.0 -0.0 1.0
outer loop
vertex 12.3831432123861 28.1512756162372 23.9141
vertex 12.4832128292302 27.9635376639853 23.9141
vertex 12.4297036730358 28.0963516056723 23.9141
endloop
endfacet
facet normal -0.0 -0.0 1.0
outer loop
vertex 12.4297036730358 28.0963516056723 23.9141
vertex 12.4832128292302 27.9635376639853 23.9141
vertex 12.4635726392254 28.0328109371072 23.9141
endloop
endfacet
facet normal 0.962080223597796 0.272766646351814 3.44254193320404e-31
outer loop
vertex 12.4635726392254 28.0328109371072 19.0867373350031
vertex 12.4832128292302 27.9635376639853 23.9141
vertex 12.4832128292302 27.9635376639853 19.0867373350031
endloop
endfacet
facet normal 0.962080223597796 0.272766646351814 3.44254193320404e-31
outer loop
vertex 12.4832128292302 27.9635376639853 23.9141
vertex 12.4635726392254 28.0328109371072 19.0867373350031
vertex 12.4635726392254 28.0328109371072 23.9141
endloop
endfacet
facet normal 0.882464735180592 0.470378561546598 0.0
outer loop
vertex 12.4297036730358 28.0963516056723 19.0867373350031
vertex 12.4635726392254 28.0328109371072 23.9141
vertex 12.4635726392254 28.0328109371072 19.0867373350031
endloop
endfacet
facet normal 0.882464735180592 0.470378561546598 0.0
outer loop
vertex 12.4635726392254 28.0328109371072 23.9141
vertex 12.4297036730358 28.0963516056723 19.0867373350031
vertex 12.4297036730358 28.0963516056723 23.9141
endloop
endfacet
facet normal 0.762794971043989 0.646640419514587 0.0
outer loop
vertex 12.3831432123861 28.1512756162372 19.0867373350031
vertex 12.4297036730358 28.0963516056723 23.9141
vertex 12.4297036730358 28.0963516056723 19.0867373350031
endloop
endfacet
facet normal 0.762794971043989 0.646640419514587 0.0
outer loop
vertex 12.4297036730358 28.0963516056723 23.9141
vertex 12.3831432123861 28.1512756162372 19.0867373350031
vertex 12.3831432123861 28.1512756162372 23.9141
endloop
endfacet
facet normal 0.608502633483678 0.793551854035657 0.0
outer loop
vertex 12.326004594449 28.1950900176673 23.9141
vertex 12.3831432123861 28.1512756162372 19.0867373350031
vertex 12.326004594449 28.1950900176673 19.0867373350031
endloop
endfacet
facet normal 0.608502633483678 0.793551854035657 0.0
outer loop
vertex 12.3831432123861 28.1512756162372 19.0867373350031
vertex 12.326004594449 28.1950900176673 23.9141
vertex 12.3831432123861 28.1512756162372 23.9141
endloop
endfacet
facet normal 0.426590912070479 0.90444468804835 0.0
outer loop
vertex 12.2608812893835 28.2258061139328 23.9141
vertex 12.326004594449 28.1950900176673 19.0867373350031
vertex 12.2608812893835 28.2258061139328 19.0867373350031
endloop
endfacet
facet normal 0.426590912070479 0.90444468804835 0.0
outer loop
vertex 12.326004594449 28.1950900176673 19.0867373350031
vertex 12.2608812893835 28.2258061139328 23.9141
vertex 12.326004594449 28.1950900176673 23.9141
endloop
endfacet
facet normal 0.225316615213559 0.974285596172244 0.0
outer loop
vertex 12.1907291850714 28.2420297292216 23.9141
vertex 12.2608812893835 28.2258061139328 19.0867373350031
vertex 12.1907291850714 28.2420297292216 19.0867373350031
endloop
endfacet
facet normal 0.225316615213559 0.974285596172244 0.0
outer loop
vertex 12.2608812893835 28.2258061139328 19.0867373350031
vertex 12.1907291850714 28.2420297292216 23.9141
vertex 12.2608812893835 28.2258061139328 23.9141
endloop
endfacet
facet normal 0.0138154010983979 0.999904562792115 0.0
outer loop
vertex 12.1187324220415 28.2430244883177 23.9141
vertex 12.1907291850714 28.2420297292216 19.0867373350031
vertex 12.1187324220415 28.2430244883177 19.0867373350031
endloop
endfacet
facet normal 0.0138154010983979 0.999904562792115 0.0
outer loop
vertex 12.1907291850714 28.2420297292216 19.0867373350031
vertex 12.1187324220415 28.2430244883177 23.9141
vertex 12.1907291850714 28.2420297292216 23.9141
endloop
endfacet
facet normal -0.198312881570051 0.980138766197615 0.0
outer loop
vertex 12.0481588682122 28.2287452400059 23.9141
vertex 12.1187324220415 28.2430244883177 19.0867373350031
vertex 12.0481588682122 28.2287452400059 19.0867373350031
endloop
endfacet
facet normal -0.198312881570051 0.980138766197615 0.0
outer loop
vertex 12.1187324220415 28.2430244883177 19.0867373350031
vertex 12.0481588682122 28.2287452400059 23.9141
vertex 12.1187324220415 28.2430244883177 23.9141
endloop
endfacet
facet normal -0.401439922012551 0.915885358008609 0.0
outer loop
vertex 11.9822117933244 28.1998401064448 23.9141
vertex 12.0481588682122 28.2287452400059 19.0867373350031
vertex 11.9822117933244 28.1998401064448 19.0867373350031
endloop
endfacet
facet normal -0.401439922012551 0.915885358008609 0.0
outer loop
vertex 12.0481588682122 28.2287452400059 19.0867373350031
vertex 11.9822117933244 28.1998401064448 23.9141
vertex 12.0481588682122 28.2287452400059 23.9141
endloop
endfacet
facet normal -0.58634596768891 0.810060742274896 0.0
outer loop
vertex 11.9238844754266 28.1576210654882 23.9141
vertex 11.9822117933244 28.1998401064448 19.0867373350031
vertex 11.9238844754266 28.1576210654882 19.0867373350031
endloop
endfacet
facet normal -0.58634596768891 0.810060742274896 0.0
outer loop
vertex 11.9822117933244 28.1998401064448 19.0867373350031
vertex 11.9238844754266 28.1576210654882 23.9141
vertex 11.9822117933244 28.1998401064448 23.9141
endloop
endfacet
facet normal -0.744638300521528 0.667468202535829 0.0
outer loop
vertex 11.9238844754266 28.1576210654882 23.9141
vertex 11.8758243386933 28.1040044011978 19.0867373350031
vertex 11.8758243386933 28.1040044011978 23.9141
endloop
endfacet
facet normal -0.744638300521528 0.667468202535829 0.0
outer loop
vertex 11.8758243386933 28.1040044011978 19.0867373350031
vertex 11.9238844754266 28.1576210654882 23.9141
vertex 11.9238844754266 28.1576210654882 19.0867373350031
endloop
endfacet
facet normal -0.8691321747742 0.494579885127033 3.41942911909588e-19
outer loop
vertex 11.8758243386933 28.1040044011978 23.9141
vertex 11.8402127892376 28.0414237254439 19.0867373350031
vertex 11.8402127892376 28.0414237254439 23.9141
endloop
endfacet
facet normal -0.8691321747742 0.494579885127033 3.41942911909588e-19
outer loop
vertex 11.8402127892376 28.0414237254439 19.0867373350031
vertex 11.8758243386933 28.1040044011978 23.9141
vertex 11.8758243386933 28.1040044011978 19.0867373350031
endloop
endfacet
facet normal -0.0 -0.0 1.0
outer loop
vertex 18.486435048256 27.2363723364278 23.9141
vertex 17.8790465577191 27.3768390736403 23.9141
vertex 17.8434350082634 27.3142583978864 23.9141
endloop
endfacet
facet normal -0.0 -0.0 1.0
outer loop
vertex 17.8790465577191 27.3768390736403 23.9141
vertex 18.486435048256 27.2363723364278 23.9141
vertex 17.9271066944523 27.4304557379306 23.9141
endloop
endfacet
facet normal -0.0 -0.0 1.0
outer loop
vertex 17.9271066944523 27.4304557379306 23.9141
vertex 18.486435048256 27.2363723364278 23.9141
vertex 17.9854340123501 27.4726747788873 23.9141
endloop
endfacet
facet normal -0.0 -0.0 1.0
outer loop
vertex 17.9854340123501 27.4726747788873 23.9141
vertex 18.486435048256 27.2363723364278 23.9141
vertex 18.051381087238 27.5015799124484 23.9141
endloop
endfacet
facet normal -0.0 -0.0 1.0
outer loop
vertex 18.051381087238 27.5015799124484 23.9141
vertex 18.486435048256 27.2363723364278 23.9141
vertex 18.1219546410673 27.5158591607602 23.9141
endloop
endfacet
facet normal -0.0 -0.0 1.0
outer loop
vertex 18.1219546410673 27.5158591607602 23.9141
vertex 18.486435048256 27.2363723364278 23.9141
vertex 18.1939514040972 27.5148644016641 23.9141
endloop
endfacet
facet normal -0.0 -0.0 1.0
outer loop
vertex 18.1939514040972 27.5148644016641 23.9141
vertex 18.486435048256 27.2363723364278 23.9141
vertex 18.2641035084093 27.4986407863753 23.9141
endloop
endfacet
facet normal -0.0 -0.0 1.0
outer loop
vertex 18.2641035084093 27.4986407863753 23.9141
vertex 18.486435048256 27.2363723364278 23.9141
vertex 18.3292268134748 27.4679246901098 23.9141
endloop
endfacet
facet normal -0.0 -0.0 1.0
outer loop
vertex 18.3292268134748 27.4679246901098 23.9141
vertex 18.486435048256 27.2363723364278 23.9141
vertex 18.3863654314119 27.4241102886797 23.9141
endloop
endfacet
facet normal -0.0 -0.0 1.0
outer loop
vertex 18.3863654314119 27.4241102886797 23.9141
vertex 18.486435048256 27.2363723364278 23.9141
vertex 18.4329258920616 27.3691862781148 23.9141
endloop
endfacet
facet normal -0.0 -0.0 1.0
outer loop
vertex 18.4329258920616 27.3691862781148 23.9141
vertex 18.486435048256 27.2363723364278 23.9141
vertex 18.4667948582512 27.3056456095497 23.9141
endloop
endfacet
facet normal -0.401439922012551 0.915885358008609 0.0
outer loop
vertex 17.9854340123501 27.4726747788873 23.9141
vertex 18.051381087238 27.5015799124484 19.0867373350031
vertex 17.9854340123501 27.4726747788873 19.0867373350031
endloop
endfacet
facet normal -0.401439922012551 0.915885358008609 0.0
outer loop
vertex 18.051381087238 27.5015799124484 19.0867373350031
vertex 17.9854340123501 27.4726747788873 23.9141
vertex 18.051381087238 27.5015799124484 23.9141
endloop
endfacet
facet normal 0.426590912070479 0.90444468804835 0.0
outer loop
vertex 18.2641035084093 27.4986407863753 23.9141
vertex 18.3292268134748 27.4679246901098 19.0867373350031
vertex 18.2641035084093 27.4986407863753 19.0867373350031
endloop
endfacet
facet normal 0.426590912070479 0.90444468804835 0.0
outer loop
vertex 18.3292268134748 27.4679246901098 19.0867373350031
vertex 18.2641035084093 27.4986407863753 23.9141
vertex 18.3292268134748 27.4679246901098 23.9141
endloop
endfacet
facet normal 0.0138154010983979 0.999904562792115 0.0
outer loop
vertex 18.1219546410673 27.5158591607602 23.9141
vertex 18.1939514040972 27.5148644016641 19.0867373350031
vertex 18.1219546410673 27.5158591607602 19.0867373350031
endloop
endfacet
facet normal 0.0138154010983979 0.999904562792115 0.0
outer loop
vertex 18.1939514040972 27.5148644016641 19.0867373350031
vertex 18.1219546410673 27.5158591607602 23.9141
vertex 18.1939514040972 27.5148644016641 23.9141
endloop
endfacet
facet normal -0.198312881570052 0.980138766197615 0.0
outer loop
vertex 18.051381087238 27.5015799124484 23.9141
vertex 18.1219546410673 27.5158591607602 19.0867373350031
vertex 18.051381087238 27.5015799124484 19.0867373350031
endloop
endfacet
facet normal -0.198312881570052 0.980138766197615 0.0
outer loop
vertex 18.1219546410673 27.5158591607602 19.0867373350031
vertex 18.051381087238 27.5015799124484 23.9141
vertex 18.1219546410673 27.5158591607602 23.9141
endloop
endfacet
facet normal 0.962080223597796 0.272766646351814 3.44254193320404e-31
outer loop
vertex 18.4667948582512 27.3056456095497 19.0867373350031
vertex 18.486435048256 27.2363723364278 23.9141
vertex 18.486435048256 27.2363723364278 19.0867373350031
endloop
endfacet
facet normal 0.962080223597796 0.272766646351814 3.44254193320404e-31
outer loop
vertex 18.486435048256 27.2363723364278 23.9141
vertex 18.4667948582512 27.3056456095497 19.0867373350031
vertex 18.4667948582512 27.3056456095497 23.9141
endloop
endfacet
facet normal 0.762794971043989 0.646640419514587 0.0
outer loop
vertex 18.3863654314119 27.4241102886797 19.0867373350031
vertex 18.4329258920616 27.3691862781148 23.9141
vertex 18.4329258920616 27.3691862781148 19.0867373350031
endloop
endfacet
facet normal 0.762794971043989 0.646640419514587 0.0
outer loop
vertex 18.4329258920616 27.3691862781148 23.9141
vertex 18.3863654314119 27.4241102886797 19.0867373350031
vertex 18.3863654314119 27.4241102886797 23.9141
endloop
endfacet
facet normal -0.744638300521529 0.667468202535829 0.0
outer loop
vertex 17.9271066944523 27.4304557379306 23.9141
vertex 17.8790465577191 27.3768390736403 19.0867373350031
vertex 17.8790465577191 27.3768390736403 23.9141
endloop
endfacet
facet normal -0.744638300521529 0.667468202535829 0.0
outer loop
vertex 17.8790465577191 27.3768390736403 19.0867373350031
vertex 17.9271066944523 27.4304557379306 23.9141
vertex 17.9271066944523 27.4304557379306 19.0867373350031
endloop
endfacet
facet normal 0.992743615860098 -0.120250210681803 -2.45505928653695e-17
outer loop
vertex 18.8321648398983 27.1944943735582 0.0
vertex 16.5749962352745 8.56010105769468 23.9141
vertex 16.5749962352745 8.56010105769468 0.0
endloop
endfacet
facet normal 0.992743615860098 -0.120250210681803 -2.45505928653695e-17
outer loop
vertex 16.5749962352745 8.56010105769468 23.9141
vertex 18.8321648398983 27.1944943735582 0.0
vertex 18.8321648398983 27.1944943735582 23.9141
endloop
endfacet
facet normal 0.120250210681803 0.992743615860098 0.0
outer loop
vertex 16.5749962352745 8.56010105769468 23.9141
vertex 18.5039963552522 8.32644287331886 0.0
vertex 16.5749962352745 8.56010105769468 0.0
endloop
endfacet
facet normal 0.120250210681803 0.992743615860098 0.0
outer loop
vertex 18.5039963552522 8.32644287331886 0.0
vertex 16.5749962352745 8.56010105769468 23.9141
vertex 18.5039963552522 8.32644287331886 23.9141
endloop
endfacet
facet normal 0.120250210681803 0.992743615860098 7.10452505455039e-31
outer loop
vertex 12.4832128292302 27.9635376639853 23.9141
vertex 17.8434350082634 27.3142583978864 19.0867373350031
vertex 12.4832128292302 27.9635376639853 19.0867373350031
endloop
endfacet
facet normal 0.120250210681803 0.992743615860098 7.10452505455039e-31
outer loop
vertex 17.8434350082634 27.3142583978864 19.0867373350031
vertex 12.4832128292302 27.9635376639853 23.9141
vertex 17.8434350082634 27.3142583978864 23.9141
endloop
endfacet
facet normal 0.120250210681812 0.992743615860097 7.10452505455038e-31
outer loop
vertex 17.8434350082634 27.3142583978864 23.9141
vertex 18.486435048256 27.2363723364278 19.0867373350031
vertex 17.8434350082634 27.3142583978864 19.0867373350031
endloop
endfacet
facet normal 0.120250210681812 0.992743615860097 7.10452505455038e-31
outer loop
vertex 18.486435048256 27.2363723364278 19.0867373350031
vertex 17.8434350082634 27.3142583978864 23.9141
vertex 18.486435048256 27.2363723364278 23.9141
endloop
endfacet
facet normal 0.120250210681801 0.992743615860098 7.10452505455039e-31
outer loop
vertex 6.68947421527024 28.6653284162334 23.9141
vertex 11.8402127892376 28.0414237254439 19.0867373350031
vertex 6.68947421527024 28.6653284162334 19.0867373350031
endloop
endfacet
facet normal 0.120250210681801 0.992743615860098 7.10452505455039e-31
outer loop
vertex 11.8402127892376 28.0414237254439 19.0867373350031
vertex 6.68947421527024 28.6653284162334 23.9141
vertex 11.8402127892376 28.0414237254439 23.9141
endloop
endfacet
facet normal -0.0 -0.0 1.0
outer loop
vertex 6.68947421527024 28.6653284162334 23.9141
vertex 6.08208572473336 28.8057951534459 23.9141
vertex 6.04647417527765 28.743214477692 23.9141
endloop
endfacet
facet normal -0.0 -0.0 1.0
outer loop
vertex 6.08208572473336 28.8057951534459 23.9141
vertex 6.68947421527024 28.6653284162334 23.9141
vertex 6.13014586146661 28.8594118177363 23.9141
endloop
endfacet
facet normal -0.0 -0.0 1.0
outer loop
vertex 6.13014586146661 28.8594118177363 23.9141
vertex 6.68947421527024 28.6653284162334 23.9141
vertex 6.18847317936439 28.9016308586929 23.9141
endloop
endfacet
facet normal -0.0 -0.0 1.0
outer loop
vertex 6.18847317936439 28.9016308586929 23.9141
vertex 6.68947421527024 28.6653284162334 23.9141
vertex 6.25442025425222 28.9305359922541 23.9141
endloop
endfacet
facet normal -0.0 -0.0 1.0
outer loop
vertex 6.25442025425222 28.9305359922541 23.9141
vertex 6.68947421527024 28.6653284162334 23.9141
vertex 6.32499380808153 28.9448152405658 23.9141
endloop
endfacet
facet normal -0.0 -0.0 1.0
outer loop
vertex 6.32499380808153 28.9448152405658 23.9141
vertex 6.68947421527024 28.6653284162334 23.9141
vertex 6.39699057111146 28.9438204814697 23.9141
endloop
endfacet
facet normal -0.0 -0.0 1.0
outer loop
vertex 6.39699057111146 28.9438204814697 23.9141
vertex 6.68947421527024 28.6653284162334 23.9141
vertex 6.46714267542352 28.927596866181 23.9141
endloop
endfacet
facet normal -0.0 -0.0 1.0
outer loop
vertex 6.46714267542352 28.927596866181 23.9141
vertex 6.68947421527024 28.6653284162334 23.9141
vertex 6.53226598048902 28.8968807699154 23.9141
endloop
endfacet
facet normal -0.0 -0.0 1.0
outer loop
vertex 6.53226598048902 28.8968807699154 23.9141
vertex 6.68947421527024 28.6653284162334 23.9141
vertex 6.58940459842615 28.8530663684853 23.9141
endloop
endfacet
facet normal -0.0 -0.0 1.0
outer loop
vertex 6.58940459842615 28.8530663684853 23.9141
vertex 6.68947421527024 28.6653284162334 23.9141
vertex 6.63596505907588 28.7981423579204 23.9141
endloop
endfacet
facet normal -0.0 -0.0 1.0
outer loop
vertex 6.63596505907588 28.7981423579204 23.9141
vertex 6.68947421527024 28.6653284162334 23.9141
vertex 6.66983402526548 28.7346016893553 23.9141
endloop
endfacet
facet normal -0.198312881570052 0.980138766197615 0.0
outer loop
vertex 6.25442025425222 28.9305359922541 23.9141
vertex 6.32499380808153 28.9448152405658 19.0867373350031
vertex 6.25442025425222 28.9305359922541 19.0867373350031
endloop
endfacet
facet normal -0.198312881570052 0.980138766197615 0.0
outer loop
vertex 6.32499380808153 28.9448152405658 19.0867373350031
vertex 6.25442025425222 28.9305359922541 23.9141
vertex 6.32499380808153 28.9448152405658 23.9141
endloop
endfacet
facet normal 0.0138154010983979 0.999904562792115 0.0
outer loop
vertex 6.32499380808153 28.9448152405658 23.9141
vertex 6.39699057111146 28.9438204814697 19.0867373350031
vertex 6.32499380808153 28.9448152405658 19.0867373350031
endloop
endfacet
facet normal 0.0138154010983979 0.999904562792115 0.0
outer loop
vertex 6.39699057111146 28.9438204814697 19.0867373350031
vertex 6.32499380808153 28.9448152405658 23.9141
vertex 6.39699057111146 28.9438204814697 23.9141
endloop
endfacet
facet normal 0.426590912070479 0.90444468804835 0.0
outer loop
vertex 6.46714267542352 28.927596866181 23.9141
vertex 6.53226598048902 28.8968807699154 19.0867373350031
vertex 6.46714267542352 28.927596866181 19.0867373350031
endloop
endfacet
facet normal 0.426590912070479 0.90444468804835 0.0
outer loop
vertex 6.53226598048902 28.8968807699154 19.0867373350031
vertex 6.46714267542352 28.927596866181 23.9141
vertex 6.53226598048902 28.8968807699154 23.9141
endloop
endfacet
facet normal -0.744638300521529 0.667468202535829 0.0
outer loop
vertex 6.13014586146661 28.8594118177363 23.9141
vertex 6.08208572473336 28.8057951534459 19.0867373350031
vertex 6.08208572473336 28.8057951534459 23.9141
endloop
endfacet
facet normal -0.744638300521529 0.667468202535829 0.0
outer loop
vertex 6.08208572473336 28.8057951534459 19.0867373350031
vertex 6.13014586146661 28.8594118177363 23.9141
vertex 6.13014586146661 28.8594118177363 19.0867373350031
endloop
endfacet
facet normal 0.762794971043989 0.646640419514587 0.0
outer loop
vertex 6.58940459842615 28.8530663684853 19.0867373350031
vertex 6.63596505907588 28.7981423579204 23.9141
vertex 6.63596505907588 28.7981423579204 19.0867373350031
endloop
endfacet
facet normal 0.762794971043989 0.646640419514587 0.0
outer loop
vertex 6.63596505907588 28.7981423579204 23.9141
vertex 6.58940459842615 28.8530663684853 19.0867373350031
vertex 6.58940459842615 28.8530663684853 23.9141
endloop
endfacet
facet normal 0.608502633483678 0.793551854035657 0.0
outer loop
vertex 6.53226598048902 28.8968807699154 23.9141
vertex 6.58940459842615 28.8530663684853 19.0867373350031
vertex 6.53226598048902 28.8968807699154 19.0867373350031
endloop
endfacet
facet normal 0.608502633483678 0.793551854035657 0.0
outer loop
vertex 6.58940459842615 28.8530663684853 19.0867373350031
vertex 6.53226598048902 28.8968807699154 23.9141
vertex 6.58940459842615 28.8530663684853 23.9141
endloop
endfacet
facet normal 0.882464735180592 0.470378561546598 0.0
outer loop
vertex 6.63596505907588 28.7981423579204 19.0867373350031
vertex 6.66983402526548 28.7346016893553 23.9141
vertex 6.66983402526548 28.7346016893553 19.0867373350031
endloop
endfacet
facet normal 0.882464735180592 0.470378561546598 0.0
outer loop
vertex 6.66983402526548 28.7346016893553 23.9141
vertex 6.63596505907588 28.7981423579204 19.0867373350031
vertex 6.63596505907588 28.7981423579204 23.9141
endloop
endfacet
facet normal 0.96208022359779 0.272766646351832 -1.72127096660201e-31
outer loop
vertex 6.66983402526548 28.7346016893553 19.0867373350031
vertex 6.68947421527024 28.6653284162334 23.9141
vertex 6.68947421527024 28.6653284162334 19.0867373350031
endloop
endfacet
facet normal 0.96208022359779 0.272766646351832 -1.72127096660201e-31
outer loop
vertex 6.68947421527024 28.6653284162334 23.9141
vertex 6.66983402526548 28.7346016893553 19.0867373350031
vertex 6.66983402526548 28.7346016893553 23.9141
endloop
endfacet
facet normal -0.58634596768891 0.810060742274896 0.0
outer loop
vertex 6.13014586146661 28.8594118177363 23.9141
vertex 6.18847317936439 28.9016308586929 19.0867373350031
vertex 6.13014586146661 28.8594118177363 19.0867373350031
endloop
endfacet
facet normal -0.58634596768891 0.810060742274896 0.0
outer loop
vertex 6.18847317936439 28.9016308586929 19.0867373350031
vertex 6.13014586146661 28.8594118177363 23.9141
vertex 6.18847317936439 28.9016308586929 23.9141
endloop
endfacet
facet normal -0.869132174774192 0.494579885127048 2.60218555963345e-16
outer loop
vertex 6.08208572473336 28.8057951534459 23.9141
vertex 6.04647417527765 28.743214477692 19.0867373350031
vertex 6.04647417527765 28.743214477692 23.9141
endloop
endfacet
facet normal -0.869132174774192 0.494579885127048 2.60218555963345e-16
outer loop
vertex 6.04647417527765 28.743214477692 19.0867373350031
vertex 6.08208572473336 28.8057951534459 23.9141
vertex 6.08208572473336 28.8057951534459 19.0867373350031
endloop
endfacet
facet normal 0.225316615213559 0.974285596172244 0.0
outer loop
vertex 6.39699057111146 28.9438204814697 23.9141
vertex 6.46714267542352 28.927596866181 19.0867373350031
vertex 6.39699057111146 28.9438204814697 19.0867373350031
endloop
endfacet
facet normal 0.225316615213559 0.974285596172244 0.0
outer loop
vertex 6.46714267542352 28.927596866181 19.0867373350031
vertex 6.39699057111146 28.9438204814697 23.9141
vertex 6.46714267542352 28.927596866181 23.9141
endloop
endfacet
facet normal -0.401439922012551 0.915885358008609 0.0
outer loop
vertex 6.18847317936439 28.9016308586929 23.9141
vertex 6.25442025425222 28.9305359922541 19.0867373350031
vertex 6.18847317936439 28.9016308586929 19.0867373350031
endloop
endfacet
facet normal -0.401439922012551 0.915885358008609 0.0
outer loop
vertex 6.25442025425222 28.9305359922541 19.0867373350031
vertex 6.18847317936439 28.9016308586929 23.9141
vertex 6.25442025425222 28.9305359922541 23.9141
endloop
endfacet
facet normal 0.120250210681781 0.992743615860101 -0.0
outer loop
vertex 12.0761755306983 28.0128417543081 18.3310873350031
vertex 12.5048422240267 27.9609177133357 17.7659373350031
vertex 12.0761755306983 28.0128417543081 17.7659373350031
endloop
endfacet
facet normal 0.120250210681781 0.992743615860101 -0.0
outer loop
vertex 12.5048422240267 27.9609177133357 17.7659373350031
vertex 12.0761755306983 28.0128417543081 18.3310873350031
vertex 12.5048422240267 27.9609177133357 18.3310873350031
endloop
endfacet
facet normal 0.120250210681812 0.992743615860097 -3.63341365615678e-17
outer loop
vertex 6.04647417527765 28.743214477692 23.9141
vertex 6.68947421527024 28.6653284162334 19.0867373350031
vertex 6.04647417527765 28.743214477692 19.0867373350031
endloop
endfacet
facet normal 0.120250210681812 0.992743615860097 -3.63341365615678e-17
outer loop
vertex 6.68947421527024 28.6653284162334 19.0867373350031
vertex 6.04647417527765 28.743214477692 23.9141
vertex 6.68947421527024 28.6653284162334 23.9141
endloop
endfacet
facet normal -5.62560404036568e-30 -4.49123752113123e-29 1.0
outer loop
vertex 6.08208572473336 28.8057951534459 19.0867373350031
vertex 6.09228950554741 29.1214497953347 19.0867373350031
vertex 6.04647417527765 28.743214477692 19.0867373350031
endloop
endfacet
facet normal -5.62560404036568e-30 -4.49123752113123e-29 1.0
outer loop
vertex 6.09228950554741 29.1214497953347 19.0867373350031
vertex 6.08208572473336 28.8057951534459 19.0867373350031
vertex 6.13014586146661 28.8594118177363 19.0867373350031
endloop
endfacet
facet normal -5.62560404036568e-30 -4.49123752113123e-29 1.0
outer loop
vertex 6.09228950554741 29.1214497953347 19.0867373350031
vertex 6.13014586146661 28.8594118177363 19.0867373350031
vertex 6.18847317936439 28.9016308586929 19.0867373350031
endloop
endfacet
facet normal -5.62560404036568e-30 -4.49123752113123e-29 1.0
outer loop
vertex 6.09228950554741 29.1214497953347 19.0867373350031
vertex 6.18847317936439 28.9016308586929 19.0867373350031
vertex 6.25442025425222 28.9305359922541 19.0867373350031
endloop
endfacet
facet normal -5.62560404036568e-30 -4.49123752113123e-29 1.0
outer loop
vertex 6.09228950554741 29.1214497953347 19.0867373350031
vertex 6.25442025425222 28.9305359922541 19.0867373350031
vertex 6.32499380808153 28.9448152405658 19.0867373350031
endloop
endfacet
facet normal -5.62560404036568e-30 -4.49123752113123e-29 1.0
outer loop
vertex 6.09228950554741 29.1214497953347 19.0867373350031
vertex 6.32499380808153 28.9448152405658 19.0867373350031
vertex 6.39699057111146 28.9438204814697 19.0867373350031
endloop
endfacet
facet normal -5.62560404036568e-30 -4.49123752113123e-29 1.0
outer loop
vertex 6.09228950554741 29.1214497953347 19.0867373350031
vertex 6.39699057111146 28.9438204814697 19.0867373350031
vertex 18.5929667536386 27.6072531299189 19.0867373350031
endloop
endfacet
facet normal -5.62560404036568e-30 -4.49123752113123e-29 1.0
outer loop
vertex 18.5929667536386 27.6072531299189 19.0867373350031
vertex 6.39699057111146 28.9438204814697 19.0867373350031
vertex 6.46714267542352 28.927596866181 19.0867373350031
endloop
endfacet
facet normal -5.62560404036568e-30 -4.49123752113123e-29 1.0
outer loop
vertex 18.5929667536386 27.6072531299189 19.0867373350031
vertex 6.46714267542352 28.927596866181 19.0867373350031
vertex 6.53226598048902 28.8968807699154 19.0867373350031
endloop
endfacet
facet normal -5.62560404036568e-30 -4.49123752113123e-29 1.0
outer loop
vertex 18.5929667536386 27.6072531299189 19.0867373350031
vertex 6.53226598048902 28.8968807699154 19.0867373350031
vertex 6.58940459842615 28.8530663684853 19.0867373350031
endloop
endfacet
facet normal -5.62560404036568e-30 -4.49123752113123e-29 1.0
outer loop
vertex 18.5929667536386 27.6072531299189 19.0867373350031
vertex 6.58940459842615 28.8530663684853 19.0867373350031
vertex 6.63596505907588 28.7981423579204 19.0867373350031
endloop
endfacet
facet normal -5.62560404036568e-30 -4.49123752113123e-29 1.0
outer loop
vertex 18.5929667536386 27.6072531299189 19.0867373350031
vertex 6.63596505907588 28.7981423579204 19.0867373350031
vertex 12.1907291850714 28.2420297292216 19.0867373350031
endloop
endfacet
facet normal -5.62560404036568e-30 -4.49123752113123e-29 1.0
outer loop
vertex 12.1907291850714 28.2420297292216 19.0867373350031
vertex 6.63596505907588 28.7981423579204 19.0867373350031
vertex 6.66983402526548 28.7346016893553 19.0867373350031
endloop
endfacet
facet normal -5.62560404036568e-30 -4.49123752113123e-29 1.0
outer loop
vertex 12.1907291850714 28.2420297292216 19.0867373350031
vertex 6.66983402526548 28.7346016893553 19.0867373350031
vertex 6.68947421527024 28.6653284162334 19.0867373350031
endloop
endfacet
facet normal -5.62560404036568e-30 -4.49123752113123e-29 1.0
outer loop
vertex 12.1907291850714 28.2420297292216 19.0867373350031
vertex 6.68947421527024 28.6653284162334 19.0867373350031
vertex 12.1187324220415 28.2430244883177 19.0867373350031
endloop
endfacet
facet normal -5.62560404036568e-30 -4.49123752113123e-29 1.0
outer loop
vertex 12.1187324220415 28.2430244883177 19.0867373350031
vertex 6.68947421527024 28.6653284162334 19.0867373350031
vertex 12.0481588682122 28.2287452400059 19.0867373350031
endloop
endfacet
facet normal -5.62560404036568e-30 -4.49123752113123e-29 1.0
outer loop
vertex 12.0481588682122 28.2287452400059 19.0867373350031
vertex 6.68947421527024 28.6653284162334 19.0867373350031
vertex 11.9822117933244 28.1998401064448 19.0867373350031
endloop
endfacet
facet normal -5.62560404036568e-30 -4.49123752113123e-29 1.0
outer loop
vertex 11.9822117933244 28.1998401064448 19.0867373350031
vertex 6.68947421527024 28.6653284162334 19.0867373350031
vertex 11.9238844754266 28.1576210654882 19.0867373350031
endloop
endfacet
facet normal -5.62560404036568e-30 -4.49123752113123e-29 1.0
outer loop
vertex 11.9238844754266 28.1576210654882 19.0867373350031
vertex 6.68947421527024 28.6653284162334 19.0867373350031
vertex 11.8758243386933 28.1040044011978 19.0867373350031
endloop
endfacet
facet normal -5.62560404036568e-30 -4.49123752113123e-29 1.0
outer loop
vertex 11.8758243386933 28.1040044011978 19.0867373350031
vertex 6.68947421527024 28.6653284162334 19.0867373350031
vertex 11.8402127892376 28.0414237254439 19.0867373350031
endloop
endfacet
facet normal -5.62560404036568e-30 -4.49123752113123e-29 1.0
outer loop
vertex 18.5929667536386 27.6072531299189 19.0867373350031
vertex 12.1907291850714 28.2420297292216 19.0867373350031
vertex 12.2608812893835 28.2258061139328 19.0867373350031
endloop
endfacet
facet normal -5.62560404036568e-30 -4.49123752113123e-29 1.0
outer loop
vertex 18.5929667536386 27.6072531299189 19.0867373350031
vertex 12.2608812893835 28.2258061139328 19.0867373350031
vertex 12.326004594449 28.1950900176673 19.0867373350031
endloop
endfacet
facet normal -5.62560404036568e-30 -4.49123752113123e-29 1.0
outer loop
vertex 18.5929667536386 27.6072531299189 19.0867373350031
vertex 12.326004594449 28.1950900176673 19.0867373350031
vertex 12.3831432123861 28.1512756162372 19.0867373350031
endloop
endfacet
facet normal -5.62560404036568e-30 -4.49123752113123e-29 1.0
outer loop
vertex 18.5929667536386 27.6072531299189 19.0867373350031
vertex 12.3831432123861 28.1512756162372 19.0867373350031
vertex 12.4297036730358 28.0963516056723 19.0867373350031
endloop
endfacet
facet normal -5.62560404036568e-30 -4.49123752113123e-29 1.0
outer loop
vertex 18.5929667536386 27.6072531299189 19.0867373350031
vertex 12.4297036730358 28.0963516056723 19.0867373350031
vertex 12.4635726392254 28.0328109371072 19.0867373350031
endloop
endfacet
facet normal -5.62560404036568e-30 -4.49123752113123e-29 1.0
outer loop
vertex 18.5929667536386 27.6072531299189 19.0867373350031
vertex 12.4635726392254 28.0328109371072 19.0867373350031
vertex 12.4832128292302 27.9635376639853 19.0867373350031
endloop
endfacet
facet normal -5.62560404036568e-30 -4.49123752113123e-29 1.0
outer loop
vertex 18.5929667536386 27.6072531299189 19.0867373350031
vertex 12.4832128292302 27.9635376639853 19.0867373350031
vertex 18.1219546410673 27.5158591607602 19.0867373350031
endloop
endfacet
facet normal -5.62560404036568e-30 -4.49123752113123e-29 1.0
outer loop
vertex 18.1219546410673 27.5158591607602 19.0867373350031
vertex 12.4832128292302 27.9635376639853 19.0867373350031
vertex 18.051381087238 27.5015799124484 19.0867373350031
endloop
endfacet
facet normal -5.62560404036568e-30 -4.49123752113123e-29 1.0
outer loop
vertex 18.051381087238 27.5015799124484 19.0867373350031
vertex 12.4832128292302 27.9635376639853 19.0867373350031
vertex 17.9854340123501 27.4726747788873 19.0867373350031
endloop
endfacet
facet normal -5.62560404036568e-30 -4.49123752113123e-29 1.0
outer loop
vertex 17.9854340123501 27.4726747788873 19.0867373350031
vertex 12.4832128292302 27.9635376639853 19.0867373350031
vertex 17.9271066944523 27.4304557379306 19.0867373350031
endloop
endfacet
facet normal -5.62560404036568e-30 -4.49123752113123e-29 1.0
outer loop
vertex 17.9271066944523 27.4304557379306 19.0867373350031
vertex 12.4832128292302 27.9635376639853 19.0867373350031
vertex 17.8790465577191 27.3768390736403 19.0867373350031
endloop
endfacet
facet normal -5.62560404036568e-30 -4.49123752113123e-29 1.0
outer loop
vertex 17.8790465577191 27.3768390736403 19.0867373350031
vertex 12.4832128292302 27.9635376639853 19.0867373350031
vertex 17.8434350082634 27.3142583978864 19.0867373350031
endloop
endfacet
facet normal -5.62560404036568e-30 -4.49123752113123e-29 1.0
outer loop
vertex 18.5929667536386 27.6072531299189 19.0867373350031
vertex 18.1219546410673 27.5158591607602 19.0867373350031
vertex 18.1939514040972 27.5148644016641 19.0867373350031
endloop
endfacet
facet normal -5.62560404036568e-30 -4.49123752113123e-29 1.0
outer loop
vertex 18.5929667536386 27.6072531299189 19.0867373350031
vertex 18.1939514040972 27.5148644016641 19.0867373350031
vertex 18.2641035084093 27.4986407863753 19.0867373350031
endloop
endfacet
facet normal -5.62560404036568e-30 -4.49123752113123e-29 1.0
outer loop
vertex 18.5929667536386 27.6072531299189 19.0867373350031
vertex 18.2641035084093 27.4986407863753 19.0867373350031
vertex 18.3292268134748 27.4679246901098 19.0867373350031
endloop
endfacet
facet normal -5.62560404036568e-30 -4.49123752113123e-29 1.0
outer loop
vertex 18.5929667536386 27.6072531299189 19.0867373350031
vertex 18.3292268134748 27.4679246901098 19.0867373350031
vertex 18.3863654314119 27.4241102886797 19.0867373350031
endloop
endfacet
facet normal -5.62560404036568e-30 -4.49123752113123e-29 1.0
outer loop
vertex 18.5929667536386 27.6072531299189 19.0867373350031
vertex 18.3863654314119 27.4241102886797 19.0867373350031
vertex 18.4329258920616 27.3691862781148 19.0867373350031
endloop
endfacet
facet normal -5.62560404036568e-30 -4.49123752113123e-29 1.0
outer loop
vertex 18.5929667536386 27.6072531299189 19.0867373350031
vertex 18.4329258920616 27.3691862781148 19.0867373350031
vertex 18.4667948582512 27.3056456095497 19.0867373350031
endloop
endfacet
facet normal -5.62560404036568e-30 -4.49123752113123e-29 1.0
outer loop
vertex 18.5929667536386 27.6072531299189 19.0867373350031
vertex 18.4667948582512 27.3056456095497 19.0867373350031
vertex 18.486435048256 27.2363723364278 19.0867373350031
endloop
endfacet
facet normal -5.62560404036568e-30 -4.49123752113123e-29 1.0
outer loop
vertex 18.5929667536386 27.6072531299189 19.0867373350031
vertex 18.486435048256 27.2363723364278 19.0867373350031
vertex 18.5471514233688 27.2290178122762 19.0867373350031
endloop
endfacet
endsolid 620 West Main Street
