solid 626 West Main Street
facet normal 0.00583137208944165 -0.000812262821714945 0.999982667514124
outer loop
vertex 8.9945107442422 14.6488575117628 13.2989192081692
vertex 4.10915153709789 15.598623271889 13.3281795220669
vertex 4.07235761811667 15.3344735084478 13.3281795220669
endloop
endfacet
facet normal 0.00583137208944165 -0.000812262821714945 0.999982667514124
outer loop
vertex 4.10915153709789 15.598623271889 13.3281795220669
vertex 8.9945107442422 14.6488575117628 13.2989192081692
vertex 9.03130466322341 14.913007275204 13.2989192081692
endloop
endfacet
facet normal 0.444315396752535 -0.0618895300046817 -0.893730112665136
outer loop
vertex 4.10915153709789 15.598623271889 13.3281795220669
vertex 6.49497370548204 14.9970227423374 14.555944237389
vertex 4.07235761811667 15.3344735084478 13.3281795220669
endloop
endfacet
facet normal 0.444315396752535 -0.0618895300046817 -0.893730112665136
outer loop
vertex 6.49497370548204 14.9970227423374 14.555944237389
vertex 4.10915153709789 15.598623271889 13.3281795220669
vertex 6.53176762446325 15.2611725057785 14.555944237389
endloop
endfacet
facet normal -0.441585129731724 0.0615092259595352 -0.895108478521836
outer loop
vertex 6.53176762446325 15.2611725057785 14.555944237389
vertex 8.9945107442422 14.6488575117628 13.2989192081692
vertex 6.49497370548204 14.9970227423374 14.555944237389
endloop
endfacet
facet normal -0.441585129731724 0.0615092259595352 -0.895108478521836
outer loop
vertex 8.9945107442422 14.6488575117628 13.2989192081692
vertex 6.53176762446325 15.2611725057785 14.555944237389
vertex 9.03130466322341 14.913007275204 13.2989192081692
endloop
endfacet
facet normal 0.137959951185657 0.990437808178207 -5.2814274314332e-16
outer loop
vertex -8.95912453579512 -11.4559169982076 14.1351
vertex -2.99181690405756 -12.2871145381103 11.7729
vertex -8.95912453579512 -11.4559169982076 11.7729
endloop
endfacet
facet normal 0.137959951185657 0.990437808178207 -5.2814274314332e-16
outer loop
vertex -2.99181690405756 -12.2871145381103 11.7729
vertex -8.95912453579512 -11.4559169982076 14.1351
vertex -2.99181690405756 -12.2871145381103 12.88415
endloop
endfacet
facet normal 0.137959951185657 0.990437808178207 -5.2814274314332e-16
outer loop
vertex -2.99181690405756 -12.2871145381103 12.88415
vertex -8.95912453579512 -11.4559169982076 14.1351
vertex -2.99181690405756 -12.2871145381103 14.1351
endloop
endfacet
facet normal 4.01838179383475e-16 -5.89214500836781e-16 -1.0
outer loop
vertex -7.09227117034348 1.94653885638867 14.1351
vertex -2.99181690405756 -12.2871145381103 14.1351
vertex -8.95912453579512 -11.4559169982076 14.1351
endloop
endfacet
facet normal 4.01838179383475e-16 -5.89214500836781e-16 -1.0
outer loop
vertex -2.99181690405756 -12.2871145381103 14.1351
vertex -7.09227117034348 1.94653885638867 14.1351
vertex -1.12496353860592 1.115341316486 14.1351
endloop
endfacet
facet normal 0.137959951185657 0.990437808178207 9.57717172227532e-15
outer loop
vertex 4.60818941377858 15.5291113443977 13.0601890059273
vertex 6.02145225416207 15.3322552966359 12.88415
vertex 4.60818941377858 15.5291113443977 12.88415
endloop
endfacet
facet normal 0.137959951185657 0.990437808178207 9.57717172227532e-15
outer loop
vertex 6.02145225416207 15.3322552966359 12.88415
vertex 4.60818941377858 15.5291113443977 13.0601890059273
vertex 8.49496450441232 14.9877151079598 12.88415
endloop
endfacet
facet normal 0.137959951185657 0.990437808178207 9.57717172227532e-15
outer loop
vertex 8.49496450441232 14.9877151079598 12.88415
vertex 4.60818941377858 15.5291113443977 13.0601890059273
vertex 8.49496450441232 14.9877151079598 13.0601890059273
endloop
endfacet
facet normal 0.137959951185657 0.990437808178207 -7.77992052569285e-16
outer loop
vertex 6.49497370548204 14.9970227423374 14.555944237389
vertex 8.9945107442422 14.6488575117628 13.2989192081692
vertex 4.07235761811667 15.3344735084478 13.3281795220669
endloop
endfacet
facet normal 0.990437808178207 -0.137959951185657 0.0
outer loop
vertex 12.0491728657012 14.4926427187818 0.0
vertex 7.71800297419823 -16.6015580062881 12.88415
vertex 7.71800297419823 -16.6015580062881 0.0
endloop
endfacet
facet normal 0.990437808178207 -0.137959951185657 0.0
outer loop
vertex 7.71800297419823 -16.6015580062881 12.88415
vertex 12.0491728657012 14.4926427187818 0.0
vertex 12.0491728657012 14.4926427187818 12.88415
endloop
endfacet
facet normal -0.137959951185657 -0.990437808178207 -7.03468619079786e-17
outer loop
vertex 7.71800297419823 -16.6015580062881 12.88415
vertex -9.55236013078598 -14.1959365414687 0.0
vertex 7.71800297419823 -16.6015580062881 0.0
endloop
endfacet
facet normal -0.137959951185657 -0.990437808178207 -7.03468619079786e-17
outer loop
vertex -9.55236013078598 -14.1959365414687 0.0
vertex 7.71800297419823 -16.6015580062881 12.88415
vertex -3.37750625634468 -15.0560435891423 11.7729
endloop
endfacet
facet normal -0.137959951185657 -0.990437808178207 -7.03468619079786e-17
outer loop
vertex -3.37750625634468 -15.0560435891423 11.7729
vertex 7.71800297419823 -16.6015580062881 12.88415
vertex -3.37750625634468 -15.0560435891423 12.88415
endloop
endfacet
facet normal -0.137959951185657 -0.990437808178207 -7.03468619079786e-17
outer loop
vertex -3.37750625634468 -15.0560435891423 11.7729
vertex -9.55236013078598 -14.1959365414687 11.7729
vertex -9.55236013078598 -14.1959365414687 0.0
endloop
endfacet
facet normal -0.137959951185657 -0.990437808178207 -7.03468619079786e-17
outer loop
vertex -9.55236013078598 -14.1959365414687 11.7729
vertex -3.37750625634468 -15.0560435891423 11.7729
vertex -9.34481388808224 -14.2248460492397 11.7729
endloop
endfacet
facet normal -6.78787500128214e-15 1.97552245456249e-15 1.0
outer loop
vertex 5.41408703869924 -13.5576869763136 12.8841500000001
vertex 5.98465833518086 15.0681055331948 12.88415
vertex 2.06234887567847 -13.090817043099 12.88415
endloop
endfacet
facet normal -6.78787500128214e-15 1.97552245456249e-15 1.0
outer loop
vertex 5.98465833518086 15.0681055331948 12.88415
vertex 5.41408703869924 -13.5576869763136 12.8841500000001
vertex 8.45817058543111 14.7235653445187 12.88415
endloop
endfacet
facet normal -6.78787500128214e-15 1.97552245456249e-15 1.0
outer loop
vertex 8.45817058543111 14.7235653445187 12.88415
vertex 5.41408703869924 -13.5576869763136 12.8841500000001
vertex 9.37319041718272 14.8653853634213 12.88415
endloop
endfacet
facet normal -6.78787500128214e-15 1.97552245456249e-15 1.0
outer loop
vertex 8.45817058543111 14.7235653445187 12.88415
vertex 9.37319041718272 14.8653853634213 12.88415
vertex 8.49496450441232 14.9877151079598 12.88415
endloop
endfacet
facet normal -1.02263820293029e-15 6.8118446744945e-16 1.0
outer loop
vertex 7.71800297419823 -16.6015580062881 12.88415
vertex -2.99181690405756 -12.2871145381103 12.88415
vertex -3.37750625634468 -15.0560435891423 12.88415
endloop
endfacet
facet normal -1.02263820293029e-15 6.8118446744945e-16 1.0
outer loop
vertex -2.99181690405756 -12.2871145381103 12.88415
vertex 7.71800297419823 -16.6015580062881 12.88415
vertex -0.261816773209232 -12.7670796243329 12.88415
endloop
endfacet
facet normal -1.02263820293029e-15 6.8118446744945e-16 1.0
outer loop
vertex -2.99181690405756 -12.2871145381103 12.88415
vertex -0.261816773209232 -12.7670796243329 12.88415
vertex -0.664121566104742 4.42380373067134 12.88415
endloop
endfacet
facet normal -1.02263820293029e-15 6.8118446744945e-16 1.0
outer loop
vertex -0.664121566104742 4.42380373067134 12.88415
vertex -0.261816773209232 -12.7670796243329 12.88415
vertex -0.311470092524088 6.95554826625762 12.88415
endloop
endfacet
facet normal -1.02263820293029e-15 6.8118446744945e-16 1.0
outer loop
vertex -0.261816773209232 -12.7670796243329 12.88415
vertex 7.71800297419823 -16.6015580062881 12.88415
vertex 2.06234887567847 -13.090817043099 12.88415
endloop
endfacet
facet normal -1.02263820293029e-15 6.8118446744945e-16 1.0
outer loop
vertex 2.06234887567847 -13.090817043099 12.88415
vertex 7.71800297419823 -16.6015580062881 12.88415
vertex 5.41408703869924 -13.5576869763136 12.8841500000001
endloop
endfacet
facet normal -1.02263820293029e-15 6.8118446744945e-16 1.0
outer loop
vertex 5.41408703869924 -13.5576869763136 12.8841500000001
vertex 7.71800297419823 -16.6015580062881 12.88415
vertex 9.37319041718272 14.8653853634213 12.88415
endloop
endfacet
facet normal -1.02263820293029e-15 6.8118446744945e-16 1.0
outer loop
vertex 9.37319041718272 14.8653853634213 12.88415
vertex 7.71800297419823 -16.6015580062881 12.88415
vertex 12.0491728657012 14.4926427187818 12.88415
endloop
endfacet
facet normal -1.02263820293029e-15 6.8118446744945e-16 1.0
outer loop
vertex -0.261816773209232 -12.7670796243329 12.88415
vertex 0.953663635158315 16.0381571359276 12.88415
vertex -0.311470092524088 6.95554826625762 12.88415
endloop
endfacet
facet normal -1.02263820293029e-15 6.8118446744945e-16 1.0
outer loop
vertex 0.953663635158315 16.0381571359276 12.88415
vertex -0.261816773209232 -12.7670796243329 12.88415
vertex 3.69728660527434 15.655992715402 12.88415
endloop
endfacet
facet normal -0.108602150554264 -0.779673195256818 -0.616697074334728
outer loop
vertex 8.51419781372266 14.9850360640141 4.8859515362656
vertex 4.76248949070644 15.9897930999262 4.27635153626565
vertex 8.58008250043892 15.4580333660786 4.2763515362656
endloop
endfacet
facet normal -0.108602150554264 -0.779673195256818 -0.616697074334728
outer loop
vertex 4.76248949070644 15.9897930999262 4.27635153626565
vertex 8.51419781372266 14.9850360640141 4.8859515362656
vertex 4.69660480399017 15.5167957978617 4.8859515362656
endloop
endfacet
facet normal 0.10868583820956 0.780274003079452 0.615921966397572
outer loop
vertex 4.77194473333267 16.0576738849079 4.27635153626565
vertex 8.51419781372266 14.9850360640141 4.9748515362656
vertex 8.58953774306515 15.5259141510603 4.2763515362656
endloop
endfacet
facet normal 0.10868583820956 0.780274003079452 0.615921966397572
outer loop
vertex 8.51419781372266 14.9850360640141 4.9748515362656
vertex 4.77194473333267 16.0576738849079 4.27635153626565
vertex 4.69660480399017 15.5167957978617 4.9748515362656
endloop
endfacet
facet normal 3.34064850778403e-15 -1.47610878991593e-16 1.0
outer loop
vertex 2.06234887567847 -13.090817043099 12.88415
vertex 3.69728660527434 15.655992715402 12.88415
vertex -0.261816773209232 -12.7670796243329 12.88415
endloop
endfacet
facet normal 3.34064850778403e-15 -1.47610878991593e-16 1.0
outer loop
vertex 3.69728660527434 15.655992715402 12.88415
vertex 2.06234887567847 -13.090817043099 12.88415
vertex 4.57139549479737 15.2649615809566 12.88415
endloop
endfacet
facet normal 3.34064850778403e-15 -1.47610878991593e-16 1.0
outer loop
vertex 4.57139549479737 15.2649615809566 12.88415
vertex 2.06234887567847 -13.090817043099 12.88415
vertex 5.98465833518086 15.0681055331948 12.88415
endloop
endfacet
facet normal 3.34064850778403e-15 -1.47610878991593e-16 1.0
outer loop
vertex 4.60818941377858 15.5291113443977 12.88415
vertex 3.69728660527434 15.655992715402 12.88415
vertex 4.57139549479737 15.2649615809566 12.88415
endloop
endfacet
facet normal 6.57180801782842e-16 4.71801205567738e-15 1.0
outer loop
vertex 8.45817058543111 14.7235653445187 11.9235390059273
vertex 4.60818941377858 15.5291113443977 11.9235390059273
vertex 4.57139549479737 15.2649615809566 11.9235390059273
endloop
endfacet
facet normal 6.57180801782842e-16 4.71801205567738e-15 1.0
outer loop
vertex 4.60818941377858 15.5291113443977 11.9235390059273
vertex 8.45817058543111 14.7235653445187 11.9235390059273
vertex 8.49496450441232 14.9877151079598 11.9235390059273
endloop
endfacet
facet normal 0.990437808178207 -0.137959951185657 8.29429309583783e-16
outer loop
vertex 4.60818941377858 15.5291113443977 11.9235390059273
vertex 4.57139549479737 15.2649615809566 12.88415
vertex 4.57139549479737 15.2649615809566 11.9235390059273
endloop
endfacet
facet normal 0.990437808178207 -0.137959951185657 8.29429309583783e-16
outer loop
vertex 4.57139549479737 15.2649615809566 12.88415
vertex 4.60818941377858 15.5291113443977 11.9235390059273
vertex 4.60818941377858 15.5291113443977 12.88415
endloop
endfacet
facet normal 7.46868122977461e-16 5.36189249389106e-15 1.0
outer loop
vertex 5.98465833518086 15.0681055331948 12.88415
vertex 4.60818941377858 15.5291113443977 12.88415
vertex 4.57139549479737 15.2649615809566 12.88415
endloop
endfacet
facet normal 7.46868122977461e-16 5.36189249389106e-15 1.0
outer loop
vertex 4.60818941377858 15.5291113443977 12.88415
vertex 5.98465833518086 15.0681055331948 12.88415
vertex 6.02145225416207 15.3322552966359 12.88415
endloop
endfacet
facet normal 7.46868122977439e-16 5.36189249389107e-15 1.0
outer loop
vertex 8.45817058543111 14.7235653445187 12.88415
vertex 6.02145225416207 15.3322552966359 12.88415
vertex 5.98465833518086 15.0681055331948 12.88415
endloop
endfacet
facet normal 7.46868122977439e-16 5.36189249389107e-15 1.0
outer loop
vertex 6.02145225416207 15.3322552966359 12.88415
vertex 8.45817058543111 14.7235653445187 12.88415
vertex 8.49496450441232 14.9877151079598 12.88415
endloop
endfacet
facet normal -0.990437808178207 0.137959951185657 6.59223992267217e-16
outer loop
vertex 8.45817058543111 14.7235653445187 12.88415
vertex 8.49496450441232 14.9877151079598 11.9235390059273
vertex 8.45817058543111 14.7235653445187 11.9235390059273
endloop
endfacet
facet normal -0.990437808178207 0.137959951185657 6.59223992267217e-16
outer loop
vertex 8.49496450441232 14.9877151079598 11.9235390059273
vertex 8.45817058543111 14.7235653445187 12.88415
vertex 8.49496450441232 14.9877151079598 12.88415
endloop
endfacet
facet normal -0.0286307289207604 -0.205544842217737 -0.978228807181199
outer loop
vertex -5.55613126200621 12.9747469036731 11.7729
vertex -1.12496353860592 1.115341316486 14.1351
vertex -7.09227117034348 1.94653885638867 14.1351
endloop
endfacet
facet normal -0.0286307289207604 -0.205544842217737 -0.978228807181199
outer loop
vertex -1.12496353860592 1.115341316486 14.1351
vertex -5.55613126200621 12.9747469036731 11.7729
vertex -0.311470092524088 6.95554826625762 12.88415
endloop
endfacet
facet normal -0.0286307289207604 -0.205544842217737 -0.978228807181199
outer loop
vertex -0.311470092524088 6.95554826625762 12.88415
vertex -5.55613126200621 12.9747469036731 11.7729
vertex 0.411176369731346 12.1435493637705 11.7729
endloop
endfacet
facet normal 0.450582873155529 -0.0627625386191289 -0.89052565272708
outer loop
vertex 3.57178025957666 15.6734747311156 13.3512807945213
vertex 2.58913637094479 -13.1641942673245 14.8865120406792
vertex -0.387323118906916 -12.7495976086193 13.3512807945213
endloop
endfacet
facet normal 0.450582873155529 -0.0627625386191289 -0.89052565272708
outer loop
vertex 2.58913637094479 -13.1641942673245 14.8865120406792
vertex 3.57178025957666 15.6734747311156 13.3512807945213
vertex 6.54823974942839 15.2588780724104 14.8865120406792
endloop
endfacet
facet normal 0.137959951185658 0.990437808178207 -2.36812454684601e-15
outer loop
vertex 8.49496450441232 14.9877151079598 13.0601890059273
vertex 9.37319041718272 14.8653853634213 12.88415
vertex 8.49496450441232 14.9877151079598 12.88415
endloop
endfacet
facet normal 0.137959951185658 0.990437808178207 -2.36812454684601e-15
outer loop
vertex 9.37319041718272 14.8653853634213 12.88415
vertex 8.49496450441232 14.9877151079598 13.0601890059273
vertex 9.37319041718272 14.8653853634213 13.1032318182229
endloop
endfacet
facet normal 0.137959951185658 0.990437808178207 -2.36812454684601e-15
outer loop
vertex 9.37319041718272 14.8653853634213 13.1032318182229
vertex 8.49496450441232 14.9877151079598 13.0601890059273
vertex 3.69728660527434 15.655992715402 13.1032318182229
endloop
endfacet
facet normal 0.137959951185658 0.990437808178207 -2.36812454684601e-15
outer loop
vertex 9.37319041718272 14.8653853634213 13.1032318182229
vertex 3.69728660527434 15.655992715402 13.1032318182229
vertex 4.10915153709789 15.598623271889 13.3281795220669
endloop
endfacet
facet normal 0.137959951185658 0.990437808178207 -2.36812454684601e-15
outer loop
vertex 4.10915153709789 15.598623271889 13.3281795220669
vertex 3.69728660527434 15.655992715402 13.1032318182229
vertex 3.57178025957666 15.6734747311156 13.3512807945213
endloop
endfacet
facet normal 0.137959951185658 0.990437808178207 -2.36812454684601e-15
outer loop
vertex 9.37319041718272 14.8653853634213 13.1032318182229
vertex 4.10915153709789 15.598623271889 13.3281795220669
vertex 9.54818349722249 14.8410102471032 13.2482877923938
endloop
endfacet
facet normal 0.137959951185658 0.990437808178207 -2.36812454684601e-15
outer loop
vertex 9.54818349722249 14.8410102471032 13.2482877923938
vertex 4.10915153709789 15.598623271889 13.3281795220669
vertex 9.03130466322341 14.913007275204 13.2989192081692
endloop
endfacet
facet normal 0.137959951185658 0.990437808178207 -2.36812454684601e-15
outer loop
vertex 4.10915153709789 15.598623271889 13.3281795220669
vertex 3.57178025957666 15.6734747311156 13.3512807945213
vertex 6.53176762446325 15.2611725057785 14.555944237389
endloop
endfacet
facet normal 0.137959951185658 0.990437808178207 -2.36812454684601e-15
outer loop
vertex 6.53176762446325 15.2611725057785 14.555944237389
vertex 3.57178025957666 15.6734747311156 13.3512807945213
vertex 6.54823974942839 15.2588780724104 14.8865120406792
endloop
endfacet
facet normal 0.137959951185658 0.990437808178207 -2.36812454684601e-15
outer loop
vertex 9.03130466322341 14.913007275204 13.2989192081692
vertex 6.54823974942839 15.2588780724104 14.8865120406792
vertex 9.54818349722249 14.8410102471032 13.2482877923938
endloop
endfacet
facet normal 0.137959951185658 0.990437808178207 -2.36812454684601e-15
outer loop
vertex 6.54823974942839 15.2588780724104 14.8865120406792
vertex 9.03130466322341 14.913007275204 13.2989192081692
vertex 6.53176762446325 15.2611725057785 14.555944237389
endloop
endfacet
facet normal 0.137959951185658 0.990437808178207 -2.36812454684601e-15
outer loop
vertex 3.69728660527434 15.655992715402 13.1032318182229
vertex 4.60818941377858 15.5291113443977 12.88415
vertex 3.69728660527434 15.655992715402 12.88415
endloop
endfacet
facet normal 0.137959951185658 0.990437808178207 -2.36812454684601e-15
outer loop
vertex 4.60818941377858 15.5291113443977 12.88415
vertex 3.69728660527434 15.655992715402 13.1032318182229
vertex 4.60818941377858 15.5291113443977 13.0601890059273
endloop
endfacet
facet normal 0.137959951185658 0.990437808178207 -2.36812454684601e-15
outer loop
vertex 4.60818941377858 15.5291113443977 13.0601890059273
vertex 3.69728660527434 15.655992715402 13.1032318182229
vertex 8.49496450441232 14.9877151079598 13.0601890059273
endloop
endfacet
facet normal 0.137959951185656 0.990437808178207 -4.11633603378444e-15
outer loop
vertex -0.261816773209232 -12.7670796243329 12.88415
vertex 5.41408703869924 -13.5576869763136 12.8841500000001
vertex 2.06234887567847 -13.090817043099 12.88415
endloop
endfacet
facet normal 0.137959951185656 0.990437808178207 -4.11633603378444e-15
outer loop
vertex 5.41408703869924 -13.5576869763136 12.8841500000001
vertex -0.261816773209232 -12.7670796243329 12.88415
vertex -0.261816773209232 -12.7670796243329 13.1032318182229
endloop
endfacet
facet normal 0.137959951185656 0.990437808178207 -4.11633603378444e-15
outer loop
vertex 5.41408703869924 -13.5576869763136 12.8841500000001
vertex -0.261816773209232 -12.7670796243329 13.1032318182229
vertex 5.41408703869924 -13.5576869763137 13.1032318182229
endloop
endfacet
facet normal 0.137959951185656 0.990437808178207 -4.11633603378444e-15
outer loop
vertex 5.41408703869924 -13.5576869763137 13.1032318182229
vertex -0.261816773209232 -12.7670796243329 13.1032318182229
vertex -0.387323118906916 -12.7495976086193 13.3512807945213
endloop
endfacet
facet normal 0.137959951185656 0.990437808178207 -4.11633603378444e-15
outer loop
vertex 5.41408703869924 -13.5576869763137 13.1032318182229
vertex -0.387323118906916 -12.7495976086193 13.3512807945213
vertex 5.58908011873901 -13.5820620926317 13.2482877923939
endloop
endfacet
facet normal 0.137959951185656 0.990437808178207 -4.11633603378444e-15
outer loop
vertex 5.58908011873901 -13.5820620926317 13.2482877923939
vertex -0.387323118906916 -12.7495976086193 13.3512807945213
vertex 2.58913637094479 -13.1641942673245 14.8865120406792
endloop
endfacet
facet normal 0.471187581368693 -0.0656326073057327 0.879587757999265
outer loop
vertex 5.58908011873901 -13.5820620926317 13.2482877923939
vertex 6.54823974942839 15.2588780724104 14.8865120406792
vertex 2.58913637094479 -13.1641942673245 14.8865120406792
endloop
endfacet
facet normal 0.471187581368693 -0.0656326073057327 0.879587757999265
outer loop
vertex 6.54823974942839 15.2588780724104 14.8865120406792
vertex 5.58908011873901 -13.5820620926317 13.2482877923939
vertex 9.54818349722249 14.8410102471032 13.2482877923938
endloop
endfacet
facet normal 0.628472970783091 -0.08754118598342 -0.772889555985649
outer loop
vertex 9.37319041718272 14.8653853634213 13.1032318182229
vertex 5.58908011873901 -13.5820620926317 13.2482877923939
vertex 5.41408703869924 -13.5576869763137 13.1032318182229
endloop
endfacet
facet normal 0.628472970783091 -0.08754118598342 -0.772889555985649
outer loop
vertex 5.58908011873901 -13.5820620926317 13.2482877923939
vertex 9.37319041718272 14.8653853634213 13.1032318182229
vertex 9.54818349722249 14.8410102471032 13.2482877923938
endloop
endfacet
facet normal -0.882010275613476 0.122856875579802 -0.454933030054985
outer loop
vertex -0.387323118906916 -12.7495976086193 13.3512807945213
vertex 3.69728660527434 15.655992715402 13.1032318182229
vertex -0.261816773209232 -12.7670796243329 13.1032318182229
endloop
endfacet
facet normal -0.882010275613476 0.122856875579802 -0.454933030054985
outer loop
vertex 3.69728660527434 15.655992715402 13.1032318182229
vertex -0.387323118906916 -12.7495976086193 13.3512807945213
vertex 3.57178025957666 15.6734747311156 13.3512807945213
endloop
endfacet
facet normal -0.990437808178207 0.137959951185656 2.927263007801e-15
outer loop
vertex 3.69728660527434 15.655992715402 13.1032318182229
vertex -0.261816773209232 -12.7670796243329 12.88415
vertex -0.261816773209232 -12.7670796243329 13.1032318182229
endloop
endfacet
facet normal -0.990437808178207 0.137959951185656 2.927263007801e-15
outer loop
vertex -0.261816773209232 -12.7670796243329 12.88415
vertex 3.69728660527434 15.655992715402 13.1032318182229
vertex 3.69728660527434 15.655992715402 12.88415
endloop
endfacet
facet normal -0.0 -0.0 1.0
outer loop
vertex -3.37750625634468 -15.0560435891423 11.7729
vertex -8.95912453579512 -11.4559169982076 11.7729
vertex -9.34481388808224 -14.2248460492397 11.7729
endloop
endfacet
facet normal -0.0 -0.0 1.0
outer loop
vertex -8.95912453579512 -11.4559169982076 11.7729
vertex -3.37750625634468 -15.0560435891423 11.7729
vertex -2.99181690405756 -12.2871145381103 11.7729
endloop
endfacet
facet normal 0.990437808178208 -0.137959951185653 -6.38250240062102e-16
outer loop
vertex 5.41408703869924 -13.5576869763136 12.8841500000001
vertex 9.37319041718272 14.8653853634213 13.1032318182229
vertex 5.41408703869924 -13.5576869763137 13.1032318182229
endloop
endfacet
facet normal 0.990437808178208 -0.137959951185653 -6.38250240062102e-16
outer loop
vertex 9.37319041718272 14.8653853634213 13.1032318182229
vertex 5.41408703869924 -13.5576869763136 12.8841500000001
vertex 9.37319041718272 14.8653853634213 12.88415
endloop
endfacet
facet normal 0.137959951185617 0.990437808178213 -1.49852807707167e-15
outer loop
vertex -9.55236013078598 -14.1959365414687 13.8141162991559
vertex -9.34481388808224 -14.2248460492397 11.7729
vertex -9.55236013078598 -14.1959365414687 11.7729
endloop
endfacet
facet normal 0.137959951185617 0.990437808178213 -1.49852807707167e-15
outer loop
vertex -9.34481388808224 -14.2248460492397 11.7729
vertex -9.55236013078598 -14.1959365414687 13.8141162991559
vertex -9.34481388808224 -14.2248460492397 13.8141162991559
endloop
endfacet
facet normal -0.990437808178207 0.137959951185662 7.46084607519684e-16
outer loop
vertex 4.77194473333267 16.0576738849079 4.27635153626565
vertex 4.69660480399017 15.5167957978617 4.8859515362656
vertex 4.69660480399017 15.5167957978617 4.9748515362656
endloop
endfacet
facet normal -0.990437808178207 0.137959951185662 7.46084607519684e-16
outer loop
vertex 4.69660480399017 15.5167957978617 4.8859515362656
vertex 4.77194473333267 16.0576738849079 4.27635153626565
vertex 4.76248949070644 15.9897930999262 4.27635153626565
endloop
endfacet
facet normal -1.25621568575843e-14 1.74980653257453e-15 -1.0
outer loop
vertex 4.77194473333267 16.0576738849079 4.27635153626565
vertex 8.58008250043892 15.4580333660786 4.2763515362656
vertex 4.76248949070644 15.9897930999262 4.27635153626565
endloop
endfacet
facet normal -1.25621568575843e-14 1.74980653257453e-15 -1.0
outer loop
vertex 8.58008250043892 15.4580333660786 4.2763515362656
vertex 4.77194473333267 16.0576738849079 4.27635153626565
vertex 8.58953774306515 15.5259141510603 4.2763515362656
endloop
endfacet
facet normal -0.0 -0.0 1.0
outer loop
vertex 0.411176369731346 12.1435493637705 11.7729
vertex -5.01364399657924 16.8693546758302 11.7729
vertex -5.55613126200621 12.9747469036731 11.7729
endloop
endfacet
facet normal -0.0 -0.0 1.0
outer loop
vertex -5.01364399657924 16.8693546758302 11.7729
vertex 0.411176369731346 12.1435493637705 11.7729
vertex 0.953663635158315 16.0381571359276 11.7729
endloop
endfacet
facet normal -0.990437808178207 0.137959951185657 -2.32830641000262e-15
outer loop
vertex 0.411176369731346 12.1435493637705 11.7729
vertex -0.664121566104742 4.42380373067134 12.88415
vertex -0.311470092524088 6.95554826625762 12.88415
endloop
endfacet
facet normal -0.990437808178207 0.137959951185657 -1.49272635747748e-16
outer loop
vertex -8.99702374914076 -11.7280018567128 14.2268662991559
vertex -8.95912453579512 -11.4559169982076 14.1351
vertex -8.99702374914076 -11.7280018567128 13.8141162991559
endloop
endfacet
facet normal -0.990437808178207 0.137959951185657 -1.49272635747748e-16
outer loop
vertex -8.95912453579512 -11.4559169982076 14.1351
vertex -8.99702374914076 -11.7280018567128 14.2268662991559
vertex -6.17790871862768 8.51090144694312 14.2268662991559
endloop
endfacet
facet normal -0.990437808178207 0.137959951185657 -1.49272635747748e-16
outer loop
vertex -8.95912453579512 -11.4559169982076 14.1351
vertex -6.17790871862768 8.51090144694312 14.2268662991559
vertex -7.09227117034348 1.94653885638867 14.1351
endloop
endfacet
facet normal -0.990437808178207 0.137959951185657 -1.49272635747748e-16
outer loop
vertex -7.09227117034348 1.94653885638867 14.1351
vertex -6.17790871862768 8.51090144694312 14.2268662991559
vertex -6.17790871862768 8.51090144694312 13.2299162991559
endloop
endfacet
facet normal -0.990437808178207 0.137959951185657 -1.49272635747748e-16
outer loop
vertex -7.09227117034348 1.94653885638867 14.1351
vertex -6.17790871862768 8.51090144694312 13.2299162991559
vertex -5.55613126200621 12.9747469036731 11.7729
endloop
endfacet
facet normal -0.990437808178207 0.137959951185657 -1.49272635747748e-16
outer loop
vertex -5.55613126200621 12.9747469036731 11.7729
vertex -6.17790871862768 8.51090144694312 13.2299162991559
vertex -5.5848257864781 12.7687440624108 12.1440662991559
endloop
endfacet
facet normal -0.990437808178207 0.137959951185657 -1.49272635747748e-16
outer loop
vertex -5.5848257864781 12.7687440624108 12.1440662991559
vertex -6.17790871862768 8.51090144694312 13.2299162991559
vertex -5.5848257864781 12.7687440624108 13.2299162991559
endloop
endfacet
facet normal -0.990437808178207 0.137959951185657 -1.49272635747748e-16
outer loop
vertex -5.55613126200621 12.9747469036731 11.7729
vertex -5.5848257864781 12.7687440624108 12.1440662991559
vertex -5.01364399657924 16.8693546758302 12.1440662991559
endloop
endfacet
facet normal -0.990437808178207 0.137959951185657 -1.49272635747748e-16
outer loop
vertex -5.55613126200621 12.9747469036731 11.7729
vertex -5.01364399657924 16.8693546758302 12.1440662991559
vertex -5.01364399657924 16.8693546758302 11.7729
endloop
endfacet
facet normal -0.990437808178207 0.137959951185657 -1.49272635747748e-16
outer loop
vertex -9.34481388808224 -14.2248460492397 13.8141162991559
vertex -8.95912453579512 -11.4559169982076 11.7729
vertex -9.34481388808224 -14.2248460492397 11.7729
endloop
endfacet
facet normal -0.990437808178207 0.137959951185657 -1.49272635747748e-16
outer loop
vertex -8.95912453579512 -11.4559169982076 11.7729
vertex -9.34481388808224 -14.2248460492397 13.8141162991559
vertex -8.99702374914076 -11.7280018567128 13.8141162991559
endloop
endfacet
facet normal -0.990437808178207 0.137959951185657 -1.49272635747748e-16
outer loop
vertex -8.95912453579512 -11.4559169982076 11.7729
vertex -8.99702374914076 -11.7280018567128 13.8141162991559
vertex -8.95912453579512 -11.4559169982076 14.1351
endloop
endfacet
facet normal -0.990437808178207 0.137959951185657 -1.05898740026844e-15
outer loop
vertex -2.99181690405756 -12.2871145381103 14.1351
vertex -0.664121566104742 4.42380373067134 12.88415
vertex -2.99181690405756 -12.2871145381103 12.88415
endloop
endfacet
facet normal -0.990437808178207 0.137959951185657 -1.05898740026844e-15
outer loop
vertex -0.664121566104742 4.42380373067134 12.88415
vertex -2.99181690405756 -12.2871145381103 14.1351
vertex -1.12496353860592 1.115341316486 14.1351
endloop
endfacet
facet normal -0.990437808178207 0.137959951185657 -1.05898740026844e-15
outer loop
vertex -0.664121566104742 4.42380373067134 12.88415
vertex -1.12496353860592 1.115341316486 14.1351
vertex -0.311470092524088 6.95554826625762 12.88415
endloop
endfacet
facet normal -5.05979702243332e-16 7.0478867472579e-17 -1.0
outer loop
vertex -9.2045699918445 -11.6990923489419 13.8141162991559
vertex -9.34481388808224 -14.2248460492397 13.8141162991559
vertex -9.55236013078598 -14.1959365414687 13.8141162991559
endloop
endfacet
facet normal -5.05979702243332e-16 7.0478867472579e-17 -1.0
outer loop
vertex -9.34481388808224 -14.2248460492397 13.8141162991559
vertex -9.2045699918445 -11.6990923489419 13.8141162991559
vertex -8.99702374914076 -11.7280018567128 13.8141162991559
endloop
endfacet
facet normal 0.137959951185657 0.990437808178207 -0.0
outer loop
vertex -9.2045699918445 -11.6990923489419 14.2268662991559
vertex -8.99702374914076 -11.7280018567128 13.8141162991559
vertex -9.2045699918445 -11.6990923489419 13.8141162991559
endloop
endfacet
facet normal 0.137959951185657 0.990437808178207 -0.0
outer loop
vertex -8.99702374914076 -11.7280018567128 13.8141162991559
vertex -9.2045699918445 -11.6990923489419 14.2268662991559
vertex -8.99702374914076 -11.7280018567128 14.2268662991559
endloop
endfacet
facet normal -5.05979702243332e-16 7.0478867472579e-17 -1.0
outer loop
vertex -6.38545496133142 8.53981095471408 14.2268662991559
vertex -8.99702374914076 -11.7280018567128 14.2268662991559
vertex -9.2045699918445 -11.6990923489419 14.2268662991559
endloop
endfacet
facet normal -5.05979702243332e-16 7.0478867472579e-17 -1.0
outer loop
vertex -8.99702374914076 -11.7280018567128 14.2268662991559
vertex -6.38545496133142 8.53981095471408 14.2268662991559
vertex -6.17790871862768 8.51090144694312 14.2268662991559
endloop
endfacet
facet normal -0.137959951185657 -0.990437808178207 -0.0
outer loop
vertex -6.17790871862768 8.51090144694312 14.2268662991559
vertex -6.38545496133142 8.53981095471408 13.2299162991559
vertex -6.17790871862768 8.51090144694312 13.2299162991559
endloop
endfacet
facet normal -0.137959951185657 -0.990437808178207 -0.0
outer loop
vertex -6.38545496133142 8.53981095471408 13.2299162991559
vertex -6.17790871862768 8.51090144694312 14.2268662991559
vertex -6.38545496133142 8.53981095471408 14.2268662991559
endloop
endfacet
facet normal -5.05979702243332e-16 7.0478867472579e-17 -1.0
outer loop
vertex -5.79237202918184 12.7976535701818 13.2299162991559
vertex -6.17790871862768 8.51090144694312 13.2299162991559
vertex -6.38545496133142 8.53981095471408 13.2299162991559
endloop
endfacet
facet normal -5.05979702243332e-16 7.0478867472579e-17 -1.0
outer loop
vertex -6.17790871862768 8.51090144694312 13.2299162991559
vertex -5.79237202918184 12.7976535701818 13.2299162991559
vertex -5.5848257864781 12.7687440624108 13.2299162991559
endloop
endfacet
facet normal -0.137959951185657 -0.990437808178207 -0.0
outer loop
vertex -5.5848257864781 12.7687440624108 13.2299162991559
vertex -5.79237202918184 12.7976535701818 12.1440662991559
vertex -5.5848257864781 12.7687440624108 12.1440662991559
endloop
endfacet
facet normal -0.137959951185657 -0.990437808178207 -0.0
outer loop
vertex -5.79237202918184 12.7976535701818 12.1440662991559
vertex -5.5848257864781 12.7687440624108 13.2299162991559
vertex -5.79237202918184 12.7976535701818 13.2299162991559
endloop
endfacet
facet normal -5.05979702243332e-16 7.0478867472579e-17 -1.0
outer loop
vertex -5.22119023928299 16.8982641836012 12.1440662991559
vertex -5.5848257864781 12.7687440624108 12.1440662991559
vertex -5.79237202918184 12.7976535701818 12.1440662991559
endloop
endfacet
facet normal -5.05979702243332e-16 7.0478867472579e-17 -1.0
outer loop
vertex -5.5848257864781 12.7687440624108 12.1440662991559
vertex -5.22119023928299 16.8982641836012 12.1440662991559
vertex -5.01364399657924 16.8693546758302 12.1440662991559
endloop
endfacet
facet normal -0.137959951185624 -0.990437808178212 0.0
outer loop
vertex -5.01364399657924 16.8693546758302 12.1440662991559
vertex -5.22119023928299 16.8982641836012 11.7729
vertex -5.01364399657924 16.8693546758302 11.7729
endloop
endfacet
facet normal -0.137959951185624 -0.990437808178212 0.0
outer loop
vertex -5.22119023928299 16.8982641836012 11.7729
vertex -5.01364399657924 16.8693546758302 12.1440662991559
vertex -5.22119023928299 16.8982641836012 12.1440662991559
endloop
endfacet
facet normal 0.137959951185657 0.990437808178207 1.66489441645658e-16
outer loop
vertex -5.22119023928299 16.8982641836012 11.7729
vertex -4.91532603364418 16.8556597812541 0.0
vertex -5.22119023928299 16.8982641836012 0.0
endloop
endfacet
facet normal 0.137959951185657 0.990437808178207 1.66489441645658e-16
outer loop
vertex -4.91532603364418 16.8556597812541 0.0
vertex -5.22119023928299 16.8982641836012 11.7729
vertex -4.91532603364418 16.8556597812541 3.09245
endloop
endfacet
facet normal 0.137959951185657 0.990437808178207 1.66489441645658e-16
outer loop
vertex -4.91532603364418 16.8556597812541 3.09245
vertex -5.22119023928299 16.8982641836012 11.7729
vertex -3.17948473103105 16.6138711708061 3.09245
endloop
endfacet
facet normal 0.137959951185657 0.990437808178207 1.66489441645658e-16
outer loop
vertex 0.953663635158315 16.0381571359276 12.88415
vertex 4.60818941377858 15.5291113443977 11.9235390059273
vertex 0.953663635158315 16.0381571359276 11.7729
endloop
endfacet
facet normal 0.137959951185657 0.990437808178207 1.66489441645658e-16
outer loop
vertex 4.60818941377858 15.5291113443977 11.9235390059273
vertex 0.953663635158315 16.0381571359276 12.88415
vertex 4.60818941377858 15.5291113443977 12.88415
endloop
endfacet
facet normal 0.137959951185657 0.990437808178207 1.66489441645658e-16
outer loop
vertex 4.60818941377858 15.5291113443977 12.88415
vertex 0.953663635158315 16.0381571359276 12.88415
vertex 3.69728660527434 15.655992715402 12.88415
endloop
endfacet
facet normal 0.137959951185657 0.990437808178207 1.66489441645658e-16
outer loop
vertex -3.17948473103105 16.6138711708061 3.09245
vertex 12.0491728657012 14.4926427187818 0.0
vertex -3.17948473103105 16.6138711708061 0.0
endloop
endfacet
facet normal 0.137959951185657 0.990437808178207 1.66489441645658e-16
outer loop
vertex 12.0491728657012 14.4926427187818 0.0
vertex -3.17948473103105 16.6138711708061 3.09245
vertex 12.0491728657012 14.4926427187818 12.88415
endloop
endfacet
facet normal 0.137959951185657 0.990437808178207 1.66489441645658e-16
outer loop
vertex 12.0491728657012 14.4926427187818 12.88415
vertex -3.17948473103105 16.6138711708061 3.09245
vertex 8.49496450441232 14.9877151079598 11.9235390059273
endloop
endfacet
facet normal 0.137959951185657 0.990437808178207 1.66489441645658e-16
outer loop
vertex 8.49496450441232 14.9877151079598 11.9235390059273
vertex -3.17948473103105 16.6138711708061 3.09245
vertex 0.953663635158315 16.0381571359276 11.7729
endloop
endfacet
facet normal 0.137959951185657 0.990437808178207 1.66489441645658e-16
outer loop
vertex 0.953663635158315 16.0381571359276 11.7729
vertex -3.17948473103105 16.6138711708061 3.09245
vertex -5.22119023928299 16.8982641836012 11.7729
endloop
endfacet
facet normal 0.137959951185657 0.990437808178207 1.66489441645658e-16
outer loop
vertex 0.953663635158315 16.0381571359276 11.7729
vertex -5.22119023928299 16.8982641836012 11.7729
vertex -5.01364399657924 16.8693546758302 11.7729
endloop
endfacet
facet normal 0.137959951185657 0.990437808178207 1.66489441645658e-16
outer loop
vertex 8.49496450441232 14.9877151079598 11.9235390059273
vertex 0.953663635158315 16.0381571359276 11.7729
vertex 4.60818941377858 15.5291113443977 11.9235390059273
endloop
endfacet
facet normal 0.137959951185657 0.990437808178207 1.66489441645658e-16
outer loop
vertex 12.0491728657012 14.4926427187818 12.88415
vertex 8.49496450441232 14.9877151079598 11.9235390059273
vertex 8.49496450441232 14.9877151079598 12.88415
endloop
endfacet
facet normal 0.137959951185657 0.990437808178207 1.66489441645658e-16
outer loop
vertex 12.0491728657012 14.4926427187818 12.88415
vertex 8.49496450441232 14.9877151079598 12.88415
vertex 9.37319041718272 14.8653853634213 12.88415
endloop
endfacet
facet normal -0.990437808178207 0.137959951185657 1.86229714868584e-17
outer loop
vertex -6.38545496133142 8.53981095471408 14.2268662991559
vertex -9.2045699918445 -11.6990923489419 13.8141162991559
vertex -9.2045699918445 -11.6990923489419 14.2268662991559
endloop
endfacet
facet normal -0.990437808178207 0.137959951185657 1.86229714868584e-17
outer loop
vertex -5.22119023928299 16.8982641836012 12.1440662991559
vertex -5.52325338063428 14.7297018357587 3.09245
vertex -5.79237202918184 12.7976535701818 12.1440662991559
endloop
endfacet
facet normal -0.990437808178207 0.137959951185657 1.86229714868584e-17
outer loop
vertex -5.52325338063428 14.7297018357587 3.09245
vertex -5.22119023928299 16.8982641836012 12.1440662991559
vertex -5.26131571931563 16.6101965802563 3.09245
endloop
endfacet
facet normal -0.990437808178207 0.137959951185657 1.86229714868584e-17
outer loop
vertex -5.26131571931563 16.6101965802563 3.09245
vertex -5.22119023928299 16.8982641836012 12.1440662991559
vertex -5.26131571931563 16.6101965802563 0.0
endloop
endfacet
facet normal -0.990437808178207 0.137959951185657 1.86229714868584e-17
outer loop
vertex -5.26131571931563 16.6101965802563 0.0
vertex -5.22119023928299 16.8982641836012 12.1440662991559
vertex -5.22119023928299 16.8982641836012 0.0
endloop
endfacet
facet normal -0.990437808178207 0.137959951185657 1.86229714868584e-17
outer loop
vertex -5.22119023928299 16.8982641836012 0.0
vertex -5.22119023928299 16.8982641836012 12.1440662991559
vertex -5.22119023928299 16.8982641836012 11.7729
endloop
endfacet
facet normal -0.990437808178207 0.137959951185657 1.86229714868584e-17
outer loop
vertex -9.55236013078598 -14.1959365414687 13.8141162991559
vertex -9.55236013078598 -14.1959365414687 0.0
vertex -9.55236013078598 -14.1959365414687 11.7729
endloop
endfacet
facet normal -0.990437808178207 0.137959951185657 1.86229714868584e-17
outer loop
vertex -9.55236013078598 -14.1959365414687 0.0
vertex -9.55236013078598 -14.1959365414687 13.8141162991559
vertex -5.52325338063428 14.7297018357587 0.0
endloop
endfacet
facet normal -0.990437808178207 0.137959951185657 1.86229714868584e-17
outer loop
vertex -5.52325338063428 14.7297018357587 0.0
vertex -9.55236013078598 -14.1959365414687 13.8141162991559
vertex -9.2045699918445 -11.6990923489419 13.8141162991559
endloop
endfacet
facet normal -0.990437808178207 0.137959951185657 1.86229714868584e-17
outer loop
vertex -5.52325338063428 14.7297018357587 0.0
vertex -9.2045699918445 -11.6990923489419 13.8141162991559
vertex -6.38545496133142 8.53981095471408 13.2299162991559
endloop
endfacet
facet normal -0.990437808178207 0.137959951185657 1.86229714868584e-17
outer loop
vertex -6.38545496133142 8.53981095471408 13.2299162991559
vertex -9.2045699918445 -11.6990923489419 13.8141162991559
vertex -6.38545496133142 8.53981095471408 14.2268662991559
endloop
endfacet
facet normal -0.990437808178207 0.137959951185657 1.86229714868584e-17
outer loop
vertex -5.52325338063428 14.7297018357587 0.0
vertex -6.38545496133142 8.53981095471408 13.2299162991559
vertex -5.79237202918184 12.7976535701818 12.1440662991559
endloop
endfacet
facet normal -0.990437808178207 0.137959951185657 1.86229714868584e-17
outer loop
vertex -5.79237202918184 12.7976535701818 12.1440662991559
vertex -6.38545496133142 8.53981095471408 13.2299162991559
vertex -5.79237202918184 12.7976535701818 13.2299162991559
endloop
endfacet
facet normal -0.990437808178207 0.137959951185657 1.86229714868584e-17
outer loop
vertex -5.52325338063428 14.7297018357587 0.0
vertex -5.79237202918184 12.7976535701818 12.1440662991559
vertex -5.52325338063428 14.7297018357587 3.09245
endloop
endfacet
facet normal 0.990437808178206 -0.137959951185667 -1.15368102055181e-16
outer loop
vertex -4.91532603364418 16.8556597812541 0.0
vertex -4.95545151367683 16.5675921779092 3.09245
vertex -4.95545151367683 16.5675921779092 0.0
endloop
endfacet
facet normal 0.990437808178206 -0.137959951185667 -1.15368102055181e-16
outer loop
vertex -4.95545151367683 16.5675921779092 3.09245
vertex -4.91532603364418 16.8556597812541 0.0
vertex -4.91532603364418 16.8556597812541 3.09245
endloop
endfacet
facet normal 0.0 0.0 -1.0
outer loop
vertex -5.52325338063428 14.7297018357587 3.09245
vertex -4.95545151367683 16.5675921779092 3.09245
vertex -3.17948473103105 16.6138711708061 3.09245
endloop
endfacet
facet normal 0.0 0.0 -1.0
outer loop
vertex -4.95545151367683 16.5675921779092 3.09245
vertex -5.52325338063428 14.7297018357587 3.09245
vertex -5.26131571931563 16.6101965802563 3.09245
endloop
endfacet
facet normal 0.0 0.0 -1.0
outer loop
vertex -3.17948473103105 16.6138711708061 3.09245
vertex -4.95545151367683 16.5675921779092 3.09245
vertex -4.91532603364418 16.8556597812541 3.09245
endloop
endfacet
facet normal -0.990437808178207 0.137959951185658 0.0
outer loop
vertex -3.17948473103105 16.6138711708061 3.09245
vertex -3.48154787238235 14.4453088229637 3.70672155851589e-17
vertex -3.48154787238235 14.4453088229637 3.09245
endloop
endfacet
facet normal -0.990437808178207 0.137959951185658 0.0
outer loop
vertex -3.48154787238235 14.4453088229637 3.70672155851589e-17
vertex -3.17948473103105 16.6138711708061 3.09245
vertex -3.17948473103105 16.6138711708061 0.0
endloop
endfacet
facet normal -0.137959951185638 -0.99043780817821 0.0
outer loop
vertex -4.95545151367683 16.5675921779092 3.09245
vertex -5.26131571931563 16.6101965802563 0.0
vertex -4.95545151367683 16.5675921779092 0.0
endloop
endfacet
facet normal -0.137959951185638 -0.99043780817821 0.0
outer loop
vertex -5.26131571931563 16.6101965802563 0.0
vertex -4.95545151367683 16.5675921779092 3.09245
vertex -5.26131571931563 16.6101965802563 3.09245
endloop
endfacet
facet normal -6.27638526900589e-19 4.45717468332774e-19 -1.0
outer loop
vertex -5.52325338063428 14.7297018357587 0.0
vertex 7.71800297419823 -16.6015580062881 0.0
vertex -9.55236013078598 -14.1959365414687 0.0
endloop
endfacet
facet normal -6.27638526900589e-19 4.45717468332774e-19 -1.0
outer loop
vertex 7.71800297419823 -16.6015580062881 0.0
vertex -5.52325338063428 14.7297018357587 0.0
vertex -3.48154787238235 14.4453088229637 3.70672155851589e-17
endloop
endfacet
facet normal -6.27638526900589e-19 4.45717468332774e-19 -1.0
outer loop
vertex 7.71800297419823 -16.6015580062881 0.0
vertex -3.48154787238235 14.4453088229637 3.70672155851589e-17
vertex -3.17948473103105 16.6138711708061 0.0
endloop
endfacet
facet normal -6.27638526900589e-19 4.45717468332774e-19 -1.0
outer loop
vertex 7.71800297419823 -16.6015580062881 0.0
vertex -3.17948473103105 16.6138711708061 0.0
vertex 12.0491728657012 14.4926427187818 0.0
endloop
endfacet
facet normal 1.54738827820382e-17 -1.92483768192009e-17 -1.0
outer loop
vertex -3.17948473103105 16.6138711708061 0.0
vertex -3.48154787238235 14.4453088229637 3.70672155851589e-17
vertex -5.52325338063428 14.7297018357587 0.0
endloop
endfacet
facet normal -0.626549471660414 0.779381652056331 -0.0
outer loop
vertex -5.52325338063428 14.7297018357587 3.09245
vertex -3.17948473103105 16.6138711708061 0.0
vertex -5.52325338063428 14.7297018357587 0.0
endloop
endfacet
facet normal -0.626549471660414 0.779381652056331 -0.0
outer loop
vertex -3.17948473103105 16.6138711708061 0.0
vertex -5.52325338063428 14.7297018357587 3.09245
vertex -3.17948473103105 16.6138711708061 3.09245
endloop
endfacet
facet normal -0.137959951185657 -0.990437808178207 0.0
outer loop
vertex -3.48154787238235 14.4453088229637 3.70672155851589e-17
vertex -5.52325338063428 14.7297018357587 3.09245
vertex -5.52325338063428 14.7297018357587 0.0
endloop
endfacet
facet normal -0.137959951185657 -0.990437808178207 0.0
outer loop
vertex -5.52325338063428 14.7297018357587 3.09245
vertex -3.48154787238235 14.4453088229637 3.70672155851589e-17
vertex -3.48154787238235 14.4453088229637 3.09245
endloop
endfacet
facet normal 0.990437808178205 -0.137959951185671 -1.26834383278349e-14
outer loop
vertex 8.58008250043892 15.4580333660786 4.2763515362656
vertex 8.51419781372266 14.9850360640141 4.9748515362656
vertex 8.51419781372266 14.9850360640141 4.8859515362656
endloop
endfacet
facet normal 0.990437808178205 -0.137959951185671 -1.26834383278349e-14
outer loop
vertex 8.51419781372266 14.9850360640141 4.9748515362656
vertex 8.58008250043892 15.4580333660786 4.2763515362656
vertex 8.58953774306515 15.5259141510603 4.2763515362656
endloop
endfacet
facet normal -0.990437808178207 0.137959951185657 5.25351865112051e-16
outer loop
vertex -0.664121566104742 4.42380373067134 12.88415
vertex -2.99181690405756 -12.2871145381103 11.7729
vertex -2.99181690405756 -12.2871145381103 12.88415
endloop
endfacet
facet normal -0.990437808178207 0.137959951185657 5.25351865112051e-16
outer loop
vertex -2.99181690405756 -12.2871145381103 11.7729
vertex -0.664121566104742 4.42380373067134 12.88415
vertex 0.411176369731346 12.1435493637705 11.7729
endloop
endfacet
facet normal 0.0 0.0 -1.0
outer loop
vertex -5.22119023928299 16.8982641836012 0.0
vertex -4.95545151367683 16.5675921779092 0.0
vertex -5.26131571931563 16.6101965802563 0.0
endloop
endfacet
facet normal 0.0 0.0 -1.0
outer loop
vertex -4.95545151367683 16.5675921779092 0.0
vertex -5.22119023928299 16.8982641836012 0.0
vertex -4.91532603364418 16.8556597812541 0.0
endloop
endfacet
facet normal -0.990437808178207 0.137959951185657 3.52965723026418e-16
outer loop
vertex -2.99181690405756 -12.2871145381103 12.88415
vertex -3.37750625634468 -15.0560435891423 11.7729
vertex -3.37750625634468 -15.0560435891423 12.88415
endloop
endfacet
facet normal -0.990437808178207 0.137959951185657 3.52965723026418e-16
outer loop
vertex -3.37750625634468 -15.0560435891423 11.7729
vertex -2.99181690405756 -12.2871145381103 12.88415
vertex -2.99181690405756 -12.2871145381103 11.7729
endloop
endfacet
facet normal 0.137959951185657 0.990437808178207 -4.73805824866138e-15
outer loop
vertex 4.57139549479737 15.2649615809566 12.88415
vertex 8.45817058543111 14.7235653445187 11.9235390059273
vertex 4.57139549479737 15.2649615809566 11.9235390059273
endloop
endfacet
facet normal 0.137959951185657 0.990437808178207 -4.73805824866138e-15
outer loop
vertex 8.45817058543111 14.7235653445187 11.9235390059273
vertex 4.57139549479737 15.2649615809566 12.88415
vertex 8.45817058543111 14.7235653445187 12.88415
endloop
endfacet
facet normal 0.137959951185657 0.990437808178207 -4.73805824866138e-15
outer loop
vertex 8.45817058543111 14.7235653445187 12.88415
vertex 4.57139549479737 15.2649615809566 12.88415
vertex 5.98465833518086 15.0681055331948 12.88415
endloop
endfacet
facet normal -0.990437808178207 0.137959951185657 -6.11245070447514e-16
outer loop
vertex 0.953663635158315 16.0381571359276 12.88415
vertex 0.411176369731346 12.1435493637705 11.7729
vertex -0.311470092524088 6.95554826625762 12.88415
endloop
endfacet
facet normal -0.990437808178207 0.137959951185657 -6.11245070447514e-16
outer loop
vertex 0.411176369731346 12.1435493637705 11.7729
vertex 0.953663635158315 16.0381571359276 12.88415
vertex 0.953663635158315 16.0381571359276 11.7729
endloop
endfacet
endsolid 626 West Main Street
