solid 642BldgOffice
facet normal -0.123667855404901 -0.992323667731226 1.25721954072278e-16
outer loop
vertex 39.5082055809469 0.669493233591748 2.8115125689448e-15
vertex 4.43226023603573 5.0408158959064 6.06175915127623
vertex 4.43226023603573 5.0408158959064 1.0056830538291e-15
endloop
endfacet
facet normal -0.123667855404901 -0.992323667731226 1.25721954072278e-16
outer loop
vertex 4.43226023603573 5.0408158959064 6.06175915127623
vertex 39.5082055809469 0.669493233591748 2.8115125689448e-15
vertex 39.5082055809469 0.669493233591748 6.06175915127623
endloop
endfacet
facet normal -0.123667855404902 -0.992323667731226 8.28352571366592e-17
outer loop
vertex 42.5959622156109 0.284683061831767 2.88764567812905e-15
vertex 39.5082055809469 0.669493233591748 6.06175915127623
vertex 39.5082055809469 0.669493233591748 2.8115125689448e-15
endloop
endfacet
facet normal -0.123667855404902 -0.992323667731226 8.28352571366592e-17
outer loop
vertex 39.5082055809469 0.669493233591748 6.06175915127623
vertex 42.5959622156109 0.284683061831767 2.88764567812905e-15
vertex 42.5959622156109 0.284683061831767 6.06175915127623
endloop
endfacet
facet normal -0.123667855404901 -0.992323667731226 7.97067205308146e-18
outer loop
vertex 4.43226023603573 5.0408158959064 1.0056830538291e-15
vertex -4.90334153486206 6.20426073498872 6.06175915127623
vertex -4.90334153486206 6.20426073498872 0.0
endloop
endfacet
facet normal -0.123667855404901 -0.992323667731226 7.97067205308146e-18
outer loop
vertex -4.90334153486206 6.20426073498872 6.06175915127623
vertex 4.43226023603573 5.0408158959064 1.0056830538291e-15
vertex 4.43226023603573 5.0408158959064 6.06175915127623
endloop
endfacet
facet normal 6.9474975960117e-17 3.45058181553381e-17 -1.0
outer loop
vertex -4.4896522015199 9.52374675032642 3.47922913445754e-16
vertex 4.43226023603573 5.0408158959064 1.0056830538291e-15
vertex -4.90334153486206 6.20426073498872 0.0
endloop
endfacet
facet normal 6.9474975960117e-17 3.45058181553381e-17 -1.0
outer loop
vertex 4.43226023603573 5.0408158959064 1.0056830538291e-15
vertex -4.4896522015199 9.52374675032642 3.47922913445754e-16
vertex -3.02521162948538 9.34124155489407 8.16841278614786e-16
endloop
endfacet
facet normal 6.9474975960117e-17 3.45058181553381e-17 -1.0
outer loop
vertex 4.43226023603573 5.0408158959064 1.0056830538291e-15
vertex -3.02521162948538 9.34124155489407 8.16841278614786e-16
vertex -2.1931959401959 16.0174215347479 1.20995451723278e-16
endloop
endfacet
facet normal 6.9474975960117e-17 3.45058181553381e-17 -1.0
outer loop
vertex 4.43226023603573 5.0408158959064 1.0056830538291e-15
vertex -2.1931959401959 16.0174215347479 1.20995451723278e-16
vertex 43.8416672382425 10.2803490570233 3.92450183611425e-15
endloop
endfacet
facet normal 6.9474975960117e-17 3.45058181553381e-17 -1.0
outer loop
vertex 4.43226023603573 5.0408158959064 1.0056830538291e-15
vertex 43.8416672382425 10.2803490570233 3.92450183611425e-15
vertex 39.5082055809469 0.669493233591748 2.8115125689448e-15
endloop
endfacet
facet normal 6.9474975960117e-17 3.45058181553381e-17 -1.0
outer loop
vertex 39.5082055809469 0.669493233591748 2.8115125689448e-15
vertex 43.8416672382425 10.2803490570233 3.92450183611425e-15
vertex 42.5959622156109 0.284683061831767 2.88764567812905e-15
endloop
endfacet
facet normal 2.69857448682157e-16 -1.78075739939562e-16 1.0
outer loop
vertex 42.5959622156109 0.284683061831766 20.1168
vertex 38.8979158761744 10.8964616707634 20.1168
vertex 37.6522108535427 0.90079567557185 20.1168
endloop
endfacet
facet normal 2.69857448682157e-16 -1.78075739939562e-16 1.0
outer loop
vertex 38.8979158761744 10.8964616707634 20.1168
vertex 42.5959622156109 0.284683061831766 20.1168
vertex 43.8416672382425 10.2803490570233 20.1168
endloop
endfacet
facet normal -0.992323667731226 0.123667855404901 -6.46744024300198e-17
outer loop
vertex -4.48965220151991 9.52374675032642 18.5070678742107
vertex -4.90334153486206 6.20426073498872 6.06175915127623
vertex -4.90334153486206 6.20426073498872 18.5070678742107
endloop
endfacet
facet normal -0.992323667731226 0.123667855404901 -6.46744024300198e-17
outer loop
vertex -4.90334153486206 6.20426073498872 6.06175915127623
vertex -4.48965220151991 9.52374675032642 18.5070678742107
vertex -4.90334153486206 6.20426073498872 0.0
endloop
endfacet
facet normal -0.992323667731226 0.123667855404901 -6.46744024300198e-17
outer loop
vertex -4.90334153486206 6.20426073498872 0.0
vertex -4.48965220151991 9.52374675032642 18.5070678742107
vertex -4.4896522015199 9.52374675032642 3.47922913445754e-16
endloop
endfacet
facet normal 0.123667855404901 0.992323667731226 4.28327613112666e-17
outer loop
vertex -4.48965220151991 9.52374675032642 18.5070678742107
vertex -3.02521162948538 9.34124155489407 8.16841278614786e-16
vertex -4.4896522015199 9.52374675032642 3.47922913445754e-16
endloop
endfacet
facet normal 0.123667855404901 0.992323667731226 4.28327613112666e-17
outer loop
vertex -3.02521162948538 9.34124155489407 8.16841278614786e-16
vertex -4.48965220151991 9.52374675032642 18.5070678742107
vertex -3.02521162948539 9.34124155489407 18.5070678742107
endloop
endfacet
facet normal 0.123667855404901 0.992323667731226 4.28327613112666e-17
outer loop
vertex -2.19319594019591 16.0174215347479 22.0170375
vertex 43.8416672382425 10.2803490570233 3.92450183611425e-15
vertex -2.1931959401959 16.0174215347479 1.20995451723278e-16
endloop
endfacet
facet normal 0.123667855404901 0.992323667731226 4.28327613112666e-17
outer loop
vertex 43.8416672382425 10.2803490570233 3.92450183611425e-15
vertex -2.19319594019591 16.0174215347479 22.0170375
vertex 38.8979158761744 10.8964616707634 20.1168
endloop
endfacet
facet normal 0.123667855404901 0.992323667731226 4.28327613112666e-17
outer loop
vertex 38.8979158761744 10.8964616707634 20.1168
vertex -2.19319594019591 16.0174215347479 22.0170375
vertex 38.8979158761744 10.8964616707634 22.0170375
endloop
endfacet
facet normal 0.123667855404901 0.992323667731226 4.28327613112666e-17
outer loop
vertex 43.8416672382425 10.2803490570233 20.1168
vertex 43.8416672382425 10.2803490570233 3.92450183611425e-15
vertex 38.8979158761744 10.8964616707634 20.1168
endloop
endfacet
facet normal 0.992323667731226 -0.123667855404903 6.46744024300198e-17
outer loop
vertex 42.5959622156109 0.284683061831767 6.06175915127623
vertex 43.8416672382425 10.2803490570233 20.1168
vertex 42.5959622156109 0.284683061831766 20.1168
endloop
endfacet
facet normal 0.992323667731226 -0.123667855404903 6.46744024300198e-17
outer loop
vertex 43.8416672382425 10.2803490570233 20.1168
vertex 42.5959622156109 0.284683061831767 6.06175915127623
vertex 42.5959622156109 0.284683061831767 2.88764567812905e-15
endloop
endfacet
facet normal 0.992323667731226 -0.123667855404903 6.46744024300198e-17
outer loop
vertex 43.8416672382425 10.2803490570233 20.1168
vertex 42.5959622156109 0.284683061831767 2.88764567812905e-15
vertex 43.8416672382425 10.2803490570233 3.92450183611425e-15
endloop
endfacet
facet normal -0.123667855404901 -0.992323667731226 -1.6365074173311e-16
outer loop
vertex 42.5959622156109 0.284683061831766 20.1168
vertex 39.5082055809469 0.669493233591748 6.06175915127623
vertex 42.5959622156109 0.284683061831767 6.06175915127623
endloop
endfacet
facet normal -0.123667855404901 -0.992323667731226 -1.6365074173311e-16
outer loop
vertex 39.5082055809469 0.669493233591748 6.06175915127623
vertex 42.5959622156109 0.284683061831766 20.1168
vertex 39.5082055809469 0.669493233591751 10.6079610120755
endloop
endfacet
facet normal -0.123667855404901 -0.992323667731226 -1.6365074173311e-16
outer loop
vertex 39.5082055809469 0.669493233591751 10.6079610120755
vertex 42.5959622156109 0.284683061831766 20.1168
vertex -3.43890096282754 6.02175553955636 18.5070678742107
endloop
endfacet
facet normal -0.123667855404901 -0.992323667731226 -1.6365074173311e-16
outer loop
vertex -3.43890096282754 6.02175553955636 18.5070678742107
vertex 42.5959622156109 0.284683061831766 20.1168
vertex 37.6522108535427 0.90079567557185 20.1168
endloop
endfacet
facet normal -0.123667855404901 -0.992323667731226 -1.6365074173311e-16
outer loop
vertex -3.43890096282754 6.02175553955636 18.5070678742107
vertex 37.6522108535427 0.90079567557185 20.1168
vertex -3.43890096282754 6.02175553955636 22.0170375
endloop
endfacet
facet normal -0.123667855404901 -0.992323667731226 -1.6365074173311e-16
outer loop
vertex -3.43890096282754 6.02175553955636 22.0170375
vertex 37.6522108535427 0.90079567557185 20.1168
vertex 37.6522108535427 0.90079567557185 22.0170375
endloop
endfacet
facet normal -0.123667855404901 -0.992323667731226 -1.6365074173311e-16
outer loop
vertex 4.43226023603573 5.0408158959064 6.06175915127623
vertex -4.90334153486206 6.20426073498872 18.5070678742107
vertex -4.90334153486206 6.20426073498872 6.06175915127623
endloop
endfacet
facet normal -0.123667855404901 -0.992323667731226 -1.6365074173311e-16
outer loop
vertex -4.90334153486206 6.20426073498872 18.5070678742107
vertex 4.43226023603573 5.0408158959064 6.06175915127623
vertex 4.43226023603573 5.04081589590641 10.6079610120755
endloop
endfacet
facet normal -0.123667855404901 -0.992323667731226 -1.6365074173311e-16
outer loop
vertex -4.90334153486206 6.20426073498872 18.5070678742107
vertex 4.43226023603573 5.04081589590641 10.6079610120755
vertex 39.5082055809469 0.669493233591751 10.6079610120755
endloop
endfacet
facet normal -0.123667855404901 -0.992323667731226 -1.6365074173311e-16
outer loop
vertex -4.90334153486206 6.20426073498872 18.5070678742107
vertex 39.5082055809469 0.669493233591751 10.6079610120755
vertex -3.43890096282754 6.02175553955636 18.5070678742107
endloop
endfacet
facet normal -1.38398921551131e-16 1.72478984177724e-17 1.0
outer loop
vertex 37.6522108535427 0.90079567557185 22.0170375
vertex -3.02521162948539 9.34124155489407 22.0170375
vertex -3.43890096282754 6.02175553955636 22.0170375
endloop
endfacet
facet normal -1.38398921551131e-16 1.72478984177724e-17 1.0
outer loop
vertex -3.02521162948539 9.34124155489407 22.0170375
vertex 37.6522108535427 0.90079567557185 22.0170375
vertex -2.19319594019591 16.0174215347479 22.0170375
endloop
endfacet
facet normal -1.38398921551131e-16 1.72478984177724e-17 1.0
outer loop
vertex -2.19319594019591 16.0174215347479 22.0170375
vertex 37.6522108535427 0.90079567557185 22.0170375
vertex 38.8979158761744 10.8964616707634 22.0170375
endloop
endfacet
facet normal 0.992323667731226 -0.123667855404902 1.37127359969148e-16
outer loop
vertex 38.8979158761744 10.8964616707634 20.1168
vertex 37.6522108535427 0.90079567557185 22.0170375
vertex 37.6522108535427 0.90079567557185 20.1168
endloop
endfacet
facet normal 0.992323667731226 -0.123667855404902 1.37127359969148e-16
outer loop
vertex 37.6522108535427 0.90079567557185 22.0170375
vertex 38.8979158761744 10.8964616707634 20.1168
vertex 38.8979158761744 10.8964616707634 22.0170375
endloop
endfacet
facet normal 0.0 0.0 1.0
outer loop
vertex -3.43890096282754 6.02175553955636 18.5070678742107
vertex -4.48965220151991 9.52374675032642 18.5070678742107
vertex -4.90334153486206 6.20426073498872 18.5070678742107
endloop
endfacet
facet normal 0.0 0.0 1.0
outer loop
vertex -4.48965220151991 9.52374675032642 18.5070678742107
vertex -3.43890096282754 6.02175553955636 18.5070678742107
vertex -3.02521162948539 9.34124155489407 18.5070678742107
endloop
endfacet
facet normal -0.992323667731226 0.1236678554049 6.30289910207228e-32
outer loop
vertex -3.02521162948539 9.34124155489407 22.0170375
vertex -3.43890096282754 6.02175553955636 18.5070678742107
vertex -3.43890096282754 6.02175553955636 22.0170375
endloop
endfacet
facet normal -0.992323667731226 0.1236678554049 6.30289910207228e-32
outer loop
vertex -3.43890096282754 6.02175553955636 18.5070678742107
vertex -3.02521162948539 9.34124155489407 22.0170375
vertex -3.02521162948539 9.34124155489407 18.5070678742107
endloop
endfacet
facet normal -0.992323667731226 0.123667855404901 -6.7866490637488e-17
outer loop
vertex -2.19319594019591 16.0174215347479 22.0170375
vertex -3.02521162948539 9.34124155489407 18.5070678742107
vertex -3.02521162948539 9.34124155489407 22.0170375
endloop
endfacet
facet normal -0.992323667731226 0.123667855404901 -6.7866490637488e-17
outer loop
vertex -3.02521162948539 9.34124155489407 18.5070678742107
vertex -2.19319594019591 16.0174215347479 22.0170375
vertex -3.02521162948538 9.34124155489407 8.16841278614786e-16
endloop
endfacet
facet normal -0.992323667731226 0.123667855404901 -6.7866490637488e-17
outer loop
vertex -3.02521162948538 9.34124155489407 8.16841278614786e-16
vertex -2.19319594019591 16.0174215347479 22.0170375
vertex -2.1931959401959 16.0174215347479 1.20995451723278e-16
endloop
endfacet
facet normal -0.123667855404901 -0.992323667731226 2.68103409151812e-16
outer loop
vertex 39.5082055809469 0.669493233591748 6.06175915127623
vertex 4.43226023603573 5.04081589590641 10.6079610120755
vertex 4.43226023603573 5.0408158959064 6.06175915127623
endloop
endfacet
facet normal -0.123667855404901 -0.992323667731226 2.68103409151812e-16
outer loop
vertex 4.43226023603573 5.04081589590641 10.6079610120755
vertex 39.5082055809469 0.669493233591748 6.06175915127623
vertex 39.5082055809469 0.669493233591751 10.6079610120755
endloop
endfacet
endsolid 642BldgOffice
