solid 711 West Main Street
facet normal -0.126036902491553 -0.992025553708338 0.0
outer loop
vertex 48.2563093069474 -27.7766377713755 15.53845
vertex 25.4526179038538 -24.8794274938022 -5.04825
vertex 48.2563093069474 -27.7766377713755 -5.04825
endloop
endfacet
facet normal -0.126036902491553 -0.992025553708338 0.0
outer loop
vertex 25.4526179038538 -24.8794274938022 -5.04825
vertex 48.2563093069474 -27.7766377713755 15.53845
vertex 25.4526179038538 -24.8794274938022 15.53845
endloop
endfacet
facet normal -0.992025553708338 0.126036902491553 0.0
outer loop
vertex 29.5639353612831 7.48039646688611 15.53845
vertex 25.4526179038538 -24.8794274938022 -5.04825
vertex 25.4526179038538 -24.8794274938022 15.53845
endloop
endfacet
facet normal -0.992025553708338 0.126036902491553 0.0
outer loop
vertex 25.4526179038538 -24.8794274938022 -5.04825
vertex 29.5639353612831 7.48039646688611 15.53845
vertex 29.5639353612831 7.48039646688611 -5.04825
endloop
endfacet
facet normal -0.0 -0.0 1.0
outer loop
vertex 47.9500929631404 -8.71520283091588 15.53845
vertex 45.7411917536403 -1.11176657046963 15.53845
vertex 44.8256092791806 -8.31823700282848 15.53845
endloop
endfacet
facet normal -0.0 -0.0 1.0
outer loop
vertex 25.4526179038538 -24.8794274938022 15.53845
vertex 33.2741151042273 -21.7010429249256 15.53845
vertex 29.5639353612831 7.48039646688611 15.53845
endloop
endfacet
facet normal -0.0 -0.0 1.0
outer loop
vertex 33.2741151042273 -21.7010429249256 15.53845
vertex 25.4526179038538 -24.8794274938022 15.53845
vertex 48.2563093069474 -27.7766377713755 15.53845
endloop
endfacet
facet normal -0.0 -0.0 1.0
outer loop
vertex 33.2741151042273 -21.7010429249256 15.53845
vertex 48.2563093069474 -27.7766377713755 15.53845
vertex 39.0811449726721 -23.706233264891 15.53845
endloop
endfacet
facet normal -0.0 -0.0 1.0
outer loop
vertex 39.0811449726721 -23.706233264891 15.53845
vertex 48.2563093069474 -27.7766377713755 15.53845
vertex 41.6386860526875 -24.0311690032044 15.53845
endloop
endfacet
facet normal -0.0 -0.0 1.0
outer loop
vertex 41.6386860526875 -24.0311690032044 15.53845
vertex 48.2563093069474 -27.7766377713755 15.53845
vertex 41.7971522501902 -22.7838952745269 15.53845
endloop
endfacet
facet normal -0.0 -0.0 1.0
outer loop
vertex 41.7971522501902 -22.7838952745269 15.53845
vertex 48.2563093069474 -27.7766377713755 15.53845
vertex 46.0933173156349 -23.3297232881471 15.53845
endloop
endfacet
facet normal -0.0 -0.0 1.0
outer loop
vertex 46.0933173156349 -23.3297232881471 15.53845
vertex 48.2563093069474 -27.7766377713755 15.53845
vertex 47.9500929631404 -8.71520283091588 15.53845
endloop
endfacet
facet normal -0.0 -0.0 1.0
outer loop
vertex 29.5639353612831 7.48039646688611 15.53845
vertex 36.0464732261925 0.119947964664451 15.53845
vertex 52.3676267643767 4.58318618931277 15.53845
endloop
endfacet
facet normal -0.0 -0.0 1.0
outer loop
vertex 36.0464732261925 0.119947964664451 15.53845
vertex 29.5639353612831 7.48039646688611 15.53845
vertex 33.2741151042273 -21.7010429249256 15.53845
endloop
endfacet
facet normal -0.0 -0.0 1.0
outer loop
vertex 36.0464732261925 0.119947964664451 15.53845
vertex 33.2741151042273 -21.7010429249256 15.53845
vertex 36.0416712202076 0.0821517910681603 15.53845
endloop
endfacet
facet normal -0.0 -0.0 1.0
outer loop
vertex 52.3676267643767 4.58318618931277 15.53845
vertex 36.0464732261925 0.119947964664451 15.53845
vertex 45.7411917536403 -1.11176657046963 15.53845
endloop
endfacet
facet normal -0.0 -0.0 1.0
outer loop
vertex 52.3676267643767 4.58318618931277 15.53845
vertex 45.7411917536403 -1.11176657046963 15.53845
vertex 47.9500929631404 -8.71520283091588 15.53845
endloop
endfacet
facet normal -0.0 -0.0 1.0
outer loop
vertex 52.3676267643767 4.58318618931277 15.53845
vertex 47.9500929631404 -8.71520283091588 15.53845
vertex 48.2563093069474 -27.7766377713755 15.53845
endloop
endfacet
facet normal -0.0 -0.0 1.0
outer loop
vertex 39.2396111701747 -22.4589595362135 15.53845
vertex 33.2741151042273 -21.7010429249256 15.53845
vertex 39.0811449726721 -23.706233264891 15.53845
endloop
endfacet
facet normal 0.0 0.0 -1.0
outer loop
vertex 29.5639353612831 7.48039646688611 -5.04825
vertex 48.2563093069474 -27.7766377713755 -5.04825
vertex 25.4526179038538 -24.8794274938022 -5.04825
endloop
endfacet
facet normal 0.0 0.0 -1.0
outer loop
vertex 48.2563093069474 -27.7766377713755 -5.04825
vertex 29.5639353612831 7.48039646688611 -5.04825
vertex 52.3676267643767 4.58318618931277 -5.04825
endloop
endfacet
facet normal 0.126036902491554 0.992025553708338 0.0
outer loop
vertex 44.8256092791806 -8.31823700282848 17.15135
vertex 47.9500929631404 -8.71520283091588 15.53845
vertex 44.8256092791806 -8.31823700282848 15.53845
endloop
endfacet
facet normal 0.126036902491554 0.992025553708338 0.0
outer loop
vertex 47.9500929631404 -8.71520283091588 15.53845
vertex 44.8256092791806 -8.31823700282848 17.15135
vertex 47.9500929631404 -8.71520283091588 17.15135
endloop
endfacet
facet normal 0.992025553708338 -0.126036902491554 0.0
outer loop
vertex 45.7411917536403 -1.11176657046963 15.53845
vertex 44.8256092791806 -8.31823700282848 17.15135
vertex 44.8256092791806 -8.31823700282848 15.53845
endloop
endfacet
facet normal 0.992025553708338 -0.126036902491554 0.0
outer loop
vertex 44.8256092791806 -8.31823700282848 17.15135
vertex 45.7411917536403 -1.11176657046963 15.53845
vertex 45.7411917536403 -1.11176657046963 17.15135
endloop
endfacet
facet normal -0.992025553708339 0.126036902491543 0.0
outer loop
vertex 36.0464732261925 0.119947964664451 17.15135
vertex 36.0416712202076 0.0821517910681603 15.53845
vertex 36.0416712202076 0.0821517910681603 17.15135
endloop
endfacet
facet normal -0.992025553708339 0.126036902491543 0.0
outer loop
vertex 36.0416712202076 0.0821517910681603 15.53845
vertex 36.0464732261925 0.119947964664451 17.15135
vertex 36.0464732261925 0.119947964664451 15.53845
endloop
endfacet
facet normal -0.992025553708338 0.126036902491553 0.0
outer loop
vertex 36.0416712202076 0.0821517910681603 17.15135
vertex 33.2741151042273 -21.7010429249256 15.53845
vertex 33.2741151042273 -21.7010429249256 17.15135
endloop
endfacet
facet normal -0.992025553708338 0.126036902491553 0.0
outer loop
vertex 33.2741151042273 -21.7010429249256 15.53845
vertex 36.0416712202076 0.0821517910681603 17.15135
vertex 36.0416712202076 0.0821517910681603 15.53845
endloop
endfacet
facet normal -0.126036902491553 -0.992025553708338 -0.0
outer loop
vertex 39.2396111701747 -22.4589595362135 17.15135
vertex 33.2741151042273 -21.7010429249256 15.53845
vertex 39.2396111701747 -22.4589595362135 15.53845
endloop
endfacet
facet normal -0.126036902491553 -0.992025553708338 -0.0
outer loop
vertex 33.2741151042273 -21.7010429249256 15.53845
vertex 39.2396111701747 -22.4589595362135 17.15135
vertex 33.2741151042273 -21.7010429249256 17.15135
endloop
endfacet
facet normal -0.992025553708338 0.126036902491554 0.0
outer loop
vertex 39.2396111701747 -22.4589595362135 17.15135
vertex 39.0811449726721 -23.706233264891 15.53845
vertex 39.0811449726721 -23.706233264891 17.15135
endloop
endfacet
facet normal -0.992025553708338 0.126036902491554 0.0
outer loop
vertex 39.0811449726721 -23.706233264891 15.53845
vertex 39.2396111701747 -22.4589595362135 17.15135
vertex 39.2396111701747 -22.4589595362135 15.53845
endloop
endfacet
facet normal -0.126036902491553 -0.992025553708338 -0.0
outer loop
vertex 41.6386860526875 -24.0311690032044 17.15135
vertex 39.0811449726721 -23.706233264891 15.53845
vertex 41.6386860526875 -24.0311690032044 15.53845
endloop
endfacet
facet normal -0.126036902491553 -0.992025553708338 -0.0
outer loop
vertex 39.0811449726721 -23.706233264891 15.53845
vertex 41.6386860526875 -24.0311690032044 17.15135
vertex 39.0811449726721 -23.706233264891 17.15135
endloop
endfacet
facet normal 0.992025553708338 -0.126036902491554 0.0
outer loop
vertex 41.7971522501902 -22.7838952745269 15.53845
vertex 41.6386860526875 -24.0311690032044 17.15135
vertex 41.6386860526875 -24.0311690032044 15.53845
endloop
endfacet
facet normal 0.992025553708338 -0.126036902491554 0.0
outer loop
vertex 41.6386860526875 -24.0311690032044 17.15135
vertex 41.7971522501902 -22.7838952745269 15.53845
vertex 41.7971522501902 -22.7838952745269 17.15135
endloop
endfacet
facet normal 0.0 0.0 1.0
outer loop
vertex 41.6386860526875 -24.0311690032044 17.15135
vertex 39.2396111701747 -22.4589595362135 17.15135
vertex 39.0811449726721 -23.706233264891 17.15135
endloop
endfacet
facet normal 0.0 0.0 1.0
outer loop
vertex 46.0933173156349 -23.3297232881471 17.15135
vertex 44.8256092791806 -8.31823700282848 17.15135
vertex 41.7971522501902 -22.7838952745269 17.15135
endloop
endfacet
facet normal 0.0 0.0 1.0
outer loop
vertex 44.8256092791806 -8.31823700282848 17.15135
vertex 46.0933173156349 -23.3297232881471 17.15135
vertex 47.9500929631404 -8.71520283091588 17.15135
endloop
endfacet
facet normal 0.0 0.0 1.0
outer loop
vertex 39.2396111701747 -22.4589595362135 17.15135
vertex 36.0416712202076 0.0821517910681603 17.15135
vertex 33.2741151042273 -21.7010429249256 17.15135
endloop
endfacet
facet normal 0.0 0.0 1.0
outer loop
vertex 36.0416712202076 0.0821517910681603 17.15135
vertex 39.2396111701747 -22.4589595362135 17.15135
vertex 36.0464732261925 0.119947964664451 17.15135
endloop
endfacet
facet normal 0.0 0.0 1.0
outer loop
vertex 36.0464732261925 0.119947964664451 17.15135
vertex 39.2396111701747 -22.4589595362135 17.15135
vertex 45.7411917536403 -1.11176657046963 17.15135
endloop
endfacet
facet normal 0.0 0.0 1.0
outer loop
vertex 45.7411917536403 -1.11176657046963 17.15135
vertex 39.2396111701747 -22.4589595362135 17.15135
vertex 41.7971522501902 -22.7838952745269 17.15135
endloop
endfacet
facet normal 0.0 0.0 1.0
outer loop
vertex 41.7971522501902 -22.7838952745269 17.15135
vertex 39.2396111701747 -22.4589595362135 17.15135
vertex 41.6386860526875 -24.0311690032044 17.15135
endloop
endfacet
facet normal 0.0 0.0 1.0
outer loop
vertex 45.7411917536403 -1.11176657046963 17.15135
vertex 41.7971522501902 -22.7838952745269 17.15135
vertex 44.8256092791806 -8.31823700282848 17.15135
endloop
endfacet
facet normal 0.992025553708338 -0.126036902491554 -0.0
outer loop
vertex 52.3676267643767 4.58318618931277 -5.04825
vertex 48.2563093069474 -27.7766377713755 15.53845
vertex 48.2563093069474 -27.7766377713755 -5.04825
endloop
endfacet
facet normal 0.992025553708338 -0.126036902491554 -0.0
outer loop
vertex 48.2563093069474 -27.7766377713755 15.53845
vertex 52.3676267643767 4.58318618931277 -5.04825
vertex 52.3676267643767 4.58318618931277 15.53845
endloop
endfacet
facet normal -0.126036902491553 -0.992025553708338 -0.0
outer loop
vertex 46.0933173156349 -23.3297232881471 17.15135
vertex 41.7971522501902 -22.7838952745269 15.53845
vertex 46.0933173156349 -23.3297232881471 15.53845
endloop
endfacet
facet normal -0.126036902491553 -0.992025553708338 -0.0
outer loop
vertex 41.7971522501902 -22.7838952745269 15.53845
vertex 46.0933173156349 -23.3297232881471 17.15135
vertex 41.7971522501902 -22.7838952745269 17.15135
endloop
endfacet
facet normal 0.126036902491553 0.992025553708338 0.0
outer loop
vertex 36.0464732261925 0.119947964664451 17.15135
vertex 45.7411917536403 -1.11176657046963 15.53845
vertex 36.0464732261925 0.119947964664451 15.53845
endloop
endfacet
facet normal 0.126036902491553 0.992025553708338 0.0
outer loop
vertex 45.7411917536403 -1.11176657046963 15.53845
vertex 36.0464732261925 0.119947964664451 17.15135
vertex 45.7411917536403 -1.11176657046963 17.15135
endloop
endfacet
facet normal 0.126036902491553 0.992025553708338 -0.0
outer loop
vertex 29.5639353612831 7.48039646688611 15.53845
vertex 52.3676267643767 4.58318618931277 -5.04825
vertex 29.5639353612831 7.48039646688611 -5.04825
endloop
endfacet
facet normal 0.126036902491553 0.992025553708338 -0.0
outer loop
vertex 52.3676267643767 4.58318618931277 -5.04825
vertex 29.5639353612831 7.48039646688611 15.53845
vertex 52.3676267643767 4.58318618931277 15.53845
endloop
endfacet
facet normal 0.992025553708338 -0.126036902491553 0.0
outer loop
vertex 47.9500929631404 -8.71520283091588 15.53845
vertex 46.0933173156349 -23.3297232881471 17.15135
vertex 46.0933173156349 -23.3297232881471 15.53845
endloop
endfacet
facet normal 0.992025553708338 -0.126036902491553 0.0
outer loop
vertex 46.0933173156349 -23.3297232881471 17.15135
vertex 47.9500929631404 -8.71520283091588 15.53845
vertex 47.9500929631404 -8.71520283091588 17.15135
endloop
endfacet
endsolid 711 West Main Street
