solid 713 West Main Street
facet normal -0.0 -0.0 1.0
outer loop
vertex 25.4526179038538 -24.8794274938022 11.4667819594486
vertex 10.834920750944 18.2656417711953 11.4667819594486
vertex 5.67262038846327 -22.3663776950231 11.4667819594486
endloop
endfacet
facet normal -0.0 -0.0 1.0
outer loop
vertex 10.834920750944 18.2656417711953 11.4667819594486
vertex 25.4526179038538 -24.8794274938022 11.4667819594486
vertex 21.7634095516013 0.84844249910434 11.4667819594486
endloop
endfacet
facet normal -0.0 -0.0 1.0
outer loop
vertex 21.7634095516013 0.84844249910434 11.4667819594486
vertex 25.4526179038538 -24.8794274938022 11.4667819594486
vertex 28.6108163347955 -0.0215209184984823 11.4667819594486
endloop
endfacet
facet normal -0.0 -0.0 1.0
outer loop
vertex 10.834920750944 18.2656417711953 11.4667819594486
vertex 23.625852306585 15.5075682689285 11.4667819594486
vertex 23.7675114831404 16.622555390019 11.4667819594486
endloop
endfacet
facet normal -0.0 -0.0 1.0
outer loop
vertex 23.625852306585 15.5075682689285 11.4667819594486
vertex 10.834920750944 18.2656417711953 11.4667819594486
vertex 21.7634095516013 0.84844249910434 11.4667819594486
endloop
endfacet
facet normal -0.0 -0.0 1.0
outer loop
vertex 23.625852306585 15.5075682689285 11.4667819594486
vertex 21.7634095516013 0.84844249910434 11.4667819594486
vertex 22.8359742906133 9.2905067522918 11.4667819594486
endloop
endfacet
facet normal -0.126036902491553 -0.992025553708338 0.0
outer loop
vertex 25.4526179038538 -24.8794274938022 -5.04825
vertex 25.0984253784943 -24.8344273134993 0.802710717689335
vertex 5.67262038846327 -22.3663776950231 -5.04825
endloop
endfacet
facet normal -0.126036902491553 -0.992025553708338 0.0
outer loop
vertex 25.0984253784943 -24.8344273134993 0.802710717689335
vertex 25.4526179038538 -24.8794274938022 -5.04825
vertex 25.4526179038538 -24.8794274938022 11.4667819594486
endloop
endfacet
facet normal -0.126036902491553 -0.992025553708338 0.0
outer loop
vertex 25.0984253784943 -24.8344273134993 0.802710717689335
vertex 25.4526179038538 -24.8794274938022 11.4667819594486
vertex 25.0984253784943 -24.8344273134993 2.13621071768933
endloop
endfacet
facet normal -0.126036902491553 -0.992025553708338 0.0
outer loop
vertex 25.0984253784943 -24.8344273134993 2.13621071768933
vertex 25.4526179038538 -24.8794274938022 11.4667819594486
vertex 18.6037828821989 -24.0092826184224 2.13621071768933
endloop
endfacet
facet normal -0.126036902491553 -0.992025553708338 0.0
outer loop
vertex 5.67262038846327 -22.3663776950231 -5.04825
vertex 18.6037828821989 -24.0092826184224 0.802710717689335
vertex 5.67262038846327 -22.3663776950231 11.4667819594486
endloop
endfacet
facet normal -0.126036902491553 -0.992025553708338 0.0
outer loop
vertex 18.6037828821989 -24.0092826184224 0.802710717689335
vertex 5.67262038846327 -22.3663776950231 -5.04825
vertex 25.0984253784943 -24.8344273134993 0.802710717689335
endloop
endfacet
facet normal -0.126036902491553 -0.992025553708338 0.0
outer loop
vertex 5.67262038846327 -22.3663776950231 11.4667819594486
vertex 18.6037828821989 -24.0092826184224 0.802710717689335
vertex 18.6037828821989 -24.0092826184224 2.13621071768933
endloop
endfacet
facet normal -0.126036902491553 -0.992025553708338 0.0
outer loop
vertex 5.67262038846327 -22.3663776950231 11.4667819594486
vertex 18.6037828821989 -24.0092826184224 2.13621071768933
vertex 25.4526179038538 -24.8794274938022 11.4667819594486
endloop
endfacet
facet normal -0.992025553708338 0.126036902491553 0.0
outer loop
vertex 10.834920750944 18.2656417711953 11.4667819594486
vertex 5.67262038846327 -22.3663776950231 -5.04825
vertex 5.67262038846327 -22.3663776950231 11.4667819594486
endloop
endfacet
facet normal -0.992025553708338 0.126036902491553 0.0
outer loop
vertex 5.67262038846327 -22.3663776950231 -5.04825
vertex 10.834920750944 18.2656417711953 11.4667819594486
vertex 10.834920750944 18.2656417711953 -5.04825
endloop
endfacet
facet normal 0.126036902491553 0.992025553708338 0.0
outer loop
vertex 10.834920750944 18.2656417711953 11.4667819594486
vertex 23.7675114831404 16.622555390019 -5.04825
vertex 10.834920750944 18.2656417711953 -5.04825
endloop
endfacet
facet normal 0.126036902491553 0.992025553708338 0.0
outer loop
vertex 23.7675114831404 16.622555390019 -5.04825
vertex 10.834920750944 18.2656417711953 11.4667819594486
vertex 23.7675114831404 16.622555390019 11.4667819594486
endloop
endfacet
facet normal 0.992025553708338 -0.126036902491554 -0.0
outer loop
vertex 23.7675114831404 16.622555390019 -5.04825
vertex 23.625852306585 15.5075682689285 8.55213195944859
vertex 23.625852306585 15.5075682689285 -5.04825
endloop
endfacet
facet normal 0.992025553708338 -0.126036902491554 -0.0
outer loop
vertex 23.625852306585 15.5075682689285 8.55213195944859
vertex 23.7675114831404 16.622555390019 -5.04825
vertex 23.625852306585 15.5075682689285 11.4667819594486
endloop
endfacet
facet normal 0.992025553708338 -0.126036902491554 -0.0
outer loop
vertex 23.625852306585 15.5075682689285 11.4667819594486
vertex 23.7675114831404 16.622555390019 -5.04825
vertex 23.7675114831404 16.622555390019 11.4667819594486
endloop
endfacet
facet normal 0.126036902491553 0.992025553708338 -0.0
outer loop
vertex 23.625852306585 15.5075682689285 8.55213195944859
vertex 28.5204567873043 14.8857084938803 -5.04825
vertex 23.625852306585 15.5075682689285 -5.04825
endloop
endfacet
facet normal 0.126036902491553 0.992025553708338 -0.0
outer loop
vertex 28.5204567873043 14.8857084938803 -5.04825
vertex 23.625852306585 15.5075682689285 8.55213195944859
vertex 28.5204567873043 14.8857084938803 8.55213195944859
endloop
endfacet
facet normal 0.992025553708338 -0.126036902491554 -1.73534754232101e-17
outer loop
vertex 27.7305787713326 8.6686469772436 -5.04825
vertex 28.5204567873043 14.8857084938803 8.55213195944859
vertex 27.7305787713326 8.6686469772436 8.55213195944859
endloop
endfacet
facet normal 0.992025553708338 -0.126036902491554 -1.73534754232101e-17
outer loop
vertex 28.5204567873043 14.8857084938803 8.55213195944859
vertex 27.7305787713326 8.6686469772436 -5.04825
vertex 28.5204567873043 14.8857084938803 -5.04825
endloop
endfacet
facet normal 0.126036902491553 0.992025553708338 1.30185154882552e-16
outer loop
vertex 27.7305787713326 8.6686469772436 8.55213195944859
vertex 29.6833810738075 8.42054333468898 -5.04825
vertex 27.7305787713326 8.6686469772436 -5.04825
endloop
endfacet
facet normal 0.126036902491553 0.992025553708338 1.30185154882552e-16
outer loop
vertex 29.6833810738075 8.42054333468898 -5.04825
vertex 27.7305787713326 8.6686469772436 8.55213195944859
vertex 29.6833810738075 8.42054333468898 9.96818195944859
endloop
endfacet
facet normal 0.126036902491553 0.992025553708338 1.30185154882552e-16
outer loop
vertex 29.6833810738075 8.42054333468898 9.96818195944859
vertex 27.7305787713326 8.6686469772436 8.55213195944859
vertex 27.7305787713326 8.6686469772436 9.96818195944859
endloop
endfacet
facet normal -0.992025553708338 0.126036902491556 -5.43628042952123e-16
outer loop
vertex 18.4770981264359 -25.0064073691727 1.12528326866683
vertex 18.473328386275 -25.0360786677883 0.802710717689335
vertex 18.473328386275 -25.0360786677883 0.993210717689335
endloop
endfacet
facet normal -0.992025553708338 0.126036902491556 -5.43628042952123e-16
outer loop
vertex 18.473328386275 -25.0360786677883 0.802710717689335
vertex 18.4770981264359 -25.0064073691727 1.12528326866683
vertex 18.6037828821989 -24.0092826184224 0.802710717689335
endloop
endfacet
facet normal -0.992025553708338 0.126036902491556 -5.43628042952123e-16
outer loop
vertex 18.6037828821989 -24.0092826184224 0.802710717689335
vertex 18.4770981264359 -25.0064073691727 1.12528326866683
vertex 18.4824023437226 -24.9646583338756 1.25399472485799
endloop
endfacet
facet normal -0.992025553708338 0.126036902491556 -5.43628042952123e-16
outer loop
vertex 18.6037828821989 -24.0092826184224 0.802710717689335
vertex 18.4824023437226 -24.9646583338756 1.25399472485799
vertex 18.4891948958334 -24.9111947439615 1.37822540308776
endloop
endfacet
facet normal -0.992025553708338 0.126036902491556 -5.43628042952123e-16
outer loop
vertex 18.6037828821989 -24.0092826184224 0.802710717689335
vertex 18.4891948958334 -24.9111947439615 1.37822540308776
vertex 18.4974166931851 -24.8464816884277 1.49689459924204
endloop
endfacet
facet normal -0.992025553708338 0.126036902491556 -5.43628042952123e-16
outer loop
vertex 18.6037828821989 -24.0092826184224 0.802710717689335
vertex 18.4974166931851 -24.8464816884277 1.49689459924204
vertex 18.5069962129432 -24.7710821173148 1.60896998949929
endloop
endfacet
facet normal -0.992025553708338 0.126036902491556 -5.43628042952123e-16
outer loop
vertex 18.6037828821989 -24.0092826184224 0.802710717689335
vertex 18.5069962129432 -24.7710821173148 1.60896998949929
vertex 18.5178501212117 -24.6856519445072 1.71347661069365
endloop
endfacet
facet normal -0.992025553708338 0.126036902491556 -5.43628042952123e-16
outer loop
vertex 18.6037828821989 -24.0092826184224 0.802710717689335
vertex 18.5178501212117 -24.6856519445072 1.71347661069365
vertex 18.5298839979691 -24.5909343418245 1.80950534168786
endloop
endfacet
facet normal -0.992025553708338 0.126036902491556 -5.43628042952123e-16
outer loop
vertex 18.6037828821989 -24.0092826184224 0.802710717689335
vertex 18.5298839979691 -24.5909343418245 1.80950534168786
vertex 18.5429931584443 -24.4877532740425 1.89622081197491
endloop
endfacet
facet normal -0.992025553708338 0.126036902491556 -5.43628042952123e-16
outer loop
vertex 18.6037828821989 -24.0092826184224 0.802710717689335
vertex 18.5429931584443 -24.4877532740425 1.89622081197491
vertex 18.5570635637874 -24.3770063310803 1.9728686687103
endloop
endfacet
facet normal -0.992025553708338 0.126036902491556 -5.43628042952123e-16
outer loop
vertex 18.6037828821989 -24.0092826184224 0.802710717689335
vertex 18.5570635637874 -24.3770063310803 1.9728686687103
vertex 18.5719728131135 -24.2596569197115 2.03878213895766
endloop
endfacet
facet normal -0.992025553708338 0.126036902491556 -5.43628042952123e-16
outer loop
vertex 18.6037828821989 -24.0092826184224 0.802710717689335
vertex 18.5719728131135 -24.2596569197115 2.03878213895766
vertex 18.5875912082892 -24.136725882722 2.09338783006157
endloop
endfacet
facet normal -0.992025553708338 0.126036902491556 -5.43628042952123e-16
outer loop
vertex 18.6037828821989 -24.0092826184224 0.802710717689335
vertex 18.5875912082892 -24.136725882722 2.09338783006157
vertex 18.6037828821989 -24.0092826184224 2.13621071768933
endloop
endfacet
facet normal 0.992025553708337 -0.126036902491566 6.08627048087678e-15
outer loop
vertex 25.0984253784943 -24.8344273134993 0.802710717689335
vertex 24.9679708825704 -25.8612233628651 0.993210717689338
vertex 24.9679708825704 -25.8612233628651 0.802710717689338
endloop
endfacet
facet normal 0.992025553708337 -0.126036902491566 6.08627048087678e-15
outer loop
vertex 24.9679708825704 -25.8612233628651 0.993210717689338
vertex 25.0984253784943 -24.8344273134993 0.802710717689335
vertex 24.9717406227313 -25.8315520642496 1.12528326866683
endloop
endfacet
facet normal 0.992025553708337 -0.126036902491566 6.08627048087678e-15
outer loop
vertex 24.9717406227313 -25.8315520642496 1.12528326866683
vertex 25.0984253784943 -24.8344273134993 0.802710717689335
vertex 24.977044840018 -25.7898030289525 1.25399472485799
endloop
endfacet
facet normal 0.992025553708337 -0.126036902491566 6.08627048087678e-15
outer loop
vertex 24.977044840018 -25.7898030289525 1.25399472485799
vertex 25.0984253784943 -24.8344273134993 0.802710717689335
vertex 24.9838373921289 -25.7363394390384 1.37822540308777
endloop
endfacet
facet normal 0.992025553708337 -0.126036902491566 6.08627048087678e-15
outer loop
vertex 24.9838373921289 -25.7363394390384 1.37822540308777
vertex 25.0984253784943 -24.8344273134993 0.802710717689335
vertex 24.9920591894805 -25.6716263835046 1.49689459924205
endloop
endfacet
facet normal 0.992025553708337 -0.126036902491566 6.08627048087678e-15
outer loop
vertex 24.9920591894805 -25.6716263835046 1.49689459924205
vertex 25.0984253784943 -24.8344273134993 0.802710717689335
vertex 25.0016387092386 -25.5962268123917 1.60896998949929
endloop
endfacet
facet normal 0.992025553708337 -0.126036902491566 6.08627048087678e-15
outer loop
vertex 25.0016387092386 -25.5962268123917 1.60896998949929
vertex 25.0984253784943 -24.8344273134993 0.802710717689335
vertex 25.0124926175071 -25.510796639584 1.71347661069365
endloop
endfacet
facet normal 0.992025553708337 -0.126036902491566 6.08627048087678e-15
outer loop
vertex 25.0124926175071 -25.510796639584 1.71347661069365
vertex 25.0984253784943 -24.8344273134993 0.802710717689335
vertex 25.0245264942645 -25.4160790369014 1.80950534168786
endloop
endfacet
facet normal 0.992025553708337 -0.126036902491566 6.08627048087678e-15
outer loop
vertex 25.0245264942645 -25.4160790369014 1.80950534168786
vertex 25.0984253784943 -24.8344273134993 0.802710717689335
vertex 25.0376356547397 -25.3128979691193 1.89622081197491
endloop
endfacet
facet normal 0.992025553708337 -0.126036902491566 6.08627048087678e-15
outer loop
vertex 25.0376356547397 -25.3128979691193 1.89622081197491
vertex 25.0984253784943 -24.8344273134993 0.802710717689335
vertex 25.0517060600828 -25.2021510261571 1.97286866871031
endloop
endfacet
facet normal 0.992025553708337 -0.126036902491566 6.08627048087678e-15
outer loop
vertex 25.0517060600828 -25.2021510261571 1.97286866871031
vertex 25.0984253784943 -24.8344273134993 0.802710717689335
vertex 25.0666153094089 -25.0848016147884 2.03878213895766
endloop
endfacet
facet normal 0.992025553708337 -0.126036902491566 6.08627048087678e-15
outer loop
vertex 25.0666153094089 -25.0848016147884 2.03878213895766
vertex 25.0984253784943 -24.8344273134993 0.802710717689335
vertex 25.0822337045846 -24.9618705777989 2.09338783006158
endloop
endfacet
facet normal 0.992025553708337 -0.126036902491566 6.08627048087678e-15
outer loop
vertex 25.0822337045846 -24.9618705777989 2.09338783006158
vertex 25.0984253784943 -24.8344273134993 0.802710717689335
vertex 25.0984253784943 -24.8344273134993 2.13621071768933
endloop
endfacet
facet normal -0.126036902491556 -0.992025553708338 -0.0
outer loop
vertex 24.9679708825704 -25.8612233628651 0.802710717689338
vertex 18.473328386275 -25.0360786677883 0.993210717689335
vertex 18.473328386275 -25.0360786677883 0.802710717689335
endloop
endfacet
facet normal -0.126036902491556 -0.992025553708338 -0.0
outer loop
vertex 18.473328386275 -25.0360786677883 0.993210717689335
vertex 24.9679708825704 -25.8612233628651 0.802710717689338
vertex 24.9679708825704 -25.8612233628651 0.993210717689338
endloop
endfacet
facet normal 4.69936736129757e-17 -1.5439402666272e-15 -1.0
outer loop
vertex 18.6037828821989 -24.0092826184224 0.802710717689335
vertex 24.9679708825704 -25.8612233628651 0.802710717689338
vertex 18.473328386275 -25.0360786677883 0.802710717689335
endloop
endfacet
facet normal 4.69936736129757e-17 -1.5439402666272e-15 -1.0
outer loop
vertex 24.9679708825704 -25.8612233628651 0.802710717689338
vertex 18.6037828821989 -24.0092826184224 0.802710717689335
vertex 25.0984253784943 -24.8344273134993 0.802710717689335
endloop
endfacet
facet normal -0.0398566304720113 -0.313708089704876 0.948682604173353
outer loop
vertex 25.0822337045846 -24.9618705777989 2.09338783006158
vertex 18.6037828821989 -24.0092826184224 2.13621071768933
vertex 18.5875912082892 -24.136725882722 2.09338783006157
endloop
endfacet
facet normal -0.0398566304720113 -0.313708089704876 0.948682604173353
outer loop
vertex 18.6037828821989 -24.0092826184224 2.13621071768933
vertex 25.0822337045846 -24.9618705777989 2.09338783006158
vertex 25.0984253784943 -24.8344273134993 2.13621071768933
endloop
endfacet
facet normal -0.050823262338505 -0.400025500198221 0.915093763062799
outer loop
vertex 25.0666153094089 -25.0848016147884 2.03878213895766
vertex 18.5875912082892 -24.136725882722 2.09338783006157
vertex 18.5719728131135 -24.2596569197115 2.03878213895766
endloop
endfacet
facet normal -0.050823262338505 -0.400025500198221 0.915093763062799
outer loop
vertex 18.5875912082892 -24.136725882722 2.09338783006157
vertex 25.0666153094089 -25.0848016147884 2.03878213895766
vertex 25.0822337045846 -24.9618705777989 2.09338783006158
endloop
endfacet
facet normal -0.0613477738730062 -0.482863019814533 0.87354436334763
outer loop
vertex 25.0517060600828 -25.2021510261571 1.97286866871031
vertex 18.5719728131135 -24.2596569197115 2.03878213895766
vertex 18.5570635637874 -24.3770063310803 1.9728686687103
endloop
endfacet
facet normal -0.0613477738730062 -0.482863019814533 0.87354436334763
outer loop
vertex 18.5719728131135 -24.2596569197115 2.03878213895766
vertex 25.0517060600828 -25.2021510261571 1.97286866871031
vertex 25.0666153094089 -25.0848016147884 2.03878213895766
endloop
endfacet
facet normal -0.0713386105329837 -0.561500030671633 0.824395850428045
outer loop
vertex 25.0376356547397 -25.3128979691193 1.89622081197491
vertex 18.5570635637874 -24.3770063310803 1.9728686687103
vertex 18.5429931584443 -24.4877532740425 1.89622081197491
endloop
endfacet
facet normal -0.0713386105329837 -0.561500030671633 0.824395850428045
outer loop
vertex 18.5570635637874 -24.3770063310803 1.9728686687103
vertex 25.0376356547397 -25.3128979691193 1.89622081197491
vertex 25.0517060600828 -25.2021510261571 1.97286866871031
endloop
endfacet
facet normal -0.0807088603057567 -0.63525245583809 0.768075775701735
outer loop
vertex 25.0245264942645 -25.4160790369014 1.80950534168786
vertex 18.5429931584443 -24.4877532740425 1.89622081197491
vertex 18.5298839979691 -24.5909343418245 1.80950534168786
endloop
endfacet
facet normal -0.0807088603057567 -0.63525245583809 0.768075775701735
outer loop
vertex 18.5429931584443 -24.4877532740425 1.89622081197491
vertex 25.0245264942645 -25.4160790369014 1.80950534168786
vertex 25.0376356547397 -25.3128979691193 1.89622081197491
endloop
endfacet
facet normal -0.0893770097710951 -0.70347871023652 0.7050740772205
outer loop
vertex 25.0124926175071 -25.510796639584 1.71347661069365
vertex 18.5298839979691 -24.5909343418245 1.80950534168786
vertex 18.5178501212117 -24.6856519445072 1.71347661069365
endloop
endfacet
facet normal -0.0893770097710951 -0.70347871023652 0.7050740772205
outer loop
vertex 18.5298839979691 -24.5909343418245 1.80950534168786
vertex 25.0124926175071 -25.510796639584 1.71347661069365
vertex 25.0245264942645 -25.4160790369014 1.80950534168786
endloop
endfacet
facet normal -0.0972676532005416 -0.76558528190299 0.63593881763451
outer loop
vertex 25.0016387092386 -25.5962268123917 1.60896998949929
vertex 18.5178501212117 -24.6856519445072 1.71347661069365
vertex 18.5069962129432 -24.7710821173148 1.60896998949929
endloop
endfacet
facet normal -0.0972676532005416 -0.76558528190299 0.63593881763451
outer loop
vertex 18.5178501212117 -24.6856519445072 1.71347661069365
vertex 25.0016387092386 -25.5962268123917 1.60896998949929
vertex 25.0124926175071 -25.510796639584 1.71347661069365
endloop
endfacet
facet normal -0.104312148524851 -0.82103189504998 0.561271416500759
outer loop
vertex 24.9920591894805 -25.6716263835046 1.49689459924205
vertex 18.5069962129432 -24.7710821173148 1.60896998949929
vertex 18.4974166931851 -24.8464816884277 1.49689459924204
endloop
endfacet
facet normal -0.104312148524851 -0.82103189504998 0.561271416500759
outer loop
vertex 18.5069962129432 -24.7710821173148 1.60896998949929
vertex 24.9920591894805 -25.6716263835046 1.49689459924205
vertex 25.0016387092386 -25.5962268123917 1.60896998949929
endloop
endfacet
facet normal -0.110449214463206 -0.869336210018753 0.481721418430499
outer loop
vertex 24.9838373921289 -25.7363394390384 1.37822540308777
vertex 18.4974166931851 -24.8464816884277 1.49689459924204
vertex 18.4891948958334 -24.9111947439615 1.37822540308776
endloop
endfacet
facet normal -0.110449214463206 -0.869336210018753 0.481721418430499
outer loop
vertex 18.4974166931851 -24.8464816884277 1.49689459924204
vertex 24.9838373921289 -25.7363394390384 1.37822540308777
vertex 24.9920591894805 -25.6716263835046 1.49689459924205
endloop
endfacet
facet normal -0.115625463619654 -0.910078019235317 0.397980842588511
outer loop
vertex 24.977044840018 -25.7898030289525 1.25399472485799
vertex 18.4891948958334 -24.9111947439615 1.37822540308776
vertex 18.4824023437226 -24.9646583338756 1.25399472485799
endloop
endfacet
facet normal -0.115625463619654 -0.910078019235317 0.397980842588511
outer loop
vertex 18.4891948958334 -24.9111947439615 1.37822540308776
vertex 24.977044840018 -25.7898030289525 1.25399472485799
vertex 24.9838373921289 -25.7363394390384 1.37822540308777
endloop
endfacet
facet normal -0.119795866909278 -0.942902902668595 0.310778162699044
outer loop
vertex 24.9717406227313 -25.8315520642496 1.12528326866683
vertex 18.4824023437226 -24.9646583338756 1.25399472485799
vertex 18.4770981264359 -25.0064073691727 1.12528326866683
endloop
endfacet
facet normal -0.119795866909278 -0.942902902668595 0.310778162699044
outer loop
vertex 18.4824023437226 -24.9646583338756 1.25399472485799
vertex 24.9717406227313 -25.8315520642496 1.12528326866683
vertex 24.977044840018 -25.7898030289525 1.25399472485799
endloop
endfacet
facet normal -0.122924145273987 -0.967525310991522 0.220871969926969
outer loop
vertex 24.9679708825704 -25.8612233628651 0.993210717689338
vertex 18.4770981264359 -25.0064073691727 1.12528326866683
vertex 18.473328386275 -25.0360786677883 0.993210717689335
endloop
endfacet
facet normal -0.122924145273987 -0.967525310991522 0.220871969926969
outer loop
vertex 18.4770981264359 -25.0064073691727 1.12528326866683
vertex 24.9679708825704 -25.8612233628651 0.993210717689338
vertex 24.9717406227313 -25.8315520642496 1.12528326866683
endloop
endfacet
facet normal -0.126036902491553 -0.992025553708338 0.0
outer loop
vertex 25.0984253784943 -24.8344273134993 2.13621071768933
vertex 18.6037828821989 -24.0092826184224 0.802710717689335
vertex 25.0984253784943 -24.8344273134993 0.802710717689335
endloop
endfacet
facet normal -0.126036902491553 -0.992025553708338 0.0
outer loop
vertex 18.6037828821989 -24.0092826184224 0.802710717689335
vertex 25.0984253784943 -24.8344273134993 2.13621071768933
vertex 18.6037828821989 -24.0092826184224 2.13621071768933
endloop
endfacet
facet normal 0.992025553708338 -0.126036902491553 0.0
outer loop
vertex 29.6833810738075 8.42054333468898 -5.04825
vertex 25.4526179038538 -24.8794274938022 11.4667819594486
vertex 25.4526179038538 -24.8794274938022 -5.04825
endloop
endfacet
facet normal 0.992025553708338 -0.126036902491553 0.0
outer loop
vertex 25.4526179038538 -24.8794274938022 11.4667819594486
vertex 29.6833810738075 8.42054333468898 -5.04825
vertex 28.6108163347955 -0.0215209184984823 9.96818195944859
endloop
endfacet
facet normal 0.992025553708338 -0.126036902491553 0.0
outer loop
vertex 28.6108163347955 -0.0215209184984823 9.96818195944859
vertex 29.6833810738075 8.42054333468898 -5.04825
vertex 29.6833810738075 8.42054333468898 9.96818195944859
endloop
endfacet
facet normal 0.992025553708338 -0.126036902491553 0.0
outer loop
vertex 28.6108163347955 -0.0215209184984823 11.4667819594486
vertex 25.4526179038538 -24.8794274938022 11.4667819594486
vertex 28.6108163347955 -0.0215209184984823 9.96818195944859
endloop
endfacet
facet normal 0.0 0.0 1.0
outer loop
vertex 27.7305787713326 8.6686469772436 8.55213195944859
vertex 23.625852306585 15.5075682689285 8.55213195944859
vertex 22.8359742906133 9.2905067522918 8.55213195944859
endloop
endfacet
facet normal 0.0 0.0 1.0
outer loop
vertex 23.625852306585 15.5075682689285 8.55213195944859
vertex 27.7305787713326 8.6686469772436 8.55213195944859
vertex 28.5204567873043 14.8857084938803 8.55213195944859
endloop
endfacet
facet normal 0.992025553708338 -0.126036902491553 -0.0
outer loop
vertex 23.625852306585 15.5075682689285 8.55213195944859
vertex 22.8359742906133 9.2905067522918 9.96818195944859
vertex 22.8359742906133 9.2905067522918 8.55213195944859
endloop
endfacet
facet normal 0.992025553708338 -0.126036902491553 -0.0
outer loop
vertex 22.8359742906133 9.2905067522918 9.96818195944859
vertex 23.625852306585 15.5075682689285 8.55213195944859
vertex 22.8359742906133 9.2905067522918 11.4667819594486
endloop
endfacet
facet normal 0.992025553708338 -0.126036902491553 -0.0
outer loop
vertex 22.8359742906133 9.2905067522918 11.4667819594486
vertex 23.625852306585 15.5075682689285 8.55213195944859
vertex 23.625852306585 15.5075682689285 11.4667819594486
endloop
endfacet
facet normal 0.126036902491553 0.992025553708338 0.0
outer loop
vertex 22.8359742906133 9.2905067522918 9.96818195944859
vertex 27.7305787713326 8.6686469772436 8.55213195944859
vertex 22.8359742906133 9.2905067522918 8.55213195944859
endloop
endfacet
facet normal 0.126036902491553 0.992025553708338 0.0
outer loop
vertex 27.7305787713326 8.6686469772436 8.55213195944859
vertex 22.8359742906133 9.2905067522918 9.96818195944859
vertex 27.7305787713326 8.6686469772436 9.96818195944859
endloop
endfacet
facet normal 0.0 0.0 1.0
outer loop
vertex 28.6108163347955 -0.0215209184984823 9.96818195944859
vertex 22.8359742906133 9.2905067522918 9.96818195944859
vertex 21.7634095516013 0.84844249910434 9.96818195944859
endloop
endfacet
facet normal 0.0 0.0 1.0
outer loop
vertex 22.8359742906133 9.2905067522918 9.96818195944859
vertex 28.6108163347955 -0.0215209184984823 9.96818195944859
vertex 27.7305787713326 8.6686469772436 9.96818195944859
endloop
endfacet
facet normal 0.0 0.0 1.0
outer loop
vertex 27.7305787713326 8.6686469772436 9.96818195944859
vertex 28.6108163347955 -0.0215209184984823 9.96818195944859
vertex 29.6833810738075 8.42054333468898 9.96818195944859
endloop
endfacet
facet normal 0.992025553708338 -0.126036902491554 -0.0
outer loop
vertex 22.8359742906133 9.2905067522918 9.96818195944859
vertex 21.7634095516013 0.84844249910434 11.4667819594486
vertex 21.7634095516013 0.84844249910434 9.96818195944859
endloop
endfacet
facet normal 0.992025553708338 -0.126036902491554 -0.0
outer loop
vertex 21.7634095516013 0.84844249910434 11.4667819594486
vertex 22.8359742906133 9.2905067522918 9.96818195944859
vertex 22.8359742906133 9.2905067522918 11.4667819594486
endloop
endfacet
facet normal 0.126036902491553 0.992025553708338 0.0
outer loop
vertex 21.7634095516013 0.84844249910434 11.4667819594486
vertex 28.6108163347955 -0.0215209184984823 9.96818195944859
vertex 21.7634095516013 0.84844249910434 9.96818195944859
endloop
endfacet
facet normal 0.126036902491553 0.992025553708338 0.0
outer loop
vertex 28.6108163347955 -0.0215209184984823 9.96818195944859
vertex 21.7634095516013 0.84844249910434 11.4667819594486
vertex 28.6108163347955 -0.0215209184984823 11.4667819594486
endloop
endfacet
endsolid 713 West Main Street
