solid 715 West Main Street
facet normal 0.0 0.0 1.0
outer loop
vertex 5.66725247301326 -22.3656957010627 11.42365
vertex 1.82628717471998 0.40433606307423 11.42365
vertex -0.959676630869186 -21.5237439850387 11.42365
endloop
endfacet
facet normal 0.0 0.0 1.0
outer loop
vertex 1.82628717471998 0.40433606307423 11.42365
vertex 5.66725247301326 -22.3656957010627 11.42365
vertex 8.45321627860242 -0.437615652949847 11.42365
endloop
endfacet
facet normal 0.992025553708338 -0.126036902491553 0.0
outer loop
vertex 8.45321627860242 -0.437615652949847 -0.43815
vertex 5.66725247301326 -22.3656957010627 11.42365
vertex 5.66725247301326 -22.3656957010627 -0.43815
endloop
endfacet
facet normal 0.992025553708338 -0.126036902491553 0.0
outer loop
vertex 5.66725247301326 -22.3656957010627 11.42365
vertex 8.45321627860242 -0.437615652949847 -0.43815
vertex 8.45321627860242 -0.437615652949847 11.42365
endloop
endfacet
facet normal -0.126036902491553 -0.992025553708338 -8.51502499635505e-17
outer loop
vertex 5.66725247301326 -22.3656957010627 11.42365
vertex -0.959676630869186 -21.5237439850387 -0.43815
vertex 5.66725247301326 -22.3656957010627 -0.43815
endloop
endfacet
facet normal -0.126036902491553 -0.992025553708338 -8.51502499635505e-17
outer loop
vertex -0.959676630869186 -21.5237439850387 -0.43815
vertex 5.66725247301326 -22.3656957010627 11.42365
vertex -0.959676630869187 -21.5237439850387 8.82041996044229
endloop
endfacet
facet normal -0.126036902491553 -0.992025553708338 -8.51502499635505e-17
outer loop
vertex -0.959676630869187 -21.5237439850387 8.82041996044229
vertex 5.66725247301326 -22.3656957010627 11.42365
vertex -0.959676630869186 -21.5237439850387 11.42365
endloop
endfacet
facet normal -0.992025553708338 0.126036902491553 -1.29128228183533e-17
outer loop
vertex 1.82628717471998 0.40433606307423 8.82041996044229
vertex -0.959676630869186 -21.5237439850387 -0.43815
vertex -0.959676630869187 -21.5237439850387 8.82041996044229
endloop
endfacet
facet normal -0.992025553708338 0.126036902491553 -1.29128228183533e-17
outer loop
vertex -0.959676630869186 -21.5237439850387 -0.43815
vertex 1.82628717471998 0.40433606307423 8.82041996044229
vertex 1.82628717471998 0.40433606307423 -0.43815
endloop
endfacet
facet normal 0.126036902491554 0.992025553708338 -3.15371296161299e-18
outer loop
vertex 1.82628717471998 0.40433606307423 8.82041996044229
vertex 8.45321627860242 -0.437615652949847 -0.43815
vertex 1.82628717471998 0.40433606307423 -0.43815
endloop
endfacet
facet normal 0.126036902491554 0.992025553708338 -3.15371296161299e-18
outer loop
vertex 8.45321627860242 -0.437615652949847 -0.43815
vertex 1.82628717471998 0.40433606307423 8.82041996044229
vertex 8.45321627860242 -0.437615652949847 11.42365
endloop
endfacet
facet normal 0.126036902491554 0.992025553708338 -3.15371296161299e-18
outer loop
vertex 8.45321627860242 -0.437615652949847 11.42365
vertex 1.82628717471998 0.40433606307423 8.82041996044229
vertex 1.82628717471998 0.40433606307423 11.42365
endloop
endfacet
facet normal -0.992025553708338 0.126036902491554 8.37814402889774e-17
outer loop
vertex -0.959676630869186 -21.5237439850387 11.42365
vertex 1.82628717471998 0.40433606307423 8.82041996044229
vertex -0.959676630869187 -21.5237439850387 8.82041996044229
endloop
endfacet
facet normal -0.992025553708338 0.126036902491554 8.37814402889774e-17
outer loop
vertex 1.82628717471998 0.40433606307423 8.82041996044229
vertex -0.959676630869186 -21.5237439850387 11.42365
vertex 1.82628717471998 0.40433606307423 11.42365
endloop
endfacet
endsolid 715 West Main Street
