solid 717 West Main Street
facet normal -0.37963174388698 0.0482322344501312 -0.923879532511289
outer loop
vertex -1.1723095637596 -21.4213914457605 7.32364703341779
vertex -1.15341335885244 -21.5582141502039 7.30873939286954
vertex -1.18911658470685 -21.5536780533475 7.32364703341779
endloop
endfacet
facet normal -0.37963174388698 0.0482322344501312 -0.923879532511289
outer loop
vertex -1.15341335885244 -21.5582141502039 7.30873939286954
vertex -1.1723095637596 -21.4213914457605 7.32364703341779
vertex -1.13660633790519 -21.4259275426169 7.30873939286954
endloop
endfacet
facet normal -0.129485318110549 0.0164511169614338 -0.991444861373809
outer loop
vertex -1.13660633790519 -21.4259275426169 7.30873939286954
vertex -1.11509907808078 -21.5630819817347 7.30365467429752
vertex -1.15341335885244 -21.5582141502039 7.30873939286954
endloop
endfacet
facet normal -0.129485318110549 0.0164511169614338 -0.991444861373809
outer loop
vertex -1.11509907808078 -21.5630819817347 7.30365467429752
vertex -1.13660633790519 -21.4259275426169 7.30873939286954
vertex -1.09829205713353 -21.4307953741477 7.30365467429752
endloop
endfacet
facet normal 0.129485318110549 -0.016451116961434 -0.991444861373809
outer loop
vertex -1.09829205713353 -21.4307953741477 7.30365467429752
vertex -1.07678479730913 -21.5679498132654 7.30873939286954
vertex -1.11509907808078 -21.5630819817347 7.30365467429752
endloop
endfacet
facet normal 0.129485318110549 -0.016451116961434 -0.991444861373809
outer loop
vertex -1.07678479730913 -21.5679498132654 7.30873939286954
vertex -1.09829205713353 -21.4307953741477 7.30365467429752
vertex -1.05997777636188 -21.4356632056784 7.30873939286954
endloop
endfacet
facet normal 0.379631743886982 -0.0482322344501316 -0.923879532511288
outer loop
vertex -1.05997777636188 -21.4356632056784 7.30873939286954
vertex -1.04108157145472 -21.5724859101218 7.32364703341779
vertex -1.07678479730913 -21.5679498132654 7.30873939286954
endloop
endfacet
facet normal 0.379631743886982 -0.0482322344501316 -0.923879532511288
outer loop
vertex -1.04108157145472 -21.5724859101218 7.32364703341779
vertex -1.05997777636188 -21.4356632056784 7.30873939286954
vertex -1.02427455050747 -21.4401993025348 7.32364703341779
endloop
endfacet
facet normal 0.603906893688641 -0.0767264048685894 -0.793353340291246
outer loop
vertex -1.02427455050747 -21.4401993025348 7.32364703341779
vertex -1.01042251635716 -21.5763811447994 7.34736166487496
vertex -1.04108157145472 -21.5724859101218 7.32364703341779
endloop
endfacet
facet normal 0.603906893688641 -0.0767264048685894 -0.793353340291246
outer loop
vertex -1.01042251635716 -21.5763811447994 7.34736166487496
vertex -1.02427455050747 -21.4401993025348 7.32364703341779
vertex -0.993615495409914 -21.4440945372124 7.34736166487496
endloop
endfacet
facet normal 0.787026786688777 -0.0999917975916356 -0.608761429008714
outer loop
vertex -1.01042251635716 -21.5763811447994 7.34736166487496
vertex -0.970089975007626 -21.447083455905 7.37826717429752
vertex -0.986896995954875 -21.579370063492 7.37826717429752
endloop
endfacet
facet normal 0.787026786688777 -0.0999917975916356 -0.608761429008714
outer loop
vertex -0.970089975007626 -21.447083455905 7.37826717429752
vertex -1.01042251635716 -21.5763811447994 7.34736166487496
vertex -0.993615495409914 -21.4440945372124 7.34736166487496
endloop
endfacet
facet normal 0.916512104799309 -0.116442914553067 -0.382683432365091
outer loop
vertex -0.986896995954875 -21.579370063492 7.37826717429752
vertex -0.95530121463826 -21.4489623687431 7.4142574022921
vertex -0.972108235585509 -21.5812489763301 7.4142574022921
endloop
endfacet
facet normal 0.916512104799309 -0.116442914553067 -0.382683432365091
outer loop
vertex -0.95530121463826 -21.4489623687431 7.4142574022921
vertex -0.986896995954875 -21.579370063492 7.37826717429752
vertex -0.970089975007626 -21.447083455905 7.37826717429752
endloop
endfacet
facet normal 0.983538637575641 -0.124958639318723 -0.130526192220053
outer loop
vertex -0.972108235585509 -21.5812489763301 7.4142574022921
vertex -0.950257043881407 -21.449603230922 7.45287967429752
vertex -0.967064064828656 -21.581889838509 7.45287967429752
endloop
endfacet
facet normal 0.983538637575641 -0.124958639318723 -0.130526192220053
outer loop
vertex -0.950257043881407 -21.449603230922 7.45287967429752
vertex -0.972108235585509 -21.5812489763301 7.4142574022921
vertex -0.95530121463826 -21.4489623687431 7.4142574022921
endloop
endfacet
facet normal 0.992025553708338 -0.126036902491554 0.0
outer loop
vertex -4.25742223355658 -21.0294277072408 7.45111719637841
vertex -4.27422925450383 -21.1617143148278 8.29566719637841
vertex -4.27422925450383 -21.1617143148278 7.45111719637841
endloop
endfacet
facet normal 0.992025553708338 -0.126036902491554 0.0
outer loop
vertex -4.27422925450383 -21.1617143148278 8.29566719637841
vertex -4.25742223355658 -21.0294277072408 7.45111719637841
vertex -4.25742223355658 -21.0294277072408 8.29566719637841
endloop
endfacet
facet normal -1.56969809683039e-17 -1.23549578962991e-16 -1.0
outer loop
vertex -4.25742223355658 -21.0294277072408 8.29566719637841
vertex -1.26313409133291 -21.5442741249604 8.29566719637841
vertex -4.27422925450383 -21.1617143148278 8.29566719637841
endloop
endfacet
facet normal -1.56969809683039e-17 -1.23549578962991e-16 -1.0
outer loop
vertex -1.26313409133291 -21.5442741249604 8.29566719637841
vertex -4.25742223355658 -21.0294277072408 8.29566719637841
vertex -1.24632707038566 -21.4119875173734 8.29566719637841
endloop
endfacet
facet normal -0.992025553708338 0.126036902491554 -8.56713211447072e-16
outer loop
vertex -1.26313409133291 -21.5442741249604 8.29566719637841
vertex -1.24632707038566 -21.4119875173734 7.45287967429752
vertex -1.26313409133291 -21.5442741249604 7.45287967429752
endloop
endfacet
facet normal -0.992025553708338 0.126036902491554 -8.56713211447072e-16
outer loop
vertex -1.24632707038566 -21.4119875173734 7.45287967429752
vertex -1.26313409133291 -21.5442741249604 8.29566719637841
vertex -1.24632707038566 -21.4119875173734 8.29566719637841
endloop
endfacet
facet normal -0.983538637575641 0.124958639318723 -0.130526192220053
outer loop
vertex -1.26313409133291 -21.5442741249604 7.45287967429752
vertex -1.24128289962881 -21.4126283795522 7.4142574022921
vertex -1.25808992057606 -21.5449149871392 7.4142574022921
endloop
endfacet
facet normal -0.983538637575641 0.124958639318723 -0.130526192220053
outer loop
vertex -1.24128289962881 -21.4126283795522 7.4142574022921
vertex -1.26313409133291 -21.5442741249604 7.45287967429752
vertex -1.24632707038566 -21.4119875173734 7.45287967429752
endloop
endfacet
facet normal -0.916512104799309 0.116442914553067 -0.382683432365091
outer loop
vertex -1.25808992057606 -21.5449149871392 7.4142574022921
vertex -1.22649413925944 -21.4145072923904 7.37826717429752
vertex -1.24330116020669 -21.5467938999774 7.37826717429752
endloop
endfacet
facet normal -0.916512104799309 0.116442914553067 -0.382683432365091
outer loop
vertex -1.22649413925944 -21.4145072923904 7.37826717429752
vertex -1.25808992057606 -21.5449149871392 7.4142574022921
vertex -1.24128289962881 -21.4126283795522 7.4142574022921
endloop
endfacet
facet normal -0.787026786688777 0.0999917975916354 -0.608761429008714
outer loop
vertex -1.24330116020669 -21.5467938999774 7.37826717429752
vertex -1.20296861885715 -21.417496211083 7.34736166487496
vertex -1.2197756398044 -21.54978281867 7.34736166487496
endloop
endfacet
facet normal -0.787026786688777 0.0999917975916354 -0.608761429008714
outer loop
vertex -1.20296861885715 -21.417496211083 7.34736166487496
vertex -1.24330116020669 -21.5467938999774 7.37826717429752
vertex -1.22649413925944 -21.4145072923904 7.37826717429752
endloop
endfacet
facet normal -0.603906893688641 0.0767264048685892 -0.793353340291246
outer loop
vertex -1.20296861885715 -21.417496211083 7.34736166487496
vertex -1.18911658470685 -21.5536780533475 7.32364703341779
vertex -1.2197756398044 -21.54978281867 7.34736166487496
endloop
endfacet
facet normal -0.603906893688641 0.0767264048685892 -0.793353340291246
outer loop
vertex -1.18911658470685 -21.5536780533475 7.32364703341779
vertex -1.20296861885715 -21.417496211083 7.34736166487496
vertex -1.1723095637596 -21.4213914457605 7.32364703341779
endloop
endfacet
facet normal 0.98353863757564 -0.124958639318723 -0.130526192220058
outer loop
vertex -4.27959539360686 -21.1610325465524 7.41002967296839
vertex -4.25742223355658 -21.0294277072408 7.45111719637841
vertex -4.27422925450383 -21.1617143148278 7.45111719637841
endloop
endfacet
facet normal 0.98353863757564 -0.124958639318723 -0.130526192220058
outer loop
vertex -4.25742223355658 -21.0294277072408 7.45111719637841
vertex -4.27959539360686 -21.1610325465524 7.41002967296839
vertex -4.26278837265961 -21.0287459389654 7.41002967296839
endloop
endfacet
facet normal 0.129485318110543 -0.0164511169614333 -0.99144486137381
outer loop
vertex -4.41490629020778 -21.0094193489702 7.29236719637841
vertex -4.39095343799369 -21.1468845007389 7.29777647145502
vertex -4.43171331115503 -21.1417059565572 7.29236719637841
endloop
endfacet
facet normal 0.129485318110543 -0.0164511169614333 -0.99144486137381
outer loop
vertex -4.39095343799369 -21.1468845007389 7.29777647145502
vertex -4.41490629020778 -21.0094193489702 7.29236719637841
vertex -4.37414641704644 -21.0145978931519 7.29777647145502
endloop
endfacet
facet normal 0.379631743886968 -0.0482322344501299 -0.923879532511294
outer loop
vertex -4.37414641704644 -21.0145978931519 7.29777647145502
vertex -4.35297128282943 -21.1517101356925 7.31363566352763
vertex -4.39095343799369 -21.1468845007389 7.29777647145502
endloop
endfacet
facet normal 0.379631743886968 -0.0482322344501299 -0.923879532511294
outer loop
vertex -4.35297128282943 -21.1517101356925 7.31363566352763
vertex -4.37414641704644 -21.0145978931519 7.29777647145502
vertex -4.33616426188218 -21.0194235281055 7.31363566352763
endloop
endfacet
facet normal 0.603906893688655 -0.0767264048685911 -0.793353340291235
outer loop
vertex -4.33616426188218 -21.0194235281055 7.31363566352763
vertex -4.3203552667682 -21.1558540023707 7.33886399486505
vertex -4.35297128282943 -21.1517101356925 7.31363566352763
endloop
endfacet
facet normal 0.603906893688655 -0.0767264048685911 -0.793353340291235
outer loop
vertex -4.3203552667682 -21.1558540023707 7.33886399486505
vertex -4.33616426188218 -21.0194235281055 7.31363566352763
vertex -4.30354824582095 -21.0235673947837 7.33886399486505
endloop
endfacet
facet normal 0.787026786688774 -0.0999917975916352 -0.608761429008718
outer loop
vertex -4.3203552667682 -21.1558540023707 7.33886399486505
vertex -4.27852109645681 -21.0267470955205 7.37174219637841
vertex -4.29532811740406 -21.1590337031075 7.37174219637841
endloop
endfacet
facet normal 0.787026786688774 -0.0999917975916352 -0.608761429008718
outer loop
vertex -4.27852109645681 -21.0267470955205 7.37174219637841
vertex -4.3203552667682 -21.1558540023707 7.33886399486505
vertex -4.30354824582095 -21.0235673947837 7.33886399486505
endloop
endfacet
facet normal 0.916512104799314 -0.116442914553068 -0.382683432365079
outer loop
vertex -4.29532811740406 -21.1590337031075 7.37174219637841
vertex -4.26278837265961 -21.0287459389654 7.41002967296839
vertex -4.27959539360686 -21.1610325465524 7.41002967296839
endloop
endfacet
facet normal 0.916512104799314 -0.116442914553068 -0.382683432365079
outer loop
vertex -4.26278837265961 -21.0287459389654 7.41002967296839
vertex -4.29532811740406 -21.1590337031075 7.37174219637841
vertex -4.27852109645681 -21.0267470955205 7.37174219637841
endloop
endfacet
facet normal -0.379631743886968 0.0482322344501297 -0.923879532511294
outer loop
vertex -4.49364831853338 -20.999415169835 7.31363566352763
vertex -4.47247318431636 -21.1365274123756 7.29777647145502
vertex -4.51045533948063 -21.131701777422 7.31363566352763
endloop
endfacet
facet normal -0.379631743886968 0.0482322344501297 -0.923879532511294
outer loop
vertex -4.47247318431636 -21.1365274123756 7.29777647145502
vertex -4.49364831853338 -20.999415169835 7.31363566352763
vertex -4.45566616336911 -21.0042408047886 7.29777647145502
endloop
endfacet
facet normal -0.129485318110541 0.0164511169614328 -0.99144486137381
outer loop
vertex -4.45566616336911 -21.0042408047886 7.29777647145502
vertex -4.43171331115503 -21.1417059565572 7.29236719637841
vertex -4.47247318431636 -21.1365274123756 7.29777647145502
endloop
endfacet
facet normal -0.129485318110541 0.0164511169614328 -0.99144486137381
outer loop
vertex -4.43171331115503 -21.1417059565572 7.29236719637841
vertex -4.45566616336911 -21.0042408047886 7.29777647145502
vertex -4.41490629020778 -21.0094193489702 7.29236719637841
endloop
endfacet
facet normal -0.916512104799314 0.116442914553068 -0.382683432365079
outer loop
vertex -4.58383122870319 -21.1223793665621 7.41002967296839
vertex -4.55129148395874 -20.9920916024199 7.37174219637841
vertex -4.56809850490599 -21.1243782100069 7.37174219637841
endloop
endfacet
facet normal -0.916512104799314 0.116442914553068 -0.382683432365079
outer loop
vertex -4.55129148395874 -20.9920916024199 7.37174219637841
vertex -4.58383122870319 -21.1223793665621 7.41002967296839
vertex -4.56702420775594 -20.9900927589751 7.41002967296839
endloop
endfacet
facet normal -0.787026786688774 0.0999917975916351 -0.608761429008718
outer loop
vertex -4.56809850490599 -21.1243782100069 7.37174219637841
vertex -4.52626433459461 -20.9952713031567 7.33886399486505
vertex -4.54307135554186 -21.1275579107437 7.33886399486505
endloop
endfacet
facet normal -0.787026786688774 0.0999917975916351 -0.608761429008718
outer loop
vertex -4.52626433459461 -20.9952713031567 7.33886399486505
vertex -4.56809850490599 -21.1243782100069 7.37174219637841
vertex -4.55129148395874 -20.9920916024199 7.37174219637841
endloop
endfacet
facet normal -0.603906893688663 0.0767264048685919 -0.793353340291229
outer loop
vertex -4.52626433459461 -20.9952713031567 7.33886399486505
vertex -4.51045533948063 -21.131701777422 7.31363566352763
vertex -4.54307135554186 -21.1275579107437 7.33886399486505
endloop
endfacet
facet normal -0.603906893688663 0.0767264048685919 -0.793353340291229
outer loop
vertex -4.51045533948063 -21.131701777422 7.31363566352763
vertex -4.52626433459461 -20.9952713031567 7.33886399486505
vertex -4.49364831853338 -20.999415169835 7.31363566352763
endloop
endfacet
facet normal 0.0 0.0 1.0
outer loop
vertex -0.967064064828656 -21.581889838509 8.8519
vertex -1.90727702522384 -0.0125346447600489 8.8519
vertex -4.58919736780623 -21.1216975982867 8.8519
endloop
endfacet
facet normal 0.0 0.0 1.0
outer loop
vertex -1.90727702522384 -0.0125346447600489 8.8519
vertex -0.967064064828656 -21.581889838509 8.8519
vertex 1.71485627775374 -0.472726884982334 8.8519
endloop
endfacet
facet normal -0.992025553708338 0.126036902491553 8.19814113107691e-18
outer loop
vertex -1.90727702522384 -0.0125346447600489 8.8519
vertex -4.58919736780623 -21.1216975982867 7.45111719637841
vertex -4.58919736780623 -21.1216975982867 8.8519
endloop
endfacet
facet normal -0.992025553708338 0.126036902491553 8.19814113107691e-18
outer loop
vertex -4.58919736780623 -21.1216975982867 7.45111719637841
vertex -1.90727702522384 -0.0125346447600489 8.8519
vertex -4.57239034685898 -20.9894109906997 7.45111719637841
endloop
endfacet
facet normal -0.992025553708338 0.126036902491553 8.19814113107691e-18
outer loop
vertex -4.57239034685898 -20.9894109906997 7.45111719637841
vertex -1.90727702522384 -0.0125346447600489 8.8519
vertex -4.57239034685898 -20.9894109906997 -0.32385
endloop
endfacet
facet normal -0.992025553708338 0.126036902491553 8.19814113107691e-18
outer loop
vertex -4.57239034685898 -20.9894109906997 -0.32385
vertex -1.90727702522384 -0.0125346447600489 8.8519
vertex -1.90727702522384 -0.0125346447600489 -0.32385
endloop
endfacet
facet normal 0.126036902491553 0.992025553708338 0.0
outer loop
vertex -1.90727702522384 -0.0125346447600489 8.8519
vertex 1.71485627775374 -0.472726884982334 -0.32385
vertex -1.90727702522384 -0.0125346447600489 -0.32385
endloop
endfacet
facet normal 0.126036902491553 0.992025553708338 0.0
outer loop
vertex 1.71485627775374 -0.472726884982334 -0.32385
vertex -1.90727702522384 -0.0125346447600489 8.8519
vertex 1.71485627775374 -0.472726884982334 8.8519
endloop
endfacet
facet normal 0.992025553708338 -0.126036902491553 -0.0
outer loop
vertex 1.71485627775374 -0.472726884982334 -0.32385
vertex -0.950257043881407 -21.449603230922 7.45287967429752
vertex -0.950257043881407 -21.449603230922 -0.32385
endloop
endfacet
facet normal 0.992025553708338 -0.126036902491553 -0.0
outer loop
vertex -0.950257043881407 -21.449603230922 7.45287967429752
vertex -0.967064064828656 -21.581889838509 8.8519
vertex -0.967064064828656 -21.581889838509 7.45287967429752
endloop
endfacet
facet normal 0.992025553708338 -0.126036902491553 -0.0
outer loop
vertex -0.967064064828656 -21.581889838509 8.8519
vertex -0.950257043881407 -21.449603230922 7.45287967429752
vertex 1.71485627775374 -0.472726884982334 8.8519
endloop
endfacet
facet normal 0.992025553708338 -0.126036902491553 -0.0
outer loop
vertex 1.71485627775374 -0.472726884982334 8.8519
vertex -0.950257043881407 -21.449603230922 7.45287967429752
vertex 1.71485627775374 -0.472726884982334 -0.32385
endloop
endfacet
facet normal -0.126036902491554 -0.992025553708338 2.47839261936547e-16
outer loop
vertex -0.950257043881407 -21.449603230922 -0.32385
vertex -0.970089975007626 -21.447083455905 7.37826717429752
vertex -4.57239034685898 -20.9894109906997 -0.32385
endloop
endfacet
facet normal -0.126036902491554 -0.992025553708338 2.47839261936547e-16
outer loop
vertex -0.970089975007626 -21.447083455905 7.37826717429752
vertex -0.950257043881407 -21.449603230922 -0.32385
vertex -0.95530121463826 -21.4489623687431 7.4142574022921
endloop
endfacet
facet normal -0.126036902491554 -0.992025553708338 2.47839261936547e-16
outer loop
vertex -0.95530121463826 -21.4489623687431 7.4142574022921
vertex -0.950257043881407 -21.449603230922 -0.32385
vertex -0.950257043881407 -21.449603230922 7.45287967429752
endloop
endfacet
facet normal -0.126036902491554 -0.992025553708338 2.47839261936547e-16
outer loop
vertex -4.57239034685898 -20.9894109906997 -0.32385
vertex -0.970089975007626 -21.447083455905 7.37826717429752
vertex -0.993615495409914 -21.4440945372124 7.34736166487496
endloop
endfacet
facet normal -0.126036902491554 -0.992025553708338 2.47839261936547e-16
outer loop
vertex -4.57239034685898 -20.9894109906997 -0.32385
vertex -0.993615495409914 -21.4440945372124 7.34736166487496
vertex -1.02427455050747 -21.4401993025348 7.32364703341779
endloop
endfacet
facet normal -0.126036902491554 -0.992025553708338 2.47839261936547e-16
outer loop
vertex -4.57239034685898 -20.9894109906997 -0.32385
vertex -1.02427455050747 -21.4401993025348 7.32364703341779
vertex -1.05997777636188 -21.4356632056784 7.30873939286954
endloop
endfacet
facet normal -0.126036902491554 -0.992025553708338 2.47839261936547e-16
outer loop
vertex -4.57239034685898 -20.9894109906997 -0.32385
vertex -1.05997777636188 -21.4356632056784 7.30873939286954
vertex -1.09829205713353 -21.4307953741477 7.30365467429752
endloop
endfacet
facet normal -0.126036902491554 -0.992025553708338 2.47839261936547e-16
outer loop
vertex -4.57239034685898 -20.9894109906997 -0.32385
vertex -1.09829205713353 -21.4307953741477 7.30365467429752
vertex -4.41490629020778 -21.0094193489702 7.29236719637841
endloop
endfacet
facet normal -0.126036902491554 -0.992025553708338 2.47839261936547e-16
outer loop
vertex -4.41490629020778 -21.0094193489702 7.29236719637841
vertex -1.09829205713353 -21.4307953741477 7.30365467429752
vertex -4.37414641704644 -21.0145978931519 7.29777647145502
endloop
endfacet
facet normal -0.126036902491554 -0.992025553708338 2.47839261936547e-16
outer loop
vertex -1.09829205713353 -21.4307953741477 7.30365467429752
vertex -4.33616426188218 -21.0194235281055 7.31363566352763
vertex -4.37414641704644 -21.0145978931519 7.29777647145502
endloop
endfacet
facet normal -0.126036902491554 -0.992025553708338 2.47839261936547e-16
outer loop
vertex -4.33616426188218 -21.0194235281055 7.31363566352763
vertex -1.09829205713353 -21.4307953741477 7.30365467429752
vertex -1.13660633790519 -21.4259275426169 7.30873939286954
endloop
endfacet
facet normal -0.126036902491554 -0.992025553708338 2.47839261936547e-16
outer loop
vertex -4.33616426188218 -21.0194235281055 7.31363566352763
vertex -1.13660633790519 -21.4259275426169 7.30873939286954
vertex -1.1723095637596 -21.4213914457605 7.32364703341779
endloop
endfacet
facet normal -0.126036902491554 -0.992025553708338 2.47839261936547e-16
outer loop
vertex -4.33616426188218 -21.0194235281055 7.31363566352763
vertex -1.1723095637596 -21.4213914457605 7.32364703341779
vertex -4.30354824582095 -21.0235673947837 7.33886399486505
endloop
endfacet
facet normal -0.126036902491554 -0.992025553708338 2.47839261936547e-16
outer loop
vertex -4.30354824582095 -21.0235673947837 7.33886399486505
vertex -1.1723095637596 -21.4213914457605 7.32364703341779
vertex -1.20296861885715 -21.417496211083 7.34736166487496
endloop
endfacet
facet normal -0.126036902491554 -0.992025553708338 2.47839261936547e-16
outer loop
vertex -4.30354824582095 -21.0235673947837 7.33886399486505
vertex -1.20296861885715 -21.417496211083 7.34736166487496
vertex -4.27852109645681 -21.0267470955205 7.37174219637841
endloop
endfacet
facet normal -0.126036902491554 -0.992025553708338 2.47839261936547e-16
outer loop
vertex -4.27852109645681 -21.0267470955205 7.37174219637841
vertex -1.20296861885715 -21.417496211083 7.34736166487496
vertex -1.22649413925944 -21.4145072923904 7.37826717429752
endloop
endfacet
facet normal -0.126036902491554 -0.992025553708338 2.47839261936547e-16
outer loop
vertex -4.27852109645681 -21.0267470955205 7.37174219637841
vertex -1.22649413925944 -21.4145072923904 7.37826717429752
vertex -4.26278837265961 -21.0287459389654 7.41002967296839
endloop
endfacet
facet normal -0.126036902491554 -0.992025553708338 2.47839261936547e-16
outer loop
vertex -4.26278837265961 -21.0287459389654 7.41002967296839
vertex -1.22649413925944 -21.4145072923904 7.37826717429752
vertex -1.24128289962881 -21.4126283795522 7.4142574022921
endloop
endfacet
facet normal -0.126036902491554 -0.992025553708338 2.47839261936547e-16
outer loop
vertex -4.26278837265961 -21.0287459389654 7.41002967296839
vertex -1.24128289962881 -21.4126283795522 7.4142574022921
vertex -4.25742223355658 -21.0294277072408 7.45111719637841
endloop
endfacet
facet normal -0.126036902491554 -0.992025553708338 2.47839261936547e-16
outer loop
vertex -4.25742223355658 -21.0294277072408 7.45111719637841
vertex -1.24128289962881 -21.4126283795522 7.4142574022921
vertex -1.24632707038566 -21.4119875173734 7.45287967429752
endloop
endfacet
facet normal -0.126036902491554 -0.992025553708338 2.47839261936547e-16
outer loop
vertex -4.25742223355658 -21.0294277072408 7.45111719637841
vertex -1.24632707038566 -21.4119875173734 7.45287967429752
vertex -4.25742223355658 -21.0294277072408 8.29566719637841
endloop
endfacet
facet normal -0.126036902491554 -0.992025553708338 2.47839261936547e-16
outer loop
vertex -4.25742223355658 -21.0294277072408 8.29566719637841
vertex -1.24632707038566 -21.4119875173734 7.45287967429752
vertex -1.24632707038566 -21.4119875173734 8.29566719637841
endloop
endfacet
facet normal -0.126036902491554 -0.992025553708338 2.47839261936547e-16
outer loop
vertex -4.57239034685898 -20.9894109906997 -0.32385
vertex -4.56702420775594 -20.9900927589751 7.41002967296839
vertex -4.57239034685898 -20.9894109906997 7.45111719637841
endloop
endfacet
facet normal -0.126036902491554 -0.992025553708338 2.47839261936547e-16
outer loop
vertex -4.56702420775594 -20.9900927589751 7.41002967296839
vertex -4.57239034685898 -20.9894109906997 -0.32385
vertex -4.55129148395874 -20.9920916024199 7.37174219637841
endloop
endfacet
facet normal -0.126036902491554 -0.992025553708338 2.47839261936547e-16
outer loop
vertex -4.55129148395874 -20.9920916024199 7.37174219637841
vertex -4.57239034685898 -20.9894109906997 -0.32385
vertex -4.52626433459461 -20.9952713031567 7.33886399486505
endloop
endfacet
facet normal -0.126036902491554 -0.992025553708338 2.47839261936547e-16
outer loop
vertex -4.52626433459461 -20.9952713031567 7.33886399486505
vertex -4.57239034685898 -20.9894109906997 -0.32385
vertex -4.49364831853338 -20.999415169835 7.31363566352763
endloop
endfacet
facet normal -0.126036902491554 -0.992025553708338 2.47839261936547e-16
outer loop
vertex -4.49364831853338 -20.999415169835 7.31363566352763
vertex -4.57239034685898 -20.9894109906997 -0.32385
vertex -4.45566616336911 -21.0042408047886 7.29777647145502
endloop
endfacet
facet normal -0.126036902491554 -0.992025553708338 2.47839261936547e-16
outer loop
vertex -4.45566616336911 -21.0042408047886 7.29777647145502
vertex -4.57239034685898 -20.9894109906997 -0.32385
vertex -4.41490629020778 -21.0094193489702 7.29236719637841
endloop
endfacet
facet normal -0.126036902491554 -0.992025553708338 1.24542738340907e-16
outer loop
vertex -1.07678479730913 -21.5679498132654 7.30873939286954
vertex -1.15341335885244 -21.5582141502039 7.30873939286954
vertex -1.11509907808078 -21.5630819817347 7.30365467429752
endloop
endfacet
facet normal -0.126036902491554 -0.992025553708338 1.24542738340907e-16
outer loop
vertex -1.15341335885244 -21.5582141502039 7.30873939286954
vertex -1.07678479730913 -21.5679498132654 7.30873939286954
vertex -1.04108157145472 -21.5724859101218 7.32364703341779
endloop
endfacet
facet normal -0.126036902491554 -0.992025553708338 1.24542738340907e-16
outer loop
vertex -1.15341335885244 -21.5582141502039 7.30873939286954
vertex -1.04108157145472 -21.5724859101218 7.32364703341779
vertex -1.18911658470685 -21.5536780533475 7.32364703341779
endloop
endfacet
facet normal -0.126036902491554 -0.992025553708338 1.24542738340907e-16
outer loop
vertex -1.18911658470685 -21.5536780533475 7.32364703341779
vertex -1.04108157145472 -21.5724859101218 7.32364703341779
vertex -1.01042251635716 -21.5763811447994 7.34736166487496
endloop
endfacet
facet normal -0.126036902491554 -0.992025553708338 1.24542738340907e-16
outer loop
vertex -1.18911658470685 -21.5536780533475 7.32364703341779
vertex -1.01042251635716 -21.5763811447994 7.34736166487496
vertex -1.2197756398044 -21.54978281867 7.34736166487496
endloop
endfacet
facet normal -0.126036902491554 -0.992025553708338 1.24542738340907e-16
outer loop
vertex -1.2197756398044 -21.54978281867 7.34736166487496
vertex -1.01042251635716 -21.5763811447994 7.34736166487496
vertex -0.986896995954875 -21.579370063492 7.37826717429752
endloop
endfacet
facet normal -0.126036902491554 -0.992025553708338 1.24542738340907e-16
outer loop
vertex -1.2197756398044 -21.54978281867 7.34736166487496
vertex -0.986896995954875 -21.579370063492 7.37826717429752
vertex -1.24330116020669 -21.5467938999774 7.37826717429752
endloop
endfacet
facet normal -0.126036902491554 -0.992025553708338 1.24542738340907e-16
outer loop
vertex -1.24330116020669 -21.5467938999774 7.37826717429752
vertex -0.986896995954875 -21.579370063492 7.37826717429752
vertex -0.972108235585509 -21.5812489763301 7.4142574022921
endloop
endfacet
facet normal -0.126036902491554 -0.992025553708338 1.24542738340907e-16
outer loop
vertex -1.24330116020669 -21.5467938999774 7.37826717429752
vertex -0.972108235585509 -21.5812489763301 7.4142574022921
vertex -1.25808992057606 -21.5449149871392 7.4142574022921
endloop
endfacet
facet normal -0.126036902491554 -0.992025553708338 1.24542738340907e-16
outer loop
vertex -1.25808992057606 -21.5449149871392 7.4142574022921
vertex -0.972108235585509 -21.5812489763301 7.4142574022921
vertex -0.967064064828656 -21.581889838509 7.45287967429752
endloop
endfacet
facet normal -0.126036902491554 -0.992025553708338 1.24542738340907e-16
outer loop
vertex -1.25808992057606 -21.5449149871392 7.4142574022921
vertex -0.967064064828656 -21.581889838509 7.45287967429752
vertex -1.26313409133291 -21.5442741249604 7.45287967429752
endloop
endfacet
facet normal -0.126036902491554 -0.992025553708338 1.24542738340907e-16
outer loop
vertex -1.26313409133291 -21.5442741249604 7.45287967429752
vertex -0.967064064828656 -21.581889838509 7.45287967429752
vertex -0.967064064828656 -21.581889838509 8.8519
endloop
endfacet
facet normal -0.126036902491554 -0.992025553708338 1.24542738340907e-16
outer loop
vertex -1.26313409133291 -21.5442741249604 7.45287967429752
vertex -0.967064064828656 -21.581889838509 8.8519
vertex -1.26313409133291 -21.5442741249604 8.29566719637841
endloop
endfacet
facet normal -0.126036902491554 -0.992025553708338 1.24542738340907e-16
outer loop
vertex -1.26313409133291 -21.5442741249604 8.29566719637841
vertex -0.967064064828656 -21.581889838509 8.8519
vertex -4.27422925450383 -21.1617143148278 8.29566719637841
endloop
endfacet
facet normal -0.126036902491554 -0.992025553708338 1.24542738340907e-16
outer loop
vertex -4.39095343799369 -21.1468845007389 7.29777647145502
vertex -4.47247318431636 -21.1365274123756 7.29777647145502
vertex -4.43171331115503 -21.1417059565572 7.29236719637841
endloop
endfacet
facet normal -0.126036902491554 -0.992025553708338 1.24542738340907e-16
outer loop
vertex -4.47247318431636 -21.1365274123756 7.29777647145502
vertex -4.39095343799369 -21.1468845007389 7.29777647145502
vertex -4.35297128282943 -21.1517101356925 7.31363566352763
endloop
endfacet
facet normal -0.126036902491554 -0.992025553708338 1.24542738340907e-16
outer loop
vertex -4.47247318431636 -21.1365274123756 7.29777647145502
vertex -4.35297128282943 -21.1517101356925 7.31363566352763
vertex -4.51045533948063 -21.131701777422 7.31363566352763
endloop
endfacet
facet normal -0.126036902491554 -0.992025553708338 1.24542738340907e-16
outer loop
vertex -4.51045533948063 -21.131701777422 7.31363566352763
vertex -4.35297128282943 -21.1517101356925 7.31363566352763
vertex -4.3203552667682 -21.1558540023707 7.33886399486505
endloop
endfacet
facet normal -0.126036902491554 -0.992025553708338 1.24542738340907e-16
outer loop
vertex -4.51045533948063 -21.131701777422 7.31363566352763
vertex -4.3203552667682 -21.1558540023707 7.33886399486505
vertex -4.54307135554186 -21.1275579107437 7.33886399486505
endloop
endfacet
facet normal -0.126036902491554 -0.992025553708338 1.24542738340907e-16
outer loop
vertex -4.54307135554186 -21.1275579107437 7.33886399486505
vertex -4.3203552667682 -21.1558540023707 7.33886399486505
vertex -4.29532811740406 -21.1590337031075 7.37174219637841
endloop
endfacet
facet normal -0.126036902491554 -0.992025553708338 1.24542738340907e-16
outer loop
vertex -4.54307135554186 -21.1275579107437 7.33886399486505
vertex -4.29532811740406 -21.1590337031075 7.37174219637841
vertex -4.56809850490599 -21.1243782100069 7.37174219637841
endloop
endfacet
facet normal -0.126036902491554 -0.992025553708338 1.24542738340907e-16
outer loop
vertex -4.56809850490599 -21.1243782100069 7.37174219637841
vertex -4.29532811740406 -21.1590337031075 7.37174219637841
vertex -4.27959539360686 -21.1610325465524 7.41002967296839
endloop
endfacet
facet normal -0.126036902491554 -0.992025553708338 1.24542738340907e-16
outer loop
vertex -4.56809850490599 -21.1243782100069 7.37174219637841
vertex -4.27959539360686 -21.1610325465524 7.41002967296839
vertex -4.58383122870319 -21.1223793665621 7.41002967296839
endloop
endfacet
facet normal -0.126036902491554 -0.992025553708338 1.24542738340907e-16
outer loop
vertex -4.58383122870319 -21.1223793665621 7.41002967296839
vertex -4.27959539360686 -21.1610325465524 7.41002967296839
vertex -4.27422925450383 -21.1617143148278 7.45111719637841
endloop
endfacet
facet normal -0.126036902491554 -0.992025553708338 1.24542738340907e-16
outer loop
vertex -4.58383122870319 -21.1223793665621 7.41002967296839
vertex -4.27422925450383 -21.1617143148278 7.45111719637841
vertex -4.58919736780623 -21.1216975982867 7.45111719637841
endloop
endfacet
facet normal -0.126036902491554 -0.992025553708338 1.24542738340907e-16
outer loop
vertex -4.58919736780623 -21.1216975982867 7.45111719637841
vertex -4.27422925450383 -21.1617143148278 7.45111719637841
vertex -4.27422925450383 -21.1617143148278 8.29566719637841
endloop
endfacet
facet normal -0.126036902491554 -0.992025553708338 1.24542738340907e-16
outer loop
vertex -4.58919736780623 -21.1216975982867 7.45111719637841
vertex -4.27422925450383 -21.1617143148278 8.29566719637841
vertex -4.58919736780623 -21.1216975982867 8.8519
endloop
endfacet
facet normal -0.126036902491554 -0.992025553708338 1.24542738340907e-16
outer loop
vertex -4.58919736780623 -21.1216975982867 8.8519
vertex -4.27422925450383 -21.1617143148278 8.29566719637841
vertex -0.967064064828656 -21.581889838509 8.8519
endloop
endfacet
facet normal -0.98353863757564 0.124958639318723 -0.130526192220058
outer loop
vertex -4.58919736780623 -21.1216975982867 7.45111719637841
vertex -4.56702420775594 -20.9900927589751 7.41002967296839
vertex -4.58383122870319 -21.1223793665621 7.41002967296839
endloop
endfacet
facet normal -0.98353863757564 0.124958639318723 -0.130526192220058
outer loop
vertex -4.56702420775594 -20.9900927589751 7.41002967296839
vertex -4.58919736780623 -21.1216975982867 7.45111719637841
vertex -4.57239034685898 -20.9894109906997 7.45111719637841
endloop
endfacet
endsolid 717 West Main Street
