solid 728 West Main Street
facet normal -0.0 -0.0 1.0
outer loop
vertex -25.637468985649 -22.857061028459 21.536935979902
vertex -26.7900933058241 40.2412300296806 21.536935979902
vertex -34.7061946905008 -21.6980394133352 21.536935979902
endloop
endfacet
facet normal -0.0 -0.0 1.0
outer loop
vertex -26.7900933058241 40.2412300296806 21.536935979902
vertex -25.637468985649 -22.857061028459 21.536935979902
vertex -17.7213676009723 39.0822084145568 21.536935979902
endloop
endfacet
facet normal 0.991931744117731 -0.126773084728407 1.21150223565302e-16
outer loop
vertex -17.7905983825425 38.5405144890941 -0.52705
vertex -25.637468985649 -22.857061028459 21.536935979902
vertex -25.637468985649 -22.857061028459 -0.52705
endloop
endfacet
facet normal 0.991931744117731 -0.126773084728407 1.21150223565302e-16
outer loop
vertex -25.637468985649 -22.857061028459 21.536935979902
vertex -17.7905983825425 38.5405144890941 -0.52705
vertex -17.7905983825425 38.5405144890941 19.7264301687885
endloop
endfacet
facet normal 0.991931744117731 -0.126773084728407 1.21150223565302e-16
outer loop
vertex -25.637468985649 -22.857061028459 21.536935979902
vertex -17.7905983825425 38.5405144890941 19.7264301687885
vertex -17.7900956978593 38.5444477285166 19.8563502001251
endloop
endfacet
facet normal 0.991931744117731 -0.126773084728407 1.21150223565302e-16
outer loop
vertex -25.637468985649 -22.857061028459 21.536935979902
vertex -17.7900956978593 38.5444477285166 19.8563502001251
vertex -17.7885895150787 38.5562328051021 19.9857865975953
endloop
endfacet
facet normal 0.991931744117731 -0.126773084728407 1.21150223565302e-16
outer loop
vertex -25.637468985649 -22.857061028459 21.536935979902
vertex -17.7885895150787 38.5562328051021 19.9857865975953
vertex -17.7860854410421 38.5758258483088 20.1142575276841
endloop
endfacet
facet normal 0.991931744117731 -0.126773084728407 1.21150223565302e-16
outer loop
vertex -25.637468985649 -22.857061028459 21.536935979902
vertex -17.7860854410421 38.5758258483088 20.1142575276841
vertex -17.7825927972913 38.6031539220456 20.2412847508774
endloop
endfacet
facet normal 0.991931744117731 -0.126773084728407 1.21150223565302e-16
outer loop
vertex -25.637468985649 -22.857061028459 21.536935979902
vertex -17.7825927972913 38.6031539220456 20.2412847508774
vertex -17.7781245853688 38.6381152961804 20.3663954019331
endloop
endfacet
facet normal 0.991931744117731 -0.126773084728407 1.21150223565302e-16
outer loop
vertex -25.637468985649 -22.857061028459 21.536935979902
vertex -17.7781245853688 38.6381152961804 20.3663954019331
vertex -17.7726974384186 38.6805798252353 20.4891237501452
endloop
endfacet
facet normal 0.991931744117731 -0.126773084728407 1.21150223565302e-16
outer loop
vertex -25.637468985649 -22.857061028459 21.536935979902
vertex -17.7726974384186 38.6805798252353 20.4891237501452
vertex -17.7213676009723 39.0822084145568 21.536935979902
endloop
endfacet
facet normal 0.991931744117731 -0.126773084728407 1.21150223565302e-16
outer loop
vertex -17.7213676009723 39.0822084145568 21.536935979902
vertex -17.7726974384186 38.6805798252353 20.4891237501452
vertex -17.766331559269 38.7303894328602 20.6090129330503
endloop
endfacet
facet normal 0.991931744117731 -0.126773084728407 1.21150223565302e-16
outer loop
vertex -17.7213676009723 39.0822084145568 21.536935979902
vertex -17.766331559269 38.7303894328602 20.6090129330503
vertex -17.759050645226 38.7873587002796 20.7256166571209
endloop
endfacet
facet normal 0.991931744117731 -0.126773084728407 1.21150223565302e-16
outer loop
vertex -17.7213676009723 39.0822084145568 21.536935979902
vertex -17.759050645226 38.7873587002796 20.7256166571209
vertex -17.7508817998591 38.8512755565235 20.8385008591158
endloop
endfacet
facet normal 0.991931744117731 -0.126773084728407 1.21150223565302e-16
outer loop
vertex -17.7213676009723 39.0822084145568 21.536935979902
vertex -17.7508817998591 38.8512755565235 20.8385008591158
vertex -17.7418554321072 38.9219020678722 20.9472453219021
endloop
endfacet
facet normal 0.991931744117731 -0.126773084728407 1.21150223565302e-16
outer loop
vertex -17.7213676009723 39.0822084145568 21.536935979902
vertex -17.7418554321072 38.9219020678722 20.9472453219021
vertex -17.732005143079 38.9989753235766 21.0514452387348
endloop
endfacet
facet normal 0.991931744117731 -0.126773084728407 1.21150223565302e-16
outer loop
vertex -17.7213676009723 39.0822084145568 21.536935979902
vertex -17.732005143079 38.9989753235766 21.0514452387348
vertex -17.7213676009723 39.0822084145568 21.1507127201703
endloop
endfacet
facet normal -0.126773084728408 -0.991931744117731 0.0
outer loop
vertex -25.637468985649 -22.857061028459 21.536935979902
vertex -34.7061946905008 -21.6980394133352 -0.52705
vertex -25.637468985649 -22.857061028459 -0.52705
endloop
endfacet
facet normal -0.126773084728408 -0.991931744117731 0.0
outer loop
vertex -34.7061946905008 -21.6980394133352 -0.52705
vertex -25.637468985649 -22.857061028459 21.536935979902
vertex -34.7061946905008 -21.6980394133352 21.536935979902
endloop
endfacet
facet normal 0.126773084728407 0.991931744117731 -2.98556490047859e-15
outer loop
vertex -26.7900933058241 40.2412300296806 21.536935979902
vertex -26.3176858126881 40.1808543480787 21.1507127201703
vertex -26.7900933058241 40.2412300296806 21.1507127201703
endloop
endfacet
facet normal 0.126773084728407 0.991931744117731 -2.98556490047859e-15
outer loop
vertex -26.3176858126881 40.1808543480787 21.1507127201703
vertex -26.7900933058241 40.2412300296806 21.536935979902
vertex -24.1630285749733 39.9054800129217 21.1507127201703
endloop
endfacet
facet normal 0.126773084728407 0.991931744117731 -2.98556490047859e-15
outer loop
vertex -24.1630285749733 39.9054800129217 21.1507127201703
vertex -26.7900933058241 40.2412300296806 21.536935979902
vertex -23.6906210818372 39.8451043313198 21.1507127201703
endloop
endfacet
facet normal 0.126773084728407 0.991931744117731 -2.98556490047859e-15
outer loop
vertex -23.6906210818372 39.8451043313198 21.1507127201703
vertex -26.7900933058241 40.2412300296806 21.536935979902
vertex -20.7401501133688 39.468021625486 21.1507127201703
endloop
endfacet
facet normal 0.126773084728407 0.991931744117731 -2.98556490047859e-15
outer loop
vertex -20.7401501133688 39.468021625486 21.1507127201703
vertex -26.7900933058241 40.2412300296806 21.536935979902
vertex -20.2677426202327 39.4076459438841 21.1507127201703
endloop
endfacet
facet normal 0.126773084728407 0.991931744117731 -2.98556490047859e-15
outer loop
vertex -20.2677426202327 39.4076459438841 21.1507127201703
vertex -26.7900933058241 40.2412300296806 21.536935979902
vertex -18.1937750941084 39.1425840961587 21.1507127201703
endloop
endfacet
facet normal 0.126773084728407 0.991931744117731 -2.98556490047859e-15
outer loop
vertex -18.1937750941084 39.1425840961587 21.1507127201703
vertex -26.7900933058241 40.2412300296806 21.536935979902
vertex -17.7213676009723 39.0822084145568 21.1507127201703
endloop
endfacet
facet normal 0.126773084728407 0.991931744117731 -2.98556490047859e-15
outer loop
vertex -17.7213676009723 39.0822084145568 21.1507127201703
vertex -26.7900933058241 40.2412300296806 21.536935979902
vertex -17.7213676009723 39.0822084145568 21.536935979902
endloop
endfacet
facet normal 0.991931744117732 -0.126773084728404 4.69411872872552e-16
outer loop
vertex -20.3364707171197 38.8698852578439 19.8563502001251
vertex -20.3369734018029 38.8659520184214 21.1507127201703
vertex -20.3369734018029 38.8659520184214 19.7264301687885
endloop
endfacet
facet normal 0.991931744117732 -0.126773084728404 4.69411872872552e-16
outer loop
vertex -20.3369734018029 38.8659520184214 21.1507127201703
vertex -20.3364707171197 38.8698852578439 19.8563502001251
vertex -20.3349645343391 38.8816703344294 19.9857865975953
endloop
endfacet
facet normal 0.991931744117732 -0.126773084728404 4.69411872872552e-16
outer loop
vertex -20.3369734018029 38.8659520184214 21.1507127201703
vertex -20.3349645343391 38.8816703344294 19.9857865975953
vertex -20.3324604603025 38.9012633776361 20.1142575276841
endloop
endfacet
facet normal 0.991931744117732 -0.126773084728404 4.69411872872552e-16
outer loop
vertex -20.3369734018029 38.8659520184214 21.1507127201703
vertex -20.3324604603025 38.9012633776361 20.1142575276841
vertex -20.3289678165517 38.9285914513729 20.2412847508774
endloop
endfacet
facet normal 0.991931744117732 -0.126773084728404 4.69411872872552e-16
outer loop
vertex -20.3369734018029 38.8659520184214 21.1507127201703
vertex -20.3289678165517 38.9285914513729 20.2412847508774
vertex -20.3244996046292 38.9635528255077 20.3663954019331
endloop
endfacet
facet normal 0.991931744117732 -0.126773084728404 4.69411872872552e-16
outer loop
vertex -20.3369734018029 38.8659520184214 21.1507127201703
vertex -20.3244996046292 38.9635528255077 20.3663954019331
vertex -20.319072457679 39.0060173545626 20.4891237501452
endloop
endfacet
facet normal 0.991931744117732 -0.126773084728404 4.69411872872552e-16
outer loop
vertex -20.3369734018029 38.8659520184214 21.1507127201703
vertex -20.319072457679 39.0060173545626 20.4891237501452
vertex -20.3127065785294 39.0558269621876 20.6090129330503
endloop
endfacet
facet normal 0.991931744117732 -0.126773084728404 4.69411872872552e-16
outer loop
vertex -20.3369734018029 38.8659520184214 21.1507127201703
vertex -20.3127065785294 39.0558269621876 20.6090129330503
vertex -20.3054256644864 39.112796229607 20.7256166571209
endloop
endfacet
facet normal 0.991931744117732 -0.126773084728404 4.69411872872552e-16
outer loop
vertex -20.3369734018029 38.8659520184214 21.1507127201703
vertex -20.3054256644864 39.112796229607 20.7256166571209
vertex -20.2972568191195 39.1767130858508 20.8385008591158
endloop
endfacet
facet normal 0.991931744117732 -0.126773084728404 4.69411872872552e-16
outer loop
vertex -20.3369734018029 38.8659520184214 21.1507127201703
vertex -20.2972568191195 39.1767130858508 20.8385008591158
vertex -20.2882304513676 39.2473395971995 20.9472453219021
endloop
endfacet
facet normal 0.991931744117732 -0.126773084728404 4.69411872872552e-16
outer loop
vertex -20.3369734018029 38.8659520184214 21.1507127201703
vertex -20.2882304513676 39.2473395971995 20.9472453219021
vertex -20.2783801623395 39.3244128529039 21.0514452387348
endloop
endfacet
facet normal 0.991931744117732 -0.126773084728404 4.69411872872552e-16
outer loop
vertex -20.3369734018029 38.8659520184214 21.1507127201703
vertex -20.2783801623395 39.3244128529039 21.0514452387348
vertex -20.2677426202327 39.4076459438841 21.1507127201703
endloop
endfacet
facet normal 0.0 0.0 -1.0
outer loop
vertex -20.2677426202327 39.4076459438841 21.1507127201703
vertex -18.2630058756786 38.600890170696 21.1507127201703
vertex -20.3369734018029 38.8659520184214 21.1507127201703
endloop
endfacet
facet normal 0.0 0.0 -1.0
outer loop
vertex -18.2630058756786 38.600890170696 21.1507127201703
vertex -20.2677426202327 39.4076459438841 21.1507127201703
vertex -18.1937750941084 39.1425840961587 21.1507127201703
endloop
endfacet
facet normal 0.126773084728405 0.991931744117731 -2.01066427369234e-15
outer loop
vertex -20.809380894939 38.9263277000233 21.1507127201703
vertex -20.3369734018029 38.8659520184214 19.7264301687885
vertex -20.809380894939 38.9263277000233 19.7264301687885
endloop
endfacet
facet normal 0.126773084728405 0.991931744117731 -2.01066427369234e-15
outer loop
vertex -20.3369734018029 38.8659520184214 19.7264301687885
vertex -20.809380894939 38.9263277000233 21.1507127201703
vertex -20.3369734018029 38.8659520184214 21.1507127201703
endloop
endfacet
facet normal 0.991931744117731 -0.12677308472841 1.5817139194619e-15
outer loop
vertex -20.8088782102558 38.9302609394458 19.8563502001251
vertex -20.809380894939 38.9263277000233 21.1507127201703
vertex -20.809380894939 38.9263277000233 19.7264301687885
endloop
endfacet
facet normal 0.991931744117731 -0.12677308472841 1.5817139194619e-15
outer loop
vertex -20.809380894939 38.9263277000233 21.1507127201703
vertex -20.8088782102558 38.9302609394458 19.8563502001251
vertex -20.8073720274752 38.9420460160313 19.9857865975953
endloop
endfacet
facet normal 0.991931744117731 -0.12677308472841 1.5817139194619e-15
outer loop
vertex -20.809380894939 38.9263277000233 21.1507127201703
vertex -20.8073720274752 38.9420460160313 19.9857865975953
vertex -20.8048679534386 38.961639059238 20.1142575276841
endloop
endfacet
facet normal 0.991931744117731 -0.12677308472841 1.5817139194619e-15
outer loop
vertex -20.809380894939 38.9263277000233 21.1507127201703
vertex -20.8048679534386 38.961639059238 20.1142575276841
vertex -20.8013753096878 38.9889671329748 20.2412847508774
endloop
endfacet
facet normal 0.991931744117731 -0.12677308472841 1.5817139194619e-15
outer loop
vertex -20.809380894939 38.9263277000233 21.1507127201703
vertex -20.8013753096878 38.9889671329748 20.2412847508774
vertex -20.7969070977653 39.0239285071096 20.3663954019331
endloop
endfacet
facet normal 0.991931744117731 -0.12677308472841 1.5817139194619e-15
outer loop
vertex -20.809380894939 38.9263277000233 21.1507127201703
vertex -20.7969070977653 39.0239285071096 20.3663954019331
vertex -20.7914799508151 39.0663930361645 20.4891237501452
endloop
endfacet
facet normal 0.991931744117731 -0.12677308472841 1.5817139194619e-15
outer loop
vertex -20.809380894939 38.9263277000233 21.1507127201703
vertex -20.7914799508151 39.0663930361645 20.4891237501452
vertex -20.7851140716655 39.1162026437895 20.6090129330503
endloop
endfacet
facet normal 0.991931744117731 -0.12677308472841 1.5817139194619e-15
outer loop
vertex -20.809380894939 38.9263277000233 21.1507127201703
vertex -20.7851140716655 39.1162026437895 20.6090129330503
vertex -20.7778331576225 39.1731719112089 20.7256166571209
endloop
endfacet
facet normal 0.991931744117731 -0.12677308472841 1.5817139194619e-15
outer loop
vertex -20.809380894939 38.9263277000233 21.1507127201703
vertex -20.7778331576225 39.1731719112089 20.7256166571209
vertex -20.7696643122556 39.2370887674527 20.8385008591158
endloop
endfacet
facet normal 0.991931744117731 -0.12677308472841 1.5817139194619e-15
outer loop
vertex -20.809380894939 38.9263277000233 21.1507127201703
vertex -20.7696643122556 39.2370887674527 20.8385008591158
vertex -20.7606379445036 39.3077152788014 20.9472453219021
endloop
endfacet
facet normal 0.991931744117731 -0.12677308472841 1.5817139194619e-15
outer loop
vertex -20.809380894939 38.9263277000233 21.1507127201703
vertex -20.7606379445036 39.3077152788014 20.9472453219021
vertex -20.7507876554755 39.3847885345058 21.0514452387348
endloop
endfacet
facet normal 0.991931744117731 -0.12677308472841 1.5817139194619e-15
outer loop
vertex -20.809380894939 38.9263277000233 21.1507127201703
vertex -20.7507876554755 39.3847885345058 21.0514452387348
vertex -20.7401501133688 39.468021625486 21.1507127201703
endloop
endfacet
facet normal 0.0 0.0 -1.0
outer loop
vertex -20.7401501133688 39.468021625486 21.1507127201703
vertex -20.3369734018029 38.8659520184214 21.1507127201703
vertex -20.809380894939 38.9263277000233 21.1507127201703
endloop
endfacet
facet normal 0.0 0.0 -1.0
outer loop
vertex -20.3369734018029 38.8659520184214 21.1507127201703
vertex -20.7401501133688 39.468021625486 21.1507127201703
vertex -20.2677426202327 39.4076459438841 21.1507127201703
endloop
endfacet
facet normal 0.0968179237917914 0.757548593334336 -0.645558996815795
outer loop
vertex -20.7401501133688 39.468021625486 21.1507127201703
vertex -20.2783801623395 39.3244128529039 21.0514452387348
vertex -20.7507876554755 39.3847885345058 21.0514452387348
endloop
endfacet
facet normal 0.0968179237917914 0.757548593334336 -0.645558996815795
outer loop
vertex -20.2783801623395 39.3244128529039 21.0514452387348
vertex -20.7401501133688 39.468021625486 21.1507127201703
vertex -20.2677426202327 39.4076459438841 21.1507127201703
endloop
endfacet
facet normal -0.101628644759841 -0.795189917993471 0.59778308179959
outer loop
vertex -20.2783801623395 39.3244128529039 21.0514452387348
vertex -20.7606379445036 39.3077152788014 20.9472453219021
vertex -20.2882304513676 39.2473395971995 20.9472453219021
endloop
endfacet
facet normal -0.101628644759841 -0.795189917993471 0.59778308179959
outer loop
vertex -20.7606379445036 39.3077152788014 20.9472453219021
vertex -20.2783801623395 39.3244128529039 21.0514452387348
vertex -20.7507876554755 39.3847885345058 21.0514452387348
endloop
endfacet
facet normal -0.126714081097575 -0.99147007218983 0.0305063534938443
outer loop
vertex -20.3364707171197 38.8698852578439 19.8563502001251
vertex -20.809380894939 38.9263277000233 19.7264301687885
vertex -20.3369734018029 38.8659520184214 19.7264301687885
endloop
endfacet
facet normal -0.126714081097575 -0.99147007218983 0.0305063534938443
outer loop
vertex -20.809380894939 38.9263277000233 19.7264301687885
vertex -20.3364707171197 38.8698852578439 19.8563502001251
vertex -20.8088782102558 38.9302609394458 19.8563502001251
endloop
endfacet
facet normal 0.126242381542526 0.987779274862177 -0.0914054990425827
outer loop
vertex -20.8073720274752 38.9420460160313 19.9857865975953
vertex -20.3364707171197 38.8698852578439 19.8563502001251
vertex -20.8088782102558 38.9302609394458 19.8563502001251
endloop
endfacet
facet normal 0.126242381542526 0.987779274862177 -0.0914054990425827
outer loop
vertex -20.3364707171197 38.8698852578439 19.8563502001251
vertex -20.8073720274752 38.9420460160313 19.9857865975953
vertex -20.3349645343391 38.8816703344294 19.9857865975953
endloop
endfacet
facet normal -0.125300738357811 -0.980411419385979 0.151964383013119
outer loop
vertex -20.3324604603025 38.9012633776361 20.1142575276841
vertex -20.8073720274752 38.9420460160313 19.9857865975953
vertex -20.3349645343391 38.8816703344294 19.9857865975953
endloop
endfacet
facet normal -0.125300738357811 -0.980411419385979 0.151964383013119
outer loop
vertex -20.8073720274752 38.9420460160313 19.9857865975953
vertex -20.3324604603025 38.9012633776361 20.1142575276841
vertex -20.8048679534386 38.961639059238 20.1142575276841
endloop
endfacet
facet normal 0.123892656857659 0.9693939329747 -0.211957571906723
outer loop
vertex -20.8013753096878 38.9889671329748 20.2412847508774
vertex -20.3324604603025 38.9012633776361 20.1142575276841
vertex -20.8048679534386 38.961639059238 20.1142575276841
endloop
endfacet
facet normal 0.123892656857659 0.9693939329747 -0.211957571906723
outer loop
vertex -20.3324604603025 38.9012633776361 20.1142575276841
vertex -20.8013753096878 38.9889671329748 20.2412847508774
vertex -20.3289678165517 38.9285914513729 20.2412847508774
endloop
endfacet
facet normal -0.122023378696429 -0.954767828776932 0.27116173805331
outer loop
vertex -20.3244996046292 38.9635528255077 20.3663954019331
vertex -20.8013753096878 38.9889671329748 20.2412847508774
vertex -20.3289678165517 38.9285914513729 20.2412847508774
endloop
endfacet
facet normal -0.122023378696429 -0.954767828776932 0.27116173805331
outer loop
vertex -20.8013753096878 38.9889671329748 20.2412847508774
vertex -20.3244996046292 38.9635528255077 20.3663954019331
vertex -20.7969070977653 39.0239285071096 20.3663954019331
endloop
endfacet
facet normal 0.119699862356317 0.936587553202937 -0.329356490959589
outer loop
vertex -20.7914799508151 39.0663930361645 20.4891237501452
vertex -20.3244996046292 38.9635528255077 20.3663954019331
vertex -20.7969070977653 39.0239285071096 20.3663954019331
endloop
endfacet
facet normal 0.119699862356317 0.936587553202937 -0.329356490959589
outer loop
vertex -20.3244996046292 38.9635528255077 20.3663954019331
vertex -20.7914799508151 39.0663930361645 20.4891237501452
vertex -20.319072457679 39.0060173545626 20.4891237501452
endloop
endfacet
facet normal -0.116930757244037 -0.914920783245029 0.386325197724197
outer loop
vertex -20.3127065785294 39.0558269621876 20.6090129330503
vertex -20.7914799508151 39.0663930361645 20.4891237501452
vertex -20.319072457679 39.0060173545626 20.4891237501452
endloop
endfacet
facet normal -0.116930757244037 -0.914920783245029 0.386325197724197
outer loop
vertex -20.7914799508151 39.0663930361645 20.4891237501452
vertex -20.3127065785294 39.0558269621876 20.6090129330503
vertex -20.7851140716655 39.1162026437895 20.6090129330503
endloop
endfacet
facet normal 0.113726371492983 0.889848174546747 -0.441855789464009
outer loop
vertex -20.7778331576225 39.1731719112089 20.7256166571209
vertex -20.3127065785294 39.0558269621876 20.6090129330503
vertex -20.7851140716655 39.1162026437895 20.6090129330503
endloop
endfacet
facet normal 0.113726371492983 0.889848174546747 -0.441855789464009
outer loop
vertex -20.3127065785294 39.0558269621876 20.6090129330503
vertex -20.7778331576225 39.1731719112089 20.7256166571209
vertex -20.3054256644864 39.112796229607 20.7256166571209
endloop
endfacet
facet normal 0.106061047974264 0.829871108094157 -0.547781889124839
outer loop
vertex -20.7606379445036 39.3077152788014 20.9472453219021
vertex -20.2972568191195 39.1767130858508 20.8385008591158
vertex -20.7696643122556 39.2370887674527 20.8385008591158
endloop
endfacet
facet normal 0.106061047974264 0.829871108094157 -0.547781889124839
outer loop
vertex -20.2972568191195 39.1767130858508 20.8385008591158
vertex -20.7606379445036 39.3077152788014 20.9472453219021
vertex -20.2882304513676 39.2473395971995 20.9472453219021
endloop
endfacet
facet normal 0.110098633590644 0.861463061157904 -0.495741550751928
outer loop
vertex -20.7696643122556 39.2370887674527 20.8385008591158
vertex -20.3054256644864 39.112796229607 20.7256166571209
vertex -20.7778331576225 39.1731719112089 20.7256166571209
endloop
endfacet
facet normal 0.110098633590644 0.861463061157904 -0.495741550751928
outer loop
vertex -20.3054256644864 39.112796229607 20.7256166571209
vertex -20.7696643122556 39.2370887674527 20.8385008591158
vertex -20.2972568191195 39.1767130858508 20.8385008591158
endloop
endfacet
facet normal 0.0968179237917839 0.757548593334326 -0.645558996815808
outer loop
vertex -18.1937750941084 39.1425840961587 21.1507127201703
vertex -17.732005143079 38.9989753235766 21.0514452387348
vertex -18.2044126362151 39.0593510051785 21.0514452387348
endloop
endfacet
facet normal 0.0968179237917839 0.757548593334326 -0.645558996815808
outer loop
vertex -17.732005143079 38.9989753235766 21.0514452387348
vertex -18.1937750941084 39.1425840961587 21.1507127201703
vertex -17.7213676009723 39.0822084145568 21.1507127201703
endloop
endfacet
facet normal 0.991931744117732 -0.126773084728401 -5.46966877955861e-15
outer loop
vertex -18.2625031909954 38.6048234101185 19.8563502001251
vertex -18.2630058756786 38.600890170696 21.1507127201703
vertex -18.2630058756786 38.600890170696 19.7264301687885
endloop
endfacet
facet normal 0.991931744117732 -0.126773084728401 -5.46966877955861e-15
outer loop
vertex -18.2630058756786 38.600890170696 21.1507127201703
vertex -18.2625031909954 38.6048234101185 19.8563502001251
vertex -18.2609970082148 38.616608486704 19.9857865975953
endloop
endfacet
facet normal 0.991931744117732 -0.126773084728401 -5.46966877955861e-15
outer loop
vertex -18.2630058756786 38.600890170696 21.1507127201703
vertex -18.2609970082148 38.616608486704 19.9857865975953
vertex -18.2584929341782 38.6362015299107 20.1142575276841
endloop
endfacet
facet normal 0.991931744117732 -0.126773084728401 -5.46966877955861e-15
outer loop
vertex -18.2630058756786 38.600890170696 21.1507127201703
vertex -18.2584929341782 38.6362015299107 20.1142575276841
vertex -18.2550002904274 38.6635296036475 20.2412847508774
endloop
endfacet
facet normal 0.991931744117732 -0.126773084728401 -5.46966877955861e-15
outer loop
vertex -18.2630058756786 38.600890170696 21.1507127201703
vertex -18.2550002904274 38.6635296036475 20.2412847508774
vertex -18.2505320785049 38.6984909777823 20.3663954019331
endloop
endfacet
facet normal 0.991931744117732 -0.126773084728401 -5.46966877955861e-15
outer loop
vertex -18.2630058756786 38.600890170696 21.1507127201703
vertex -18.2505320785049 38.6984909777823 20.3663954019331
vertex -18.2451049315547 38.7409555068372 20.4891237501452
endloop
endfacet
facet normal 0.991931744117732 -0.126773084728401 -5.46966877955861e-15
outer loop
vertex -18.2630058756786 38.600890170696 21.1507127201703
vertex -18.2451049315547 38.7409555068372 20.4891237501452
vertex -18.2387390524051 38.7907651144622 20.6090129330503
endloop
endfacet
facet normal 0.991931744117732 -0.126773084728401 -5.46966877955861e-15
outer loop
vertex -18.2630058756786 38.600890170696 21.1507127201703
vertex -18.2387390524051 38.7907651144622 20.6090129330503
vertex -18.2314581383621 38.8477343818815 20.7256166571209
endloop
endfacet
facet normal 0.991931744117732 -0.126773084728401 -5.46966877955861e-15
outer loop
vertex -18.2630058756786 38.600890170696 21.1507127201703
vertex -18.2314581383621 38.8477343818815 20.7256166571209
vertex -18.2232892929952 38.9116512381254 20.8385008591158
endloop
endfacet
facet normal 0.991931744117732 -0.126773084728401 -5.46966877955861e-15
outer loop
vertex -18.2630058756786 38.600890170696 21.1507127201703
vertex -18.2232892929952 38.9116512381254 20.8385008591158
vertex -18.2142629252432 38.9822777494741 20.9472453219021
endloop
endfacet
facet normal 0.991931744117732 -0.126773084728401 -5.46966877955861e-15
outer loop
vertex -18.2630058756786 38.600890170696 21.1507127201703
vertex -18.2142629252432 38.9822777494741 20.9472453219021
vertex -18.2044126362151 39.0593510051785 21.0514452387348
endloop
endfacet
facet normal 0.991931744117732 -0.126773084728401 -5.46966877955861e-15
outer loop
vertex -18.2630058756786 38.600890170696 21.1507127201703
vertex -18.2044126362151 39.0593510051785 21.0514452387348
vertex -18.1937750941084 39.1425840961587 21.1507127201703
endloop
endfacet
facet normal -0.101628644759837 -0.79518991799348 0.597783081799578
outer loop
vertex -17.732005143079 38.9989753235766 21.0514452387348
vertex -18.2142629252432 38.9822777494741 20.9472453219021
vertex -17.7418554321072 38.9219020678722 20.9472453219021
endloop
endfacet
facet normal -0.101628644759837 -0.79518991799348 0.597783081799578
outer loop
vertex -18.2142629252432 38.9822777494741 20.9472453219021
vertex -17.732005143079 38.9989753235766 21.0514452387348
vertex -18.2044126362151 39.0593510051785 21.0514452387348
endloop
endfacet
facet normal 0.119699862356317 0.936587553202937 -0.329356490959589
outer loop
vertex -18.2451049315547 38.7409555068372 20.4891237501452
vertex -17.7781245853688 38.6381152961804 20.3663954019331
vertex -18.2505320785049 38.6984909777823 20.3663954019331
endloop
endfacet
facet normal 0.119699862356317 0.936587553202937 -0.329356490959589
outer loop
vertex -17.7781245853688 38.6381152961804 20.3663954019331
vertex -18.2451049315547 38.7409555068372 20.4891237501452
vertex -17.7726974384186 38.6805798252353 20.4891237501452
endloop
endfacet
facet normal 0.113726371492993 0.889848174546747 -0.441855789464007
outer loop
vertex -18.2314581383621 38.8477343818815 20.7256166571209
vertex -17.766331559269 38.7303894328602 20.6090129330503
vertex -18.2387390524051 38.7907651144622 20.6090129330503
endloop
endfacet
facet normal 0.113726371492993 0.889848174546747 -0.441855789464007
outer loop
vertex -17.766331559269 38.7303894328602 20.6090129330503
vertex -18.2314581383621 38.8477343818815 20.7256166571209
vertex -17.759050645226 38.7873587002796 20.7256166571209
endloop
endfacet
facet normal -0.126714081097561 -0.991470072189831 0.0305063534938429
outer loop
vertex -17.7900956978593 38.5444477285166 19.8563502001251
vertex -18.2630058756786 38.600890170696 19.7264301687885
vertex -17.7905983825425 38.5405144890941 19.7264301687885
endloop
endfacet
facet normal -0.126714081097561 -0.991470072189831 0.0305063534938429
outer loop
vertex -18.2630058756786 38.600890170696 19.7264301687885
vertex -17.7900956978593 38.5444477285166 19.8563502001251
vertex -18.2625031909954 38.6048234101185 19.8563502001251
endloop
endfacet
facet normal 0.106061047974264 0.829871108094157 -0.547781889124839
outer loop
vertex -18.2142629252432 38.9822777494741 20.9472453219021
vertex -17.7508817998591 38.8512755565235 20.8385008591158
vertex -18.2232892929952 38.9116512381254 20.8385008591158
endloop
endfacet
facet normal 0.106061047974264 0.829871108094157 -0.547781889124839
outer loop
vertex -17.7508817998591 38.8512755565235 20.8385008591158
vertex -18.2142629252432 38.9822777494741 20.9472453219021
vertex -17.7418554321072 38.9219020678722 20.9472453219021
endloop
endfacet
facet normal 0.126242381542525 0.987779274862177 -0.091405499042584
outer loop
vertex -18.2609970082148 38.616608486704 19.9857865975953
vertex -17.7900956978593 38.5444477285166 19.8563502001251
vertex -18.2625031909954 38.6048234101185 19.8563502001251
endloop
endfacet
facet normal 0.126242381542525 0.987779274862177 -0.091405499042584
outer loop
vertex -17.7900956978593 38.5444477285166 19.8563502001251
vertex -18.2609970082148 38.616608486704 19.9857865975953
vertex -17.7885895150787 38.5562328051021 19.9857865975953
endloop
endfacet
facet normal -0.125300738357809 -0.980411419385979 0.151964383013119
outer loop
vertex -17.7860854410421 38.5758258483088 20.1142575276841
vertex -18.2609970082148 38.616608486704 19.9857865975953
vertex -17.7885895150787 38.5562328051021 19.9857865975953
endloop
endfacet
facet normal -0.125300738357809 -0.980411419385979 0.151964383013119
outer loop
vertex -18.2609970082148 38.616608486704 19.9857865975953
vertex -17.7860854410421 38.5758258483088 20.1142575276841
vertex -18.2584929341782 38.6362015299107 20.1142575276841
endloop
endfacet
facet normal 0.123892656857651 0.969393932974696 -0.211957571906744
outer loop
vertex -18.2550002904274 38.6635296036475 20.2412847508774
vertex -17.7860854410421 38.5758258483088 20.1142575276841
vertex -18.2584929341782 38.6362015299107 20.1142575276841
endloop
endfacet
facet normal 0.123892656857651 0.969393932974696 -0.211957571906744
outer loop
vertex -17.7860854410421 38.5758258483088 20.1142575276841
vertex -18.2550002904274 38.6635296036475 20.2412847508774
vertex -17.7825927972913 38.6031539220456 20.2412847508774
endloop
endfacet
facet normal 0.110098633590654 0.861463061157902 -0.495741550751929
outer loop
vertex -18.2232892929952 38.9116512381254 20.8385008591158
vertex -17.759050645226 38.7873587002796 20.7256166571209
vertex -18.2314581383621 38.8477343818815 20.7256166571209
endloop
endfacet
facet normal 0.110098633590654 0.861463061157902 -0.495741550751929
outer loop
vertex -17.759050645226 38.7873587002796 20.7256166571209
vertex -18.2232892929952 38.9116512381254 20.8385008591158
vertex -17.7508817998591 38.8512755565235 20.8385008591158
endloop
endfacet
facet normal -0.116930757244047 -0.914920783245027 0.386325197724198
outer loop
vertex -17.766331559269 38.7303894328602 20.6090129330503
vertex -18.2451049315547 38.7409555068372 20.4891237501452
vertex -17.7726974384186 38.6805798252353 20.4891237501452
endloop
endfacet
facet normal -0.116930757244047 -0.914920783245027 0.386325197724198
outer loop
vertex -18.2451049315547 38.7409555068372 20.4891237501452
vertex -17.766331559269 38.7303894328602 20.6090129330503
vertex -18.2387390524051 38.7907651144622 20.6090129330503
endloop
endfacet
facet normal -0.122023378696424 -0.954767828776938 0.27116173805329
outer loop
vertex -17.7781245853688 38.6381152961804 20.3663954019331
vertex -18.2550002904274 38.6635296036475 20.2412847508774
vertex -17.7825927972913 38.6031539220456 20.2412847508774
endloop
endfacet
facet normal -0.122023378696424 -0.954767828776938 0.27116173805329
outer loop
vertex -18.2550002904274 38.6635296036475 20.2412847508774
vertex -17.7781245853688 38.6381152961804 20.3663954019331
vertex -18.2505320785049 38.6984909777823 20.3663954019331
endloop
endfacet
facet normal -0.116930757244043 -0.914920783245035 0.386325197724179
outer loop
vertex -26.3626497709848 39.8290353663821 20.6090129330503
vertex -26.8414231432705 39.8396014403591 20.4891237501452
vertex -26.3690156501344 39.7792257587572 20.4891237501452
endloop
endfacet
facet normal -0.116930757244043 -0.914920783245035 0.386325197724179
outer loop
vertex -26.8414231432705 39.8396014403591 20.4891237501452
vertex -26.3626497709848 39.8290353663821 20.6090129330503
vertex -26.8350572641208 39.889411047984 20.6090129330503
endloop
endfacet
facet normal -0.122023378696424 -0.954767828776938 0.27116173805329
outer loop
vertex -26.3744427970845 39.7367612297023 20.3663954019331
vertex -26.8513185021431 39.7621755371694 20.2412847508774
vertex -26.3789110090071 39.7017998555675 20.2412847508774
endloop
endfacet
facet normal -0.122023378696424 -0.954767828776938 0.27116173805329
outer loop
vertex -26.8513185021431 39.7621755371694 20.2412847508774
vertex -26.3744427970845 39.7367612297023 20.3663954019331
vertex -26.8468502902206 39.7971369113041 20.3663954019331
endloop
endfacet
facet normal -0.125300738357805 -0.980411419385983 0.151964383013098
outer loop
vertex -26.3824036527578 39.6744717818306 20.1142575276841
vertex -26.8573152199305 39.7152544202258 19.9857865975953
vertex -26.3849077267945 39.6548787386239 19.9857865975953
endloop
endfacet
facet normal -0.125300738357805 -0.980411419385983 0.151964383013098
outer loop
vertex -26.8573152199305 39.7152544202258 19.9857865975953
vertex -26.3824036527578 39.6744717818306 20.1142575276841
vertex -26.8548111458939 39.7348474634325 20.1142575276841
endloop
endfacet
facet normal 0.106061047974265 0.829871108094158 -0.547781889124837
outer loop
vertex -26.810581136959 40.0809236829959 20.9472453219021
vertex -26.3472000115749 39.9499214900454 20.8385008591158
vertex -26.8196075047109 40.0102971716473 20.8385008591158
endloop
endfacet
facet normal 0.106061047974265 0.829871108094158 -0.547781889124837
outer loop
vertex -26.3472000115749 39.9499214900454 20.8385008591158
vertex -26.810581136959 40.0809236829959 20.9472453219021
vertex -26.3381736438229 40.020548001394 20.9472453219021
endloop
endfacet
facet normal 0.991931744117731 -0.126773084728408 2.15688190193738e-16
outer loop
vertex -26.8593240873943 39.6995361042179 -0.52705
vertex -34.7061946905008 -21.6980394133352 21.536935979902
vertex -34.7061946905008 -21.6980394133352 -0.52705
endloop
endfacet
facet normal 0.991931744117731 -0.126773084728408 2.15688190193738e-16
outer loop
vertex -34.7061946905008 -21.6980394133352 21.536935979902
vertex -26.8593240873943 39.6995361042179 -0.52705
vertex -26.8593240873943 39.6995361042179 19.7264301687885
endloop
endfacet
facet normal 0.991931744117731 -0.126773084728408 2.15688190193738e-16
outer loop
vertex -34.7061946905008 -21.6980394133352 21.536935979902
vertex -26.8593240873943 39.6995361042179 19.7264301687885
vertex -26.8588214027111 39.7034693436404 19.8563502001251
endloop
endfacet
facet normal 0.991931744117731 -0.126773084728408 2.15688190193738e-16
outer loop
vertex -34.7061946905008 -21.6980394133352 21.536935979902
vertex -26.8588214027111 39.7034693436404 19.8563502001251
vertex -26.8573152199305 39.7152544202258 19.9857865975953
endloop
endfacet
facet normal 0.991931744117731 -0.126773084728408 2.15688190193738e-16
outer loop
vertex -34.7061946905008 -21.6980394133352 21.536935979902
vertex -26.8573152199305 39.7152544202258 19.9857865975953
vertex -26.8548111458939 39.7348474634325 20.1142575276841
endloop
endfacet
facet normal 0.991931744117731 -0.126773084728408 2.15688190193738e-16
outer loop
vertex -34.7061946905008 -21.6980394133352 21.536935979902
vertex -26.8548111458939 39.7348474634325 20.1142575276841
vertex -26.8513185021431 39.7621755371694 20.2412847508774
endloop
endfacet
facet normal 0.991931744117731 -0.126773084728408 2.15688190193738e-16
outer loop
vertex -34.7061946905008 -21.6980394133352 21.536935979902
vertex -26.8513185021431 39.7621755371694 20.2412847508774
vertex -26.8468502902206 39.7971369113041 20.3663954019331
endloop
endfacet
facet normal 0.991931744117731 -0.126773084728408 2.15688190193738e-16
outer loop
vertex -34.7061946905008 -21.6980394133352 21.536935979902
vertex -26.8468502902206 39.7971369113041 20.3663954019331
vertex -26.8414231432705 39.8396014403591 20.4891237501452
endloop
endfacet
facet normal 0.991931744117731 -0.126773084728408 2.15688190193738e-16
outer loop
vertex -34.7061946905008 -21.6980394133352 21.536935979902
vertex -26.8414231432705 39.8396014403591 20.4891237501452
vertex -26.7900933058241 40.2412300296806 21.536935979902
endloop
endfacet
facet normal 0.991931744117731 -0.126773084728408 2.15688190193738e-16
outer loop
vertex -26.7900933058241 40.2412300296806 21.536935979902
vertex -26.8414231432705 39.8396014403591 20.4891237501452
vertex -26.8350572641208 39.889411047984 20.6090129330503
endloop
endfacet
facet normal 0.991931744117731 -0.126773084728408 2.15688190193738e-16
outer loop
vertex -26.7900933058241 40.2412300296806 21.536935979902
vertex -26.8350572641208 39.889411047984 20.6090129330503
vertex -26.8277763500778 39.9463803154034 20.7256166571209
endloop
endfacet
facet normal 0.991931744117731 -0.126773084728408 2.15688190193738e-16
outer loop
vertex -26.7900933058241 40.2412300296806 21.536935979902
vertex -26.8277763500778 39.9463803154034 20.7256166571209
vertex -26.8196075047109 40.0102971716473 20.8385008591158
endloop
endfacet
facet normal 0.991931744117731 -0.126773084728408 2.15688190193738e-16
outer loop
vertex -26.7900933058241 40.2412300296806 21.536935979902
vertex -26.8196075047109 40.0102971716473 20.8385008591158
vertex -26.810581136959 40.0809236829959 20.9472453219021
endloop
endfacet
facet normal 0.991931744117731 -0.126773084728408 2.15688190193738e-16
outer loop
vertex -26.7900933058241 40.2412300296806 21.536935979902
vertex -26.810581136959 40.0809236829959 20.9472453219021
vertex -26.8007308479309 40.1579969387003 21.0514452387348
endloop
endfacet
facet normal 0.991931744117731 -0.126773084728408 2.15688190193738e-16
outer loop
vertex -26.7900933058241 40.2412300296806 21.536935979902
vertex -26.8007308479309 40.1579969387003 21.0514452387348
vertex -26.7900933058241 40.2412300296806 21.1507127201703
endloop
endfacet
facet normal 0.110098633590654 0.861463061157902 -0.495741550751929
outer loop
vertex -26.8196075047109 40.0102971716473 20.8385008591158
vertex -26.3553688569417 39.8860046338015 20.7256166571209
vertex -26.8277763500778 39.9463803154034 20.7256166571209
endloop
endfacet
facet normal 0.110098633590654 0.861463061157902 -0.495741550751929
outer loop
vertex -26.3553688569417 39.8860046338015 20.7256166571209
vertex -26.8196075047109 40.0102971716473 20.8385008591158
vertex -26.3472000115749 39.9499214900454 20.8385008591158
endloop
endfacet
facet normal 0.126242381542514 0.987779274862178 -0.0914054990425813
outer loop
vertex -26.8573152199305 39.7152544202258 19.9857865975953
vertex -26.386413909575 39.6430936620385 19.8563502001251
vertex -26.8588214027111 39.7034693436404 19.8563502001251
endloop
endfacet
facet normal 0.126242381542514 0.987779274862178 -0.0914054990425813
outer loop
vertex -26.386413909575 39.6430936620385 19.8563502001251
vertex -26.8573152199305 39.7152544202258 19.9857865975953
vertex -26.3849077267945 39.6548787386239 19.9857865975953
endloop
endfacet
facet normal -0.101628644759831 -0.795189917993469 0.597783081799594
outer loop
vertex -26.3283233547948 40.0976212570985 21.0514452387348
vertex -26.810581136959 40.0809236829959 20.9472453219021
vertex -26.3381736438229 40.020548001394 20.9472453219021
endloop
endfacet
facet normal -0.101628644759831 -0.795189917993469 0.597783081799594
outer loop
vertex -26.810581136959 40.0809236829959 20.9472453219021
vertex -26.3283233547948 40.0976212570985 21.0514452387348
vertex -26.8007308479309 40.1579969387003 21.0514452387348
endloop
endfacet
facet normal 0.991931744117732 -0.126773084728404 -2.42869621181886e-15
outer loop
vertex -26.386413909575 39.6430936620385 19.8563502001251
vertex -26.3869165942582 39.639160422616 21.1507127201703
vertex -26.3869165942582 39.639160422616 19.7264301687885
endloop
endfacet
facet normal 0.991931744117732 -0.126773084728404 -2.42869621181886e-15
outer loop
vertex -26.3869165942582 39.639160422616 21.1507127201703
vertex -26.386413909575 39.6430936620385 19.8563502001251
vertex -26.3849077267945 39.6548787386239 19.9857865975953
endloop
endfacet
facet normal 0.991931744117732 -0.126773084728404 -2.42869621181886e-15
outer loop
vertex -26.3869165942582 39.639160422616 21.1507127201703
vertex -26.3849077267945 39.6548787386239 19.9857865975953
vertex -26.3824036527578 39.6744717818306 20.1142575276841
endloop
endfacet
facet normal 0.991931744117732 -0.126773084728404 -2.42869621181886e-15
outer loop
vertex -26.3869165942582 39.639160422616 21.1507127201703
vertex -26.3824036527578 39.6744717818306 20.1142575276841
vertex -26.3789110090071 39.7017998555675 20.2412847508774
endloop
endfacet
facet normal 0.991931744117732 -0.126773084728404 -2.42869621181886e-15
outer loop
vertex -26.3869165942582 39.639160422616 21.1507127201703
vertex -26.3789110090071 39.7017998555675 20.2412847508774
vertex -26.3744427970845 39.7367612297023 20.3663954019331
endloop
endfacet
facet normal 0.991931744117732 -0.126773084728404 -2.42869621181886e-15
outer loop
vertex -26.3869165942582 39.639160422616 21.1507127201703
vertex -26.3744427970845 39.7367612297023 20.3663954019331
vertex -26.3690156501344 39.7792257587572 20.4891237501452
endloop
endfacet
facet normal 0.991931744117732 -0.126773084728404 -2.42869621181886e-15
outer loop
vertex -26.3869165942582 39.639160422616 21.1507127201703
vertex -26.3690156501344 39.7792257587572 20.4891237501452
vertex -26.3626497709848 39.8290353663821 20.6090129330503
endloop
endfacet
facet normal 0.991931744117732 -0.126773084728404 -2.42869621181886e-15
outer loop
vertex -26.3869165942582 39.639160422616 21.1507127201703
vertex -26.3626497709848 39.8290353663821 20.6090129330503
vertex -26.3553688569417 39.8860046338015 20.7256166571209
endloop
endfacet
facet normal 0.991931744117732 -0.126773084728404 -2.42869621181886e-15
outer loop
vertex -26.3869165942582 39.639160422616 21.1507127201703
vertex -26.3553688569417 39.8860046338015 20.7256166571209
vertex -26.3472000115749 39.9499214900454 20.8385008591158
endloop
endfacet
facet normal 0.991931744117732 -0.126773084728404 -2.42869621181886e-15
outer loop
vertex -26.3869165942582 39.639160422616 21.1507127201703
vertex -26.3472000115749 39.9499214900454 20.8385008591158
vertex -26.3381736438229 40.020548001394 20.9472453219021
endloop
endfacet
facet normal 0.991931744117732 -0.126773084728404 -2.42869621181886e-15
outer loop
vertex -26.3869165942582 39.639160422616 21.1507127201703
vertex -26.3381736438229 40.020548001394 20.9472453219021
vertex -26.3283233547948 40.0976212570985 21.0514452387348
endloop
endfacet
facet normal 0.991931744117732 -0.126773084728404 -2.42869621181886e-15
outer loop
vertex -26.3869165942582 39.639160422616 21.1507127201703
vertex -26.3283233547948 40.0976212570985 21.0514452387348
vertex -26.3176858126881 40.1808543480787 21.1507127201703
endloop
endfacet
facet normal 0.123892656857657 0.96939393297469 -0.211957571906767
outer loop
vertex -26.8513185021431 39.7621755371694 20.2412847508774
vertex -26.3824036527578 39.6744717818306 20.1142575276841
vertex -26.8548111458939 39.7348474634325 20.1142575276841
endloop
endfacet
facet normal 0.123892656857657 0.96939393297469 -0.211957571906767
outer loop
vertex -26.3824036527578 39.6744717818306 20.1142575276841
vertex -26.8513185021431 39.7621755371694 20.2412847508774
vertex -26.3789110090071 39.7017998555675 20.2412847508774
endloop
endfacet
facet normal 0.113726371492993 0.889848174546747 -0.441855789464007
outer loop
vertex -26.8277763500778 39.9463803154034 20.7256166571209
vertex -26.3626497709848 39.8290353663821 20.6090129330503
vertex -26.8350572641208 39.889411047984 20.6090129330503
endloop
endfacet
facet normal 0.113726371492993 0.889848174546747 -0.441855789464007
outer loop
vertex -26.3626497709848 39.8290353663821 20.6090129330503
vertex -26.8277763500778 39.9463803154034 20.7256166571209
vertex -26.3553688569417 39.8860046338015 20.7256166571209
endloop
endfacet
facet normal 0.0968179237917847 0.757548593334325 -0.645558996815809
outer loop
vertex -26.7900933058241 40.2412300296806 21.1507127201703
vertex -26.3283233547948 40.0976212570985 21.0514452387348
vertex -26.8007308479309 40.1579969387003 21.0514452387348
endloop
endfacet
facet normal 0.0968179237917847 0.757548593334325 -0.645558996815809
outer loop
vertex -26.3283233547948 40.0976212570985 21.0514452387348
vertex -26.7900933058241 40.2412300296806 21.1507127201703
vertex -26.3176858126881 40.1808543480787 21.1507127201703
endloop
endfacet
facet normal -0.126714081097561 -0.991470072189831 0.0305063534938429
outer loop
vertex -26.386413909575 39.6430936620385 19.8563502001251
vertex -26.8593240873943 39.6995361042179 19.7264301687885
vertex -26.3869165942582 39.639160422616 19.7264301687885
endloop
endfacet
facet normal -0.126714081097561 -0.991470072189831 0.0305063534938429
outer loop
vertex -26.8593240873943 39.6995361042179 19.7264301687885
vertex -26.386413909575 39.6430936620385 19.8563502001251
vertex -26.8588214027111 39.7034693436404 19.8563502001251
endloop
endfacet
facet normal 0.119699862356306 0.936587553202939 -0.329356490959589
outer loop
vertex -26.8414231432705 39.8396014403591 20.4891237501452
vertex -26.3744427970845 39.7367612297023 20.3663954019331
vertex -26.8468502902206 39.7971369113041 20.3663954019331
endloop
endfacet
facet normal 0.119699862356306 0.936587553202939 -0.329356490959589
outer loop
vertex -26.3744427970845 39.7367612297023 20.3663954019331
vertex -26.8414231432705 39.8396014403591 20.4891237501452
vertex -26.3690156501344 39.7792257587572 20.4891237501452
endloop
endfacet
facet normal 0.0 0.0 -1.0
outer loop
vertex -26.3176858126881 40.1808543480787 21.1507127201703
vertex -24.2322593565435 39.363786087459 21.1507127201703
vertex -26.3869165942582 39.639160422616 21.1507127201703
endloop
endfacet
facet normal 0.0 0.0 -1.0
outer loop
vertex -24.2322593565435 39.363786087459 21.1507127201703
vertex -26.3176858126881 40.1808543480787 21.1507127201703
vertex -24.1630285749733 39.9054800129217 21.1507127201703
endloop
endfacet
facet normal 0.126773084728407 0.991931744117731 7.53283372341781e-18
outer loop
vertex -26.3869165942582 39.639160422616 21.1507127201703
vertex -24.2322593565435 39.363786087459 19.7264301687885
vertex -26.3869165942582 39.639160422616 19.7264301687885
endloop
endfacet
facet normal 0.126773084728407 0.991931744117731 7.53283372341781e-18
outer loop
vertex -24.2322593565435 39.363786087459 19.7264301687885
vertex -26.3869165942582 39.639160422616 21.1507127201703
vertex -24.2322593565435 39.363786087459 21.1507127201703
endloop
endfacet
facet normal 0.126773084728407 0.991931744117731 7.53283372341781e-18
outer loop
vertex -23.7598518634074 39.3034104058571 21.1507127201703
vertex -20.809380894939 38.9263277000233 19.7264301687885
vertex -23.7598518634074 39.3034104058571 19.7264301687885
endloop
endfacet
facet normal 0.126773084728407 0.991931744117731 7.53283372341781e-18
outer loop
vertex -20.809380894939 38.9263277000233 19.7264301687885
vertex -23.7598518634074 39.3034104058571 21.1507127201703
vertex -20.809380894939 38.9263277000233 21.1507127201703
endloop
endfacet
facet normal 0.126773084728407 0.991931744117731 7.53283372341781e-18
outer loop
vertex -20.3369734018029 38.8659520184214 21.1507127201703
vertex -18.2630058756786 38.600890170696 19.7264301687885
vertex -20.3369734018029 38.8659520184214 19.7264301687885
endloop
endfacet
facet normal 0.126773084728407 0.991931744117731 7.53283372341781e-18
outer loop
vertex -18.2630058756786 38.600890170696 19.7264301687885
vertex -20.3369734018029 38.8659520184214 21.1507127201703
vertex -18.2630058756786 38.600890170696 21.1507127201703
endloop
endfacet
facet normal 0.126773084728407 0.991931744117731 7.53283372341781e-18
outer loop
vertex -26.8593240873943 39.6995361042179 19.7264301687885
vertex -17.7905983825425 38.5405144890941 -0.52705
vertex -26.8593240873943 39.6995361042179 -0.52705
endloop
endfacet
facet normal 0.126773084728407 0.991931744117731 7.53283372341781e-18
outer loop
vertex -17.7905983825425 38.5405144890941 -0.52705
vertex -26.8593240873943 39.6995361042179 19.7264301687885
vertex -17.7905983825425 38.5405144890941 19.7264301687885
endloop
endfacet
facet normal 0.126773084728407 0.991931744117731 7.53283372341781e-18
outer loop
vertex -17.7905983825425 38.5405144890941 19.7264301687885
vertex -26.8593240873943 39.6995361042179 19.7264301687885
vertex -26.3869165942582 39.639160422616 19.7264301687885
endloop
endfacet
facet normal 0.126773084728407 0.991931744117731 7.53283372341781e-18
outer loop
vertex -17.7905983825425 38.5405144890941 19.7264301687885
vertex -26.3869165942582 39.639160422616 19.7264301687885
vertex -24.2322593565435 39.363786087459 19.7264301687885
endloop
endfacet
facet normal 0.126773084728407 0.991931744117731 7.53283372341781e-18
outer loop
vertex -17.7905983825425 38.5405144890941 19.7264301687885
vertex -24.2322593565435 39.363786087459 19.7264301687885
vertex -23.7598518634074 39.3034104058571 19.7264301687885
endloop
endfacet
facet normal 0.126773084728407 0.991931744117731 7.53283372341781e-18
outer loop
vertex -17.7905983825425 38.5405144890941 19.7264301687885
vertex -23.7598518634074 39.3034104058571 19.7264301687885
vertex -20.809380894939 38.9263277000233 19.7264301687885
endloop
endfacet
facet normal 0.126773084728407 0.991931744117731 7.53283372341781e-18
outer loop
vertex -17.7905983825425 38.5405144890941 19.7264301687885
vertex -20.809380894939 38.9263277000233 19.7264301687885
vertex -20.3369734018029 38.8659520184214 19.7264301687885
endloop
endfacet
facet normal 0.126773084728407 0.991931744117731 7.53283372341781e-18
outer loop
vertex -17.7905983825425 38.5405144890941 19.7264301687885
vertex -20.3369734018029 38.8659520184214 19.7264301687885
vertex -18.2630058756786 38.600890170696 19.7264301687885
endloop
endfacet
facet normal 0.113726371492993 0.889848174546747 -0.441855789464007
outer loop
vertex -24.200711619227 39.6106302986446 20.7256166571209
vertex -23.7355850401339 39.4932853496233 20.6090129330503
vertex -24.20799253327 39.5536610312252 20.6090129330503
endloop
endfacet
facet normal 0.113726371492993 0.889848174546747 -0.441855789464007
outer loop
vertex -23.7355850401339 39.4932853496233 20.6090129330503
vertex -24.200711619227 39.6106302986446 20.7256166571209
vertex -23.7283041260909 39.5502546170427 20.7256166571209
endloop
endfacet
facet normal 0.991931744117732 -0.1267730847284 -5.80642077531494e-15
outer loop
vertex -24.2317566718603 39.3677193268815 19.8563502001251
vertex -24.2322593565435 39.363786087459 21.1507127201703
vertex -24.2322593565435 39.363786087459 19.7264301687885
endloop
endfacet
facet normal 0.991931744117732 -0.1267730847284 -5.80642077531494e-15
outer loop
vertex -24.2322593565435 39.363786087459 21.1507127201703
vertex -24.2317566718603 39.3677193268815 19.8563502001251
vertex -24.2302504890797 39.379504403467 19.9857865975953
endloop
endfacet
facet normal 0.991931744117732 -0.1267730847284 -5.80642077531494e-15
outer loop
vertex -24.2322593565435 39.363786087459 21.1507127201703
vertex -24.2302504890797 39.379504403467 19.9857865975953
vertex -24.2277464150431 39.3990974466737 20.1142575276841
endloop
endfacet
facet normal 0.991931744117732 -0.1267730847284 -5.80642077531494e-15
outer loop
vertex -24.2322593565435 39.363786087459 21.1507127201703
vertex -24.2277464150431 39.3990974466737 20.1142575276841
vertex -24.2242537712923 39.4264255204105 20.2412847508774
endloop
endfacet
facet normal 0.991931744117732 -0.1267730847284 -5.80642077531494e-15
outer loop
vertex -24.2322593565435 39.363786087459 21.1507127201703
vertex -24.2242537712923 39.4264255204105 20.2412847508774
vertex -24.2197855593698 39.4613868945453 20.3663954019331
endloop
endfacet
facet normal 0.991931744117732 -0.1267730847284 -5.80642077531494e-15
outer loop
vertex -24.2322593565435 39.363786087459 21.1507127201703
vertex -24.2197855593698 39.4613868945453 20.3663954019331
vertex -24.2143584124196 39.5038514236002 20.4891237501452
endloop
endfacet
facet normal 0.991931744117732 -0.1267730847284 -5.80642077531494e-15
outer loop
vertex -24.2322593565435 39.363786087459 21.1507127201703
vertex -24.2143584124196 39.5038514236002 20.4891237501452
vertex -24.20799253327 39.5536610312252 20.6090129330503
endloop
endfacet
facet normal 0.991931744117732 -0.1267730847284 -5.80642077531494e-15
outer loop
vertex -24.2322593565435 39.363786087459 21.1507127201703
vertex -24.20799253327 39.5536610312252 20.6090129330503
vertex -24.200711619227 39.6106302986446 20.7256166571209
endloop
endfacet
facet normal 0.991931744117732 -0.1267730847284 -5.80642077531494e-15
outer loop
vertex -24.2322593565435 39.363786087459 21.1507127201703
vertex -24.200711619227 39.6106302986446 20.7256166571209
vertex -24.1925427738601 39.6745471548884 20.8385008591158
endloop
endfacet
facet normal 0.991931744117732 -0.1267730847284 -5.80642077531494e-15
outer loop
vertex -24.2322593565435 39.363786087459 21.1507127201703
vertex -24.1925427738601 39.6745471548884 20.8385008591158
vertex -24.1835164061081 39.7451736662371 20.9472453219021
endloop
endfacet
facet normal 0.991931744117732 -0.1267730847284 -5.80642077531494e-15
outer loop
vertex -24.2322593565435 39.363786087459 21.1507127201703
vertex -24.1835164061081 39.7451736662371 20.9472453219021
vertex -24.17366611708 39.8222469219415 21.0514452387348
endloop
endfacet
facet normal 0.991931744117732 -0.1267730847284 -5.80642077531494e-15
outer loop
vertex -24.2322593565435 39.363786087459 21.1507127201703
vertex -24.17366611708 39.8222469219415 21.0514452387348
vertex -24.1630285749733 39.9054800129217 21.1507127201703
endloop
endfacet
facet normal -0.116930757244043 -0.914920783245035 0.386325197724179
outer loop
vertex -23.7355850401339 39.4932853496233 20.6090129330503
vertex -24.2143584124196 39.5038514236002 20.4891237501452
vertex -23.7419509192835 39.4434757419983 20.4891237501452
endloop
endfacet
facet normal -0.116930757244043 -0.914920783245035 0.386325197724179
outer loop
vertex -24.2143584124196 39.5038514236002 20.4891237501452
vertex -23.7355850401339 39.4932853496233 20.6090129330503
vertex -24.20799253327 39.5536610312252 20.6090129330503
endloop
endfacet
facet normal 0.991931744117731 -0.126773084728408 -1.60212313132589e-15
outer loop
vertex -23.7593491787242 39.3073436452796 19.8563502001251
vertex -23.7598518634074 39.3034104058571 21.1507127201703
vertex -23.7598518634074 39.3034104058571 19.7264301687885
endloop
endfacet
facet normal 0.991931744117731 -0.126773084728408 -1.60212313132589e-15
outer loop
vertex -23.7598518634074 39.3034104058571 21.1507127201703
vertex -23.7593491787242 39.3073436452796 19.8563502001251
vertex -23.7578429959436 39.3191287218651 19.9857865975953
endloop
endfacet
facet normal 0.991931744117731 -0.126773084728408 -1.60212313132589e-15
outer loop
vertex -23.7598518634074 39.3034104058571 21.1507127201703
vertex -23.7578429959436 39.3191287218651 19.9857865975953
vertex -23.755338921907 39.3387217650718 20.1142575276841
endloop
endfacet
facet normal 0.991931744117731 -0.126773084728408 -1.60212313132589e-15
outer loop
vertex -23.7598518634074 39.3034104058571 21.1507127201703
vertex -23.755338921907 39.3387217650718 20.1142575276841
vertex -23.7518462781562 39.3660498388086 20.2412847508774
endloop
endfacet
facet normal 0.991931744117731 -0.126773084728408 -1.60212313132589e-15
outer loop
vertex -23.7598518634074 39.3034104058571 21.1507127201703
vertex -23.7518462781562 39.3660498388086 20.2412847508774
vertex -23.7473780662337 39.4010112129434 20.3663954019331
endloop
endfacet
facet normal 0.991931744117731 -0.126773084728408 -1.60212313132589e-15
outer loop
vertex -23.7598518634074 39.3034104058571 21.1507127201703
vertex -23.7473780662337 39.4010112129434 20.3663954019331
vertex -23.7419509192835 39.4434757419983 20.4891237501452
endloop
endfacet
facet normal 0.991931744117731 -0.126773084728408 -1.60212313132589e-15
outer loop
vertex -23.7598518634074 39.3034104058571 21.1507127201703
vertex -23.7419509192835 39.4434757419983 20.4891237501452
vertex -23.7355850401339 39.4932853496233 20.6090129330503
endloop
endfacet
facet normal 0.991931744117731 -0.126773084728408 -1.60212313132589e-15
outer loop
vertex -23.7598518634074 39.3034104058571 21.1507127201703
vertex -23.7355850401339 39.4932853496233 20.6090129330503
vertex -23.7283041260909 39.5502546170427 20.7256166571209
endloop
endfacet
facet normal 0.991931744117731 -0.126773084728408 -1.60212313132589e-15
outer loop
vertex -23.7598518634074 39.3034104058571 21.1507127201703
vertex -23.7283041260909 39.5502546170427 20.7256166571209
vertex -23.720135280724 39.6141714732865 20.8385008591158
endloop
endfacet
facet normal 0.991931744117731 -0.126773084728408 -1.60212313132589e-15
outer loop
vertex -23.7598518634074 39.3034104058571 21.1507127201703
vertex -23.720135280724 39.6141714732865 20.8385008591158
vertex -23.7111089129721 39.6847979846352 20.9472453219021
endloop
endfacet
facet normal 0.991931744117731 -0.126773084728408 -1.60212313132589e-15
outer loop
vertex -23.7598518634074 39.3034104058571 21.1507127201703
vertex -23.7111089129721 39.6847979846352 20.9472453219021
vertex -23.7012586239439 39.7618712403396 21.0514452387348
endloop
endfacet
facet normal 0.991931744117731 -0.126773084728408 -1.60212313132589e-15
outer loop
vertex -23.7598518634074 39.3034104058571 21.1507127201703
vertex -23.7012586239439 39.7618712403396 21.0514452387348
vertex -23.6906210818372 39.8451043313198 21.1507127201703
endloop
endfacet
facet normal 0.123892656857657 0.969393932974691 -0.211957571906766
outer loop
vertex -24.2242537712923 39.4264255204105 20.2412847508774
vertex -23.755338921907 39.3387217650718 20.1142575276841
vertex -24.2277464150431 39.3990974466737 20.1142575276841
endloop
endfacet
facet normal 0.123892656857657 0.969393932974691 -0.211957571906766
outer loop
vertex -23.755338921907 39.3387217650718 20.1142575276841
vertex -24.2242537712923 39.4264255204105 20.2412847508774
vertex -23.7518462781562 39.3660498388086 20.2412847508774
endloop
endfacet
facet normal -0.126714081097561 -0.991470072189831 0.0305063534938429
outer loop
vertex -23.7593491787242 39.3073436452796 19.8563502001251
vertex -24.2322593565435 39.363786087459 19.7264301687885
vertex -23.7598518634074 39.3034104058571 19.7264301687885
endloop
endfacet
facet normal -0.126714081097561 -0.991470072189831 0.0305063534938429
outer loop
vertex -24.2322593565435 39.363786087459 19.7264301687885
vertex -23.7593491787242 39.3073436452796 19.8563502001251
vertex -24.2317566718603 39.3677193268815 19.8563502001251
endloop
endfacet
facet normal -0.101628644759831 -0.79518991799347 0.597783081799593
outer loop
vertex -23.7012586239439 39.7618712403396 21.0514452387348
vertex -24.1835164061081 39.7451736662371 20.9472453219021
vertex -23.7111089129721 39.6847979846352 20.9472453219021
endloop
endfacet
facet normal -0.101628644759831 -0.79518991799347 0.597783081799593
outer loop
vertex -24.1835164061081 39.7451736662371 20.9472453219021
vertex -23.7012586239439 39.7618712403396 21.0514452387348
vertex -24.17366611708 39.8222469219415 21.0514452387348
endloop
endfacet
facet normal -0.122023378696424 -0.954767828776938 0.27116173805329
outer loop
vertex -23.7473780662337 39.4010112129434 20.3663954019331
vertex -24.2242537712923 39.4264255204105 20.2412847508774
vertex -23.7518462781562 39.3660498388086 20.2412847508774
endloop
endfacet
facet normal -0.122023378696424 -0.954767828776938 0.27116173805329
outer loop
vertex -24.2242537712923 39.4264255204105 20.2412847508774
vertex -23.7473780662337 39.4010112129434 20.3663954019331
vertex -24.2197855593698 39.4613868945453 20.3663954019331
endloop
endfacet
facet normal 0.110098633590654 0.861463061157902 -0.495741550751929
outer loop
vertex -24.1925427738601 39.6745471548884 20.8385008591158
vertex -23.7283041260909 39.5502546170427 20.7256166571209
vertex -24.200711619227 39.6106302986446 20.7256166571209
endloop
endfacet
facet normal 0.110098633590654 0.861463061157902 -0.495741550751929
outer loop
vertex -23.7283041260909 39.5502546170427 20.7256166571209
vertex -24.1925427738601 39.6745471548884 20.8385008591158
vertex -23.720135280724 39.6141714732865 20.8385008591158
endloop
endfacet
facet normal 0.119699862356306 0.936587553202939 -0.329356490959589
outer loop
vertex -24.2143584124196 39.5038514236002 20.4891237501452
vertex -23.7473780662337 39.4010112129434 20.3663954019331
vertex -24.2197855593698 39.4613868945453 20.3663954019331
endloop
endfacet
facet normal 0.119699862356306 0.936587553202939 -0.329356490959589
outer loop
vertex -23.7473780662337 39.4010112129434 20.3663954019331
vertex -24.2143584124196 39.5038514236002 20.4891237501452
vertex -23.7419509192835 39.4434757419983 20.4891237501452
endloop
endfacet
facet normal 0.0968179237917839 0.757548593334326 -0.645558996815808
outer loop
vertex -24.1630285749733 39.9054800129217 21.1507127201703
vertex -23.7012586239439 39.7618712403396 21.0514452387348
vertex -24.17366611708 39.8222469219415 21.0514452387348
endloop
endfacet
facet normal 0.0968179237917839 0.757548593334326 -0.645558996815808
outer loop
vertex -23.7012586239439 39.7618712403396 21.0514452387348
vertex -24.1630285749733 39.9054800129217 21.1507127201703
vertex -23.6906210818372 39.8451043313198 21.1507127201703
endloop
endfacet
facet normal 0.126242381542514 0.987779274862178 -0.0914054990425827
outer loop
vertex -24.2302504890797 39.379504403467 19.9857865975953
vertex -23.7593491787242 39.3073436452796 19.8563502001251
vertex -24.2317566718603 39.3677193268815 19.8563502001251
endloop
endfacet
facet normal 0.126242381542514 0.987779274862178 -0.0914054990425827
outer loop
vertex -23.7593491787242 39.3073436452796 19.8563502001251
vertex -24.2302504890797 39.379504403467 19.9857865975953
vertex -23.7578429959436 39.3191287218651 19.9857865975953
endloop
endfacet
facet normal 0.106061047974264 0.829871108094157 -0.547781889124838
outer loop
vertex -24.1835164061081 39.7451736662371 20.9472453219021
vertex -23.720135280724 39.6141714732865 20.8385008591158
vertex -24.1925427738601 39.6745471548884 20.8385008591158
endloop
endfacet
facet normal 0.106061047974264 0.829871108094157 -0.547781889124838
outer loop
vertex -23.720135280724 39.6141714732865 20.8385008591158
vertex -24.1835164061081 39.7451736662371 20.9472453219021
vertex -23.7111089129721 39.6847979846352 20.9472453219021
endloop
endfacet
facet normal -0.125300738357804 -0.980411419385983 0.151964383013098
outer loop
vertex -23.755338921907 39.3387217650718 20.1142575276841
vertex -24.2302504890797 39.379504403467 19.9857865975953
vertex -23.7578429959436 39.3191287218651 19.9857865975953
endloop
endfacet
facet normal -0.125300738357804 -0.980411419385983 0.151964383013098
outer loop
vertex -24.2302504890797 39.379504403467 19.9857865975953
vertex -23.755338921907 39.3387217650718 20.1142575276841
vertex -24.2277464150431 39.3990974466737 20.1142575276841
endloop
endfacet
facet normal 0.0 0.0 -1.0
outer loop
vertex -23.6906210818372 39.8451043313198 21.1507127201703
vertex -20.809380894939 38.9263277000233 21.1507127201703
vertex -23.7598518634074 39.3034104058571 21.1507127201703
endloop
endfacet
facet normal 0.0 0.0 -1.0
outer loop
vertex -20.809380894939 38.9263277000233 21.1507127201703
vertex -23.6906210818372 39.8451043313198 21.1507127201703
vertex -20.7401501133688 39.468021625486 21.1507127201703
endloop
endfacet
facet normal 0.0 0.0 -1.0
outer loop
vertex -24.1630285749733 39.9054800129217 21.1507127201703
vertex -23.7598518634074 39.3034104058571 21.1507127201703
vertex -24.2322593565435 39.363786087459 21.1507127201703
endloop
endfacet
facet normal 0.0 0.0 -1.0
outer loop
vertex -23.7598518634074 39.3034104058571 21.1507127201703
vertex -24.1630285749733 39.9054800129217 21.1507127201703
vertex -23.6906210818372 39.8451043313198 21.1507127201703
endloop
endfacet
facet normal 0.126773084728398 0.991931744117733 -5.13369889591172e-16
outer loop
vertex -24.2322593565435 39.363786087459 21.1507127201703
vertex -23.7598518634074 39.3034104058571 19.7264301687885
vertex -24.2322593565435 39.363786087459 19.7264301687885
endloop
endfacet
facet normal 0.126773084728398 0.991931744117733 -5.13369889591172e-16
outer loop
vertex -23.7598518634074 39.3034104058571 19.7264301687885
vertex -24.2322593565435 39.363786087459 21.1507127201703
vertex -23.7598518634074 39.3034104058571 21.1507127201703
endloop
endfacet
endsolid 728 West Main Street
