solid 734 West Main Street
facet normal -0.961526333947982 0.122887144327256 -0.245694645614521
outer loop
vertex -66.3266407348303 -4.45305481987454 18.8508234972866
vertex -60.118417821764 43.9663251716756 18.772472255132
vertex -66.306941744234 -4.45557243443698 18.772472255132
endloop
endfacet
facet normal -0.961526333947982 0.122887144327256 -0.245694645614521
outer loop
vertex -60.118417821764 43.9663251716756 18.772472255132
vertex -66.3266407348303 -4.45305481987454 18.8508234972866
vertex -60.1355991977979 43.9885417768344 18.8508234972866
endloop
endfacet
facet normal -0.980949738565568 0.125369537832557 -0.148391675614893
outer loop
vertex -66.306941744234 -4.45557243443698 18.772472255132
vertex -60.1080408224091 43.9529070556327 18.6925382712209
vertex -66.2950441865351 -4.457092992781 18.6925382712209
endloop
endfacet
facet normal -0.980949738565568 0.125369537832557 -0.148391675614893
outer loop
vertex -60.1080408224091 43.9529070556327 18.6925382712209
vertex -66.306941744234 -4.45557243443698 18.772472255132
vertex -60.118417821764 43.9663251716756 18.772472255132
endloop
endfacet
facet normal -0.990709514107373 0.126616878548315 -0.0496268548652259
outer loop
vertex -66.2950441865351 -4.457092992781 18.6925382712209
vertex -60.1045704266555 43.9484196145773 18.6118089991207
vertex -66.2910652681306 -4.45760151543188 18.6118089991207
endloop
endfacet
facet normal -0.990709514107373 0.126616878548315 -0.0496268548652259
outer loop
vertex -60.1045704266555 43.9484196145773 18.6118089991207
vertex -66.2950441865351 -4.457092992781 18.6925382712209
vertex -60.1080408224091 43.9529070556327 18.6925382712209
endloop
endfacet
facet normal -0.0 -0.0 1.0
outer loop
vertex -66.2910652681307 -4.45760151543189 19.8900445208338
vertex -60.9286340497239 45.0139859640533 19.8900445208338
vertex -67.2358802544028 -4.33685015222807 19.8900445208338
endloop
endfacet
facet normal -0.0 -0.0 1.0
outer loop
vertex -60.9286340497239 45.0139859640533 19.8900445208338
vertex -66.2910652681307 -4.45760151543189 19.8900445208338
vertex -60.1045704266555 43.9484196145774 19.8900445208338
endloop
endfacet
facet normal -0.0 -0.0 1.0
outer loop
vertex -60.9286340497239 45.0139859640533 19.8900445208338
vertex -60.1045704266555 43.9484196145774 19.8900445208338
vertex -47.361090846856 43.2799963884466 19.8900445208338
endloop
endfacet
facet normal -0.0 -0.0 1.0
outer loop
vertex -47.361090846856 43.2799963884466 19.8900445208338
vertex -60.1045704266555 43.9484196145774 19.8900445208338
vertex -47.4818422100598 42.3351814021745 19.8900445208338
endloop
endfacet
facet normal 0.0 0.0 -1.0
outer loop
vertex -60.6966063154602 44.7139594383635 19.3683046999562
vertex -66.799786426897 -4.39258479331782 19.3683046999562
vertex -66.969853124426 -4.37084954794113 19.3683046999562
endloop
endfacet
facet normal 0.0 0.0 -1.0
outer loop
vertex -66.799786426897 -4.39258479331782 19.3683046999562
vertex -60.6966063154602 44.7139594383635 19.3683046999562
vertex -60.5482748633079 44.5221574954578 19.3683046999562
endloop
endfacet
facet normal 0.0 0.0 -1.0
outer loop
vertex -60.5482748633079 44.5221574954578 19.3683046999562
vertex -60.6966063154602 44.7139594383635 19.3683046999562
vertex -47.395090242569 43.0139692584698 19.3683046999562
endloop
endfacet
facet normal 0.0 0.0 -1.0
outer loop
vertex -60.5482748633079 44.5221574954578 19.3683046999562
vertex -47.395090242569 43.0139692584698 19.3683046999562
vertex -47.4168254879457 42.8439025609408 19.3683046999562
endloop
endfacet
facet normal 0.0 0.0 -1.0
outer loop
vertex -60.7295688603829 44.7565820923425 19.5397546999562
vertex -66.969853124426 -4.37084954794113 19.5397546999562
vertex -67.0076457238769 -4.36601949341298 19.5397546999562
endloop
endfacet
facet normal 0.0 0.0 -1.0
outer loop
vertex -66.969853124426 -4.37084954794113 19.5397546999562
vertex -60.7295688603829 44.7565820923425 19.5397546999562
vertex -60.6966063154602 44.7139594383635 19.5397546999562
endloop
endfacet
facet normal 0.0 0.0 -1.0
outer loop
vertex -60.6966063154602 44.7139594383635 19.5397546999562
vertex -60.7295688603829 44.7565820923425 19.5397546999562
vertex -47.3902601880409 43.0517618579207 19.5397546999562
endloop
endfacet
facet normal 0.0 0.0 -1.0
outer loop
vertex -60.6966063154602 44.7139594383635 19.5397546999562
vertex -47.3902601880409 43.0517618579207 19.5397546999562
vertex -47.395090242569 43.0139692584698 19.5397546999562
endloop
endfacet
facet normal -0.991931744117731 0.126773084728407 5.42813636039624e-16
outer loop
vertex -66.2910652681306 -4.45760151543188 18.6118089991207
vertex -60.1045704266555 43.9484196145774 -2.08885960215128
vertex -66.2910652681307 -4.45760151543189 -2.08885960215128
endloop
endfacet
facet normal -0.991931744117731 0.126773084728407 5.42813636039624e-16
outer loop
vertex -60.1045704266555 43.9484196145774 -2.08885960215128
vertex -66.2910652681306 -4.45760151543188 18.6118089991207
vertex -60.1045704266555 43.9484196145773 18.6118089991207
endloop
endfacet
facet normal 0.126773084728407 0.991931744117731 2.40976776315101e-16
outer loop
vertex -60.1045704266555 43.9484196145773 18.6118089991207
vertex -47.4818422100598 42.3351814021745 -2.08885960215128
vertex -60.1045704266555 43.9484196145774 -2.08885960215128
endloop
endfacet
facet normal 0.126773084728407 0.991931744117731 2.40976776315101e-16
outer loop
vertex -47.4818422100598 42.3351814021745 -2.08885960215128
vertex -60.1045704266555 43.9484196145773 18.6118089991207
vertex -47.4818422100598 42.3351814021745 18.6118089991207
endloop
endfacet
facet normal -0.932630646019047 0.119194152832807 -0.340577204223309
outer loop
vertex -66.3539470976798 -4.44956495086726 18.9268201361795
vertex -60.1355991977979 43.9885417768344 18.8508234972866
vertex -66.3266407348303 -4.45305481987454 18.8508234972866
endloop
endfacet
facet normal -0.932630646019047 0.119194152832807 -0.340577204223309
outer loop
vertex -60.1355991977979 43.9885417768344 18.8508234972866
vertex -66.3539470976798 -4.44956495086726 18.9268201361795
vertex -60.15941569164 44.0193380086911 18.9268201361795
endloop
endfacet
facet normal -0.894547334837371 0.114326944112245 -0.43210463499633
outer loop
vertex -66.3885918296401 -4.44513720715782 18.999713506206
vertex -60.15941569164 44.0193380086911 18.9268201361795
vertex -66.3539470976798 -4.44956495086726 18.9268201361795
endloop
endfacet
facet normal -0.894547334837371 0.114326944112245 -0.43210463499633
outer loop
vertex -60.15941569164 44.0193380086911 18.9268201361795
vertex -66.3885918296401 -4.44513720715782 18.999713506206
vertex -60.189632679891 44.0584104843609 18.999713506206
endloop
endfacet
facet normal -0.847651570484252 0.10833346649345 -0.519375273856096
outer loop
vertex -66.4302336351018 -4.43981520777294 19.0687855129903
vertex -60.189632679891 44.0584104843609 18.999713506206
vertex -66.3885918296401 -4.44513720715782 18.999713506206
endloop
endfacet
facet normal -0.847651570484252 0.10833346649345 -0.519375273856096
outer loop
vertex -60.189632679891 44.0584104843609 18.999713506206
vertex -66.4302336351018 -4.43981520777294 19.0687855129903
vertex -60.2259524859677 44.1053742892074 19.0687855129903
endloop
endfacet
facet normal -0.792405337151318 0.101272763515877 -0.601529391654276
outer loop
vertex -66.4784622881926 -4.43365138131929 19.1333557075484
vertex -60.2259524859677 44.1053742892074 19.0687855129903
vertex -66.4302336351018 -4.43981520777294 19.0687855129903
endloop
endfacet
facet normal -0.792405337151318 0.101272763515877 -0.601529391654276
outer loop
vertex -60.2259524859677 44.1053742892074 19.0687855129903
vertex -66.4784622881926 -4.43365138131929 19.1333557075484
vertex -60.2680173126049 44.1597667687519 19.1333557075484
endloop
endfacet
facet normal -0.986278457635014 0.126050570734357 0.106611714284316
outer loop
vertex -60.7260262608609 44.752001287251 19.5779437743561
vertex -67.0076457238769 -4.36601949341298 19.5397546999562
vertex -67.0035840215702 -4.36653859619774 19.5779437743561
endloop
endfacet
facet normal -0.986278457635014 0.126050570734357 0.106611714284316
outer loop
vertex -67.0076457238769 -4.36601949341298 19.5397546999562
vertex -60.7260262608609 44.752001287251 19.5779437743561
vertex -60.7295688603829 44.7565820923425 19.5397546999562
endloop
endfacet
facet normal -0.991931744117731 0.126773084728407 0.0
outer loop
vertex -60.6966063154602 44.7139594383635 19.5397546999562
vertex -66.969853124426 -4.37084954794113 19.3683046999562
vertex -66.969853124426 -4.37084954794113 19.5397546999562
endloop
endfacet
facet normal -0.991931744117731 0.126773084728407 0.0
outer loop
vertex -66.969853124426 -4.37084954794113 19.3683046999562
vertex -60.6966063154602 44.7139594383635 19.5397546999562
vertex -60.6966063154602 44.7139594383635 19.3683046999562
endloop
endfacet
facet normal -0.412524020692549 0.0527223197945692 -0.909419754209866
outer loop
vertex -60.5482748633079 44.5221574954578 19.3683046999562
vertex -66.7268721346809 -4.40190354916956 19.3346896357622
vertex -66.799786426897 -4.39258479331782 19.3683046999562
endloop
endfacet
facet normal -0.412524020692549 0.0527223197945692 -0.909419754209866
outer loop
vertex -66.7268721346809 -4.40190354916956 19.3346896357622
vertex -60.5482748633079 44.5221574954578 19.3683046999562
vertex -60.4846793269434 44.4399244473899 19.3346896357622
endloop
endfacet
facet normal -0.499916766515698 0.063891483435703 -0.863713554890089
outer loop
vertex -60.4846793269434 44.4399244473899 19.3346896357622
vertex -66.6576224155706 -4.41075395703305 19.2939532583511
vertex -66.7268721346809 -4.40190354916956 19.3346896357622
endloop
endfacet
facet normal -0.499916766515698 0.063891483435703 -0.863713554890089
outer loop
vertex -66.6576224155706 -4.41075395703305 19.2939532583511
vertex -60.4846793269434 44.4399244473899 19.3346896357622
vertex -60.4242800156967 44.3618243204162 19.2939532583511
endloop
endfacet
facet normal -0.582384682849213 0.0744312329766584 -0.809498655181215
outer loop
vertex -60.4242800156967 44.3618243204162 19.2939532583511
vertex -66.5927194692477 -4.41904882889506 19.2464968739526
vertex -66.6576224155706 -4.41075395703305 19.2939532583511
endloop
endfacet
facet normal -0.582384682849213 0.0744312329766584 -0.809498655181215
outer loop
vertex -66.5927194692477 -4.41904882889506 19.2464968739526
vertex -60.4242800156967 44.3618243204162 19.2939532583511
vertex -60.3676719412358 44.2886265022313 19.2464968739526
endloop
endfacet
facet normal -0.659115353599953 0.0842377381944172 -0.747309142264898
outer loop
vertex -60.3676719412358 44.2886265022313 19.2464968739526
vertex -66.5328026740356 -4.42670644949358 19.192787989594
vertex -66.5927194692477 -4.41904882889506 19.2464968739526
endloop
endfacet
facet normal -0.659115353599953 0.0842377381944172 -0.747309142264898
outer loop
vertex -66.5328026740356 -4.42670644949358 19.192787989594
vertex -60.3676719412358 44.2886265022313 19.2464968739526
vertex -60.3154127666222 44.2210520864206 19.192787989594
endloop
endfacet
facet normal -0.729352881995951 0.0932143922749654 -0.67775766362101
outer loop
vertex -66.5328026740356 -4.42670644949358 19.192787989594
vertex -60.2680173126049 44.1597667687519 19.1333557075484
vertex -66.4784622881926 -4.43365138131929 19.1333557075484
endloop
endfacet
facet normal -0.729352881995951 0.0932143922749654 -0.67775766362101
outer loop
vertex -60.2680173126049 44.1597667687519 19.1333557075484
vertex -66.5328026740356 -4.42670644949358 19.192787989594
vertex -60.3154127666222 44.2210520864206 19.192787989594
endloop
endfacet
facet normal -0.861488544256908 0.110101890438815 -0.495696542085893
outer loop
vertex -67.0533231905246 -4.36018171940903 19.7602205577105
vertex -60.752937057893 44.7867986487074 19.7268633958901
vertex -67.0344381008144 -4.3625953139856 19.7268633958901
endloop
endfacet
facet normal -0.861488544256908 0.110101890438815 -0.495696542085893
outer loop
vertex -60.752937057893 44.7867986487074 19.7268633958901
vertex -67.0533231905246 -4.36018171940903 19.7602205577105
vertex -60.7694085530266 44.8080973329941 19.7602205577105
endloop
endfacet
facet normal -0.916103474797966 0.117081910241565 -0.38346609988013
outer loop
vertex -67.0344381008144 -4.3625953139856 19.7268633958901
vertex -60.7401948669319 44.7703221904259 19.6913915233309
vertex -67.0198287761931 -4.36446244764578 19.6913915233309
endloop
endfacet
facet normal -0.916103474797966 0.117081910241565 -0.38346609988013
outer loop
vertex -60.7401948669319 44.7703221904259 19.6913915233309
vertex -67.0344381008144 -4.3625953139856 19.7268633958901
vertex -60.752937057893 44.7867986487074 19.7268633958901
endloop
endfacet
facet normal -0.956402288258736 0.122232269551681 -0.265243162576718
outer loop
vertex -67.0198287761931 -4.36446244764578 19.6913915233309
vertex -60.731381104699 44.7589254387859 19.6543592654935
vertex -67.0097235192567 -4.36575394234932 19.6543592654935
endloop
endfacet
facet normal -0.956402288258736 0.122232269551681 -0.265243162576718
outer loop
vertex -60.731381104699 44.7589254387859 19.6543592654935
vertex -67.0198287761931 -4.36446244764578 19.6913915233309
vertex -60.7401948669319 44.7703221904259 19.6913915233309
endloop
endfacet
facet normal -0.981755227687917 0.125472482759323 -0.142875221706417
outer loop
vertex -67.0097235192567 -4.36575394234932 19.6543592654935
vertex -60.726633505474 44.7527864929165 19.6163453322656
vertex -67.0042802467094 -4.36644961567152 19.6163453322656
endloop
endfacet
facet normal -0.981755227687917 0.125472482759323 -0.142875221706417
outer loop
vertex -60.726633505474 44.7527864929165 19.6163453322656
vertex -67.0097235192567 -4.36575394234932 19.6543592654935
vertex -60.731381104699 44.7589254387859 19.6543592654935
endloop
endfacet
facet normal -0.99176609804924 0.126751914458174 -0.0182745435339052
outer loop
vertex -67.0042802467094 -4.36644961567152 19.6163453322656
vertex -60.7260262608609 44.752001287251 19.5779437743561
vertex -67.0035840215702 -4.36653859619774 19.5779437743561
endloop
endfacet
facet normal -0.99176609804924 0.126751914458174 -0.0182745435339052
outer loop
vertex -60.7260262608609 44.752001287251 19.5779437743561
vertex -67.0042802467094 -4.36644961567152 19.6163453322656
vertex -60.726633505474 44.7527864929165 19.6163453322656
endloop
endfacet
facet normal -0.793410974175825 0.101401288193578 -0.600180643481654
outer loop
vertex -67.0761889245616 -4.35725938160136 19.7909417303043
vertex -60.7694085530266 44.8080973329941 19.7602205577105
vertex -67.0533231905246 -4.36018171940903 19.7602205577105
endloop
endfacet
facet normal -0.793410974175825 0.101401288193578 -0.600180643481654
outer loop
vertex -60.7694085530266 44.8080973329941 19.7602205577105
vertex -67.0761889245616 -4.35725938160136 19.7909417303043
vertex -60.789351949256 44.8338854048389 19.7909417303043
endloop
endfacet
facet normal 0.125369537832557 0.980949738565575 -0.148391675614844
outer loop
vertex -60.118417821764 43.9663251716756 18.772472255132
vertex -47.4813336874089 42.3391603205789 18.6925382712209
vertex -60.1080408224091 43.9529070556327 18.6925382712209
endloop
endfacet
facet normal 0.125369537832557 0.980949738565575 -0.148391675614844
outer loop
vertex -47.4813336874089 42.3391603205789 18.6925382712209
vertex -60.118417821764 43.9663251716756 18.772472255132
vertex -47.4798131290649 42.3510578782778 18.772472255132
endloop
endfacet
facet normal 0.126616878548316 0.990709514107378 -0.0496268548651355
outer loop
vertex -60.1080408224091 43.9529070556327 18.6925382712209
vertex -47.4818422100598 42.3351814021745 18.6118089991207
vertex -60.1045704266555 43.9484196145773 18.6118089991207
endloop
endfacet
facet normal 0.126616878548316 0.990709514107378 -0.0496268548651355
outer loop
vertex -47.4818422100598 42.3351814021745 18.6118089991207
vertex -60.1080408224091 43.9529070556327 18.6925382712209
vertex -47.4813336874089 42.3391603205789 18.6925382712209
endloop
endfacet
facet normal -0.294668774578061 0.0376599193925653 -0.954857080279562
outer loop
vertex -60.9286340497239 45.0139859640533 19.8900445208338
vertex -67.1995020268171 -4.34149944403201 19.8786348345849
vertex -67.2358802544028 -4.33685015222807 19.8900445208338
endloop
endfacet
facet normal -0.294668774578061 0.0376599193925653 -0.954857080279562
outer loop
vertex -67.1995020268171 -4.34149944403201 19.8786348345849
vertex -60.9286340497239 45.0139859640533 19.8900445208338
vertex -60.8969051139421 44.9729584446637 19.8786348345849
endloop
endfacet
facet normal -0.410537242894729 0.0524684011639848 -0.910333037451508
outer loop
vertex -60.8969051139421 44.9729584446637 19.8786348345849
vertex -67.1648200800639 -4.34593194394984 19.8627386774789
vertex -67.1995020268171 -4.34149944403201 19.8786348345849
endloop
endfacet
facet normal -0.410537242894729 0.0524684011639848 -0.910333037451508
outer loop
vertex -67.1648200800639 -4.34593194394984 19.8627386774789
vertex -60.8969051139421 44.9729584446637 19.8786348345849
vertex -60.8666556671068 44.9338439979927 19.8627386774789
endloop
endfacet
facet normal -0.519990170393945 0.0664569496038495 -0.85158305322677
outer loop
vertex -60.8666556671068 44.9338439979927 19.8627386774789
vertex -67.1323763952882 -4.35007838449209 19.8426044616794
vertex -67.1648200800639 -4.34593194394984 19.8627386774789
endloop
endfacet
facet normal -0.519990170393945 0.0664569496038495 -0.85158305322677
outer loop
vertex -67.1323763952882 -4.35007838449209 19.8426044616794
vertex -60.8666556671068 44.9338439979927 19.8627386774789
vertex -60.8383584228734 44.8972538726747 19.8426044616794
endloop
endfacet
facet normal -0.621317116096888 0.0794069630992794 -0.779525224387509
outer loop
vertex -60.8383584228734 44.8972538726747 19.8426044616794
vertex -67.1026779759046 -4.35387396847168 19.8185468282708
vertex -67.1323763952882 -4.35007838449209 19.8426044616794
endloop
endfacet
facet normal -0.621317116096888 0.0794069630992794 -0.779525224387509
outer loop
vertex -67.1026779759046 -4.35387396847168 19.8185468282708
vertex -60.8383584228734 44.8972538726747 19.8426044616794
vertex -60.8124555874693 44.8637598693116 19.8185468282708
endloop
endfacet
facet normal -0.712934625232537 0.0911160694134339 -0.695285611845369
outer loop
vertex -67.1026779759046 -4.35387396847168 19.8185468282708
vertex -60.789351949256 44.8338854048389 19.7909417303043
vertex -67.0761889245616 -4.35725938160136 19.7909417303043
endloop
endfacet
facet normal -0.712934625232537 0.0911160694134339 -0.695285611845369
outer loop
vertex -60.789351949256 44.8338854048389 19.7909417303043
vertex -67.1026779759046 -4.35387396847168 19.8185468282708
vertex -60.8124555874693 44.8637598693116 19.8185468282708
endloop
endfacet
facet normal 0.0932143922749644 0.729352881995944 -0.677757663621017
outer loop
vertex -60.3154127666222 44.2210520864206 19.192787989594
vertex -47.4578920759472 42.5225784222364 19.1333557075484
vertex -60.2680173126049 44.1597667687519 19.1333557075484
endloop
endfacet
facet normal 0.0932143922749644 0.729352881995944 -0.677757663621017
outer loop
vertex -47.4578920759472 42.5225784222364 19.1333557075484
vertex -60.3154127666222 44.2210520864206 19.192787989594
vertex -47.4509471441215 42.5769188080794 19.192787989594
endloop
endfacet
facet normal 0.101272763515878 0.792405337151325 -0.601529391654267
outer loop
vertex -60.2680173126049 44.1597667687519 19.1333557075484
vertex -47.4640559024008 42.4743497691456 19.0687855129903
vertex -60.2259524859677 44.1053742892074 19.0687855129903
endloop
endfacet
facet normal 0.101272763515878 0.792405337151325 -0.601529391654267
outer loop
vertex -47.4640559024008 42.4743497691456 19.0687855129903
vertex -60.2680173126049 44.1597667687519 19.1333557075484
vertex -47.4578920759472 42.5225784222364 19.1333557075484
endloop
endfacet
facet normal 0.108333466493448 0.847651570484238 -0.519375273856118
outer loop
vertex -60.2259524859677 44.1053742892074 19.0687855129903
vertex -47.4693779017857 42.432707963684 18.999713506206
vertex -60.189632679891 44.0584104843609 18.999713506206
endloop
endfacet
facet normal 0.108333466493448 0.847651570484238 -0.519375273856118
outer loop
vertex -47.4693779017857 42.432707963684 18.999713506206
vertex -60.2259524859677 44.1053742892074 19.0687855129903
vertex -47.4640559024008 42.4743497691456 19.0687855129903
endloop
endfacet
facet normal 0.114326944112242 0.894547334837357 -0.43210463499636
outer loop
vertex -60.189632679891 44.0584104843609 18.999713506206
vertex -47.4738056454952 42.3980632317236 18.9268201361795
vertex -60.15941569164 44.0193380086911 18.9268201361795
endloop
endfacet
facet normal 0.114326944112242 0.894547334837357 -0.43210463499636
outer loop
vertex -47.4738056454952 42.3980632317236 18.9268201361795
vertex -60.189632679891 44.0584104843609 18.999713506206
vertex -47.4693779017857 42.432707963684 18.999713506206
endloop
endfacet
facet normal 0.119194152832806 0.932630646019042 -0.34057720422332
outer loop
vertex -60.15941569164 44.0193380086911 18.9268201361795
vertex -47.4772955145024 42.3707568688741 18.8508234972866
vertex -60.1355991977979 43.9885417768344 18.8508234972866
endloop
endfacet
facet normal 0.119194152832806 0.932630646019042 -0.34057720422332
outer loop
vertex -47.4772955145024 42.3707568688741 18.8508234972866
vertex -60.15941569164 44.0193380086911 18.9268201361795
vertex -47.4738056454952 42.3980632317236 18.9268201361795
endloop
endfacet
facet normal 0.122887144327256 0.961526333947982 -0.245694645614523
outer loop
vertex -60.1355991977979 43.9885417768344 18.8508234972866
vertex -47.4798131290649 42.3510578782778 18.772472255132
vertex -60.118417821764 43.9663251716756 18.772472255132
endloop
endfacet
facet normal 0.122887144327256 0.961526333947982 -0.245694645614523
outer loop
vertex -47.4798131290649 42.3510578782778 18.772472255132
vertex -60.1355991977979 43.9885417768344 18.8508234972866
vertex -47.4772955145024 42.3707568688741 18.8508234972866
endloop
endfacet
facet normal 0.0638914834357055 0.499916766515718 -0.863713554890077
outer loop
vertex -47.4261442437975 42.7709882687247 19.3346896357622
vertex -60.4242800156967 44.3618243204162 19.2939532583511
vertex -60.4846793269434 44.4399244473899 19.3346896357622
endloop
endfacet
facet normal 0.0638914834357055 0.499916766515718 -0.863713554890077
outer loop
vertex -60.4242800156967 44.3618243204162 19.2939532583511
vertex -47.4261442437975 42.7709882687247 19.3346896357622
vertex -47.4349946516609 42.7017385496145 19.2939532583511
endloop
endfacet
facet normal 0.0744312329766554 0.582384682849191 -0.809498655181232
outer loop
vertex -47.4349946516609 42.7017385496145 19.2939532583511
vertex -60.3676719412358 44.2886265022313 19.2464968739526
vertex -60.4242800156967 44.3618243204162 19.2939532583511
endloop
endfacet
facet normal 0.0744312329766554 0.582384682849191 -0.809498655181232
outer loop
vertex -60.3676719412358 44.2886265022313 19.2464968739526
vertex -47.4349946516609 42.7017385496145 19.2939532583511
vertex -47.4432895235229 42.6368356032916 19.2464968739526
endloop
endfacet
facet normal 0.0842377381944174 0.659115353599956 -0.747309142264896
outer loop
vertex -47.4432895235229 42.6368356032916 19.2464968739526
vertex -60.3154127666222 44.2210520864206 19.192787989594
vertex -60.3676719412358 44.2886265022313 19.2464968739526
endloop
endfacet
facet normal 0.0842377381944174 0.659115353599956 -0.747309142264896
outer loop
vertex -60.3154127666222 44.2210520864206 19.192787989594
vertex -47.4432895235229 42.6368356032916 19.2464968739526
vertex -47.4509471441215 42.5769188080794 19.192787989594
endloop
endfacet
facet normal 0.0527223197945719 0.412524020692571 -0.909419754209856
outer loop
vertex -47.4168254879457 42.8439025609408 19.3683046999562
vertex -60.4846793269434 44.4399244473899 19.3346896357622
vertex -60.5482748633079 44.5221574954578 19.3683046999562
endloop
endfacet
facet normal 0.0527223197945719 0.412524020692571 -0.909419754209856
outer loop
vertex -60.4846793269434 44.4399244473899 19.3346896357622
vertex -47.4168254879457 42.8439025609408 19.3683046999562
vertex -47.4261442437975 42.7709882687247 19.3346896357622
endloop
endfacet
facet normal 0.126773084728407 0.991931744117731 0.0
outer loop
vertex -60.6966063154602 44.7139594383635 19.5397546999562
vertex -47.395090242569 43.0139692584698 19.3683046999562
vertex -60.6966063154602 44.7139594383635 19.3683046999562
endloop
endfacet
facet normal 0.126773084728407 0.991931744117731 0.0
outer loop
vertex -47.395090242569 43.0139692584698 19.3683046999562
vertex -60.6966063154602 44.7139594383635 19.5397546999562
vertex -47.395090242569 43.0139692584698 19.5397546999562
endloop
endfacet
facet normal 0.126751914458175 0.991766098049249 -0.0182745435334055
outer loop
vertex -60.726633505474 44.7527864929165 19.6163453322656
vertex -47.3907792908256 43.047700155614 19.5779437743561
vertex -60.7260262608609 44.752001287251 19.5779437743561
endloop
endfacet
facet normal 0.126751914458175 0.991766098049249 -0.0182745435334055
outer loop
vertex -47.3907792908256 43.047700155614 19.5779437743561
vertex -60.726633505474 44.7527864929165 19.6163453322656
vertex -47.3906903102994 43.0483963807533 19.6163453322656
endloop
endfacet
facet normal 0.126050570734356 0.986278457635008 0.10661171428437
outer loop
vertex -60.7260262608609 44.752001287251 19.5779437743561
vertex -47.3902601880409 43.0517618579207 19.5397546999562
vertex -60.7295688603829 44.7565820923425 19.5397546999562
endloop
endfacet
facet normal 0.126050570734356 0.986278457635008 0.10661171428437
outer loop
vertex -47.3902601880409 43.0517618579207 19.5397546999562
vertex -60.7260262608609 44.752001287251 19.5779437743561
vertex -47.3907792908256 43.047700155614 19.5779437743561
endloop
endfacet
facet normal 0.0794069630992987 0.62131711609704 -0.779525224387386
outer loop
vertex -47.37431907912 43.1764925293321 19.8426044616794
vertex -60.8124555874693 44.8637598693116 19.8185468282708
vertex -60.8383584228734 44.8972538726747 19.8426044616794
endloop
endfacet
facet normal 0.0794069630992987 0.62131711609704 -0.779525224387386
outer loop
vertex -60.8124555874693 44.8637598693116 19.8185468282708
vertex -47.37431907912 43.1764925293321 19.8426044616794
vertex -47.3781146630996 43.1467941099485 19.8185468282708
endloop
endfacet
facet normal 0.0911160694134263 0.712934625232479 -0.695285611845429
outer loop
vertex -60.8124555874693 44.8637598693116 19.8185468282708
vertex -47.3815000762293 43.1203050586055 19.7909417303043
vertex -60.789351949256 44.8338854048389 19.7909417303043
endloop
endfacet
facet normal 0.0911160694134263 0.712934625232479 -0.695285611845429
outer loop
vertex -47.3815000762293 43.1203050586055 19.7909417303043
vertex -60.8124555874693 44.8637598693116 19.8185468282708
vertex -47.3781146630996 43.1467941099485 19.8185468282708
endloop
endfacet
facet normal 0.101401288193578 0.793410974175827 -0.60018064348165
outer loop
vertex -60.789351949256 44.8338854048389 19.7909417303043
vertex -47.3844224140369 43.0974393245684 19.7602205577105
vertex -60.7694085530266 44.8080973329941 19.7602205577105
endloop
endfacet
facet normal 0.101401288193578 0.793410974175827 -0.60018064348165
outer loop
vertex -47.3844224140369 43.0974393245684 19.7602205577105
vertex -60.789351949256 44.8338854048389 19.7909417303043
vertex -47.3815000762293 43.1203050586055 19.7909417303043
endloop
endfacet
facet normal 0.110101890438823 0.86148854425697 -0.495696542085785
outer loop
vertex -60.7694085530266 44.8080973329941 19.7602205577105
vertex -47.3868360086135 43.0785542348583 19.7268633958901
vertex -60.752937057893 44.7867986487074 19.7268633958901
endloop
endfacet
facet normal 0.110101890438823 0.86148854425697 -0.495696542085785
outer loop
vertex -47.3868360086135 43.0785542348583 19.7268633958901
vertex -60.7694085530266 44.8080973329941 19.7602205577105
vertex -47.3844224140369 43.0974393245684 19.7602205577105
endloop
endfacet
facet normal 0.117081910241554 0.916103474797886 -0.383466099880326
outer loop
vertex -60.752937057893 44.7867986487074 19.7268633958901
vertex -47.3887031422737 43.0639449102369 19.6913915233309
vertex -60.7401948669319 44.7703221904259 19.6913915233309
endloop
endfacet
facet normal 0.117081910241554 0.916103474797886 -0.383466099880326
outer loop
vertex -47.3887031422737 43.0639449102369 19.6913915233309
vertex -60.752937057893 44.7867986487074 19.7268633958901
vertex -47.3868360086135 43.0785542348583 19.7268633958901
endloop
endfacet
facet normal 0.122232269551683 0.956402288258757 -0.26524316257664
outer loop
vertex -60.7401948669319 44.7703221904259 19.6913915233309
vertex -47.3899946369772 43.0538396533005 19.6543592654935
vertex -60.731381104699 44.7589254387859 19.6543592654935
endloop
endfacet
facet normal 0.122232269551683 0.956402288258757 -0.26524316257664
outer loop
vertex -47.3899946369772 43.0538396533005 19.6543592654935
vertex -60.7401948669319 44.7703221904259 19.6913915233309
vertex -47.3887031422737 43.0639449102369 19.6913915233309
endloop
endfacet
facet normal 0.125472482759315 0.981755227687856 -0.142875221706842
outer loop
vertex -60.731381104699 44.7589254387859 19.6543592654935
vertex -47.3906903102994 43.0483963807533 19.6163453322656
vertex -60.726633505474 44.7527864929165 19.6163453322656
endloop
endfacet
facet normal 0.125472482759315 0.981755227687856 -0.142875221706842
outer loop
vertex -47.3906903102994 43.0483963807533 19.6163453322656
vertex -60.731381104699 44.7589254387859 19.6543592654935
vertex -47.3899946369772 43.0538396533005 19.6543592654935
endloop
endfacet
facet normal 0.991931744117731 -0.126773084728408 -4.39880764933597e-15
outer loop
vertex -47.3902601880409 43.0517618579207 19.5397546999562
vertex -47.3907792908256 43.047700155614 19.5779437743561
vertex -47.395090242569 43.0139692584698 19.5397546999562
endloop
endfacet
facet normal 0.991931744117731 -0.126773084728408 -4.39880764933597e-15
outer loop
vertex -47.4813336874089 42.3391603205789 18.6925382712209
vertex -47.4818422100598 42.3351814021745 19.8900445208338
vertex -47.4818422100598 42.3351814021745 18.6118089991207
endloop
endfacet
facet normal 0.991931744117731 -0.126773084728408 -4.39880764933597e-15
outer loop
vertex -47.4818422100598 42.3351814021745 19.8900445208338
vertex -47.4813336874089 42.3391603205789 18.6925382712209
vertex -47.4798131290649 42.3510578782778 18.772472255132
endloop
endfacet
facet normal 0.991931744117731 -0.126773084728408 -4.39880764933597e-15
outer loop
vertex -47.4818422100598 42.3351814021745 19.8900445208338
vertex -47.4798131290649 42.3510578782778 18.772472255132
vertex -47.4772955145024 42.3707568688741 18.8508234972866
endloop
endfacet
facet normal 0.991931744117731 -0.126773084728408 -4.39880764933597e-15
outer loop
vertex -47.4818422100598 42.3351814021745 19.8900445208338
vertex -47.4772955145024 42.3707568688741 18.8508234972866
vertex -47.4738056454952 42.3980632317236 18.9268201361795
endloop
endfacet
facet normal 0.991931744117731 -0.126773084728408 -4.39880764933597e-15
outer loop
vertex -47.4818422100598 42.3351814021745 19.8900445208338
vertex -47.4738056454952 42.3980632317236 18.9268201361795
vertex -47.4693779017857 42.432707963684 18.999713506206
endloop
endfacet
facet normal 0.991931744117731 -0.126773084728408 -4.39880764933597e-15
outer loop
vertex -47.4818422100598 42.3351814021745 19.8900445208338
vertex -47.4693779017857 42.432707963684 18.999713506206
vertex -47.4640559024008 42.4743497691456 19.0687855129903
endloop
endfacet
facet normal 0.991931744117731 -0.126773084728408 -4.39880764933597e-15
outer loop
vertex -47.4818422100598 42.3351814021745 19.8900445208338
vertex -47.4640559024008 42.4743497691456 19.0687855129903
vertex -47.4578920759472 42.5225784222364 19.1333557075484
endloop
endfacet
facet normal 0.991931744117731 -0.126773084728408 -4.39880764933597e-15
outer loop
vertex -47.4818422100598 42.3351814021745 19.8900445208338
vertex -47.4578920759472 42.5225784222364 19.1333557075484
vertex -47.3815000762293 43.1203050586055 19.7909417303043
endloop
endfacet
facet normal 0.991931744117731 -0.126773084728408 -4.39880764933597e-15
outer loop
vertex -47.4818422100598 42.3351814021745 19.8900445208338
vertex -47.3815000762293 43.1203050586055 19.7909417303043
vertex -47.3781146630996 43.1467941099485 19.8185468282708
endloop
endfacet
facet normal 0.991931744117731 -0.126773084728408 -4.39880764933597e-15
outer loop
vertex -47.4818422100598 42.3351814021745 19.8900445208338
vertex -47.3781146630996 43.1467941099485 19.8185468282708
vertex -47.37431907912 43.1764925293321 19.8426044616794
endloop
endfacet
facet normal 0.991931744117731 -0.126773084728408 -4.39880764933597e-15
outer loop
vertex -47.4818422100598 42.3351814021745 19.8900445208338
vertex -47.37431907912 43.1764925293321 19.8426044616794
vertex -47.3701726385777 43.2089362141077 19.8627386774789
endloop
endfacet
facet normal 0.991931744117731 -0.126773084728408 -4.39880764933597e-15
outer loop
vertex -47.4818422100598 42.3351814021745 19.8900445208338
vertex -47.3701726385777 43.2089362141077 19.8627386774789
vertex -47.3657401386599 43.2436181608609 19.8786348345849
endloop
endfacet
facet normal 0.991931744117731 -0.126773084728408 -4.39880764933597e-15
outer loop
vertex -47.4818422100598 42.3351814021745 19.8900445208338
vertex -47.3657401386599 43.2436181608609 19.8786348345849
vertex -47.361090846856 43.2799963884466 19.8900445208338
endloop
endfacet
facet normal 0.991931744117731 -0.126773084728408 -4.39880764933597e-15
outer loop
vertex -47.3815000762293 43.1203050586055 19.7909417303043
vertex -47.4578920759472 42.5225784222364 19.1333557075484
vertex -47.4509471441215 42.5769188080794 19.192787989594
endloop
endfacet
facet normal 0.991931744117731 -0.126773084728408 -4.39880764933597e-15
outer loop
vertex -47.3815000762293 43.1203050586055 19.7909417303043
vertex -47.4509471441215 42.5769188080794 19.192787989594
vertex -47.4432895235229 42.6368356032916 19.2464968739526
endloop
endfacet
facet normal 0.991931744117731 -0.126773084728408 -4.39880764933597e-15
outer loop
vertex -47.3815000762293 43.1203050586055 19.7909417303043
vertex -47.4432895235229 42.6368356032916 19.2464968739526
vertex -47.4349946516609 42.7017385496145 19.2939532583511
endloop
endfacet
facet normal 0.991931744117731 -0.126773084728408 -4.39880764933597e-15
outer loop
vertex -47.3815000762293 43.1203050586055 19.7909417303043
vertex -47.4349946516609 42.7017385496145 19.2939532583511
vertex -47.4261442437975 42.7709882687247 19.3346896357622
endloop
endfacet
facet normal 0.991931744117731 -0.126773084728408 -4.39880764933597e-15
outer loop
vertex -47.3815000762293 43.1203050586055 19.7909417303043
vertex -47.4261442437975 42.7709882687247 19.3346896357622
vertex -47.3844224140369 43.0974393245684 19.7602205577105
endloop
endfacet
facet normal 0.991931744117731 -0.126773084728408 -4.39880764933597e-15
outer loop
vertex -47.3844224140369 43.0974393245684 19.7602205577105
vertex -47.4261442437975 42.7709882687247 19.3346896357622
vertex -47.4168254879457 42.8439025609408 19.3683046999562
endloop
endfacet
facet normal 0.991931744117731 -0.126773084728408 -4.39880764933597e-15
outer loop
vertex -47.3844224140369 43.0974393245684 19.7602205577105
vertex -47.4168254879457 42.8439025609408 19.3683046999562
vertex -47.3868360086135 43.0785542348583 19.7268633958901
endloop
endfacet
facet normal 0.991931744117731 -0.126773084728408 -4.39880764933597e-15
outer loop
vertex -47.3868360086135 43.0785542348583 19.7268633958901
vertex -47.4168254879457 42.8439025609408 19.3683046999562
vertex -47.3887031422737 43.0639449102369 19.6913915233309
endloop
endfacet
facet normal 0.991931744117731 -0.126773084728408 -4.39880764933597e-15
outer loop
vertex -47.3887031422737 43.0639449102369 19.6913915233309
vertex -47.4168254879457 42.8439025609408 19.3683046999562
vertex -47.395090242569 43.0139692584698 19.5397546999562
endloop
endfacet
facet normal 0.991931744117731 -0.126773084728408 -4.39880764933597e-15
outer loop
vertex -47.395090242569 43.0139692584698 19.5397546999562
vertex -47.4168254879457 42.8439025609408 19.3683046999562
vertex -47.395090242569 43.0139692584698 19.3683046999562
endloop
endfacet
facet normal 0.991931744117731 -0.126773084728408 -4.39880764933597e-15
outer loop
vertex -47.3887031422737 43.0639449102369 19.6913915233309
vertex -47.395090242569 43.0139692584698 19.5397546999562
vertex -47.3899946369772 43.0538396533005 19.6543592654935
endloop
endfacet
facet normal 0.991931744117731 -0.126773084728408 -4.39880764933597e-15
outer loop
vertex -47.3899946369772 43.0538396533005 19.6543592654935
vertex -47.395090242569 43.0139692584698 19.5397546999562
vertex -47.3906903102994 43.0483963807533 19.6163453322656
endloop
endfacet
facet normal 0.991931744117731 -0.126773084728408 -4.39880764933597e-15
outer loop
vertex -47.3906903102994 43.0483963807533 19.6163453322656
vertex -47.395090242569 43.0139692584698 19.5397546999562
vertex -47.3907792908256 43.047700155614 19.5779437743561
endloop
endfacet
facet normal 0.0376599193925811 0.294668774578185 -0.954857080279523
outer loop
vertex -47.361090846856 43.2799963884466 19.8900445208338
vertex -60.8969051139421 44.9729584446637 19.8786348345849
vertex -60.9286340497239 45.0139859640533 19.8900445208338
endloop
endfacet
facet normal 0.0376599193925811 0.294668774578185 -0.954857080279523
outer loop
vertex -60.8969051139421 44.9729584446637 19.8786348345849
vertex -47.361090846856 43.2799963884466 19.8900445208338
vertex -47.3657401386599 43.2436181608609 19.8786348345849
endloop
endfacet
facet normal 0.0524684011639592 0.410537242894529 -0.9103330374516
outer loop
vertex -47.3657401386599 43.2436181608609 19.8786348345849
vertex -60.8666556671068 44.9338439979927 19.8627386774789
vertex -60.8969051139421 44.9729584446637 19.8786348345849
endloop
endfacet
facet normal 0.0524684011639592 0.410537242894529 -0.9103330374516
outer loop
vertex -60.8666556671068 44.9338439979927 19.8627386774789
vertex -47.3657401386599 43.2436181608609 19.8786348345849
vertex -47.3701726385777 43.2089362141077 19.8627386774789
endloop
endfacet
facet normal 0.0664569496038522 0.519990170393968 -0.851583053226756
outer loop
vertex -47.3701726385777 43.2089362141077 19.8627386774789
vertex -60.8383584228734 44.8972538726747 19.8426044616794
vertex -60.8666556671068 44.9338439979927 19.8627386774789
endloop
endfacet
facet normal 0.0664569496038522 0.519990170393968 -0.851583053226756
outer loop
vertex -60.8383584228734 44.8972538726747 19.8426044616794
vertex -47.3701726385777 43.2089362141077 19.8627386774789
vertex -47.37431907912 43.1764925293321 19.8426044616794
endloop
endfacet
facet normal 0.0 0.0 1.0
outer loop
vertex -47.4818422100598 42.3351814021745 19.8900445208338
vertex -60.1045704266555 43.9484196145774 19.8900445208338
vertex -51.7398195327599 9.01878083364507 19.8900445208338
endloop
endfacet
facet normal 0.0 0.0 1.0
outer loop
vertex -66.2910652681307 -4.45760151543189 19.8900445208338
vertex -51.7398195327599 9.01878083364507 19.8900445208338
vertex -60.1045704266555 43.9484196145774 19.8900445208338
endloop
endfacet
facet normal 0.0 0.0 1.0
outer loop
vertex -51.7398195327599 9.01878083364507 19.8900445208338
vertex -66.2910652681307 -4.45760151543189 19.8900445208338
vertex -33.1658518494295 -8.6911443093574 19.8900445208338
endloop
endfacet
facet normal 0.0 0.0 1.0
outer loop
vertex -51.7398195327599 9.01878083364507 19.8900445208338
vertex -33.1658518494295 -8.6911443093574 19.8900445208338
vertex -31.2373343306545 6.39847625212244 19.8900445208338
endloop
endfacet
facet normal 0.991931744117731 -0.126773084728407 -0.0
outer loop
vertex -47.4818422100598 42.3351814021745 -2.08885960215128
vertex -51.7398195327599 9.01878083364507 19.8900445208338
vertex -51.7398195327599 9.01878083364507 -2.08885960215128
endloop
endfacet
facet normal 0.991931744117731 -0.126773084728407 -0.0
outer loop
vertex -51.7398195327599 9.01878083364507 19.8900445208338
vertex -47.4818422100598 42.3351814021745 -2.08885960215128
vertex -47.4818422100598 42.3351814021745 18.6118089991207
endloop
endfacet
facet normal 0.991931744117731 -0.126773084728407 -0.0
outer loop
vertex -47.4818422100598 42.3351814021745 19.8900445208338
vertex -51.7398195327599 9.01878083364507 19.8900445208338
vertex -47.4818422100598 42.3351814021745 18.6118089991207
endloop
endfacet
facet normal -0.126773084728407 -0.991931744117731 2.77613754597727e-16
outer loop
vertex -33.1658518494295 -8.6911443093574 19.8900445208338
vertex -66.2910652681307 -4.45760151543189 -2.08885960215128
vertex -33.1658518494295 -8.6911443093574 -2.08885960215128
endloop
endfacet
facet normal -0.126773084728407 -0.991931744117731 2.77613754597727e-16
outer loop
vertex -66.2910652681307 -4.45760151543189 -2.08885960215128
vertex -33.1658518494295 -8.6911443093574 19.8900445208338
vertex -66.2910652681306 -4.45760151543188 18.6118089991207
endloop
endfacet
facet normal -0.126773084728407 -0.991931744117731 2.77613754597727e-16
outer loop
vertex -66.2910652681306 -4.45760151543188 18.6118089991207
vertex -33.1658518494295 -8.6911443093574 19.8900445208338
vertex -66.2950441865351 -4.457092992781 18.6925382712209
endloop
endfacet
facet normal -0.126773084728407 -0.991931744117731 2.77613754597727e-16
outer loop
vertex -66.2950441865351 -4.457092992781 18.6925382712209
vertex -33.1658518494295 -8.6911443093574 19.8900445208338
vertex -66.306941744234 -4.45557243443698 18.772472255132
endloop
endfacet
facet normal -0.126773084728407 -0.991931744117731 2.77613754597727e-16
outer loop
vertex -66.306941744234 -4.45557243443698 18.772472255132
vertex -33.1658518494295 -8.6911443093574 19.8900445208338
vertex -66.3266407348303 -4.45305481987454 18.8508234972866
endloop
endfacet
facet normal -0.126773084728407 -0.991931744117731 2.77613754597727e-16
outer loop
vertex -66.3266407348303 -4.45305481987454 18.8508234972866
vertex -33.1658518494295 -8.6911443093574 19.8900445208338
vertex -66.3539470976798 -4.44956495086726 18.9268201361795
endloop
endfacet
facet normal -0.126773084728407 -0.991931744117731 2.77613754597727e-16
outer loop
vertex -66.3539470976798 -4.44956495086726 18.9268201361795
vertex -33.1658518494295 -8.6911443093574 19.8900445208338
vertex -66.3885918296401 -4.44513720715782 18.999713506206
endloop
endfacet
facet normal -0.126773084728407 -0.991931744117731 2.77613754597727e-16
outer loop
vertex -66.3885918296401 -4.44513720715782 18.999713506206
vertex -33.1658518494295 -8.6911443093574 19.8900445208338
vertex -66.4302336351018 -4.43981520777294 19.0687855129903
endloop
endfacet
facet normal -0.126773084728407 -0.991931744117731 2.77613754597727e-16
outer loop
vertex -66.4302336351018 -4.43981520777294 19.0687855129903
vertex -33.1658518494295 -8.6911443093574 19.8900445208338
vertex -66.4784622881926 -4.43365138131929 19.1333557075484
endloop
endfacet
facet normal -0.126773084728407 -0.991931744117731 2.77613754597727e-16
outer loop
vertex -66.4784622881926 -4.43365138131929 19.1333557075484
vertex -33.1658518494295 -8.6911443093574 19.8900445208338
vertex -66.5328026740356 -4.42670644949358 19.192787989594
endloop
endfacet
facet normal -0.126773084728407 -0.991931744117731 2.77613754597727e-16
outer loop
vertex -66.5328026740356 -4.42670644949358 19.192787989594
vertex -33.1658518494295 -8.6911443093574 19.8900445208338
vertex -66.5927194692477 -4.41904882889506 19.2464968739526
endloop
endfacet
facet normal -0.126773084728407 -0.991931744117731 2.77613754597727e-16
outer loop
vertex -66.5927194692477 -4.41904882889506 19.2464968739526
vertex -33.1658518494295 -8.6911443093574 19.8900445208338
vertex -66.6576224155706 -4.41075395703305 19.2939532583511
endloop
endfacet
facet normal -0.126773084728407 -0.991931744117731 2.77613754597727e-16
outer loop
vertex -66.6576224155706 -4.41075395703305 19.2939532583511
vertex -33.1658518494295 -8.6911443093574 19.8900445208338
vertex -66.7268721346809 -4.40190354916956 19.3346896357622
endloop
endfacet
facet normal -0.126773084728407 -0.991931744117731 2.77613754597727e-16
outer loop
vertex -66.7268721346809 -4.40190354916956 19.3346896357622
vertex -33.1658518494295 -8.6911443093574 19.8900445208338
vertex -66.799786426897 -4.39258479331782 19.3683046999562
endloop
endfacet
facet normal -0.126773084728407 -0.991931744117731 2.77613754597727e-16
outer loop
vertex -66.799786426897 -4.39258479331782 19.3683046999562
vertex -33.1658518494295 -8.6911443093574 19.8900445208338
vertex -66.969853124426 -4.37084954794113 19.3683046999562
endloop
endfacet
facet normal -0.126773084728407 -0.991931744117731 2.77613754597727e-16
outer loop
vertex -66.969853124426 -4.37084954794113 19.3683046999562
vertex -33.1658518494295 -8.6911443093574 19.8900445208338
vertex -66.969853124426 -4.37084954794113 19.5397546999562
endloop
endfacet
facet normal -0.126773084728407 -0.991931744117731 2.77613754597727e-16
outer loop
vertex -66.969853124426 -4.37084954794113 19.5397546999562
vertex -33.1658518494295 -8.6911443093574 19.8900445208338
vertex -67.0076457238769 -4.36601949341298 19.5397546999562
endloop
endfacet
facet normal -0.126773084728407 -0.991931744117731 2.77613754597727e-16
outer loop
vertex -67.0076457238769 -4.36601949341298 19.5397546999562
vertex -33.1658518494295 -8.6911443093574 19.8900445208338
vertex -67.0035840215702 -4.36653859619774 19.5779437743561
endloop
endfacet
facet normal -0.126773084728407 -0.991931744117731 2.77613754597727e-16
outer loop
vertex -67.0035840215702 -4.36653859619774 19.5779437743561
vertex -33.1658518494295 -8.6911443093574 19.8900445208338
vertex -67.0042802467094 -4.36644961567152 19.6163453322656
endloop
endfacet
facet normal -0.126773084728407 -0.991931744117731 2.77613754597727e-16
outer loop
vertex -67.0042802467094 -4.36644961567152 19.6163453322656
vertex -33.1658518494295 -8.6911443093574 19.8900445208338
vertex -67.0097235192567 -4.36575394234932 19.6543592654935
endloop
endfacet
facet normal -0.126773084728407 -0.991931744117731 2.77613754597727e-16
outer loop
vertex -67.0097235192567 -4.36575394234932 19.6543592654935
vertex -33.1658518494295 -8.6911443093574 19.8900445208338
vertex -67.0198287761931 -4.36446244764578 19.6913915233309
endloop
endfacet
facet normal -0.126773084728407 -0.991931744117731 2.77613754597727e-16
outer loop
vertex -67.0198287761931 -4.36446244764578 19.6913915233309
vertex -33.1658518494295 -8.6911443093574 19.8900445208338
vertex -67.0344381008144 -4.3625953139856 19.7268633958901
endloop
endfacet
facet normal -0.126773084728407 -0.991931744117731 2.77613754597727e-16
outer loop
vertex -67.0344381008144 -4.3625953139856 19.7268633958901
vertex -33.1658518494295 -8.6911443093574 19.8900445208338
vertex -67.0533231905246 -4.36018171940903 19.7602205577105
endloop
endfacet
facet normal -0.126773084728407 -0.991931744117731 2.77613754597727e-16
outer loop
vertex -67.0533231905246 -4.36018171940903 19.7602205577105
vertex -33.1658518494295 -8.6911443093574 19.8900445208338
vertex -67.0761889245616 -4.35725938160136 19.7909417303043
endloop
endfacet
facet normal -0.126773084728407 -0.991931744117731 2.77613754597727e-16
outer loop
vertex -67.0761889245616 -4.35725938160136 19.7909417303043
vertex -33.1658518494295 -8.6911443093574 19.8900445208338
vertex -67.1026779759046 -4.35387396847168 19.8185468282708
endloop
endfacet
facet normal -0.126773084728407 -0.991931744117731 2.77613754597727e-16
outer loop
vertex -67.1026779759046 -4.35387396847168 19.8185468282708
vertex -33.1658518494295 -8.6911443093574 19.8900445208338
vertex -67.1323763952882 -4.35007838449209 19.8426044616794
endloop
endfacet
facet normal -0.126773084728407 -0.991931744117731 2.77613754597727e-16
outer loop
vertex -67.1323763952882 -4.35007838449209 19.8426044616794
vertex -33.1658518494295 -8.6911443093574 19.8900445208338
vertex -67.1648200800639 -4.34593194394984 19.8627386774789
endloop
endfacet
facet normal -0.126773084728407 -0.991931744117731 2.77613754597727e-16
outer loop
vertex -67.1648200800639 -4.34593194394984 19.8627386774789
vertex -33.1658518494295 -8.6911443093574 19.8900445208338
vertex -67.1995020268171 -4.34149944403201 19.8786348345849
endloop
endfacet
facet normal -0.126773084728407 -0.991931744117731 2.77613754597727e-16
outer loop
vertex -67.1995020268171 -4.34149944403201 19.8786348345849
vertex -33.1658518494295 -8.6911443093574 19.8900445208338
vertex -67.2358802544028 -4.33685015222807 19.8900445208338
endloop
endfacet
facet normal -0.126773084728407 -0.991931744117731 2.77613754597727e-16
outer loop
vertex -67.2358802544028 -4.33685015222807 19.8900445208338
vertex -33.1658518494295 -8.6911443093574 19.8900445208338
vertex -66.2910652681307 -4.45760151543189 19.8900445208338
endloop
endfacet
facet normal 0.991931744117731 -0.126773084728407 0.0
outer loop
vertex -31.2373343306545 6.39847625212244 -2.08885960215128
vertex -33.1658518494295 -8.6911443093574 19.8900445208338
vertex -33.1658518494295 -8.6911443093574 -2.08885960215128
endloop
endfacet
facet normal 0.991931744117731 -0.126773084728407 0.0
outer loop
vertex -33.1658518494295 -8.6911443093574 19.8900445208338
vertex -31.2373343306545 6.39847625212244 -2.08885960215128
vertex -31.2373343306545 6.39847625212244 19.8900445208338
endloop
endfacet
facet normal 0.126773084728407 0.991931744117731 0.0
outer loop
vertex -51.7398195327599 9.01878083364507 19.8900445208338
vertex -31.2373343306545 6.39847625212244 -2.08885960215128
vertex -51.7398195327599 9.01878083364507 -2.08885960215128
endloop
endfacet
facet normal 0.126773084728407 0.991931744117731 0.0
outer loop
vertex -31.2373343306545 6.39847625212244 -2.08885960215128
vertex -51.7398195327599 9.01878083364507 19.8900445208338
vertex -31.2373343306545 6.39847625212244 19.8900445208338
endloop
endfacet
endsolid 734 West Main Street
