solid 817 West Main Street
facet normal 0.0 0.0 -1.0
outer loop
vertex -23.103966407521 -23.2575004870929 8.5979
vertex -15.2930072585761 -24.7772279326437 8.5979
vertex -23.1932480442213 -23.884273042689 8.5979
endloop
endfacet
facet normal 0.0 0.0 -1.0
outer loop
vertex -15.2930072585761 -24.7772279326437 8.5979
vertex -23.103966407521 -23.2575004870929 8.5979
vertex -15.2037256218759 -24.1504553770477 8.5979
endloop
endfacet
facet normal -0.993672803733282 0.112313663998814 1.77526435898494e-18
outer loop
vertex -8.02945236748476 29.1422346260863 5.6769
vertex -9.15833146268541 19.1547013583998 1.54692775677804e-17
vertex -9.15833146268541 19.1547013583998 5.6769
endloop
endfacet
facet normal -0.993672803733282 0.112313663998814 1.77526435898494e-18
outer loop
vertex -9.15833146268541 19.1547013583998 1.54692775677804e-17
vertex -8.02945236748476 29.1422346260863 5.6769
vertex -9.15833146268541 19.1547013583998 -2.4892
endloop
endfacet
facet normal -0.993672803733282 0.112313663998814 1.77526435898494e-18
outer loop
vertex -9.15833146268541 19.1547013583998 -2.4892
vertex -8.02945236748476 29.1422346260863 5.6769
vertex -8.02945236748476 29.1422346260863 -2.4892
endloop
endfacet
facet normal 0.990006311343751 -0.141023060169394 1.43038614337059e-16
outer loop
vertex -9.63199426656864 14.9640639096582 5.6769
vertex -15.2037256218759 -24.1504553770477 8.5979
vertex -15.2037256218759 -24.1504553770477 5.6769
endloop
endfacet
facet normal 0.990006311343751 -0.141023060169394 1.43038614337059e-16
outer loop
vertex -15.2037256218759 -24.1504553770477 8.5979
vertex -9.63199426656864 14.9640639096582 5.6769
vertex -13.927532916183 -15.1913615124757 12.51585
endloop
endfacet
facet normal 0.990006311343751 -0.141023060169394 1.43038614337059e-16
outer loop
vertex -13.927532916183 -15.1913615124757 12.51585
vertex -9.63199426656864 14.9640639096582 5.6769
vertex -10.9855800302802 5.46165737125319 12.51585
endloop
endfacet
facet normal 0.990006311343751 -0.141023060169394 1.43038614337059e-16
outer loop
vertex -10.9855800302802 5.46165737125319 12.51585
vertex -9.63199426656864 14.9640639096582 5.6769
vertex -9.63199426656864 14.9640639096582 12.51585
endloop
endfacet
facet normal 0.990006311343751 -0.141023060169394 1.43038614337059e-16
outer loop
vertex -15.2037256218759 -24.1504553770477 8.5979
vertex -15.2930072585761 -24.7772279326437 12.51585
vertex -15.2930072585761 -24.7772279326437 8.5979
endloop
endfacet
facet normal 0.990006311343751 -0.141023060169394 1.43038614337059e-16
outer loop
vertex -15.2930072585761 -24.7772279326437 12.51585
vertex -15.2037256218759 -24.1504553770477 8.5979
vertex -13.927532916183 -15.1913615124757 12.51585
endloop
endfacet
facet normal 0.0 0.0 -1.0
outer loop
vertex -15.5192114419842 29.9887932527942 5.6769
vertex -15.2037256218759 -24.1504553770477 5.6769
vertex -23.103966407521 -23.2575004870929 5.6769
endloop
endfacet
facet normal 0.0 0.0 -1.0
outer loop
vertex -15.2037256218759 -24.1504553770477 5.6769
vertex -15.5192114419842 29.9887932527942 5.6769
vertex -8.02945236748476 29.1422346260863 5.6769
endloop
endfacet
facet normal 0.0 0.0 -1.0
outer loop
vertex -15.2037256218759 -24.1504553770477 5.6769
vertex -8.02945236748476 29.1422346260863 5.6769
vertex -9.15833146268541 19.1547013583998 5.6769
endloop
endfacet
facet normal 0.0 0.0 -1.0
outer loop
vertex -15.2037256218759 -24.1504553770477 5.6769
vertex -9.15833146268541 19.1547013583998 5.6769
vertex -9.63199426656864 14.9640639096582 5.6769
endloop
endfacet
facet normal 0.0 0.0 -1.0
outer loop
vertex -9.15833146268541 19.1547013583998 5.6769
vertex 12.5785802424777 12.4536288919567 5.6769
vertex -9.63199426656864 14.9640639096582 5.6769
endloop
endfacet
facet normal 0.0 0.0 -1.0
outer loop
vertex 12.5785802424777 12.4536288919567 5.6769
vertex -9.15833146268541 19.1547013583998 5.6769
vertex 13.0522430463609 16.6442663406983 5.6769
endloop
endfacet
facet normal -0.112313663998814 -0.993672803733282 -0.0
outer loop
vertex -15.2037256218759 -24.1504553770477 8.5979
vertex -23.103966407521 -23.2575004870929 5.6769
vertex -15.2037256218759 -24.1504553770477 5.6769
endloop
endfacet
facet normal -0.112313663998814 -0.993672803733282 -0.0
outer loop
vertex -23.103966407521 -23.2575004870929 5.6769
vertex -15.2037256218759 -24.1504553770477 8.5979
vertex -23.103966407521 -23.2575004870929 8.5979
endloop
endfacet
facet normal 0.0 0.0 -1.0
outer loop
vertex -9.15833146268541 19.1547013583998 -2.4892
vertex 12.5785802424777 12.4536288919567 -2.4892
vertex -9.63199426656864 14.9640639096582 -2.4892
endloop
endfacet
facet normal 0.0 0.0 -1.0
outer loop
vertex 12.5785802424777 12.4536288919567 -2.4892
vertex -9.15833146268541 19.1547013583998 -2.4892
vertex 13.0522430463609 16.6442663406983 -2.4892
endloop
endfacet
facet normal 0.112313663998814 0.993672803733282 -1.94888536286997e-17
outer loop
vertex -9.15833146268541 19.1547013583998 1.54692775677804e-17
vertex 13.0522430463609 16.6442663406983 -2.4892
vertex -9.15833146268541 19.1547013583998 -2.4892
endloop
endfacet
facet normal 0.112313663998814 0.993672803733282 -1.94888536286997e-17
outer loop
vertex 13.0522430463609 16.6442663406983 -2.4892
vertex -9.15833146268541 19.1547013583998 1.54692775677804e-17
vertex 13.0522430463609 16.6442663406983 5.6769
endloop
endfacet
facet normal 0.112313663998814 0.993672803733282 -1.94888536286997e-17
outer loop
vertex 13.0522430463609 16.6442663406983 5.6769
vertex -9.15833146268541 19.1547013583998 1.54692775677804e-17
vertex -9.15833146268541 19.1547013583998 5.6769
endloop
endfacet
facet normal -0.112313663998814 -0.993672803733282 -1.17547809022498e-16
outer loop
vertex 5.68822274859705 13.2324378655865 13.83665
vertex -2.63443286999161 14.1731378054582 12.51585
vertex 5.68822274859705 13.2324378655865 12.51585
endloop
endfacet
facet normal -0.112313663998814 -0.993672803733282 -1.17547809022498e-16
outer loop
vertex -2.63443286999161 14.1731378054582 12.51585
vertex 5.68822274859705 13.2324378655865 13.83665
vertex -2.63443286999161 14.1731378054582 13.83665
endloop
endfacet
facet normal -0.112313663998814 -0.993672803733282 -1.17547809022498e-16
outer loop
vertex 12.5785802424777 12.4536288919567 12.51585
vertex -9.63199426656864 14.9640639096582 5.6769
vertex 12.5785802424777 12.4536288919567 5.6769
endloop
endfacet
facet normal -0.112313663998814 -0.993672803733282 -1.17547809022498e-16
outer loop
vertex -9.63199426656864 14.9640639096582 5.6769
vertex 12.5785802424777 12.4536288919567 12.51585
vertex -9.63199426656864 14.9640639096582 12.51585
endloop
endfacet
facet normal -0.112313663998814 -0.993672803733282 -1.17547809022498e-16
outer loop
vertex -9.63199426656864 14.9640639096582 12.51585
vertex 12.5785802424777 12.4536288919567 12.51585
vertex 5.68822274859705 13.2324378655865 12.51585
endloop
endfacet
facet normal -0.112313663998814 -0.993672803733282 -1.17547809022498e-16
outer loop
vertex -9.63199426656864 14.9640639096582 12.51585
vertex 5.68822274859705 13.2324378655865 12.51585
vertex -2.63443286999161 14.1731378054582 12.51585
endloop
endfacet
facet normal 0.112313663998814 0.993672803733282 1.54652757198874e-16
outer loop
vertex -15.2930072585761 -24.7772279326437 8.5979
vertex 8.07192147064366 -27.4181382451637 -0.120417100082507
vertex -15.2930072585761 -24.7772279326437 -0.120417100082507
endloop
endfacet
facet normal 0.112313663998814 0.993672803733282 1.54652757198874e-16
outer loop
vertex 8.07192147064366 -27.4181382451637 -0.120417100082507
vertex -15.2930072585761 -24.7772279326437 8.5979
vertex 8.07192147064366 -27.4181382451637 12.51585
endloop
endfacet
facet normal 0.112313663998814 0.993672803733282 1.54652757198874e-16
outer loop
vertex 8.07192147064366 -27.4181382451637 12.51585
vertex -15.2930072585761 -24.7772279326437 8.5979
vertex -15.2930072585761 -24.7772279326437 12.51585
endloop
endfacet
facet normal 0.112313663998815 0.993672803733282 1.64924109642348e-16
outer loop
vertex -23.1932480442213 -23.884273042689 -0.120417100082507
vertex -15.2930072585761 -24.7772279326437 8.5979
vertex -15.2930072585761 -24.7772279326437 -0.120417100082507
endloop
endfacet
facet normal 0.112313663998815 0.993672803733282 1.64924109642348e-16
outer loop
vertex -15.2930072585761 -24.7772279326437 8.5979
vertex -23.1932480442213 -23.884273042689 -0.120417100082507
vertex -23.1932480442213 -23.884273042689 8.5979
endloop
endfacet
facet normal -0.993672803733282 0.112313663998814 -1.17892128474692e-16
outer loop
vertex 12.5785802424777 12.4536288919567 12.51585
vertex 8.07192147064366 -27.4181382451637 -0.120417100082507
vertex 8.07192147064366 -27.4181382451637 12.51585
endloop
endfacet
facet normal -0.993672803733282 0.112313663998814 -1.17892128474692e-16
outer loop
vertex 8.07192147064366 -27.4181382451637 -0.120417100082507
vertex 12.5785802424777 12.4536288919567 12.51585
vertex 10.1801163320998 -8.76630351540775 -0.120417100082507
endloop
endfacet
facet normal -0.993672803733282 0.112313663998814 -1.17892128474692e-16
outer loop
vertex 10.1801163320998 -8.76630351540775 -0.120417100082507
vertex 12.5785802424777 12.4536288919567 12.51585
vertex 12.5785802424777 12.4536288919567 -2.4892
endloop
endfacet
facet normal -0.993672803733282 0.112313663998814 -1.17892128474692e-16
outer loop
vertex 12.5785802424777 12.4536288919567 -2.4892
vertex 12.5785802424777 12.4536288919567 12.51585
vertex 12.5785802424777 12.4536288919567 5.6769
endloop
endfacet
facet normal -0.993672803733282 0.112313663998814 -1.17892128474692e-16
outer loop
vertex 12.5785802424777 12.4536288919567 -2.4892
vertex 12.5785802424777 12.4536288919567 5.6769
vertex 13.0522430463609 16.6442663406983 5.6769
endloop
endfacet
facet normal -0.993672803733282 0.112313663998814 -1.17892128474692e-16
outer loop
vertex 12.5785802424777 12.4536288919567 -2.4892
vertex 13.0522430463609 16.6442663406983 5.6769
vertex 13.0522430463609 16.6442663406983 -2.4892
endloop
endfacet
facet normal -0.112313663998815 -0.993672803733282 0.0
outer loop
vertex -8.02945236748476 29.1422346260863 5.6769
vertex -15.5192114419842 29.9887932527942 -2.4892
vertex -8.02945236748476 29.1422346260863 -2.4892
endloop
endfacet
facet normal -0.112313663998815 -0.993672803733282 0.0
outer loop
vertex -15.5192114419842 29.9887932527942 -2.4892
vertex -8.02945236748476 29.1422346260863 5.6769
vertex -15.5192114419842 29.9887932527942 5.6769
endloop
endfacet
facet normal 0.0 0.0 -1.0
outer loop
vertex -6.0540552878112 -16.0812913943571 12.51585
vertex -6.13192529238029 -16.7702307719177 12.51585
vertex -13.927532916183 -15.1913615124757 12.51585
endloop
endfacet
facet normal 0.0 0.0 -1.0
outer loop
vertex -13.927532916183 -15.1913615124757 12.51585
vertex 8.07192147064366 -27.4181382451637 12.51585
vertex -15.2930072585761 -24.7772279326437 12.51585
endloop
endfacet
facet normal 0.0 0.0 -1.0
outer loop
vertex 8.07192147064366 -27.4181382451637 12.51585
vertex -13.927532916183 -15.1913615124757 12.51585
vertex -6.13192529238029 -16.7702307719177 12.51585
endloop
endfacet
facet normal 0.0 0.0 -1.0
outer loop
vertex 8.07192147064366 -27.4181382451637 12.51585
vertex -6.13192529238029 -16.7702307719177 12.51585
vertex 2.19073032620838 -17.7109307117894 12.51585
endloop
endfacet
facet normal 0.0 0.0 -1.0
outer loop
vertex 8.07192147064366 -27.4181382451637 12.51585
vertex 2.19073032620838 -17.7109307117894 12.51585
vertex 5.68822274859705 13.2324378655865 12.51585
endloop
endfacet
facet normal 0.0 0.0 -1.0
outer loop
vertex 8.07192147064366 -27.4181382451637 12.51585
vertex 5.68822274859705 13.2324378655865 12.51585
vertex 12.5785802424777 12.4536288919567 12.51585
endloop
endfacet
facet normal 0.0 0.0 -1.0
outer loop
vertex -9.63199426656864 14.9640639096582 12.51585
vertex -3.71200488123289 4.63953375843919 12.51585
vertex -10.9855800302802 5.46165737125319 12.51585
endloop
endfacet
facet normal 0.0 0.0 -1.0
outer loop
vertex -3.71200488123289 4.63953375843919 12.51585
vertex -9.63199426656864 14.9640639096582 12.51585
vertex -2.63443286999161 14.1731378054582 12.51585
endloop
endfacet
facet normal 0.0 0.0 -1.0
outer loop
vertex -10.9855800302802 5.46165737125319 12.51585
vertex -13.927532916183 -15.1913615124757 12.51585
vertex -11.5854825096047 5.5294636403206 12.51585
endloop
endfacet
facet normal 0.993672803733282 -0.112313663998814 4.93089667272503e-17
outer loop
vertex -6.0540552878112 -16.0812913943571 12.51585
vertex -6.13192529238029 -16.7702307719177 13.83665
vertex -6.13192529238029 -16.7702307719177 12.51585
endloop
endfacet
facet normal 0.993672803733282 -0.112313663998814 4.93089667272503e-17
outer loop
vertex -6.13192529238029 -16.7702307719177 13.83665
vertex -6.0540552878112 -16.0812913943571 12.51585
vertex -2.63443286999161 14.1731378054582 13.83665
endloop
endfacet
facet normal 0.993672803733282 -0.112313663998814 4.93089667272503e-17
outer loop
vertex -2.63443286999161 14.1731378054582 13.83665
vertex -6.0540552878112 -16.0812913943571 12.51585
vertex -3.71200488123289 4.63953375843919 12.51585
endloop
endfacet
facet normal 0.993672803733282 -0.112313663998814 4.93089667272503e-17
outer loop
vertex -2.63443286999161 14.1731378054582 13.83665
vertex -3.71200488123289 4.63953375843919 12.51585
vertex -2.63443286999161 14.1731378054582 12.51585
endloop
endfacet
facet normal -0.993672803733282 0.112313663998814 -0.0
outer loop
vertex 5.68822274859705 13.2324378655865 13.83665
vertex 2.19073032620838 -17.7109307117894 12.51585
vertex 2.19073032620838 -17.7109307117894 13.83665
endloop
endfacet
facet normal -0.993672803733282 0.112313663998814 -0.0
outer loop
vertex 2.19073032620838 -17.7109307117894 12.51585
vertex 5.68822274859705 13.2324378655865 13.83665
vertex 5.68822274859705 13.2324378655865 12.51585
endloop
endfacet
facet normal 0.112313663998814 0.993672803733282 0.0
outer loop
vertex -6.13192529238029 -16.7702307719177 13.83665
vertex 2.19073032620838 -17.7109307117894 12.51585
vertex -6.13192529238029 -16.7702307719177 12.51585
endloop
endfacet
facet normal 0.112313663998814 0.993672803733282 0.0
outer loop
vertex 2.19073032620838 -17.7109307117894 12.51585
vertex -6.13192529238029 -16.7702307719177 13.83665
vertex 2.19073032620838 -17.7109307117894 13.83665
endloop
endfacet
facet normal 0.990006311343751 -0.141023060169394 2.98861807469001e-16
outer loop
vertex -23.1932480442213 -23.884273042689 -0.120417100082507
vertex -23.103966407521 -23.2575004870929 5.6769
vertex -23.1932480442213 -23.884273042689 8.5979
endloop
endfacet
facet normal 0.990006311343751 -0.141023060169394 2.98861807469001e-16
outer loop
vertex -23.103966407521 -23.2575004870929 5.6769
vertex -23.1932480442213 -23.884273042689 -0.120417100082507
vertex -19.5499258697741 1.69247974248475 -0.527744881836958
endloop
endfacet
facet normal 0.990006311343751 -0.141023060169394 2.98861807469001e-16
outer loop
vertex -23.103966407521 -23.2575004870929 5.6769
vertex -19.5499258697741 1.69247974248475 -0.527744881836958
vertex -15.5192114419842 29.9887932527942 5.6769
endloop
endfacet
facet normal 0.990006311343751 -0.141023060169394 2.98861807469001e-16
outer loop
vertex -15.5192114419842 29.9887932527942 5.6769
vertex -19.5499258697741 1.69247974248475 -0.527744881836958
vertex -16.4202045200874 23.6636657684822 -2.4892
endloop
endfacet
facet normal 0.990006311343751 -0.141023060169394 2.98861807469001e-16
outer loop
vertex -15.5192114419842 29.9887932527942 5.6769
vertex -16.4202045200874 23.6636657684822 -2.4892
vertex -15.5192114419842 29.9887932527942 -2.4892
endloop
endfacet
facet normal 0.990006311343751 -0.141023060169394 2.98861807469001e-16
outer loop
vertex -23.103966407521 -23.2575004870929 8.5979
vertex -23.1932480442213 -23.884273042689 8.5979
vertex -23.103966407521 -23.2575004870929 5.6769
endloop
endfacet
facet normal 0.0 0.0 -1.0
outer loop
vertex -2.63443286999161 14.1731378054582 13.83665
vertex 2.19073032620838 -17.7109307117894 13.83665
vertex -6.13192529238029 -16.7702307719177 13.83665
endloop
endfacet
facet normal 0.0 0.0 -1.0
outer loop
vertex 2.19073032620838 -17.7109307117894 13.83665
vertex -2.63443286999161 14.1731378054582 13.83665
vertex 5.68822274859705 13.2324378655865 13.83665
endloop
endfacet
facet normal 0.0 0.0 -1.0
outer loop
vertex -10.9855800302802 5.46165737125319 12.51585
vertex -6.0540552878112 -16.0812913943571 12.51585
vertex -13.927532916183 -15.1913615124757 12.51585
endloop
endfacet
facet normal 0.0 0.0 -1.0
outer loop
vertex -6.0540552878112 -16.0812913943571 12.51585
vertex -10.9855800302802 5.46165737125319 12.51585
vertex -3.71200488123289 4.63953375843919 12.51585
endloop
endfacet
endsolid 817 West Main Street
