solid 819 West Main Street
facet normal 0.151647032031383 0.988434710881843 2.20049143716978e-17
outer loop
vertex -23.7280397712792 -12.0599167634316 16.3576
vertex -17.2066935010296 -13.0604308043135 13.8938
vertex -23.7280397712792 -12.0599167634316 13.8938
endloop
endfacet
facet normal 0.151647032031383 0.988434710881843 2.20049143716978e-17
outer loop
vertex -17.2066935010296 -13.0604308043135 13.8938
vertex -23.7280397712792 -12.0599167634316 16.3576
vertex -17.2066935010296 -13.0604308043135 15.2472692249497
endloop
endfacet
facet normal 0.151647032031383 0.988434710881843 2.20049143716978e-17
outer loop
vertex -17.2066935010296 -13.0604308043135 15.2472692249497
vertex -23.7280397712792 -12.0599167634316 16.3576
vertex -17.2066935010296 -13.0604308043135 16.3576
endloop
endfacet
facet normal -0.988434710881843 0.151647032031383 1.28203272712347e-16
outer loop
vertex -17.2066935010296 -13.0604308043135 15.2472692249497
vertex -14.82037021273 2.49361425640956 13.0113065074753
vertex -17.2066935010296 -13.0604308043135 13.8938
endloop
endfacet
facet normal -0.988434710881843 0.151647032031383 1.28203272712347e-16
outer loop
vertex -14.82037021273 2.49361425640956 13.0113065074753
vertex -17.2066935010296 -13.0604308043135 15.2472692249497
vertex -9.79822536725488 35.2279330350099 8.80853891837111
endloop
endfacet
facet normal -0.988434710881843 0.151647032031383 1.28203272712347e-16
outer loop
vertex -14.82037021273 2.49361425640956 13.0113065074753
vertex -9.79822536725488 35.2279330350099 8.80853891837111
vertex -10.717234587713 29.2378348382097 2.87559029645213
endloop
endfacet
facet normal -0.988434710881843 0.151647032031383 1.28203272712347e-16
outer loop
vertex -10.717234587713 29.2378348382097 2.87559029645213
vertex -9.79822536725488 35.2279330350099 8.80853891837111
vertex -9.79822536725489 35.2279330350099 -3.3401
endloop
endfacet
facet normal -0.988434710881843 0.151647032031383 1.28203272712347e-16
outer loop
vertex -9.79822536725489 35.2279330350099 -3.3401
vertex -10.717234587713 29.2378348382097 -3.3401
vertex -10.717234587713 29.2378348382097 2.87559029645213
endloop
endfacet
facet normal -0.988434710881843 0.151647032031383 1.28203272712347e-16
outer loop
vertex -10.717234587713 29.2378348382097 2.87559029645213
vertex -14.82037021273 2.49361425640955 10.4648
vertex -14.82037021273 2.49361425640956 13.0113065074753
endloop
endfacet
facet normal 0.0409546746120911 0.2669423952266 0.962841872925198
outer loop
vertex -14.82037021273 2.49361425640955 10.4648
vertex -17.2385808579626 30.2383488790916 2.87559029645213
vertex -21.3417164829796 3.4941282972914 10.4648
endloop
endfacet
facet normal 0.0409546746120911 0.2669423952266 0.962841872925198
outer loop
vertex -17.2385808579626 30.2383488790916 2.87559029645213
vertex -14.82037021273 2.49361425640955 10.4648
vertex -10.717234587713 29.2378348382097 2.87559029645213
endloop
endfacet
facet normal -0.988434710881843 0.151647032031383 0.0
outer loop
vertex -23.7280397712792 -12.0599167634316 16.3576
vertex -25.5306370815569 -23.8092383779292 -3.3401
vertex -25.5306370815569 -23.8092383779292 16.3576
endloop
endfacet
facet normal -0.988434710881843 0.151647032031383 0.0
outer loop
vertex -25.5306370815569 -23.8092383779292 -3.3401
vertex -23.7280397712792 -12.0599167634316 16.3576
vertex -23.7280397712792 -12.0599167634316 13.8938
endloop
endfacet
facet normal -0.988434710881843 0.151647032031383 0.0
outer loop
vertex -25.5306370815569 -23.8092383779292 -3.3401
vertex -23.7280397712792 -12.0599167634316 13.8938
vertex -17.2385808579626 30.2383488790916 -3.3401
endloop
endfacet
facet normal -0.988434710881843 0.151647032031383 0.0
outer loop
vertex -17.2385808579626 30.2383488790916 -3.3401
vertex -23.7280397712792 -12.0599167634316 13.8938
vertex -21.3417164829796 3.4941282972914 10.4648
endloop
endfacet
facet normal -0.988434710881843 0.151647032031383 0.0
outer loop
vertex -21.3417164829796 3.4941282972914 10.4648
vertex -23.7280397712792 -12.0599167634316 13.8938
vertex -21.3417164829796 3.4941282972914 13.0113065074753
endloop
endfacet
facet normal -0.988434710881843 0.151647032031383 0.0
outer loop
vertex -17.2385808579626 30.2383488790916 -3.3401
vertex -21.3417164829796 3.4941282972914 10.4648
vertex -17.2385808579626 30.2383488790916 2.87559029645213
endloop
endfacet
facet normal 0.0 0.0 -1.0
outer loop
vertex -17.2385808579626 30.2383488790916 -3.3401
vertex -11.3518871061057 -25.9845619759582 -3.3401
vertex -25.5306370815569 -23.8092383779292 -3.3401
endloop
endfacet
facet normal 0.0 0.0 -1.0
outer loop
vertex -11.3518871061057 -25.9845619759582 -3.3401
vertex -17.2385808579626 30.2383488790916 -3.3401
vertex -10.717234587713 29.2378348382097 -3.3401
endloop
endfacet
facet normal 0.0 0.0 -1.0
outer loop
vertex -11.3518871061057 -25.9845619759582 -3.3401
vertex -10.717234587713 29.2378348382097 -3.3401
vertex -2.14082166205325 34.0531234778628 -3.3401
endloop
endfacet
facet normal 0.0 0.0 -1.0
outer loop
vertex -2.14082166205325 34.0531234778628 -3.3401
vertex -10.717234587713 29.2378348382097 -3.3401
vertex -9.79822536725489 35.2279330350099 -3.3401
endloop
endfacet
facet normal 0.151647032031383 0.988434710881843 -4.42475509983361e-16
outer loop
vertex -17.2385808579626 30.2383488790916 2.87559029645213
vertex -10.717234587713 29.2378348382097 -3.3401
vertex -17.2385808579626 30.2383488790916 -3.3401
endloop
endfacet
facet normal 0.151647032031383 0.988434710881843 -4.42475509983361e-16
outer loop
vertex -10.717234587713 29.2378348382097 -3.3401
vertex -17.2385808579626 30.2383488790916 2.87559029645213
vertex -10.717234587713 29.2378348382097 2.87559029645213
endloop
endfacet
facet normal 0.0 0.0 1.0
outer loop
vertex -19.0092908113073 -24.8097524188111 16.3576
vertex -23.7280397712792 -12.0599167634316 16.3576
vertex -25.5306370815569 -23.8092383779292 16.3576
endloop
endfacet
facet normal 0.0 0.0 1.0
outer loop
vertex -23.7280397712792 -12.0599167634316 16.3576
vertex -19.0092908113073 -24.8097524188111 16.3576
vertex -18.4842513071867 -21.3875471602893 16.3576
endloop
endfacet
facet normal 0.0 0.0 1.0
outer loop
vertex -23.7280397712792 -12.0599167634316 16.3576
vertex -18.4842513071867 -21.3875471602893 16.3576
vertex -17.2066935010296 -13.0604308043135 16.3576
endloop
endfacet
facet normal 0.0 0.0 1.0
outer loop
vertex -11.3518871061057 -25.9845619759582 16.3576
vertex -18.4842513071867 -21.3875471602893 16.3576
vertex -19.0092908113073 -24.8097524188111 16.3576
endloop
endfacet
facet normal 0.0 0.0 1.0
outer loop
vertex -18.4842513071867 -21.3875471602893 16.3576
vertex -11.3518871061057 -25.9845619759582 16.3576
vertex -10.8268476019851 -22.5623567174364 16.3576
endloop
endfacet
facet normal 0.0084911827337577 0.0553454930047677 0.998431157476489
outer loop
vertex -17.2066935010296 -13.0604308043135 13.8938
vertex -21.3417164829796 3.4941282972914 13.0113065074753
vertex -23.7280397712792 -12.0599167634316 13.8938
endloop
endfacet
facet normal 0.0084911827337577 0.0553454930047677 0.998431157476489
outer loop
vertex -21.3417164829796 3.4941282972914 13.0113065074753
vertex -17.2066935010296 -13.0604308043135 13.8938
vertex -14.82037021273 2.49361425640956 13.0113065074753
endloop
endfacet
facet normal 0.151647032031383 0.988434710881843 -2.90724436944204e-16
outer loop
vertex -9.79822536725488 35.2279330350099 8.80853891837111
vertex -2.14082166205325 34.0531234778628 -3.3401
vertex -9.79822536725489 35.2279330350099 -3.3401
endloop
endfacet
facet normal 0.151647032031383 0.988434710881843 -2.90724436944204e-16
outer loop
vertex -2.14082166205325 34.0531234778628 -3.3401
vertex -9.79822536725488 35.2279330350099 8.80853891837111
vertex -2.14082166205325 34.0531234778628 8.80853891837111
endloop
endfacet
facet normal 0.988434710881843 -0.151647032031383 -3.4937239785344e-17
outer loop
vertex -2.14082166205325 34.0531234778628 -3.3401
vertex -11.3518871061057 -25.9845619759582 16.3576
vertex -11.3518871061057 -25.9845619759582 -3.3401
endloop
endfacet
facet normal 0.988434710881843 -0.151647032031383 -3.4937239785344e-17
outer loop
vertex -11.3518871061057 -25.9845619759582 16.3576
vertex -2.14082166205325 34.0531234778628 -3.3401
vertex -10.8268476019851 -22.5623567174364 16.3576
endloop
endfacet
facet normal 0.988434710881843 -0.151647032031383 -3.4937239785344e-17
outer loop
vertex -10.8268476019851 -22.5623567174364 16.3576
vertex -2.14082166205325 34.0531234778628 -3.3401
vertex -2.14082166205325 34.0531234778628 8.80853891837111
endloop
endfacet
facet normal 0.988434710881843 -0.151647032031384 -2.42492566834039e-15
outer loop
vertex -17.2066935010296 -13.0604308043135 16.3576
vertex -18.4842513071867 -21.3875471602893 16.3576
vertex -17.2066935010296 -13.0604308043135 15.2472692249497
endloop
endfacet
facet normal 0.0198152741013647 0.129155872456332 0.991426303626413
outer loop
vertex -10.8268476019851 -22.5623567174364 16.3576
vertex -17.2066935010296 -13.0604308043135 15.2472692249497
vertex -18.4842513071867 -21.3875471602893 16.3576
endloop
endfacet
facet normal 0.0198152741013647 0.129155872456332 0.991426303626413
outer loop
vertex -17.2066935010296 -13.0604308043135 15.2472692249497
vertex -10.8268476019851 -22.5623567174364 16.3576
vertex -9.79822536725488 35.2279330350099 8.80853891837111
endloop
endfacet
facet normal 0.0198152741013647 0.129155872456332 0.991426303626413
outer loop
vertex -9.79822536725488 35.2279330350099 8.80853891837111
vertex -10.8268476019851 -22.5623567174364 16.3576
vertex -2.14082166205325 34.0531234778628 8.80853891837111
endloop
endfacet
facet normal 0.151647032031383 0.988434710881843 -8.62282320777191e-16
outer loop
vertex -21.3417164829796 3.4941282972914 13.0113065074753
vertex -14.82037021273 2.49361425640955 10.4648
vertex -21.3417164829796 3.4941282972914 10.4648
endloop
endfacet
facet normal 0.151647032031383 0.988434710881843 -8.62282320777191e-16
outer loop
vertex -14.82037021273 2.49361425640955 10.4648
vertex -21.3417164829796 3.4941282972914 13.0113065074753
vertex -14.82037021273 2.49361425640956 13.0113065074753
endloop
endfacet
facet normal -0.151647032031383 -0.988434710881843 -9.56675233941315e-17
outer loop
vertex -11.3518871061057 -25.9845619759582 16.3576
vertex -25.5306370815569 -23.8092383779292 -3.3401
vertex -11.3518871061057 -25.9845619759582 -3.3401
endloop
endfacet
facet normal -0.151647032031383 -0.988434710881843 -9.56675233941315e-17
outer loop
vertex -25.5306370815569 -23.8092383779292 -3.3401
vertex -11.3518871061057 -25.9845619759582 16.3576
vertex -25.5306370815569 -23.8092383779292 16.3576
endloop
endfacet
facet normal -0.151647032031383 -0.988434710881843 -9.56675233941315e-17
outer loop
vertex -25.5306370815569 -23.8092383779292 16.3576
vertex -11.3518871061057 -25.9845619759582 16.3576
vertex -19.0092908113073 -24.8097524188111 16.3576
endloop
endfacet
endsolid 819 West Main Street
