solid 823 West Main Street
facet normal -0.120111262528322 -0.985437646653622 -0.120357505672161
outer loop
vertex -2.8551063823217 -25.9311846953306 16.9953241567881
vertex -23.1587434793575 -23.460988925094 17.0324766303385
vertex -23.1581984977884 -23.4565176928078 16.995324156788
endloop
endfacet
facet normal -0.120111262528322 -0.985437646653622 -0.120357505672161
outer loop
vertex -23.1587434793575 -23.460988925094 17.0324766303385
vertex -2.8551063823217 -25.9311846953306 16.9953241567881
vertex -2.85565136389083 -25.9356559276168 17.0324766303386
endloop
endfacet
facet normal -0.107978889368899 -0.885899127093702 -0.451135562846995
outer loop
vertex -2.85044076641619 -25.892906240327 16.8904144561262
vertex -23.1555756341446 -23.4349987401118 16.9238141785739
vertex -23.1535328818829 -23.4182392378042 16.8904144561262
endloop
endfacet
facet normal -0.107978889368899 -0.885899127093702 -0.451135562846995
outer loop
vertex -23.1555756341446 -23.4349987401118 16.9238141785739
vertex -2.85044076641619 -25.892906240327 16.8904144561262
vertex -2.85248351867794 -25.9096657426346 16.9238141785739
endloop
endfacet
facet normal -0.0605143942097509 -0.496482685831967 -0.865934726617719
outer loop
vertex -23.1372706658857 -23.2848179455433 16.7638443842847
vertex -2.83809952288719 -25.791654070264 16.7825625243074
vertex -23.1411916383539 -23.3169870677412 16.7825625243073
endloop
endfacet
facet normal -0.0605143942097509 -0.496482685831967 -0.865934726617719
outer loop
vertex -2.83809952288719 -25.791654070264 16.7825625243074
vertex -23.1372706658857 -23.2848179455433 16.7638443842847
vertex -2.83417855041903 -25.7594849480661 16.7638443842847
endloop
endfacet
facet normal -0.0876423763214849 -0.719050780512883 -0.689409014240848
outer loop
vertex -2.82834738338693 -25.7116438764097 16.6392623565923
vertex -23.1342518283723 -23.2600502753661 16.6636853424206
vertex -23.1314394988536 -23.2369768738869 16.6392623565923
endloop
endfacet
facet normal -0.0876423763214849 -0.719050780512883 -0.689409014240848
outer loop
vertex -23.1342518283723 -23.2600502753661 16.6636853424206
vertex -2.82834738338693 -25.7116438764097 16.6392623565923
vertex -2.8311597129056 -25.7347172778889 16.6636853424207
endloop
endfacet
facet normal -0.120990791362926 -0.992653629623835 1.37872457996448e-27
outer loop
vertex -2.83417855041903 -25.7594849480661 16.6863618153381
vertex -23.1372706658857 -23.2848179455433 16.7638443842847
vertex -23.1372706658857 -23.2848179455433 16.6863618153381
endloop
endfacet
facet normal -0.120990791362926 -0.992653629623835 1.37872457996448e-27
outer loop
vertex -23.1372706658857 -23.2848179455433 16.7638443842847
vertex -2.83417855041903 -25.7594849480661 16.6863618153381
vertex -2.83417855041903 -25.7594849480661 16.7638443842847
endloop
endfacet
facet normal -0.120989365885576 -0.992641934475334 -0.00485420062133082
outer loop
vertex -2.85565136389083 -25.9356559276168 17.0324766303386
vertex -23.1587654592902 -23.4611692566688 17.0699007163179
vertex -23.1587434793575 -23.460988925094 17.0324766303385
endloop
endfacet
facet normal -0.120989365885576 -0.992641934475334 -0.00485420062133082
outer loop
vertex -23.1587654592902 -23.4611692566688 17.0699007163179
vertex -2.85565136389083 -25.9356559276168 17.0324766303386
vertex -2.85567334382351 -25.9358362591916 17.0699007163179
endloop
endfacet
facet normal -0.117624426598934 -0.965034716118342 -0.234248780047333
outer loop
vertex -2.85404569842829 -25.9224824486156 16.9589409042427
vertex -23.1581984977884 -23.4565176928078 16.995324156788
vertex -23.157137813895 -23.4478154460928 16.9589409042427
endloop
endfacet
facet normal -0.117624426598934 -0.965034716118342 -0.234248780047333
outer loop
vertex -23.1581984977884 -23.4565176928078 16.995324156788
vertex -2.85404569842829 -25.9224824486156 16.9589409042427
vertex -2.8551063823217 -25.9311846953306 16.9953241567881
endloop
endfacet
facet normal -0.0829463609584071 -0.680522917008417 -0.72801679968948
outer loop
vertex -23.1448246930381 -23.3467940049326 16.8048995478985
vertex -2.84502905447687 -25.8485065348739 16.8305562799714
vertex -23.1481211699435 -23.3738395323511 16.8305562799714
endloop
endfacet
facet normal -0.0829463609584071 -0.680522917008417 -0.72801679968948
outer loop
vertex -2.84502905447687 -25.8485065348739 16.8305562799714
vertex -23.1448246930381 -23.3467940049326 16.8048995478985
vertex -2.84173257757139 -25.8214610074554 16.8048995478986
endloop
endfacet
facet normal -0.120990791362942 -0.992653629623833 0.0
outer loop
vertex -2.85415413007305 -25.923372062317 17.1435618153381
vertex -23.1572462455397 -23.4487050597941 17.3736
vertex -23.1572462455397 -23.4487050597941 17.1435618153381
endloop
endfacet
facet normal -0.120990791362942 -0.992653629623833 0.0
outer loop
vertex -23.1572462455397 -23.4487050597941 17.3736
vertex -2.85415413007305 -25.923372062317 17.1435618153381
vertex -2.85415413007305 -25.923372062317 17.3736
endloop
endfacet
facet normal -0.117894035103108 -0.967246684956815 0.224799570567116
outer loop
vertex -2.8551720277274 -25.9317232747505 17.1070951682584
vertex -23.1572462455397 -23.4487050597941 17.1435618153381
vertex -23.1582641431941 -23.4570562722277 17.1070951682583
endloop
endfacet
facet normal -0.117894035103108 -0.967246684956815 0.224799570567116
outer loop
vertex -23.1572462455397 -23.4487050597941 17.1435618153381
vertex -2.8551720277274 -25.9317232747505 17.1070951682584
vertex -2.85415413007305 -25.923372062317 17.1435618153381
endloop
endfacet
facet normal -0.0722139833037245 -0.592470483319856 -0.802348968348651
outer loop
vertex -23.1411916383539 -23.3169870677412 16.7825625243073
vertex -2.84173257757139 -25.8214610074554 16.8048995478986
vertex -23.1448246930381 -23.3467940049326 16.8048995478985
endloop
endfacet
facet normal -0.0722139833037245 -0.592470483319856 -0.802348968348651
outer loop
vertex -2.84173257757139 -25.8214610074554 16.8048995478986
vertex -23.1411916383539 -23.3169870677412 16.7825625243073
vertex -2.83809952288719 -25.791654070264 16.7825625243074
endloop
endfacet
facet normal -0.107822592392437 -0.884616808338389 -0.453682037306942
outer loop
vertex -2.81944038180813 -25.6385675096328 16.5267907481516
vertex -23.1243832177604 -23.1790845090224 16.55683728222
vertex -23.1225324972748 -23.16390050711 16.5267907481516
endloop
endfacet
facet normal -0.107822592392437 -0.884616808338389 -0.453682037306942
outer loop
vertex -23.1243832177604 -23.1790845090224 16.55683728222
vertex -2.81944038180813 -25.6385675096328 16.5267907481516
vertex -2.82129110229372 -25.6537515115452 16.55683728222
endloop
endfacet
facet normal -0.11712224647874 -0.960914642901062 -0.250849413868355
outer loop
vertex -2.81552790773796 -25.6064681114653 16.4311375669098
vertex -23.1196433217064 -23.1401966319447 16.4637756021388
vertex -23.1186200232046 -23.1318011089425 16.4311375669098
endloop
endfacet
facet normal -0.11712224647874 -0.960914642901062 -0.250849413868355
outer loop
vertex -23.1196433217064 -23.1401966319447 16.4637756021388
vertex -2.81552790773796 -25.6064681114653 16.4311375669098
vertex -2.8165512062397 -25.6148636344675 16.4637756021388
endloop
endfacet
facet normal -0.119011853571948 -0.97641768506242 -0.18012407669913
outer loop
vertex -2.81479312149719 -25.600439650781 16.3979729616676
vertex -23.1186200232046 -23.1318011089425 16.4311375669098
vertex -23.1178852369639 -23.1257726482582 16.3979729616675
endloop
endfacet
facet normal -0.119011853571948 -0.97641768506242 -0.18012407669913
outer loop
vertex -23.1186200232046 -23.1318011089425 16.4311375669098
vertex -2.81479312149719 -25.600439650781 16.3979729616676
vertex -2.81552790773796 -25.6064681114653 16.4311375669098
endloop
endfacet
facet normal -0.0987673904375016 -0.810324550338515 -0.577597719615348
outer loop
vertex -2.82340010138938 -25.6710545276144 16.5856978270457
vertex -23.1288484307773 -23.2157187838986 16.6132209805497
vertex -23.126492216856 -23.1963875250916 16.5856978270457
endloop
endfacet
facet normal -0.0987673904375016 -0.810324550338515 -0.577597719615348
outer loop
vertex -23.1288484307773 -23.2157187838986 16.6132209805497
vertex -2.82340010138938 -25.6710545276144 16.5856978270457
vertex -2.82575631531063 -25.6903857864214 16.6132209805498
endloop
endfacet
facet normal -0.114618217456806 -0.940370653814733 -0.320258797960457
outer loop
vertex -2.8165512062397 -25.6148636344675 16.4637756021388
vertex -23.1209497642572 -23.1509151744499 16.4957158486052
vertex -23.1196433217064 -23.1401966319447 16.4637756021388
endloop
endfacet
facet normal -0.114618217456806 -0.940370653814733 -0.320258797960457
outer loop
vertex -23.1209497642572 -23.1509151744499 16.4957158486052
vertex -2.8165512062397 -25.6148636344675 16.4637756021388
vertex -2.81785764879052 -25.6255821769727 16.4957158486053
endloop
endfacet
facet normal -0.120246975629766 -0.986551087612312 0.11071412006993
outer loop
vertex -2.85567334382351 -25.9358362591916 17.0699007163179
vertex -23.1582641431941 -23.4570562722277 17.1070951682583
vertex -23.1587654592902 -23.4611692566688 17.0699007163179
endloop
endfacet
facet normal -0.120246975629766 -0.986551087612312 0.11071412006993
outer loop
vertex -23.1582641431941 -23.4570562722277 17.1070951682583
vertex -2.85567334382351 -25.9358362591916 17.0699007163179
vertex -2.8551720277274 -25.9317232747505 17.1070951682584
endloop
endfacet
facet normal -0.103566646119241 -0.849699435966614 -0.516995955815545
outer loop
vertex -2.82129110229372 -25.6537515115452 16.55683728222
vertex -23.126492216856 -23.1963875250916 16.5856978270457
vertex -23.1243832177604 -23.1790845090224 16.55683728222
endloop
endfacet
facet normal -0.103566646119241 -0.849699435966614 -0.516995955815545
outer loop
vertex -23.126492216856 -23.1963875250916 16.5856978270457
vertex -2.82129110229372 -25.6537515115452 16.55683728222
vertex -2.82340010138938 -25.6710545276144 16.5856978270457
endloop
endfacet
facet normal -0.111512902612976 -0.914893491328847 -0.38798810816176
outer loop
vertex -2.81785764879052 -25.6255821769727 16.4957158486053
vertex -23.1225324972748 -23.16390050711 16.5267907481516
vertex -23.1209497642572 -23.1509151744499 16.4957158486052
endloop
endfacet
facet normal -0.111512902612976 -0.914893491328847 -0.38798810816176
outer loop
vertex -23.1225324972748 -23.16390050711 16.5267907481516
vertex -2.81785764879052 -25.6255821769727 16.4957158486053
vertex -2.81944038180813 -25.6385675096328 16.5267907481516
endloop
endfacet
facet normal -5.99679464766109e-16 1.56640807505572e-14 1.0
outer loop
vertex -2.85415413007305 -25.923372062317 17.3736
vertex -23.1172950862317 -23.1209308312924 17.3736
vertex -23.1572462455397 -23.4487050597941 17.3736
endloop
endfacet
facet normal -5.99679464766109e-16 1.56640807505572e-14 1.0
outer loop
vertex -23.1172950862317 -23.1209308312924 17.3736
vertex -2.85415413007305 -25.923372062317 17.3736
vertex -16.6382593359766 -23.9106359603505 17.3736
endloop
endfacet
facet normal -5.99679464766109e-16 1.56640807505572e-14 1.0
outer loop
vertex -16.6382593359766 -23.9106359603505 17.3736
vertex -2.85415413007305 -25.923372062317 17.3736
vertex -2.81420297076501 -25.5955978338152 17.3736
endloop
endfacet
facet normal -0.0813749795805143 -0.66763071743919 -0.74003198432899
outer loop
vertex -23.1342518283723 -23.2600502753661 16.6636853424206
vertex -2.83417855041903 -25.7594849480661 16.6863618153381
vertex -23.1372706658857 -23.2848179455433 16.6863618153381
endloop
endfacet
facet normal -0.0813749795805143 -0.66763071743919 -0.74003198432899
outer loop
vertex -2.83417855041903 -25.7594849480661 16.6863618153381
vertex -23.1342518283723 -23.2600502753661 16.6636853424206
vertex -2.8311597129056 -25.7347172778889 16.6636853424207
endloop
endfacet
facet normal -0.120277125879843 -0.986798451521936 -0.108453810739848
outer loop
vertex -2.8143507021974 -25.5968098776485 16.3644557675415
vertex -23.1178852369639 -23.1257726482582 16.3979729616675
vertex -23.1174428176641 -23.1221428751257 16.3644557675415
endloop
endfacet
facet normal -0.120277125879843 -0.986798451521936 -0.108453810739848
outer loop
vertex -23.1178852369639 -23.1257726482582 16.3979729616675
vertex -2.8143507021974 -25.5968098776485 16.3644557675415
vertex -2.81479312149719 -25.600439650781 16.3979729616676
endloop
endfacet
facet normal -0.0934500021861684 -0.766698711641648 -0.635169412565217
outer loop
vertex -2.82575631531063 -25.6903857864214 16.6132209805498
vertex -23.1314394988536 -23.2369768738869 16.6392623565923
vertex -23.1288484307773 -23.2157187838986 16.6132209805497
endloop
endfacet
facet normal -0.0934500021861684 -0.766698711641648 -0.635169412565217
outer loop
vertex -23.1314394988536 -23.2369768738869 16.6392623565923
vertex -2.82575631531063 -25.6903857864214 16.6132209805498
vertex -2.82834738338693 -25.7116438764097 16.6392623565923
endloop
endfacet
facet normal -0.113562165997728 -0.931706413320743 -0.345002599745134
outer loop
vertex -2.85248351867794 -25.9096657426346 16.9238141785739
vertex -23.157137813895 -23.4478154460928 16.9589409042427
vertex -23.1555756341446 -23.4349987401118 16.9238141785739
endloop
endfacet
facet normal -0.113562165997728 -0.931706413320743 -0.345002599745134
outer loop
vertex -23.157137813895 -23.4478154460928 16.9589409042427
vertex -2.85248351867794 -25.9096657426346 16.9238141785739
vertex -2.85404569842829 -25.9224824486156 16.9589409042427
endloop
endfacet
facet normal -0.120911425798742 -0.992002484900656 -0.0362145973640364
outer loop
vertex -2.81420297076501 -25.5955978338152 16.3307618153381
vertex -23.1174428176641 -23.1221428751257 16.3644557675415
vertex -23.1172950862317 -23.1209308312924 16.3307618153381
endloop
endfacet
facet normal -0.120911425798742 -0.992002484900656 -0.0362145973640364
outer loop
vertex -23.1174428176641 -23.1221428751257 16.3644557675415
vertex -2.81420297076501 -25.5955978338152 16.3307618153381
vertex -2.8143507021974 -25.5968098776485 16.3644557675415
endloop
endfacet
facet normal -0.0925677810741747 -0.759460640222419 -0.643933802389623
outer loop
vertex -2.84502905447687 -25.8485065348739 16.8305562799714
vertex -23.1510369170927 -23.3977614106864 16.8591890823047
vertex -23.1481211699435 -23.3738395323511 16.8305562799714
endloop
endfacet
facet normal -0.0925677810741747 -0.759460640222419 -0.643933802389623
outer loop
vertex -23.1510369170927 -23.3977614106864 16.8591890823047
vertex -2.84502905447687 -25.8485065348739 16.8305562799714
vertex -2.84794480162602 -25.8724284132092 16.8591890823048
endloop
endfacet
facet normal -1.50425942121919e-15 2.48758346406872e-16 1.0
outer loop
vertex -16.6382593359766 -23.9106359603505 17.3736
vertex -18.7198773022741 12.9571266394102 17.3736
vertex -23.1172950862317 -23.1209308312924 17.3736
endloop
endfacet
facet normal -1.50425942121919e-15 2.48758346406872e-16 1.0
outer loop
vertex -18.7198773022741 12.9571266394102 17.3736
vertex -16.6382593359766 -23.9106359603505 17.3736
vertex 1.58321481319257 10.482459636887 17.3736
endloop
endfacet
facet normal -1.50425942121919e-15 2.48758346406872e-16 1.0
outer loop
vertex 1.58321481319257 10.482459636887 17.3736
vertex -16.6382593359766 -23.9106359603505 17.3736
vertex -2.81420297076501 -25.5955978338152 17.3736
endloop
endfacet
facet normal 0.992653629623835 -0.120990791362921 2.470212305616e-15
outer loop
vertex -2.8311597129056 -25.7347172778889 16.6636853424207
vertex -2.83417855041903 -25.7594849480661 16.7638443842847
vertex -2.83417855041903 -25.7594849480661 16.6863618153381
endloop
endfacet
facet normal 0.992653629623835 -0.120990791362921 2.470212305616e-15
outer loop
vertex -2.81420297076501 -25.5955978338152 16.3307618153381
vertex -2.81420297076501 -25.5955978338152 17.1435618153381
vertex -2.8143507021974 -25.5968098776485 16.3644557675415
endloop
endfacet
facet normal 0.992653629623835 -0.120990791362921 2.470212305616e-15
outer loop
vertex -2.85565136389083 -25.9356559276168 17.0324766303386
vertex -2.8551720277274 -25.9317232747505 17.1070951682584
vertex -2.85567334382351 -25.9358362591916 17.0699007163179
endloop
endfacet
facet normal 0.992653629623835 -0.120990791362921 2.470212305616e-15
outer loop
vertex -2.8551720277274 -25.9317232747505 17.1070951682584
vertex -2.85565136389083 -25.9356559276168 17.0324766303386
vertex -2.8551063823217 -25.9311846953306 16.9953241567881
endloop
endfacet
facet normal 0.992653629623835 -0.120990791362921 2.470212305616e-15
outer loop
vertex -2.8551720277274 -25.9317232747505 17.1070951682584
vertex -2.8551063823217 -25.9311846953306 16.9953241567881
vertex -2.85415413007305 -25.923372062317 17.1435618153381
endloop
endfacet
facet normal 0.992653629623835 -0.120990791362921 2.470212305616e-15
outer loop
vertex -2.85415413007305 -25.923372062317 17.1435618153381
vertex -2.8551063823217 -25.9311846953306 16.9953241567881
vertex -2.85404569842829 -25.9224824486156 16.9589409042427
endloop
endfacet
facet normal 0.992653629623835 -0.120990791362921 2.470212305616e-15
outer loop
vertex -2.85415413007305 -25.923372062317 17.1435618153381
vertex -2.85404569842829 -25.9224824486156 16.9589409042427
vertex -2.85415413007305 -25.923372062317 17.3736
endloop
endfacet
facet normal 0.992653629623835 -0.120990791362921 2.470212305616e-15
outer loop
vertex -2.85415413007305 -25.923372062317 17.3736
vertex -2.85404569842829 -25.9224824486156 16.9589409042427
vertex -2.81420297076501 -25.5955978338152 17.3736
endloop
endfacet
facet normal 0.992653629623835 -0.120990791362921 2.470212305616e-15
outer loop
vertex -2.81420297076501 -25.5955978338152 17.3736
vertex -2.85404569842829 -25.9224824486156 16.9589409042427
vertex -2.85248351867794 -25.9096657426346 16.9238141785739
endloop
endfacet
facet normal 0.992653629623835 -0.120990791362921 2.470212305616e-15
outer loop
vertex -2.81420297076501 -25.5955978338152 17.3736
vertex -2.85248351867794 -25.9096657426346 16.9238141785739
vertex -2.85044076641619 -25.892906240327 16.8904144561262
endloop
endfacet
facet normal 0.992653629623835 -0.120990791362921 2.470212305616e-15
outer loop
vertex -2.81420297076501 -25.5955978338152 17.3736
vertex -2.85044076641619 -25.892906240327 16.8904144561262
vertex -2.84794480162602 -25.8724284132092 16.8591890823048
endloop
endfacet
facet normal 0.992653629623835 -0.120990791362921 2.470212305616e-15
outer loop
vertex -2.81420297076501 -25.5955978338152 17.3736
vertex -2.84794480162602 -25.8724284132092 16.8591890823048
vertex -2.84502905447687 -25.8485065348739 16.8305562799714
endloop
endfacet
facet normal 0.992653629623835 -0.120990791362921 2.470212305616e-15
outer loop
vertex -2.81420297076501 -25.5955978338152 17.3736
vertex -2.84502905447687 -25.8485065348739 16.8305562799714
vertex -2.84173257757139 -25.8214610074554 16.8048995478986
endloop
endfacet
facet normal 0.992653629623835 -0.120990791362921 2.470212305616e-15
outer loop
vertex -2.81420297076501 -25.5955978338152 17.3736
vertex -2.84173257757139 -25.8214610074554 16.8048995478986
vertex -2.83809952288719 -25.791654070264 16.7825625243074
endloop
endfacet
facet normal 0.992653629623835 -0.120990791362921 2.470212305616e-15
outer loop
vertex -2.81420297076501 -25.5955978338152 17.3736
vertex -2.83809952288719 -25.791654070264 16.7825625243074
vertex -2.83417855041903 -25.7594849480661 16.7638443842847
endloop
endfacet
facet normal 0.992653629623835 -0.120990791362921 2.470212305616e-15
outer loop
vertex -2.81420297076501 -25.5955978338152 17.3736
vertex -2.83417855041903 -25.7594849480661 16.7638443842847
vertex -2.8311597129056 -25.7347172778889 16.6636853424207
endloop
endfacet
facet normal 0.992653629623835 -0.120990791362921 2.470212305616e-15
outer loop
vertex -2.81420297076501 -25.5955978338152 17.3736
vertex -2.8311597129056 -25.7347172778889 16.6636853424207
vertex -2.82834738338693 -25.7116438764097 16.6392623565923
endloop
endfacet
facet normal 0.992653629623835 -0.120990791362921 2.470212305616e-15
outer loop
vertex -2.81420297076501 -25.5955978338152 17.3736
vertex -2.82834738338693 -25.7116438764097 16.6392623565923
vertex -2.82575631531063 -25.6903857864214 16.6132209805498
endloop
endfacet
facet normal 0.992653629623835 -0.120990791362921 2.470212305616e-15
outer loop
vertex -2.81420297076501 -25.5955978338152 17.3736
vertex -2.82575631531063 -25.6903857864214 16.6132209805498
vertex -2.82340010138938 -25.6710545276144 16.5856978270457
endloop
endfacet
facet normal 0.992653629623835 -0.120990791362921 2.470212305616e-15
outer loop
vertex -2.81420297076501 -25.5955978338152 17.3736
vertex -2.82340010138938 -25.6710545276144 16.5856978270457
vertex -2.82129110229372 -25.6537515115452 16.55683728222
endloop
endfacet
facet normal 0.992653629623835 -0.120990791362921 2.470212305616e-15
outer loop
vertex -2.81420297076501 -25.5955978338152 17.3736
vertex -2.82129110229372 -25.6537515115452 16.55683728222
vertex -2.81944038180813 -25.6385675096328 16.5267907481516
endloop
endfacet
facet normal 0.992653629623835 -0.120990791362921 2.470212305616e-15
outer loop
vertex -2.81420297076501 -25.5955978338152 17.3736
vertex -2.81944038180813 -25.6385675096328 16.5267907481516
vertex -2.81785764879052 -25.6255821769727 16.4957158486053
endloop
endfacet
facet normal 0.992653629623835 -0.120990791362921 2.470212305616e-15
outer loop
vertex -2.81420297076501 -25.5955978338152 17.3736
vertex -2.81785764879052 -25.6255821769727 16.4957158486053
vertex -2.8165512062397 -25.6148636344675 16.4637756021388
endloop
endfacet
facet normal 0.992653629623835 -0.120990791362921 2.470212305616e-15
outer loop
vertex -2.81420297076501 -25.5955978338152 17.3736
vertex -2.8165512062397 -25.6148636344675 16.4637756021388
vertex -2.81552790773796 -25.6064681114653 16.4311375669098
endloop
endfacet
facet normal 0.992653629623835 -0.120990791362921 2.470212305616e-15
outer loop
vertex -2.81420297076501 -25.5955978338152 17.3736
vertex -2.81552790773796 -25.6064681114653 16.4311375669098
vertex -2.81479312149719 -25.600439650781 16.3979729616676
endloop
endfacet
facet normal 0.992653629623835 -0.120990791362921 2.470212305616e-15
outer loop
vertex -2.81420297076501 -25.5955978338152 17.3736
vertex -2.81479312149719 -25.600439650781 16.3979729616676
vertex -2.8143507021974 -25.5968098776485 16.3644557675415
endloop
endfacet
facet normal 0.992653629623835 -0.120990791362921 2.470212305616e-15
outer loop
vertex -2.81420297076501 -25.5955978338152 17.3736
vertex -2.8143507021974 -25.5968098776485 16.3644557675415
vertex -2.81420297076501 -25.5955978338152 17.1435618153381
endloop
endfacet
facet normal -0.120990791362921 -0.992653629623835 -3.86296842396224e-14
outer loop
vertex -2.81420297076501 -25.5955978338152 17.3736
vertex -16.6382593359766 -23.9106359603505 17.3736
vertex -2.81420297076501 -25.5955978338152 17.1435618153381
endloop
endfacet
facet normal -0.120990791362921 -0.992653629623835 -3.86296842396224e-14
outer loop
vertex -2.81420297076501 -25.5955978338152 16.3307618153381
vertex -23.1172950862317 -23.1209308312924 17.1435618153381
vertex -23.1172950862317 -23.1209308312924 16.3307618153381
endloop
endfacet
facet normal -0.120990791362921 -0.992653629623835 -3.86296842396224e-14
outer loop
vertex -23.1172950862317 -23.1209308312924 17.1435618153381
vertex -2.81420297076501 -25.5955978338152 16.3307618153381
vertex -2.81420297076501 -25.5955978338152 17.1435618153381
endloop
endfacet
facet normal -0.120990791362921 -0.992653629623835 -3.86296842396224e-14
outer loop
vertex -23.1172950862317 -23.1209308312924 17.1435618153381
vertex -2.81420297076501 -25.5955978338152 17.1435618153381
vertex -23.1172950862317 -23.1209308312924 17.3736
endloop
endfacet
facet normal -0.120990791362921 -0.992653629623835 -3.86296842396224e-14
outer loop
vertex -23.1172950862317 -23.1209308312924 17.3736
vertex -2.81420297076501 -25.5955978338152 17.1435618153381
vertex -16.6382593359766 -23.9106359603505 17.3736
endloop
endfacet
facet normal -0.120990791362931 -0.992653629623834 9.3582150386839e-15
outer loop
vertex -2.81420297076501 -25.5955978338152 16.3307618153381
vertex -23.1172950862317 -23.1209308312924 -0.382607555875294
vertex -2.81420297076505 -25.5955978338155 -0.382607555875294
endloop
endfacet
facet normal -0.120990791362931 -0.992653629623834 9.3582150386839e-15
outer loop
vertex -23.1172950862317 -23.1209308312924 -0.382607555875294
vertex -2.81420297076501 -25.5955978338152 16.3307618153381
vertex -23.1172950862317 -23.1209308312924 -0.0948387896754896
endloop
endfacet
facet normal -0.120990791362931 -0.992653629623834 9.3582150386839e-15
outer loop
vertex -23.1172950862317 -23.1209308312924 -0.0948387896754896
vertex -2.81420297076501 -25.5955978338152 16.3307618153381
vertex -23.1172950862317 -23.1209308312924 0.0
endloop
endfacet
facet normal -0.120990791362931 -0.992653629623834 9.3582150386839e-15
outer loop
vertex -23.1172950862317 -23.1209308312924 0.0
vertex -2.81420297076501 -25.5955978338152 16.3307618153381
vertex -23.1172950862317 -23.1209308312924 4.6482
endloop
endfacet
facet normal -0.120990791362931 -0.992653629623834 9.3582150386839e-15
outer loop
vertex -23.1172950862317 -23.1209308312924 4.6482
vertex -2.81420297076501 -25.5955978338152 16.3307618153381
vertex -23.1172950862317 -23.1209308312924 16.3307618153381
endloop
endfacet
facet normal -0.0 -0.0 1.0
outer loop
vertex -16.2372444784716 33.3255733270447 1.3589
vertex -19.9880010414814 40.2884824410601 1.3589
vertex -20.7693535225637 33.8779749336309 1.3589
endloop
endfacet
facet normal -0.0 -0.0 1.0
outer loop
vertex -19.9880010414814 40.2884824410601 1.3589
vertex -16.2372444784716 33.3255733270447 1.3589
vertex -15.4558919973893 39.7360808344739 1.3589
endloop
endfacet
facet normal 0.12099079136294 0.992653629623833 -0.0
outer loop
vertex -19.9880010414814 40.2884824410601 1.3589
vertex -15.4558919973893 39.7360808344739 -3.2893
vertex -19.9880010414814 40.2884824410601 -3.2893
endloop
endfacet
facet normal 0.12099079136294 0.992653629623833 -0.0
outer loop
vertex -15.4558919973893 39.7360808344739 -3.2893
vertex -19.9880010414814 40.2884824410601 1.3589
vertex -15.4558919973893 39.7360808344739 1.3589
endloop
endfacet
facet normal -0.992653629623833 0.12099079136294 0.0
outer loop
vertex -15.4558919973893 39.7360808344739 1.3589
vertex -16.2372444784716 33.3255733270447 -2.87774931597378
vertex -16.2372444784716 33.3255733270447 1.3589
endloop
endfacet
facet normal -0.992653629623833 0.12099079136294 0.0
outer loop
vertex -16.2372444784716 33.3255733270447 -2.87774931597378
vertex -15.4558919973893 39.7360808344739 1.3589
vertex -16.2372444784716 33.3255733270447 -3.2893
endloop
endfacet
facet normal -0.992653629623833 0.12099079136294 0.0
outer loop
vertex -16.2372444784716 33.3255733270447 -3.2893
vertex -15.4558919973893 39.7360808344739 1.3589
vertex -15.4558919973893 39.7360808344739 -3.2893
endloop
endfacet
facet normal -0.12099079136294 -0.992653629623833 0.0
outer loop
vertex -16.2372444784716 33.3255733270447 -2.87774931597378
vertex -20.7693535225637 33.8779749336309 -3.2893
vertex -16.2372444784716 33.3255733270447 -3.2893
endloop
endfacet
facet normal -0.12099079136294 -0.992653629623833 0.0
outer loop
vertex -20.7693535225637 33.8779749336309 -3.2893
vertex -16.2372444784716 33.3255733270447 -2.87774931597378
vertex -20.7693535225637 33.8779749336309 1.3589
endloop
endfacet
facet normal -0.12099079136294 -0.992653629623833 0.0
outer loop
vertex -20.7693535225637 33.8779749336309 1.3589
vertex -16.2372444784716 33.3255733270447 -2.87774931597378
vertex -16.2372444784716 33.3255733270447 1.3589
endloop
endfacet
facet normal -0.992653629623833 0.12099079136294 0.0
outer loop
vertex -19.9880010414814 40.2884824410601 1.3589
vertex -20.7693535225637 33.8779749336309 -3.2893
vertex -20.7693535225637 33.8779749336309 1.3589
endloop
endfacet
facet normal -0.992653629623833 0.12099079136294 0.0
outer loop
vertex -20.7693535225637 33.8779749336309 -3.2893
vertex -19.9880010414814 40.2884824410601 1.3589
vertex -19.9880010414814 40.2884824410601 -3.2893
endloop
endfacet
facet normal -1.38987282244864e-16 6.1002022549238e-16 1.0
outer loop
vertex 1.58321481319257 10.482459636887 14.06525
vertex -15.4558919973893 39.7360808344739 14.06525
vertex -18.7198773022741 12.9571266394102 14.06525
endloop
endfacet
facet normal -1.38987282244864e-16 6.1002022549238e-16 1.0
outer loop
vertex -15.4558919973893 39.7360808344739 14.06525
vertex 1.58321481319257 10.482459636887 14.06525
vertex 4.84720011807729 37.2614138319507 14.06525
endloop
endfacet
facet normal 0.12099079136294 0.992653629623833 -5.88722609710769e-16
outer loop
vertex -18.7198773022741 12.9571266394102 17.3736
vertex 1.58321481319257 10.482459636887 14.06525
vertex -18.7198773022741 12.9571266394102 14.06525
endloop
endfacet
facet normal 0.12099079136294 0.992653629623833 -5.88722609710769e-16
outer loop
vertex 1.58321481319257 10.482459636887 14.06525
vertex -18.7198773022741 12.9571266394102 17.3736
vertex 1.58321481319257 10.482459636887 17.3736
endloop
endfacet
facet normal -0.992653629623833 0.120990791362938 0.0
outer loop
vertex -23.0020513574585 -22.1754282490757 0.0
vertex -23.1172950862317 -23.1209308312924 -0.0948387896754896
vertex -23.1172950862317 -23.1209308312924 0.0
endloop
endfacet
facet normal -0.992653629623833 0.120990791362938 0.0
outer loop
vertex -23.1172950862317 -23.1209308312924 -0.0948387896754896
vertex -23.0020513574585 -22.1754282490757 0.0
vertex -23.0020513574585 -22.1754282490757 -0.112528071154004
endloop
endfacet
facet normal -0.992653629623833 0.12099079136294 3.96421012236065e-17
outer loop
vertex -16.2372444784716 33.3255733270447 -2.87774931597378
vertex -17.7293207334238 21.0840225985194 -0.921863357002727
vertex -16.2372444784716 33.3255733270447 1.3589
endloop
endfacet
facet normal -0.992653629623833 0.12099079136294 3.96421012236065e-17
outer loop
vertex -18.7198773022741 12.9571266394102 17.3736
vertex -23.1172950862317 -23.1209308312924 17.1435618153381
vertex -23.1172950862317 -23.1209308312924 17.3736
endloop
endfacet
facet normal -0.992653629623833 0.12099079136294 3.96421012236065e-17
outer loop
vertex -23.1172950862317 -23.1209308312924 17.1435618153381
vertex -18.7198773022741 12.9571266394102 17.3736
vertex -23.1172950862317 -23.1209308312924 16.3307618153381
endloop
endfacet
facet normal -0.992653629623833 0.12099079136294 3.96421012236065e-17
outer loop
vertex -23.1172950862317 -23.1209308312924 16.3307618153381
vertex -18.7198773022741 12.9571266394102 17.3736
vertex -23.0020513574585 -22.1754282490757 4.6482
endloop
endfacet
facet normal -0.992653629623833 0.12099079136294 3.96421012236065e-17
outer loop
vertex -23.0020513574585 -22.1754282490757 4.6482
vertex -18.7198773022741 12.9571266394102 17.3736
vertex -23.0020513574585 -22.1754282490757 0.0
endloop
endfacet
facet normal -0.992653629623833 0.12099079136294 3.96421012236065e-17
outer loop
vertex -23.0020513574585 -22.1754282490757 0.0
vertex -18.7198773022741 12.9571266394102 17.3736
vertex -23.0020513574585 -22.1754282490757 -0.112528071154004
endloop
endfacet
facet normal -0.992653629623833 0.12099079136294 3.96421012236065e-17
outer loop
vertex -23.0020513574585 -22.1754282490757 -0.112528071154004
vertex -18.7198773022741 12.9571266394102 17.3736
vertex -18.7198773022741 12.9571266394102 14.06525
endloop
endfacet
facet normal -0.992653629623833 0.12099079136294 3.96421012236065e-17
outer loop
vertex -23.0020513574585 -22.1754282490757 -0.112528071154004
vertex -18.7198773022741 12.9571266394102 14.06525
vertex -17.7293207334238 21.0840225985194 -0.921863357002727
endloop
endfacet
facet normal -0.992653629623833 0.12099079136294 3.96421012236065e-17
outer loop
vertex -17.7293207334238 21.0840225985194 -0.921863357002727
vertex -18.7198773022741 12.9571266394102 14.06525
vertex -15.4558919973893 39.7360808344739 14.06525
endloop
endfacet
facet normal -0.992653629623833 0.12099079136294 3.96421012236065e-17
outer loop
vertex -17.7293207334238 21.0840225985194 -0.921863357002727
vertex -15.4558919973893 39.7360808344739 14.06525
vertex -16.2372444784716 33.3255733270447 1.3589
endloop
endfacet
facet normal -0.992653629623833 0.12099079136294 3.96421012236065e-17
outer loop
vertex -16.2372444784716 33.3255733270447 1.3589
vertex -15.4558919973893 39.7360808344739 14.06525
vertex -15.4558919973893 39.7360808344739 1.3589
endloop
endfacet
facet normal -0.992653629623833 0.12099079136294 3.96421012236065e-17
outer loop
vertex -23.0020513574585 -22.1754282490757 4.6482
vertex -23.1172950862317 -23.1209308312924 4.6482
vertex -23.1172950862317 -23.1209308312924 16.3307618153381
endloop
endfacet
facet normal 0.120990791362941 0.992653629623833 7.9698903268064e-18
outer loop
vertex -15.4558919973893 39.7360808344739 -3.2893
vertex 4.84720011807729 37.2614138319507 -3.54965
vertex -15.4558919973893 39.7360808344739 -3.54965
endloop
endfacet
facet normal 0.120990791362941 0.992653629623833 7.9698903268064e-18
outer loop
vertex 4.84720011807729 37.2614138319507 -3.54965
vertex -15.4558919973893 39.7360808344739 -3.2893
vertex 4.84720011807729 37.2614138319507 -3.02928051815266
endloop
endfacet
facet normal 0.120990791362941 0.992653629623833 7.9698903268064e-18
outer loop
vertex 4.84720011807729 37.2614138319507 -3.02928051815266
vertex -15.4558919973893 39.7360808344739 -3.2893
vertex -15.4558919973893 39.7360808344739 1.3589
endloop
endfacet
facet normal 0.120990791362941 0.992653629623833 7.9698903268064e-18
outer loop
vertex 4.84720011807729 37.2614138319507 -3.02928051815266
vertex -15.4558919973893 39.7360808344739 1.3589
vertex 4.84720011807729 37.2614138319507 14.06525
endloop
endfacet
facet normal 0.120990791362941 0.992653629623833 7.9698903268064e-18
outer loop
vertex 4.84720011807729 37.2614138319507 14.06525
vertex -15.4558919973893 39.7360808344739 1.3589
vertex -15.4558919973893 39.7360808344739 14.06525
endloop
endfacet
facet normal 0.0 0.0 -1.0
outer loop
vertex -27.5215537004543 -21.6245632255398 4.6482
vertex -23.1172950862317 -23.1209308312924 4.6482
vertex -27.6367974292275 -22.5700658077565 4.6482
endloop
endfacet
facet normal 0.0 0.0 -1.0
outer loop
vertex -23.1172950862317 -23.1209308312924 4.6482
vertex -27.5215537004543 -21.6245632255398 4.6482
vertex -23.0020513574585 -22.1754282490757 4.6482
endloop
endfacet
facet normal -0.12099079136294 -0.992653629623833 0.0
outer loop
vertex -23.0020513574585 -22.1754282490757 4.6482
vertex -27.5215537004543 -21.6245632255398 0.0
vertex -23.0020513574585 -22.1754282490757 0.0
endloop
endfacet
facet normal -0.12099079136294 -0.992653629623833 0.0
outer loop
vertex -27.5215537004543 -21.6245632255398 0.0
vertex -23.0020513574585 -22.1754282490757 4.6482
vertex -27.5215537004543 -21.6245632255398 4.6482
endloop
endfacet
facet normal 0.12099079136294 0.992653629623833 -0.0
outer loop
vertex -27.6367974292275 -22.5700658077565 4.6482
vertex -23.1172950862317 -23.1209308312924 0.0
vertex -27.6367974292275 -22.5700658077565 0.0
endloop
endfacet
facet normal 0.12099079136294 0.992653629623833 -0.0
outer loop
vertex -23.1172950862317 -23.1209308312924 0.0
vertex -27.6367974292275 -22.5700658077565 4.6482
vertex -23.1172950862317 -23.1209308312924 4.6482
endloop
endfacet
facet normal 0.992653629623834 -0.120990791362929 -0.0
outer loop
vertex -27.5215537004543 -21.6245632255398 0.0
vertex -27.6367974292275 -22.5700658077565 4.6482
vertex -27.6367974292275 -22.5700658077565 0.0
endloop
endfacet
facet normal 0.992653629623834 -0.120990791362929 -0.0
outer loop
vertex -27.6367974292275 -22.5700658077565 4.6482
vertex -27.5215537004543 -21.6245632255398 0.0
vertex -27.5215537004543 -21.6245632255398 4.6482
endloop
endfacet
facet normal 0.992653629623833 -0.12099079136294 2.00960786434481e-16
outer loop
vertex 1.3768009530656 8.78896325462876 -0.259784805622897
vertex -2.81420297076501 -25.5955978338152 16.3307618153381
vertex -2.81420297076505 -25.5955978338155 -0.382607555875294
endloop
endfacet
facet normal 0.992653629623833 -0.12099079136294 2.00960786434481e-16
outer loop
vertex 2.51506182215899 18.1276804448894 -0.902364370128881
vertex 1.58321481319257 10.482459636887 14.06525
vertex 1.3768009530656 8.78896325462876 -0.259784805622897
endloop
endfacet
facet normal 0.992653629623833 -0.12099079136294 2.00960786434481e-16
outer loop
vertex 1.58321481319257 10.482459636887 14.06525
vertex 2.51506182215899 18.1276804448894 -0.902364370128881
vertex 4.84720011807729 37.2614138319507 14.06525
endloop
endfacet
facet normal 0.992653629623833 -0.12099079136294 2.00960786434481e-16
outer loop
vertex 4.84720011807729 37.2614138319507 14.06525
vertex 2.51506182215899 18.1276804448894 -0.902364370128881
vertex 3.66748451087018 27.5825864912386 -2.11055104496622
endloop
endfacet
facet normal 0.992653629623833 -0.12099079136294 2.00960786434481e-16
outer loop
vertex 4.84720011807729 37.2614138319507 14.06525
vertex 3.66748451087018 27.5825864912386 -2.11055104496622
vertex 4.84720011807729 37.2614138319507 -3.02928051815266
endloop
endfacet
facet normal 0.992653629623833 -0.12099079136294 2.00960786434481e-16
outer loop
vertex -2.81420297076501 -25.5955978338152 16.3307618153381
vertex -2.81420297076501 -25.5955978338152 17.3736
vertex -2.81420297076501 -25.5955978338152 17.1435618153381
endloop
endfacet
facet normal 0.992653629623833 -0.12099079136294 2.00960786434481e-16
outer loop
vertex -2.81420297076501 -25.5955978338152 17.3736
vertex -2.81420297076501 -25.5955978338152 16.3307618153381
vertex 1.58321481319257 10.482459636887 17.3736
endloop
endfacet
facet normal 0.992653629623833 -0.12099079136294 2.00960786434481e-16
outer loop
vertex 1.58321481319257 10.482459636887 17.3736
vertex -2.81420297076501 -25.5955978338152 16.3307618153381
vertex 1.3768009530656 8.78896325462876 -0.259784805622897
endloop
endfacet
facet normal 0.992653629623833 -0.12099079136294 2.00960786434481e-16
outer loop
vertex 1.58321481319257 10.482459636887 17.3736
vertex 1.3768009530656 8.78896325462876 -0.259784805622897
vertex 1.58321481319257 10.482459636887 14.06525
endloop
endfacet
facet normal -0.100949377368182 -0.828226385859488 -0.551226157738461
outer loop
vertex -2.84794480162602 -25.8724284132092 16.8591890823048
vertex -23.1535328818829 -23.4182392378042 16.8904144561262
vertex -23.1510369170927 -23.3977614106864 16.8591890823047
endloop
endfacet
facet normal -0.100949377368182 -0.828226385859488 -0.551226157738461
outer loop
vertex -23.1535328818829 -23.4182392378042 16.8904144561262
vertex -2.84794480162602 -25.8724284132092 16.8591890823048
vertex -2.85044076641619 -25.892906240327 16.8904144561262
endloop
endfacet
facet normal -0.992653629623834 0.120990791362927 3.13006353793801e-16
outer loop
vertex -23.1172950862317 -23.1209308312924 17.3736
vertex -23.1572462455397 -23.4487050597941 17.1435618153381
vertex -23.1572462455397 -23.4487050597941 17.3736
endloop
endfacet
facet normal -0.992653629623834 0.120990791362927 3.13006353793801e-16
outer loop
vertex -23.1572462455397 -23.4487050597941 17.1435618153381
vertex -23.1172950862317 -23.1209308312924 17.3736
vertex -23.157137813895 -23.4478154460928 16.9589409042427
endloop
endfacet
facet normal -0.992653629623834 0.120990791362927 3.13006353793801e-16
outer loop
vertex -23.157137813895 -23.4478154460928 16.9589409042427
vertex -23.1172950862317 -23.1209308312924 17.3736
vertex -23.1555756341446 -23.4349987401118 16.9238141785739
endloop
endfacet
facet normal -0.992653629623834 0.120990791362927 3.13006353793801e-16
outer loop
vertex -23.1555756341446 -23.4349987401118 16.9238141785739
vertex -23.1172950862317 -23.1209308312924 17.3736
vertex -23.1535328818829 -23.4182392378042 16.8904144561262
endloop
endfacet
facet normal -0.992653629623834 0.120990791362927 3.13006353793801e-16
outer loop
vertex -23.1535328818829 -23.4182392378042 16.8904144561262
vertex -23.1172950862317 -23.1209308312924 17.3736
vertex -23.1510369170927 -23.3977614106864 16.8591890823047
endloop
endfacet
facet normal -0.992653629623834 0.120990791362927 3.13006353793801e-16
outer loop
vertex -23.1510369170927 -23.3977614106864 16.8591890823047
vertex -23.1172950862317 -23.1209308312924 17.3736
vertex -23.1481211699435 -23.3738395323511 16.8305562799714
endloop
endfacet
facet normal -0.992653629623834 0.120990791362927 3.13006353793801e-16
outer loop
vertex -23.1481211699435 -23.3738395323511 16.8305562799714
vertex -23.1172950862317 -23.1209308312924 17.3736
vertex -23.1448246930381 -23.3467940049326 16.8048995478985
endloop
endfacet
facet normal -0.992653629623834 0.120990791362927 3.13006353793801e-16
outer loop
vertex -23.1448246930381 -23.3467940049326 16.8048995478985
vertex -23.1172950862317 -23.1209308312924 17.3736
vertex -23.1411916383539 -23.3169870677412 16.7825625243073
endloop
endfacet
facet normal -0.992653629623834 0.120990791362927 3.13006353793801e-16
outer loop
vertex -23.1411916383539 -23.3169870677412 16.7825625243073
vertex -23.1172950862317 -23.1209308312924 17.3736
vertex -23.1372706658857 -23.2848179455433 16.7638443842847
endloop
endfacet
facet normal -0.992653629623834 0.120990791362927 3.13006353793801e-16
outer loop
vertex -23.1372706658857 -23.2848179455433 16.7638443842847
vertex -23.1172950862317 -23.1209308312924 17.3736
vertex -23.1372706658857 -23.2848179455433 16.6863618153381
endloop
endfacet
facet normal -0.992653629623834 0.120990791362927 3.13006353793801e-16
outer loop
vertex -23.1372706658857 -23.2848179455433 16.6863618153381
vertex -23.1172950862317 -23.1209308312924 17.3736
vertex -23.1342518283723 -23.2600502753661 16.6636853424206
endloop
endfacet
facet normal -0.992653629623834 0.120990791362927 3.13006353793801e-16
outer loop
vertex -23.1342518283723 -23.2600502753661 16.6636853424206
vertex -23.1172950862317 -23.1209308312924 17.3736
vertex -23.1314394988536 -23.2369768738869 16.6392623565923
endloop
endfacet
facet normal -0.992653629623834 0.120990791362927 3.13006353793801e-16
outer loop
vertex -23.1314394988536 -23.2369768738869 16.6392623565923
vertex -23.1172950862317 -23.1209308312924 17.3736
vertex -23.1288484307773 -23.2157187838986 16.6132209805497
endloop
endfacet
facet normal -0.992653629623834 0.120990791362927 3.13006353793801e-16
outer loop
vertex -23.1288484307773 -23.2157187838986 16.6132209805497
vertex -23.1172950862317 -23.1209308312924 17.3736
vertex -23.126492216856 -23.1963875250916 16.5856978270457
endloop
endfacet
facet normal -0.992653629623834 0.120990791362927 3.13006353793801e-16
outer loop
vertex -23.126492216856 -23.1963875250916 16.5856978270457
vertex -23.1172950862317 -23.1209308312924 17.3736
vertex -23.1243832177604 -23.1790845090224 16.55683728222
endloop
endfacet
facet normal -0.992653629623834 0.120990791362927 3.13006353793801e-16
outer loop
vertex -23.1243832177604 -23.1790845090224 16.55683728222
vertex -23.1172950862317 -23.1209308312924 17.3736
vertex -23.1225324972748 -23.16390050711 16.5267907481516
endloop
endfacet
facet normal -0.992653629623834 0.120990791362927 3.13006353793801e-16
outer loop
vertex -23.1225324972748 -23.16390050711 16.5267907481516
vertex -23.1172950862317 -23.1209308312924 17.3736
vertex -23.1209497642572 -23.1509151744499 16.4957158486052
endloop
endfacet
facet normal -0.992653629623834 0.120990791362927 3.13006353793801e-16
outer loop
vertex -23.1209497642572 -23.1509151744499 16.4957158486052
vertex -23.1172950862317 -23.1209308312924 17.3736
vertex -23.1196433217064 -23.1401966319447 16.4637756021388
endloop
endfacet
facet normal -0.992653629623834 0.120990791362927 3.13006353793801e-16
outer loop
vertex -23.1196433217064 -23.1401966319447 16.4637756021388
vertex -23.1172950862317 -23.1209308312924 17.3736
vertex -23.1186200232046 -23.1318011089425 16.4311375669098
endloop
endfacet
facet normal -0.992653629623834 0.120990791362927 3.13006353793801e-16
outer loop
vertex -23.1186200232046 -23.1318011089425 16.4311375669098
vertex -23.1172950862317 -23.1209308312924 17.3736
vertex -23.1178852369639 -23.1257726482582 16.3979729616675
endloop
endfacet
facet normal -0.992653629623834 0.120990791362927 3.13006353793801e-16
outer loop
vertex -23.1178852369639 -23.1257726482582 16.3979729616675
vertex -23.1172950862317 -23.1209308312924 17.3736
vertex -23.1174428176641 -23.1221428751257 16.3644557675415
endloop
endfacet
facet normal -0.992653629623834 0.120990791362927 3.13006353793801e-16
outer loop
vertex -23.1174428176641 -23.1221428751257 16.3644557675415
vertex -23.1172950862317 -23.1209308312924 17.3736
vertex -23.1172950862317 -23.1209308312924 17.1435618153381
endloop
endfacet
facet normal -0.992653629623834 0.120990791362927 3.13006353793801e-16
outer loop
vertex -23.1174428176641 -23.1221428751257 16.3644557675415
vertex -23.1172950862317 -23.1209308312924 17.1435618153381
vertex -23.1172950862317 -23.1209308312924 16.3307618153381
endloop
endfacet
facet normal -0.992653629623834 0.120990791362927 3.13006353793801e-16
outer loop
vertex -23.1582641431941 -23.4570562722277 17.1070951682583
vertex -23.1587434793575 -23.460988925094 17.0324766303385
vertex -23.1587654592902 -23.4611692566688 17.0699007163179
endloop
endfacet
facet normal -0.992653629623834 0.120990791362927 3.13006353793801e-16
outer loop
vertex -23.1587434793575 -23.460988925094 17.0324766303385
vertex -23.1582641431941 -23.4570562722277 17.1070951682583
vertex -23.1581984977884 -23.4565176928078 16.995324156788
endloop
endfacet
facet normal -0.992653629623834 0.120990791362927 3.13006353793801e-16
outer loop
vertex -23.1581984977884 -23.4565176928078 16.995324156788
vertex -23.1582641431941 -23.4570562722277 17.1070951682583
vertex -23.1572462455397 -23.4487050597941 17.1435618153381
endloop
endfacet
facet normal -0.992653629623834 0.120990791362927 3.13006353793801e-16
outer loop
vertex -23.1581984977884 -23.4565176928078 16.995324156788
vertex -23.1572462455397 -23.4487050597941 17.1435618153381
vertex -23.157137813895 -23.4478154460928 16.9589409042427
endloop
endfacet
endsolid 823 West Main Street
