solid AT_T Building II
facet normal 0.124192871250276 0.992258096832983 0.0
outer loop
vertex 42.5183883157065 0.747420714617737 15.586075
vertex 43.3163667436116 0.647544248531309 13.4032625
vertex 42.5183883157065 0.747420714617737 13.4032625
endloop
endfacet
facet normal 0.124192871250276 0.992258096832983 0.0
outer loop
vertex 43.3163667436116 0.647544248531309 13.4032625
vertex 42.5183883157065 0.747420714617737 15.586075
vertex 43.3163667436116 0.647544248531309 15.586075
endloop
endfacet
facet normal 0.12419287125028 0.992258096832982 2.18424095681755e-17
outer loop
vertex 29.4326727234729 -28.4002551366868 5.27132573615015
vertex 36.9684760656807 -29.3434503166842 0.0
vertex 29.4326727234729 -28.4002551366868 0.0
endloop
endfacet
facet normal 0.12419287125028 0.992258096832982 2.18424095681755e-17
outer loop
vertex 36.9684760656807 -29.3434503166842 0.0
vertex 29.4326727234729 -28.4002551366868 5.27132573615015
vertex 36.9684760656807 -29.3434503166842 15.586075
endloop
endfacet
facet normal 0.12419287125028 0.992258096832982 2.18424095681755e-17
outer loop
vertex 36.9684760656807 -29.3434503166842 15.586075
vertex 29.4326727234729 -28.4002551366868 5.27132573615015
vertex 29.4326727234729 -28.4002551366868 8.64727950139573
endloop
endfacet
facet normal 0.12419287125028 0.992258096832982 2.18424095681755e-17
outer loop
vertex 36.9684760656807 -29.3434503166842 15.586075
vertex 29.4326727234729 -28.4002551366868 8.64727950139573
vertex 29.4326727234729 -28.4002551366868 15.586075
endloop
endfacet
facet normal 0.777614629322393 0.628741193388661 0.0
outer loop
vertex -55.5307082109423 -13.7772988295112 0.0
vertex -51.9424429239486 -18.2151941199684 15.586075
vertex -51.9424429239486 -18.2151941199684 0.0
endloop
endfacet
facet normal 0.777614629322393 0.628741193388661 0.0
outer loop
vertex -51.9424429239486 -18.2151941199684 15.586075
vertex -55.5307082109423 -13.7772988295112 0.0
vertex -55.5307082109423 -13.7772988295112 15.586075
endloop
endfacet
facet normal -0.12419287125028 -0.992258096832982 4.14450513985e-16
outer loop
vertex -50.3754455805918 -5.69542719608308 15.586075
vertex -51.6158650332807 -5.54017398739087 13.4032625
vertex -50.3754455805918 -5.69542719608308 13.4032625
endloop
endfacet
facet normal -0.12419287125028 -0.992258096832982 4.14450513985e-16
outer loop
vertex -51.6158650332807 -5.54017398739088 10.1596538392128
vertex -54.4552539030068 -5.18479078875246 15.586075
vertex -54.4552539030068 -5.18479078875246 7.97520590532623
endloop
endfacet
facet normal -0.12419287125028 -0.992258096832982 4.14450513985e-16
outer loop
vertex -54.4552539030068 -5.18479078875246 15.586075
vertex -51.6158650332807 -5.54017398739088 10.1596538392128
vertex -51.6158650332807 -5.54017398739087 13.4032625
endloop
endfacet
facet normal -0.12419287125028 -0.992258096832982 4.14450513985e-16
outer loop
vertex -54.4552539030068 -5.18479078875246 15.586075
vertex -51.6158650332807 -5.54017398739087 13.4032625
vertex -50.3754455805918 -5.69542719608308 15.586075
endloop
endfacet
facet normal 0.0 0.0 -1.0
outer loop
vertex 1.90892480185874 -2.70141636959837 18.3499125
vertex 7.89024864998752 -3.95930243295526 18.3499125
vertex 1.84616892087983 -3.20281415836288 18.3499125
endloop
endfacet
facet normal 0.0 0.0 -1.0
outer loop
vertex 7.89024864998752 -3.95930243295526 18.3499125
vertex 1.90892480185874 -2.70141636959837 18.3499125
vertex 7.95300453096643 -3.45790464419074 18.3499125
endloop
endfacet
facet normal 0.12419287125028 0.992258096832982 0.0
outer loop
vertex 34.3226175072533 11.2694920490733 15.586075
vertex 43.6886272109478 10.0972248325372 13.4032625
vertex 34.3226175072533 11.2694920490733 13.4032625
endloop
endfacet
facet normal 0.12419287125028 0.992258096832982 0.0
outer loop
vertex 43.6886272109478 10.0972248325372 13.4032625
vertex 34.3226175072533 11.2694920490733 15.586075
vertex 43.6886272109478 10.0972248325372 15.586075
endloop
endfacet
facet normal 0.12419287125028 0.992258096832982 7.80367164218321e-18
outer loop
vertex -51.9424429239486 -18.2151941199684 15.586075
vertex -42.70090638391 -19.3718820435389 0.0
vertex -51.9424429239486 -18.2151941199684 0.0
endloop
endfacet
facet normal 0.12419287125028 0.992258096832982 7.80367164218321e-18
outer loop
vertex -42.70090638391 -19.3718820435389 0.0
vertex -51.9424429239486 -18.2151941199684 15.586075
vertex -42.70090638391 -19.3718820435389 5.27132573615015
endloop
endfacet
facet normal 0.12419287125028 0.992258096832982 7.80367164218321e-18
outer loop
vertex -42.70090638391 -19.3718820435389 5.27132573615015
vertex -51.9424429239486 -18.2151941199684 15.586075
vertex -42.70090638391 -19.3718820435389 8.64727950139573
endloop
endfacet
facet normal 0.12419287125028 0.992258096832982 7.80367164218321e-18
outer loop
vertex -42.70090638391 -19.3718820435389 8.64727950139573
vertex -51.9424429239486 -18.2151941199684 15.586075
vertex -42.70090638391 -19.3718820435389 15.586075
endloop
endfacet
facet normal -0.610467084759123 0.792041626700073 -0.0
outer loop
vertex 36.9684760656807 -29.3434503166842 15.586075
vertex 43.1320846015387 -24.5928412481201 0.0
vertex 36.9684760656807 -29.3434503166842 0.0
endloop
endfacet
facet normal -0.610467084759123 0.792041626700073 -0.0
outer loop
vertex 43.1320846015387 -24.5928412481201 0.0
vertex 36.9684760656807 -29.3434503166842 15.586075
vertex 43.1320846015387 -24.5928412481201 15.586075
endloop
endfacet
facet normal 0.0 0.0 -1.0
outer loop
vertex 2.69473364130545 -4.79574995299045 18.0260625
vertex 5.41190359272983 -10.7351296275402 18.0260625
vertex 2.00472494950337 -10.3086808034736 18.0260625
endloop
endfacet
facet normal 0.0 0.0 -1.0
outer loop
vertex 5.41190359272983 -10.7351296275402 18.0260625
vertex 2.69473364130545 -4.79574995299045 18.0260625
vertex 6.10191228453192 -5.22219877705699 18.0260625
endloop
endfacet
facet normal 0.992258096832982 -0.124192871250279 -0.0
outer loop
vertex 43.6886272109478 10.0972248325372 13.4032625
vertex 42.5183883157065 0.747420714617737 15.586075
vertex 42.5183883157065 0.747420714617737 13.4032625
endloop
endfacet
facet normal 0.992258096832982 -0.124192871250279 -0.0
outer loop
vertex 42.5183883157065 0.747420714617737 15.586075
vertex 43.6886272109478 10.0972248325372 13.4032625
vertex 43.6886272109478 10.0972248325372 15.586075
endloop
endfacet
facet normal 0.12419287125028 0.992258096832982 -1.02303684847772e-16
outer loop
vertex -42.70090638391 -19.3718820435389 8.64727950139573
vertex 29.4326727234729 -28.4002551366868 5.27132573615015
vertex -42.70090638391 -19.3718820435389 5.27132573615015
endloop
endfacet
facet normal 0.12419287125028 0.992258096832982 -1.02303684847772e-16
outer loop
vertex 29.4326727234729 -28.4002551366868 5.27132573615015
vertex -42.70090638391 -19.3718820435389 8.64727950139573
vertex 29.4326727234729 -28.4002551366868 8.64727950139573
endloop
endfacet
facet normal -0.0 -0.0 1.0
outer loop
vertex 34.3226175072533 11.2694920490733 5.0713273995534
vertex -37.3802712076341 23.1381532008738 5.0713273995534
vertex -37.7369267428797 20.288598801615 5.0713273995534
endloop
endfacet
facet normal -0.0 -0.0 1.0
outer loop
vertex -37.3802712076341 23.1381532008738 5.0713273995534
vertex 34.3226175072533 11.2694920490733 5.0713273995534
vertex 34.679273042499 14.119046448332 5.0713273995534
endloop
endfacet
facet normal -0.12419287125028 -0.992258096832982 -0.0
outer loop
vertex 6.10191228453192 -5.22219877705699 18.0260625
vertex 2.69473364130545 -4.79574995299045 15.4701875
vertex 6.10191228453192 -5.22219877705699 15.4701875
endloop
endfacet
facet normal -0.12419287125028 -0.992258096832982 -0.0
outer loop
vertex 2.69473364130545 -4.79574995299045 15.4701875
vertex 6.10191228453192 -5.22219877705699 18.0260625
vertex 2.69473364130545 -4.79574995299045 18.0260625
endloop
endfacet
facet normal -0.0 -0.0 1.0
outer loop
vertex 44.0031206185178 -17.6335646666247 3.59021169650949
vertex 43.3163667436116 0.647544248531309 3.59021169650949
vertex 41.0741528282659 -17.2669696034733 3.59021169650949
endloop
endfacet
facet normal -0.0 -0.0 1.0
outer loop
vertex 43.3163667436116 0.647544248531309 3.59021169650949
vertex 44.0031206185178 -17.6335646666247 3.59021169650949
vertex 46.2453345338635 0.28094918537991 3.59021169650949
endloop
endfacet
facet normal -0.0 -0.0 1.0
outer loop
vertex 46.2453345338635 0.28094918537991 3.59021169650949
vertex 44.0031206185178 -17.6335646666247 3.59021169650949
vertex 45.346774517118 -17.8017388908174 3.59021169650949
endloop
endfacet
facet normal -0.0 -0.0 1.0
outer loop
vertex 46.2453345338635 0.28094918537991 3.59021169650949
vertex 45.346774517118 -17.8017388908174 3.59021169650949
vertex 47.5889884324637 0.112774961187234 3.59021169650949
endloop
endfacet
facet normal 0.0 0.0 -1.0
outer loop
vertex -51.4331767652307 19.011567954916 15.586075
vertex -48.1223447200128 12.306069583756 15.586075
vertex -52.2084387563186 12.8174927227429 15.586075
endloop
endfacet
facet normal 0.0 0.0 -1.0
outer loop
vertex -48.1223447200128 12.306069583756 15.586075
vertex -51.4331767652307 19.011567954916 15.586075
vertex -46.9784632829183 21.4452867251856 15.586075
endloop
endfacet
facet normal 0.0 0.0 -1.0
outer loop
vertex -46.9784632829183 21.4452867251856 15.586075
vertex -51.4331767652307 19.011567954916 15.586075
vertex -44.9223753887567 24.0821370056036 15.586075
endloop
endfacet
facet normal 0.0 0.0 -1.0
outer loop
vertex -46.9784632829183 21.4452867251856 15.586075
vertex -44.9223753887567 24.0821370056036 15.586075
vertex -37.7369267428797 20.288598801615 15.586075
endloop
endfacet
facet normal 0.0 0.0 -1.0
outer loop
vertex -37.7369267428797 20.288598801615 15.586075
vertex -44.9223753887567 24.0821370056036 15.586075
vertex -37.3802712076341 23.1381532008738 15.586075
endloop
endfacet
facet normal -0.0 -0.0 1.0
outer loop
vertex 29.4326727234729 -28.4002551366868 5.27132573615015
vertex -42.2636139697725 -15.8780668652327 5.27132573615015
vertex -42.70090638391 -19.3718820435389 5.27132573615015
endloop
endfacet
facet normal -0.0 -0.0 1.0
outer loop
vertex -42.2636139697725 -15.8780668652327 5.27132573615015
vertex 29.4326727234729 -28.4002551366868 5.27132573615015
vertex 29.8699651376105 -24.9064399583806 5.27132573615015
endloop
endfacet
facet normal -0.992258096832982 0.12419287125028 -5.63134389228428e-16
outer loop
vertex -37.3802712076341 23.1381532008738 5.0713273995534
vertex -37.7369267428797 20.288598801615 0.0
vertex -37.7369267428797 20.288598801615 5.0713273995534
endloop
endfacet
facet normal -0.992258096832982 0.12419287125028 -5.63134389228428e-16
outer loop
vertex -37.7369267428797 20.288598801615 0.0
vertex -37.3802712076341 23.1381532008738 5.0713273995534
vertex -37.3802712076341 23.1381532008738 0.0
endloop
endfacet
facet normal -0.12419287125028 -0.992258096832982 -1.0106995808346e-15
outer loop
vertex -51.6158650332807 -5.54017398739088 3.54938306724655
vertex -54.4552539030068 -5.18479078875246 0.0
vertex -51.6158650332807 -5.54017398739087 0.0
endloop
endfacet
facet normal -0.12419287125028 -0.992258096832982 -1.0106995808346e-15
outer loop
vertex -54.4552539030068 -5.18479078875246 0.0
vertex -51.6158650332807 -5.54017398739088 3.54938306724655
vertex -54.4552539030068 -5.18479078875247 3.54938306724655
endloop
endfacet
facet normal -0.12419287125028 -0.992258096832982 0.0
outer loop
vertex 7.95300453096643 -3.45790464419074 18.3499125
vertex 1.90892480185874 -2.70141636959837 15.4701875
vertex 7.95300453096643 -3.45790464419074 15.4701875
endloop
endfacet
facet normal -0.12419287125028 -0.992258096832982 0.0
outer loop
vertex 1.90892480185874 -2.70141636959837 15.4701875
vertex 7.95300453096643 -3.45790464419074 18.3499125
vertex 1.90892480185874 -2.70141636959837 18.3499125
endloop
endfacet
facet normal -0.992258096832982 0.12419287125028 -0.0
outer loop
vertex 7.27355938930561 3.5502573053894 18.0260625
vertex 6.56058230831733 -2.14618303248849 15.4701875
vertex 6.56058230831733 -2.14618303248849 18.0260625
endloop
endfacet
facet normal -0.992258096832982 0.12419287125028 -0.0
outer loop
vertex 6.56058230831733 -2.14618303248849 15.4701875
vertex 7.27355938930561 3.5502573053894 18.0260625
vertex 7.27355938930561 3.5502573053894 15.4701875
endloop
endfacet
facet normal 0.124192871250281 0.992258096832982 -0.0
outer loop
vertex -54.4552539030068 -5.18479078875246 7.97520590532623
vertex -51.6158650332807 -5.54017398739088 6.91604517842567
vertex -54.4552539030068 -5.18479078875246 6.91604517842567
endloop
endfacet
facet normal 0.124192871250281 0.992258096832982 -0.0
outer loop
vertex -51.6158650332807 -5.54017398739088 6.91604517842567
vertex -54.4552539030068 -5.18479078875246 7.97520590532623
vertex -51.6158650332807 -5.54017398739088 10.1596538392128
endloop
endfacet
facet normal 0.992258096832982 -0.124192871250279 -1.01614714910483e-15
outer loop
vertex 29.8699651376105 -24.9064399583806 0.0
vertex 29.4326727234729 -28.4002551366868 5.27132573615015
vertex 29.4326727234729 -28.4002551366868 0.0
endloop
endfacet
facet normal 0.992258096832982 -0.124192871250279 -1.01614714910483e-15
outer loop
vertex 29.4326727234729 -28.4002551366868 5.27132573615015
vertex 29.8699651376105 -24.9064399583806 0.0
vertex 29.8699651376105 -24.9064399583806 5.27132573615015
endloop
endfacet
facet normal 0.60208781981007 -0.0753584327764072 -0.794865626282733
outer loop
vertex -53.578871220307 12.9890186020485 6.91604517842567
vertex -54.4615396168976 -5.18400405709621 7.97037007080276
vertex -55.831972080886 -5.01247817779066 6.91604517842567
endloop
endfacet
facet normal 0.60208781981007 -0.0753584327764072 -0.794865626282733
outer loop
vertex -54.4615396168976 -5.18400405709621 7.97037007080276
vertex -53.578871220307 12.9890186020485 6.91604517842567
vertex -54.4552539030068 -5.18479078875246 7.97520590532623
endloop
endfacet
facet normal 0.60208781981007 -0.0753584327764072 -0.794865626282733
outer loop
vertex -54.4552539030068 -5.18479078875246 7.97520590532623
vertex -53.578871220307 12.9890186020485 6.91604517842567
vertex -51.6158650332807 -5.54017398739088 10.1596538392128
endloop
endfacet
facet normal 0.60208781981007 -0.0753584327764072 -0.794865626282733
outer loop
vertex -51.6158650332807 -5.54017398739088 10.1596538392128
vertex -53.578871220307 12.9890186020485 6.91604517842567
vertex -52.2084387563186 12.8174927227429 7.97037007080276
endloop
endfacet
facet normal 0.60208781981007 -0.0753584327764072 -0.794865626282733
outer loop
vertex -51.6158650332807 -5.54017398739088 10.1596538392128
vertex -52.2084387563186 12.8174927227429 7.97037007080276
vertex -49.3627641727017 12.4613227924482 10.1596538392128
endloop
endfacet
facet normal -0.12419287125028 -0.992258096832982 0.0
outer loop
vertex -52.2084387563186 12.8174927227429 6.91604517842567
vertex -53.578871220307 12.9890186020485 3.54938306724655
vertex -52.2084387563186 12.8174927227429 3.54938306724655
endloop
endfacet
facet normal -0.12419287125028 -0.992258096832982 0.0
outer loop
vertex -53.578871220307 12.9890186020485 3.54938306724655
vertex -52.2084387563186 12.8174927227429 6.91604517842567
vertex -53.578871220307 12.9890186020485 6.91604517842567
endloop
endfacet
facet normal -0.124192871250279 -0.992258096832982 8.40046020114173e-16
outer loop
vertex 47.5889884324637 0.112774961187237 7.00379682978969
vertex 46.2453345338635 0.28094918537991 3.59021169650949
vertex 47.5889884324637 0.112774961187234 3.59021169650949
endloop
endfacet
facet normal -0.124192871250279 -0.992258096832982 8.40046020114173e-16
outer loop
vertex 46.2453345338635 0.28094918537991 3.59021169650949
vertex 47.5889884324637 0.112774961187237 7.00379682978969
vertex 46.2453345338635 0.280949185379913 7.00379682978969
endloop
endfacet
facet normal -0.992258096832982 0.124192871250279 3.09899795540385e-17
outer loop
vertex -42.2636139697725 -15.8780668652327 15.586075
vertex -42.70090638391 -19.3718820435389 8.64727950139573
vertex -42.70090638391 -19.3718820435389 15.586075
endloop
endfacet
facet normal -0.992258096832982 0.124192871250279 3.09899795540385e-17
outer loop
vertex -42.70090638391 -19.3718820435389 8.64727950139573
vertex -42.2636139697725 -15.8780668652327 15.586075
vertex -42.2636139697725 -15.8780668652327 10.4646914626791
endloop
endfacet
facet normal -0.992258096832982 0.124192871250279 3.09899795540385e-17
outer loop
vertex -42.2636139697725 -15.8780668652327 10.4646914626791
vertex -42.2636139697725 -15.8780668652327 15.586075
vertex -42.2636139697725 -15.8780668652327 13.4032625
endloop
endfacet
facet normal -0.12419287125028 -0.992258096832982 0.0
outer loop
vertex 34.3226175072533 11.2694920490733 5.0713273995534
vertex -37.7369267428797 20.288598801615 0.0
vertex 34.3226175072533 11.2694920490733 0.0
endloop
endfacet
facet normal -0.12419287125028 -0.992258096832982 0.0
outer loop
vertex -37.7369267428797 20.288598801615 0.0
vertex 34.3226175072533 11.2694920490733 5.0713273995534
vertex -37.7369267428797 20.288598801615 5.0713273995534
endloop
endfacet
facet normal -0.0687597843999345 -0.549366901018255 -0.8327473206891
outer loop
vertex -37.3802712076341 23.1381532008738 8.87646914054126
vertex 34.3226175072533 11.2694920490733 10.7857811104634
vertex -37.7369267428797 20.288598801615 10.7857811104634
endloop
endfacet
facet normal -0.0687597843999345 -0.549366901018255 -0.8327473206891
outer loop
vertex 34.3226175072533 11.2694920490733 10.7857811104634
vertex -37.3802712076341 23.1381532008738 8.87646914054126
vertex 34.679273042499 14.119046448332 8.87646914054126
endloop
endfacet
facet normal 0.992258096832982 -0.12419287125028 5.14345800904694e-17
outer loop
vertex -53.578871220307 12.9890186020485 3.54938306724655
vertex -55.831972080886 -5.01247817779066 6.91604517842567
vertex -55.831972080886 -5.01247817779067 3.54938306724655
endloop
endfacet
facet normal 0.992258096832982 -0.12419287125028 5.14345800904694e-17
outer loop
vertex -55.831972080886 -5.01247817779066 6.91604517842567
vertex -53.578871220307 12.9890186020485 3.54938306724655
vertex -53.578871220307 12.9890186020485 6.91604517842567
endloop
endfacet
facet normal -0.124192871250284 -0.992258096832982 1.36456371614843e-15
outer loop
vertex -54.4615396168976 -5.18400405709621 7.97037007080276
vertex -55.831972080886 -5.01247817779066 6.91604517842567
vertex -54.4615396168976 -5.18400405709621 6.91604517842567
endloop
endfacet
facet normal 0.124192871250279 0.992258096832982 0.0
outer loop
vertex 3.03998856462286 -1.70553896323804 18.0260625
vertex 6.56058230831733 -2.14618303248849 15.4701875
vertex 3.03998856462286 -1.70553896323804 15.4701875
endloop
endfacet
facet normal 0.124192871250279 0.992258096832982 0.0
outer loop
vertex 6.56058230831733 -2.14618303248849 15.4701875
vertex 3.03998856462286 -1.70553896323804 18.0260625
vertex 6.56058230831733 -2.14618303248849 18.0260625
endloop
endfacet
facet normal 0.992258096832982 -0.12419287125028 -0.0
outer loop
vertex 7.89024864998752 -3.95930243295526 15.4701875
vertex 6.71095894071614 -13.381419425308 18.3499125
vertex 6.71095894071614 -13.381419425308 15.4701875
endloop
endfacet
facet normal 0.992258096832982 -0.12419287125028 -0.0
outer loop
vertex 6.71095894071614 -13.381419425308 18.3499125
vertex 7.89024864998752 -3.95930243295526 15.4701875
vertex 7.89024864998752 -3.95930243295526 18.3499125
endloop
endfacet
facet normal -0.992258096832982 0.124192871250279 -1.80113545445358e-16
outer loop
vertex -51.4331767652307 19.011567954916 15.586075
vertex -52.2084387563186 12.8174927227429 7.97037007080276
vertex -52.2084387563186 12.8174927227429 15.586075
endloop
endfacet
facet normal -0.992258096832982 0.124192871250279 -1.80113545445358e-16
outer loop
vertex -52.2084387563186 12.8174927227429 7.97037007080276
vertex -51.4331767652307 19.011567954916 15.586075
vertex -52.2084387563186 12.8174927227429 0.0
endloop
endfacet
facet normal -0.992258096832982 0.124192871250279 -1.80113545445358e-16
outer loop
vertex -52.2084387563186 12.8174927227429 0.0
vertex -51.4331767652307 19.011567954916 15.586075
vertex -51.4331767652307 19.011567954916 0.0
endloop
endfacet
facet normal -0.992258096832982 0.124192871250279 -1.80113545445358e-16
outer loop
vertex -52.2084387563186 12.8174927227429 7.97037007080276
vertex -52.2084387563186 12.8174927227429 3.54938306724655
vertex -52.2084387563186 12.8174927227429 6.91604517842567
endloop
endfacet
facet normal -0.992258096832982 0.124192871250279 -1.80113545445358e-16
outer loop
vertex -52.2084387563186 12.8174927227429 3.54938306724655
vertex -52.2084387563186 12.8174927227429 7.97037007080276
vertex -52.2084387563186 12.8174927227429 0.0
endloop
endfacet
facet normal 0.12419287125028 0.992258096832982 0.0
outer loop
vertex 3.02545863015121 6.21930283398991 18.3499125
vertex 9.0695383592589 5.46281455939754 15.4701875
vertex 3.02545863015121 6.21930283398991 15.4701875
endloop
endfacet
facet normal 0.12419287125028 0.992258096832982 0.0
outer loop
vertex 9.0695383592589 5.46281455939754 15.4701875
vertex 3.02545863015121 6.21930283398991 18.3499125
vertex 9.0695383592589 5.46281455939754 18.3499125
endloop
endfacet
facet normal 0.12419287125028 0.992258096832982 2.32156400254292e-16
outer loop
vertex -52.2084387563186 12.8174927227429 15.586075
vertex -49.3627641727017 12.4613227924482 10.1596538392128
vertex -52.2084387563186 12.8174927227429 7.97037007080276
endloop
endfacet
facet normal 0.12419287125028 0.992258096832982 2.32156400254292e-16
outer loop
vertex -49.3627641727017 12.4613227924482 10.1596538392128
vertex -52.2084387563186 12.8174927227429 15.586075
vertex -49.3627641727017 12.4613227924482 13.4032625
endloop
endfacet
facet normal 0.12419287125028 0.992258096832982 2.32156400254292e-16
outer loop
vertex -49.3627641727017 12.4613227924482 13.4032625
vertex -52.2084387563186 12.8174927227429 15.586075
vertex -48.1223447200128 12.306069583756 13.4032625
endloop
endfacet
facet normal 0.12419287125028 0.992258096832982 2.32156400254292e-16
outer loop
vertex -48.1223447200128 12.306069583756 13.4032625
vertex -52.2084387563186 12.8174927227429 15.586075
vertex -48.1223447200128 12.306069583756 15.586075
endloop
endfacet
facet normal 0.0 0.0 -1.0
outer loop
vertex -54.4552539030068 -5.18479078875246 15.586075
vertex -51.9424429239486 -18.2151941199684 15.586075
vertex -55.5307082109423 -13.7772988295112 15.586075
endloop
endfacet
facet normal 0.0 0.0 -1.0
outer loop
vertex -51.9424429239486 -18.2151941199684 15.586075
vertex -54.4552539030068 -5.18479078875246 15.586075
vertex -51.5051505098111 -14.7213789416622 15.586075
endloop
endfacet
facet normal 0.0 0.0 -1.0
outer loop
vertex -51.5051505098111 -14.7213789416622 15.586075
vertex -54.4552539030068 -5.18479078875246 15.586075
vertex -50.3754455805918 -5.69542719608308 15.586075
endloop
endfacet
facet normal 0.0 0.0 -1.0
outer loop
vertex -51.5051505098111 -14.7213789416622 15.586075
vertex -42.70090638391 -19.3718820435389 15.586075
vertex -51.9424429239486 -18.2151941199684 15.586075
endloop
endfacet
facet normal 0.0 0.0 -1.0
outer loop
vertex -42.70090638391 -19.3718820435389 15.586075
vertex -51.5051505098111 -14.7213789416622 15.586075
vertex -42.2636139697725 -15.8780668652327 15.586075
endloop
endfacet
facet normal 0.12419287125028 0.992258096832982 0.0
outer loop
vertex -46.9784632829183 21.4452867251856 15.586075
vertex -37.7369267428797 20.288598801615 13.4032625
vertex -46.9784632829183 21.4452867251856 13.4032625
endloop
endfacet
facet normal 0.12419287125028 0.992258096832982 0.0
outer loop
vertex -37.7369267428797 20.288598801615 13.4032625
vertex -46.9784632829183 21.4452867251856 15.586075
vertex -37.7369267428797 20.288598801615 15.586075
endloop
endfacet
facet normal -0.992258096832982 0.12419287125028 2.19522862341151e-16
outer loop
vertex 46.2453345338635 0.280949185379906 15.586075
vertex 46.2453345338635 0.280949185379913 7.00379682978969
vertex 46.2453345338635 0.280949185379901 8.1200785402563
endloop
endfacet
facet normal -0.992258096832982 0.12419287125028 2.19522862341151e-16
outer loop
vertex 46.2453345338635 0.280949185379913 7.00379682978969
vertex 46.2453345338635 0.280949185379906 15.586075
vertex 47.1591534425776 7.58204627800804 15.586075
endloop
endfacet
facet normal -0.992258096832982 0.12419287125028 2.19522862341151e-16
outer loop
vertex 46.2453345338635 0.28094918537991 3.59021169650949
vertex 47.1591534425776 7.58204627800804 0.0
vertex 46.2453345338635 0.280949185379906 0.0
endloop
endfacet
facet normal -0.992258096832982 0.12419287125028 2.19522862341151e-16
outer loop
vertex 47.1591534425776 7.58204627800804 0.0
vertex 46.2453345338635 0.28094918537991 3.59021169650949
vertex 46.2453345338635 0.280949185379913 7.00379682978969
endloop
endfacet
facet normal -0.992258096832982 0.12419287125028 2.19522862341151e-16
outer loop
vertex 47.1591534425776 7.58204627800804 0.0
vertex 46.2453345338635 0.280949185379913 7.00379682978969
vertex 47.1591534425776 7.58204627800804 15.586075
endloop
endfacet
facet normal 0.992258096832982 -0.12419287125028 4.92297254692674e-16
outer loop
vertex 34.679273042499 14.119046448332 0.0
vertex 34.3226175072533 11.2694920490733 5.0713273995534
vertex 34.3226175072533 11.2694920490733 0.0
endloop
endfacet
facet normal 0.992258096832982 -0.12419287125028 4.92297254692674e-16
outer loop
vertex 34.3226175072533 11.2694920490733 5.0713273995534
vertex 34.679273042499 14.119046448332 0.0
vertex 34.679273042499 14.119046448332 5.0713273995534
endloop
endfacet
facet normal -0.124192871250279 -0.992258096832982 -0.0
outer loop
vertex 39.1619399840551 -26.0694408343106 15.586075
vertex 29.8699651376105 -24.9064399583806 13.4032625
vertex 39.1619399840551 -26.0694408343106 13.4032625
endloop
endfacet
facet normal -0.124192871250279 -0.992258096832982 -0.0
outer loop
vertex 29.8699651376105 -24.9064399583806 13.4032625
vertex 39.1619399840551 -26.0694408343106 15.586075
vertex 29.8699651376105 -24.9064399583806 15.586075
endloop
endfacet
facet normal 0.12419287125028 0.992258096832982 -2.02715916664898e-16
outer loop
vertex -52.2084387563186 12.8174927227429 3.54938306724655
vertex -49.3627641727017 12.4613227924482 0.0
vertex -52.2084387563186 12.8174927227429 0.0
endloop
endfacet
facet normal 0.12419287125028 0.992258096832982 -2.02715916664898e-16
outer loop
vertex -49.3627641727017 12.4613227924482 0.0
vertex -52.2084387563186 12.8174927227429 3.54938306724655
vertex -49.3627641727017 12.4613227924482 3.54938306724655
endloop
endfacet
facet normal -0.992258096832982 0.12419287125028 -0.0
outer loop
vertex -50.3754455805918 -5.69542719608308 15.586075
vertex -51.5051505098111 -14.7213789416622 13.4032625
vertex -51.5051505098111 -14.7213789416622 15.586075
endloop
endfacet
facet normal -0.992258096832982 0.12419287125028 -0.0
outer loop
vertex -51.5051505098111 -14.7213789416622 13.4032625
vertex -50.3754455805918 -5.69542719608308 15.586075
vertex -50.3754455805918 -5.69542719608308 13.4032625
endloop
endfacet
facet normal -0.124192871250279 -0.992258096832982 2.17338831485288e-17
outer loop
vertex 42.8057800329776 13.1019176996685 15.586075
vertex 34.679273042499 14.119046448332 0.0
vertex 42.8057800329776 13.1019176996685 0.0
endloop
endfacet
facet normal -0.124192871250279 -0.992258096832982 2.17338831485288e-17
outer loop
vertex 34.679273042499 14.119046448332 0.0
vertex 42.8057800329776 13.1019176996685 15.586075
vertex 34.679273042499 14.119046448332 5.0713273995534
endloop
endfacet
facet normal -0.124192871250279 -0.992258096832982 2.17338831485288e-17
outer loop
vertex 34.679273042499 14.119046448332 5.0713273995534
vertex 42.8057800329776 13.1019176996685 15.586075
vertex 34.679273042499 14.119046448332 8.87646914054126
endloop
endfacet
facet normal -0.124192871250279 -0.992258096832982 2.17338831485288e-17
outer loop
vertex 34.679273042499 14.119046448332 8.87646914054126
vertex 42.8057800329776 13.1019176996685 15.586075
vertex 34.679273042499 14.119046448332 15.586075
endloop
endfacet
facet normal 0.992258096832982 -0.12419287125028 0.0
outer loop
vertex -12.802415961046 9.11700982762296 13.4032625
vertex -15.3374501634721 -11.1370368642891 18.3499125
vertex -15.3374501634721 -11.1370368642891 13.4032625
endloop
endfacet
facet normal 0.992258096832982 -0.12419287125028 0.0
outer loop
vertex -15.3374501634721 -11.1370368642891 18.3499125
vertex -12.802415961046 9.11700982762296 13.4032625
vertex -12.802415961046 9.11700982762296 18.3499125
endloop
endfacet
facet normal -0.992258096832982 0.12419287125028 0.0
outer loop
vertex 3.02545863015121 6.21930283398991 18.3499125
vertex 1.90892480185874 -2.70141636959837 15.4701875
vertex 1.90892480185874 -2.70141636959837 18.3499125
endloop
endfacet
facet normal -0.992258096832982 0.12419287125028 0.0
outer loop
vertex 1.90892480185874 -2.70141636959837 15.4701875
vertex 3.02545863015121 6.21930283398991 18.3499125
vertex 3.02545863015121 6.21930283398991 15.4701875
endloop
endfacet
facet normal -0.785188441165856 -0.619256902956708 -0.0
outer loop
vertex 42.8057800329776 13.1019176996685 15.586075
vertex 47.1591534425776 7.58204627800804 0.0
vertex 47.1591534425776 7.58204627800804 15.586075
endloop
endfacet
facet normal -0.785188441165856 -0.619256902956708 -0.0
outer loop
vertex 47.1591534425776 7.58204627800804 0.0
vertex 42.8057800329776 13.1019176996685 15.586075
vertex 42.8057800329776 13.1019176996685 0.0
endloop
endfacet
facet normal -0.12419287125028 -0.992258096832982 -0.0
outer loop
vertex -42.2636139697725 -15.8780668652327 15.586075
vertex -51.5051505098111 -14.7213789416622 13.4032625
vertex -42.2636139697725 -15.8780668652327 13.4032625
endloop
endfacet
facet normal -0.12419287125028 -0.992258096832982 -0.0
outer loop
vertex -51.5051505098111 -14.7213789416622 13.4032625
vertex -42.2636139697725 -15.8780668652327 15.586075
vertex -51.5051505098111 -14.7213789416622 15.586075
endloop
endfacet
facet normal -0.12419287125028 -0.992258096832982 -1.06392220925614e-16
outer loop
vertex 44.0031206185178 -17.6335646666247 15.586075
vertex 41.0741528282659 -17.2669696034733 10.5534084165066
vertex 44.0031206185178 -17.6335646666247 8.1200785402563
endloop
endfacet
facet normal -0.12419287125028 -0.992258096832982 -1.06392220925614e-16
outer loop
vertex 41.0741528282659 -17.2669696034733 10.5534084165066
vertex 44.0031206185178 -17.6335646666247 15.586075
vertex 41.0741528282659 -17.2669696034733 13.4032625
endloop
endfacet
facet normal -0.12419287125028 -0.992258096832982 -1.06392220925614e-16
outer loop
vertex 41.0741528282659 -17.2669696034733 13.4032625
vertex 44.0031206185178 -17.6335646666247 15.586075
vertex 40.2761744003607 -17.1670931373869 13.4032625
endloop
endfacet
facet normal -0.12419287125028 -0.992258096832982 -1.06392220925614e-16
outer loop
vertex 40.2761744003607 -17.1670931373869 13.4032625
vertex 44.0031206185178 -17.6335646666247 15.586075
vertex 40.2761744003607 -17.1670931373869 15.586075
endloop
endfacet
facet normal 0.0 0.0 -1.0
outer loop
vertex -49.3627641727017 12.4613227924482 13.4032625
vertex -50.3754455805918 -5.69542719608308 13.4032625
vertex -51.6158650332807 -5.54017398739087 13.4032625
endloop
endfacet
facet normal 0.0 0.0 -1.0
outer loop
vertex -50.3754455805918 -5.69542719608308 13.4032625
vertex -42.2636139697725 -15.8780668652327 13.4032625
vertex -51.5051505098111 -14.7213789416622 13.4032625
endloop
endfacet
facet normal 0.0 0.0 -1.0
outer loop
vertex -42.2636139697725 -15.8780668652327 13.4032625
vertex -50.3754455805918 -5.69542719608308 13.4032625
vertex -49.3627641727017 12.4613227924482 13.4032625
endloop
endfacet
facet normal 0.0 0.0 -1.0
outer loop
vertex -42.2636139697725 -15.8780668652327 13.4032625
vertex -49.3627641727017 12.4613227924482 13.4032625
vertex -48.1223447200128 12.306069583756 13.4032625
endloop
endfacet
facet normal 0.0 0.0 -1.0
outer loop
vertex -42.2636139697725 -15.8780668652327 13.4032625
vertex -48.1223447200128 12.306069583756 13.4032625
vertex -46.9784632829183 21.4452867251856 13.4032625
endloop
endfacet
facet normal 0.0 0.0 -1.0
outer loop
vertex -42.2636139697725 -15.8780668652327 13.4032625
vertex -46.9784632829183 21.4452867251856 13.4032625
vertex -37.7369267428797 20.288598801615 13.4032625
endloop
endfacet
facet normal 0.0 0.0 -1.0
outer loop
vertex -42.2636139697725 -15.8780668652327 13.4032625
vertex -37.7369267428797 20.288598801615 13.4032625
vertex -15.3374501634721 -11.1370368642891 13.4032625
endloop
endfacet
facet normal 0.0 0.0 -1.0
outer loop
vertex -42.2636139697725 -15.8780668652327 13.4032625
vertex -15.3374501634721 -11.1370368642891 13.4032625
vertex 29.8699651376105 -24.9064399583806 13.4032625
endloop
endfacet
facet normal 0.0 0.0 -1.0
outer loop
vertex 29.8699651376105 -24.9064399583806 13.4032625
vertex -15.3374501634721 -11.1370368642891 13.4032625
vertex 7.27783591179483 -13.9676081851968 13.4032625
endloop
endfacet
facet normal 0.0 0.0 -1.0
outer loop
vertex 29.8699651376105 -24.9064399583806 13.4032625
vertex 7.27783591179483 -13.9676081851968 13.4032625
vertex 9.81287011422089 6.28643850671529 13.4032625
endloop
endfacet
facet normal 0.0 0.0 -1.0
outer loop
vertex -37.7369267428797 20.288598801615 13.4032625
vertex -12.802415961046 9.11700982762296 13.4032625
vertex -15.3374501634721 -11.1370368642891 13.4032625
endloop
endfacet
facet normal 0.0 0.0 -1.0
outer loop
vertex -12.802415961046 9.11700982762296 13.4032625
vertex -37.7369267428797 20.288598801615 13.4032625
vertex 34.3226175072533 11.2694920490733 13.4032625
endloop
endfacet
facet normal 0.0 0.0 -1.0
outer loop
vertex -12.802415961046 9.11700982762296 13.4032625
vertex 34.3226175072533 11.2694920490733 13.4032625
vertex 9.81287011422089 6.28643850671529 13.4032625
endloop
endfacet
facet normal 0.0 0.0 -1.0
outer loop
vertex 9.81287011422089 6.28643850671529 13.4032625
vertex 34.3226175072533 11.2694920490733 13.4032625
vertex 29.8699651376105 -24.9064399583806 13.4032625
endloop
endfacet
facet normal 0.0 0.0 -1.0
outer loop
vertex 29.8699651376105 -24.9064399583806 13.4032625
vertex 34.3226175072533 11.2694920490733 13.4032625
vertex 39.1619399840551 -26.0694408343106 13.4032625
endloop
endfacet
facet normal 0.0 0.0 -1.0
outer loop
vertex 39.1619399840551 -26.0694408343106 13.4032625
vertex 34.3226175072533 11.2694920490733 13.4032625
vertex 43.6886272109478 10.0972248325372 13.4032625
endloop
endfacet
facet normal 0.0 0.0 -1.0
outer loop
vertex 39.1619399840551 -26.0694408343106 13.4032625
vertex 43.6886272109478 10.0972248325372 13.4032625
vertex 40.2761744003607 -17.1670931373869 13.4032625
endloop
endfacet
facet normal 0.0 0.0 -1.0
outer loop
vertex 40.2761744003607 -17.1670931373869 13.4032625
vertex 43.6886272109478 10.0972248325372 13.4032625
vertex 42.5183883157065 0.747420714617737 13.4032625
endloop
endfacet
facet normal 0.0 0.0 -1.0
outer loop
vertex 40.2761744003607 -17.1670931373869 13.4032625
vertex 42.5183883157065 0.747420714617737 13.4032625
vertex 41.0741528282659 -17.2669696034733 13.4032625
endloop
endfacet
facet normal 0.0 0.0 -1.0
outer loop
vertex 43.3163667436116 0.647544248531309 13.4032625
vertex 41.0741528282659 -17.2669696034733 13.4032625
vertex 42.5183883157065 0.747420714617737 13.4032625
endloop
endfacet
facet normal -0.992258096832982 0.12419287125028 0.0
outer loop
vertex 1.84616892087983 -3.20281415836288 18.3499125
vertex 0.666879211608447 -12.6249311507157 15.4701875
vertex 0.666879211608447 -12.6249311507157 18.3499125
endloop
endfacet
facet normal -0.992258096832982 0.12419287125028 0.0
outer loop
vertex 0.666879211608447 -12.6249311507157 15.4701875
vertex 1.84616892087983 -3.20281415836288 18.3499125
vertex 1.84616892087983 -3.20281415836288 15.4701875
endloop
endfacet
facet normal -0.992258096832982 0.124192871250279 -6.88185668389308e-17
outer loop
vertex -37.3802712076341 23.1381532008738 15.586075
vertex -37.7369267428797 20.288598801615 13.4032625
vertex -37.7369267428797 20.288598801615 15.586075
endloop
endfacet
facet normal -0.992258096832982 0.124192871250279 -6.88185668389308e-17
outer loop
vertex -37.7369267428797 20.288598801615 13.4032625
vertex -37.3802712076341 23.1381532008738 8.87646914054126
vertex -37.7369267428797 20.288598801615 10.7857811104634
endloop
endfacet
facet normal -0.992258096832982 0.124192871250279 -6.88185668389308e-17
outer loop
vertex -37.3802712076341 23.1381532008738 8.87646914054126
vertex -37.7369267428797 20.288598801615 13.4032625
vertex -37.3802712076341 23.1381532008738 15.586075
endloop
endfacet
facet normal 0.0 0.0 -1.0
outer loop
vertex 34.679273042499 14.119046448332 15.586075
vertex 43.6886272109478 10.0972248325372 15.586075
vertex 34.3226175072533 11.2694920490733 15.586075
endloop
endfacet
facet normal 0.0 0.0 -1.0
outer loop
vertex 43.6886272109478 10.0972248325372 15.586075
vertex 34.679273042499 14.119046448332 15.586075
vertex 42.8057800329776 13.1019176996685 15.586075
endloop
endfacet
facet normal 0.0 0.0 -1.0
outer loop
vertex 43.6886272109478 10.0972248325372 15.586075
vertex 42.8057800329776 13.1019176996685 15.586075
vertex 47.1591534425776 7.58204627800804 15.586075
endloop
endfacet
facet normal 0.0 0.0 -1.0
outer loop
vertex 43.6886272109478 10.0972248325372 15.586075
vertex 47.1591534425776 7.58204627800804 15.586075
vertex 46.2453345338635 0.280949185379906 15.586075
endloop
endfacet
facet normal 0.0 0.0 -1.0
outer loop
vertex 43.6886272109478 10.0972248325372 15.586075
vertex 43.3163667436116 0.647544248531309 15.586075
vertex 42.5183883157065 0.747420714617737 15.586075
endloop
endfacet
facet normal 0.0 0.0 -1.0
outer loop
vertex 43.3163667436116 0.647544248531309 15.586075
vertex 43.6886272109478 10.0972248325372 15.586075
vertex 46.2453345338635 0.280949185379906 15.586075
endloop
endfacet
facet normal -0.992258096832982 0.12419287125028 -1.1236651115627e-15
outer loop
vertex -42.70090638391 -19.3718820435389 5.27132573615015
vertex -42.2636139697725 -15.8780668652327 0.0
vertex -42.70090638391 -19.3718820435389 0.0
endloop
endfacet
facet normal -0.992258096832982 0.12419287125028 -1.1236651115627e-15
outer loop
vertex -42.2636139697725 -15.8780668652327 0.0
vertex -42.70090638391 -19.3718820435389 5.27132573615015
vertex -42.2636139697725 -15.8780668652327 5.27132573615015
endloop
endfacet
facet normal -0.124192871250279 -0.992258096832982 7.13911711371477e-15
outer loop
vertex 34.3226175072533 11.2694920490733 10.7857811104634
vertex -37.7369267428797 20.288598801615 13.4032625
vertex -37.7369267428797 20.288598801615 10.7857811104634
endloop
endfacet
facet normal -0.124192871250279 -0.992258096832982 7.13911711371477e-15
outer loop
vertex -37.7369267428797 20.288598801615 13.4032625
vertex 34.3226175072533 11.2694920490733 10.7857811104634
vertex 34.3226175072533 11.2694920490733 13.4032625
endloop
endfacet
facet normal -0.992258096832982 0.12419287125028 -0.0
outer loop
vertex 9.81287011422089 6.28643850671529 18.3499125
vertex 7.27783591179483 -13.9676081851968 13.4032625
vertex 7.27783591179483 -13.9676081851968 18.3499125
endloop
endfacet
facet normal -0.992258096832982 0.12419287125028 -0.0
outer loop
vertex 7.27783591179483 -13.9676081851968 13.4032625
vertex 9.81287011422089 6.28643850671529 18.3499125
vertex 9.81287011422089 6.28643850671529 13.4032625
endloop
endfacet
facet normal 0.992258096832982 -0.12419287125028 -0.0
outer loop
vertex 40.2761744003607 -17.1670931373869 13.4032625
vertex 39.1619399840551 -26.0694408343106 15.586075
vertex 39.1619399840551 -26.0694408343106 13.4032625
endloop
endfacet
facet normal 0.992258096832982 -0.12419287125028 -0.0
outer loop
vertex 39.1619399840551 -26.0694408343106 15.586075
vertex 40.2761744003607 -17.1670931373869 13.4032625
vertex 40.2761744003607 -17.1670931373869 15.586075
endloop
endfacet
facet normal -0.124192871250279 -0.992258096832982 -0.0
outer loop
vertex 6.71095894071614 -13.381419425308 18.3499125
vertex 0.666879211608447 -12.6249311507157 15.4701875
vertex 6.71095894071614 -13.381419425308 15.4701875
endloop
endfacet
facet normal -0.124192871250279 -0.992258096832982 -0.0
outer loop
vertex 0.666879211608447 -12.6249311507157 15.4701875
vertex 6.71095894071614 -13.381419425308 18.3499125
vertex 0.666879211608447 -12.6249311507157 18.3499125
endloop
endfacet
facet normal 0.992258096832982 -0.12419287125028 -0.0
outer loop
vertex 9.0695383592589 5.46281455939754 15.4701875
vertex 7.95300453096643 -3.45790464419074 18.3499125
vertex 7.95300453096643 -3.45790464419074 15.4701875
endloop
endfacet
facet normal 0.992258096832982 -0.12419287125028 -0.0
outer loop
vertex 7.95300453096643 -3.45790464419074 18.3499125
vertex 9.0695383592589 5.46281455939754 15.4701875
vertex 9.0695383592589 5.46281455939754 18.3499125
endloop
endfacet
facet normal 0.992258096832982 -0.12419287125028 8.99576917416514e-17
outer loop
vertex -54.4552539030068 -5.18479078875246 0.0
vertex -55.5307082109423 -13.7772988295112 15.586075
vertex -55.5307082109423 -13.7772988295112 0.0
endloop
endfacet
facet normal 0.992258096832982 -0.12419287125028 8.99576917416514e-17
outer loop
vertex -55.5307082109423 -13.7772988295112 15.586075
vertex -54.4552539030068 -5.18479078875246 0.0
vertex -54.4552539030068 -5.18479078875247 3.54938306724655
endloop
endfacet
facet normal 0.992258096832982 -0.12419287125028 8.99576917416514e-17
outer loop
vertex -54.4552539030068 -5.18479078875247 3.54938306724655
vertex -54.4552539030068 -5.18479078875246 15.586075
vertex -55.5307082109423 -13.7772988295112 15.586075
endloop
endfacet
facet normal 0.992258096832982 -0.12419287125028 8.99576917416514e-17
outer loop
vertex -54.4552539030068 -5.18479078875246 15.586075
vertex -54.4552539030068 -5.18479078875247 3.54938306724655
vertex -54.4552539030068 -5.18479078875246 7.97520590532623
endloop
endfacet
facet normal 0.992258096832982 -0.12419287125028 8.99576917416514e-17
outer loop
vertex -54.4552539030068 -5.18479078875246 7.97520590532623
vertex -54.4552539030068 -5.18479078875247 3.54938306724655
vertex -54.4552539030068 -5.18479078875246 6.91604517842567
endloop
endfacet
facet normal -0.992258096832982 0.12419287125028 -0.0
outer loop
vertex -46.9784632829183 21.4452867251856 15.586075
vertex -48.1223447200128 12.306069583756 13.4032625
vertex -48.1223447200128 12.306069583756 15.586075
endloop
endfacet
facet normal -0.992258096832982 0.12419287125028 -0.0
outer loop
vertex -48.1223447200128 12.306069583756 13.4032625
vertex -46.9784632829183 21.4452867251856 15.586075
vertex -46.9784632829183 21.4452867251856 13.4032625
endloop
endfacet
facet normal 0.992258096832982 -0.124192871250279 6.63780079849269e-16
outer loop
vertex 29.8699651376105 -24.9064399583806 10.4646914626791
vertex 29.8699651376105 -24.9064399583806 13.4032625
vertex 29.4326727234729 -28.4002551366868 8.64727950139573
endloop
endfacet
facet normal 0.992258096832982 -0.124192871250279 6.63780079849269e-16
outer loop
vertex 29.4326727234729 -28.4002551366868 8.64727950139573
vertex 29.8699651376105 -24.9064399583806 15.586075
vertex 29.4326727234729 -28.4002551366868 15.586075
endloop
endfacet
facet normal 0.992258096832982 -0.124192871250279 6.63780079849269e-16
outer loop
vertex 29.8699651376105 -24.9064399583806 15.586075
vertex 29.4326727234729 -28.4002551366868 8.64727950139573
vertex 29.8699651376105 -24.9064399583806 13.4032625
endloop
endfacet
facet normal 0.12419287125028 0.992258096832982 0.0
outer loop
vertex -15.3374501634721 -11.1370368642891 18.3499125
vertex 7.27783591179483 -13.9676081851968 13.4032625
vertex -15.3374501634721 -11.1370368642891 13.4032625
endloop
endfacet
facet normal 0.12419287125028 0.992258096832982 0.0
outer loop
vertex 7.27783591179483 -13.9676081851968 13.4032625
vertex -15.3374501634721 -11.1370368642891 18.3499125
vertex 7.27783591179483 -13.9676081851968 18.3499125
endloop
endfacet
facet normal 0.0 0.0 -1.0
outer loop
vertex 29.8699651376105 -24.9064399583806 15.586075
vertex 36.9684760656807 -29.3434503166842 15.586075
vertex 29.4326727234729 -28.4002551366868 15.586075
endloop
endfacet
facet normal 0.0 0.0 -1.0
outer loop
vertex 36.9684760656807 -29.3434503166842 15.586075
vertex 29.8699651376105 -24.9064399583806 15.586075
vertex 39.1619399840551 -26.0694408343106 15.586075
endloop
endfacet
facet normal 0.0 0.0 -1.0
outer loop
vertex 36.9684760656807 -29.3434503166842 15.586075
vertex 39.1619399840551 -26.0694408343106 15.586075
vertex 43.1320846015387 -24.5928412481201 15.586075
endloop
endfacet
facet normal 0.0 0.0 -1.0
outer loop
vertex 43.1320846015387 -24.5928412481201 15.586075
vertex 39.1619399840551 -26.0694408343106 15.586075
vertex 40.2761744003607 -17.1670931373869 15.586075
endloop
endfacet
facet normal 0.0 0.0 -1.0
outer loop
vertex 43.1320846015387 -24.5928412481201 15.586075
vertex 40.2761744003607 -17.1670931373869 15.586075
vertex 44.0031206185178 -17.6335646666247 15.586075
endloop
endfacet
facet normal -0.12419287125028 -0.992258096832982 -0.0
outer loop
vertex 9.81287011422089 6.28643850671529 18.3499125
vertex -12.802415961046 9.11700982762296 13.4032625
vertex 9.81287011422089 6.28643850671529 13.4032625
endloop
endfacet
facet normal -0.12419287125028 -0.992258096832982 -0.0
outer loop
vertex -12.802415961046 9.11700982762296 13.4032625
vertex 9.81287011422089 6.28643850671529 18.3499125
vertex -12.802415961046 9.11700982762296 18.3499125
endloop
endfacet
facet normal 0.12419287125028 0.992258096832982 -8.74087804641614e-16
outer loop
vertex 43.3163667436116 0.647544248531301 10.5534084165066
vertex 46.2453345338635 0.280949185379906 15.586075
vertex 46.2453345338635 0.280949185379901 8.1200785402563
endloop
endfacet
facet normal 0.12419287125028 0.992258096832982 -8.74087804641614e-16
outer loop
vertex 46.2453345338635 0.280949185379906 15.586075
vertex 43.3163667436116 0.647544248531301 10.5534084165066
vertex 43.3163667436116 0.647544248531309 13.4032625
endloop
endfacet
facet normal 0.12419287125028 0.992258096832982 -8.74087804641614e-16
outer loop
vertex 46.2453345338635 0.280949185379906 15.586075
vertex 43.3163667436116 0.647544248531309 13.4032625
vertex 43.3163667436116 0.647544248531309 15.586075
endloop
endfacet
facet normal -0.992258096832982 0.12419287125028 0.0
outer loop
vertex 43.3163667436116 0.647544248531309 3.59021169650949
vertex 41.0741528282659 -17.2669696034733 0.0
vertex 41.0741528282659 -17.2669696034733 3.59021169650949
endloop
endfacet
facet normal -0.992258096832982 0.12419287125028 0.0
outer loop
vertex 41.0741528282659 -17.2669696034733 0.0
vertex 43.3163667436116 0.647544248531309 3.59021169650949
vertex 43.3163667436116 0.647544248531309 0.0
endloop
endfacet
facet normal -0.12419287125028 -0.992258096832982 -5.19106077826084e-19
outer loop
vertex 44.0031206185178 -17.6335646666247 3.59021169650949
vertex 41.0741528282659 -17.2669696034733 0.0
vertex 44.0031206185178 -17.6335646666247 0.0
endloop
endfacet
facet normal -0.12419287125028 -0.992258096832982 -5.19106077826084e-19
outer loop
vertex 41.0741528282659 -17.2669696034733 0.0
vertex 44.0031206185178 -17.6335646666247 3.59021169650949
vertex 41.0741528282659 -17.2669696034733 3.59021169650949
endloop
endfacet
facet normal 0.0 0.0 -1.0
outer loop
vertex 3.75296564561114 3.99090137463985 18.0260625
vertex 6.56058230831733 -2.14618303248849 18.0260625
vertex 3.03998856462286 -1.70553896323804 18.0260625
endloop
endfacet
facet normal 0.0 0.0 -1.0
outer loop
vertex 6.56058230831733 -2.14618303248849 18.0260625
vertex 3.75296564561114 3.99090137463985 18.0260625
vertex 7.27355938930561 3.5502573053894 18.0260625
endloop
endfacet
facet normal 0.992258096832982 -0.12419287125028 -4.62752224586804e-17
outer loop
vertex -51.6158650332807 -5.54017398739087 0.0
vertex -49.3627641727017 12.4613227924482 3.54938306724655
vertex -51.6158650332807 -5.54017398739088 3.54938306724655
endloop
endfacet
facet normal 0.992258096832982 -0.12419287125028 -4.62752224586804e-17
outer loop
vertex -49.3627641727017 12.4613227924482 3.54938306724655
vertex -51.6158650332807 -5.54017398739087 0.0
vertex -49.3627641727017 12.4613227924482 0.0
endloop
endfacet
facet normal 0.0 0.0 -1.0
outer loop
vertex 3.02545863015121 6.21930283398991 15.4701875
vertex 3.75296564561114 3.99090137463985 15.4701875
vertex 3.03998856462286 -1.70553896323804 15.4701875
endloop
endfacet
facet normal 0.0 0.0 -1.0
outer loop
vertex 3.75296564561114 3.99090137463985 15.4701875
vertex 3.02545863015121 6.21930283398991 15.4701875
vertex 9.0695383592589 5.46281455939754 15.4701875
endloop
endfacet
facet normal 0.0 0.0 -1.0
outer loop
vertex 3.75296564561114 3.99090137463985 15.4701875
vertex 9.0695383592589 5.46281455939754 15.4701875
vertex 7.27355938930561 3.5502573053894 15.4701875
endloop
endfacet
facet normal 0.0 0.0 -1.0
outer loop
vertex 7.27355938930561 3.5502573053894 15.4701875
vertex 9.0695383592589 5.46281455939754 15.4701875
vertex 7.95300453096643 -3.45790464419074 15.4701875
endloop
endfacet
facet normal 0.0 0.0 -1.0
outer loop
vertex 1.90892480185874 -2.70141636959837 15.4701875
vertex 3.03998856462286 -1.70553896323804 15.4701875
vertex 7.95300453096643 -3.45790464419074 15.4701875
endloop
endfacet
facet normal 0.0 0.0 -1.0
outer loop
vertex 3.03998856462286 -1.70553896323804 15.4701875
vertex 1.90892480185874 -2.70141636959837 15.4701875
vertex 3.02545863015121 6.21930283398991 15.4701875
endloop
endfacet
facet normal 0.0 0.0 -1.0
outer loop
vertex 7.95300453096643 -3.45790464419074 15.4701875
vertex 3.03998856462286 -1.70553896323804 15.4701875
vertex 6.56058230831733 -2.14618303248849 15.4701875
endloop
endfacet
facet normal 0.0 0.0 -1.0
outer loop
vertex 7.95300453096643 -3.45790464419074 15.4701875
vertex 6.56058230831733 -2.14618303248849 15.4701875
vertex 7.27355938930561 3.5502573053894 15.4701875
endloop
endfacet
facet normal 0.12419287125028 0.992258096832982 2.01995108260911e-15
outer loop
vertex -42.2636139697725 -15.8780668652327 13.4032625
vertex 29.8699651376105 -24.9064399583806 10.4646914626791
vertex -42.2636139697725 -15.8780668652327 10.4646914626791
endloop
endfacet
facet normal 0.12419287125028 0.992258096832982 2.01995108260911e-15
outer loop
vertex 29.8699651376105 -24.9064399583806 10.4646914626791
vertex -42.2636139697725 -15.8780668652327 13.4032625
vertex 29.8699651376105 -24.9064399583806 13.4032625
endloop
endfacet
facet normal 0.631159452906231 -0.0789970925138995 0.771619857430755
outer loop
vertex 45.346774517118 -17.8017388908174 7.00379682978969
vertex 46.2453345338635 0.280949185379901 8.1200785402563
vertex 44.0031206185178 -17.6335646666247 8.1200785402563
endloop
endfacet
facet normal 0.631159452906231 -0.0789970925138995 0.771619857430755
outer loop
vertex 46.2453345338635 0.280949185379901 8.1200785402563
vertex 45.346774517118 -17.8017388908174 7.00379682978969
vertex 47.5889884324637 0.112774961187237 7.00379682978969
endloop
endfacet
facet normal 0.124192871249988 0.992258096833019 -6.76258107424394e-16
outer loop
vertex -54.4615396168976 -5.18400405709621 7.97037007080276
vertex -54.4552539030068 -5.18479078875246 6.91604517842567
vertex -54.4615396168976 -5.18400405709621 6.91604517842567
endloop
endfacet
facet normal 0.124192871249988 0.992258096833019 -6.76258107424394e-16
outer loop
vertex -54.4552539030068 -5.18479078875246 6.91604517842567
vertex -54.4615396168976 -5.18400405709621 7.97037007080276
vertex -54.4552539030068 -5.18479078875246 7.97520590532623
endloop
endfacet
facet normal -0.992258096832982 0.12419287125028 -2.22260927829901e-15
outer loop
vertex 43.3163667436116 0.647544248531309 13.4032625
vertex 41.0741528282659 -17.2669696034733 10.5534084165066
vertex 41.0741528282659 -17.2669696034733 13.4032625
endloop
endfacet
facet normal -0.992258096832982 0.12419287125028 -2.22260927829901e-15
outer loop
vertex 41.0741528282659 -17.2669696034733 10.5534084165066
vertex 43.3163667436116 0.647544248531309 13.4032625
vertex 43.3163667436116 0.647544248531301 10.5534084165066
endloop
endfacet
facet normal -0.631159452906228 0.0789970925138993 -0.771619857430757
outer loop
vertex 43.3163667436116 0.647544248531301 10.5534084165066
vertex 44.0031206185178 -17.6335646666247 8.1200785402563
vertex 41.0741528282659 -17.2669696034733 10.5534084165066
endloop
endfacet
facet normal -0.631159452906228 0.0789970925138993 -0.771619857430757
outer loop
vertex 44.0031206185178 -17.6335646666247 8.1200785402563
vertex 43.3163667436116 0.647544248531301 10.5534084165066
vertex 46.2453345338635 0.280949185379901 8.1200785402563
endloop
endfacet
facet normal 0.0 0.0 -1.0
outer loop
vertex 46.2453345338635 0.280949185379913 7.00379682978969
vertex 45.346774517118 -17.8017388908174 7.00379682978969
vertex 44.0031206185178 -17.6335646666247 7.00379682978969
endloop
endfacet
facet normal 0.0 0.0 -1.0
outer loop
vertex 45.346774517118 -17.8017388908174 7.00379682978969
vertex 46.2453345338635 0.280949185379913 7.00379682978969
vertex 47.5889884324637 0.112774961187237 7.00379682978969
endloop
endfacet
facet normal 0.992258096832982 -0.12419287125028 -1.71545333269871e-15
outer loop
vertex -49.3627641727017 12.4613227924482 10.1596538392128
vertex -51.6158650332807 -5.54017398739087 13.4032625
vertex -51.6158650332807 -5.54017398739088 10.1596538392128
endloop
endfacet
facet normal 0.992258096832982 -0.12419287125028 -1.71545333269871e-15
outer loop
vertex -51.6158650332807 -5.54017398739087 13.4032625
vertex -49.3627641727017 12.4613227924482 10.1596538392128
vertex -49.3627641727017 12.4613227924482 13.4032625
endloop
endfacet
facet normal 0.124192871250283 0.992258096832982 -1.38183667458066e-15
outer loop
vertex -52.2084387563186 12.8174927227429 7.97037007080276
vertex -52.2084387563186 12.8174927227429 6.91604517842567
vertex -53.578871220307 12.9890186020485 6.91604517842567
endloop
endfacet
facet normal 0.0 0.0 -1.0
outer loop
vertex -53.578871220307 12.9890186020485 6.91604517842567
vertex -54.4615396168976 -5.18400405709621 6.91604517842567
vertex -55.831972080886 -5.01247817779066 6.91604517842567
endloop
endfacet
facet normal 0.0 0.0 -1.0
outer loop
vertex -54.4615396168976 -5.18400405709621 6.91604517842567
vertex -53.578871220307 12.9890186020485 6.91604517842567
vertex -52.2084387563186 12.8174927227429 6.91604517842567
endloop
endfacet
facet normal 0.12419287125028 0.992258096832982 -0.0
outer loop
vertex 44.0031206185178 -17.6335646666247 7.00379682978969
vertex 45.346774517118 -17.8017388908174 3.59021169650949
vertex 44.0031206185178 -17.6335646666247 3.59021169650949
endloop
endfacet
facet normal 0.12419287125028 0.992258096832982 -0.0
outer loop
vertex 45.346774517118 -17.8017388908174 3.59021169650949
vertex 44.0031206185178 -17.6335646666247 7.00379682978969
vertex 45.346774517118 -17.8017388908174 7.00379682978969
endloop
endfacet
facet normal 0.12419287125028 0.992258096832982 -2.79103194244076e-16
outer loop
vertex 43.3163667436116 0.647544248531309 3.59021169650949
vertex 46.2453345338635 0.280949185379906 0.0
vertex 43.3163667436116 0.647544248531309 0.0
endloop
endfacet
facet normal 0.12419287125028 0.992258096832982 -2.79103194244076e-16
outer loop
vertex 46.2453345338635 0.280949185379906 0.0
vertex 43.3163667436116 0.647544248531309 3.59021169650949
vertex 46.2453345338635 0.28094918537991 3.59021169650949
endloop
endfacet
facet normal 0.0569622335269775 0.455108548999806 -0.888612127184245
outer loop
vertex -42.2636139697725 -15.8780668652327 10.4646914626791
vertex 29.4326727234729 -28.4002551366868 8.64727950139573
vertex -42.70090638391 -19.3718820435389 8.64727950139573
endloop
endfacet
facet normal 0.0569622335269775 0.455108548999806 -0.888612127184245
outer loop
vertex 29.4326727234729 -28.4002551366868 8.64727950139573
vertex -42.2636139697725 -15.8780668652327 10.4646914626791
vertex 29.8699651376105 -24.9064399583806 10.4646914626791
endloop
endfacet
facet normal 0.992258096832982 -0.12419287125028 -4.96014331890138e-16
outer loop
vertex 34.679273042499 14.119046448332 8.87646914054126
vertex 34.3226175072533 11.2694920490733 13.4032625
vertex 34.3226175072533 11.2694920490733 10.7857811104634
endloop
endfacet
facet normal 0.992258096832982 -0.12419287125028 -4.96014331890138e-16
outer loop
vertex 34.3226175072533 11.2694920490733 13.4032625
vertex 34.679273042499 14.119046448332 8.87646914054126
vertex 34.3226175072533 11.2694920490733 15.586075
endloop
endfacet
facet normal 0.992258096832982 -0.12419287125028 -4.96014331890138e-16
outer loop
vertex 34.3226175072533 11.2694920490733 15.586075
vertex 34.679273042499 14.119046448332 8.87646914054126
vertex 34.679273042499 14.119046448332 15.586075
endloop
endfacet
facet normal -0.12419287125028 -0.992258096832982 -0.0
outer loop
vertex 7.27355938930561 3.5502573053894 18.0260625
vertex 3.75296564561114 3.99090137463985 15.4701875
vertex 7.27355938930561 3.5502573053894 15.4701875
endloop
endfacet
facet normal -0.12419287125028 -0.992258096832982 -0.0
outer loop
vertex 3.75296564561114 3.99090137463985 15.4701875
vertex 7.27355938930561 3.5502573053894 18.0260625
vertex 3.75296564561114 3.99090137463985 18.0260625
endloop
endfacet
facet normal 0.12419287125028 0.992258096832982 0.0
outer loop
vertex 2.00472494950337 -10.3086808034736 18.0260625
vertex 5.41190359272983 -10.7351296275402 15.4701875
vertex 2.00472494950337 -10.3086808034736 15.4701875
endloop
endfacet
facet normal 0.12419287125028 0.992258096832982 0.0
outer loop
vertex 5.41190359272983 -10.7351296275402 15.4701875
vertex 2.00472494950337 -10.3086808034736 18.0260625
vertex 5.41190359272983 -10.7351296275402 18.0260625
endloop
endfacet
facet normal -0.992258096832982 0.12419287125028 -5.00302628489275e-17
outer loop
vertex 47.5889884324637 0.112774961187237 7.00379682978969
vertex 45.346774517118 -17.8017388908174 3.59021169650949
vertex 45.346774517118 -17.8017388908174 7.00379682978969
endloop
endfacet
facet normal -0.992258096832982 0.12419287125028 -5.00302628489275e-17
outer loop
vertex 45.346774517118 -17.8017388908174 3.59021169650949
vertex 47.5889884324637 0.112774961187237 7.00379682978969
vertex 47.5889884324637 0.112774961187234 3.59021169650949
endloop
endfacet
facet normal -0.12419287125028 -0.992258096832982 5.82288217671674e-18
outer loop
vertex -37.3802712076341 23.1381532008738 5.0713273995534
vertex -44.9223753887567 24.0821370056036 0.0
vertex -37.3802712076341 23.1381532008738 0.0
endloop
endfacet
facet normal -0.12419287125028 -0.992258096832982 5.82288217671674e-18
outer loop
vertex -44.9223753887567 24.0821370056036 0.0
vertex -37.3802712076341 23.1381532008738 5.0713273995534
vertex -44.9223753887567 24.0821370056036 15.586075
endloop
endfacet
facet normal -0.12419287125028 -0.992258096832982 5.82288217671674e-18
outer loop
vertex -44.9223753887567 24.0821370056036 15.586075
vertex -37.3802712076341 23.1381532008738 5.0713273995534
vertex -37.3802712076341 23.1381532008738 8.87646914054126
endloop
endfacet
facet normal -0.12419287125028 -0.992258096832982 5.82288217671674e-18
outer loop
vertex -44.9223753887567 24.0821370056036 15.586075
vertex -37.3802712076341 23.1381532008738 8.87646914054126
vertex -37.3802712076341 23.1381532008738 15.586075
endloop
endfacet
facet normal -0.124192871250281 -0.992258096832982 6.41163017628543e-16
outer loop
vertex 44.0031206185178 -17.6335646666247 8.1200785402563
vertex 44.0031206185178 -17.6335646666247 7.00379682978969
vertex 45.346774517118 -17.8017388908174 7.00379682978969
endloop
endfacet
facet normal 0.992258096832982 -0.12419287125028 -2.99425848906395e-16
outer loop
vertex 44.0031206185178 -17.6335646666247 0.0
vertex 43.1320846015387 -24.5928412481201 15.586075
vertex 43.1320846015387 -24.5928412481201 0.0
endloop
endfacet
facet normal 0.992258096832982 -0.12419287125028 -2.99425848906395e-16
outer loop
vertex 43.1320846015387 -24.5928412481201 15.586075
vertex 44.0031206185178 -17.6335646666247 0.0
vertex 44.0031206185178 -17.6335646666247 15.586075
endloop
endfacet
facet normal 0.992258096832982 -0.12419287125028 -2.99425848906395e-16
outer loop
vertex 44.0031206185178 -17.6335646666247 15.586075
vertex 44.0031206185178 -17.6335646666247 0.0
vertex 44.0031206185178 -17.6335646666247 3.59021169650949
endloop
endfacet
facet normal 0.992258096832982 -0.12419287125028 -2.99425848906395e-16
outer loop
vertex 44.0031206185178 -17.6335646666247 15.586075
vertex 44.0031206185178 -17.6335646666247 3.59021169650949
vertex 44.0031206185178 -17.6335646666247 8.1200785402563
endloop
endfacet
facet normal 0.992258096832982 -0.12419287125028 -2.99425848906395e-16
outer loop
vertex 44.0031206185178 -17.6335646666247 8.1200785402563
vertex 44.0031206185178 -17.6335646666247 3.59021169650949
vertex 44.0031206185178 -17.6335646666247 7.00379682978969
endloop
endfacet
facet normal 0.992258096832982 -0.12419287125028 -2.99425848906395e-16
outer loop
vertex 44.0031206185178 -17.6335646666247 8.1200785402563
vertex 44.0031206185178 -17.6335646666247 7.00379682978969
vertex 46.2453345338635 0.280949185379913 7.00379682978969
endloop
endfacet
facet normal 0.992258096832982 -0.12419287125028 -2.99425848906395e-16
outer loop
vertex 44.0031206185178 -17.6335646666247 8.1200785402563
vertex 46.2453345338635 0.280949185379913 7.00379682978969
vertex 46.2453345338635 0.280949185379901 8.1200785402563
endloop
endfacet
facet normal -0.992258096832982 0.12419287125028 -0.0
outer loop
vertex 6.10191228453192 -5.22219877705699 18.0260625
vertex 5.41190359272983 -10.7351296275402 15.4701875
vertex 5.41190359272983 -10.7351296275402 18.0260625
endloop
endfacet
facet normal -0.992258096832982 0.12419287125028 -0.0
outer loop
vertex 5.41190359272983 -10.7351296275402 15.4701875
vertex 6.10191228453192 -5.22219877705699 18.0260625
vertex 6.10191228453192 -5.22219877705699 15.4701875
endloop
endfacet
facet normal 0.614439748672349 -0.788963747742227 0.0
outer loop
vertex -44.9223753887567 24.0821370056036 15.586075
vertex -51.4331767652307 19.011567954916 0.0
vertex -44.9223753887567 24.0821370056036 0.0
endloop
endfacet
facet normal 0.614439748672349 -0.788963747742227 0.0
outer loop
vertex -51.4331767652307 19.011567954916 0.0
vertex -44.9223753887567 24.0821370056036 15.586075
vertex -51.4331767652307 19.011567954916 15.586075
endloop
endfacet
facet normal -0.12419287125028 -0.992258096832982 0.0
outer loop
vertex 34.679273042499 14.119046448332 8.87646914054126
vertex -37.3802712076341 23.1381532008738 5.0713273995534
vertex 34.679273042499 14.119046448332 5.0713273995534
endloop
endfacet
facet normal -0.12419287125028 -0.992258096832982 0.0
outer loop
vertex -37.3802712076341 23.1381532008738 5.0713273995534
vertex 34.679273042499 14.119046448332 8.87646914054126
vertex -37.3802712076341 23.1381532008738 8.87646914054126
endloop
endfacet
facet normal 0.0 0.0 -1.0
outer loop
vertex -12.802415961046 9.11700982762296 18.3499125
vertex 1.84616892087983 -3.20281415836288 18.3499125
vertex 0.666879211608447 -12.6249311507157 18.3499125
endloop
endfacet
facet normal 0.0 0.0 -1.0
outer loop
vertex 1.84616892087983 -3.20281415836288 18.3499125
vertex -12.802415961046 9.11700982762296 18.3499125
vertex 3.02545863015121 6.21930283398991 18.3499125
endloop
endfacet
facet normal 0.0 0.0 -1.0
outer loop
vertex 3.02545863015121 6.21930283398991 18.3499125
vertex -12.802415961046 9.11700982762296 18.3499125
vertex 9.81287011422089 6.28643850671529 18.3499125
endloop
endfacet
facet normal 0.0 0.0 -1.0
outer loop
vertex 1.84616892087983 -3.20281415836288 18.3499125
vertex 3.02545863015121 6.21930283398991 18.3499125
vertex 1.90892480185874 -2.70141636959837 18.3499125
endloop
endfacet
facet normal 0.0 0.0 -1.0
outer loop
vertex 3.02545863015121 6.21930283398991 18.3499125
vertex 9.81287011422089 6.28643850671529 18.3499125
vertex 9.0695383592589 5.46281455939754 18.3499125
endloop
endfacet
facet normal 0.0 0.0 -1.0
outer loop
vertex -15.3374501634721 -11.1370368642891 18.3499125
vertex 0.666879211608447 -12.6249311507157 18.3499125
vertex 7.27783591179483 -13.9676081851968 18.3499125
endloop
endfacet
facet normal 0.0 0.0 -1.0
outer loop
vertex 0.666879211608447 -12.6249311507157 18.3499125
vertex -15.3374501634721 -11.1370368642891 18.3499125
vertex -12.802415961046 9.11700982762296 18.3499125
endloop
endfacet
facet normal 0.0 0.0 -1.0
outer loop
vertex 7.27783591179483 -13.9676081851968 18.3499125
vertex 0.666879211608447 -12.6249311507157 18.3499125
vertex 6.71095894071614 -13.381419425308 18.3499125
endloop
endfacet
facet normal 0.0 0.0 -1.0
outer loop
vertex 7.27783591179483 -13.9676081851968 18.3499125
vertex 6.71095894071614 -13.381419425308 18.3499125
vertex 7.89024864998752 -3.95930243295526 18.3499125
endloop
endfacet
facet normal 0.0 0.0 -1.0
outer loop
vertex 7.27783591179483 -13.9676081851968 18.3499125
vertex 7.89024864998752 -3.95930243295526 18.3499125
vertex 9.81287011422089 6.28643850671529 18.3499125
endloop
endfacet
facet normal 0.0 0.0 -1.0
outer loop
vertex 9.81287011422089 6.28643850671529 18.3499125
vertex 7.89024864998752 -3.95930243295526 18.3499125
vertex 7.95300453096643 -3.45790464419074 18.3499125
endloop
endfacet
facet normal 0.0 0.0 -1.0
outer loop
vertex 9.81287011422089 6.28643850671529 18.3499125
vertex 7.95300453096643 -3.45790464419074 18.3499125
vertex 9.0695383592589 5.46281455939754 18.3499125
endloop
endfacet
facet normal 0.12419287125028 0.992258096832982 -0.0
outer loop
vertex 1.84616892087983 -3.20281415836288 18.3499125
vertex 7.89024864998752 -3.95930243295526 15.4701875
vertex 1.84616892087983 -3.20281415836288 15.4701875
endloop
endfacet
facet normal 0.12419287125028 0.992258096832982 -0.0
outer loop
vertex 7.89024864998752 -3.95930243295526 15.4701875
vertex 1.84616892087983 -3.20281415836288 18.3499125
vertex 7.89024864998752 -3.95930243295526 18.3499125
endloop
endfacet
facet normal 0.12419287125028 0.992258096832982 -0.0
outer loop
vertex -42.2636139697725 -15.8780668652327 5.27132573615015
vertex 29.8699651376105 -24.9064399583806 0.0
vertex -42.2636139697725 -15.8780668652327 0.0
endloop
endfacet
facet normal 0.12419287125028 0.992258096832982 -0.0
outer loop
vertex 29.8699651376105 -24.9064399583806 0.0
vertex -42.2636139697725 -15.8780668652327 5.27132573615015
vertex 29.8699651376105 -24.9064399583806 5.27132573615015
endloop
endfacet
facet normal 0.0 0.0 -1.0
outer loop
vertex 1.84616892087983 -3.20281415836288 15.4701875
vertex 2.69473364130545 -4.79574995299045 15.4701875
vertex 2.00472494950337 -10.3086808034736 15.4701875
endloop
endfacet
facet normal 0.0 0.0 -1.0
outer loop
vertex 2.69473364130545 -4.79574995299045 15.4701875
vertex 1.84616892087983 -3.20281415836288 15.4701875
vertex 7.89024864998752 -3.95930243295526 15.4701875
endloop
endfacet
facet normal 0.0 0.0 -1.0
outer loop
vertex 2.69473364130545 -4.79574995299045 15.4701875
vertex 7.89024864998752 -3.95930243295526 15.4701875
vertex 6.10191228453192 -5.22219877705699 15.4701875
endloop
endfacet
facet normal 0.0 0.0 -1.0
outer loop
vertex 6.10191228453192 -5.22219877705699 15.4701875
vertex 7.89024864998752 -3.95930243295526 15.4701875
vertex 6.71095894071614 -13.381419425308 15.4701875
endloop
endfacet
facet normal 0.0 0.0 -1.0
outer loop
vertex 0.666879211608447 -12.6249311507157 15.4701875
vertex 2.00472494950337 -10.3086808034736 15.4701875
vertex 6.71095894071614 -13.381419425308 15.4701875
endloop
endfacet
facet normal 0.0 0.0 -1.0
outer loop
vertex 2.00472494950337 -10.3086808034736 15.4701875
vertex 0.666879211608447 -12.6249311507157 15.4701875
vertex 1.84616892087983 -3.20281415836288 15.4701875
endloop
endfacet
facet normal 0.0 0.0 -1.0
outer loop
vertex 6.71095894071614 -13.381419425308 15.4701875
vertex 2.00472494950337 -10.3086808034736 15.4701875
vertex 5.41190359272983 -10.7351296275402 15.4701875
endloop
endfacet
facet normal 0.0 0.0 -1.0
outer loop
vertex 6.71095894071614 -13.381419425308 15.4701875
vertex 5.41190359272983 -10.7351296275402 15.4701875
vertex 6.10191228453192 -5.22219877705699 15.4701875
endloop
endfacet
facet normal 0.992258096832982 -0.12419287125028 -0.0
outer loop
vertex 3.75296564561114 3.99090137463985 15.4701875
vertex 3.03998856462286 -1.70553896323804 18.0260625
vertex 3.03998856462286 -1.70553896323804 15.4701875
endloop
endfacet
facet normal 0.992258096832982 -0.12419287125028 -0.0
outer loop
vertex 3.03998856462286 -1.70553896323804 18.0260625
vertex 3.75296564561114 3.99090137463985 15.4701875
vertex 3.75296564561114 3.99090137463985 18.0260625
endloop
endfacet
facet normal -0.0 -0.0 1.0
outer loop
vertex -54.4552539030068 -5.18479078875247 3.54938306724655
vertex -53.578871220307 12.9890186020485 3.54938306724655
vertex -55.831972080886 -5.01247817779067 3.54938306724655
endloop
endfacet
facet normal -0.0 -0.0 1.0
outer loop
vertex -53.578871220307 12.9890186020485 3.54938306724655
vertex -54.4552539030068 -5.18479078875247 3.54938306724655
vertex -51.6158650332807 -5.54017398739088 3.54938306724655
endloop
endfacet
facet normal -0.0 -0.0 1.0
outer loop
vertex -53.578871220307 12.9890186020485 3.54938306724655
vertex -51.6158650332807 -5.54017398739088 3.54938306724655
vertex -52.2084387563186 12.8174927227429 3.54938306724655
endloop
endfacet
facet normal -0.0 -0.0 1.0
outer loop
vertex -52.2084387563186 12.8174927227429 3.54938306724655
vertex -51.6158650332807 -5.54017398739088 3.54938306724655
vertex -49.3627641727017 12.4613227924482 3.54938306724655
endloop
endfacet
facet normal 0.124192871250283 0.992258096832982 -6.2830121197286e-16
outer loop
vertex -55.831972080886 -5.01247817779066 6.91604517842567
vertex -54.4552539030068 -5.18479078875247 3.54938306724655
vertex -55.831972080886 -5.01247817779067 3.54938306724655
endloop
endfacet
facet normal 0.124192871250283 0.992258096832982 -6.2830121197286e-16
outer loop
vertex -54.4552539030068 -5.18479078875247 3.54938306724655
vertex -55.831972080886 -5.01247817779066 6.91604517842567
vertex -54.4552539030068 -5.18479078875246 6.91604517842567
endloop
endfacet
facet normal 0.124192871250283 0.992258096832982 -6.2830121197286e-16
outer loop
vertex -54.4552539030068 -5.18479078875246 6.91604517842567
vertex -55.831972080886 -5.01247817779066 6.91604517842567
vertex -54.4615396168976 -5.18400405709621 6.91604517842567
endloop
endfacet
facet normal 0.992258096832982 -0.12419287125028 -0.0
outer loop
vertex 2.69473364130545 -4.79574995299045 15.4701875
vertex 2.00472494950337 -10.3086808034736 18.0260625
vertex 2.00472494950337 -10.3086808034736 15.4701875
endloop
endfacet
facet normal 0.992258096832982 -0.12419287125028 -0.0
outer loop
vertex 2.00472494950337 -10.3086808034736 18.0260625
vertex 2.69473364130545 -4.79574995299045 15.4701875
vertex 2.69473364130545 -4.79574995299045 18.0260625
endloop
endfacet
facet normal 0.124192871250279 0.992258096832982 8.88010779415533e-15
outer loop
vertex 46.2453345338635 0.280949185379901 8.1200785402563
vertex 47.5889884324637 0.112774961187237 7.00379682978969
vertex 46.2453345338635 0.280949185379913 7.00379682978969
endloop
endfacet
endsolid AT_T Building II
