solid Barrington Place
facet normal 0.992546151641322 -0.121869343405148 1.56406179527051e-16
outer loop
vertex 20.7426071427431 -14.7161647152089 0.0
vertex 23.3311119966684 6.36551554565274 8.10018793293468
vertex 20.7426071427431 -14.7161647152089 55.7199999999999
endloop
endfacet
facet normal 0.992546151641322 -0.121869343405148 1.56406179527051e-16
outer loop
vertex 23.3311119966684 6.36551554565274 8.10018793293468
vertex 20.7426071427431 -14.7161647152089 0.0
vertex 23.9343652465239 11.2786189962773 1.57551286772454e-15
endloop
endfacet
facet normal 0.992546151641322 -0.121869343405148 1.56406179527051e-16
outer loop
vertex 20.7426071427431 -14.7161647152089 55.7199999999999
vertex 23.3311119966684 6.36551554565274 8.10018793293468
vertex 21.8555170233422 -5.65224110449336 55.7199999999999
endloop
endfacet
facet normal 0.992546151641322 -0.121869343405148 1.56406179527051e-16
outer loop
vertex 21.8555170233422 -5.65224110449336 55.7199999999999
vertex 23.3311119966684 6.36551554565274 8.10018793293468
vertex 21.8555170233422 -5.65224110449336 57.54
endloop
endfacet
facet normal 0.992546151641322 -0.121869343405148 1.56406179527051e-16
outer loop
vertex 21.8555170233422 -5.65224110449336 57.54
vertex 23.3311119966684 6.36551554565274 8.10018793293468
vertex 22.7939109675619 1.99036426314482 55.7199999999999
endloop
endfacet
facet normal 0.992546151641322 -0.121869343405148 1.56406179527051e-16
outer loop
vertex 23.3311119966684 6.36551554565274 8.10018793293468
vertex 23.9343652465239 11.2786189962773 1.57551286772454e-15
vertex 23.9343652465239 11.2786189962773 6.71529296993647
endloop
endfacet
facet normal 0.992546151641322 -0.121869343405148 1.56406179527051e-16
outer loop
vertex 23.9343652465239 11.2786189962773 8.10018793293468
vertex 23.3311119966684 6.36551554565274 8.10018793293468
vertex 23.9343652465239 11.2786189962773 6.71529296993647
endloop
endfacet
facet normal 0.992546151641322 -0.121869343405148 1.56406179527051e-16
outer loop
vertex 23.3311119966684 6.36551554565275 55.7199999999999
vertex 22.7939109675619 1.99036426314482 55.7199999999999
vertex 23.3311119966684 6.36551554565274 8.10018793293468
endloop
endfacet
facet normal 0.992546151641322 -0.121869343405148 1.56406179527051e-16
outer loop
vertex 22.7939109675619 1.99036426314482 57.54
vertex 21.8555170233422 -5.65224110449336 57.54
vertex 22.7939109675619 1.99036426314482 55.7199999999999
endloop
endfacet
facet normal -0.121869343405147 -0.992546151641322 -1.14780221040089e-17
outer loop
vertex 20.7426071427431 -14.7161647152089 55.7199999999999
vertex -24.6961556793967 -9.13698617412129 0.0
vertex 20.7426071427431 -14.7161647152089 0.0
endloop
endfacet
facet normal -0.121869343405147 -0.992546151641322 -1.14780221040089e-17
outer loop
vertex -24.6961556793967 -9.13698617412129 0.0
vertex 20.7426071427431 -14.7161647152089 55.7199999999999
vertex -24.6961556793967 -9.13698617412129 55.7199999999999
endloop
endfacet
facet normal 0.0 0.0 1.0
outer loop
vertex 21.8555170233422 -5.65224110449336 57.54
vertex 15.1513055999237 2.92875820736445 57.54
vertex 14.2129116557041 -4.71384716027372 57.54
endloop
endfacet
facet normal 0.0 0.0 1.0
outer loop
vertex 15.1513055999237 2.92875820736445 57.54
vertex 21.8555170233422 -5.65224110449336 57.54
vertex 22.7939109675619 1.99036426314482 57.54
endloop
endfacet
facet normal 0.121869343405148 0.992546151641322 0.0
outer loop
vertex 15.1513055999237 2.92875820736445 57.54
vertex 22.7939109675619 1.99036426314482 55.7199999999999
vertex 15.1513055999237 2.92875820736445 55.7199999999999
endloop
endfacet
facet normal 0.121869343405148 0.992546151641322 0.0
outer loop
vertex 22.7939109675619 1.99036426314482 55.7199999999999
vertex 15.1513055999237 2.92875820736445 57.54
vertex 22.7939109675619 1.99036426314482 57.54
endloop
endfacet
facet normal -0.992546151641322 0.121869343405148 0.0
outer loop
vertex 15.1513055999237 2.92875820736445 57.54
vertex 14.2129116557041 -4.71384716027372 55.7199999999999
vertex 14.2129116557041 -4.71384716027372 57.54
endloop
endfacet
facet normal -0.992546151641322 0.121869343405148 0.0
outer loop
vertex 14.2129116557041 -4.71384716027372 55.7199999999999
vertex 15.1513055999237 2.92875820736445 57.54
vertex 15.1513055999237 2.92875820736445 55.7199999999999
endloop
endfacet
facet normal -0.121869343405148 -0.992546151641322 -0.0
outer loop
vertex 21.8555170233422 -5.65224110449336 57.54
vertex 14.2129116557041 -4.71384716027372 55.7199999999999
vertex 21.8555170233422 -5.65224110449336 55.7199999999999
endloop
endfacet
facet normal -0.121869343405148 -0.992546151641322 -0.0
outer loop
vertex 14.2129116557041 -4.71384716027372 55.7199999999999
vertex 21.8555170233422 -5.65224110449336 57.54
vertex 14.2129116557041 -4.71384716027372 57.54
endloop
endfacet
facet normal 0.121869343405148 0.992546151641322 -4.50561288483731e-17
outer loop
vertex -22.1076508254714 11.9446940867404 55.7199999999999
vertex 23.3311119966684 6.36551554565274 8.10018793293468
vertex -22.1076508254714 11.9446940867404 8.10018793293468
endloop
endfacet
facet normal 0.121869343405148 0.992546151641322 -4.50561288483731e-17
outer loop
vertex 23.3311119966684 6.36551554565274 8.10018793293468
vertex -22.1076508254714 11.9446940867404 55.7199999999999
vertex 23.3311119966684 6.36551554565275 55.7199999999999
endloop
endfacet
facet normal -3.87892361042325e-17 -3.15912976509368e-16 1.0
outer loop
vertex 23.3311119966684 6.36551554565274 8.10018793293468
vertex -21.5043975756159 16.857797537365 8.10018793293468
vertex -22.1076508254714 11.9446940867404 8.10018793293468
endloop
endfacet
facet normal -3.87892361042325e-17 -3.15912976509368e-16 1.0
outer loop
vertex -21.5043975756159 16.857797537365 8.10018793293468
vertex 23.3311119966684 6.36551554565274 8.10018793293468
vertex 23.9343652465239 11.2786189962773 8.10018793293468
endloop
endfacet
facet normal -0.992546151641322 0.121869343405151 1.179883675478e-19
outer loop
vertex -21.5043975756159 16.857797537365 8.10018793293468
vertex -22.1076508254714 11.9446940867404 0.0
vertex -22.1076508254714 11.9446940867404 8.10018793293468
endloop
endfacet
facet normal -0.992546151641322 0.121869343405151 1.179883675478e-19
outer loop
vertex -22.1076508254714 11.9446940867404 0.0
vertex -21.5043975756159 16.857797537365 8.10018793293468
vertex -21.5043975756159 16.857797537365 1.57551286772454e-15
endloop
endfacet
facet normal 0.121869343405148 0.992546151641322 -1.15236657638695e-15
outer loop
vertex -21.5043975756159 16.857797537365 1.57551286772454e-15
vertex -20.4585552669541 16.7293842487222 6.71529296993647
vertex -20.4585552669541 16.7293842487222 1.44382283906452e-15
endloop
endfacet
facet normal 0.121869343405148 0.992546151641322 -1.15236657638695e-15
outer loop
vertex -20.4585552669541 16.7293842487222 6.71529296993647
vertex -21.5043975756159 16.857797537365 1.57551286772454e-15
vertex -21.5043975756159 16.857797537365 8.10018793293468
endloop
endfacet
facet normal 0.121869343405148 0.992546151641322 -1.15236657638695e-15
outer loop
vertex -20.4585552669541 16.7293842487222 6.71529296993647
vertex -21.5043975756159 16.857797537365 8.10018793293468
vertex 23.9343652465239 11.2786189962773 6.71529296993647
endloop
endfacet
facet normal 0.121869343405148 0.992546151641322 -1.15236657638695e-15
outer loop
vertex 23.9343652465239 11.2786189962773 6.71529296993647
vertex -21.5043975756159 16.857797537365 8.10018793293468
vertex 23.9343652465239 11.2786189962773 8.10018793293468
endloop
endfacet
facet normal 0.121869343405147 0.992546151641322 2.60604706782628e-15
outer loop
vertex -20.4585552669541 16.7293842487222 6.71529296993647
vertex 23.9343652465239 11.2786189962773 1.57551286772454e-15
vertex -20.4585552669541 16.7293842487222 1.44382283906452e-15
endloop
endfacet
facet normal 0.121869343405147 0.992546151641322 2.60604706782628e-15
outer loop
vertex 23.9343652465239 11.2786189962773 1.57551286772454e-15
vertex -20.4585552669541 16.7293842487222 6.71529296993647
vertex 23.9343652465239 11.2786189962773 6.71529296993647
endloop
endfacet
facet normal 0.0 0.0 1.0
outer loop
vertex -5.57598485519565 -4.13932291808166 64.8999999999999
vertex -11.4887726582132 4.40495238158456 64.8999999999999
vertex -12.4344787630372 -3.2972057551521 64.8999999999999
endloop
endfacet
facet normal 0.0 0.0 1.0
outer loop
vertex -11.4887726582132 4.40495238158456 64.8999999999999
vertex -5.57598485519565 -4.13932291808166 64.8999999999999
vertex -4.63027875037171 3.562835218655 64.8999999999999
endloop
endfacet
facet normal 0.992546151641322 -0.121869343405147 0.0
outer loop
vertex -4.63027875037171 3.562835218655 59.28
vertex -5.57598485519565 -4.13932291808166 64.8999999999999
vertex -5.57598485519565 -4.13932291808166 59.28
endloop
endfacet
facet normal 0.992546151641322 -0.121869343405147 0.0
outer loop
vertex -5.57598485519565 -4.13932291808166 64.8999999999999
vertex -4.63027875037171 3.562835218655 59.28
vertex -4.63027875037171 3.562835218655 64.8999999999999
endloop
endfacet
facet normal -0.992546151641322 0.121869343405146 -1.07125172371679e-15
outer loop
vertex -12.4344787630372 -3.2972057551521 64.8999999999999
vertex -12.0719174664069 -0.344380954019177 60.67
vertex -12.4344787630372 -3.2972057551521 59.8057889237199
endloop
endfacet
facet normal -0.992546151641322 0.121869343405146 -1.07125172371679e-15
outer loop
vertex -12.0719174664069 -0.344380954019177 60.67
vertex -12.4344787630372 -3.2972057551521 64.8999999999999
vertex -11.4887726582132 4.40495238158456 64.8999999999999
endloop
endfacet
facet normal -0.992546151641322 0.121869343405146 -1.07125172371679e-15
outer loop
vertex -12.0719174664069 -0.344380954019177 60.67
vertex -11.4887726582132 4.40495238158456 64.8999999999999
vertex -11.4887726582132 4.40495238158456 59.28
endloop
endfacet
facet normal -0.121869343405147 -0.992546151641322 0.0
outer loop
vertex -5.57598485519565 -4.13932291808166 64.8999999999999
vertex -12.4344787630372 -3.2972057551521 59.28
vertex -5.57598485519565 -4.13932291808166 59.28
endloop
endfacet
facet normal -0.121869343405147 -0.992546151641322 0.0
outer loop
vertex -12.4344787630372 -3.2972057551521 59.28
vertex -5.57598485519565 -4.13932291808166 64.8999999999999
vertex -12.4344787630372 -3.2972057551521 59.8057889237199
endloop
endfacet
facet normal -0.121869343405147 -0.992546151641322 0.0
outer loop
vertex -12.4344787630372 -3.2972057551521 59.8057889237199
vertex -5.57598485519565 -4.13932291808166 64.8999999999999
vertex -12.4344787630372 -3.2972057551521 64.8999999999999
endloop
endfacet
facet normal -0.0 -0.0 1.0
outer loop
vertex -3.66259414073009 -6.19785054087352 59.28
vertex -12.4344787630372 -3.2972057551521 59.28
vertex -12.6550622746005 -5.09371428962292 59.28
endloop
endfacet
facet normal -0.0 -0.0 1.0
outer loop
vertex -12.4344787630372 -3.2972057551521 59.28
vertex -3.66259414073009 -6.19785054087352 59.28
vertex -5.57598485519565 -4.13932291808166 59.28
endloop
endfacet
facet normal -0.0 -0.0 1.0
outer loop
vertex -5.57598485519565 -4.13932291808166 59.28
vertex -3.66259414073009 -6.19785054087352 59.28
vertex -4.63027875037171 3.562835218655 59.28
endloop
endfacet
facet normal -0.0 -0.0 1.0
outer loop
vertex -4.63027875037171 3.562835218655 59.28
vertex -3.66259414073009 -6.19785054087352 59.28
vertex -2.49630452434286 3.30081613033394 59.28
endloop
endfacet
facet normal -0.121869343405144 -0.992546151641322 -1.76042335873629e-16
outer loop
vertex -3.66259414073009 -6.19785054087352 59.28
vertex -22.9463664075301 -3.83010103054293 55.7199999999999
vertex -3.66259414073009 -6.19785054087352 55.7199999999999
endloop
endfacet
facet normal -0.121869343405144 -0.992546151641322 -1.76042335873629e-16
outer loop
vertex -22.9463664075301 -3.83010103054293 55.7199999999999
vertex -3.66259414073009 -6.19785054087352 59.28
vertex -22.9463664075301 -3.83010103054293 59.08
endloop
endfacet
facet normal -0.121869343405144 -0.992546151641322 -1.76042335873629e-16
outer loop
vertex -22.9463664075301 -3.83010103054293 59.08
vertex -3.66259414073009 -6.19785054087352 59.28
vertex -24.1126560239174 -3.68689867210921 59.08
endloop
endfacet
facet normal -0.121869343405144 -0.992546151641322 -1.76042335873629e-16
outer loop
vertex -24.1126560239174 -3.68689867210921 59.08
vertex -3.66259414073009 -6.19785054087352 59.28
vertex -24.1126560239174 -3.68689867210921 59.28
endloop
endfacet
facet normal -0.121869343405144 -0.992546151641322 -1.76042335873629e-16
outer loop
vertex -24.1126560239174 -3.68689867210921 59.28
vertex -3.66259414073009 -6.19785054087352 59.28
vertex -12.6550622746005 -5.09371428962292 59.28
endloop
endfacet
facet normal -0.121869343405144 -0.992546151641322 -1.76042335873629e-16
outer loop
vertex -24.1126560239174 -3.68689867210921 59.28
vertex -12.6550622746005 -5.09371428962292 59.28
vertex -22.9463664075301 -3.83010103054293 59.28
endloop
endfacet
facet normal 0.992546151641323 -0.121869343405144 0.0
outer loop
vertex -2.49630452434286 3.30081613033394 55.7199999999999
vertex -3.66259414073009 -6.19785054087352 59.28
vertex -3.66259414073009 -6.19785054087352 55.7199999999999
endloop
endfacet
facet normal 0.992546151641323 -0.121869343405144 0.0
outer loop
vertex -3.66259414073009 -6.19785054087352 59.28
vertex -2.49630452434286 3.30081613033394 55.7199999999999
vertex -2.49630452434286 3.30081613033394 59.28
endloop
endfacet
facet normal 0.121869343405145 0.992546151641322 -5.48155834190636e-16
outer loop
vertex -22.9463664075301 5.81176799909827 59.28
vertex -21.7800767911429 5.66856564066454 59.08
vertex -22.9463664075301 5.81176799909827 59.08
endloop
endfacet
facet normal 0.121869343405145 0.992546151641322 -5.48155834190636e-16
outer loop
vertex -11.4887726582132 4.40495238158456 64.8999999999999
vertex -4.63027875037171 3.562835218655 59.28
vertex -11.4887726582132 4.40495238158456 59.28
endloop
endfacet
facet normal 0.121869343405145 0.992546151641322 -5.48155834190636e-16
outer loop
vertex -4.63027875037171 3.562835218655 59.28
vertex -11.4887726582132 4.40495238158456 64.8999999999999
vertex -4.63027875037171 3.562835218655 64.8999999999999
endloop
endfacet
facet normal 0.121869343405145 0.992546151641322 -5.48155834190636e-16
outer loop
vertex -21.7800767911429 5.66856564066454 59.08
vertex -2.49630452434286 3.30081613033394 55.7199999999999
vertex -21.7800767911429 5.66856564066454 55.7199999999999
endloop
endfacet
facet normal 0.121869343405145 0.992546151641322 -5.48155834190636e-16
outer loop
vertex -2.49630452434286 3.30081613033394 55.7199999999999
vertex -21.7800767911429 5.66856564066454 59.08
vertex -2.49630452434286 3.30081613033394 59.28
endloop
endfacet
facet normal 0.121869343405145 0.992546151641322 -5.48155834190636e-16
outer loop
vertex -2.49630452434286 3.30081613033394 59.28
vertex -21.7800767911429 5.66856564066454 59.08
vertex -22.9463664075301 5.81176799909827 59.28
endloop
endfacet
facet normal 0.121869343405145 0.992546151641322 -5.48155834190636e-16
outer loop
vertex -2.49630452434286 3.30081613033394 59.28
vertex -22.9463664075301 5.81176799909827 59.28
vertex -21.7800767911429 5.66856564066454 59.28
endloop
endfacet
facet normal 0.121869343405145 0.992546151641322 -5.48155834190636e-16
outer loop
vertex -2.49630452434286 3.30081613033394 59.28
vertex -21.7800767911429 5.66856564066454 59.28
vertex -11.4887726582132 4.40495238158456 59.28
endloop
endfacet
facet normal 0.121869343405145 0.992546151641322 -5.48155834190636e-16
outer loop
vertex -2.49630452434286 3.30081613033394 59.28
vertex -11.4887726582132 4.40495238158456 59.28
vertex -4.63027875037171 3.562835218655 59.28
endloop
endfacet
facet normal -0.992546151641322 0.121869343405144 7.94410112178245e-18
outer loop
vertex -22.1076508254714 11.9446940867404 55.7199999999999
vertex -24.6961556793967 -9.13698617412129 0.0
vertex -24.6961556793967 -9.13698617412129 55.7199999999999
endloop
endfacet
facet normal -0.992546151641322 0.121869343405144 7.94410112178245e-18
outer loop
vertex -24.6961556793967 -9.13698617412129 0.0
vertex -22.1076508254714 11.9446940867404 55.7199999999999
vertex -22.1076508254714 11.9446940867404 0.0
endloop
endfacet
facet normal -0.992546151641322 0.121869343405144 7.94410112178245e-18
outer loop
vertex -22.1076508254714 11.9446940867404 0.0
vertex -22.1076508254714 11.9446940867404 55.7199999999999
vertex -22.1076508254714 11.9446940867404 8.10018793293468
endloop
endfacet
facet normal -0.0 -0.0 1.0
outer loop
vertex -3.66259414073009 -6.19785054087352 55.7199999999999
vertex -21.7800767911429 5.66856564066454 55.7199999999999
vertex -22.9463664075301 -3.83010103054293 55.7199999999999
endloop
endfacet
facet normal -0.0 -0.0 1.0
outer loop
vertex -21.7800767911429 5.66856564066454 55.7199999999999
vertex -3.66259414073009 -6.19785054087352 55.7199999999999
vertex -2.49630452434286 3.30081613033394 55.7199999999999
endloop
endfacet
facet normal 0.0339966058956566 0.276880135789558 0.960302879925251
outer loop
vertex -12.0719174664069 -0.344380954019177 60.67
vertex -22.9463664075301 5.81176799909827 59.28
vertex -23.5295112157238 1.06243466349452 60.67
endloop
endfacet
facet normal 0.0339966058956566 0.276880135789558 0.960302879925251
outer loop
vertex -22.9463664075301 5.81176799909827 59.28
vertex -12.0719174664069 -0.344380954019177 60.67
vertex -21.7800767911429 5.66856564066454 59.28
endloop
endfacet
facet normal 0.0339966058956566 0.276880135789558 0.960302879925251
outer loop
vertex -21.7800767911429 5.66856564066454 59.28
vertex -12.0719174664069 -0.344380954019177 60.67
vertex -11.4887726582132 4.40495238158456 59.28
endloop
endfacet
facet normal 0.992546151641324 -0.121869343405133 -1.93242854460078e-14
outer loop
vertex -12.4344787630372 -3.2972057551521 59.28
vertex -12.4344787630372 -3.2972057551521 59.8057889237199
vertex -12.6550622746005 -5.09371428962292 59.28
endloop
endfacet
facet normal -0.0339966058956567 -0.276880135789558 0.960302879925251
outer loop
vertex -22.9463664075301 -3.83010103054293 59.28
vertex -23.5295112157238 1.06243466349452 60.67
vertex -24.1126560239174 -3.68689867210921 59.28
endloop
endfacet
facet normal -0.0339966058956567 -0.276880135789558 0.960302879925251
outer loop
vertex -23.5295112157238 1.06243466349452 60.67
vertex -22.9463664075301 -3.83010103054293 59.28
vertex -12.0719174664069 -0.344380954019177 60.67
endloop
endfacet
facet normal -0.0339966058956567 -0.276880135789558 0.960302879925251
outer loop
vertex -12.0719174664069 -0.344380954019177 60.67
vertex -22.9463664075301 -3.83010103054293 59.28
vertex -12.4344787630372 -3.2972057551521 59.8057889237199
endloop
endfacet
facet normal -0.0339966058956567 -0.276880135789558 0.960302879925251
outer loop
vertex -12.4344787630372 -3.2972057551521 59.8057889237199
vertex -22.9463664075301 -3.83010103054293 59.28
vertex -12.6550622746005 -5.09371428962292 59.28
endloop
endfacet
facet normal -0.992546151641322 0.121869343405148 2.43759840137659e-15
outer loop
vertex -12.0719174664069 -0.344380954019177 60.67
vertex -12.4344787630372 -3.2972057551521 59.28
vertex -12.4344787630372 -3.2972057551521 59.8057889237199
endloop
endfacet
facet normal -0.992546151641322 0.121869343405148 2.43759840137659e-15
outer loop
vertex -12.4344787630372 -3.2972057551521 59.28
vertex -12.0719174664069 -0.344380954019177 60.67
vertex -12.0719174664069 -0.344380954019177 59.28
endloop
endfacet
facet normal -0.992546151641322 0.121869343405144 6.07635042005934e-17
outer loop
vertex -22.3632215993365 0.919232305060803 60.47
vertex -22.9463664075301 -3.83010103054293 55.7199999999999
vertex -22.9463664075301 -3.83010103054293 59.08
endloop
endfacet
facet normal -0.992546151641322 0.121869343405144 6.07635042005934e-17
outer loop
vertex -22.9463664075301 -3.83010103054293 55.7199999999999
vertex -22.3632215993365 0.919232305060803 60.47
vertex -21.7800767911429 5.66856564066454 55.7199999999999
endloop
endfacet
facet normal -0.992546151641322 0.121869343405144 6.07635042005934e-17
outer loop
vertex -21.7800767911429 5.66856564066454 55.7199999999999
vertex -22.3632215993365 0.919232305060803 60.47
vertex -21.7800767911429 5.66856564066454 59.08
endloop
endfacet
facet normal -0.0 -0.0 1.0
outer loop
vertex 20.7426071427431 -14.7161647152089 55.7199999999999
vertex -22.9463664075301 -3.83010103054293 55.7199999999999
vertex -24.6961556793967 -9.13698617412129 55.7199999999999
endloop
endfacet
facet normal -0.0 -0.0 1.0
outer loop
vertex -22.9463664075301 -3.83010103054293 55.7199999999999
vertex 20.7426071427431 -14.7161647152089 55.7199999999999
vertex -3.66259414073009 -6.19785054087352 55.7199999999999
endloop
endfacet
facet normal -0.0 -0.0 1.0
outer loop
vertex -3.66259414073009 -6.19785054087352 55.7199999999999
vertex 20.7426071427431 -14.7161647152089 55.7199999999999
vertex -2.49630452434286 3.30081613033394 55.7199999999999
endloop
endfacet
facet normal -0.0 -0.0 1.0
outer loop
vertex -2.49630452434286 3.30081613033394 55.7199999999999
vertex 20.7426071427431 -14.7161647152089 55.7199999999999
vertex 14.2129116557041 -4.71384716027372 55.7199999999999
endloop
endfacet
facet normal -0.0 -0.0 1.0
outer loop
vertex 14.2129116557041 -4.71384716027372 55.7199999999999
vertex 20.7426071427431 -14.7161647152089 55.7199999999999
vertex 21.8555170233422 -5.65224110449336 55.7199999999999
endloop
endfacet
facet normal -0.0 -0.0 1.0
outer loop
vertex -22.9463664075301 -3.83010103054293 55.7199999999999
vertex -22.1076508254714 11.9446940867404 55.7199999999999
vertex -24.6961556793967 -9.13698617412129 55.7199999999999
endloop
endfacet
facet normal -0.0 -0.0 1.0
outer loop
vertex -22.1076508254714 11.9446940867404 55.7199999999999
vertex -22.9463664075301 -3.83010103054293 55.7199999999999
vertex -21.7800767911429 5.66856564066454 55.7199999999999
endloop
endfacet
facet normal -0.0 -0.0 1.0
outer loop
vertex -22.1076508254714 11.9446940867404 55.7199999999999
vertex -21.7800767911429 5.66856564066454 55.7199999999999
vertex 23.3311119966684 6.36551554565275 55.7199999999999
endloop
endfacet
facet normal -0.0 -0.0 1.0
outer loop
vertex 23.3311119966684 6.36551554565275 55.7199999999999
vertex -21.7800767911429 5.66856564066454 55.7199999999999
vertex -2.49630452434286 3.30081613033394 55.7199999999999
endloop
endfacet
facet normal -0.0 -0.0 1.0
outer loop
vertex 23.3311119966684 6.36551554565275 55.7199999999999
vertex -2.49630452434286 3.30081613033394 55.7199999999999
vertex 15.1513055999237 2.92875820736445 55.7199999999999
endloop
endfacet
facet normal -0.0 -0.0 1.0
outer loop
vertex 15.1513055999237 2.92875820736445 55.7199999999999
vertex -2.49630452434286 3.30081613033394 55.7199999999999
vertex 14.2129116557041 -4.71384716027372 55.7199999999999
endloop
endfacet
facet normal -0.0 -0.0 1.0
outer loop
vertex 23.3311119966684 6.36551554565275 55.7199999999999
vertex 15.1513055999237 2.92875820736445 55.7199999999999
vertex 22.7939109675619 1.99036426314482 55.7199999999999
endloop
endfacet
facet normal -0.992546151641322 0.121869343405144 4.40983728415491e-16
outer loop
vertex -24.1126560239174 -3.68689867210921 59.28
vertex -23.5295112157238 1.06243466349452 60.47
vertex -24.1126560239174 -3.68689867210921 59.08
endloop
endfacet
facet normal -0.992546151641322 0.121869343405144 4.40983728415491e-16
outer loop
vertex -23.5295112157238 1.06243466349452 60.47
vertex -24.1126560239174 -3.68689867210921 59.28
vertex -23.5295112157238 1.06243466349452 60.67
endloop
endfacet
facet normal -0.992546151641322 0.121869343405144 4.40983728415491e-16
outer loop
vertex -23.5295112157238 1.06243466349452 60.47
vertex -23.5295112157238 1.06243466349452 60.67
vertex -22.9463664075301 5.81176799909827 59.08
endloop
endfacet
facet normal -0.992546151641322 0.121869343405144 4.40983728415491e-16
outer loop
vertex -22.9463664075301 5.81176799909827 59.08
vertex -23.5295112157238 1.06243466349452 60.67
vertex -22.9463664075301 5.81176799909827 59.28
endloop
endfacet
facet normal -0.0339966058956568 -0.276880135789558 -0.960302879925251
outer loop
vertex -22.9463664075301 5.81176799909827 59.08
vertex -22.3632215993365 0.919232305060803 60.47
vertex -23.5295112157238 1.06243466349452 60.47
endloop
endfacet
facet normal -0.0339966058956568 -0.276880135789558 -0.960302879925251
outer loop
vertex -22.3632215993365 0.919232305060803 60.47
vertex -22.9463664075301 5.81176799909827 59.08
vertex -21.7800767911429 5.66856564066454 59.08
endloop
endfacet
facet normal 0.0339966058956564 0.276880135789558 -0.960302879925251
outer loop
vertex -23.5295112157238 1.06243466349452 60.47
vertex -22.9463664075301 -3.83010103054293 59.08
vertex -24.1126560239174 -3.68689867210921 59.08
endloop
endfacet
facet normal 0.0339966058956564 0.276880135789558 -0.960302879925251
outer loop
vertex -22.9463664075301 -3.83010103054293 59.08
vertex -23.5295112157238 1.06243466349452 60.47
vertex -22.3632215993365 0.919232305060803 60.47
endloop
endfacet
endsolid Barrington Place
