solid bldg6
facet normal -0.0284110188114011 0.99959632552851 0.0
outer loop
vertex -2.22088591160244 23.0091743759056 17.9848481326226
vertex -0.524686228282261 23.0573845982523 8.5386446265018
vertex -2.22088591160244 23.0091743759056 8.5386446265018
endloop
endfacet
facet normal -0.0284110188114011 0.99959632552851 0.0
outer loop
vertex -0.524686228282261 23.0573845982523 8.5386446265018
vertex -2.22088591160244 23.0091743759056 17.9848481326226
vertex -0.524686228282261 23.0573845982523 17.9848481326226
endloop
endfacet
facet normal 0.390848851354998 0.920454874176067 1.2902295127079e-31
outer loop
vertex 12.7350342983327 20.554417818752 17.9848481326226
vertex 14.2969400659059 19.8911923936846 8.5386446265018
vertex 12.7350342983327 20.554417818752 8.5386446265018
endloop
endfacet
facet normal 0.390848851354998 0.920454874176067 1.2902295127079e-31
outer loop
vertex 14.2969400659059 19.8911923936846 8.5386446265018
vertex 12.7350342983327 20.554417818752 17.9848481326226
vertex 14.2969400659059 19.8911923936846 17.9848481326226
endloop
endfacet
facet normal -0.0761154272542145 0.997099013004179 0.0
outer loop
vertex -3.91284794357803 22.880015274069 17.9848481326226
vertex -2.22088591160244 23.0091743759056 8.5386446265018
vertex -3.91284794357803 22.880015274069 8.5386446265018
endloop
endfacet
facet normal -0.0761154272542145 0.997099013004179 0.0
outer loop
vertex -2.22088591160244 23.0091743759056 8.5386446265018
vertex -3.91284794357803 22.880015274069 17.9848481326226
vertex -2.22088591160244 23.0091743759056 17.9848481326226
endloop
endfacet
facet normal -0.991724472261359 0.128384466030472 -7.79576600651865e-17
outer loop
vertex -15.4986128946183 -4.94410940811161 20.0612375
vertex -16.9851234169531 -16.4268760453432 12.6793665012156
vertex -16.9851234169531 -16.4268760453432 20.0612375
endloop
endfacet
facet normal -0.991724472261359 0.128384466030472 -7.79576600651865e-17
outer loop
vertex -16.9851234169531 -16.4268760453432 12.6793665012156
vertex -15.4986128946183 -4.94410940811161 20.0612375
vertex -11.6593554270285 24.7127930478071 12.6793665012156
endloop
endfacet
facet normal -0.991724472261359 0.128384466030472 -7.79576600651865e-17
outer loop
vertex -11.6593554270285 24.7127930478071 12.6793665012156
vertex -15.4986128946183 -4.94410940811161 20.0612375
vertex -13.5681213558113 9.96825313638799 20.0612375
endloop
endfacet
facet normal -0.991724472261359 0.128384466030472 -7.79576600651865e-17
outer loop
vertex -11.6593554270285 24.7127930478071 12.6793665012156
vertex -13.5681213558113 9.96825313638799 20.0612375
vertex -11.6593554270285 24.7127930478071 20.0612375
endloop
endfacet
facet normal -0.0 -0.0 1.0
outer loop
vertex -10.5047347283226 -5.59059580603135 20.0612375
vertex -13.5681213558113 9.96825313638799 20.0612375
vertex -15.4986128946183 -4.94410940811161 20.0612375
endloop
endfacet
facet normal -0.0 -0.0 1.0
outer loop
vertex -13.5681213558113 9.96825313638799 20.0612375
vertex -10.5047347283226 -5.59059580603135 20.0612375
vertex -10.77728411384 6.43748400945085 20.0612375
endloop
endfacet
facet normal -0.0 -0.0 1.0
outer loop
vertex -10.77728411384 6.43748400945085 20.0612375
vertex -10.5047347283226 -5.59059580603135 20.0612375
vertex -8.97778766236585 6.20452879103274 20.0612375
endloop
endfacet
facet normal -0.0 -0.0 1.0
outer loop
vertex -10.3737396409897 9.55472195688637 20.0612375
vertex -13.5681213558113 9.96825313638799 20.0612375
vertex -10.77728411384 6.43748400945085 20.0612375
endloop
endfacet
facet normal 0.138349917803784 0.990383410727222 2.89349990998075e-16
outer loop
vertex -5.39618871477344 24.105651362703 4.50810783344155e-17
vertex 14.4974627073967 21.3266417294 8.5386446265018
vertex 14.4974627073967 21.3266417294 -4.62930390507121e-18
endloop
endfacet
facet normal 0.138349917803784 0.990383410727222 2.89349990998075e-16
outer loop
vertex 14.4974627073967 21.3266417294 8.5386446265018
vertex -5.39618871477344 24.105651362703 4.50810783344155e-17
vertex -5.39618871477344 24.105651362703 8.5386446265018
endloop
endfacet
facet normal 0.138349917803784 0.990383410727222 2.89349990998075e-16
outer loop
vertex 14.4974627073967 21.3266417294 8.5386446265018
vertex -5.39618871477344 24.105651362703 8.5386446265018
vertex 4.55063699631165 22.7161465460515 8.5386446265018
endloop
endfacet
facet normal 0.128384466030471 0.991724472261359 4.11385224046485e-18
outer loop
vertex 14.4974627073967 21.3266417294 -4.62930390507121e-18
vertex 19.7287303049344 20.6494238972728 6.33968325060778
vertex 19.7287303049344 20.6494238972728 -2.25006649834221e-17
endloop
endfacet
facet normal 0.128384466030471 0.991724472261359 4.11385224046485e-18
outer loop
vertex 19.7287303049344 20.6494238972728 6.33968325060778
vertex 14.4974627073967 21.3266417294 -4.62930390507121e-18
vertex 14.4974627073967 21.3266417294 8.5386446265018
endloop
endfacet
facet normal 0.128384466030471 0.991724472261359 4.11385224046485e-18
outer loop
vertex 19.7287303049344 20.6494238972728 6.33968325060778
vertex 14.4974627073967 21.3266417294 8.5386446265018
vertex 19.7287303049344 20.6494238972728 12.6793665012156
endloop
endfacet
facet normal 0.128384466030471 0.991724472261359 4.11385224046485e-18
outer loop
vertex 19.7287303049344 20.6494238972728 12.6793665012156
vertex 14.4974627073967 21.3266417294 8.5386446265018
vertex 14.4974627073967 21.3266417294 17.9848481326226
endloop
endfacet
facet normal 0.128384466030471 0.991724472261359 4.11385224046485e-18
outer loop
vertex 19.7287303049344 20.6494238972728 12.6793665012156
vertex 14.4974627073967 21.3266417294 17.9848481326226
vertex 19.7287303049344 20.6494238972728 20.0612375
endloop
endfacet
facet normal 0.128384466030471 0.991724472261359 4.11385224046485e-18
outer loop
vertex 19.7287303049344 20.6494238972728 20.0612375
vertex 14.4974627073967 21.3266417294 17.9848481326226
vertex 14.4974627073967 21.3266417294 20.0612375
endloop
endfacet
facet normal -0.990383410727223 0.138349917803782 -9.09770639188057e-19
outer loop
vertex 14.4974627073967 21.3266417294 17.9848481326226
vertex 14.2969400659059 19.8911923936846 8.5386446265018
vertex 14.2969400659059 19.8911923936846 17.9848481326226
endloop
endfacet
facet normal -0.990383410727223 0.138349917803782 -9.09770639188057e-19
outer loop
vertex 14.2969400659059 19.8911923936846 8.5386446265018
vertex 14.4974627073967 21.3266417294 17.9848481326226
vertex 14.4974627073967 21.3266417294 8.5386446265018
endloop
endfacet
facet normal 0.990383410727222 -0.138349917803785 -3.01927498625997e-16
outer loop
vertex -5.39618871477344 24.105651362703 8.5386446265018
vertex -5.59671135626427 22.6702020269876 17.9848481326226
vertex -5.59671135626427 22.6702020269876 8.5386446265018
endloop
endfacet
facet normal 0.990383410727222 -0.138349917803785 -3.01927498625997e-16
outer loop
vertex -5.59671135626427 22.6702020269876 17.9848481326226
vertex -5.39618871477344 24.105651362703 8.5386446265018
vertex -5.39618871477344 24.105651362703 17.9848481326226
endloop
endfacet
facet normal -0.0 -0.0 1.0
outer loop
vertex 6.22511668381291 22.4413095627689 8.5386446265018
vertex 14.4974627073967 21.3266417294 8.5386446265018
vertex 4.55063699631165 22.7161465460515 8.5386446265018
endloop
endfacet
facet normal -0.0 -0.0 1.0
outer loop
vertex 14.4974627073967 21.3266417294 8.5386446265018
vertex 6.22511668381291 22.4413095627689 8.5386446265018
vertex 7.88456069106736 22.086819537491 8.5386446265018
endloop
endfacet
facet normal -0.0 -0.0 1.0
outer loop
vertex 14.4974627073967 21.3266417294 8.5386446265018
vertex 7.88456069106736 22.086819537491 8.5386446265018
vertex 9.52518225454423 21.6534853977225 8.5386446265018
endloop
endfacet
facet normal -0.0 -0.0 1.0
outer loop
vertex 14.4974627073967 21.3266417294 8.5386446265018
vertex 9.52518225454423 21.6534853977225 8.5386446265018
vertex 11.1432375625348 21.1422959890706 8.5386446265018
endloop
endfacet
facet normal -0.0 -0.0 1.0
outer loop
vertex 14.4974627073967 21.3266417294 8.5386446265018
vertex 11.1432375625348 21.1422959890706 8.5386446265018
vertex 12.7350342983327 20.554417818752 8.5386446265018
endloop
endfacet
facet normal -0.0 -0.0 1.0
outer loop
vertex 14.4974627073967 21.3266417294 8.5386446265018
vertex 12.7350342983327 20.554417818752 8.5386446265018
vertex 14.2969400659059 19.8911923936846 8.5386446265018
endloop
endfacet
facet normal -2.04636628892204e-18 1.05382641855902e-18 -1.0
outer loop
vertex -11.6593554270285 24.7127930478071 1.09953184912979e-16
vertex 14.4029623150098 -20.4902451958775 0.0
vertex -16.9851234169531 -16.4268760453432 0.0
endloop
endfacet
facet normal -2.04636628892204e-18 1.05382641855902e-18 -1.0
outer loop
vertex 14.4029623150098 -20.4902451958775 0.0
vertex -11.6593554270285 24.7127930478071 1.09953184912979e-16
vertex -5.39618871477344 24.105651362703 4.50810783344155e-17
endloop
endfacet
facet normal -2.04636628892204e-18 1.05382641855902e-18 -1.0
outer loop
vertex 14.4029623150098 -20.4902451958775 0.0
vertex -5.39618871477344 24.105651362703 4.50810783344155e-17
vertex 14.4974627073967 21.3266417294 -4.62930390507121e-18
endloop
endfacet
facet normal -2.04636628892204e-18 1.05382641855902e-18 -1.0
outer loop
vertex 14.4029623150098 -20.4902451958775 0.0
vertex 14.4974627073967 21.3266417294 -4.62930390507121e-18
vertex 19.7287303049344 20.6494238972728 -2.25006649834221e-17
endloop
endfacet
facet normal -0.123646144314375 0.992326373224147 1.95139339781429e-17
outer loop
vertex -5.59671135626427 22.6702020269876 17.9848481326226
vertex -3.91284794357803 22.880015274069 8.5386446265018
vertex -5.59671135626427 22.6702020269876 8.5386446265018
endloop
endfacet
facet normal -0.123646144314375 0.992326373224147 1.95139339781429e-17
outer loop
vertex -3.91284794357803 22.880015274069 8.5386446265018
vertex -5.59671135626427 22.6702020269876 17.9848481326226
vertex -3.91284794357803 22.880015274069 17.9848481326226
endloop
endfacet
facet normal 0.0670832885215315 0.997747379049996 0.0
outer loop
vertex 1.17188046834131 23.0245359279295 17.9848481326226
vertex 2.86494270272212 22.9107033238669 8.5386446265018
vertex 1.17188046834131 23.0245359279295 8.5386446265018
endloop
endfacet
facet normal 0.0670832885215315 0.997747379049996 0.0
outer loop
vertex 2.86494270272212 22.9107033238669 8.5386446265018
vertex 1.17188046834131 23.0245359279295 17.9848481326226
vertex 2.86494270272212 22.9107033238669 17.9848481326226
endloop
endfacet
facet normal -0.0 -0.0 1.0
outer loop
vertex 16.2967813412555 -5.86116480607203 22.234525
vertex 13.2740219546315 1.76392468329719 22.234525
vertex 12.3530030289697 -5.35061990481448 22.234525
endloop
endfacet
facet normal -0.0 -0.0 1.0
outer loop
vertex 13.2740219546315 1.76392468329719 22.234525
vertex 16.2967813412555 -5.86116480607203 22.234525
vertex 17.2178002669173 1.25337978203964 22.234525
endloop
endfacet
facet normal -0.991724472261359 0.128384466030471 0.0
outer loop
vertex 13.2740219546315 1.76392468329719 22.234525
vertex 12.3530030289697 -5.35061990481448 20.0612375
vertex 12.3530030289697 -5.35061990481448 22.234525
endloop
endfacet
facet normal -0.991724472261359 0.128384466030471 0.0
outer loop
vertex 12.3530030289697 -5.35061990481448 20.0612375
vertex 13.2740219546315 1.76392468329719 22.234525
vertex 13.2740219546315 1.76392468329719 20.0612375
endloop
endfacet
facet normal 0.991724472261359 -0.128384466030472 -0.0
outer loop
vertex 19.7287303049344 20.6494238972728 -2.25006649834221e-17
vertex 14.4029623150098 -20.4902451958775 6.33968325060778
vertex 14.4029623150098 -20.4902451958775 0.0
endloop
endfacet
facet normal 0.991724472261359 -0.128384466030472 -0.0
outer loop
vertex 14.4029623150098 -20.4902451958775 6.33968325060778
vertex 19.7287303049344 20.6494238972728 -2.25006649834221e-17
vertex 19.7287303049344 20.6494238972728 6.33968325060778
endloop
endfacet
facet normal -0.0 -0.0 1.0
outer loop
vertex -10.5047347283226 -5.59059580603135 22.234525
vertex -13.5681213558113 9.96825313638799 22.234525
vertex -15.4986128946183 -4.94410940811161 22.234525
endloop
endfacet
facet normal -0.0 -0.0 1.0
outer loop
vertex -13.5681213558113 9.96825313638799 22.234525
vertex -10.5047347283226 -5.59059580603135 22.234525
vertex -10.77728411384 6.43748400945085 22.234525
endloop
endfacet
facet normal -0.0 -0.0 1.0
outer loop
vertex -10.77728411384 6.43748400945085 22.234525
vertex -10.5047347283226 -5.59059580603135 22.234525
vertex -8.97778766236585 6.20452879103274 22.234525
endloop
endfacet
facet normal -0.0 -0.0 1.0
outer loop
vertex -10.3737396409897 9.55472195688637 22.234525
vertex -13.5681213558113 9.96825313638799 22.234525
vertex -10.77728411384 6.43748400945085 22.234525
endloop
endfacet
facet normal 0.161965623098628 0.986796400953243 -0.0
outer loop
vertex 4.55063699631165 22.7161465460515 17.9848481326226
vertex 6.22511668381291 22.4413095627689 8.5386446265018
vertex 4.55063699631165 22.7161465460515 8.5386446265018
endloop
endfacet
facet normal 0.161965623098628 0.986796400953243 -0.0
outer loop
vertex 6.22511668381291 22.4413095627689 8.5386446265018
vertex 4.55063699631165 22.7161465460515 17.9848481326226
vertex 6.22511668381291 22.4413095627689 17.9848481326226
endloop
endfacet
facet normal 0.114655274448734 0.993405339245308 -0.0
outer loop
vertex 2.86494270272212 22.9107033238669 17.9848481326226
vertex 4.55063699631165 22.7161465460515 8.5386446265018
vertex 2.86494270272212 22.9107033238669 8.5386446265018
endloop
endfacet
facet normal 0.114655274448734 0.993405339245308 -0.0
outer loop
vertex 4.55063699631165 22.7161465460515 8.5386446265018
vertex 2.86494270272212 22.9107033238669 17.9848481326226
vertex 4.55063699631165 22.7161465460515 17.9848481326226
endloop
endfacet
facet normal -0.128384466030471 -0.991724472261359 -5.76659556758839e-16
outer loop
vertex 14.4029623150098 -20.4902451958775 20.0612375
vertex -16.9851234169531 -16.4268760453432 12.6793665012156
vertex 14.4029623150098 -20.4902451958775 12.6793665012156
endloop
endfacet
facet normal -0.128384466030471 -0.991724472261359 -5.76659556758839e-16
outer loop
vertex -16.9851234169531 -16.4268760453432 12.6793665012156
vertex 14.4029623150098 -20.4902451958775 20.0612375
vertex -16.9851234169531 -16.4268760453432 20.0612375
endloop
endfacet
facet normal -0.128384466030471 -0.991724472261359 0.0
outer loop
vertex 14.4029623150098 -20.4902451958775 6.33968325060778
vertex -16.9851234169531 -16.4268760453432 0.0
vertex 14.4029623150098 -20.4902451958775 0.0
endloop
endfacet
facet normal -0.128384466030471 -0.991724472261359 0.0
outer loop
vertex -16.9851234169531 -16.4268760453432 0.0
vertex 14.4029623150098 -20.4902451958775 6.33968325060778
vertex -16.9851234169531 -16.4268760453432 6.33968325060778
endloop
endfacet
facet normal -0.991724472261359 0.128384466030471 0.0
outer loop
vertex -13.5681213558113 9.96825313638799 22.234525
vertex -15.4986128946183 -4.94410940811161 20.0612375
vertex -15.4986128946183 -4.94410940811161 22.234525
endloop
endfacet
facet normal -0.991724472261359 0.128384466030471 0.0
outer loop
vertex -15.4986128946183 -4.94410940811161 20.0612375
vertex -13.5681213558113 9.96825313638799 22.234525
vertex -13.5681213558113 9.96825313638799 20.0612375
endloop
endfacet
facet normal -0.991724472261359 0.128384466030472 -5.99784094405115e-17
outer loop
vertex -16.9851234169531 -16.4268760453432 12.6793665012156
vertex -11.6593554270285 24.7127930478071 6.33968325060778
vertex -16.9851234169531 -16.4268760453432 6.33968325060778
endloop
endfacet
facet normal -0.991724472261359 0.128384466030472 -5.99784094405115e-17
outer loop
vertex -11.6593554270285 24.7127930478071 6.33968325060778
vertex -16.9851234169531 -16.4268760453432 12.6793665012156
vertex -11.6593554270285 24.7127930478071 12.6793665012156
endloop
endfacet
facet normal -0.128384466030472 -0.991724472261359 0.0
outer loop
vertex 16.2967813412555 -5.86116480607203 22.234525
vertex 12.3530030289697 -5.35061990481448 20.0612375
vertex 16.2967813412555 -5.86116480607203 20.0612375
endloop
endfacet
facet normal -0.128384466030472 -0.991724472261359 0.0
outer loop
vertex 12.3530030289697 -5.35061990481448 20.0612375
vertex 16.2967813412555 -5.86116480607203 22.234525
vertex 12.3530030289697 -5.35061990481448 22.234525
endloop
endfacet
facet normal 0.128384466030472 0.991724472261359 -0.0
outer loop
vertex 13.2740219546315 1.76392468329719 22.234525
vertex 17.2178002669173 1.25337978203964 20.0612375
vertex 13.2740219546315 1.76392468329719 20.0612375
endloop
endfacet
facet normal 0.128384466030472 0.991724472261359 -0.0
outer loop
vertex 17.2178002669173 1.25337978203964 20.0612375
vertex 13.2740219546315 1.76392468329719 22.234525
vertex 17.2178002669173 1.25337978203964 22.234525
endloop
endfacet
facet normal 0.019358222074958 0.999812612061929 0.0
outer loop
vertex -0.524686228282261 23.0573845982523 17.9848481326226
vertex 1.17188046834131 23.0245359279295 8.5386446265018
vertex -0.524686228282261 23.0573845982523 8.5386446265018
endloop
endfacet
facet normal 0.019358222074958 0.999812612061929 0.0
outer loop
vertex 1.17188046834131 23.0245359279295 8.5386446265018
vertex -0.524686228282261 23.0573845982523 17.9848481326226
vertex 1.17188046834131 23.0245359279295 17.9848481326226
endloop
endfacet
facet normal 0.128384466030472 0.991724472261359 -0.0
outer loop
vertex -10.77728411384 6.43748400945085 22.234525
vertex -8.97778766236585 6.20452879103274 20.0612375
vertex -10.77728411384 6.43748400945085 20.0612375
endloop
endfacet
facet normal 0.128384466030472 0.991724472261359 -0.0
outer loop
vertex -8.97778766236585 6.20452879103274 20.0612375
vertex -10.77728411384 6.43748400945085 22.234525
vertex -8.97778766236585 6.20452879103274 22.234525
endloop
endfacet
facet normal 0.991724472261359 -0.128384466030471 -0.0
outer loop
vertex -10.3737396409897 9.55472195688637 20.0612375
vertex -10.77728411384 6.43748400945085 22.234525
vertex -10.77728411384 6.43748400945085 20.0612375
endloop
endfacet
facet normal 0.991724472261359 -0.128384466030471 -0.0
outer loop
vertex -10.77728411384 6.43748400945085 22.234525
vertex -10.3737396409897 9.55472195688637 20.0612375
vertex -10.3737396409897 9.55472195688637 22.234525
endloop
endfacet
facet normal 0.0 0.0 -1.0
outer loop
vertex -5.39618871477344 24.105651362703 17.9848481326226
vertex -3.91284794357803 22.880015274069 17.9848481326226
vertex -5.59671135626427 22.6702020269876 17.9848481326226
endloop
endfacet
facet normal 0.0 0.0 -1.0
outer loop
vertex -3.91284794357803 22.880015274069 17.9848481326226
vertex -5.39618871477344 24.105651362703 17.9848481326226
vertex -2.22088591160244 23.0091743759056 17.9848481326226
endloop
endfacet
facet normal 0.0 0.0 -1.0
outer loop
vertex -2.22088591160244 23.0091743759056 17.9848481326226
vertex -5.39618871477344 24.105651362703 17.9848481326226
vertex -0.524686228282261 23.0573845982523 17.9848481326226
endloop
endfacet
facet normal 0.0 0.0 -1.0
outer loop
vertex -0.524686228282261 23.0573845982523 17.9848481326226
vertex -5.39618871477344 24.105651362703 17.9848481326226
vertex 1.17188046834131 23.0245359279295 17.9848481326226
endloop
endfacet
facet normal 0.0 0.0 -1.0
outer loop
vertex 1.17188046834131 23.0245359279295 17.9848481326226
vertex -5.39618871477344 24.105651362703 17.9848481326226
vertex 2.86494270272212 22.9107033238669 17.9848481326226
endloop
endfacet
facet normal 0.0 0.0 -1.0
outer loop
vertex 2.86494270272212 22.9107033238669 17.9848481326226
vertex -5.39618871477344 24.105651362703 17.9848481326226
vertex 4.55063699631165 22.7161465460515 17.9848481326226
endloop
endfacet
facet normal 0.0 0.0 -1.0
outer loop
vertex 14.4974627073967 21.3266417294 17.9848481326226
vertex 6.22511668381291 22.4413095627689 17.9848481326226
vertex 4.55063699631165 22.7161465460515 17.9848481326226
endloop
endfacet
facet normal 0.0 0.0 -1.0
outer loop
vertex 6.22511668381291 22.4413095627689 17.9848481326226
vertex 14.4974627073967 21.3266417294 17.9848481326226
vertex 7.88456069106736 22.086819537491 17.9848481326226
endloop
endfacet
facet normal 0.0 0.0 -1.0
outer loop
vertex 7.88456069106736 22.086819537491 17.9848481326226
vertex 14.4974627073967 21.3266417294 17.9848481326226
vertex 9.52518225454423 21.6534853977225 17.9848481326226
endloop
endfacet
facet normal 0.0 0.0 -1.0
outer loop
vertex 9.52518225454423 21.6534853977225 17.9848481326226
vertex 14.4974627073967 21.3266417294 17.9848481326226
vertex 11.1432375625348 21.1422959890706 17.9848481326226
endloop
endfacet
facet normal 0.0 0.0 -1.0
outer loop
vertex 11.1432375625348 21.1422959890706 17.9848481326226
vertex 14.4974627073967 21.3266417294 17.9848481326226
vertex 12.7350342983327 20.554417818752 17.9848481326226
endloop
endfacet
facet normal 0.0 0.0 -1.0
outer loop
vertex 12.7350342983327 20.554417818752 17.9848481326226
vertex 14.4974627073967 21.3266417294 17.9848481326226
vertex 14.2969400659059 19.8911923936846 17.9848481326226
endloop
endfacet
facet normal -0.0 -0.0 1.0
outer loop
vertex 14.2969400659059 19.8911923936846 17.9848481326226
vertex -3.91284794357803 22.880015274069 17.9848481326226
vertex -5.59671135626427 22.6702020269876 17.9848481326226
endloop
endfacet
facet normal -0.0 -0.0 1.0
outer loop
vertex -3.91284794357803 22.880015274069 17.9848481326226
vertex 14.2969400659059 19.8911923936846 17.9848481326226
vertex -2.22088591160244 23.0091743759056 17.9848481326226
endloop
endfacet
facet normal -0.0 -0.0 1.0
outer loop
vertex -2.22088591160244 23.0091743759056 17.9848481326226
vertex 14.2969400659059 19.8911923936846 17.9848481326226
vertex -0.524686228282261 23.0573845982523 17.9848481326226
endloop
endfacet
facet normal -0.0 -0.0 1.0
outer loop
vertex -0.524686228282261 23.0573845982523 17.9848481326226
vertex 14.2969400659059 19.8911923936846 17.9848481326226
vertex 1.17188046834131 23.0245359279295 17.9848481326226
endloop
endfacet
facet normal -0.0 -0.0 1.0
outer loop
vertex 1.17188046834131 23.0245359279295 17.9848481326226
vertex 14.2969400659059 19.8911923936846 17.9848481326226
vertex 2.86494270272212 22.9107033238669 17.9848481326226
endloop
endfacet
facet normal -0.0 -0.0 1.0
outer loop
vertex 2.86494270272212 22.9107033238669 17.9848481326226
vertex 14.2969400659059 19.8911923936846 17.9848481326226
vertex 4.55063699631165 22.7161465460515 17.9848481326226
endloop
endfacet
facet normal -0.0 -0.0 1.0
outer loop
vertex 4.55063699631165 22.7161465460515 17.9848481326226
vertex 14.2969400659059 19.8911923936846 17.9848481326226
vertex 6.22511668381291 22.4413095627689 17.9848481326226
endloop
endfacet
facet normal -0.0 -0.0 1.0
outer loop
vertex 6.22511668381291 22.4413095627689 17.9848481326226
vertex 14.2969400659059 19.8911923936846 17.9848481326226
vertex 7.88456069106736 22.086819537491 17.9848481326226
endloop
endfacet
facet normal -0.0 -0.0 1.0
outer loop
vertex 7.88456069106736 22.086819537491 17.9848481326226
vertex 14.2969400659059 19.8911923936846 17.9848481326226
vertex 9.52518225454423 21.6534853977225 17.9848481326226
endloop
endfacet
facet normal -0.0 -0.0 1.0
outer loop
vertex 9.52518225454423 21.6534853977225 17.9848481326226
vertex 14.2969400659059 19.8911923936846 17.9848481326226
vertex 11.1432375625348 21.1422959890706 17.9848481326226
endloop
endfacet
facet normal -0.0 -0.0 1.0
outer loop
vertex 11.1432375625348 21.1422959890706 17.9848481326226
vertex 14.2969400659059 19.8911923936846 17.9848481326226
vertex 12.7350342983327 20.554417818752 17.9848481326226
endloop
endfacet
facet normal 0.128384466030471 0.991724472261359 -0.0
outer loop
vertex -13.5681213558113 9.96825313638799 22.234525
vertex -10.3737396409897 9.55472195688637 20.0612375
vertex -13.5681213558113 9.96825313638799 20.0612375
endloop
endfacet
facet normal 0.128384466030471 0.991724472261359 -0.0
outer loop
vertex -10.3737396409897 9.55472195688637 20.0612375
vertex -13.5681213558113 9.96825313638799 22.234525
vertex -10.3737396409897 9.55472195688637 22.234525
endloop
endfacet
facet normal -0.128384466030471 -0.991724472261359 0.0
outer loop
vertex -10.5047347283226 -5.59059580603135 22.234525
vertex -15.4986128946183 -4.94410940811161 20.0612375
vertex -10.5047347283226 -5.59059580603135 20.0612375
endloop
endfacet
facet normal -0.128384466030471 -0.991724472261359 0.0
outer loop
vertex -15.4986128946183 -4.94410940811161 20.0612375
vertex -10.5047347283226 -5.59059580603135 22.234525
vertex -15.4986128946183 -4.94410940811161 22.234525
endloop
endfacet
facet normal 0.991724472261359 -0.128384466030471 -0.0
outer loop
vertex -8.97778766236585 6.20452879103274 20.0612375
vertex -10.5047347283226 -5.59059580603135 22.234525
vertex -10.5047347283226 -5.59059580603135 20.0612375
endloop
endfacet
facet normal 0.991724472261359 -0.128384466030471 -0.0
outer loop
vertex -10.5047347283226 -5.59059580603135 22.234525
vertex -8.97778766236585 6.20452879103274 20.0612375
vertex -8.97778766236585 6.20452879103274 22.234525
endloop
endfacet
facet normal 0.991724472261359 -0.128384466030472 -2.23946325381986e-16
outer loop
vertex 19.7287303049344 20.6494238972728 12.6793665012156
vertex 14.4029623150098 -20.4902451958775 20.0612375
vertex 14.4029623150098 -20.4902451958775 12.6793665012156
endloop
endfacet
facet normal 0.991724472261359 -0.128384466030472 -2.23946325381986e-16
outer loop
vertex 14.4029623150098 -20.4902451958775 20.0612375
vertex 19.7287303049344 20.6494238972728 12.6793665012156
vertex 16.2967813412555 -5.86116480607203 20.0612375
endloop
endfacet
facet normal 0.991724472261359 -0.128384466030472 -2.23946325381986e-16
outer loop
vertex 16.2967813412555 -5.86116480607203 20.0612375
vertex 19.7287303049344 20.6494238972728 12.6793665012156
vertex 17.2178002669173 1.25337978203964 20.0612375
endloop
endfacet
facet normal 0.991724472261359 -0.128384466030472 -2.23946325381986e-16
outer loop
vertex 17.2178002669173 1.25337978203964 20.0612375
vertex 19.7287303049344 20.6494238972728 12.6793665012156
vertex 19.7287303049344 20.6494238972728 20.0612375
endloop
endfacet
facet normal -0.0 -0.0 1.0
outer loop
vertex 16.2967813412555 -5.86116480607203 20.0612375
vertex 13.2740219546315 1.76392468329719 20.0612375
vertex 12.3530030289697 -5.35061990481448 20.0612375
endloop
endfacet
facet normal -0.0 -0.0 1.0
outer loop
vertex 13.2740219546315 1.76392468329719 20.0612375
vertex 16.2967813412555 -5.86116480607203 20.0612375
vertex 17.2178002669173 1.25337978203964 20.0612375
endloop
endfacet
facet normal 0.991724472261359 -0.128384466030472 4.64344151588515e-16
outer loop
vertex 19.7287303049344 20.6494238972728 6.33968325060778
vertex 14.4029623150098 -20.4902451958775 12.6793665012156
vertex 14.4029623150098 -20.4902451958775 6.33968325060778
endloop
endfacet
facet normal 0.991724472261359 -0.128384466030472 4.64344151588515e-16
outer loop
vertex 14.4029623150098 -20.4902451958775 12.6793665012156
vertex 19.7287303049344 20.6494238972728 6.33968325060778
vertex 19.7287303049344 20.6494238972728 12.6793665012156
endloop
endfacet
facet normal 0.346445565747716 0.938070077325647 0.0
outer loop
vertex 11.1432375625348 21.1422959890706 17.9848481326226
vertex 12.7350342983327 20.554417818752 8.5386446265018
vertex 11.1432375625348 21.1422959890706 8.5386446265018
endloop
endfacet
facet normal 0.346445565747716 0.938070077325647 0.0
outer loop
vertex 12.7350342983327 20.554417818752 8.5386446265018
vertex 11.1432375625348 21.1422959890706 17.9848481326226
vertex 12.7350342983327 20.554417818752 17.9848481326226
endloop
endfacet
facet normal 0.301251709667403 0.953544654131345 0.0
outer loop
vertex 9.52518225454423 21.6534853977225 17.9848481326226
vertex 11.1432375625348 21.1422959890706 8.5386446265018
vertex 9.52518225454423 21.6534853977225 8.5386446265018
endloop
endfacet
facet normal 0.301251709667403 0.953544654131345 0.0
outer loop
vertex 11.1432375625348 21.1422959890706 8.5386446265018
vertex 9.52518225454423 21.6534853977225 17.9848481326226
vertex 11.1432375625348 21.1422959890706 17.9848481326226
endloop
endfacet
facet normal 0.255370413105366 0.966843292426645 0.0
outer loop
vertex 7.88456069106736 22.086819537491 17.9848481326226
vertex 9.52518225454423 21.6534853977225 8.5386446265018
vertex 7.88456069106736 22.086819537491 8.5386446265018
endloop
endfacet
facet normal 0.255370413105366 0.966843292426645 0.0
outer loop
vertex 9.52518225454423 21.6534853977225 8.5386446265018
vertex 7.88456069106736 22.086819537491 17.9848481326226
vertex 9.52518225454423 21.6534853977225 17.9848481326226
endloop
endfacet
facet normal 0.208906374755733 0.977935645421731 0.0
outer loop
vertex 6.22511668381291 22.4413095627689 17.9848481326226
vertex 7.88456069106736 22.086819537491 8.5386446265018
vertex 6.22511668381291 22.4413095627689 8.5386446265018
endloop
endfacet
facet normal 0.208906374755733 0.977935645421731 0.0
outer loop
vertex 7.88456069106736 22.086819537491 8.5386446265018
vertex 6.22511668381291 22.4413095627689 17.9848481326226
vertex 7.88456069106736 22.086819537491 17.9848481326226
endloop
endfacet
facet normal -0.128384466030471 -0.991724472261359 6.94967914989214e-16
outer loop
vertex 14.4029623150098 -20.4902451958775 12.6793665012156
vertex -16.9851234169531 -16.4268760453432 6.33968325060778
vertex 14.4029623150098 -20.4902451958775 6.33968325060778
endloop
endfacet
facet normal -0.128384466030471 -0.991724472261359 6.94967914989214e-16
outer loop
vertex -16.9851234169531 -16.4268760453432 6.33968325060778
vertex 14.4029623150098 -20.4902451958775 12.6793665012156
vertex -16.9851234169531 -16.4268760453432 12.6793665012156
endloop
endfacet
facet normal -0.991724472261359 0.128384466030472 -2.99892047202557e-17
outer loop
vertex -11.6593554270285 24.7127930478071 6.33968325060778
vertex -16.9851234169531 -16.4268760453432 0.0
vertex -16.9851234169531 -16.4268760453432 6.33968325060778
endloop
endfacet
facet normal -0.991724472261359 0.128384466030472 -2.99892047202557e-17
outer loop
vertex -16.9851234169531 -16.4268760453432 0.0
vertex -11.6593554270285 24.7127930478071 6.33968325060778
vertex -11.6593554270285 24.7127930478071 1.09953184912979e-16
endloop
endfacet
facet normal 0.991724472261359 -0.128384466030472 -0.0
outer loop
vertex 17.2178002669173 1.25337978203964 20.0612375
vertex 16.2967813412555 -5.86116480607203 22.234525
vertex 16.2967813412555 -5.86116480607203 20.0612375
endloop
endfacet
facet normal 0.991724472261359 -0.128384466030472 -0.0
outer loop
vertex 16.2967813412555 -5.86116480607203 22.234525
vertex 17.2178002669173 1.25337978203964 20.0612375
vertex 17.2178002669173 1.25337978203964 22.234525
endloop
endfacet
facet normal 0.096486168628681 0.995334325371811 3.74451798866979e-17
outer loop
vertex -11.6593554270285 24.7127930478071 1.09953184912979e-16
vertex -5.39618871477344 24.105651362703 8.5386446265018
vertex -5.39618871477344 24.105651362703 4.50810783344155e-17
endloop
endfacet
facet normal 0.096486168628681 0.995334325371811 3.74451798866979e-17
outer loop
vertex -5.39618871477344 24.105651362703 8.5386446265018
vertex -11.6593554270285 24.7127930478071 1.09953184912979e-16
vertex -11.6593554270285 24.7127930478071 6.33968325060778
endloop
endfacet
facet normal 0.096486168628681 0.995334325371811 3.74451798866979e-17
outer loop
vertex -5.39618871477344 24.105651362703 8.5386446265018
vertex -11.6593554270285 24.7127930478071 6.33968325060778
vertex -11.6593554270285 24.7127930478071 12.6793665012156
endloop
endfacet
facet normal 0.096486168628681 0.995334325371811 3.74451798866979e-17
outer loop
vertex -5.39618871477344 24.105651362703 8.5386446265018
vertex -11.6593554270285 24.7127930478071 12.6793665012156
vertex -5.39618871477344 24.105651362703 17.9848481326226
endloop
endfacet
facet normal 0.096486168628681 0.995334325371811 3.74451798866979e-17
outer loop
vertex -5.39618871477344 24.105651362703 17.9848481326226
vertex -11.6593554270285 24.7127930478071 12.6793665012156
vertex -11.6593554270285 24.7127930478071 20.0612375
endloop
endfacet
facet normal 0.096486168628681 0.995334325371811 3.74451798866979e-17
outer loop
vertex -5.39618871477344 24.105651362703 17.9848481326226
vertex -11.6593554270285 24.7127930478071 20.0612375
vertex -5.39618871477344 24.105651362703 20.0612375
endloop
endfacet
facet normal -0.0 -0.0 1.0
outer loop
vertex -3.91284794357803 22.880015274069 8.5386446265018
vertex -5.39618871477344 24.105651362703 8.5386446265018
vertex -5.59671135626427 22.6702020269876 8.5386446265018
endloop
endfacet
facet normal -0.0 -0.0 1.0
outer loop
vertex -5.39618871477344 24.105651362703 8.5386446265018
vertex -3.91284794357803 22.880015274069 8.5386446265018
vertex -2.22088591160244 23.0091743759056 8.5386446265018
endloop
endfacet
facet normal -0.0 -0.0 1.0
outer loop
vertex -5.39618871477344 24.105651362703 8.5386446265018
vertex -2.22088591160244 23.0091743759056 8.5386446265018
vertex -0.524686228282261 23.0573845982523 8.5386446265018
endloop
endfacet
facet normal -0.0 -0.0 1.0
outer loop
vertex -5.39618871477344 24.105651362703 8.5386446265018
vertex -0.524686228282261 23.0573845982523 8.5386446265018
vertex 1.17188046834131 23.0245359279295 8.5386446265018
endloop
endfacet
facet normal -0.0 -0.0 1.0
outer loop
vertex -5.39618871477344 24.105651362703 8.5386446265018
vertex 1.17188046834131 23.0245359279295 8.5386446265018
vertex 2.86494270272212 22.9107033238669 8.5386446265018
endloop
endfacet
facet normal -0.0 -0.0 1.0
outer loop
vertex -5.39618871477344 24.105651362703 8.5386446265018
vertex 2.86494270272212 22.9107033238669 8.5386446265018
vertex 4.55063699631165 22.7161465460515 8.5386446265018
endloop
endfacet
facet normal 0.138349917803784 0.990383410727222 -1.62869636613433e-15
outer loop
vertex -5.39618871477344 24.105651362703 20.0612375
vertex 4.55063699631165 22.7161465460515 17.9848481326226
vertex -5.39618871477344 24.105651362703 17.9848481326226
endloop
endfacet
facet normal 0.138349917803784 0.990383410727222 -1.62869636613433e-15
outer loop
vertex 4.55063699631165 22.7161465460515 17.9848481326226
vertex -5.39618871477344 24.105651362703 20.0612375
vertex 14.4974627073967 21.3266417294 17.9848481326226
endloop
endfacet
facet normal 0.138349917803784 0.990383410727222 -1.62869636613433e-15
outer loop
vertex 14.4974627073967 21.3266417294 17.9848481326226
vertex -5.39618871477344 24.105651362703 20.0612375
vertex 14.4974627073967 21.3266417294 20.0612375
endloop
endfacet
facet normal -0.0 -0.0 1.0
outer loop
vertex -8.97778766236585 6.20452879103274 20.0612375
vertex -10.3737396409897 9.55472195688637 20.0612375
vertex -10.77728411384 6.43748400945085 20.0612375
endloop
endfacet
facet normal -0.0 -0.0 1.0
outer loop
vertex -10.3737396409897 9.55472195688637 20.0612375
vertex -11.6593554270285 24.7127930478071 20.0612375
vertex -13.5681213558113 9.96825313638799 20.0612375
endloop
endfacet
facet normal -0.0 -0.0 1.0
outer loop
vertex -11.6593554270285 24.7127930478071 20.0612375
vertex -10.3737396409897 9.55472195688637 20.0612375
vertex -5.39618871477344 24.105651362703 20.0612375
endloop
endfacet
facet normal -0.0 -0.0 1.0
outer loop
vertex -5.39618871477344 24.105651362703 20.0612375
vertex -10.3737396409897 9.55472195688637 20.0612375
vertex -8.97778766236585 6.20452879103274 20.0612375
endloop
endfacet
facet normal -0.0 -0.0 1.0
outer loop
vertex 14.4029623150098 -20.4902451958775 20.0612375
vertex -15.4986128946183 -4.94410940811161 20.0612375
vertex -16.9851234169531 -16.4268760453432 20.0612375
endloop
endfacet
facet normal -0.0 -0.0 1.0
outer loop
vertex -15.4986128946183 -4.94410940811161 20.0612375
vertex 14.4029623150098 -20.4902451958775 20.0612375
vertex -10.5047347283226 -5.59059580603135 20.0612375
endloop
endfacet
facet normal -0.0 -0.0 1.0
outer loop
vertex -10.5047347283226 -5.59059580603135 20.0612375
vertex 14.4029623150098 -20.4902451958775 20.0612375
vertex -8.97778766236585 6.20452879103274 20.0612375
endloop
endfacet
facet normal -0.0 -0.0 1.0
outer loop
vertex -8.97778766236585 6.20452879103274 20.0612375
vertex 14.4029623150098 -20.4902451958775 20.0612375
vertex -5.39618871477344 24.105651362703 20.0612375
endloop
endfacet
facet normal -0.0 -0.0 1.0
outer loop
vertex -5.39618871477344 24.105651362703 20.0612375
vertex 14.4029623150098 -20.4902451958775 20.0612375
vertex 12.3530030289697 -5.35061990481448 20.0612375
endloop
endfacet
facet normal -0.0 -0.0 1.0
outer loop
vertex 12.3530030289697 -5.35061990481448 20.0612375
vertex 14.4029623150098 -20.4902451958775 20.0612375
vertex 16.2967813412555 -5.86116480607203 20.0612375
endloop
endfacet
facet normal -0.0 -0.0 1.0
outer loop
vertex 12.3530030289697 -5.35061990481448 20.0612375
vertex 14.4974627073967 21.3266417294 20.0612375
vertex -5.39618871477344 24.105651362703 20.0612375
endloop
endfacet
facet normal -0.0 -0.0 1.0
outer loop
vertex 14.4974627073967 21.3266417294 20.0612375
vertex 12.3530030289697 -5.35061990481448 20.0612375
vertex 13.2740219546315 1.76392468329719 20.0612375
endloop
endfacet
facet normal -0.0 -0.0 1.0
outer loop
vertex 14.4974627073967 21.3266417294 20.0612375
vertex 13.2740219546315 1.76392468329719 20.0612375
vertex 17.2178002669173 1.25337978203964 20.0612375
endloop
endfacet
facet normal -0.0 -0.0 1.0
outer loop
vertex 14.4974627073967 21.3266417294 20.0612375
vertex 17.2178002669173 1.25337978203964 20.0612375
vertex 19.7287303049344 20.6494238972728 20.0612375
endloop
endfacet
endsolid bldg6
