solid bldg7
facet normal 0.991948184316609 -0.12664434754076 9.41645247119413e-05
outer loop
vertex 54.388229662987 18.8855004642457 12.8137883969941
vertex 47.2653798636702 -36.9030784636614 14.8288470601728
vertex 47.2119012116128 -37.3219518273122 14.8299936302833
endloop
endfacet
facet normal 0.991948184316609 -0.12664434754076 9.41645247119413e-05
outer loop
vertex 47.2653798636702 -36.9030784636614 14.8288470601728
vertex 54.388229662987 18.8855004642457 12.8137883969941
vertex 47.2655599798973 -36.9011329922674 15.5479819060852
endloop
endfacet
facet normal 0.991948184316609 -0.12664434754076 9.41645247119413e-05
outer loop
vertex 47.2655599798973 -36.9011329922674 15.5479819060852
vertex 47.2126507018733 -37.3138564331007 17.8224200862323
vertex 47.2120813278399 -37.3200063559181 15.5491284761957
endloop
endfacet
facet normal 0.991948184316609 -0.12664434754076 9.41645247119413e-05
outer loop
vertex 47.2126507018733 -37.3138564331007 17.8224200862323
vertex 47.2655599798973 -36.9011329922674 15.5479819060852
vertex 54.3894455984564 18.8986340264541 17.6685512394844
endloop
endfacet
facet normal 0.991948184316609 -0.12664434754076 9.41645247119413e-05
outer loop
vertex 54.3894455984564 18.8986340264541 17.6685512394844
vertex 47.2655599798973 -36.9011329922674 15.5479819060852
vertex 54.388229662987 18.8855004642457 12.8137883969941
endloop
endfacet
facet normal -0.126644134882101 -0.991944499794617 0.00271522138535553
outer loop
vertex 47.2119012116128 -37.3219518273122 14.8299936302833
vertex 40.6005173908604 -36.4758925057582 15.5485008478724
vertex 40.6003372746333 -36.4778379771522 14.82936600196
endloop
endfacet
facet normal -0.126644134882101 -0.991944499794617 0.00271522138535553
outer loop
vertex 40.6005173908604 -36.4758925057582 15.5485008478724
vertex 47.2119012116128 -37.3219518273122 14.8299936302833
vertex 47.2120813278399 -37.3200063559181 15.5491284761957
endloop
endfacet
facet normal 0.126644134882098 0.991944499794617 -0.0027152213853382
outer loop
vertex 40.6539960429177 -36.0570191421075 15.5473542777618
vertex 47.2653798636702 -36.9030784636614 14.8288470601728
vertex 40.6538159266906 -36.0589646135015 14.8282194318494
endloop
endfacet
facet normal 0.126644134882098 0.991944499794617 -0.0027152213853382
outer loop
vertex 47.2653798636702 -36.9030784636614 14.8288470601728
vertex 40.6539960429177 -36.0570191421075 15.5473542777618
vertex 47.2655599798973 -36.9011329922674 15.5479819060852
endloop
endfacet
facet normal 0.991948184316612 -0.126644347540737 9.41645247212603e-05
outer loop
vertex 3.71223765137343 -27.6501543705624 0.220782240026183
vertex 3.33741901794798 -30.5783709773825 10.4006376427594
vertex 3.3348713735102 -30.605888594519 0.22887288700901
endloop
endfacet
facet normal 0.991948184316612 -0.126644347540737 9.41645247212603e-05
outer loop
vertex 3.33741901794798 -30.5783709773825 10.4006376427594
vertex 3.71223765137343 -27.6501543705624 0.220782240026183
vertex 3.7147852958112 -27.6226367534258 10.3925469957766
endloop
endfacet
facet normal -0.126644134882092 -0.991944499794618 0.00271522138537772
outer loop
vertex 9.43071858808609 -31.39555767338 -3.93454547414312
vertex 3.96065097157536 -30.6857833411948 0.228932291561949
vertex 3.95960804693178 -30.6970481788693 -3.93506484050918
endloop
endfacet
facet normal -0.126644134882092 -0.991944499794618 0.00271522138537772
outer loop
vertex 3.96065097157536 -30.6857833411948 0.228932291561949
vertex 9.43071858808609 -31.39555767338 -3.93454547414312
vertex 9.43176151272968 -31.3842928357054 0.229451657928003
endloop
endfacet
facet normal -0.126644134882092 -0.991944499794618 0.00271522138537772
outer loop
vertex 3.96065097157536 -30.6857833411948 0.228932291561949
vertex 9.43176151272968 -31.3842928357054 0.229451657928003
vertex 3.96319861601313 -30.6582657240582 10.4006970473123
endloop
endfacet
facet normal -0.126644134882092 -0.991944499794618 0.00271522138537772
outer loop
vertex 3.96319861601313 -30.6582657240582 10.4006970473123
vertex 9.43176151272968 -31.3842928357054 0.229451657928003
vertex 9.43430915716747 -31.3567752185688 10.4012164136784
endloop
endfacet
facet normal 0.000250461458407966 0.00270528430801647 0.999996309346125
outer loop
vertex 37.6275877216883 14.5649329583149 14.6920248470204
vertex 33.0481524153667 15.149600187555 14.6915901263808
vertex 31.263024984172 -35.2857214518071 14.8284796214132
endloop
endfacet
facet normal 0.000250461458407966 0.00270528430801647 0.999996309346125
outer loop
vertex 31.263024984172 -35.2857214518071 14.8284796214132
vertex 22.242487850533 22.9947203174036 14.6730731801654
vertex 15.0656929539501 -33.2177701421513 14.8269420269133
endloop
endfacet
facet normal 0.000250461458407966 0.00270528430801647 0.999996309346125
outer loop
vertex 22.242487850533 22.9947203174036 14.6730731801654
vertex 31.263024984172 -35.2857214518071 14.8284796214132
vertex 27.2695834939658 22.3528992446365 14.6735503966969
endloop
endfacet
facet normal 0.000250461458407966 0.00270528430801647 0.999996309346125
outer loop
vertex 27.2695834939658 22.3528992446365 14.6735503966969
vertex 31.263024984172 -35.2857214518071 14.8284796214132
vertex 33.0481524153667 15.149600187555 14.6915901263808
endloop
endfacet
facet normal 0.000250461458407966 0.00270528430801647 0.999996309346125
outer loop
vertex 27.2695834939658 22.3528992446365 14.6735503966969
vertex 33.0481524153667 15.149600187555 14.6915901263808
vertex 33.8603845744333 21.5114362369879 14.6741760540257
endloop
endfacet
facet normal -0.126644134882116 -0.991944499794615 0.00271522138538199
outer loop
vertex 15.2059819391095 -32.1328990693626 -3.93399723489314
vertex 10.175590547342 -31.4792592303818 0.229522268781094
vertex 10.1745476226984 -31.4905240680564 -3.93447486329004
endloop
endfacet
facet normal -0.126644134882116 -0.991944499794615 0.00271522138538199
outer loop
vertex 10.175590547342 -31.4792592303818 0.229522268781094
vertex 15.2059819391095 -32.1328990693626 -3.93399723489314
vertex 15.2095725081908 -32.0941166145514 10.4017646529284
endloop
endfacet
facet normal -0.126644134882116 -0.991944499794615 0.00271522138538199
outer loop
vertex 10.175590547342 -31.4792592303818 0.229522268781094
vertex 15.2095725081908 -32.0941166145514 10.4017646529284
vertex 10.1781381917797 -31.4517416132452 10.4012870245315
endloop
endfacet
facet normal 0.00976989119402064 0.0772644381361618 0.996962765516125
outer loop
vertex 40.6003372746333 -36.4778379771522 14.82936600196
vertex 37.6266388376751 14.554683872298 10.9034957963961
vertex 31.263024984172 -35.2857214518071 14.8284796214132
endloop
endfacet
facet normal 0.00976989119402064 0.0772644381361618 0.996962765516125
outer loop
vertex 37.6266388376751 14.554683872298 10.9034957963961
vertex 33.8593145958308 21.4998791840914 10.4021628651533
vertex 33.0472035313535 15.1393511015381 10.9030610757566
endloop
endfacet
facet normal 0.00976989119402064 0.0772644381361618 0.996962765516125
outer loop
vertex 33.8593145958308 21.4998791840914 10.4021628651533
vertex 37.6266388376751 14.554683872298 10.9034957963961
vertex 47.7760621926137 19.7230954295061 10.4034839663396
endloop
endfacet
facet normal 0.00976989119402064 0.0772644381361618 0.996962765516125
outer loop
vertex 47.7760621926137 19.7230954295061 10.4034839663396
vertex 37.6266388376751 14.554683872298 10.9034957963961
vertex 40.6003372746333 -36.4778379771522 14.82936600196
endloop
endfacet
facet normal 0.000250461458412505 0.00270528430801674 0.999996309346125
outer loop
vertex 10.175590547342 -31.4792592303818 0.229522268781094
vertex 9.80912779059301 -28.4285586117487 0.22136101094518
vertex 9.43176151272968 -31.3842928357054 0.229451657928003
endloop
endfacet
facet normal 0.000250461458412505 0.00270528430801674 0.999996309346125
outer loop
vertex 9.80912779059301 -28.4285586117487 0.22136101094518
vertex 10.175590547342 -31.4792592303818 0.229522268781094
vertex 10.5529568252053 -28.5235250064251 0.221431621798267
endloop
endfacet
facet normal 0.1266441348821 0.991944499794617 -0.0027152213853794
outer loop
vertex 27.2695834939658 22.3528992446365 14.6735503966969
vertex 33.8556864434426 21.4606907844666 -4.08365471705796
vertex 27.2648853629752 22.3021537921152 -4.08428037438672
endloop
endfacet
facet normal 0.1266441348821 0.991944499794617 -0.0027152213853794
outer loop
vertex 33.8556864434426 21.4606907844666 -4.08365471705796
vertex 27.2695834939658 22.3528992446365 14.6735503966969
vertex 33.8593145958308 21.4998791840914 10.4021628651533
endloop
endfacet
facet normal 0.1266441348821 0.991944499794617 -0.0027152213853794
outer loop
vertex 33.8593145958308 21.4998791840914 10.4021628651533
vertex 27.2695834939658 22.3528992446365 14.6735503966969
vertex 33.8603845744333 21.5114362369879 14.6741760540257
endloop
endfacet
facet normal -0.126644134882068 -0.991944499794621 0.00271522138538204
outer loop
vertex 10.5529568252053 -28.5235250064251 0.221431621798267
vertex 9.81167543503079 -28.4010409946121 10.3931257666956
vertex 9.80912779059301 -28.4285586117487 0.22136101094518
endloop
endfacet
facet normal -0.126644134882068 -0.991944499794621 0.00271522138538204
outer loop
vertex 9.81167543503079 -28.4010409946121 10.3931257666956
vertex 10.5529568252053 -28.5235250064251 0.221431621798267
vertex 10.5555044696431 -28.4960073892885 10.3931963775487
endloop
endfacet
facet normal -0.126644134882291 -0.991944499794593 0.00271522138538061
outer loop
vertex 3.95960804693178 -30.6970481788693 -3.93506484050918
vertex 3.3348713735102 -30.605888594519 0.22887288700901
vertex 3.33382844886663 -30.6171534321937 -3.93512424506213
endloop
endfacet
facet normal -0.126644134882291 -0.991944499794593 0.00271522138538061
outer loop
vertex 3.3348713735102 -30.605888594519 0.22887288700901
vertex 3.95960804693178 -30.6970481788693 -3.93506484050918
vertex 3.96065097157536 -30.6857833411948 0.228932291561949
endloop
endfacet
facet normal 0.991948184316608 -0.126644347540768 9.41645247207605e-05
outer loop
vertex 9.80912779059301 -28.4285586117487 0.22136101094518
vertex 9.43430915716747 -31.3567752185688 10.4012164136784
vertex 9.43176151272968 -31.3842928357054 0.229451657928003
endloop
endfacet
facet normal 0.991948184316608 -0.126644347540768 9.41645247207605e-05
outer loop
vertex 9.43430915716747 -31.3567752185688 10.4012164136784
vertex 9.80912779059301 -28.4285586117487 0.22136101094518
vertex 9.81167543503079 -28.4010409946121 10.3931257666956
endloop
endfacet
facet normal 0.000250461458408249 0.00270528430801604 0.999996309346125
outer loop
vertex 55.7483989446587 -38.4631717567478 -3.92702633468993
vertex -2.76306169035303 -29.8387491910075 -3.93570301598112
vertex -2.90804880650279 -30.9743657163172 -3.93259452525834
endloop
endfacet
facet normal 0.000250461458408249 0.00270528430801604 0.999996309346125
outer loop
vertex -2.76306169035303 -29.8387491910075 -3.93570301598112
vertex 55.7483989446587 -38.4631717567478 -3.92702633468993
vertex 3.33382844886663 -30.6171534321937 -3.93512424506213
endloop
endfacet
facet normal 0.000250461458408249 0.00270528430801604 0.999996309346125
outer loop
vertex 3.33382844886663 -30.6171534321937 -3.93512424506213
vertex 55.7483989446587 -38.4631717567478 -3.92702633468993
vertex 3.95960804693178 -30.6970481788693 -3.93506484050918
endloop
endfacet
facet normal 0.000250461458408249 0.00270528430801604 0.999996309346125
outer loop
vertex 3.95960804693178 -30.6970481788693 -3.93506484050918
vertex 55.7483989446587 -38.4631717567478 -3.92702633468993
vertex 9.43071858808609 -31.39555767338 -3.93454547414312
endloop
endfacet
facet normal 0.000250461458408249 0.00270528430801604 0.999996309346125
outer loop
vertex 9.43071858808609 -31.39555767338 -3.93454547414312
vertex 55.7483989446587 -38.4631717567478 -3.92702633468993
vertex 10.1745476226984 -31.4905240680564 -3.93447486329004
endloop
endfacet
facet normal 0.000250461458408249 0.00270528430801604 0.999996309346125
outer loop
vertex 10.1745476226984 -31.4905240680564 -3.93447486329004
vertex 55.7483989446587 -38.4631717567478 -3.92702633468993
vertex 15.2059819391095 -32.1328990693626 -3.93399723489314
endloop
endfacet
facet normal 0.000250461458408249 0.00270528430801604 0.999996309346125
outer loop
vertex 15.2059819391095 -32.1328990693626 -3.93399723489314
vertex 55.7483989446587 -38.4631717567478 -3.92702633468993
vertex 22.2377897195423 22.9439748648823 -4.08475759091827
endloop
endfacet
facet normal 0.000250461458408249 0.00270528430801604 0.999996309346125
outer loop
vertex 22.2377897195423 22.9439748648823 -4.08475759091827
vertex 55.7483989446587 -38.4631717567478 -3.92702633468993
vertex 27.2648853629752 22.3021537921152 -4.08428037438672
endloop
endfacet
facet normal 0.000250461458408249 0.00270528430801604 0.999996309346125
outer loop
vertex 27.2648853629752 22.3021537921152 -4.08428037438672
vertex 55.7483989446587 -38.4631717567478 -3.92702633468993
vertex 33.8556864434426 21.4606907844666 -4.08365471705796
endloop
endfacet
facet normal 0.000250461458408249 0.00270528430801604 0.999996309346125
outer loop
vertex 33.8556864434426 21.4606907844666 -4.08365471705796
vertex 55.7483989446587 -38.4631717567478 -3.92702633468993
vertex 62.9251938412414 17.7493187028071 -4.08089518143783
endloop
endfacet
facet normal 0.991948184316594 -0.126644347540876 9.41645247218571e-05
outer loop
vertex -2.76306169035303 -29.8387491910075 -3.93570301598112
vertex -2.90481687944526 -30.9394570257388 8.97124764730274
vertex -2.90804880650279 -30.9743657163172 -3.93259452525834
endloop
endfacet
facet normal 0.991948184316594 -0.126644347540876 9.41645247218571e-05
outer loop
vertex -2.90481687944526 -30.9394570257388 8.97124764730274
vertex -2.76306169035303 -29.8387491910075 -3.93570301598112
vertex -2.90445823742143 -30.935583261506 10.4031673625632
endloop
endfacet
facet normal 0.991948184316594 -0.126644347540876 9.41645247218571e-05
outer loop
vertex -2.90445823742143 -30.935583261506 10.4031673625632
vertex -2.76306169035303 -29.8387491910075 -3.93570301598112
vertex -2.75982976329553 -29.8038405004291 8.96813915657996
endloop
endfacet
facet normal 0.991948184316594 -0.126644347540876 9.41645247218571e-05
outer loop
vertex -2.90445823742143 -30.935583261506 10.4031673625632
vertex -2.75982976329553 -29.8038405004291 8.96813915657996
vertex -2.7594711212717 -29.7999667361963 10.4000588718404
endloop
endfacet
facet normal -0.991948184316611 0.126644347540742 -9.41645247248798e-05
outer loop
vertex 31.0803631141585 -16.8277740593871 16.3041843220479
vertex 32.3373752510973 -6.98557841164093 11.7115766017871
vertex 31.0792195948009 -16.840125440688 11.7385511722817
endloop
endfacet
facet normal -0.991948184316611 0.126644347540742 -9.41645247248798e-05
outer loop
vertex 32.3373752510973 -6.98557841164093 11.7115766017871
vertex 31.0803631141585 -16.8277740593871 16.3041843220479
vertex 32.3385187704548 -6.97322703034003 16.2772097515532
endloop
endfacet
facet normal 0.126644134882103 0.991944499794617 -0.00271522138537962
outer loop
vertex 33.0481524153667 15.149600187555 14.6915901263808
vertex 37.6266388376751 14.554683872298 10.9034957963961
vertex 33.0472035313535 15.1393511015381 10.9030610757566
endloop
endfacet
facet normal 0.126644134882103 0.991944499794617 -0.00271522138537962
outer loop
vertex 37.6266388376751 14.554683872298 10.9034957963961
vertex 33.0481524153667 15.149600187555 14.6915901263808
vertex 37.6275877216883 14.5649329583149 14.6920248470204
endloop
endfacet
facet normal 0.000250461458411163 0.00270528430802986 0.999996309346125
outer loop
vertex 47.2120813278399 -37.3200063559181 15.5491284761957
vertex 40.6539960429177 -36.0570191421075 15.5473542777618
vertex 40.6005173908604 -36.4758925057582 15.5485008478724
endloop
endfacet
facet normal 0.000250461458411163 0.00270528430802986 0.999996309346125
outer loop
vertex 40.6539960429177 -36.0570191421075 15.5473542777618
vertex 47.2120813278399 -37.3200063559181 15.5491284761957
vertex 47.2655599798973 -36.9011329922674 15.5479819060852
endloop
endfacet
facet normal -0.991948184316608 0.12664434754077 -9.41645247214638e-05
outer loop
vertex 10.1781381917797 -31.4517416132452 10.4012870245315
vertex 10.5529568252053 -28.5235250064251 0.221431621798267
vertex 10.175590547342 -31.4792592303818 0.229522268781094
endloop
endfacet
facet normal -0.991948184316608 0.12664434754077 -9.41645247214638e-05
outer loop
vertex 10.5529568252053 -28.5235250064251 0.221431621798267
vertex 10.1781381917797 -31.4517416132452 10.4012870245315
vertex 10.5555044696431 -28.4960073892885 10.3931963775487
endloop
endfacet
facet normal 0.991948184316601 -0.126644347540825 9.41645246728841e-05
outer loop
vertex 47.2653798636702 -36.9030784636614 14.8288470601728
vertex 47.2120813278399 -37.3200063559181 15.5491284761957
vertex 47.2119012116128 -37.3219518273122 14.8299936302833
endloop
endfacet
facet normal 0.991948184316601 -0.126644347540825 9.41645246728841e-05
outer loop
vertex 47.2120813278399 -37.3200063559181 15.5491284761957
vertex 47.2653798636702 -36.9030784636614 14.8288470601728
vertex 47.2655599798973 -36.9011329922674 15.5479819060852
endloop
endfacet
facet normal -0.000250461458410296 -0.0027052843080161 -0.999996309346125
outer loop
vertex 40.6538159266906 -36.0589646135015 14.8282194318494
vertex 47.2119012116128 -37.3219518273122 14.8299936302833
vertex 40.6003372746333 -36.4778379771522 14.82936600196
endloop
endfacet
facet normal -0.000250461458410296 -0.0027052843080161 -0.999996309346125
outer loop
vertex 47.2119012116128 -37.3219518273122 14.8299936302833
vertex 40.6538159266906 -36.0589646135015 14.8282194318494
vertex 47.2653798636702 -36.9030784636614 14.8288470601728
endloop
endfacet
facet normal 0.126644134882094 0.991944499794618 -0.00271522138538683
outer loop
vertex 27.721490169187 -16.3989388850164 16.3038654680196
vertex 31.0792195948009 -16.840125440688 11.7385511722817
vertex 27.7203466498294 -16.4112902663173 11.7382323182534
endloop
endfacet
facet normal 0.126644134882094 0.991944499794618 -0.00271522138538683
outer loop
vertex 31.0792195948009 -16.840125440688 11.7385511722817
vertex 27.721490169187 -16.3989388850164 16.3038654680196
vertex 31.0803631141585 -16.8277740593871 16.3041843220479
endloop
endfacet
facet normal -0.99194818431661 0.126644347540751 -9.41645247283185e-05
outer loop
vertex 15.0656929539501 -33.2177701421513 14.8269420269133
vertex 15.2095725081908 -32.0941166145514 10.4017646529284
vertex 15.0645853920408 -33.2297331398614 10.4048731436511
endloop
endfacet
facet normal -0.99194818431661 0.126644347540751 -9.41645247283185e-05
outer loop
vertex 15.2095725081908 -32.0941166145514 10.4017646529284
vertex 15.0656929539501 -33.2177701421513 14.8269420269133
vertex 22.242487850533 22.9947203174036 14.6730731801654
endloop
endfacet
facet normal -0.99194818431661 0.126644347540751 -9.41645247283185e-05
outer loop
vertex 15.2095725081908 -32.0941166145514 10.4017646529284
vertex 22.242487850533 22.9947203174036 14.6730731801654
vertex 22.2377897195423 22.9439748648823 -4.08475759091827
endloop
endfacet
facet normal -0.99194818431661 0.126644347540751 -9.41645247283185e-05
outer loop
vertex 22.2377897195423 22.9439748648823 -4.08475759091827
vertex 15.2059819391095 -32.1328990693626 -3.93399723489314
vertex 15.2095725081908 -32.0941166145514 10.4017646529284
endloop
endfacet
facet normal 0.126644134882118 0.991944499794615 -0.00271522138537948
outer loop
vertex 33.8593145958308 21.4998791840914 10.4021628651533
vertex 62.9251938412414 17.7493187028071 -4.08089518143783
vertex 33.8556864434426 21.4606907844666 -4.08365471705796
endloop
endfacet
facet normal 0.126644134882118 0.991944499794615 -0.00271522138537948
outer loop
vertex 62.9251938412414 17.7493187028071 -4.08089518143783
vertex 33.8593145958308 21.4998791840914 10.4021628651533
vertex 47.7760621926137 19.7230954295061 10.4034839663396
endloop
endfacet
facet normal 0.126644134882118 0.991944499794615 -0.00271522138537948
outer loop
vertex 62.9251938412414 17.7493187028071 -4.08089518143783
vertex 47.7760621926137 19.7230954295061 10.4034839663396
vertex 54.388229662987 18.8855004642457 12.8137883969941
endloop
endfacet
facet normal 0.126644134882118 0.991944499794615 -0.00271522138537948
outer loop
vertex 62.9251938412414 17.7493187028071 -4.08089518143783
vertex 54.388229662987 18.8855004642457 12.8137883969941
vertex 62.9306414624925 17.80815954954 17.6693620455948
endloop
endfacet
facet normal 0.126644134882118 0.991944499794615 -0.00271522138537948
outer loop
vertex 54.388229662987 18.8855004642457 12.8137883969941
vertex 47.7760621926137 19.7230954295061 10.4034839663396
vertex 47.7766657260074 19.7296143144058 12.8131607686707
endloop
endfacet
facet normal 0.126644134882118 0.991944499794615 -0.00271522138537948
outer loop
vertex 62.9306414624925 17.80815954954 17.6693620455948
vertex 54.388229662987 18.8855004642457 12.8137883969941
vertex 54.3894455984564 18.8986340264541 17.6685512394844
endloop
endfacet
facet normal 0.99194818431661 -0.126644347540753 9.41645247174122e-05
outer loop
vertex 37.6275877216883 14.5649329583149 14.6920248470204
vertex 31.263024984172 -35.2857214518071 14.8284796214132
vertex 37.6266388376751 14.554683872298 10.9034957963961
endloop
endfacet
facet normal 0.991948184316611 -0.126644347540743 9.41645247165918e-05
outer loop
vertex 28.9785023061257 -6.55674323727007 11.7112577477588
vertex 27.721490169187 -16.3989388850164 16.3038654680196
vertex 27.7203466498294 -16.4112902663173 11.7382323182534
endloop
endfacet
facet normal 0.991948184316611 -0.126644347540743 9.41645247165918e-05
outer loop
vertex 27.721490169187 -16.3989388850164 16.3038654680196
vertex 28.9785023061257 -6.55674323727007 11.7112577477588
vertex 28.9796458254833 -6.54439185596914 16.2768908975249
endloop
endfacet
facet normal -0.000250461458408298 -0.00270528430801638 -0.999996309346125
outer loop
vertex 4.34056489387646 -27.7025315001014 10.3926064003295
vertex 3.96319861601313 -30.6582657240582 10.4006970473123
vertex 3.7147852958112 -27.6226367534258 10.3925469957766
endloop
endfacet
facet normal -0.000250461458408298 -0.00270528430801638 -0.999996309346125
outer loop
vertex 10.5555044696431 -28.4960073892885 10.3931963775487
vertex 10.1781381917797 -31.4517416132452 10.4012870245315
vertex 9.81167543503079 -28.4010409946121 10.3931257666956
endloop
endfacet
facet normal -0.000250461458408298 -0.00270528430801638 -0.999996309346125
outer loop
vertex -2.7594711212717 -29.7999667361963 10.4000588718404
vertex 15.0645853920408 -33.2297331398614 10.4048731436511
vertex -2.90445823742143 -30.935583261506 10.4031673625632
endloop
endfacet
facet normal -0.000250461458408298 -0.00270528430801638 -0.999996309346125
outer loop
vertex 15.0645853920408 -33.2297331398614 10.4048731436511
vertex -2.7594711212717 -29.7999667361963 10.4000588718404
vertex 3.33741901794798 -30.5783709773825 10.4006376427594
endloop
endfacet
facet normal -0.000250461458408298 -0.00270528430801638 -0.999996309346125
outer loop
vertex 15.0645853920408 -33.2297331398614 10.4048731436511
vertex 3.33741901794798 -30.5783709773825 10.4006376427594
vertex 3.96319861601313 -30.6582657240582 10.4006970473123
endloop
endfacet
facet normal -0.000250461458408298 -0.00270528430801638 -0.999996309346125
outer loop
vertex 3.96319861601313 -30.6582657240582 10.4006970473123
vertex 3.33741901794798 -30.5783709773825 10.4006376427594
vertex 3.7147852958112 -27.6226367534258 10.3925469957766
endloop
endfacet
facet normal -0.000250461458408298 -0.00270528430801638 -0.999996309346125
outer loop
vertex 15.0645853920408 -33.2297331398614 10.4048731436511
vertex 3.96319861601313 -30.6582657240582 10.4006970473123
vertex 9.43430915716747 -31.3567752185688 10.4012164136784
endloop
endfacet
facet normal -0.000250461458408298 -0.00270528430801638 -0.999996309346125
outer loop
vertex 15.0645853920408 -33.2297331398614 10.4048731436511
vertex 9.43430915716747 -31.3567752185688 10.4012164136784
vertex 10.1781381917797 -31.4517416132452 10.4012870245315
endloop
endfacet
facet normal -0.000250461458408298 -0.00270528430801638 -0.999996309346125
outer loop
vertex 10.1781381917797 -31.4517416132452 10.4012870245315
vertex 9.43430915716747 -31.3567752185688 10.4012164136784
vertex 9.81167543503079 -28.4010409946121 10.3931257666956
endloop
endfacet
facet normal -0.000250461458408298 -0.00270528430801638 -0.999996309346125
outer loop
vertex 15.0645853920408 -33.2297331398614 10.4048731436511
vertex 10.1781381917797 -31.4517416132452 10.4012870245315
vertex 15.2095725081908 -32.0941166145514 10.4017646529284
endloop
endfacet
facet normal 0.126644134882116 0.991944499794615 -0.00271522138537805
outer loop
vertex -2.90481687944526 -30.9394570257388 8.97124764730274
vertex 55.7483989446587 -38.4631717567478 -3.92702633468993
vertex -2.90804880650279 -30.9743657163172 -3.93259452525834
endloop
endfacet
facet normal 0.126644134882116 0.991944499794615 -0.00271522138537805
outer loop
vertex 55.7483989446587 -38.4631717567478 -3.92702633468993
vertex -2.90481687944526 -30.9394570257388 8.97124764730274
vertex 15.0645853920408 -33.2297331398614 10.4048731436511
endloop
endfacet
facet normal 0.126644134882116 0.991944499794615 -0.00271522138537805
outer loop
vertex 55.7483989446587 -38.4631717567478 -3.92702633468993
vertex 15.0645853920408 -33.2297331398614 10.4048731436511
vertex 47.2119012116128 -37.3219518273122 14.8299936302833
endloop
endfacet
facet normal 0.126644134882116 0.991944499794615 -0.00271522138537805
outer loop
vertex 55.7483989446587 -38.4631717567478 -3.92702633468993
vertex 47.2119012116128 -37.3219518273122 14.8299936302833
vertex 55.7538465659097 -38.4043309100149 17.8232308923427
endloop
endfacet
facet normal 0.126644134882116 0.991944499794615 -0.00271522138537805
outer loop
vertex 15.0645853920408 -33.2297331398614 10.4048731436511
vertex -2.90481687944526 -30.9394570257388 8.97124764730274
vertex -2.90445823742143 -30.935583261506 10.4031673625632
endloop
endfacet
facet normal 0.126644134882116 0.991944499794615 -0.00271522138537805
outer loop
vertex 47.2119012116128 -37.3219518273122 14.8299936302833
vertex 15.0645853920408 -33.2297331398614 10.4048731436511
vertex 15.0656929539501 -33.2177701421513 14.8269420269133
endloop
endfacet
facet normal 0.126644134882116 0.991944499794615 -0.00271522138537805
outer loop
vertex 47.2119012116128 -37.3219518273122 14.8299936302833
vertex 15.0656929539501 -33.2177701421513 14.8269420269133
vertex 31.263024984172 -35.2857214518071 14.8284796214132
endloop
endfacet
facet normal 0.126644134882116 0.991944499794615 -0.00271522138537805
outer loop
vertex 47.2119012116128 -37.3219518273122 14.8299936302833
vertex 31.263024984172 -35.2857214518071 14.8284796214132
vertex 40.6003372746333 -36.4778379771522 14.82936600196
endloop
endfacet
facet normal 0.126644134882116 0.991944499794615 -0.00271522138537805
outer loop
vertex 55.7538465659097 -38.4043309100149 17.8232308923427
vertex 47.2119012116128 -37.3219518273122 14.8299936302833
vertex 47.2120813278399 -37.3200063559181 15.5491284761957
endloop
endfacet
facet normal 0.126644134882116 0.991944499794615 -0.00271522138537805
outer loop
vertex 55.7538465659097 -38.4043309100149 17.8232308923427
vertex 47.2120813278399 -37.3200063559181 15.5491284761957
vertex 47.2126507018733 -37.3138564331007 17.8224200862323
endloop
endfacet
facet normal -0.126644134882137 -0.991944499794612 0.00271522138538501
outer loop
vertex 32.3373752510973 -6.98557841164093 11.7115766017871
vertex 28.9796458254833 -6.54439185596914 16.2768908975249
vertex 28.9785023061257 -6.55674323727007 11.7112577477588
endloop
endfacet
facet normal -0.126644134882137 -0.991944499794612 0.00271522138538501
outer loop
vertex 28.9796458254833 -6.54439185596914 16.2768908975249
vertex 32.3373752510973 -6.98557841164093 11.7115766017871
vertex 32.3385187704548 -6.97322703034003 16.2772097515532
endloop
endfacet
facet normal -0.99194818431661 0.126644347540757 -9.4164524710596e-05
outer loop
vertex 47.7766657260074 19.7296143144058 12.8131607686707
vertex 47.7760621926137 19.7230954295061 10.4034839663396
vertex 40.6003372746333 -36.4778379771522 14.82936600196
endloop
endfacet
facet normal -0.000250461458410783 -0.00270528430801627 -0.999996309346125
outer loop
vertex 54.3894455984564 18.8986340264541 17.6685512394844
vertex 55.7538465659097 -38.4043309100149 17.8232308923427
vertex 47.2126507018733 -37.3138564331007 17.8224200862323
endloop
endfacet
facet normal -0.000250461458410783 -0.00270528430801627 -0.999996309346125
outer loop
vertex 55.7538465659097 -38.4043309100149 17.8232308923427
vertex 54.3894455984564 18.8986340264541 17.6685512394844
vertex 62.9306414624925 17.80815954954 17.6693620455948
endloop
endfacet
facet normal -0.0044100546171885 -0.0352850382052099 -0.999367558757603
outer loop
vertex 47.7766657260074 19.7296143144058 12.8131607686707
vertex 47.2119012116128 -37.3219518273122 14.8299936302833
vertex 40.6003372746333 -36.4778379771522 14.82936600196
endloop
endfacet
facet normal -0.0044100546171885 -0.0352850382052099 -0.999367558757603
outer loop
vertex 47.2119012116128 -37.3219518273122 14.8299936302833
vertex 47.7766657260074 19.7296143144058 12.8131607686707
vertex 54.388229662987 18.8855004642457 12.8137883969941
endloop
endfacet
facet normal -0.99194818431661 0.126644347540753 -9.41645247231252e-05
outer loop
vertex 55.7538465659097 -38.4043309100149 17.8232308923427
vertex 62.9251938412414 17.7493187028071 -4.08089518143783
vertex 55.7483989446587 -38.4631717567478 -3.92702633468993
endloop
endfacet
facet normal -0.99194818431661 0.126644347540753 -9.41645247231252e-05
outer loop
vertex 62.9251938412414 17.7493187028071 -4.08089518143783
vertex 55.7538465659097 -38.4043309100149 17.8232308923427
vertex 62.9306414624925 17.80815954954 17.6693620455948
endloop
endfacet
facet normal 0.126644134882102 0.991944499794617 -0.00271522138538113
outer loop
vertex 22.242487850533 22.9947203174036 14.6730731801654
vertex 27.2648853629752 22.3021537921152 -4.08428037438672
vertex 22.2377897195423 22.9439748648823 -4.08475759091827
endloop
endfacet
facet normal 0.126644134882102 0.991944499794617 -0.00271522138538113
outer loop
vertex 27.2648853629752 22.3021537921152 -4.08428037438672
vertex 22.242487850533 22.9947203174036 14.6730731801654
vertex 27.2695834939658 22.3528992446365 14.6735503966969
endloop
endfacet
facet normal -0.000250461458407408 -0.00270528430801656 -0.999996309346125
outer loop
vertex 28.9796458254833 -6.54439185596914 16.2768908975249
vertex 31.0803631141585 -16.8277740593871 16.3041843220479
vertex 27.721490169187 -16.3989388850164 16.3038654680196
endloop
endfacet
facet normal -0.000250461458407408 -0.00270528430801656 -0.999996309346125
outer loop
vertex 31.0803631141585 -16.8277740593871 16.3041843220479
vertex 28.9796458254833 -6.54439185596914 16.2768908975249
vertex 32.3385187704548 -6.97322703034003 16.2772097515532
endloop
endfacet
facet normal -0.991948184316608 0.126644347540766 -9.41645247213853e-05
outer loop
vertex 3.96319861601313 -30.6582657240582 10.4006970473123
vertex 4.33801724943869 -27.730049117238 0.220841644579126
vertex 3.96065097157536 -30.6857833411948 0.228932291561949
endloop
endfacet
facet normal -0.991948184316608 0.126644347540766 -9.41645247213853e-05
outer loop
vertex 4.33801724943869 -27.730049117238 0.220841644579126
vertex 3.96319861601313 -30.6582657240582 10.4006970473123
vertex 4.34056489387646 -27.7025315001014 10.3926064003295
endloop
endfacet
facet normal -0.126644134882167 -0.991944499794608 0.00271522138537484
outer loop
vertex 10.1745476226984 -31.4905240680564 -3.93447486329004
vertex 9.43176151272968 -31.3842928357054 0.229451657928003
vertex 9.43071858808609 -31.39555767338 -3.93454547414312
endloop
endfacet
facet normal -0.126644134882167 -0.991944499794608 0.00271522138537484
outer loop
vertex 9.43176151272968 -31.3842928357054 0.229451657928003
vertex 10.1745476226984 -31.4905240680564 -3.93447486329004
vertex 10.175590547342 -31.4792592303818 0.229522268781094
endloop
endfacet
facet normal 0.991948184316608 -0.126644347540768 9.41645247236703e-05
outer loop
vertex 33.8593145958308 21.4998791840914 10.4021628651533
vertex 33.0481524153667 15.149600187555 14.6915901263808
vertex 33.0472035313535 15.1393511015381 10.9030610757566
endloop
endfacet
facet normal 0.991948184316608 -0.126644347540768 9.41645247236703e-05
outer loop
vertex 33.0481524153667 15.149600187555 14.6915901263808
vertex 33.8593145958308 21.4998791840914 10.4021628651533
vertex 33.8603845744333 21.5114362369879 14.6741760540257
endloop
endfacet
facet normal -0.126644134882165 -0.991944499794609 0.00271522138538218
outer loop
vertex 4.33801724943869 -27.730049117238 0.220841644579126
vertex 3.7147852958112 -27.6226367534258 10.3925469957766
vertex 3.71223765137343 -27.6501543705624 0.220782240026183
endloop
endfacet
facet normal -0.126644134882165 -0.991944499794609 0.00271522138538218
outer loop
vertex 3.7147852958112 -27.6226367534258 10.3925469957766
vertex 4.33801724943869 -27.730049117238 0.220841644579126
vertex 4.34056489387646 -27.7025315001014 10.3926064003295
endloop
endfacet
facet normal 0.000250461458411715 0.00270528430801671 0.999996309346125
outer loop
vertex 3.96065097157536 -30.6857833411948 0.228932291561949
vertex 3.71223765137343 -27.6501543705624 0.220782240026183
vertex 3.3348713735102 -30.605888594519 0.22887288700901
endloop
endfacet
facet normal 0.000250461458411715 0.00270528430801671 0.999996309346125
outer loop
vertex 3.71223765137343 -27.6501543705624 0.220782240026183
vertex 3.96065097157536 -30.6857833411948 0.228932291561949
vertex 4.33801724943869 -27.730049117238 0.220841644579126
endloop
endfacet
facet normal -0.126644134882085 -0.991944499794619 0.00271522138538275
outer loop
vertex 3.33382844886663 -30.6171534321937 -3.93512424506213
vertex -2.75982976329553 -29.8038405004291 8.96813915657996
vertex -2.76306169035303 -29.8387491910075 -3.93570301598112
endloop
endfacet
facet normal -0.126644134882085 -0.991944499794619 0.00271522138538275
outer loop
vertex -2.75982976329553 -29.8038405004291 8.96813915657996
vertex 3.33382844886663 -30.6171534321937 -3.93512424506213
vertex 3.3348713735102 -30.605888594519 0.22887288700901
endloop
endfacet
facet normal -0.126644134882085 -0.991944499794619 0.00271522138538275
outer loop
vertex -2.75982976329553 -29.8038405004291 8.96813915657996
vertex 3.3348713735102 -30.605888594519 0.22887288700901
vertex 3.33741901794798 -30.5783709773825 10.4006376427594
endloop
endfacet
facet normal -0.126644134882085 -0.991944499794619 0.00271522138538275
outer loop
vertex -2.75982976329553 -29.8038405004291 8.96813915657996
vertex 3.33741901794798 -30.5783709773825 10.4006376427594
vertex -2.7594711212717 -29.7999667361963 10.4000588718404
endloop
endfacet
facet normal -0.991948184316623 0.126644347540654 -9.4164524690751e-05
outer loop
vertex 40.6005173908604 -36.4758925057582 15.5485008478724
vertex 40.6538159266906 -36.0589646135015 14.8282194318494
vertex 40.6003372746333 -36.4778379771522 14.82936600196
endloop
endfacet
facet normal -0.991948184316623 0.126644347540654 -9.4164524690751e-05
outer loop
vertex 40.6538159266906 -36.0589646135015 14.8282194318494
vertex 40.6005173908604 -36.4758925057582 15.5485008478724
vertex 40.6539960429177 -36.0570191421075 15.5473542777618
endloop
endfacet
endsolid bldg7
