solid bldg8
facet normal 0.992506117813466 -0.122194951216662 -8.9186123598145e-17
outer loop
vertex -32.235071496649 2.42788770488347 8.6614
vertex -31.3027820614677 10.0002379433943 10.9289785473096
vertex -32.235071496649 2.42788770488347 11.5072970707725
endloop
endfacet
facet normal 0.992506117813466 -0.122194951216662 -8.9186123598145e-17
outer loop
vertex -31.3027820614677 10.0002379433943 10.9289785473096
vertex -32.235071496649 2.42788770488347 8.6614
vertex -31.3027820614677 10.0002379433943 8.66139999999999
endloop
endfacet
facet normal -2.80751013866758e-15 -3.21692449312902e-16 -1.0
outer loop
vertex -33.128488327264 10.2250144803656 8.6614
vertex -32.235071496649 2.42788770488347 8.6614
vertex -34.0607777624453 2.65266424185477 8.6614
endloop
endfacet
facet normal -2.80751013866758e-15 -3.21692449312902e-16 -1.0
outer loop
vertex -32.235071496649 2.42788770488347 8.6614
vertex -33.128488327264 10.2250144803656 8.6614
vertex -31.3027820614677 10.0002379433943 8.66139999999999
endloop
endfacet
facet normal 0.0 0.0 -1.0
outer loop
vertex -27.6472887004009 39.6913134613375 14.5938875
vertex -15.5194415622019 6.29791860833683 14.5938875
vertex -15.7271989456974 4.6104473005039 14.5938875
endloop
endfacet
facet normal 0.0 0.0 -1.0
outer loop
vertex -15.5194415622019 6.29791860833683 14.5938875
vertex -27.6472887004009 39.6913134613375 14.5938875
vertex 7.33255730889298 35.3846794769662 14.5938875
endloop
endfacet
facet normal 0.0 0.0 -1.0
outer loop
vertex -15.5194415622019 6.29791860833683 14.5938875
vertex 7.33255730889298 35.3846794769662 14.5938875
vertex -12.3713858450682 5.91033760719404 14.5938875
endloop
endfacet
facet normal 0.0 0.0 -1.0
outer loop
vertex -12.3713858450682 5.91033760719404 14.5938875
vertex 7.33255730889298 35.3846794769662 14.5938875
vertex 0.407893145832935 -20.8596373070787 14.5938875
endloop
endfacet
facet normal 0.0 0.0 -1.0
outer loop
vertex -34.5719528634609 -16.5530033227073 14.5938875
vertex -15.7271989456974 4.6104473005039 14.5938875
vertex 0.407893145832935 -20.8596373070787 14.5938875
endloop
endfacet
facet normal 0.0 0.0 -1.0
outer loop
vertex -15.7271989456974 4.6104473005039 14.5938875
vertex -34.5719528634609 -16.5530033227073 14.5938875
vertex -27.6472887004009 39.6913134613375 14.5938875
endloop
endfacet
facet normal 0.0 0.0 -1.0
outer loop
vertex 0.407893145832935 -20.8596373070787 14.5938875
vertex -15.7271989456974 4.6104473005039 14.5938875
vertex -12.5791432285637 4.22286629936112 14.5938875
endloop
endfacet
facet normal 0.0 0.0 -1.0
outer loop
vertex 0.407893145832935 -20.8596373070787 14.5938875
vertex -12.5791432285637 4.22286629936112 14.5938875
vertex -12.3713858450682 5.91033760719404 14.5938875
endloop
endfacet
facet normal 0.992506117813466 -0.12219495121666 -1.70311980296207e-15
outer loop
vertex -52.9959372118277 42.8121777186642 -4.1640125
vertex -59.9206013748877 -13.4321390653807 9.37416472513165
vertex -59.9206013748877 -13.4321390653807 -4.1640125
endloop
endfacet
facet normal 0.992506117813466 -0.12219495121666 -1.70311980296207e-15
outer loop
vertex -59.9206013748877 -13.4321390653807 9.37416472513165
vertex -52.9959372118277 42.8121777186642 -4.1640125
vertex -52.9959372118277 42.8121777186642 9.37416472513165
endloop
endfacet
facet normal -0.992506117813466 0.122194951216661 4.26508531554555e-17
outer loop
vertex 7.33255730889298 35.3846794769662 14.5938875
vertex 0.407893145832935 -20.8596373070787 11.0653474820779
vertex 0.407893145832935 -20.8596373070787 14.5938875
endloop
endfacet
facet normal -0.992506117813466 0.122194951216661 4.26508531554555e-17
outer loop
vertex 0.407893145832935 -20.8596373070787 11.0653474820779
vertex 7.33255730889298 35.3846794769662 14.5938875
vertex 7.33255730889298 35.3846794769662 8.73987729635197
endloop
endfacet
facet normal -0.992506117813466 0.122194951216661 -2.23840920117243e-16
outer loop
vertex 13.6790880539453 34.6033099711588 8.73987729635197
vertex 6.89431740906073 -20.5047473254918 -4.1640125
vertex 6.89431740906073 -20.5047473254918 8.73987729635197
endloop
endfacet
facet normal -0.992506117813466 0.122194951216661 -2.23840920117243e-16
outer loop
vertex 6.89431740906073 -20.5047473254918 -4.1640125
vertex 13.6790880539453 34.6033099711588 8.73987729635197
vertex 13.6790880539453 34.6033099711588 -4.1640125
endloop
endfacet
facet normal 0.0 0.0 -1.0
outer loop
vertex -48.9307158553411 24.0599386228053 14.5938875
vertex -41.1926386109063 -15.7378805165001 14.5938875
vertex -53.641823059422 -14.205167056028 14.5938875
endloop
endfacet
facet normal 0.0 0.0 -1.0
outer loop
vertex -41.1926386109063 -15.7378805165001 14.5938875
vertex -48.9307158553411 24.0599386228053 14.5938875
vertex -43.750109067994 23.4221148529658 14.5938875
endloop
endfacet
facet normal 0.0 0.0 -1.0
outer loop
vertex -41.1926386109063 -15.7378805165001 14.5938875
vertex -43.750109067994 23.4221148529658 14.5938875
vertex -36.4815314068254 22.5272251623332 14.5938875
endloop
endfacet
facet normal 0.992506117813466 -0.12219495121666 -4.01295254485377e-31
outer loop
vertex -41.5365521090148 41.4013259581773 9.37416472513165
vertex -43.750109067994 23.4221148529658 11.62764375
vertex -43.750109067994 23.4221148529658 9.37416472513165
endloop
endfacet
facet normal 0.992506117813466 -0.12219495121666 -4.01295254485377e-31
outer loop
vertex -43.750109067994 23.4221148529658 11.62764375
vertex -41.5365521090148 41.4013259581773 9.37416472513165
vertex -41.5365521090148 41.4013259581773 11.62764375
endloop
endfacet
facet normal 0.12219495121666 0.992506117813466 3.8199824255828e-16
outer loop
vertex -36.6148309743941 2.96711309213127 11.5072970707725
vertex -34.0607777624453 2.65266424185477 8.6614
vertex -36.6148309743941 2.96711309213127 8.6614
endloop
endfacet
facet normal 0.12219495121666 0.992506117813466 3.8199824255828e-16
outer loop
vertex -34.0607777624453 2.65266424185477 8.6614
vertex -36.6148309743941 2.96711309213127 11.5072970707725
vertex -34.0607777624453 2.65266424185477 11.5072970707725
endloop
endfacet
facet normal 0.0 0.0 -1.0
outer loop
vertex -46.717158896362 42.0391497280168 9.37416472513165
vertex -43.750109067994 23.4221148529658 9.37416472513165
vertex -48.9307158553411 24.0599386228053 9.37416472513165
endloop
endfacet
facet normal 0.0 0.0 -1.0
outer loop
vertex -43.750109067994 23.4221148529658 9.37416472513165
vertex -46.717158896362 42.0391497280168 9.37416472513165
vertex -41.5365521090148 41.4013259581773 9.37416472513165
endloop
endfacet
facet normal 0.992506117813466 -0.122194951216661 -0.0
outer loop
vertex -48.9307158553411 24.0599386228053 9.37416472513165
vertex -53.641823059422 -14.205167056028 14.5938875
vertex -53.641823059422 -14.205167056028 9.37416472513165
endloop
endfacet
facet normal 0.992506117813466 -0.122194951216661 -0.0
outer loop
vertex -53.641823059422 -14.205167056028 14.5938875
vertex -48.9307158553411 24.0599386228053 9.37416472513165
vertex -48.9307158553411 24.0599386228053 14.5938875
endloop
endfacet
facet normal 0.0 0.0 -1.0
outer loop
vertex -15.5194415622019 6.29791860833683 15.3971625
vertex -12.5791432285637 4.22286629936112 15.3971625
vertex -15.7271989456974 4.6104473005039 15.3971625
endloop
endfacet
facet normal 0.0 0.0 -1.0
outer loop
vertex -12.5791432285637 4.22286629936112 15.3971625
vertex -15.5194415622019 6.29791860833683 15.3971625
vertex -12.3713858450682 5.91033760719404 15.3971625
endloop
endfacet
facet normal 0.12219495121666 0.992506117813466 -0.0
outer loop
vertex -15.7271989456974 4.6104473005039 15.3971625
vertex -12.5791432285637 4.22286629936112 14.5938875
vertex -15.7271989456974 4.6104473005039 14.5938875
endloop
endfacet
facet normal 0.12219495121666 0.992506117813466 -0.0
outer loop
vertex -12.5791432285637 4.22286629936112 14.5938875
vertex -15.7271989456974 4.6104473005039 15.3971625
vertex -12.5791432285637 4.22286629936112 15.3971625
endloop
endfacet
facet normal 0.0 0.0 -1.0
outer loop
vertex -35.6825415392128 10.5394633306421 14.05255
vertex -34.0607777624453 2.65266424185477 14.05255
vertex -36.6148309743941 2.96711309213127 14.05255
endloop
endfacet
facet normal 0.0 0.0 -1.0
outer loop
vertex -34.0607777624453 2.65266424185477 14.05255
vertex -35.6825415392128 10.5394633306421 14.05255
vertex -33.128488327264 10.2250144803656 14.05255
endloop
endfacet
facet normal 0.12219495121666 0.992506117813466 -4.27004563916428e-16
outer loop
vertex -36.6148309743941 2.96711309213127 14.05255
vertex -34.0607777624453 2.65266424185477 11.5072970707725
vertex -36.6148309743941 2.96711309213127 11.5072970707725
endloop
endfacet
facet normal 0.12219495121666 0.992506117813466 -4.27004563916428e-16
outer loop
vertex -34.0607777624453 2.65266424185477 11.5072970707725
vertex -36.6148309743941 2.96711309213127 14.05255
vertex -34.0607777624453 2.65266424185477 14.05255
endloop
endfacet
facet normal -0.992506117813466 0.12219495121666 2.4509115477051e-18
outer loop
vertex -34.0607777624453 2.65266424185477 14.05255
vertex -34.0607777624453 2.65266424185477 8.6614
vertex -34.0607777624453 2.65266424185477 11.5072970707725
endloop
endfacet
facet normal -0.992506117813466 0.12219495121666 2.4509115477051e-18
outer loop
vertex -34.0607777624453 2.65266424185477 8.6614
vertex -34.0607777624453 2.65266424185477 14.05255
vertex -33.128488327264 10.2250144803656 14.05255
endloop
endfacet
facet normal -0.992506117813466 0.12219495121666 2.4509115477051e-18
outer loop
vertex -34.0607777624453 2.65266424185477 8.6614
vertex -33.128488327264 10.2250144803656 14.05255
vertex -33.128488327264 10.2250144803656 8.6614
endloop
endfacet
facet normal -0.992506117813466 0.12219495121666 2.4509115477051e-18
outer loop
vertex -33.128488327264 10.2250144803656 8.6614
vertex -33.128488327264 10.2250144803656 14.05255
vertex -33.128488327264 10.2250144803656 10.9289785473096
endloop
endfacet
facet normal 0.0 0.0 -1.0
outer loop
vertex -52.9959372118277 42.8121777186642 9.37416472513165
vertex -53.641823059422 -14.205167056028 9.37416472513165
vertex -59.9206013748877 -13.4321390653807 9.37416472513165
endloop
endfacet
facet normal 0.0 0.0 -1.0
outer loop
vertex -53.641823059422 -14.205167056028 9.37416472513165
vertex -52.9959372118277 42.8121777186642 9.37416472513165
vertex -48.9307158553411 24.0599386228053 9.37416472513165
endloop
endfacet
facet normal 0.0 0.0 -1.0
outer loop
vertex -48.9307158553411 24.0599386228053 9.37416472513165
vertex -52.9959372118277 42.8121777186642 9.37416472513165
vertex -46.717158896362 42.0391497280168 9.37416472513165
endloop
endfacet
facet normal -0.12219495121666 -0.992506117813466 2.28970710906314e-16
outer loop
vertex -33.128488327264 10.2250144803656 14.05255
vertex -35.6825415392128 10.5394633306421 10.9289785473096
vertex -33.128488327264 10.2250144803656 10.9289785473096
endloop
endfacet
facet normal -0.12219495121666 -0.992506117813466 2.28970710906314e-16
outer loop
vertex -35.6825415392128 10.5394633306421 10.9289785473096
vertex -33.128488327264 10.2250144803656 14.05255
vertex -35.6825415392128 10.5394633306421 14.05255
endloop
endfacet
facet normal 0.992506117813466 -0.12219495121666 1.98378887719196e-17
outer loop
vertex -35.6825415392128 10.5394633306421 10.9289785473096
vertex -36.6148309743941 2.96711309213127 14.05255
vertex -36.6148309743941 2.96711309213127 11.5072970707725
endloop
endfacet
facet normal 0.992506117813466 -0.12219495121666 1.98378887719196e-17
outer loop
vertex -36.6148309743941 2.96711309213127 14.05255
vertex -35.6825415392128 10.5394633306421 10.9289785473096
vertex -35.6825415392128 10.5394633306421 14.05255
endloop
endfacet
facet normal 0.122194951216661 0.992506117813466 3.45263041616925e-17
outer loop
vertex -59.9206013748877 -13.4321390653807 9.37416472513165
vertex 6.75442389088525 -21.641006812886 -4.1640125
vertex -59.9206013748877 -13.4321390653807 -4.1640125
endloop
endfacet
facet normal 0.122194951216661 0.992506117813466 3.45263041616925e-17
outer loop
vertex 6.75442389088525 -21.641006812886 -4.1640125
vertex -59.9206013748877 -13.4321390653807 9.37416472513165
vertex 6.75442389088525 -21.641006812886 8.73987729635197
endloop
endfacet
facet normal 0.122194951216661 0.992506117813466 3.45263041616925e-17
outer loop
vertex 6.75442389088525 -21.641006812886 8.73987729635197
vertex -59.9206013748877 -13.4321390653807 9.37416472513165
vertex -53.641823059422 -14.205167056028 9.37416472513165
endloop
endfacet
facet normal 0.122194951216661 0.992506117813466 3.45263041616925e-17
outer loop
vertex 6.75442389088525 -21.641006812886 8.73987729635197
vertex -53.641823059422 -14.205167056028 9.37416472513165
vertex 6.75442389088525 -21.641006812886 10.171802296352
endloop
endfacet
facet normal 0.122194951216661 0.992506117813466 3.45263041616925e-17
outer loop
vertex 6.75442389088525 -21.641006812886 10.171802296352
vertex -53.641823059422 -14.205167056028 9.37416472513165
vertex -41.1926386109063 -15.7378805165001 12.9569131777058
endloop
endfacet
facet normal 0.122194951216661 0.992506117813466 3.45263041616925e-17
outer loop
vertex -41.1926386109063 -15.7378805165001 12.9569131777058
vertex -53.641823059422 -14.205167056028 9.37416472513165
vertex -53.641823059422 -14.205167056028 14.5938875
endloop
endfacet
facet normal 0.122194951216661 0.992506117813466 3.45263041616925e-17
outer loop
vertex 6.75442389088525 -21.641006812886 10.171802296352
vertex -41.1926386109063 -15.7378805165001 12.9569131777058
vertex 0.407893145832935 -20.8596373070787 11.0653474820779
endloop
endfacet
facet normal 0.122194951216661 0.992506117813466 3.45263041616925e-17
outer loop
vertex -41.1926386109063 -15.7378805165001 12.9569131777058
vertex -53.641823059422 -14.205167056028 14.5938875
vertex -41.1926386109063 -15.7378805165001 14.5938875
endloop
endfacet
facet normal 0.122194951216661 0.992506117813466 3.45263041616925e-17
outer loop
vertex 0.407893145832935 -20.8596373070787 11.0653474820779
vertex -34.571952863461 -16.5530033227073 12.9569131777058
vertex 0.407893145832935 -20.8596373070787 14.5938875
endloop
endfacet
facet normal 0.122194951216661 0.992506117813466 3.45263041616925e-17
outer loop
vertex -34.571952863461 -16.5530033227073 12.9569131777058
vertex 0.407893145832935 -20.8596373070787 11.0653474820779
vertex -41.1926386109063 -15.7378805165001 12.9569131777058
endloop
endfacet
facet normal 0.122194951216661 0.992506117813466 3.45263041616925e-17
outer loop
vertex 0.407893145832935 -20.8596373070787 14.5938875
vertex -34.571952863461 -16.5530033227073 12.9569131777058
vertex -34.5719528634609 -16.5530033227073 14.5938875
endloop
endfacet
facet normal 0.122194951216661 0.992506117813466 3.45263041616925e-17
outer loop
vertex 6.75442389088525 -21.641006812886 11.0653474820779
vertex 6.75442389088525 -21.641006812886 10.171802296352
vertex 0.407893145832935 -20.8596373070787 11.0653474820779
endloop
endfacet
facet normal 0.992506117813466 -0.12219495121666 -1.03890173890644e-16
outer loop
vertex -41.5365521090148 41.4013259581773 11.62764375
vertex -43.750109067994 23.4221148529658 14.5938875
vertex -43.750109067994 23.4221148529658 11.62764375
endloop
endfacet
facet normal 0.992506117813466 -0.122194951216661 -6.8649289709726e-16
outer loop
vertex -32.235071496649 2.42788770488347 11.5072970707725
vertex -34.5719528634609 -16.5530033227073 14.5938875
vertex -34.571952863461 -16.5530033227073 12.9569131777058
endloop
endfacet
facet normal 0.992506117813466 -0.122194951216661 -6.8649289709726e-16
outer loop
vertex -34.5719528634609 -16.5530033227073 14.5938875
vertex -32.235071496649 2.42788770488347 11.5072970707725
vertex -27.6472887004009 39.6913134613375 14.5938875
endloop
endfacet
facet normal 0.992506117813466 -0.122194951216661 -6.8649289709726e-16
outer loop
vertex -27.6472887004009 39.6913134613375 14.5938875
vertex -32.235071496649 2.42788770488347 11.5072970707725
vertex -31.3027820614677 10.0002379433943 10.9289785473096
endloop
endfacet
facet normal 0.992506117813466 -0.122194951216661 -6.8649289709726e-16
outer loop
vertex -27.6472887004009 39.6913134613375 14.5938875
vertex -31.3027820614677 10.0002379433943 10.9289785473096
vertex -27.6472887004009 39.6913134613375 8.6614
endloop
endfacet
facet normal -0.12219495121666 -0.992506117813466 -7.55008291174012e-16
outer loop
vertex -32.235071496649 2.42788770488347 11.5072970707725
vertex -34.0607777624453 2.65266424185477 8.6614
vertex -32.235071496649 2.42788770488347 8.6614
endloop
endfacet
facet normal -0.12219495121666 -0.992506117813466 -7.55008291174012e-16
outer loop
vertex -34.0607777624453 2.65266424185477 8.6614
vertex -32.235071496649 2.42788770488347 11.5072970707725
vertex -34.0607777624453 2.65266424185477 11.5072970707725
endloop
endfacet
facet normal -0.992506117813466 0.122194951216659 0.0
outer loop
vertex 6.89431740906073 -20.5047473254918 8.73987729635197
vertex 6.75442389088525 -21.641006812886 -4.1640125
vertex 6.75442389088525 -21.641006812886 8.73987729635197
endloop
endfacet
facet normal -0.992506117813466 0.122194951216659 0.0
outer loop
vertex 6.75442389088525 -21.641006812886 -4.1640125
vertex 6.89431740906073 -20.5047473254918 8.73987729635197
vertex 6.89431740906073 -20.5047473254918 -4.1640125
endloop
endfacet
facet normal -0.0 -0.0 1.0
outer loop
vertex 6.75442389088525 -21.641006812886 -4.1640125
vertex -52.9959372118277 42.8121777186642 -4.1640125
vertex -59.9206013748877 -13.4321390653807 -4.1640125
endloop
endfacet
facet normal -0.0 -0.0 1.0
outer loop
vertex -52.9959372118277 42.8121777186642 -4.1640125
vertex 6.75442389088525 -21.641006812886 -4.1640125
vertex 6.89431740906073 -20.5047473254918 -4.1640125
endloop
endfacet
facet normal -0.0 -0.0 1.0
outer loop
vertex -52.9959372118277 42.8121777186642 -4.1640125
vertex 6.89431740906073 -20.5047473254918 -4.1640125
vertex 13.6790880539453 34.6033099711588 -4.1640125
endloop
endfacet
facet normal 0.12219495121666 0.992506117813466 3.0879965262748e-16
outer loop
vertex -35.6825415392128 10.5394633306421 10.9289785473096
vertex -33.128488327264 10.2250144803656 8.6614
vertex -35.6825415392128 10.5394633306421 8.6614
endloop
endfacet
facet normal 0.12219495121666 0.992506117813466 3.0879965262748e-16
outer loop
vertex -33.128488327264 10.2250144803656 8.6614
vertex -35.6825415392128 10.5394633306421 10.9289785473096
vertex -33.128488327264 10.2250144803656 10.9289785473096
endloop
endfacet
facet normal -0.00501017881484981 -0.0406942600783984 -0.999159084082668
outer loop
vertex 7.33255730889298 35.3846794769662 8.73987729635197
vertex 6.75442389088525 -21.641006812886 11.0653474820779
vertex 0.407893145832935 -20.8596373070787 11.0653474820779
endloop
endfacet
facet normal -0.00501017881484981 -0.0406942600783984 -0.999159084082668
outer loop
vertex 6.75442389088525 -21.641006812886 11.0653474820779
vertex 7.33255730889298 35.3846794769662 8.73987729635197
vertex 13.6790880539453 34.6033099711588 8.73987729635197
endloop
endfacet
facet normal -0.12219495121666 -0.992506117813466 -7.34527391157012e-17
outer loop
vertex 13.6790880539453 34.6033099711588 8.73987729635197
vertex -52.9959372118277 42.8121777186642 -4.1640125
vertex 13.6790880539453 34.6033099711588 -4.1640125
endloop
endfacet
facet normal -0.12219495121666 -0.992506117813466 -7.34527391157012e-17
outer loop
vertex -52.9959372118277 42.8121777186642 -4.1640125
vertex 13.6790880539453 34.6033099711588 8.73987729635197
vertex -27.6472887004009 39.6913134613375 8.6614
endloop
endfacet
facet normal -0.12219495121666 -0.992506117813466 -7.34527391157012e-17
outer loop
vertex -27.6472887004009 39.6913134613375 8.6614
vertex 13.6790880539453 34.6033099711588 8.73987729635197
vertex 7.33255730889298 35.3846794769662 8.73987729635197
endloop
endfacet
facet normal -0.12219495121666 -0.992506117813466 -7.34527391157012e-17
outer loop
vertex -27.6472887004009 39.6913134613375 8.6614
vertex 7.33255730889298 35.3846794769662 8.73987729635197
vertex -27.6472887004009 39.6913134613375 14.5938875
endloop
endfacet
facet normal -0.12219495121666 -0.992506117813466 -7.34527391157012e-17
outer loop
vertex -27.6472887004009 39.6913134613375 14.5938875
vertex 7.33255730889298 35.3846794769662 8.73987729635197
vertex 7.33255730889298 35.3846794769662 14.5938875
endloop
endfacet
facet normal -0.12219495121666 -0.992506117813466 -7.34527391157012e-17
outer loop
vertex -34.2679744478462 40.5064362675447 11.62764375
vertex -41.5365521090148 41.4013259581773 9.37416472513165
vertex -34.2679744478462 40.5064362675447 8.6614
endloop
endfacet
facet normal -0.12219495121666 -0.992506117813466 -7.34527391157012e-17
outer loop
vertex -41.5365521090148 41.4013259581773 9.37416472513165
vertex -34.2679744478462 40.5064362675447 11.62764375
vertex -41.5365521090148 41.4013259581773 11.62764375
endloop
endfacet
facet normal -0.12219495121666 -0.992506117813466 -7.34527391157012e-17
outer loop
vertex -52.9959372118277 42.8121777186642 -4.1640125
vertex -34.2679744478462 40.5064362675447 8.6614
vertex -52.9959372118277 42.8121777186642 9.37416472513165
endloop
endfacet
facet normal -0.12219495121666 -0.992506117813466 -7.34527391157012e-17
outer loop
vertex -34.2679744478462 40.5064362675447 8.6614
vertex -52.9959372118277 42.8121777186642 -4.1640125
vertex -27.6472887004009 39.6913134613375 8.6614
endloop
endfacet
facet normal -0.12219495121666 -0.992506117813466 -7.34527391157012e-17
outer loop
vertex -52.9959372118277 42.8121777186642 9.37416472513165
vertex -34.2679744478462 40.5064362675447 8.6614
vertex -41.5365521090148 41.4013259581773 9.37416472513165
endloop
endfacet
facet normal -0.12219495121666 -0.992506117813466 -7.34527391157012e-17
outer loop
vertex -52.9959372118277 42.8121777186642 9.37416472513165
vertex -41.5365521090148 41.4013259581773 9.37416472513165
vertex -46.717158896362 42.0391497280168 9.37416472513165
endloop
endfacet
facet normal -0.12219495121666 -0.992506117813466 8.30494616517328e-18
outer loop
vertex -43.750109067994 23.4221148529658 11.62764375
vertex -48.9307158553411 24.0599386228053 9.37416472513165
vertex -43.750109067994 23.4221148529658 9.37416472513165
endloop
endfacet
facet normal -0.12219495121666 -0.992506117813466 8.30494616517328e-18
outer loop
vertex -48.9307158553411 24.0599386228053 9.37416472513165
vertex -43.750109067994 23.4221148529658 11.62764375
vertex -48.9307158553411 24.0599386228053 14.5938875
endloop
endfacet
facet normal -0.12219495121666 -0.992506117813466 8.30494616517328e-18
outer loop
vertex -48.9307158553411 24.0599386228053 14.5938875
vertex -43.750109067994 23.4221148529658 11.62764375
vertex -43.750109067994 23.4221148529658 14.5938875
endloop
endfacet
facet normal -0.992506117813466 0.122194951216661 3.5629646401389e-15
outer loop
vertex -36.4815314068254 22.5272251623332 14.5938875
vertex -41.1926386109063 -15.7378805165001 12.9569131777058
vertex -41.1926386109063 -15.7378805165001 14.5938875
endloop
endfacet
facet normal -0.992506117813466 0.122194951216661 3.5629646401389e-15
outer loop
vertex -41.1926386109063 -15.7378805165001 12.9569131777058
vertex -36.4815314068254 22.5272251623332 14.5938875
vertex -34.2679744478462 40.5064362675447 8.6614
endloop
endfacet
facet normal -0.992506117813466 0.122194951216661 3.5629646401389e-15
outer loop
vertex -34.2679744478462 40.5064362675447 8.6614
vertex -36.4815314068254 22.5272251623332 14.5938875
vertex -34.2679744478462 40.5064362675447 11.62764375
endloop
endfacet
facet normal -0.992506117813466 0.122194951216659 0.0
outer loop
vertex 6.89431740906073 -20.5047473254918 10.171802296352
vertex 6.75442389088525 -21.641006812886 8.73987729635197
vertex 6.75442389088525 -21.641006812886 10.171802296352
endloop
endfacet
facet normal -0.992506117813466 0.122194951216659 0.0
outer loop
vertex 6.75442389088525 -21.641006812886 8.73987729635197
vertex 6.89431740906073 -20.5047473254918 10.171802296352
vertex 6.89431740906073 -20.5047473254918 8.73987729635197
endloop
endfacet
facet normal -0.0197459060485076 -0.160382506476599 -0.98685741159025
outer loop
vertex -41.5365521090148 41.4013259581773 11.62764375
vertex -36.4815314068254 22.5272251623332 14.5938875
vertex -43.750109067994 23.4221148529658 14.5938875
endloop
endfacet
facet normal -0.0197459060485076 -0.160382506476599 -0.98685741159025
outer loop
vertex -36.4815314068254 22.5272251623332 14.5938875
vertex -41.5365521090148 41.4013259581773 11.62764375
vertex -34.2679744478462 40.5064362675447 11.62764375
endloop
endfacet
facet normal -0.00923589066957386 -0.0750168309061703 -0.997139495459053
outer loop
vertex -34.2679744478462 40.5064362675447 8.6614
vertex -36.6148309743941 2.96711309213127 11.5072970707725
vertex -41.1926386109063 -15.7378805165001 12.9569131777058
endloop
endfacet
facet normal -0.00923589066957386 -0.0750168309061703 -0.997139495459053
outer loop
vertex -36.6148309743941 2.96711309213127 11.5072970707725
vertex -34.2679744478462 40.5064362675447 8.6614
vertex -35.6825415392128 10.5394633306421 10.9289785473096
endloop
endfacet
facet normal -0.00923589066957386 -0.0750168309061703 -0.997139495459053
outer loop
vertex -35.6825415392128 10.5394633306421 10.9289785473096
vertex -34.2679744478462 40.5064362675447 8.6614
vertex -33.128488327264 10.2250144803656 10.9289785473096
endloop
endfacet
facet normal -0.00923589066957386 -0.0750168309061703 -0.997139495459053
outer loop
vertex -33.128488327264 10.2250144803656 10.9289785473096
vertex -34.2679744478462 40.5064362675447 8.6614
vertex -27.6472887004009 39.6913134613375 8.6614
endloop
endfacet
facet normal -0.00923589066957386 -0.0750168309061703 -0.997139495459053
outer loop
vertex -33.128488327264 10.2250144803656 10.9289785473096
vertex -27.6472887004009 39.6913134613375 8.6614
vertex -31.3027820614677 10.0002379433943 10.9289785473096
endloop
endfacet
facet normal -0.00923589066957386 -0.0750168309061703 -0.997139495459053
outer loop
vertex -36.6148309743941 2.96711309213127 11.5072970707725
vertex -34.571952863461 -16.5530033227073 12.9569131777058
vertex -41.1926386109063 -15.7378805165001 12.9569131777058
endloop
endfacet
facet normal -0.00923589066957386 -0.0750168309061703 -0.997139495459053
outer loop
vertex -34.571952863461 -16.5530033227073 12.9569131777058
vertex -36.6148309743941 2.96711309213127 11.5072970707725
vertex -34.0607777624453 2.65266424185477 11.5072970707725
endloop
endfacet
facet normal -0.00923589066957386 -0.0750168309061703 -0.997139495459053
outer loop
vertex -34.571952863461 -16.5530033227073 12.9569131777058
vertex -34.0607777624453 2.65266424185477 11.5072970707725
vertex -32.235071496649 2.42788770488347 11.5072970707725
endloop
endfacet
facet normal -0.992506117813466 0.12219495121666 -9.35816676491389e-16
outer loop
vertex 6.75442389088525 -21.641006812886 11.0653474820779
vertex 6.89431740906073 -20.5047473254918 10.171802296352
vertex 6.75442389088525 -21.641006812886 10.171802296352
endloop
endfacet
facet normal -0.992506117813466 0.12219495121666 -9.35816676491389e-16
outer loop
vertex 6.89431740906073 -20.5047473254918 10.171802296352
vertex 6.75442389088525 -21.641006812886 11.0653474820779
vertex 13.6790880539453 34.6033099711588 8.73987729635197
endloop
endfacet
facet normal -0.992506117813466 0.12219495121666 -9.35816676491389e-16
outer loop
vertex 6.89431740906073 -20.5047473254918 10.171802296352
vertex 13.6790880539453 34.6033099711588 8.73987729635197
vertex 6.89431740906073 -20.5047473254918 8.73987729635197
endloop
endfacet
facet normal 0.122194951216662 0.992506117813466 3.13746368588664e-16
outer loop
vertex -33.128488327264 10.2250144803656 8.6614
vertex -31.3027820614677 10.0002379433943 10.9289785473096
vertex -31.3027820614677 10.0002379433943 8.66139999999999
endloop
endfacet
facet normal 0.122194951216662 0.992506117813466 3.13746368588664e-16
outer loop
vertex -31.3027820614677 10.0002379433943 10.9289785473096
vertex -33.128488327264 10.2250144803656 8.6614
vertex -33.128488327264 10.2250144803656 10.9289785473096
endloop
endfacet
facet normal 0.992506117813466 -0.12219495121666 -8.10782941801317e-18
outer loop
vertex -35.6825415392128 10.5394633306421 8.6614
vertex -36.6148309743941 2.96711309213127 11.5072970707725
vertex -36.6148309743941 2.96711309213127 8.6614
endloop
endfacet
facet normal 0.992506117813466 -0.12219495121666 -8.10782941801317e-18
outer loop
vertex -36.6148309743941 2.96711309213127 11.5072970707725
vertex -35.6825415392128 10.5394633306421 8.6614
vertex -35.6825415392128 10.5394633306421 10.9289785473096
endloop
endfacet
facet normal 0.992506117813466 -0.122194951216659 -0.0
outer loop
vertex -15.5194415622019 6.29791860833683 14.5938875
vertex -15.7271989456974 4.6104473005039 15.3971625
vertex -15.7271989456974 4.6104473005039 14.5938875
endloop
endfacet
facet normal 0.992506117813466 -0.122194951216659 -0.0
outer loop
vertex -15.7271989456974 4.6104473005039 15.3971625
vertex -15.5194415622019 6.29791860833683 14.5938875
vertex -15.5194415622019 6.29791860833683 15.3971625
endloop
endfacet
facet normal -0.122194951216661 -0.992506117813466 0.0
outer loop
vertex -12.3713858450682 5.91033760719404 15.3971625
vertex -15.5194415622019 6.29791860833683 14.5938875
vertex -12.3713858450682 5.91033760719404 14.5938875
endloop
endfacet
facet normal -0.122194951216661 -0.992506117813466 0.0
outer loop
vertex -15.5194415622019 6.29791860833683 14.5938875
vertex -12.3713858450682 5.91033760719404 15.3971625
vertex -15.5194415622019 6.29791860833683 15.3971625
endloop
endfacet
facet normal -0.992506117813467 0.122194951216657 0.0
outer loop
vertex -12.3713858450682 5.91033760719404 15.3971625
vertex -12.5791432285637 4.22286629936112 14.5938875
vertex -12.5791432285637 4.22286629936112 15.3971625
endloop
endfacet
facet normal -0.992506117813467 0.122194951216657 0.0
outer loop
vertex -12.5791432285637 4.22286629936112 14.5938875
vertex -12.3713858450682 5.91033760719404 15.3971625
vertex -12.3713858450682 5.91033760719404 14.5938875
endloop
endfacet
facet normal -0.00923589066957468 -0.0750168309061709 -0.997139495459053
outer loop
vertex -35.6825415392128 10.5394633306421 10.9289785473096
vertex -34.0607777624453 2.65266424185477 11.5072970707725
vertex -36.6148309743941 2.96711309213127 11.5072970707725
endloop
endfacet
facet normal -0.00923589066957468 -0.0750168309061709 -0.997139495459053
outer loop
vertex -34.0607777624453 2.65266424185477 11.5072970707725
vertex -35.6825415392128 10.5394633306421 10.9289785473096
vertex -33.128488327264 10.2250144803656 10.9289785473096
endloop
endfacet
facet normal -0.00923589066957468 -0.0750168309061709 -0.997139495459053
outer loop
vertex -34.0607777624453 2.65266424185477 11.5072970707725
vertex -33.128488327264 10.2250144803656 10.9289785473096
vertex -32.235071496649 2.42788770488347 11.5072970707725
endloop
endfacet
facet normal -0.00923589066957468 -0.0750168309061709 -0.997139495459053
outer loop
vertex -32.235071496649 2.42788770488347 11.5072970707725
vertex -33.128488327264 10.2250144803656 10.9289785473096
vertex -31.3027820614677 10.0002379433943 10.9289785473096
endloop
endfacet
endsolid bldg8
