solid Default
  facet normal 0.000000e+00 0.000000e+00 -1.000000e+00
    outer loop
      vertex 1.895166e+01 1.915022e+01 0.000000e+00
      vertex -1.895166e+01 -1.915022e+01 0.000000e+00
      vertex -1.915022e+01 1.895166e+01 0.000000e+00
    endloop
  endfacet
  facet normal 0.000000e+00 0.000000e+00 -1.000000e+00
    outer loop
      vertex -1.895166e+01 -1.915022e+01 0.000000e+00
      vertex 1.895166e+01 1.915022e+01 0.000000e+00
      vertex 1.915022e+01 -1.895166e+01 0.000000e+00
    endloop
  endfacet
  facet normal -9.999864e-01 -5.211290e-03 0.000000e+00
    outer loop
      vertex -1.915022e+01 1.895166e+01 7.296754e+00
      vertex -1.895166e+01 -1.915022e+01 7.296754e+00
      vertex -1.895166e+01 -1.915022e+01 1.127078e+02
    endloop
  endfacet
  facet normal -9.999864e-01 -5.211290e-03 0.000000e+00
    outer loop
      vertex -1.895166e+01 -1.915022e+01 1.127078e+02
      vertex -1.915022e+01 1.895166e+01 1.127078e+02
      vertex -1.915022e+01 1.895166e+01 7.296754e+00
    endloop
  endfacet
  facet normal 5.211290e-03 -9.999864e-01 0.000000e+00
    outer loop
      vertex -1.895166e+01 -1.915022e+01 1.127078e+02
      vertex -1.895166e+01 -1.915022e+01 7.296754e+00
      vertex 1.915022e+01 -1.895166e+01 7.296754e+00
    endloop
  endfacet
  facet normal 5.211290e-03 -9.999864e-01 0.000000e+00
    outer loop
      vertex 1.915022e+01 -1.895166e+01 7.296754e+00
      vertex 1.915022e+01 -1.895166e+01 1.127078e+02
      vertex -1.895166e+01 -1.915022e+01 1.127078e+02
    endloop
  endfacet
  facet normal -5.211296e-03 9.999864e-01 0.000000e+00
    outer loop
      vertex 1.683883e+01 -1.666424e+01 1.127078e+02
      vertex 1.683883e+01 -1.666424e+01 1.117670e+02
      vertex -1.666423e+01 -1.683883e+01 1.117670e+02
    endloop
  endfacet
  facet normal -5.211296e-03 9.999864e-01 0.000000e+00
    outer loop
      vertex -1.666423e+01 -1.683883e+01 1.117670e+02
      vertex -1.666423e+01 -1.683883e+01 1.127078e+02
      vertex 1.683883e+01 -1.666424e+01 1.127078e+02
    endloop
  endfacet
  facet normal 9.999865e-01 5.211290e-03 0.000000e+00
    outer loop
      vertex 1.895166e+01 1.915022e+01 7.296754e+00
      vertex 1.915022e+01 -1.895166e+01 7.296754e+00
      vertex 1.915022e+01 -1.895166e+01 0.000000e+00
    endloop
  endfacet
  facet normal 9.999865e-01 5.211290e-03 0.000000e+00
    outer loop
      vertex 1.915022e+01 -1.895166e+01 0.000000e+00
      vertex 1.895166e+01 1.915022e+01 0.000000e+00
      vertex 1.895166e+01 1.915022e+01 7.296754e+00
    endloop
  endfacet
  facet normal 0.000000e+00 0.000000e+00 1.000000e+00
    outer loop
      vertex -1.915022e+01 1.895166e+01 1.127078e+02
      vertex -1.895166e+01 -1.915022e+01 1.127078e+02
      vertex -1.666423e+01 -1.683883e+01 1.127078e+02
    endloop
  endfacet
  facet normal 0.000000e+00 0.000000e+00 1.000000e+00
    outer loop
      vertex -1.666423e+01 -1.683883e+01 1.127078e+02
      vertex -1.683883e+01 1.666423e+01 1.127078e+02
      vertex -1.915022e+01 1.895166e+01 1.127078e+02
    endloop
  endfacet
  facet normal 0.000000e+00 0.000000e+00 1.000000e+00
    outer loop
      vertex -1.683883e+01 1.666423e+01 1.127078e+02
      vertex 1.895166e+01 1.915022e+01 1.127078e+02
      vertex -1.915022e+01 1.895166e+01 1.127078e+02
    endloop
  endfacet
  facet normal 0.000000e+00 0.000000e+00 1.000000e+00
    outer loop
      vertex -1.683883e+01 1.666423e+01 1.127078e+02
      vertex 1.666423e+01 1.683883e+01 1.127078e+02
      vertex 1.895166e+01 1.915022e+01 1.127078e+02
    endloop
  endfacet
  facet normal 0.000000e+00 0.000000e+00 1.000000e+00
    outer loop
      vertex -1.666423e+01 -1.683883e+01 1.127078e+02
      vertex -1.895166e+01 -1.915022e+01 1.127078e+02
      vertex 1.915022e+01 -1.895166e+01 1.127078e+02
    endloop
  endfacet
  facet normal 0.000000e+00 0.000000e+00 1.000000e+00
    outer loop
      vertex 1.915022e+01 -1.895166e+01 1.127078e+02
      vertex 1.683883e+01 -1.666424e+01 1.127078e+02
      vertex -1.666423e+01 -1.683883e+01 1.127078e+02
    endloop
  endfacet
  facet normal 0.000000e+00 0.000000e+00 1.000000e+00
    outer loop
      vertex 1.915022e+01 -1.895166e+01 1.127078e+02
      vertex 1.666423e+01 1.683883e+01 1.127078e+02
      vertex 1.683883e+01 -1.666424e+01 1.127078e+02
    endloop
  endfacet
  facet normal 0.000000e+00 0.000000e+00 1.000000e+00
    outer loop
      vertex 1.915022e+01 -1.895166e+01 1.127078e+02
      vertex 1.895166e+01 1.915022e+01 1.127078e+02
      vertex 1.666423e+01 1.683883e+01 1.127078e+02
    endloop
  endfacet
  facet normal -5.211328e-03 9.999864e-01 0.000000e+00
    outer loop
      vertex 1.562708e+01 1.526588e+01 1.143072e+02
      vertex 1.562708e+01 1.526588e+01 1.117670e+02
      vertex 5.043220e+00 1.521072e+01 1.117670e+02
    endloop
  endfacet
  facet normal -5.211328e-03 9.999864e-01 0.000000e+00
    outer loop
      vertex 5.043220e+00 1.521072e+01 1.117670e+02
      vertex 5.043220e+00 1.521072e+01 1.143072e+02
      vertex 1.562708e+01 1.526588e+01 1.143072e+02
    endloop
  endfacet
  facet normal -9.999864e-01 -5.211354e-03 0.000000e+00
    outer loop
      vertex 1.666423e+01 1.683883e+01 1.117670e+02
      vertex 1.683883e+01 -1.666424e+01 1.117670e+02
      vertex 1.683883e+01 -1.666424e+01 1.127078e+02
    endloop
  endfacet
  facet normal -9.999864e-01 -5.211354e-03 0.000000e+00
    outer loop
      vertex 1.683883e+01 -1.666424e+01 1.127078e+02
      vertex 1.666423e+01 1.683883e+01 1.127078e+02
      vertex 1.666423e+01 1.683883e+01 1.117670e+02
    endloop
  endfacet
  facet normal 9.999864e-01 5.211262e-03 0.000000e+00
    outer loop
      vertex 1.562708e+01 1.526588e+01 1.143072e+02
      vertex 1.578838e+01 -1.568602e+01 1.143072e+02
      vertex 1.578838e+01 -1.568602e+01 1.117670e+02
    endloop
  endfacet
  facet normal 9.999864e-01 5.211262e-03 0.000000e+00
    outer loop
      vertex 1.578838e+01 -1.568602e+01 1.117670e+02
      vertex 1.562708e+01 1.526588e+01 1.117670e+02
      vertex 1.562708e+01 1.526588e+01 1.143072e+02
    endloop
  endfacet
  facet normal -9.999864e-01 -5.211324e-03 0.000000e+00
    outer loop
      vertex 5.043220e+00 1.521072e+01 1.117670e+02
      vertex 5.204523e+00 -1.574117e+01 1.117670e+02
      vertex 5.204523e+00 -1.574117e+01 1.143072e+02
    endloop
  endfacet
  facet normal -9.999864e-01 -5.211324e-03 0.000000e+00
    outer loop
      vertex 5.204523e+00 -1.574117e+01 1.143072e+02
      vertex 5.043220e+00 1.521072e+01 1.143072e+02
      vertex 5.043220e+00 1.521072e+01 1.117670e+02
    endloop
  endfacet
  facet normal 0.000000e+00 0.000000e+00 1.000000e+00
    outer loop
      vertex 5.043220e+00 1.521072e+01 1.143072e+02
      vertex 5.204523e+00 -1.574117e+01 1.143072e+02
      vertex 1.578838e+01 -1.568602e+01 1.143072e+02
    endloop
  endfacet
  facet normal 0.000000e+00 0.000000e+00 1.000000e+00
    outer loop
      vertex 1.578838e+01 -1.568602e+01 1.143072e+02
      vertex 1.562708e+01 1.526588e+01 1.143072e+02
      vertex 5.043220e+00 1.521072e+01 1.143072e+02
    endloop
  endfacet
  facet normal 5.211284e-03 -9.999864e-01 0.000000e+00
    outer loop
      vertex 5.204523e+00 -1.574117e+01 1.143072e+02
      vertex 5.204523e+00 -1.574117e+01 1.117670e+02
      vertex 1.578838e+01 -1.568602e+01 1.117670e+02
    endloop
  endfacet
  facet normal 5.211284e-03 -9.999864e-01 0.000000e+00
    outer loop
      vertex 1.578838e+01 -1.568602e+01 1.117670e+02
      vertex 1.578838e+01 -1.568602e+01 1.143072e+02
      vertex 5.204523e+00 -1.574117e+01 1.143072e+02
    endloop
  endfacet
  facet normal 5.211239e-03 -9.999864e-01 0.000000e+00
    outer loop
      vertex -1.683883e+01 1.666423e+01 1.127078e+02
      vertex -1.683883e+01 1.666423e+01 1.117670e+02
      vertex 1.666423e+01 1.683883e+01 1.117670e+02
    endloop
  endfacet
  facet normal 5.211239e-03 -9.999864e-01 0.000000e+00
    outer loop
      vertex 1.666423e+01 1.683883e+01 1.117670e+02
      vertex 1.666423e+01 1.683883e+01 1.127078e+02
      vertex -1.683883e+01 1.666423e+01 1.127078e+02
    endloop
  endfacet
  facet normal 9.999864e-01 5.211290e-03 0.000000e+00
    outer loop
      vertex 1.895166e+01 1.915022e+01 1.127078e+02
      vertex 1.915022e+01 -1.895166e+01 1.127078e+02
      vertex 1.915022e+01 -1.895166e+01 7.296754e+00
    endloop
  endfacet
  facet normal 9.999864e-01 5.211290e-03 0.000000e+00
    outer loop
      vertex 1.915022e+01 -1.895166e+01 7.296754e+00
      vertex 1.895166e+01 1.915022e+01 7.296754e+00
      vertex 1.895166e+01 1.915022e+01 1.127078e+02
    endloop
  endfacet
  facet normal -5.211290e-03 9.999865e-01 0.000000e+00
    outer loop
      vertex 1.895166e+01 1.915022e+01 7.296754e+00
      vertex 1.895166e+01 1.915022e+01 0.000000e+00
      vertex -1.915022e+01 1.895166e+01 0.000000e+00
    endloop
  endfacet
  facet normal -5.211290e-03 9.999865e-01 0.000000e+00
    outer loop
      vertex -1.915022e+01 1.895166e+01 0.000000e+00
      vertex -1.915022e+01 1.895166e+01 7.296754e+00
      vertex 1.895166e+01 1.915022e+01 7.296754e+00
    endloop
  endfacet
  facet normal 9.999864e-01 5.211296e-03 0.000000e+00
    outer loop
      vertex -1.683883e+01 1.666423e+01 1.127078e+02
      vertex -1.666423e+01 -1.683883e+01 1.127078e+02
      vertex -1.666423e+01 -1.683883e+01 1.117670e+02
    endloop
  endfacet
  facet normal 9.999864e-01 5.211296e-03 0.000000e+00
    outer loop
      vertex -1.666423e+01 -1.683883e+01 1.117670e+02
      vertex -1.683883e+01 1.666423e+01 1.117670e+02
      vertex -1.683883e+01 1.666423e+01 1.127078e+02
    endloop
  endfacet
  facet normal -9.999865e-01 -5.211290e-03 0.000000e+00
    outer loop
      vertex -1.915022e+01 1.895166e+01 0.000000e+00
      vertex -1.895166e+01 -1.915022e+01 0.000000e+00
      vertex -1.895166e+01 -1.915022e+01 7.296754e+00
    endloop
  endfacet
  facet normal -9.999865e-01 -5.211290e-03 0.000000e+00
    outer loop
      vertex -1.895166e+01 -1.915022e+01 7.296754e+00
      vertex -1.915022e+01 1.895166e+01 7.296754e+00
      vertex -1.915022e+01 1.895166e+01 0.000000e+00
    endloop
  endfacet
  facet normal 5.211290e-03 -9.999865e-01 0.000000e+00
    outer loop
      vertex -1.895166e+01 -1.915022e+01 7.296754e+00
      vertex -1.895166e+01 -1.915022e+01 0.000000e+00
      vertex 1.915022e+01 -1.895166e+01 0.000000e+00
    endloop
  endfacet
  facet normal 5.211290e-03 -9.999865e-01 0.000000e+00
    outer loop
      vertex 1.915022e+01 -1.895166e+01 0.000000e+00
      vertex 1.915022e+01 -1.895166e+01 7.296754e+00
      vertex -1.895166e+01 -1.915022e+01 7.296754e+00
    endloop
  endfacet
  facet normal -5.211290e-03 9.999864e-01 0.000000e+00
    outer loop
      vertex 1.895166e+01 1.915022e+01 1.127078e+02
      vertex 1.895166e+01 1.915022e+01 7.296754e+00
      vertex -1.915022e+01 1.895166e+01 7.296754e+00
    endloop
  endfacet
  facet normal -5.211290e-03 9.999864e-01 0.000000e+00
    outer loop
      vertex -1.915022e+01 1.895166e+01 7.296754e+00
      vertex -1.915022e+01 1.895166e+01 1.127078e+02
      vertex 1.895166e+01 1.915022e+01 1.127078e+02
    endloop
  endfacet
  facet normal 0.000000e+00 0.000000e+00 1.000000e+00
    outer loop
      vertex -1.683883e+01 1.666423e+01 1.117670e+02
      vertex 5.204523e+00 -1.574117e+01 1.117670e+02
      vertex 5.043220e+00 1.521072e+01 1.117670e+02
    endloop
  endfacet
  facet normal 0.000000e+00 0.000000e+00 1.000000e+00
    outer loop
      vertex 5.043220e+00 1.521072e+01 1.117670e+02
      vertex 1.666423e+01 1.683883e+01 1.117670e+02
      vertex -1.683883e+01 1.666423e+01 1.117670e+02
    endloop
  endfacet
  facet normal 0.000000e+00 0.000000e+00 1.000000e+00
    outer loop
      vertex 5.043220e+00 1.521072e+01 1.117670e+02
      vertex 1.562708e+01 1.526588e+01 1.117670e+02
      vertex 1.666423e+01 1.683883e+01 1.117670e+02
    endloop
  endfacet
  facet normal 0.000000e+00 0.000000e+00 1.000000e+00
    outer loop
      vertex -1.666423e+01 -1.683883e+01 1.117670e+02
      vertex 1.683883e+01 -1.666424e+01 1.117670e+02
      vertex 5.204523e+00 -1.574117e+01 1.117670e+02
    endloop
  endfacet
  facet normal 0.000000e+00 0.000000e+00 1.000000e+00
    outer loop
      vertex 5.204523e+00 -1.574117e+01 1.117670e+02
      vertex -1.683883e+01 1.666423e+01 1.117670e+02
      vertex -1.666423e+01 -1.683883e+01 1.117670e+02
    endloop
  endfacet
  facet normal 0.000000e+00 0.000000e+00 1.000000e+00
    outer loop
      vertex 1.683883e+01 -1.666424e+01 1.117670e+02
      vertex 1.578838e+01 -1.568602e+01 1.117670e+02
      vertex 5.204523e+00 -1.574117e+01 1.117670e+02
    endloop
  endfacet
  facet normal 0.000000e+00 0.000000e+00 1.000000e+00
    outer loop
      vertex 1.683883e+01 -1.666424e+01 1.117670e+02
      vertex 1.562708e+01 1.526588e+01 1.117670e+02
      vertex 1.578838e+01 -1.568602e+01 1.117670e+02
    endloop
  endfacet
  facet normal 0.000000e+00 0.000000e+00 1.000000e+00
    outer loop
      vertex 1.683883e+01 -1.666424e+01 1.117670e+02
      vertex 1.666423e+01 1.683883e+01 1.117670e+02
      vertex 1.562708e+01 1.526588e+01 1.117670e+02
    endloop
  endfacet
endsolid Default
