solid MkrBot-Scale---Conn-Lector
facet normal -1.0 0.0 0.0
outer loop
vertex 0.0 220.6625 127.0
vertex 0.0 93.6625 0.0
vertex 0.0 93.6625 127.0
endloop
endfacet
facet normal -1.0 0.0 0.0
outer loop
vertex 0.0 93.6625 0.0
vertex 0.0 220.6625 127.0
vertex 0.0 220.6625 0.0
endloop
endfacet
facet normal 0.0 0.0 1.0
outer loop
vertex 203.2 93.6625 127.0
vertex 0.0 220.6625 127.0
vertex 0.0 93.6625 127.0
endloop
endfacet
facet normal 0.0 0.0 1.0
outer loop
vertex 0.0 220.6625 127.0
vertex 203.2 93.6625 127.0
vertex 203.2 220.6625 127.0
endloop
endfacet
facet normal 1.0 0.0 0.0
outer loop
vertex 203.2 220.6625 0.0
vertex 203.2 93.6625 127.0
vertex 203.2 93.6625 0.0
endloop
endfacet
facet normal 1.0 0.0 0.0
outer loop
vertex 203.2 93.6625 127.0
vertex 203.2 220.6625 0.0
vertex 203.2 220.6625 127.0
endloop
endfacet
facet normal 0.0 1.0 0.0
outer loop
vertex 0.0 220.6625 127.0
vertex 203.2 220.6625 0.0
vertex 0.0 220.6625 0.0
endloop
endfacet
facet normal 0.0 1.0 0.0
outer loop
vertex 203.2 220.6625 0.0
vertex 0.0 220.6625 127.0
vertex 203.2 220.6625 127.0
endloop
endfacet
facet normal 0.0 -1.0 0.0
outer loop
vertex 203.2 93.6625 127.0
vertex 0.0 93.6625 0.0
vertex 203.2 93.6625 0.0
endloop
endfacet
facet normal 0.0 -1.0 0.0
outer loop
vertex 0.0 93.6625 0.0
vertex 203.2 93.6625 127.0
vertex 0.0 93.6625 127.0
endloop
endfacet
facet normal 0.0 0.0 -1.0
outer loop
vertex 203.2 220.6625 0.0
vertex 0.0 93.6625 0.0
vertex 0.0 220.6625 0.0
endloop
endfacet
facet normal 0.0 0.0 -1.0
outer loop
vertex 0.0 93.6625 0.0
vertex 203.2 220.6625 0.0
vertex 203.2 93.6625 0.0
endloop
endfacet
endsolid MkrBot-Scale---Conn-Lector
