solid Default
  facet normal 3.588532e-01 9.333938e-01 6.143288e-04
    outer loop
      vertex 2.961518e+01 1.277650e+01 2.961790e+01
      vertex 3.478870e+01 1.079755e+01 1.432259e+01
      vertex 2.982575e+01 1.270561e+01 1.432259e+01
    endloop
  endfacet
  facet normal 3.589358e-01 9.333620e-01 6.463752e-04
    outer loop
      vertex 3.455772e+01 1.087531e+01 3.030209e+01
      vertex 3.478870e+01 1.079755e+01 1.432259e+01
      vertex 2.961518e+01 1.277650e+01 2.961790e+01
    endloop
  endfacet
  facet normal 4.122978e-01 9.110478e-01 1.570028e-03
    outer loop
      vertex 3.907953e+01 8.827129e+00 3.091399e+01
      vertex 3.932623e+01 8.744078e+00 1.432259e+01
      vertex 3.478870e+01 1.079755e+01 1.432259e+01
    endloop
  endfacet
  facet normal 9.150429e-01 4.032654e-01 8.566833e-03
    outer loop
      vertex 6.114386e+01 -1.306794e+01 3.335793e+01
      vertex 6.341986e+01 -1.782799e+01 1.432259e+01
      vertex 6.135312e+01 -1.313839e+01 1.432259e+01
    endloop
  endfacet
  facet normal 9.389881e-01 3.438930e-01 6.235998e-03
    outer loop
      vertex 6.323927e+01 -1.776719e+01 3.347075e+01
      vertex 6.514880e+01 -2.298222e+01 3.353109e+01
      vertex 6.529431e+01 -2.303120e+01 1.432259e+01
    endloop
  endfacet
  facet normal 9.407836e-01 3.389181e-01 7.796341e-03
    outer loop
      vertex 6.323927e+01 -1.776719e+01 3.347075e+01
      vertex 6.529431e+01 -2.303120e+01 1.432259e+01
      vertex 6.341986e+01 -1.782799e+01 1.432259e+01
    endloop
  endfacet
  facet normal 2.831175e-01 9.590851e-01 -4.539026e-04
    outer loop
      vertex 2.422582e+01 1.457167e+01 2.885920e+01
      vertex 1.851997e+01 1.624913e+01 1.432259e+01
      vertex 1.836356e+01 1.630179e+01 2.802378e+01
    endloop
  endfacet
  facet normal 3.160338e-01 9.487479e-01 -4.474227e-05
    outer loop
      vertex 2.422582e+01 1.457167e+01 2.885920e+01
      vertex 2.982575e+01 1.270561e+01 1.432259e+01
      vertex 2.441148e+01 1.450917e+01 1.432259e+01
    endloop
  endfacet
  facet normal 3.160338e-01 9.487479e-01 -4.474227e-05
    outer loop
      vertex 2.982575e+01 1.270561e+01 1.432259e+01
      vertex 2.422582e+01 1.457167e+01 2.885920e+01
      vertex 2.961518e+01 1.277650e+01 2.961790e+01
    endloop
  endfacet
  facet normal 9.132264e-01 4.073867e-01 7.319071e-03
    outer loop
      vertex 6.114386e+01 -1.306794e+01 3.335793e+01
      vertex 6.323927e+01 -1.776719e+01 3.347075e+01
      vertex 6.341986e+01 -1.782799e+01 1.432259e+01
    endloop
  endfacet
  facet normal 4.124307e-01 9.109877e-01 1.528528e-03
    outer loop
      vertex 3.907953e+01 8.827129e+00 3.091399e+01
      vertex 3.478870e+01 1.079755e+01 1.432259e+01
      vertex 3.455772e+01 1.087531e+01 3.030209e+01
    endloop
  endfacet
  facet normal 5.481319e-01 8.363824e-01 3.985798e-03
    outer loop
      vertex 4.696536e+01 4.125875e+00 3.192969e+01
      vertex 4.722864e+01 4.037245e+00 1.432259e+01
      vertex 4.346423e+01 6.504280e+00 1.432259e+01
    endloop
  endfacet
  facet normal 5.480638e-01 8.364269e-01 4.005348e-03
    outer loop
      vertex 4.696536e+01 4.125875e+00 3.192969e+01
      vertex 4.346423e+01 6.504280e+00 1.432259e+01
      vertex 4.320671e+01 6.590977e+00 3.145578e+01
    endloop
  endfacet
  facet normal 1.851817e-16 1.442028e-01 9.895481e-01
    outer loop
      vertex 7.002312e+01 -4.213166e+01 3.341938e+01
      vertex -1.033654e+01 2.339130e+01 2.387098e+01
      vertex -1.033654e+01 -4.213166e+01 3.341938e+01
    endloop
  endfacet
  facet normal -1.539249e-01 -4.493859e-02 9.870601e-01
    outer loop
      vertex 7.002312e+01 -4.213166e+01 3.341938e+01
      vertex -2.321671e+00 2.151162e+01 2.503526e+01
      vertex -1.033654e+01 2.339130e+01 2.387098e+01
    endloop
  endfacet
  facet normal -1.539249e-01 -4.493859e-02 9.870601e-01
    outer loop
      vertex -2.321671e+00 2.151162e+01 2.503526e+01
      vertex 7.002312e+01 -4.213166e+01 3.341938e+01
      vertex 5.115898e+00 1.973079e+01 2.611403e+01
    endloop
  endfacet
  facet normal -1.539249e-01 -4.493859e-02 9.870601e-01
    outer loop
      vertex 5.115898e+00 1.973079e+01 2.611403e+01
      vertex 7.002312e+01 -4.213166e+01 3.341938e+01
      vertex 1.200228e+01 1.800783e+01 2.710946e+01
    endloop
  endfacet
  facet normal -1.539249e-01 -4.493859e-02 9.870601e-01
    outer loop
      vertex 1.200228e+01 1.800783e+01 2.710946e+01
      vertex 7.002312e+01 -4.213166e+01 3.341938e+01
      vertex 1.836356e+01 1.630179e+01 2.802378e+01
    endloop
  endfacet
  facet normal -1.539249e-01 -4.493859e-02 9.870601e-01
    outer loop
      vertex 1.836356e+01 1.630179e+01 2.802378e+01
      vertex 7.002312e+01 -4.213166e+01 3.341938e+01
      vertex 2.422582e+01 1.457167e+01 2.885920e+01
    endloop
  endfacet
  facet normal -1.539249e-01 -4.493859e-02 9.870601e-01
    outer loop
      vertex 2.422582e+01 1.457167e+01 2.885920e+01
      vertex 7.002312e+01 -4.213166e+01 3.341938e+01
      vertex 2.961518e+01 1.277650e+01 2.961790e+01
    endloop
  endfacet
  facet normal -1.539249e-01 -4.493859e-02 9.870601e-01
    outer loop
      vertex 2.961518e+01 1.277650e+01 2.961790e+01
      vertex 7.002312e+01 -4.213166e+01 3.341938e+01
      vertex 3.455772e+01 1.087531e+01 3.030209e+01
    endloop
  endfacet
  facet normal -1.539249e-01 -4.493859e-02 9.870601e-01
    outer loop
      vertex 3.455772e+01 1.087531e+01 3.030209e+01
      vertex 7.002312e+01 -4.213166e+01 3.341938e+01
      vertex 3.907953e+01 8.827129e+00 3.091399e+01
    endloop
  endfacet
  facet normal -1.539249e-01 -4.493859e-02 9.870601e-01
    outer loop
      vertex 3.907953e+01 8.827129e+00 3.091399e+01
      vertex 7.002312e+01 -4.213166e+01 3.341938e+01
      vertex 4.320671e+01 6.590977e+00 3.145578e+01
    endloop
  endfacet
  facet normal -1.539249e-01 -4.493859e-02 9.870601e-01
    outer loop
      vertex 4.320671e+01 6.590977e+00 3.145578e+01
      vertex 7.002312e+01 -4.213166e+01 3.341938e+01
      vertex 4.696536e+01 4.125875e+00 3.192969e+01
    endloop
  endfacet
  facet normal -1.539249e-01 -4.493859e-02 9.870601e-01
    outer loop
      vertex 4.696536e+01 4.125875e+00 3.192969e+01
      vertex 7.002312e+01 -4.213166e+01 3.341938e+01
      vertex 5.038156e+01 1.390856e+00 3.233790e+01
    endloop
  endfacet
  facet normal -1.539249e-01 -4.493859e-02 9.870601e-01
    outer loop
      vertex 5.038156e+01 1.390856e+00 3.233790e+01
      vertex 7.002312e+01 -4.213166e+01 3.341938e+01
      vertex 5.348143e+01 -1.655062e+00 3.268263e+01
    endloop
  endfacet
  facet normal -1.539249e-01 -4.493859e-02 9.870601e-01
    outer loop
      vertex 5.348143e+01 -1.655062e+00 3.268263e+01
      vertex 7.002312e+01 -4.213166e+01 3.341938e+01
      vertex 5.629103e+01 -5.052851e+00 3.296607e+01
    endloop
  endfacet
  facet normal -1.539249e-01 -4.493859e-02 9.870601e-01
    outer loop
      vertex 5.629103e+01 -5.052851e+00 3.296607e+01
      vertex 7.002312e+01 -4.213166e+01 3.341938e+01
      vertex 5.883647e+01 -8.843485e+00 3.319044e+01
    endloop
  endfacet
  facet normal -1.539249e-01 -4.493859e-02 9.870601e-01
    outer loop
      vertex 5.883647e+01 -8.843485e+00 3.319044e+01
      vertex 7.002312e+01 -4.213166e+01 3.341938e+01
      vertex 6.114386e+01 -1.306794e+01 3.335793e+01
    endloop
  endfacet
  facet normal -1.539249e-01 -4.493859e-02 9.870601e-01
    outer loop
      vertex 6.114386e+01 -1.306794e+01 3.335793e+01
      vertex 7.002312e+01 -4.213166e+01 3.341938e+01
      vertex 6.323927e+01 -1.776719e+01 3.347075e+01
    endloop
  endfacet
  facet normal -1.539249e-01 -4.493859e-02 9.870601e-01
    outer loop
      vertex 6.323927e+01 -1.776719e+01 3.347075e+01
      vertex 7.002312e+01 -4.213166e+01 3.341938e+01
      vertex 6.514880e+01 -2.298222e+01 3.353109e+01
    endloop
  endfacet
  facet normal -1.539249e-01 -4.493859e-02 9.870601e-01
    outer loop
      vertex 6.514880e+01 -2.298222e+01 3.353109e+01
      vertex 7.002312e+01 -4.213166e+01 3.341938e+01
      vertex 6.689856e+01 -2.875399e+01 3.354118e+01
    endloop
  endfacet
  facet normal -1.539249e-01 -4.493859e-02 9.870601e-01
    outer loop
      vertex 6.689856e+01 -2.875399e+01 3.354118e+01
      vertex 7.002312e+01 -4.213166e+01 3.341938e+01
      vertex 6.851463e+01 -3.512348e+01 3.350321e+01
    endloop
  endfacet
  facet normal 2.333462e-01 9.723935e-01 -6.833849e-04
    outer loop
      vertex 5.115898e+00 1.973079e+01 2.611403e+01
      vertex 5.201614e+00 1.970193e+01 1.432259e+01
      vertex -2.277039e+00 2.149659e+01 1.432259e+01
    endloop
  endfacet
  facet normal 2.329093e-01 9.724984e-01 -3.937140e-04
    outer loop
      vertex 5.115898e+00 1.973079e+01 2.611403e+01
      vertex -2.277039e+00 2.149659e+01 1.432259e+01
      vertex -2.321671e+00 2.151162e+01 2.503526e+01
    endloop
  endfacet
  facet normal 2.431409e-01 9.699907e-01 -8.025410e-04
    outer loop
      vertex 1.200228e+01 1.800783e+01 2.710946e+01
      vertex 1.212531e+01 1.796642e+01 1.432259e+01
      vertex 5.201614e+00 1.970193e+01 1.432259e+01
    endloop
  endfacet
  facet normal 2.427984e-01 9.700766e-01 -6.090070e-04
    outer loop
      vertex 1.200228e+01 1.800783e+01 2.710946e+01
      vertex 5.201614e+00 1.970193e+01 1.432259e+01
      vertex 5.115898e+00 1.973079e+01 2.611403e+01
    endloop
  endfacet
  facet normal 2.593604e-01 9.657804e-01 -6.328448e-04
    outer loop
      vertex 1.200228e+01 1.800783e+01 2.710946e+01
      vertex 1.851997e+01 1.624913e+01 1.432259e+01
      vertex 1.212531e+01 1.796642e+01 1.432259e+01
    endloop
  endfacet
  facet normal 2.591395e-01 9.658396e-01 -7.535825e-04
    outer loop
      vertex 1.836356e+01 1.630179e+01 2.802378e+01
      vertex 1.851997e+01 1.624913e+01 1.432259e+01
      vertex 1.200228e+01 1.800783e+01 2.710946e+01
    endloop
  endfacet
  facet normal 1.000000e+00 1.387779e-15 -1.668983e-16
    outer loop
      vertex -1.033654e+01 -4.690586e+01 1.432259e+01
      vertex -1.033654e+01 -4.213166e+01 4.296777e+01
      vertex -1.033654e+01 -4.690586e+01 4.296777e+01
    endloop
  endfacet
  facet normal 1.000000e+00 1.387779e-15 -1.668983e-16
    outer loop
      vertex -1.033654e+01 -4.213166e+01 4.296777e+01
      vertex -1.033654e+01 -4.690586e+01 1.432259e+01
      vertex -1.033654e+01 -4.213166e+01 1.432259e+01
    endloop
  endfacet
  facet normal 1.000000e+00 1.387779e-15 -1.668983e-16
    outer loop
      vertex -1.033654e+01 -4.213166e+01 4.296777e+01
      vertex -1.033654e+01 -4.213166e+01 1.432259e+01
      vertex -1.033654e+01 -4.213166e+01 3.341938e+01
    endloop
  endfacet
  facet normal 1.000000e+00 1.387779e-15 -1.668983e-16
    outer loop
      vertex -1.033654e+01 -4.213166e+01 4.296777e+01
      vertex -1.033654e+01 -4.213166e+01 3.341938e+01
      vertex -1.033654e+01 2.339130e+01 2.387098e+01
    endloop
  endfacet
  facet normal 1.000000e+00 1.387779e-15 -1.668983e-16
    outer loop
      vertex -1.033654e+01 -4.213166e+01 4.296777e+01
      vertex -1.033654e+01 2.339130e+01 2.387098e+01
      vertex -1.033654e+01 -9.370180e+00 3.819357e+01
    endloop
  endfacet
  facet normal 1.000000e+00 1.387779e-15 -1.668983e-16
    outer loop
      vertex -1.033654e+01 -9.370180e+00 3.819357e+01
      vertex -1.033654e+01 2.339130e+01 2.387098e+01
      vertex -1.033654e+01 2.339130e+01 4.296777e+01
    endloop
  endfacet
  facet normal 1.000000e+00 1.387779e-15 -1.668983e-16
    outer loop
      vertex -1.033654e+01 2.339130e+01 4.296777e+01
      vertex -1.033654e+01 2.339130e+01 2.387098e+01
      vertex -1.033654e+01 2.339130e+01 1.432259e+01
    endloop
  endfacet
  facet normal 1.000000e+00 1.387779e-15 -1.668983e-16
    outer loop
      vertex -1.033654e+01 2.339130e+01 4.296777e+01
      vertex -1.033654e+01 2.339130e+01 1.432259e+01
      vertex -1.033654e+01 2.816550e+01 4.296777e+01
    endloop
  endfacet
  facet normal 1.000000e+00 1.387779e-15 -1.668983e-16
    outer loop
      vertex -1.033654e+01 2.816550e+01 4.296777e+01
      vertex -1.033654e+01 2.339130e+01 1.432259e+01
      vertex -1.033654e+01 2.816550e+01 1.432259e+01
    endloop
  endfacet
  facet normal -1.005446e-14 -1.000000e+00 -4.648248e-14
    outer loop
      vertex 7.002312e+01 -4.213166e+01 3.341938e+01
      vertex -1.033654e+01 -4.213166e+01 1.432259e+01
      vertex 7.002312e+01 -4.213166e+01 1.432259e+01
    endloop
  endfacet
  facet normal -1.005446e-14 -1.000000e+00 -4.648248e-14
    outer loop
      vertex -1.033654e+01 -4.213166e+01 1.432259e+01
      vertex 7.002312e+01 -4.213166e+01 3.341938e+01
      vertex -1.033654e+01 -4.213166e+01 3.341938e+01
    endloop
  endfacet
  facet normal 4.760148e-01 8.794331e-01 2.704784e-03
    outer loop
      vertex 4.320671e+01 6.590977e+00 3.145578e+01
      vertex 4.346423e+01 6.504280e+00 1.432259e+01
      vertex 3.932623e+01 8.744078e+00 1.432259e+01
    endloop
  endfacet
  facet normal 4.761080e-01 8.793827e-01 2.677331e-03
    outer loop
      vertex 4.320671e+01 6.590977e+00 3.145578e+01
      vertex 3.932623e+01 8.744078e+00 1.432259e+01
      vertex 3.907953e+01 8.827129e+00 3.091399e+01
    endloop
  endfacet
  facet normal 3.407641e-16 1.964019e-16 1.000000e+00
    outer loop
      vertex -7.911491e+01 2.816550e+01 1.432259e+01
      vertex -7.911491e+01 4.690586e+01 1.432259e+01
      vertex -7.911491e+01 3.924604e+01 1.432259e+01
    endloop
  endfacet
  facet normal 3.407641e-16 1.964019e-16 1.000000e+00
    outer loop
      vertex -7.911491e+01 4.690586e+01 1.432259e+01
      vertex -7.911491e+01 2.816550e+01 1.432259e+01
      vertex -1.032027e+01 4.690586e+01 1.432259e+01
    endloop
  endfacet
  facet normal 3.407641e-16 1.964019e-16 1.000000e+00
    outer loop
      vertex -1.032027e+01 4.690586e+01 1.432259e+01
      vertex -7.911491e+01 2.816550e+01 1.432259e+01
      vertex -1.033654e+01 2.816550e+01 1.432259e+01
    endloop
  endfacet
  facet normal 3.407641e-16 1.964019e-16 1.000000e+00
    outer loop
      vertex -1.032027e+01 4.690586e+01 1.432259e+01
      vertex -1.033654e+01 2.816550e+01 1.432259e+01
      vertex -1.033654e+01 2.339130e+01 1.432259e+01
    endloop
  endfacet
  facet normal 3.407641e-16 1.964019e-16 1.000000e+00
    outer loop
      vertex -1.032027e+01 4.690586e+01 1.432259e+01
      vertex -1.033654e+01 2.339130e+01 1.432259e+01
      vertex -1.032027e+01 3.930196e+01 1.432259e+01
    endloop
  endfacet
  facet normal 3.407641e-16 1.964019e-16 1.000000e+00
    outer loop
      vertex -1.032027e+01 3.930196e+01 1.432259e+01
      vertex -1.033654e+01 2.339130e+01 1.432259e+01
      vertex -2.277039e+00 2.149659e+01 1.432259e+01
    endloop
  endfacet
  facet normal 3.407641e-16 1.964019e-16 1.000000e+00
    outer loop
      vertex -1.032027e+01 3.930196e+01 1.432259e+01
      vertex -2.277039e+00 2.149659e+01 1.432259e+01
      vertex -7.883179e+00 3.924604e+01 1.432259e+01
    endloop
  endfacet
  facet normal 3.407641e-16 1.964019e-16 1.000000e+00
    outer loop
      vertex -7.883179e+00 3.924604e+01 1.432259e+01
      vertex -2.277039e+00 2.149659e+01 1.432259e+01
      vertex -4.493431e+00 3.902090e+01 1.432259e+01
    endloop
  endfacet
  facet normal 3.407641e-16 1.964019e-16 1.000000e+00
    outer loop
      vertex -4.493431e+00 3.902090e+01 1.432259e+01
      vertex -2.277039e+00 2.149659e+01 1.432259e+01
      vertex -2.567902e-01 3.857344e+01 1.432259e+01
    endloop
  endfacet
  facet normal 3.407641e-16 1.964019e-16 1.000000e+00
    outer loop
      vertex -2.567902e-01 3.857344e+01 1.432259e+01
      vertex -2.277039e+00 2.149659e+01 1.432259e+01
      vertex 5.201614e+00 1.970193e+01 1.432259e+01
    endloop
  endfacet
  facet normal 3.407641e-16 1.964019e-16 1.000000e+00
    outer loop
      vertex -2.567902e-01 3.857344e+01 1.432259e+01
      vertex 5.201614e+00 1.970193e+01 1.432259e+01
      vertex 4.720978e+00 3.785059e+01 1.432259e+01
    endloop
  endfacet
  facet normal 3.407641e-16 1.964019e-16 1.000000e+00
    outer loop
      vertex 4.720978e+00 3.785059e+01 1.432259e+01
      vertex 5.201614e+00 1.970193e+01 1.432259e+01
      vertex 1.033414e+01 3.679928e+01 1.432259e+01
    endloop
  endfacet
  facet normal 3.407641e-16 1.964019e-16 1.000000e+00
    outer loop
      vertex 1.033414e+01 3.679928e+01 1.432259e+01
      vertex 5.201614e+00 1.970193e+01 1.432259e+01
      vertex 1.212531e+01 1.796642e+01 1.432259e+01
    endloop
  endfacet
  facet normal 3.407641e-16 1.964019e-16 1.000000e+00
    outer loop
      vertex 1.033414e+01 3.679928e+01 1.432259e+01
      vertex 1.212531e+01 1.796642e+01 1.432259e+01
      vertex 1.647692e+01 3.536642e+01 1.432259e+01
    endloop
  endfacet
  facet normal 3.407641e-16 1.964019e-16 1.000000e+00
    outer loop
      vertex 1.647692e+01 3.536642e+01 1.432259e+01
      vertex 1.212531e+01 1.796642e+01 1.432259e+01
      vertex 1.851997e+01 1.624913e+01 1.432259e+01
    endloop
  endfacet
  facet normal 3.407641e-16 1.964019e-16 1.000000e+00
    outer loop
      vertex 1.647692e+01 3.536642e+01 1.432259e+01
      vertex 1.851997e+01 1.624913e+01 1.432259e+01
      vertex 2.304359e+01 3.349895e+01 1.432259e+01
    endloop
  endfacet
  facet normal 3.407641e-16 1.964019e-16 1.000000e+00
    outer loop
      vertex 2.304359e+01 3.349895e+01 1.432259e+01
      vertex 1.851997e+01 1.624913e+01 1.432259e+01
      vertex 2.441148e+01 1.450917e+01 1.432259e+01
    endloop
  endfacet
  facet normal 3.407641e-16 1.964019e-16 1.000000e+00
    outer loop
      vertex 2.304359e+01 3.349895e+01 1.432259e+01
      vertex 2.441148e+01 1.450917e+01 1.432259e+01
      vertex 2.992837e+01 3.114377e+01 1.432259e+01
    endloop
  endfacet
  facet normal 3.407641e-16 1.964019e-16 1.000000e+00
    outer loop
      vertex 2.992837e+01 3.114377e+01 1.432259e+01
      vertex 2.441148e+01 1.450917e+01 1.432259e+01
      vertex 2.982575e+01 1.270561e+01 1.432259e+01
    endloop
  endfacet
  facet normal 3.407641e-16 1.964019e-16 1.000000e+00
    outer loop
      vertex 2.992837e+01 3.114377e+01 1.432259e+01
      vertex 2.982575e+01 1.270561e+01 1.432259e+01
      vertex 3.478870e+01 1.079755e+01 1.432259e+01
    endloop
  endfacet
  facet normal 3.407641e-16 1.964019e-16 1.000000e+00
    outer loop
      vertex 2.992837e+01 3.114377e+01 1.432259e+01
      vertex 3.478870e+01 1.079755e+01 1.432259e+01
      vertex 3.702553e+01 2.824781e+01 1.432259e+01
    endloop
  endfacet
  facet normal 3.407641e-16 1.964019e-16 1.000000e+00
    outer loop
      vertex 3.702553e+01 2.824781e+01 1.432259e+01
      vertex 3.478870e+01 1.079755e+01 1.432259e+01
      vertex 3.932623e+01 8.744078e+00 1.432259e+01
    endloop
  endfacet
  facet normal 3.407641e-16 1.964019e-16 1.000000e+00
    outer loop
      vertex 3.702553e+01 2.824781e+01 1.432259e+01
      vertex 3.932623e+01 8.744078e+00 1.432259e+01
      vertex 4.422929e+01 2.475800e+01 1.432259e+01
    endloop
  endfacet
  facet normal 3.407641e-16 1.964019e-16 1.000000e+00
    outer loop
      vertex 4.422929e+01 2.475800e+01 1.432259e+01
      vertex 3.932623e+01 8.744078e+00 1.432259e+01
      vertex 4.346423e+01 6.504280e+00 1.432259e+01
    endloop
  endfacet
  facet normal 3.407641e-16 1.964019e-16 1.000000e+00
    outer loop
      vertex 4.422929e+01 2.475800e+01 1.432259e+01
      vertex 4.346423e+01 6.504280e+00 1.432259e+01
      vertex 4.722864e+01 4.037245e+00 1.432259e+01
    endloop
  endfacet
  facet normal 3.407641e-16 1.964019e-16 1.000000e+00
    outer loop
      vertex 4.422929e+01 2.475800e+01 1.432259e+01
      vertex 4.722864e+01 4.037245e+00 1.432259e+01
      vertex 5.143391e+01 2.062126e+01 1.432259e+01
    endloop
  endfacet
  facet normal 3.407641e-16 1.964019e-16 1.000000e+00
    outer loop
      vertex 5.143391e+01 2.062126e+01 1.432259e+01
      vertex 4.722864e+01 4.037245e+00 1.432259e+01
      vertex 5.064532e+01 1.302061e+00 1.432259e+01
    endloop
  endfacet
  facet normal 3.407641e-16 1.964019e-16 1.000000e+00
    outer loop
      vertex 5.143391e+01 2.062126e+01 1.432259e+01
      vertex 5.064532e+01 1.302061e+00 1.432259e+01
      vertex 5.374020e+01 -1.742186e+00 1.432259e+01
    endloop
  endfacet
  facet normal 3.407641e-16 1.964019e-16 1.000000e+00
    outer loop
      vertex 5.143391e+01 2.062126e+01 1.432259e+01
      vertex 5.374020e+01 -1.742186e+00 1.432259e+01
      vertex 5.853365e+01 1.578450e+01 1.432259e+01
    endloop
  endfacet
  facet normal 3.407641e-16 1.964019e-16 1.000000e+00
    outer loop
      vertex 5.853365e+01 1.578450e+01 1.432259e+01
      vertex 5.374020e+01 -1.742186e+00 1.432259e+01
      vertex 5.653920e+01 -5.136400e+00 1.432259e+01
    endloop
  endfacet
  facet normal 3.407641e-16 1.964019e-16 1.000000e+00
    outer loop
      vertex 5.853365e+01 1.578450e+01 1.432259e+01
      vertex 5.653920e+01 -5.136400e+00 1.432259e+01
      vertex 5.906821e+01 -8.921499e+00 1.432259e+01
    endloop
  endfacet
  facet normal 3.407641e-16 1.964019e-16 1.000000e+00
    outer loop
      vertex 5.853365e+01 1.578450e+01 1.432259e+01
      vertex 5.906821e+01 -8.921499e+00 1.432259e+01
      vertex 6.542273e+01 1.019466e+01 1.432259e+01
    endloop
  endfacet
  facet normal 3.407641e-16 1.964019e-16 1.000000e+00
    outer loop
      vertex 6.542273e+01 1.019466e+01 1.432259e+01
      vertex 5.906821e+01 -8.921499e+00 1.432259e+01
      vertex 6.135312e+01 -1.313839e+01 1.432259e+01
    endloop
  endfacet
  facet normal 3.407641e-16 1.964019e-16 1.000000e+00
    outer loop
      vertex 6.542273e+01 1.019466e+01 1.432259e+01
      vertex 6.135312e+01 -1.313839e+01 1.432259e+01
      vertex 6.341986e+01 -1.782799e+01 1.432259e+01
    endloop
  endfacet
  facet normal 3.407641e-16 1.964019e-16 1.000000e+00
    outer loop
      vertex 6.542273e+01 1.019466e+01 1.432259e+01
      vertex 6.341986e+01 -1.782799e+01 1.432259e+01
      vertex 6.529431e+01 -2.303120e+01 1.432259e+01
    endloop
  endfacet
  facet normal 3.407641e-16 1.964019e-16 1.000000e+00
    outer loop
      vertex 6.542273e+01 1.019466e+01 1.432259e+01
      vertex 6.529431e+01 -2.303120e+01 1.432259e+01
      vertex 6.700241e+01 -2.878895e+01 1.432259e+01
    endloop
  endfacet
  facet normal 3.407641e-16 1.964019e-16 1.000000e+00
    outer loop
      vertex 6.542273e+01 1.019466e+01 1.432259e+01
      vertex 6.700241e+01 -2.878895e+01 1.432259e+01
      vertex 7.199541e+01 3.798645e+00 1.432259e+01
    endloop
  endfacet
  facet normal 3.407641e-16 1.964019e-16 1.000000e+00
    outer loop
      vertex 7.199541e+01 3.798645e+00 1.432259e+01
      vertex 6.700241e+01 -2.878895e+01 1.432259e+01
      vertex 6.857004e+01 -3.514213e+01 1.432259e+01
    endloop
  endfacet
  facet normal 3.407641e-16 1.964019e-16 1.000000e+00
    outer loop
      vertex 7.199541e+01 3.798645e+00 1.432259e+01
      vertex 6.857004e+01 -3.514213e+01 1.432259e+01
      vertex 7.002312e+01 -4.213166e+01 1.432259e+01
    endloop
  endfacet
  facet normal 3.407641e-16 1.964019e-16 1.000000e+00
    outer loop
      vertex 7.199541e+01 3.798645e+00 1.432259e+01
      vertex 7.002312e+01 -4.213166e+01 1.432259e+01
      vertex 9.641142e+01 -4.213166e+01 1.432259e+01
    endloop
  endfacet
  facet normal 3.407641e-16 1.964019e-16 1.000000e+00
    outer loop
      vertex 7.199541e+01 3.798645e+00 1.432259e+01
      vertex 9.641142e+01 -4.213166e+01 1.432259e+01
      vertex 7.814594e+01 -3.456614e+00 1.432259e+01
    endloop
  endfacet
  facet normal 3.407641e-16 1.964019e-16 1.000000e+00
    outer loop
      vertex 7.814594e+01 -3.456614e+00 1.432259e+01
      vertex 9.641142e+01 -4.213166e+01 1.432259e+01
      vertex 8.376855e+01 -1.162420e+01 1.432259e+01
    endloop
  endfacet
  facet normal 3.407641e-16 1.964019e-16 1.000000e+00
    outer loop
      vertex 8.376855e+01 -1.162420e+01 1.432259e+01
      vertex 9.641142e+01 -4.213166e+01 1.432259e+01
      vertex 8.875751e+01 -2.075718e+01 1.432259e+01
    endloop
  endfacet
  facet normal 3.407641e-16 1.964019e-16 1.000000e+00
    outer loop
      vertex 8.875751e+01 -2.075718e+01 1.432259e+01
      vertex 9.641142e+01 -4.213166e+01 1.432259e+01
      vertex 9.300705e+01 -3.090864e+01 1.432259e+01
    endloop
  endfacet
  facet normal 9.569780e-01 2.901235e-01 4.643128e-03
    outer loop
      vertex 6.514880e+01 -2.298222e+01 3.353109e+01
      vertex 6.689856e+01 -2.875399e+01 3.354118e+01
      vertex 6.700241e+01 -2.878895e+01 1.432259e+01
    endloop
  endfacet
  facet normal 9.586825e-01 2.844031e-01 6.536897e-03
    outer loop
      vertex 6.514880e+01 -2.298222e+01 3.353109e+01
      vertex 6.700241e+01 -2.878895e+01 1.432259e+01
      vertex 6.529431e+01 -2.303120e+01 1.432259e+01
    endloop
  endfacet
  facet normal 9.708778e-01 2.395615e-01 2.571508e-03
    outer loop
      vertex 6.700241e+01 -2.878895e+01 1.432259e+01
      vertex 6.851463e+01 -3.512348e+01 3.350321e+01
      vertex 6.857004e+01 -3.514213e+01 1.432259e+01
    endloop
  endfacet
  facet normal 9.692837e-01 2.458986e-01 4.790068e-03
    outer loop
      vertex 6.689856e+01 -2.875399e+01 3.354118e+01
      vertex 6.851463e+01 -3.512348e+01 3.350321e+01
      vertex 6.700241e+01 -2.878895e+01 1.432259e+01
    endloop
  endfacet
  facet normal 9.790665e-01 2.035408e-01 -8.461543e-14
    outer loop
      vertex 6.857004e+01 -3.514213e+01 1.432259e+01
      vertex 7.002312e+01 -4.213166e+01 3.341938e+01
      vertex 7.002312e+01 -4.213166e+01 1.432259e+01
    endloop
  endfacet
  facet normal 9.776129e-01 2.103951e-01 2.619326e-03
    outer loop
      vertex 6.851463e+01 -3.512348e+01 3.350321e+01
      vertex 7.002312e+01 -4.213166e+01 3.341938e+01
      vertex 6.857004e+01 -3.514213e+01 1.432259e+01
    endloop
  endfacet
  facet normal 6.245872e-01 7.809371e-01 5.295283e-03
    outer loop
      vertex 5.038156e+01 1.390856e+00 3.233790e+01
      vertex 5.064532e+01 1.302061e+00 1.432259e+01
      vertex 4.696536e+01 4.125875e+00 3.192969e+01
    endloop
  endfacet
  facet normal 6.249412e-01 7.806530e-01 5.414838e-03
    outer loop
      vertex 4.696536e+01 4.125875e+00 3.192969e+01
      vertex 5.064532e+01 1.302061e+00 1.432259e+01
      vertex 4.722864e+01 4.037245e+00 1.432259e+01
    endloop
  endfacet
  facet normal 2.288515e-01 9.734613e-01 -4.119732e-04
    outer loop
      vertex -2.321671e+00 2.151162e+01 2.503526e+01
      vertex -2.277039e+00 2.149659e+01 1.432259e+01
      vertex -1.033654e+01 2.339130e+01 1.432259e+01
    endloop
  endfacet
  facet normal 2.283296e-01 9.735839e-01 2.051637e-14
    outer loop
      vertex -2.321671e+00 2.151162e+01 2.503526e+01
      vertex -1.033654e+01 2.339130e+01 1.432259e+01
      vertex -1.033654e+01 2.339130e+01 2.387098e+01
    endloop
  endfacet
  facet normal 2.832399e-01 9.590490e-01 -5.060885e-04
    outer loop
      vertex 2.422582e+01 1.457167e+01 2.885920e+01
      vertex 2.441148e+01 1.450917e+01 1.432259e+01
      vertex 1.851997e+01 1.624913e+01 1.432259e+01
    endloop
  endfacet
  facet normal -1.836712e-17 -1.077058e-16 -1.000000e+00
    outer loop
      vertex -7.911491e+01 3.924604e+01 1.758160e-14
      vertex -9.641142e+01 -4.690586e+01 3.121079e-16
      vertex -9.641142e+01 3.924604e+01 2.421619e-14
    endloop
  endfacet
  facet normal -1.836712e-17 -1.077058e-16 -1.000000e+00
    outer loop
      vertex -9.641142e+01 -4.690586e+01 3.121079e-16
      vertex -7.911491e+01 3.924604e+01 1.758160e-14
      vertex 9.641142e+01 -4.690586e+01 5.237151e-14
    endloop
  endfacet
  facet normal -1.836712e-17 -1.077058e-16 -1.000000e+00
    outer loop
      vertex 9.641142e+01 -4.690586e+01 5.237151e-14
      vertex -7.911491e+01 3.924604e+01 1.758160e-14
      vertex -7.911491e+01 4.690586e+01 0.000000e+00
    endloop
  endfacet
  facet normal -1.836712e-17 -1.077058e-16 -1.000000e+00
    outer loop
      vertex 9.641142e+01 -4.690586e+01 5.237151e-14
      vertex -7.911491e+01 4.690586e+01 0.000000e+00
      vertex -1.032027e+01 3.930196e+01 4.424263e-15
    endloop
  endfacet
  facet normal -1.836712e-17 -1.077058e-16 -1.000000e+00
    outer loop
      vertex -1.032027e+01 3.930196e+01 4.424263e-15
      vertex -7.911491e+01 4.690586e+01 0.000000e+00
      vertex -1.032027e+01 4.690586e+01 4.424263e-15
    endloop
  endfacet
  facet normal -1.836712e-17 -1.077058e-16 -1.000000e+00
    outer loop
      vertex 9.641142e+01 -4.690586e+01 5.237151e-14
      vertex -1.032027e+01 3.930196e+01 4.424263e-15
      vertex -7.883179e+00 3.924604e+01 4.424263e-15
    endloop
  endfacet
  facet normal -1.836712e-17 -1.077058e-16 -1.000000e+00
    outer loop
      vertex 9.641142e+01 -4.690586e+01 5.237151e-14
      vertex -7.883179e+00 3.924604e+01 4.424263e-15
      vertex -4.493431e+00 3.902090e+01 4.424263e-15
    endloop
  endfacet
  facet normal -1.836712e-17 -1.077058e-16 -1.000000e+00
    outer loop
      vertex 9.641142e+01 -4.690586e+01 5.237151e-14
      vertex -4.493431e+00 3.902090e+01 4.424263e-15
      vertex -2.567902e-01 3.857344e+01 4.424263e-15
    endloop
  endfacet
  facet normal -1.836712e-17 -1.077058e-16 -1.000000e+00
    outer loop
      vertex 9.641142e+01 -4.690586e+01 5.237151e-14
      vertex -2.567902e-01 3.857344e+01 4.424263e-15
      vertex 4.720978e+00 3.785059e+01 4.424263e-15
    endloop
  endfacet
  facet normal -1.836712e-17 -1.077058e-16 -1.000000e+00
    outer loop
      vertex 9.641142e+01 -4.690586e+01 5.237151e-14
      vertex 4.720978e+00 3.785059e+01 4.424263e-15
      vertex 1.033414e+01 3.679928e+01 4.424263e-15
    endloop
  endfacet
  facet normal -1.836712e-17 -1.077058e-16 -1.000000e+00
    outer loop
      vertex 9.641142e+01 -4.690586e+01 5.237151e-14
      vertex 1.033414e+01 3.679928e+01 4.424263e-15
      vertex 1.647692e+01 3.536642e+01 4.424263e-15
    endloop
  endfacet
  facet normal -1.836712e-17 -1.077058e-16 -1.000000e+00
    outer loop
      vertex 9.641142e+01 -4.690586e+01 5.237151e-14
      vertex 1.647692e+01 3.536642e+01 4.424263e-15
      vertex 2.304359e+01 3.349895e+01 4.424263e-15
    endloop
  endfacet
  facet normal -1.836712e-17 -1.077058e-16 -1.000000e+00
    outer loop
      vertex 9.641142e+01 -4.690586e+01 5.237151e-14
      vertex 2.304359e+01 3.349895e+01 4.424263e-15
      vertex 2.992837e+01 3.114377e+01 4.424263e-15
    endloop
  endfacet
  facet normal -1.836712e-17 -1.077058e-16 -1.000000e+00
    outer loop
      vertex 9.641142e+01 -4.690586e+01 5.237151e-14
      vertex 2.992837e+01 3.114377e+01 4.424263e-15
      vertex 3.702553e+01 2.824781e+01 4.424263e-15
    endloop
  endfacet
  facet normal -1.836712e-17 -1.077058e-16 -1.000000e+00
    outer loop
      vertex 9.641142e+01 -4.690586e+01 5.237151e-14
      vertex 3.702553e+01 2.824781e+01 4.424263e-15
      vertex 4.422929e+01 2.475800e+01 4.424263e-15
    endloop
  endfacet
  facet normal -1.836712e-17 -1.077058e-16 -1.000000e+00
    outer loop
      vertex 9.641142e+01 -4.690586e+01 5.237151e-14
      vertex 4.422929e+01 2.475800e+01 4.424263e-15
      vertex 5.143391e+01 2.062126e+01 4.424263e-15
    endloop
  endfacet
  facet normal -1.836712e-17 -1.077058e-16 -1.000000e+00
    outer loop
      vertex 9.641142e+01 -4.690586e+01 5.237151e-14
      vertex 5.143391e+01 2.062126e+01 4.424263e-15
      vertex 5.853365e+01 1.578450e+01 4.424263e-15
    endloop
  endfacet
  facet normal -1.836712e-17 -1.077058e-16 -1.000000e+00
    outer loop
      vertex 9.641142e+01 -4.690586e+01 5.237151e-14
      vertex 5.853365e+01 1.578450e+01 4.424263e-15
      vertex 6.542273e+01 1.019466e+01 4.424263e-15
    endloop
  endfacet
  facet normal -1.836712e-17 -1.077058e-16 -1.000000e+00
    outer loop
      vertex 9.641142e+01 -4.690586e+01 5.237151e-14
      vertex 6.542273e+01 1.019466e+01 4.424263e-15
      vertex 7.199541e+01 3.798645e+00 4.424263e-15
    endloop
  endfacet
  facet normal -1.836712e-17 -1.077058e-16 -1.000000e+00
    outer loop
      vertex 9.641142e+01 -4.690586e+01 5.237151e-14
      vertex 7.199541e+01 3.798645e+00 4.424263e-15
      vertex 7.814594e+01 -3.456614e+00 4.424263e-15
    endloop
  endfacet
  facet normal -1.836712e-17 -1.077058e-16 -1.000000e+00
    outer loop
      vertex 9.641142e+01 -4.690586e+01 5.237151e-14
      vertex 7.814594e+01 -3.456614e+00 4.424263e-15
      vertex 8.376855e+01 -1.162420e+01 4.424263e-15
    endloop
  endfacet
  facet normal -1.836712e-17 -1.077058e-16 -1.000000e+00
    outer loop
      vertex 9.641142e+01 -4.690586e+01 5.237151e-14
      vertex 8.376855e+01 -1.162420e+01 4.424263e-15
      vertex 8.875751e+01 -2.075718e+01 4.424263e-15
    endloop
  endfacet
  facet normal -1.836712e-17 -1.077058e-16 -1.000000e+00
    outer loop
      vertex 9.641142e+01 -4.690586e+01 5.237151e-14
      vertex 8.875751e+01 -2.075718e+01 4.424263e-15
      vertex 9.300705e+01 -3.090864e+01 4.424263e-15
    endloop
  endfacet
  facet normal -1.836712e-17 -1.077058e-16 -1.000000e+00
    outer loop
      vertex 9.641142e+01 -4.690586e+01 5.237151e-14
      vertex 9.300705e+01 -3.090864e+01 4.424263e-15
      vertex 9.641142e+01 -4.213166e+01 4.424263e-15
    endloop
  endfacet
  facet normal 2.293777e-02 9.997369e-01 0.000000e+00
    outer loop
      vertex -1.032027e+01 3.930196e+01 1.432259e+01
      vertex -7.883179e+00 3.924604e+01 4.424263e-15
      vertex -1.032027e+01 3.930196e+01 4.424263e-15
    endloop
  endfacet
  facet normal 2.293777e-02 9.997369e-01 0.000000e+00
    outer loop
      vertex -7.883179e+00 3.924604e+01 4.424263e-15
      vertex -1.032027e+01 3.930196e+01 1.432259e+01
      vertex -7.883179e+00 3.924604e+01 1.432259e+01
    endloop
  endfacet
  facet normal 6.627437e-02 9.978014e-01 0.000000e+00
    outer loop
      vertex -7.883179e+00 3.924604e+01 1.432259e+01
      vertex -4.493431e+00 3.902090e+01 4.424263e-15
      vertex -7.883179e+00 3.924604e+01 4.424263e-15
    endloop
  endfacet
  facet normal 6.627437e-02 9.978014e-01 0.000000e+00
    outer loop
      vertex -4.493431e+00 3.902090e+01 4.424263e-15
      vertex -7.883179e+00 3.924604e+01 1.432259e+01
      vertex -4.493431e+00 3.902090e+01 1.432259e+01
    endloop
  endfacet
  facet normal 1.050322e-01 9.944688e-01 0.000000e+00
    outer loop
      vertex -4.493431e+00 3.902090e+01 1.432259e+01
      vertex -2.567902e-01 3.857344e+01 4.424263e-15
      vertex -4.493431e+00 3.902090e+01 4.424263e-15
    endloop
  endfacet
  facet normal 1.050322e-01 9.944688e-01 0.000000e+00
    outer loop
      vertex -2.567902e-01 3.857344e+01 4.424263e-15
      vertex -4.493431e+00 3.902090e+01 1.432259e+01
      vertex -2.567902e-01 3.857344e+01 1.432259e+01
    endloop
  endfacet
  facet normal 1.437074e-01 9.896202e-01 0.000000e+00
    outer loop
      vertex -2.567902e-01 3.857344e+01 1.432259e+01
      vertex 4.720978e+00 3.785059e+01 4.424263e-15
      vertex -2.567902e-01 3.857344e+01 4.424263e-15
    endloop
  endfacet
  facet normal 1.437074e-01 9.896202e-01 0.000000e+00
    outer loop
      vertex 4.720978e+00 3.785059e+01 4.424263e-15
      vertex -2.567902e-01 3.857344e+01 1.432259e+01
      vertex 4.720978e+00 3.785059e+01 1.432259e+01
    endloop
  endfacet
  facet normal 1.840931e-01 9.829088e-01 5.065860e-18
    outer loop
      vertex 4.720978e+00 3.785059e+01 1.432259e+01
      vertex 1.033414e+01 3.679928e+01 4.424263e-15
      vertex 4.720978e+00 3.785059e+01 4.424263e-15
    endloop
  endfacet
  facet normal 1.840931e-01 9.829088e-01 5.065860e-18
    outer loop
      vertex 1.033414e+01 3.679928e+01 4.424263e-15
      vertex 4.720978e+00 3.785059e+01 1.432259e+01
      vertex 1.033414e+01 3.679928e+01 1.432259e+01
    endloop
  endfacet
  facet normal 2.271603e-01 9.738574e-01 0.000000e+00
    outer loop
      vertex 1.033414e+01 3.679928e+01 1.432259e+01
      vertex 1.647692e+01 3.536642e+01 4.424263e-15
      vertex 1.033414e+01 3.679928e+01 4.424263e-15
    endloop
  endfacet
  facet normal 2.271603e-01 9.738574e-01 0.000000e+00
    outer loop
      vertex 1.647692e+01 3.536642e+01 4.424263e-15
      vertex 1.033414e+01 3.679928e+01 1.432259e+01
      vertex 1.647692e+01 3.536642e+01 1.432259e+01
    endloop
  endfacet
  facet normal 2.735412e-01 9.618603e-01 -4.623090e-32
    outer loop
      vertex 1.647692e+01 3.536642e+01 1.432259e+01
      vertex 2.304359e+01 3.349895e+01 4.424263e-15
      vertex 1.647692e+01 3.536642e+01 4.424263e-15
    endloop
  endfacet
  facet normal 2.735412e-01 9.618603e-01 -4.623090e-32
    outer loop
      vertex 2.304359e+01 3.349895e+01 4.424263e-15
      vertex 1.647692e+01 3.536642e+01 1.432259e+01
      vertex 2.304359e+01 3.349895e+01 1.432259e+01
    endloop
  endfacet
  facet normal 3.236700e-01 9.461700e-01 0.000000e+00
    outer loop
      vertex 2.304359e+01 3.349895e+01 1.432259e+01
      vertex 2.992837e+01 3.114377e+01 4.424263e-15
      vertex 2.304359e+01 3.349895e+01 4.424263e-15
    endloop
  endfacet
  facet normal 3.236700e-01 9.461700e-01 0.000000e+00
    outer loop
      vertex 2.992837e+01 3.114377e+01 4.424263e-15
      vertex 2.304359e+01 3.349895e+01 1.432259e+01
      vertex 2.992837e+01 3.114377e+01 1.432259e+01
    endloop
  endfacet
  facet normal 3.778028e-01 9.258860e-01 5.799545e-32
    outer loop
      vertex 2.992837e+01 3.114377e+01 1.432259e+01
      vertex 3.702553e+01 2.824781e+01 4.424263e-15
      vertex 2.992837e+01 3.114377e+01 4.424263e-15
    endloop
  endfacet
  facet normal 3.778028e-01 9.258860e-01 5.799545e-32
    outer loop
      vertex 3.702553e+01 2.824781e+01 4.424263e-15
      vertex 2.992837e+01 3.114377e+01 1.432259e+01
      vertex 3.702553e+01 2.824781e+01 1.432259e+01
    endloop
  endfacet
  facet normal 4.359777e-01 8.999575e-01 -6.447451e-32
    outer loop
      vertex 3.702553e+01 2.824781e+01 1.432259e+01
      vertex 4.422929e+01 2.475800e+01 4.424263e-15
      vertex 3.702553e+01 2.824781e+01 4.424263e-15
    endloop
  endfacet
  facet normal 4.359777e-01 8.999575e-01 -6.447451e-32
    outer loop
      vertex 4.422929e+01 2.475800e+01 4.424263e-15
      vertex 3.702553e+01 2.824781e+01 1.432259e+01
      vertex 4.422929e+01 2.475800e+01 1.432259e+01
    endloop
  endfacet
  facet normal 4.979359e-01 8.672138e-01 -7.130033e-32
    outer loop
      vertex 4.422929e+01 2.475800e+01 1.432259e+01
      vertex 5.143391e+01 2.062126e+01 4.424263e-15
      vertex 4.422929e+01 2.475800e+01 4.424263e-15
    endloop
  endfacet
  facet normal 4.979359e-01 8.672138e-01 -7.130033e-32
    outer loop
      vertex 5.143391e+01 2.062126e+01 4.424263e-15
      vertex 4.422929e+01 2.475800e+01 1.432259e+01
      vertex 5.143391e+01 2.062126e+01 1.432259e+01
    endloop
  endfacet
  facet normal 5.630212e-01 8.264424e-01 0.000000e+00
    outer loop
      vertex 5.143391e+01 2.062126e+01 1.432259e+01
      vertex 5.853365e+01 1.578450e+01 4.424263e-15
      vertex 5.143391e+01 2.062126e+01 4.424263e-15
    endloop
  endfacet
  facet normal 5.630212e-01 8.264424e-01 0.000000e+00
    outer loop
      vertex 5.853365e+01 1.578450e+01 4.424263e-15
      vertex 5.143391e+01 2.062126e+01 1.432259e+01
      vertex 5.853365e+01 1.578450e+01 1.432259e+01
    endloop
  endfacet
  facet normal 6.300808e-01 7.765296e-01 0.000000e+00
    outer loop
      vertex 5.853365e+01 1.578450e+01 1.432259e+01
      vertex 6.542273e+01 1.019466e+01 4.424263e-15
      vertex 5.853365e+01 1.578450e+01 4.424263e-15
    endloop
  endfacet
  facet normal 6.300808e-01 7.765296e-01 0.000000e+00
    outer loop
      vertex 6.542273e+01 1.019466e+01 4.424263e-15
      vertex 5.853365e+01 1.578450e+01 1.432259e+01
      vertex 6.542273e+01 1.019466e+01 1.432259e+01
    endloop
  endfacet
  facet normal 6.974093e-01 7.166730e-01 9.261953e-32
    outer loop
      vertex 6.542273e+01 1.019466e+01 1.432259e+01
      vertex 7.199541e+01 3.798645e+00 4.424263e-15
      vertex 6.542273e+01 1.019466e+01 4.424263e-15
    endloop
  endfacet
  facet normal 6.974093e-01 7.166730e-01 9.261953e-32
    outer loop
      vertex 7.199541e+01 3.798645e+00 4.424263e-15
      vertex 6.542273e+01 1.019466e+01 1.432259e+01
      vertex 7.199541e+01 3.798645e+00 1.432259e+01
    endloop
  endfacet
  facet normal 7.627917e-01 6.466442e-01 1.397615e-17
    outer loop
      vertex 7.199541e+01 3.798645e+00 4.424263e-15
      vertex 7.814594e+01 -3.456614e+00 1.432259e+01
      vertex 7.814594e+01 -3.456614e+00 4.424263e-15
    endloop
  endfacet
  facet normal 7.627917e-01 6.466442e-01 1.397615e-17
    outer loop
      vertex 7.814594e+01 -3.456614e+00 1.432259e+01
      vertex 7.199541e+01 3.798645e+00 4.424263e-15
      vertex 7.199541e+01 3.798645e+00 1.432259e+01
    endloop
  endfacet
  facet normal 8.236931e-01 5.670359e-01 1.482332e-17
    outer loop
      vertex 7.814594e+01 -3.456614e+00 4.424263e-15
      vertex 8.376855e+01 -1.162420e+01 1.432259e+01
      vertex 8.376855e+01 -1.162420e+01 4.424263e-15
    endloop
  endfacet
  facet normal 8.236931e-01 5.670359e-01 1.482332e-17
    outer loop
      vertex 8.376855e+01 -1.162420e+01 1.432259e+01
      vertex 7.814594e+01 -3.456614e+00 4.424263e-15
      vertex 7.814594e+01 -3.456614e+00 1.432259e+01
    endloop
  endfacet
  facet normal 8.775994e-01 4.793947e-01 0.000000e+00
    outer loop
      vertex 8.376855e+01 -1.162420e+01 4.424263e-15
      vertex 8.875751e+01 -2.075718e+01 1.432259e+01
      vertex 8.875751e+01 -2.075718e+01 4.424263e-15
    endloop
  endfacet
  facet normal 8.775994e-01 4.793947e-01 0.000000e+00
    outer loop
      vertex 8.875751e+01 -2.075718e+01 1.432259e+01
      vertex 8.376855e+01 -1.162420e+01 4.424263e-15
      vertex 8.376855e+01 -1.162420e+01 1.432259e+01
    endloop
  endfacet
  facet normal 9.224381e-01 3.861449e-01 0.000000e+00
    outer loop
      vertex 8.875751e+01 -2.075718e+01 4.424263e-15
      vertex 9.300705e+01 -3.090864e+01 1.432259e+01
      vertex 9.300705e+01 -3.090864e+01 4.424263e-15
    endloop
  endfacet
  facet normal 9.224381e-01 3.861449e-01 0.000000e+00
    outer loop
      vertex 9.300705e+01 -3.090864e+01 1.432259e+01
      vertex 8.875751e+01 -2.075718e+01 4.424263e-15
      vertex 8.875751e+01 -2.075718e+01 1.432259e+01
    endloop
  endfacet
  facet normal 9.569427e-01 2.902769e-01 -1.170042e-31
    outer loop
      vertex 9.300705e+01 -3.090864e+01 4.424263e-15
      vertex 9.641142e+01 -4.213166e+01 1.432259e+01
      vertex 9.641142e+01 -4.213166e+01 4.424263e-15
    endloop
  endfacet
  facet normal 9.569427e-01 2.902769e-01 -1.170042e-31
    outer loop
      vertex 9.641142e+01 -4.213166e+01 1.432259e+01
      vertex 9.300705e+01 -3.090864e+01 4.424263e-15
      vertex 9.300705e+01 -3.090864e+01 1.432259e+01
    endloop
  endfacet
  facet normal -2.195043e-16 5.530653e-15 1.000000e+00
    outer loop
      vertex -1.033654e+01 -4.690586e+01 1.432259e+01
      vertex 7.002312e+01 -4.213166e+01 1.432259e+01
      vertex -1.033654e+01 -4.213166e+01 1.432259e+01
    endloop
  endfacet
  facet normal -2.195043e-16 5.530653e-15 1.000000e+00
    outer loop
      vertex 7.002312e+01 -4.213166e+01 1.432259e+01
      vertex -1.033654e+01 -4.690586e+01 1.432259e+01
      vertex 9.641142e+01 -4.690586e+01 1.432259e+01
    endloop
  endfacet
  facet normal -2.195043e-16 5.530653e-15 1.000000e+00
    outer loop
      vertex 7.002312e+01 -4.213166e+01 1.432259e+01
      vertex 9.641142e+01 -4.690586e+01 1.432259e+01
      vertex 9.641142e+01 -4.213166e+01 1.432259e+01
    endloop
  endfacet
  facet normal -1.000000e+00 5.759282e-16 -1.075214e-15
    outer loop
      vertex -7.911491e+01 -4.690586e+01 4.296777e+01
      vertex -7.911491e+01 2.816550e+01 1.432259e+01
      vertex -7.911491e+01 -4.690586e+01 1.432259e+01
    endloop
  endfacet
  facet normal -1.000000e+00 5.759282e-16 -1.075214e-15
    outer loop
      vertex -7.911491e+01 2.816550e+01 1.432259e+01
      vertex -7.911491e+01 -4.690586e+01 4.296777e+01
      vertex -7.911491e+01 -4.213166e+01 4.296777e+01
    endloop
  endfacet
  facet normal -1.000000e+00 5.759282e-16 -1.075214e-15
    outer loop
      vertex -7.911491e+01 2.816550e+01 1.432259e+01
      vertex -7.911491e+01 -4.213166e+01 4.296777e+01
      vertex -7.911491e+01 -9.370180e+00 3.819357e+01
    endloop
  endfacet
  facet normal -1.000000e+00 5.759282e-16 -1.075214e-15
    outer loop
      vertex -7.911491e+01 2.816550e+01 1.432259e+01
      vertex -7.911491e+01 -9.370180e+00 3.819357e+01
      vertex -7.911491e+01 2.339130e+01 4.296777e+01
    endloop
  endfacet
  facet normal -1.000000e+00 5.759282e-16 -1.075214e-15
    outer loop
      vertex -7.911491e+01 2.816550e+01 1.432259e+01
      vertex -7.911491e+01 2.339130e+01 4.296777e+01
      vertex -7.911491e+01 2.816550e+01 4.296777e+01
    endloop
  endfacet
  facet normal 2.660711e-01 -1.196959e-16 9.639534e-01
    outer loop
      vertex -9.641142e+01 -4.690586e+01 1.909679e+01
      vertex -7.911491e+01 3.924604e+01 1.432259e+01
      vertex -9.641142e+01 3.924604e+01 1.909679e+01
    endloop
  endfacet
  facet normal 2.660711e-01 -1.196959e-16 9.639534e-01
    outer loop
      vertex -7.911491e+01 3.924604e+01 1.432259e+01
      vertex -9.641142e+01 -4.690586e+01 1.909679e+01
      vertex -7.911491e+01 -4.690586e+01 1.432259e+01
    endloop
  endfacet
  facet normal 2.660711e-01 -1.196959e-16 9.639534e-01
    outer loop
      vertex -7.911491e+01 3.924604e+01 1.432259e+01
      vertex -7.911491e+01 -4.690586e+01 1.432259e+01
      vertex -7.911491e+01 2.816550e+01 1.432259e+01
    endloop
  endfacet
  facet normal -1.000000e+00 7.192164e-15 2.222388e-18
    outer loop
      vertex -7.911491e+01 4.690586e+01 1.432259e+01
      vertex -7.911491e+01 3.924604e+01 1.758160e-14
      vertex -7.911491e+01 3.924604e+01 1.432259e+01
    endloop
  endfacet
  facet normal -1.000000e+00 7.192164e-15 2.222388e-18
    outer loop
      vertex -7.911491e+01 3.924604e+01 1.758160e-14
      vertex -7.911491e+01 4.690586e+01 1.432259e+01
      vertex -7.911491e+01 4.690586e+01 0.000000e+00
    endloop
  endfacet
  facet normal -1.000000e+00 2.081668e-17 -1.093690e-17
    outer loop
      vertex -9.641142e+01 3.924604e+01 1.909679e+01
      vertex -9.641142e+01 -4.690586e+01 3.121079e-16
      vertex -9.641142e+01 -4.690586e+01 1.909679e+01
    endloop
  endfacet
  facet normal -1.000000e+00 2.081668e-17 -1.093690e-17
    outer loop
      vertex -9.641142e+01 -4.690586e+01 3.121079e-16
      vertex -9.641142e+01 3.924604e+01 1.909679e+01
      vertex -9.641142e+01 3.924604e+01 2.421619e-14
    endloop
  endfacet
  facet normal -9.020562e-17 1.442028e-01 9.895481e-01
    outer loop
      vertex -1.033654e+01 -4.213166e+01 4.296777e+01
      vertex -7.911491e+01 -9.370180e+00 3.819357e+01
      vertex -7.911491e+01 -4.213166e+01 4.296777e+01
    endloop
  endfacet
  facet normal -9.020562e-17 1.442028e-01 9.895481e-01
    outer loop
      vertex -7.911491e+01 -9.370180e+00 3.819357e+01
      vertex -1.033654e+01 -4.213166e+01 4.296777e+01
      vertex -1.033654e+01 -9.370180e+00 3.819357e+01
    endloop
  endfacet
  facet normal 7.329207e-17 -1.442028e-01 9.895481e-01
    outer loop
      vertex -1.033654e+01 -9.370180e+00 3.819357e+01
      vertex -7.911491e+01 2.339130e+01 4.296777e+01
      vertex -7.911491e+01 -9.370180e+00 3.819357e+01
    endloop
  endfacet
  facet normal 7.329207e-17 -1.442028e-01 9.895481e-01
    outer loop
      vertex -7.911491e+01 2.339130e+01 4.296777e+01
      vertex -1.033654e+01 -9.370180e+00 3.819357e+01
      vertex -1.033654e+01 2.339130e+01 4.296777e+01
    endloop
  endfacet
  facet normal -2.844947e-16 1.000000e+00 1.040164e-18
    outer loop
      vertex -7.911491e+01 4.690586e+01 1.432259e+01
      vertex -1.032027e+01 4.690586e+01 4.424263e-15
      vertex -7.911491e+01 4.690586e+01 0.000000e+00
    endloop
  endfacet
  facet normal -2.844947e-16 1.000000e+00 1.040164e-18
    outer loop
      vertex -1.032027e+01 4.690586e+01 4.424263e-15
      vertex -7.911491e+01 4.690586e+01 1.432259e+01
      vertex -1.032027e+01 4.690586e+01 1.432259e+01
    endloop
  endfacet
  facet normal 1.000000e+00 6.199902e-15 0.000000e+00
    outer loop
      vertex -1.032027e+01 4.690586e+01 4.424263e-15
      vertex -1.032027e+01 3.930196e+01 1.432259e+01
      vertex -1.032027e+01 3.930196e+01 4.424263e-15
    endloop
  endfacet
  facet normal 1.000000e+00 6.199902e-15 0.000000e+00
    outer loop
      vertex -1.032027e+01 3.930196e+01 1.432259e+01
      vertex -1.032027e+01 4.690586e+01 4.424263e-15
      vertex -1.032027e+01 4.690586e+01 1.432259e+01
    endloop
  endfacet
  facet normal 2.744333e-15 -1.000000e+00 2.528312e-15
    outer loop
      vertex 9.641142e+01 -4.690586e+01 1.432259e+01
      vertex -1.033654e+01 -4.690586e+01 1.432259e+01
      vertex 9.641142e+01 -4.690586e+01 5.237151e-14
    endloop
  endfacet
  facet normal 2.744333e-15 -1.000000e+00 2.528312e-15
    outer loop
      vertex -1.033654e+01 -4.690586e+01 4.296777e+01
      vertex -7.911491e+01 -4.690586e+01 1.432259e+01
      vertex -1.033654e+01 -4.690586e+01 1.432259e+01
    endloop
  endfacet
  facet normal 2.744333e-15 -1.000000e+00 2.528312e-15
    outer loop
      vertex -7.911491e+01 -4.690586e+01 1.432259e+01
      vertex -1.033654e+01 -4.690586e+01 4.296777e+01
      vertex -7.911491e+01 -4.690586e+01 4.296777e+01
    endloop
  endfacet
  facet normal 2.744333e-15 -1.000000e+00 2.528312e-15
    outer loop
      vertex -9.641142e+01 -4.690586e+01 3.121079e-16
      vertex -7.911491e+01 -4.690586e+01 1.432259e+01
      vertex -9.641142e+01 -4.690586e+01 1.909679e+01
    endloop
  endfacet
  facet normal 2.744333e-15 -1.000000e+00 2.528312e-15
    outer loop
      vertex -7.911491e+01 -4.690586e+01 1.432259e+01
      vertex -9.641142e+01 -4.690586e+01 3.121079e-16
      vertex 9.641142e+01 -4.690586e+01 5.237151e-14
    endloop
  endfacet
  facet normal 2.744333e-15 -1.000000e+00 2.528312e-15
    outer loop
      vertex -7.911491e+01 -4.690586e+01 1.432259e+01
      vertex 9.641142e+01 -4.690586e+01 5.237151e-14
      vertex -1.033654e+01 -4.690586e+01 1.432259e+01
    endloop
  endfacet
  facet normal 1.000000e+00 3.991599e-14 -3.310712e-19
    outer loop
      vertex 9.641142e+01 -4.213166e+01 4.424263e-15
      vertex 9.641142e+01 -4.690586e+01 1.432259e+01
      vertex 9.641142e+01 -4.690586e+01 5.237151e-14
    endloop
  endfacet
  facet normal 1.000000e+00 3.991599e-14 -3.310712e-19
    outer loop
      vertex 9.641142e+01 -4.690586e+01 1.432259e+01
      vertex 9.641142e+01 -4.213166e+01 4.424263e-15
      vertex 9.641142e+01 -4.213166e+01 1.432259e+01
    endloop
  endfacet
  facet normal 0.000000e+00 0.000000e+00 1.000000e+00
    outer loop
      vertex -7.911491e+01 -4.690586e+01 4.296777e+01
      vertex -1.033654e+01 -4.213166e+01 4.296777e+01
      vertex -7.911491e+01 -4.213166e+01 4.296777e+01
    endloop
  endfacet
  facet normal 0.000000e+00 0.000000e+00 1.000000e+00
    outer loop
      vertex -1.033654e+01 -4.213166e+01 4.296777e+01
      vertex -7.911491e+01 -4.690586e+01 4.296777e+01
      vertex -1.033654e+01 -4.690586e+01 4.296777e+01
    endloop
  endfacet
  facet normal 7.632783e-17 1.000000e+00 -7.253220e-18
    outer loop
      vertex -7.911491e+01 2.816550e+01 4.296777e+01
      vertex -1.033654e+01 2.816550e+01 1.432259e+01
      vertex -7.911491e+01 2.816550e+01 1.432259e+01
    endloop
  endfacet
  facet normal 7.632783e-17 1.000000e+00 -7.253220e-18
    outer loop
      vertex -1.033654e+01 2.816550e+01 1.432259e+01
      vertex -7.911491e+01 2.816550e+01 4.296777e+01
      vertex -1.033654e+01 2.816550e+01 4.296777e+01
    endloop
  endfacet
  facet normal 0.000000e+00 0.000000e+00 1.000000e+00
    outer loop
      vertex -7.911491e+01 2.339130e+01 4.296777e+01
      vertex -1.033654e+01 2.816550e+01 4.296777e+01
      vertex -7.911491e+01 2.816550e+01 4.296777e+01
    endloop
  endfacet
  facet normal 0.000000e+00 0.000000e+00 1.000000e+00
    outer loop
      vertex -1.033654e+01 2.816550e+01 4.296777e+01
      vertex -7.911491e+01 2.339130e+01 4.296777e+01
      vertex -1.033654e+01 2.339130e+01 4.296777e+01
    endloop
  endfacet
  facet normal 1.797174e-15 1.000000e+00 2.502948e-18
    outer loop
      vertex -9.641142e+01 3.924604e+01 2.421619e-14
      vertex -7.911491e+01 3.924604e+01 1.432259e+01
      vertex -7.911491e+01 3.924604e+01 1.758160e-14
    endloop
  endfacet
  facet normal 1.797174e-15 1.000000e+00 2.502948e-18
    outer loop
      vertex -7.911491e+01 3.924604e+01 1.432259e+01
      vertex -9.641142e+01 3.924604e+01 2.421619e-14
      vertex -9.641142e+01 3.924604e+01 1.909679e+01
    endloop
  endfacet
  facet normal 7.004917e-01 7.136310e-01 6.487202e-03
    outer loop
      vertex 5.348143e+01 -1.655062e+00 3.268263e+01
      vertex 5.374020e+01 -1.742186e+00 1.432259e+01
      vertex 5.038156e+01 1.390856e+00 3.233790e+01
    endloop
  endfacet
  facet normal 7.012338e-01 7.128994e-01 6.752792e-03
    outer loop
      vertex 5.038156e+01 1.390856e+00 3.233790e+01
      vertex 5.374020e+01 -1.742186e+00 1.432259e+01
      vertex 5.064532e+01 1.302061e+00 1.432259e+01
    endloop
  endfacet
  facet normal 7.703327e-01 6.375992e-01 7.396970e-03
    outer loop
      vertex 5.348143e+01 -1.655062e+00 3.268263e+01
      vertex 5.629103e+01 -5.052851e+00 3.296607e+01
      vertex 5.653920e+01 -5.136400e+00 1.432259e+01
    endloop
  endfacet
  facet normal 7.714874e-01 6.361961e-01 7.855333e-03
    outer loop
      vertex 5.348143e+01 -1.655062e+00 3.268263e+01
      vertex 5.653920e+01 -5.136400e+00 1.432259e+01
      vertex 5.374020e+01 -1.742186e+00 1.432259e+01
    endloop
  endfacet
  facet normal 8.299481e-01 5.577848e-01 7.886832e-03
    outer loop
      vertex 5.629103e+01 -5.052851e+00 3.296607e+01
      vertex 5.883647e+01 -8.843485e+00 3.319044e+01
      vertex 5.906821e+01 -8.921499e+00 1.432259e+01
    endloop
  endfacet
  facet normal 8.314513e-01 5.555314e-01 8.578325e-03
    outer loop
      vertex 5.629103e+01 -5.052851e+00 3.296607e+01
      vertex 5.906821e+01 -8.921499e+00 1.432259e+01
      vertex 5.653920e+01 -5.136400e+00 1.432259e+01
    endloop
  endfacet
  facet normal 8.774632e-01 4.795794e-01 7.871279e-03
    outer loop
      vertex 5.883647e+01 -8.843485e+00 3.319044e+01
      vertex 6.114386e+01 -1.306794e+01 3.335793e+01
      vertex 6.135312e+01 -1.313839e+01 1.432259e+01
    endloop
  endfacet
  facet normal 8.791908e-01 4.763881e-01 8.828155e-03
    outer loop
      vertex 5.883647e+01 -8.843485e+00 3.319044e+01
      vertex 6.135312e+01 -1.313839e+01 1.432259e+01
      vertex 5.906821e+01 -8.921499e+00 1.432259e+01
    endloop
  endfacet
endsolid Default
