solid Default
  facet normal 0.000000e+00 0.000000e+00 1.000000e+00
    outer loop
      vertex -1.506113e+00 -3.592344e+01 2.987040e+01
      vertex 1.364317e+00 -1.151790e+01 2.987040e+01
      vertex -1.683603e+00 -1.154009e+01 2.987040e+01
    endloop
  endfacet
  facet normal 0.000000e+00 0.000000e+00 1.000000e+00
    outer loop
      vertex 1.364317e+00 -1.151790e+01 2.987040e+01
      vertex -1.506113e+00 -3.592344e+01 2.987040e+01
      vertex 4.589724e+00 -3.587907e+01 2.987040e+01
    endloop
  endfacet
  facet normal 0.000000e+00 0.000000e+00 1.000000e+00
    outer loop
      vertex 1.364317e+00 -1.151790e+01 2.987040e+01
      vertex 4.589724e+00 -3.587907e+01 2.987040e+01
      vertex 4.412237e+00 -1.149571e+01 2.987040e+01
    endloop
  endfacet
  facet normal 0.000000e+00 0.000000e+00 1.000000e+00
    outer loop
      vertex 1.483591e+01 2.210905e+01 1.584960e+01
      vertex -4.591539e-01 2.961791e+01 1.584960e+01
      vertex -4.036882e-01 2.199812e+01 1.584960e+01
    endloop
  endfacet
  facet normal 0.000000e+00 0.000000e+00 1.000000e+00
    outer loop
      vertex 3.109768e+01 -1.130147e+01 1.584960e+01
      vertex 1.196548e+01 -2.296492e+00 1.584960e+01
      vertex 1.203203e+01 -1.144025e+01 1.584960e+01
    endloop
  endfacet
  facet normal 0.000000e+00 0.000000e+00 1.000000e+00
    outer loop
      vertex 1.196548e+01 -2.296492e+00 1.584960e+01
      vertex 3.109768e+01 -1.130147e+01 1.584960e+01
      vertex 1.501340e+01 -2.274305e+00 1.584960e+01
    endloop
  endfacet
  facet normal 0.000000e+00 0.000000e+00 1.000000e+00
    outer loop
      vertex 1.501340e+01 -2.274305e+00 1.584960e+01
      vertex 3.109768e+01 -1.130147e+01 1.584960e+01
      vertex 2.460249e+01 4.351670e+01 1.584960e+01
    endloop
  endfacet
  facet normal 0.000000e+00 0.000000e+00 1.000000e+00
    outer loop
      vertex 2.460249e+01 4.351670e+01 1.584960e+01
      vertex 3.067615e+01 4.660900e+01 1.584960e+01
      vertex 2.458031e+01 4.656462e+01 1.584960e+01
    endloop
  endfacet
  facet normal 0.000000e+00 0.000000e+00 1.000000e+00
    outer loop
      vertex 3.067615e+01 4.660900e+01 1.584960e+01
      vertex 2.460249e+01 4.351670e+01 1.584960e+01
      vertex 3.109768e+01 -1.130147e+01 1.584960e+01
    endloop
  endfacet
  facet normal 0.000000e+00 0.000000e+00 1.000000e+00
    outer loop
      vertex -2.484251e+01 2.944043e+01 1.584960e+01
      vertex -3.106037e+01 4.615961e+01 1.584960e+01
      vertex -3.093835e+01 2.939606e+01 1.584960e+01
    endloop
  endfacet
  facet normal 0.000000e+00 0.000000e+00 1.000000e+00
    outer loop
      vertex -3.106037e+01 4.615961e+01 1.584960e+01
      vertex -2.484251e+01 2.944043e+01 1.584960e+01
      vertex -2.496453e+01 4.620398e+01 1.584960e+01
    endloop
  endfacet
  facet normal 0.000000e+00 0.000000e+00 1.000000e+00
    outer loop
      vertex -2.496453e+01 4.620398e+01 1.584960e+01
      vertex -2.484251e+01 2.944043e+01 1.584960e+01
      vertex -2.494234e+01 4.315607e+01 1.584960e+01
    endloop
  endfacet
  facet normal 0.000000e+00 0.000000e+00 1.000000e+00
    outer loop
      vertex -2.494234e+01 4.315607e+01 1.584960e+01
      vertex -2.484251e+01 2.944043e+01 1.584960e+01
      vertex -4.591539e-01 2.961791e+01 1.584960e+01
    endloop
  endfacet
  facet normal 0.000000e+00 0.000000e+00 1.000000e+00
    outer loop
      vertex -2.494234e+01 4.315607e+01 1.584960e+01
      vertex -4.591539e-01 2.961791e+01 1.584960e+01
      vertex 2.460249e+01 4.351670e+01 1.584960e+01
    endloop
  endfacet
  facet normal 0.000000e+00 0.000000e+00 1.000000e+00
    outer loop
      vertex 2.460249e+01 4.351670e+01 1.584960e+01
      vertex -4.591539e-01 2.961791e+01 1.584960e+01
      vertex 1.483591e+01 2.210905e+01 1.584960e+01
    endloop
  endfacet
  facet normal 0.000000e+00 0.000000e+00 1.000000e+00
    outer loop
      vertex 2.460249e+01 4.351670e+01 1.584960e+01
      vertex 1.483591e+01 2.210905e+01 1.584960e+01
      vertex 1.501340e+01 -2.274305e+00 1.584960e+01
    endloop
  endfacet
  facet normal -7.278650e-03 9.999735e-01 0.000000e+00
    outer loop
      vertex -1.986019e+01 -2.691280e+01 2.987040e+01
      vertex -1.376435e+01 -2.686843e+01 3.230880e+01
      vertex -1.376435e+01 -2.686843e+01 2.987040e+01
    endloop
  endfacet
  facet normal -7.278650e-03 9.999735e-01 0.000000e+00
    outer loop
      vertex -1.376435e+01 -2.686843e+01 3.230880e+01
      vertex -1.986019e+01 -2.691280e+01 2.987040e+01
      vertex -1.986019e+01 -2.691280e+01 3.230880e+01
    endloop
  endfacet
  facet normal -4.357502e-01 -9.000676e-01 0.000000e+00
    outer loop
      vertex -2.544484e+01 -4.805799e+01 2.255520e+01
      vertex -2.580370e+01 -4.788426e+01 2.621280e+01
      vertex -2.580370e+01 -4.788426e+01 2.255520e+01
    endloop
  endfacet
  facet normal -4.357502e-01 -9.000676e-01 0.000000e+00
    outer loop
      vertex -2.580370e+01 -4.788426e+01 2.621280e+01
      vertex -2.544484e+01 -4.805799e+01 2.255520e+01
      vertex -2.544484e+01 -4.805799e+01 2.621280e+01
    endloop
  endfacet
  facet normal 9.999735e-01 7.278831e-03 0.000000e+00
    outer loop
      vertex 3.067615e+01 4.660900e+01 0.000000e+00
      vertex 3.109768e+01 -1.130147e+01 1.584960e+01
      vertex 3.109768e+01 -1.130147e+01 0.000000e+00
    endloop
  endfacet
  facet normal 9.999735e-01 7.278831e-03 0.000000e+00
    outer loop
      vertex 3.109768e+01 -1.130147e+01 1.584960e+01
      vertex 3.067615e+01 4.660900e+01 0.000000e+00
      vertex 3.067615e+01 4.660900e+01 1.584960e+01
    endloop
  endfacet
  facet normal -9.999735e-01 -7.278909e-03 0.000000e+00
    outer loop
      vertex -3.106037e+01 4.615961e+01 1.584960e+01
      vertex -3.093835e+01 2.939606e+01 1.188720e+01
      vertex -3.093835e+01 2.939606e+01 1.584960e+01
    endloop
  endfacet
  facet normal -9.999735e-01 -7.278878e-03 0.000000e+00
    outer loop
      vertex -3.063883e+01 -1.175085e+01 2.255520e+01
      vertex -3.039479e+01 -4.527796e+01 1.353728e-11
      vertex -3.039479e+01 -4.527796e+01 2.255520e+01
    endloop
  endfacet
  facet normal -9.999735e-01 -7.278878e-03 0.000000e+00
    outer loop
      vertex -3.039479e+01 -4.527796e+01 1.353728e-11
      vertex -3.063883e+01 -1.175085e+01 2.255520e+01
      vertex -3.063883e+01 -1.175085e+01 1.188720e+01
    endloop
  endfacet
  facet normal -9.999735e-01 -7.278882e-03 1.014831e-08
    outer loop
      vertex -3.039479e+01 -4.527796e+01 1.353728e-11
      vertex -3.063883e+01 -1.175085e+01 1.188720e+01
      vertex -3.109768e+01 5.128506e+01 2.814414e-14
    endloop
  endfacet
  facet normal -9.999735e-01 -7.278881e-03 1.165848e-08
    outer loop
      vertex -3.109768e+01 5.128506e+01 2.814414e-14
      vertex -3.063883e+01 -1.175085e+01 1.188720e+01
      vertex -3.093835e+01 2.939606e+01 1.188720e+01
    endloop
  endfacet
  facet normal -9.999735e-01 -7.278909e-03 -3.838108e-08
    outer loop
      vertex -3.109768e+01 5.128506e+01 2.814414e-14
      vertex -3.093835e+01 2.939606e+01 1.188720e+01
      vertex -3.106037e+01 4.615961e+01 1.188720e+01
    endloop
  endfacet
  facet normal -9.999735e-01 -7.278909e-03 0.000000e+00
    outer loop
      vertex -3.106037e+01 4.615961e+01 1.188720e+01
      vertex -3.093835e+01 2.939606e+01 1.188720e+01
      vertex -3.106037e+01 4.615961e+01 1.584960e+01
    endloop
  endfacet
  facet normal -9.999735e-01 -7.278820e-03 0.000000e+00
    outer loop
      vertex -3.109768e+01 5.128506e+01 2.814414e-14
      vertex -3.106037e+01 4.615961e+01 1.188720e+01
      vertex -3.109768e+01 5.128506e+01 1.188720e+01
    endloop
  endfacet
  facet normal 9.999735e-01 7.278978e-03 0.000000e+00
    outer loop
      vertex -2.496453e+01 4.620398e+01 3.048000e+00
      vertex -2.494234e+01 4.315607e+01 1.584960e+01
      vertex -2.494234e+01 4.315607e+01 3.048000e+00
    endloop
  endfacet
  facet normal 9.999735e-01 7.278978e-03 0.000000e+00
    outer loop
      vertex -2.494234e+01 4.315607e+01 1.584960e+01
      vertex -2.496453e+01 4.620398e+01 3.048000e+00
      vertex -2.496453e+01 4.620398e+01 1.584960e+01
    endloop
  endfacet
  facet normal NaN NaN NaN
    outer loop
      vertex -2.496453e+01 4.620398e+01 1.584960e+01
      vertex -2.496453e+01 4.620398e+01 3.048000e+00
      vertex -2.496453e+01 4.620398e+01 1.188720e+01
    endloop
  endfacet
  facet normal 9.999735e-01 7.278913e-03 0.000000e+00
    outer loop
      vertex -2.500184e+01 5.132943e+01 2.814414e-14
      vertex -2.496453e+01 4.620398e+01 3.048000e+00
      vertex -2.496453e+01 4.620398e+01 0.000000e+00
    endloop
  endfacet
  facet normal 9.999735e-01 7.278913e-03 0.000000e+00
    outer loop
      vertex -2.496453e+01 4.620398e+01 3.048000e+00
      vertex -2.500184e+01 5.132943e+01 2.814414e-14
      vertex -2.496453e+01 4.620398e+01 1.188720e+01
    endloop
  endfacet
  facet normal 9.999735e-01 7.278913e-03 0.000000e+00
    outer loop
      vertex -2.496453e+01 4.620398e+01 1.188720e+01
      vertex -2.500184e+01 5.132943e+01 2.814414e-14
      vertex -2.500184e+01 5.132943e+01 1.188720e+01
    endloop
  endfacet
  facet normal -7.278908e-03 9.999735e-01 0.000000e+00
    outer loop
      vertex -2.496453e+01 4.620398e+01 3.048000e+00
      vertex 3.067615e+01 4.660900e+01 0.000000e+00
      vertex -2.496453e+01 4.620398e+01 0.000000e+00
    endloop
  endfacet
  facet normal -7.278901e-03 9.999735e-01 1.212112e-07
    outer loop
      vertex 3.067615e+01 4.660900e+01 0.000000e+00
      vertex -2.496453e+01 4.620398e+01 3.048000e+00
      vertex 2.458031e+01 4.656462e+01 3.048000e+00
    endloop
  endfacet
  facet normal -7.278961e-03 9.999735e-01 0.000000e+00
    outer loop
      vertex 3.067615e+01 4.660900e+01 0.000000e+00
      vertex 2.458031e+01 4.656462e+01 3.048000e+00
      vertex 3.067615e+01 4.660900e+01 1.584960e+01
    endloop
  endfacet
  facet normal -7.278961e-03 9.999735e-01 0.000000e+00
    outer loop
      vertex 3.067615e+01 4.660900e+01 1.584960e+01
      vertex 2.458031e+01 4.656462e+01 3.048000e+00
      vertex 2.458031e+01 4.656462e+01 1.584960e+01
    endloop
  endfacet
  facet normal -5.813939e-02 -9.983085e-01 0.000000e+00
    outer loop
      vertex -2.427676e+01 -4.828151e+01 2.255520e+01
      vertex -2.467479e+01 -4.825833e+01 2.621280e+01
      vertex -2.467479e+01 -4.825833e+01 2.255520e+01
    endloop
  endfacet
  facet normal -5.813939e-02 -9.983085e-01 0.000000e+00
    outer loop
      vertex -2.467479e+01 -4.825833e+01 2.621280e+01
      vertex -2.427676e+01 -4.828151e+01 2.255520e+01
      vertex -2.427676e+01 -4.828151e+01 2.621280e+01
    endloop
  endfacet
  facet normal 0.000000e+00 0.000000e+00 1.000000e+00
    outer loop
      vertex -1.974926e+01 -4.215239e+01 3.230880e+01
      vertex -1.376435e+01 -2.686843e+01 3.230880e+01
      vertex -1.986019e+01 -2.691280e+01 3.230880e+01
    endloop
  endfacet
  facet normal 0.000000e+00 0.000000e+00 1.000000e+00
    outer loop
      vertex -1.376435e+01 -2.686843e+01 3.230880e+01
      vertex -1.974926e+01 -4.215239e+01 3.230880e+01
      vertex 4.634096e+00 -4.197491e+01 3.230880e+01
    endloop
  endfacet
  facet normal 0.000000e+00 0.000000e+00 1.000000e+00
    outer loop
      vertex -1.376435e+01 -2.686843e+01 3.230880e+01
      vertex 4.634096e+00 -4.197491e+01 3.230880e+01
      vertex -1.506113e+00 -3.592344e+01 3.230880e+01
    endloop
  endfacet
  facet normal 0.000000e+00 0.000000e+00 1.000000e+00
    outer loop
      vertex -1.376435e+01 -2.686843e+01 3.230880e+01
      vertex -1.506113e+00 -3.592344e+01 3.230880e+01
      vertex -1.387528e+01 -1.162883e+01 3.230880e+01
    endloop
  endfacet
  facet normal 0.000000e+00 0.000000e+00 1.000000e+00
    outer loop
      vertex -1.387528e+01 -1.162883e+01 3.230880e+01
      vertex -1.506113e+00 -3.592344e+01 3.230880e+01
      vertex -1.683603e+00 -1.154009e+01 3.230880e+01
    endloop
  endfacet
  facet normal 0.000000e+00 0.000000e+00 1.000000e+00
    outer loop
      vertex -1.506113e+00 -3.592344e+01 3.230880e+01
      vertex 4.634096e+00 -4.197491e+01 3.230880e+01
      vertex 4.589724e+00 -3.587907e+01 3.230880e+01
    endloop
  endfacet
  facet normal 0.000000e+00 0.000000e+00 1.000000e+00
    outer loop
      vertex -1.692320e+01 -1.165101e+01 3.230880e+01
      vertex 1.297758e+00 -2.374144e+00 3.230880e+01
      vertex -1.698976e+01 -2.507257e+00 3.230880e+01
    endloop
  endfacet
  facet normal 0.000000e+00 0.000000e+00 1.000000e+00
    outer loop
      vertex 1.297758e+00 -2.374144e+00 3.230880e+01
      vertex -1.692320e+01 -1.165101e+01 3.230880e+01
      vertex -1.387528e+01 -1.162883e+01 3.230880e+01
    endloop
  endfacet
  facet normal 0.000000e+00 0.000000e+00 1.000000e+00
    outer loop
      vertex 1.297758e+00 -2.374144e+00 3.230880e+01
      vertex -1.387528e+01 -1.162883e+01 3.230880e+01
      vertex -1.683603e+00 -1.154009e+01 3.230880e+01
    endloop
  endfacet
  facet normal 0.000000e+00 0.000000e+00 1.000000e+00
    outer loop
      vertex 1.297758e+00 -2.374144e+00 3.230880e+01
      vertex -1.683603e+00 -1.154009e+01 3.230880e+01
      vertex 1.364317e+00 -1.151790e+01 3.230880e+01
    endloop
  endfacet
  facet normal -5.495034e-01 -8.354915e-01 0.000000e+00
    outer loop
      vertex -2.730844e+01 -5.053493e+01 1.435160e-11
      vertex -2.797466e+01 -5.009676e+01 2.255520e+01
      vertex -2.797466e+01 -5.009676e+01 1.428807e-11
    endloop
  endfacet
  facet normal -5.495034e-01 -8.354915e-01 0.000000e+00
    outer loop
      vertex -2.797466e+01 -5.009676e+01 2.255520e+01
      vertex -2.730844e+01 -5.053493e+01 1.435160e-11
      vertex -2.730844e+01 -5.053493e+01 2.255520e+01
    endloop
  endfacet
  facet normal 0.000000e+00 0.000000e+00 1.000000e+00
    outer loop
      vertex 5.869639e+00 -2.340864e+00 2.011680e+01
      vertex -1.708959e+01 1.120838e+01 2.011680e+01
      vertex -1.698976e+01 -2.507257e+00 2.011680e+01
    endloop
  endfacet
  facet normal 0.000000e+00 0.000000e+00 1.000000e+00
    outer loop
      vertex -1.708959e+01 1.120838e+01 2.011680e+01
      vertex 5.869639e+00 -2.340864e+00 2.011680e+01
      vertex -4.036882e-01 2.199812e+01 2.011680e+01
    endloop
  endfacet
  facet normal 0.000000e+00 0.000000e+00 1.000000e+00
    outer loop
      vertex -4.036882e-01 2.199812e+01 2.011680e+01
      vertex 5.869639e+00 -2.340864e+00 2.011680e+01
      vertex 1.483591e+01 2.210905e+01 2.011680e+01
    endloop
  endfacet
  facet normal 0.000000e+00 0.000000e+00 1.000000e+00
    outer loop
      vertex 1.483591e+01 2.210905e+01 2.011680e+01
      vertex 5.869639e+00 -2.340864e+00 2.011680e+01
      vertex 5.936198e+00 -1.148462e+01 2.011680e+01
    endloop
  endfacet
  facet normal 0.000000e+00 0.000000e+00 1.000000e+00
    outer loop
      vertex 1.483591e+01 2.210905e+01 2.011680e+01
      vertex 5.936198e+00 -1.148462e+01 2.011680e+01
      vertex 1.196548e+01 -2.296492e+00 2.011680e+01
    endloop
  endfacet
  facet normal 0.000000e+00 0.000000e+00 1.000000e+00
    outer loop
      vertex 1.196548e+01 -2.296492e+00 2.011680e+01
      vertex 5.936198e+00 -1.148462e+01 2.011680e+01
      vertex 1.203203e+01 -1.144025e+01 2.011680e+01
    endloop
  endfacet
  facet normal 0.000000e+00 0.000000e+00 1.000000e+00
    outer loop
      vertex 1.483591e+01 2.210905e+01 2.011680e+01
      vertex 1.196548e+01 -2.296492e+00 2.011680e+01
      vertex 1.501340e+01 -2.274305e+00 2.011680e+01
    endloop
  endfacet
  facet normal 0.000000e+00 0.000000e+00 1.000000e+00
    outer loop
      vertex -2.470939e+01 1.115291e+01 2.011680e+01
      vertex -4.591539e-01 2.961791e+01 2.011680e+01
      vertex -2.484251e+01 2.944043e+01 2.011680e+01
    endloop
  endfacet
  facet normal 0.000000e+00 0.000000e+00 1.000000e+00
    outer loop
      vertex -4.591539e-01 2.961791e+01 2.011680e+01
      vertex -2.470939e+01 1.115291e+01 2.011680e+01
      vertex -1.708959e+01 1.120838e+01 2.011680e+01
    endloop
  endfacet
  facet normal 0.000000e+00 0.000000e+00 1.000000e+00
    outer loop
      vertex -4.591539e-01 2.961791e+01 2.011680e+01
      vertex -1.708959e+01 1.120838e+01 2.011680e+01
      vertex -4.036882e-01 2.199812e+01 2.011680e+01
    endloop
  endfacet
  facet normal 9.999735e-01 7.278807e-03 0.000000e+00
    outer loop
      vertex 1.483591e+01 2.210905e+01 1.584960e+01
      vertex 1.501340e+01 -2.274305e+00 2.011680e+01
      vertex 1.501340e+01 -2.274305e+00 1.584960e+01
    endloop
  endfacet
  facet normal 9.999735e-01 7.278807e-03 0.000000e+00
    outer loop
      vertex 1.501340e+01 -2.274305e+00 2.011680e+01
      vertex 1.483591e+01 2.210905e+01 1.584960e+01
      vertex 1.483591e+01 2.210905e+01 2.011680e+01
    endloop
  endfacet
  facet normal -6.538541e-01 -7.566206e-01 0.000000e+00
    outer loop
      vertex -2.613680e+01 -4.766518e+01 2.255520e+01
      vertex -2.643847e+01 -4.740449e+01 2.621280e+01
      vertex -2.643847e+01 -4.740449e+01 2.255520e+01
    endloop
  endfacet
  facet normal -6.538541e-01 -7.566206e-01 0.000000e+00
    outer loop
      vertex -2.643847e+01 -4.740449e+01 2.621280e+01
      vertex -2.613680e+01 -4.766518e+01 2.255520e+01
      vertex -2.613680e+01 -4.766518e+01 2.621280e+01
    endloop
  endfacet
  facet normal -7.470207e-01 -6.648007e-01 0.000000e+00
    outer loop
      vertex -2.910809e+01 -4.897971e+01 2.255520e+01
      vertex -2.857798e+01 -4.957538e+01 1.421299e-11
      vertex -2.857798e+01 -4.957538e+01 2.255520e+01
    endloop
  endfacet
  facet normal -7.470207e-01 -6.648007e-01 0.000000e+00
    outer loop
      vertex -2.857798e+01 -4.957538e+01 1.421299e-11
      vertex -2.910809e+01 -4.897971e+01 2.255520e+01
      vertex -2.910809e+01 -4.897971e+01 1.412059e-11
    endloop
  endfacet
  facet normal -9.999735e-01 -7.278906e-03 0.000000e+00
    outer loop
      vertex -2.759092e+01 -1.172867e+01 2.621280e+01
      vertex -2.734687e+01 -4.525578e+01 2.255520e+01
      vertex -2.734687e+01 -4.525578e+01 2.621280e+01
    endloop
  endfacet
  facet normal -9.999735e-01 -7.278906e-03 0.000000e+00
    outer loop
      vertex -2.734687e+01 -4.525578e+01 2.255520e+01
      vertex -2.759092e+01 -1.172867e+01 2.621280e+01
      vertex -2.759092e+01 -1.172867e+01 2.255520e+01
    endloop
  endfacet
  facet normal -9.793391e-01 -2.022247e-01 0.000000e+00
    outer loop
      vertex -2.731790e+01 -4.565342e+01 2.621280e+01
      vertex -2.723727e+01 -4.604388e+01 2.255520e+01
      vertex -2.723727e+01 -4.604388e+01 2.621280e+01
    endloop
  endfacet
  facet normal -9.793391e-01 -2.022247e-01 0.000000e+00
    outer loop
      vertex -2.723727e+01 -4.604388e+01 2.255520e+01
      vertex -2.731790e+01 -4.565342e+01 2.621280e+01
      vertex -2.731790e+01 -4.565342e+01 2.255520e+01
    endloop
  endfacet
  facet normal 9.999735e-01 7.278964e-03 0.000000e+00
    outer loop
      vertex -4.591539e-01 2.961791e+01 1.584960e+01
      vertex -4.036882e-01 2.199812e+01 2.011680e+01
      vertex -4.036882e-01 2.199812e+01 1.584960e+01
    endloop
  endfacet
  facet normal 9.999735e-01 7.278964e-03 0.000000e+00
    outer loop
      vertex -4.036882e-01 2.199812e+01 2.011680e+01
      vertex -4.591539e-01 2.961791e+01 1.584960e+01
      vertex -4.591539e-01 2.961791e+01 2.011680e+01
    endloop
  endfacet
  facet normal -1.879444e-01 -9.821796e-01 0.000000e+00
    outer loop
      vertex -2.467479e+01 -4.825833e+01 2.255520e+01
      vertex -2.506638e+01 -4.818340e+01 2.621280e+01
      vertex -2.506638e+01 -4.818340e+01 2.255520e+01
    endloop
  endfacet
  facet normal -1.879444e-01 -9.821796e-01 0.000000e+00
    outer loop
      vertex -2.506638e+01 -4.818340e+01 2.621280e+01
      vertex -2.467479e+01 -4.825833e+01 2.255520e+01
      vertex -2.467479e+01 -4.825833e+01 2.621280e+01
    endloop
  endfacet
  facet normal 9.999735e-01 7.278965e-03 0.000000e+00
    outer loop
      vertex -1.708959e+01 1.120838e+01 2.011680e+01
      vertex -1.698976e+01 -2.507257e+00 2.621280e+01
      vertex -1.698976e+01 -2.507257e+00 2.011680e+01
    endloop
  endfacet
  facet normal 9.999735e-01 7.278965e-03 0.000000e+00
    outer loop
      vertex -1.698976e+01 -2.507257e+00 2.621280e+01
      vertex -1.708959e+01 1.120838e+01 2.011680e+01
      vertex -1.708959e+01 1.120838e+01 2.621280e+01
    endloop
  endfacet
  facet normal -8.936288e-01 -4.488069e-01 0.000000e+00
    outer loop
      vertex -2.710637e+01 -4.642048e+01 2.621280e+01
      vertex -2.692743e+01 -4.677677e+01 2.255520e+01
      vertex -2.692743e+01 -4.677677e+01 2.621280e+01
    endloop
  endfacet
  facet normal -8.936288e-01 -4.488069e-01 0.000000e+00
    outer loop
      vertex -2.692743e+01 -4.677677e+01 2.255520e+01
      vertex -2.710637e+01 -4.642048e+01 2.621280e+01
      vertex -2.710637e+01 -4.642048e+01 2.255520e+01
    endloop
  endfacet
  facet normal -7.278650e-03 9.999735e-01 0.000000e+00
    outer loop
      vertex -2.484251e+01 2.944043e+01 2.011680e+01
      vertex -4.591539e-01 2.961791e+01 1.584960e+01
      vertex -2.484251e+01 2.944043e+01 1.584960e+01
    endloop
  endfacet
  facet normal -7.278650e-03 9.999735e-01 0.000000e+00
    outer loop
      vertex -4.591539e-01 2.961791e+01 1.584960e+01
      vertex -2.484251e+01 2.944043e+01 2.011680e+01
      vertex -4.591539e-01 2.961791e+01 2.011680e+01
    endloop
  endfacet
  facet normal -8.936297e-01 -4.488050e-01 0.000000e+00
    outer loop
      vertex -2.991379e+01 -4.760736e+01 2.255520e+01
      vertex -2.955591e+01 -4.831994e+01 1.402241e-11
      vertex -2.955591e+01 -4.831994e+01 2.255520e+01
    endloop
  endfacet
  facet normal -8.936297e-01 -4.488050e-01 0.000000e+00
    outer loop
      vertex -2.955591e+01 -4.831994e+01 1.402241e-11
      vertex -2.991379e+01 -4.760736e+01 2.255520e+01
      vertex -2.991379e+01 -4.760736e+01 1.390690e-11
    endloop
  endfacet
  facet normal -9.999735e-01 -7.278963e-03 0.000000e+00
    outer loop
      vertex -1.986019e+01 -2.691280e+01 3.230880e+01
      vertex -1.974926e+01 -4.215239e+01 2.987040e+01
      vertex -1.974926e+01 -4.215239e+01 3.230880e+01
    endloop
  endfacet
  facet normal -9.999735e-01 -7.278963e-03 0.000000e+00
    outer loop
      vertex -1.974926e+01 -4.215239e+01 2.987040e+01
      vertex -1.986019e+01 -2.691280e+01 3.230880e+01
      vertex -1.986019e+01 -2.691280e+01 2.987040e+01
    endloop
  endfacet
  facet normal 9.999735e-01 7.278964e-03 0.000000e+00
    outer loop
      vertex 1.196548e+01 -2.296492e+00 1.584960e+01
      vertex 1.203203e+01 -1.144025e+01 2.011680e+01
      vertex 1.203203e+01 -1.144025e+01 1.584960e+01
    endloop
  endfacet
  facet normal 9.999735e-01 7.278964e-03 0.000000e+00
    outer loop
      vertex 1.203203e+01 -1.144025e+01 2.011680e+01
      vertex 1.196548e+01 -2.296492e+00 1.584960e+01
      vertex 1.196548e+01 -2.296492e+00 2.011680e+01
    endloop
  endfacet
  facet normal -7.278850e-03 9.999735e-01 0.000000e+00
    outer loop
      vertex -2.429895e+01 -4.523359e+01 2.987040e+01
      vertex -1.424082e+01 -4.516038e+01 2.621280e+01
      vertex -2.429895e+01 -4.523359e+01 2.621280e+01
    endloop
  endfacet
  facet normal -7.278850e-03 9.999735e-01 0.000000e+00
    outer loop
      vertex -1.424082e+01 -4.516038e+01 2.621280e+01
      vertex -2.429895e+01 -4.523359e+01 2.987040e+01
      vertex -1.424082e+01 -4.516038e+01 2.987040e+01
    endloop
  endfacet
  facet normal -5.813814e-02 -9.983085e-01 -0.000000e+00
    outer loop
      vertex -2.425458e+01 -5.132943e+01 2.255520e+01
      vertex -2.505062e+01 -5.128307e+01 1.444978e-11
      vertex -2.425458e+01 -5.132943e+01 1.444978e-11
    endloop
  endfacet
  facet normal -5.813814e-02 -9.983085e-01 0.000000e+00
    outer loop
      vertex -2.505062e+01 -5.128307e+01 1.444978e-11
      vertex -2.425458e+01 -5.132943e+01 2.255520e+01
      vertex -2.505062e+01 -5.128307e+01 2.255520e+01
    endloop
  endfacet
  facet normal -7.278964e-03 9.999735e-01 0.000000e+00
    outer loop
      vertex -3.063883e+01 -1.175085e+01 2.255520e+01
      vertex -2.759092e+01 -1.172867e+01 2.255520e+01
      vertex -3.063883e+01 -1.175085e+01 1.188720e+01
    endloop
  endfacet
  facet normal -7.278963e-03 9.999735e-01 0.000000e+00
    outer loop
      vertex -3.063883e+01 -1.175085e+01 1.188720e+01
      vertex -2.454300e+01 -1.170648e+01 2.621280e+01
      vertex -2.454300e+01 -1.170648e+01 1.188720e+01
    endloop
  endfacet
  facet normal -7.278963e-03 9.999735e-01 -4.951043e-10
    outer loop
      vertex -2.454300e+01 -1.170648e+01 2.621280e+01
      vertex -3.063883e+01 -1.175085e+01 1.188720e+01
      vertex -2.759092e+01 -1.172867e+01 2.255520e+01
    endloop
  endfacet
  facet normal -7.278963e-03 9.999735e-01 0.000000e+00
    outer loop
      vertex -2.454300e+01 -1.170648e+01 2.621280e+01
      vertex -2.759092e+01 -1.172867e+01 2.255520e+01
      vertex -2.759092e+01 -1.172867e+01 2.621280e+01
    endloop
  endfacet
  facet normal -9.999735e-01 -7.278961e-03 0.000000e+00
    outer loop
      vertex 2.458031e+01 4.656462e+01 1.584960e+01
      vertex 2.460249e+01 4.351670e+01 3.048000e+00
      vertex 2.460249e+01 4.351670e+01 1.584960e+01
    endloop
  endfacet
  facet normal -9.999735e-01 -7.278961e-03 0.000000e+00
    outer loop
      vertex 2.460249e+01 4.351670e+01 3.048000e+00
      vertex 2.458031e+01 4.656462e+01 1.584960e+01
      vertex 2.458031e+01 4.656462e+01 3.048000e+00
    endloop
  endfacet
  facet normal -7.278963e-03 9.999735e-01 0.000000e+00
    outer loop
      vertex -2.470939e+01 1.115291e+01 2.621280e+01
      vertex -1.708959e+01 1.120838e+01 2.011680e+01
      vertex -2.470939e+01 1.115291e+01 2.011680e+01
    endloop
  endfacet
  facet normal -7.278963e-03 9.999735e-01 0.000000e+00
    outer loop
      vertex -1.708959e+01 1.120838e+01 2.011680e+01
      vertex -2.470939e+01 1.115291e+01 2.621280e+01
      vertex -1.708959e+01 1.120838e+01 2.621280e+01
    endloop
  endfacet
  facet normal 0.000000e+00 0.000000e+00 1.000000e+00
    outer loop
      vertex -1.424082e+01 -4.516038e+01 2.621280e+01
      vertex -2.432114e+01 -4.218567e+01 2.621280e+01
      vertex -2.429895e+01 -4.523359e+01 2.621280e+01
    endloop
  endfacet
  facet normal 0.000000e+00 0.000000e+00 1.000000e+00
    outer loop
      vertex -2.432114e+01 -4.218567e+01 2.621280e+01
      vertex -1.424082e+01 -4.516038e+01 2.621280e+01
      vertex 4.634096e+00 -4.197491e+01 2.621280e+01
    endloop
  endfacet
  facet normal 0.000000e+00 0.000000e+00 1.000000e+00
    outer loop
      vertex -2.734687e+01 -4.525578e+01 2.621280e+01
      vertex -2.454300e+01 -1.170648e+01 2.621280e+01
      vertex -2.759092e+01 -1.172867e+01 2.621280e+01
    endloop
  endfacet
  facet normal 0.000000e+00 0.000000e+00 1.000000e+00
    outer loop
      vertex -2.454300e+01 -1.170648e+01 2.621280e+01
      vertex -2.734687e+01 -4.525578e+01 2.621280e+01
      vertex -2.731790e+01 -4.565342e+01 2.621280e+01
    endloop
  endfacet
  facet normal 0.000000e+00 0.000000e+00 1.000000e+00
    outer loop
      vertex -2.454300e+01 -1.170648e+01 2.621280e+01
      vertex -2.731790e+01 -4.565342e+01 2.621280e+01
      vertex -2.723727e+01 -4.604388e+01 2.621280e+01
    endloop
  endfacet
  facet normal 0.000000e+00 0.000000e+00 1.000000e+00
    outer loop
      vertex -2.454300e+01 -1.170648e+01 2.621280e+01
      vertex -2.723727e+01 -4.604388e+01 2.621280e+01
      vertex -2.710637e+01 -4.642048e+01 2.621280e+01
    endloop
  endfacet
  facet normal 0.000000e+00 0.000000e+00 1.000000e+00
    outer loop
      vertex -2.454300e+01 -1.170648e+01 2.621280e+01
      vertex -2.710637e+01 -4.642048e+01 2.621280e+01
      vertex -2.692743e+01 -4.677677e+01 2.621280e+01
    endloop
  endfacet
  facet normal 0.000000e+00 0.000000e+00 1.000000e+00
    outer loop
      vertex -2.454300e+01 -1.170648e+01 2.621280e+01
      vertex -2.692743e+01 -4.677677e+01 2.621280e+01
      vertex -2.670352e+01 -4.710665e+01 2.621280e+01
    endloop
  endfacet
  facet normal 0.000000e+00 0.000000e+00 1.000000e+00
    outer loop
      vertex -2.454300e+01 -1.170648e+01 2.621280e+01
      vertex -2.670352e+01 -4.710665e+01 2.621280e+01
      vertex -2.643847e+01 -4.740449e+01 2.621280e+01
    endloop
  endfacet
  facet normal 0.000000e+00 0.000000e+00 1.000000e+00
    outer loop
      vertex -2.454300e+01 -1.170648e+01 2.621280e+01
      vertex -2.643847e+01 -4.740449e+01 2.621280e+01
      vertex -2.613680e+01 -4.766518e+01 2.621280e+01
    endloop
  endfacet
  facet normal 0.000000e+00 0.000000e+00 1.000000e+00
    outer loop
      vertex -2.454300e+01 -1.170648e+01 2.621280e+01
      vertex -2.613680e+01 -4.766518e+01 2.621280e+01
      vertex -2.580370e+01 -4.788426e+01 2.621280e+01
    endloop
  endfacet
  facet normal 0.000000e+00 0.000000e+00 1.000000e+00
    outer loop
      vertex -2.454300e+01 -1.170648e+01 2.621280e+01
      vertex -2.580370e+01 -4.788426e+01 2.621280e+01
      vertex -2.544484e+01 -4.805799e+01 2.621280e+01
    endloop
  endfacet
  facet normal 0.000000e+00 0.000000e+00 1.000000e+00
    outer loop
      vertex -2.454300e+01 -1.170648e+01 2.621280e+01
      vertex -2.544484e+01 -4.805799e+01 2.621280e+01
      vertex -2.506638e+01 -4.818340e+01 2.621280e+01
    endloop
  endfacet
  facet normal 0.000000e+00 0.000000e+00 1.000000e+00
    outer loop
      vertex -2.454300e+01 -1.170648e+01 2.621280e+01
      vertex -2.506638e+01 -4.818340e+01 2.621280e+01
      vertex -2.467479e+01 -4.825833e+01 2.621280e+01
    endloop
  endfacet
  facet normal 0.000000e+00 0.000000e+00 1.000000e+00
    outer loop
      vertex -2.454300e+01 -1.170648e+01 2.621280e+01
      vertex -2.467479e+01 -4.825833e+01 2.621280e+01
      vertex -2.427676e+01 -4.828151e+01 2.621280e+01
    endloop
  endfacet
  facet normal 0.000000e+00 0.000000e+00 1.000000e+00
    outer loop
      vertex -2.454300e+01 -1.170648e+01 2.621280e+01
      vertex -2.427676e+01 -4.828151e+01 2.621280e+01
      vertex -2.429895e+01 -4.523359e+01 2.621280e+01
    endloop
  endfacet
  facet normal 0.000000e+00 0.000000e+00 -1.000000e+00
    outer loop
      vertex -2.454300e+01 -1.170648e+01 2.621280e+01
      vertex -2.429895e+01 -4.523359e+01 2.621280e+01
      vertex -2.432114e+01 -4.218567e+01 2.621280e+01
    endloop
  endfacet
  facet normal 0.000000e+00 0.000000e+00 1.000000e+00
    outer loop
      vertex 6.224615e+00 -5.110757e+01 2.621280e+01
      vertex -1.424082e+01 -4.516038e+01 2.621280e+01
      vertex -1.419644e+01 -5.125622e+01 2.621280e+01
    endloop
  endfacet
  facet normal 0.000000e+00 0.000000e+00 1.000000e+00
    outer loop
      vertex -1.424082e+01 -4.516038e+01 2.621280e+01
      vertex 6.224615e+00 -5.110757e+01 2.621280e+01
      vertex 4.634096e+00 -4.197491e+01 2.621280e+01
    endloop
  endfacet
  facet normal 0.000000e+00 0.000000e+00 1.000000e+00
    outer loop
      vertex 4.634096e+00 -4.197491e+01 2.621280e+01
      vertex 6.224615e+00 -5.110757e+01 2.621280e+01
      vertex 4.412237e+00 -1.149571e+01 2.621280e+01
    endloop
  endfacet
  facet normal 0.000000e+00 0.000000e+00 1.000000e+00
    outer loop
      vertex 4.412237e+00 -1.149571e+01 2.621280e+01
      vertex 1.297758e+00 -2.374144e+00 2.621280e+01
      vertex 1.364317e+00 -1.151790e+01 2.621280e+01
    endloop
  endfacet
  facet normal 0.000000e+00 0.000000e+00 1.000000e+00
    outer loop
      vertex 1.297758e+00 -2.374144e+00 2.621280e+01
      vertex 4.412237e+00 -1.149571e+01 2.621280e+01
      vertex 5.869639e+00 -2.340864e+00 2.621280e+01
    endloop
  endfacet
  facet normal 0.000000e+00 0.000000e+00 1.000000e+00
    outer loop
      vertex 5.869639e+00 -2.340864e+00 2.621280e+01
      vertex 4.412237e+00 -1.149571e+01 2.621280e+01
      vertex 6.224615e+00 -5.110757e+01 2.621280e+01
    endloop
  endfacet
  facet normal -3.145380e-01 -9.492449e-01 0.000000e+00
    outer loop
      vertex -2.506638e+01 -4.818340e+01 2.255520e+01
      vertex -2.544484e+01 -4.805799e+01 2.621280e+01
      vertex -2.544484e+01 -4.805799e+01 2.255520e+01
    endloop
  endfacet
  facet normal -3.145380e-01 -9.492449e-01 0.000000e+00
    outer loop
      vertex -2.544484e+01 -4.805799e+01 2.621280e+01
      vertex -2.506638e+01 -4.818340e+01 2.255520e+01
      vertex -2.506638e+01 -4.818340e+01 2.621280e+01
    endloop
  endfacet
  facet normal -8.274046e-01 -5.616063e-01 0.000000e+00
    outer loop
      vertex -2.692743e+01 -4.677677e+01 2.621280e+01
      vertex -2.670352e+01 -4.710665e+01 2.255520e+01
      vertex -2.670352e+01 -4.710665e+01 2.621280e+01
    endloop
  endfacet
  facet normal -8.274046e-01 -5.616063e-01 0.000000e+00
    outer loop
      vertex -2.670352e+01 -4.710665e+01 2.255520e+01
      vertex -2.692743e+01 -4.677677e+01 2.621280e+01
      vertex -2.692743e+01 -4.677677e+01 2.255520e+01
    endloop
  endfacet
  facet normal 0.000000e+00 0.000000e+00 1.000000e+00
    outer loop
      vertex -2.454300e+01 -1.170648e+01 1.188720e+01
      vertex -3.093835e+01 2.939606e+01 1.188720e+01
      vertex -3.063883e+01 -1.175085e+01 1.188720e+01
    endloop
  endfacet
  facet normal 0.000000e+00 0.000000e+00 1.000000e+00
    outer loop
      vertex -3.093835e+01 2.939606e+01 1.188720e+01
      vertex -2.454300e+01 -1.170648e+01 1.188720e+01
      vertex -2.484251e+01 2.944043e+01 1.188720e+01
    endloop
  endfacet
  facet normal -6.538555e-01 -7.566195e-01 0.000000e+00
    outer loop
      vertex -2.797466e+01 -5.009676e+01 1.428807e-11
      vertex -2.857798e+01 -4.957538e+01 2.255520e+01
      vertex -2.857798e+01 -4.957538e+01 1.421299e-11
    endloop
  endfacet
  facet normal -6.538555e-01 -7.566195e-01 0.000000e+00
    outer loop
      vertex -2.857798e+01 -4.957538e+01 2.255520e+01
      vertex -2.797466e+01 -5.009676e+01 1.428807e-11
      vertex -2.797466e+01 -5.009676e+01 2.255520e+01
    endloop
  endfacet
  facet normal 9.999735e-01 7.278963e-03 0.000000e+00
    outer loop
      vertex 1.297758e+00 -2.374144e+00 2.621280e+01
      vertex 1.364317e+00 -1.151790e+01 2.987040e+01
      vertex 1.364317e+00 -1.151790e+01 2.621280e+01
    endloop
  endfacet
  facet normal 9.999735e-01 7.278963e-03 0.000000e+00
    outer loop
      vertex 1.364317e+00 -1.151790e+01 2.987040e+01
      vertex 1.297758e+00 -2.374144e+00 2.621280e+01
      vertex 1.364317e+00 -1.151790e+01 3.230880e+01
    endloop
  endfacet
  facet normal 9.999735e-01 7.278964e-03 0.000000e+00
    outer loop
      vertex 1.364317e+00 -1.151790e+01 3.230880e+01
      vertex 1.297758e+00 -2.374144e+00 2.621280e+01
      vertex 1.297758e+00 -2.374144e+00 3.230880e+01
    endloop
  endfacet
  facet normal 7.278885e-03 -9.999735e-01 0.000000e+00
    outer loop
      vertex 4.634096e+00 -4.197491e+01 3.230880e+01
      vertex -1.974926e+01 -4.215239e+01 2.987040e+01
      vertex 4.634096e+00 -4.197491e+01 2.621280e+01
    endloop
  endfacet
  facet normal 7.278885e-03 -9.999735e-01 0.000000e+00
    outer loop
      vertex -1.974926e+01 -4.215239e+01 2.987040e+01
      vertex 4.634096e+00 -4.197491e+01 3.230880e+01
      vertex -1.974926e+01 -4.215239e+01 3.230880e+01
    endloop
  endfacet
  facet normal 7.278898e-03 -9.999735e-01 0.000000e+00
    outer loop
      vertex 4.634096e+00 -4.197491e+01 2.621280e+01
      vertex -2.432114e+01 -4.218567e+01 2.987040e+01
      vertex -2.432114e+01 -4.218567e+01 2.621280e+01
    endloop
  endfacet
  facet normal 7.278963e-03 -9.999735e-01 5.107068e-07
    outer loop
      vertex -2.432114e+01 -4.218567e+01 2.987040e+01
      vertex 4.634096e+00 -4.197491e+01 2.621280e+01
      vertex -1.974926e+01 -4.215239e+01 2.987040e+01
    endloop
  endfacet
  facet normal -9.999735e-01 -7.278755e-03 0.000000e+00
    outer loop
      vertex -1.698976e+01 -2.507257e+00 3.230880e+01
      vertex -1.692320e+01 -1.165101e+01 2.987040e+01
      vertex -1.692320e+01 -1.165101e+01 3.230880e+01
    endloop
  endfacet
  facet normal -9.999735e-01 -7.278755e-03 -0.000000e+00
    outer loop
      vertex -1.692320e+01 -1.165101e+01 2.987040e+01
      vertex -1.698976e+01 -2.507257e+00 3.230880e+01
      vertex -1.692320e+01 -1.165101e+01 2.621280e+01
    endloop
  endfacet
  facet normal -9.999735e-01 -7.278755e-03 0.000000e+00
    outer loop
      vertex -1.692320e+01 -1.165101e+01 2.621280e+01
      vertex -1.698976e+01 -2.507257e+00 3.230880e+01
      vertex -1.698976e+01 -2.507257e+00 2.621280e+01
    endloop
  endfacet
  facet normal 9.999735e-01 7.278963e-03 0.000000e+00
    outer loop
      vertex -1.683603e+00 -1.154009e+01 2.987040e+01
      vertex -1.506113e+00 -3.592344e+01 3.230880e+01
      vertex -1.506113e+00 -3.592344e+01 2.987040e+01
    endloop
  endfacet
  facet normal 9.999735e-01 7.278963e-03 0.000000e+00
    outer loop
      vertex -1.506113e+00 -3.592344e+01 3.230880e+01
      vertex -1.683603e+00 -1.154009e+01 2.987040e+01
      vertex -1.683603e+00 -1.154009e+01 3.230880e+01
    endloop
  endfacet
  facet normal 9.999735e-01 7.278867e-03 0.000000e+00
    outer loop
      vertex 5.936198e+00 -1.148462e+01 0.000000e+00
      vertex 6.224615e+00 -5.110757e+01 2.621280e+01
      vertex 6.224615e+00 -5.110757e+01 1.438912e-11
    endloop
  endfacet
  facet normal 9.999735e-01 7.278867e-03 0.000000e+00
    outer loop
      vertex 6.224615e+00 -5.110757e+01 2.621280e+01
      vertex 5.936198e+00 -1.148462e+01 0.000000e+00
      vertex 5.936198e+00 -1.148462e+01 2.011680e+01
    endloop
  endfacet
  facet normal 9.999735e-01 7.278885e-03 1.184676e-07
    outer loop
      vertex 6.224615e+00 -5.110757e+01 2.621280e+01
      vertex 5.936198e+00 -1.148462e+01 2.011680e+01
      vertex 5.869639e+00 -2.340864e+00 2.621280e+01
    endloop
  endfacet
  facet normal 9.999735e-01 7.278963e-03 0.000000e+00
    outer loop
      vertex 5.869639e+00 -2.340864e+00 2.621280e+01
      vertex 5.936198e+00 -1.148462e+01 2.011680e+01
      vertex 5.869639e+00 -2.340864e+00 2.011680e+01
    endloop
  endfacet
  facet normal -7.278652e-03 9.999735e-01 0.000000e+00
    outer loop
      vertex -1.506113e+00 -3.592344e+01 3.230880e+01
      vertex 4.589724e+00 -3.587907e+01 2.987040e+01
      vertex -1.506113e+00 -3.592344e+01 2.987040e+01
    endloop
  endfacet
  facet normal -7.278652e-03 9.999735e-01 0.000000e+00
    outer loop
      vertex 4.589724e+00 -3.587907e+01 2.987040e+01
      vertex -1.506113e+00 -3.592344e+01 3.230880e+01
      vertex 4.589724e+00 -3.587907e+01 3.230880e+01
    endloop
  endfacet
  facet normal 7.278961e-03 -9.999735e-01 0.000000e+00
    outer loop
      vertex 1.501340e+01 -2.274305e+00 2.011680e+01
      vertex 1.196548e+01 -2.296492e+00 1.584960e+01
      vertex 1.501340e+01 -2.274305e+00 1.584960e+01
    endloop
  endfacet
  facet normal 7.278961e-03 -9.999735e-01 0.000000e+00
    outer loop
      vertex 1.196548e+01 -2.296492e+00 1.584960e+01
      vertex 1.501340e+01 -2.274305e+00 2.011680e+01
      vertex 1.196548e+01 -2.296492e+00 2.011680e+01
    endloop
  endfacet
  facet normal -9.793392e-01 -2.022242e-01 0.000000e+00
    outer loop
      vertex -3.033685e+01 -4.607325e+01 2.255520e+01
      vertex -3.017559e+01 -4.685417e+01 1.379140e-11
      vertex -3.017559e+01 -4.685417e+01 2.255520e+01
    endloop
  endfacet
  facet normal -9.793392e-01 -2.022242e-01 0.000000e+00
    outer loop
      vertex -3.017559e+01 -4.685417e+01 1.379140e-11
      vertex -3.033685e+01 -4.607325e+01 2.255520e+01
      vertex -3.033685e+01 -4.607325e+01 1.366434e-11
    endloop
  endfacet
  facet normal -7.278964e-03 9.999735e-01 0.000000e+00
    outer loop
      vertex -2.454300e+01 -1.170648e+01 2.987040e+01
      vertex -1.692320e+01 -1.165101e+01 2.621280e+01
      vertex -2.454300e+01 -1.170648e+01 2.621280e+01
    endloop
  endfacet
  facet normal -7.278964e-03 9.999735e-01 0.000000e+00
    outer loop
      vertex -1.692320e+01 -1.165101e+01 2.621280e+01
      vertex -2.454300e+01 -1.170648e+01 2.987040e+01
      vertex -1.692320e+01 -1.165101e+01 2.987040e+01
    endloop
  endfacet
  facet normal 7.278963e-03 -9.999735e-01 0.000000e+00
    outer loop
      vertex -2.484251e+01 2.944043e+01 1.584960e+01
      vertex -3.093835e+01 2.939606e+01 1.188720e+01
      vertex -2.484251e+01 2.944043e+01 1.188720e+01
    endloop
  endfacet
  facet normal 7.278963e-03 -9.999735e-01 0.000000e+00
    outer loop
      vertex -3.093835e+01 2.939606e+01 1.188720e+01
      vertex -2.484251e+01 2.944043e+01 1.584960e+01
      vertex -3.093835e+01 2.939606e+01 1.584960e+01
    endloop
  endfacet
  facet normal -7.278755e-03 9.999735e-01 0.000000e+00
    outer loop
      vertex -1.698976e+01 -2.507257e+00 2.621280e+01
      vertex 1.297758e+00 -2.374144e+00 2.621280e+01
      vertex -1.698976e+01 -2.507257e+00 2.011680e+01
    endloop
  endfacet
  facet normal -7.278755e-03 9.999735e-01 0.000000e+00
    outer loop
      vertex 1.297758e+00 -2.374144e+00 2.621280e+01
      vertex -1.698976e+01 -2.507257e+00 2.621280e+01
      vertex 1.297758e+00 -2.374144e+00 3.230880e+01
    endloop
  endfacet
  facet normal -7.278755e-03 9.999735e-01 0.000000e+00
    outer loop
      vertex 1.297758e+00 -2.374144e+00 3.230880e+01
      vertex -1.698976e+01 -2.507257e+00 2.621280e+01
      vertex -1.698976e+01 -2.507257e+00 3.230880e+01
    endloop
  endfacet
  facet normal -7.278796e-03 9.999735e-01 0.000000e+00
    outer loop
      vertex -1.698976e+01 -2.507257e+00 2.011680e+01
      vertex 5.869639e+00 -2.340864e+00 2.621280e+01
      vertex 5.869639e+00 -2.340864e+00 2.011680e+01
    endloop
  endfacet
  facet normal -7.278961e-03 9.999735e-01 6.166442e-07
    outer loop
      vertex 5.869639e+00 -2.340864e+00 2.621280e+01
      vertex -1.698976e+01 -2.507257e+00 2.011680e+01
      vertex 1.297758e+00 -2.374144e+00 2.621280e+01
    endloop
  endfacet
  facet normal 9.999735e-01 7.278964e-03 0.000000e+00
    outer loop
      vertex 4.634096e+00 -4.197491e+01 2.621280e+01
      vertex 4.589724e+00 -3.587907e+01 2.987040e+01
      vertex 4.634096e+00 -4.197491e+01 3.230880e+01
    endloop
  endfacet
  facet normal 9.999735e-01 7.278838e-03 2.101029e-07
    outer loop
      vertex 4.589724e+00 -3.587907e+01 2.987040e+01
      vertex 4.634096e+00 -4.197491e+01 2.621280e+01
      vertex 4.412237e+00 -1.149571e+01 2.621280e+01
    endloop
  endfacet
  facet normal 9.999735e-01 7.278807e-03 0.000000e+00
    outer loop
      vertex 4.589724e+00 -3.587907e+01 2.987040e+01
      vertex 4.412237e+00 -1.149571e+01 2.621280e+01
      vertex 4.412237e+00 -1.149571e+01 2.987040e+01
    endloop
  endfacet
  facet normal 9.999735e-01 7.278964e-03 0.000000e+00
    outer loop
      vertex 4.589724e+00 -3.587907e+01 3.230880e+01
      vertex 4.634096e+00 -4.197491e+01 3.230880e+01
      vertex 4.589724e+00 -3.587907e+01 2.987040e+01
    endloop
  endfacet
  facet normal -7.470204e-01 -6.648011e-01 0.000000e+00
    outer loop
      vertex -2.670352e+01 -4.710665e+01 2.621280e+01
      vertex -2.643847e+01 -4.740449e+01 2.255520e+01
      vertex -2.643847e+01 -4.740449e+01 2.621280e+01
    endloop
  endfacet
  facet normal -7.470204e-01 -6.648011e-01 0.000000e+00
    outer loop
      vertex -2.643847e+01 -4.740449e+01 2.255520e+01
      vertex -2.670352e+01 -4.710665e+01 2.621280e+01
      vertex -2.670352e+01 -4.710665e+01 2.255520e+01
    endloop
  endfacet
  facet normal 7.278841e-03 -9.999735e-01 0.000000e+00
    outer loop
      vertex 3.109768e+01 -1.130147e+01 1.584960e+01
      vertex 5.936198e+00 -1.148462e+01 0.000000e+00
      vertex 3.109768e+01 -1.130147e+01 0.000000e+00
    endloop
  endfacet
  facet normal 7.278800e-03 -9.999735e-01 6.344616e-08
    outer loop
      vertex 5.936198e+00 -1.148462e+01 0.000000e+00
      vertex 3.109768e+01 -1.130147e+01 1.584960e+01
      vertex 1.203203e+01 -1.144025e+01 1.584960e+01
    endloop
  endfacet
  facet normal 7.278965e-03 -9.999735e-01 0.000000e+00
    outer loop
      vertex 5.936198e+00 -1.148462e+01 0.000000e+00
      vertex 1.203203e+01 -1.144025e+01 1.584960e+01
      vertex 5.936198e+00 -1.148462e+01 2.011680e+01
    endloop
  endfacet
  facet normal 7.278965e-03 -9.999735e-01 0.000000e+00
    outer loop
      vertex 5.936198e+00 -1.148462e+01 2.011680e+01
      vertex 1.203203e+01 -1.144025e+01 1.584960e+01
      vertex 1.203203e+01 -1.144025e+01 2.011680e+01
    endloop
  endfacet
  facet normal 0.000000e+00 0.000000e+00 1.000000e+00
    outer loop
      vertex -1.974926e+01 -4.215239e+01 2.987040e+01
      vertex -2.454300e+01 -1.170648e+01 2.987040e+01
      vertex -2.432114e+01 -4.218567e+01 2.987040e+01
    endloop
  endfacet
  facet normal 0.000000e+00 0.000000e+00 1.000000e+00
    outer loop
      vertex -2.454300e+01 -1.170648e+01 2.987040e+01
      vertex -1.974926e+01 -4.215239e+01 2.987040e+01
      vertex -1.986019e+01 -2.691280e+01 2.987040e+01
    endloop
  endfacet
  facet normal 0.000000e+00 0.000000e+00 1.000000e+00
    outer loop
      vertex -1.986019e+01 -2.691280e+01 2.987040e+01
      vertex -1.692320e+01 -1.165101e+01 2.987040e+01
      vertex -2.454300e+01 -1.170648e+01 2.987040e+01
    endloop
  endfacet
  facet normal 0.000000e+00 0.000000e+00 1.000000e+00
    outer loop
      vertex -1.692320e+01 -1.165101e+01 2.987040e+01
      vertex -1.986019e+01 -2.691280e+01 2.987040e+01
      vertex -1.376435e+01 -2.686843e+01 2.987040e+01
    endloop
  endfacet
  facet normal 0.000000e+00 0.000000e+00 1.000000e+00
    outer loop
      vertex -1.692320e+01 -1.165101e+01 2.987040e+01
      vertex -1.376435e+01 -2.686843e+01 2.987040e+01
      vertex -1.387528e+01 -1.162883e+01 2.987040e+01
    endloop
  endfacet
  facet normal -4.357487e-01 -9.000683e-01 0.000000e+00
    outer loop
      vertex -2.659073e+01 -5.088239e+01 1.440358e-11
      vertex -2.730844e+01 -5.053493e+01 2.255520e+01
      vertex -2.730844e+01 -5.053493e+01 1.435160e-11
    endloop
  endfacet
  facet normal -4.357487e-01 -9.000683e-01 0.000000e+00
    outer loop
      vertex -2.730844e+01 -5.053493e+01 2.255520e+01
      vertex -2.659073e+01 -5.088239e+01 1.440358e-11
      vertex -2.659073e+01 -5.088239e+01 2.255520e+01
    endloop
  endfacet
  facet normal -3.145382e-01 -9.492448e-01 0.000000e+00
    outer loop
      vertex -2.583381e+01 -5.113320e+01 1.443245e-11
      vertex -2.659073e+01 -5.088239e+01 2.255520e+01
      vertex -2.659073e+01 -5.088239e+01 1.440358e-11
    endloop
  endfacet
  facet normal -3.145382e-01 -9.492448e-01 0.000000e+00
    outer loop
      vertex -2.659073e+01 -5.088239e+01 2.255520e+01
      vertex -2.583381e+01 -5.113320e+01 1.443245e-11
      vertex -2.583381e+01 -5.113320e+01 2.255520e+01
    endloop
  endfacet
  facet normal -1.879464e-01 -9.821793e-01 0.000000e+00
    outer loop
      vertex -2.505062e+01 -5.128307e+01 1.444978e-11
      vertex -2.583381e+01 -5.113320e+01 2.255520e+01
      vertex -2.583381e+01 -5.113320e+01 1.443245e-11
    endloop
  endfacet
  facet normal -1.879464e-01 -9.821793e-01 0.000000e+00
    outer loop
      vertex -2.583381e+01 -5.113320e+01 2.255520e+01
      vertex -2.505062e+01 -5.128307e+01 1.444978e-11
      vertex -2.505062e+01 -5.128307e+01 2.255520e+01
    endloop
  endfacet
  facet normal -7.278746e-03 9.999735e-01 0.000000e+00
    outer loop
      vertex -2.494234e+01 4.315607e+01 1.584960e+01
      vertex 2.460249e+01 4.351670e+01 3.048000e+00
      vertex -2.494234e+01 4.315607e+01 3.048000e+00
    endloop
  endfacet
  facet normal -7.278746e-03 9.999735e-01 0.000000e+00
    outer loop
      vertex 2.460249e+01 4.351670e+01 3.048000e+00
      vertex -2.494234e+01 4.315607e+01 1.584960e+01
      vertex 2.460249e+01 4.351670e+01 1.584960e+01
    endloop
  endfacet
  facet normal 0.000000e+00 0.000000e+00 1.000000e+00
    outer loop
      vertex -2.494234e+01 4.315607e+01 3.048000e+00
      vertex 2.458031e+01 4.656462e+01 3.048000e+00
      vertex -2.496453e+01 4.620398e+01 3.048000e+00
    endloop
  endfacet
  facet normal 0.000000e+00 0.000000e+00 1.000000e+00
    outer loop
      vertex 2.458031e+01 4.656462e+01 3.048000e+00
      vertex -2.494234e+01 4.315607e+01 3.048000e+00
      vertex 2.460249e+01 4.351670e+01 3.048000e+00
    endloop
  endfacet
  facet normal -9.999735e-01 -7.278963e-03 -0.000000e+00
    outer loop
      vertex -2.425458e+01 -5.132943e+01 2.987040e+01
      vertex -2.427676e+01 -4.828151e+01 2.621280e+01
      vertex -2.425458e+01 -5.132943e+01 2.255520e+01
    endloop
  endfacet
  facet normal -9.999735e-01 -7.278807e-03 1.303654e-07
    outer loop
      vertex -2.427676e+01 -4.828151e+01 2.621280e+01
      vertex -2.425458e+01 -5.132943e+01 2.987040e+01
      vertex -2.429895e+01 -4.523359e+01 2.987040e+01
    endloop
  endfacet
  facet normal -9.999735e-01 -7.278651e-03 0.000000e+00
    outer loop
      vertex -2.427676e+01 -4.828151e+01 2.621280e+01
      vertex -2.429895e+01 -4.523359e+01 2.987040e+01
      vertex -2.429895e+01 -4.523359e+01 2.621280e+01
    endloop
  endfacet
  facet normal -9.999735e-01 -7.278963e-03 0.000000e+00
    outer loop
      vertex -2.427676e+01 -4.828151e+01 2.255520e+01
      vertex -2.425458e+01 -5.132943e+01 2.255520e+01
      vertex -2.427676e+01 -4.828151e+01 2.621280e+01
    endloop
  endfacet
  facet normal -7.278964e-03 9.999735e-01 0.000000e+00
    outer loop
      vertex -3.109768e+01 5.128506e+01 1.188720e+01
      vertex -2.500184e+01 5.132943e+01 2.814414e-14
      vertex -3.109768e+01 5.128506e+01 2.814414e-14
    endloop
  endfacet
  facet normal -7.278964e-03 9.999735e-01 0.000000e+00
    outer loop
      vertex -2.500184e+01 5.132943e+01 2.814414e-14
      vertex -3.109768e+01 5.128506e+01 1.188720e+01
      vertex -2.500184e+01 5.132943e+01 1.188720e+01
    endloop
  endfacet
  facet normal 0.000000e+00 0.000000e+00 1.000000e+00
    outer loop
      vertex -2.496453e+01 4.620398e+01 1.188720e+01
      vertex -3.109768e+01 5.128506e+01 1.188720e+01
      vertex -3.106037e+01 4.615961e+01 1.188720e+01
    endloop
  endfacet
  facet normal 0.000000e+00 0.000000e+00 1.000000e+00
    outer loop
      vertex -3.109768e+01 5.128506e+01 1.188720e+01
      vertex -2.496453e+01 4.620398e+01 1.188720e+01
      vertex -2.500184e+01 5.132943e+01 1.188720e+01
    endloop
  endfacet
  facet normal 3.028915e-13 -1.376949e-13 -1.000000e+00
    outer loop
      vertex -3.109768e+01 5.128506e+01 2.814414e-14
      vertex -3.033685e+01 -4.607325e+01 1.366434e-11
      vertex -3.039479e+01 -4.527796e+01 1.353728e-11
    endloop
  endfacet
  facet normal 1.019475e-15 -1.400540e-13 -1.000000e+00
    outer loop
      vertex -3.033685e+01 -4.607325e+01 1.366434e-11
      vertex -3.109768e+01 5.128506e+01 2.814414e-14
      vertex -2.500184e+01 5.132943e+01 2.814414e-14
    endloop
  endfacet
  facet normal 8.689590e-14 -1.447577e-13 -1.000000e+00
    outer loop
      vertex -3.033685e+01 -4.607325e+01 1.366434e-11
      vertex -2.500184e+01 5.132943e+01 2.814414e-14
      vertex -3.017559e+01 -4.685417e+01 1.379140e-11
    endloop
  endfacet
  facet normal 3.291690e-14 -1.419133e-13 -1.000000e+00
    outer loop
      vertex -3.017559e+01 -4.685417e+01 1.379140e-11
      vertex -2.500184e+01 5.132943e+01 2.814414e-14
      vertex -2.991379e+01 -4.760736e+01 1.390690e-11
    endloop
  endfacet
  facet normal 3.953248e-14 -1.422417e-13 -1.000000e+00
    outer loop
      vertex -2.991379e+01 -4.760736e+01 1.390690e-11
      vertex -2.500184e+01 5.132943e+01 2.814414e-14
      vertex -2.955591e+01 -4.831994e+01 1.402241e-11
    endloop
  endfacet
  facet normal 1.156053e-14 -1.409634e-13 -1.000000e+00
    outer loop
      vertex -2.955591e+01 -4.831994e+01 1.402241e-11
      vertex -2.500184e+01 5.132943e+01 2.814414e-14
      vertex -2.910809e+01 -4.897971e+01 1.412059e-11
    endloop
  endfacet
  facet normal 1.572355e-14 -1.411338e-13 -1.000000e+00
    outer loop
      vertex -2.910809e+01 -4.897971e+01 1.412059e-11
      vertex -2.500184e+01 5.132943e+01 2.814414e-14
      vertex -2.857798e+01 -4.957538e+01 1.421299e-11
    endloop
  endfacet
  facet normal 2.870438e-15 -1.406783e-13 -1.000000e+00
    outer loop
      vertex -2.857798e+01 -4.957538e+01 1.421299e-11
      vertex -2.500184e+01 5.132943e+01 2.814414e-14
      vertex -2.797466e+01 -5.009676e+01 1.428807e-11
    endloop
  endfacet
  facet normal 2.833115e-15 -1.406772e-13 -1.000000e+00
    outer loop
      vertex -2.797466e+01 -5.009676e+01 1.428807e-11
      vertex -2.500184e+01 5.132943e+01 2.814414e-14
      vertex -2.730844e+01 -5.053493e+01 1.435160e-11
    endloop
  endfacet
  facet normal 4.299495e-15 -1.407104e-13 -1.000000e+00
    outer loop
      vertex -2.730844e+01 -5.053493e+01 1.435160e-11
      vertex -2.500184e+01 5.132943e+01 2.814414e-14
      vertex -2.659073e+01 -5.088239e+01 1.440358e-11
    endloop
  endfacet
  facet normal -8.409180e-15 -1.405128e-13 -1.000000e+00
    outer loop
      vertex -2.659073e+01 -5.088239e+01 1.440358e-11
      vertex -2.500184e+01 5.132943e+01 2.814414e-14
      vertex -2.583381e+01 -5.113320e+01 1.443245e-11
    endloop
  endfacet
  facet normal -4.771776e-15 -1.405423e-13 -1.000000e+00
    outer loop
      vertex -2.583381e+01 -5.113320e+01 1.443245e-11
      vertex -2.500184e+01 5.132943e+01 2.814414e-14
      vertex -2.505062e+01 -5.128307e+01 1.444978e-11
    endloop
  endfacet
  facet normal -8.184620e-15 -1.405407e-13 -1.000000e+00
    outer loop
      vertex -2.505062e+01 -5.128307e+01 1.444978e-11
      vertex -2.500184e+01 5.132943e+01 2.814414e-14
      vertex -2.425458e+01 -5.132943e+01 1.444978e-11
    endloop
  endfacet
  facet normal -3.952125e-06 -2.876797e-08 -1.000000e+00
    outer loop
      vertex -2.425458e+01 -5.132943e+01 1.444978e-11
      vertex -2.500184e+01 5.132943e+01 2.814414e-14
      vertex -2.496453e+01 4.620398e+01 0.000000e+00
    endloop
  endfacet
  facet normal -9.116029e-16 -1.481587e-13 -1.000000e+00
    outer loop
      vertex -2.425458e+01 -5.132943e+01 1.444978e-11
      vertex -2.496453e+01 4.620398e+01 0.000000e+00
      vertex 6.224615e+00 -5.110757e+01 1.438912e-11
    endloop
  endfacet
  facet normal -6.873075e-13 -3.681542e-13 -1.000000e+00
    outer loop
      vertex 6.224615e+00 -5.110757e+01 1.438912e-11
      vertex -2.496453e+01 4.620398e+01 0.000000e+00
      vertex 5.936198e+00 -1.148462e+01 0.000000e+00
    endloop
  endfacet
  facet normal 0.000000e+00 0.000000e+00 -1.000000e+00
    outer loop
      vertex 5.936198e+00 -1.148462e+01 0.000000e+00
      vertex -2.496453e+01 4.620398e+01 0.000000e+00
      vertex 3.067615e+01 4.660900e+01 0.000000e+00
    endloop
  endfacet
  facet normal 0.000000e+00 0.000000e+00 -1.000000e+00
    outer loop
      vertex 5.936198e+00 -1.148462e+01 0.000000e+00
      vertex 3.067615e+01 4.660900e+01 0.000000e+00
      vertex 3.109768e+01 -1.130147e+01 0.000000e+00
    endloop
  endfacet
  facet normal -7.278963e-03 9.999735e-01 0.000000e+00
    outer loop
      vertex -3.106037e+01 4.615961e+01 1.584960e+01
      vertex -2.496453e+01 4.620398e+01 1.188720e+01
      vertex -3.106037e+01 4.615961e+01 1.188720e+01
    endloop
  endfacet
  facet normal -7.278963e-03 9.999735e-01 0.000000e+00
    outer loop
      vertex -2.496453e+01 4.620398e+01 1.188720e+01
      vertex -3.106037e+01 4.615961e+01 1.584960e+01
      vertex -2.496453e+01 4.620398e+01 1.584960e+01
    endloop
  endfacet
  facet normal -8.274035e-01 -5.616079e-01 0.000000e+00
    outer loop
      vertex -2.955591e+01 -4.831994e+01 2.255520e+01
      vertex -2.910809e+01 -4.897971e+01 1.412059e-11
      vertex -2.910809e+01 -4.897971e+01 2.255520e+01
    endloop
  endfacet
  facet normal -8.274035e-01 -5.616079e-01 0.000000e+00
    outer loop
      vertex -2.910809e+01 -4.897971e+01 1.412059e-11
      vertex -2.955591e+01 -4.831994e+01 2.255520e+01
      vertex -2.955591e+01 -4.831994e+01 1.402241e-11
    endloop
  endfacet
  facet normal 0.000000e+00 0.000000e+00 1.000000e+00
    outer loop
      vertex -1.419644e+01 -5.125622e+01 2.987040e+01
      vertex -2.429895e+01 -4.523359e+01 2.987040e+01
      vertex -2.425458e+01 -5.132943e+01 2.987040e+01
    endloop
  endfacet
  facet normal 0.000000e+00 0.000000e+00 1.000000e+00
    outer loop
      vertex -2.429895e+01 -4.523359e+01 2.987040e+01
      vertex -1.419644e+01 -5.125622e+01 2.987040e+01
      vertex -1.424082e+01 -4.516038e+01 2.987040e+01
    endloop
  endfacet
  facet normal 7.278885e-03 -9.999735e-01 0.000000e+00
    outer loop
      vertex 6.224615e+00 -5.110757e+01 2.621280e+01
      vertex -2.425458e+01 -5.132943e+01 1.444978e-11
      vertex 6.224615e+00 -5.110757e+01 1.438912e-11
    endloop
  endfacet
  facet normal 7.278885e-03 -9.999735e-01 0.000000e+00
    outer loop
      vertex -2.425458e+01 -5.132943e+01 1.444978e-11
      vertex 6.224615e+00 -5.110757e+01 2.621280e+01
      vertex -2.425458e+01 -5.132943e+01 2.255520e+01
    endloop
  endfacet
  facet normal 7.278879e-03 -9.999735e-01 4.722751e-08
    outer loop
      vertex -2.425458e+01 -5.132943e+01 2.255520e+01
      vertex 6.224615e+00 -5.110757e+01 2.621280e+01
      vertex -1.419644e+01 -5.125622e+01 2.621280e+01
    endloop
  endfacet
  facet normal 7.278897e-03 -9.999735e-01 0.000000e+00
    outer loop
      vertex -1.419644e+01 -5.125622e+01 2.621280e+01
      vertex -2.425458e+01 -5.132943e+01 2.987040e+01
      vertex -2.425458e+01 -5.132943e+01 2.255520e+01
    endloop
  endfacet
  facet normal 7.278896e-03 -9.999735e-01 0.000000e+00
    outer loop
      vertex -2.425458e+01 -5.132943e+01 2.987040e+01
      vertex -1.419644e+01 -5.125622e+01 2.621280e+01
      vertex -1.419644e+01 -5.125622e+01 2.987040e+01
    endloop
  endfacet
  facet normal -9.999735e-01 -7.278839e-03 0.000000e+00
    outer loop
      vertex -1.387528e+01 -1.162883e+01 3.230880e+01
      vertex -1.376435e+01 -2.686843e+01 2.987040e+01
      vertex -1.376435e+01 -2.686843e+01 3.230880e+01
    endloop
  endfacet
  facet normal -9.999735e-01 -7.278839e-03 0.000000e+00
    outer loop
      vertex -1.376435e+01 -2.686843e+01 2.987040e+01
      vertex -1.387528e+01 -1.162883e+01 3.230880e+01
      vertex -1.387528e+01 -1.162883e+01 2.987040e+01
    endloop
  endfacet
  facet normal -9.445654e-01 -3.283235e-01 0.000000e+00
    outer loop
      vertex -3.017559e+01 -4.685417e+01 2.255520e+01
      vertex -2.991379e+01 -4.760736e+01 1.390690e-11
      vertex -2.991379e+01 -4.760736e+01 2.255520e+01
    endloop
  endfacet
  facet normal -9.445654e-01 -3.283235e-01 0.000000e+00
    outer loop
      vertex -2.991379e+01 -4.760736e+01 1.390690e-11
      vertex -3.017559e+01 -4.685417e+01 2.255520e+01
      vertex -3.017559e+01 -4.685417e+01 1.379140e-11
    endloop
  endfacet
  facet normal -7.278961e-03 9.999735e-01 0.000000e+00
    outer loop
      vertex 1.364317e+00 -1.151790e+01 2.987040e+01
      vertex 4.412237e+00 -1.149571e+01 2.621280e+01
      vertex 1.364317e+00 -1.151790e+01 2.621280e+01
    endloop
  endfacet
  facet normal -7.278961e-03 9.999735e-01 0.000000e+00
    outer loop
      vertex 4.412237e+00 -1.149571e+01 2.621280e+01
      vertex 1.364317e+00 -1.151790e+01 2.987040e+01
      vertex 4.412237e+00 -1.149571e+01 2.987040e+01
    endloop
  endfacet
  facet normal -9.445658e-01 -3.283221e-01 0.000000e+00
    outer loop
      vertex -2.723727e+01 -4.604388e+01 2.621280e+01
      vertex -2.710637e+01 -4.642048e+01 2.255520e+01
      vertex -2.710637e+01 -4.642048e+01 2.621280e+01
    endloop
  endfacet
  facet normal -9.445658e-01 -3.283221e-01 0.000000e+00
    outer loop
      vertex -2.710637e+01 -4.642048e+01 2.255520e+01
      vertex -2.723727e+01 -4.604388e+01 2.621280e+01
      vertex -2.723727e+01 -4.604388e+01 2.255520e+01
    endloop
  endfacet
  facet normal 7.277709e-03 -9.999735e-01 0.000000e+00
    outer loop
      vertex -1.387528e+01 -1.162883e+01 3.230880e+01
      vertex -1.692320e+01 -1.165101e+01 2.987040e+01
      vertex -1.387528e+01 -1.162883e+01 2.987040e+01
    endloop
  endfacet
  facet normal 7.277709e-03 -9.999735e-01 0.000000e+00
    outer loop
      vertex -1.692320e+01 -1.165101e+01 2.987040e+01
      vertex -1.387528e+01 -1.162883e+01 3.230880e+01
      vertex -1.692320e+01 -1.165101e+01 3.230880e+01
    endloop
  endfacet
  facet normal -9.973565e-01 -7.266349e-02 0.000000e+00
    outer loop
      vertex -2.734687e+01 -4.525578e+01 2.621280e+01
      vertex -2.731790e+01 -4.565342e+01 2.255520e+01
      vertex -2.731790e+01 -4.565342e+01 2.621280e+01
    endloop
  endfacet
  facet normal -9.973565e-01 -7.266349e-02 0.000000e+00
    outer loop
      vertex -2.731790e+01 -4.565342e+01 2.255520e+01
      vertex -2.734687e+01 -4.525578e+01 2.621280e+01
      vertex -2.734687e+01 -4.525578e+01 2.255520e+01
    endloop
  endfacet
  facet normal -5.495040e-01 -8.354911e-01 0.000000e+00
    outer loop
      vertex -2.580370e+01 -4.788426e+01 2.255520e+01
      vertex -2.613680e+01 -4.766518e+01 2.621280e+01
      vertex -2.613680e+01 -4.766518e+01 2.255520e+01
    endloop
  endfacet
  facet normal -5.495040e-01 -8.354911e-01 0.000000e+00
    outer loop
      vertex -2.613680e+01 -4.766518e+01 2.621280e+01
      vertex -2.580370e+01 -4.788426e+01 2.255520e+01
      vertex -2.580370e+01 -4.788426e+01 2.621280e+01
    endloop
  endfacet
  facet normal -9.973565e-01 -7.266460e-02 0.000000e+00
    outer loop
      vertex -3.039479e+01 -4.527796e+01 2.255520e+01
      vertex -3.033685e+01 -4.607325e+01 1.366434e-11
      vertex -3.033685e+01 -4.607325e+01 2.255520e+01
    endloop
  endfacet
  facet normal -9.973565e-01 -7.266460e-02 0.000000e+00
    outer loop
      vertex -3.033685e+01 -4.607325e+01 1.366434e-11
      vertex -3.039479e+01 -4.527796e+01 2.255520e+01
      vertex -3.039479e+01 -4.527796e+01 1.353728e-11
    endloop
  endfacet
  facet normal 7.278961e-03 -9.999735e-01 0.000000e+00
    outer loop
      vertex 1.364317e+00 -1.151790e+01 2.987040e+01
      vertex -1.683603e+00 -1.154009e+01 3.230880e+01
      vertex -1.683603e+00 -1.154009e+01 2.987040e+01
    endloop
  endfacet
  facet normal 7.278961e-03 -9.999735e-01 0.000000e+00
    outer loop
      vertex -1.683603e+00 -1.154009e+01 3.230880e+01
      vertex 1.364317e+00 -1.151790e+01 2.987040e+01
      vertex 1.364317e+00 -1.151790e+01 3.230880e+01
    endloop
  endfacet
  facet normal -9.999735e-01 -7.278881e-03 0.000000e+00
    outer loop
      vertex -2.470939e+01 1.115291e+01 2.621280e+01
      vertex -2.454300e+01 -1.170648e+01 1.188720e+01
      vertex -2.454300e+01 -1.170648e+01 2.621280e+01
    endloop
  endfacet
  facet normal -9.999735e-01 -7.278881e-03 0.000000e+00
    outer loop
      vertex -2.454300e+01 -1.170648e+01 1.188720e+01
      vertex -2.470939e+01 1.115291e+01 2.621280e+01
      vertex -2.470939e+01 1.115291e+01 2.011680e+01
    endloop
  endfacet
  facet normal -9.999735e-01 -7.278870e-03 -3.024986e-08
    outer loop
      vertex -2.454300e+01 -1.170648e+01 1.188720e+01
      vertex -2.470939e+01 1.115291e+01 2.011680e+01
      vertex -2.484251e+01 2.944043e+01 1.188720e+01
    endloop
  endfacet
  facet normal -9.999735e-01 -7.278857e-03 0.000000e+00
    outer loop
      vertex -2.484251e+01 2.944043e+01 1.188720e+01
      vertex -2.470939e+01 1.115291e+01 2.011680e+01
      vertex -2.484251e+01 2.944043e+01 2.011680e+01
    endloop
  endfacet
  facet normal NaN NaN NaN
    outer loop
      vertex -2.484251e+01 2.944043e+01 1.188720e+01
      vertex -2.484251e+01 2.944043e+01 2.011680e+01
      vertex -2.484251e+01 2.944043e+01 1.584960e+01
    endloop
  endfacet
  facet normal -9.999735e-01 -7.278900e-03 0.000000e+00
    outer loop
      vertex -2.454300e+01 -1.170648e+01 2.987040e+01
      vertex -2.432114e+01 -4.218567e+01 2.621280e+01
      vertex -2.432114e+01 -4.218567e+01 2.987040e+01
    endloop
  endfacet
  facet normal -9.999735e-01 -7.278900e-03 0.000000e+00
    outer loop
      vertex -2.432114e+01 -4.218567e+01 2.621280e+01
      vertex -2.454300e+01 -1.170648e+01 2.987040e+01
      vertex -2.454300e+01 -1.170648e+01 2.621280e+01
    endloop
  endfacet
  facet normal 9.999735e-01 7.278963e-03 0.000000e+00
    outer loop
      vertex -1.424082e+01 -4.516038e+01 2.621280e+01
      vertex -1.419644e+01 -5.125622e+01 2.987040e+01
      vertex -1.419644e+01 -5.125622e+01 2.621280e+01
    endloop
  endfacet
  facet normal 9.999735e-01 7.278963e-03 0.000000e+00
    outer loop
      vertex -1.419644e+01 -5.125622e+01 2.987040e+01
      vertex -1.424082e+01 -4.516038e+01 2.621280e+01
      vertex -1.424082e+01 -4.516038e+01 2.987040e+01
    endloop
  endfacet
  facet normal 0.000000e+00 0.000000e+00 1.000000e+00
    outer loop
      vertex -1.692320e+01 -1.165101e+01 2.621280e+01
      vertex -2.470939e+01 1.115291e+01 2.621280e+01
      vertex -2.454300e+01 -1.170648e+01 2.621280e+01
    endloop
  endfacet
  facet normal 0.000000e+00 0.000000e+00 1.000000e+00
    outer loop
      vertex -2.470939e+01 1.115291e+01 2.621280e+01
      vertex -1.692320e+01 -1.165101e+01 2.621280e+01
      vertex -1.698976e+01 -2.507257e+00 2.621280e+01
    endloop
  endfacet
  facet normal 0.000000e+00 0.000000e+00 1.000000e+00
    outer loop
      vertex -1.708959e+01 1.120838e+01 2.621280e+01
      vertex -2.470939e+01 1.115291e+01 2.621280e+01
      vertex -1.698976e+01 -2.507257e+00 2.621280e+01
    endloop
  endfacet
  facet normal -7.278962e-03 9.999735e-01 0.000000e+00
    outer loop
      vertex -4.036882e-01 2.199812e+01 2.011680e+01
      vertex 1.483591e+01 2.210905e+01 1.584960e+01
      vertex -4.036882e-01 2.199812e+01 1.584960e+01
    endloop
  endfacet
  facet normal -7.278962e-03 9.999735e-01 0.000000e+00
    outer loop
      vertex 1.483591e+01 2.210905e+01 1.584960e+01
      vertex -4.036882e-01 2.199812e+01 2.011680e+01
      vertex 1.483591e+01 2.210905e+01 2.011680e+01
    endloop
  endfacet
  facet normal 0.000000e+00 0.000000e+00 1.000000e+00
    outer loop
      vertex -3.033685e+01 -4.607325e+01 2.255520e+01
      vertex -3.063883e+01 -1.175085e+01 2.255520e+01
      vertex -3.039479e+01 -4.527796e+01 2.255520e+01
    endloop
  endfacet
  facet normal 0.000000e+00 0.000000e+00 1.000000e+00
    outer loop
      vertex -3.063883e+01 -1.175085e+01 2.255520e+01
      vertex -3.033685e+01 -4.607325e+01 2.255520e+01
      vertex -2.759092e+01 -1.172867e+01 2.255520e+01
    endloop
  endfacet
  facet normal 0.000000e+00 0.000000e+00 1.000000e+00
    outer loop
      vertex -2.759092e+01 -1.172867e+01 2.255520e+01
      vertex -3.033685e+01 -4.607325e+01 2.255520e+01
      vertex -3.017559e+01 -4.685417e+01 2.255520e+01
    endloop
  endfacet
  facet normal 0.000000e+00 0.000000e+00 1.000000e+00
    outer loop
      vertex -2.759092e+01 -1.172867e+01 2.255520e+01
      vertex -3.017559e+01 -4.685417e+01 2.255520e+01
      vertex -2.991379e+01 -4.760736e+01 2.255520e+01
    endloop
  endfacet
  facet normal 0.000000e+00 0.000000e+00 1.000000e+00
    outer loop
      vertex -2.759092e+01 -1.172867e+01 2.255520e+01
      vertex -2.991379e+01 -4.760736e+01 2.255520e+01
      vertex -2.955591e+01 -4.831994e+01 2.255520e+01
    endloop
  endfacet
  facet normal 0.000000e+00 0.000000e+00 1.000000e+00
    outer loop
      vertex -2.759092e+01 -1.172867e+01 2.255520e+01
      vertex -2.955591e+01 -4.831994e+01 2.255520e+01
      vertex -2.910809e+01 -4.897971e+01 2.255520e+01
    endloop
  endfacet
  facet normal 0.000000e+00 0.000000e+00 1.000000e+00
    outer loop
      vertex -2.759092e+01 -1.172867e+01 2.255520e+01
      vertex -2.910809e+01 -4.897971e+01 2.255520e+01
      vertex -2.857798e+01 -4.957538e+01 2.255520e+01
    endloop
  endfacet
  facet normal 0.000000e+00 0.000000e+00 1.000000e+00
    outer loop
      vertex -2.759092e+01 -1.172867e+01 2.255520e+01
      vertex -2.857798e+01 -4.957538e+01 2.255520e+01
      vertex -2.797466e+01 -5.009676e+01 2.255520e+01
    endloop
  endfacet
  facet normal 0.000000e+00 0.000000e+00 1.000000e+00
    outer loop
      vertex -2.759092e+01 -1.172867e+01 2.255520e+01
      vertex -2.797466e+01 -5.009676e+01 2.255520e+01
      vertex -2.730844e+01 -5.053493e+01 2.255520e+01
    endloop
  endfacet
  facet normal 0.000000e+00 0.000000e+00 1.000000e+00
    outer loop
      vertex -2.759092e+01 -1.172867e+01 2.255520e+01
      vertex -2.730844e+01 -5.053493e+01 2.255520e+01
      vertex -2.734687e+01 -4.525578e+01 2.255520e+01
    endloop
  endfacet
  facet normal 0.000000e+00 0.000000e+00 1.000000e+00
    outer loop
      vertex -2.734687e+01 -4.525578e+01 2.255520e+01
      vertex -2.730844e+01 -5.053493e+01 2.255520e+01
      vertex -2.731790e+01 -4.565342e+01 2.255520e+01
    endloop
  endfacet
  facet normal 0.000000e+00 0.000000e+00 1.000000e+00
    outer loop
      vertex -2.731790e+01 -4.565342e+01 2.255520e+01
      vertex -2.730844e+01 -5.053493e+01 2.255520e+01
      vertex -2.659073e+01 -5.088239e+01 2.255520e+01
    endloop
  endfacet
  facet normal 0.000000e+00 0.000000e+00 1.000000e+00
    outer loop
      vertex -2.731790e+01 -4.565342e+01 2.255520e+01
      vertex -2.659073e+01 -5.088239e+01 2.255520e+01
      vertex -2.723727e+01 -4.604388e+01 2.255520e+01
    endloop
  endfacet
  facet normal 0.000000e+00 0.000000e+00 1.000000e+00
    outer loop
      vertex -2.723727e+01 -4.604388e+01 2.255520e+01
      vertex -2.659073e+01 -5.088239e+01 2.255520e+01
      vertex -2.710637e+01 -4.642048e+01 2.255520e+01
    endloop
  endfacet
  facet normal 0.000000e+00 0.000000e+00 1.000000e+00
    outer loop
      vertex -2.710637e+01 -4.642048e+01 2.255520e+01
      vertex -2.659073e+01 -5.088239e+01 2.255520e+01
      vertex -2.692743e+01 -4.677677e+01 2.255520e+01
    endloop
  endfacet
  facet normal 0.000000e+00 0.000000e+00 1.000000e+00
    outer loop
      vertex -2.692743e+01 -4.677677e+01 2.255520e+01
      vertex -2.659073e+01 -5.088239e+01 2.255520e+01
      vertex -2.670352e+01 -4.710665e+01 2.255520e+01
    endloop
  endfacet
  facet normal 0.000000e+00 0.000000e+00 1.000000e+00
    outer loop
      vertex -2.670352e+01 -4.710665e+01 2.255520e+01
      vertex -2.659073e+01 -5.088239e+01 2.255520e+01
      vertex -2.643847e+01 -4.740449e+01 2.255520e+01
    endloop
  endfacet
  facet normal 0.000000e+00 0.000000e+00 1.000000e+00
    outer loop
      vertex -2.643847e+01 -4.740449e+01 2.255520e+01
      vertex -2.659073e+01 -5.088239e+01 2.255520e+01
      vertex -2.583381e+01 -5.113320e+01 2.255520e+01
    endloop
  endfacet
  facet normal 0.000000e+00 0.000000e+00 1.000000e+00
    outer loop
      vertex -2.643847e+01 -4.740449e+01 2.255520e+01
      vertex -2.583381e+01 -5.113320e+01 2.255520e+01
      vertex -2.613680e+01 -4.766518e+01 2.255520e+01
    endloop
  endfacet
  facet normal 0.000000e+00 0.000000e+00 1.000000e+00
    outer loop
      vertex -2.613680e+01 -4.766518e+01 2.255520e+01
      vertex -2.583381e+01 -5.113320e+01 2.255520e+01
      vertex -2.580370e+01 -4.788426e+01 2.255520e+01
    endloop
  endfacet
  facet normal 0.000000e+00 0.000000e+00 1.000000e+00
    outer loop
      vertex -2.580370e+01 -4.788426e+01 2.255520e+01
      vertex -2.583381e+01 -5.113320e+01 2.255520e+01
      vertex -2.505062e+01 -5.128307e+01 2.255520e+01
    endloop
  endfacet
  facet normal 0.000000e+00 0.000000e+00 1.000000e+00
    outer loop
      vertex -2.580370e+01 -4.788426e+01 2.255520e+01
      vertex -2.505062e+01 -5.128307e+01 2.255520e+01
      vertex -2.544484e+01 -4.805799e+01 2.255520e+01
    endloop
  endfacet
  facet normal 0.000000e+00 0.000000e+00 1.000000e+00
    outer loop
      vertex -2.544484e+01 -4.805799e+01 2.255520e+01
      vertex -2.505062e+01 -5.128307e+01 2.255520e+01
      vertex -2.506638e+01 -4.818340e+01 2.255520e+01
    endloop
  endfacet
  facet normal 0.000000e+00 0.000000e+00 1.000000e+00
    outer loop
      vertex -2.506638e+01 -4.818340e+01 2.255520e+01
      vertex -2.505062e+01 -5.128307e+01 2.255520e+01
      vertex -2.425458e+01 -5.132943e+01 2.255520e+01
    endloop
  endfacet
  facet normal 0.000000e+00 0.000000e+00 1.000000e+00
    outer loop
      vertex -2.506638e+01 -4.818340e+01 2.255520e+01
      vertex -2.425458e+01 -5.132943e+01 2.255520e+01
      vertex -2.467479e+01 -4.825833e+01 2.255520e+01
    endloop
  endfacet
  facet normal 0.000000e+00 0.000000e+00 1.000000e+00
    outer loop
      vertex -2.467479e+01 -4.825833e+01 2.255520e+01
      vertex -2.425458e+01 -5.132943e+01 2.255520e+01
      vertex -2.427676e+01 -4.828151e+01 2.255520e+01
    endloop
  endfacet
endsolid Default
