solid Federal Building
facet normal 7.76490946031287e-17 9.38848186235946e-17 -1.0
outer loop
vertex -30.0507544080559 -0.527978759301261 0.0
vertex -30.2400818676715 -2.05297121929427 0.0
vertex -32.1239879590382 -0.270587295609054 0.0
endloop
endfacet
facet normal 7.76490946031287e-17 9.38848186235946e-17 -1.0
outer loop
vertex -49.1929901091281 -9.57533379687145 0.0
vertex -30.2400818676715 -2.05297121929427 0.0
vertex 30.6392536653416 -19.4864883145131 0.0
endloop
endfacet
facet normal 7.76490946031287e-17 9.38848186235946e-17 -1.0
outer loop
vertex -30.2400818676715 -2.05297121929427 0.0
vertex -49.1929901091281 -9.57533379687145 0.0
vertex -32.1239879590382 -0.270587295609054 0.0
endloop
endfacet
facet normal 7.76490946031287e-17 9.38848186235946e-17 -1.0
outer loop
vertex -32.1239879590382 -0.270587295609054 0.0
vertex -49.1929901091281 -9.57533379687145 0.0
vertex -41.8420776688485 49.6347040299645 0.0
endloop
endfacet
facet normal 7.76490946031287e-17 9.38848186235946e-17 -1.0
outer loop
vertex 30.6392536653416 -19.4864883145131 0.0
vertex -30.2400818676715 -2.05297121929427 0.0
vertex 31.8466674622997 -9.76102672435848 0.0
endloop
endfacet
facet normal 7.76490946031287e-17 9.38848186235946e-17 -1.0
outer loop
vertex -41.8420776688485 49.6347040299645 0.0
vertex -30.1071028727205 15.9749935385313 0.0
vertex -32.1239879590382 -0.270587295609054 0.0
endloop
endfacet
facet normal 7.76490946031287e-17 9.38848186235946e-17 -1.0
outer loop
vertex -30.1071028727205 15.9749935385313 0.0
vertex -41.8420776688485 49.6347040299645 0.0
vertex -27.264843943864 38.868785303633 0.0
endloop
endfacet
facet normal 7.76490946031287e-17 9.38848186235946e-17 -1.0
outer loop
vertex -27.264843943864 38.868785303633 0.0
vertex -41.8420776688485 49.6347040299645 0.0
vertex -25.0093240371362 40.0796717043142 0.0
endloop
endfacet
facet normal 7.76490946031287e-17 9.38848186235946e-17 -1.0
outer loop
vertex -25.0093240371362 40.0796717043142 0.0
vertex -41.8420776688485 49.6347040299645 0.0
vertex -1.19538363923486 44.5884264093969 1.15505827125162e-14
endloop
endfacet
facet normal 7.76490946031287e-17 9.38848186235946e-17 -1.0
outer loop
vertex -30.1071028727205 15.9749935385313 0.0
vertex -27.264843943864 38.868785303633 0.0
vertex -29.2684291673161 22.7303320389962 0.0
endloop
endfacet
facet normal 7.76490946031287e-17 9.38848186235946e-17 -1.0
outer loop
vertex -27.264843943864 38.868785303633 0.0
vertex -25.0093240371362 40.0796717043142 0.0
vertex -25.1916103928818 38.6113938399408 0.0
endloop
endfacet
facet normal 7.76490946031287e-17 9.38848186235946e-17 -1.0
outer loop
vertex -25.0093240371362 40.0796717043142 0.0
vertex -1.19538363923486 44.5884264093969 1.15505827125162e-14
vertex -2.10812445202116 37.236493096324 1.15505827125162e-14
endloop
endfacet
facet normal 7.76490946031287e-17 9.38848186235946e-17 -1.0
outer loop
vertex -29.2684291673161 22.7303320389962 0.0
vertex -28.0338693217383 15.7176020748391 0.0
vertex -30.1071028727205 15.9749935385313 0.0
endloop
endfacet
facet normal 7.76490946031287e-17 9.38848186235946e-17 -1.0
outer loop
vertex -28.0338693217383 15.7176020748391 0.0
vertex -29.2684291673161 22.7303320389962 0.0
vertex -27.1951956163339 22.472940575304 0.0
endloop
endfacet
facet normal 0.0 0.0 -1.0
outer loop
vertex 44.0215289520814 5.01373553498857 34.11855
vertex 47.7925953308401 -0.693140697578255 34.11855
vertex 43.7217476897017 -0.187745908687173 34.11855
endloop
endfacet
facet normal 0.0 0.0 -1.0
outer loop
vertex 47.7925953308401 -0.693140697578255 34.11855
vertex 44.0215289520814 5.01373553498857 34.11855
vertex 45.3259646513316 4.85179014597859 34.11855
endloop
endfacet
facet normal 0.0 0.0 -1.0
outer loop
vertex 47.7925953308401 -0.693140697578255 34.11855
vertex 45.3259646513316 4.85179014597859 34.11855
vertex 45.5246802494405 6.45240206679769 34.11855
endloop
endfacet
facet normal 0.0 0.0 -1.0
outer loop
vertex 47.7925953308401 -0.693140697578255 34.11855
vertex 45.5246802494405 6.45240206679769 34.11855
vertex 46.8710830513644 8.45902690474344 34.11855
endloop
endfacet
facet normal 0.0 0.0 -1.0
outer loop
vertex 47.7925953308401 -0.693140697578255 34.11855
vertex 46.8710830513644 8.45902690474344 34.11855
vertex 48.6040290286292 8.24388206427123 34.11855
endloop
endfacet
facet normal 0.0 0.0 -1.0
outer loop
vertex -30.0507544080559 -0.527978759301261 34.11855
vertex 55.581704548216 -12.7077260643525 34.11855
vertex -30.2400818676715 -2.05297121929427 34.11855
endloop
endfacet
facet normal 0.0 0.0 -1.0
outer loop
vertex 55.581704548216 -12.7077260643525 34.11855
vertex -30.0507544080559 -0.527978759301261 34.11855
vertex 1.8262225554526 2.21397340199743 34.11855
endloop
endfacet
facet normal 0.0 0.0 -1.0
outer loop
vertex 1.8262225554526 2.21397340199743 34.11855
vertex -30.0507544080559 -0.527978759301261 34.11855
vertex -28.2733309476876 15.747331180068 34.11855
endloop
endfacet
facet normal 0.0 0.0 -1.0
outer loop
vertex 1.8262225554526 2.21397340199743 34.11855
vertex -28.2733309476876 15.747331180068 34.11855
vertex -27.4229908253214 22.5966401903468 34.11855
endloop
endfacet
facet normal 0.0 0.0 -1.0
outer loop
vertex 1.8262225554526 2.21397340199743 34.11855
vertex -27.4229908253214 22.5966401903468 34.11855
vertex -27.264843943864 38.868785303633 34.11855
endloop
endfacet
facet normal 0.0 0.0 -1.0
outer loop
vertex 1.8262225554526 2.21397340199743 34.11855
vertex -27.264843943864 38.868785303633 34.11855
vertex -8.73431141014975 16.3009842108276 34.11855
endloop
endfacet
facet normal 0.0 0.0 -1.0
outer loop
vertex -8.73431141014975 16.3009842108276 34.11855
vertex -27.264843943864 38.868785303633 34.11855
vertex -25.1916103928818 38.6113938399408 34.11855
endloop
endfacet
facet normal 0.0 0.0 -1.0
outer loop
vertex -8.73431141014975 16.3009842108276 34.11855
vertex -25.1916103928818 38.6113938399408 34.11855
vertex -25.0093240371362 40.0796717043142 34.11855
endloop
endfacet
facet normal 0.0 0.0 -1.0
outer loop
vertex 1.8262225554526 2.21397340199743 34.11855
vertex -8.73431141014975 16.3009842108276 34.11855
vertex -1.03372964935861 15.3449587742565 34.11855
endloop
endfacet
facet normal 0.0 0.0 -1.0
outer loop
vertex 1.8262225554526 2.21397340199743 34.11855
vertex -1.03372964935861 15.3449587742565 34.11855
vertex -0.481394168000865 19.7939037195254 34.11855
endloop
endfacet
facet normal 0.0 0.0 -1.0
outer loop
vertex 55.581704548216 -12.7077260643525 34.11855
vertex 1.8262225554526 2.21397340199743 34.11855
vertex 25.1989375724529 -0.687743737316836 34.11855
endloop
endfacet
facet normal 0.0 0.0 -1.0
outer loop
vertex 55.581704548216 -12.7077260643525 34.11855
vertex 25.1989375724529 -0.687743737316836 34.11855
vertex 27.0689064479586 6.19851322355409 34.11855
endloop
endfacet
facet normal 0.0 0.0 -1.0
outer loop
vertex 27.0689064479586 6.19851322355409 34.11855
vertex 25.1989375724529 -0.687743737316836 34.11855
vertex 26.7558038725972 11.8524835163447 34.11855
endloop
endfacet
facet normal 0.0 0.0 -1.0
outer loop
vertex 55.581704548216 -12.7077260643525 34.11855
vertex 27.0689064479586 6.19851322355409 34.11855
vertex 30.2449238026548 5.80421140683411 34.11855
endloop
endfacet
facet normal 0.0 0.0 -1.0
outer loop
vertex 55.581704548216 -12.7077260643525 34.11855
vertex 30.2449238026548 5.80421140683411 34.11855
vertex 43.3399633909728 -3.26293731561522 34.11855
endloop
endfacet
facet normal 0.0 0.0 -1.0
outer loop
vertex 43.3399633909728 -3.26293731561522 34.11855
vertex 30.2449238026548 5.80421140683411 34.11855
vertex 30.4131279506603 7.1590600799684 34.11855
endloop
endfacet
facet normal 0.0 0.0 -1.0
outer loop
vertex 55.581704548216 -12.7077260643525 34.11855
vertex 43.3399633909728 -3.26293731561522 34.11855
vertex 47.4108110321112 -3.7683321045063 34.11855
endloop
endfacet
facet normal 0.0 0.0 -1.0
outer loop
vertex 55.581704548216 -12.7077260643525 34.11855
vertex 47.4108110321112 -3.7683321045063 34.11855
vertex 47.7925953308401 -0.693140697578255 34.11855
endloop
endfacet
facet normal 0.0 0.0 -1.0
outer loop
vertex 55.581704548216 -12.7077260643525 34.11855
vertex 47.7925953308401 -0.693140697578255 34.11855
vertex 48.6040290286292 8.24388206427123 34.11855
endloop
endfacet
facet normal 0.0 0.0 -1.0
outer loop
vertex 55.581704548216 -12.7077260643525 34.11855
vertex 48.6040290286292 8.24388206427123 34.11855
vertex 48.9521406930174 11.0478475561531 34.11855
endloop
endfacet
facet normal 0.0 0.0 -1.0
outer loop
vertex -30.1071028727205 15.9749935385313 34.11855
vertex -30.0507544080559 -0.527978759301261 34.11855
vertex -32.1239879590382 -0.270587295609054 34.11855
endloop
endfacet
facet normal 0.0 0.0 -1.0
outer loop
vertex -30.0507544080559 -0.527978759301261 34.11855
vertex -30.1071028727205 15.9749935385313 34.11855
vertex -28.2733309476876 15.747331180068 34.11855
endloop
endfacet
facet normal 0.0 0.0 -1.0
outer loop
vertex -27.264843943864 38.868785303633 34.11855
vertex -27.4229908253214 22.5966401903468 34.11855
vertex -29.2567627503543 22.8243025488102 34.11855
endloop
endfacet
facet normal 0.0 0.0 -1.0
outer loop
vertex 26.7558038725972 11.8524835163447 34.11855
vertex 23.0630535355894 12.3109376127691 34.11855
vertex 23.2523809952049 13.8359300727621 34.11855
endloop
endfacet
facet normal 0.0 0.0 -1.0
outer loop
vertex -25.0093240371362 40.0796717043142 34.11855
vertex -8.181975928792 20.7499291560964 34.11855
vertex -8.73431141014975 16.3009842108276 34.11855
endloop
endfacet
facet normal 0.0 0.0 -1.0
outer loop
vertex -8.181975928792 20.7499291560964 34.11855
vertex -25.0093240371362 40.0796717043142 34.11855
vertex 60.8124623787512 29.4249168592559 34.11855
endloop
endfacet
facet normal 0.0 0.0 -1.0
outer loop
vertex -8.181975928792 20.7499291560964 34.11855
vertex 60.8124623787512 29.4249168592559 34.11855
vertex -0.481394168000865 19.7939037195254 34.11855
endloop
endfacet
facet normal 0.0 0.0 -1.0
outer loop
vertex -0.481394168000865 19.7939037195254 34.11855
vertex 60.8124623787512 29.4249168592559 34.11855
vertex 6.69802069602461 15.8911500579275 34.11855
endloop
endfacet
facet normal 0.0 0.0 -1.0
outer loop
vertex -0.481394168000865 19.7939037195254 34.11855
vertex 6.69802069602461 15.8911500579275 34.11855
vertex 3.38308885559695 14.7542006556589 34.11855
endloop
endfacet
facet normal 0.0 0.0 -1.0
outer loop
vertex -0.481394168000865 19.7939037195254 34.11855
vertex 3.38308885559695 14.7542006556589 34.11855
vertex 1.8262225554526 2.21397340199743 34.11855
endloop
endfacet
facet normal 0.0 0.0 -1.0
outer loop
vertex 3.38308885559695 14.7542006556589 34.11855
vertex 6.69802069602461 15.8911500579275 34.11855
vertex 6.50869323640907 14.3661575979345 34.11855
endloop
endfacet
facet normal 0.0 0.0 -1.0
outer loop
vertex 6.69802069602461 15.8911500579275 34.11855
vertex 60.8124623787512 29.4249168592559 34.11855
vertex 23.2523809952049 13.8359300727621 34.11855
endloop
endfacet
facet normal 0.0 0.0 -1.0
outer loop
vertex 23.2523809952049 13.8359300727621 34.11855
vertex 60.8124623787512 29.4249168592559 34.11855
vertex 26.7558038725972 11.8524835163447 34.11855
endloop
endfacet
facet normal 0.0 0.0 -1.0
outer loop
vertex 26.7558038725972 11.8524835163447 34.11855
vertex 60.8124623787512 29.4249168592559 34.11855
vertex 27.2371105959641 7.55336189668837 34.11855
endloop
endfacet
facet normal 0.0 0.0 -1.0
outer loop
vertex 26.7558038725972 11.8524835163447 34.11855
vertex 27.2371105959641 7.55336189668837 34.11855
vertex 27.0689064479586 6.19851322355409 34.11855
endloop
endfacet
facet normal 0.0 0.0 -1.0
outer loop
vertex 27.2371105959641 7.55336189668837 34.11855
vertex 60.8124623787512 29.4249168592559 34.11855
vertex 30.4131279506603 7.1590600799684 34.11855
endloop
endfacet
facet normal 0.0 0.0 -1.0
outer loop
vertex 30.4131279506603 7.1590600799684 34.11855
vertex 60.8124623787512 29.4249168592559 34.11855
vertex 47.2191947157526 11.2629923966253 34.11855
endloop
endfacet
facet normal 0.0 0.0 -1.0
outer loop
vertex 30.4131279506603 7.1590600799684 34.11855
vertex 47.2191947157526 11.2629923966253 34.11855
vertex 44.2202445501903 6.61434745580768 34.11855
endloop
endfacet
facet normal 0.0 0.0 -1.0
outer loop
vertex 30.4131279506603 7.1590600799684 34.11855
vertex 44.2202445501903 6.61434745580768 34.11855
vertex 44.0215289520814 5.01373553498857 34.11855
endloop
endfacet
facet normal 0.0 0.0 -1.0
outer loop
vertex 30.4131279506603 7.1590600799684 34.11855
vertex 44.0215289520814 5.01373553498857 34.11855
vertex 43.3399633909728 -3.26293731561522 34.11855
endloop
endfacet
facet normal 0.0 0.0 -1.0
outer loop
vertex 43.3399633909728 -3.26293731561522 34.11855
vertex 44.0215289520814 5.01373553498857 34.11855
vertex 43.7217476897017 -0.187745908687173 34.11855
endloop
endfacet
facet normal 0.0 0.0 -1.0
outer loop
vertex 44.2202445501903 6.61434745580768 34.11855
vertex 47.2191947157526 11.2629923966253 34.11855
vertex 45.5246802494405 6.45240206679769 34.11855
endloop
endfacet
facet normal 0.0 0.0 -1.0
outer loop
vertex 45.5246802494405 6.45240206679769 34.11855
vertex 47.2191947157526 11.2629923966253 34.11855
vertex 46.8710830513644 8.45902690474344 34.11855
endloop
endfacet
facet normal 0.0 0.0 -1.0
outer loop
vertex 47.2191947157526 11.2629923966253 34.11855
vertex 60.8124623787512 29.4249168592559 34.11855
vertex 48.9521406930174 11.0478475561531 34.11855
endloop
endfacet
facet normal 0.0 0.0 -1.0
outer loop
vertex 48.9521406930174 11.0478475561531 34.11855
vertex 60.8124623787512 29.4249168592559 34.11855
vertex 56.9738896920508 12.370442532553 34.11855
endloop
endfacet
facet normal 0.0 0.0 -1.0
outer loop
vertex 48.9521406930174 11.0478475561531 34.11855
vertex 56.9738896920508 12.370442532553 34.11855
vertex 56.0510986247753 4.93755655499018 34.11855
endloop
endfacet
facet normal 0.0 0.0 -1.0
outer loop
vertex 48.9521406930174 11.0478475561531 34.11855
vertex 56.0510986247753 4.93755655499018 34.11855
vertex 55.581704548216 -12.7077260643525 34.11855
endloop
endfacet
facet normal 0.0 0.0 -1.0
outer loop
vertex 56.9738896920508 12.370442532553 34.11855
vertex 60.8124623787512 29.4249168592559 34.11855
vertex 58.6690259389026 12.1599917613274 34.11855
endloop
endfacet
facet normal 0.0 0.0 -1.0
outer loop
vertex 57.7462348716271 4.72710578376463 34.11855
vertex 55.581704548216 -12.7077260643525 34.11855
vertex 56.0510986247753 4.93755655499018 34.11855
endloop
endfacet
facet normal -0.123203917235338 -0.992381375670598 -7.72424587416531e-17
outer loop
vertex 55.581704548216 -12.7077260643525 34.11855
vertex 27.920757121078 -9.27362586757963 5.12445
vertex 55.581704548216 -12.7077260643525 5.12445
endloop
endfacet
facet normal -0.123203917235338 -0.992381375670598 -7.72424587416531e-17
outer loop
vertex 27.920757121078 -9.27362586757963 5.12445
vertex 55.581704548216 -12.7077260643525 34.11855
vertex -6.76965900684513 -4.96681876471965 5.12445
endloop
endfacet
facet normal -0.123203917235338 -0.992381375670598 -7.72424587416531e-17
outer loop
vertex -6.76965900684513 -4.96681876471965 5.12445
vertex 55.581704548216 -12.7077260643525 34.11855
vertex -30.2400818676715 -2.05297121929427 5.12445
endloop
endfacet
facet normal -0.123203917235338 -0.992381375670598 -7.72424587416531e-17
outer loop
vertex -30.2400818676715 -2.05297121929427 5.12445
vertex 55.581704548216 -12.7077260643525 34.11855
vertex -30.2400818676715 -2.05297121929427 34.11855
endloop
endfacet
facet normal -0.123203917235338 -0.992381375670598 -7.72424587416531e-17
outer loop
vertex 27.920757121078 -9.27362586757963 5.12445
vertex -6.76965900684513 -4.96681876471965 2.562225
vertex 27.920757121078 -9.27362586757962 2.562225
endloop
endfacet
facet normal -0.123203917235338 -0.992381375670598 -7.72424587416531e-17
outer loop
vertex -6.76965900684513 -4.96681876471965 2.562225
vertex 27.920757121078 -9.27362586757963 5.12445
vertex -6.76965900684513 -4.96681876471965 5.12445
endloop
endfacet
facet normal -0.992381375670598 0.123203917235338 0.0
outer loop
vertex -30.0507544080559 -0.527978759301261 34.11855
vertex -30.2400818676715 -2.05297121929427 5.12445
vertex -30.2400818676715 -2.05297121929427 34.11855
endloop
endfacet
facet normal -0.992381375670598 0.123203917235338 0.0
outer loop
vertex -30.2400818676715 -2.05297121929427 5.12445
vertex -30.0507544080559 -0.527978759301261 34.11855
vertex -30.0507544080559 -0.527978759301261 5.12445
endloop
endfacet
facet normal -0.123203917235338 -0.992381375670598 -0.0
outer loop
vertex -30.0507544080559 -0.527978759301261 34.11855
vertex -32.1239879590382 -0.270587295609054 5.12445
vertex -30.0507544080559 -0.527978759301261 5.12445
endloop
endfacet
facet normal -0.123203917235338 -0.992381375670598 -0.0
outer loop
vertex -32.1239879590382 -0.270587295609054 5.12445
vertex -30.0507544080559 -0.527978759301261 34.11855
vertex -32.1239879590382 -0.270587295609054 34.11855
endloop
endfacet
facet normal -0.992381375670598 0.123203917235338 9.69739269329249e-17
outer loop
vertex -30.1071028727205 15.9749935385313 34.11855
vertex -32.1239879590382 -0.270587295609054 5.12445
vertex -32.1239879590382 -0.270587295609054 34.11855
endloop
endfacet
facet normal -0.992381375670598 0.123203917235338 9.69739269329249e-17
outer loop
vertex -32.1239879590382 -0.270587295609054 5.12445
vertex -30.1071028727205 15.9749935385313 34.11855
vertex -30.1071028727205 15.9749935385313 5.12445
endloop
endfacet
facet normal 0.123203917235338 0.992381375670598 0.0
outer loop
vertex -27.264843943864 38.868785303633 34.11855
vertex -25.1916103928818 38.6113938399408 5.12445
vertex -27.264843943864 38.868785303633 5.12445
endloop
endfacet
facet normal 0.123203917235338 0.992381375670598 0.0
outer loop
vertex -25.1916103928818 38.6113938399408 5.12445
vertex -27.264843943864 38.868785303633 34.11855
vertex -25.1916103928818 38.6113938399408 34.11855
endloop
endfacet
facet normal -0.992381375670598 0.123203917235339 0.0
outer loop
vertex -25.0093240371362 40.0796717043142 34.11855
vertex -25.1916103928818 38.6113938399408 5.12445
vertex -25.1916103928818 38.6113938399408 34.11855
endloop
endfacet
facet normal -0.992381375670598 0.123203917235339 0.0
outer loop
vertex -25.1916103928818 38.6113938399408 5.12445
vertex -25.0093240371362 40.0796717043142 34.11855
vertex -25.0093240371362 40.0796717043142 5.12445
endloop
endfacet
facet normal 0.123203917235338 0.992381375670598 1.36967044580573e-16
outer loop
vertex -25.0093240371362 40.0796717043142 34.11855
vertex -2.10812445202116 37.236493096324 5.12445
vertex -25.0093240371362 40.0796717043142 5.12445
endloop
endfacet
facet normal 0.123203917235338 0.992381375670598 1.36967044580573e-16
outer loop
vertex -2.10812445202116 37.236493096324 5.12445
vertex -25.0093240371362 40.0796717043142 34.11855
vertex 31.5652917581049 33.0559462969849 5.12445
endloop
endfacet
facet normal 0.123203917235338 0.992381375670598 1.36967044580573e-16
outer loop
vertex 31.5652917581049 33.0559462969849 5.12445
vertex -25.0093240371362 40.0796717043142 34.11855
vertex 60.8124623787512 29.4249168592559 5.12445
endloop
endfacet
facet normal 0.123203917235338 0.992381375670598 1.36967044580573e-16
outer loop
vertex 60.8124623787512 29.4249168592559 5.12445
vertex -25.0093240371362 40.0796717043142 34.11855
vertex 60.8124623787512 29.4249168592559 34.11855
endloop
endfacet
facet normal 0.123203917235338 0.992381375670598 1.36967044580573e-16
outer loop
vertex -2.10812445202116 37.236493096324 5.12445
vertex 31.5652917581049 33.0559462969849 1.15505827125162e-14
vertex -2.10812445202116 37.236493096324 1.15505827125162e-14
endloop
endfacet
facet normal 0.123203917235338 0.992381375670598 1.36967044580573e-16
outer loop
vertex 31.5652917581049 33.0559462969849 1.15505827125162e-14
vertex -2.10812445202116 37.236493096324 5.12445
vertex 31.5652917581049 33.0559462969849 5.12445
endloop
endfacet
facet normal 0.123203917235338 0.992381375670598 3.65057734702028e-17
outer loop
vertex 32.4780325708912 40.4078796100578 1.15505827125162e-14
vertex 73.7359665821092 35.2857166877798 5.12445
vertex 73.7359665821092 35.2857166877798 0.0
endloop
endfacet
facet normal 0.123203917235338 0.992381375670598 3.65057734702028e-17
outer loop
vertex 73.7359665821092 35.2857166877798 5.12445
vertex 32.4780325708912 40.4078796100578 1.15505827125162e-14
vertex 32.4780325708912 40.4078796100578 5.12445
endloop
endfacet
facet normal 0.992381375670598 -0.123203917235338 0.0
outer loop
vertex 73.7359665821092 35.2857166877798 0.0
vertex 66.3850541418296 -23.9243211390562 5.12445
vertex 66.3850541418296 -23.9243211390562 0.0
endloop
endfacet
facet normal 0.992381375670598 -0.123203917235338 0.0
outer loop
vertex 66.3850541418296 -23.9243211390562 5.12445
vertex 73.7359665821092 35.2857166877798 0.0
vertex 73.7359665821092 35.2857166877798 5.12445
endloop
endfacet
facet normal -0.992381375670598 0.123203917235339 0.0
outer loop
vertex -41.8420776688485 49.6347040299645 5.12445
vertex -49.1929901091281 -9.57533379687145 0.0
vertex -49.1929901091281 -9.57533379687145 5.12445
endloop
endfacet
facet normal -0.992381375670598 0.123203917235339 0.0
outer loop
vertex -49.1929901091281 -9.57533379687145 0.0
vertex -41.8420776688485 49.6347040299645 5.12445
vertex -41.8420776688485 49.6347040299645 0.0
endloop
endfacet
facet normal -0.123203917235338 -0.992381375670598 -1.61554180293669e-16
outer loop
vertex 12.7951761262034 -17.2711502336394 2.562225
vertex 12.7951761262034 -17.2711502336394 1.889125
vertex 26.71334332412 -18.9990874577343 2.562225
endloop
endfacet
facet normal -0.123203917235338 -0.992381375670598 -1.61554180293669e-16
outer loop
vertex 66.3850541418296 -23.9243211390562 5.12445
vertex 30.6392536653416 -19.4864883145131 0.0
vertex 66.3850541418296 -23.9243211390562 0.0
endloop
endfacet
facet normal -0.123203917235338 -0.992381375670598 -1.61554180293669e-16
outer loop
vertex 30.6392536653416 -19.4864883145131 0.0
vertex 66.3850541418296 -23.9243211390562 5.12445
vertex 26.71334332412 -18.9990874577343 2.562225
endloop
endfacet
facet normal -0.123203917235338 -0.992381375670598 -1.61554180293669e-16
outer loop
vertex 30.6392536653416 -19.4864883145131 0.0
vertex 26.71334332412 -18.9990874577343 2.562225
vertex 12.7951761262034 -17.2711502336394 1.889125
endloop
endfacet
facet normal -0.123203917235338 -0.992381375670598 -1.61554180293669e-16
outer loop
vertex 30.6392536653416 -19.4864883145131 0.0
vertex 12.7951761262034 -17.2711502336394 1.889125
vertex -49.1929901091281 -9.57533379687145 0.0
endloop
endfacet
facet normal -0.123203917235338 -0.992381375670598 -1.61554180293669e-16
outer loop
vertex 26.71334332412 -18.9990874577343 2.562225
vertex 66.3850541418296 -23.9243211390562 5.12445
vertex 26.71334332412 -18.9990874577343 5.12445
endloop
endfacet
facet normal -0.123203917235338 -0.992381375670598 -1.61554180293669e-16
outer loop
vertex -49.1929901091281 -9.57533379687145 0.0
vertex -7.97707280380316 -14.6922803548743 2.562225
vertex -49.1929901091281 -9.57533379687145 5.12445
endloop
endfacet
facet normal -0.123203917235338 -0.992381375670598 -1.61554180293669e-16
outer loop
vertex -7.97707280380316 -14.6922803548743 2.562225
vertex -49.1929901091281 -9.57533379687145 0.0
vertex 3.86577812698811 -16.1625675465517 1.889125
endloop
endfacet
facet normal -0.123203917235338 -0.992381375670598 -1.61554180293669e-16
outer loop
vertex 3.86577812698811 -16.1625675465517 1.889125
vertex -49.1929901091281 -9.57533379687145 0.0
vertex 12.7951761262034 -17.2711502336394 1.889125
endloop
endfacet
facet normal -0.123203917235338 -0.992381375670598 -1.61554180293669e-16
outer loop
vertex -7.97707280380316 -14.6922803548743 2.562225
vertex 3.86577812698811 -16.1625675465517 1.889125
vertex 3.86577812698811 -16.1625675465517 2.562225
endloop
endfacet
facet normal -0.123203917235338 -0.992381375670598 -1.61554180293669e-16
outer loop
vertex -49.1929901091281 -9.57533379687145 5.12445
vertex -7.97707280380316 -14.6922803548743 2.562225
vertex -7.97707280380316 -14.6922803548743 5.12445
endloop
endfacet
facet normal 0.992381375670598 -0.123203917235338 -0.0
outer loop
vertex -6.76965900684513 -4.96681876471965 2.562225
vertex -7.97707280380316 -14.6922803548743 5.12445
vertex -7.97707280380316 -14.6922803548743 2.562225
endloop
endfacet
facet normal 0.992381375670598 -0.123203917235338 -0.0
outer loop
vertex -7.97707280380316 -14.6922803548743 5.12445
vertex -6.76965900684513 -4.96681876471965 2.562225
vertex -6.76965900684513 -4.96681876471965 5.12445
endloop
endfacet
facet normal -0.0 -0.0 1.0
outer loop
vertex 12.1896411933834 -22.1486054569228 2.562225
vertex 3.86577812698811 -16.1625675465517 2.562225
vertex 3.26024319416814 -21.0400227698351 2.562225
endloop
endfacet
facet normal -0.0 -0.0 1.0
outer loop
vertex 3.86577812698811 -16.1625675465517 2.562225
vertex -6.76965900684513 -4.96681876471965 2.562225
vertex -7.97707280380316 -14.6922803548743 2.562225
endloop
endfacet
facet normal -0.0 -0.0 1.0
outer loop
vertex -6.76965900684513 -4.96681876471965 2.562225
vertex 3.86577812698811 -16.1625675465517 2.562225
vertex 27.920757121078 -9.27362586757962 2.562225
endloop
endfacet
facet normal -0.0 -0.0 1.0
outer loop
vertex 27.920757121078 -9.27362586757962 2.562225
vertex 3.86577812698811 -16.1625675465517 2.562225
vertex 12.7951761262034 -17.2711502336394 2.562225
endloop
endfacet
facet normal -0.0 -0.0 1.0
outer loop
vertex 12.7951761262034 -17.2711502336394 2.562225
vertex 3.86577812698811 -16.1625675465517 2.562225
vertex 12.1896411933834 -22.1486054569228 2.562225
endloop
endfacet
facet normal -0.0 -0.0 1.0
outer loop
vertex 27.920757121078 -9.27362586757962 2.562225
vertex 12.7951761262034 -17.2711502336394 2.562225
vertex 26.71334332412 -18.9990874577343 2.562225
endloop
endfacet
facet normal -0.992381375670598 0.123203917235338 0.0
outer loop
vertex 27.920757121078 -9.27362586757963 5.12445
vertex 26.71334332412 -18.9990874577343 2.562225
vertex 26.71334332412 -18.9990874577343 5.12445
endloop
endfacet
facet normal -0.992381375670598 0.123203917235338 0.0
outer loop
vertex 26.71334332412 -18.9990874577343 2.562225
vertex 27.920757121078 -9.27362586757963 5.12445
vertex 27.920757121078 -9.27362586757962 2.562225
endloop
endfacet
facet normal -0.123203917235338 -0.992381375670598 -7.97816375672556e-17
outer loop
vertex 12.1896411933834 -22.1486054569228 2.562225
vertex 3.26024319416814 -21.0400227698351 1.889125
vertex 12.1896411933834 -22.1486054569228 1.889125
endloop
endfacet
facet normal -0.123203917235338 -0.992381375670598 -7.97816375672556e-17
outer loop
vertex 3.26024319416814 -21.0400227698351 1.889125
vertex 12.1896411933834 -22.1486054569228 2.562225
vertex 3.26024319416814 -21.0400227698351 2.562225
endloop
endfacet
facet normal -0.992381375670598 0.123203917235338 0.0
outer loop
vertex 3.86577812698811 -16.1625675465517 2.562225
vertex 3.26024319416814 -21.0400227698351 1.889125
vertex 3.26024319416814 -21.0400227698351 2.562225
endloop
endfacet
facet normal -0.992381375670598 0.123203917235338 0.0
outer loop
vertex 3.26024319416814 -21.0400227698351 1.889125
vertex 3.86577812698811 -16.1625675465517 2.562225
vertex 3.86577812698811 -16.1625675465517 1.889125
endloop
endfacet
facet normal 9.8294102717359e-18 7.91738112422461e-17 -1.0
outer loop
vertex 3.86577812698811 -16.1625675465517 1.889125
vertex 12.1896411933834 -22.1486054569228 1.889125
vertex 3.26024319416814 -21.0400227698351 1.889125
endloop
endfacet
facet normal 9.8294102717359e-18 7.91738112422461e-17 -1.0
outer loop
vertex 12.1896411933834 -22.1486054569228 1.889125
vertex 3.86577812698811 -16.1625675465517 1.889125
vertex 12.7951761262034 -17.2711502336394 1.889125
endloop
endfacet
facet normal 0.992381375670598 -0.123203917235338 2.12869246063806e-15
outer loop
vertex 12.7951761262034 -17.2711502336394 1.889125
vertex 12.1896411933834 -22.1486054569228 2.562225
vertex 12.1896411933834 -22.1486054569228 1.889125
endloop
endfacet
facet normal 0.992381375670598 -0.123203917235338 2.12869246063806e-15
outer loop
vertex 12.1896411933834 -22.1486054569228 2.562225
vertex 12.7951761262034 -17.2711502336394 1.889125
vertex 12.7951761262034 -17.2711502336394 2.562225
endloop
endfacet
facet normal 0.0 0.0 -1.0
outer loop
vertex 6.69802069602461 15.8911500579275 39.64305
vertex 21.506187235445 -0.229289640892419 39.64305
vertex 4.95182693626472 1.82593034427301 39.64305
endloop
endfacet
facet normal 0.0 0.0 -1.0
outer loop
vertex 21.506187235445 -0.229289640892419 39.64305
vertex 6.69802069602461 15.8911500579275 39.64305
vertex 23.2523809952049 13.8359300727621 39.64305
endloop
endfacet
facet normal 0.992381375670598 -0.123203917235338 -0.0
outer loop
vertex 6.69802069602461 15.8911500579275 34.11855
vertex 6.50869323640907 14.3661575979345 36.4617
vertex 6.50869323640907 14.3661575979345 34.11855
endloop
endfacet
facet normal 0.992381375670598 -0.123203917235338 -0.0
outer loop
vertex 6.50869323640907 14.3661575979345 36.4617
vertex 4.95182693626472 1.82593034427301 39.64305
vertex 4.95182693626472 1.82593034427301 36.4617
endloop
endfacet
facet normal 0.992381375670598 -0.123203917235338 -0.0
outer loop
vertex 4.95182693626472 1.82593034427301 39.64305
vertex 6.50869323640907 14.3661575979345 36.4617
vertex 6.69802069602461 15.8911500579275 39.64305
endloop
endfacet
facet normal 0.992381375670598 -0.123203917235338 -0.0
outer loop
vertex 6.69802069602461 15.8911500579275 39.64305
vertex 6.50869323640907 14.3661575979345 36.4617
vertex 6.69802069602461 15.8911500579275 34.11855
endloop
endfacet
facet normal -0.123203917235338 -0.992381375670598 -0.0
outer loop
vertex 23.2523809952049 13.8359300727621 39.64305
vertex 6.69802069602461 15.8911500579275 34.11855
vertex 23.2523809952049 13.8359300727621 34.11855
endloop
endfacet
facet normal -0.123203917235338 -0.992381375670598 -0.0
outer loop
vertex 6.69802069602461 15.8911500579275 34.11855
vertex 23.2523809952049 13.8359300727621 39.64305
vertex 6.69802069602461 15.8911500579275 39.64305
endloop
endfacet
facet normal -0.992381375670598 0.123203917235338 0.0
outer loop
vertex 23.2523809952049 13.8359300727621 39.64305
vertex 21.506187235445 -0.229289640892419 36.4617
vertex 21.506187235445 -0.229289640892419 39.64305
endloop
endfacet
facet normal -0.992381375670598 0.123203917235338 0.0
outer loop
vertex 21.506187235445 -0.229289640892419 36.4617
vertex 23.2523809952049 13.8359300727621 39.64305
vertex 23.0630535355894 12.3109376127691 36.4617
endloop
endfacet
facet normal -0.992381375670598 0.123203917235338 0.0
outer loop
vertex 23.0630535355894 12.3109376127691 36.4617
vertex 23.2523809952049 13.8359300727621 39.64305
vertex 23.0630535355894 12.3109376127691 34.11855
endloop
endfacet
facet normal -0.992381375670598 0.123203917235338 0.0
outer loop
vertex 23.0630535355894 12.3109376127691 34.11855
vertex 23.2523809952049 13.8359300727621 39.64305
vertex 23.2523809952049 13.8359300727621 34.11855
endloop
endfacet
facet normal 0.0 0.0 -1.0
outer loop
vertex 23.0630535355894 12.3109376127691 36.4617
vertex 25.1989375724529 -0.687743737316836 36.4617
vertex 21.506187235445 -0.229289640892419 36.4617
endloop
endfacet
facet normal 0.0 0.0 -1.0
outer loop
vertex 25.1989375724529 -0.687743737316836 36.4617
vertex 23.0630535355894 12.3109376127691 36.4617
vertex 26.7558038725972 11.8524835163447 36.4617
endloop
endfacet
facet normal 0.123203917235338 0.992381375670598 2.97039665585621e-16
outer loop
vertex 4.95182693626472 1.82593034427301 39.64305
vertex 21.506187235445 -0.229289640892419 36.4617
vertex 4.95182693626472 1.82593034427301 36.4617
endloop
endfacet
facet normal 0.123203917235338 0.992381375670598 2.97039665585621e-16
outer loop
vertex 21.506187235445 -0.229289640892419 36.4617
vertex 4.95182693626472 1.82593034427301 39.64305
vertex 21.506187235445 -0.229289640892419 39.64305
endloop
endfacet
facet normal 0.123203917235338 0.992381375670598 2.97039665585621e-16
outer loop
vertex 1.8262225554526 2.21397340199743 36.4617
vertex 25.1989375724529 -0.687743737316836 34.11855
vertex 1.8262225554526 2.21397340199743 34.11855
endloop
endfacet
facet normal 0.123203917235338 0.992381375670598 2.97039665585621e-16
outer loop
vertex 25.1989375724529 -0.687743737316836 34.11855
vertex 1.8262225554526 2.21397340199743 36.4617
vertex 25.1989375724529 -0.687743737316836 36.4617
endloop
endfacet
facet normal 0.123203917235338 0.992381375670598 2.97039665585621e-16
outer loop
vertex 25.1989375724529 -0.687743737316836 36.4617
vertex 1.8262225554526 2.21397340199743 36.4617
vertex 4.95182693626472 1.82593034427301 36.4617
endloop
endfacet
facet normal 0.123203917235338 0.992381375670598 2.97039665585621e-16
outer loop
vertex 25.1989375724529 -0.687743737316836 36.4617
vertex 4.95182693626472 1.82593034427301 36.4617
vertex 21.506187235445 -0.229289640892419 36.4617
endloop
endfacet
facet normal -0.123203917235338 -0.992381375670598 -0.0
outer loop
vertex 26.7558038725972 11.8524835163447 36.4617
vertex 23.0630535355894 12.3109376127691 34.11855
vertex 26.7558038725972 11.8524835163447 34.11855
endloop
endfacet
facet normal -0.123203917235338 -0.992381375670598 -0.0
outer loop
vertex 23.0630535355894 12.3109376127691 34.11855
vertex 26.7558038725972 11.8524835163447 36.4617
vertex 23.0630535355894 12.3109376127691 36.4617
endloop
endfacet
facet normal -0.992381375670598 0.123203917235338 -0.0
outer loop
vertex 26.7558038725972 11.8524835163447 36.4617
vertex 25.1989375724529 -0.687743737316836 34.11855
vertex 25.1989375724529 -0.687743737316836 36.4617
endloop
endfacet
facet normal -0.992381375670598 0.123203917235338 -0.0
outer loop
vertex 25.1989375724529 -0.687743737316836 34.11855
vertex 26.7558038725972 11.8524835163447 36.4617
vertex 26.7558038725972 11.8524835163447 34.11855
endloop
endfacet
facet normal 0.0 0.0 -1.0
outer loop
vertex 3.38308885559695 14.7542006556589 36.4617
vertex 4.95182693626472 1.82593034427301 36.4617
vertex 1.8262225554526 2.21397340199743 36.4617
endloop
endfacet
facet normal 0.0 0.0 -1.0
outer loop
vertex 4.95182693626472 1.82593034427301 36.4617
vertex 3.38308885559695 14.7542006556589 36.4617
vertex 6.50869323640907 14.3661575979345 36.4617
endloop
endfacet
facet normal -0.123203917235337 -0.992381375670598 -0.0
outer loop
vertex 6.50869323640907 14.3661575979345 36.4617
vertex 3.38308885559695 14.7542006556589 34.11855
vertex 6.50869323640907 14.3661575979345 34.11855
endloop
endfacet
facet normal -0.123203917235337 -0.992381375670598 -0.0
outer loop
vertex 3.38308885559695 14.7542006556589 34.11855
vertex 6.50869323640907 14.3661575979345 36.4617
vertex 3.38308885559695 14.7542006556589 36.4617
endloop
endfacet
facet normal 0.992381375670598 -0.123203917235338 -0.0
outer loop
vertex 3.38308885559695 14.7542006556589 34.11855
vertex 1.8262225554526 2.21397340199743 36.4617
vertex 1.8262225554526 2.21397340199743 34.11855
endloop
endfacet
facet normal 0.992381375670598 -0.123203917235338 -0.0
outer loop
vertex 1.8262225554526 2.21397340199743 36.4617
vertex 3.38308885559695 14.7542006556589 34.11855
vertex 3.38308885559695 14.7542006556589 36.4617
endloop
endfacet
facet normal -0.123203917235338 -0.992381375670598 0.0
outer loop
vertex -0.481394168000865 19.7939037195254 37.06495
vertex -8.181975928792 20.7499291560964 34.11855
vertex -0.481394168000865 19.7939037195254 34.11855
endloop
endfacet
facet normal -0.123203917235338 -0.992381375670598 0.0
outer loop
vertex -8.181975928792 20.7499291560964 34.11855
vertex -0.481394168000865 19.7939037195254 37.06495
vertex -8.181975928792 20.7499291560964 37.06495
endloop
endfacet
facet normal -0.992381375670598 0.123203917235338 -5.43650672206163e-17
outer loop
vertex -1.03372964935861 15.3449587742565 36.2117907681751
vertex -0.481394168000865 19.7939037195254 34.11855
vertex -1.03372964935861 15.3449587742565 34.11855
endloop
endfacet
facet normal -0.992381375670598 0.123203917235338 -5.43650672206163e-17
outer loop
vertex -0.481394168000865 19.7939037195254 34.11855
vertex -1.03372964935861 15.3449587742565 36.2117907681751
vertex -0.481394168000865 19.7939037195254 37.06495
endloop
endfacet
facet normal 0.123203917235338 0.992381375670598 -1.34567239182645e-15
outer loop
vertex -8.73431141014975 16.3009842108276 36.2117907681751
vertex -1.03372964935861 15.3449587742565 34.11855
vertex -8.73431141014975 16.3009842108276 34.11855
endloop
endfacet
facet normal 0.123203917235338 0.992381375670598 -1.34567239182645e-15
outer loop
vertex -1.03372964935861 15.3449587742565 34.11855
vertex -8.73431141014975 16.3009842108276 36.2117907681751
vertex -1.03372964935861 15.3449587742565 36.2117907681751
endloop
endfacet
facet normal 0.992381375670598 -0.123203917235338 -1.19027943543829e-17
outer loop
vertex -8.181975928792 20.7499291560964 34.11855
vertex -8.73431141014975 16.3009842108276 36.2117907681751
vertex -8.73431141014975 16.3009842108276 34.11855
endloop
endfacet
facet normal 0.992381375670598 -0.123203917235338 -1.19027943543829e-17
outer loop
vertex -8.73431141014975 16.3009842108276 36.2117907681751
vertex -8.181975928792 20.7499291560964 34.11855
vertex -8.181975928792 20.7499291560964 37.06495
endloop
endfacet
facet normal 0.992381375670598 -0.123203917235338 -0.0
outer loop
vertex 60.8124623787512 29.4249168592559 5.12445
vertex 58.6690259389026 12.1599917613274 34.11855
vertex 58.6690259389026 12.1599917613274 5.12445
endloop
endfacet
facet normal 0.992381375670598 -0.123203917235338 -0.0
outer loop
vertex 58.6690259389026 12.1599917613274 34.11855
vertex 60.8124623787512 29.4249168592559 5.12445
vertex 60.8124623787512 29.4249168592559 34.11855
endloop
endfacet
facet normal 0.992381375670598 -0.123203917235338 -0.0
outer loop
vertex 57.7462348716271 4.72710578376463 5.12445
vertex 55.581704548216 -12.7077260643525 34.11855
vertex 55.581704548216 -12.7077260643525 5.12445
endloop
endfacet
facet normal 0.992381375670598 -0.123203917235338 -0.0
outer loop
vertex 55.581704548216 -12.7077260643525 34.11855
vertex 57.7462348716271 4.72710578376463 5.12445
vertex 57.7462348716271 4.72710578376463 34.11855
endloop
endfacet
facet normal 0.992381375670598 -0.123203917235338 0.0
outer loop
vertex 56.9738896920508 12.370442532553 5.12445
vertex 56.0510986247753 4.93755655499018 34.11855
vertex 56.0510986247753 4.93755655499018 5.12445
endloop
endfacet
facet normal 0.992381375670598 -0.123203917235338 0.0
outer loop
vertex 56.0510986247753 4.93755655499018 34.11855
vertex 56.9738896920508 12.370442532553 5.12445
vertex 56.9738896920508 12.370442532553 34.11855
endloop
endfacet
facet normal 0.123203917235338 0.992381375670598 0.0
outer loop
vertex 56.0510986247753 4.93755655499018 34.11855
vertex 57.7462348716271 4.72710578376463 5.12445
vertex 56.0510986247753 4.93755655499018 5.12445
endloop
endfacet
facet normal 0.123203917235338 0.992381375670598 0.0
outer loop
vertex 57.7462348716271 4.72710578376463 5.12445
vertex 56.0510986247753 4.93755655499018 34.11855
vertex 57.7462348716271 4.72710578376463 34.11855
endloop
endfacet
facet normal -0.123203917235338 -0.992381375670598 0.0
outer loop
vertex 58.6690259389026 12.1599917613274 34.11855
vertex 56.9738896920508 12.370442532553 5.12445
vertex 58.6690259389026 12.1599917613274 5.12445
endloop
endfacet
facet normal -0.123203917235338 -0.992381375670598 0.0
outer loop
vertex 56.9738896920508 12.370442532553 5.12445
vertex 58.6690259389026 12.1599917613274 34.11855
vertex 56.9738896920508 12.370442532553 34.11855
endloop
endfacet
facet normal -0.0 -0.0 1.0
outer loop
vertex 66.3850541418296 -23.9243211390562 5.12445
vertex 27.920757121078 -9.27362586757963 5.12445
vertex 26.71334332412 -18.9990874577343 5.12445
endloop
endfacet
facet normal -0.0 -0.0 1.0
outer loop
vertex 27.920757121078 -9.27362586757963 5.12445
vertex 66.3850541418296 -23.9243211390562 5.12445
vertex 55.581704548216 -12.7077260643525 5.12445
endloop
endfacet
facet normal -0.0 -0.0 1.0
outer loop
vertex 55.581704548216 -12.7077260643525 5.12445
vertex 66.3850541418296 -23.9243211390562 5.12445
vertex 57.7462348716271 4.72710578376463 5.12445
endloop
endfacet
facet normal -0.0 -0.0 1.0
outer loop
vertex 57.7462348716271 4.72710578376463 5.12445
vertex 66.3850541418296 -23.9243211390562 5.12445
vertex 58.6690259389026 12.1599917613274 5.12445
endloop
endfacet
facet normal -0.0 -0.0 1.0
outer loop
vertex 58.6690259389026 12.1599917613274 5.12445
vertex 66.3850541418296 -23.9243211390562 5.12445
vertex 60.8124623787512 29.4249168592559 5.12445
endloop
endfacet
facet normal -0.0 -0.0 1.0
outer loop
vertex 60.8124623787512 29.4249168592559 5.12445
vertex 32.4780325708912 40.4078796100578 5.12445
vertex 31.5652917581049 33.0559462969849 5.12445
endloop
endfacet
facet normal -0.0 -0.0 1.0
outer loop
vertex 32.4780325708912 40.4078796100578 5.12445
vertex 60.8124623787512 29.4249168592559 5.12445
vertex 73.7359665821092 35.2857166877798 5.12445
endloop
endfacet
facet normal -0.0 -0.0 1.0
outer loop
vertex 73.7359665821092 35.2857166877798 5.12445
vertex 60.8124623787512 29.4249168592559 5.12445
vertex 66.3850541418296 -23.9243211390562 5.12445
endloop
endfacet
facet normal -0.0 -0.0 1.0
outer loop
vertex 57.7462348716271 4.72710578376463 5.12445
vertex 56.9738896920508 12.370442532553 5.12445
vertex 56.0510986247753 4.93755655499018 5.12445
endloop
endfacet
facet normal -0.0 -0.0 1.0
outer loop
vertex 56.9738896920508 12.370442532553 5.12445
vertex 57.7462348716271 4.72710578376463 5.12445
vertex 58.6690259389026 12.1599917613274 5.12445
endloop
endfacet
facet normal -0.0 -0.0 1.0
outer loop
vertex -49.1929901091281 -9.57533379687145 5.12445
vertex -32.1239879590382 -0.270587295609054 5.12445
vertex -41.8420776688485 49.6347040299645 5.12445
endloop
endfacet
facet normal -0.0 -0.0 1.0
outer loop
vertex -32.1239879590382 -0.270587295609054 5.12445
vertex -49.1929901091281 -9.57533379687145 5.12445
vertex -30.2400818676715 -2.05297121929427 5.12445
endloop
endfacet
facet normal -0.0 -0.0 1.0
outer loop
vertex -30.2400818676715 -2.05297121929427 5.12445
vertex -49.1929901091281 -9.57533379687145 5.12445
vertex -7.97707280380316 -14.6922803548743 5.12445
endloop
endfacet
facet normal -0.0 -0.0 1.0
outer loop
vertex -30.2400818676715 -2.05297121929427 5.12445
vertex -7.97707280380316 -14.6922803548743 5.12445
vertex -6.76965900684513 -4.96681876471965 5.12445
endloop
endfacet
facet normal -0.0 -0.0 1.0
outer loop
vertex -30.0507544080559 -0.527978759301261 5.12445
vertex -32.1239879590382 -0.270587295609054 5.12445
vertex -30.2400818676715 -2.05297121929427 5.12445
endloop
endfacet
facet normal -0.0 -0.0 1.0
outer loop
vertex -28.2733309476876 15.747331180068 5.12445
vertex -29.2684291673161 22.7303320389962 5.12445
vertex -30.1071028727205 15.9749935385313 5.12445
endloop
endfacet
facet normal -0.0 -0.0 1.0
outer loop
vertex -29.2684291673161 22.7303320389962 5.12445
vertex -28.2733309476876 15.747331180068 5.12445
vertex -27.4346572422832 22.5026696805329 5.12445
endloop
endfacet
facet normal -0.0 -0.0 1.0
outer loop
vertex -41.8420776688485 49.6347040299645 5.12445
vertex -25.0093240371362 40.0796717043142 5.12445
vertex -1.19538363923486 44.5884264093969 5.12445
endloop
endfacet
facet normal -0.0 -0.0 1.0
outer loop
vertex -25.0093240371362 40.0796717043142 5.12445
vertex -41.8420776688485 49.6347040299645 5.12445
vertex -27.264843943864 38.868785303633 5.12445
endloop
endfacet
facet normal -0.0 -0.0 1.0
outer loop
vertex -27.264843943864 38.868785303633 5.12445
vertex -41.8420776688485 49.6347040299645 5.12445
vertex -30.1071028727205 15.9749935385313 5.12445
endloop
endfacet
facet normal -0.0 -0.0 1.0
outer loop
vertex -30.1071028727205 15.9749935385313 5.12445
vertex -41.8420776688485 49.6347040299645 5.12445
vertex -32.1239879590382 -0.270587295609054 5.12445
endloop
endfacet
facet normal -0.0 -0.0 1.0
outer loop
vertex -27.264843943864 38.868785303633 5.12445
vertex -30.1071028727205 15.9749935385313 5.12445
vertex -29.2684291673161 22.7303320389962 5.12445
endloop
endfacet
facet normal -0.0 -0.0 1.0
outer loop
vertex -27.264843943864 38.868785303633 5.12445
vertex -29.2684291673161 22.7303320389962 5.12445
vertex -29.2567627503543 22.8243025488102 5.12445
endloop
endfacet
facet normal -0.0 -0.0 1.0
outer loop
vertex -25.0093240371362 40.0796717043142 5.12445
vertex -27.264843943864 38.868785303633 5.12445
vertex -25.1916103928818 38.6113938399408 5.12445
endloop
endfacet
facet normal -0.0 -0.0 1.0
outer loop
vertex -1.19538363923486 44.5884264093969 5.12445
vertex -25.0093240371362 40.0796717043142 5.12445
vertex -2.10812445202116 37.236493096324 5.12445
endloop
endfacet
facet normal 0.992381375670598 -0.123203917235339 -0.0
outer loop
vertex -1.19538363923486 44.5884264093969 1.15505827125162e-14
vertex -2.10812445202116 37.236493096324 5.12445
vertex -2.10812445202116 37.236493096324 1.15505827125162e-14
endloop
endfacet
facet normal 0.992381375670598 -0.123203917235339 -0.0
outer loop
vertex -2.10812445202116 37.236493096324 5.12445
vertex -1.19538363923486 44.5884264093969 1.15505827125162e-14
vertex -1.19538363923486 44.5884264093969 5.12445
endloop
endfacet
facet normal -0.992381375670598 0.123203917235338 0.0
outer loop
vertex 32.4780325708912 40.4078796100578 5.12445
vertex 31.5652917581049 33.0559462969849 1.15505827125162e-14
vertex 31.5652917581049 33.0559462969849 5.12445
endloop
endfacet
facet normal -0.992381375670598 0.123203917235338 0.0
outer loop
vertex 31.5652917581049 33.0559462969849 1.15505827125162e-14
vertex 32.4780325708912 40.4078796100578 5.12445
vertex 32.4780325708912 40.4078796100578 1.15505827125162e-14
endloop
endfacet
facet normal 0.123203917235338 0.992381375670598 7.54135343606755e-18
outer loop
vertex -41.8420776688485 49.6347040299645 5.12445
vertex -1.19538363923486 44.5884264093969 1.15505827125162e-14
vertex -41.8420776688485 49.6347040299645 0.0
endloop
endfacet
facet normal 0.123203917235338 0.992381375670598 7.54135343606755e-18
outer loop
vertex -1.19538363923486 44.5884264093969 1.15505827125162e-14
vertex -41.8420776688485 49.6347040299645 5.12445
vertex -1.19538363923486 44.5884264093969 5.12445
endloop
endfacet
facet normal -1.64002318217527e-16 1.21182556169675e-16 -1.0
outer loop
vertex 32.4780325708912 40.4078796100578 1.15505827125162e-14
vertex 60.8124623787512 29.4249168592559 0.0
vertex 31.5652917581049 33.0559462969849 1.15505827125162e-14
endloop
endfacet
facet normal -1.64002318217527e-16 1.21182556169675e-16 -1.0
outer loop
vertex 60.8124623787512 29.4249168592559 0.0
vertex 32.4780325708912 40.4078796100578 1.15505827125162e-14
vertex 73.7359665821092 35.2857166877798 0.0
endloop
endfacet
facet normal -1.64002318217527e-16 1.21182556169675e-16 -1.0
outer loop
vertex 60.8124623787512 29.4249168592559 0.0
vertex 73.7359665821092 35.2857166877798 0.0
vertex 66.3850541418296 -23.9243211390562 0.0
endloop
endfacet
facet normal -1.64002318217527e-16 1.21182556169675e-16 -1.0
outer loop
vertex 31.8466674622997 -9.76102672435848 0.0
vertex 66.3850541418296 -23.9243211390562 0.0
vertex 30.6392536653416 -19.4864883145131 0.0
endloop
endfacet
facet normal -1.64002318217527e-16 1.21182556169675e-16 -1.0
outer loop
vertex 66.3850541418296 -23.9243211390562 0.0
vertex 31.8466674622997 -9.76102672435848 0.0
vertex 55.581704548216 -12.7077260643525 0.0
endloop
endfacet
facet normal -1.64002318217527e-16 1.21182556169675e-16 -1.0
outer loop
vertex 66.3850541418296 -23.9243211390562 0.0
vertex 55.581704548216 -12.7077260643525 0.0
vertex 60.8124623787512 29.4249168592559 0.0
endloop
endfacet
facet normal 0.0230330254622782 0.185526126173814 -0.98236934818071
outer loop
vertex -8.181975928792 20.7499291560964 37.06495
vertex -1.03372964935861 15.3449587742565 36.2117907681751
vertex -8.73431141014975 16.3009842108276 36.2117907681751
endloop
endfacet
facet normal 0.0230330254622782 0.185526126173814 -0.98236934818071
outer loop
vertex -1.03372964935861 15.3449587742565 36.2117907681751
vertex -8.181975928792 20.7499291560964 37.06495
vertex -0.481394168000865 19.7939037195254 37.06495
endloop
endfacet
facet normal -0.992381375670598 0.123203917235338 -9.97446105595799e-17
outer loop
vertex -27.264843943864 38.868785303633 34.11855
vertex -29.2567627503543 22.8243025488102 5.12445
vertex -29.2567627503543 22.8243025488102 34.11855
endloop
endfacet
facet normal -0.992381375670598 0.123203917235338 -9.97446105595799e-17
outer loop
vertex -29.2567627503543 22.8243025488102 5.12445
vertex -27.264843943864 38.868785303633 34.11855
vertex -27.264843943864 38.868785303633 5.12445
endloop
endfacet
facet normal -0.992381375670598 0.123203917235338 4.33406557649323e-16
outer loop
vertex -29.2567627503543 22.8243025488102 5.12445
vertex -29.2684291673161 22.7303320389962 0.0
vertex -29.2684291673161 22.7303320389962 5.12445
endloop
endfacet
facet normal -0.992381375670598 0.123203917235338 4.33406557649323e-16
outer loop
vertex -29.2684291673161 22.7303320389962 0.0
vertex -29.2567627503543 22.8243025488102 5.12445
vertex -27.264843943864 38.868785303633 0.0
endloop
endfacet
facet normal -0.992381375670598 0.123203917235338 4.33406557649323e-16
outer loop
vertex -27.264843943864 38.868785303633 0.0
vertex -29.2567627503543 22.8243025488102 5.12445
vertex -27.264843943864 38.868785303633 5.12445
endloop
endfacet
facet normal -0.992381375670598 0.123203917235338 0.0
outer loop
vertex -30.1071028727205 15.9749935385313 5.12445
vertex -32.1239879590382 -0.270587295609054 0.0
vertex -32.1239879590382 -0.270587295609054 5.12445
endloop
endfacet
facet normal -0.992381375670598 0.123203917235338 0.0
outer loop
vertex -32.1239879590382 -0.270587295609054 0.0
vertex -30.1071028727205 15.9749935385313 5.12445
vertex -30.1071028727205 15.9749935385313 0.0
endloop
endfacet
facet normal -0.992381375670598 0.123203917235339 4.7635393096315e-17
outer loop
vertex -27.4229908253214 22.5966401903468 34.11855
vertex -28.2733309476876 15.747331180068 5.12445
vertex -28.2733309476876 15.747331180068 34.11855
endloop
endfacet
facet normal -0.992381375670598 0.123203917235339 4.7635393096315e-17
outer loop
vertex -28.2733309476876 15.747331180068 5.12445
vertex -27.4229908253214 22.5966401903468 34.11855
vertex -27.4346572422832 22.5026696805329 5.12445
endloop
endfacet
facet normal -0.992381375670598 0.123203917235339 4.7635393096315e-17
outer loop
vertex -27.4346572422832 22.5026696805329 5.12445
vertex -27.4229908253214 22.5966401903468 34.11855
vertex -27.4229908253214 22.5966401903468 5.12445
endloop
endfacet
facet normal -0.123203917235339 -0.992381375670598 -2.45408037589161e-17
outer loop
vertex -27.4229908253214 22.5966401903468 34.11855
vertex -29.2567627503543 22.8243025488102 5.12445
vertex -27.4229908253214 22.5966401903468 5.12445
endloop
endfacet
facet normal -0.123203917235339 -0.992381375670598 -2.45408037589161e-17
outer loop
vertex -29.2567627503543 22.8243025488102 5.12445
vertex -27.4229908253214 22.5966401903468 34.11855
vertex -29.2567627503543 22.8243025488102 34.11855
endloop
endfacet
facet normal 4.72724769315303e-17 -5.86886702851499e-18 1.0
outer loop
vertex -27.4346572422832 22.5026696805329 5.12445
vertex -29.2567627503543 22.8243025488102 5.12445
vertex -29.2684291673161 22.7303320389962 5.12445
endloop
endfacet
facet normal 4.72724769315303e-17 -5.86886702851499e-18 1.0
outer loop
vertex -29.2567627503543 22.8243025488102 5.12445
vertex -27.4346572422832 22.5026696805329 5.12445
vertex -27.4229908253214 22.5966401903468 5.12445
endloop
endfacet
facet normal 0.123203917235339 0.992381375670598 -2.45408037589161e-17
outer loop
vertex -30.1071028727205 15.9749935385313 34.11855
vertex -28.2733309476876 15.747331180068 5.12445
vertex -30.1071028727205 15.9749935385313 5.12445
endloop
endfacet
facet normal 0.123203917235339 0.992381375670598 -2.45408037589161e-17
outer loop
vertex -28.2733309476876 15.747331180068 5.12445
vertex -30.1071028727205 15.9749935385313 34.11855
vertex -28.2733309476876 15.747331180068 34.11855
endloop
endfacet
facet normal 0.0 0.0 -1.0
outer loop
vertex 43.7217476897017 -0.187745908687173 34.65195
vertex 47.4108110321112 -3.7683321045063 34.65195
vertex 43.3399633909728 -3.26293731561522 34.65195
endloop
endfacet
facet normal 0.0 0.0 -1.0
outer loop
vertex 47.4108110321112 -3.7683321045063 34.65195
vertex 43.7217476897017 -0.187745908687173 34.65195
vertex 47.7925953308401 -0.693140697578255 34.65195
endloop
endfacet
facet normal -0.123203917235338 -0.992381375670598 -0.0
outer loop
vertex 47.7925953308401 -0.693140697578255 34.65195
vertex 43.7217476897017 -0.187745908687173 34.11855
vertex 47.7925953308401 -0.693140697578255 34.11855
endloop
endfacet
facet normal -0.123203917235338 -0.992381375670598 -0.0
outer loop
vertex 43.7217476897017 -0.187745908687173 34.11855
vertex 47.7925953308401 -0.693140697578255 34.65195
vertex 43.7217476897017 -0.187745908687173 34.65195
endloop
endfacet
facet normal -0.992381375670598 0.123203917235337 -0.0
outer loop
vertex 47.7925953308401 -0.693140697578255 34.65195
vertex 47.4108110321112 -3.7683321045063 34.11855
vertex 47.4108110321112 -3.7683321045063 34.65195
endloop
endfacet
facet normal -0.992381375670598 0.123203917235337 -0.0
outer loop
vertex 47.4108110321112 -3.7683321045063 34.11855
vertex 47.7925953308401 -0.693140697578255 34.65195
vertex 47.7925953308401 -0.693140697578255 34.11855
endloop
endfacet
facet normal 0.123203917235338 0.992381375670598 0.0
outer loop
vertex 43.3399633909728 -3.26293731561522 34.65195
vertex 47.4108110321112 -3.7683321045063 34.11855
vertex 43.3399633909728 -3.26293731561522 34.11855
endloop
endfacet
facet normal 0.123203917235338 0.992381375670598 0.0
outer loop
vertex 47.4108110321112 -3.7683321045063 34.11855
vertex 43.3399633909728 -3.26293731561522 34.65195
vertex 47.4108110321112 -3.7683321045063 34.65195
endloop
endfacet
facet normal 0.992381375670598 -0.123203917235337 -0.0
outer loop
vertex 43.7217476897017 -0.187745908687173 34.11855
vertex 43.3399633909728 -3.26293731561522 34.65195
vertex 43.3399633909728 -3.26293731561522 34.11855
endloop
endfacet
facet normal 0.992381375670598 -0.123203917235337 -0.0
outer loop
vertex 43.3399633909728 -3.26293731561522 34.65195
vertex 43.7217476897017 -0.187745908687173 34.11855
vertex 43.7217476897017 -0.187745908687173 34.65195
endloop
endfacet
facet normal 0.0 0.0 -1.0
outer loop
vertex 47.2191947157526 11.2629923966253 34.5567
vertex 48.6040290286292 8.24388206427123 34.5567
vertex 46.8710830513644 8.45902690474344 34.5567
endloop
endfacet
facet normal 0.0 0.0 -1.0
outer loop
vertex 48.6040290286292 8.24388206427123 34.5567
vertex 47.2191947157526 11.2629923966253 34.5567
vertex 48.9521406930174 11.0478475561531 34.5567
endloop
endfacet
facet normal -0.992381375670598 0.123203917235337 -0.0
outer loop
vertex 48.9521406930174 11.0478475561531 34.5567
vertex 48.6040290286292 8.24388206427123 34.11855
vertex 48.6040290286292 8.24388206427123 34.5567
endloop
endfacet
facet normal -0.992381375670598 0.123203917235337 -0.0
outer loop
vertex 48.6040290286292 8.24388206427123 34.11855
vertex 48.9521406930174 11.0478475561531 34.5567
vertex 48.9521406930174 11.0478475561531 34.11855
endloop
endfacet
facet normal 0.123203917235338 0.992381375670598 0.0
outer loop
vertex 46.8710830513644 8.45902690474344 34.5567
vertex 48.6040290286292 8.24388206427123 34.11855
vertex 46.8710830513644 8.45902690474344 34.11855
endloop
endfacet
facet normal 0.123203917235338 0.992381375670598 0.0
outer loop
vertex 48.6040290286292 8.24388206427123 34.11855
vertex 46.8710830513644 8.45902690474344 34.5567
vertex 48.6040290286292 8.24388206427123 34.5567
endloop
endfacet
facet normal 0.992381375670598 -0.123203917235339 -0.0
outer loop
vertex 47.2191947157526 11.2629923966253 34.11855
vertex 46.8710830513644 8.45902690474344 34.5567
vertex 46.8710830513644 8.45902690474344 34.11855
endloop
endfacet
facet normal 0.992381375670598 -0.123203917235339 -0.0
outer loop
vertex 46.8710830513644 8.45902690474344 34.5567
vertex 47.2191947157526 11.2629923966253 34.11855
vertex 47.2191947157526 11.2629923966253 34.5567
endloop
endfacet
facet normal -0.123203917235338 -0.992381375670598 -0.0
outer loop
vertex 48.9521406930174 11.0478475561531 34.5567
vertex 47.2191947157526 11.2629923966253 34.11855
vertex 48.9521406930174 11.0478475561531 34.11855
endloop
endfacet
facet normal -0.123203917235338 -0.992381375670598 -0.0
outer loop
vertex 47.2191947157526 11.2629923966253 34.11855
vertex 48.9521406930174 11.0478475561531 34.5567
vertex 47.2191947157526 11.2629923966253 34.5567
endloop
endfacet
facet normal 0.0 0.0 -1.0
outer loop
vertex 44.2202445501903 6.61434745580768 34.5567
vertex 45.3259646513316 4.85179014597859 34.5567
vertex 44.0215289520814 5.01373553498857 34.5567
endloop
endfacet
facet normal 0.0 0.0 -1.0
outer loop
vertex 45.3259646513316 4.85179014597859 34.5567
vertex 44.2202445501903 6.61434745580768 34.5567
vertex 45.5246802494405 6.45240206679769 34.5567
endloop
endfacet
facet normal -0.123203917235339 -0.992381375670598 -0.0
outer loop
vertex 45.5246802494405 6.45240206679769 34.5567
vertex 44.2202445501903 6.61434745580768 34.11855
vertex 45.5246802494405 6.45240206679769 34.11855
endloop
endfacet
facet normal -0.123203917235339 -0.992381375670598 -0.0
outer loop
vertex 44.2202445501903 6.61434745580768 34.11855
vertex 45.5246802494405 6.45240206679769 34.5567
vertex 44.2202445501903 6.61434745580768 34.5567
endloop
endfacet
facet normal -0.992381375670598 0.123203917235339 -0.0
outer loop
vertex 45.5246802494405 6.45240206679769 34.5567
vertex 45.3259646513316 4.85179014597859 34.11855
vertex 45.3259646513316 4.85179014597859 34.5567
endloop
endfacet
facet normal -0.992381375670598 0.123203917235339 -0.0
outer loop
vertex 45.3259646513316 4.85179014597859 34.11855
vertex 45.5246802494405 6.45240206679769 34.5567
vertex 45.5246802494405 6.45240206679769 34.11855
endloop
endfacet
facet normal 0.123203917235338 0.992381375670598 0.0
outer loop
vertex 44.0215289520814 5.01373553498857 34.5567
vertex 45.3259646513316 4.85179014597859 34.11855
vertex 44.0215289520814 5.01373553498857 34.11855
endloop
endfacet
facet normal 0.123203917235338 0.992381375670598 0.0
outer loop
vertex 45.3259646513316 4.85179014597859 34.11855
vertex 44.0215289520814 5.01373553498857 34.5567
vertex 45.3259646513316 4.85179014597859 34.5567
endloop
endfacet
facet normal 0.992381375670598 -0.123203917235339 -0.0
outer loop
vertex 44.2202445501903 6.61434745580768 34.11855
vertex 44.0215289520814 5.01373553498857 34.5567
vertex 44.0215289520814 5.01373553498857 34.11855
endloop
endfacet
facet normal 0.992381375670598 -0.123203917235339 -0.0
outer loop
vertex 44.0215289520814 5.01373553498857 34.5567
vertex 44.2202445501903 6.61434745580768 34.11855
vertex 44.2202445501903 6.61434745580768 34.5567
endloop
endfacet
facet normal 0.0 0.0 -1.0
outer loop
vertex 27.2371105959641 7.55336189668837 34.8869
vertex 30.2449238026548 5.80421140683411 34.8869
vertex 27.0689064479586 6.19851322355409 34.8869
endloop
endfacet
facet normal 0.0 0.0 -1.0
outer loop
vertex 30.2449238026548 5.80421140683411 34.8869
vertex 27.2371105959641 7.55336189668837 34.8869
vertex 30.4131279506603 7.1590600799684 34.8869
endloop
endfacet
facet normal -0.992381375670598 0.123203917235337 -0.0
outer loop
vertex 30.4131279506603 7.1590600799684 34.8869
vertex 30.2449238026548 5.80421140683411 34.11855
vertex 30.2449238026548 5.80421140683411 34.8869
endloop
endfacet
facet normal -0.992381375670598 0.123203917235337 -0.0
outer loop
vertex 30.2449238026548 5.80421140683411 34.11855
vertex 30.4131279506603 7.1590600799684 34.8869
vertex 30.4131279506603 7.1590600799684 34.11855
endloop
endfacet
facet normal 0.123203917235338 0.992381375670598 0.0
outer loop
vertex 27.0689064479586 6.19851322355409 34.8869
vertex 30.2449238026548 5.80421140683411 34.11855
vertex 27.0689064479586 6.19851322355409 34.11855
endloop
endfacet
facet normal 0.123203917235338 0.992381375670598 0.0
outer loop
vertex 30.2449238026548 5.80421140683411 34.11855
vertex 27.0689064479586 6.19851322355409 34.8869
vertex 30.2449238026548 5.80421140683411 34.8869
endloop
endfacet
facet normal 0.992381375670598 -0.123203917235337 -0.0
outer loop
vertex 27.2371105959641 7.55336189668837 34.11855
vertex 27.0689064479586 6.19851322355409 34.8869
vertex 27.0689064479586 6.19851322355409 34.11855
endloop
endfacet
facet normal 0.992381375670598 -0.123203917235337 -0.0
outer loop
vertex 27.0689064479586 6.19851322355409 34.8869
vertex 27.2371105959641 7.55336189668837 34.11855
vertex 27.2371105959641 7.55336189668837 34.8869
endloop
endfacet
facet normal -0.123203917235338 -0.992381375670598 -0.0
outer loop
vertex 30.4131279506603 7.1590600799684 34.8869
vertex 27.2371105959641 7.55336189668837 34.11855
vertex 30.4131279506603 7.1590600799684 34.11855
endloop
endfacet
facet normal -0.123203917235338 -0.992381375670598 -0.0
outer loop
vertex 27.2371105959641 7.55336189668837 34.11855
vertex 30.4131279506603 7.1590600799684 34.8869
vertex 27.2371105959641 7.55336189668837 34.8869
endloop
endfacet
endsolid Federal Building
