solid Fourth Street Live
facet normal 0.99104298849829 -0.133543232506846 -1.98592134718122e-16
outer loop
vertex 23.8930840832103 19.3680391461053 0.0
vertex 23.8930840832103 19.3680391461053 9.0551
vertex 23.8930840832103 19.3680391461053 7.81210615286457
endloop
endfacet
facet normal 0.99104298849829 -0.133543232506846 -1.98592134718122e-16
outer loop
vertex 23.8930840832103 19.3680391461053 9.0551
vertex 23.8930840832103 19.3680391461053 0.0
vertex 24.8598929017612 26.5428624812681 9.0551
endloop
endfacet
facet normal 0.99104298849829 -0.133543232506846 -1.98592134718122e-16
outer loop
vertex 24.8598929017612 26.5428624812681 9.0551
vertex 23.8930840832103 19.3680391461053 0.0
vertex 24.8598929017612 26.5428624812681 0.0
endloop
endfacet
facet normal 0.133543232506847 0.99104298849829 2.11709104986882e-16
outer loop
vertex 23.8930840832103 19.3680391461053 7.81210615286457
vertex 54.2437560460033 15.2782802862924 0.0
vertex 23.8930840832103 19.3680391461053 0.0
endloop
endfacet
facet normal 0.133543232506847 0.99104298849829 2.11709104986882e-16
outer loop
vertex 54.2437560460033 15.2782802862924 0.0
vertex 23.8930840832103 19.3680391461053 7.81210615286457
vertex 54.2437560460033 15.2782802862924 10.09015
endloop
endfacet
facet normal 0.133543232506847 0.99104298849829 2.11709104986882e-16
outer loop
vertex 54.2437560460033 15.2782802862924 10.09015
vertex 23.8930840832103 19.3680391461053 7.81210615286457
vertex 41.8605773556869 16.9469159864658 19.4225050378962
endloop
endfacet
facet normal 0.99104298849829 -0.133543232506847 -2.439653632769e-18
outer loop
vertex 15.6216967025245 -42.015082371203 0.0
vertex 14.636957252471 -49.3229714282026 9.0551
vertex 14.636957252471 -49.3229714282026 0.0
endloop
endfacet
facet normal 0.99104298849829 -0.133543232506847 -2.439653632769e-18
outer loop
vertex 14.636957252471 -49.3229714282026 9.0551
vertex 15.6216967025245 -42.015082371203 0.0
vertex 15.6216967025245 -42.015082371203 9.0551
endloop
endfacet
facet normal 0.0 0.0 -1.0
outer loop
vertex 23.8930840832103 19.3680391461053 0.0
vertex 45.9723686653175 -46.1048412310158 0.0
vertex 15.6216967025245 -42.015082371203 0.0
endloop
endfacet
facet normal 0.0 0.0 -1.0
outer loop
vertex 45.9723686653175 -46.1048412310158 0.0
vertex 23.8930840832103 19.3680391461053 0.0
vertex 54.2437560460033 15.2782802862924 0.0
endloop
endfacet
facet normal 0.0 0.0 -1.0
outer loop
vertex 45.9723686653175 -46.1048412310158 0.0
vertex 54.2437560460033 15.2782802862924 0.0
vertex 47.2545439492623 -36.5896392898461 0.0
endloop
endfacet
facet normal 0.0 0.0 -1.0
outer loop
vertex 47.2545439492623 -36.5896392898461 0.0
vertex 54.2437560460033 15.2782802862924 0.0
vertex 52.9628527613482 5.77251802958808 0.0
endloop
endfacet
facet normal -0.99104298849829 0.133543232506847 1.97311005977637e-16
outer loop
vertex 47.9086344018185 -31.7355426450286 19.2897125
vertex 47.5918357608952 -34.0865496257586 13.20165
vertex 47.5918357608952 -34.0865496257586 19.2897125
endloop
endfacet
facet normal -0.99104298849829 0.133543232506847 1.97311005977637e-16
outer loop
vertex 47.2545439492623 -36.5896392898461 13.20165
vertex 45.9723686653175 -46.1048412310158 0.0
vertex 45.9723686653175 -46.1048412310158 13.20165
endloop
endfacet
facet normal -0.99104298849829 0.133543232506847 1.97311005977637e-16
outer loop
vertex 45.9723686653175 -46.1048412310158 0.0
vertex 47.2545439492623 -36.5896392898461 13.20165
vertex 47.2545439492623 -36.5896392898461 0.0
endloop
endfacet
facet normal -0.99104298849829 0.133543232506847 1.97311005977637e-16
outer loop
vertex 47.2545439492623 -36.5896392898461 0.0
vertex 47.2545439492623 -36.5896392898461 13.20165
vertex 47.5918357608952 -34.0865496257586 13.20165
endloop
endfacet
facet normal -0.99104298849829 0.133543232506847 1.97311005977637e-16
outer loop
vertex 47.2545439492623 -36.5896392898461 0.0
vertex 47.5918357608952 -34.0865496257586 13.20165
vertex 52.9628527613482 5.77251802958808 0.0
endloop
endfacet
facet normal -0.99104298849829 0.133543232506847 1.97311005977637e-16
outer loop
vertex 52.9628527613482 5.77251802958808 0.0
vertex 47.5918357608952 -34.0865496257586 13.20165
vertex 47.9086344018185 -31.7355426450286 19.2897125
endloop
endfacet
facet normal -0.99104298849829 0.133543232506847 1.97311005977637e-16
outer loop
vertex 52.9628527613482 5.77251802958808 0.0
vertex 47.9086344018185 -31.7355426450286 19.2897125
vertex 52.6698689249706 3.59824404104697 10.988675
endloop
endfacet
facet normal -0.99104298849829 0.133543232506847 1.97311005977637e-16
outer loop
vertex 52.6698689249706 3.59824404104697 10.988675
vertex 47.9086344018185 -31.7355426450286 19.2897125
vertex 52.586623789306 2.98047025739405 19.2897125
endloop
endfacet
facet normal -0.99104298849829 0.133543232506847 1.97311005977637e-16
outer loop
vertex 52.6698689249706 3.59824404104697 10.988675
vertex 52.586623789306 2.98047025739405 19.2897125
vertex 52.6698689249706 3.59824404104697 19.2897125
endloop
endfacet
facet normal -0.99104298849829 0.133543232506847 1.97311005977637e-16
outer loop
vertex 52.9628527613482 5.77251802958808 0.0
vertex 52.6698689249706 3.59824404104697 10.988675
vertex 52.9628527613482 5.77251802958808 10.988675
endloop
endfacet
facet normal -0.99104298849829 0.133543232506847 1.97311005977637e-16
outer loop
vertex 52.9628527613482 5.77251802958808 0.0
vertex 52.9628527613482 5.77251802958808 10.988675
vertex 54.2437560460033 15.2782802862924 10.988675
endloop
endfacet
facet normal -0.99104298849829 0.133543232506847 1.97311005977637e-16
outer loop
vertex 52.9628527613482 5.77251802958808 0.0
vertex 54.2437560460033 15.2782802862924 10.988675
vertex 54.2437560460033 15.2782802862924 0.0
endloop
endfacet
facet normal -0.99104298849829 0.133543232506847 1.97311005977637e-16
outer loop
vertex 54.2437560460033 15.2782802862924 0.0
vertex 54.2437560460033 15.2782802862924 10.988675
vertex 54.2437560460033 15.2782802862924 10.09015
endloop
endfacet
facet normal -0.133543232506847 -0.99104298849829 1.85431973797959e-16
outer loop
vertex 45.9723686653175 -46.1048412310158 13.20165
vertex 15.6216967025245 -42.015082371203 0.0
vertex 45.9723686653175 -46.1048412310158 0.0
endloop
endfacet
facet normal -0.133543232506847 -0.99104298849829 1.85431973797959e-16
outer loop
vertex 15.6216967025245 -42.015082371203 0.0
vertex 45.9723686653175 -46.1048412310158 13.20165
vertex 15.6216967025245 -42.015082371203 9.0551
endloop
endfacet
facet normal -0.133543232506847 -0.99104298849829 1.85431973797959e-16
outer loop
vertex 15.6216967025245 -42.015082371203 9.0551
vertex 45.9723686653175 -46.1048412310158 13.20165
vertex 33.5891899750011 -44.4362055308425 20.545027955039
endloop
endfacet
facet normal 0.99104298849829 -0.133543232506847 3.05810904876059e-17
outer loop
vertex 31.9893538836289 79.4515886309803 0.0
vertex 27.9412189834196 49.4098138885428 9.0551
vertex 27.9412189834196 49.4098138885428 0.0
endloop
endfacet
facet normal 0.99104298849829 -0.133543232506847 3.05810904876059e-17
outer loop
vertex 27.9412189834196 49.4098138885428 9.0551
vertex 31.9893538836289 79.4515886309803 0.0
vertex 31.9893538836289 79.4515886309803 9.0551
endloop
endfacet
facet normal 0.99104298849829 -0.133543232506847 4.58716357314089e-17
outer loop
vertex 27.9412189834196 49.4098138885428 0.0
vertex 24.8598929017612 26.5428624812681 9.0551
vertex 24.8598929017612 26.5428624812681 0.0
endloop
endfacet
facet normal 0.99104298849829 -0.133543232506847 4.58716357314089e-17
outer loop
vertex 24.8598929017612 26.5428624812681 9.0551
vertex 27.9412189834196 49.4098138885428 0.0
vertex 27.9412189834196 49.4098138885428 9.0551
endloop
endfacet
facet normal -0.99104298849829 0.133543232506846 6.22711834732075e-18
outer loop
vertex 58.0092979430646 43.2228928655017 10.988675
vertex 54.2437560460033 15.2782802862924 10.09015
vertex 54.2437560460033 15.2782802862924 10.988675
endloop
endfacet
facet normal -0.99104298849829 0.133543232506846 6.22711834732075e-18
outer loop
vertex 54.2437560460033 15.2782802862924 10.09015
vertex 58.0092979430646 43.2228928655017 10.988675
vertex 54.2437560460033 15.2782802862924 0.0
endloop
endfacet
facet normal -0.99104298849829 0.133543232506846 6.22711834732075e-18
outer loop
vertex 54.2437560460033 15.2782802862924 0.0
vertex 58.0092979430646 43.2228928655017 10.988675
vertex 58.0092979430646 43.2228928655017 0.0
endloop
endfacet
facet normal -0.133543232506847 -0.99104298849829 -0.0
outer loop
vertex 54.3660043110427 2.74069839129923 21.5598375
vertex 52.586623789306 2.98047025739405 19.2897125
vertex 54.3660043110427 2.74069839129923 19.2897125
endloop
endfacet
facet normal -0.133543232506847 -0.99104298849829 -0.0
outer loop
vertex 52.586623789306 2.98047025739405 19.2897125
vertex 54.3660043110427 2.74069839129923 21.5598375
vertex 52.586623789306 2.98047025739405 21.5598375
endloop
endfacet
facet normal -0.0 0.0 -1.0
outer loop
vertex 52.586623789306 2.98047025739405 21.5598375
vertex 49.6880149235551 -31.9753145111234 21.5598375
vertex 47.9086344018185 -31.7355426450286 21.5598375
endloop
endfacet
facet normal -0.0 0.0 -1.0
outer loop
vertex 49.6880149235551 -31.9753145111234 21.5598375
vertex 52.586623789306 2.98047025739405 21.5598375
vertex 54.3660043110427 2.74069839129923 21.5598375
endloop
endfacet
facet normal -0.99104298849829 0.133543232506846 2.256178283176e-18
outer loop
vertex 90.0435066223652 0.775892820048812 19.2897125
vertex 89.2124670864751 -5.39136769737605 10.988675
vertex 89.2124670864751 -5.39136769737605 19.2897125
endloop
endfacet
facet normal -0.99104298849829 0.133543232506846 2.256178283176e-18
outer loop
vertex 89.2124670864751 -5.39136769737605 10.988675
vertex 90.0435066223652 0.775892820048812 19.2897125
vertex 89.3320350197001 -4.5040373576241 10.988675
endloop
endfacet
facet normal -0.99104298849829 0.133543232506846 2.256178283176e-18
outer loop
vertex 89.3320350197001 -4.5040373576241 10.988675
vertex 90.0435066223652 0.775892820048812 19.2897125
vertex 90.0435066223652 0.775892820048812 10.988675
endloop
endfacet
facet normal 2.23596966834368e-18 -3.01297341047069e-19 1.0
outer loop
vertex 90.5623405616966 -4.66982126503892 10.988675
vertex 90.0435066223652 0.775892820048812 10.988675
vertex 89.3320350197001 -4.5040373576241 10.988675
endloop
endfacet
facet normal 2.23596966834368e-18 -3.01297341047069e-19 1.0
outer loop
vertex 90.0435066223652 0.775892820048812 10.988675
vertex 90.5623405616966 -4.66982126503892 10.988675
vertex 91.2738121643617 0.610108912634 10.988675
endloop
endfacet
facet normal -0.99104298849829 0.133543232506847 0.0
outer loop
vertex 54.3660043110427 2.74069839129923 21.5598375
vertex 49.6880149235551 -31.9753145111234 19.2897125
vertex 49.6880149235551 -31.9753145111234 21.5598375
endloop
endfacet
facet normal -0.99104298849829 0.133543232506847 0.0
outer loop
vertex 49.6880149235551 -31.9753145111234 19.2897125
vertex 54.3660043110427 2.74069839129923 21.5598375
vertex 54.3660043110427 2.74069839129923 19.2897125
endloop
endfacet
facet normal 0.0 -0.0 1.0
outer loop
vertex 49.6880149235551 -31.9753145111234 19.2897125
vertex 52.586623789306 2.98047025739405 19.2897125
vertex 47.9086344018185 -31.7355426450286 19.2897125
endloop
endfacet
facet normal 0.0 -0.0 1.0
outer loop
vertex 52.586623789306 2.98047025739405 19.2897125
vertex 49.6880149235551 -31.9753145111234 19.2897125
vertex 54.3660043110427 2.74069839129923 19.2897125
endloop
endfacet
facet normal 0.133543232506847 0.99104298849829 -0.0
outer loop
vertex 47.9086344018185 -31.7355426450286 21.5598375
vertex 49.6880149235551 -31.9753145111234 19.2897125
vertex 47.9086344018185 -31.7355426450286 19.2897125
endloop
endfacet
facet normal 0.133543232506847 0.99104298849829 -0.0
outer loop
vertex 49.6880149235551 -31.9753145111234 19.2897125
vertex 47.9086344018185 -31.7355426450286 21.5598375
vertex 49.6880149235551 -31.9753145111234 21.5598375
endloop
endfacet
facet normal 0.99104298849829 -0.133543232506846 5.82289032361277e-19
outer loop
vertex 70.4337818081962 1.20455337784921 10.988675
vertex 69.8957261086836 -2.78843315103454 19.2897125
vertex 69.8957261086836 -2.78843315103454 10.988675
endloop
endfacet
facet normal 0.99104298849829 -0.133543232506846 5.82289032361277e-19
outer loop
vertex 69.8957261086836 -2.78843315103454 19.2897125
vertex 70.4337818081962 1.20455337784921 10.988675
vertex 70.4337818081962 1.20455337784921 19.2897125
endloop
endfacet
facet normal 0.0 0.0 -1.0
outer loop
vertex 54.2437560460033 15.2782802862924 0.0
vertex 72.0262955393168 3.20371546418491 0.0
vertex 52.9628527613482 5.77251802958808 0.0
endloop
endfacet
facet normal 0.0 0.0 -1.0
outer loop
vertex 72.0262955393168 3.20371546418491 0.0
vertex 54.2437560460033 15.2782802862924 0.0
vertex 58.0092979430646 43.2228928655017 0.0
endloop
endfacet
facet normal 0.0 0.0 -1.0
outer loop
vertex 72.0262955393168 3.20371546418491 0.0
vertex 58.0092979430646 43.2228928655017 0.0
vertex 83.9857363112283 39.7225628203278 0.0
endloop
endfacet
facet normal 0.0 0.0 -1.0
outer loop
vertex 72.0262955393168 3.20371546418491 0.0
vertex 83.9857363112283 39.7225628203278 0.0
vertex 83.6310605093038 37.0904641352126 0.0
endloop
endfacet
facet normal 0.0 0.0 -1.0
outer loop
vertex 72.0262955393168 3.20371546418491 0.0
vertex 90.5623405616966 -4.66982126503892 0.0
vertex 71.3148239366517 -2.07621471348801 0.0
endloop
endfacet
facet normal 0.0 0.0 -1.0
outer loop
vertex 90.5623405616966 -4.66982126503892 0.0
vertex 72.0262955393168 3.20371546418491 0.0
vertex 83.6310605093038 37.0904641352126 0.0
endloop
endfacet
facet normal 0.0 0.0 -1.0
outer loop
vertex 90.5623405616966 -4.66982126503892 0.0
vertex 83.6310605093038 37.0904641352126 0.0
vertex 91.2738121643617 0.610108912634 0.0
endloop
endfacet
facet normal 0.0 0.0 -1.0
outer loop
vertex 91.2738121643617 0.610108912634 0.0
vertex 83.6310605093038 37.0904641352126 0.0
vertex 105.973220358271 34.0798538165454 0.0
endloop
endfacet
facet normal 0.0 0.0 -1.0
outer loop
vertex 91.2738121643617 0.610108912634 0.0
vertex 105.973220358271 34.0798538165454 0.0
vertex 101.281450978479 -0.738422334252979 0.0
endloop
endfacet
facet normal -0.0 -0.0 1.0
outer loop
vertex 89.2124670864751 -5.39136769737605 10.988675
vertex 70.4337818081962 1.20455337784921 10.988675
vertex 69.8957261086836 -2.78843315103454 10.988675
endloop
endfacet
facet normal -0.0 -0.0 1.0
outer loop
vertex 70.4337818081962 1.20455337784921 10.988675
vertex 89.2124670864751 -5.39136769737605 10.988675
vertex 83.6310605093038 37.0904641352126 10.988675
endloop
endfacet
facet normal -0.0 -0.0 1.0
outer loop
vertex 83.6310605093038 37.0904641352126 10.988675
vertex 89.2124670864751 -5.39136769737605 10.988675
vertex 90.0435066223652 0.775892820048812 10.988675
endloop
endfacet
facet normal -0.0 -0.0 1.0
outer loop
vertex 83.6310605093038 37.0904641352126 10.988675
vertex 90.0435066223652 0.775892820048812 10.988675
vertex 105.973220358271 34.0798538165454 10.988675
endloop
endfacet
facet normal -0.0 -0.0 1.0
outer loop
vertex 90.0435066223652 0.775892820048812 10.988675
vertex 89.2124670864751 -5.39136769737605 10.988675
vertex 89.3320350197001 -4.5040373576241 10.988675
endloop
endfacet
facet normal -0.0 -0.0 1.0
outer loop
vertex 105.973220358271 34.0798538165454 10.988675
vertex 90.0435066223652 0.775892820048812 10.988675
vertex 91.2738121643617 0.610108912634 10.988675
endloop
endfacet
facet normal -0.0 -0.0 1.0
outer loop
vertex 105.973220358271 34.0798538165454 10.988675
vertex 91.2738121643617 0.610108912634 10.988675
vertex 101.281450978479 -0.738422334252979 10.988675
endloop
endfacet
facet normal -0.0 -0.0 1.0
outer loop
vertex 70.4337818081962 1.20455337784921 10.988675
vertex 52.9628527613482 5.77251802958808 10.988675
vertex 52.6698689249706 3.59824404104697 10.988675
endloop
endfacet
facet normal -0.0 -0.0 1.0
outer loop
vertex 52.9628527613482 5.77251802958808 10.988675
vertex 70.4337818081962 1.20455337784921 10.988675
vertex 54.2437560460033 15.2782802862924 10.988675
endloop
endfacet
facet normal -0.0 -0.0 1.0
outer loop
vertex 54.2437560460033 15.2782802862924 10.988675
vertex 70.4337818081962 1.20455337784921 10.988675
vertex 58.0092979430646 43.2228928655017 10.988675
endloop
endfacet
facet normal -0.0 -0.0 1.0
outer loop
vertex 58.0092979430646 43.2228928655017 10.988675
vertex 70.4337818081962 1.20455337784921 10.988675
vertex 83.9857363112283 39.7225628203278 10.988675
endloop
endfacet
facet normal -0.0 -0.0 1.0
outer loop
vertex 83.9857363112283 39.7225628203278 10.988675
vertex 70.4337818081962 1.20455337784921 10.988675
vertex 83.6310605093038 37.0904641352126 10.988675
endloop
endfacet
facet normal 0.99104298849829 -0.133543232506847 0.0
outer loop
vertex 105.973220358271 34.0798538165454 0.0
vertex 101.281450978479 -0.738422334252979 10.988675
vertex 101.281450978479 -0.738422334252979 0.0
endloop
endfacet
facet normal 0.99104298849829 -0.133543232506847 0.0
outer loop
vertex 101.281450978479 -0.738422334252979 10.988675
vertex 105.973220358271 34.0798538165454 0.0
vertex 105.973220358271 34.0798538165454 10.988675
endloop
endfacet
facet normal 0.133543232506847 0.99104298849829 -0.0
outer loop
vertex 91.2738121643617 0.610108912634 10.988675
vertex 101.281450978479 -0.738422334252979 0.0
vertex 91.2738121643617 0.610108912634 0.0
endloop
endfacet
facet normal 0.133543232506847 0.99104298849829 -0.0
outer loop
vertex 101.281450978479 -0.738422334252979 0.0
vertex 91.2738121643617 0.610108912634 10.988675
vertex 101.281450978479 -0.738422334252979 10.988675
endloop
endfacet
facet normal -0.99104298849829 0.133543232506846 0.0
outer loop
vertex 91.2738121643617 0.610108912634 10.988675
vertex 90.5623405616966 -4.66982126503892 0.0
vertex 90.5623405616966 -4.66982126503892 10.988675
endloop
endfacet
facet normal -0.99104298849829 0.133543232506846 0.0
outer loop
vertex 90.5623405616966 -4.66982126503892 0.0
vertex 91.2738121643617 0.610108912634 10.988675
vertex 91.2738121643617 0.610108912634 0.0
endloop
endfacet
facet normal -0.99104298849829 0.133543232506847 0.0
outer loop
vertex 45.9723686653175 -46.1048412310158 13.20165
vertex 45.2655610600477 -51.3501592323154 0.0
vertex 45.2655610600477 -51.3501592323154 13.20165
endloop
endfacet
facet normal -0.99104298849829 0.133543232506847 0.0
outer loop
vertex 45.2655610600477 -51.3501592323154 0.0
vertex 45.9723686653175 -46.1048412310158 13.20165
vertex 45.9723686653175 -46.1048412310158 0.0
endloop
endfacet
facet normal 0.133543232506847 0.99104298849829 0.0
outer loop
vertex 58.0092979430646 43.2228928655017 10.988675
vertex 83.9857363112283 39.7225628203278 0.0
vertex 58.0092979430646 43.2228928655017 0.0
endloop
endfacet
facet normal 0.133543232506847 0.99104298849829 0.0
outer loop
vertex 83.9857363112283 39.7225628203278 0.0
vertex 58.0092979430646 43.2228928655017 10.988675
vertex 83.9857363112283 39.7225628203278 10.988675
endloop
endfacet
facet normal 0.99104298849829 -0.133543232506847 0.0
outer loop
vertex 83.9857363112283 39.7225628203278 0.0
vertex 83.6310605093038 37.0904641352126 10.988675
vertex 83.6310605093038 37.0904641352126 0.0
endloop
endfacet
facet normal 0.99104298849829 -0.133543232506847 0.0
outer loop
vertex 83.6310605093038 37.0904641352126 10.988675
vertex 83.9857363112283 39.7225628203278 0.0
vertex 83.9857363112283 39.7225628203278 10.988675
endloop
endfacet
facet normal 0.133543232506847 0.99104298849829 0.0
outer loop
vertex 83.6310605093038 37.0904641352126 10.988675
vertex 105.973220358271 34.0798538165454 0.0
vertex 83.6310605093038 37.0904641352126 0.0
endloop
endfacet
facet normal 0.133543232506847 0.99104298849829 0.0
outer loop
vertex 105.973220358271 34.0798538165454 0.0
vertex 83.6310605093038 37.0904641352126 10.988675
vertex 105.973220358271 34.0798538165454 10.988675
endloop
endfacet
facet normal 0.133543232506847 0.99104298849829 5.34930119175935e-18
outer loop
vertex 69.8957261086836 -2.78843315103454 19.2897125
vertex 89.2124670864751 -5.39136769737605 10.988675
vertex 69.8957261086836 -2.78843315103454 10.988675
endloop
endfacet
facet normal 0.133543232506847 0.99104298849829 5.34930119175935e-18
outer loop
vertex 89.2124670864751 -5.39136769737605 10.988675
vertex 69.8957261086836 -2.78843315103454 19.2897125
vertex 89.2124670864751 -5.39136769737605 19.2897125
endloop
endfacet
facet normal -0.133543232506847 -0.99104298849829 0.0
outer loop
vertex 67.1807543074403 -36.7261601516177 19.2897125
vertex 47.5918357608952 -34.0865496257586 13.20165
vertex 67.1807543074403 -36.7261601516177 13.20165
endloop
endfacet
facet normal -0.133543232506847 -0.99104298849829 0.0
outer loop
vertex 47.5918357608952 -34.0865496257586 13.20165
vertex 67.1807543074403 -36.7261601516177 19.2897125
vertex 47.5918357608952 -34.0865496257586 19.2897125
endloop
endfacet
facet normal -0.133543232506847 -0.99104298849829 -4.60175178208756e-18
outer loop
vertex 85.9453894456252 -34.724672839911 19.2897125
vertex 67.7802899726182 -32.276922206904 13.20165
vertex 85.9453894456252 -34.724672839911 13.20165
endloop
endfacet
facet normal -0.133543232506847 -0.99104298849829 -4.60175178208756e-18
outer loop
vertex 67.7802899726182 -32.276922206904 13.20165
vertex 85.9453894456252 -34.724672839911 19.2897125
vertex 67.7802899726182 -32.276922206904 19.2897125
endloop
endfacet
facet normal 0.133543232506846 0.99104298849829 -3.276298508091e-16
outer loop
vertex 52.9628527613482 5.77251802958808 28.463875
vertex 52.9628527613482 5.77251802958808 10.988675
vertex 40.5796740710318 7.44115372976145 20.545027955039
endloop
endfacet
facet normal 0.602059992358256 -0.0811276992781098 0.794318614921882
outer loop
vertex 52.9628527613482 5.77251802958808 10.988675
vertex 41.8605773556869 16.9469159864658 20.545027955039
vertex 40.5796740710318 7.44115372976145 20.545027955039
endloop
endfacet
facet normal 0.602059992358256 -0.0811276992781098 0.794318614921882
outer loop
vertex 41.8605773556869 16.9469159864658 20.545027955039
vertex 52.9628527613482 5.77251802958808 10.988675
vertex 54.2437560460033 15.2782802862924 10.988675
endloop
endfacet
facet normal -0.133543232506847 -0.99104298849829 -3.09756190365362e-18
outer loop
vertex 47.2545439492623 -36.5896392898461 28.463875
vertex 34.8713652589459 -34.9210035896727 20.545027955039
vertex 47.2545439492623 -36.5896392898461 13.20165
endloop
endfacet
facet normal 0.502139380640003 -0.0676633777120633 0.862135551828754
outer loop
vertex 45.9723686653175 -46.1048412310158 13.20165
vertex 34.8713652589459 -34.9210035896727 20.545027955039
vertex 33.5891899750011 -44.4362055308425 20.545027955039
endloop
endfacet
facet normal 0.502139380640003 -0.0676633777120633 0.862135551828754
outer loop
vertex 34.8713652589459 -34.9210035896727 20.545027955039
vertex 45.9723686653175 -46.1048412310158 13.20165
vertex 47.2545439492623 -36.5896392898461 13.20165
endloop
endfacet
facet normal -0.99104298849829 0.133543232506847 -1.25335824268438e-16
outer loop
vertex 47.2545439492623 -36.5896392898461 28.463875
vertex 47.5918357608952 -34.0865496257586 19.2897125
vertex 47.2545439492623 -36.5896392898461 13.20165
endloop
endfacet
facet normal -0.99104298849829 0.133543232506847 -1.25335824268438e-16
outer loop
vertex 47.5918357608952 -34.0865496257586 19.2897125
vertex 47.2545439492623 -36.5896392898461 28.463875
vertex 47.9086344018185 -31.7355426450286 21.5598375
endloop
endfacet
facet normal -0.99104298849829 0.133543232506847 -1.25335824268438e-16
outer loop
vertex 47.9086344018185 -31.7355426450286 21.5598375
vertex 47.2545439492623 -36.5896392898461 28.463875
vertex 52.9628527613482 5.77251802958808 28.463875
endloop
endfacet
facet normal -0.99104298849829 0.133543232506847 -1.25335824268438e-16
outer loop
vertex 47.9086344018185 -31.7355426450286 21.5598375
vertex 52.9628527613482 5.77251802958808 28.463875
vertex 52.586623789306 2.98047025739405 21.5598375
endloop
endfacet
facet normal -0.99104298849829 0.133543232506847 -1.25335824268438e-16
outer loop
vertex 52.586623789306 2.98047025739405 21.5598375
vertex 52.9628527613482 5.77251802958808 28.463875
vertex 52.586623789306 2.98047025739405 19.2897125
endloop
endfacet
facet normal -0.99104298849829 0.133543232506847 -1.25335824268438e-16
outer loop
vertex 52.586623789306 2.98047025739405 19.2897125
vertex 52.9628527613482 5.77251802958808 28.463875
vertex 52.6698689249706 3.59824404104697 19.2897125
endloop
endfacet
facet normal -0.99104298849829 0.133543232506847 -1.25335824268438e-16
outer loop
vertex 52.6698689249706 3.59824404104697 19.2897125
vertex 52.9628527613482 5.77251802958808 28.463875
vertex 52.6698689249706 3.59824404104697 10.988675
endloop
endfacet
facet normal -0.99104298849829 0.133543232506847 -1.25335824268438e-16
outer loop
vertex 52.6698689249706 3.59824404104697 10.988675
vertex 52.9628527613482 5.77251802958808 28.463875
vertex 52.9628527613482 5.77251802958808 10.988675
endloop
endfacet
facet normal -0.99104298849829 0.133543232506847 -1.25335824268438e-16
outer loop
vertex 47.9086344018185 -31.7355426450286 19.2897125
vertex 47.5918357608952 -34.0865496257586 19.2897125
vertex 47.9086344018185 -31.7355426450286 21.5598375
endloop
endfacet
facet normal -0.99104298849829 0.133543232506847 -1.25335824268438e-16
outer loop
vertex 47.5918357608952 -34.0865496257586 13.20165
vertex 47.2545439492623 -36.5896392898461 13.20165
vertex 47.5918357608952 -34.0865496257586 19.2897125
endloop
endfacet
facet normal -0.0 -0.0 1.0
outer loop
vertex 67.1807543074403 -36.7261601516177 19.2897125
vertex 47.9086344018185 -31.7355426450286 19.2897125
vertex 47.5918357608952 -34.0865496257586 19.2897125
endloop
endfacet
facet normal -0.0 -0.0 1.0
outer loop
vertex 47.9086344018185 -31.7355426450286 19.2897125
vertex 67.1807543074403 -36.7261601516177 19.2897125
vertex 49.6880149235551 -31.9753145111234 19.2897125
endloop
endfacet
facet normal -0.0 -0.0 1.0
outer loop
vertex 49.6880149235551 -31.9753145111234 19.2897125
vertex 67.1807543074403 -36.7261601516177 19.2897125
vertex 54.3660043110427 2.74069839129923 19.2897125
endloop
endfacet
facet normal -0.0 -0.0 1.0
outer loop
vertex 85.9453894456252 -34.724672839911 19.2897125
vertex 69.8957261086836 -2.78843315103454 19.2897125
vertex 67.7802899726182 -32.276922206904 19.2897125
endloop
endfacet
facet normal -0.0 -0.0 1.0
outer loop
vertex 69.8957261086836 -2.78843315103454 19.2897125
vertex 85.9453894456252 -34.724672839911 19.2897125
vertex 89.2124670864751 -5.39136769737605 19.2897125
endloop
endfacet
facet normal -0.0 -0.0 1.0
outer loop
vertex 54.3660043110427 2.74069839129923 19.2897125
vertex 52.6698689249706 3.59824404104697 19.2897125
vertex 52.586623789306 2.98047025739405 19.2897125
endloop
endfacet
facet normal -0.0 -0.0 1.0
outer loop
vertex 52.6698689249706 3.59824404104697 19.2897125
vertex 54.3660043110427 2.74069839129923 19.2897125
vertex 70.4337818081962 1.20455337784921 19.2897125
endloop
endfacet
facet normal -0.0 -0.0 1.0
outer loop
vertex 70.4337818081962 1.20455337784921 19.2897125
vertex 54.3660043110427 2.74069839129923 19.2897125
vertex 69.8957261086836 -2.78843315103454 19.2897125
endloop
endfacet
facet normal -0.0 -0.0 1.0
outer loop
vertex 69.8957261086836 -2.78843315103454 19.2897125
vertex 54.3660043110427 2.74069839129923 19.2897125
vertex 67.1807543074403 -36.7261601516177 19.2897125
endloop
endfacet
facet normal -0.0 -0.0 1.0
outer loop
vertex 69.8957261086836 -2.78843315103454 19.2897125
vertex 67.1807543074403 -36.7261601516177 19.2897125
vertex 67.7802899726182 -32.276922206904 19.2897125
endloop
endfacet
facet normal -0.0 -0.0 1.0
outer loop
vertex 98.3830215756074 -43.479211442233 19.2897125
vertex 85.9453894456252 -34.724672839911 19.2897125
vertex 85.0085619688143 -41.6770004487121 19.2897125
endloop
endfacet
facet normal -0.0 -0.0 1.0
outer loop
vertex 85.9453894456252 -34.724672839911 19.2897125
vertex 98.3830215756074 -43.479211442233 19.2897125
vertex 89.2124670864751 -5.39136769737605 19.2897125
endloop
endfacet
facet normal -0.0 -0.0 1.0
outer loop
vertex 89.2124670864751 -5.39136769737605 19.2897125
vertex 98.3830215756074 -43.479211442233 19.2897125
vertex 90.0435066223652 0.775892820048812 19.2897125
endloop
endfacet
facet normal -0.0 -0.0 1.0
outer loop
vertex 90.0435066223652 0.775892820048812 19.2897125
vertex 98.3830215756074 -43.479211442233 19.2897125
vertex 96.2393371356784 -25.1279141113865 19.2897125
endloop
endfacet
facet normal -0.0 -0.0 1.0
outer loop
vertex 96.2393371356784 -25.1279141113865 19.2897125
vertex 98.3830215756074 -43.479211442233 19.2897125
vertex 100.773532240581 -25.738897770171 19.2897125
endloop
endfacet
facet normal -0.0 -0.0 1.0
outer loop
vertex 90.0435066223652 0.775892820048812 19.2897125
vertex 97.255664568091 -17.585606223495 19.2897125
vertex 104.091330387693 -1.11705412279883 19.2897125
endloop
endfacet
facet normal -0.0 -0.0 1.0
outer loop
vertex 97.255664568091 -17.585606223495 19.2897125
vertex 90.0435066223652 0.775892820048812 19.2897125
vertex 96.2393371356784 -25.1279141113865 19.2897125
endloop
endfacet
facet normal -0.0 -0.0 1.0
outer loop
vertex 104.091330387693 -1.11705412279883 19.2897125
vertex 97.255664568091 -17.585606223495 19.2897125
vertex 101.789859672994 -18.1965898822795 19.2897125
endloop
endfacet
facet normal 0.133543232506847 0.99104298849829 -5.88872550818286e-18
outer loop
vertex 52.6698689249706 3.59824404104697 19.2897125
vertex 70.4337818081962 1.20455337784921 10.988675
vertex 52.6698689249706 3.59824404104697 10.988675
endloop
endfacet
facet normal 0.133543232506847 0.99104298849829 -5.88872550818286e-18
outer loop
vertex 70.4337818081962 1.20455337784921 10.988675
vertex 52.6698689249706 3.59824404104697 19.2897125
vertex 70.4337818081962 1.20455337784921 19.2897125
endloop
endfacet
facet normal 0.133543232506844 0.991042988498291 -2.48180483530911e-15
outer loop
vertex 41.8605773556869 16.9469159864658 19.4225050378962
vertex 54.2437560460033 15.2782802862924 10.988675
vertex 54.2437560460033 15.2782802862924 10.09015
endloop
endfacet
facet normal 0.133543232506844 0.991042988498291 -2.48180483530911e-15
outer loop
vertex 54.2437560460033 15.2782802862924 10.988675
vertex 41.8605773556869 16.9469159864658 19.4225050378962
vertex 41.8605773556869 16.9469159864658 20.545027955039
endloop
endfacet
facet normal 0.133543232506847 0.99104298849829 -0.0
outer loop
vertex 23.8930840832103 19.3680391461053 9.0551
vertex 41.8605773556869 16.9469159864658 19.4225050378962
vertex 23.8930840832103 19.3680391461053 7.81210615286457
endloop
endfacet
facet normal 0.133543232506847 0.99104298849829 -0.0
outer loop
vertex 41.8605773556869 16.9469159864658 19.4225050378962
vertex 23.8930840832103 19.3680391461053 9.0551
vertex 41.8605773556869 16.9469159864658 20.545027955039
endloop
endfacet
facet normal 0.133543232506846 0.991042988498291 0.0
outer loop
vertex -3.73938707157277 69.8602683266436 13.2508625
vertex 20.2248252247067 66.631086130042 9.0551
vertex -3.73938707157277 69.8602683266436 9.0551
endloop
endfacet
facet normal 0.133543232506846 0.991042988498291 0.0
outer loop
vertex 20.2248252247067 66.631086130042 9.0551
vertex -3.73938707157277 69.8602683266436 13.2508625
vertex 20.2248252247067 66.631086130042 13.2508625
endloop
endfacet
facet normal 0.0 0.0 1.0
outer loop
vertex 7.32735351838499 -52.0015040592557 13.2508625
vertex -8.98716454415191 -22.07833844179 13.2508625
vertex -12.6564584949647 -49.3086815631138 13.2508625
endloop
endfacet
facet normal 0.0 0.0 1.0
outer loop
vertex -8.98716454415191 -22.07833844179 13.2508625
vertex 7.32735351838499 -52.0015040592557 13.2508625
vertex 10.9966474691977 -24.7711609379318 13.2508625
endloop
endfacet
facet normal -0.133543232506847 -0.99104298849829 -0.0
outer loop
vertex 7.32735351838499 -52.0015040592557 13.2508625
vertex -12.6564584949647 -49.3086815631138 9.0551
vertex 7.32735351838499 -52.0015040592557 9.0551
endloop
endfacet
facet normal -0.133543232506847 -0.99104298849829 -0.0
outer loop
vertex -12.6564584949647 -49.3086815631138 9.0551
vertex 7.32735351838499 -52.0015040592557 13.2508625
vertex -12.6564584949647 -49.3086815631138 13.2508625
endloop
endfacet
facet normal 0.99104298849829 -0.133543232506847 0.0
outer loop
vertex 10.9966474691977 -24.7711609379318 9.0551
vertex 7.32735351838499 -52.0015040592557 13.2508625
vertex 7.32735351838499 -52.0015040592557 9.0551
endloop
endfacet
facet normal 0.99104298849829 -0.133543232506847 0.0
outer loop
vertex 7.32735351838499 -52.0015040592557 13.2508625
vertex 10.9966474691977 -24.7711609379318 9.0551
vertex 10.9966474691977 -24.7711609379318 13.2508625
endloop
endfacet
facet normal 0.133543232506847 0.99104298849829 0.0
outer loop
vertex -8.98716454415191 -22.07833844179 13.2508625
vertex 10.9966474691977 -24.7711609379318 9.0551
vertex -8.98716454415191 -22.07833844179 9.0551
endloop
endfacet
facet normal 0.133543232506847 0.99104298849829 0.0
outer loop
vertex 10.9966474691977 -24.7711609379318 9.0551
vertex -8.98716454415191 -22.07833844179 13.2508625
vertex 10.9966474691977 -24.7711609379318 13.2508625
endloop
endfacet
facet normal -0.99104298849829 0.133543232506847 0.0
outer loop
vertex -8.98716454415191 -22.07833844179 13.2508625
vertex -12.6564584949647 -49.3086815631138 9.0551
vertex -12.6564584949647 -49.3086815631138 13.2508625
endloop
endfacet
facet normal -0.99104298849829 0.133543232506847 0.0
outer loop
vertex -12.6564584949647 -49.3086815631138 9.0551
vertex -8.98716454415191 -22.07833844179 13.2508625
vertex -8.98716454415191 -22.07833844179 9.0551
endloop
endfacet
facet normal -0.530512306256327 0.0714866348729073 0.844657536487505
outer loop
vertex 47.2545439492623 -36.5896392898461 28.463875
vertex 40.5796740710318 7.44115372976145 20.545027955039
vertex 34.8713652589459 -34.9210035896727 20.545027955039
endloop
endfacet
facet normal -0.530512306256327 0.0714866348729073 0.844657536487505
outer loop
vertex 40.5796740710318 7.44115372976145 20.545027955039
vertex 47.2545439492623 -36.5896392898461 28.463875
vertex 52.9628527613482 5.77251802958808 28.463875
endloop
endfacet
facet normal -0.530512306256327 0.0714866348729073 0.844657536487505
outer loop
vertex 33.5891899750011 -44.4362055308425 20.545027955039
vertex 23.8930840832103 19.3680391461053 9.0551
vertex 15.6216967025245 -42.015082371203 9.0551
endloop
endfacet
facet normal -0.530512306256327 0.0714866348729073 0.844657536487505
outer loop
vertex 23.8930840832103 19.3680391461053 9.0551
vertex 33.5891899750011 -44.4362055308425 20.545027955039
vertex 34.8713652589459 -34.9210035896727 20.545027955039
endloop
endfacet
facet normal -0.530512306256327 0.0714866348729073 0.844657536487505
outer loop
vertex 23.8930840832103 19.3680391461053 9.0551
vertex 34.8713652589459 -34.9210035896727 20.545027955039
vertex 41.8605773556869 16.9469159864658 20.545027955039
endloop
endfacet
facet normal -0.530512306256327 0.0714866348729073 0.844657536487505
outer loop
vertex 41.8605773556869 16.9469159864658 20.545027955039
vertex 34.8713652589459 -34.9210035896727 20.545027955039
vertex 40.5796740710318 7.44115372976145 20.545027955039
endloop
endfacet
facet normal -0.133543232506847 -0.99104298849829 -0.0
outer loop
vertex 13.9714647170152 20.2240240171642 13.2508625
vertex -9.99274757926422 23.4532062137657 9.0551
vertex 13.9714647170152 20.2240240171642 9.0551
endloop
endfacet
facet normal -0.133543232506847 -0.99104298849829 -0.0
outer loop
vertex -9.99274757926422 23.4532062137657 9.0551
vertex 13.9714647170152 20.2240240171642 13.2508625
vertex -9.99274757926422 23.4532062137657 13.2508625
endloop
endfacet
facet normal 0.99104298849829 -0.133543232506847 0.0
outer loop
vertex 20.2248252247067 66.631086130042 9.0551
vertex 13.9714647170152 20.2240240171642 13.2508625
vertex 13.9714647170152 20.2240240171642 9.0551
endloop
endfacet
facet normal 0.99104298849829 -0.133543232506847 0.0
outer loop
vertex 13.9714647170152 20.2240240171642 13.2508625
vertex 20.2248252247067 66.631086130042 9.0551
vertex 20.2248252247067 66.631086130042 13.2508625
endloop
endfacet
facet normal -0.99104298849829 0.133543232506847 0.0
outer loop
vertex -103.731416992256 40.454016276173 16.6100125
vertex -108.822846615136 2.66980561668491 0.0
vertex -108.822846615136 2.66980561668491 16.6100125
endloop
endfacet
facet normal -0.99104298849829 0.133543232506847 0.0
outer loop
vertex -108.822846615136 2.66980561668491 0.0
vertex -103.731416992256 40.454016276173 16.6100125
vertex -103.731416992256 40.454016276173 0.0
endloop
endfacet
facet normal 0.133543232506847 0.99104298849829 1.63275445890329e-17
outer loop
vertex -103.731416992256 40.454016276173 16.6100125
vertex -27.4809215346176 30.179247409596 0.0
vertex -103.731416992256 40.454016276173 0.0
endloop
endfacet
facet normal 0.133543232506847 0.99104298849829 1.63275445890329e-17
outer loop
vertex -27.4809215346176 30.179247409596 0.0
vertex -103.731416992256 40.454016276173 16.6100125
vertex -27.4809215346176 30.179247409596 9.0551
endloop
endfacet
facet normal 0.133543232506847 0.99104298849829 1.63275445890329e-17
outer loop
vertex -27.4809215346176 30.179247409596 9.0551
vertex -103.731416992256 40.454016276173 16.6100125
vertex -27.4809215346176 30.179247409596 16.6100125
endloop
endfacet
facet normal 0.99104298849829 -0.133543232506847 -0.0
outer loop
vertex -27.4809215346176 30.179247409596 0.0
vertex -31.9771316429264 -3.18775606192847 9.0551
vertex -31.9771316429264 -3.18775606192847 0.0
endloop
endfacet
facet normal 0.99104298849829 -0.133543232506847 -0.0
outer loop
vertex -31.9771316429264 -3.18775606192847 9.0551
vertex -27.4809215346176 30.179247409596 0.0
vertex -27.4809215346176 30.179247409596 9.0551
endloop
endfacet
facet normal 0.0 0.0 1.0
outer loop
vertex 13.9714647170152 20.2240240171642 13.2508625
vertex -3.73938707157277 69.8602683266436 13.2508625
vertex -9.99274757926422 23.4532062137657 13.2508625
endloop
endfacet
facet normal 0.0 0.0 1.0
outer loop
vertex -3.73938707157277 69.8602683266436 13.2508625
vertex 13.9714647170152 20.2240240171642 13.2508625
vertex 20.2248252247067 66.631086130042 13.2508625
endloop
endfacet
facet normal -0.99104298849829 0.133543232506847 0.0
outer loop
vertex -3.73938707157277 69.8602683266436 13.2508625
vertex -9.99274757926422 23.4532062137657 9.0551
vertex -9.99274757926422 23.4532062137657 13.2508625
endloop
endfacet
facet normal -0.99104298849829 0.133543232506847 0.0
outer loop
vertex -9.99274757926422 23.4532062137657 9.0551
vertex -3.73938707157277 69.8602683266436 13.2508625
vertex -3.73938707157277 69.8602683266436 9.0551
endloop
endfacet
facet normal 0.99104298849829 -0.133543232506847 -1.61607434252444e-16
outer loop
vertex -31.9771316429264 -3.18775606192847 0.0
vertex -32.5723511574976 -7.60496324989211 16.6100125
vertex -32.5723511574976 -7.60496324989211 0.0
endloop
endfacet
facet normal 0.99104298849829 -0.133543232506847 -1.61607434252444e-16
outer loop
vertex -32.5723511574976 -7.60496324989211 16.6100125
vertex -31.9771316429264 -3.18775606192847 0.0
vertex -31.9771316429264 -3.18775606192847 9.0551
endloop
endfacet
facet normal 0.99104298849829 -0.133543232506847 -1.61607434252444e-16
outer loop
vertex -32.5723511574976 -7.60496324989211 16.6100125
vertex -31.9771316429264 -3.18775606192847 9.0551
vertex -27.4809215346176 30.179247409596 16.6100125
endloop
endfacet
facet normal 0.99104298849829 -0.133543232506847 -1.61607434252444e-16
outer loop
vertex -27.4809215346176 30.179247409596 16.6100125
vertex -31.9771316429264 -3.18775606192847 9.0551
vertex -27.4809215346176 30.179247409596 9.0551
endloop
endfacet
facet normal -0.133543232506847 -0.99104298849829 -0.0
outer loop
vertex -32.5723511574976 -7.60496324989211 16.6100125
vertex -108.822846615136 2.66980561668491 0.0
vertex -32.5723511574976 -7.60496324989211 0.0
endloop
endfacet
facet normal -0.133543232506847 -0.99104298849829 -0.0
outer loop
vertex -108.822846615136 2.66980561668491 0.0
vertex -32.5723511574976 -7.60496324989211 16.6100125
vertex -108.822846615136 2.66980561668491 16.6100125
endloop
endfacet
facet normal -0.133543232506847 -0.99104298849829 -0.0
outer loop
vertex 96.3940386863929 -58.2397313847024 13.20165
vertex 45.2655610600477 -51.3501592323154 0.0
vertex 96.3940386863929 -58.2397313847024 0.0
endloop
endfacet
facet normal -0.133543232506847 -0.99104298849829 -0.0
outer loop
vertex 45.2655610600477 -51.3501592323154 0.0
vertex 96.3940386863929 -58.2397313847024 13.20165
vertex 45.2655610600477 -51.3501592323154 13.20165
endloop
endfacet
facet normal 0.0 0.0 -1.0
outer loop
vertex -103.731416992256 40.454016276173 0.0
vertex -32.5723511574976 -7.60496324989211 0.0
vertex -108.822846615136 2.66980561668491 0.0
endloop
endfacet
facet normal 0.0 0.0 -1.0
outer loop
vertex -32.5723511574976 -7.60496324989211 0.0
vertex -103.731416992256 40.454016276173 0.0
vertex -31.9771316429264 -3.18775606192847 0.0
endloop
endfacet
facet normal 0.0 0.0 -1.0
outer loop
vertex -31.9771316429264 -3.18775606192847 0.0
vertex -103.731416992256 40.454016276173 0.0
vertex -27.4809215346176 30.179247409596 0.0
endloop
endfacet
facet normal 0.0 0.0 1.0
outer loop
vertex -32.5723511574976 -7.60496324989211 16.6100125
vertex -103.731416992256 40.454016276173 16.6100125
vertex -108.822846615136 2.66980561668491 16.6100125
endloop
endfacet
facet normal 0.0 0.0 1.0
outer loop
vertex -103.731416992256 40.454016276173 16.6100125
vertex -32.5723511574976 -7.60496324989211 16.6100125
vertex -27.4809215346176 30.179247409596 16.6100125
endloop
endfacet
facet normal 0.133543232506846 0.99104298849829 0.0
outer loop
vertex 96.2393371356784 -25.1279141113865 19.2897125
vertex 100.773532240581 -25.738897770171 0.0
vertex 96.2393371356784 -25.1279141113865 0.0
endloop
endfacet
facet normal 0.133543232506846 0.99104298849829 0.0
outer loop
vertex 100.773532240581 -25.738897770171 0.0
vertex 96.2393371356784 -25.1279141113865 19.2897125
vertex 100.773532240581 -25.738897770171 19.2897125
endloop
endfacet
facet normal 0.99104298849829 -0.133543232506847 8.21220052764669e-18
outer loop
vertex 100.773532240581 -25.738897770171 0.0
vertex 98.3830215756074 -43.479211442233 13.20165
vertex 98.3830215756074 -43.479211442233 0.0
endloop
endfacet
facet normal 0.99104298849829 -0.133543232506847 8.21220052764669e-18
outer loop
vertex 98.3830215756074 -43.479211442233 13.20165
vertex 100.773532240581 -25.738897770171 0.0
vertex 98.3830215756074 -43.479211442233 19.2897125
endloop
endfacet
facet normal 0.99104298849829 -0.133543232506847 8.21220052764669e-18
outer loop
vertex 98.3830215756074 -43.479211442233 19.2897125
vertex 100.773532240581 -25.738897770171 0.0
vertex 100.773532240581 -25.738897770171 19.2897125
endloop
endfacet
facet normal -0.133543232506846 -0.99104298849829 -6.89214746651453e-19
outer loop
vertex 98.3830215756074 -43.479211442233 19.2897125
vertex 85.0085619688143 -41.6770004487121 13.20165
vertex 98.3830215756074 -43.479211442233 13.20165
endloop
endfacet
facet normal -0.133543232506846 -0.99104298849829 -6.89214746651453e-19
outer loop
vertex 85.0085619688143 -41.6770004487121 13.20165
vertex 98.3830215756074 -43.479211442233 19.2897125
vertex 85.0085619688143 -41.6770004487121 19.2897125
endloop
endfacet
facet normal -0.99104298849829 0.133543232506846 -2.86299460553441e-19
outer loop
vertex 85.9453894456252 -34.724672839911 19.2897125
vertex 85.0085619688143 -41.6770004487121 13.20165
vertex 85.0085619688143 -41.6770004487121 19.2897125
endloop
endfacet
facet normal -0.99104298849829 0.133543232506846 -2.86299460553441e-19
outer loop
vertex 85.0085619688143 -41.6770004487121 13.20165
vertex 85.9453894456252 -34.724672839911 19.2897125
vertex 85.8406615041125 -35.501873527566 13.20165
endloop
endfacet
facet normal -0.99104298849829 0.133543232506846 -2.86299460553441e-19
outer loop
vertex 85.8406615041125 -35.501873527566 13.20165
vertex 85.9453894456252 -34.724672839911 19.2897125
vertex 85.9453894456252 -34.724672839911 13.20165
endloop
endfacet
facet normal 0.99104298849829 -0.133543232506846 -8.64138484968449e-19
outer loop
vertex 67.6755620311055 -33.0541228945591 13.20165
vertex 67.1807543074403 -36.7261601516177 19.2897125
vertex 67.1807543074403 -36.7261601516177 13.20165
endloop
endfacet
facet normal 0.99104298849829 -0.133543232506846 -8.64138484968449e-19
outer loop
vertex 67.1807543074403 -36.7261601516177 19.2897125
vertex 67.6755620311055 -33.0541228945591 13.20165
vertex 67.7802899726182 -32.276922206904 19.2897125
endloop
endfacet
facet normal 0.99104298849829 -0.133543232506846 -8.64138484968449e-19
outer loop
vertex 67.7802899726182 -32.276922206904 19.2897125
vertex 67.6755620311055 -33.0541228945591 13.20165
vertex 67.7802899726182 -32.276922206904 13.20165
endloop
endfacet
facet normal -7.79609423714063e-18 5.16067280250408e-18 1.0
outer loop
vertex -35.2041979601335 -53.2175203687386 9.0551
vertex -12.6564584949647 -49.3086815631138 9.0551
vertex -29.4303811846317 -10.369219299334 9.0551
endloop
endfacet
facet normal -7.79609423714063e-18 5.16067280250408e-18 1.0
outer loop
vertex -12.6564584949647 -49.3086815631138 9.0551
vertex -35.2041979601335 -53.2175203687386 9.0551
vertex 13.2326681137197 -59.7443973489239 9.0551
endloop
endfacet
facet normal -7.79609423714063e-18 5.16067280250408e-18 1.0
outer loop
vertex -29.4303811846317 -10.369219299334 9.0551
vertex -12.6564584949647 -49.3086815631138 9.0551
vertex -26.1500908328891 -10.8112390524796 9.0551
endloop
endfacet
facet normal -7.79609423714063e-18 5.16067280250408e-18 1.0
outer loop
vertex -26.1500908328891 -10.8112390524796 9.0551
vertex -12.6564584949647 -49.3086815631138 9.0551
vertex -25.245063338319 -4.09490355531463 9.0551
endloop
endfacet
facet normal -7.79609423714063e-18 5.16067280250408e-18 1.0
outer loop
vertex -25.245063338319 -4.09490355531463 9.0551
vertex -12.6564584949647 -49.3086815631138 9.0551
vertex -18.5386711478912 96.5409370347665 9.0551
endloop
endfacet
facet normal -7.79609423714063e-18 5.16067280250408e-18 1.0
outer loop
vertex -12.6564584949647 -49.3086815631138 9.0551
vertex 13.2326681137197 -59.7443973489239 9.0551
vertex 7.32735351838499 -52.0015040592557 9.0551
endloop
endfacet
facet normal -7.79609423714063e-18 5.16067280250408e-18 1.0
outer loop
vertex 7.32735351838499 -52.0015040592557 9.0551
vertex 13.2326681137197 -59.7443973489239 9.0551
vertex 10.9966474691977 -24.7711609379318 9.0551
endloop
endfacet
facet normal -7.79609423714063e-18 5.16067280250408e-18 1.0
outer loop
vertex -8.98716454415191 -22.07833844179 9.0551
vertex -9.99274757926422 23.4532062137657 9.0551
vertex -12.6564584949647 -49.3086815631138 9.0551
endloop
endfacet
facet normal -7.79609423714063e-18 5.16067280250408e-18 1.0
outer loop
vertex -9.99274757926422 23.4532062137657 9.0551
vertex -8.98716454415191 -22.07833844179 9.0551
vertex 13.9714647170152 20.2240240171642 9.0551
endloop
endfacet
facet normal -7.79609423714063e-18 5.16067280250408e-18 1.0
outer loop
vertex 13.9714647170152 20.2240240171642 9.0551
vertex -8.98716454415191 -22.07833844179 9.0551
vertex 10.9966474691977 -24.7711609379318 9.0551
endloop
endfacet
facet normal -7.79609423714063e-18 5.16067280250408e-18 1.0
outer loop
vertex 13.9714647170152 20.2240240171642 9.0551
vertex 10.9966474691977 -24.7711609379318 9.0551
vertex 13.2326681137197 -59.7443973489239 9.0551
endloop
endfacet
facet normal -7.79609423714063e-18 5.16067280250408e-18 1.0
outer loop
vertex 13.9714647170152 20.2240240171642 9.0551
vertex 13.2326681137197 -59.7443973489239 9.0551
vertex 14.636957252471 -49.3229714282026 9.0551
endloop
endfacet
facet normal -7.79609423714063e-18 5.16067280250408e-18 1.0
outer loop
vertex 13.9714647170152 20.2240240171642 9.0551
vertex 14.636957252471 -49.3229714282026 9.0551
vertex 20.2248252247067 66.631086130042 9.0551
endloop
endfacet
facet normal -7.79609423714063e-18 5.16067280250408e-18 1.0
outer loop
vertex 20.2248252247067 66.631086130042 9.0551
vertex 14.636957252471 -49.3229714282026 9.0551
vertex 15.6216967025245 -42.015082371203 9.0551
endloop
endfacet
facet normal -7.79609423714063e-18 5.16067280250408e-18 1.0
outer loop
vertex 20.2248252247067 66.631086130042 9.0551
vertex 15.6216967025245 -42.015082371203 9.0551
vertex 23.8930840832103 19.3680391461053 9.0551
endloop
endfacet
facet normal -7.79609423714063e-18 5.16067280250408e-18 1.0
outer loop
vertex -18.5386711478912 96.5409370347665 9.0551
vertex -3.73938707157277 69.8602683266436 9.0551
vertex 24.0626248446676 90.8004042406767 9.0551
endloop
endfacet
facet normal -7.79609423714063e-18 5.16067280250408e-18 1.0
outer loop
vertex -3.73938707157277 69.8602683266436 9.0551
vertex -18.5386711478912 96.5409370347665 9.0551
vertex -9.99274757926422 23.4532062137657 9.0551
endloop
endfacet
facet normal -7.79609423714063e-18 5.16067280250408e-18 1.0
outer loop
vertex -9.99274757926422 23.4532062137657 9.0551
vertex -18.5386711478912 96.5409370347665 9.0551
vertex -12.6564584949647 -49.3086815631138 9.0551
endloop
endfacet
facet normal -7.79609423714063e-18 5.16067280250408e-18 1.0
outer loop
vertex 24.0626248446676 90.8004042406767 9.0551
vertex -3.73938707157277 69.8602683266436 9.0551
vertex 20.2248252247067 66.631086130042 9.0551
endloop
endfacet
facet normal -7.79609423714063e-18 5.16067280250408e-18 1.0
outer loop
vertex 24.0626248446676 90.8004042406767 9.0551
vertex 20.2248252247067 66.631086130042 9.0551
vertex 23.8930840832103 19.3680391461053 9.0551
endloop
endfacet
facet normal -7.79609423714063e-18 5.16067280250408e-18 1.0
outer loop
vertex 24.0626248446676 90.8004042406767 9.0551
vertex 23.8930840832103 19.3680391461053 9.0551
vertex 24.8598929017612 26.5428624812681 9.0551
endloop
endfacet
facet normal -7.79609423714063e-18 5.16067280250408e-18 1.0
outer loop
vertex 24.0626248446676 90.8004042406767 9.0551
vertex 24.8598929017612 26.5428624812681 9.0551
vertex 27.9412189834196 49.4098138885428 9.0551
endloop
endfacet
facet normal -7.79609423714063e-18 5.16067280250408e-18 1.0
outer loop
vertex 24.0626248446676 90.8004042406767 9.0551
vertex 27.9412189834196 49.4098138885428 9.0551
vertex 31.9893538836289 79.4515886309803 9.0551
endloop
endfacet
facet normal -7.79609423714063e-18 5.16067280250408e-18 1.0
outer loop
vertex -25.245063338319 -4.09490355531463 9.0551
vertex -27.4809215346176 30.179247409596 9.0551
vertex -31.9771316429264 -3.18775606192847 9.0551
endloop
endfacet
facet normal -7.79609423714063e-18 5.16067280250408e-18 1.0
outer loop
vertex -27.4809215346176 30.179247409596 9.0551
vertex -25.245063338319 -4.09490355531463 9.0551
vertex -18.5386711478912 96.5409370347665 9.0551
endloop
endfacet
facet normal -0.133543232506847 -0.99104298849829 -0.0
outer loop
vertex 13.2326681137197 -59.7443973489239 9.0551
vertex -35.2041979601335 -53.2175203687386 0.0
vertex 13.2326681137197 -59.7443973489239 0.0
endloop
endfacet
facet normal -0.133543232506847 -0.99104298849829 -0.0
outer loop
vertex -35.2041979601335 -53.2175203687386 0.0
vertex 13.2326681137197 -59.7443973489239 9.0551
vertex -35.2041979601335 -53.2175203687386 9.0551
endloop
endfacet
facet normal -0.99104298849829 0.133543232506847 0.0
outer loop
vertex -29.4303811846317 -10.369219299334 9.0551
vertex -35.2041979601335 -53.2175203687386 0.0
vertex -35.2041979601335 -53.2175203687386 9.0551
endloop
endfacet
facet normal -0.99104298849829 0.133543232506847 0.0
outer loop
vertex -35.2041979601335 -53.2175203687386 0.0
vertex -29.4303811846317 -10.369219299334 9.0551
vertex -29.4303811846317 -10.369219299334 0.0
endloop
endfacet
facet normal 0.133543232506847 0.99104298849829 0.0
outer loop
vertex -29.4303811846317 -10.369219299334 9.0551
vertex -26.1500908328891 -10.8112390524796 0.0
vertex -29.4303811846317 -10.369219299334 0.0
endloop
endfacet
facet normal 0.133543232506847 0.99104298849829 0.0
outer loop
vertex -26.1500908328891 -10.8112390524796 0.0
vertex -29.4303811846317 -10.369219299334 9.0551
vertex -26.1500908328891 -10.8112390524796 9.0551
endloop
endfacet
facet normal -0.99104298849829 0.133543232506847 0.0
outer loop
vertex -25.245063338319 -4.09490355531463 9.0551
vertex -26.1500908328891 -10.8112390524796 0.0
vertex -26.1500908328891 -10.8112390524796 9.0551
endloop
endfacet
facet normal -0.99104298849829 0.133543232506847 0.0
outer loop
vertex -26.1500908328891 -10.8112390524796 0.0
vertex -25.245063338319 -4.09490355531463 9.0551
vertex -25.245063338319 -4.09490355531463 0.0
endloop
endfacet
facet normal -0.133543232506847 -0.99104298849829 0.0
outer loop
vertex -25.245063338319 -4.09490355531463 9.0551
vertex -31.9771316429264 -3.18775606192847 0.0
vertex -25.245063338319 -4.09490355531463 0.0
endloop
endfacet
facet normal -0.133543232506847 -0.99104298849829 0.0
outer loop
vertex -31.9771316429264 -3.18775606192847 0.0
vertex -25.245063338319 -4.09490355531463 9.0551
vertex -31.9771316429264 -3.18775606192847 9.0551
endloop
endfacet
facet normal -0.99104298849829 0.133543232506847 0.0
outer loop
vertex -18.5386711478912 96.5409370347665 9.0551
vertex -27.4809215346176 30.179247409596 0.0
vertex -27.4809215346176 30.179247409596 9.0551
endloop
endfacet
facet normal -0.99104298849829 0.133543232506847 0.0
outer loop
vertex -27.4809215346176 30.179247409596 0.0
vertex -18.5386711478912 96.5409370347665 9.0551
vertex -18.5386711478912 96.5409370347665 0.0
endloop
endfacet
facet normal 0.133543232506847 0.99104298849829 0.0
outer loop
vertex -18.5386711478912 96.5409370347665 9.0551
vertex 24.0626248446676 90.8004042406767 0.0
vertex -18.5386711478912 96.5409370347665 0.0
endloop
endfacet
facet normal 0.133543232506847 0.99104298849829 0.0
outer loop
vertex 24.0626248446676 90.8004042406767 0.0
vertex -18.5386711478912 96.5409370347665 9.0551
vertex 24.0626248446676 90.8004042406767 9.0551
endloop
endfacet
facet normal 0.819823420479402 0.572616415441833 0.0
outer loop
vertex 24.0626248446676 90.8004042406767 0.0
vertex 31.9893538836289 79.4515886309803 9.0551
vertex 31.9893538836289 79.4515886309803 0.0
endloop
endfacet
facet normal 0.819823420479402 0.572616415441833 0.0
outer loop
vertex 31.9893538836289 79.4515886309803 9.0551
vertex 24.0626248446676 90.8004042406767 0.0
vertex 24.0626248446676 90.8004042406767 9.0551
endloop
endfacet
facet normal 0.99104298849829 -0.133543232506847 -1.40478218874374e-16
outer loop
vertex 23.8930840832103 19.3680391461053 0.0
vertex 15.6216967025245 -42.015082371203 9.0551
vertex 15.6216967025245 -42.015082371203 0.0
endloop
endfacet
facet normal 0.99104298849829 -0.133543232506847 -1.40478218874374e-16
outer loop
vertex 15.6216967025245 -42.015082371203 9.0551
vertex 23.8930840832103 19.3680391461053 0.0
vertex 23.8930840832103 19.3680391461053 7.81210615286457
endloop
endfacet
facet normal 0.99104298849829 -0.133543232506847 -1.40478218874374e-16
outer loop
vertex 23.8930840832103 19.3680391461053 9.0551
vertex 15.6216967025245 -42.015082371203 9.0551
vertex 23.8930840832103 19.3680391461053 7.81210615286457
endloop
endfacet
facet normal 0.99104298849829 -0.133543232506846 0.0
outer loop
vertex 14.636957252471 -49.3229714282026 0.0
vertex 13.2326681137197 -59.7443973489239 9.0551
vertex 13.2326681137197 -59.7443973489239 0.0
endloop
endfacet
facet normal 0.99104298849829 -0.133543232506846 0.0
outer loop
vertex 13.2326681137197 -59.7443973489239 9.0551
vertex 14.636957252471 -49.3229714282026 0.0
vertex 14.636957252471 -49.3229714282026 9.0551
endloop
endfacet
facet normal 0.0 0.0 -1.0
outer loop
vertex 85.8406615041125 -35.501873527566 0.0
vertex 85.0085619688143 -41.6770004487121 0.0
vertex 67.6755620311055 -33.0541228945591 0.0
endloop
endfacet
facet normal 0.0 0.0 -1.0
outer loop
vertex 45.9723686653175 -46.1048412310158 0.0
vertex 96.3940386863929 -58.2397313847024 0.0
vertex 45.2655610600477 -51.3501592323154 0.0
endloop
endfacet
facet normal 0.0 0.0 -1.0
outer loop
vertex 96.3940386863929 -58.2397313847024 0.0
vertex 45.9723686653175 -46.1048412310158 0.0
vertex 47.2545439492623 -36.5896392898461 0.0
endloop
endfacet
facet normal 0.0 0.0 -1.0
outer loop
vertex 96.3940386863929 -58.2397313847024 0.0
vertex 47.2545439492623 -36.5896392898461 0.0
vertex 66.8434624958074 -39.2292498157052 0.0
endloop
endfacet
facet normal 0.0 0.0 -1.0
outer loop
vertex 96.3940386863929 -58.2397313847024 0.0
vertex 66.8434624958074 -39.2292498157052 0.0
vertex 67.6755620311055 -33.0541228945591 0.0
endloop
endfacet
facet normal 0.0 0.0 -1.0
outer loop
vertex 96.3940386863929 -58.2397313847024 0.0
vertex 67.6755620311055 -33.0541228945591 0.0
vertex 85.0085619688143 -41.6770004487121 0.0
endloop
endfacet
facet normal 0.0 0.0 -1.0
outer loop
vertex 96.3940386863929 -58.2397313847024 0.0
vertex 85.0085619688143 -41.6770004487121 0.0
vertex 98.3830215756074 -43.479211442233 0.0
endloop
endfacet
facet normal -0.0 -0.0 1.0
outer loop
vertex 67.7802899726182 -32.276922206904 13.20165
vertex 85.8406615041125 -35.501873527566 13.20165
vertex 85.9453894456252 -34.724672839911 13.20165
endloop
endfacet
facet normal -0.0 -0.0 1.0
outer loop
vertex 85.8406615041125 -35.501873527566 13.20165
vertex 67.7802899726182 -32.276922206904 13.20165
vertex 85.0085619688143 -41.6770004487121 13.20165
endloop
endfacet
facet normal -0.0 -0.0 1.0
outer loop
vertex 96.3940386863929 -58.2397313847024 13.20165
vertex 45.9723686653175 -46.1048412310158 13.20165
vertex 45.2655610600477 -51.3501592323154 13.20165
endloop
endfacet
facet normal -0.0 -0.0 1.0
outer loop
vertex 45.9723686653175 -46.1048412310158 13.20165
vertex 96.3940386863929 -58.2397313847024 13.20165
vertex 47.2545439492623 -36.5896392898461 13.20165
endloop
endfacet
facet normal -0.0 -0.0 1.0
outer loop
vertex 47.2545439492623 -36.5896392898461 13.20165
vertex 96.3940386863929 -58.2397313847024 13.20165
vertex 47.5918357608952 -34.0865496257586 13.20165
endloop
endfacet
facet normal -0.0 -0.0 1.0
outer loop
vertex 47.5918357608952 -34.0865496257586 13.20165
vertex 96.3940386863929 -58.2397313847024 13.20165
vertex 67.1807543074403 -36.7261601516177 13.20165
endloop
endfacet
facet normal -0.0 -0.0 1.0
outer loop
vertex 67.1807543074403 -36.7261601516177 13.20165
vertex 96.3940386863929 -58.2397313847024 13.20165
vertex 67.6755620311055 -33.0541228945591 13.20165
endloop
endfacet
facet normal -0.0 -0.0 1.0
outer loop
vertex 67.6755620311055 -33.0541228945591 13.20165
vertex 96.3940386863929 -58.2397313847024 13.20165
vertex 67.7802899726182 -32.276922206904 13.20165
endloop
endfacet
facet normal -0.0 -0.0 1.0
outer loop
vertex 67.7802899726182 -32.276922206904 13.20165
vertex 96.3940386863929 -58.2397313847024 13.20165
vertex 85.0085619688143 -41.6770004487121 13.20165
endloop
endfacet
facet normal -0.0 -0.0 1.0
outer loop
vertex 85.0085619688143 -41.6770004487121 13.20165
vertex 96.3940386863929 -58.2397313847024 13.20165
vertex 98.3830215756074 -43.479211442233 13.20165
endloop
endfacet
facet normal -0.99104298849829 0.133543232506846 0.0
outer loop
vertex 85.8406615041125 -35.501873527566 13.20165
vertex 85.0085619688143 -41.6770004487121 0.0
vertex 85.0085619688143 -41.6770004487121 13.20165
endloop
endfacet
facet normal -0.99104298849829 0.133543232506846 0.0
outer loop
vertex 85.0085619688143 -41.6770004487121 0.0
vertex 85.8406615041125 -35.501873527566 13.20165
vertex 85.8406615041125 -35.501873527566 0.0
endloop
endfacet
facet normal -0.133543232506846 -0.99104298849829 0.0
outer loop
vertex 98.3830215756074 -43.479211442233 13.20165
vertex 85.0085619688143 -41.6770004487121 0.0
vertex 98.3830215756074 -43.479211442233 0.0
endloop
endfacet
facet normal -0.133543232506846 -0.99104298849829 0.0
outer loop
vertex 85.0085619688143 -41.6770004487121 0.0
vertex 98.3830215756074 -43.479211442233 13.20165
vertex 85.0085619688143 -41.6770004487121 13.20165
endloop
endfacet
facet normal 0.99104298849829 -0.133543232506847 -0.0
outer loop
vertex 98.3830215756074 -43.479211442233 0.0
vertex 96.3940386863929 -58.2397313847024 13.20165
vertex 96.3940386863929 -58.2397313847024 0.0
endloop
endfacet
facet normal 0.99104298849829 -0.133543232506847 -0.0
outer loop
vertex 96.3940386863929 -58.2397313847024 13.20165
vertex 98.3830215756074 -43.479211442233 0.0
vertex 98.3830215756074 -43.479211442233 13.20165
endloop
endfacet
facet normal 0.99104298849829 -0.133543232506847 0.0
outer loop
vertex 97.255664568091 -17.585606223495 0.0
vertex 96.2393371356784 -25.1279141113865 19.2897125
vertex 96.2393371356784 -25.1279141113865 0.0
endloop
endfacet
facet normal 0.99104298849829 -0.133543232506847 0.0
outer loop
vertex 96.2393371356784 -25.1279141113865 19.2897125
vertex 97.255664568091 -17.585606223495 0.0
vertex 97.255664568091 -17.585606223495 19.2897125
endloop
endfacet
facet normal 0.133543232506847 0.99104298849829 1.42534308747901e-17
outer loop
vertex 90.0435066223652 0.775892820048812 19.2897125
vertex 91.2738121643617 0.610108912634 10.988675
vertex 90.0435066223652 0.775892820048812 10.988675
endloop
endfacet
facet normal 0.133543232506847 0.99104298849829 1.42534308747901e-17
outer loop
vertex 91.2738121643617 0.610108912634 10.988675
vertex 90.0435066223652 0.775892820048812 19.2897125
vertex 101.281450978479 -0.738422334252979 10.988675
endloop
endfacet
facet normal 0.133543232506847 0.99104298849829 1.42534308747901e-17
outer loop
vertex 101.281450978479 -0.738422334252979 10.988675
vertex 104.091330387693 -1.11705412279883 0.0
vertex 101.281450978479 -0.738422334252979 0.0
endloop
endfacet
facet normal 0.133543232506847 0.99104298849829 1.42534308747901e-17
outer loop
vertex 104.091330387693 -1.11705412279883 0.0
vertex 101.281450978479 -0.738422334252979 10.988675
vertex 104.091330387693 -1.11705412279883 19.2897125
endloop
endfacet
facet normal 0.133543232506847 0.99104298849829 1.42534308747901e-17
outer loop
vertex 104.091330387693 -1.11705412279883 19.2897125
vertex 101.281450978479 -0.738422334252979 10.988675
vertex 90.0435066223652 0.775892820048812 19.2897125
endloop
endfacet
facet normal 0.99104298849829 -0.133543232506848 0.0
outer loop
vertex 104.091330387693 -1.11705412279883 0.0
vertex 101.789859672994 -18.1965898822795 19.2897125
vertex 101.789859672994 -18.1965898822795 0.0
endloop
endfacet
facet normal 0.99104298849829 -0.133543232506848 0.0
outer loop
vertex 101.789859672994 -18.1965898822795 19.2897125
vertex 104.091330387693 -1.11705412279883 0.0
vertex 104.091330387693 -1.11705412279883 19.2897125
endloop
endfacet
facet normal -0.133543232506846 -0.99104298849829 -0.0
outer loop
vertex 101.789859672994 -18.1965898822795 19.2897125
vertex 97.255664568091 -17.585606223495 0.0
vertex 101.789859672994 -18.1965898822795 0.0
endloop
endfacet
facet normal -0.133543232506846 -0.99104298849829 -0.0
outer loop
vertex 97.255664568091 -17.585606223495 0.0
vertex 101.789859672994 -18.1965898822795 19.2897125
vertex 97.255664568091 -17.585606223495 19.2897125
endloop
endfacet
facet normal 0.0 0.0 -1.0
outer loop
vertex -27.4809215346176 30.179247409596 0.0
vertex -25.245063338319 -4.09490355531463 0.0
vertex -31.9771316429264 -3.18775606192847 0.0
endloop
endfacet
facet normal 0.0 0.0 -1.0
outer loop
vertex -25.245063338319 -4.09490355531463 0.0
vertex -27.4809215346176 30.179247409596 0.0
vertex -18.5386711478912 96.5409370347665 0.0
endloop
endfacet
facet normal 0.0 0.0 -1.0
outer loop
vertex -29.4303811846317 -10.369219299334 0.0
vertex 13.2326681137197 -59.7443973489239 0.0
vertex -35.2041979601335 -53.2175203687386 0.0
endloop
endfacet
facet normal 0.0 0.0 -1.0
outer loop
vertex 13.2326681137197 -59.7443973489239 0.0
vertex -29.4303811846317 -10.369219299334 0.0
vertex -26.1500908328891 -10.8112390524796 0.0
endloop
endfacet
facet normal 0.0 0.0 -1.0
outer loop
vertex 13.2326681137197 -59.7443973489239 0.0
vertex -26.1500908328891 -10.8112390524796 0.0
vertex -25.245063338319 -4.09490355531463 0.0
endloop
endfacet
facet normal 0.0 0.0 -1.0
outer loop
vertex 13.2326681137197 -59.7443973489239 0.0
vertex -25.245063338319 -4.09490355531463 0.0
vertex -18.5386711478912 96.5409370347665 0.0
endloop
endfacet
facet normal 0.0 0.0 -1.0
outer loop
vertex 13.2326681137197 -59.7443973489239 0.0
vertex -18.5386711478912 96.5409370347665 0.0
vertex 24.0626248446676 90.8004042406767 0.0
endloop
endfacet
facet normal 0.0 0.0 -1.0
outer loop
vertex 13.2326681137197 -59.7443973489239 0.0
vertex 24.0626248446676 90.8004042406767 0.0
vertex 14.636957252471 -49.3229714282026 0.0
endloop
endfacet
facet normal 0.0 0.0 -1.0
outer loop
vertex 14.636957252471 -49.3229714282026 0.0
vertex 24.0626248446676 90.8004042406767 0.0
vertex 15.6216967025245 -42.015082371203 0.0
endloop
endfacet
facet normal 0.0 0.0 -1.0
outer loop
vertex 15.6216967025245 -42.015082371203 0.0
vertex 24.0626248446676 90.8004042406767 0.0
vertex 23.8930840832103 19.3680391461053 0.0
endloop
endfacet
facet normal 0.0 0.0 -1.0
outer loop
vertex 23.8930840832103 19.3680391461053 0.0
vertex 24.0626248446676 90.8004042406767 0.0
vertex 24.8598929017612 26.5428624812681 0.0
endloop
endfacet
facet normal 0.0 0.0 -1.0
outer loop
vertex 24.8598929017612 26.5428624812681 0.0
vertex 24.0626248446676 90.8004042406767 0.0
vertex 27.9412189834196 49.4098138885428 0.0
endloop
endfacet
facet normal 0.0 0.0 -1.0
outer loop
vertex 27.9412189834196 49.4098138885428 0.0
vertex 24.0626248446676 90.8004042406767 0.0
vertex 31.9893538836289 79.4515886309803 0.0
endloop
endfacet
facet normal 0.0 0.0 -1.0
outer loop
vertex 52.9628527613482 5.77251802958808 0.0
vertex 66.8434624958074 -39.2292498157052 0.0
vertex 47.2545439492623 -36.5896392898461 0.0
endloop
endfacet
facet normal 0.0 0.0 -1.0
outer loop
vertex 66.8434624958074 -39.2292498157052 0.0
vertex 52.9628527613482 5.77251802958808 0.0
vertex 71.3148239366517 -2.07621471348801 0.0
endloop
endfacet
facet normal 0.0 0.0 -1.0
outer loop
vertex 71.3148239366517 -2.07621471348801 0.0
vertex 52.9628527613482 5.77251802958808 0.0
vertex 72.0262955393168 3.20371546418491 0.0
endloop
endfacet
facet normal 0.0 0.0 -1.0
outer loop
vertex 66.8434624958074 -39.2292498157052 0.0
vertex 71.3148239366517 -2.07621471348801 0.0
vertex 67.6755620311055 -33.0541228945591 0.0
endloop
endfacet
facet normal 0.0 0.0 -1.0
outer loop
vertex 71.3148239366517 -2.07621471348801 0.0
vertex 85.8406615041125 -35.501873527566 0.0
vertex 67.6755620311055 -33.0541228945591 0.0
endloop
endfacet
facet normal 0.0 0.0 -1.0
outer loop
vertex 85.8406615041125 -35.501873527566 0.0
vertex 71.3148239366517 -2.07621471348801 0.0
vertex 90.5623405616966 -4.66982126503892 0.0
endloop
endfacet
facet normal 0.0 0.0 -1.0
outer loop
vertex 91.2738121643617 0.610108912634 0.0
vertex 97.255664568091 -17.585606223495 0.0
vertex 96.2393371356784 -25.1279141113865 0.0
endloop
endfacet
facet normal 0.0 0.0 -1.0
outer loop
vertex 97.255664568091 -17.585606223495 0.0
vertex 91.2738121643617 0.610108912634 0.0
vertex 101.281450978479 -0.738422334252979 0.0
endloop
endfacet
facet normal 0.0 0.0 -1.0
outer loop
vertex 97.255664568091 -17.585606223495 0.0
vertex 101.281450978479 -0.738422334252979 0.0
vertex 101.789859672994 -18.1965898822795 0.0
endloop
endfacet
facet normal 0.0 0.0 -1.0
outer loop
vertex 101.789859672994 -18.1965898822795 0.0
vertex 101.281450978479 -0.738422334252979 0.0
vertex 104.091330387693 -1.11705412279883 0.0
endloop
endfacet
facet normal 0.0 0.0 -1.0
outer loop
vertex 85.8406615041125 -35.501873527566 0.0
vertex 98.3830215756074 -43.479211442233 0.0
vertex 85.0085619688143 -41.6770004487121 0.0
endloop
endfacet
facet normal 0.0 0.0 -1.0
outer loop
vertex 98.3830215756074 -43.479211442233 0.0
vertex 85.8406615041125 -35.501873527566 0.0
vertex 90.5623405616966 -4.66982126503892 0.0
endloop
endfacet
facet normal 0.0 0.0 -1.0
outer loop
vertex 98.3830215756074 -43.479211442233 0.0
vertex 90.5623405616966 -4.66982126503892 0.0
vertex 91.2738121643617 0.610108912634 0.0
endloop
endfacet
facet normal 0.0 0.0 -1.0
outer loop
vertex 98.3830215756074 -43.479211442233 0.0
vertex 91.2738121643617 0.610108912634 0.0
vertex 96.2393371356784 -25.1279141113865 0.0
endloop
endfacet
facet normal 0.0 0.0 -1.0
outer loop
vertex 98.3830215756074 -43.479211442233 0.0
vertex 96.2393371356784 -25.1279141113865 0.0
vertex 100.773532240581 -25.738897770171 0.0
endloop
endfacet
endsolid Fourth Street Live
