solid Galssworks
facet normal 0.146101950011388 0.989269538701597 8.84916946332616e-15
outer loop
vertex -7.94763910076277 -15.421712074143 39.9633047011465
vertex 2.04921599878074 -16.8981145780971 38.4973950320923
vertex -14.6716739841061 -14.4286615758021 38.4973950320923
endloop
endfacet
facet normal 0.146101950011388 0.989269538701597 8.84916946332616e-15
outer loop
vertex 2.04921599878074 -16.8981145780971 38.4973950320923
vertex -7.94763910076277 -15.421712074143 39.9633047011465
vertex -4.10803985393011 -15.9887698023743 39.8487241354655
endloop
endfacet
facet normal 0.146101950011388 0.989269538701597 8.84916946332616e-15
outer loop
vertex -4.10803985393011 -15.9887698023743 39.8487241354655
vertex -7.94763910076277 -15.421712074143 39.9633047011465
vertex -4.10803985393018 -15.9887698023743 40.5271260286351
endloop
endfacet
facet normal 0.146101950011388 0.989269538701597 8.84916946332616e-15
outer loop
vertex -4.10803985393018 -15.9887698023743 40.5271260286351
vertex -7.94763910076277 -15.421712074143 39.9633047011465
vertex -7.94763910076284 -15.421712074143 40.5271260286351
endloop
endfacet
facet normal 0.146101950011388 0.989269538701597 8.84916946332616e-15
outer loop
vertex -15.8338183746958 -14.2570283100263 38.4973950320923
vertex 3.57570836047424 -17.1235571920622 36.7955950320923
vertex -15.8338183746958 -14.2570283100263 36.7955950320923
endloop
endfacet
facet normal 0.146101950011388 0.989269538701597 8.84916946332616e-15
outer loop
vertex 3.57570836047424 -17.1235571920622 36.7955950320923
vertex -15.8338183746958 -14.2570283100263 38.4973950320923
vertex -14.6716739841061 -14.4286615758021 38.4973950320923
endloop
endfacet
facet normal 0.146101950011388 0.989269538701597 8.84916946332616e-15
outer loop
vertex 3.57570836047424 -17.1235571920622 36.7955950320923
vertex -14.6716739841061 -14.4286615758021 38.4973950320923
vertex 3.57570836047423 -17.1235571920622 38.4973950320923
endloop
endfacet
facet normal 0.146101950011388 0.989269538701597 8.84916946332616e-15
outer loop
vertex 3.57570836047423 -17.1235571920622 38.4973950320923
vertex -14.6716739841061 -14.4286615758021 38.4973950320923
vertex 2.04921599878074 -16.8981145780971 38.4973950320923
endloop
endfacet
facet normal -6.84021747332654e-16 -2.46077623886316e-15 1.0
outer loop
vertex 21.5562130292066 -20.6455869908001 36.7955950320925
vertex 3.57570836047424 -17.1235571920622 36.7955950320923
vertex 3.45046246382697 -17.9716085041142 36.7955950320925
endloop
endfacet
facet normal -6.84021747332654e-16 -2.46077623886316e-15 1.0
outer loop
vertex 3.57570836047424 -17.1235571920622 36.7955950320923
vertex 21.5562130292066 -20.6455869908001 36.7955950320925
vertex 19.8575569185738 7.49073324791844 36.7955950320925
endloop
endfacet
facet normal -6.84021747332654e-16 -2.46077623886316e-15 1.0
outer loop
vertex 19.8575569185738 7.49073324791844 36.7955950320925
vertex 21.5562130292066 -20.6455869908001 36.7955950320925
vertex 20.5562059850897 12.2213493669545 36.7955950320925
endloop
endfacet
facet normal -6.84021747332654e-16 -2.46077623886316e-15 1.0
outer loop
vertex 20.5562059850897 12.2213493669545 36.7955950320925
vertex 21.5562130292066 -20.6455869908001 36.7955950320925
vertex 26.2852637376184 11.3752437540485 36.7955950320925
endloop
endfacet
facet normal -6.84021747332654e-16 -2.46077623886316e-15 1.0
outer loop
vertex -15.9590642713431 -15.1050796220782 36.7955950320925
vertex -30.2766178454609 19.7286811867297 36.7955950320925
vertex -35.0056685538727 -12.292149558119 36.7955950320925
endloop
endfacet
facet normal -6.84021747332654e-16 -2.46077623886316e-15 1.0
outer loop
vertex -30.2766178454609 19.7286811867297 36.7955950320925
vertex -15.9590642713431 -15.1050796220782 36.7955950320925
vertex -25.2462091594481 14.1519594547877 36.7955950320925
endloop
endfacet
facet normal -6.84021747332654e-16 -2.46077623886316e-15 1.0
outer loop
vertex -25.2462091594481 14.1519594547877 36.7955950320925
vertex -15.9590642713431 -15.1050796220782 36.7955950320925
vertex -15.8338183746958 -14.2570283100263 36.7955950320923
endloop
endfacet
facet normal -6.84021747332654e-16 -2.46077623886316e-15 1.0
outer loop
vertex -25.2462091594481 14.1519594547877 36.7955950320925
vertex -15.8338183746958 -14.2570283100263 36.7955950320923
vertex 19.8575569185738 7.49073324791844 36.7955950320925
endloop
endfacet
facet normal -6.84021747332654e-16 -2.46077623886316e-15 1.0
outer loop
vertex 19.8575569185738 7.49073324791844 36.7955950320925
vertex -15.8338183746958 -14.2570283100263 36.7955950320923
vertex 3.57570836047424 -17.1235571920622 36.7955950320923
endloop
endfacet
facet normal -6.84021747332654e-16 -2.46077623886316e-15 1.0
outer loop
vertex -24.5475600929322 18.8825755738237 36.7955950320925
vertex -30.2766178454609 19.7286811867297 36.7955950320925
vertex -25.2462091594481 14.1519594547877 36.7955950320925
endloop
endfacet
facet normal 0.989269538701599 -0.146101950011371 9.56216378183505e-18
outer loop
vertex 48.8460179222926 -24.6759281206232 4.91030023035206
vertex 48.7653039000088 -25.2224500772789 4.97380023035206
vertex 48.7653039000088 -25.2224500772789 4.91030023035206
endloop
endfacet
facet normal 0.989269538701599 -0.146101950011371 9.56216378183505e-18
outer loop
vertex 48.7653039000088 -25.2224500772789 4.97380023035206
vertex 48.8460179222926 -24.6759281206232 4.91030023035206
vertex 48.8460179222926 -24.6759281206232 6.11045023035206
endloop
endfacet
facet normal 0.989269538701599 -0.146101950011371 9.56216378183505e-18
outer loop
vertex 48.8460179222926 -24.6759281206232 6.11045023035206
vertex 48.8460179222926 -24.6759281206232 4.91030023035206
vertex 48.8460179222926 -24.6759281206232 5.03295093150375
endloop
endfacet
facet normal 0.146101950011389 0.989269538701597 -8.81351834697559e-17
outer loop
vertex 20.5562059850897 12.2213493669545 36.7955950320925
vertex 26.2852637376184 11.3752437540485 2.97422490308666
vertex 20.5562059850897 12.2213493669544 2.97422490308666
endloop
endfacet
facet normal 0.146101950011389 0.989269538701597 -8.81351834697559e-17
outer loop
vertex 26.2852637376184 11.3752437540485 2.97422490308666
vertex 20.5562059850897 12.2213493669545 36.7955950320925
vertex 26.2852637376184 11.3752437540485 36.7955950320925
endloop
endfacet
facet normal -0.989269538701597 0.146101950011389 1.45855786555421e-15
outer loop
vertex 52.2907206424085 -1.81995072435381 10.3084749030867
vertex 50.0845373666515 -16.7582175396095 9.97192490308666
vertex 50.0845373666515 -16.7582175396095 10.3084749030867
endloop
endfacet
facet normal -0.989269538701597 0.146101950011389 1.45855786555421e-15
outer loop
vertex 48.9137201698452 -24.6859268419025 2.97422490308666
vertex 48.984470085709 -24.2068727524519 9.97192490308666
vertex 52.2907206424085 -1.81995072435381 2.97422490308666
endloop
endfacet
facet normal -0.989269538701597 0.146101950011389 1.45855786555421e-15
outer loop
vertex 48.984470085709 -24.2068727524519 9.97192490308666
vertex 48.9137201698452 -24.6859268419025 2.97422490308666
vertex 48.9137201698452 -24.6859268419025 10.4481749030867
endloop
endfacet
facet normal -0.989269538701597 0.146101950011389 1.45855786555421e-15
outer loop
vertex 48.984470085709 -24.2068727524519 9.97192490308666
vertex 48.9137201698452 -24.6859268419025 10.4481749030867
vertex 48.955468802061 -24.4032430712185 10.4481749030867
endloop
endfacet
facet normal -0.989269538701597 0.146101950011389 1.45855786555421e-15
outer loop
vertex 52.2907206424085 -1.81995072435381 2.97422490308666
vertex 48.984470085709 -24.2068727524519 9.97192490308666
vertex 50.0845373666515 -16.7582175396095 9.97192490308666
endloop
endfacet
facet normal -0.989269538701597 0.146101950011389 1.45855786555421e-15
outer loop
vertex 52.2907206424085 -1.81995072435381 2.97422490308666
vertex 50.0845373666515 -16.7582175396095 9.97192490308666
vertex 52.2907206424085 -1.81995072435381 10.3084749030867
endloop
endfacet
facet normal -0.146101950011393 -0.989269538701596 0.0
outer loop
vertex 48.7653039000088 -25.2224500772789 4.97380023035206
vertex 45.373098651801 -24.7214664906898 4.91030023035206
vertex 48.7653039000088 -25.2224500772789 4.91030023035206
endloop
endfacet
facet normal -0.146101950011393 -0.989269538701596 0.0
outer loop
vertex 45.373098651801 -24.7214664906898 4.91030023035206
vertex 48.7653039000088 -25.2224500772789 4.97380023035206
vertex 45.373098651801 -24.7214664906898 4.97380023035206
endloop
endfacet
facet normal 0.146101950011388 0.989269538701597 -2.00482348810141e-16
outer loop
vertex -25.2462091594481 14.1519594547877 36.7955950320925
vertex -22.2410187896602 13.7081328170467 12.4176426190484
vertex -25.2462091594481 14.1519594547877 12.4176426190484
endloop
endfacet
facet normal 0.146101950011388 0.989269538701597 -2.00482348810141e-16
outer loop
vertex -22.2410187896602 13.7081328170467 12.4176426190484
vertex 19.8575569185738 7.49073324791844 2.97422490308666
vertex -22.2410187896602 13.7081328170467 2.97422490308664
endloop
endfacet
facet normal 0.146101950011388 0.989269538701597 -2.00482348810141e-16
outer loop
vertex 19.8575569185738 7.49073324791844 2.97422490308666
vertex -22.2410187896602 13.7081328170467 12.4176426190484
vertex 19.8575569185738 7.49073324791844 36.7955950320925
endloop
endfacet
facet normal 0.146101950011388 0.989269538701597 -2.00482348810141e-16
outer loop
vertex 19.8575569185738 7.49073324791844 36.7955950320925
vertex -22.2410187896602 13.7081328170467 12.4176426190484
vertex -25.2462091594481 14.1519594547877 36.7955950320925
endloop
endfacet
facet normal 0.146101950011393 0.989269538701596 -1.06375885957033e-16
outer loop
vertex -24.8157343739345 17.066743223618 12.4176426190484
vertex -21.8105440041467 16.6229165858771 2.97422490308664
vertex -24.8157343739345 17.066743223618 2.97422490308664
endloop
endfacet
facet normal 0.146101950011393 0.989269538701596 -1.06375885957033e-16
outer loop
vertex -21.8105440041467 16.6229165858771 2.97422490308664
vertex -24.8157343739345 17.066743223618 12.4176426190484
vertex -21.8105440041467 16.6229165858771 12.4176426190484
endloop
endfacet
facet normal -4.70187622348707e-16 6.94404566287603e-17 1.0
outer loop
vertex -22.2410187896602 13.7081328170467 12.4176426190484
vertex -24.8157343739345 17.066743223618 12.4176426190484
vertex -25.2462091594481 14.1519594547877 12.4176426190484
endloop
endfacet
facet normal -4.70187622348707e-16 6.94404566287603e-17 1.0
outer loop
vertex -24.8157343739345 17.066743223618 12.4176426190484
vertex -22.2410187896602 13.7081328170467 12.4176426190484
vertex -21.8105440041467 16.6229165858771 12.4176426190484
endloop
endfacet
facet normal 0.989269538701598 -0.146101950011383 3.02675170121226e-16
outer loop
vertex -21.8105440041467 16.6229165858771 2.97422490308664
vertex -22.2410187896602 13.7081328170467 12.4176426190484
vertex -22.2410187896602 13.7081328170467 2.97422490308664
endloop
endfacet
facet normal 0.989269538701598 -0.146101950011383 3.02675170121226e-16
outer loop
vertex -22.2410187896602 13.7081328170467 12.4176426190484
vertex -21.8105440041467 16.6229165858771 2.97422490308664
vertex -21.8105440041467 16.6229165858771 12.4176426190484
endloop
endfacet
facet normal 0.146101950011393 0.989269538701596 -2.06588302007012e-15
outer loop
vertex -50.3776699609341 -6.04180999013334 13.0359891330866
vertex -50.0454233627153 -6.0908783926115 11.1620215830866
vertex -50.3776699609341 -6.04180999013334 11.1620215830866
endloop
endfacet
facet normal 0.146101950011393 0.989269538701596 -2.06588302007012e-15
outer loop
vertex -50.0454233627153 -6.0908783926115 11.1620215830866
vertex -50.3776699609341 -6.04180999013334 13.0359891330866
vertex -50.0454233627153 -6.0908783926115 12.4964512230866
endloop
endfacet
facet normal 0.146101950011393 0.989269538701596 -2.06588302007012e-15
outer loop
vertex -50.0454233627153 -6.0908783926115 12.4964512230866
vertex -50.3776699609341 -6.04180999013334 13.0359891330866
vertex -47.3400115272937 -6.49043172896292 12.4964512230866
endloop
endfacet
facet normal 0.146101950011393 0.989269538701596 -2.06588302007012e-15
outer loop
vertex -47.3400115272937 -6.49043172896292 12.4964512230866
vertex -46.9196222095114 -6.55251763850432 11.1620215830866
vertex -47.3400115272937 -6.49043172896292 11.1620215830866
endloop
endfacet
facet normal 0.146101950011393 0.989269538701596 -2.06588302007012e-15
outer loop
vertex -46.9196222095114 -6.55251763850432 11.1620215830866
vertex -47.3400115272937 -6.49043172896292 12.4964512230866
vertex -46.9196222095114 -6.55251763850432 13.0359891330866
endloop
endfacet
facet normal 0.146101950011393 0.989269538701596 -2.06588302007012e-15
outer loop
vertex -46.9196222095114 -6.55251763850432 13.0359891330866
vertex -47.3400115272937 -6.49043172896292 12.4964512230866
vertex -50.3776699609341 -6.04180999013334 13.0359891330866
endloop
endfacet
facet normal 0.134857022342748 0.91312911479471 0.384719122528471
outer loop
vertex 45.4289364366615 -23.681767733916 9.97192490308666
vertex 48.955468802061 -24.4032430712185 10.4481749030867
vertex 48.984470085709 -24.2068727524519 9.97192490308666
endloop
endfacet
facet normal 0.134857022342748 0.91312911479471 0.384719122528471
outer loop
vertex 48.955468802061 -24.4032430712185 10.4481749030867
vertex 45.4289364366615 -23.681767733916 9.97192490308666
vertex 45.3999351530136 -23.8781380526826 10.4481749030867
endloop
endfacet
facet normal -0.989269538701596 0.14610195001139 -3.34252844189507e-16
outer loop
vertex 48.7351869933611 -1.29484570581787 10.3084749030867
vertex 46.5290037176041 -16.2331125210736 9.97192490308666
vertex 46.5290037176041 -16.2331125210736 10.3084749030867
endloop
endfacet
facet normal -0.989269538701596 0.14610195001139 -3.34252844189507e-16
outer loop
vertex 45.3999351530136 -23.8781380526826 10.4481749030867
vertex 45.3581865207978 -24.1608218233666 2.97422490308667
vertex 45.3581865207978 -24.1608218233666 10.4481749030867
endloop
endfacet
facet normal -0.989269538701596 0.14610195001139 -3.34252844189507e-16
outer loop
vertex 45.3581865207978 -24.1608218233666 2.97422490308667
vertex 45.3999351530136 -23.8781380526826 10.4481749030867
vertex 45.4289364366615 -23.681767733916 9.97192490308666
endloop
endfacet
facet normal -0.989269538701596 0.14610195001139 -3.34252844189507e-16
outer loop
vertex 45.3581865207978 -24.1608218233666 2.97422490308667
vertex 45.4289364366615 -23.681767733916 9.97192490308666
vertex 48.7351869933611 -1.29484570581787 2.97422490308666
endloop
endfacet
facet normal -0.989269538701596 0.14610195001139 -3.34252844189507e-16
outer loop
vertex 48.7351869933611 -1.29484570581787 2.97422490308666
vertex 45.4289364366615 -23.681767733916 9.97192490308666
vertex 46.5290037176041 -16.2331125210736 9.97192490308666
endloop
endfacet
facet normal -0.989269538701596 0.14610195001139 -3.34252844189507e-16
outer loop
vertex 48.7351869933611 -1.29484570581787 2.97422490308666
vertex 46.5290037176041 -16.2331125210736 9.97192490308666
vertex 48.7351869933611 -1.29484570581787 10.3084749030867
endloop
endfacet
facet normal -0.989269538701597 0.146101950011388 1.29498473289885e-16
outer loop
vertex -3.64114242476909 -16.6290044402334 8.48755093339799
vertex -3.71165122584459 -17.1064259196108 2.97422490308665
vertex -3.71165122584459 -17.1064259196108 8.48755093339799
endloop
endfacet
facet normal -0.989269538701597 0.146101950011388 1.29498473289885e-16
outer loop
vertex -3.71165122584459 -17.1064259196108 2.97422490308665
vertex -3.64114242476909 -16.6290044402334 8.48755093339799
vertex -3.64114242476909 -16.6290044402334 2.97422490308665
endloop
endfacet
facet normal 0.989269538701597 -0.146101950011388 2.25608528659197e-16
outer loop
vertex -2.88122345845878 -17.0365027276645 2.97422490308665
vertex -2.90905587993595 -17.2249585747871 9.29885191307036
vertex -2.90905587993595 -17.2249585747871 2.97422490308665
endloop
endfacet
facet normal 0.989269538701597 -0.146101950011388 2.25608528659197e-16
outer loop
vertex -2.90905587993595 -17.2249585747871 9.29885191307036
vertex -2.88122345845878 -17.0365027276645 2.97422490308665
vertex -2.88122345845878 -17.0365027276645 9.29885191307036
endloop
endfacet
facet normal -2.13598269342546e-16 3.15456227540979e-17 1.0
outer loop
vertex -2.90905587993595 -17.2249585747871 9.29885191307036
vertex -9.49646111476096 -16.0595201323618 9.29885191307036
vertex -9.52429353623812 -16.2479759794845 9.29885191307036
endloop
endfacet
facet normal -2.13598269342546e-16 3.15456227540979e-17 1.0
outer loop
vertex -9.49646111476096 -16.0595201323618 9.29885191307036
vertex -2.90905587993595 -17.2249585747871 9.29885191307036
vertex -2.88122345845878 -17.0365027276645 9.29885191307036
endloop
endfacet
facet normal -0.989269538701589 0.14610195001144 -6.53794964069328e-16
outer loop
vertex 48.6505602245049 -24.6470616189527 4.91030023035206
vertex 48.6960198462509 -24.3392504019857 2.97422490308666
vertex 48.6505602245049 -24.6470616189527 2.97422490308666
endloop
endfacet
facet normal -0.989269538701589 0.14610195001144 -6.53794964069328e-16
outer loop
vertex 48.6960198462509 -24.3392504019857 2.97422490308666
vertex 48.6505602245049 -24.6470616189527 4.91030023035206
vertex 48.6960198462509 -24.3392504019857 4.91030023035206
endloop
endfacet
facet normal 0.146101950011383 0.989269538701598 -0.0
outer loop
vertex -50.8748124570056 -9.40800686648734 12.4964512230866
vertex -50.542565858787 -9.45707526896549 11.1620215830866
vertex -50.8748124570056 -9.40800686648734 11.1620215830866
endloop
endfacet
facet normal 0.146101950011383 0.989269538701598 -0.0
outer loop
vertex -50.542565858787 -9.45707526896549 11.1620215830866
vertex -50.8748124570056 -9.40800686648734 12.4964512230866
vertex -50.542565858787 -9.45707526896549 12.4964512230866
endloop
endfacet
facet normal -3.55038115490218e-16 4.23107198048532e-16 1.0
outer loop
vertex -47.4948827359449 -10.4476587750453 13.0359891330866
vertex -50.5425658587869 -9.45707526896549 13.0359891330866
vertex -50.9529304873677 -9.93695112667428 13.0359891330866
endloop
endfacet
facet normal -3.55038115490218e-16 4.23107198048532e-16 1.0
outer loop
vertex -50.5425658587869 -9.45707526896549 13.0359891330866
vertex -47.4948827359449 -10.4476587750453 13.0359891330866
vertex -47.8371540233651 -9.85662860531684 13.0359891330866
endloop
endfacet
facet normal -3.55038115490218e-16 4.23107198048532e-16 1.0
outer loop
vertex -47.8371540233651 -9.85662860531684 13.0359891330866
vertex -47.4948827359449 -10.4476587750453 13.0359891330866
vertex -47.4424145826324 -7.1838120932134 13.0359891330866
endloop
endfacet
facet normal -3.55038115490218e-16 4.23107198048532e-16 1.0
outer loop
vertex -47.4424145826324 -7.1838120932134 13.0359891330866
vertex -47.4948827359449 -10.4476587750453 13.0359891330866
vertex -46.9196222095114 -6.55251763850432 13.0359891330866
endloop
endfacet
facet normal -3.55038115490218e-16 4.23107198048532e-16 1.0
outer loop
vertex -50.5425658587869 -9.45707526896549 13.0359891330866
vertex -50.3776699609341 -6.04180999013334 13.0359891330866
vertex -50.9529304873677 -9.93695112667428 13.0359891330866
endloop
endfacet
facet normal -3.55038115490218e-16 4.23107198048532e-16 1.0
outer loop
vertex -50.3776699609341 -6.04180999013334 13.0359891330866
vertex -50.5425658587869 -9.45707526896549 13.0359891330866
vertex -50.1478264180542 -6.78425875686204 13.0359891330866
endloop
endfacet
facet normal -3.55038115490218e-16 4.23107198048532e-16 1.0
outer loop
vertex -50.3776699609341 -6.04180999013334 13.0359891330866
vertex -50.1478264180542 -6.78425875686204 13.0359891330866
vertex -46.9196222095114 -6.55251763850432 13.0359891330866
endloop
endfacet
facet normal -3.55038115490218e-16 4.23107198048532e-16 1.0
outer loop
vertex -46.9196222095114 -6.55251763850432 13.0359891330866
vertex -50.1478264180542 -6.78425875686204 13.0359891330866
vertex -47.4424145826324 -7.1838120932134 13.0359891330866
endloop
endfacet
facet normal 0.146101950011388 0.989269538701597 -3.37576106017278e-17
outer loop
vertex -30.2766178454609 19.7286811867297 12.3852487530866
vertex -24.5475600929322 18.8825755738237 2.97422490308664
vertex -30.2766178454609 19.7286811867297 2.97422490308664
endloop
endfacet
facet normal 0.146101950011388 0.989269538701597 -3.37576106017278e-17
outer loop
vertex -24.5475600929322 18.8825755738237 2.97422490308664
vertex -30.2766178454609 19.7286811867297 12.3852487530866
vertex -24.5475600929322 18.8825755738237 36.7955950320925
endloop
endfacet
facet normal 0.146101950011388 0.989269538701597 -3.37576106017278e-17
outer loop
vertex -24.5475600929322 18.8825755738237 36.7955950320925
vertex -30.2766178454609 19.7286811867297 12.3852487530866
vertex -30.2766178454609 19.7286811867297 36.7955950320925
endloop
endfacet
facet normal 0.989269538701597 -0.146101950011388 6.3430695722637e-15
outer loop
vertex -46.223879778956 22.0838796181744 12.3717466332817
vertex -48.9569690164679 3.5778848041901 12.3852487530866
vertex -48.9569684809337 3.5778847636561 12.3717464976249
endloop
endfacet
facet normal 0.989269538701597 -0.146101950011388 6.3430695722637e-15
outer loop
vertex -48.9569690164679 3.5778848041901 12.3852487530866
vertex -46.223879778956 22.0838796181744 12.3717466332817
vertex -46.2238797789559 22.0838796181743 12.3852487530866
endloop
endfacet
facet normal 0.14610195001139 0.989269538701597 2.79365776983401e-15
outer loop
vertex -46.2238797789559 22.0838796181743 12.3852487530866
vertex -30.2910352030381 19.7308104386409 12.3852487530866
vertex -46.223879778956 22.0838796181744 12.3717466332817
endloop
endfacet
facet normal 0.14610195001139 0.989269538701597 2.79365776983401e-15
outer loop
vertex -46.223879778956 22.0838796181744 12.3717466332817
vertex -30.2766178454609 19.7286811867297 2.97422490308664
vertex -46.223879778956 22.0838796181744 2.97422490308664
endloop
endfacet
facet normal 0.14610195001139 0.989269538701597 2.79365776983401e-15
outer loop
vertex -30.2766178454609 19.7286811867297 2.97422490308664
vertex -46.223879778956 22.0838796181744 12.3717466332817
vertex -30.2766178454609 19.7286811867297 12.3852487530866
endloop
endfacet
facet normal 0.14610195001139 0.989269538701597 2.79365776983401e-15
outer loop
vertex -30.2766178454609 19.7286811867297 12.3852487530866
vertex -46.223879778956 22.0838796181744 12.3717466332817
vertex -30.2910352030381 19.7308104386409 12.3852487530866
endloop
endfacet
facet normal 0.989269538701597 -0.146101950011388 2.01579382143209e-16
outer loop
vertex -24.5475600929322 18.8825755738237 2.97422490308664
vertex -24.8157343739345 17.066743223618 12.4176426190484
vertex -24.8157343739345 17.066743223618 2.97422490308664
endloop
endfacet
facet normal 0.989269538701597 -0.146101950011388 2.01579382143209e-16
outer loop
vertex -24.8157343739345 17.066743223618 12.4176426190484
vertex -25.2462091594481 14.1519594547877 36.7955950320925
vertex -25.2462091594481 14.1519594547877 12.4176426190484
endloop
endfacet
facet normal 0.989269538701597 -0.146101950011388 2.01579382143209e-16
outer loop
vertex -25.2462091594481 14.1519594547877 36.7955950320925
vertex -24.8157343739345 17.066743223618 12.4176426190484
vertex -24.5475600929322 18.8825755738237 36.7955950320925
endloop
endfacet
facet normal 0.989269538701597 -0.146101950011388 2.01579382143209e-16
outer loop
vertex -24.5475600929322 18.8825755738237 36.7955950320925
vertex -24.8157343739345 17.066743223618 12.4176426190484
vertex -24.5475600929322 18.8825755738237 2.97422490308664
endloop
endfacet
facet normal -0.989269538701597 0.146101950011387 -4.31797736682257e-16
outer loop
vertex 19.8575569185738 7.49073324791844 36.7955950320925
vertex 20.5562059850897 12.2213493669544 2.97422490308666
vertex 19.8575569185738 7.49073324791844 2.97422490308666
endloop
endfacet
facet normal -0.989269538701597 0.146101950011387 -4.31797736682257e-16
outer loop
vertex 20.5562059850897 12.2213493669544 2.97422490308666
vertex 19.8575569185738 7.49073324791844 36.7955950320925
vertex 20.5562059850897 12.2213493669545 36.7955950320925
endloop
endfacet
facet normal -4.57326503234825e-16 -8.49792668933103e-16 -1.0
outer loop
vertex 48.6960198462509 -24.3392504019857 4.91030023035206
vertex 48.6505602245049 -24.6470616189527 4.91030023035206
vertex 45.745754962569 -23.9035355278354 4.91030023035206
endloop
endfacet
facet normal -4.57326503234825e-16 -8.49792668933103e-16 -1.0
outer loop
vertex 45.4538126740848 -24.1749445340341 4.91030023035206
vertex 48.7653039000088 -25.2224500772789 4.91030023035206
vertex 45.373098651801 -24.7214664906898 4.91030023035206
endloop
endfacet
facet normal -4.57326503234825e-16 -8.49792668933103e-16 -1.0
outer loop
vertex 48.7653039000088 -25.2224500772789 4.91030023035206
vertex 45.4538126740848 -24.1749445340341 4.91030023035206
vertex 45.7002953408229 -24.2113467448024 4.91030023035206
endloop
endfacet
facet normal -4.57326503234825e-16 -8.49792668933103e-16 -1.0
outer loop
vertex 48.7653039000088 -25.2224500772789 4.91030023035206
vertex 45.7002953408229 -24.2113467448024 4.91030023035206
vertex 45.745754962569 -23.9035355278354 4.91030023035206
endloop
endfacet
facet normal -4.57326503234825e-16 -8.49792668933103e-16 -1.0
outer loop
vertex 48.7653039000088 -25.2224500772789 4.91030023035206
vertex 45.745754962569 -23.9035355278354 4.91030023035206
vertex 48.6505602245049 -24.6470616189527 4.91030023035206
endloop
endfacet
facet normal -4.57326503234825e-16 -8.49792668933103e-16 -1.0
outer loop
vertex 48.7653039000088 -25.2224500772789 4.91030023035206
vertex 48.6505602245049 -24.6470616189527 4.91030023035206
vertex 48.8460179222926 -24.6759281206232 4.91030023035206
endloop
endfacet
facet normal 3.97409630774926e-16 -5.86921154832632e-17 1.0
outer loop
vertex 48.9137201698452 -24.6859268419025 10.4481749030867
vertex 45.3999351530136 -23.8781380526826 10.4481749030867
vertex 45.3581865207978 -24.1608218233666 10.4481749030867
endloop
endfacet
facet normal 3.97409630774926e-16 -5.86921154832632e-17 1.0
outer loop
vertex 45.3999351530136 -23.8781380526826 10.4481749030867
vertex 48.9137201698452 -24.6859268419025 10.4481749030867
vertex 48.955468802061 -24.4032430712185 10.4481749030867
endloop
endfacet
facet normal -0.146101950011389 -0.989269538701597 -5.64176361839712e-17
outer loop
vertex 50.0845373666515 -16.7582175396095 10.3084749030867
vertex 46.5290037176041 -16.2331125210736 9.97192490308666
vertex 50.0845373666515 -16.7582175396095 9.97192490308666
endloop
endfacet
facet normal -0.146101950011389 -0.989269538701597 -5.64176361839712e-17
outer loop
vertex 46.5290037176041 -16.2331125210736 9.97192490308666
vertex 50.0845373666515 -16.7582175396095 10.3084749030867
vertex 46.5290037176041 -16.2331125210736 10.3084749030867
endloop
endfacet
facet normal -0.989269538701596 0.146101950011393 9.56216378183522e-18
outer loop
vertex 45.4538126740848 -24.1749445340341 6.11045023035206
vertex 45.373098651801 -24.7214664906898 4.91030023035206
vertex 45.373098651801 -24.7214664906898 4.97380023035206
endloop
endfacet
facet normal -0.989269538701596 0.146101950011393 9.56216378183522e-18
outer loop
vertex 45.373098651801 -24.7214664906898 4.91030023035206
vertex 45.4538126740848 -24.1749445340341 6.11045023035206
vertex 45.4538126740848 -24.1749445340341 4.91030023035206
endloop
endfacet
facet normal -0.989269538701596 0.146101950011393 9.56216378183522e-18
outer loop
vertex 45.4538126740848 -24.1749445340341 4.91030023035206
vertex 45.4538126740848 -24.1749445340341 6.11045023035206
vertex 45.4538126740848 -24.1749445340341 5.03295093150375
endloop
endfacet
facet normal -0.146101950011464 -0.989269538701585 -1.50446566659959e-18
outer loop
vertex -50.1478264180542 -6.78425875686208 12.4964512230866
vertex -50.480073016273 -6.73519035438388 11.1620215830866
vertex -50.1478264180542 -6.78425875686208 11.1620215830866
endloop
endfacet
facet normal -0.146101950011464 -0.989269538701585 -1.50446566659959e-18
outer loop
vertex -50.480073016273 -6.73519035438388 11.1620215830866
vertex -50.1478264180542 -6.78425875686208 12.4964512230866
vertex -50.480073016273 -6.73519035438388 12.4964512230866
endloop
endfacet
facet normal 0.989269538701589 -0.14610195001144 5.51105242467883e-19
outer loop
vertex 45.745754962569 -23.9035355278354 2.97422490308666
vertex 45.7002953408229 -24.2113467448024 4.91030023035206
vertex 45.7002953408229 -24.2113467448024 2.97422490308667
endloop
endfacet
facet normal 0.989269538701589 -0.14610195001144 5.51105242467883e-19
outer loop
vertex 45.7002953408229 -24.2113467448024 4.91030023035206
vertex 45.745754962569 -23.9035355278354 2.97422490308666
vertex 45.745754962569 -23.9035355278354 4.91030023035206
endloop
endfacet
facet normal 4.39318466809642e-16 2.2507640977153e-16 1.0
outer loop
vertex 50.0845373666515 -16.7582175396095 10.3084749030867
vertex 48.7351869933611 -1.29484570581787 10.3084749030867
vertex 46.5290037176041 -16.2331125210736 10.3084749030867
endloop
endfacet
facet normal 4.39318466809642e-16 2.2507640977153e-16 1.0
outer loop
vertex 48.7351869933611 -1.29484570581787 10.3084749030867
vertex 50.0845373666515 -16.7582175396095 10.3084749030867
vertex 52.2907206424085 -1.81995072435381 10.3084749030867
endloop
endfacet
facet normal 2.82033945927503e-16 -4.16526617442372e-17 -1.0
outer loop
vertex -8.65118938925399 -15.8890871552834 8.48755093339799
vertex -3.71165122584459 -17.1064259196108 8.48755093339799
vertex -8.72169819032948 -16.3665086346608 8.48755093339799
endloop
endfacet
facet normal 2.82033945927503e-16 -4.16526617442372e-17 -1.0
outer loop
vertex -3.71165122584459 -17.1064259196108 8.48755093339799
vertex -8.65118938925399 -15.8890871552834 8.48755093339799
vertex -3.64114242476909 -16.6290044402334 8.48755093339799
endloop
endfacet
facet normal 0.989269538701597 -0.146101950011387 -1.33051164349686e-15
outer loop
vertex -50.9529304873677 -9.93695112667428 2.97422490308664
vertex -50.8748124570056 -9.40800686648734 11.1620215830866
vertex -50.9529304873677 -9.93695112667428 13.0359891330866
endloop
endfacet
facet normal 0.989269538701597 -0.146101950011387 -1.33051164349686e-15
outer loop
vertex -50.8748124570056 -9.40800686648734 11.1620215830866
vertex -50.9529304873677 -9.93695112667428 2.97422490308664
vertex -46.223879778956 22.0838796181744 2.97422490308664
endloop
endfacet
facet normal 0.989269538701597 -0.146101950011387 -1.33051164349686e-15
outer loop
vertex -50.8748124570056 -9.40800686648734 11.1620215830866
vertex -46.223879778956 22.0838796181744 2.97422490308664
vertex -50.480073016273 -6.73519035438388 11.1620215830866
endloop
endfacet
facet normal 0.989269538701597 -0.146101950011387 -1.33051164349686e-15
outer loop
vertex -50.480073016273 -6.73519035438388 11.1620215830866
vertex -46.223879778956 22.0838796181744 2.97422490308664
vertex -50.3776699609341 -6.04180999013334 11.1620215830866
endloop
endfacet
facet normal 0.989269538701597 -0.146101950011387 -1.33051164349686e-15
outer loop
vertex -50.480073016273 -6.73519035438388 11.1620215830866
vertex -50.3776699609341 -6.04180999013334 11.1620215830866
vertex -50.480073016273 -6.73519035438388 12.4964512230866
endloop
endfacet
facet normal 0.989269538701597 -0.146101950011387 -1.33051164349686e-15
outer loop
vertex -50.3776699609341 -6.04180999013334 11.1620215830866
vertex -46.223879778956 22.0838796181744 2.97422490308664
vertex -48.9778499420204 3.43649816569956 11.1620215830866
endloop
endfacet
facet normal 0.989269538701597 -0.146101950011387 -1.33051164349686e-15
outer loop
vertex -48.9778499420204 3.43649816569956 11.1620215830866
vertex -46.223879778956 22.0838796181744 2.97422490308664
vertex -48.9569690164679 3.5778848041901 11.1620215830866
endloop
endfacet
facet normal 0.989269538701597 -0.146101950011387 -1.33051164349686e-15
outer loop
vertex -48.9569690164679 3.5778848041901 11.1620215830866
vertex -46.223879778956 22.0838796181744 2.97422490308664
vertex -48.9569690164679 3.5778848041901 12.3852487530866
endloop
endfacet
facet normal 0.989269538701597 -0.146101950011387 -1.33051164349686e-15
outer loop
vertex -48.9569690164679 3.5778848041901 12.3852487530866
vertex -46.223879778956 22.0838796181744 2.97422490308664
vertex -46.2238797789559 22.0838796181743 12.3852487530866
endloop
endfacet
facet normal 0.989269538701597 -0.146101950011387 -1.33051164349686e-15
outer loop
vertex -46.2238797789559 22.0838796181743 12.3852487530866
vertex -46.223879778956 22.0838796181744 2.97422490308664
vertex -46.223879778956 22.0838796181744 12.3717466332817
endloop
endfacet
facet normal 0.989269538701597 -0.146101950011387 -1.33051164349686e-15
outer loop
vertex -50.9529304873677 -9.93695112667428 13.0359891330866
vertex -50.8748124570056 -9.40800686648734 12.4964512230866
vertex -50.3776699609341 -6.04180999013334 13.0359891330866
endloop
endfacet
facet normal 0.989269538701597 -0.146101950011387 -1.33051164349686e-15
outer loop
vertex -50.8748124570056 -9.40800686648734 12.4964512230866
vertex -50.9529304873677 -9.93695112667428 13.0359891330866
vertex -50.8748124570056 -9.40800686648734 11.1620215830866
endloop
endfacet
facet normal 0.989269538701597 -0.146101950011387 -1.33051164349686e-15
outer loop
vertex -50.3776699609341 -6.04180999013334 13.0359891330866
vertex -50.8748124570056 -9.40800686648734 12.4964512230866
vertex -50.480073016273 -6.73519035438388 12.4964512230866
endloop
endfacet
facet normal 0.989269538701597 -0.146101950011387 -1.33051164349686e-15
outer loop
vertex -50.3776699609341 -6.04180999013334 13.0359891330866
vertex -50.480073016273 -6.73519035438388 12.4964512230866
vertex -50.3776699609341 -6.04180999013334 11.1620215830866
endloop
endfacet
facet normal -0.146101950011388 -0.989269538701597 1.01265317657519e-15
outer loop
vertex -35.0056685538727 -12.292149558119 11.1620215830866
vertex -50.9529304873677 -9.93695112667428 2.97422490308664
vertex -35.0056685538727 -12.292149558119 2.97422490308664
endloop
endfacet
facet normal -0.146101950011388 -0.989269538701597 1.01265317657519e-15
outer loop
vertex -50.9529304873677 -9.93695112667428 2.97422490308664
vertex -35.0056685538727 -12.292149558119 11.1620215830866
vertex -47.4948827359449 -10.4476587750453 11.1620215830866
endloop
endfacet
facet normal -0.146101950011388 -0.989269538701597 1.01265317657519e-15
outer loop
vertex -47.4948827359449 -10.4476587750453 13.0359891330866
vertex -47.9152720537273 -10.3855728655038 11.1620215830866
vertex -47.4948827359449 -10.4476587750453 11.1620215830866
endloop
endfacet
facet normal -0.146101950011388 -0.989269538701597 1.01265317657519e-15
outer loop
vertex -47.9152720537273 -10.3855728655038 11.1620215830866
vertex -47.4948827359449 -10.4476587750453 13.0359891330866
vertex -47.9152720537273 -10.3855728655038 12.4964512230866
endloop
endfacet
facet normal -0.146101950011388 -0.989269538701597 1.01265317657519e-15
outer loop
vertex -47.9152720537273 -10.3855728655038 12.4964512230866
vertex -47.4948827359449 -10.4476587750453 13.0359891330866
vertex -50.9529304873677 -9.93695112667428 13.0359891330866
endloop
endfacet
facet normal -0.146101950011388 -0.989269538701597 1.01265317657519e-15
outer loop
vertex -50.9529304873677 -9.93695112667428 2.97422490308664
vertex -50.620683889149 -9.98601952915245 11.1620215830866
vertex -50.9529304873677 -9.93695112667428 13.0359891330866
endloop
endfacet
facet normal -0.146101950011388 -0.989269538701597 1.01265317657519e-15
outer loop
vertex -50.620683889149 -9.98601952915245 11.1620215830866
vertex -50.9529304873677 -9.93695112667428 2.97422490308664
vertex -47.4948827359449 -10.4476587750453 11.1620215830866
endloop
endfacet
facet normal -0.146101950011388 -0.989269538701597 1.01265317657519e-15
outer loop
vertex -50.620683889149 -9.98601952915245 11.1620215830866
vertex -47.4948827359449 -10.4476587750453 11.1620215830866
vertex -47.9152720537273 -10.3855728655038 11.1620215830866
endloop
endfacet
facet normal -0.146101950011388 -0.989269538701597 1.01265317657519e-15
outer loop
vertex -50.9529304873677 -9.93695112667428 13.0359891330866
vertex -50.620683889149 -9.98601952915245 11.1620215830866
vertex -50.620683889149 -9.98601952915245 12.4964512230866
endloop
endfacet
facet normal -0.146101950011388 -0.989269538701597 1.01265317657519e-15
outer loop
vertex -50.9529304873677 -9.93695112667428 13.0359891330866
vertex -50.620683889149 -9.98601952915245 12.4964512230866
vertex -47.9152720537273 -10.3855728655038 12.4964512230866
endloop
endfacet
facet normal -0.146101950011391 -0.989269538701596 2.17431353845708e-17
outer loop
vertex -33.0097070829729 1.22268637274537 11.1620215830866
vertex -48.9569690164679 3.5778848041901 12.3852487530866
vertex -48.9569690164679 3.5778848041901 11.1620215830866
endloop
endfacet
facet normal -0.146101950011391 -0.989269538701596 2.17431353845708e-17
outer loop
vertex -48.9569690164679 3.5778848041901 12.3852487530866
vertex -33.0097070829729 1.22268637274537 11.1620215830866
vertex -33.0097070829729 1.22268637274537 12.3852487530866
endloop
endfacet
facet normal -0.146101950011392 -0.989269538701596 3.22499009528071e-16
outer loop
vertex 48.9137201698452 -24.6859268419025 2.97422490308666
vertex 48.8460179222926 -24.6759281206232 4.91030023035206
vertex 48.6505602245049 -24.6470616189527 2.97422490308666
endloop
endfacet
facet normal -0.146101950011392 -0.989269538701596 3.22499009528071e-16
outer loop
vertex 48.8460179222926 -24.6759281206232 4.91030023035206
vertex 48.9137201698452 -24.6859268419025 2.97422490308666
vertex 48.9137201698452 -24.6859268419025 10.4481749030867
endloop
endfacet
facet normal -0.146101950011392 -0.989269538701596 3.22499009528071e-16
outer loop
vertex 48.8460179222926 -24.6759281206232 4.91030023035206
vertex 48.9137201698452 -24.6859268419025 10.4481749030867
vertex 48.8460179222926 -24.6759281206232 5.03295093150375
endloop
endfacet
facet normal -0.146101950011392 -0.989269538701596 3.22499009528071e-16
outer loop
vertex 48.8460179222926 -24.6759281206232 5.03295093150375
vertex 48.9137201698452 -24.6859268419025 10.4481749030867
vertex 48.8460179222926 -24.6759281206232 6.11045023035206
endloop
endfacet
facet normal -0.146101950011392 -0.989269538701596 3.22499009528071e-16
outer loop
vertex 48.8460179222926 -24.6759281206232 6.11045023035206
vertex 48.9137201698452 -24.6859268419025 10.4481749030867
vertex 45.4538126740848 -24.1749445340341 6.11045023035206
endloop
endfacet
facet normal -0.146101950011392 -0.989269538701596 3.22499009528071e-16
outer loop
vertex 45.7002953408229 -24.2113467448024 4.91030023035206
vertex 45.3581865207978 -24.1608218233666 2.97422490308667
vertex 45.7002953408229 -24.2113467448024 2.97422490308667
endloop
endfacet
facet normal -0.146101950011392 -0.989269538701596 3.22499009528071e-16
outer loop
vertex 45.3581865207978 -24.1608218233666 2.97422490308667
vertex 45.7002953408229 -24.2113467448024 4.91030023035206
vertex 45.4538126740848 -24.1749445340341 4.91030023035206
endloop
endfacet
facet normal -0.146101950011392 -0.989269538701596 3.22499009528071e-16
outer loop
vertex 45.3581865207978 -24.1608218233666 2.97422490308667
vertex 45.4538126740848 -24.1749445340341 4.91030023035206
vertex 45.3581865207978 -24.1608218233666 10.4481749030867
endloop
endfacet
facet normal -0.146101950011392 -0.989269538701596 3.22499009528071e-16
outer loop
vertex 45.3581865207978 -24.1608218233666 10.4481749030867
vertex 45.4538126740848 -24.1749445340341 4.91030023035206
vertex 45.4538126740848 -24.1749445340341 5.03295093150375
endloop
endfacet
facet normal -0.146101950011392 -0.989269538701596 3.22499009528071e-16
outer loop
vertex 45.3581865207978 -24.1608218233666 10.4481749030867
vertex 45.4538126740848 -24.1749445340341 5.03295093150375
vertex 45.4538126740848 -24.1749445340341 6.11045023035206
endloop
endfacet
facet normal -0.146101950011392 -0.989269538701596 3.22499009528071e-16
outer loop
vertex 45.3581865207978 -24.1608218233666 10.4481749030867
vertex 45.4538126740848 -24.1749445340341 6.11045023035206
vertex 48.9137201698452 -24.6859268419025 10.4481749030867
endloop
endfacet
facet normal -0.146101950011392 -0.989269538701596 3.22499009528071e-16
outer loop
vertex 48.6505602245049 -24.6470616189527 4.91030023035206
vertex 48.6505602245049 -24.6470616189527 2.97422490308666
vertex 48.8460179222926 -24.6759281206232 4.91030023035206
endloop
endfacet
facet normal 4.53441702490274e-16 3.20706117969585e-16 1.0
outer loop
vertex 48.984470085709 -24.2068727524519 9.97192490308666
vertex 46.5290037176041 -16.2331125210736 9.97192490308666
vertex 45.4289364366615 -23.681767733916 9.97192490308666
endloop
endfacet
facet normal 4.53441702490274e-16 3.20706117969585e-16 1.0
outer loop
vertex 46.5290037176041 -16.2331125210736 9.97192490308666
vertex 48.984470085709 -24.2068727524519 9.97192490308666
vertex 50.0845373666515 -16.7582175396095 9.97192490308666
endloop
endfacet
facet normal 0.146101950011391 0.989269538701596 2.44817288368623e-18
outer loop
vertex 48.7351869933611 -1.29484570581787 2.97422490308666
vertex 52.2907206424085 -1.81995072435381 10.3084749030867
vertex 52.2907206424085 -1.81995072435381 2.97422490308666
endloop
endfacet
facet normal 0.146101950011391 0.989269538701596 2.44817288368623e-18
outer loop
vertex 52.2907206424085 -1.81995072435381 10.3084749030867
vertex 48.7351869933611 -1.29484570581787 2.97422490308666
vertex 48.7351869933611 -1.29484570581787 10.3084749030867
endloop
endfacet
facet normal -0.146101950011394 -0.989269538701596 2.21119071604538e-15
outer loop
vertex 48.6960198462509 -24.3392504019857 4.91030023035206
vertex 45.745754962569 -23.9035355278354 2.97422490308666
vertex 48.6960198462509 -24.3392504019857 2.97422490308666
endloop
endfacet
facet normal -0.146101950011394 -0.989269538701596 2.21119071604538e-15
outer loop
vertex 45.745754962569 -23.9035355278354 2.97422490308666
vertex 48.6960198462509 -24.3392504019857 4.91030023035206
vertex 45.745754962569 -23.9035355278354 4.91030023035206
endloop
endfacet
facet normal -8.2525505278895e-17 1.49666842225897e-16 1.0
outer loop
vertex -35.0056685538727 -12.292149558119 11.1620215830866
vertex -47.4167647055828 -9.91871451485833 11.1620215830866
vertex -47.4948827359449 -10.4476587750453 11.1620215830866
endloop
endfacet
facet normal -8.2525505278895e-17 1.49666842225897e-16 1.0
outer loop
vertex -47.4167647055828 -9.91871451485833 11.1620215830866
vertex -35.0056685538727 -12.292149558119 11.1620215830866
vertex -47.0220252648501 -7.24589800275493 11.1620215830866
endloop
endfacet
facet normal -8.2525505278895e-17 1.49666842225897e-16 1.0
outer loop
vertex -47.0220252648501 -7.24589800275493 11.1620215830866
vertex -35.0056685538727 -12.292149558119 11.1620215830866
vertex -46.9196222095114 -6.55251763850432 11.1620215830866
endloop
endfacet
facet normal -8.2525505278895e-17 1.49666842225897e-16 1.0
outer loop
vertex -47.9152720537273 -10.3855728655038 11.1620215830866
vertex -50.542565858787 -9.45707526896549 11.1620215830866
vertex -50.620683889149 -9.98601952915245 11.1620215830866
endloop
endfacet
facet normal -8.2525505278895e-17 1.49666842225897e-16 1.0
outer loop
vertex -50.542565858787 -9.45707526896549 11.1620215830866
vertex -47.9152720537273 -10.3855728655038 11.1620215830866
vertex -50.480073016273 -6.73519035438388 11.1620215830866
endloop
endfacet
facet normal -8.2525505278895e-17 1.49666842225897e-16 1.0
outer loop
vertex -50.480073016273 -6.73519035438388 11.1620215830866
vertex -47.9152720537273 -10.3855728655038 11.1620215830866
vertex -50.1478264180542 -6.78425875686208 11.1620215830866
endloop
endfacet
facet normal -8.2525505278895e-17 1.49666842225897e-16 1.0
outer loop
vertex -50.1478264180542 -6.78425875686208 11.1620215830866
vertex -47.9152720537273 -10.3855728655038 11.1620215830866
vertex -50.0454233627153 -6.0908783926115 11.1620215830866
endloop
endfacet
facet normal -8.2525505278895e-17 1.49666842225897e-16 1.0
outer loop
vertex -50.0454233627153 -6.0908783926115 11.1620215830866
vertex -47.9152720537273 -10.3855728655038 11.1620215830866
vertex -48.9778499420204 3.43649816569956 11.1620215830866
endloop
endfacet
facet normal -8.2525505278895e-17 1.49666842225897e-16 1.0
outer loop
vertex -48.9778499420204 3.43649816569956 11.1620215830866
vertex -47.9152720537273 -10.3855728655038 11.1620215830866
vertex -48.9569690164679 3.5778848041901 11.1620215830866
endloop
endfacet
facet normal -8.2525505278895e-17 1.49666842225897e-16 1.0
outer loop
vertex -48.9569690164679 3.5778848041901 11.1620215830866
vertex -47.9152720537273 -10.3855728655038 11.1620215830866
vertex -47.8371540233652 -9.85662860531682 11.1620215830866
endloop
endfacet
facet normal -8.2525505278895e-17 1.49666842225897e-16 1.0
outer loop
vertex -48.9569690164679 3.5778848041901 11.1620215830866
vertex -47.8371540233652 -9.85662860531682 11.1620215830866
vertex -47.4424145826325 -7.18381209321346 11.1620215830866
endloop
endfacet
facet normal -8.2525505278895e-17 1.49666842225897e-16 1.0
outer loop
vertex -48.9569690164679 3.5778848041901 11.1620215830866
vertex -47.4424145826325 -7.18381209321346 11.1620215830866
vertex -47.3400115272937 -6.49043172896292 11.1620215830866
endloop
endfacet
facet normal -8.2525505278895e-17 1.49666842225897e-16 1.0
outer loop
vertex -48.9569690164679 3.5778848041901 11.1620215830866
vertex -47.3400115272937 -6.49043172896292 11.1620215830866
vertex -33.0097070829729 1.22268637274537 11.1620215830866
endloop
endfacet
facet normal -8.2525505278895e-17 1.49666842225897e-16 1.0
outer loop
vertex -33.0097070829729 1.22268637274537 11.1620215830866
vertex -47.3400115272937 -6.49043172896292 11.1620215830866
vertex -46.9196222095114 -6.55251763850432 11.1620215830866
endloop
endfacet
facet normal -8.2525505278895e-17 1.49666842225897e-16 1.0
outer loop
vertex -33.0097070829729 1.22268637274537 11.1620215830866
vertex -46.9196222095114 -6.55251763850432 11.1620215830866
vertex -35.0056685538727 -12.292149558119 11.1620215830866
endloop
endfacet
facet normal -8.2525505278895e-17 1.49666842225897e-16 1.0
outer loop
vertex -47.4167647055828 -9.91871451485833 11.1620215830866
vertex -47.4424145826325 -7.18381209321346 11.1620215830866
vertex -47.8371540233652 -9.85662860531682 11.1620215830866
endloop
endfacet
facet normal -8.2525505278895e-17 1.49666842225897e-16 1.0
outer loop
vertex -47.4424145826325 -7.18381209321346 11.1620215830866
vertex -47.4167647055828 -9.91871451485833 11.1620215830866
vertex -47.0220252648501 -7.24589800275493 11.1620215830866
endloop
endfacet
facet normal -8.2525505278895e-17 1.49666842225897e-16 1.0
outer loop
vertex -48.9778499420204 3.43649816569956 11.1620215830866
vertex -50.3776699609341 -6.04180999013334 11.1620215830866
vertex -50.0454233627153 -6.0908783926115 11.1620215830866
endloop
endfacet
facet normal -8.2525505278895e-17 1.49666842225897e-16 1.0
outer loop
vertex -50.480073016273 -6.73519035438388 11.1620215830866
vertex -50.8748124570056 -9.40800686648734 11.1620215830866
vertex -50.542565858787 -9.45707526896549 11.1620215830866
endloop
endfacet
facet normal -0.131403405965045 -0.889744365442914 0.437136259149674
outer loop
vertex 48.8460179222926 -24.6759281206232 6.11045023035206
vertex 45.373098651801 -24.7214664906898 4.97380023035206
vertex 48.7653039000088 -25.2224500772789 4.97380023035206
endloop
endfacet
facet normal -0.131403405965045 -0.889744365442914 0.437136259149674
outer loop
vertex 45.373098651801 -24.7214664906898 4.97380023035206
vertex 48.8460179222926 -24.6759281206232 6.11045023035206
vertex 45.4538126740848 -24.1749445340341 6.11045023035206
endloop
endfacet
facet normal -0.146101950011392 -0.989269538701596 -2.66832600518854e-18
outer loop
vertex 48.8460179222926 -24.6759281206232 6.11045023035206
vertex 45.4538126740848 -24.1749445340341 5.03295093150375
vertex 48.8460179222926 -24.6759281206232 5.03295093150375
endloop
endfacet
facet normal -0.146101950011392 -0.989269538701596 -2.66832600518854e-18
outer loop
vertex 45.4538126740848 -24.1749445340341 5.03295093150375
vertex 48.8460179222926 -24.6759281206232 6.11045023035206
vertex 45.4538126740848 -24.1749445340341 6.11045023035206
endloop
endfacet
facet normal 0.146101950011376 0.989269538701598 -4.30081771606607e-16
outer loop
vertex -50.5425658587869 -9.45707526896549 13.0359891330866
vertex -47.8371540233652 -9.85662860531682 12.4964512230866
vertex -50.542565858787 -9.45707526896549 12.4964512230866
endloop
endfacet
facet normal 0.146101950011376 0.989269538701598 -4.30081771606607e-16
outer loop
vertex -47.8371540233652 -9.85662860531682 12.4964512230866
vertex -50.5425658587869 -9.45707526896549 13.0359891330866
vertex -47.8371540233651 -9.85662860531684 13.0359891330866
endloop
endfacet
facet normal -0.989269538701596 0.14610195001139 5.31663726905762e-14
outer loop
vertex -47.4424145826324 -7.1838120932134 13.0359891330866
vertex -47.8371540233652 -9.85662860531682 12.4964512230866
vertex -47.8371540233651 -9.85662860531684 13.0359891330866
endloop
endfacet
facet normal -0.989269538701596 0.14610195001139 5.31663726905762e-14
outer loop
vertex -47.8371540233652 -9.85662860531682 12.4964512230866
vertex -47.4424145826324 -7.1838120932134 13.0359891330866
vertex -47.4424145826325 -7.18381209321346 12.4964512230866
endloop
endfacet
facet normal -0.146101950011387 -0.989269538701597 1.05556021501274e-13
outer loop
vertex -47.4424145826324 -7.1838120932134 13.0359891330866
vertex -50.1478264180542 -6.78425875686208 12.4964512230866
vertex -47.4424145826325 -7.18381209321346 12.4964512230866
endloop
endfacet
facet normal -0.146101950011387 -0.989269538701597 1.05556021501274e-13
outer loop
vertex -50.1478264180542 -6.78425875686208 12.4964512230866
vertex -47.4424145826324 -7.1838120932134 13.0359891330866
vertex -50.1478264180542 -6.78425875686204 13.0359891330866
endloop
endfacet
facet normal 0.989269538701594 -0.146101950011406 -1.15130495009698e-13
outer loop
vertex -50.1478264180542 -6.78425875686208 12.4964512230866
vertex -50.5425658587869 -9.45707526896549 13.0359891330866
vertex -50.542565858787 -9.45707526896549 12.4964512230866
endloop
endfacet
facet normal 0.989269538701594 -0.146101950011406 -1.15130495009698e-13
outer loop
vertex -50.5425658587869 -9.45707526896549 13.0359891330866
vertex -50.1478264180542 -6.78425875686208 12.4964512230866
vertex -50.1478264180542 -6.78425875686204 13.0359891330866
endloop
endfacet
facet normal 0.0 0.0 -1.0
outer loop
vertex -50.0454233627153 -6.0908783926115 12.4964512230866
vertex -47.4424145826325 -7.18381209321346 12.4964512230866
vertex -50.1478264180542 -6.78425875686208 12.4964512230866
endloop
endfacet
facet normal 0.0 0.0 -1.0
outer loop
vertex -47.4424145826325 -7.18381209321346 12.4964512230866
vertex -50.0454233627153 -6.0908783926115 12.4964512230866
vertex -47.3400115272937 -6.49043172896292 12.4964512230866
endloop
endfacet
facet normal 1.56347556439972e-15 -1.04118622280479e-15 -1.0
outer loop
vertex -47.4424145826325 -7.18381209321346 12.4964512230866
vertex -47.4167647055828 -9.91871451485833 12.4964512230866
vertex -47.8371540233652 -9.85662860531682 12.4964512230866
endloop
endfacet
facet normal 1.56347556439972e-15 -1.04118622280479e-15 -1.0
outer loop
vertex -47.4167647055828 -9.91871451485833 12.4964512230866
vertex -47.4424145826325 -7.18381209321346 12.4964512230866
vertex -47.0220252648501 -7.24589800275493 12.4964512230866
endloop
endfacet
facet normal 1.04457539231216e-15 -1.54269888822032e-16 -1.0
outer loop
vertex -50.542565858787 -9.45707526896549 12.4964512230866
vertex -47.9152720537273 -10.3855728655038 12.4964512230866
vertex -50.620683889149 -9.98601952915245 12.4964512230866
endloop
endfacet
facet normal 1.04457539231216e-15 -1.54269888822032e-16 -1.0
outer loop
vertex -47.9152720537273 -10.3855728655038 12.4964512230866
vertex -50.542565858787 -9.45707526896549 12.4964512230866
vertex -47.8371540233652 -9.85662860531682 12.4964512230866
endloop
endfacet
facet normal -0.989269538701597 0.146101950011389 -6.94735046789591e-18
outer loop
vertex -30.2766178454609 19.7286811867297 36.7955950320925
vertex -35.0056685538727 -12.292149558119 11.1620215830866
vertex -35.0056685538727 -12.292149558119 36.7955950320925
endloop
endfacet
facet normal -0.989269538701597 0.146101950011389 -6.94735046789591e-18
outer loop
vertex -35.0056685538727 -12.292149558119 11.1620215830866
vertex -30.2766178454609 19.7286811867297 36.7955950320925
vertex -33.0097070829729 1.22268637274537 12.3852487530866
endloop
endfacet
facet normal -0.989269538701597 0.146101950011389 -6.94735046789591e-18
outer loop
vertex -33.0097070829729 1.22268637274537 12.3852487530866
vertex -30.2766178454609 19.7286811867297 36.7955950320925
vertex -30.2773693224786 19.7235928677674 12.3852487530866
endloop
endfacet
facet normal -0.989269538701597 0.146101950011389 -6.94735046789591e-18
outer loop
vertex -30.2773693224786 19.7235928677674 12.3852487530866
vertex -30.2766178454609 19.7286811867297 36.7955950320925
vertex -30.2766178454609 19.7286811867297 12.3852487530866
endloop
endfacet
facet normal -0.989269538701597 0.146101950011389 -6.94735046789591e-18
outer loop
vertex -33.0097070829729 1.22268637274537 11.1620215830866
vertex -35.0056685538727 -12.292149558119 11.1620215830866
vertex -33.0097070829729 1.22268637274537 12.3852487530866
endloop
endfacet
facet normal -0.146101950011388 -0.989269538701597 -5.21589842260537e-18
outer loop
vertex -3.64114242476909 -16.6290044402334 2.97422490308665
vertex -8.65118938925399 -15.8890871552834 8.48755093339799
vertex -8.65118938925398 -15.8890871552834 2.97422490308665
endloop
endfacet
facet normal -0.146101950011388 -0.989269538701597 -5.21589842260537e-18
outer loop
vertex -8.65118938925399 -15.8890871552834 8.48755093339799
vertex -3.64114242476909 -16.6290044402334 2.97422490308665
vertex -3.64114242476909 -16.6290044402334 8.48755093339799
endloop
endfacet
facet normal -0.146101950011388 -0.989269538701597 -1.44106088973931e-16
outer loop
vertex -9.49646111476095 -16.0595201323618 2.97422490308665
vertex -35.0056685538727 -12.292149558119 11.1620215830866
vertex -35.0056685538727 -12.292149558119 2.97422490308664
endloop
endfacet
facet normal -0.146101950011388 -0.989269538701597 -1.44106088973931e-16
outer loop
vertex -35.0056685538727 -12.292149558119 11.1620215830866
vertex -9.49646111476095 -16.0595201323618 2.97422490308665
vertex -9.49646111476096 -16.0595201323618 9.29885191307036
endloop
endfacet
facet normal -0.146101950011388 -0.989269538701597 -1.44106088973931e-16
outer loop
vertex -35.0056685538727 -12.292149558119 11.1620215830866
vertex -9.49646111476096 -16.0595201323618 9.29885191307036
vertex -2.88122345845878 -17.0365027276645 9.29885191307036
endloop
endfacet
facet normal -0.146101950011388 -0.989269538701597 -1.44106088973931e-16
outer loop
vertex 21.5562130292066 -20.6455869908001 2.97422490308666
vertex -2.88122345845878 -17.0365027276645 9.29885191307036
vertex -2.88122345845878 -17.0365027276645 2.97422490308665
endloop
endfacet
facet normal -0.146101950011388 -0.989269538701597 -1.44106088973931e-16
outer loop
vertex -2.88122345845878 -17.0365027276645 9.29885191307036
vertex 21.5562130292066 -20.6455869908001 2.97422490308666
vertex 21.5562130292066 -20.6455869908001 36.7955950320925
endloop
endfacet
facet normal -0.146101950011388 -0.989269538701597 -1.44106088973931e-16
outer loop
vertex -2.88122345845878 -17.0365027276645 9.29885191307036
vertex 21.5562130292066 -20.6455869908001 36.7955950320925
vertex -35.0056685538727 -12.292149558119 11.1620215830866
endloop
endfacet
facet normal -0.146101950011388 -0.989269538701597 -1.44106088973931e-16
outer loop
vertex -35.0056685538727 -12.292149558119 11.1620215830866
vertex 21.5562130292066 -20.6455869908001 36.7955950320925
vertex 3.45046246382697 -17.9716085041142 36.7955950320925
endloop
endfacet
facet normal -0.146101950011388 -0.989269538701597 -1.44106088973931e-16
outer loop
vertex -35.0056685538727 -12.292149558119 11.1620215830866
vertex 3.45046246382697 -17.9716085041142 36.7955950320925
vertex -35.0056685538727 -12.292149558119 36.7955950320925
endloop
endfacet
facet normal -0.146101950011388 -0.989269538701597 -1.44106088973931e-16
outer loop
vertex -35.0056685538727 -12.292149558119 36.7955950320925
vertex 3.45046246382697 -17.9716085041142 36.7955950320925
vertex -15.9590642713431 -15.1050796220782 36.7955950320925
endloop
endfacet
facet normal -0.146101950011388 -0.989269538701597 -1.44106088973931e-16
outer loop
vertex 3.45046246382697 -17.9716085041142 38.4973950320925
vertex -14.7969198807534 -15.2767128878541 38.4973950320925
vertex 3.45046246382697 -17.9716085041142 36.7955950320925
endloop
endfacet
facet normal -0.146101950011388 -0.989269538701597 -1.44106088973931e-16
outer loop
vertex -14.7969198807534 -15.2767128878541 38.4973950320925
vertex 3.45046246382697 -17.9716085041142 38.4973950320925
vertex 1.92397010213347 -17.7461658901491 38.4973950320925
endloop
endfacet
facet normal -0.146101950011388 -0.989269538701597 -1.44106088973931e-16
outer loop
vertex -14.7969198807534 -15.2767128878541 38.4973950320925
vertex 1.92397010213347 -17.7461658901491 38.4973950320925
vertex -8.07288499741004 -16.269763386195 39.9633047011467
endloop
endfacet
facet normal -0.146101950011388 -0.989269538701597 -1.44106088973931e-16
outer loop
vertex -8.07288499741004 -16.269763386195 39.9633047011467
vertex 1.92397010213347 -17.7461658901491 38.4973950320925
vertex -4.23328575057737 -16.8368211144262 39.8487241354658
endloop
endfacet
facet normal -0.146101950011388 -0.989269538701597 -1.44106088973931e-16
outer loop
vertex -8.07288499741004 -16.269763386195 39.9633047011467
vertex -4.23328575057737 -16.8368211144262 39.8487241354658
vertex -4.23328575057737 -16.8368211144262 40.5271260286354
endloop
endfacet
facet normal -0.146101950011388 -0.989269538701597 -1.44106088973931e-16
outer loop
vertex -8.07288499741004 -16.269763386195 39.9633047011467
vertex -4.23328575057737 -16.8368211144262 40.5271260286354
vertex -8.07288499741004 -16.269763386195 40.5271260286354
endloop
endfacet
facet normal -0.146101950011388 -0.989269538701597 -1.44106088973931e-16
outer loop
vertex 3.45046246382697 -17.9716085041142 36.7955950320925
vertex -15.9590642713431 -15.1050796220782 38.4973950320925
vertex -15.9590642713431 -15.1050796220782 36.7955950320925
endloop
endfacet
facet normal -0.146101950011388 -0.989269538701597 -1.44106088973931e-16
outer loop
vertex -15.9590642713431 -15.1050796220782 38.4973950320925
vertex 3.45046246382697 -17.9716085041142 36.7955950320925
vertex -14.7969198807534 -15.2767128878541 38.4973950320925
endloop
endfacet
facet normal -0.146101950011388 -0.989269538701597 -2.3132225388949e-17
outer loop
vertex -2.90905587993595 -17.2249585747871 9.29885191307036
vertex -3.71165122584459 -17.1064259196108 2.97422490308665
vertex -2.90905587993595 -17.2249585747871 2.97422490308665
endloop
endfacet
facet normal -0.146101950011388 -0.989269538701597 -2.3132225388949e-17
outer loop
vertex -3.71165122584459 -17.1064259196108 2.97422490308665
vertex -2.90905587993595 -17.2249585747871 9.29885191307036
vertex -3.71165122584459 -17.1064259196108 8.48755093339799
endloop
endfacet
facet normal -0.146101950011388 -0.989269538701597 -2.3132225388949e-17
outer loop
vertex -3.71165122584459 -17.1064259196108 8.48755093339799
vertex -2.90905587993595 -17.2249585747871 9.29885191307036
vertex -9.52429353623812 -16.2479759794845 9.29885191307036
endloop
endfacet
facet normal -0.146101950011388 -0.989269538701597 -2.3132225388949e-17
outer loop
vertex -8.72169819032948 -16.3665086346608 8.48755093339799
vertex -9.52429353623812 -16.2479759794845 2.97422490308665
vertex -8.72169819032948 -16.3665086346608 2.97422490308665
endloop
endfacet
facet normal -0.146101950011388 -0.989269538701597 -2.3132225388949e-17
outer loop
vertex -9.52429353623812 -16.2479759794845 2.97422490308665
vertex -8.72169819032948 -16.3665086346608 8.48755093339799
vertex -9.52429353623812 -16.2479759794845 9.29885191307036
endloop
endfacet
facet normal -0.146101950011388 -0.989269538701597 -2.3132225388949e-17
outer loop
vertex -9.52429353623812 -16.2479759794845 9.29885191307036
vertex -8.72169819032948 -16.3665086346608 8.48755093339799
vertex -3.71165122584459 -17.1064259196108 8.48755093339799
endloop
endfacet
facet normal -0.989269538701597 0.146101950011387 -2.25835270899055e-16
outer loop
vertex -9.49646111476096 -16.0595201323618 9.29885191307036
vertex -9.52429353623812 -16.2479759794845 2.97422490308665
vertex -9.52429353623812 -16.2479759794845 9.29885191307036
endloop
endfacet
facet normal -0.989269538701597 0.146101950011387 -2.25835270899055e-16
outer loop
vertex -9.52429353623812 -16.2479759794845 2.97422490308665
vertex -9.49646111476096 -16.0595201323618 9.29885191307036
vertex -9.49646111476095 -16.0595201323618 2.97422490308665
endloop
endfacet
facet normal 0.989269538701597 -0.146101950011389 2.59593713737789e-16
outer loop
vertex -8.65118938925398 -15.8890871552834 2.97422490308665
vertex -8.72169819032948 -16.3665086346608 8.48755093339799
vertex -8.72169819032948 -16.3665086346608 2.97422490308665
endloop
endfacet
facet normal 0.989269538701597 -0.146101950011389 2.59593713737789e-16
outer loop
vertex -8.72169819032948 -16.3665086346608 8.48755093339799
vertex -8.65118938925398 -15.8890871552834 2.97422490308665
vertex -8.65118938925399 -15.8890871552834 8.48755093339799
endloop
endfacet
facet normal 0.989269538701597 -0.146101950011388 4.29211680032294e-16
outer loop
vertex 21.5562130292066 -20.6455869908001 2.97422490308666
vertex 26.2852637376184 11.3752437540485 36.7955950320925
vertex 21.5562130292066 -20.6455869908001 36.7955950320925
endloop
endfacet
facet normal 0.989269538701597 -0.146101950011388 4.29211680032294e-16
outer loop
vertex 26.2852637376184 11.3752437540485 36.7955950320925
vertex 21.5562130292066 -20.6455869908001 2.97422490308666
vertex 26.2852637376184 11.3752437540485 2.97422490308666
endloop
endfacet
facet normal -0.989269538701596 0.146101950011394 -6.55307134906505e-19
outer loop
vertex -15.8338183746958 -14.2570283100263 38.4973950320923
vertex -15.9590642713431 -15.1050796220782 36.7955950320925
vertex -15.9590642713431 -15.1050796220782 38.4973950320925
endloop
endfacet
facet normal -0.989269538701596 0.146101950011394 -6.55307134906505e-19
outer loop
vertex -15.9590642713431 -15.1050796220782 36.7955950320925
vertex -15.8338183746958 -14.2570283100263 38.4973950320923
vertex -15.8338183746958 -14.2570283100263 36.7955950320923
endloop
endfacet
facet normal 3.83872520645025e-14 2.5992356117706e-13 1.0
outer loop
vertex -14.7969198807534 -15.2767128878541 38.4973950320925
vertex -15.8338183746958 -14.2570283100263 38.4973950320923
vertex -15.9590642713431 -15.1050796220782 38.4973950320925
endloop
endfacet
facet normal 3.83872520645025e-14 2.5992356117706e-13 1.0
outer loop
vertex -15.8338183746958 -14.2570283100263 38.4973950320923
vertex -14.7969198807534 -15.2767128878541 38.4973950320925
vertex -14.6716739841061 -14.4286615758021 38.4973950320923
endloop
endfacet
facet normal -0.208561432723292 0.0308017489938008 0.977524107651229
outer loop
vertex -8.07288499741004 -16.269763386195 39.9633047011467
vertex -14.6716739841061 -14.4286615758021 38.4973950320923
vertex -14.7969198807534 -15.2767128878541 38.4973950320925
endloop
endfacet
facet normal -0.208561432723292 0.0308017489938008 0.977524107651229
outer loop
vertex -14.6716739841061 -14.4286615758021 38.4973950320923
vertex -8.07288499741004 -16.269763386195 39.9633047011467
vertex -7.94763910076277 -15.421712074143 39.9633047011465
endloop
endfacet
facet normal -0.989269538701603 0.146101950011348 -5.89284581494036e-14
outer loop
vertex -7.94763910076284 -15.421712074143 40.5271260286351
vertex -8.07288499741004 -16.269763386195 39.9633047011467
vertex -8.07288499741004 -16.269763386195 40.5271260286354
endloop
endfacet
facet normal -0.989269538701603 0.146101950011348 -5.89284581494036e-14
outer loop
vertex -8.07288499741004 -16.269763386195 39.9633047011467
vertex -7.94763910076284 -15.421712074143 40.5271260286351
vertex -7.94763910076277 -15.421712074143 39.9633047011465
endloop
endfacet
facet normal 0.989269538701603 -0.146101950011348 4.76394864630779e-14
outer loop
vertex -4.23328575057737 -16.8368211144262 39.8487241354658
vertex -4.10803985393018 -15.9887698023743 40.5271260286351
vertex -4.23328575057737 -16.8368211144262 40.5271260286354
endloop
endfacet
facet normal 0.989269538701603 -0.146101950011348 4.76394864630779e-14
outer loop
vertex -4.10803985393018 -15.9887698023743 40.5271260286351
vertex -4.23328575057737 -16.8368211144262 39.8487241354658
vertex -4.10803985393011 -15.9887698023743 39.8487241354655
endloop
endfacet
facet normal 0.20989452410145 -0.0309986288549083 0.977232507523845
outer loop
vertex 1.92397010213347 -17.7461658901491 38.4973950320925
vertex -4.10803985393011 -15.9887698023743 39.8487241354655
vertex -4.23328575057737 -16.8368211144262 39.8487241354658
endloop
endfacet
facet normal 0.20989452410145 -0.0309986288549083 0.977232507523845
outer loop
vertex -4.10803985393011 -15.9887698023743 39.8487241354655
vertex 1.92397010213347 -17.7461658901491 38.4973950320925
vertex 2.04921599878074 -16.8981145780971 38.4973950320923
endloop
endfacet
facet normal 3.83872520645034e-14 2.59923561177062e-13 1.0
outer loop
vertex 3.45046246382697 -17.9716085041142 38.4973950320925
vertex 2.04921599878074 -16.8981145780971 38.4973950320923
vertex 1.92397010213347 -17.7461658901491 38.4973950320925
endloop
endfacet
facet normal 3.83872520645034e-14 2.59923561177062e-13 1.0
outer loop
vertex 2.04921599878074 -16.8981145780971 38.4973950320923
vertex 3.45046246382697 -17.9716085041142 38.4973950320925
vertex 3.57570836047423 -17.1235571920622 38.4973950320923
endloop
endfacet
facet normal 0.989269538701597 -0.146101950011388 6.3013436782172e-16
outer loop
vertex 3.57570836047424 -17.1235571920622 36.7955950320923
vertex 3.45046246382697 -17.9716085041142 38.4973950320925
vertex 3.45046246382697 -17.9716085041142 36.7955950320925
endloop
endfacet
facet normal 0.989269538701597 -0.146101950011388 6.3013436782172e-16
outer loop
vertex 3.45046246382697 -17.9716085041142 38.4973950320925
vertex 3.57570836047424 -17.1235571920622 36.7955950320923
vertex 3.57570836047423 -17.1235571920622 38.4973950320923
endloop
endfacet
facet normal 4.03558290934528e-14 2.73252974570765e-13 1.0
outer loop
vertex -4.23328575057737 -16.8368211144262 40.5271260286354
vertex -7.94763910076284 -15.421712074143 40.5271260286351
vertex -8.07288499741004 -16.269763386195 40.5271260286354
endloop
endfacet
facet normal 4.03558290934528e-14 2.73252974570765e-13 1.0
outer loop
vertex -7.94763910076284 -15.421712074143 40.5271260286351
vertex -4.23328575057737 -16.8368211144262 40.5271260286354
vertex -4.10803985393018 -15.9887698023743 40.5271260286351
endloop
endfacet
facet normal 3.74855539325253e-17 -1.83850486201751e-16 1.0
outer loop
vertex -33.0097070829729 1.22268637274537 12.3852487530866
vertex -46.2238797789559 22.0838796181743 12.3852487530866
vertex -48.9569690164679 3.5778848041901 12.3852487530866
endloop
endfacet
facet normal 3.74855539325253e-17 -1.83850486201751e-16 1.0
outer loop
vertex -46.2238797789559 22.0838796181743 12.3852487530866
vertex -33.0097070829729 1.22268637274537 12.3852487530866
vertex -30.2910352030381 19.7308104386409 12.3852487530866
endloop
endfacet
facet normal 3.74855539325253e-17 -1.83850486201751e-16 1.0
outer loop
vertex -30.2910352030381 19.7308104386409 12.3852487530866
vertex -33.0097070829729 1.22268637274537 12.3852487530866
vertex -30.2773693224786 19.7235928677674 12.3852487530866
endloop
endfacet
facet normal 0.989269538701596 -0.146101950011394 2.01767855227846e-15
outer loop
vertex -46.9196222095114 -6.55251763850432 11.1620215830866
vertex -47.0220252648501 -7.24589800275493 12.4964512230866
vertex -47.0220252648501 -7.24589800275493 11.1620215830866
endloop
endfacet
facet normal 0.989269538701596 -0.146101950011394 2.01767855227846e-15
outer loop
vertex -47.4167647055828 -9.91871451485833 11.1620215830866
vertex -47.4948827359449 -10.4476587750453 13.0359891330866
vertex -47.4948827359449 -10.4476587750453 11.1620215830866
endloop
endfacet
facet normal 0.989269538701596 -0.146101950011394 2.01767855227846e-15
outer loop
vertex -47.4948827359449 -10.4476587750453 13.0359891330866
vertex -47.4167647055828 -9.91871451485833 11.1620215830866
vertex -47.4167647055828 -9.91871451485833 12.4964512230866
endloop
endfacet
facet normal 0.989269538701596 -0.146101950011394 2.01767855227846e-15
outer loop
vertex -47.4948827359449 -10.4476587750453 13.0359891330866
vertex -47.4167647055828 -9.91871451485833 12.4964512230866
vertex -46.9196222095114 -6.55251763850432 13.0359891330866
endloop
endfacet
facet normal 0.989269538701596 -0.146101950011394 2.01767855227846e-15
outer loop
vertex -46.9196222095114 -6.55251763850432 13.0359891330866
vertex -47.4167647055828 -9.91871451485833 12.4964512230866
vertex -47.0220252648501 -7.24589800275493 12.4964512230866
endloop
endfacet
facet normal 0.989269538701596 -0.146101950011394 2.01767855227846e-15
outer loop
vertex -46.9196222095114 -6.55251763850432 13.0359891330866
vertex -47.0220252648501 -7.24589800275493 12.4964512230866
vertex -46.9196222095114 -6.55251763850432 11.1620215830866
endloop
endfacet
facet normal -5.15064170868369e-13 -7.75189145853076e-13 1.0
outer loop
vertex -30.2766178454609 19.7286811867297 12.3852487530866
vertex -30.2910352030381 19.7308104386409 12.3852487530866
vertex -30.2773693224786 19.7235928677674 12.3852487530866
endloop
endfacet
facet normal -0.989269538701595 0.146101950011401 -1.71037944096268e-31
outer loop
vertex -47.3400115272937 -6.49043172896292 12.4964512230866
vertex -47.4424145826325 -7.18381209321346 11.1620215830866
vertex -47.4424145826325 -7.18381209321346 12.4964512230866
endloop
endfacet
facet normal -0.989269538701595 0.146101950011401 -1.71037944096268e-31
outer loop
vertex -47.4424145826325 -7.18381209321346 11.1620215830866
vertex -47.3400115272937 -6.49043172896292 12.4964512230866
vertex -47.3400115272937 -6.49043172896292 11.1620215830866
endloop
endfacet
facet normal 0.989269538701574 -0.146101950011544 -0.0
outer loop
vertex -50.0454233627153 -6.0908783926115 11.1620215830866
vertex -50.1478264180542 -6.78425875686208 12.4964512230866
vertex -50.1478264180542 -6.78425875686208 11.1620215830866
endloop
endfacet
facet normal 0.989269538701574 -0.146101950011544 -0.0
outer loop
vertex -50.1478264180542 -6.78425875686208 12.4964512230866
vertex -50.0454233627153 -6.0908783926115 11.1620215830866
vertex -50.0454233627153 -6.0908783926115 12.4964512230866
endloop
endfacet
facet normal -0.146101950011385 -0.989269538701597 1.08733042144935e-19
outer loop
vertex -47.0220252648501 -7.24589800275493 12.4964512230866
vertex -47.4424145826325 -7.18381209321346 11.1620215830866
vertex -47.0220252648501 -7.24589800275493 11.1620215830866
endloop
endfacet
facet normal -0.146101950011385 -0.989269538701597 1.08733042144935e-19
outer loop
vertex -47.4424145826325 -7.18381209321346 11.1620215830866
vertex -47.0220252648501 -7.24589800275493 12.4964512230866
vertex -47.4424145826325 -7.18381209321346 12.4964512230866
endloop
endfacet
facet normal 0.146101950011491 0.989269538701582 -0.0
outer loop
vertex -47.8371540233652 -9.85662860531682 12.4964512230866
vertex -47.4167647055828 -9.91871451485833 11.1620215830866
vertex -47.8371540233652 -9.85662860531682 11.1620215830866
endloop
endfacet
facet normal 0.146101950011491 0.989269538701582 -0.0
outer loop
vertex -47.4167647055828 -9.91871451485833 11.1620215830866
vertex -47.8371540233652 -9.85662860531682 12.4964512230866
vertex -47.4167647055828 -9.91871451485833 12.4964512230866
endloop
endfacet
facet normal 0.0 0.0 -1.0
outer loop
vertex -50.480073016273 -6.73519035438388 12.4964512230866
vertex -50.542565858787 -9.45707526896549 12.4964512230866
vertex -50.8748124570056 -9.40800686648734 12.4964512230866
endloop
endfacet
facet normal 0.0 0.0 -1.0
outer loop
vertex -50.542565858787 -9.45707526896549 12.4964512230866
vertex -50.480073016273 -6.73519035438388 12.4964512230866
vertex -50.1478264180542 -6.78425875686208 12.4964512230866
endloop
endfacet
facet normal -0.989269538701612 0.146101950011285 0.0
outer loop
vertex -47.8371540233652 -9.85662860531682 12.4964512230866
vertex -47.9152720537273 -10.3855728655038 11.1620215830866
vertex -47.9152720537273 -10.3855728655038 12.4964512230866
endloop
endfacet
facet normal -0.989269538701612 0.146101950011285 0.0
outer loop
vertex -47.9152720537273 -10.3855728655038 11.1620215830866
vertex -47.8371540233652 -9.85662860531682 12.4964512230866
vertex -47.8371540233652 -9.85662860531682 11.1620215830866
endloop
endfacet
facet normal 0.989269538701636 -0.14610195001112 4.62213004197167e-19
outer loop
vertex -50.542565858787 -9.45707526896549 11.1620215830866
vertex -50.620683889149 -9.98601952915245 12.4964512230866
vertex -50.620683889149 -9.98601952915245 11.1620215830866
endloop
endfacet
facet normal 0.989269538701636 -0.14610195001112 4.62213004197167e-19
outer loop
vertex -50.620683889149 -9.98601952915245 12.4964512230866
vertex -50.542565858787 -9.45707526896549 11.1620215830866
vertex -50.542565858787 -9.45707526896549 12.4964512230866
endloop
endfacet
endsolid Galssworks
