solid heyburn
facet normal -0.101056297182945 -0.994880708828788 7.35900138522343e-15
outer loop
vertex -53.2543946354252 -36.7775865681997 9.87286274937735
vertex -37.4859333527724 -38.3792884560306 -0.124987356451385
vertex -37.4859333527724 -38.3792884560305 9.87286274937734
endloop
endfacet
facet normal -0.101056297182945 -0.994880708828788 7.35900138522343e-15
outer loop
vertex -37.4859333527724 -38.3792884560306 -0.124987356451385
vertex -53.2543946354252 -36.7775865681997 9.87286274937735
vertex -53.2543946354252 -36.7775865681997 -0.124987356451384
endloop
endfacet
facet normal -0.101056297182947 -0.994880708828788 1.87730640438161e-14
outer loop
vertex -6.62758539504031 1.42887071999019 5.46556579448031
vertex -1.0251235340773 0.859793396695703 5.4655657944803
vertex -5.56108314984029 1.32053937244224 25.8916838354189
endloop
endfacet
facet normal -0.101056297182947 -0.994880708828788 1.87730640438161e-14
outer loop
vertex -11.6385109358625 1.93786197504469 75.7702126435481
vertex -1.0251235340773 0.859793396695703 5.4655657944803
vertex -1.02512353407691 0.859793396696997 75.7702126435481
endloop
endfacet
facet normal -0.101056297182947 -0.994880708828788 1.87730640438161e-14
outer loop
vertex -1.0251235340773 0.859793396695703 5.4655657944803
vertex -11.6385109358625 1.93786197504469 75.7702126435481
vertex -5.56108314984029 1.32053937244224 25.8916838354189
endloop
endfacet
facet normal -0.101056297182947 -0.994880708828788 1.87730640438161e-14
outer loop
vertex -5.56108314984029 1.32053937244224 25.8916838354189
vertex -11.6385109358625 1.93786197504469 75.7702126435481
vertex -8.52080185581289 1.6211766352562 25.8916838354189
endloop
endfacet
facet normal -0.101056297182947 -0.994880708828788 1.87730640438161e-14
outer loop
vertex -8.52080185581289 1.6211766352562 25.8916838354189
vertex -11.6385109358625 1.93786197504469 75.7702126435481
vertex -11.6385109358627 1.93786197504371 25.8916838354189
endloop
endfacet
facet normal -0.994880708828788 0.101056297182945 -7.02827559761516e-16
outer loop
vertex -53.2543946354252 -36.7775865681997 9.87286274937735
vertex -51.9892608465713 -24.3225764826867 -0.124987356451514
vertex -53.2543946354252 -36.7775865681997 -0.124987356451384
endloop
endfacet
facet normal -0.994880708828788 0.101056297182945 -7.02827559761516e-16
outer loop
vertex -51.9892608465713 -24.3225764826867 -0.124987356451514
vertex -53.2543946354252 -36.7775865681997 9.87286274937735
vertex -52.0796059914223 -25.2120078615733 9.87286274937723
endloop
endfacet
facet normal 1.04554787080408e-15 1.02270880575596e-14 1.0
outer loop
vertex -1.02512353407691 0.859793396696997 75.7702126435481
vertex -1.49840580885127 1.44009479869108 75.770212643548
vertex -11.6385109358625 1.93786197504469 75.7702126435481
endloop
endfacet
facet normal 1.04554787080408e-15 1.02270880575596e-14 1.0
outer loop
vertex -1.49840580885127 1.44009479869108 75.770212643548
vertex -1.02512353407691 0.859793396696997 75.7702126435481
vertex 0.663208864514031 17.4811161669932 75.7702126435479
endloop
endfacet
facet normal 1.04554787080408e-15 1.02270880575596e-14 1.0
outer loop
vertex -1.49840580885127 1.44009479869108 75.770212643548
vertex 0.663208864514031 17.4811161669932 75.7702126435479
vertex 0.0829074625199554 17.0078338922189 75.7702126435479
endloop
endfacet
facet normal 1.04554787080408e-15 1.02270880575596e-14 1.0
outer loop
vertex 0.0829074625199554 17.0078338922189 75.7702126435479
vertex 0.663208864514031 17.4811161669932 75.7702126435479
vertex -9.47689626249717 17.9788833433468 75.7702126435479
endloop
endfacet
facet normal 1.04554787080408e-15 1.02270880575596e-14 1.0
outer loop
vertex -11.6385109358625 1.93786197504469 75.7702126435481
vertex -11.0582095338684 2.41114424981901 75.770212643548
vertex -10.8240561220724 9.95602021990493 75.770212643548
endloop
endfacet
facet normal 1.04554787080408e-15 1.02270880575596e-14 1.0
outer loop
vertex -11.0582095338684 2.41114424981901 75.770212643548
vertex -11.6385109358625 1.93786197504469 75.7702126435481
vertex -1.49840580885127 1.44009479869108 75.770212643548
endloop
endfacet
facet normal 1.04554787080408e-15 1.02270880575596e-14 1.0
outer loop
vertex -10.8240561220724 9.95602021990493 75.770212643548
vertex -11.0582095338684 2.41114424981901 75.770212643548
vertex -10.2972642836882 9.90251065629504 75.770212643548
endloop
endfacet
facet normal 1.04554787080408e-15 1.02270880575596e-14 1.0
outer loop
vertex -10.8240561220724 9.95602021990493 75.770212643548
vertex -10.2972642836882 9.90251065629504 75.770212643548
vertex -9.47689626249717 17.9788833433468 75.7702126435479
endloop
endfacet
facet normal 1.04554787080408e-15 1.02270880575596e-14 1.0
outer loop
vertex -10.8240561220724 9.95602021990493 75.770212643548
vertex -9.47689626249717 17.9788833433468 75.7702126435479
vertex -9.9501785372715 18.5591847453409 75.7702126435479
endloop
endfacet
facet normal 1.04554787080408e-15 1.02270880575596e-14 1.0
outer loop
vertex -9.9501785372715 18.5591847453409 75.7702126435479
vertex -9.47689626249717 17.9788833433468 75.7702126435479
vertex 0.663208864514031 17.4811161669932 75.7702126435479
endloop
endfacet
facet normal 0.101056297182947 0.994880708828788 -1.57175453338377e-14
outer loop
vertex -9.95017853727155 18.5591847453407 69.4151962198961
vertex -0.110716143911273 17.5597286025894 69.9469967574402
vertex -0.110716143911278 17.5597286025893 69.4151962198961
endloop
endfacet
facet normal 0.101056297182947 0.994880708828788 -1.57175453338377e-14
outer loop
vertex -0.110716143911273 17.5597286025894 69.9469967574402
vertex -9.95017853727155 18.5591847453407 69.4151962198961
vertex -9.9501785372715 18.5591847453409 75.7702126435479
endloop
endfacet
facet normal 0.101056297182947 0.994880708828788 -1.57175453338377e-14
outer loop
vertex 0.663208864513963 17.4811161669931 69.9469967574402
vertex -9.9501785372715 18.5591847453409 75.7702126435479
vertex 0.663208864514031 17.4811161669932 75.7702126435479
endloop
endfacet
facet normal 0.101056297182947 0.994880708828788 -1.57175453338377e-14
outer loop
vertex -9.9501785372715 18.5591847453409 75.7702126435479
vertex 0.663208864513963 17.4811161669931 69.9469967574402
vertex -0.110716143911273 17.5597286025894 69.9469967574402
endloop
endfacet
facet normal -0.994880708828788 0.10105629718295 4.98176498498226e-15
outer loop
vertex -10.8240561220724 9.95602021990463 69.4151962198963
vertex -9.9501785372715 18.5591847453409 75.7702126435479
vertex -9.95017853727155 18.5591847453407 69.4151962198961
endloop
endfacet
facet normal -0.994880708828788 0.10105629718295 4.98176498498226e-15
outer loop
vertex -9.9501785372715 18.5591847453409 75.7702126435479
vertex -10.8240561220724 9.95602021990463 69.4151962198963
vertex -10.8240561220724 9.95602021990493 75.770212643548
endloop
endfacet
facet normal 0.994880708828788 -0.101056297182948 -2.67384589740152e-15
outer loop
vertex -32.5105886250199 10.6020677523103 36.3110792184634
vertex -33.6948347553838 -1.05661817273557 5.46556579448036
vertex -32.5105886250201 10.6020677523096 5.46556579448023
endloop
endfacet
facet normal 0.994880708828788 -0.101056297182948 -2.67384589740152e-15
outer loop
vertex -33.6948347553838 -1.05661817273557 5.46556579448036
vertex -32.5105886250199 10.6020677523103 36.3110792184634
vertex -34.1849900390698 -5.88210703056342 9.87286274937697
endloop
endfacet
facet normal 0.994880708828788 -0.101056297182948 -2.67384589740152e-15
outer loop
vertex -34.1849900390698 -5.88210703056342 9.87286274937697
vertex -32.5105886250199 10.6020677523103 36.3110792184634
vertex -34.1849900390697 -5.88210703056301 29.8369803546623
endloop
endfacet
facet normal 0.994880708828788 -0.101056297182948 -2.67384589740152e-15
outer loop
vertex -33.6948347553838 -1.05661817273562 -0.124987356451793
vertex -34.1849900390698 -5.88210703056342 9.87286274937697
vertex -34.220925658348 -6.23588661062306 -0.124987356451736
endloop
endfacet
facet normal 0.994880708828788 -0.101056297182948 -2.67384589740152e-15
outer loop
vertex -34.1849900390698 -5.88210703056342 9.87286274937697
vertex -33.6948347553838 -1.05661817273562 -0.124987356451793
vertex -33.6948347553838 -1.05661817273557 5.46556579448036
endloop
endfacet
facet normal -0.101056297182909 -0.994880708828792 2.78279776986069e-14
outer loop
vertex -26.4508427165927 9.98654120933859 69.9469967574405
vertex -10.9805741813979 8.41512863623333 28.5945276320405
vertex -10.9805741813978 8.41512863623413 69.9469967574404
endloop
endfacet
facet normal -0.101056297182909 -0.994880708828792 2.78279776986069e-14
outer loop
vertex -10.9805741813979 8.41512863623333 28.5945276320405
vertex -26.4508427165927 9.98654120933859 69.9469967574405
vertex -26.4508427165928 9.98654120933692 34.139211567123
endloop
endfacet
facet normal 0.994880708828788 -0.101056297182946 9.22840010443721e-16
outer loop
vertex -34.220925658348 -6.23588661062306 -0.124987356451736
vertex -37.4859333527724 -38.3792884560305 9.87286274937734
vertex -37.4859333527724 -38.3792884560306 -0.124987356451385
endloop
endfacet
facet normal 0.994880708828788 -0.101056297182946 9.22840010443721e-16
outer loop
vertex -37.4859333527724 -38.3792884560305 9.87286274937734
vertex -34.220925658348 -6.23588661062306 -0.124987356451736
vertex -34.1849900390698 -5.88210703056342 9.87286274937697
endloop
endfacet
facet normal -0.101056297182947 -0.994880708828788 1.53216746455865e-14
outer loop
vertex -49.9534513217226 -4.28040514273258 9.87286274937698
vertex -34.1849900390698 -5.88210703056342 9.87286274937697
vertex -49.9534513217226 -4.28040514273253 15.1471792236007
endloop
endfacet
facet normal -0.101056297183034 -0.994880708828779 3.30465871761e-14
outer loop
vertex -32.5105886250198 10.6020677523109 69.9469967574405
vertex -26.4508427165928 9.98654120933692 34.139211567123
vertex -26.4508427165927 9.98654120933859 69.9469967574405
endloop
endfacet
facet normal -0.101056297183034 -0.994880708828779 3.30465871761e-14
outer loop
vertex -26.4508427165928 9.98654120933692 34.139211567123
vertex -32.5105886250198 10.6020677523109 69.9469967574405
vertex -32.5105886250199 10.6020677523103 36.3110792184634
endloop
endfacet
facet normal -0.101056297182932 -0.99488070882879 4.45119065324482e-14
outer loop
vertex -26.4508427165928 9.98654120933692 34.139211567123
vertex -10.9805741813982 8.41512863623134 5.46556579448023
vertex -10.9805741813979 8.41512863623333 28.5945276320405
endloop
endfacet
facet normal -0.101056297182932 -0.99488070882879 4.45119065324482e-14
outer loop
vertex -10.9805741813982 8.41512863623134 5.46556579448023
vertex -26.4508427165928 9.98654120933692 34.139211567123
vertex -26.4508427165929 9.98654120933645 5.46556579448024
endloop
endfacet
facet normal -0.101056297182947 -0.994880708828788 1.80770109247097e-14
outer loop
vertex -11.6385109358627 1.93786197504371 25.8916838354189
vertex -11.2224237789728 1.8955973829093 5.46556579448031
vertex -8.52080185581289 1.6211766352562 25.8916838354189
endloop
endfacet
facet normal -0.101056297182947 -0.994880708828788 1.80770109247097e-14
outer loop
vertex -11.2224237789728 1.8955973829093 5.46556579448031
vertex -11.6385109358627 1.93786197504371 25.8916838354189
vertex -11.6385109358628 1.93786197504338 5.46556579448031
endloop
endfacet
facet normal -0.101056297182947 -0.994880708828788 1.80625881529795e-14
outer loop
vertex -8.52080185581289 1.6211766352562 25.8916838354189
vertex -6.62758539504031 1.42887071999019 5.46556579448031
vertex -5.56108314984029 1.32053937244224 25.8916838354189
endloop
endfacet
facet normal -0.101056297182947 -0.994880708828788 1.80625881529795e-14
outer loop
vertex -6.62758539504031 1.42887071999019 5.46556579448031
vertex -8.52080185581289 1.6211766352562 25.8916838354189
vertex -11.2224237789728 1.8955973829093 5.46556579448031
endloop
endfacet
facet normal 0.101056297182939 0.994880708828789 -3.58714197606058e-14
outer loop
vertex 1.34534392331339 24.1966106956216 -0.124987356452109
vertex -22.6105876407167 26.6299654867495 15.9314736867568
vertex 1.34534392331348 24.1966106956221 18.6901360276515
endloop
endfacet
facet normal 0.101056297182939 0.994880708828789 -3.58714197606058e-14
outer loop
vertex -22.6105876407167 26.6299654867495 15.9314736867568
vertex 1.34534392331339 24.1966106956216 -0.124987356452109
vertex -22.6105876407167 26.6299654867495 15.1081140234918
endloop
endfacet
facet normal 0.101056297182939 0.994880708828789 -3.58714197606058e-14
outer loop
vertex -22.6105876407167 26.6299654867495 15.1081140234918
vertex 1.34534392331339 24.1966106956216 -0.124987356452109
vertex -22.6105876407168 26.6299654867487 -0.124987356452106
endloop
endfacet
facet normal 0.101056297182956 0.994880708828787 -3.41177598973676e-14
outer loop
vertex -46.5665192047469 29.0633202778768 -0.124987356452105
vertex -22.6105876407167 26.6299654867495 15.1081140234918
vertex -22.6105876407168 26.6299654867487 -0.124987356452106
endloop
endfacet
facet normal 0.101056297182956 0.994880708828787 -3.41177598973676e-14
outer loop
vertex -22.6105876407167 26.6299654867495 15.1081140234918
vertex -46.5665192047469 29.0633202778768 -0.124987356452105
vertex -45.4512972142766 28.9500401590714 17.2879071949693
endloop
endfacet
facet normal 0.101056297182956 0.994880708828787 -3.41177598973676e-14
outer loop
vertex -45.4512972142766 28.9500401590714 17.2879071949693
vertex -46.5665192047469 29.0633202778768 -0.124987356452105
vertex -46.5665192047469 29.0633202778773 17.3943379199728
endloop
endfacet
facet normal -0.10105629718311 -0.994880708828772 1.91236327333367e-14
outer loop
vertex -26.4508427165928 9.98654120933692 34.139211567123
vertex -32.5105886250201 10.6020677523096 5.46556579448023
vertex -26.4508427165929 9.98654120933645 5.46556579448024
endloop
endfacet
facet normal -0.10105629718311 -0.994880708828772 1.91236327333367e-14
outer loop
vertex -32.5105886250201 10.6020677523096 5.46556579448023
vertex -26.4508427165928 9.98654120933692 34.139211567123
vertex -32.5105886250199 10.6020677523103 36.3110792184634
endloop
endfacet
facet normal -0.994880708828788 0.101056297182948 2.68333719727327e-15
outer loop
vertex -11.6385109358628 1.93786197504338 5.46556579448031
vertex -10.9805741813979 8.41512863623333 28.5945276320405
vertex -10.9805741813982 8.41512863623134 5.46556579448023
endloop
endfacet
facet normal -0.994880708828788 0.101056297182948 2.68333719727327e-15
outer loop
vertex -10.9805741813979 8.41512863623333 28.5945276320405
vertex -11.6385109358628 1.93786197504338 5.46556579448031
vertex -11.6385109358627 1.93786197504371 25.8916838354189
endloop
endfacet
facet normal -0.994880708828788 0.101056297182948 2.68333719727327e-15
outer loop
vertex -10.9805741813979 8.41512863623333 28.5945276320405
vertex -11.6385109358627 1.93786197504371 25.8916838354189
vertex -11.6385109358625 1.93786197504469 75.7702126435481
endloop
endfacet
facet normal -0.994880708828788 0.101056297182948 2.68333719727327e-15
outer loop
vertex -10.9805741813979 8.41512863623333 28.5945276320405
vertex -11.6385109358625 1.93786197504469 75.7702126435481
vertex -10.9805741813978 8.41512863623413 69.9469967574404
endloop
endfacet
facet normal -0.994880708828788 0.101056297182948 2.68333719727327e-15
outer loop
vertex -10.9805741813978 8.41512863623413 69.9469967574404
vertex -11.6385109358625 1.93786197504469 75.7702126435481
vertex -10.8240561220724 9.95602021990493 75.770212643548
endloop
endfacet
facet normal -0.994880708828788 0.101056297182948 2.68333719727327e-15
outer loop
vertex -10.9019617458015 9.18905364465942 69.9469967574403
vertex -10.8240561220724 9.95602021990463 69.4151962198963
vertex -10.9019617458015 9.1890536446594 69.4151962198963
endloop
endfacet
facet normal -0.994880708828788 0.101056297182948 2.68333719727327e-15
outer loop
vertex -10.8240561220724 9.95602021990463 69.4151962198963
vertex -10.9019617458015 9.18905364465942 69.9469967574403
vertex -10.8240561220724 9.95602021990493 75.770212643548
endloop
endfacet
facet normal -0.994880708828788 0.101056297182948 2.68333719727327e-15
outer loop
vertex -10.8240561220724 9.95602021990493 75.770212643548
vertex -10.9019617458015 9.18905364465942 69.9469967574403
vertex -10.9805741813978 8.41512863623413 69.9469967574404
endloop
endfacet
facet normal -0.994880708828788 0.101056297182946 2.69624878301448e-15
outer loop
vertex -0.110716143911273 17.5597286025894 69.9469967574402
vertex 0.519758193750921 23.7666328078384 69.415196219896
vertex -0.110716143911278 17.5597286025893 69.4151962198961
endloop
endfacet
facet normal -0.994880708828788 0.101056297182946 2.69624878301448e-15
outer loop
vertex 0.519758193750921 23.7666328078384 69.415196219896
vertex -0.110716143911273 17.5597286025894 69.9469967574402
vertex 0.519758193750925 23.7666328078385 69.9469967574401
endloop
endfacet
facet normal -0.101056297182947 -0.994880708828788 3.07399041988206e-14
outer loop
vertex 0.519758193750925 23.7666328078385 69.9469967574401
vertex -45.8442549174588 28.4761175189012 69.415196219896
vertex 0.519758193750921 23.7666328078384 69.415196219896
endloop
endfacet
facet normal -0.101056297182947 -0.994880708828788 3.07399041988206e-14
outer loop
vertex -45.8442549174588 28.4761175189012 69.415196219896
vertex 0.519758193750925 23.7666328078385 69.9469967574401
vertex -45.8442549174589 28.4761175189012 69.9469967574401
endloop
endfacet
facet normal 0.994880708828788 -0.101056297182948 -2.69624878301443e-15
outer loop
vertex -45.8442549174589 28.4761175189012 69.9469967574401
vertex -49.136849496979 -3.93887214996214 69.4151962198971
vertex -45.8442549174588 28.4761175189012 69.415196219896
endloop
endfacet
facet normal 0.994880708828788 -0.101056297182948 -2.69624878301443e-15
outer loop
vertex -49.136849496979 -3.93887214996214 69.4151962198971
vertex -45.8442549174589 28.4761175189012 69.9469967574401
vertex -49.1368494969791 -3.93887214996212 69.9469967574412
endloop
endfacet
facet normal 0.10105629718293 0.99488070882879 -3.07399041988205e-14
outer loop
vertex -49.136849496979 -3.93887214996214 69.4151962198971
vertex -34.9162382311767 -5.38334916660032 69.9469967574412
vertex -34.9162382311767 -5.38334916660034 69.4151962198971
endloop
endfacet
facet normal 0.10105629718293 0.99488070882879 -3.07399041988205e-14
outer loop
vertex -34.9162382311767 -5.38334916660032 69.9469967574412
vertex -49.136849496979 -3.93887214996214 69.4151962198971
vertex -49.1368494969791 -3.93887214996212 69.9469967574412
endloop
endfacet
facet normal -0.994880708828788 0.101056297182946 -3.60367407623529e-15
outer loop
vertex -34.9162382311767 -5.38334916660034 69.4151962198971
vertex -33.284513633445 10.6806801879071 69.9469967574404
vertex -33.284513633445 10.6806801879071 69.4151962198964
endloop
endfacet
facet normal -0.994880708828788 0.101056297182946 -3.60367407623529e-15
outer loop
vertex -33.284513633445 10.6806801879071 69.9469967574404
vertex -34.9162382311767 -5.38334916660034 69.4151962198971
vertex -34.9162382311767 -5.38334916660032 69.9469967574412
endloop
endfacet
facet normal 0.101056297182945 0.994880708828788 -3.44820751110701e-14
outer loop
vertex -25.2929566320321 10.6508375983288 69.4151962198963
vertex -10.9019617458015 9.18905364465942 69.9469967574403
vertex -10.9019617458015 9.1890536446594 69.4151962198963
endloop
endfacet
facet normal 0.101056297182945 0.994880708828788 -3.44820751110701e-14
outer loop
vertex -10.9019617458015 9.18905364465942 69.9469967574403
vertex -25.2929566320321 10.6508375983288 69.4151962198963
vertex -25.2929566320321 10.6508375983288 69.9469967574404
endloop
endfacet
facet normal 2.00098662154646e-15 1.1665031799464e-14 1.0
outer loop
vertex 0.082907462519951 17.0078338922189 75.4112472807056
vertex -11.0582095338684 2.41114424981901 75.4112472807058
vertex -1.49840580885127 1.44009479869107 75.4112472807058
endloop
endfacet
facet normal 2.00098662154646e-15 1.1665031799464e-14 1.0
outer loop
vertex -11.0582095338684 2.41114424981901 75.4112472807058
vertex 0.082907462519951 17.0078338922189 75.4112472807056
vertex -10.2972642836882 9.90251065629504 75.4112472807057
endloop
endfacet
facet normal 2.00098662154646e-15 1.1665031799464e-14 1.0
outer loop
vertex -10.2972642836882 9.90251065629504 75.4112472807057
vertex 0.082907462519951 17.0078338922189 75.4112472807056
vertex -9.47689626249717 17.9788833433468 75.4112472807057
endloop
endfacet
facet normal 0.101056297182946 0.994880708828788 -1.17255537731156e-14
outer loop
vertex -1.49840580885127 1.44009479869107 75.4112472807058
vertex -11.0582095338684 2.41114424981901 75.770212643548
vertex -1.49840580885127 1.44009479869108 75.770212643548
endloop
endfacet
facet normal 0.101056297182946 0.994880708828788 -1.17255537731156e-14
outer loop
vertex -11.0582095338684 2.41114424981901 75.770212643548
vertex -1.49840580885127 1.44009479869107 75.4112472807058
vertex -11.0582095338684 2.41114424981901 75.4112472807058
endloop
endfacet
facet normal -0.994880708828788 0.101056297182949 7.49209705325882e-16
outer loop
vertex -1.49840580885127 1.44009479869107 75.4112472807058
vertex 0.0829074625199554 17.0078338922189 75.7702126435479
vertex 0.082907462519951 17.0078338922189 75.4112472807056
endloop
endfacet
facet normal -0.994880708828788 0.101056297182949 7.49209705325882e-16
outer loop
vertex 0.0829074625199554 17.0078338922189 75.7702126435479
vertex -1.49840580885127 1.44009479869107 75.4112472807058
vertex -1.49840580885127 1.44009479869108 75.770212643548
endloop
endfacet
facet normal -0.101056297182947 -0.994880708828788 1.17255537731156e-14
outer loop
vertex -9.47689626249717 17.9788833433468 75.7702126435479
vertex 0.082907462519951 17.0078338922189 75.4112472807056
vertex 0.0829074625199554 17.0078338922189 75.7702126435479
endloop
endfacet
facet normal -0.101056297182947 -0.994880708828788 1.17255537731156e-14
outer loop
vertex 0.082907462519951 17.0078338922189 75.4112472807056
vertex -9.47689626249717 17.9788833433468 75.7702126435479
vertex -9.47689626249717 17.9788833433468 75.4112472807057
endloop
endfacet
facet normal 0.994880708828788 -0.101056297182951 -7.49209705325856e-16
outer loop
vertex -9.47689626249717 17.9788833433468 75.4112472807057
vertex -10.2972642836882 9.90251065629504 75.770212643548
vertex -10.2972642836882 9.90251065629504 75.4112472807057
endloop
endfacet
facet normal 0.994880708828788 -0.101056297182951 -7.49209705325856e-16
outer loop
vertex -10.2972642836882 9.90251065629504 75.770212643548
vertex -9.47689626249717 17.9788833433468 75.4112472807057
vertex -9.47689626249717 17.9788833433468 75.7702126435479
endloop
endfacet
facet normal 0.994880708828788 -0.101056297182947 -7.49209705325908e-16
outer loop
vertex -10.2972642836882 9.90251065629504 75.770212643548
vertex -11.0582095338684 2.41114424981901 75.4112472807058
vertex -10.2972642836882 9.90251065629504 75.4112472807057
endloop
endfacet
facet normal 0.994880708828788 -0.101056297182947 -7.49209705325908e-16
outer loop
vertex -11.0582095338684 2.41114424981901 75.4112472807058
vertex -10.2972642836882 9.90251065629504 75.770212643548
vertex -11.0582095338684 2.41114424981901 75.770212643548
endloop
endfacet
facet normal 0.101056297182947 0.994880708828788 -1.66715071841199e-14
outer loop
vertex -45.4512972142766 28.9500401590714 17.2879071949693
vertex -22.6105876407167 26.6299654867495 15.9314736867568
vertex -22.6105876407167 26.6299654867495 15.1081140234918
endloop
endfacet
facet normal 0.101056297182947 0.994880708828788 -1.66715071841199e-14
outer loop
vertex 1.34534392331348 24.1966106956221 18.6901360276515
vertex -46.5665192047466 29.0633202778781 69.9469967574401
vertex 1.34534392331372 24.1966106956229 69.9469967574402
endloop
endfacet
facet normal 0.101056297182947 0.994880708828788 -1.66715071841199e-14
outer loop
vertex -46.5665192047466 29.0633202778781 69.9469967574401
vertex 1.34534392331348 24.1966106956221 18.6901360276515
vertex -22.6105876407167 26.6299654867495 15.9314736867568
endloop
endfacet
facet normal 0.101056297182947 0.994880708828788 -1.66715071841199e-14
outer loop
vertex -46.5665192047466 29.0633202778781 69.9469967574401
vertex -22.6105876407167 26.6299654867495 15.9314736867568
vertex -45.4512972142766 28.9500401590714 17.2879071949693
endloop
endfacet
facet normal 0.101056297182947 0.994880708828788 -1.66715071841199e-14
outer loop
vertex -46.5665192047466 29.0633202778781 69.9469967574401
vertex -45.4512972142766 28.9500401590714 17.2879071949693
vertex -46.5665192047468 29.0633202778773 19.1231321973858
endloop
endfacet
facet normal -0.994880708828788 0.101056297182947 2.50196117821049e-15
outer loop
vertex -52.0796059914223 -25.2120078615733 9.87286274937723
vertex -49.9534513217226 -4.28040514273258 9.87286274937698
vertex -51.9892608465713 -24.3225764826867 -0.124987356451514
endloop
endfacet
facet normal -0.994880708828788 0.101056297182947 2.50196117821049e-15
outer loop
vertex -51.9892608465713 -24.3225764826867 -0.124987356451514
vertex -46.5665192047469 29.0633202778773 17.3943379199728
vertex -46.5665192047469 29.0633202778768 -0.124987356452105
endloop
endfacet
facet normal -0.994880708828788 0.101056297182947 2.50196117821049e-15
outer loop
vertex -46.5665192047469 29.0633202778773 17.3943379199728
vertex -51.9892608465713 -24.3225764826867 -0.124987356451514
vertex -49.9534513217226 -4.28040514273258 9.87286274937698
endloop
endfacet
facet normal -0.994880708828788 0.101056297182947 2.50196117821049e-15
outer loop
vertex -46.5665192047469 29.0633202778773 17.3943379199728
vertex -49.9534513217226 -4.28040514273258 9.87286274937698
vertex -49.9534513217226 -4.28040514273253 15.1471792236007
endloop
endfacet
facet normal -0.994880708828788 0.101056297182947 2.50196117821049e-15
outer loop
vertex -46.5665192047469 29.0633202778773 17.3943379199728
vertex -49.9534513217226 -4.28040514273253 15.1471792236007
vertex -49.9534513217225 -4.28040514273219 35.4885392630283
endloop
endfacet
facet normal -0.994880708828788 0.101056297182947 2.50196117821049e-15
outer loop
vertex -46.5665192047469 29.0633202778773 17.3943379199728
vertex -49.9534513217225 -4.28040514273219 35.4885392630283
vertex -46.5665192047468 29.0633202778773 19.1231321973858
endloop
endfacet
facet normal -0.994880708828788 0.101056297182947 2.50196117821049e-15
outer loop
vertex -46.5665192047468 29.0633202778773 19.1231321973858
vertex -49.9534513217225 -4.28040514273219 35.4885392630283
vertex -46.5665192047466 29.0633202778781 69.9469967574401
endloop
endfacet
facet normal -0.994880708828788 0.101056297182947 2.50196117821049e-15
outer loop
vertex -46.5665192047466 29.0633202778781 69.9469967574401
vertex -49.9534513217225 -4.28040514273219 35.4885392630283
vertex -49.9534513217223 -4.28040514273162 69.9469967574413
endloop
endfacet
facet normal 4.44103256696454e-15 3.48057803805504e-14 1.0
outer loop
vertex -10.9019617458015 9.18905364465942 69.9469967574403
vertex -26.4508427165927 9.98654120933859 69.9469967574405
vertex -10.9805741813978 8.41512863623413 69.9469967574404
endloop
endfacet
facet normal 4.44103256696454e-15 3.48057803805504e-14 1.0
outer loop
vertex -26.4508427165927 9.98654120933859 69.9469967574405
vertex -10.9019617458015 9.18905364465942 69.9469967574403
vertex -32.5105886250198 10.6020677523109 69.9469967574405
endloop
endfacet
facet normal 4.44103256696454e-15 3.48057803805504e-14 1.0
outer loop
vertex -32.5105886250198 10.6020677523109 69.9469967574405
vertex -10.9019617458015 9.18905364465942 69.9469967574403
vertex -25.2929566320321 10.6508375983288 69.9469967574404
endloop
endfacet
facet normal 4.44103256696454e-15 3.48057803805504e-14 1.0
outer loop
vertex -34.1849900390694 -5.88210703056221 69.9469967574412
vertex -34.9162382311767 -5.38334916660032 69.9469967574412
vertex -49.1368494969791 -3.93887214996212 69.9469967574412
endloop
endfacet
facet normal 4.44103256696454e-15 3.48057803805504e-14 1.0
outer loop
vertex -34.9162382311767 -5.38334916660032 69.9469967574412
vertex -34.1849900390694 -5.88210703056221 69.9469967574412
vertex -32.5105886250198 10.6020677523109 69.9469967574405
endloop
endfacet
facet normal 4.44103256696454e-15 3.48057803805504e-14 1.0
outer loop
vertex -34.9162382311767 -5.38334916660032 69.9469967574412
vertex -32.5105886250198 10.6020677523109 69.9469967574405
vertex -33.284513633445 10.6806801879071 69.9469967574404
endloop
endfacet
facet normal 4.44103256696454e-15 3.48057803805504e-14 1.0
outer loop
vertex -33.284513633445 10.6806801879071 69.9469967574404
vertex -32.5105886250198 10.6020677523109 69.9469967574405
vertex -37.709631922204 11.1301673122327 69.9469967574404
endloop
endfacet
facet normal 4.44103256696454e-15 3.48057803805504e-14 1.0
outer loop
vertex -37.709631922204 11.1301673122327 69.9469967574404
vertex -32.5105886250198 10.6020677523109 69.9469967574405
vertex -36.6690999634273 21.3740135797511 69.94699675744
endloop
endfacet
facet normal 4.44103256696454e-15 3.48057803805504e-14 1.0
outer loop
vertex -36.6690999634273 21.3740135797511 69.94699675744
vertex -32.5105886250198 10.6020677523109 69.9469967574405
vertex -25.2929566320321 10.6508375983288 69.9469967574404
endloop
endfacet
facet normal 4.44103256696454e-15 3.48057803805504e-14 1.0
outer loop
vertex -36.6690999634273 21.3740135797511 69.94699675744
vertex -25.2929566320321 10.6508375983288 69.9469967574404
vertex -24.3310371088516 20.120758857422 69.94699675744
endloop
endfacet
facet normal 4.44103256696454e-15 3.48057803805504e-14 1.0
outer loop
vertex 0.663208864513963 17.4811161669931 69.9469967574402
vertex 0.519758193750925 23.7666328078385 69.9469967574401
vertex -0.110716143911273 17.5597286025894 69.9469967574402
endloop
endfacet
facet normal 4.44103256696454e-15 3.48057803805504e-14 1.0
outer loop
vertex 0.519758193750925 23.7666328078385 69.9469967574401
vertex 0.663208864513963 17.4811161669931 69.9469967574402
vertex 1.34534392331372 24.1966106956229 69.9469967574402
endloop
endfacet
facet normal 4.44103256696454e-15 3.48057803805504e-14 1.0
outer loop
vertex 0.519758193750925 23.7666328078385 69.9469967574401
vertex 1.34534392331372 24.1966106956229 69.9469967574402
vertex -45.8442549174589 28.4761175189012 69.9469967574401
endloop
endfacet
facet normal 4.44103256696454e-15 3.48057803805504e-14 1.0
outer loop
vertex -49.9534513217223 -4.28040514273162 69.9469967574413
vertex -49.1368494969791 -3.93887214996212 69.9469967574412
vertex -46.5665192047466 29.0633202778781 69.9469967574401
endloop
endfacet
facet normal 4.44103256696454e-15 3.48057803805504e-14 1.0
outer loop
vertex -49.1368494969791 -3.93887214996212 69.9469967574412
vertex -49.9534513217223 -4.28040514273162 69.9469967574413
vertex -34.1849900390694 -5.88210703056221 69.9469967574412
endloop
endfacet
facet normal 4.44103256696454e-15 3.48057803805504e-14 1.0
outer loop
vertex -46.5665192047466 29.0633202778781 69.9469967574401
vertex -49.1368494969791 -3.93887214996212 69.9469967574412
vertex -45.8442549174589 28.4761175189012 69.9469967574401
endloop
endfacet
facet normal 4.44103256696454e-15 3.48057803805504e-14 1.0
outer loop
vertex -46.5665192047466 29.0633202778781 69.9469967574401
vertex -45.8442549174589 28.4761175189012 69.9469967574401
vertex 1.34534392331372 24.1966106956229 69.9469967574402
endloop
endfacet
facet normal 0.994880708828788 -0.101056297182947 -2.69208442597666e-15
outer loop
vertex -32.5105886250199 10.6020677523103 36.3110792184634
vertex -34.1849900390694 -5.88210703056221 69.9469967574412
vertex -34.1849900390697 -5.88210703056301 29.8369803546623
endloop
endfacet
facet normal 0.994880708828788 -0.101056297182947 -2.69208442597666e-15
outer loop
vertex -34.1849900390694 -5.88210703056221 69.9469967574412
vertex -32.5105886250199 10.6020677523103 36.3110792184634
vertex -32.5105886250198 10.6020677523109 69.9469967574405
endloop
endfacet
facet normal -0.101056297182935 -0.994880708828789 1.888190048458e-14
outer loop
vertex -49.9534513217223 -4.28040514273162 69.9469967574413
vertex -34.1849900390697 -5.88210703056301 29.8369803546623
vertex -34.1849900390694 -5.88210703056221 69.9469967574412
endloop
endfacet
facet normal -0.101056297182935 -0.994880708828789 1.888190048458e-14
outer loop
vertex -34.1849900390697 -5.88210703056301 29.8369803546623
vertex -49.9534513217223 -4.28040514273162 69.9469967574413
vertex -49.9534513217225 -4.28040514273219 35.4885392630283
endloop
endfacet
facet normal 0.101056297182951 0.994880708828788 -1.53544785976067e-14
outer loop
vertex -46.5665192047469 29.0633202778773 17.3943379199728
vertex -46.5665192047468 29.0633202778773 19.1231321973858
vertex -45.4512972142766 28.9500401590714 17.2879071949693
endloop
endfacet
facet normal 0.101056297182946 0.994880708828788 -1.05260718489835e-14
outer loop
vertex -20.4080264594261 -2.40624294267397 -0.124987356451803
vertex -33.6948347553838 -1.05661817273557 5.46556579448036
vertex -19.8184083934655 -2.46613416176117 5.46556579448036
endloop
endfacet
facet normal 0.101056297182946 0.994880708828788 -1.05260718489835e-14
outer loop
vertex -33.6948347553838 -1.05661817273557 5.46556579448036
vertex -20.4080264594261 -2.40624294267397 -0.124987356451803
vertex -33.6948347553838 -1.05661817273562 -0.124987356451793
endloop
endfacet
facet normal -0.101056297182946 -0.994880708828788 1.07136809813246e-14
outer loop
vertex -16.3069919081926 -2.82281084140708 5.46556579448036
vertex -1.55143290997635 -4.32162586715997 1.84932213918059
vertex -1.55143290997631 -4.32162586715993 5.46556579448036
endloop
endfacet
facet normal -0.101056297182946 -0.994880708828788 1.07136809813246e-14
outer loop
vertex -1.55143290997635 -4.32162586715997 1.84932213918059
vertex -16.3069919081926 -2.82281084140708 5.46556579448036
vertex -3.77510942553341 -4.0957530436137 1.8493221391806
endloop
endfacet
facet normal -0.101056297182946 -0.994880708828788 1.07136809813246e-14
outer loop
vertex -3.77510942553341 -4.0957530436137 1.8493221391806
vertex -16.5459232342195 -2.79854108235461 -0.124987356451804
vertex -3.7751094255334 -4.09575304361373 -0.124987356451806
endloop
endfacet
facet normal -0.101056297182946 -0.994880708828788 1.07136809813246e-14
outer loop
vertex -16.5459232342195 -2.79854108235461 -0.124987356451804
vertex -3.77510942553341 -4.0957530436137 1.8493221391806
vertex -16.3069919081926 -2.82281084140708 5.46556579448036
endloop
endfacet
facet normal 1.09990165540721e-15 1.06807599473403e-14 1.0
outer loop
vertex -1.0251235340773 0.859793396695703 5.4655657944803
vertex -11.2224237789728 1.8955973829093 5.46556579448031
vertex -1.55143290997631 -4.32162586715993 5.46556579448036
endloop
endfacet
facet normal 1.09990165540721e-15 1.06807599473403e-14 1.0
outer loop
vertex -11.2224237789728 1.8955973829093 5.46556579448031
vertex -1.0251235340773 0.859793396695703 5.4655657944803
vertex -6.62758539504031 1.42887071999019 5.46556579448031
endloop
endfacet
facet normal 1.09990165540721e-15 1.06807599473403e-14 1.0
outer loop
vertex -16.3069919081926 -2.82281084140708 5.46556579448036
vertex -33.6948347553838 -1.05661817273557 5.46556579448036
vertex -19.8184083934655 -2.46613416176117 5.46556579448036
endloop
endfacet
facet normal 1.09990165540721e-15 1.06807599473403e-14 1.0
outer loop
vertex -33.6948347553838 -1.05661817273557 5.46556579448036
vertex -16.3069919081926 -2.82281084140708 5.46556579448036
vertex -1.55143290997631 -4.32162586715993 5.46556579448036
endloop
endfacet
facet normal 1.09990165540721e-15 1.06807599473403e-14 1.0
outer loop
vertex -33.6948347553838 -1.05661817273557 5.46556579448036
vertex -1.55143290997631 -4.32162586715993 5.46556579448036
vertex -32.5105886250201 10.6020677523096 5.46556579448023
endloop
endfacet
facet normal 1.09990165540721e-15 1.06807599473403e-14 1.0
outer loop
vertex -32.5105886250201 10.6020677523096 5.46556579448023
vertex -1.55143290997631 -4.32162586715993 5.46556579448036
vertex -11.6385109358628 1.93786197504338 5.46556579448031
endloop
endfacet
facet normal 1.09990165540721e-15 1.06807599473403e-14 1.0
outer loop
vertex -11.6385109358628 1.93786197504338 5.46556579448031
vertex -1.55143290997631 -4.32162586715993 5.46556579448036
vertex -11.2224237789728 1.8955973829093 5.46556579448031
endloop
endfacet
facet normal 1.09990165540721e-15 1.06807599473403e-14 1.0
outer loop
vertex -32.5105886250201 10.6020677523096 5.46556579448023
vertex -11.6385109358628 1.93786197504338 5.46556579448031
vertex -26.4508427165929 9.98654120933645 5.46556579448024
endloop
endfacet
facet normal 1.09990165540721e-15 1.06807599473403e-14 1.0
outer loop
vertex -26.4508427165929 9.98654120933645 5.46556579448024
vertex -11.6385109358628 1.93786197504338 5.46556579448031
vertex -10.9805741813982 8.41512863623134 5.46556579448023
endloop
endfacet
facet normal -0.994880708828788 0.101056297182947 -5.68730169435986e-15
outer loop
vertex -4.96034315422873 -15.7641616930767 1.84932213918072
vertex -3.7751094255334 -4.09575304361373 -0.124987356451806
vertex -4.96034315422872 -15.7641616930767 -0.124987356451679
endloop
endfacet
facet normal -0.994880708828788 0.101056297182947 -5.68730169435986e-15
outer loop
vertex -3.7751094255334 -4.09575304361373 -0.124987356451806
vertex -4.96034315422873 -15.7641616930767 1.84932213918072
vertex -3.77510942553341 -4.0957530436137 1.8493221391806
endloop
endfacet
facet normal 0.994880708828788 -0.101056297182946 5.69598161933361e-15
outer loop
vertex -1.55143290997634 -4.32162586716002 -0.124987356451807
vertex -2.73666663867165 -15.990034516623 1.84932213918072
vertex -2.73666663867164 -15.990034516623 -0.124987356451679
endloop
endfacet
facet normal 0.994880708828788 -0.101056297182946 5.69598161933361e-15
outer loop
vertex -2.73666663867165 -15.990034516623 1.84932213918072
vertex -1.55143290997634 -4.32162586716002 -0.124987356451807
vertex -1.55143290997635 -4.32162586715997 1.84932213918059
endloop
endfacet
facet normal -3.26925058677217e-14 -4.33761552574882e-15 1.0
outer loop
vertex -2.73666663867172 -15.990034516623 4.51497233362043
vertex -9.86957660134549 -37.0176555624271 4.51497233361987
vertex -4.92360575474842 -37.520048960245 4.51497233361986
endloop
endfacet
facet normal -3.26925058677217e-14 -4.33761552574882e-15 1.0
outer loop
vertex -9.86957660134549 -37.0176555624271 4.51497233361987
vertex -2.73666663867172 -15.990034516623 4.51497233362043
vertex -9.5403806604572 -33.7767819093819 4.51497233361982
endloop
endfacet
facet normal -3.26925058677217e-14 -4.33761552574882e-15 1.0
outer loop
vertex -9.5403806604572 -33.7767819093819 4.51497233361982
vertex -2.73666663867172 -15.990034516623 4.51497233362043
vertex -12.3200773609249 -33.4944306150527 4.51497233361981
endloop
endfacet
facet normal -3.26925058677217e-14 -4.33761552574882e-15 1.0
outer loop
vertex -12.6492733018132 -36.7353042680979 4.51497233361985
vertex -14.8975526756815 -14.7547767591268 4.51497233361963
vertex -17.0844917917582 -36.2847912027488 4.51497233361987
endloop
endfacet
facet normal -3.26925058677217e-14 -4.33761552574882e-15 1.0
outer loop
vertex -14.8975526756815 -14.7547767591268 4.51497233361963
vertex -12.6492733018132 -36.7353042680979 4.51497233361985
vertex -12.3200773609249 -33.4944306150527 4.51497233361981
endloop
endfacet
facet normal -3.26925058677217e-14 -4.33761552574882e-15 1.0
outer loop
vertex -14.8975526756815 -14.7547767591268 4.51497233361963
vertex -12.3200773609249 -33.4944306150527 4.51497233361981
vertex -2.73666663867172 -15.990034516623 4.51497233362043
endloop
endfacet
facet normal -0.994880708828788 0.101056297182946 9.53025583604197e-17
outer loop
vertex -17.0844917917582 -36.2847912027488 4.51497233361987
vertex -14.8975526756814 -14.7547767591269 -0.124987356451678
vertex -17.0844917917581 -36.2847912027489 -0.124987356451443
endloop
endfacet
facet normal -0.994880708828788 0.101056297182946 9.53025583604197e-17
outer loop
vertex -14.8975526756814 -14.7547767591269 -0.124987356451678
vertex -17.0844917917582 -36.2847912027488 4.51497233361987
vertex -14.8975526756815 -14.7547767591268 4.51497233361963
endloop
endfacet
facet normal -0.101056297182947 -0.994880708828788 1.10556019474483e-14
outer loop
vertex -12.6492733018132 -36.7353042680979 7.16068000790167
vertex -12.6492733018132 -36.7353042680979 4.51497233361985
vertex -9.86957660134549 -37.0176555624271 7.16068000790167
endloop
endfacet
facet normal -0.101056297182947 -0.994880708828788 1.10556019474483e-14
outer loop
vertex -4.92360575474842 -37.520048960245 4.51497233361986
vertex -17.0844917917581 -36.2847912027489 -0.124987356451443
vertex -4.92360575474835 -37.520048960245 -0.124987356451444
endloop
endfacet
facet normal -0.101056297182947 -0.994880708828788 1.10556019474483e-14
outer loop
vertex -17.0844917917581 -36.2847912027489 -0.124987356451443
vertex -4.92360575474842 -37.520048960245 4.51497233361986
vertex -9.86957660134549 -37.0176555624271 4.51497233361987
endloop
endfacet
facet normal -0.101056297182947 -0.994880708828788 1.10556019474483e-14
outer loop
vertex -17.0844917917581 -36.2847912027489 -0.124987356451443
vertex -9.86957660134549 -37.0176555624271 4.51497233361987
vertex -9.86957660134549 -37.0176555624271 7.16068000790167
endloop
endfacet
facet normal -0.101056297182947 -0.994880708828788 1.10556019474483e-14
outer loop
vertex -17.0844917917581 -36.2847912027489 -0.124987356451443
vertex -9.86957660134549 -37.0176555624271 7.16068000790167
vertex -12.6492733018132 -36.7353042680979 4.51497233361985
endloop
endfacet
facet normal -0.101056297182947 -0.994880708828788 1.10556019474483e-14
outer loop
vertex -17.0844917917581 -36.2847912027489 -0.124987356451443
vertex -12.6492733018132 -36.7353042680979 4.51497233361985
vertex -17.0844917917582 -36.2847912027488 4.51497233361987
endloop
endfacet
facet normal 0.994880708828788 -0.101056297182946 3.57291363095311e-15
outer loop
vertex -2.73666663867165 -15.990034516623 1.84932213918072
vertex -4.92360575474835 -37.520048960245 -0.124987356451444
vertex -2.73666663867164 -15.990034516623 -0.124987356451679
endloop
endfacet
facet normal 0.994880708828788 -0.101056297182946 3.57291363095311e-15
outer loop
vertex -4.92360575474835 -37.520048960245 -0.124987356451444
vertex -2.73666663867165 -15.990034516623 1.84932213918072
vertex -4.92360575474842 -37.520048960245 4.51497233361986
endloop
endfacet
facet normal 0.994880708828788 -0.101056297182946 3.57291363095311e-15
outer loop
vertex -4.92360575474842 -37.520048960245 4.51497233361986
vertex -2.73666663867165 -15.990034516623 1.84932213918072
vertex -2.73666663867172 -15.990034516623 4.51497233362043
endloop
endfacet
facet normal 0.994880708828788 -0.101056297182948 -3.29159333140096e-15
outer loop
vertex 1.34534392331372 24.1966106956229 69.9469967574402
vertex 0.663208864513963 17.4811161669931 69.9469967574402
vertex 1.34534392331348 24.1966106956221 18.6901360276515
endloop
endfacet
facet normal 0.994880708828788 -0.101056297182948 -3.29159333140096e-15
outer loop
vertex 1.34534392331339 24.1966106956216 -0.124987356452109
vertex -1.55143290997635 -4.32162586715997 1.84932213918059
vertex -1.55143290997634 -4.32162586716002 -0.124987356451807
endloop
endfacet
facet normal 0.994880708828788 -0.101056297182948 -3.29159333140096e-15
outer loop
vertex -1.55143290997635 -4.32162586715997 1.84932213918059
vertex 1.34534392331339 24.1966106956216 -0.124987356452109
vertex 1.34534392331348 24.1966106956221 18.6901360276515
endloop
endfacet
facet normal 0.994880708828788 -0.101056297182948 -3.29159333140096e-15
outer loop
vertex -1.55143290997635 -4.32162586715997 1.84932213918059
vertex 1.34534392331348 24.1966106956221 18.6901360276515
vertex -1.0251235340773 0.859793396695703 5.4655657944803
endloop
endfacet
facet normal 0.994880708828788 -0.101056297182948 -3.29159333140096e-15
outer loop
vertex -1.0251235340773 0.859793396695703 5.4655657944803
vertex 1.34534392331348 24.1966106956221 18.6901360276515
vertex -1.02512353407691 0.859793396696997 75.7702126435481
endloop
endfacet
facet normal 0.994880708828788 -0.101056297182948 -3.29159333140096e-15
outer loop
vertex -1.02512353407691 0.859793396696997 75.7702126435481
vertex 1.34534392331348 24.1966106956221 18.6901360276515
vertex 0.663208864513963 17.4811161669931 69.9469967574402
endloop
endfacet
facet normal 0.994880708828788 -0.101056297182948 -3.29159333140096e-15
outer loop
vertex -1.02512353407691 0.859793396696997 75.7702126435481
vertex 0.663208864513963 17.4811161669931 69.9469967574402
vertex 0.663208864514031 17.4811161669932 75.7702126435479
endloop
endfacet
facet normal 0.994880708828788 -0.101056297182948 -3.29159333140096e-15
outer loop
vertex -1.55143290997631 -4.32162586715993 5.46556579448036
vertex -1.55143290997635 -4.32162586715997 1.84932213918059
vertex -1.0251235340773 0.859793396695703 5.4655657944803
endloop
endfacet
facet normal 1.18466555150415e-15 1.0793504134741e-14 1.0
outer loop
vertex -2.73666663867165 -15.990034516623 1.84932213918072
vertex -3.77510942553341 -4.0957530436137 1.8493221391806
vertex -4.96034315422873 -15.7641616930767 1.84932213918072
endloop
endfacet
facet normal 1.18466555150415e-15 1.0793504134741e-14 1.0
outer loop
vertex -3.77510942553341 -4.0957530436137 1.8493221391806
vertex -2.73666663867165 -15.990034516623 1.84932213918072
vertex -1.55143290997635 -4.32162586715997 1.84932213918059
endloop
endfacet
facet normal 0.101056297182947 0.994880708828788 -8.14159756429689e-15
outer loop
vertex -14.8975526756814 -14.7547767591269 -0.124987356451678
vertex -4.96034315422873 -15.7641616930767 1.84932213918072
vertex -4.96034315422872 -15.7641616930767 -0.124987356451679
endloop
endfacet
facet normal 0.101056297182947 0.994880708828788 -8.14159756429689e-15
outer loop
vertex -4.96034315422873 -15.7641616930767 1.84932213918072
vertex -2.73666663867172 -15.990034516623 4.51497233362043
vertex -2.73666663867165 -15.990034516623 1.84932213918072
endloop
endfacet
facet normal 0.101056297182947 0.994880708828788 -8.14159756429689e-15
outer loop
vertex -2.73666663867172 -15.990034516623 4.51497233362043
vertex -4.96034315422873 -15.7641616930767 1.84932213918072
vertex -14.8975526756815 -14.7547767591268 4.51497233361963
endloop
endfacet
facet normal 0.101056297182947 0.994880708828788 -8.14159756429689e-15
outer loop
vertex -14.8975526756815 -14.7547767591268 4.51497233361963
vertex -4.96034315422873 -15.7641616930767 1.84932213918072
vertex -14.8975526756814 -14.7547767591269 -0.124987356451678
endloop
endfacet
facet normal 0.994880708828788 -0.101056297182945 -1.04118145973258e-15
outer loop
vertex -9.54038066045718 -33.7767819093819 7.16068000790163
vertex -9.86957660134549 -37.0176555624271 4.51497233361987
vertex -9.5403806604572 -33.7767819093819 4.51497233361982
endloop
endfacet
facet normal 0.994880708828788 -0.101056297182945 -1.04118145973258e-15
outer loop
vertex -9.86957660134549 -37.0176555624271 4.51497233361987
vertex -9.54038066045718 -33.7767819093819 7.16068000790163
vertex -9.86957660134549 -37.0176555624271 7.16068000790167
endloop
endfacet
facet normal -0.994880708828788 0.101056297182945 1.04118145973258e-15
outer loop
vertex -12.6492733018132 -36.7353042680979 4.51497233361985
vertex -12.3200773609249 -33.4944306150527 7.16068000790162
vertex -12.3200773609249 -33.4944306150527 4.51497233361981
endloop
endfacet
facet normal -0.994880708828788 0.101056297182945 1.04118145973258e-15
outer loop
vertex -12.3200773609249 -33.4944306150527 7.16068000790162
vertex -12.6492733018132 -36.7353042680979 4.51497233361985
vertex -12.6492733018132 -36.7353042680979 7.16068000790167
endloop
endfacet
facet normal 0.101056297182945 0.994880708828788 -1.41996213326398e-14
outer loop
vertex -9.5403806604572 -33.7767819093819 4.51497233361982
vertex -12.3200773609249 -33.4944306150527 7.16068000790162
vertex -9.54038066045718 -33.7767819093819 7.16068000790163
endloop
endfacet
facet normal 0.101056297182945 0.994880708828788 -1.41996213326398e-14
outer loop
vertex -12.3200773609249 -33.4944306150527 7.16068000790162
vertex -9.5403806604572 -33.7767819093819 4.51497233361982
vertex -12.3200773609249 -33.4944306150527 4.51497233361981
endloop
endfacet
facet normal 2.21788680028149e-15 1.06341069582582e-14 1.0
outer loop
vertex -9.54038066045718 -33.7767819093819 7.16068000790163
vertex -12.6492733018132 -36.7353042680979 7.16068000790167
vertex -9.86957660134549 -37.0176555624271 7.16068000790167
endloop
endfacet
facet normal 2.21788680028149e-15 1.06341069582582e-14 1.0
outer loop
vertex -12.6492733018132 -36.7353042680979 7.16068000790167
vertex -9.54038066045718 -33.7767819093819 7.16068000790163
vertex -12.3200773609249 -33.4944306150527 7.16068000790162
endloop
endfacet
facet normal -0.101056297182946 -0.994880708828788 9.98922679993361e-15
outer loop
vertex -19.8184083934655 -2.46613416176117 5.46556579448036
vertex -16.5459232342195 -2.79854108235461 -0.124987356451804
vertex -16.3069919081926 -2.82281084140708 5.46556579448036
endloop
endfacet
facet normal -0.101056297182946 -0.994880708828788 9.98922679993361e-15
outer loop
vertex -16.5459232342195 -2.79854108235461 -0.124987356451804
vertex -19.8184083934655 -2.46613416176117 5.46556579448036
vertex -20.4080264594261 -2.40624294267397 -0.124987356451803
endloop
endfacet
facet normal -0.101056297182943 -0.994880708828789 1.81855277683359e-14
outer loop
vertex -49.9534513217225 -4.28040514273219 35.4885392630283
vertex -34.1849900390698 -5.88210703056342 9.87286274937697
vertex -34.1849900390697 -5.88210703056301 29.8369803546623
endloop
endfacet
facet normal -0.101056297182943 -0.994880708828789 1.81855277683359e-14
outer loop
vertex -34.1849900390698 -5.88210703056342 9.87286274937697
vertex -49.9534513217225 -4.28040514273219 35.4885392630283
vertex -49.9534513217226 -4.28040514273253 15.1471792236007
endloop
endfacet
facet normal 4.44244067641746e-15 3.48250295377417e-14 1.0
outer loop
vertex 0.519758193750921 23.7666328078384 69.415196219896
vertex -9.95017853727155 18.5591847453407 69.4151962198961
vertex -0.110716143911278 17.5597286025893 69.4151962198961
endloop
endfacet
facet normal 4.44244067641746e-15 3.48250295377417e-14 1.0
outer loop
vertex -9.95017853727155 18.5591847453407 69.4151962198961
vertex 0.519758193750921 23.7666328078384 69.415196219896
vertex -24.3310371088516 20.1207588574219 69.4151962198959
endloop
endfacet
facet normal 4.44244067641746e-15 3.48250295377417e-14 1.0
outer loop
vertex -24.3310371088516 20.1207588574219 69.4151962198959
vertex 0.519758193750921 23.7666328078384 69.415196219896
vertex -36.6690999634273 21.3740135797511 69.415196219896
endloop
endfacet
facet normal 4.44244067641746e-15 3.48250295377417e-14 1.0
outer loop
vertex -34.9162382311767 -5.38334916660034 69.4151962198971
vertex -45.8442549174588 28.4761175189012 69.415196219896
vertex -49.136849496979 -3.93887214996214 69.4151962198971
endloop
endfacet
facet normal 4.44244067641746e-15 3.48250295377417e-14 1.0
outer loop
vertex -45.8442549174588 28.4761175189012 69.415196219896
vertex -34.9162382311767 -5.38334916660034 69.4151962198971
vertex -37.709631922204 11.1301673122327 69.4151962198964
endloop
endfacet
facet normal 4.44244067641746e-15 3.48250295377417e-14 1.0
outer loop
vertex -37.709631922204 11.1301673122327 69.4151962198964
vertex -34.9162382311767 -5.38334916660034 69.4151962198971
vertex -33.284513633445 10.6806801879071 69.4151962198964
endloop
endfacet
facet normal 4.44244067641746e-15 3.48250295377417e-14 1.0
outer loop
vertex -45.8442549174588 28.4761175189012 69.415196219896
vertex -37.709631922204 11.1301673122327 69.4151962198964
vertex -36.6690999634273 21.3740135797511 69.415196219896
endloop
endfacet
facet normal 4.44244067641746e-15 3.48250295377417e-14 1.0
outer loop
vertex -45.8442549174588 28.4761175189012 69.415196219896
vertex -36.6690999634273 21.3740135797511 69.415196219896
vertex 0.519758193750921 23.7666328078384 69.415196219896
endloop
endfacet
facet normal 4.44244067641746e-15 3.48250295377417e-14 1.0
outer loop
vertex -10.9019617458015 9.1890536446594 69.4151962198963
vertex -24.3310371088516 20.1207588574219 69.4151962198959
vertex -25.2929566320321 10.6508375983288 69.4151962198963
endloop
endfacet
facet normal 4.44244067641746e-15 3.48250295377417e-14 1.0
outer loop
vertex -24.3310371088516 20.1207588574219 69.4151962198959
vertex -10.9019617458015 9.1890536446594 69.4151962198963
vertex -10.8240561220724 9.95602021990463 69.4151962198963
endloop
endfacet
facet normal 4.44244067641746e-15 3.48250295377417e-14 1.0
outer loop
vertex -24.3310371088516 20.1207588574219 69.4151962198959
vertex -10.8240561220724 9.95602021990463 69.4151962198963
vertex -9.95017853727155 18.5591847453407 69.4151962198961
endloop
endfacet
facet normal 0.994880708828788 -0.101056297182949 -1.80669813778055e-15
outer loop
vertex -24.3310371088516 20.120758857422 69.94699675744
vertex -25.2929566320321 10.6508375983288 69.4151962198963
vertex -24.3310371088516 20.1207588574219 69.4151962198959
endloop
endfacet
facet normal 0.994880708828788 -0.101056297182949 -1.80669813778055e-15
outer loop
vertex -25.2929566320321 10.6508375983288 69.4151962198963
vertex -24.3310371088516 20.120758857422 69.94699675744
vertex -25.2929566320321 10.6508375983288 69.9469967574404
endloop
endfacet
facet normal 0.101056297182949 0.994880708828788 -3.35512361120678e-14
outer loop
vertex -36.6690999634273 21.3740135797511 69.415196219896
vertex -24.3310371088516 20.120758857422 69.94699675744
vertex -24.3310371088516 20.1207588574219 69.4151962198959
endloop
endfacet
facet normal 0.101056297182949 0.994880708828788 -3.35512361120678e-14
outer loop
vertex -24.3310371088516 20.120758857422 69.94699675744
vertex -36.6690999634273 21.3740135797511 69.415196219896
vertex -36.6690999634273 21.3740135797511 69.94699675744
endloop
endfacet
facet normal -0.994880708828788 0.101056297182948 1.47155211948311e-15
outer loop
vertex -37.709631922204 11.1301673122327 69.4151962198964
vertex -36.6690999634273 21.3740135797511 69.94699675744
vertex -36.6690999634273 21.3740135797511 69.415196219896
endloop
endfacet
facet normal -0.994880708828788 0.101056297182948 1.47155211948311e-15
outer loop
vertex -36.6690999634273 21.3740135797511 69.94699675744
vertex -37.709631922204 11.1301673122327 69.4151962198964
vertex -37.709631922204 11.1301673122327 69.9469967574404
endloop
endfacet
facet normal -0.101056297182949 -0.994880708828788 3.56147394531681e-14
outer loop
vertex -33.284513633445 10.6806801879071 69.9469967574404
vertex -37.709631922204 11.1301673122327 69.4151962198964
vertex -33.284513633445 10.6806801879071 69.4151962198964
endloop
endfacet
facet normal -0.101056297182949 -0.994880708828788 3.56147394531681e-14
outer loop
vertex -37.709631922204 11.1301673122327 69.4151962198964
vertex -33.284513633445 10.6806801879071 69.9469967574404
vertex -37.709631922204 11.1301673122327 69.9469967574404
endloop
endfacet
facet normal 4.11519128283151e-15 3.67645971291697e-14 1.0
outer loop
vertex -42.7111265140805 -26.3070688288329 10.7769236632021
vertex -47.1271207073424 -30.7604027201528 10.7769236632023
vertex -43.2039578641824 -31.1589030696492 10.7769236632023
endloop
endfacet
facet normal 4.11519128283151e-15 3.67645971291697e-14 1.0
outer loop
vertex -47.1271207073424 -30.7604027201528 10.7769236632023
vertex -42.7111265140805 -26.3070688288329 10.7769236632021
vertex -46.6342893572406 -25.9085684793365 10.7769236632021
endloop
endfacet
facet normal 0.994880708828788 -0.101056297182949 -3.54019901157612e-16
outer loop
vertex -42.7111265140805 -26.3070688288329 10.7769236632021
vertex -43.2039578641824 -31.1589030696492 9.87286274937738
vertex -42.7111265140805 -26.3070688288329 9.8728627493772
endloop
endfacet
facet normal 0.994880708828788 -0.101056297182949 -3.54019901157612e-16
outer loop
vertex -43.2039578641824 -31.1589030696492 9.87286274937738
vertex -42.7111265140805 -26.3070688288329 10.7769236632021
vertex -43.2039578641824 -31.1589030696492 10.7769236632023
endloop
endfacet
facet normal 0.101056297182949 0.994880708828788 -3.47064588467734e-14
outer loop
vertex -46.6342893572406 -25.9085684793366 9.87286274937721
vertex -42.7111265140805 -26.3070688288329 10.7769236632021
vertex -42.7111265140805 -26.3070688288329 9.8728627493772
endloop
endfacet
facet normal 0.101056297182949 0.994880708828788 -3.47064588467734e-14
outer loop
vertex -42.7111265140805 -26.3070688288329 10.7769236632021
vertex -46.6342893572406 -25.9085684793366 9.87286274937721
vertex -46.6342893572406 -25.9085684793365 10.7769236632021
endloop
endfacet
facet normal -0.994880708828788 0.101056297182949 3.54019901157612e-16
outer loop
vertex -47.1271207073424 -30.7604027201528 9.87286274937738
vertex -46.6342893572406 -25.9085684793365 10.7769236632021
vertex -46.6342893572406 -25.9085684793366 9.87286274937721
endloop
endfacet
facet normal -0.994880708828788 0.101056297182949 3.54019901157612e-16
outer loop
vertex -46.6342893572406 -25.9085684793365 10.7769236632021
vertex -47.1271207073424 -30.7604027201528 9.87286274937738
vertex -47.1271207073424 -30.7604027201528 10.7769236632023
endloop
endfacet
facet normal -0.101056297182949 -0.994880708828788 3.47064588467734e-14
outer loop
vertex -47.1271207073424 -30.7604027201528 10.7769236632023
vertex -43.2039578641824 -31.1589030696492 9.87286274937738
vertex -43.2039578641824 -31.1589030696492 10.7769236632023
endloop
endfacet
facet normal -0.101056297182949 -0.994880708828788 3.47064588467734e-14
outer loop
vertex -43.2039578641824 -31.1589030696492 9.87286274937738
vertex -47.1271207073424 -30.7604027201528 10.7769236632023
vertex -47.1271207073424 -30.7604027201528 9.87286274937738
endloop
endfacet
facet normal 1.49259673865335e-15 1.1278945262692e-14 1.0
outer loop
vertex -34.1849900390698 -5.88210703056342 9.87286274937697
vertex -43.2039578641824 -31.1589030696492 9.87286274937738
vertex -37.4859333527724 -38.3792884560305 9.87286274937734
endloop
endfacet
facet normal 1.49259673865335e-15 1.1278945262692e-14 1.0
outer loop
vertex -43.2039578641824 -31.1589030696492 9.87286274937738
vertex -34.1849900390698 -5.88210703056342 9.87286274937697
vertex -42.7111265140805 -26.3070688288329 9.8728627493772
endloop
endfacet
facet normal 1.49259673865335e-15 1.1278945262692e-14 1.0
outer loop
vertex -42.7111265140805 -26.3070688288329 9.8728627493772
vertex -34.1849900390698 -5.88210703056342 9.87286274937697
vertex -46.6342893572406 -25.9085684793366 9.87286274937721
endloop
endfacet
facet normal 1.49259673865335e-15 1.1278945262692e-14 1.0
outer loop
vertex -46.6342893572406 -25.9085684793366 9.87286274937721
vertex -34.1849900390698 -5.88210703056342 9.87286274937697
vertex -52.0796059914223 -25.2120078615733 9.87286274937723
endloop
endfacet
facet normal 1.49259673865335e-15 1.1278945262692e-14 1.0
outer loop
vertex -52.0796059914223 -25.2120078615733 9.87286274937723
vertex -34.1849900390698 -5.88210703056342 9.87286274937697
vertex -49.9534513217226 -4.28040514273258 9.87286274937698
endloop
endfacet
facet normal 1.49259673865335e-15 1.1278945262692e-14 1.0
outer loop
vertex -53.2543946354252 -36.7775865681997 9.87286274937735
vertex -47.1271207073424 -30.7604027201528 9.87286274937738
vertex -52.0796059914223 -25.2120078615733 9.87286274937723
endloop
endfacet
facet normal 1.49259673865335e-15 1.1278945262692e-14 1.0
outer loop
vertex -47.1271207073424 -30.7604027201528 9.87286274937738
vertex -53.2543946354252 -36.7775865681997 9.87286274937735
vertex -37.4859333527724 -38.3792884560305 9.87286274937734
endloop
endfacet
facet normal 1.49259673865335e-15 1.1278945262692e-14 1.0
outer loop
vertex -47.1271207073424 -30.7604027201528 9.87286274937738
vertex -37.4859333527724 -38.3792884560305 9.87286274937734
vertex -43.2039578641824 -31.1589030696492 9.87286274937738
endloop
endfacet
facet normal 1.49259673865335e-15 1.1278945262692e-14 1.0
outer loop
vertex -52.0796059914223 -25.2120078615733 9.87286274937723
vertex -47.1271207073424 -30.7604027201528 9.87286274937738
vertex -46.6342893572406 -25.9085684793366 9.87286274937721
endloop
endfacet
endsolid heyburn
