solid Hubbuch and Co
facet normal 0.52125417399826 -0.0660865606474312 -0.850838793539167
outer loop
vertex -37.1325407455221 49.5806852935581 10.7685200004307
vertex -33.2044492775309 48.3465714478297 13.270865249867
vertex -37.224389331673 48.8562345362791 10.7685200004307
endloop
endfacet
facet normal 0.52125417399826 -0.0660865606474312 -0.850838793539167
outer loop
vertex -33.2044492775309 48.3465714478297 13.270865249867
vertex -37.1325407455221 49.5806852935581 10.7685200004307
vertex -36.5344231511222 49.5048536999741 11.1408381695558
endloop
endfacet
facet normal 0.52125417399826 -0.0660865606474312 -0.850838793539167
outer loop
vertex -33.2044492775309 48.3465714478297 13.270865249867
vertex -36.5344231511222 49.5048536999741 11.1408381695558
vertex -33.11260069138 49.0710222051087 13.270865249867
endloop
endfacet
facet normal 0.0511488534759646 0.403433816321729 0.913578103194346
outer loop
vertex -31.7247372187226 43.3088853922741 18.1396632331336
vertex -32.0260472058731 43.5576023577765 18.0467
vertex -32.0523149524488 43.3504169268814 18.1396632331336
endloop
endfacet
facet normal 0.0511488534759646 0.403433816321729 0.913578103194346
outer loop
vertex -32.0260472058731 43.5576023577765 18.0467
vertex -31.7247372187226 43.3088853922741 18.1396632331336
vertex -31.6984694721469 43.5160708231692 18.0467
endloop
endfacet
facet normal 1.32153579595052e-15 -1.67549268444097e-16 1.0
outer loop
vertex -32.2462132694732 39.1957712366745 18.25625
vertex -32.3797109472457 40.7680987192714 18.25625
vertex -32.5737910031993 39.2373027712819 18.25625
endloop
endfacet
facet normal 1.32153579595052e-15 -1.67549268444097e-16 1.0
outer loop
vertex -32.3797109472457 40.7680987192714 18.25625
vertex -32.2462132694732 39.1957712366745 18.25625
vertex -32.0521332135195 40.726567184664 18.25625
endloop
endfacet
facet normal -0.125776906745499 -0.992058551563129 -0.0
outer loop
vertex -32.2462132694732 39.1957712366745 18.25625
vertex -32.5737910031993 39.2373027712819 17.86255
vertex -32.2462132694732 39.1957712366745 17.86255
endloop
endfacet
facet normal -0.125776906745499 -0.992058551563129 -0.0
outer loop
vertex -32.5737910031993 39.2373027712819 17.86255
vertex -32.2462132694732 39.1957712366745 18.25625
vertex -32.5737910031993 39.2373027712819 18.25625
endloop
endfacet
facet normal 1.32153579595052e-15 -1.67549268444089e-16 1.0
outer loop
vertex -32.6390949819427 36.096937971544 17.86255
vertex -32.5737910031993 39.2373027712819 17.86255
vertex -32.9666727156689 36.1384695061513 17.86255
endloop
endfacet
facet normal 1.32153579595052e-15 -1.67549268444089e-16 1.0
outer loop
vertex -32.5737910031993 39.2373027712819 17.86255
vertex -32.6390949819427 36.096937971544 17.86255
vertex -32.2462132694732 39.1957712366745 17.86255
endloop
endfacet
facet normal 0.125776906745499 0.992058551563129 -0.0
outer loop
vertex -32.9666727156689 36.1384695061513 19.11985
vertex -32.6390949819427 36.096937971544 17.86255
vertex -32.9666727156689 36.1384695061513 17.86255
endloop
endfacet
facet normal 0.125776906745499 0.992058551563129 -0.0
outer loop
vertex -32.6390949819427 36.096937971544 17.86255
vertex -32.9666727156689 36.1384695061513 19.11985
vertex -32.6390949819427 36.096937971544 19.11985
endloop
endfacet
facet normal 1.32153579595053e-15 -1.67549268444079e-16 1.0
outer loop
vertex -32.7541053854708 35.1897996319947 19.11985
vertex -32.9666727156689 36.1384695061513 19.11985
vertex -33.0816831191969 35.231331166602 19.11985
endloop
endfacet
facet normal 1.32153579595053e-15 -1.67549268444079e-16 1.0
outer loop
vertex -32.9666727156689 36.1384695061513 19.11985
vertex -32.7541053854708 35.1897996319947 19.11985
vertex -32.6390949819427 36.096937971544 19.11985
endloop
endfacet
facet normal -0.125776906745499 -0.992058551563129 -0.0
outer loop
vertex -32.7541053854708 35.1897996319947 19.11985
vertex -33.0816831191969 35.231331166602 18.0592389455801
vertex -32.7541053854708 35.1897996319947 18.0592389455801
endloop
endfacet
facet normal -0.125776906745499 -0.992058551563129 -0.0
outer loop
vertex -33.0816831191969 35.231331166602 18.0592389455801
vertex -32.7541053854708 35.1897996319947 19.11985
vertex -33.0816831191969 35.231331166602 19.11985
endloop
endfacet
facet normal 1.32153579595052e-15 -1.67549268444098e-16 1.0
outer loop
vertex -33.2085562160783 31.6053432764143 18.0592389455801
vertex -33.0816831191969 35.231331166602 18.0592389455801
vertex -33.5361339498045 31.6468748110217 18.0592389455801
endloop
endfacet
facet normal 1.32153579595052e-15 -1.67549268444098e-16 1.0
outer loop
vertex -33.0816831191969 35.231331166602 18.0592389455801
vertex -33.2085562160783 31.6053432764143 18.0592389455801
vertex -32.7541053854708 35.1897996319947 18.0592389455801
endloop
endfacet
facet normal 0.125776906745499 0.992058551563129 -0.0
outer loop
vertex -33.5361339498045 31.6468748110217 19.11985
vertex -33.2085562160783 31.6053432764143 18.0592389455801
vertex -33.5361339498045 31.6468748110217 18.0592389455801
endloop
endfacet
facet normal 0.125776906745499 0.992058551563129 -0.0
outer loop
vertex -33.2085562160783 31.6053432764143 18.0592389455801
vertex -33.5361339498045 31.6468748110217 19.11985
vertex -33.2085562160783 31.6053432764143 19.11985
endloop
endfacet
facet normal 1.32153579595052e-15 -1.67549268444091e-16 1.0
outer loop
vertex -34.1685736121947 24.0332579698984 19.11985
vertex -33.5361339498045 31.6468748110217 19.11985
vertex -34.4961513459208 24.0747895045058 19.11985
endloop
endfacet
facet normal 1.32153579595052e-15 -1.67549268444091e-16 1.0
outer loop
vertex -33.5361339498045 31.6468748110217 19.11985
vertex -34.1685736121947 24.0332579698984 19.11985
vertex -33.2085562160783 31.6053432764143 19.11985
endloop
endfacet
facet normal -0.125776906745499 -0.992058551563129 -0.0
outer loop
vertex -34.1685736121947 24.0332579698984 19.11985
vertex -34.4961513459208 24.0747895045058 18.3261
vertex -34.1685736121947 24.0332579698984 18.3261
endloop
endfacet
facet normal -0.125776906745499 -0.992058551563129 -0.0
outer loop
vertex -34.4961513459208 24.0747895045058 18.3261
vertex -34.1685736121947 24.0332579698984 19.11985
vertex -34.4961513459208 24.0747895045058 19.11985
endloop
endfacet
facet normal 1.32153579595052e-15 -1.67549268444091e-16 1.0
outer loop
vertex -35.0071911379203 17.4187075773513 18.3261
vertex -34.4961513459208 24.0747895045058 18.3261
vertex -35.3347688716464 17.4602391119586 18.3261
endloop
endfacet
facet normal 1.32153579595052e-15 -1.67549268444091e-16 1.0
outer loop
vertex -34.4961513459208 24.0747895045058 18.3261
vertex -35.0071911379203 17.4187075773513 18.3261
vertex -34.1685736121947 24.0332579698984 18.3261
endloop
endfacet
facet normal -0.125776906745499 -0.992058551563129 -0.0
outer loop
vertex -35.0071911379203 17.4187075773513 18.3261
vertex -35.3347688716464 17.4602391119586 17.86255
vertex -35.0071911379203 17.4187075773513 17.86255
endloop
endfacet
facet normal -0.125776906745499 -0.992058551563129 -0.0
outer loop
vertex -35.3347688716464 17.4602391119586 17.86255
vertex -35.0071911379203 17.4187075773513 18.3261
vertex -35.3347688716464 17.4602391119586 18.3261
endloop
endfacet
facet normal 1.32153579595051e-15 -1.67549268444221e-16 1.0
outer loop
vertex -35.0211215429829 17.3088322605961 17.86255
vertex -35.3347688716464 17.4602391119586 17.86255
vertex -35.3486992767091 17.3503637952035 17.86255
endloop
endfacet
facet normal 1.32153579595051e-15 -1.67549268444221e-16 1.0
outer loop
vertex -35.3347688716464 17.4602391119586 17.86255
vertex -35.0211215429829 17.3088322605961 17.86255
vertex -35.0071911379203 17.4187075773513 17.86255
endloop
endfacet
facet normal -0.12577690674549 -0.99205855156313 -8.09763652342868e-15
outer loop
vertex -35.0211215429829 17.3088322605961 17.86255
vertex -35.3486992767091 17.3503637952035 15.2967970405906
vertex -35.0211215429829 17.3088322605961 15.2967970405906
endloop
endfacet
facet normal -0.12577690674549 -0.99205855156313 -8.09763652342868e-15
outer loop
vertex -35.3486992767091 17.3503637952035 15.2967970405906
vertex -35.0211215429829 17.3088322605961 17.86255
vertex -35.3486992767091 17.3503637952035 17.86255
endloop
endfacet
facet normal -0.992058551563129 0.125776906745499 -4.04441816733268e-17
outer loop
vertex -31.1195533399642 48.0822405154465 17.86255
vertex -35.0211215429829 17.3088322605962 12.2302331224952
vertex -35.0211215429829 17.3088322605961 15.2967970405906
endloop
endfacet
facet normal -0.992058551563129 0.125776906745499 -4.04441816733268e-17
outer loop
vertex -35.0211215429829 17.3088322605962 12.2302331224952
vertex -31.1195533399642 48.0822405154465 17.86255
vertex -31.1195533399642 48.0822405154465 12.2302331224952
endloop
endfacet
facet normal 0.0103680455142507 0.08177739842358 -0.996596689107126
outer loop
vertex -31.4471310736904 48.1237720500539 17.86255
vertex -35.0211215429829 17.3088322605961 15.2967970405906
vertex -35.3486992767091 17.3503637952035 15.2967970405906
endloop
endfacet
facet normal 0.0103680455142507 0.08177739842358 -0.996596689107126
outer loop
vertex -35.0211215429829 17.3088322605961 15.2967970405906
vertex -31.4471310736904 48.1237720500539 17.86255
vertex -31.1195533399642 48.0822405154465 17.86255
endloop
endfacet
facet normal 0.125776906745497 0.99205855156313 -0.0
outer loop
vertex -33.11260069138 49.0710222051087 14.058265249867
vertex -32.0983696311895 48.9424341844974 13.270865249867
vertex -33.11260069138 49.0710222051087 13.270865249867
endloop
endfacet
facet normal 0.125776906745497 0.99205855156313 -0.0
outer loop
vertex -32.0983696311895 48.9424341844974 13.270865249867
vertex -33.11260069138 49.0710222051087 14.058265249867
vertex -32.0983696311895 48.9424341844974 14.058265249867
endloop
endfacet
facet normal 0.1257769067455 0.992058551563129 -0.0
outer loop
vertex -37.0582631932435 50.1665454711837 10.7685200004307
vertex -32.642263359743 49.6066684373421 8.45077000043066
vertex -32.642263359743 49.6066684373421 7.65702000043066
endloop
endfacet
facet normal 0.1257769067455 0.992058551563129 -0.0
outer loop
vertex -32.642263359743 49.6066684373421 8.45077000043066
vertex -37.0582631932435 50.1665454711837 10.7685200004307
vertex -37.0582631932435 50.1665454711837 11.5622700004307
endloop
endfacet
facet normal 7.56333176842313e-16 -4.62555436779627e-15 1.0
outer loop
vertex -32.0521332135195 40.726567184664 17.86255
vertex -32.2180624942313 42.0430921525596 17.86255
vertex -32.3797109472457 40.7680987192714 17.86255
endloop
endfacet
facet normal 7.56333176842313e-16 -4.62555436779627e-15 1.0
outer loop
vertex -32.2180624942313 42.0430921525596 17.86255
vertex -32.0521332135195 40.726567184664 17.86255
vertex -31.8904847605052 42.0015606179523 17.86255
endloop
endfacet
facet normal 0.125776906745499 0.992058551563129 -0.0
outer loop
vertex -32.3797109472457 40.7680987192714 18.25625
vertex -32.0521332135195 40.726567184664 17.86255
vertex -32.3797109472457 40.7680987192714 17.86255
endloop
endfacet
facet normal 0.125776906745499 0.992058551563129 -0.0
outer loop
vertex -32.0521332135195 40.726567184664 17.86255
vertex -32.3797109472457 40.7680987192714 18.25625
vertex -32.0521332135195 40.726567184664 18.25625
endloop
endfacet
facet normal -0.992058551563129 0.1257769067455 4.84717924959408e-16
outer loop
vertex -39.5569413311665 49.8880598995165 4.99883983164724
vertex -39.6487899173174 49.1636091422375 4.24953983164724
vertex -39.6487899173174 49.1636091422375 4.99883983164724
endloop
endfacet
facet normal -0.992058551563129 0.1257769067455 4.84717924959408e-16
outer loop
vertex -39.6487899173174 49.1636091422375 4.24953983164724
vertex -39.5569413311665 49.8880598995165 4.99883983164724
vertex -39.5569413311665 49.8880598995165 4.24953983164724
endloop
endfacet
facet normal 0.1257769067455 0.992058551563129 -0.0
outer loop
vertex -37.7993607982897 49.6652272426808 4.99883983164724
vertex -32.7165409120216 49.0208082597165 7.65702000043066
vertex -37.7993607982897 49.6652272426808 4.24953983164724
endloop
endfacet
facet normal 0.1257769067455 0.992058551563129 -0.0
outer loop
vertex -32.7165409120216 49.0208082597165 7.65702000043066
vertex -37.7993607982897 49.6652272426808 4.99883983164724
vertex -33.290170041489 49.0935351138017 8.06119733368098
endloop
endfacet
facet normal 0.992058551563129 -0.125776906745499 -1.33211471628187e-15
outer loop
vertex -35.0211215429829 17.3088322605961 15.2967970405906
vertex -35.0071911379203 17.4187075773513 17.86255
vertex -35.0211215429829 17.3088322605961 17.86255
endloop
endfacet
facet normal 0.992058551563129 -0.125776906745499 -1.33211471628187e-15
outer loop
vertex -35.0071911379203 17.4187075773513 17.86255
vertex -35.0211215429829 17.3088322605961 15.2967970405906
vertex -31.1195533399642 48.0822405154465 17.86255
endloop
endfacet
facet normal 0.992058551563129 -0.125776906745499 -1.33211471628187e-15
outer loop
vertex -35.0071911379203 17.4187075773513 17.86255
vertex -31.1195533399642 48.0822405154465 17.86255
vertex -32.6390949819427 36.096937971544 17.86255
endloop
endfacet
facet normal 0.992058551563129 -0.125776906745499 -1.33211471628187e-15
outer loop
vertex -35.0071911379203 17.4187075773513 17.86255
vertex -32.6390949819427 36.096937971544 17.86255
vertex -35.0071911379203 17.4187075773513 18.3261
endloop
endfacet
facet normal 0.992058551563129 -0.125776906745499 -1.33211471628187e-15
outer loop
vertex -35.0071911379203 17.4187075773513 18.3261
vertex -32.6390949819427 36.096937971544 17.86255
vertex -34.1685736121947 24.0332579698984 18.3261
endloop
endfacet
facet normal 0.992058551563129 -0.125776906745499 -1.33211471628187e-15
outer loop
vertex -34.1685736121947 24.0332579698984 18.3261
vertex -32.6390949819427 36.096937971544 17.86255
vertex -33.2085562160783 31.6053432764143 18.0592389455801
endloop
endfacet
facet normal 0.992058551563129 -0.125776906745499 -1.33211471628187e-15
outer loop
vertex -34.1685736121947 24.0332579698984 18.3261
vertex -33.2085562160783 31.6053432764143 18.0592389455801
vertex -34.1685736121947 24.0332579698984 19.11985
endloop
endfacet
facet normal 0.992058551563129 -0.125776906745499 -1.33211471628187e-15
outer loop
vertex -33.2085562160783 31.6053432764143 18.0592389455801
vertex -32.6390949819427 36.096937971544 17.86255
vertex -32.7541053854708 35.1897996319947 18.0592389455801
endloop
endfacet
facet normal 0.992058551563129 -0.125776906745499 -1.33211471628187e-15
outer loop
vertex -32.7541053854708 35.1897996319947 18.0592389455801
vertex -32.6390949819427 36.096937971544 17.86255
vertex -32.7541053854708 35.1897996319947 19.11985
endloop
endfacet
facet normal 0.992058551563129 -0.125776906745499 -1.33211471628187e-15
outer loop
vertex -32.6390949819427 36.096937971544 17.86255
vertex -31.1195533399642 48.0822405154465 17.86255
vertex -32.2462132694732 39.1957712366745 17.86255
endloop
endfacet
facet normal 0.992058551563129 -0.125776906745499 -1.33211471628187e-15
outer loop
vertex -32.2462132694732 39.1957712366745 17.86255
vertex -31.1195533399642 48.0822405154465 17.86255
vertex -32.0521332135195 40.726567184664 17.86255
endloop
endfacet
facet normal 0.992058551563129 -0.125776906745499 -1.33211471628187e-15
outer loop
vertex -32.2462132694732 39.1957712366745 17.86255
vertex -32.0521332135195 40.726567184664 17.86255
vertex -32.2462132694732 39.1957712366745 18.25625
endloop
endfacet
facet normal 0.992058551563129 -0.125776906745499 -1.33211471628187e-15
outer loop
vertex -32.0521332135195 40.726567184664 17.86255
vertex -31.1195533399642 48.0822405154465 17.86255
vertex -31.8904847605052 42.0015606179523 17.86255
endloop
endfacet
facet normal 0.992058551563129 -0.125776906745499 -1.33211471628187e-15
outer loop
vertex -31.8904847605052 42.0015606179523 17.86255
vertex -31.1195533399642 48.0822405154465 17.86255
vertex -31.6984694721469 43.5160708231692 17.86255
endloop
endfacet
facet normal 0.992058551563129 -0.125776906745499 -1.33211471628187e-15
outer loop
vertex -31.8904847605052 42.0015606179523 17.86255
vertex -31.6984694721469 43.5160708231692 17.86255
vertex -31.8904847605052 42.0015606179523 18.0510502770641
endloop
endfacet
facet normal 0.992058551563129 -0.125776906745499 -1.33211471628187e-15
outer loop
vertex -31.8904847605052 42.0015606179523 18.0510502770641
vertex -31.6984694721469 43.5160708231692 17.86255
vertex -31.8748896899954 42.124565893418 18.1396632331336
endloop
endfacet
facet normal 0.992058551563129 -0.125776906745499 -1.33211471628187e-15
outer loop
vertex -31.8748896899954 42.124565893418 18.1396632331336
vertex -31.6984694721469 43.5160708231692 17.86255
vertex -31.7247372187226 43.3088853922741 18.1396632331336
endloop
endfacet
facet normal 0.992058551563129 -0.125776906745499 -1.33211471628187e-15
outer loop
vertex -31.6984694721469 43.5160708231692 18.0467
vertex -31.7247372187226 43.3088853922741 18.1396632331336
vertex -31.6984694721469 43.5160708231692 17.86255
endloop
endfacet
facet normal 0.992058551563129 -0.125776906745499 -1.33211471628187e-15
outer loop
vertex -32.0521332135195 40.726567184664 18.25625
vertex -32.2462132694732 39.1957712366745 18.25625
vertex -32.0521332135195 40.726567184664 17.86255
endloop
endfacet
facet normal 0.992058551563129 -0.125776906745499 -1.33211471628187e-15
outer loop
vertex -32.6390949819427 36.096937971544 19.11985
vertex -32.7541053854708 35.1897996319947 19.11985
vertex -32.6390949819427 36.096937971544 17.86255
endloop
endfacet
facet normal 0.992058551563129 -0.125776906745499 -1.33211471628187e-15
outer loop
vertex -33.2085562160783 31.6053432764143 19.11985
vertex -34.1685736121947 24.0332579698984 19.11985
vertex -33.2085562160783 31.6053432764143 18.0592389455801
endloop
endfacet
facet normal 0.0 0.0 -1.0
outer loop
vertex -39.5569413311665 49.8880598995165 4.24953983164724
vertex -37.8912093844406 48.9407764854018 4.24953983164724
vertex -39.6487899173174 49.1636091422375 4.24953983164724
endloop
endfacet
facet normal 0.0 0.0 -1.0
outer loop
vertex -37.8912093844406 48.9407764854018 4.24953983164724
vertex -39.5569413311665 49.8880598995165 4.24953983164724
vertex -37.7993607982897 49.6652272426808 4.24953983164724
endloop
endfacet
facet normal 0.549380372772217 -0.0696525056964636 -0.832664238731834
outer loop
vertex -37.7993607982897 49.6652272426808 4.24953983164724
vertex -32.8083894981725 48.2963575024376 7.65702000043066
vertex -37.8912093844406 48.9407764854018 4.24953983164724
endloop
endfacet
facet normal 0.549380372772217 -0.0696525056964636 -0.832664238731834
outer loop
vertex -32.8083894981725 48.2963575024376 7.65702000043066
vertex -37.7993607982897 49.6652272426808 4.24953983164724
vertex -32.7165409120216 49.0208082597165 7.65702000043066
endloop
endfacet
facet normal 0.992058551563129 -0.125776906745501 -0.0
outer loop
vertex -31.9493104614762 49.5188132679804 7.65702000043066
vertex -32.1154365999056 48.2085023330758 8.45077000043066
vertex -32.1154365999056 48.2085023330758 7.65702000043066
endloop
endfacet
facet normal 0.992058551563129 -0.125776906745501 -0.0
outer loop
vertex -32.1154365999056 48.2085023330758 8.45077000043066
vertex -31.9493104614762 49.5188132679804 7.65702000043066
vertex -31.9493104614762 49.5188132679804 8.45077000043066
endloop
endfacet
facet normal 0.125776906745498 0.992058551563129 -0.0
outer loop
vertex -32.642263359743 49.6066684373421 8.45077000043066
vertex -31.9493104614762 49.5188132679804 7.65702000043066
vertex -32.642263359743 49.6066684373421 7.65702000043066
endloop
endfacet
facet normal 0.125776906745498 0.992058551563129 -0.0
outer loop
vertex -31.9493104614762 49.5188132679804 7.65702000043066
vertex -32.642263359743 49.6066684373421 8.45077000043066
vertex -31.9493104614762 49.5188132679804 8.45077000043066
endloop
endfacet
facet normal 0.125776906745497 0.992058551563129 -0.0
outer loop
vertex -37.9780006763977 50.2831532414275 11.5622700004307
vertex -37.0582631932435 50.1665454711837 10.7685200004307
vertex -37.9780006763977 50.2831532414275 10.7685200004307
endloop
endfacet
facet normal 0.125776906745497 0.992058551563129 -0.0
outer loop
vertex -37.0582631932435 50.1665454711837 10.7685200004307
vertex -37.9780006763977 50.2831532414275 11.5622700004307
vertex -37.0582631932435 50.1665454711837 11.5622700004307
endloop
endfacet
facet normal 0.125776906745499 0.992058551563129 -0.0
outer loop
vertex -32.0260472058731 43.5576023577765 18.0467
vertex -31.6984694721469 43.5160708231692 17.86255
vertex -32.0260472058731 43.5576023577765 17.86255
endloop
endfacet
facet normal 0.125776906745499 0.992058551563129 -0.0
outer loop
vertex -31.6984694721469 43.5160708231692 17.86255
vertex -32.0260472058731 43.5576023577765 18.0467
vertex -31.6984694721469 43.5160708231692 18.0467
endloop
endfacet
facet normal -0.992058551563129 0.125776906745499 1.51376672304758e-15
outer loop
vertex -34.4961513459208 24.0747895045058 18.3261
vertex -35.3347688716464 17.4602391119586 17.86255
vertex -35.3347688716464 17.4602391119586 18.3261
endloop
endfacet
facet normal -0.992058551563129 0.125776906745499 1.51376672304758e-15
outer loop
vertex -33.5361339498045 31.6468748110217 19.11985
vertex -34.4961513459208 24.0747895045058 18.3261
vertex -34.4961513459208 24.0747895045058 19.11985
endloop
endfacet
facet normal -0.992058551563129 0.125776906745499 1.51376672304758e-15
outer loop
vertex -32.9666727156689 36.1384695061513 19.11985
vertex -33.0816831191969 35.231331166602 18.0592389455801
vertex -33.0816831191969 35.231331166602 19.11985
endloop
endfacet
facet normal -0.992058551563129 0.125776906745499 1.51376672304758e-15
outer loop
vertex -32.3797109472457 40.7680987192714 18.25625
vertex -32.5737910031993 39.2373027712819 17.86255
vertex -32.5737910031993 39.2373027712819 18.25625
endloop
endfacet
facet normal -0.992058551563129 0.125776906745499 1.51376672304758e-15
outer loop
vertex -32.2024674237216 42.1660974280254 18.1396632331336
vertex -32.2180624942313 42.0430921525596 17.86255
vertex -32.2180624942314 42.0430921525596 18.0510502770641
endloop
endfacet
facet normal -0.992058551563129 0.125776906745499 1.51376672304758e-15
outer loop
vertex -35.3347688716464 17.4602391119586 17.86255
vertex -35.3486992767091 17.3503637952035 15.2967970405906
vertex -35.3486992767091 17.3503637952035 17.86255
endloop
endfacet
facet normal -0.992058551563129 0.125776906745499 1.51376672304758e-15
outer loop
vertex -35.3486992767091 17.3503637952035 15.2967970405906
vertex -35.3347688716464 17.4602391119586 17.86255
vertex -31.4471310736904 48.1237720500539 17.86255
endloop
endfacet
facet normal -0.992058551563129 0.125776906745499 1.51376672304758e-15
outer loop
vertex -31.4471310736904 48.1237720500539 17.86255
vertex -35.3347688716464 17.4602391119586 17.86255
vertex -32.9666727156689 36.1384695061513 17.86255
endloop
endfacet
facet normal -0.992058551563129 0.125776906745499 1.51376672304758e-15
outer loop
vertex -32.9666727156689 36.1384695061513 17.86255
vertex -35.3347688716464 17.4602391119586 17.86255
vertex -34.4961513459208 24.0747895045058 18.3261
endloop
endfacet
facet normal -0.992058551563129 0.125776906745499 1.51376672304758e-15
outer loop
vertex -32.9666727156689 36.1384695061513 17.86255
vertex -34.4961513459208 24.0747895045058 18.3261
vertex -33.5361339498045 31.6468748110217 18.0592389455801
endloop
endfacet
facet normal -0.992058551563129 0.125776906745499 1.51376672304758e-15
outer loop
vertex -33.5361339498045 31.6468748110217 18.0592389455801
vertex -34.4961513459208 24.0747895045058 18.3261
vertex -33.5361339498045 31.6468748110217 19.11985
endloop
endfacet
facet normal -0.992058551563129 0.125776906745499 1.51376672304758e-15
outer loop
vertex -32.9666727156689 36.1384695061513 17.86255
vertex -33.5361339498045 31.6468748110217 18.0592389455801
vertex -33.0816831191969 35.231331166602 18.0592389455801
endloop
endfacet
facet normal -0.992058551563129 0.125776906745499 1.51376672304758e-15
outer loop
vertex -32.9666727156689 36.1384695061513 17.86255
vertex -33.0816831191969 35.231331166602 18.0592389455801
vertex -32.9666727156689 36.1384695061513 19.11985
endloop
endfacet
facet normal -0.992058551563129 0.125776906745499 1.51376672304758e-15
outer loop
vertex -31.4471310736904 48.1237720500539 17.86255
vertex -32.9666727156689 36.1384695061513 17.86255
vertex -32.5737910031993 39.2373027712819 17.86255
endloop
endfacet
facet normal -0.992058551563129 0.125776906745499 1.51376672304758e-15
outer loop
vertex -31.4471310736904 48.1237720500539 17.86255
vertex -32.5737910031993 39.2373027712819 17.86255
vertex -32.3797109472457 40.7680987192714 17.86255
endloop
endfacet
facet normal -0.992058551563129 0.125776906745499 1.51376672304758e-15
outer loop
vertex -32.3797109472457 40.7680987192714 17.86255
vertex -32.5737910031993 39.2373027712819 17.86255
vertex -32.3797109472457 40.7680987192714 18.25625
endloop
endfacet
facet normal -0.992058551563129 0.125776906745499 1.51376672304758e-15
outer loop
vertex -31.4471310736904 48.1237720500539 17.86255
vertex -32.3797109472457 40.7680987192714 17.86255
vertex -32.2180624942313 42.0430921525596 17.86255
endloop
endfacet
facet normal -0.992058551563129 0.125776906745499 1.51376672304758e-15
outer loop
vertex -31.4471310736904 48.1237720500539 17.86255
vertex -32.2180624942313 42.0430921525596 17.86255
vertex -32.0260472058731 43.5576023577765 17.86255
endloop
endfacet
facet normal -0.992058551563129 0.125776906745499 1.51376672304758e-15
outer loop
vertex -32.0260472058731 43.5576023577765 17.86255
vertex -32.2180624942313 42.0430921525596 17.86255
vertex -32.2024674237216 42.1660974280254 18.1396632331336
endloop
endfacet
facet normal -0.992058551563129 0.125776906745499 1.51376672304758e-15
outer loop
vertex -32.0260472058731 43.5576023577765 17.86255
vertex -32.2024674237216 42.1660974280254 18.1396632331336
vertex -32.0523149524488 43.3504169268814 18.1396632331336
endloop
endfacet
facet normal -0.992058551563129 0.125776906745499 1.51376672304758e-15
outer loop
vertex -32.0260472058731 43.5576023577765 17.86255
vertex -32.0523149524488 43.3504169268814 18.1396632331336
vertex -32.0260472058731 43.5576023577765 18.0467
endloop
endfacet
facet normal 0.355334432282963 -0.0450506330319911 0.933652977126706
outer loop
vertex -39.5994570677739 3.63652086696408 8.1534
vertex -41.5077989879209 8.32468735212697 9.1059
vertex -42.0625896425224 3.94880605987714 9.1059
endloop
endfacet
facet normal 0.355334432282963 -0.0450506330319911 0.933652977126706
outer loop
vertex -41.5077989879209 8.32468735212697 9.1059
vertex -39.5994570677739 3.63652086696408 8.1534
vertex -40.8780841240483 13.2915292940692 9.1059
endloop
endfacet
facet normal 0.355334432282963 -0.0450506330319911 0.933652977126706
outer loop
vertex -40.8780841240483 13.2915292940692 9.1059
vertex -39.5994570677739 3.63652086696408 8.1534
vertex -40.3805624909242 17.215704275786 9.1059
endloop
endfacet
facet normal 0.355334432282963 -0.0450506330319911 0.933652977126706
outer loop
vertex -40.3805624909242 17.215704275786 9.1059
vertex -39.5994570677739 3.63652086696408 8.1534
vertex -37.9174299161756 16.903419082873 8.1534
endloop
endfacet
facet normal -0.355334432282963 0.0450506330319913 0.933652977126706
outer loop
vertex -42.0625896425224 3.94880605987714 9.1059
vertex -43.9709315626695 8.63697254504003 8.1534
vertex -44.5257222172709 4.2610912527902 8.1534
endloop
endfacet
facet normal -0.355334432282963 0.0450506330319913 0.933652977126706
outer loop
vertex -43.9709315626695 8.63697254504003 8.1534
vertex -42.0625896425224 3.94880605987714 9.1059
vertex -41.5077989879209 8.32468735212697 9.1059
endloop
endfacet
facet normal -0.355334432282963 0.0450506330319913 0.933652977126706
outer loop
vertex -40.8780841240483 13.2915292940692 9.1059
vertex -42.8436950656727 17.5279894686991 8.1534
vertex -43.3412166987968 13.6038144869823 8.1534
endloop
endfacet
facet normal -0.355334432282963 0.0450506330319913 0.933652977126706
outer loop
vertex -42.8436950656727 17.5279894686991 8.1534
vertex -40.8780841240483 13.2915292940692 9.1059
vertex -40.3805624909242 17.215704275786 9.1059
endloop
endfacet
facet normal -0.992058551563129 0.125776906745499 -3.13510791699111e-16
outer loop
vertex -35.0211215429829 17.3088322605961 8.1534
vertex -37.7414370597653 -4.14750929846637 0.0
vertex -37.7414370597653 -4.14750929846637 8.1534
endloop
endfacet
facet normal -0.992058551563129 0.125776906745499 -3.13510791699111e-16
outer loop
vertex -37.7414370597653 -4.14750929846637 0.0
vertex -35.0211215429829 17.3088322605961 8.1534
vertex -31.1195533399642 48.0822405154465 0.0
endloop
endfacet
facet normal -0.992058551563129 0.125776906745499 -3.13510791699111e-16
outer loop
vertex -31.1195533399642 48.0822405154465 0.0
vertex -35.0211215429829 17.3088322605961 8.1534
vertex -35.0211215429829 17.3088322605962 12.2302331224952
endloop
endfacet
facet normal -0.992058551563129 0.125776906745499 -3.13510791699111e-16
outer loop
vertex -31.1195533399642 48.0822405154465 0.0
vertex -35.0211215429829 17.3088322605962 12.2302331224952
vertex -31.1195533399642 48.0822405154465 12.2302331224952
endloop
endfacet
facet normal 0.0 0.0 -1.0
outer loop
vertex -43.9709315626695 8.63697254504003 8.1534
vertex -42.0625896425224 3.94880605987714 8.1534
vertex -44.5257222172709 4.2610912527902 8.1534
endloop
endfacet
facet normal 0.0 0.0 -1.0
outer loop
vertex -42.0625896425224 3.94880605987714 8.1534
vertex -43.9709315626695 8.63697254504003 8.1534
vertex -43.3412166987968 13.6038144869823 8.1534
endloop
endfacet
facet normal 0.0 0.0 -1.0
outer loop
vertex -42.0625896425224 3.94880605987714 8.1534
vertex -43.3412166987968 13.6038144869823 8.1534
vertex -42.8436950656727 17.5279894686991 8.1534
endloop
endfacet
facet normal 0.0 0.0 -1.0
outer loop
vertex -42.0625896425224 3.94880605987714 8.1534
vertex -42.8436950656727 17.5279894686991 8.1534
vertex -40.3805624909242 17.215704275786 8.1534
endloop
endfacet
facet normal 0.0 0.0 -1.0
outer loop
vertex -40.3805624909242 17.215704275786 8.1534
vertex -39.5994570677739 3.63652086696408 8.1534
vertex -42.0625896425224 3.94880605987714 8.1534
endloop
endfacet
facet normal 0.0 0.0 -1.0
outer loop
vertex -39.5994570677739 3.63652086696408 8.1534
vertex -40.3805624909242 17.215704275786 8.1534
vertex -37.9174299161756 16.903419082873 8.1534
endloop
endfacet
facet normal 0.0 0.0 -1.0
outer loop
vertex -44.6531668288921 18.5300191147242 8.1534
vertex -42.8436950656727 17.5279894686991 8.1534
vertex -44.5257222172709 4.2610912527902 8.1534
endloop
endfacet
facet normal 0.0 0.0 -1.0
outer loop
vertex -42.8436950656727 17.5279894686991 8.1534
vertex -44.6531668288921 18.5300191147242 8.1534
vertex -35.0211215429829 17.3088322605961 8.1534
endloop
endfacet
facet normal 0.0 0.0 -1.0
outer loop
vertex -44.5257222172709 4.2610912527902 8.1534
vertex -42.8436950656727 17.5279894686991 8.1534
vertex -43.3412166987968 13.6038144869823 8.1534
endloop
endfacet
facet normal 0.0 0.0 -1.0
outer loop
vertex -44.5257222172709 4.2610912527902 8.1534
vertex -43.3412166987968 13.6038144869823 8.1534
vertex -43.9709315626695 8.63697254504003 8.1534
endloop
endfacet
facet normal 0.0 0.0 -1.0
outer loop
vertex -42.8436950656727 17.5279894686991 8.1534
vertex -35.0211215429829 17.3088322605961 8.1534
vertex -40.3805624909242 17.215704275786 8.1534
endloop
endfacet
facet normal 0.0 0.0 -1.0
outer loop
vertex -40.3805624909242 17.215704275786 8.1534
vertex -35.0211215429829 17.3088322605961 8.1534
vertex -37.9174299161756 16.903419082873 8.1534
endloop
endfacet
facet normal 0.0 0.0 -1.0
outer loop
vertex -37.9174299161756 16.903419082873 8.1534
vertex -35.0211215429829 17.3088322605961 8.1534
vertex -37.7414370597653 -4.14750929846637 8.1534
endloop
endfacet
facet normal 0.0 0.0 -1.0
outer loop
vertex -47.3734823456744 -2.9263224443383 8.1534
vertex -44.5257222172709 4.2610912527902 8.1534
vertex -37.7414370597653 -4.14750929846637 8.1534
endloop
endfacet
facet normal 0.0 0.0 -1.0
outer loop
vertex -44.5257222172709 4.2610912527902 8.1534
vertex -47.3734823456744 -2.9263224443383 8.1534
vertex -44.6531668288921 18.5300191147242 8.1534
endloop
endfacet
facet normal 0.0 0.0 -1.0
outer loop
vertex -37.7414370597653 -4.14750929846637 8.1534
vertex -44.5257222172709 4.2610912527902 8.1534
vertex -42.0625896425224 3.94880605987714 8.1534
endloop
endfacet
facet normal 0.0 0.0 -1.0
outer loop
vertex -37.7414370597653 -4.14750929846637 8.1534
vertex -42.0625896425224 3.94880605987714 8.1534
vertex -39.5994570677739 3.63652086696408 8.1534
endloop
endfacet
facet normal 0.0 0.0 -1.0
outer loop
vertex -37.7414370597653 -4.14750929846637 8.1534
vertex -39.5994570677739 3.63652086696408 8.1534
vertex -37.9174299161756 16.903419082873 8.1534
endloop
endfacet
facet normal 0.125776906745498 0.992058551563129 4.75210523913008e-15
outer loop
vertex -42.0625896425224 3.94880605987714 9.1059
vertex -42.0625896425224 3.94880605987714 8.1534
vertex -44.5257222172709 4.2610912527902 8.1534
endloop
endfacet
facet normal 0.125776906745498 0.992058551563129 4.75210523913008e-15
outer loop
vertex -42.0625896425224 3.94880605987714 8.1534
vertex -42.0625896425224 3.94880605987714 9.1059
vertex -39.5994570677739 3.63652086696408 8.1534
endloop
endfacet
facet normal 0.125776906745499 0.992058551563129 1.26012149838938e-15
outer loop
vertex -40.3805624909242 17.215704275786 9.1059
vertex -40.3805624909242 17.215704275786 8.1534
vertex -42.8436950656727 17.5279894686991 8.1534
endloop
endfacet
facet normal 0.125776906745499 0.992058551563129 1.26012149838938e-15
outer loop
vertex -40.3805624909242 17.215704275786 8.1534
vertex -40.3805624909242 17.215704275786 9.1059
vertex -37.9174299161756 16.903419082873 8.1534
endloop
endfacet
facet normal -0.355334432282963 0.0450506330319909 0.933652977126706
outer loop
vertex -41.5077989879209 8.32468735212697 9.1059
vertex -43.3412166987968 13.6038144869823 8.1534
vertex -43.9709315626695 8.63697254504003 8.1534
endloop
endfacet
facet normal -0.355334432282963 0.0450506330319909 0.933652977126706
outer loop
vertex -43.3412166987968 13.6038144869823 8.1534
vertex -41.5077989879209 8.32468735212697 9.1059
vertex -40.8780841240483 13.2915292940692 9.1059
endloop
endfacet
facet normal -0.0 -0.0 1.0
outer loop
vertex -42.5445216272734 32.7889920127242 18.0592389455801
vertex -42.38615067138 36.4109864861227 18.0592389455801
vertex -42.8406015019875 32.8265301305424 18.0592389455801
endloop
endfacet
facet normal -0.0 -0.0 1.0
outer loop
vertex -42.38615067138 36.4109864861227 18.0592389455801
vertex -42.5445216272734 32.7889920127242 18.0592389455801
vertex -42.0900707966659 36.3734483683046 18.0592389455801
endloop
endfacet
facet normal 0.992058551563129 -0.125776906745499 -1.69541872981329e-15
outer loop
vertex -40.4555187511594 49.2658892517564 17.86255
vertex -44.3570869541781 18.492480996906 17.86255
vertex -44.3570869541781 18.492480996906 15.2967970405906
endloop
endfacet
facet normal 0.992058551563129 -0.125776906745499 -1.69541872981329e-15
outer loop
vertex -44.3570869541781 18.492480996906 17.86255
vertex -40.4555187511594 49.2658892517564 17.86255
vertex -44.3431565491154 18.6023563136612 17.86255
endloop
endfacet
facet normal 0.992058551563129 -0.125776906745499 -1.69541872981329e-15
outer loop
vertex -44.3431565491154 18.6023563136612 17.86255
vertex -40.4555187511594 49.2658892517564 17.86255
vertex -41.9750603931378 37.2805867078539 17.86255
endloop
endfacet
facet normal 0.992058551563129 -0.125776906745499 -1.69541872981329e-15
outer loop
vertex -44.3431565491154 18.6023563136612 17.86255
vertex -41.9750603931378 37.2805867078539 17.86255
vertex -44.3431565491154 18.6023563136612 18.3261
endloop
endfacet
facet normal 0.992058551563129 -0.125776906745499 -1.69541872981329e-15
outer loop
vertex -44.3431565491154 18.6023563136612 18.3261
vertex -41.9750603931378 37.2805867078539 17.86255
vertex -43.5045390233898 25.2169067062083 18.3261
endloop
endfacet
facet normal 0.992058551563129 -0.125776906745499 -1.69541872981329e-15
outer loop
vertex -43.5045390233898 25.2169067062083 18.3261
vertex -41.9750603931378 37.2805867078539 17.86255
vertex -42.5445216272734 32.7889920127242 18.0592389455801
endloop
endfacet
facet normal 0.992058551563129 -0.125776906745499 -1.69541872981329e-15
outer loop
vertex -43.5045390233898 25.2169067062083 18.3261
vertex -42.5445216272734 32.7889920127242 18.0592389455801
vertex -43.5045390233898 25.2169067062083 19.11985
endloop
endfacet
facet normal 0.992058551563129 -0.125776906745499 -1.69541872981329e-15
outer loop
vertex -42.5445216272734 32.7889920127242 18.0592389455801
vertex -41.9750603931378 37.2805867078539 17.86255
vertex -42.0900707966659 36.3734483683046 18.0592389455801
endloop
endfacet
facet normal 0.992058551563129 -0.125776906745499 -1.69541872981329e-15
outer loop
vertex -42.0900707966659 36.3734483683046 18.0592389455801
vertex -41.9750603931378 37.2805867078539 17.86255
vertex -42.0900707966659 36.3734483683046 19.11985
endloop
endfacet
facet normal 0.992058551563129 -0.125776906745499 -1.69541872981329e-15
outer loop
vertex -41.9750603931378 37.2805867078539 17.86255
vertex -40.4555187511594 49.2658892517564 17.86255
vertex -41.5821786806683 40.3794199729844 17.86255
endloop
endfacet
facet normal 0.992058551563129 -0.125776906745499 -1.69541872981329e-15
outer loop
vertex -41.5821786806683 40.3794199729844 17.86255
vertex -40.4555187511594 49.2658892517564 17.86255
vertex -41.3880986247147 41.9102159209739 17.86255
endloop
endfacet
facet normal 0.992058551563129 -0.125776906745499 -1.69541872981329e-15
outer loop
vertex -41.5821786806683 40.3794199729844 17.86255
vertex -41.3880986247147 41.9102159209739 17.86255
vertex -41.5821786806683 40.3794199729844 18.25625
endloop
endfacet
facet normal 0.992058551563129 -0.125776906745499 -1.69541872981329e-15
outer loop
vertex -41.3880986247147 41.9102159209739 17.86255
vertex -40.4555187511594 49.2658892517564 17.86255
vertex -41.2264501717003 43.1852093542621 17.86255
endloop
endfacet
facet normal 0.992058551563129 -0.125776906745499 -1.69541872981329e-15
outer loop
vertex -41.2264501717003 43.1852093542621 17.86255
vertex -40.4555187511594 49.2658892517564 17.86255
vertex -41.0344348833421 44.6997195594791 17.86255
endloop
endfacet
facet normal 0.992058551563129 -0.125776906745499 -1.69541872981329e-15
outer loop
vertex -41.2264501717003 43.1852093542621 17.86255
vertex -41.0344348833421 44.6997195594791 17.86255
vertex -41.2264501717003 43.1852093542621 18.0510502770641
endloop
endfacet
facet normal 0.992058551563129 -0.125776906745499 -1.69541872981329e-15
outer loop
vertex -41.2264501717003 43.1852093542621 18.0510502770641
vertex -41.0344348833421 44.6997195594791 17.86255
vertex -41.2108551011906 43.3082146297279 18.1396632331336
endloop
endfacet
facet normal 0.992058551563129 -0.125776906745499 -1.69541872981329e-15
outer loop
vertex -41.2108551011906 43.3082146297279 18.1396632331336
vertex -41.0344348833421 44.6997195594791 17.86255
vertex -41.0607026299178 44.492534128584 18.1396632331336
endloop
endfacet
facet normal 0.992058551563129 -0.125776906745499 -1.69541872981329e-15
outer loop
vertex -41.0344348833421 44.6997195594791 18.0467
vertex -41.0607026299178 44.492534128584 18.1396632331336
vertex -41.0344348833421 44.6997195594791 17.86255
endloop
endfacet
facet normal 0.992058551563129 -0.125776906745499 -1.69541872981329e-15
outer loop
vertex -41.3880986247147 41.9102159209739 18.25625
vertex -41.5821786806683 40.3794199729844 18.25625
vertex -41.3880986247147 41.9102159209739 17.86255
endloop
endfacet
facet normal 0.992058551563129 -0.125776906745499 -1.69541872981329e-15
outer loop
vertex -41.9750603931378 37.2805867078539 19.11985
vertex -42.0900707966659 36.3734483683046 19.11985
vertex -41.9750603931378 37.2805867078539 17.86255
endloop
endfacet
facet normal 0.992058551563129 -0.125776906745499 -1.69541872981329e-15
outer loop
vertex -42.5445216272734 32.7889920127242 19.11985
vertex -43.5045390233898 25.2169067062083 19.11985
vertex -42.5445216272734 32.7889920127242 18.0592389455801
endloop
endfacet
facet normal -9.51972861898312e-15 1.83934691780384e-15 1.0
outer loop
vertex -41.0344348833421 44.6997195594791 17.86255
vertex -40.7515986258734 49.3034273695746 17.86255
vertex -41.3305147580561 44.7372576772973 17.86255
endloop
endfacet
facet normal -9.51972861898312e-15 1.83934691780384e-15 1.0
outer loop
vertex -40.7515986258734 49.3034273695746 17.86255
vertex -41.0344348833421 44.6997195594791 17.86255
vertex -40.4555187511594 49.2658892517564 17.86255
endloop
endfacet
facet normal -0.125776906745486 -0.992058551563131 0.0
outer loop
vertex -44.3570869541781 18.492480996906 17.86255
vertex -44.6531668288921 18.5300191147242 15.2967970405906
vertex -44.3570869541781 18.492480996906 15.2967970405906
endloop
endfacet
facet normal -0.125776906745486 -0.992058551563131 0.0
outer loop
vertex -44.6531668288921 18.5300191147242 15.2967970405906
vertex -44.3570869541781 18.492480996906 17.86255
vertex -44.6531668288921 18.5300191147242 17.86255
endloop
endfacet
facet normal 0.051148853475952 0.403433816321748 0.913578103194339
outer loop
vertex -41.0607026299178 44.492534128584 18.1396632331336
vertex -41.3305147580561 44.7372576772973 18.0467
vertex -41.3567825046318 44.5300722464022 18.1396632331336
endloop
endfacet
facet normal 0.051148853475952 0.403433816321748 0.913578103194339
outer loop
vertex -41.3305147580561 44.7372576772973 18.0467
vertex -41.0607026299178 44.492534128584 18.1396632331336
vertex -41.0344348833421 44.6997195594791 18.0467
endloop
endfacet
facet normal 0.992058551563129 -0.125776906745499 -5.19476049093021e-16
outer loop
vertex -51.2844826795295 50.6388259438729 0.0
vertex -55.1860508825482 19.8654176890225 4.79425
vertex -55.1860508825482 19.8654176890225 0.0
endloop
endfacet
facet normal 0.992058551563129 -0.125776906745499 -5.19476049093021e-16
outer loop
vertex -55.1860508825482 19.8654176890225 4.79425
vertex -51.2844826795295 50.6388259438729 0.0
vertex -54.2243455034748 27.450816869847 4.79425
endloop
endfacet
facet normal 0.992058551563129 -0.125776906745499 -5.19476049093021e-16
outer loop
vertex -54.2243455034748 27.450816869847 4.79425
vertex -51.2844826795295 50.6388259438729 0.0
vertex -54.2243455034748 27.450816869847 10.6519403304459
endloop
endfacet
facet normal 0.992058551563129 -0.125776906745499 -5.19476049093021e-16
outer loop
vertex -54.2243455034748 27.450816869847 10.6519403304459
vertex -51.2844826795295 50.6388259438729 0.0
vertex -51.4196527177455 49.572679575695 11.62685
endloop
endfacet
facet normal 0.992058551563129 -0.125776906745499 -5.19476049093021e-16
outer loop
vertex -51.4196527177455 49.572679575695 11.62685
vertex -51.2844826795295 50.6388259438729 0.0
vertex -51.2844826795295 50.6388259438729 11.62685
endloop
endfacet
facet normal -8.85721618100473e-17 1.12295111197584e-17 1.0
outer loop
vertex -44.3431565491154 18.6023563136612 18.3261
vertex -43.8006188981038 25.2544448240265 18.3261
vertex -44.6392364238295 18.6398944314794 18.3261
endloop
endfacet
facet normal -8.85721618100473e-17 1.12295111197584e-17 1.0
outer loop
vertex -43.8006188981038 25.2544448240265 18.3261
vertex -44.3431565491154 18.6023563136612 18.3261
vertex -43.5045390233898 25.2169067062083 18.3261
endloop
endfacet
facet normal -8.85721618100473e-17 1.12295111197584e-17 1.0
outer loop
vertex -43.5045390233898 25.2169067062083 19.11985
vertex -42.8406015019875 32.8265301305424 19.11985
vertex -43.8006188981038 25.2544448240265 19.11985
endloop
endfacet
facet normal -8.85721618100473e-17 1.12295111197584e-17 1.0
outer loop
vertex -42.8406015019875 32.8265301305424 19.11985
vertex -43.5045390233898 25.2169067062083 19.11985
vertex -42.5445216272734 32.7889920127242 19.11985
endloop
endfacet
facet normal 0.125776906745498 0.992058551563129 -7.03027678252809e-16
outer loop
vertex -37.1325407455221 49.5806852935581 11.5622700004307
vertex -36.5344231511222 49.5048536999741 11.1408381695558
vertex -37.1325407455221 49.5806852935581 10.7685200004307
endloop
endfacet
facet normal 0.125776906745498 0.992058551563129 -7.03027678252809e-16
outer loop
vertex -36.5344231511222 49.5048536999741 11.1408381695558
vertex -37.1325407455221 49.5806852935581 11.5622700004307
vertex -33.11260069138 49.0710222051087 13.270865249867
endloop
endfacet
facet normal 0.125776906745498 0.992058551563129 -7.03027678252809e-16
outer loop
vertex -33.11260069138 49.0710222051087 13.270865249867
vertex -37.1325407455221 49.5806852935581 11.5622700004307
vertex -33.11260069138 49.0710222051087 14.058265249867
endloop
endfacet
facet normal -9.88123957014088e-15 -1.01205116360784e-15 1.0
outer loop
vertex -41.3880986247147 41.9102159209739 17.86255
vertex -41.5225300464144 43.2227474720803 17.86255
vertex -41.6841784994287 41.9477540387921 17.86255
endloop
endfacet
facet normal -9.88123957014088e-15 -1.01205116360784e-15 1.0
outer loop
vertex -41.5225300464144 43.2227474720803 17.86255
vertex -41.3880986247147 41.9102159209739 17.86255
vertex -41.2264501717003 43.1852093542621 17.86255
endloop
endfacet
facet normal -0.1257769067455 -0.992058551563129 -0.0
outer loop
vertex -43.5045390233898 25.2169067062083 19.11985
vertex -43.8006188981038 25.2544448240265 18.3261
vertex -43.5045390233898 25.2169067062083 18.3261
endloop
endfacet
facet normal -0.1257769067455 -0.992058551563129 -0.0
outer loop
vertex -43.8006188981038 25.2544448240265 18.3261
vertex -43.5045390233898 25.2169067062083 19.11985
vertex -43.8006188981038 25.2544448240265 19.11985
endloop
endfacet
facet normal -0.125776906745502 -0.992058551563129 0.0
outer loop
vertex -41.5821786806683 40.3794199729844 18.25625
vertex -41.8782585553823 40.4169580908026 17.86255
vertex -41.5821786806683 40.3794199729844 17.86255
endloop
endfacet
facet normal -0.125776906745502 -0.992058551563129 0.0
outer loop
vertex -41.8782585553823 40.4169580908026 17.86255
vertex -41.5821786806683 40.3794199729844 18.25625
vertex -41.8782585553823 40.4169580908026 18.25625
endloop
endfacet
facet normal -0.0731329626771948 -0.576832289029405 0.813582251590553
outer loop
vertex -41.2264501717003 43.1852093542621 18.0510502770641
vertex -41.5069349759046 43.3457527475461 18.1396632331336
vertex -41.5225300464144 43.2227474720803 18.0510502770641
endloop
endfacet
facet normal -0.0731329626771948 -0.576832289029405 0.813582251590553
outer loop
vertex -41.5069349759046 43.3457527475461 18.1396632331336
vertex -41.2264501717003 43.1852093542621 18.0510502770641
vertex -41.2108551011906 43.3082146297279 18.1396632331336
endloop
endfacet
facet normal 0.125776906745499 0.992058551563129 -0.0
outer loop
vertex -39.5569413311665 49.8880598995165 4.99883983164724
vertex -37.7993607982897 49.6652272426808 4.24953983164724
vertex -39.5569413311665 49.8880598995165 4.24953983164724
endloop
endfacet
facet normal 0.125776906745499 0.992058551563129 -0.0
outer loop
vertex -37.7993607982897 49.6652272426808 4.24953983164724
vertex -39.5569413311665 49.8880598995165 4.99883983164724
vertex -37.7993607982897 49.6652272426808 4.99883983164724
endloop
endfacet
facet normal 0.1257769067455 0.992058551563129 -0.0
outer loop
vertex -55.1860508825482 19.8654176890225 4.79425
vertex -44.6531668288921 18.5300191147242 0.0
vertex -55.1860508825482 19.8654176890225 0.0
endloop
endfacet
facet normal 0.1257769067455 0.992058551563129 -0.0
outer loop
vertex -44.6531668288921 18.5300191147242 0.0
vertex -55.1860508825482 19.8654176890225 4.79425
vertex -44.6531668288921 18.5300191147242 4.79425
endloop
endfacet
facet normal 0.125776906745502 0.992058551563129 -0.0
outer loop
vertex -42.2711402678519 37.3181248256721 19.11985
vertex -41.9750603931378 37.2805867078539 17.86255
vertex -42.2711402678519 37.3181248256721 17.86255
endloop
endfacet
facet normal 0.125776906745502 0.992058551563129 -0.0
outer loop
vertex -41.9750603931378 37.2805867078539 17.86255
vertex -42.2711402678519 37.3181248256721 19.11985
vertex -41.9750603931378 37.2805867078539 19.11985
endloop
endfacet
facet normal 0.125776906745499 0.992058551563129 0.0
outer loop
vertex -47.3734823456744 -2.9263224443383 8.1534
vertex -37.7414370597653 -4.14750929846637 0.0
vertex -47.3734823456744 -2.9263224443383 0.0
endloop
endfacet
facet normal 0.125776906745499 0.992058551563129 0.0
outer loop
vertex -37.7414370597653 -4.14750929846637 0.0
vertex -47.3734823456744 -2.9263224443383 8.1534
vertex -37.7414370597653 -4.14750929846637 8.1534
endloop
endfacet
facet normal 0.125776906745501 0.992058551563129 8.64902919818329e-16
outer loop
vertex -33.290170041489 49.0935351138017 8.06119733368098
vertex -32.7165409120216 49.0208082597165 8.45077000043066
vertex -32.7165409120216 49.0208082597165 7.65702000043066
endloop
endfacet
facet normal 0.125776906745501 0.992058551563129 8.64902919818329e-16
outer loop
vertex -32.7165409120216 49.0208082597165 8.45077000043066
vertex -33.290170041489 49.0935351138017 8.06119733368098
vertex -37.1325407455221 49.5806852935581 10.7685200004307
endloop
endfacet
facet normal 0.125776906745501 0.992058551563129 8.64902919818329e-16
outer loop
vertex -32.7165409120216 49.0208082597165 8.45077000043066
vertex -37.1325407455221 49.5806852935581 10.7685200004307
vertex -36.5344231511222 49.5048536999741 11.1408381695558
endloop
endfacet
facet normal 1.80632627173258e-16 -3.32207629763082e-16 -1.0
outer loop
vertex -54.2243455034748 27.450816869847 4.79425
vertex -44.6531668288921 18.5300191147242 4.79425
vertex -55.1860508825482 19.8654176890225 4.79425
endloop
endfacet
facet normal 1.80632627173258e-16 -3.32207629763082e-16 -1.0
outer loop
vertex -44.6531668288921 18.5300191147242 4.79425
vertex -54.2243455034748 27.450816869847 4.79425
vertex -43.6914614498188 26.1154182955487 4.79425
endloop
endfacet
facet normal 0.0103680455142549 0.0817773984235801 -0.996596689107126
outer loop
vertex -40.4555187511594 49.2658892517564 17.86255
vertex -35.3486992767091 17.3503637952035 15.2967970405906
vertex -44.3570869541781 18.492480996906 15.2967970405906
endloop
endfacet
facet normal 0.0103680455142549 0.0817773984235801 -0.996596689107126
outer loop
vertex -35.3486992767091 17.3503637952035 15.2967970405906
vertex -40.4555187511594 49.2658892517564 17.86255
vertex -31.4471310736904 48.1237720500539 17.86255
endloop
endfacet
facet normal 0.992058551563128 -0.125776906745507 -0.0
outer loop
vertex -32.0983696311895 48.9424341844974 13.270865249867
vertex -32.1902182173404 48.2179834272185 14.058265249867
vertex -32.1902182173404 48.2179834272185 13.270865249867
endloop
endfacet
facet normal 0.992058551563128 -0.125776906745507 -0.0
outer loop
vertex -32.1902182173404 48.2179834272185 14.058265249867
vertex -32.0983696311895 48.9424341844974 13.270865249867
vertex -32.0983696311895 48.9424341844974 14.058265249867
endloop
endfacet
facet normal 0.1257769067455 0.992058551563129 -2.05458747353792e-16
outer loop
vertex -44.6531668288921 18.5300191147242 15.2967970405906
vertex -35.0211215429829 17.3088322605961 8.1534
vertex -44.6531668288921 18.5300191147242 8.1534
endloop
endfacet
facet normal 0.1257769067455 0.992058551563129 -2.05458747353792e-16
outer loop
vertex -35.0211215429829 17.3088322605961 8.1534
vertex -44.6531668288921 18.5300191147242 15.2967970405906
vertex -35.0211215429829 17.3088322605962 12.2302331224952
endloop
endfacet
facet normal 0.1257769067455 0.992058551563129 -2.05458747353792e-16
outer loop
vertex -35.0211215429829 17.3088322605962 12.2302331224952
vertex -44.6531668288921 18.5300191147242 15.2967970405906
vertex -35.0211215429829 17.3088322605961 15.2967970405906
endloop
endfacet
facet normal 0.1257769067455 0.992058551563129 -2.05458747353792e-16
outer loop
vertex -35.0211215429829 17.3088322605961 15.2967970405906
vertex -44.6531668288921 18.5300191147242 15.2967970405906
vertex -44.3570869541781 18.492480996906 15.2967970405906
endloop
endfacet
facet normal 0.1257769067455 0.992058551563129 -2.05458747353792e-16
outer loop
vertex -35.0211215429829 17.3088322605961 15.2967970405906
vertex -44.3570869541781 18.492480996906 15.2967970405906
vertex -35.3486992767091 17.3503637952035 15.2967970405906
endloop
endfacet
facet normal -0.56836316371842 0.0720592151823527 -0.819616241685883
outer loop
vertex -37.0582631932435 50.1665454711837 10.7685200004307
vertex -33.290170041489 49.0935351138017 8.06119733368098
vertex -37.1325407455221 49.5806852935581 10.7685200004307
endloop
endfacet
facet normal -0.56836316371842 0.0720592151823527 -0.819616241685883
outer loop
vertex -33.290170041489 49.0935351138017 8.06119733368098
vertex -37.0582631932435 50.1665454711837 10.7685200004307
vertex -32.642263359743 49.6066684373421 7.65702000043066
endloop
endfacet
facet normal -0.56836316371842 0.0720592151823527 -0.819616241685883
outer loop
vertex -33.290170041489 49.0935351138017 8.06119733368098
vertex -32.642263359743 49.6066684373421 7.65702000043066
vertex -32.7165409120216 49.0208082597165 7.65702000043066
endloop
endfacet
facet normal 0.992058551563129 -0.125776906745499 1.47485414347507e-16
outer loop
vertex -44.6531668288921 18.5300191147242 0.0
vertex -47.3734823456744 -2.9263224443383 8.1534
vertex -47.3734823456744 -2.9263224443383 0.0
endloop
endfacet
facet normal 0.992058551563129 -0.125776906745499 1.47485414347507e-16
outer loop
vertex -47.3734823456744 -2.9263224443383 8.1534
vertex -44.6531668288921 18.5300191147242 0.0
vertex -44.6531668288921 18.5300191147242 8.1534
endloop
endfacet
facet normal 0.992058551563129 -0.125776906745499 1.47485414347507e-16
outer loop
vertex -44.6531668288921 18.5300191147242 8.1534
vertex -44.6531668288921 18.5300191147242 0.0
vertex -44.6531668288921 18.5300191147242 4.79425
endloop
endfacet
facet normal 0.992058551563129 -0.125776906745499 1.47485414347507e-16
outer loop
vertex -44.6531668288921 18.5300191147242 8.1534
vertex -44.6531668288921 18.5300191147242 4.79425
vertex -43.6914614498188 26.1154182955487 4.79425
endloop
endfacet
facet normal 0.992058551563129 -0.125776906745499 1.47485414347507e-16
outer loop
vertex -44.6531668288921 18.5300191147242 8.1534
vertex -43.6914614498188 26.1154182955487 4.79425
vertex -44.6531668288921 18.5300191147242 15.2967970405906
endloop
endfacet
facet normal 0.992058551563129 -0.125776906745499 1.47485414347507e-16
outer loop
vertex -44.6531668288921 18.5300191147242 15.2967970405906
vertex -43.6914614498188 26.1154182955487 4.79425
vertex -44.6531668288921 18.5300191147242 17.86255
endloop
endfacet
facet normal 0.992058551563129 -0.125776906745499 1.47485414347507e-16
outer loop
vertex -44.6531668288921 18.5300191147242 17.86255
vertex -43.6914614498188 26.1154182955487 4.79425
vertex -44.6392364238295 18.6398944314794 17.86255
endloop
endfacet
facet normal 0.992058551563129 -0.125776906745499 1.47485414347507e-16
outer loop
vertex -44.6392364238295 18.6398944314794 17.86255
vertex -43.6914614498188 26.1154182955487 4.79425
vertex -44.6392364238295 18.6398944314794 18.3261
endloop
endfacet
facet normal 0.992058551563129 -0.125776906745499 1.47485414347507e-16
outer loop
vertex -44.6392364238295 18.6398944314794 18.3261
vertex -43.6914614498188 26.1154182955487 4.79425
vertex -43.8006188981038 25.2544448240265 18.3261
endloop
endfacet
facet normal 0.992058551563129 -0.125776906745499 1.47485414347507e-16
outer loop
vertex -43.8006188981038 25.2544448240265 18.3261
vertex -43.6914614498188 26.1154182955487 4.79425
vertex -43.8006188981038 25.2544448240265 19.11985
endloop
endfacet
facet normal 0.992058551563129 -0.125776906745499 1.47485414347507e-16
outer loop
vertex -43.8006188981038 25.2544448240265 19.11985
vertex -43.6914614498188 26.1154182955487 4.79425
vertex -43.6914614498188 26.1154182955487 10.6519403304459
endloop
endfacet
facet normal 0.992058551563129 -0.125776906745499 1.47485414347507e-16
outer loop
vertex -43.8006188981038 25.2544448240265 19.11985
vertex -43.6914614498188 26.1154182955487 10.6519403304459
vertex -42.8406015019875 32.8265301305424 19.11985
endloop
endfacet
facet normal 0.992058551563129 -0.125776906745499 1.47485414347507e-16
outer loop
vertex -42.8406015019875 32.8265301305424 19.11985
vertex -43.6914614498188 26.1154182955487 10.6519403304459
vertex -42.8406015019875 32.8265301305424 18.0592389455801
endloop
endfacet
facet normal 0.992058551563129 -0.125776906745499 1.47485414347507e-16
outer loop
vertex -40.8867686640895 48.2372810013967 11.62685
vertex -42.8406015019875 32.8265301305424 18.0592389455801
vertex -43.6914614498188 26.1154182955487 10.6519403304459
endloop
endfacet
facet normal 0.992058551563129 -0.125776906745499 1.47485414347507e-16
outer loop
vertex -42.8406015019875 32.8265301305424 18.0592389455801
vertex -40.8867686640895 48.2372810013967 11.62685
vertex -42.38615067138 36.4109864861227 18.0592389455801
endloop
endfacet
facet normal 0.992058551563129 -0.125776906745499 1.47485414347507e-16
outer loop
vertex -42.38615067138 36.4109864861227 18.0592389455801
vertex -40.8867686640895 48.2372810013967 11.62685
vertex -42.2711402678519 37.3181248256721 17.86255
endloop
endfacet
facet normal 0.992058551563129 -0.125776906745499 1.47485414347507e-16
outer loop
vertex -42.38615067138 36.4109864861227 18.0592389455801
vertex -42.2711402678519 37.3181248256721 17.86255
vertex -42.38615067138 36.4109864861227 19.11985
endloop
endfacet
facet normal 0.992058551563129 -0.125776906745499 1.47485414347507e-16
outer loop
vertex -42.2711402678519 37.3181248256721 17.86255
vertex -40.8867686640895 48.2372810013967 11.62685
vertex -41.8782585553823 40.4169580908026 17.86255
endloop
endfacet
facet normal 0.992058551563129 -0.125776906745499 1.47485414347507e-16
outer loop
vertex -41.8782585553823 40.4169580908026 17.86255
vertex -40.8867686640895 48.2372810013967 11.62685
vertex -41.8782585553823 40.4169580908026 18.25625
endloop
endfacet
facet normal 0.992058551563129 -0.125776906745499 1.47485414347507e-16
outer loop
vertex -41.8782585553823 40.4169580908026 18.25625
vertex -40.8867686640895 48.2372810013967 11.62685
vertex -41.6841784994287 41.9477540387921 17.86255
endloop
endfacet
facet normal 0.992058551563129 -0.125776906745499 1.47485414347507e-16
outer loop
vertex -41.6841784994287 41.9477540387921 17.86255
vertex -40.8867686640895 48.2372810013967 11.62685
vertex -41.5225300464144 43.2227474720803 17.86255
endloop
endfacet
facet normal 0.992058551563129 -0.125776906745499 1.47485414347507e-16
outer loop
vertex -41.5225300464144 43.2227474720803 17.86255
vertex -40.8867686640895 48.2372810013967 11.62685
vertex -41.5225300464144 43.2227474720803 18.0510502770641
endloop
endfacet
facet normal 0.992058551563129 -0.125776906745499 1.47485414347507e-16
outer loop
vertex -41.5225300464144 43.2227474720803 18.0510502770641
vertex -40.8867686640895 48.2372810013967 11.62685
vertex -41.5069349759046 43.3457527475461 18.1396632331336
endloop
endfacet
facet normal 0.992058551563129 -0.125776906745499 1.47485414347507e-16
outer loop
vertex -41.5069349759046 43.3457527475461 18.1396632331336
vertex -40.8867686640895 48.2372810013967 11.62685
vertex -41.3567825046318 44.5300722464022 18.1396632331336
endloop
endfacet
facet normal 0.992058551563129 -0.125776906745499 1.47485414347507e-16
outer loop
vertex -41.3567825046318 44.5300722464022 18.1396632331336
vertex -40.8867686640895 48.2372810013967 11.62685
vertex -41.3305147580561 44.7372576772973 17.86255
endloop
endfacet
facet normal 0.992058551563129 -0.125776906745499 1.47485414347507e-16
outer loop
vertex -41.3305147580561 44.7372576772973 17.86255
vertex -40.8867686640895 48.2372810013967 11.62685
vertex -40.7515986258734 49.3034273695746 17.86255
endloop
endfacet
facet normal 0.992058551563129 -0.125776906745499 1.47485414347507e-16
outer loop
vertex -40.7515986258734 49.3034273695746 17.86255
vertex -40.8867686640895 48.2372810013967 11.62685
vertex -40.7515986258734 49.3034273695746 11.62685
endloop
endfacet
facet normal 0.992058551563129 -0.125776906745499 1.47485414347507e-16
outer loop
vertex -41.3305147580561 44.7372576772973 18.0467
vertex -41.3567825046318 44.5300722464022 18.1396632331336
vertex -41.3305147580561 44.7372576772973 17.86255
endloop
endfacet
facet normal 0.992058551563129 -0.125776906745499 1.47485414347507e-16
outer loop
vertex -41.6841784994287 41.9477540387921 18.25625
vertex -41.8782585553823 40.4169580908026 18.25625
vertex -41.6841784994287 41.9477540387921 17.86255
endloop
endfacet
facet normal 0.992058551563129 -0.125776906745499 1.47485414347507e-16
outer loop
vertex -42.2711402678519 37.3181248256721 19.11985
vertex -42.38615067138 36.4109864861227 19.11985
vertex -42.2711402678519 37.3181248256721 17.86255
endloop
endfacet
facet normal -1.56887843344084e-14 1.98908296397424e-15 1.0
outer loop
vertex -41.2108551011906 43.3082146297279 18.1396632331336
vertex -41.3567825046318 44.5300722464022 18.1396632331336
vertex -41.5069349759046 43.3457527475461 18.1396632331336
endloop
endfacet
facet normal -1.56887843344084e-14 1.98908296397424e-15 1.0
outer loop
vertex -41.3567825046318 44.5300722464022 18.1396632331336
vertex -41.2108551011906 43.3082146297279 18.1396632331336
vertex -41.0607026299178 44.492534128584 18.1396632331336
endloop
endfacet
facet normal -0.125776906745499 -0.992058551563129 -7.55363411489599e-18
outer loop
vertex -40.7515986258734 49.3034273695746 11.62685
vertex -51.2844826795295 50.6388259438729 0.0
vertex -40.7515986258734 49.3034273695746 0.0
endloop
endfacet
facet normal -0.125776906745499 -0.992058551563129 -7.55363411489599e-18
outer loop
vertex -51.2844826795295 50.6388259438729 0.0
vertex -40.7515986258734 49.3034273695746 11.62685
vertex -51.2844826795295 50.6388259438729 11.62685
endloop
endfacet
facet normal 0.1257769067455 0.992058551563129 -0.0
outer loop
vertex -42.8406015019875 32.8265301305424 19.11985
vertex -42.5445216272734 32.7889920127242 18.0592389455801
vertex -42.8406015019875 32.8265301305424 18.0592389455801
endloop
endfacet
facet normal 0.1257769067455 0.992058551563129 -0.0
outer loop
vertex -42.5445216272734 32.7889920127242 18.0592389455801
vertex -42.8406015019875 32.8265301305424 19.11985
vertex -42.5445216272734 32.7889920127242 19.11985
endloop
endfacet
facet normal 0.00549371636038074 0.043331390763217 -0.999045649435038
outer loop
vertex -51.4196527177455 49.572679575695 11.62685
vertex -43.6914614498188 26.1154182955487 10.6519403304459
vertex -54.2243455034748 27.450816869847 10.6519403304459
endloop
endfacet
facet normal 0.00549371636038074 0.043331390763217 -0.999045649435038
outer loop
vertex -43.6914614498188 26.1154182955487 10.6519403304459
vertex -51.4196527177455 49.572679575695 11.62685
vertex -40.8867686640895 48.2372810013967 11.62685
endloop
endfacet
facet normal -0.0731329626771837 -0.576832289029438 0.81358225159053
outer loop
vertex -31.8904847605052 42.0015606179523 18.0510502770641
vertex -32.2024674237216 42.1660974280254 18.1396632331336
vertex -32.2180624942314 42.0430921525596 18.0510502770641
endloop
endfacet
facet normal -0.0731329626771837 -0.576832289029438 0.81358225159053
outer loop
vertex -32.2024674237216 42.1660974280254 18.1396632331336
vertex -31.8904847605052 42.0015606179523 18.0510502770641
vertex -31.8748896899954 42.124565893418 18.1396632331336
endloop
endfacet
facet normal -0.1257769067455 -0.992058551563129 1.77291619378092e-16
outer loop
vertex -31.1195533399642 48.0822405154465 12.2302331224952
vertex -40.7515986258734 49.3034273695746 0.0
vertex -31.1195533399642 48.0822405154465 0.0
endloop
endfacet
facet normal -0.1257769067455 -0.992058551563129 1.77291619378092e-16
outer loop
vertex -40.7515986258734 49.3034273695746 0.0
vertex -31.1195533399642 48.0822405154465 12.2302331224952
vertex -40.7515986258734 49.3034273695746 11.62685
endloop
endfacet
facet normal -0.1257769067455 -0.992058551563129 1.77291619378092e-16
outer loop
vertex -40.7515986258734 49.3034273695746 11.62685
vertex -31.1195533399642 48.0822405154465 12.2302331224952
vertex -40.7515986258734 49.3034273695746 17.86255
endloop
endfacet
facet normal -0.1257769067455 -0.992058551563129 1.77291619378092e-16
outer loop
vertex -40.7515986258734 49.3034273695746 17.86255
vertex -31.1195533399642 48.0822405154465 12.2302331224952
vertex -31.1195533399642 48.0822405154465 17.86255
endloop
endfacet
facet normal -0.1257769067455 -0.992058551563129 1.77291619378092e-16
outer loop
vertex -40.7515986258734 49.3034273695746 17.86255
vertex -31.1195533399642 48.0822405154465 17.86255
vertex -31.4471310736904 48.1237720500539 17.86255
endloop
endfacet
facet normal -0.1257769067455 -0.992058551563129 1.77291619378092e-16
outer loop
vertex -40.7515986258734 49.3034273695746 17.86255
vertex -31.4471310736904 48.1237720500539 17.86255
vertex -40.4555187511594 49.2658892517564 17.86255
endloop
endfacet
facet normal 0.0 0.0 -1.0
outer loop
vertex -37.9780006763977 50.2831532414275 10.7685200004307
vertex -37.224389331673 48.8562345362791 10.7685200004307
vertex -38.1441268148272 48.9728423065229 10.7685200004307
endloop
endfacet
facet normal 0.0 0.0 -1.0
outer loop
vertex -37.224389331673 48.8562345362791 10.7685200004307
vertex -37.9780006763977 50.2831532414275 10.7685200004307
vertex -37.0582631932435 50.1665454711837 10.7685200004307
endloop
endfacet
facet normal 0.0 0.0 -1.0
outer loop
vertex -37.224389331673 48.8562345362791 10.7685200004307
vertex -37.0582631932435 50.1665454711837 10.7685200004307
vertex -37.1325407455221 49.5806852935581 10.7685200004307
endloop
endfacet
facet normal 0.125776906745503 0.992058551563129 -5.40987870548971e-18
outer loop
vertex -41.3305147580561 44.7372576772973 18.0467
vertex -41.0344348833421 44.6997195594791 17.86255
vertex -41.3305147580561 44.7372576772973 17.86255
endloop
endfacet
facet normal 0.125776906745503 0.992058551563129 -5.40987870548971e-18
outer loop
vertex -41.0344348833421 44.6997195594791 17.86255
vertex -41.3305147580561 44.7372576772973 18.0467
vertex -41.0344348833421 44.6997195594791 18.0467
endloop
endfacet
facet normal 0.0 0.0 -1.0
outer loop
vertex -33.11260069138 49.0710222051087 13.270865249867
vertex -32.1902182173404 48.2179834272185 13.270865249867
vertex -33.2044492775309 48.3465714478297 13.270865249867
endloop
endfacet
facet normal 0.0 0.0 -1.0
outer loop
vertex -32.1902182173404 48.2179834272185 13.270865249867
vertex -33.11260069138 49.0710222051087 13.270865249867
vertex -32.0983696311895 48.9424341844974 13.270865249867
endloop
endfacet
facet normal 0.0 0.0 1.0
outer loop
vertex -42.0900707966659 36.3734483683046 19.11985
vertex -42.2711402678519 37.3181248256721 19.11985
vertex -42.38615067138 36.4109864861227 19.11985
endloop
endfacet
facet normal 0.0 0.0 1.0
outer loop
vertex -42.2711402678519 37.3181248256721 19.11985
vertex -42.0900707966659 36.3734483683046 19.11985
vertex -41.9750603931378 37.2805867078539 19.11985
endloop
endfacet
facet normal -0.125776906745502 -0.992058551563129 0.0
outer loop
vertex -44.3431565491154 18.6023563136612 18.3261
vertex -44.6392364238295 18.6398944314794 17.86255
vertex -44.3431565491154 18.6023563136612 17.86255
endloop
endfacet
facet normal -0.125776906745502 -0.992058551563129 0.0
outer loop
vertex -44.6392364238295 18.6398944314794 17.86255
vertex -44.3431565491154 18.6023563136612 18.3261
vertex -44.6392364238295 18.6398944314794 18.3261
endloop
endfacet
facet normal 0.125776906745502 0.992058551563129 -0.0
outer loop
vertex -41.6841784994287 41.9477540387921 18.25625
vertex -41.3880986247147 41.9102159209739 17.86255
vertex -41.6841784994287 41.9477540387921 17.86255
endloop
endfacet
facet normal 0.125776906745502 0.992058551563129 -0.0
outer loop
vertex -41.3880986247147 41.9102159209739 17.86255
vertex -41.6841784994287 41.9477540387921 18.25625
vertex -41.3880986247147 41.9102159209739 18.25625
endloop
endfacet
facet normal 0.0 0.0 1.0
outer loop
vertex -41.5821786806683 40.3794199729844 18.25625
vertex -41.6841784994287 41.9477540387921 18.25625
vertex -41.8782585553823 40.4169580908026 18.25625
endloop
endfacet
facet normal 0.0 0.0 1.0
outer loop
vertex -41.6841784994287 41.9477540387921 18.25625
vertex -41.5821786806683 40.3794199729844 18.25625
vertex -41.3880986247147 41.9102159209739 18.25625
endloop
endfacet
facet normal 0.0 0.0 -1.0
outer loop
vertex -51.2844826795295 50.6388259438729 11.62685
vertex -40.8867686640895 48.2372810013967 11.62685
vertex -51.4196527177455 49.572679575695 11.62685
endloop
endfacet
facet normal 0.0 0.0 -1.0
outer loop
vertex -40.8867686640895 48.2372810013967 11.62685
vertex -51.2844826795295 50.6388259438729 11.62685
vertex -40.7515986258734 49.3034273695746 11.62685
endloop
endfacet
facet normal -0.125776906745502 -0.992058551563129 -3.86471539278705e-15
outer loop
vertex -41.2264501717003 43.1852093542621 17.86255
vertex -41.5225300464144 43.2227474720803 18.0510502770641
vertex -41.5225300464144 43.2227474720803 17.86255
endloop
endfacet
facet normal -0.125776906745502 -0.992058551563129 -3.86471539278705e-15
outer loop
vertex -41.5225300464144 43.2227474720803 18.0510502770641
vertex -41.2264501717003 43.1852093542621 17.86255
vertex -41.2264501717003 43.1852093542621 18.0510502770641
endloop
endfacet
facet normal -0.125776906745502 -0.992058551563129 1.86468901766811e-30
outer loop
vertex -42.0900707966659 36.3734483683046 19.11985
vertex -42.38615067138 36.4109864861227 18.0592389455801
vertex -42.0900707966659 36.3734483683046 18.0592389455801
endloop
endfacet
facet normal -0.125776906745502 -0.992058551563129 1.86468901766811e-30
outer loop
vertex -42.38615067138 36.4109864861227 18.0592389455801
vertex -42.0900707966659 36.3734483683046 19.11985
vertex -42.38615067138 36.4109864861227 19.11985
endloop
endfacet
facet normal 1.57819283207791e-16 1.24479106347113e-15 1.0
outer loop
vertex -31.6984694721469 43.5160708231692 17.86255
vertex -31.4471310736904 48.1237720500539 17.86255
vertex -32.0260472058731 43.5576023577765 17.86255
endloop
endfacet
facet normal 1.57819283207791e-16 1.24479106347113e-15 1.0
outer loop
vertex -31.4471310736904 48.1237720500539 17.86255
vertex -31.6984694721469 43.5160708231692 17.86255
vertex -31.1195533399642 48.0822405154465 17.86255
endloop
endfacet
facet normal -0.0 -0.0 1.0
outer loop
vertex -41.9750603931378 37.2805867078539 17.86255
vertex -41.8782585553823 40.4169580908026 17.86255
vertex -42.2711402678519 37.3181248256721 17.86255
endloop
endfacet
facet normal -0.0 -0.0 1.0
outer loop
vertex -41.8782585553823 40.4169580908026 17.86255
vertex -41.9750603931378 37.2805867078539 17.86255
vertex -41.5821786806683 40.3794199729844 17.86255
endloop
endfacet
facet normal 1.32153579595052e-15 -1.67549268444103e-16 1.0
outer loop
vertex -31.8748896899954 42.124565893418 18.1396632331336
vertex -32.0523149524488 43.3504169268814 18.1396632331336
vertex -32.2024674237216 42.1660974280254 18.1396632331336
endloop
endfacet
facet normal 1.32153579595052e-15 -1.67549268444103e-16 1.0
outer loop
vertex -32.0523149524488 43.3504169268814 18.1396632331336
vertex -31.8748896899954 42.124565893418 18.1396632331336
vertex -31.7247372187226 43.3088853922741 18.1396632331336
endloop
endfacet
facet normal -0.992058551563129 0.125776906745501 -4.38908602839038e-29
outer loop
vertex -37.9780006763977 50.2831532414275 11.5622700004307
vertex -38.1441268148272 48.9728423065229 10.7685200004307
vertex -38.1441268148272 48.9728423065229 11.5622700004307
endloop
endfacet
facet normal -0.992058551563129 0.125776906745501 -4.38908602839038e-29
outer loop
vertex -38.1441268148272 48.9728423065229 10.7685200004307
vertex -37.9780006763977 50.2831532414275 11.5622700004307
vertex -37.9780006763977 50.2831532414275 10.7685200004307
endloop
endfacet
facet normal -0.125776906745499 -0.992058551563129 -1.54142645020579e-14
outer loop
vertex -31.8904847605052 42.0015606179523 18.0510502770641
vertex -32.2180624942313 42.0430921525596 17.86255
vertex -31.8904847605052 42.0015606179523 17.86255
endloop
endfacet
facet normal -0.125776906745499 -0.992058551563129 -1.54142645020579e-14
outer loop
vertex -32.2180624942313 42.0430921525596 17.86255
vertex -31.8904847605052 42.0015606179523 18.0510502770641
vertex -32.2180624942314 42.0430921525596 18.0510502770641
endloop
endfacet
facet normal -1.35485766502554e-15 2.49326945246589e-16 -1.0
outer loop
vertex -32.7165409120216 49.0208082597165 7.65702000043066
vertex -32.1154365999056 48.2085023330758 7.65702000043066
vertex -32.8083894981725 48.2963575024376 7.65702000043066
endloop
endfacet
facet normal -1.35485766502554e-15 2.49326945246589e-16 -1.0
outer loop
vertex -32.1154365999056 48.2085023330758 7.65702000043066
vertex -32.7165409120216 49.0208082597165 7.65702000043066
vertex -32.642263359743 49.6066684373421 7.65702000043066
endloop
endfacet
facet normal -1.35485766502554e-15 2.49326945246589e-16 -1.0
outer loop
vertex -32.1154365999056 48.2085023330758 7.65702000043066
vertex -32.642263359743 49.6066684373421 7.65702000043066
vertex -31.9493104614762 49.5188132679804 7.65702000043066
endloop
endfacet
facet normal 0.125776906745498 0.992058551563129 4.06596719990774e-18
outer loop
vertex -54.2243455034748 27.450816869847 10.6519403304459
vertex -43.6914614498188 26.1154182955487 4.79425
vertex -54.2243455034748 27.450816869847 4.79425
endloop
endfacet
facet normal 0.125776906745498 0.992058551563129 4.06596719990774e-18
outer loop
vertex -43.6914614498188 26.1154182955487 4.79425
vertex -54.2243455034748 27.450816869847 10.6519403304459
vertex -43.6914614498188 26.1154182955487 10.6519403304459
endloop
endfacet
endsolid Hubbuch and Co
