solid J
facet normal 0.610641270915342 -0.791907341962995 -2.14745468643498e-30
outer loop
vertex 25.7834295949572 3.14568350843845 38.86835
vertex 24.3351894479753 2.02894275218847 -1.28268341368957e-14
vertex 25.7834295949572 3.14568350843844 -1.36314223844681e-14
endloop
endfacet
facet normal 0.610641270915342 -0.791907341962995 -2.14745468643498e-30
outer loop
vertex 24.3351894479753 2.02894275218847 -1.28268341368957e-14
vertex 25.7834295949572 3.14568350843845 38.86835
vertex 24.3351894479753 2.02894275218848 38.86835
endloop
endfacet
facet normal 0.791907341962996 0.610641270915341 -2.95032439153928e-16
outer loop
vertex 24.3351894479753 2.02894275218847 -1.28268341368957e-14
vertex 26.0141781544205 -0.148446079905878 5.21334999999999
vertex 26.0141781544205 -0.148446079905879 -1.40463533008368e-14
endloop
endfacet
facet normal 0.791907341962996 0.610641270915341 -2.95032439153928e-16
outer loop
vertex 26.0141781544205 -0.148446079905878 5.21334999999999
vertex 27.1076534782487 -1.56651455715901 38.86835
vertex 27.1076534782487 -1.56651455715902 5.21334999999999
endloop
endfacet
facet normal 0.791907341962996 0.610641270915341 -2.95032439153928e-16
outer loop
vertex 27.1076534782487 -1.56651455715901 38.86835
vertex 26.0141781544205 -0.148446079905878 5.21334999999999
vertex 24.3351894479753 2.02894275218848 38.86835
endloop
endfacet
facet normal 0.791907341962996 0.610641270915341 -2.95032439153928e-16
outer loop
vertex 24.3351894479753 2.02894275218848 38.86835
vertex 26.0141781544205 -0.148446079905878 5.21334999999999
vertex 24.3351894479753 2.02894275218847 -1.28268341368957e-14
endloop
endfacet
facet normal 0.61064127091534 -0.791907341962997 1.17460847859185e-16
outer loop
vertex 27.1076534782487 -1.56651455715901 38.86835
vertex 25.8253575147751 -2.55529543508869 5.21334999999999
vertex 27.1076534782487 -1.56651455715902 5.21334999999999
endloop
endfacet
facet normal 0.61064127091534 -0.791907341962997 1.17460847859185e-16
outer loop
vertex 25.8253575147751 -2.55529543508869 5.21334999999999
vertex 27.1076534782487 -1.56651455715901 38.86835
vertex 25.8253575147751 -2.55529543508868 38.86835
endloop
endfacet
facet normal 0.791907341962996 0.610641270915341 -2.83431013624941e-16
outer loop
vertex 25.8253575147751 -2.55529543508869 5.21334999999999
vertex 27.884348284111 -5.22548820608661 38.86835
vertex 27.884348284111 -5.22548820608661 5.21334999999999
endloop
endfacet
facet normal 0.791907341962996 0.610641270915341 -2.83431013624941e-16
outer loop
vertex 27.884348284111 -5.22548820608661 38.86835
vertex 25.8253575147751 -2.55529543508869 5.21334999999999
vertex 25.8253575147751 -2.55529543508868 38.86835
endloop
endfacet
facet normal 0.610641270915341 -0.791907341962996 6.33362026914047e-17
outer loop
vertex 27.884348284111 -5.22548820608661 38.86835
vertex 17.1884913652549 -13.4730839996411 5.21334999999999
vertex 27.884348284111 -5.22548820608661 5.21334999999999
endloop
endfacet
facet normal 0.610641270915341 -0.791907341962996 6.33362026914047e-17
outer loop
vertex 17.1884913652549 -13.4730839996411 5.21334999999999
vertex 27.884348284111 -5.22548820608661 38.86835
vertex 17.1884913652549 -13.4730839996411 38.86835
endloop
endfacet
facet normal 0.791907341962995 0.610641270915342 -2.18334524668422e-16
outer loop
vertex 17.1884913652549 -13.4730839996411 5.21334999999999
vertex 18.5262537295127 -15.2079550090466 38.86835
vertex 18.5262537295126 -15.2079550090466 5.21334999999999
endloop
endfacet
facet normal 0.791907341962995 0.610641270915342 -2.18334524668422e-16
outer loop
vertex 18.5262537295127 -15.2079550090466 38.86835
vertex 17.1884913652549 -13.4730839996411 5.21334999999999
vertex 17.1884913652549 -13.4730839996411 38.86835
endloop
endfacet
facet normal 0.610641270915342 -0.791907341962996 -3.76213540175608e-17
outer loop
vertex 18.5262537295127 -15.2079550090466 38.86835
vertex -2.7699164873917 -31.6294727268196 5.21335000000001
vertex 18.5262537295126 -15.2079550090466 5.21334999999999
endloop
endfacet
facet normal 0.610641270915342 -0.791907341962996 -3.76213540175608e-17
outer loop
vertex -2.7699164873917 -31.6294727268196 5.21335000000001
vertex 18.5262537295127 -15.2079550090466 38.86835
vertex -2.76991648739169 -31.6294727268196 38.86835
endloop
endfacet
facet normal -0.791907341962996 -0.610641270915341 3.54812934556232e-16
outer loop
vertex -2.76991648739169 -31.6294727268196 38.86835
vertex -4.10767885164949 -29.8946017174142 5.21335000000001
vertex -2.7699164873917 -31.6294727268196 5.21335000000001
endloop
endfacet
facet normal -0.791907341962996 -0.610641270915341 3.54812934556232e-16
outer loop
vertex -4.10767885164949 -29.8946017174142 5.21335000000001
vertex -2.76991648739169 -31.6294727268196 38.86835
vertex -4.10767885164948 -29.8946017174142 38.86835
endloop
endfacet
facet normal -2.10334598806173e-17 6.51505628740245e-16 1.0
outer loop
vertex 0.391335954111898 -13.8602332427115 42.1386
vertex -2.63688866877835 -9.57523782475775 42.1386
vertex -2.94337602635678 -9.53562724825159 42.1386
endloop
endfacet
facet normal -2.10334598806173e-17 6.51505628740245e-16 1.0
outer loop
vertex -2.63688866877835 -9.57523782475775 42.1386
vertex 0.391335954111898 -13.8602332427115 42.1386
vertex 0.430946530618053 -13.5537458851331 42.1386
endloop
endfacet
facet normal -2.10334598806173e-17 6.51505628740245e-16 1.0
outer loop
vertex 0.430946530618053 -13.5537458851331 42.1386
vertex 0.391335954111898 -13.8602332427115 42.1386
vertex 6.03343819339565 -9.50959737982097 42.1386
endloop
endfacet
facet normal -2.10334598806173e-17 6.51505628740245e-16 1.0
outer loop
vertex 0.430946530618053 -13.5537458851331 42.1386
vertex 6.03343819339565 -9.50959737982097 42.1386
vertex 5.72695083581722 -9.46998680331482 42.1386
endloop
endfacet
facet normal -2.10334598806173e-17 6.51505628740245e-16 1.0
outer loop
vertex -2.63688866877835 -9.57523782475775 42.1386
vertex 2.69872621292697 -5.18499138536105 42.1386
vertex -2.94337602635678 -9.53562724825159 42.1386
endloop
endfacet
facet normal -2.10334598806173e-17 6.51505628740245e-16 1.0
outer loop
vertex 2.69872621292697 -5.18499138536105 42.1386
vertex -2.63688866877835 -9.57523782475775 42.1386
vertex 2.65911563642082 -5.49147874293948 42.1386
endloop
endfacet
facet normal -2.10334598806173e-17 6.51505628740245e-16 1.0
outer loop
vertex 2.69872621292697 -5.18499138536105 42.1386
vertex 2.65911563642082 -5.49147874293948 42.1386
vertex 5.72695083581722 -9.46998680331482 42.1386
endloop
endfacet
facet normal -2.10334598806173e-17 6.51505628740245e-16 1.0
outer loop
vertex 2.69872621292697 -5.18499138536105 42.1386
vertex 5.72695083581722 -9.46998680331482 42.1386
vertex 6.03343819339565 -9.50959737982097 42.1386
endloop
endfacet
facet normal 0.610641270915341 -0.791907341962996 4.84079258777304e-16
outer loop
vertex 6.03343819339565 -9.50959737982097 42.1386
vertex 0.391335954111899 -13.8602332427115 38.2143
vertex 6.03343819339565 -9.50959737982097 38.2143
endloop
endfacet
facet normal 0.610641270915341 -0.791907341962996 4.84079258777304e-16
outer loop
vertex 0.391335954111899 -13.8602332427115 38.2143
vertex 6.03343819339565 -9.50959737982097 42.1386
vertex 0.391335954111898 -13.8602332427115 42.1386
endloop
endfacet
facet normal 0.791907341962996 0.610641270915341 -1.88008245968767e-16
outer loop
vertex 2.85085194926478 -5.38227495141753 38.2143
vertex 6.03343819339565 -9.50959737982097 42.1386
vertex 6.03343819339565 -9.50959737982097 38.2143
endloop
endfacet
facet normal 0.791907341962996 0.610641270915341 -1.88008245968767e-16
outer loop
vertex 6.03343819339565 -9.50959737982097 42.1386
vertex 2.85085194926478 -5.38227495141753 38.2143
vertex 2.85085194926478 -5.38227495141753 38.86835
endloop
endfacet
facet normal 0.791907341962996 0.610641270915341 -1.88008245968767e-16
outer loop
vertex 6.03343819339565 -9.50959737982097 42.1386
vertex 2.85085194926478 -5.38227495141753 38.86835
vertex 2.69872621292697 -5.18499138536105 42.1386
endloop
endfacet
facet normal 0.791907341962996 0.610641270915341 -1.88008245968767e-16
outer loop
vertex 2.69872621292697 -5.18499138536105 42.1386
vertex 2.85085194926478 -5.38227495141753 38.86835
vertex 2.69872621292697 -5.18499138536106 38.86835
endloop
endfacet
facet normal 3.37465295376711e-16 2.28833553881582e-16 1.0
outer loop
vertex -19.465912839029 -34.9634978694607 38.2143
vertex -20.7084704055072 -29.8996566143968 38.2143
vertex -22.3779694638336 -31.1870105417405 38.2143
endloop
endfacet
facet normal 3.37465295376711e-16 2.28833553881582e-16 1.0
outer loop
vertex -19.6618650742046 -37.4442898801605 38.2143
vertex -19.465912839029 -34.9634978694607 38.2143
vertex -20.7884376954743 -35.9832993239529 38.2143
endloop
endfacet
facet normal 3.37465295376711e-16 2.28833553881582e-16 1.0
outer loop
vertex -19.465912839029 -34.9634978694607 38.2143
vertex -19.6618650742046 -37.4442898801605 38.2143
vertex -16.6698411594329 -35.1371344983246 38.2143
endloop
endfacet
facet normal 3.37465295376711e-16 2.28833553881582e-16 1.0
outer loop
vertex -20.7084704055072 -29.8996566143968 38.2143
vertex -7.01590712134841 -15.4201921135319 38.2143
vertex -22.60460314789 -27.4406655315004 38.2143
endloop
endfacet
facet normal 3.37465295376711e-16 2.28833553881582e-16 1.0
outer loop
vertex -7.01590712134841 -15.4201921135319 38.2143
vertex -20.7084704055072 -29.8996566143968 38.2143
vertex -19.465912839029 -34.9634978694607 38.2143
endloop
endfacet
facet normal 3.37465295376711e-16 2.28833553881582e-16 1.0
outer loop
vertex -7.01590712134841 -15.4201921135319 38.2143
vertex -19.465912839029 -34.9634978694607 38.2143
vertex -16.6698411594329 -35.1371344983246 38.2143
endloop
endfacet
facet normal 3.37465295376711e-16 2.28833553881582e-16 1.0
outer loop
vertex -7.01590712134841 -15.4201921135319 38.2143
vertex -16.6698411594329 -35.1371344983246 38.2143
vertex -14.672891543222 -37.7268694833791 38.2143
endloop
endfacet
facet normal 3.37465295376711e-16 2.28833553881582e-16 1.0
outer loop
vertex -7.01590712134841 -15.4201921135319 38.2143
vertex -14.672891543222 -37.7268694833791 38.2143
vertex -4.06252102193081 -29.5451924150199 38.2143
endloop
endfacet
facet normal 3.37465295376711e-16 2.28833553881582e-16 1.0
outer loop
vertex 7.72240889764505 -1.62580804088042 38.2143
vertex 2.85085194926478 -5.38227495141753 38.2143
vertex 6.03343819339565 -9.50959737982097 38.2143
endloop
endfacet
facet normal 3.37465295376711e-16 2.28833553881582e-16 1.0
outer loop
vertex -7.01590712134841 -15.4201921135319 38.2143
vertex -2.79125029001898 -9.73291081430806 38.2143
vertex -8.19081145865307 -13.896522792228 38.2143
endloop
endfacet
facet normal 3.37465295376711e-16 2.28833553881582e-16 1.0
outer loop
vertex -2.79125029001898 -9.73291081430806 38.2143
vertex -7.01590712134841 -15.4201921135319 38.2143
vertex -4.06252102193081 -29.5451924150199 38.2143
endloop
endfacet
facet normal 3.37465295376711e-16 2.28833553881582e-16 1.0
outer loop
vertex -2.79125029001898 -9.73291081430806 38.2143
vertex -4.06252102193081 -29.5451924150199 38.2143
vertex -2.72475865767303 -31.2800634244254 38.2143
endloop
endfacet
facet normal 3.37465295376711e-16 2.28833553881582e-16 1.0
outer loop
vertex -2.79125029001898 -9.73291081430806 38.2143
vertex -2.72475865767303 -31.2800634244254 38.2143
vertex 0.391335954111899 -13.8602332427115 38.2143
endloop
endfacet
facet normal 3.37465295376711e-16 2.28833553881582e-16 1.0
outer loop
vertex 0.391335954111899 -13.8602332427115 38.2143
vertex -2.72475865767303 -31.2800634244254 38.2143
vertex 18.1768444271184 -15.1627971793279 38.2143
endloop
endfacet
facet normal 3.37465295376711e-16 2.28833553881582e-16 1.0
outer loop
vertex 0.391335954111899 -13.8602332427115 38.2143
vertex 18.1768444271184 -15.1627971793279 38.2143
vertex 6.03343819339565 -9.50959737982097 38.2143
endloop
endfacet
facet normal 3.37465295376711e-16 2.28833553881582e-16 1.0
outer loop
vertex 6.03343819339565 -9.50959737982097 38.2143
vertex 18.1768444271184 -15.1627971793279 38.2143
vertex 8.89731323494971 -3.14947736218432 38.2143
endloop
endfacet
facet normal 3.37465295376711e-16 2.28833553881582e-16 1.0
outer loop
vertex 6.03343819339565 -9.50959737982097 38.2143
vertex 8.89731323494971 -3.14947736218432 38.2143
vertex 7.72240889764505 -1.62580804088042 38.2143
endloop
endfacet
facet normal 3.37465295376711e-16 2.28833553881582e-16 1.0
outer loop
vertex 8.89731323494971 -3.14947736218432 38.2143
vertex 18.1768444271184 -15.1627971793279 38.2143
vertex 16.8390820628606 -13.4279261699225 38.2143
endloop
endfacet
facet normal 3.37465295376711e-16 2.28833553881582e-16 1.0
outer loop
vertex 16.8390820628606 -13.4279261699225 38.2143
vertex 19.6032273770487 5.10587357551082 38.2143
vertex 8.89731323494971 -3.14947736218432 38.2143
endloop
endfacet
facet normal 3.37465295376711e-16 2.28833553881582e-16 1.0
outer loop
vertex 19.6032273770487 5.10587357551082 38.2143
vertex 16.8390820628606 -13.4279261699225 38.2143
vertex 27.5349389817167 -5.18033037636794 38.2143
endloop
endfacet
facet normal 3.37465295376711e-16 2.28833553881582e-16 1.0
outer loop
vertex 19.6032273770487 5.10587357551082 38.2143
vertex 27.5349389817167 -5.18033037636794 38.2143
vertex 21.7940555967752 2.26470800938309 38.2143
endloop
endfacet
facet normal 3.37465295376711e-16 2.28833553881582e-16 1.0
outer loop
vertex 21.7940555967752 2.26470800938309 38.2143
vertex 27.5349389817167 -5.18033037636794 38.2143
vertex 25.4759482123808 -2.51013760537001 38.2143
endloop
endfacet
facet normal 3.37465295376711e-16 2.28833553881582e-16 1.0
outer loop
vertex 21.7940555967752 2.26470800938309 38.2143
vertex 25.4759482123808 -2.51013760537001 38.2143
vertex 23.985780145581 2.07410058190714 38.2143
endloop
endfacet
facet normal 3.37465295376711e-16 2.28833553881582e-16 1.0
outer loop
vertex 26.7582441758544 -1.52135672744035 38.2143
vertex 23.985780145581 2.07410058190714 38.2143
vertex 25.4759482123808 -2.51013760537001 38.2143
endloop
endfacet
facet normal 3.37465295376711e-16 2.28833553881582e-16 1.0
outer loop
vertex 23.985780145581 2.07410058190714 38.2143
vertex 24.5245917072307 4.37022964356273 38.2143
vertex 21.7940555967752 2.26470800938309 38.2143
endloop
endfacet
facet normal 3.37465295376711e-16 2.28833553881582e-16 1.0
outer loop
vertex 24.5245917072307 4.37022964356273 38.2143
vertex 23.985780145581 2.07410058190714 38.2143
vertex 25.4340202925629 3.19084133815712 38.2143
endloop
endfacet
facet normal 0.610641270915341 -0.791907341962995 -2.4855265452346e-17
outer loop
vertex 7.72240889764505 -1.62580804088042 38.86835
vertex 2.85085194926478 -5.38227495141753 38.2143
vertex 7.72240889764505 -1.62580804088042 38.2143
endloop
endfacet
facet normal 0.610641270915341 -0.791907341962995 -2.4855265452346e-17
outer loop
vertex 2.85085194926478 -5.38227495141753 38.2143
vertex 7.72240889764505 -1.62580804088042 38.86835
vertex 2.85085194926478 -5.38227495141753 38.86835
endloop
endfacet
facet normal 0.610641270915342 -0.791907341962995 -2.48552654523461e-17
outer loop
vertex -2.79125029001898 -9.73291081430806 38.86835
vertex -8.19081145865307 -13.896522792228 38.2143
vertex -2.79125029001898 -9.73291081430806 38.2143
endloop
endfacet
facet normal 0.610641270915342 -0.791907341962995 -2.48552654523461e-17
outer loop
vertex -8.19081145865307 -13.896522792228 38.2143
vertex -2.79125029001898 -9.73291081430806 38.86835
vertex -8.19081145865307 -13.896522792228 38.86835
endloop
endfacet
facet normal 0.791907341962995 0.610641270915342 -4.06976457236852e-16
outer loop
vertex -8.19081145865307 -13.896522792228 38.2143
vertex -7.01590712134841 -15.4201921135319 38.86835
vertex -7.01590712134841 -15.4201921135319 38.2143
endloop
endfacet
facet normal 0.791907341962995 0.610641270915342 -4.06976457236852e-16
outer loop
vertex -7.01590712134841 -15.4201921135319 38.86835
vertex -8.19081145865307 -13.896522792228 38.2143
vertex -8.19081145865307 -13.896522792228 38.86835
endloop
endfacet
facet normal 0.610641270915341 -0.791907341962996 -2.48552654523459e-17
outer loop
vertex -7.01590712134841 -15.4201921135319 38.86835
vertex -22.60460314789 -27.4406655315004 38.2143
vertex -7.01590712134841 -15.4201921135319 38.2143
endloop
endfacet
facet normal 0.610641270915341 -0.791907341962996 -2.48552654523459e-17
outer loop
vertex -22.60460314789 -27.4406655315004 38.2143
vertex -7.01590712134841 -15.4201921135319 38.86835
vertex -22.60460314789 -27.4406655315004 38.86835
endloop
endfacet
facet normal 0.791907341962995 0.610641270915343 -4.06976457236852e-16
outer loop
vertex -22.60460314789 -27.4406655315004 38.2143
vertex -20.7084704055072 -29.8996566143968 38.86835
vertex -20.7084704055072 -29.8996566143968 38.2143
endloop
endfacet
facet normal 0.791907341962995 0.610641270915343 -4.06976457236852e-16
outer loop
vertex -20.7084704055072 -29.8996566143968 38.86835
vertex -22.60460314789 -27.4406655315004 38.2143
vertex -22.60460314789 -27.4406655315004 38.86835
endloop
endfacet
facet normal 0.610641270915344 -0.791907341962994 -2.48552654523471e-17
outer loop
vertex -20.7084704055072 -29.8996566143968 38.86835
vertex -22.3779694638336 -31.1870105417405 38.2143
vertex -20.7084704055072 -29.8996566143968 38.2143
endloop
endfacet
facet normal 0.610641270915344 -0.791907341962994 -2.48552654523471e-17
outer loop
vertex -22.3779694638336 -31.1870105417405 38.2143
vertex -20.7084704055072 -29.8996566143968 38.86835
vertex -22.3779694638336 -31.1870105417405 38.86835
endloop
endfacet
facet normal 0.791907341962995 0.610641270915343 -4.06976457236852e-16
outer loop
vertex -22.3779694638336 -31.1870105417405 38.2143
vertex -19.465912839029 -34.9634978694607 38.86835
vertex -19.465912839029 -34.9634978694607 38.2143
endloop
endfacet
facet normal 0.791907341962995 0.610641270915343 -4.06976457236852e-16
outer loop
vertex -19.465912839029 -34.9634978694607 38.86835
vertex -22.3779694638336 -31.1870105417405 38.2143
vertex -22.3779694638336 -31.1870105417405 38.86835
endloop
endfacet
facet normal 0.610641270915339 -0.791907341962997 -2.48552654523448e-17
outer loop
vertex -19.465912839029 -34.9634978694607 38.86835
vertex -20.7884376954743 -35.9832993239529 38.2143
vertex -19.465912839029 -34.9634978694607 38.2143
endloop
endfacet
facet normal 0.610641270915339 -0.791907341962997 -2.48552654523448e-17
outer loop
vertex -20.7884376954743 -35.9832993239529 38.2143
vertex -19.465912839029 -34.9634978694607 38.86835
vertex -20.7884376954743 -35.9832993239529 38.86835
endloop
endfacet
facet normal 0.791907341962994 0.610641270915343 -4.06976457236852e-16
outer loop
vertex -20.7884376954743 -35.9832993239529 38.2143
vertex -19.6618650742046 -37.4442898801605 38.86835
vertex -19.6618650742046 -37.4442898801605 38.2143
endloop
endfacet
facet normal 0.791907341962994 0.610641270915343 -4.06976457236852e-16
outer loop
vertex -19.6618650742046 -37.4442898801605 38.86835
vertex -20.7884376954743 -35.9832993239529 38.2143
vertex -20.7884376954743 -35.9832993239529 38.86835
endloop
endfacet
facet normal -0.610641270915341 0.791907341962996 2.48552654523456e-17
outer loop
vertex -19.6618650742046 -37.4442898801605 38.86835
vertex -16.6698411594329 -35.1371344983246 38.2143
vertex -19.6618650742046 -37.4442898801605 38.2143
endloop
endfacet
facet normal -0.610641270915341 0.791907341962996 2.48552654523456e-17
outer loop
vertex -16.6698411594329 -35.1371344983246 38.2143
vertex -19.6618650742046 -37.4442898801605 38.86835
vertex -16.6698411594329 -35.1371344983246 38.86835
endloop
endfacet
facet normal 0.791907341962996 0.610641270915342 -4.06976457236852e-16
outer loop
vertex -16.6698411594329 -35.1371344983246 38.2143
vertex -14.672891543222 -37.7268694833791 38.86835
vertex -14.672891543222 -37.7268694833791 38.2143
endloop
endfacet
facet normal 0.791907341962996 0.610641270915342 -4.06976457236852e-16
outer loop
vertex -14.672891543222 -37.7268694833791 38.86835
vertex -16.6698411594329 -35.1371344983246 38.2143
vertex -16.6698411594329 -35.1371344983246 38.86835
endloop
endfacet
facet normal -0.610641270915341 0.791907341962996 2.48552654523457e-17
outer loop
vertex -14.672891543222 -37.7268694833791 38.2143
vertex -4.06252102193081 -29.5451924150199 38.86835
vertex -4.06252102193081 -29.5451924150199 38.2143
endloop
endfacet
facet normal -0.610641270915341 0.791907341962996 2.48552654523457e-17
outer loop
vertex -4.06252102193081 -29.5451924150199 38.86835
vertex -14.672891543222 -37.7268694833791 38.2143
vertex -14.672891543222 -37.7268694833791 38.86835
endloop
endfacet
facet normal 0.791907341962996 0.610641270915341 -4.06976457236852e-16
outer loop
vertex -4.06252102193081 -29.5451924150199 38.2143
vertex -2.72475865767303 -31.2800634244254 38.86835
vertex -2.72475865767303 -31.2800634244254 38.2143
endloop
endfacet
facet normal 0.791907341962996 0.610641270915341 -4.06976457236852e-16
outer loop
vertex -2.72475865767303 -31.2800634244254 38.86835
vertex -4.06252102193081 -29.5451924150199 38.2143
vertex -4.06252102193081 -29.5451924150199 38.86835
endloop
endfacet
facet normal -0.610641270915342 0.791907341962995 2.48552654523461e-17
outer loop
vertex -2.72475865767303 -31.2800634244254 38.2143
vertex 18.1768444271184 -15.1627971793279 38.86835
vertex 18.1768444271184 -15.1627971793279 38.2143
endloop
endfacet
facet normal -0.610641270915342 0.791907341962995 2.48552654523461e-17
outer loop
vertex 18.1768444271184 -15.1627971793279 38.86835
vertex -2.72475865767303 -31.2800634244254 38.2143
vertex -2.72475865767303 -31.2800634244254 38.86835
endloop
endfacet
facet normal -0.791907341962995 -0.610641270915342 4.06976457236852e-16
outer loop
vertex 16.8390820628606 -13.4279261699225 38.86835
vertex 18.1768444271184 -15.1627971793279 38.2143
vertex 18.1768444271184 -15.1627971793279 38.86835
endloop
endfacet
facet normal -0.791907341962995 -0.610641270915342 4.06976457236852e-16
outer loop
vertex 18.1768444271184 -15.1627971793279 38.2143
vertex 16.8390820628606 -13.4279261699225 38.86835
vertex 16.8390820628606 -13.4279261699225 38.2143
endloop
endfacet
facet normal -0.610641270915342 0.791907341962995 2.48552654523461e-17
outer loop
vertex 16.8390820628606 -13.4279261699225 38.2143
vertex 27.5349389817167 -5.18033037636794 38.86835
vertex 27.5349389817167 -5.18033037636794 38.2143
endloop
endfacet
facet normal -0.610641270915342 0.791907341962995 2.48552654523461e-17
outer loop
vertex 27.5349389817167 -5.18033037636794 38.86835
vertex 16.8390820628606 -13.4279261699225 38.2143
vertex 16.8390820628606 -13.4279261699225 38.86835
endloop
endfacet
facet normal -0.791907341962996 -0.610641270915341 4.06976457236852e-16
outer loop
vertex 25.4759482123808 -2.51013760537001 38.86835
vertex 27.5349389817167 -5.18033037636794 38.2143
vertex 27.5349389817167 -5.18033037636794 38.86835
endloop
endfacet
facet normal -0.791907341962996 -0.610641270915341 4.06976457236852e-16
outer loop
vertex 27.5349389817167 -5.18033037636794 38.2143
vertex 25.4759482123808 -2.51013760537001 38.86835
vertex 25.4759482123808 -2.51013760537001 38.2143
endloop
endfacet
facet normal -0.610641270915339 0.791907341962997 2.4855265452345e-17
outer loop
vertex 25.4759482123808 -2.51013760537001 38.86835
vertex 26.7582441758544 -1.52135672744035 38.2143
vertex 25.4759482123808 -2.51013760537001 38.2143
endloop
endfacet
facet normal -0.610641270915339 0.791907341962997 2.4855265452345e-17
outer loop
vertex 26.7582441758544 -1.52135672744035 38.2143
vertex 25.4759482123808 -2.51013760537001 38.86835
vertex 26.7582441758544 -1.52135672744035 38.86835
endloop
endfacet
facet normal -0.791907341962995 -0.610641270915342 4.06976457236852e-16
outer loop
vertex 23.985780145581 2.07410058190714 38.86835
vertex 26.7582441758544 -1.52135672744035 38.2143
vertex 26.7582441758544 -1.52135672744035 38.86835
endloop
endfacet
facet normal -0.791907341962995 -0.610641270915342 4.06976457236852e-16
outer loop
vertex 26.7582441758544 -1.52135672744035 38.2143
vertex 23.985780145581 2.07410058190714 38.86835
vertex 23.985780145581 2.07410058190714 38.2143
endloop
endfacet
facet normal -0.610641270915342 0.791907341962995 2.48552654523463e-17
outer loop
vertex 23.985780145581 2.07410058190714 38.86835
vertex 25.4340202925629 3.19084133815712 38.2143
vertex 23.985780145581 2.07410058190714 38.2143
endloop
endfacet
facet normal -0.610641270915342 0.791907341962995 2.48552654523463e-17
outer loop
vertex 25.4340202925629 3.19084133815712 38.2143
vertex 23.985780145581 2.07410058190714 38.86835
vertex 25.4340202925629 3.19084133815712 38.86835
endloop
endfacet
facet normal -0.791907341962995 -0.610641270915342 4.06976457236852e-16
outer loop
vertex 24.5245917072307 4.37022964356273 38.86835
vertex 25.4340202925629 3.19084133815712 38.2143
vertex 25.4340202925629 3.19084133815712 38.86835
endloop
endfacet
facet normal -0.791907341962995 -0.610641270915342 4.06976457236852e-16
outer loop
vertex 25.4340202925629 3.19084133815712 38.2143
vertex 24.5245917072307 4.37022964356273 38.86835
vertex 24.5245917072307 4.37022964356273 38.2143
endloop
endfacet
facet normal 0.610641270915342 -0.791907341962995 -2.48552654523461e-17
outer loop
vertex 24.5245917072307 4.37022964356273 38.86835
vertex 21.7940555967752 2.26470800938309 38.2143
vertex 24.5245917072307 4.37022964356273 38.2143
endloop
endfacet
facet normal 0.610641270915342 -0.791907341962995 -2.48552654523461e-17
outer loop
vertex 21.7940555967752 2.26470800938309 38.2143
vertex 24.5245917072307 4.37022964356273 38.86835
vertex 21.7940555967752 2.26470800938309 38.86835
endloop
endfacet
facet normal -0.791907341962995 -0.610641270915342 4.06976457236852e-16
outer loop
vertex 19.6032273770487 5.10587357551082 38.86835
vertex 21.7940555967752 2.26470800938309 38.2143
vertex 21.7940555967752 2.26470800938309 38.86835
endloop
endfacet
facet normal -0.791907341962995 -0.610641270915342 4.06976457236852e-16
outer loop
vertex 21.7940555967752 2.26470800938309 38.2143
vertex 19.6032273770487 5.10587357551082 38.86835
vertex 19.6032273770487 5.10587357551082 38.2143
endloop
endfacet
facet normal 0.610641270915342 -0.791907341962995 -2.48552654523462e-17
outer loop
vertex 19.6032273770487 5.10587357551082 38.86835
vertex 8.89731323494971 -3.14947736218432 38.2143
vertex 19.6032273770487 5.10587357551082 38.2143
endloop
endfacet
facet normal 0.610641270915342 -0.791907341962995 -2.48552654523462e-17
outer loop
vertex 8.89731323494971 -3.14947736218432 38.2143
vertex 19.6032273770487 5.10587357551082 38.86835
vertex 8.89731323494971 -3.14947736218432 38.86835
endloop
endfacet
facet normal -0.791907341962995 -0.610641270915342 4.06976457236852e-16
outer loop
vertex 7.72240889764505 -1.62580804088042 38.86835
vertex 8.89731323494971 -3.14947736218432 38.2143
vertex 8.89731323494971 -3.14947736218432 38.86835
endloop
endfacet
facet normal -0.791907341962995 -0.610641270915342 4.06976457236852e-16
outer loop
vertex 8.89731323494971 -3.14947736218432 38.2143
vertex 7.72240889764505 -1.62580804088042 38.86835
vertex 7.72240889764505 -1.62580804088042 38.2143
endloop
endfacet
facet normal -4.23858828580987e-16 -2.10005341695773e-16 -1.0
outer loop
vertex 27.884348284111 -5.22548820608661 -1.2114438292691e-14
vertex 18.5262537295126 -15.2079550090466 -6.17221883926551e-15
vertex 17.1884913652549 -13.4730839996411 -6.17221883926551e-15
endloop
endfacet
facet normal -4.23858828580987e-16 -2.10005341695773e-16 -1.0
outer loop
vertex 31.9540135202349 4.43177236814868 -1.84835725079077e-14
vertex 27.1076534782487 -1.56651455715902 -1.28268341368957e-14
vertex 26.0141781544205 -0.148446079905879 -1.40463533008368e-14
endloop
endfacet
facet normal -4.23858828580987e-16 -2.10005341695773e-16 -1.0
outer loop
vertex 27.1076534782487 -1.56651455715902 -1.28268341368957e-14
vertex 31.9540135202349 4.43177236814868 -1.84835725079077e-14
vertex 27.884348284111 -5.22548820608661 -1.2114438292691e-14
endloop
endfacet
facet normal -4.23858828580987e-16 -2.10005341695773e-16 -1.0
outer loop
vertex -4.10767885164949 -29.8946017174142 5.65913959291919e-15
vertex -9.13822316376113 -45.3124509090616 1.15538659900644e-14
vertex -14.7180493729407 -38.0762787857734 1.15538659900644e-14
endloop
endfacet
facet normal -4.23858828580987e-16 -2.10005341695773e-16 -1.0
outer loop
vertex -9.13822316376113 -45.3124509090616 1.15538659900644e-14
vertex -4.10767885164949 -29.8946017174142 5.65913959291919e-15
vertex -2.76991648739171 -31.6294727268196 5.65913959291919e-15
endloop
endfacet
facet normal -4.23858828580987e-16 -2.10005341695773e-16 -1.0
outer loop
vertex -9.13822316376113 -45.3124509090616 1.15538659900644e-14
vertex -2.76991648739171 -31.6294727268196 5.65913959291919e-15
vertex 4.66028712553889 -34.6723931481243 3.88792796458269e-15
endloop
endfacet
facet normal -4.23858828580987e-16 -2.10005341695773e-16 -1.0
outer loop
vertex 4.66028712553889 -34.6723931481243 3.88792796458269e-15
vertex -2.76991648739171 -31.6294727268196 5.65913959291919e-15
vertex 5.20517201953983 -29.3662969887724 -1.95266356491771e-18
endloop
endfacet
facet normal -4.23858828580987e-16 -2.10005341695773e-16 -1.0
outer loop
vertex 5.20517201953983 -29.3662969887724 -1.95266356491771e-18
vertex -2.76991648739171 -31.6294727268196 5.65913959291919e-15
vertex 18.5262537295126 -15.2079550090466 -6.17221883926551e-15
endloop
endfacet
facet normal -4.23858828580987e-16 -2.10005341695773e-16 -1.0
outer loop
vertex 5.20517201953983 -29.3662969887724 -1.95266356491771e-18
vertex 18.5262537295126 -15.2079550090466 -6.17221883926551e-15
vertex 9.51972079075681 -26.0393401524443 -2.39895515112442e-15
endloop
endfacet
facet normal -4.23858828580987e-16 -2.10005341695773e-16 -1.0
outer loop
vertex 9.51972079075681 -26.0393401524443 -2.39895515112442e-15
vertex 18.5262537295126 -15.2079550090466 -6.17221883926551e-15
vertex 11.8824184548268 -29.1033938221401 -2.39895515112442e-15
endloop
endfacet
facet normal -4.23858828580987e-16 -2.10005341695773e-16 -1.0
outer loop
vertex 11.8824184548268 -29.1033938221401 -2.39895515112442e-15
vertex 18.5262537295126 -15.2079550090466 -6.17221883926551e-15
vertex 40.6863058225785 -6.89266100339055 -1.84013214083981e-14
endloop
endfacet
facet normal -4.23858828580987e-16 -2.10005341695773e-16 -1.0
outer loop
vertex 40.6863058225785 -6.89266100339055 -1.84013214083981e-14
vertex 18.5262537295126 -15.2079550090466 -6.17221883926551e-15
vertex 27.884348284111 -5.22548820608661 -1.2114438292691e-14
endloop
endfacet
facet normal -4.23858828580987e-16 -2.10005341695773e-16 -1.0
outer loop
vertex 40.6863058225785 -6.89266100339055 -1.84013214083981e-14
vertex 27.884348284111 -5.22548820608661 -1.2114438292691e-14
vertex 31.9540135202349 4.43177236814868 -1.84835725079077e-14
endloop
endfacet
facet normal -4.23858828580987e-16 -2.10005341695773e-16 -1.0
outer loop
vertex 27.884348284111 -5.22548820608661 -1.2114438292691e-14
vertex 25.8253575147751 -2.55529543508869 -1.2114438292691e-14
vertex 27.1076534782487 -1.56651455715902 -1.28268341368957e-14
endloop
endfacet
facet normal 4.31475881562384e-16 2.10348964732143e-16 1.0
outer loop
vertex 27.884348284111 -5.22548820608661 5.21334999999999
vertex 27.1076534782487 -1.56651455715902 5.21334999999999
vertex 25.8253575147751 -2.55529543508869 5.21334999999999
endloop
endfacet
facet normal 4.31475881562384e-16 2.10348964732143e-16 1.0
outer loop
vertex -9.13822316376113 -45.3124509090616 5.21335000000001
vertex -4.10767885164949 -29.8946017174142 5.21335000000001
vertex -14.7180493729407 -38.0762787857734 5.21335000000001
endloop
endfacet
facet normal 4.31475881562384e-16 2.10348964732143e-16 1.0
outer loop
vertex -4.10767885164949 -29.8946017174142 5.21335000000001
vertex -9.13822316376113 -45.3124509090616 5.21335000000001
vertex -2.7699164873917 -31.6294727268196 5.21335000000001
endloop
endfacet
facet normal 4.31475881562384e-16 2.10348964732143e-16 1.0
outer loop
vertex -2.7699164873917 -31.6294727268196 5.21335000000001
vertex -9.13822316376113 -45.3124509090616 5.21335000000001
vertex 4.66028712553889 -34.6723931481243 5.21335
endloop
endfacet
facet normal 4.31475881562384e-16 2.10348964732143e-16 1.0
outer loop
vertex -2.7699164873917 -31.6294727268196 5.21335000000001
vertex 4.66028712553889 -34.6723931481243 5.21335
vertex 5.20517201953983 -29.3662969887724 5.21335
endloop
endfacet
facet normal 4.31475881562384e-16 2.10348964732143e-16 1.0
outer loop
vertex -2.7699164873917 -31.6294727268196 5.21335000000001
vertex 5.20517201953983 -29.3662969887724 5.21335
vertex 18.5262537295126 -15.2079550090466 5.21334999999999
endloop
endfacet
facet normal 4.31475881562384e-16 2.10348964732143e-16 1.0
outer loop
vertex 18.5262537295126 -15.2079550090466 5.21334999999999
vertex 5.20517201953983 -29.3662969887724 5.21335
vertex 9.51972079075681 -26.0393401524443 5.21335
endloop
endfacet
facet normal 4.31475881562384e-16 2.10348964732143e-16 1.0
outer loop
vertex 18.5262537295126 -15.2079550090466 5.21334999999999
vertex 9.51972079075681 -26.0393401524443 5.21335
vertex 11.8824184548268 -29.1033938221401 5.21335
endloop
endfacet
facet normal 4.31475881562384e-16 2.10348964732143e-16 1.0
outer loop
vertex 18.5262537295126 -15.2079550090466 5.21334999999999
vertex 11.8824184548268 -29.1033938221401 5.21335
vertex 40.6863058225785 -6.89266100339055 5.21334999999998
endloop
endfacet
facet normal 4.31475881562384e-16 2.10348964732143e-16 1.0
outer loop
vertex 18.5262537295126 -15.2079550090466 5.21334999999999
vertex 40.6863058225785 -6.89266100339055 5.21334999999998
vertex 27.884348284111 -5.22548820608661 5.21334999999999
endloop
endfacet
facet normal 4.31475881562384e-16 2.10348964732143e-16 1.0
outer loop
vertex 27.884348284111 -5.22548820608661 5.21334999999999
vertex 40.6863058225785 -6.89266100339055 5.21334999999998
vertex 31.9540135202349 4.43177236814868 5.21334999999998
endloop
endfacet
facet normal 4.31475881562384e-16 2.10348964732143e-16 1.0
outer loop
vertex 27.1076534782487 -1.56651455715902 5.21334999999999
vertex 31.9540135202349 4.43177236814868 5.21334999999998
vertex 26.0141781544205 -0.148446079905878 5.21334999999999
endloop
endfacet
facet normal 4.31475881562384e-16 2.10348964732143e-16 1.0
outer loop
vertex 31.9540135202349 4.43177236814868 5.21334999999998
vertex 27.1076534782487 -1.56651455715902 5.21334999999999
vertex 27.884348284111 -5.22548820608661 5.21334999999999
endloop
endfacet
facet normal 4.31475881562384e-16 2.10348964732143e-16 1.0
outer loop
vertex 27.884348284111 -5.22548820608661 5.21334999999999
vertex 17.1884913652549 -13.4730839996411 5.21334999999999
vertex 18.5262537295126 -15.2079550090466 5.21334999999999
endloop
endfacet
facet normal -0.610641270915341 0.791907341962996 9.2520921833052e-17
outer loop
vertex 26.0141781544205 -0.148446079905879 -1.40463533008368e-14
vertex 31.9540135202349 4.43177236814868 5.21334999999998
vertex 31.9540135202349 4.43177236814868 -1.84835725079077e-14
endloop
endfacet
facet normal -0.610641270915341 0.791907341962996 9.2520921833052e-17
outer loop
vertex 31.9540135202349 4.43177236814868 5.21334999999998
vertex 26.0141781544205 -0.148446079905879 -1.40463533008368e-14
vertex 26.0141781544205 -0.148446079905878 5.21334999999999
endloop
endfacet
facet normal 0.791907341962996 0.610641270915341 -4.63894847061236e-16
outer loop
vertex 31.9540135202349 4.43177236814868 -1.84835725079077e-14
vertex 40.6863058225785 -6.89266100339055 5.21334999999998
vertex 40.6863058225785 -6.89266100339055 -1.84013214083981e-14
endloop
endfacet
facet normal 0.791907341962996 0.610641270915341 -4.63894847061236e-16
outer loop
vertex 40.6863058225785 -6.89266100339055 5.21334999999998
vertex 31.9540135202349 4.43177236814868 -1.84835725079077e-14
vertex 31.9540135202349 4.43177236814868 5.21334999999998
endloop
endfacet
facet normal 0.610641270915341 -0.791907341962996 -9.2520921833052e-17
outer loop
vertex 40.6863058225785 -6.89266100339055 5.21334999999998
vertex 11.8824184548268 -29.1033938221401 -2.39895515112442e-15
vertex 40.6863058225785 -6.89266100339055 -1.84013214083981e-14
endloop
endfacet
facet normal 0.610641270915341 -0.791907341962996 -9.2520921833052e-17
outer loop
vertex 11.8824184548268 -29.1033938221401 -2.39895515112442e-15
vertex 40.6863058225785 -6.89266100339055 5.21334999999998
vertex 11.8824184548268 -29.1033938221401 5.21335
endloop
endfacet
facet normal -0.791907341962995 -0.610641270915342 4.63894847061236e-16
outer loop
vertex 9.51972079075681 -26.0393401524443 5.21335
vertex 11.8824184548268 -29.1033938221401 -2.39895515112442e-15
vertex 11.8824184548268 -29.1033938221401 5.21335
endloop
endfacet
facet normal -0.791907341962995 -0.610641270915342 4.63894847061236e-16
outer loop
vertex 11.8824184548268 -29.1033938221401 -2.39895515112442e-15
vertex 9.51972079075681 -26.0393401524443 5.21335
vertex 9.51972079075681 -26.0393401524443 -2.39895515112442e-15
endloop
endfacet
facet normal 0.610641270915341 -0.791907341962996 -9.2520921833052e-17
outer loop
vertex 9.51972079075681 -26.0393401524443 5.21335
vertex 5.20517201953983 -29.3662969887724 -1.95266356491771e-18
vertex 9.51972079075681 -26.0393401524443 -2.39895515112442e-15
endloop
endfacet
facet normal 0.610641270915341 -0.791907341962996 -9.2520921833052e-17
outer loop
vertex 5.20517201953983 -29.3662969887724 -1.95266356491771e-18
vertex 9.51972079075681 -26.0393401524443 5.21335
vertex 5.20517201953983 -29.3662969887724 5.21335
endloop
endfacet
facet normal 0.994768683793018 -0.102153148481615 -4.00188782169378e-16
outer loop
vertex 5.20517201953983 -29.3662969887724 -1.95266356491771e-18
vertex 4.66028712553889 -34.6723931481243 5.21335
vertex 4.66028712553889 -34.6723931481243 3.88792796458269e-15
endloop
endfacet
facet normal 0.994768683793018 -0.102153148481615 -4.00188782169378e-16
outer loop
vertex 4.66028712553889 -34.6723931481243 5.21335
vertex 5.20517201953983 -29.3662969887724 -1.95266356491771e-18
vertex 5.20517201953983 -29.3662969887724 5.21335
endloop
endfacet
facet normal 0.610641270915341 -0.791907341962996 -9.2520921833052e-17
outer loop
vertex 4.66028712553889 -34.6723931481243 5.21335
vertex -9.13822316376113 -45.3124509090616 1.15538659900644e-14
vertex 4.66028712553889 -34.6723931481243 3.88792796458269e-15
endloop
endfacet
facet normal 0.610641270915341 -0.791907341962996 -9.2520921833052e-17
outer loop
vertex -9.13822316376113 -45.3124509090616 1.15538659900644e-14
vertex 4.66028712553889 -34.6723931481243 5.21335
vertex -9.13822316376113 -45.3124509090616 5.21335000000001
endloop
endfacet
facet normal -0.791907341962996 -0.610641270915341 1.16507323649135e-16
outer loop
vertex -14.7180493729407 -38.0762787857734 5.21335000000001
vertex -9.13822316376113 -45.3124509090616 1.15538659900644e-14
vertex -9.13822316376113 -45.3124509090616 5.21335000000001
endloop
endfacet
facet normal -0.791907341962996 -0.610641270915341 1.16507323649135e-16
outer loop
vertex -9.13822316376113 -45.3124509090616 1.15538659900644e-14
vertex -14.7180493729407 -38.0762787857734 5.21335000000001
vertex -14.7180493729407 -38.0762787857734 1.15538659900644e-14
endloop
endfacet
facet normal 0.610641270915341 -0.791907341962996 -1.10839255248523e-16
outer loop
vertex -4.10767885164949 -29.8946017174142 5.21335000000001
vertex -14.7180493729407 -38.0762787857734 1.15538659900644e-14
vertex -4.10767885164949 -29.8946017174142 5.65913959291919e-15
endloop
endfacet
facet normal 0.610641270915341 -0.791907341962996 -1.10839255248523e-16
outer loop
vertex -14.7180493729407 -38.0762787857734 1.15538659900644e-14
vertex -4.10767885164949 -29.8946017174142 5.21335000000001
vertex -14.7180493729407 -38.0762787857734 5.21335000000001
endloop
endfacet
facet normal -0.791907341962996 -0.610641270915341 2.18451231842128e-16
outer loop
vertex -4.10767885164949 -29.8946017174142 5.21335000000001
vertex -2.76991648739171 -31.6294727268196 5.65913959291919e-15
vertex -2.7699164873917 -31.6294727268196 5.21335000000001
endloop
endfacet
facet normal -0.791907341962996 -0.610641270915341 2.18451231842128e-16
outer loop
vertex -2.76991648739171 -31.6294727268196 5.65913959291919e-15
vertex -4.10767885164949 -29.8946017174142 5.21335000000001
vertex -4.10767885164949 -29.8946017174142 5.65913959291919e-15
endloop
endfacet
facet normal 0.610641270915342 -0.791907341962996 8.58429915981906e-17
outer loop
vertex 18.5262537295126 -15.2079550090466 5.21334999999999
vertex -2.76991648739171 -31.6294727268196 5.65913959291919e-15
vertex 18.5262537295126 -15.2079550090466 -6.17221883926551e-15
endloop
endfacet
facet normal 0.610641270915342 -0.791907341962996 8.58429915981906e-17
outer loop
vertex -2.76991648739171 -31.6294727268196 5.65913959291919e-15
vertex 18.5262537295126 -15.2079550090466 5.21334999999999
vertex -2.7699164873917 -31.6294727268196 5.21335000000001
endloop
endfacet
facet normal 0.791907341962995 0.610641270915342 -0.0
outer loop
vertex 17.1884913652549 -13.4730839996411 -6.17221883926551e-15
vertex 18.5262537295126 -15.2079550090466 5.21334999999999
vertex 18.5262537295126 -15.2079550090466 -6.17221883926551e-15
endloop
endfacet
facet normal 0.791907341962995 0.610641270915342 -0.0
outer loop
vertex 18.5262537295126 -15.2079550090466 5.21334999999999
vertex 17.1884913652549 -13.4730839996411 -6.17221883926551e-15
vertex 17.1884913652549 -13.4730839996411 5.21334999999999
endloop
endfacet
facet normal 0.610641270915342 -0.791907341962996 1.58677807218785e-16
outer loop
vertex 27.884348284111 -5.22548820608661 5.21334999999999
vertex 17.1884913652549 -13.4730839996411 -6.17221883926551e-15
vertex 27.884348284111 -5.22548820608661 -1.2114438292691e-14
endloop
endfacet
facet normal 0.610641270915342 -0.791907341962996 1.58677807218785e-16
outer loop
vertex 17.1884913652549 -13.4730839996411 -6.17221883926551e-15
vertex 27.884348284111 -5.22548820608661 5.21334999999999
vertex 17.1884913652549 -13.4730839996411 5.21334999999999
endloop
endfacet
facet normal 0.791907341962996 0.610641270915341 -8.98390208224349e-17
outer loop
vertex 25.8253575147751 -2.55529543508869 -1.2114438292691e-14
vertex 27.884348284111 -5.22548820608661 5.21334999999999
vertex 27.884348284111 -5.22548820608661 -1.2114438292691e-14
endloop
endfacet
facet normal 0.791907341962996 0.610641270915341 -8.98390208224349e-17
outer loop
vertex 27.884348284111 -5.22548820608661 5.21334999999999
vertex 25.8253575147751 -2.55529543508869 -1.2114438292691e-14
vertex 25.8253575147751 -2.55529543508869 5.21334999999999
endloop
endfacet
facet normal 0.61064127091534 -0.791907341962997 1.04839941162454e-16
outer loop
vertex 27.1076534782487 -1.56651455715902 5.21334999999999
vertex 25.8253575147751 -2.55529543508869 -1.2114438292691e-14
vertex 27.1076534782487 -1.56651455715902 -1.28268341368957e-14
endloop
endfacet
facet normal 0.61064127091534 -0.791907341962997 1.04839941162454e-16
outer loop
vertex 25.8253575147751 -2.55529543508869 -1.2114438292691e-14
vertex 27.1076534782487 -1.56651455715902 5.21334999999999
vertex 25.8253575147751 -2.55529543508869 5.21334999999999
endloop
endfacet
facet normal 0.791907341962995 0.610641270915342 -1.31070739105277e-16
outer loop
vertex 26.0141781544205 -0.148446079905879 -1.40463533008368e-14
vertex 27.1076534782487 -1.56651455715902 5.21334999999999
vertex 27.1076534782487 -1.56651455715902 -1.28268341368957e-14
endloop
endfacet
facet normal 0.791907341962995 0.610641270915342 -1.31070739105277e-16
outer loop
vertex 27.1076534782487 -1.56651455715902 5.21334999999999
vertex 26.0141781544205 -0.148446079905879 -1.40463533008368e-14
vertex 26.0141781544205 -0.148446079905878 5.21334999999999
endloop
endfacet
facet normal -9.04587098617964e-18 7.18835903637366e-16 1.0
outer loop
vertex 0.430946530618053 -13.5537458851331 41.8338
vertex 2.65911563642082 -5.49147874293948 41.8338
vertex -2.63688866877835 -9.57523782475775 41.8338
endloop
endfacet
facet normal -9.04587098617964e-18 7.18835903637366e-16 1.0
outer loop
vertex 2.65911563642082 -5.49147874293948 41.8338
vertex 0.430946530618053 -13.5537458851331 41.8338
vertex 5.72695083581722 -9.46998680331482 41.8338
endloop
endfacet
facet normal 0.791907341962995 0.610641270915342 -4.31787378128293e-16
outer loop
vertex -2.63688866877835 -9.57523782475775 41.8338
vertex 0.430946530618053 -13.5537458851331 42.1386
vertex 0.430946530618053 -13.5537458851331 41.8338
endloop
endfacet
facet normal 0.791907341962995 0.610641270915342 -4.31787378128293e-16
outer loop
vertex 0.430946530618053 -13.5537458851331 42.1386
vertex -2.63688866877835 -9.57523782475775 41.8338
vertex -2.63688866877835 -9.57523782475775 42.1386
endloop
endfacet
facet normal -0.610641270915342 0.791907341962995 -5.74775211912571e-16
outer loop
vertex 0.430946530618053 -13.5537458851331 41.8338
vertex 5.72695083581722 -9.46998680331482 42.1386
vertex 5.72695083581722 -9.46998680331482 41.8338
endloop
endfacet
facet normal -0.610641270915342 0.791907341962995 -5.74775211912571e-16
outer loop
vertex 5.72695083581722 -9.46998680331482 42.1386
vertex 0.430946530618053 -13.5537458851331 41.8338
vertex 0.430946530618053 -13.5537458851331 42.1386
endloop
endfacet
facet normal -0.791907341962996 -0.610641270915342 4.31787378128293e-16
outer loop
vertex 2.65911563642082 -5.49147874293948 42.1386
vertex 5.72695083581722 -9.46998680331482 41.8338
vertex 5.72695083581722 -9.46998680331482 42.1386
endloop
endfacet
facet normal -0.791907341962996 -0.610641270915342 4.31787378128293e-16
outer loop
vertex 5.72695083581722 -9.46998680331482 41.8338
vertex 2.65911563642082 -5.49147874293948 42.1386
vertex 2.65911563642082 -5.49147874293948 41.8338
endloop
endfacet
facet normal 0.610641270915342 -0.791907341962995 5.74775211912571e-16
outer loop
vertex 2.65911563642082 -5.49147874293948 42.1386
vertex -2.63688866877835 -9.57523782475775 41.8338
vertex 2.65911563642082 -5.49147874293948 41.8338
endloop
endfacet
facet normal 0.610641270915342 -0.791907341962995 5.74775211912571e-16
outer loop
vertex -2.63688866877835 -9.57523782475775 41.8338
vertex 2.65911563642082 -5.49147874293948 42.1386
vertex -2.63688866877835 -9.57523782475775 42.1386
endloop
endfacet
facet normal -3.48402963970767e-16 -2.68654194040446e-16 -1.0
outer loop
vertex 24.5697495369494 4.719638945957 -1.36314223844681e-14
vertex 24.3351894479753 2.02894275218847 -1.28268341368957e-14
vertex 21.8392134264939 2.61411731177735 -1.2114438292691e-14
endloop
endfacet
facet normal -3.48402963970767e-16 -2.68654194040446e-16 -1.0
outer loop
vertex 24.3351894479753 2.02894275218847 -1.28268341368957e-14
vertex 24.5697495369494 4.719638945957 -1.36314223844681e-14
vertex 25.7834295949572 3.14568350843844 -1.36314223844681e-14
endloop
endfacet
facet normal -3.48402963970767e-16 -2.68654194040446e-16 -1.0
outer loop
vertex 26.0141781544205 -0.148446079905879 -1.40463533008368e-14
vertex 25.8253575147751 -2.55529543508869 -1.2114438292691e-14
vertex 24.3351894479753 2.02894275218847 -1.28268341368957e-14
endloop
endfacet
facet normal -3.48402963970767e-16 -2.68654194040446e-16 -1.0
outer loop
vertex 25.8253575147751 -2.55529543508869 -1.2114438292691e-14
vertex 26.0141781544205 -0.148446079905879 -1.40463533008368e-14
vertex 27.1076534782487 -1.56651455715902 -1.28268341368957e-14
endloop
endfacet
facet normal -3.48402963970767e-16 -2.68654194040446e-16 -1.0
outer loop
vertex 19.6483852067674 5.45528287790509 -1.2114438292691e-14
vertex 17.1884913652549 -13.4730839996411 -6.17221883926551e-15
vertex 8.94247106466836 -2.80006805979005 -6.16663142087958e-15
endloop
endfacet
facet normal -3.48402963970767e-16 -2.68654194040446e-16 -1.0
outer loop
vertex 17.1884913652549 -13.4730839996411 -6.17221883926551e-15
vertex 19.6483852067674 5.45528287790509 -1.2114438292691e-14
vertex 27.884348284111 -5.22548820608661 -1.2114438292691e-14
endloop
endfacet
facet normal -3.48402963970767e-16 -2.68654194040446e-16 -1.0
outer loop
vertex 27.884348284111 -5.22548820608661 -1.2114438292691e-14
vertex 19.6483852067674 5.45528287790509 -1.2114438292691e-14
vertex 21.8392134264939 2.61411731177735 -1.2114438292691e-14
endloop
endfacet
facet normal -3.48402963970767e-16 -2.68654194040446e-16 -1.0
outer loop
vertex 27.884348284111 -5.22548820608661 -1.2114438292691e-14
vertex 21.8392134264939 2.61411731177735 -1.2114438292691e-14
vertex 25.8253575147751 -2.55529543508869 -1.2114438292691e-14
endloop
endfacet
facet normal -3.48402963970767e-16 -2.68654194040446e-16 -1.0
outer loop
vertex 25.8253575147751 -2.55529543508869 -1.2114438292691e-14
vertex 21.8392134264939 2.61411731177735 -1.2114438292691e-14
vertex 24.3351894479753 2.02894275218847 -1.28268341368957e-14
endloop
endfacet
facet normal -3.48402963970767e-16 -2.68654194040446e-16 -1.0
outer loop
vertex 7.7675667273637 -1.27639873848615 -6.16663142087958e-15
vertex -7.3653164237427 -15.3750342838132 2.89336749188901e-15
vertex -8.54022076104736 -13.8513649625093 2.89336749188901e-15
endloop
endfacet
facet normal -3.48402963970767e-16 -2.68654194040446e-16 -1.0
outer loop
vertex -7.3653164237427 -15.3750342838132 2.89336749188901e-15
vertex 7.7675667273637 -1.27639873848615 -6.16663142087958e-15
vertex -4.10767885164949 -29.8946017174142 5.65913959291919e-15
endloop
endfacet
facet normal -3.48402963970767e-16 -2.68654194040446e-16 -1.0
outer loop
vertex -4.10767885164949 -29.8946017174142 5.65913959291919e-15
vertex 7.7675667273637 -1.27639873848615 -6.16663142087958e-15
vertex -2.76991648739171 -31.6294727268196 5.65913959291919e-15
endloop
endfacet
facet normal -3.48402963970767e-16 -2.68654194040446e-16 -1.0
outer loop
vertex -2.76991648739171 -31.6294727268196 5.65913959291919e-15
vertex 7.7675667273637 -1.27639873848615 -6.16663142087958e-15
vertex 8.94247106466836 -2.80006805979005 -6.16663142087958e-15
endloop
endfacet
facet normal -3.48402963970767e-16 -2.68654194040446e-16 -1.0
outer loop
vertex -2.76991648739171 -31.6294727268196 5.65913959291919e-15
vertex 8.94247106466836 -2.80006805979005 -6.16663142087958e-15
vertex 18.5262537295126 -15.2079550090466 -6.17221883926551e-15
endloop
endfacet
facet normal -3.48402963970767e-16 -2.68654194040446e-16 -1.0
outer loop
vertex 18.5262537295126 -15.2079550090466 -6.17221883926551e-15
vertex 8.94247106466836 -2.80006805979005 -6.16663142087958e-15
vertex 17.1884913652549 -13.4730839996411 -6.17221883926551e-15
endloop
endfacet
facet normal -3.48402963970767e-16 -2.68654194040446e-16 -1.0
outer loop
vertex -7.3653164237427 -15.3750342838132 2.89336749188901e-15
vertex -21.0578797079015 -29.8544987846781 1.15538659900644e-14
vertex -22.9540124502843 -27.3955077017817 1.15538659900644e-14
endloop
endfacet
facet normal -3.48402963970767e-16 -2.68654194040446e-16 -1.0
outer loop
vertex -21.0578797079015 -29.8544987846781 1.15538659900644e-14
vertex -7.3653164237427 -15.3750342838132 2.89336749188901e-15
vertex -19.8153221414233 -34.9183400397421 1.2481377442127e-14
endloop
endfacet
facet normal -3.48402963970767e-16 -2.68654194040446e-16 -1.0
outer loop
vertex -19.8153221414233 -34.9183400397421 1.2481377442127e-14
vertex -7.3653164237427 -15.3750342838132 2.89336749188901e-15
vertex -19.7070229039233 -37.7936991825548 1.32161229598754e-14
endloop
endfacet
facet normal -3.48402963970767e-16 -2.68654194040446e-16 -1.0
outer loop
vertex -19.7070229039233 -37.7936991825548 1.32161229598754e-14
vertex -7.3653164237427 -15.3750342838132 2.89336749188901e-15
vertex -16.7149989891516 -35.4865438007189 1.15538659900644e-14
endloop
endfacet
facet normal -3.48402963970767e-16 -2.68654194040446e-16 -1.0
outer loop
vertex -16.7149989891516 -35.4865438007189 1.15538659900644e-14
vertex -7.3653164237427 -15.3750342838132 2.89336749188901e-15
vertex -14.7180493729407 -38.0762787857734 1.15538659900644e-14
endloop
endfacet
facet normal -3.48402963970767e-16 -2.68654194040446e-16 -1.0
outer loop
vertex -14.7180493729407 -38.0762787857734 1.15538659900644e-14
vertex -7.3653164237427 -15.3750342838132 2.89336749188901e-15
vertex -4.10767885164949 -29.8946017174142 5.65913959291919e-15
endloop
endfacet
facet normal -3.48402963970767e-16 -2.68654194040446e-16 -1.0
outer loop
vertex -19.7070229039233 -37.7936991825548 1.32161229598754e-14
vertex -21.1378469978686 -35.9381414942342 1.32161229598754e-14
vertex -19.8153221414233 -34.9183400397421 1.2481377442127e-14
endloop
endfacet
facet normal -3.48402963970767e-16 -2.68654194040446e-16 -1.0
outer loop
vertex -19.8153221414233 -34.9183400397421 1.2481377442127e-14
vertex -22.7273787662279 -31.1418527120218 1.2481377442127e-14
vertex -21.0578797079015 -29.8544987846781 1.15538659900644e-14
endloop
endfacet
facet normal 3.18812582856025e-16 2.50975095072932e-16 1.0
outer loop
vertex -19.7070229039233 -37.7936991825548 38.86835
vertex -20.7884376954743 -35.9832993239529 38.86835
vertex -21.1378469978686 -35.9381414942342 38.86835
endloop
endfacet
facet normal 3.18812582856025e-16 2.50975095072932e-16 1.0
outer loop
vertex -20.7884376954743 -35.9832993239529 38.86835
vertex -19.7070229039233 -37.7936991825548 38.86835
vertex -19.6618650742046 -37.4442898801605 38.86835
endloop
endfacet
facet normal 3.18812582856025e-16 2.50975095072932e-16 1.0
outer loop
vertex -19.6618650742046 -37.4442898801605 38.86835
vertex -19.7070229039233 -37.7936991825548 38.86835
vertex -16.7149989891516 -35.4865438007189 38.86835
endloop
endfacet
facet normal 3.18812582856025e-16 2.50975095072932e-16 1.0
outer loop
vertex -19.6618650742046 -37.4442898801605 38.86835
vertex -16.7149989891516 -35.4865438007189 38.86835
vertex -16.6698411594329 -35.1371344983246 38.86835
endloop
endfacet
facet normal 3.18812582856025e-16 2.50975095072932e-16 1.0
outer loop
vertex -16.6698411594329 -35.1371344983246 38.86835
vertex -16.7149989891516 -35.4865438007189 38.86835
vertex -14.7180493729407 -38.0762787857734 38.86835
endloop
endfacet
facet normal 3.18812582856025e-16 2.50975095072932e-16 1.0
outer loop
vertex -16.6698411594329 -35.1371344983246 38.86835
vertex -14.7180493729407 -38.0762787857734 38.86835
vertex -14.672891543222 -37.7268694833791 38.86835
endloop
endfacet
facet normal 3.18812582856025e-16 2.50975095072932e-16 1.0
outer loop
vertex -14.672891543222 -37.7268694833791 38.86835
vertex -14.7180493729407 -38.0762787857734 38.86835
vertex -4.10767885164948 -29.8946017174142 38.86835
endloop
endfacet
facet normal 3.18812582856025e-16 2.50975095072932e-16 1.0
outer loop
vertex -14.672891543222 -37.7268694833791 38.86835
vertex -4.10767885164948 -29.8946017174142 38.86835
vertex -4.06252102193081 -29.5451924150199 38.86835
endloop
endfacet
facet normal 3.18812582856025e-16 2.50975095072932e-16 1.0
outer loop
vertex -4.06252102193081 -29.5451924150199 38.86835
vertex -4.10767885164948 -29.8946017174142 38.86835
vertex -2.76991648739169 -31.6294727268196 38.86835
endloop
endfacet
facet normal 3.18812582856025e-16 2.50975095072932e-16 1.0
outer loop
vertex -4.06252102193081 -29.5451924150199 38.86835
vertex -2.76991648739169 -31.6294727268196 38.86835
vertex -2.72475865767303 -31.2800634244254 38.86835
endloop
endfacet
facet normal 3.18812582856025e-16 2.50975095072932e-16 1.0
outer loop
vertex -2.72475865767303 -31.2800634244254 38.86835
vertex -2.76991648739169 -31.6294727268196 38.86835
vertex 18.5262537295127 -15.2079550090466 38.86835
endloop
endfacet
facet normal 3.18812582856025e-16 2.50975095072932e-16 1.0
outer loop
vertex -2.72475865767303 -31.2800634244254 38.86835
vertex 18.5262537295127 -15.2079550090466 38.86835
vertex 18.1768444271184 -15.1627971793279 38.86835
endloop
endfacet
facet normal 3.18812582856025e-16 2.50975095072932e-16 1.0
outer loop
vertex 18.1768444271184 -15.1627971793279 38.86835
vertex 17.1884913652549 -13.4730839996411 38.86835
vertex 16.8390820628606 -13.4279261699225 38.86835
endloop
endfacet
facet normal 3.18812582856025e-16 2.50975095072932e-16 1.0
outer loop
vertex 17.1884913652549 -13.4730839996411 38.86835
vertex 18.1768444271184 -15.1627971793279 38.86835
vertex 18.5262537295127 -15.2079550090466 38.86835
endloop
endfacet
facet normal 3.18812582856025e-16 2.50975095072932e-16 1.0
outer loop
vertex 17.1884913652549 -13.4730839996411 38.86835
vertex 27.5349389817167 -5.18033037636794 38.86835
vertex 16.8390820628606 -13.4279261699225 38.86835
endloop
endfacet
facet normal 3.18812582856025e-16 2.50975095072932e-16 1.0
outer loop
vertex 27.5349389817167 -5.18033037636794 38.86835
vertex 17.1884913652549 -13.4730839996411 38.86835
vertex 27.884348284111 -5.22548820608661 38.86835
endloop
endfacet
facet normal 3.18812582856025e-16 2.50975095072932e-16 1.0
outer loop
vertex 27.5349389817167 -5.18033037636794 38.86835
vertex 25.8253575147751 -2.55529543508868 38.86835
vertex 25.4759482123808 -2.51013760537001 38.86835
endloop
endfacet
facet normal 3.18812582856025e-16 2.50975095072932e-16 1.0
outer loop
vertex 25.8253575147751 -2.55529543508868 38.86835
vertex 27.5349389817167 -5.18033037636794 38.86835
vertex 27.884348284111 -5.22548820608661 38.86835
endloop
endfacet
facet normal 3.18812582856025e-16 2.50975095072932e-16 1.0
outer loop
vertex 25.8253575147751 -2.55529543508868 38.86835
vertex 26.7582441758544 -1.52135672744035 38.86835
vertex 25.4759482123808 -2.51013760537001 38.86835
endloop
endfacet
facet normal 3.18812582856025e-16 2.50975095072932e-16 1.0
outer loop
vertex 26.7582441758544 -1.52135672744035 38.86835
vertex 25.8253575147751 -2.55529543508868 38.86835
vertex 27.1076534782487 -1.56651455715901 38.86835
endloop
endfacet
facet normal 3.18812582856025e-16 2.50975095072932e-16 1.0
outer loop
vertex 26.7582441758544 -1.52135672744035 38.86835
vertex 24.3351894479753 2.02894275218848 38.86835
vertex 23.985780145581 2.07410058190714 38.86835
endloop
endfacet
facet normal 3.18812582856025e-16 2.50975095072932e-16 1.0
outer loop
vertex 24.3351894479753 2.02894275218848 38.86835
vertex 26.7582441758544 -1.52135672744035 38.86835
vertex 27.1076534782487 -1.56651455715901 38.86835
endloop
endfacet
facet normal 3.18812582856025e-16 2.50975095072932e-16 1.0
outer loop
vertex 24.3351894479753 2.02894275218848 38.86835
vertex 25.4340202925629 3.19084133815712 38.86835
vertex 23.985780145581 2.07410058190714 38.86835
endloop
endfacet
facet normal 3.18812582856025e-16 2.50975095072932e-16 1.0
outer loop
vertex 25.4340202925629 3.19084133815712 38.86835
vertex 24.3351894479753 2.02894275218848 38.86835
vertex 25.7834295949572 3.14568350843845 38.86835
endloop
endfacet
facet normal 3.18812582856025e-16 2.50975095072932e-16 1.0
outer loop
vertex 2.85085194926478 -5.38227495141753 38.86835
vertex 7.76756672736371 -1.27639873848614 38.86835
vertex 2.69872621292697 -5.18499138536106 38.86835
endloop
endfacet
facet normal 3.18812582856025e-16 2.50975095072932e-16 1.0
outer loop
vertex 7.76756672736371 -1.27639873848614 38.86835
vertex 2.85085194926478 -5.38227495141753 38.86835
vertex 7.72240889764505 -1.62580804088042 38.86835
endloop
endfacet
facet normal 3.18812582856025e-16 2.50975095072932e-16 1.0
outer loop
vertex 7.76756672736371 -1.27639873848614 38.86835
vertex 7.72240889764505 -1.62580804088042 38.86835
vertex 8.89731323494971 -3.14947736218432 38.86835
endloop
endfacet
facet normal 3.18812582856025e-16 2.50975095072932e-16 1.0
outer loop
vertex 7.76756672736371 -1.27639873848614 38.86835
vertex 8.89731323494971 -3.14947736218432 38.86835
vertex 8.94247106466838 -2.80006805979004 38.86835
endloop
endfacet
facet normal 3.18812582856025e-16 2.50975095072932e-16 1.0
outer loop
vertex 8.94247106466838 -2.80006805979004 38.86835
vertex 8.89731323494971 -3.14947736218432 38.86835
vertex 19.6032273770487 5.10587357551082 38.86835
endloop
endfacet
facet normal 3.18812582856025e-16 2.50975095072932e-16 1.0
outer loop
vertex 8.94247106466838 -2.80006805979004 38.86835
vertex 19.6032273770487 5.10587357551082 38.86835
vertex 19.6483852067674 5.4552828779051 38.86835
endloop
endfacet
facet normal 3.18812582856025e-16 2.50975095072932e-16 1.0
outer loop
vertex 19.6483852067674 5.4552828779051 38.86835
vertex 19.6032273770487 5.10587357551082 38.86835
vertex 21.7940555967752 2.26470800938309 38.86835
endloop
endfacet
facet normal 3.18812582856025e-16 2.50975095072932e-16 1.0
outer loop
vertex 19.6483852067674 5.4552828779051 38.86835
vertex 21.7940555967752 2.26470800938309 38.86835
vertex 21.8392134264939 2.61411731177736 38.86835
endloop
endfacet
facet normal 3.18812582856025e-16 2.50975095072932e-16 1.0
outer loop
vertex 21.8392134264939 2.61411731177736 38.86835
vertex 21.7940555967752 2.26470800938309 38.86835
vertex 24.5245917072307 4.37022964356273 38.86835
endloop
endfacet
facet normal 3.18812582856025e-16 2.50975095072932e-16 1.0
outer loop
vertex 21.8392134264939 2.61411731177736 38.86835
vertex 24.5245917072307 4.37022964356273 38.86835
vertex 24.5697495369494 4.719638945957 38.86835
endloop
endfacet
facet normal 3.18812582856025e-16 2.50975095072932e-16 1.0
outer loop
vertex 24.5697495369494 4.719638945957 38.86835
vertex 24.5245917072307 4.37022964356273 38.86835
vertex 25.4340202925629 3.19084133815712 38.86835
endloop
endfacet
facet normal 3.18812582856025e-16 2.50975095072932e-16 1.0
outer loop
vertex 24.5697495369494 4.719638945957 38.86835
vertex 25.4340202925629 3.19084133815712 38.86835
vertex 25.7834295949572 3.14568350843845 38.86835
endloop
endfacet
facet normal 3.18812582856025e-16 2.50975095072932e-16 1.0
outer loop
vertex -20.7884376954743 -35.9832993239529 38.86835
vertex -19.8153221414233 -34.9183400397421 38.86835
vertex -21.1378469978686 -35.9381414942342 38.86835
endloop
endfacet
facet normal 3.18812582856025e-16 2.50975095072932e-16 1.0
outer loop
vertex -19.8153221414233 -34.9183400397421 38.86835
vertex -20.7884376954743 -35.9832993239529 38.86835
vertex -19.465912839029 -34.9634978694607 38.86835
endloop
endfacet
facet normal 3.18812582856025e-16 2.50975095072932e-16 1.0
outer loop
vertex -19.8153221414233 -34.9183400397421 38.86835
vertex -22.3779694638336 -31.1870105417405 38.86835
vertex -22.7273787662279 -31.1418527120218 38.86835
endloop
endfacet
facet normal 3.18812582856025e-16 2.50975095072932e-16 1.0
outer loop
vertex -22.3779694638336 -31.1870105417405 38.86835
vertex -19.8153221414233 -34.9183400397421 38.86835
vertex -19.465912839029 -34.9634978694607 38.86835
endloop
endfacet
facet normal 3.18812582856025e-16 2.50975095072932e-16 1.0
outer loop
vertex -22.3779694638336 -31.1870105417405 38.86835
vertex -21.0578797079015 -29.8544987846781 38.86835
vertex -22.7273787662279 -31.1418527120218 38.86835
endloop
endfacet
facet normal 3.18812582856025e-16 2.50975095072932e-16 1.0
outer loop
vertex -21.0578797079015 -29.8544987846781 38.86835
vertex -22.3779694638336 -31.1870105417405 38.86835
vertex -20.7084704055072 -29.8996566143968 38.86835
endloop
endfacet
facet normal 3.18812582856025e-16 2.50975095072932e-16 1.0
outer loop
vertex -21.0578797079015 -29.8544987846781 38.86835
vertex -22.60460314789 -27.4406655315004 38.86835
vertex -22.9540124502843 -27.3955077017817 38.86835
endloop
endfacet
facet normal 3.18812582856025e-16 2.50975095072932e-16 1.0
outer loop
vertex -22.60460314789 -27.4406655315004 38.86835
vertex -21.0578797079015 -29.8544987846781 38.86835
vertex -20.7084704055072 -29.8996566143968 38.86835
endloop
endfacet
facet normal 3.18812582856025e-16 2.50975095072932e-16 1.0
outer loop
vertex -8.19081145865307 -13.896522792228 38.86835
vertex -2.94337602635678 -9.53562724825159 38.86835
vertex -8.54022076104735 -13.8513649625093 38.86835
endloop
endfacet
facet normal 3.18812582856025e-16 2.50975095072932e-16 1.0
outer loop
vertex -2.94337602635678 -9.53562724825159 38.86835
vertex -8.19081145865307 -13.896522792228 38.86835
vertex -2.79125029001898 -9.73291081430806 38.86835
endloop
endfacet
facet normal 3.18812582856025e-16 2.50975095072932e-16 1.0
outer loop
vertex -22.60460314789 -27.4406655315004 38.86835
vertex -7.36531642374269 -15.3750342838132 38.86835
vertex -22.9540124502843 -27.3955077017817 38.86835
endloop
endfacet
facet normal 3.18812582856025e-16 2.50975095072932e-16 1.0
outer loop
vertex -7.36531642374269 -15.3750342838132 38.86835
vertex -22.60460314789 -27.4406655315004 38.86835
vertex -7.01590712134841 -15.4201921135319 38.86835
endloop
endfacet
facet normal 3.18812582856025e-16 2.50975095072932e-16 1.0
outer loop
vertex -7.36531642374269 -15.3750342838132 38.86835
vertex -8.19081145865307 -13.896522792228 38.86835
vertex -8.54022076104735 -13.8513649625093 38.86835
endloop
endfacet
facet normal 3.18812582856025e-16 2.50975095072932e-16 1.0
outer loop
vertex -8.19081145865307 -13.896522792228 38.86835
vertex -7.36531642374269 -15.3750342838132 38.86835
vertex -7.01590712134841 -15.4201921135319 38.86835
endloop
endfacet
facet normal 0.610641270915341 -0.791907341962996 -3.06182830444427e-17
outer loop
vertex -4.10767885164948 -29.8946017174142 38.86835
vertex -14.7180493729407 -38.0762787857734 5.21335000000001
vertex -4.10767885164949 -29.8946017174142 5.21335000000001
endloop
endfacet
facet normal 0.610641270915341 -0.791907341962996 -3.06182830444427e-17
outer loop
vertex -14.7180493729407 -38.0762787857734 5.21335000000001
vertex -4.10767885164948 -29.8946017174142 38.86835
vertex -14.7180493729407 -38.0762787857734 38.86835
endloop
endfacet
facet normal -0.791907341962995 -0.610641270915342 2.14922557994457e-16
outer loop
vertex -14.7180493729407 -38.0762787857734 38.86835
vertex -14.7180493729407 -38.0762787857734 1.15538659900644e-14
vertex -14.7180493729407 -38.0762787857734 5.21335000000001
endloop
endfacet
facet normal -0.791907341962995 -0.610641270915342 2.14922557994457e-16
outer loop
vertex -14.7180493729407 -38.0762787857734 1.15538659900644e-14
vertex -14.7180493729407 -38.0762787857734 38.86835
vertex -16.7149989891516 -35.4865438007189 1.15538659900644e-14
endloop
endfacet
facet normal -0.791907341962995 -0.610641270915342 2.14922557994457e-16
outer loop
vertex -16.7149989891516 -35.4865438007189 1.15538659900644e-14
vertex -14.7180493729407 -38.0762787857734 38.86835
vertex -16.7149989891516 -35.4865438007189 38.86835
endloop
endfacet
facet normal 0.610641270915341 -0.791907341962996 -1.52734077783968e-30
outer loop
vertex -16.7149989891516 -35.4865438007189 38.86835
vertex -19.7070229039233 -37.7936991825548 1.32161229598754e-14
vertex -16.7149989891516 -35.4865438007189 1.15538659900644e-14
endloop
endfacet
facet normal 0.610641270915341 -0.791907341962996 -1.52734077783968e-30
outer loop
vertex -19.7070229039233 -37.7936991825548 1.32161229598754e-14
vertex -16.7149989891516 -35.4865438007189 38.86835
vertex -19.7070229039233 -37.7936991825548 38.86835
endloop
endfacet
facet normal -0.791907341962994 -0.610641270915343 4.39954203615715e-16
outer loop
vertex -19.7070229039233 -37.7936991825548 38.86835
vertex -21.1378469978686 -35.9381414942342 1.32161229598754e-14
vertex -19.7070229039233 -37.7936991825548 1.32161229598754e-14
endloop
endfacet
facet normal -0.791907341962994 -0.610641270915343 4.39954203615715e-16
outer loop
vertex -21.1378469978686 -35.9381414942342 1.32161229598754e-14
vertex -19.7070229039233 -37.7936991825548 38.86835
vertex -21.1378469978686 -35.9381414942342 38.86835
endloop
endfacet
facet normal -0.610641270915339 0.791907341962997 3.59936534701602e-31
outer loop
vertex -21.1378469978686 -35.9381414942342 1.32161229598754e-14
vertex -19.8153221414233 -34.9183400397421 38.86835
vertex -19.8153221414233 -34.9183400397421 1.2481377442127e-14
endloop
endfacet
facet normal -0.610641270915339 0.791907341962997 3.59936534701602e-31
outer loop
vertex -19.8153221414233 -34.9183400397421 38.86835
vertex -21.1378469978686 -35.9381414942342 1.32161229598754e-14
vertex -21.1378469978686 -35.9381414942342 38.86835
endloop
endfacet
facet normal -0.610641270915341 0.791907341962996 1.5634714198961e-30
outer loop
vertex -22.9540124502843 -27.3955077017817 1.15538659900644e-14
vertex -7.36531642374269 -15.3750342838132 38.86835
vertex -7.3653164237427 -15.3750342838132 2.89336749188901e-15
endloop
endfacet
facet normal -0.610641270915341 0.791907341962996 1.5634714198961e-30
outer loop
vertex -7.36531642374269 -15.3750342838132 38.86835
vertex -22.9540124502843 -27.3955077017817 1.15538659900644e-14
vertex -22.9540124502843 -27.3955077017817 38.86835
endloop
endfacet
facet normal -0.791907341962995 -0.610641270915342 4.39954203615715e-16
outer loop
vertex -7.36531642374269 -15.3750342838132 38.86835
vertex -8.54022076104736 -13.8513649625093 2.89336749188901e-15
vertex -7.3653164237427 -15.3750342838132 2.89336749188901e-15
endloop
endfacet
facet normal -0.791907341962995 -0.610641270915342 4.39954203615715e-16
outer loop
vertex -8.54022076104736 -13.8513649625093 2.89336749188901e-15
vertex -7.36531642374269 -15.3750342838132 38.86835
vertex -8.54022076104735 -13.8513649625093 38.86835
endloop
endfacet
facet normal -0.791907341962995 -0.610641270915343 4.39954203615715e-16
outer loop
vertex -19.8153221414233 -34.9183400397421 38.86835
vertex -22.7273787662279 -31.1418527120218 1.2481377442127e-14
vertex -19.8153221414233 -34.9183400397421 1.2481377442127e-14
endloop
endfacet
facet normal -0.791907341962995 -0.610641270915343 4.39954203615715e-16
outer loop
vertex -22.7273787662279 -31.1418527120218 1.2481377442127e-14
vertex -19.8153221414233 -34.9183400397421 38.86835
vertex -22.7273787662279 -31.1418527120218 38.86835
endloop
endfacet
facet normal -0.610641270915344 0.791907341962994 2.88932186972514e-30
outer loop
vertex -22.7273787662279 -31.1418527120218 1.2481377442127e-14
vertex -21.0578797079015 -29.8544987846781 38.86835
vertex -21.0578797079015 -29.8544987846781 1.15538659900644e-14
endloop
endfacet
facet normal -0.610641270915344 0.791907341962994 2.88932186972514e-30
outer loop
vertex -21.0578797079015 -29.8544987846781 38.86835
vertex -22.7273787662279 -31.1418527120218 1.2481377442127e-14
vertex -22.7273787662279 -31.1418527120218 38.86835
endloop
endfacet
facet normal -0.791907341962995 -0.610641270915343 4.39954203615715e-16
outer loop
vertex -21.0578797079015 -29.8544987846781 38.86835
vertex -22.9540124502843 -27.3955077017817 1.15538659900644e-14
vertex -21.0578797079015 -29.8544987846781 1.15538659900644e-14
endloop
endfacet
facet normal -0.791907341962995 -0.610641270915343 4.39954203615715e-16
outer loop
vertex -22.9540124502843 -27.3955077017817 1.15538659900644e-14
vertex -21.0578797079015 -29.8544987846781 38.86835
vertex -22.9540124502843 -27.3955077017817 38.86835
endloop
endfacet
facet normal -0.791907341962996 -0.610641270915342 -2.75244427671787e-16
outer loop
vertex -2.94337602635678 -9.53562724825159 42.1386
vertex 0.391335954111899 -13.8602332427115 38.2143
vertex 0.391335954111898 -13.8602332427115 42.1386
endloop
endfacet
facet normal -0.791907341962996 -0.610641270915342 -2.75244427671787e-16
outer loop
vertex 0.391335954111899 -13.8602332427115 38.2143
vertex -2.94337602635678 -9.53562724825159 42.1386
vertex -2.79125029001898 -9.73291081430806 38.86835
endloop
endfacet
facet normal -0.791907341962996 -0.610641270915342 -2.75244427671787e-16
outer loop
vertex -2.79125029001898 -9.73291081430806 38.86835
vertex -2.94337602635678 -9.53562724825159 42.1386
vertex -2.94337602635678 -9.53562724825159 38.86835
endloop
endfacet
facet normal -0.791907341962996 -0.610641270915342 -2.75244427671787e-16
outer loop
vertex -2.79125029001898 -9.73291081430806 38.2143
vertex 0.391335954111899 -13.8602332427115 38.2143
vertex -2.79125029001898 -9.73291081430806 38.86835
endloop
endfacet
facet normal -0.610641270915342 0.791907341962996 1.24065835797981e-17
outer loop
vertex -8.54022076104736 -13.8513649625093 2.89336749188901e-15
vertex 7.76756672736371 -1.27639873848614 38.86835
vertex 7.7675667273637 -1.27639873848615 -6.16663142087958e-15
endloop
endfacet
facet normal -0.610641270915342 0.791907341962996 1.24065835797981e-17
outer loop
vertex 7.76756672736371 -1.27639873848614 38.86835
vertex -8.54022076104736 -13.8513649625093 2.89336749188901e-15
vertex -8.54022076104735 -13.8513649625093 38.86835
endloop
endfacet
facet normal -0.610641270915342 0.791907341962996 1.24065835797981e-17
outer loop
vertex 7.76756672736371 -1.27639873848614 38.86835
vertex -8.54022076104735 -13.8513649625093 38.86835
vertex 2.69872621292697 -5.18499138536106 38.86835
endloop
endfacet
facet normal -0.610641270915342 0.791907341962996 1.24065835797981e-17
outer loop
vertex 2.69872621292697 -5.18499138536106 38.86835
vertex -8.54022076104735 -13.8513649625093 38.86835
vertex -2.94337602635678 -9.53562724825159 38.86835
endloop
endfacet
facet normal -0.610641270915342 0.791907341962996 1.24065835797981e-17
outer loop
vertex 2.69872621292697 -5.18499138536106 38.86835
vertex -2.94337602635678 -9.53562724825159 38.86835
vertex -2.94337602635678 -9.53562724825159 42.1386
endloop
endfacet
facet normal -0.610641270915342 0.791907341962996 1.24065835797981e-17
outer loop
vertex 2.69872621292697 -5.18499138536106 38.86835
vertex -2.94337602635678 -9.53562724825159 42.1386
vertex 2.69872621292697 -5.18499138536105 42.1386
endloop
endfacet
facet normal 0.791907341962996 0.610641270915341 -4.39954203615715e-16
outer loop
vertex 7.7675667273637 -1.27639873848615 -6.16663142087958e-15
vertex 8.94247106466838 -2.80006805979004 38.86835
vertex 8.94247106466836 -2.80006805979005 -6.16663142087958e-15
endloop
endfacet
facet normal 0.791907341962996 0.610641270915341 -4.39954203615715e-16
outer loop
vertex 8.94247106466838 -2.80006805979004 38.86835
vertex 7.7675667273637 -1.27639873848615 -6.16663142087958e-15
vertex 7.76756672736371 -1.27639873848614 38.86835
endloop
endfacet
facet normal -0.610641270915342 0.791907341962995 1.73112172343474e-30
outer loop
vertex 8.94247106466836 -2.80006805979005 -6.16663142087958e-15
vertex 19.6483852067674 5.4552828779051 38.86835
vertex 19.6483852067674 5.45528287790509 -1.2114438292691e-14
endloop
endfacet
facet normal -0.610641270915342 0.791907341962995 1.73112172343474e-30
outer loop
vertex 19.6483852067674 5.4552828779051 38.86835
vertex 8.94247106466836 -2.80006805979005 -6.16663142087958e-15
vertex 8.94247106466838 -2.80006805979004 38.86835
endloop
endfacet
facet normal 0.791907341962995 0.610641270915342 -4.39954203615715e-16
outer loop
vertex 19.6483852067674 5.45528287790509 -1.2114438292691e-14
vertex 21.8392134264939 2.61411731177736 38.86835
vertex 21.8392134264939 2.61411731177735 -1.2114438292691e-14
endloop
endfacet
facet normal 0.791907341962995 0.610641270915342 -4.39954203615715e-16
outer loop
vertex 21.8392134264939 2.61411731177736 38.86835
vertex 19.6483852067674 5.45528287790509 -1.2114438292691e-14
vertex 19.6483852067674 5.4552828779051 38.86835
endloop
endfacet
facet normal -0.610641270915342 0.791907341962995 1.99902873956559e-30
outer loop
vertex 21.8392134264939 2.61411731177735 -1.2114438292691e-14
vertex 24.5697495369494 4.719638945957 38.86835
vertex 24.5697495369494 4.719638945957 -1.36314223844681e-14
endloop
endfacet
facet normal -0.610641270915342 0.791907341962995 1.99902873956559e-30
outer loop
vertex 24.5697495369494 4.719638945957 38.86835
vertex 21.8392134264939 2.61411731177735 -1.2114438292691e-14
vertex 21.8392134264939 2.61411731177736 38.86835
endloop
endfacet
facet normal 0.791907341962996 0.610641270915341 -4.39954203615715e-16
outer loop
vertex 24.5697495369494 4.719638945957 -1.36314223844681e-14
vertex 25.7834295949572 3.14568350843845 38.86835
vertex 25.7834295949572 3.14568350843844 -1.36314223844681e-14
endloop
endfacet
facet normal 0.791907341962996 0.610641270915341 -4.39954203615715e-16
outer loop
vertex 25.7834295949572 3.14568350843845 38.86835
vertex 24.5697495369494 4.719638945957 -1.36314223844681e-14
vertex 24.5697495369494 4.719638945957 38.86835
endloop
endfacet
endsolid J
