solid Default
  facet normal 6.150651e-01 -1.677232e-02 7.882979e-01
    outer loop
      vertex 1.766700e+01 3.158701e+01 2.231000e+01
      vertex 1.556700e+01 -9.232998e+00 2.308000e+01
      vertex 1.652300e+01 -8.296999e+00 2.235400e+01
    endloop
  endfacet
  facet normal 7.460965e-03 -9.999722e-01 0.000000e+00
    outer loop
      vertex 4.637500e+01 -6.664998e+00 1.655400e+01
      vertex 4.637500e+01 -6.664998e+00 1.282000e+01
      vertex 5.682900e+01 -6.586998e+00 1.282000e+01
    endloop
  endfacet
  facet normal 7.460965e-03 -9.999722e-01 0.000000e+00
    outer loop
      vertex 5.682900e+01 -6.586998e+00 1.282000e+01
      vertex 5.682900e+01 -6.586998e+00 1.655400e+01
      vertex 4.637500e+01 -6.664998e+00 1.655400e+01
    endloop
  endfacet
  facet normal 6.986193e-01 -7.154936e-01 0.000000e+00
    outer loop
      vertex -2.698998e+00 -3.350100e+01 1.503000e+01
      vertex -2.698998e+00 -3.350100e+01 3.606000e+00
      vertex 6.799003e+00 -2.422700e+01 3.606000e+00
    endloop
  endfacet
  facet normal 6.986193e-01 -7.154936e-01 0.000000e+00
    outer loop
      vertex 6.799003e+00 -2.422700e+01 3.606000e+00
      vertex 6.799003e+00 -2.422700e+01 1.503000e+01
      vertex -2.698998e+00 -3.350100e+01 1.503000e+01
    endloop
  endfacet
  facet normal 5.253980e-01 -1.098063e-02 8.507857e-01
    outer loop
      vertex 1.766700e+01 3.158701e+01 2.231000e+01
      vertex 1.651500e+01 3.039300e+01 2.300600e+01
      vertex 1.556700e+01 -9.232998e+00 2.308000e+01
    endloop
  endfacet
  facet normal 7.496007e-03 -9.999719e-01 0.000000e+00
    outer loop
      vertex -2.889700e+01 3.015100e+01 1.380000e-01
      vertex -2.889700e+01 3.015100e+01 2.000000e-03
      vertex -1.955900e+01 3.022100e+01 2.000000e-03
    endloop
  endfacet
  facet normal -7.496008e-03 9.999719e-01 0.000000e+00
    outer loop
      vertex -1.955900e+01 3.022100e+01 2.000000e-03
      vertex -2.889700e+01 3.015100e+01 1.380000e-01
      vertex -1.955900e+01 3.022100e+01 9.506001e+00
    endloop
  endfacet
  facet normal -7.496008e-03 9.999719e-01 0.000000e+00
    outer loop
      vertex -1.955900e+01 3.022100e+01 9.506001e+00
      vertex -2.889700e+01 3.015100e+01 1.380000e-01
      vertex -2.889700e+01 3.015100e+01 9.506001e+00
    endloop
  endfacet
  facet normal -7.197764e-01 6.942060e-01 0.000000e+00
    outer loop
      vertex 1.036501e+01 2.401701e+01 1.232200e+01
      vertex 1.036501e+01 2.401701e+01 1.514000e+01
      vertex 2.312500e+01 3.724700e+01 1.514000e+01
    endloop
  endfacet
  facet normal -7.197763e-01 6.942060e-01 0.000000e+00
    outer loop
      vertex 1.036501e+01 2.401701e+01 4.754000e+00
      vertex 1.036501e+01 2.401701e+01 9.506001e+00
      vertex 2.312500e+01 3.724700e+01 1.514000e+01
    endloop
  endfacet
  facet normal -7.198393e-01 6.941408e-01 1.099785e-04
    outer loop
      vertex 2.312500e+01 3.724700e+01 1.514000e+01
      vertex 1.998100e+01 3.398901e+01 2.000000e-03
      vertex 1.036501e+01 2.401701e+01 2.000000e-03
    endloop
  endfacet
  facet normal -7.197791e-01 6.942033e-01 8.404085e-05
    outer loop
      vertex 2.312500e+01 3.724700e+01 1.514000e+01
      vertex 2.682100e+01 4.108100e+01 2.000000e-03
      vertex 1.998100e+01 3.398901e+01 2.000000e-03
    endloop
  endfacet
  facet normal -7.199449e-01 6.940312e-01 0.000000e+00
    outer loop
      vertex 2.312500e+01 3.724700e+01 1.514000e+01
      vertex 2.682100e+01 4.108100e+01 1.514000e+01
      vertex 2.682100e+01 4.108100e+01 2.000000e-03
    endloop
  endfacet
  facet normal 9.999697e-01 7.782539e-03 0.000000e+00
    outer loop
      vertex -2.892100e+01 3.323500e+01 1.380000e-01
      vertex -2.889700e+01 3.015100e+01 9.506001e+00
      vertex -2.889700e+01 3.015100e+01 1.380000e-01
    endloop
  endfacet
  facet normal 9.999697e-01 7.782539e-03 0.000000e+00
    outer loop
      vertex -2.889700e+01 3.015100e+01 9.506001e+00
      vertex -2.892100e+01 3.323500e+01 1.380000e-01
      vertex -2.892100e+01 3.323500e+01 9.506001e+00
    endloop
  endfacet
  facet normal 7.351230e-01 6.779336e-01 0.000000e+00
    outer loop
      vertex 1.036501e+01 2.401701e+01 2.000000e-03
      vertex -1.821000e+00 3.723100e+01 9.506001e+00
      vertex 1.036501e+01 2.401701e+01 9.506001e+00
    endloop
  endfacet
  facet normal 7.351230e-01 6.779336e-01 0.000000e+00
    outer loop
      vertex -1.821000e+00 3.723100e+01 9.506001e+00
      vertex 1.036501e+01 2.401701e+01 2.000000e-03
      vertex -1.821000e+00 3.723100e+01 2.000000e-03
    endloop
  endfacet
  facet normal -7.468998e-03 9.999722e-01 0.000000e+00
    outer loop
      vertex -1.684998e+00 2.392700e+01 1.950600e+01
      vertex 1.036501e+01 2.401701e+01 9.506001e+00
      vertex -1.684998e+00 2.392700e+01 9.506001e+00
    endloop
  endfacet
  facet normal -7.468998e-03 9.999721e-01 0.000000e+00
    outer loop
      vertex 1.036501e+01 2.401701e+01 9.506001e+00
      vertex -1.684998e+00 2.392700e+01 1.950600e+01
      vertex 1.036501e+01 2.401701e+01 1.514000e+01
    endloop
  endfacet
  facet normal -7.468998e-03 9.999721e-01 0.000000e+00
    outer loop
      vertex 1.036501e+01 2.401701e+01 1.950600e+01
      vertex 1.036501e+01 2.401701e+01 1.732200e+01
      vertex -1.684998e+00 2.392700e+01 1.950600e+01
    endloop
  endfacet
  facet normal 0.000000e+00 0.000000e+00 1.000000e+00
    outer loop
      vertex -2.853300e+01 -1.851500e+01 1.629600e+01
      vertex -4.882500e+01 -1.866700e+01 1.629600e+01
      vertex -4.878500e+01 -2.411300e+01 1.629600e+01
    endloop
  endfacet
  facet normal 0.000000e+00 0.000000e+00 1.000000e+00
    outer loop
      vertex -1.840900e+01 -2.584500e+01 1.629600e+01
      vertex -2.856100e+01 -1.471900e+01 1.629600e+01
      vertex -2.853300e+01 -1.851500e+01 1.629600e+01
    endloop
  endfacet
  facet normal 0.000000e+00 0.000000e+00 1.000000e+00
    outer loop
      vertex -4.878500e+01 -2.411300e+01 1.629600e+01
      vertex -5.684300e+01 -2.417500e+01 1.629600e+01
      vertex -5.671700e+01 -4.108100e+01 1.629600e+01
    endloop
  endfacet
  facet normal 0.000000e+00 0.000000e+00 1.000000e+00
    outer loop
      vertex -5.671700e+01 -4.108100e+01 1.629600e+01
      vertex -1.673500e+01 -4.078100e+01 1.629600e+01
      vertex -4.878500e+01 -2.411300e+01 1.629600e+01
    endloop
  endfacet
  facet normal 0.000000e+00 0.000000e+00 1.000000e+00
    outer loop
      vertex -1.673500e+01 -4.078100e+01 1.629600e+01
      vertex -2.853300e+01 -1.851500e+01 1.629600e+01
      vertex -4.878500e+01 -2.411300e+01 1.629600e+01
    endloop
  endfacet
  facet normal 0.000000e+00 0.000000e+00 1.000000e+00
    outer loop
      vertex -1.673500e+01 -4.078100e+01 1.629600e+01
      vertex -1.840900e+01 -2.584500e+01 1.629600e+01
      vertex -2.853300e+01 -1.851500e+01 1.629600e+01
    endloop
  endfacet
  facet normal 0.000000e+00 0.000000e+00 1.000000e+00
    outer loop
      vertex -1.673500e+01 -4.078100e+01 1.629600e+01
      vertex -1.312996e+00 -2.571700e+01 1.629600e+01
      vertex -1.840900e+01 -2.584500e+01 1.629600e+01
    endloop
  endfacet
  facet normal 6.248283e-01 -1.706088e-02 7.805758e-01
    outer loop
      vertex 1.876500e+01 3.272700e+01 2.145600e+01
      vertex 1.766700e+01 3.158701e+01 2.231000e+01
      vertex 1.652300e+01 -8.296999e+00 2.235400e+01
    endloop
  endfacet
  facet normal 0.000000e+00 0.000000e+00 1.000000e+00
    outer loop
      vertex 1.034700e+01 1.799300e+01 1.950600e+01
      vertex 1.036501e+01 2.401701e+01 1.950600e+01
      vertex -1.684998e+00 2.392700e+01 1.950600e+01
    endloop
  endfacet
  facet normal 7.201572e-01 -2.417916e-02 6.933895e-01
    outer loop
      vertex 1.876500e+01 3.272700e+01 2.145600e+01
      vertex 1.652300e+01 -8.296999e+00 2.235400e+01
      vertex 1.740700e+01 -7.432999e+00 2.146600e+01
    endloop
  endfacet
  facet normal 3.273939e-01 -4.194069e-03 9.448787e-01
    outer loop
      vertex 1.532100e+01 2.915700e+01 2.353600e+01
      vertex 1.349300e+01 -1.125700e+01 2.399000e+01
      vertex 1.455100e+01 -1.022300e+01 2.362800e+01
    endloop
  endfacet
  facet normal 7.490448e-03 -9.999719e-01 0.000000e+00
    outer loop
      vertex -4.882500e+01 -1.866700e+01 2.863400e+01
      vertex -4.882500e+01 -1.866700e+01 1.629600e+01
      vertex -2.853300e+01 -1.851500e+01 1.629600e+01
    endloop
  endfacet
  facet normal 7.490448e-03 -9.999719e-01 0.000000e+00
    outer loop
      vertex -2.853300e+01 -1.851500e+01 1.629600e+01
      vertex -2.853300e+01 -1.851500e+01 2.863400e+01
      vertex -4.882500e+01 -1.866700e+01 2.863400e+01
    endloop
  endfacet
  facet normal -2.886175e-01 9.574445e-01 0.000000e+00
    outer loop
      vertex -1.012100e+01 3.472900e+01 9.506001e+00
      vertex -1.821000e+00 3.723100e+01 2.000000e-03
      vertex -1.012100e+01 3.472900e+01 2.000000e-03
    endloop
  endfacet
  facet normal -2.886175e-01 9.574445e-01 0.000000e+00
    outer loop
      vertex -1.821000e+00 3.723100e+01 2.000000e-03
      vertex -1.012100e+01 3.472900e+01 9.506001e+00
      vertex -1.821000e+00 3.723100e+01 9.506001e+00
    endloop
  endfacet
  facet normal 0.000000e+00 0.000000e+00 1.000000e+00
    outer loop
      vertex 4.630500e+01 2.789001e+00 1.282000e+01
      vertex 3.443700e+01 -8.936999e+00 1.282000e+01
      vertex 3.450700e+01 -1.807100e+01 1.282000e+01
    endloop
  endfacet
  facet normal 0.000000e+00 0.000000e+00 1.000000e+00
    outer loop
      vertex 3.450700e+01 -1.807100e+01 1.282000e+01
      vertex 4.637500e+01 -6.664998e+00 1.282000e+01
      vertex 4.630500e+01 2.789001e+00 1.282000e+01
    endloop
  endfacet
  facet normal 0.000000e+00 0.000000e+00 1.000000e+00
    outer loop
      vertex 3.450700e+01 -1.807100e+01 1.282000e+01
      vertex 4.971500e+01 -3.242300e+01 1.282000e+01
      vertex 4.637500e+01 -6.664998e+00 1.282000e+01
    endloop
  endfacet
  facet normal 0.000000e+00 0.000000e+00 1.000000e+00
    outer loop
      vertex 4.971500e+01 -3.242300e+01 1.282000e+01
      vertex 5.682900e+01 -6.586998e+00 1.282000e+01
      vertex 4.637500e+01 -6.664998e+00 1.282000e+01
    endloop
  endfacet
  facet normal 0.000000e+00 0.000000e+00 1.000000e+00
    outer loop
      vertex 4.971500e+01 -3.242300e+01 1.282000e+01
      vertex 5.359701e+01 -3.608700e+01 1.282000e+01
      vertex 5.682900e+01 -6.586998e+00 1.282000e+01
    endloop
  endfacet
  facet normal 0.000000e+00 0.000000e+00 1.000000e+00
    outer loop
      vertex 5.359701e+01 -3.608700e+01 1.282000e+01
      vertex 5.684300e+01 -3.914900e+01 1.282000e+01
      vertex 5.682900e+01 -6.586998e+00 1.282000e+01
    endloop
  endfacet
  facet normal 2.826383e-01 -2.008540e-03 9.592245e-01
    outer loop
      vertex 1.532100e+01 2.915700e+01 2.353600e+01
      vertex 1.409700e+01 2.788900e+01 2.389400e+01
      vertex 1.349300e+01 -1.125700e+01 2.399000e+01
    endloop
  endfacet
  facet normal 0.000000e+00 0.000000e+00 1.000000e+00
    outer loop
      vertex -2.881700e+01 1.939100e+01 2.863400e+01
      vertex -4.910900e+01 1.923900e+01 2.863400e+01
      vertex -4.882500e+01 -1.866700e+01 2.863400e+01
    endloop
  endfacet
  facet normal 0.000000e+00 0.000000e+00 1.000000e+00
    outer loop
      vertex -4.882500e+01 -1.866700e+01 2.863400e+01
      vertex -2.853300e+01 -1.851500e+01 2.863400e+01
      vertex -2.881700e+01 1.939100e+01 2.863400e+01
    endloop
  endfacet
  facet normal 7.503165e-03 -9.999719e-01 0.000000e+00
    outer loop
      vertex -5.671700e+01 -4.108100e+01 3.298000e+00
      vertex -5.671700e+01 -4.108100e+01 2.000000e-03
      vertex -1.673500e+01 -4.078100e+01 2.000000e-03
    endloop
  endfacet
  facet normal 7.503164e-03 -9.999719e-01 0.000000e+00
    outer loop
      vertex -1.673500e+01 -4.078100e+01 2.000000e-03
      vertex -1.673500e+01 -4.078100e+01 1.629600e+01
      vertex -5.671700e+01 -4.108100e+01 3.298000e+00
    endloop
  endfacet
  facet normal 7.503166e-03 -9.999719e-01 0.000000e+00
    outer loop
      vertex -1.673500e+01 -4.078100e+01 1.629600e+01
      vertex -5.671700e+01 -4.108100e+01 8.436000e+00
      vertex -5.671700e+01 -4.108100e+01 3.298000e+00
    endloop
  endfacet
  facet normal 7.503164e-03 -9.999718e-01 0.000000e+00
    outer loop
      vertex -1.673500e+01 -4.078100e+01 1.629600e+01
      vertex -5.671700e+01 -4.108100e+01 1.629600e+01
      vertex -5.671700e+01 -4.108100e+01 8.436000e+00
    endloop
  endfacet
  facet normal 8.698293e-01 -4.040618e-02 4.916953e-01
    outer loop
      vertex 2.076300e+01 3.479900e+01 1.930600e+01
      vertex 1.820300e+01 -6.656998e+00 2.042800e+01
      vertex 1.889700e+01 -5.979001e+00 1.925600e+01
    endloop
  endfacet
  facet normal 7.787295e-01 -3.112976e-02 6.265870e-01
    outer loop
      vertex 2.076300e+01 3.479900e+01 1.930600e+01
      vertex 1.980100e+01 3.380100e+01 2.045200e+01
      vertex 1.820300e+01 -6.656998e+00 2.042800e+01
    endloop
  endfacet
  facet normal 7.055120e-01 7.086980e-01 0.000000e+00
    outer loop
      vertex 1.032700e+01 1.196900e+01 2.216200e+01
      vertex 1.032700e+01 1.196900e+01 2.083400e+01
      vertex -1.684998e+00 2.392700e+01 1.950600e+01
    endloop
  endfacet
  facet normal 7.055120e-01 7.086980e-01 0.000000e+00
    outer loop
      vertex -1.684998e+00 2.392700e+01 1.950600e+01
      vertex -1.684998e+00 2.392700e+01 2.216200e+01
      vertex 1.032700e+01 1.196900e+01 2.216200e+01
    endloop
  endfacet
  facet normal -4.062809e-04 9.999999e-01 0.000000e+00
    outer loop
      vertex 5.681700e+01 2.504100e+01 1.203000e+01
      vertex 5.681700e+01 2.504100e+01 2.000000e-03
      vertex 5.189700e+01 2.503900e+01 2.000000e-03
    endloop
  endfacet
  facet normal -4.062809e-04 9.999999e-01 0.000000e+00
    outer loop
      vertex 5.189700e+01 2.503900e+01 2.000000e-03
      vertex 5.189700e+01 2.503900e+01 1.203000e+01
      vertex 5.681700e+01 2.504100e+01 1.203000e+01
    endloop
  endfacet
  facet normal -3.490922e-04 9.999999e-01 0.000000e+00
    outer loop
      vertex 5.189700e+01 2.061300e+01 1.203000e+01
      vertex 4.617100e+01 2.061100e+01 1.203000e+01
      vertex 4.617100e+01 2.061100e+01 1.514000e+01
    endloop
  endfacet
  facet normal -3.490922e-04 1.000000e+00 0.000000e+00
    outer loop
      vertex 4.617100e+01 2.061100e+01 1.514000e+01
      vertex 5.189700e+01 2.061300e+01 1.655400e+01
      vertex 5.189700e+01 2.061300e+01 1.203000e+01
    endloop
  endfacet
  facet normal -3.490922e-04 1.000000e+00 0.000000e+00
    outer loop
      vertex 4.617100e+01 2.061100e+01 1.514000e+01
      vertex 4.617100e+01 2.061100e+01 1.655400e+01
      vertex 5.189700e+01 2.061300e+01 1.655400e+01
    endloop
  endfacet
  facet normal 1.000000e+00 0.000000e+00 0.000000e+00
    outer loop
      vertex 5.189700e+01 2.104300e+01 0.000000e+00
      vertex 5.189700e+01 2.057300e+01 1.203000e+01
      vertex 5.189700e+01 2.057300e+01 2.000000e-03
    endloop
  endfacet
  facet normal 1.000000e+00 0.000000e+00 0.000000e+00
    outer loop
      vertex 5.189700e+01 2.057300e+01 1.203000e+01
      vertex 5.189700e+01 2.104300e+01 0.000000e+00
      vertex 5.189700e+01 2.061300e+01 1.203000e+01
    endloop
  endfacet
  facet normal -1.000000e+00 0.000000e+00 0.000000e+00
    outer loop
      vertex 5.189700e+01 2.061300e+01 1.203000e+01
      vertex 5.189700e+01 2.503900e+01 1.203000e+01
      vertex 5.189700e+01 2.104300e+01 0.000000e+00
    endloop
  endfacet
  facet normal -1.000000e+00 0.000000e+00 0.000000e+00
    outer loop
      vertex 5.189700e+01 2.503900e+01 1.203000e+01
      vertex 5.189700e+01 2.503900e+01 2.000000e-03
      vertex 5.189700e+01 2.104300e+01 0.000000e+00
    endloop
  endfacet
  facet normal 0.000000e+00 0.000000e+00 1.000000e+00
    outer loop
      vertex 3.584999e+00 -2.093500e+01 1.503000e+01
      vertex -5.912999e+00 -3.021100e+01 1.503000e+01
      vertex -2.698998e+00 -3.350100e+01 1.503000e+01
    endloop
  endfacet
  facet normal 0.000000e+00 0.000000e+00 1.000000e+00
    outer loop
      vertex -2.698998e+00 -3.350100e+01 1.503000e+01
      vertex 6.799003e+00 -2.422700e+01 1.503000e+01
      vertex 3.584999e+00 -2.093500e+01 1.503000e+01
    endloop
  endfacet
  facet normal -6.861897e-01 -7.274226e-01 -0.000000e+00
    outer loop
      vertex 5.359701e+01 -3.608700e+01 1.282000e+01
      vertex 5.359701e+01 -3.608700e+01 2.000000e-03
      vertex 5.684300e+01 -3.914900e+01 2.000000e-03
    endloop
  endfacet
  facet normal -6.861897e-01 -7.274226e-01 0.000000e+00
    outer loop
      vertex 5.684300e+01 -3.914900e+01 2.000000e-03
      vertex 5.684300e+01 -3.914900e+01 1.282000e+01
      vertex 5.359701e+01 -3.608700e+01 1.282000e+01
    endloop
  endfacet
  facet normal 9.999971e-01 2.416331e-03 0.000000e+00
    outer loop
      vertex 1.315100e+01 -1.159100e+01 4.372000e+00
      vertex 1.317300e+01 -2.069700e+01 1.729800e+01
      vertex 1.317300e+01 -2.069700e+01 4.372000e+00
    endloop
  endfacet
  facet normal 9.999971e-01 2.416331e-03 0.000000e+00
    outer loop
      vertex 1.315100e+01 -1.159100e+01 1.083400e+01
      vertex 1.315100e+01 -1.159100e+01 1.729800e+01
      vertex 1.317300e+01 -2.069700e+01 1.729800e+01
    endloop
  endfacet
  facet normal 2.481513e-02 -9.996920e-01 0.000000e+00
    outer loop
      vertex 1.317300e+01 -2.069700e+01 1.729800e+01
      vertex 3.584999e+00 -2.093500e+01 4.372000e+00
      vertex 1.317300e+01 -2.069700e+01 4.372000e+00
    endloop
  endfacet
  facet normal 2.481513e-02 -9.996921e-01 0.000000e+00
    outer loop
      vertex 3.584999e+00 -2.093500e+01 9.702001e+00
      vertex 3.584999e+00 -2.093500e+01 4.372000e+00
      vertex 1.317300e+01 -2.069700e+01 1.729800e+01
    endloop
  endfacet
  facet normal 2.481513e-02 -9.996920e-01 0.000000e+00
    outer loop
      vertex 3.584999e+00 -2.093500e+01 1.616400e+01
      vertex 3.584999e+00 -2.093500e+01 1.503000e+01
      vertex 1.317300e+01 -2.069700e+01 1.729800e+01
    endloop
  endfacet
  facet normal 8.031912e-01 5.957214e-01 0.000000e+00
    outer loop
      vertex -1.387100e+01 3.978500e+01 2.000000e-03
      vertex -1.012100e+01 3.472900e+01 9.506001e+00
      vertex -1.012100e+01 3.472900e+01 2.000000e-03
    endloop
  endfacet
  facet normal 8.031912e-01 5.957214e-01 0.000000e+00
    outer loop
      vertex -1.012100e+01 3.472900e+01 9.506001e+00
      vertex -1.387100e+01 3.978500e+01 2.000000e-03
      vertex -1.387100e+01 3.978500e+01 9.506001e+00
    endloop
  endfacet
  facet normal -7.490448e-03 9.999719e-01 0.000000e+00
    outer loop
      vertex -4.921300e+01 3.308300e+01 9.506001e+00
      vertex -2.892100e+01 3.323500e+01 1.380000e-01
      vertex -4.921300e+01 3.308300e+01 1.380000e-01
    endloop
  endfacet
  facet normal -7.490448e-03 9.999719e-01 0.000000e+00
    outer loop
      vertex -2.892100e+01 3.323500e+01 1.380000e-01
      vertex -4.921300e+01 3.308300e+01 9.506001e+00
      vertex -2.892100e+01 3.323500e+01 9.506001e+00
    endloop
  endfacet
  facet normal -9.999720e-01 -7.482856e-03 0.000000e+00
    outer loop
      vertex -4.921300e+01 3.308300e+01 1.380000e-01
      vertex -4.878500e+01 -2.411300e+01 1.380000e-01
      vertex -4.878500e+01 -2.411300e+01 3.298000e+00
    endloop
  endfacet
  facet normal -9.999720e-01 -7.482856e-03 0.000000e+00
    outer loop
      vertex -4.878500e+01 -2.411300e+01 3.298000e+00
      vertex -4.878500e+01 -2.411300e+01 1.629600e+01
      vertex -4.921300e+01 3.308300e+01 1.380000e-01
    endloop
  endfacet
  facet normal -9.999729e-01 -7.344809e-03 4.886808e-04
    outer loop
      vertex -4.878500e+01 -2.411300e+01 1.629600e+01
      vertex -4.882500e+01 -1.866700e+01 1.629600e+01
      vertex -4.921300e+01 3.308300e+01 1.380000e-01
    endloop
  endfacet
  facet normal -9.999719e-01 -7.497383e-03 0.000000e+00
    outer loop
      vertex -4.882500e+01 -1.866700e+01 1.629600e+01
      vertex -4.882500e+01 -1.866700e+01 2.863400e+01
      vertex -4.921300e+01 3.308300e+01 1.380000e-01
    endloop
  endfacet
  facet normal -9.999724e-01 -7.433194e-03 1.165783e-04
    outer loop
      vertex -4.882500e+01 -1.866700e+01 2.863400e+01
      vertex -4.910900e+01 1.923900e+01 9.506001e+00
      vertex -4.921300e+01 3.308300e+01 1.380000e-01
    endloop
  endfacet
  facet normal -9.999717e-01 -7.512076e-03 0.000000e+00
    outer loop
      vertex -4.910900e+01 1.923900e+01 9.506001e+00
      vertex -4.921300e+01 3.308300e+01 9.506001e+00
      vertex -4.921300e+01 3.308300e+01 1.380000e-01
    endloop
  endfacet
  facet normal -9.999719e-01 -7.492017e-03 -0.000000e+00
    outer loop
      vertex -4.910900e+01 1.923900e+01 2.863400e+01
      vertex -4.910900e+01 1.923900e+01 9.506001e+00
      vertex -4.882500e+01 -1.866700e+01 2.863400e+01
    endloop
  endfacet
  facet normal 9.178903e-01 -4.889437e-02 3.938105e-01
    outer loop
      vertex 2.164300e+01 3.571300e+01 1.803200e+01
      vertex 1.889700e+01 -5.979001e+00 1.925600e+01
      vertex 1.947900e+01 -5.411000e+00 1.797000e+01
    endloop
  endfacet
  facet normal 9.999728e-01 7.375953e-03 0.000000e+00
    outer loop
      vertex -2.853300e+01 -1.851500e+01 2.863400e+01
      vertex -2.853300e+01 -1.851500e+01 1.629600e+01
      vertex -2.856100e+01 -1.471900e+01 2.216200e+01
    endloop
  endfacet
  facet normal 9.999719e-01 7.492017e-03 6.807845e-05
    outer loop
      vertex -2.856100e+01 -1.471900e+01 2.216200e+01
      vertex -2.881700e+01 1.939100e+01 2.863400e+01
      vertex -2.853300e+01 -1.851500e+01 2.863400e+01
    endloop
  endfacet
  facet normal 9.999719e-01 7.501419e-03 1.852718e-05
    outer loop
      vertex -2.856100e+01 -1.471900e+01 2.216200e+01
      vertex -2.875900e+01 1.167500e+01 2.216200e+01
      vertex -2.881700e+01 1.939100e+01 2.863400e+01
    endloop
  endfacet
  facet normal 9.999718e-01 7.516957e-03 0.000000e+00
    outer loop
      vertex -2.875900e+01 1.167500e+01 2.216200e+01
      vertex -2.875900e+01 1.167500e+01 9.506001e+00
      vertex -2.881700e+01 1.939100e+01 2.863400e+01
    endloop
  endfacet
  facet normal 9.999717e-01 7.516956e-03 0.000000e+00
    outer loop
      vertex -2.875900e+01 1.167500e+01 9.506001e+00
      vertex -2.881700e+01 1.939100e+01 9.506001e+00
      vertex -2.881700e+01 1.939100e+01 2.863400e+01
    endloop
  endfacet
  facet normal 9.999728e-01 7.375953e-03 0.000000e+00
    outer loop
      vertex -2.856100e+01 -1.471900e+01 1.629600e+01
      vertex -2.856100e+01 -1.471900e+01 2.216200e+01
      vertex -2.853300e+01 -1.851500e+01 1.629600e+01
    endloop
  endfacet
  facet normal 0.000000e+00 0.000000e+00 1.000000e+00
    outer loop
      vertex -4.910900e+01 1.923900e+01 9.506001e+00
      vertex -2.892100e+01 3.323500e+01 9.506001e+00
      vertex -4.921300e+01 3.308300e+01 9.506001e+00
    endloop
  endfacet
  facet normal 0.000000e+00 0.000000e+00 1.000000e+00
    outer loop
      vertex -2.892100e+01 3.323500e+01 9.506001e+00
      vertex -4.910900e+01 1.923900e+01 9.506001e+00
      vertex -2.881700e+01 1.939100e+01 9.506001e+00
    endloop
  endfacet
  facet normal 0.000000e+00 0.000000e+00 -1.000000e+00
    outer loop
      vertex -2.892100e+01 3.323500e+01 9.506001e+00
      vertex -2.889700e+01 3.015100e+01 9.506001e+00
      vertex -2.881700e+01 1.939100e+01 9.506001e+00
    endloop
  endfacet
  facet normal 0.000000e+00 0.000000e+00 1.000000e+00
    outer loop
      vertex -2.889700e+01 3.015100e+01 9.506001e+00
      vertex -2.881700e+01 1.939100e+01 9.506001e+00
      vertex -1.955900e+01 3.022100e+01 9.506001e+00
    endloop
  endfacet
  facet normal 0.000000e+00 0.000000e+00 1.000000e+00
    outer loop
      vertex -1.955900e+01 3.022100e+01 9.506001e+00
      vertex -2.881700e+01 1.939100e+01 9.506001e+00
      vertex -2.875900e+01 1.167500e+01 9.506001e+00
    endloop
  endfacet
  facet normal 0.000000e+00 0.000000e+00 1.000000e+00
    outer loop
      vertex -1.955900e+01 3.022100e+01 9.506001e+00
      vertex -2.875900e+01 1.167500e+01 9.506001e+00
      vertex -1.878100e+01 2.379900e+01 9.506001e+00
    endloop
  endfacet
  facet normal 0.000000e+00 0.000000e+00 1.000000e+00
    outer loop
      vertex -1.955900e+01 3.022100e+01 9.506001e+00
      vertex -1.878100e+01 2.379900e+01 9.506001e+00
      vertex -1.671700e+01 3.238500e+01 9.506001e+00
    endloop
  endfacet
  facet normal 0.000000e+00 0.000000e+00 1.000000e+00
    outer loop
      vertex -1.671700e+01 3.238500e+01 9.506001e+00
      vertex -1.878100e+01 2.379900e+01 9.506001e+00
      vertex -1.023300e+01 2.386300e+01 9.506001e+00
    endloop
  endfacet
  facet normal 0.000000e+00 0.000000e+00 1.000000e+00
    outer loop
      vertex -1.671700e+01 3.238500e+01 9.506001e+00
      vertex -1.023300e+01 2.386300e+01 9.506001e+00
      vertex -1.387100e+01 3.978500e+01 9.506001e+00
    endloop
  endfacet
  facet normal 0.000000e+00 0.000000e+00 1.000000e+00
    outer loop
      vertex -1.387100e+01 3.978500e+01 9.506001e+00
      vertex -1.023300e+01 2.386300e+01 9.506001e+00
      vertex -1.012100e+01 3.472900e+01 9.506001e+00
    endloop
  endfacet
  facet normal 0.000000e+00 0.000000e+00 1.000000e+00
    outer loop
      vertex -1.012100e+01 3.472900e+01 9.506001e+00
      vertex -1.023300e+01 2.386300e+01 9.506001e+00
      vertex -1.684998e+00 2.392700e+01 9.506001e+00
    endloop
  endfacet
  facet normal 0.000000e+00 0.000000e+00 1.000000e+00
    outer loop
      vertex -1.012100e+01 3.472900e+01 9.506001e+00
      vertex -1.684998e+00 2.392700e+01 9.506001e+00
      vertex -1.821000e+00 3.723100e+01 9.506001e+00
    endloop
  endfacet
  facet normal 0.000000e+00 0.000000e+00 1.000000e+00
    outer loop
      vertex -1.821000e+00 3.723100e+01 9.506001e+00
      vertex -1.684998e+00 2.392700e+01 9.506001e+00
      vertex 1.036501e+01 2.401701e+01 9.506001e+00
    endloop
  endfacet
  facet normal 0.000000e+00 0.000000e+00 1.000000e+00
    outer loop
      vertex -1.387100e+01 3.978500e+01 9.506001e+00
      vertex -1.808100e+01 3.417900e+01 9.506001e+00
      vertex -1.671700e+01 3.238500e+01 9.506001e+00
    endloop
  endfacet
  facet normal -1.993856e-01 2.730467e-03 9.799173e-01
    outer loop
      vertex 1.160700e+01 2.530700e+01 2.409000e+01
      vertex 1.024700e+01 -1.442900e+01 2.392400e+01
      vertex 1.132301e+01 -1.337500e+01 2.414000e+01
    endloop
  endfacet
  facet normal -6.058074e-01 7.956113e-01 0.000000e+00
    outer loop
      vertex -1.955900e+01 3.022100e+01 9.506001e+00
      vertex -1.671700e+01 3.238500e+01 2.000000e-03
      vertex -1.955900e+01 3.022100e+01 2.000000e-03
    endloop
  endfacet
  facet normal -6.058074e-01 7.956113e-01 0.000000e+00
    outer loop
      vertex -1.671700e+01 3.238500e+01 2.000000e-03
      vertex -1.955900e+01 3.022100e+01 9.506001e+00
      vertex -1.671700e+01 3.238500e+01 9.506001e+00
    endloop
  endfacet
  facet normal 0.000000e+00 0.000000e+00 1.000000e+00
    outer loop
      vertex -1.878100e+01 2.379900e+01 2.216200e+01
      vertex -2.875900e+01 1.167500e+01 2.216200e+01
      vertex -2.856100e+01 -1.471900e+01 2.216200e+01
    endloop
  endfacet
  facet normal 0.000000e+00 0.000000e+00 1.000000e+00
    outer loop
      vertex -2.856100e+01 -1.471900e+01 2.216200e+01
      vertex -1.840900e+01 -2.584500e+01 2.216200e+01
      vertex -1.878100e+01 2.379900e+01 2.216200e+01
    endloop
  endfacet
  facet normal 0.000000e+00 0.000000e+00 1.000000e+00
    outer loop
      vertex -1.840900e+01 -2.584500e+01 2.216200e+01
      vertex -1.684998e+00 2.392700e+01 2.216200e+01
      vertex -1.878100e+01 2.379900e+01 2.216200e+01
    endloop
  endfacet
  facet normal 0.000000e+00 0.000000e+00 1.000000e+00
    outer loop
      vertex -1.840900e+01 -2.584500e+01 2.216200e+01
      vertex -1.312996e+00 -2.571700e+01 2.216200e+01
      vertex -1.684998e+00 2.392700e+01 2.216200e+01
    endloop
  endfacet
  facet normal 0.000000e+00 0.000000e+00 1.000000e+00
    outer loop
      vertex -1.312996e+00 -2.571700e+01 2.216200e+01
      vertex 1.032700e+01 1.196900e+01 2.216200e+01
      vertex -1.684998e+00 2.392700e+01 2.216200e+01
    endloop
  endfacet
  facet normal 0.000000e+00 0.000000e+00 1.000000e+00
    outer loop
      vertex 1.024700e+01 -1.442900e+01 2.216200e+01
      vertex 1.028700e+01 -1.230999e+00 2.216200e+01
      vertex -1.312996e+00 -2.571700e+01 2.216200e+01
    endloop
  endfacet
  facet normal -7.960427e-01 -6.052406e-01 0.000000e+00
    outer loop
      vertex -1.808100e+01 3.417900e+01 9.506001e+00
      vertex -1.671700e+01 3.238500e+01 2.000000e-03
      vertex -1.671700e+01 3.238500e+01 9.506001e+00
    endloop
  endfacet
  facet normal -7.960427e-01 -6.052406e-01 0.000000e+00
    outer loop
      vertex -1.671700e+01 3.238500e+01 2.000000e-03
      vertex -1.808100e+01 3.417900e+01 9.506001e+00
      vertex -1.808100e+01 3.417900e+01 2.000000e-03
    endloop
  endfacet
  facet normal -6.863334e-01 -7.272871e-01 -0.000000e+00
    outer loop
      vertex 2.027100e+01 -4.636998e+00 1.282000e+01
      vertex 2.027100e+01 -4.636998e+00 0.000000e+00
      vertex 4.971500e+01 -3.242300e+01 2.000000e-03
    endloop
  endfacet
  facet normal -6.863334e-01 -7.272871e-01 0.000000e+00
    outer loop
      vertex 4.971500e+01 -3.242300e+01 2.000000e-03
      vertex 4.971500e+01 -3.242300e+01 1.282000e+01
      vertex 2.027100e+01 -4.636998e+00 1.282000e+01
    endloop
  endfacet
  facet normal 0.000000e+00 0.000000e+00 -1.000000e+00
    outer loop
      vertex 4.971500e+01 -3.242300e+01 1.282000e+01
      vertex 2.027100e+01 -4.636998e+00 1.282000e+01
      vertex 3.450700e+01 -1.807100e+01 1.282000e+01
    endloop
  endfacet
  facet normal -7.197764e-01 6.942060e-01 0.000000e+00
    outer loop
      vertex 2.312500e+01 3.724700e+01 1.514000e+01
      vertex 1.036501e+01 2.401701e+01 1.514000e+01
      vertex 1.036501e+01 2.401701e+01 1.950600e+01
    endloop
  endfacet
  facet normal -7.197763e-01 6.942060e-01 0.000000e+00
    outer loop
      vertex 1.036501e+01 2.401701e+01 1.950600e+01
      vertex 1.036501e+01 2.401701e+01 2.392400e+01
      vertex 2.312500e+01 3.724700e+01 1.514000e+01
    endloop
  endfacet
  facet normal -7.202823e-01 6.936794e-01 -1.527908e-03
    outer loop
      vertex 1.036501e+01 2.401701e+01 2.392400e+01
      vertex 1.160700e+01 2.530700e+01 2.409000e+01
      vertex 2.312500e+01 3.724700e+01 1.514000e+01
    endloop
  endfacet
  facet normal -7.192251e-01 6.947758e-01 1.295191e-03
    outer loop
      vertex 1.160700e+01 2.530700e+01 2.409000e+01
      vertex 1.285700e+01 2.660101e+01 2.408000e+01
      vertex 2.312500e+01 3.724700e+01 1.514000e+01
    endloop
  endfacet
  facet normal -7.205324e-01 6.934189e-01 -1.822094e-03
    outer loop
      vertex 1.285700e+01 2.660101e+01 2.408000e+01
      vertex 1.409700e+01 2.788900e+01 2.389400e+01
      vertex 2.312500e+01 3.724700e+01 1.514000e+01
    endloop
  endfacet
  facet normal -7.193944e-01 6.946015e-01 6.156768e-04
    outer loop
      vertex 1.409700e+01 2.788900e+01 2.389400e+01
      vertex 1.532100e+01 2.915700e+01 2.353600e+01
      vertex 2.312500e+01 3.724700e+01 1.514000e+01
    endloop
  endfacet
  facet normal -7.188731e-01 6.951395e-01 1.618656e-03
    outer loop
      vertex 1.532100e+01 2.915700e+01 2.353600e+01
      vertex 1.651500e+01 3.039300e+01 2.300600e+01
      vertex 2.312500e+01 3.724700e+01 1.514000e+01
    endloop
  endfacet
  facet normal -7.194934e-01 6.944990e-01 5.393216e-04
    outer loop
      vertex 1.651500e+01 3.039300e+01 2.300600e+01
      vertex 1.766700e+01 3.158701e+01 2.231000e+01
      vertex 2.312500e+01 3.724700e+01 1.514000e+01
    endloop
  endfacet
  facet normal -7.208501e-01 6.930891e-01 -1.606438e-03
    outer loop
      vertex 1.766700e+01 3.158701e+01 2.231000e+01
      vertex 1.876500e+01 3.272700e+01 2.145600e+01
      vertex 2.312500e+01 3.724700e+01 1.514000e+01
    endloop
  endfacet
  facet normal -7.197078e-01 6.942772e-01 3.232562e-05
    outer loop
      vertex 1.876500e+01 3.272700e+01 2.145600e+01
      vertex 1.980100e+01 3.380100e+01 2.045200e+01
      vertex 2.312500e+01 3.724700e+01 1.514000e+01
    endloop
  endfacet
  facet normal -7.206793e-01 6.932676e-01 -1.230518e-03
    outer loop
      vertex 1.980100e+01 3.380100e+01 2.045200e+01
      vertex 2.076300e+01 3.479900e+01 1.930600e+01
      vertex 2.312500e+01 3.724700e+01 1.514000e+01
    endloop
  endfacet
  facet normal -7.237406e-01 6.900550e-01 -4.853904e-03
    outer loop
      vertex 2.076300e+01 3.479900e+01 1.930600e+01
      vertex 2.164300e+01 3.571300e+01 1.803200e+01
      vertex 2.312500e+01 3.724700e+01 1.514000e+01
    endloop
  endfacet
  facet normal -7.204267e-01 6.935298e-01 -1.312601e-03
    outer loop
      vertex 2.164300e+01 3.571300e+01 1.803200e+01
      vertex 2.243301e+01 3.653101e+01 1.663800e+01
      vertex 2.312500e+01 3.724700e+01 1.514000e+01
    endloop
  endfacet
  facet normal 7.083330e-01 -2.377632e-02 7.054778e-01
    outer loop
      vertex 1.980100e+01 3.380100e+01 2.045200e+01
      vertex 1.876500e+01 3.272700e+01 2.145600e+01
      vertex 1.740700e+01 -7.432999e+00 2.146600e+01
    endloop
  endfacet
  facet normal 0.000000e+00 0.000000e+00 1.000000e+00
    outer loop
      vertex 5.189700e+01 2.061300e+01 1.203000e+01
      vertex 4.617100e+01 2.061100e+01 1.203000e+01
      vertex 4.617100e+01 2.057100e+01 1.203000e+01
    endloop
  endfacet
  facet normal 9.976869e-01 -6.797750e-02 0.000000e+00
    outer loop
      vertex 2.086501e+01 4.081001e+00 1.514000e+01
      vertex 2.027100e+01 -4.636998e+00 1.514000e+01
      vertex 2.027100e+01 -4.636998e+00 1.282000e+01
    endloop
  endfacet
  facet normal 9.976869e-01 -6.797750e-02 0.000000e+00
    outer loop
      vertex 2.027100e+01 -4.636998e+00 1.282000e+01
      vertex 2.086501e+01 4.081001e+00 1.282000e+01
      vertex 2.086501e+01 4.081001e+00 1.514000e+01
    endloop
  endfacet
  facet normal 8.806322e-01 -4.705086e-02 4.714584e-01
    outer loop
      vertex 2.243301e+01 3.653101e+01 1.663800e+01
      vertex 2.164300e+01 3.571300e+01 1.803200e+01
      vertex 1.947900e+01 -5.411000e+00 1.797000e+01
    endloop
  endfacet
  facet normal 9.162592e-01 -5.553349e-02 3.967179e-01
    outer loop
      vertex 2.312500e+01 3.724700e+01 1.514000e+01
      vertex 2.243301e+01 3.653101e+01 1.663800e+01
      vertex 1.993900e+01 -4.960999e+00 1.659000e+01
    endloop
  endfacet
  facet normal 0.000000e+00 0.000000e+00 -1.000000e+00
    outer loop
      vertex 6.915000e+00 -1.768300e+01 4.372000e+00
      vertex 1.024700e+01 -1.442900e+01 4.372000e+00
      vertex 1.317300e+01 -2.069700e+01 4.372000e+00
    endloop
  endfacet
  facet normal 0.000000e+00 0.000000e+00 -1.000000e+00
    outer loop
      vertex 1.169900e+01 -1.301100e+01 4.372000e+00
      vertex 1.315100e+01 -1.159100e+01 4.372000e+00
      vertex 1.317300e+01 -2.069700e+01 4.372000e+00
    endloop
  endfacet
  facet normal 0.000000e+00 0.000000e+00 1.000000e+00
    outer loop
      vertex 6.915000e+00 -1.768300e+01 1.729800e+01
      vertex 3.584999e+00 -2.093500e+01 1.729800e+01
      vertex 1.317300e+01 -2.069700e+01 1.729800e+01
    endloop
  endfacet
  facet normal 0.000000e+00 0.000000e+00 1.000000e+00
    outer loop
      vertex 1.169900e+01 -1.301100e+01 1.729800e+01
      vertex 1.024700e+01 -1.442900e+01 1.729800e+01
      vertex 1.317300e+01 -2.069700e+01 1.729800e+01
    endloop
  endfacet
  facet normal 8.350002e-01 -3.888252e-02 5.488740e-01
    outer loop
      vertex 2.164300e+01 3.571300e+01 1.803200e+01
      vertex 2.076300e+01 3.479900e+01 1.930600e+01
      vertex 1.889700e+01 -5.979001e+00 1.925600e+01
    endloop
  endfacet
  facet normal 0.000000e+00 0.000000e+00 1.000000e+00
    outer loop
      vertex 2.312500e+01 3.724700e+01 1.514000e+01
      vertex 2.086501e+01 4.081001e+00 1.514000e+01
      vertex 3.443700e+01 -8.936999e+00 1.514000e+01
    endloop
  endfacet
  facet normal 0.000000e+00 0.000000e+00 1.000000e+00
    outer loop
      vertex 3.443700e+01 -8.936999e+00 1.514000e+01
      vertex 2.682100e+01 4.108100e+01 1.514000e+01
      vertex 2.312500e+01 3.724700e+01 1.514000e+01
    endloop
  endfacet
  facet normal 0.000000e+00 0.000000e+00 1.000000e+00
    outer loop
      vertex 3.443700e+01 -8.936999e+00 1.514000e+01
      vertex 4.617100e+01 2.057100e+01 1.514000e+01
      vertex 2.682100e+01 4.108100e+01 1.514000e+01
    endloop
  endfacet
  facet normal 0.000000e+00 0.000000e+00 1.000000e+00
    outer loop
      vertex 3.443700e+01 -8.936999e+00 1.514000e+01
      vertex 4.630500e+01 2.789001e+00 1.514000e+01
      vertex 4.617100e+01 2.057100e+01 1.514000e+01
    endloop
  endfacet
  facet normal -9.999951e-01 3.154201e-03 0.000000e+00
    outer loop
      vertex 1.036501e+01 2.401701e+01 1.950600e+01
      vertex 1.032700e+01 1.196900e+01 1.950600e+01
      vertex 1.032700e+01 1.196900e+01 2.216200e+01
    endloop
  endfacet
  facet normal -9.999954e-01 3.030588e-03 0.000000e+00
    outer loop
      vertex 1.032700e+01 1.196900e+01 2.216200e+01
      vertex 1.024700e+01 -1.442900e+01 2.216200e+01
      vertex 1.024700e+01 -1.442900e+01 2.392400e+01
    endloop
  endfacet
  facet normal -9.999951e-01 3.069324e-03 5.803572e-04
    outer loop
      vertex 1.024700e+01 -1.442900e+01 2.392400e+01
      vertex 1.036501e+01 2.401701e+01 2.392400e+01
      vertex 1.032700e+01 1.196900e+01 2.216200e+01
    endloop
  endfacet
  facet normal -9.999951e-01 3.154201e-03 0.000000e+00
    outer loop
      vertex 1.036501e+01 2.401701e+01 2.392400e+01
      vertex 1.036501e+01 2.401701e+01 1.950600e+01
      vertex 1.032700e+01 1.196900e+01 2.216200e+01
    endloop
  endfacet
  facet normal -9.999723e-01 -7.452792e-03 0.000000e+00
    outer loop
      vertex -5.684300e+01 -2.417500e+01 8.436000e+00
      vertex -5.671700e+01 -4.108100e+01 8.436000e+00
      vertex -5.671700e+01 -4.108100e+01 1.629600e+01
    endloop
  endfacet
  facet normal -9.999723e-01 -7.452792e-03 0.000000e+00
    outer loop
      vertex -5.671700e+01 -4.108100e+01 1.629600e+01
      vertex -5.684300e+01 -2.417500e+01 1.629600e+01
      vertex -5.684300e+01 -2.417500e+01 8.436000e+00
    endloop
  endfacet
  facet normal -7.486825e-03 9.999720e-01 0.000000e+00
    outer loop
      vertex -1.878100e+01 2.379900e+01 2.216200e+01
      vertex -1.023300e+01 2.386300e+01 9.506001e+00
      vertex -1.878100e+01 2.379900e+01 9.506001e+00
    endloop
  endfacet
  facet normal -7.486825e-03 9.999720e-01 0.000000e+00
    outer loop
      vertex -1.023300e+01 2.386300e+01 9.506001e+00
      vertex -1.878100e+01 2.379900e+01 2.216200e+01
      vertex -1.684998e+00 2.392700e+01 9.506001e+00
    endloop
  endfacet
  facet normal -7.486825e-03 9.999720e-01 0.000000e+00
    outer loop
      vertex -1.684998e+00 2.392700e+01 9.506001e+00
      vertex -1.878100e+01 2.379900e+01 2.216200e+01
      vertex -1.684998e+00 2.392700e+01 1.950600e+01
    endloop
  endfacet
  facet normal -7.486826e-03 9.999720e-01 0.000000e+00
    outer loop
      vertex -1.684998e+00 2.392700e+01 1.950600e+01
      vertex -1.878100e+01 2.379900e+01 2.216200e+01
      vertex -1.684998e+00 2.392700e+01 2.216200e+01
    endloop
  endfacet
  facet normal 1.000000e+00 0.000000e+00 0.000000e+00
    outer loop
      vertex 4.617100e+01 2.061100e+01 1.203000e+01
      vertex 4.617100e+01 2.057100e+01 1.514000e+01
      vertex 4.617100e+01 2.057100e+01 1.203000e+01
    endloop
  endfacet
  facet normal 1.000000e+00 0.000000e+00 0.000000e+00
    outer loop
      vertex 4.617100e+01 2.057100e+01 1.514000e+01
      vertex 4.617100e+01 2.061100e+01 1.203000e+01
      vertex 4.617100e+01 2.061100e+01 1.514000e+01
    endloop
  endfacet
  facet normal -7.613837e-03 9.999710e-01 0.000000e+00
    outer loop
      vertex 5.662501e+01 2.064900e+01 1.655400e+01
      vertex 5.662501e+01 2.064900e+01 1.203000e+01
      vertex 5.189700e+01 2.061300e+01 1.203000e+01
    endloop
  endfacet
  facet normal -7.613837e-03 9.999710e-01 0.000000e+00
    outer loop
      vertex 5.189700e+01 2.061300e+01 1.203000e+01
      vertex 5.189700e+01 2.061300e+01 1.655400e+01
      vertex 5.662501e+01 2.064900e+01 1.655400e+01
    endloop
  endfacet
  facet normal -7.693903e-03 9.999704e-01 0.000000e+00
    outer loop
      vertex -4.878500e+01 -2.411300e+01 1.629600e+01
      vertex -4.878500e+01 -2.411300e+01 3.298000e+00
      vertex -5.684300e+01 -2.417500e+01 3.298000e+00
    endloop
  endfacet
  facet normal -7.693904e-03 9.999704e-01 0.000000e+00
    outer loop
      vertex -5.684300e+01 -2.417500e+01 3.298000e+00
      vertex -5.684300e+01 -2.417500e+01 8.436000e+00
      vertex -4.878500e+01 -2.411300e+01 1.629600e+01
    endloop
  endfacet
  facet normal -7.693904e-03 9.999704e-01 0.000000e+00
    outer loop
      vertex -5.684300e+01 -2.417500e+01 8.436000e+00
      vertex -5.684300e+01 -2.417500e+01 1.629600e+01
      vertex -4.878500e+01 -2.411300e+01 1.629600e+01
    endloop
  endfacet
  facet normal -6.922241e-01 -7.216826e-01 -0.000000e+00
    outer loop
      vertex 2.086501e+01 4.081001e+00 1.514000e+01
      vertex 2.086501e+01 4.081001e+00 1.282000e+01
      vertex 3.443700e+01 -8.936999e+00 1.282000e+01
    endloop
  endfacet
  facet normal -6.922241e-01 -7.216826e-01 0.000000e+00
    outer loop
      vertex 3.443700e+01 -8.936999e+00 1.282000e+01
      vertex 3.443700e+01 -8.936999e+00 1.514000e+01
      vertex 2.086501e+01 4.081001e+00 1.514000e+01
    endloop
  endfacet
  facet normal 7.028384e-01 -7.113495e-01 0.000000e+00
    outer loop
      vertex 3.443700e+01 -8.936999e+00 1.514000e+01
      vertex 3.443700e+01 -8.936999e+00 1.282000e+01
      vertex 4.630500e+01 2.789001e+00 1.282000e+01
    endloop
  endfacet
  facet normal 7.028384e-01 -7.113495e-01 0.000000e+00
    outer loop
      vertex 4.630500e+01 2.789001e+00 1.282000e+01
      vertex 4.630500e+01 2.789001e+00 1.514000e+01
      vertex 3.443700e+01 -8.936999e+00 1.514000e+01
    endloop
  endfacet
  facet normal 9.999719e-01 7.489684e-03 0.000000e+00
    outer loop
      vertex 5.662501e+01 2.064900e+01 1.655400e+01
      vertex 5.682900e+01 -6.586998e+00 1.655400e+01
      vertex 5.682900e+01 -6.586998e+00 1.282000e+01
    endloop
  endfacet
  facet normal 9.999719e-01 7.489684e-03 0.000000e+00
    outer loop
      vertex 5.682900e+01 -6.586998e+00 1.282000e+01
      vertex 5.682900e+01 -6.586998e+00 1.203000e+01
      vertex 5.662501e+01 2.064900e+01 1.655400e+01
    endloop
  endfacet
  facet normal 9.999719e-01 7.489683e-03 0.000000e+00
    outer loop
      vertex 5.682900e+01 -6.586998e+00 1.203000e+01
      vertex 5.662501e+01 2.064900e+01 1.203000e+01
      vertex 5.662501e+01 2.064900e+01 1.655400e+01
    endloop
  endfacet
  facet normal 0.000000e+00 0.000000e+00 1.000000e+00
    outer loop
      vertex 5.681700e+01 2.504100e+01 1.203000e+01
      vertex 5.189700e+01 2.503900e+01 1.203000e+01
      vertex 5.189700e+01 2.061300e+01 1.203000e+01
    endloop
  endfacet
  facet normal 0.000000e+00 0.000000e+00 1.000000e+00
    outer loop
      vertex 5.189700e+01 2.061300e+01 1.203000e+01
      vertex 5.662501e+01 2.064900e+01 1.203000e+01
      vertex 5.681700e+01 2.504100e+01 1.203000e+01
    endloop
  endfacet
  facet normal 0.000000e+00 0.000000e+00 1.000000e+00
    outer loop
      vertex 5.662501e+01 2.064900e+01 1.203000e+01
      vertex 5.682900e+01 -6.586998e+00 1.203000e+01
      vertex 5.681700e+01 2.504100e+01 1.203000e+01
    endloop
  endfacet
  facet normal 1.479390e-01 3.960913e-04 9.889964e-01
    outer loop
      vertex 1.409700e+01 2.788900e+01 2.389400e+01
      vertex 1.285700e+01 2.660101e+01 2.408000e+01
      vertex 1.241300e+01 -1.231300e+01 2.416200e+01
    endloop
  endfacet
  facet normal 1.000000e+00 0.000000e+00 0.000000e+00
    outer loop
      vertex 4.617100e+01 2.061100e+01 1.514000e+01
      vertex 4.617100e+01 2.057100e+01 1.655400e+01
      vertex 4.617100e+01 2.057100e+01 1.514000e+01
    endloop
  endfacet
  facet normal 1.000000e+00 0.000000e+00 0.000000e+00
    outer loop
      vertex 4.617100e+01 2.057100e+01 1.655400e+01
      vertex 4.617100e+01 2.061100e+01 1.514000e+01
      vertex 4.617100e+01 2.061100e+01 1.655400e+01
    endloop
  endfacet
  facet normal -1.328942e-01 4.078974e-04 9.911301e-01
    outer loop
      vertex 1.160700e+01 2.530700e+01 2.409000e+01
      vertex 1.036501e+01 2.401701e+01 2.392400e+01
      vertex 1.024700e+01 -1.442900e+01 2.392400e+01
    endloop
  endfacet
  facet normal 8.045787e-01 -3.213080e-02 5.929760e-01
    outer loop
      vertex 1.980100e+01 3.380100e+01 2.045200e+01
      vertex 1.740700e+01 -7.432999e+00 2.146600e+01
      vertex 1.820300e+01 -6.656998e+00 2.042800e+01
    endloop
  endfacet
  facet normal 7.486879e-03 -9.999720e-01 0.000000e+00
    outer loop
      vertex -1.840900e+01 -2.584500e+01 2.216200e+01
      vertex -1.840900e+01 -2.584500e+01 1.629600e+01
      vertex -1.312996e+00 -2.571700e+01 1.629600e+01
    endloop
  endfacet
  facet normal 7.486879e-03 -9.999720e-01 0.000000e+00
    outer loop
      vertex -1.312996e+00 -2.571700e+01 1.629600e+01
      vertex -1.312996e+00 -2.571700e+01 2.216200e+01
      vertex -1.840900e+01 -2.584500e+01 2.216200e+01
    endloop
  endfacet
  facet normal 7.155323e-01 6.985797e-01 0.000000e+00
    outer loop
      vertex 3.584999e+00 -2.093500e+01 1.503000e+01
      vertex 6.799003e+00 -2.422700e+01 1.503000e+01
      vertex 6.799003e+00 -2.422700e+01 3.606000e+00
    endloop
  endfacet
  facet normal 7.155323e-01 6.985797e-01 0.000000e+00
    outer loop
      vertex 3.584999e+00 -2.093500e+01 3.606000e+00
      vertex 3.584999e+00 -2.093500e+01 4.372000e+00
      vertex 6.799003e+00 -2.422700e+01 3.606000e+00
    endloop
  endfacet
  facet normal 7.155323e-01 6.985797e-01 0.000000e+00
    outer loop
      vertex 3.584999e+00 -2.093500e+01 1.503000e+01
      vertex 6.799003e+00 -2.422700e+01 3.606000e+00
      vertex 3.584999e+00 -2.093500e+01 4.372000e+00
    endloop
  endfacet
  facet normal -7.387010e-01 -6.740332e-01 0.000000e+00
    outer loop
      vertex -2.856100e+01 -1.471900e+01 1.629600e+01
      vertex -1.840900e+01 -2.584500e+01 1.629600e+01
      vertex -1.840900e+01 -2.584500e+01 2.216200e+01
    endloop
  endfacet
  facet normal -7.387010e-01 -6.740332e-01 0.000000e+00
    outer loop
      vertex -1.840900e+01 -2.584500e+01 2.216200e+01
      vertex -2.856100e+01 -1.471900e+01 2.216200e+01
      vertex -2.856100e+01 -1.471900e+01 1.629600e+01
    endloop
  endfacet
  facet normal -6.863921e-01 -7.272316e-01 -0.000000e+00
    outer loop
      vertex 4.971500e+01 -3.242300e+01 1.282000e+01
      vertex 4.971500e+01 -3.242300e+01 2.000000e-03
      vertex 5.359701e+01 -3.608700e+01 2.000000e-03
    endloop
  endfacet
  facet normal -6.863921e-01 -7.272316e-01 0.000000e+00
    outer loop
      vertex 5.359701e+01 -3.608700e+01 2.000000e-03
      vertex 5.359701e+01 -3.608700e+01 1.282000e+01
      vertex 4.971500e+01 -3.242300e+01 1.282000e+01
    endloop
  endfacet
  facet normal 9.999999e-01 4.299470e-04 0.000000e+00
    outer loop
      vertex 5.682900e+01 -6.586998e+00 1.282000e+01
      vertex 5.684300e+01 -3.914900e+01 1.282000e+01
      vertex 5.684300e+01 -3.914900e+01 2.000000e-03
    endloop
  endfacet
  facet normal 9.999999e-01 4.299470e-04 0.000000e+00
    outer loop
      vertex 5.684300e+01 -3.914900e+01 2.000000e-03
      vertex 5.682900e+01 -6.586998e+00 1.203000e+01
      vertex 5.682900e+01 -6.586998e+00 1.282000e+01
    endloop
  endfacet
  facet normal 9.999999e-01 4.362166e-04 -1.697293e-05
    outer loop
      vertex 5.682900e+01 -6.586998e+00 1.203000e+01
      vertex 5.684300e+01 -3.914900e+01 2.000000e-03
      vertex 5.682900e+01 -7.055001e+00 2.000000e-03
    endloop
  endfacet
  facet normal 9.999999e-01 3.794434e-04 0.000000e+00
    outer loop
      vertex 5.681700e+01 2.504100e+01 2.000000e-03
      vertex 5.681700e+01 2.504100e+01 1.203000e+01
      vertex 5.682900e+01 -6.586998e+00 1.203000e+01
    endloop
  endfacet
  facet normal 0.000000e+00 0.000000e+00 1.000000e+00
    outer loop
      vertex 2.086501e+01 4.081001e+00 1.282000e+01
      vertex 2.027100e+01 -4.636998e+00 1.282000e+01
      vertex 3.450700e+01 -1.807100e+01 1.282000e+01
    endloop
  endfacet
  facet normal 0.000000e+00 0.000000e+00 1.000000e+00
    outer loop
      vertex 3.450700e+01 -1.807100e+01 1.282000e+01
      vertex 3.443700e+01 -8.936999e+00 1.282000e+01
      vertex 2.086501e+01 4.081001e+00 1.282000e+01
    endloop
  endfacet
  facet normal -9.999726e-01 -7.404040e-03 0.000000e+00
    outer loop
      vertex 4.630500e+01 2.789001e+00 1.282000e+01
      vertex 4.637500e+01 -6.664998e+00 1.282000e+01
      vertex 4.637500e+01 -6.664998e+00 1.655400e+01
    endloop
  endfacet
  facet normal -9.999726e-01 -7.404040e-03 0.000000e+00
    outer loop
      vertex 4.637500e+01 -6.664998e+00 1.655400e+01
      vertex 4.630500e+01 2.789001e+00 1.514000e+01
      vertex 4.630500e+01 2.789001e+00 1.282000e+01
    endloop
  endfacet
  facet normal -9.999717e-01 -7.489682e-03 -5.726513e-04
    outer loop
      vertex 4.637500e+01 -6.664998e+00 1.655400e+01
      vertex 4.617100e+01 2.057100e+01 1.655400e+01
      vertex 4.630500e+01 2.789001e+00 1.514000e+01
    endloop
  endfacet
  facet normal -9.999716e-01 -7.535218e-03 -0.000000e+00
    outer loop
      vertex 4.617100e+01 2.057100e+01 1.655400e+01
      vertex 4.617100e+01 2.057100e+01 1.514000e+01
      vertex 4.630500e+01 2.789001e+00 1.514000e+01
    endloop
  endfacet
  facet normal 0.000000e+00 0.000000e+00 -1.000000e+00
    outer loop
      vertex 5.189700e+01 2.061300e+01 1.655400e+01
      vertex 4.617100e+01 2.057100e+01 1.655400e+01
      vertex 4.617100e+01 2.061100e+01 1.655400e+01
    endloop
  endfacet
  facet normal 0.000000e+00 0.000000e+00 1.000000e+00
    outer loop
      vertex 4.617100e+01 2.057100e+01 1.655400e+01
      vertex 4.637500e+01 -6.664998e+00 1.655400e+01
      vertex 5.189700e+01 2.061300e+01 1.655400e+01
    endloop
  endfacet
  facet normal 0.000000e+00 0.000000e+00 1.000000e+00
    outer loop
      vertex 4.637500e+01 -6.664998e+00 1.655400e+01
      vertex 5.682900e+01 -6.586998e+00 1.655400e+01
      vertex 5.189700e+01 2.061300e+01 1.655400e+01
    endloop
  endfacet
  facet normal 0.000000e+00 0.000000e+00 1.000000e+00
    outer loop
      vertex 5.682900e+01 -6.586998e+00 1.655400e+01
      vertex 5.662501e+01 2.064900e+01 1.655400e+01
      vertex 5.189700e+01 2.061300e+01 1.655400e+01
    endloop
  endfacet
  facet normal -7.490447e-03 9.999719e-01 0.000000e+00
    outer loop
      vertex -2.881700e+01 1.939100e+01 2.863400e+01
      vertex -2.881700e+01 1.939100e+01 9.506001e+00
      vertex -4.910900e+01 1.923900e+01 9.506001e+00
    endloop
  endfacet
  facet normal -7.490447e-03 9.999719e-01 0.000000e+00
    outer loop
      vertex -4.910900e+01 1.923900e+01 9.506001e+00
      vertex -4.910900e+01 1.923900e+01 2.863400e+01
      vertex -2.881700e+01 1.939100e+01 2.863400e+01
    endloop
  endfacet
  facet normal 6.986799e-01 -7.154344e-01 0.000000e+00
    outer loop
      vertex 1.024700e+01 -1.442900e+01 1.973000e+01
      vertex 1.024700e+01 -1.442900e+01 1.729800e+01
      vertex 1.169900e+01 -1.301100e+01 1.973000e+01
    endloop
  endfacet
  facet normal 6.987996e-01 -7.153175e-01 1.396252e-04
    outer loop
      vertex 1.024700e+01 -1.442900e+01 2.216200e+01
      vertex 1.169900e+01 -1.301100e+01 1.973000e+01
      vertex 1.947900e+01 -5.411000e+00 1.797000e+01
    endloop
  endfacet
  facet normal 6.988498e-01 -7.152683e-01 3.562301e-04
    outer loop
      vertex 1.947900e+01 -5.411000e+00 1.797000e+01
      vertex 1.889700e+01 -5.979001e+00 1.925600e+01
      vertex 1.024700e+01 -1.442900e+01 2.216200e+01
    endloop
  endfacet
  facet normal 6.987829e-01 -7.153338e-01 -3.337611e-05
    outer loop
      vertex 1.889700e+01 -5.979001e+00 1.925600e+01
      vertex 1.820300e+01 -6.656998e+00 2.042800e+01
      vertex 1.024700e+01 -1.442900e+01 2.216200e+01
    endloop
  endfacet
  facet normal 6.989324e-01 -7.151865e-01 1.313250e-03
    outer loop
      vertex 1.820300e+01 -6.656998e+00 2.042800e+01
      vertex 1.740700e+01 -7.432999e+00 2.146600e+01
      vertex 1.024700e+01 -1.442900e+01 2.216200e+01
    endloop
  endfacet
  facet normal 6.988568e-01 -7.152616e-01 -2.195066e-04
    outer loop
      vertex 1.740700e+01 -7.432999e+00 2.146600e+01
      vertex 1.652300e+01 -8.296999e+00 2.235400e+01
      vertex 1.024700e+01 -1.442900e+01 2.216200e+01
    endloop
  endfacet
  facet normal 6.988534e-01 -7.152649e-01 0.000000e+00
    outer loop
      vertex 1.652300e+01 -8.296999e+00 2.235400e+01
      vertex 1.024700e+01 -1.442900e+01 2.392400e+01
      vertex 1.024700e+01 -1.442900e+01 2.216200e+01
    endloop
  endfacet
  facet normal 6.984869e-01 -7.156172e-01 -2.841031e-03
    outer loop
      vertex 1.652300e+01 -8.296999e+00 2.235400e+01
      vertex 1.556700e+01 -9.232998e+00 2.308000e+01
      vertex 1.024700e+01 -1.442900e+01 2.392400e+01
    endloop
  endfacet
  facet normal 6.990616e-01 -7.150487e-01 4.281697e-03
    outer loop
      vertex 1.556700e+01 -9.232998e+00 2.308000e+01
      vertex 1.455100e+01 -1.022300e+01 2.362800e+01
      vertex 1.024700e+01 -1.442900e+01 2.392400e+01
    endloop
  endfacet
  facet normal 6.989095e-01 -7.152101e-01 -2.233117e-04
    outer loop
      vertex 1.455100e+01 -1.022300e+01 2.362800e+01
      vertex 1.349300e+01 -1.125700e+01 2.399000e+01
      vertex 1.024700e+01 -1.442900e+01 2.392400e+01
    endloop
  endfacet
  facet normal 6.987800e-01 -7.152761e-01 9.311998e-03
    outer loop
      vertex 1.349300e+01 -1.125700e+01 2.399000e+01
      vertex 1.132301e+01 -1.337500e+01 2.414000e+01
      vertex 1.024700e+01 -1.442900e+01 2.392400e+01
    endloop
  endfacet
  facet normal 6.979246e-01 -7.160379e-01 -1.382224e-02
    outer loop
      vertex 1.349300e+01 -1.125700e+01 2.399000e+01
      vertex 1.241300e+01 -1.231300e+01 2.416200e+01
      vertex 1.132301e+01 -1.337500e+01 2.414000e+01
    endloop
  endfacet
  facet normal 6.987802e-01 -7.153364e-01 0.000000e+00
    outer loop
      vertex 1.024700e+01 -1.442900e+01 2.000000e-03
      vertex 2.027100e+01 -4.636998e+00 0.000000e+00
      vertex 2.027100e+01 -4.636998e+00 1.282000e+01
    endloop
  endfacet
  facet normal 6.993490e-01 -7.147798e-01 -8.699810e-04
    outer loop
      vertex 1.169900e+01 -1.301100e+01 2.186000e+00
      vertex 1.024700e+01 -1.442900e+01 2.000000e-03
      vertex 2.027100e+01 -4.636998e+00 1.282000e+01
    endloop
  endfacet
  facet normal 6.986799e-01 -7.154345e-01 0.000000e+00
    outer loop
      vertex 1.024700e+01 -1.442900e+01 2.186000e+00
      vertex 1.024700e+01 -1.442900e+01 2.000000e-03
      vertex 1.169900e+01 -1.301100e+01 2.186000e+00
    endloop
  endfacet
  facet normal 6.987180e-01 -7.153972e-01 0.000000e+00
    outer loop
      vertex 2.027100e+01 -4.636998e+00 1.282000e+01
      vertex 1.315100e+01 -1.159100e+01 1.729800e+01
      vertex 1.315100e+01 -1.159100e+01 4.372000e+00
    endloop
  endfacet
  facet normal 6.987180e-01 -7.153972e-01 0.000000e+00
    outer loop
      vertex 2.027100e+01 -4.636998e+00 1.282000e+01
      vertex 2.027100e+01 -4.636998e+00 1.514000e+01
      vertex 1.315100e+01 -1.159100e+01 1.729800e+01
    endloop
  endfacet
  facet normal 6.987392e-01 -7.153764e-01 1.372778e-04
    outer loop
      vertex 2.027100e+01 -4.636998e+00 1.514000e+01
      vertex 1.993900e+01 -4.960999e+00 1.659000e+01
      vertex 1.315100e+01 -1.159100e+01 1.729800e+01
    endloop
  endfacet
  facet normal 6.987116e-01 -7.154034e-01 -3.807092e-04
    outer loop
      vertex 1.993900e+01 -4.960999e+00 1.659000e+01
      vertex 1.947900e+01 -5.411000e+00 1.797000e+01
      vertex 1.315100e+01 -1.159100e+01 1.729800e+01
    endloop
  endfacet
  facet normal 9.757478e-01 -6.648793e-02 2.085563e-01
    outer loop
      vertex 2.312500e+01 3.724700e+01 1.514000e+01
      vertex 1.993900e+01 -4.960999e+00 1.659000e+01
      vertex 2.027100e+01 -4.636998e+00 1.514000e+01
    endloop
  endfacet
  facet normal 0.000000e+00 0.000000e+00 1.000000e+00
    outer loop
      vertex 2.027100e+01 -4.636998e+00 1.514000e+01
      vertex 2.312500e+01 3.724700e+01 1.514000e+01
      vertex 2.086501e+01 4.081001e+00 1.514000e+01
    endloop
  endfacet
  facet normal -2.248207e-02 2.363206e-03 9.997444e-01
    outer loop
      vertex 1.285700e+01 2.660101e+01 2.408000e+01
      vertex 1.132301e+01 -1.337500e+01 2.414000e+01
      vertex 1.241300e+01 -1.231300e+01 2.416200e+01
    endloop
  endfacet
  facet normal -7.996235e-01 6.005017e-01 0.000000e+00
    outer loop
      vertex -1.387100e+01 3.978500e+01 9.506001e+00
      vertex -1.808100e+01 3.417900e+01 2.000000e-03
      vertex -1.808100e+01 3.417900e+01 9.506001e+00
    endloop
  endfacet
  facet normal -7.996235e-01 6.005017e-01 0.000000e+00
    outer loop
      vertex -1.808100e+01 3.417900e+01 2.000000e-03
      vertex -1.387100e+01 3.978500e+01 9.506001e+00
      vertex -1.387100e+01 3.978500e+01 2.000000e-03
    endloop
  endfacet
  facet normal 4.821518e-01 -9.898881e-03 8.760319e-01
    outer loop
      vertex 1.651500e+01 3.039300e+01 2.300600e+01
      vertex 1.455100e+01 -1.022300e+01 2.362800e+01
      vertex 1.556700e+01 -9.232998e+00 2.308000e+01
    endloop
  endfacet
  facet normal 6.987054e-01 -7.154095e-01 1.350800e-04
    outer loop
      vertex -1.673500e+01 -4.078100e+01 2.000000e-03
      vertex 1.024700e+01 -1.442900e+01 2.000000e-03
      vertex -5.912999e+00 -3.021100e+01 3.606000e+00
    endloop
  endfacet
  facet normal 6.987285e-01 -7.153870e-01 0.000000e+00
    outer loop
      vertex -5.912999e+00 -3.021100e+01 3.606000e+00
      vertex -1.673500e+01 -4.078100e+01 1.629600e+01
      vertex -1.673500e+01 -4.078100e+01 2.000000e-03
    endloop
  endfacet
  facet normal 6.987284e-01 -7.153870e-01 0.000000e+00
    outer loop
      vertex -5.912999e+00 -3.021100e+01 3.606000e+00
      vertex -5.912999e+00 -3.021100e+01 1.503000e+01
      vertex -1.673500e+01 -4.078100e+01 1.629600e+01
    endloop
  endfacet
  facet normal 6.986965e-01 -7.154180e-01 -5.320710e-04
    outer loop
      vertex -5.912999e+00 -3.021100e+01 1.503000e+01
      vertex 3.584999e+00 -2.093500e+01 1.503000e+01
      vertex -1.673500e+01 -4.078100e+01 1.629600e+01
    endloop
  endfacet
  facet normal 6.987543e-01 -7.153606e-01 1.295664e-03
    outer loop
      vertex 3.584999e+00 -2.093500e+01 1.503000e+01
      vertex -1.312996e+00 -2.571700e+01 1.629600e+01
      vertex -1.673500e+01 -4.078100e+01 1.629600e+01
    endloop
  endfacet
  facet normal 6.985834e-01 -7.155286e-01 0.000000e+00
    outer loop
      vertex 3.584999e+00 -2.093500e+01 1.503000e+01
      vertex 3.584999e+00 -2.093500e+01 1.729800e+01
      vertex -1.312996e+00 -2.571700e+01 1.629600e+01
    endloop
  endfacet
  facet normal 6.985834e-01 -7.155286e-01 0.000000e+00
    outer loop
      vertex 3.584999e+00 -2.093500e+01 1.729800e+01
      vertex -1.312996e+00 -2.571700e+01 2.216200e+01
      vertex -1.312996e+00 -2.571700e+01 1.629600e+01
    endloop
  endfacet
  facet normal 6.986806e-01 -7.154337e-01 1.911587e-04
    outer loop
      vertex 3.584999e+00 -2.093500e+01 1.729800e+01
      vertex 1.024700e+01 -1.442900e+01 1.729800e+01
      vertex -1.312996e+00 -2.571700e+01 2.216200e+01
    endloop
  endfacet
  facet normal 6.986395e-01 -7.154739e-01 0.000000e+00
    outer loop
      vertex 1.024700e+01 -1.442900e+01 1.729800e+01
      vertex 1.024700e+01 -1.442900e+01 2.216200e+01
      vertex -1.312996e+00 -2.571700e+01 2.216200e+01
    endloop
  endfacet
  facet normal 6.986806e-01 -7.154337e-01 0.000000e+00
    outer loop
      vertex 1.024700e+01 -1.442900e+01 2.000000e-03
      vertex 1.024700e+01 -1.442900e+01 4.372000e+00
      vertex 3.584999e+00 -2.093500e+01 3.606000e+00
    endloop
  endfacet
  facet normal 6.986966e-01 -7.154180e-01 5.769767e-05
    outer loop
      vertex 3.584999e+00 -2.093500e+01 3.606000e+00
      vertex -5.912999e+00 -3.021100e+01 3.606000e+00
      vertex 1.024700e+01 -1.442900e+01 2.000000e-03
    endloop
  endfacet
  facet normal 6.986806e-01 -7.154337e-01 0.000000e+00
    outer loop
      vertex 1.024700e+01 -1.442900e+01 4.372000e+00
      vertex 3.584999e+00 -2.093500e+01 4.372000e+00
      vertex 3.584999e+00 -2.093500e+01 3.606000e+00
    endloop
  endfacet
  facet normal 4.108024e-01 -5.902454e-03 9.117053e-01
    outer loop
      vertex 1.651500e+01 3.039300e+01 2.300600e+01
      vertex 1.532100e+01 2.915700e+01 2.353600e+01
      vertex 1.455100e+01 -1.022300e+01 2.362800e+01
    endloop
  endfacet
  facet normal 6.712972e-03 1.243256e-03 9.999767e-01
    outer loop
      vertex 1.285700e+01 2.660101e+01 2.408000e+01
      vertex 1.160700e+01 2.530700e+01 2.409000e+01
      vertex 1.132301e+01 -1.337500e+01 2.414000e+01
    endloop
  endfacet
  facet normal 1.572824e-01 -4.909158e-06 9.875537e-01
    outer loop
      vertex 1.409700e+01 2.788900e+01 2.389400e+01
      vertex 1.241300e+01 -1.231300e+01 2.416200e+01
      vertex 1.349300e+01 -1.125700e+01 2.399000e+01
    endloop
  endfacet
  facet normal -7.721324e-01 6.354616e-01 0.000000e+00
    outer loop
      vertex -1.878100e+01 2.379900e+01 2.216200e+01
      vertex -2.875900e+01 1.167500e+01 9.506001e+00
      vertex -2.875900e+01 1.167500e+01 2.216200e+01
    endloop
  endfacet
  facet normal -7.721324e-01 6.354616e-01 0.000000e+00
    outer loop
      vertex -2.875900e+01 1.167500e+01 9.506001e+00
      vertex -1.878100e+01 2.379900e+01 2.216200e+01
      vertex -1.878100e+01 2.379900e+01 9.506001e+00
    endloop
  endfacet
  facet normal 0.000000e+00 0.000000e+00 -1.000000e+00
    outer loop
      vertex -2.698998e+00 -3.350100e+01 3.606000e+00
      vertex -5.912999e+00 -3.021100e+01 3.606000e+00
      vertex 3.584999e+00 -2.093500e+01 3.606000e+00
    endloop
  endfacet
  facet normal 0.000000e+00 0.000000e+00 -1.000000e+00
    outer loop
      vertex 3.584999e+00 -2.093500e+01 3.606000e+00
      vertex 6.799003e+00 -2.422700e+01 3.606000e+00
      vertex -2.698998e+00 -3.350100e+01 3.606000e+00
    endloop
  endfacet
  facet normal -7.153205e-01 -6.987965e-01 0.000000e+00
    outer loop
      vertex -5.912999e+00 -3.021100e+01 3.606000e+00
      vertex -2.698998e+00 -3.350100e+01 3.606000e+00
      vertex -2.698998e+00 -3.350100e+01 1.503000e+01
    endloop
  endfacet
  facet normal -7.153205e-01 -6.987965e-01 0.000000e+00
    outer loop
      vertex -2.698998e+00 -3.350100e+01 1.503000e+01
      vertex -5.912999e+00 -3.021100e+01 1.503000e+01
      vertex -5.912999e+00 -3.021100e+01 3.606000e+00
    endloop
  endfacet
  facet normal -9.999722e-01 -7.452791e-03 0.000000e+00
    outer loop
      vertex -5.684300e+01 -2.417500e+01 3.298000e+00
      vertex -5.671700e+01 -4.108100e+01 3.298000e+00
      vertex -5.671700e+01 -4.108100e+01 8.436000e+00
    endloop
  endfacet
  facet normal -9.999722e-01 -7.452791e-03 0.000000e+00
    outer loop
      vertex -5.671700e+01 -4.108100e+01 8.436000e+00
      vertex -5.684300e+01 -2.417500e+01 8.436000e+00
      vertex -5.684300e+01 -2.417500e+01 3.298000e+00
    endloop
  endfacet
  facet normal 0.000000e+00 0.000000e+00 1.000000e+00
    outer loop
      vertex 5.189700e+01 2.057300e+01 1.203000e+01
      vertex 5.189700e+01 2.061300e+01 1.203000e+01
      vertex 4.617100e+01 2.057100e+01 1.203000e+01
    endloop
  endfacet
  facet normal 9.525924e-01 -5.760407e-02 2.987463e-01
    outer loop
      vertex 2.243301e+01 3.653101e+01 1.663800e+01
      vertex 1.947900e+01 -5.411000e+00 1.797000e+01
      vertex 1.993900e+01 -4.960999e+00 1.659000e+01
    endloop
  endfacet
  facet normal 7.273768e-01 6.862383e-01 0.000000e+00
    outer loop
      vertex 2.682100e+01 4.108100e+01 1.514000e+01
      vertex 4.617100e+01 2.057100e+01 1.514000e+01
      vertex 4.617100e+01 2.057100e+01 1.203000e+01
    endloop
  endfacet
  facet normal 7.273768e-01 6.862382e-01 0.000000e+00
    outer loop
      vertex 4.617100e+01 2.057100e+01 1.203000e+01
      vertex 4.617100e+01 2.057100e+01 2.000000e-03
      vertex 2.682100e+01 4.108100e+01 1.514000e+01
    endloop
  endfacet
  facet normal 7.273768e-01 6.862383e-01 0.000000e+00
    outer loop
      vertex 4.617100e+01 2.057100e+01 2.000000e-03
      vertex 2.682100e+01 4.108100e+01 2.000000e-03
      vertex 2.682100e+01 4.108100e+01 1.514000e+01
    endloop
  endfacet
  facet normal 3.864310e-03 -4.255238e-03 -9.999835e-01
    outer loop
      vertex 5.681700e+01 2.504100e+01 2.000000e-03
      vertex 5.189700e+01 2.057300e+01 2.000000e-03
      vertex 5.189700e+01 2.104300e+01 0.000000e+00
    endloop
  endfacet
  facet normal 0.000000e+00 0.000000e+00 -1.000000e+00
    outer loop
      vertex 5.189700e+01 2.057300e+01 2.000000e-03
      vertex 5.681700e+01 2.504100e+01 2.000000e-03
      vertex 5.520700e+01 -5.522999e+00 2.000000e-03
    endloop
  endfacet
  facet normal 0.000000e+00 0.000000e+00 -1.000000e+00
    outer loop
      vertex 5.359701e+01 -3.608700e+01 2.000000e-03
      vertex 5.682900e+01 -7.055001e+00 2.000000e-03
      vertex 5.684300e+01 -3.914900e+01 2.000000e-03
    endloop
  endfacet
  facet normal 3.141684e-05 -3.868720e-05 -1.000000e+00
    outer loop
      vertex 5.131500e+01 2.057300e+01 0.000000e+00
      vertex 4.971500e+01 -3.242300e+01 2.000000e-03
      vertex 2.027100e+01 -4.636998e+00 0.000000e+00
    endloop
  endfacet
  facet normal -3.463252e-05 -3.669311e-05 -1.000000e+00
    outer loop
      vertex 4.971500e+01 -3.242300e+01 2.000000e-03
      vertex 5.131500e+01 2.057300e+01 0.000000e+00
      vertex 5.359701e+01 -3.608700e+01 2.000000e-03
    endloop
  endfacet
  facet normal 3.436402e-03 1.031045e-04 -9.999941e-01
    outer loop
      vertex 5.359701e+01 -3.608700e+01 2.000000e-03
      vertex 5.131500e+01 2.057300e+01 0.000000e+00
      vertex 5.189700e+01 2.057300e+01 2.000000e-03
    endloop
  endfacet
  facet normal -6.989329e-01 7.151872e-01 0.000000e+00
    outer loop
      vertex 1.315100e+01 -1.159100e+01 1.729800e+01
      vertex 1.315100e+01 -1.159100e+01 1.083400e+01
      vertex 1.024700e+01 -1.442900e+01 4.372000e+00
    endloop
  endfacet
  facet normal -2.033439e-07 5.005006e-04 -9.999999e-01
    outer loop
      vertex 5.681700e+01 2.504100e+01 2.000000e-03
      vertex 5.189700e+01 2.104300e+01 0.000000e+00
      vertex 5.189700e+01 2.503900e+01 2.000000e-03
    endloop
  endfacet
  facet normal -5.327153e-05 5.137864e-05 -1.000000e+00
    outer loop
      vertex 2.682100e+01 4.108100e+01 2.000000e-03
      vertex 2.027100e+01 -4.636998e+00 0.000000e+00
      vertex 1.998100e+01 3.398901e+01 2.000000e-03
    endloop
  endfacet
  facet normal 4.025579e-05 3.797903e-05 -1.000000e+00
    outer loop
      vertex 2.027100e+01 -4.636998e+00 0.000000e+00
      vertex 2.682100e+01 4.108100e+01 2.000000e-03
      vertex 4.617100e+01 2.057100e+01 2.000000e-03
    endloop
  endfacet
  facet normal -3.889888e-04 4.790071e-04 -9.999999e-01
    outer loop
      vertex 2.027100e+01 -4.636998e+00 0.000000e+00
      vertex 4.617100e+01 2.057100e+01 2.000000e-03
      vertex 5.131500e+01 2.057300e+01 0.000000e+00
    endloop
  endfacet
  facet normal -2.001136e-04 6.064188e-07 -1.000000e+00
    outer loop
      vertex 1.028700e+01 -1.230999e+00 2.000000e-03
      vertex 1.032700e+01 1.196900e+01 2.000000e-03
      vertex 2.027100e+01 -4.636998e+00 0.000000e+00
    endloop
  endfacet
  facet normal -2.001673e-04 5.982877e-07 -1.000000e+00
    outer loop
      vertex 1.034700e+01 1.799300e+01 2.000000e-03
      vertex 1.036501e+01 2.401701e+01 2.000000e-03
      vertex 2.027100e+01 -4.636998e+00 0.000000e+00
    endloop
  endfacet
  facet normal 0.000000e+00 0.000000e+00 -1.000000e+00
    outer loop
      vertex -4.878500e+01 -2.411300e+01 3.298000e+00
      vertex -5.671700e+01 -4.108100e+01 3.298000e+00
      vertex -5.684300e+01 -2.417500e+01 3.298000e+00
    endloop
  endfacet
  facet normal -5.328070e-05 5.137857e-05 -1.000000e+00
    outer loop
      vertex 2.027100e+01 -4.636998e+00 0.000000e+00
      vertex 1.036501e+01 2.401701e+01 2.000000e-03
      vertex 1.998100e+01 3.398901e+01 2.000000e-03
    endloop
  endfacet
  facet normal 0.000000e+00 0.000000e+00 -1.000000e+00
    outer loop
      vertex -5.671700e+01 -4.108100e+01 2.000000e-03
      vertex -4.878500e+01 -2.411300e+01 2.000000e-03
      vertex -4.877100e+01 -2.585900e+01 2.000000e-03
    endloop
  endfacet
  facet normal 0.000000e+00 0.000000e+00 -1.000000e+00
    outer loop
      vertex -4.877100e+01 -2.585900e+01 2.000000e-03
      vertex -1.673500e+01 -4.078100e+01 2.000000e-03
      vertex -5.671700e+01 -4.108100e+01 2.000000e-03
    endloop
  endfacet
  facet normal 0.000000e+00 0.000000e+00 -1.000000e+00
    outer loop
      vertex -4.877100e+01 -2.585900e+01 2.000000e-03
      vertex -2.847900e+01 -2.570700e+01 2.000000e-03
      vertex -1.673500e+01 -4.078100e+01 2.000000e-03
    endloop
  endfacet
  facet normal 0.000000e+00 0.000000e+00 -1.000000e+00
    outer loop
      vertex -2.847900e+01 -2.570700e+01 2.000000e-03
      vertex -1.775900e+01 -8.491000e+00 2.000000e-03
      vertex -1.673500e+01 -4.078100e+01 2.000000e-03
    endloop
  endfacet
  facet normal 0.000000e+00 0.000000e+00 -1.000000e+00
    outer loop
      vertex -1.348500e+01 -8.459000e+00 2.000000e-03
      vertex -1.673500e+01 -4.078100e+01 2.000000e-03
      vertex -1.775900e+01 -8.491000e+00 2.000000e-03
    endloop
  endfacet
  facet normal 0.000000e+00 0.000000e+00 -1.000000e+00
    outer loop
      vertex 1.024700e+01 -1.442900e+01 2.000000e-03
      vertex -1.673500e+01 -4.078100e+01 2.000000e-03
      vertex -1.348500e+01 -8.459000e+00 2.000000e-03
    endloop
  endfacet
  facet normal 0.000000e+00 0.000000e+00 -1.000000e+00
    outer loop
      vertex -1.023300e+01 2.386300e+01 2.000000e-03
      vertex -1.684998e+00 2.392700e+01 2.000000e-03
      vertex 1.024700e+01 -1.442900e+01 2.000000e-03
    endloop
  endfacet
  facet normal 0.000000e+00 0.000000e+00 -1.000000e+00
    outer loop
      vertex -1.684998e+00 2.392700e+01 2.000000e-03
      vertex 1.036501e+01 2.401701e+01 2.000000e-03
      vertex 1.024700e+01 -1.442900e+01 2.000000e-03
    endloop
  endfacet
  facet normal 0.000000e+00 0.000000e+00 -1.000000e+00
    outer loop
      vertex 1.036501e+01 2.401701e+01 2.000000e-03
      vertex 1.024700e+01 -1.442900e+01 2.000000e-03
      vertex 1.032700e+01 1.196900e+01 2.000000e-03
    endloop
  endfacet
  facet normal 0.000000e+00 0.000000e+00 -1.000000e+00
    outer loop
      vertex -1.878100e+01 2.379900e+01 2.000000e-03
      vertex -2.847900e+01 -2.570700e+01 2.000000e-03
      vertex -2.875900e+01 1.167500e+01 2.000000e-03
    endloop
  endfacet
  facet normal -9.059048e-01 4.234817e-01 0.000000e+00
    outer loop
      vertex -4.878500e+01 -2.411300e+01 2.000000e-03
      vertex -5.671700e+01 -4.108100e+01 2.000000e-03
      vertex -5.671700e+01 -4.108100e+01 3.298000e+00
    endloop
  endfacet
  facet normal -9.059048e-01 4.234817e-01 0.000000e+00
    outer loop
      vertex -4.878500e+01 -2.411300e+01 3.298000e+00
      vertex -4.878500e+01 -2.411300e+01 1.380000e-01
      vertex -5.671700e+01 -4.108100e+01 3.298000e+00
    endloop
  endfacet
  facet normal -9.059047e-01 4.234816e-01 0.000000e+00
    outer loop
      vertex -4.878500e+01 -2.411300e+01 2.000000e-03
      vertex -5.671700e+01 -4.108100e+01 3.298000e+00
      vertex -4.878500e+01 -2.411300e+01 1.380000e-01
    endloop
  endfacet
  facet normal 0.000000e+00 0.000000e+00 -1.000000e+00
    outer loop
      vertex -2.892100e+01 3.323500e+01 1.380000e-01
      vertex -2.847900e+01 -2.570700e+01 1.380000e-01
      vertex -3.884500e+01 3.687000e+00 1.380000e-01
    endloop
  endfacet
  facet normal 0.000000e+00 0.000000e+00 1.000000e+00
    outer loop
      vertex -2.847900e+01 -2.570700e+01 1.380000e-01
      vertex -2.889700e+01 3.015100e+01 1.380000e-01
      vertex -2.892100e+01 3.323500e+01 1.380000e-01
    endloop
  endfacet
  facet normal 0.000000e+00 0.000000e+00 -1.000000e+00
    outer loop
      vertex -2.847900e+01 -2.570700e+01 1.380000e-01
      vertex -2.881700e+01 1.939100e+01 1.380000e-01
      vertex -2.889700e+01 3.015100e+01 1.380000e-01
    endloop
  endfacet
  facet normal 0.000000e+00 0.000000e+00 1.000000e+00
    outer loop
      vertex -2.847900e+01 -2.570700e+01 1.380000e-01
      vertex -2.875900e+01 1.167500e+01 1.380000e-01
      vertex -2.881700e+01 1.939100e+01 1.380000e-01
    endloop
  endfacet
  facet normal 9.999719e-01 7.489992e-03 0.000000e+00
    outer loop
      vertex -2.875900e+01 1.167500e+01 1.380000e-01
      vertex -2.847900e+01 -2.570700e+01 1.380000e-01
      vertex -2.847900e+01 -2.570700e+01 2.000000e-03
    endloop
  endfacet
  facet normal 9.999719e-01 7.489992e-03 0.000000e+00
    outer loop
      vertex -2.847900e+01 -2.570700e+01 2.000000e-03
      vertex -2.875900e+01 1.167500e+01 2.000000e-03
      vertex -2.875900e+01 1.167500e+01 1.380000e-01
    endloop
  endfacet
  facet normal 0.000000e+00 0.000000e+00 -1.000000e+00
    outer loop
      vertex -4.878500e+01 -2.411300e+01 1.380000e-01
      vertex -3.884500e+01 3.687000e+00 1.380000e-01
      vertex -2.847900e+01 -2.570700e+01 1.380000e-01
    endloop
  endfacet
  facet normal 0.000000e+00 0.000000e+00 -1.000000e+00
    outer loop
      vertex -4.878500e+01 -2.411300e+01 1.380000e-01
      vertex -2.847900e+01 -2.570700e+01 1.380000e-01
      vertex -4.877100e+01 -2.585900e+01 1.380000e-01
    endloop
  endfacet
  facet normal 7.490400e-03 -9.999719e-01 0.000000e+00
    outer loop
      vertex -4.877100e+01 -2.585900e+01 1.380000e-01
      vertex -4.877100e+01 -2.585900e+01 2.000000e-03
      vertex -2.847900e+01 -2.570700e+01 2.000000e-03
    endloop
  endfacet
  facet normal 7.490400e-03 -9.999719e-01 0.000000e+00
    outer loop
      vertex -2.847900e+01 -2.570700e+01 2.000000e-03
      vertex -2.847900e+01 -2.570700e+01 1.380000e-01
      vertex -4.877100e+01 -2.585900e+01 1.380000e-01
    endloop
  endfacet
  facet normal -9.999679e-01 -8.018038e-03 0.000000e+00
    outer loop
      vertex -4.878500e+01 -2.411300e+01 2.000000e-03
      vertex -4.877100e+01 -2.585900e+01 2.000000e-03
      vertex -4.877100e+01 -2.585900e+01 1.380000e-01
    endloop
  endfacet
  facet normal -9.999679e-01 -8.018038e-03 0.000000e+00
    outer loop
      vertex -4.877100e+01 -2.585900e+01 1.380000e-01
      vertex -4.878500e+01 -2.411300e+01 1.380000e-01
      vertex -4.878500e+01 -2.411300e+01 2.000000e-03
    endloop
  endfacet
  facet normal 0.000000e+00 0.000000e+00 -1.000000e+00
    outer loop
      vertex -1.821000e+00 3.723100e+01 2.000000e-03
      vertex -1.023300e+01 2.386300e+01 2.000000e-03
      vertex -1.878100e+01 2.379900e+01 2.000000e-03
    endloop
  endfacet
  facet normal 0.000000e+00 0.000000e+00 -1.000000e+00
    outer loop
      vertex -1.023300e+01 2.386300e+01 2.000000e-03
      vertex -1.821000e+00 3.723100e+01 2.000000e-03
      vertex -1.684998e+00 2.392700e+01 2.000000e-03
    endloop
  endfacet
  facet normal 0.000000e+00 0.000000e+00 -1.000000e+00
    outer loop
      vertex -1.684998e+00 2.392700e+01 2.000000e-03
      vertex -1.821000e+00 3.723100e+01 2.000000e-03
      vertex 1.036501e+01 2.401701e+01 2.000000e-03
    endloop
  endfacet
  facet normal 0.000000e+00 0.000000e+00 -1.000000e+00
    outer loop
      vertex -1.387100e+01 3.978500e+01 2.000000e-03
      vertex -1.671700e+01 3.238500e+01 2.000000e-03
      vertex -1.808100e+01 3.417900e+01 2.000000e-03
    endloop
  endfacet
  facet normal 0.000000e+00 0.000000e+00 -1.000000e+00
    outer loop
      vertex -1.955900e+01 3.022100e+01 2.000000e-03
      vertex -2.881700e+01 1.939100e+01 2.000000e-03
      vertex -2.889700e+01 3.015100e+01 2.000000e-03
    endloop
  endfacet
  facet normal 0.000000e+00 0.000000e+00 -1.000000e+00
    outer loop
      vertex -2.881700e+01 1.939100e+01 2.000000e-03
      vertex -1.955900e+01 3.022100e+01 2.000000e-03
      vertex -2.875900e+01 1.167500e+01 2.000000e-03
    endloop
  endfacet
  facet normal 0.000000e+00 0.000000e+00 -1.000000e+00
    outer loop
      vertex -2.875900e+01 1.167500e+01 2.000000e-03
      vertex -1.955900e+01 3.022100e+01 2.000000e-03
      vertex -1.878100e+01 2.379900e+01 2.000000e-03
    endloop
  endfacet
  facet normal 0.000000e+00 0.000000e+00 -1.000000e+00
    outer loop
      vertex -1.878100e+01 2.379900e+01 2.000000e-03
      vertex -1.955900e+01 3.022100e+01 2.000000e-03
      vertex -1.671700e+01 3.238500e+01 2.000000e-03
    endloop
  endfacet
  facet normal 0.000000e+00 0.000000e+00 -1.000000e+00
    outer loop
      vertex -1.878100e+01 2.379900e+01 2.000000e-03
      vertex -1.671700e+01 3.238500e+01 2.000000e-03
      vertex -1.821000e+00 3.723100e+01 2.000000e-03
    endloop
  endfacet
  facet normal 0.000000e+00 0.000000e+00 1.000000e+00
    outer loop
      vertex -1.821000e+00 3.723100e+01 2.000000e-03
      vertex -1.012100e+01 3.472900e+01 2.000000e-03
      vertex -1.671700e+01 3.238500e+01 2.000000e-03
    endloop
  endfacet
  facet normal 0.000000e+00 0.000000e+00 -1.000000e+00
    outer loop
      vertex -1.012100e+01 3.472900e+01 2.000000e-03
      vertex -1.671700e+01 3.238500e+01 2.000000e-03
      vertex -1.387100e+01 3.978500e+01 2.000000e-03
    endloop
  endfacet
  facet normal 9.999717e-01 7.516956e-03 0.000000e+00
    outer loop
      vertex -2.881700e+01 1.939100e+01 1.380000e-01
      vertex -2.875900e+01 1.167500e+01 1.380000e-01
      vertex -2.875900e+01 1.167500e+01 2.000000e-03
    endloop
  endfacet
  facet normal 9.999717e-01 7.516956e-03 0.000000e+00
    outer loop
      vertex -2.875900e+01 1.167500e+01 2.000000e-03
      vertex -2.881700e+01 1.939100e+01 2.000000e-03
      vertex -2.881700e+01 1.939100e+01 1.380000e-01
    endloop
  endfacet
  facet normal 9.999723e-01 7.434556e-03 0.000000e+00
    outer loop
      vertex -2.889700e+01 3.015100e+01 1.380000e-01
      vertex -2.881700e+01 1.939100e+01 1.380000e-01
      vertex -2.881700e+01 1.939100e+01 2.000000e-03
    endloop
  endfacet
  facet normal 9.999723e-01 7.434556e-03 0.000000e+00
    outer loop
      vertex -2.881700e+01 1.939100e+01 2.000000e-03
      vertex -2.889700e+01 3.015100e+01 2.000000e-03
      vertex -2.889700e+01 3.015100e+01 1.380000e-01
    endloop
  endfacet
  facet normal -6.986832e-01 7.154312e-01 -1.096818e-04
    outer loop
      vertex 1.024700e+01 -1.442900e+01 4.372000e+00
      vertex 6.915000e+00 -1.768300e+01 4.372000e+00
      vertex 1.315100e+01 -1.159100e+01 1.729800e+01
    endloop
  endfacet
  facet normal -3.490922e-04 1.000000e+00 0.000000e+00
    outer loop
      vertex 5.189700e+01 2.057300e+01 2.000000e-03
      vertex 4.617100e+01 2.057100e+01 2.000000e-03
      vertex 5.189700e+01 2.057300e+01 1.203000e+01
    endloop
  endfacet
  facet normal -3.490922e-04 1.000000e+00 0.000000e+00
    outer loop
      vertex 4.617100e+01 2.057100e+01 2.000000e-03
      vertex 4.617100e+01 2.057100e+01 1.203000e+01
      vertex 5.189700e+01 2.057300e+01 1.203000e+01
    endloop
  endfacet
  facet normal 3.473048e-04 -9.948797e-01 -1.010658e-01
    outer loop
      vertex 4.617100e+01 2.057100e+01 2.000000e-03
      vertex 5.131500e+01 2.057300e+01 0.000000e+00
      vertex 5.189700e+01 2.057300e+01 2.000000e-03
    endloop
  endfacet
  facet normal -6.987572e-01 7.153589e-01 0.000000e+00
    outer loop
      vertex 3.584999e+00 -2.093500e+01 4.372000e+00
      vertex 3.584999e+00 -2.093500e+01 9.702001e+00
      vertex 1.315100e+01 -1.159100e+01 1.729800e+01
    endloop
  endfacet
  facet normal -6.986799e-01 7.154345e-01 -1.924899e-05
    outer loop
      vertex 6.915000e+00 -1.768300e+01 1.616400e+01
      vertex 1.024700e+01 -1.442900e+01 1.729800e+01
      vertex 1.169900e+01 -1.301100e+01 1.729800e+01
    endloop
  endfacet
  facet normal -6.986781e-01 7.154362e-01 -2.953961e-05
    outer loop
      vertex 1.024700e+01 -1.442900e+01 1.729800e+01
      vertex 6.915000e+00 -1.768300e+01 1.616400e+01
      vertex 3.584999e+00 -2.093500e+01 1.616400e+01
    endloop
  endfacet
  facet normal -9.999951e-01 3.154201e-03 0.000000e+00
    outer loop
      vertex 1.036501e+01 2.401701e+01 2.000000e-03
      vertex 1.032700e+01 1.196900e+01 2.000000e-03
      vertex 1.036501e+01 2.401701e+01 9.506001e+00
    endloop
  endfacet
  facet normal -9.999954e-01 3.030588e-03 1.567028e-04
    outer loop
      vertex 1.032700e+01 1.196900e+01 2.000000e-03
      vertex 1.024700e+01 -1.442900e+01 2.000000e-03
      vertex 1.036501e+01 2.401701e+01 9.506001e+00
    endloop
  endfacet
  facet normal -6.986806e-01 7.154337e-01 0.000000e+00
    outer loop
      vertex 3.584999e+00 -2.093500e+01 1.503000e+01
      vertex 3.584999e+00 -2.093500e+01 1.729800e+01
      vertex 1.024700e+01 -1.442900e+01 1.729800e+01
    endloop
  endfacet
  facet normal -6.986806e-01 7.154337e-01 0.000000e+00
    outer loop
      vertex 3.584999e+00 -2.093500e+01 4.372000e+00
      vertex 3.584999e+00 -2.093500e+01 1.503000e+01
      vertex 1.024700e+01 -1.442900e+01 1.729800e+01
    endloop
  endfacet
  facet normal -6.986806e-01 7.154337e-01 0.000000e+00
    outer loop
      vertex 1.024700e+01 -1.442900e+01 4.372000e+00
      vertex 3.584999e+00 -2.093500e+01 4.372000e+00
      vertex 1.024700e+01 -1.442900e+01 1.729800e+01
    endloop
  endfacet
  facet normal -9.999954e-01 3.030818e-03 4.566327e-06
    outer loop
      vertex 1.024700e+01 -1.442900e+01 2.216200e+01
      vertex 1.028700e+01 -1.230999e+00 2.216200e+01
      vertex 1.032700e+01 1.196900e+01 2.083400e+01
    endloop
  endfacet
  facet normal -9.999954e-01 3.030588e-03 0.000000e+00
    outer loop
      vertex 1.024700e+01 -1.442900e+01 1.729800e+01
      vertex 1.024700e+01 -1.442900e+01 2.216200e+01
      vertex 1.032700e+01 1.196900e+01 1.950600e+01
    endloop
  endfacet
  facet normal -9.999954e-01 3.030588e-03 0.000000e+00
    outer loop
      vertex 1.024700e+01 -1.442900e+01 4.372000e+00
      vertex 1.024700e+01 -1.442900e+01 1.729800e+01
      vertex 1.032700e+01 1.196900e+01 1.950600e+01
    endloop
  endfacet
  facet normal -9.999954e-01 3.030588e-03 0.000000e+00
    outer loop
      vertex 1.024700e+01 -1.442900e+01 2.000000e-03
      vertex 1.024700e+01 -1.442900e+01 4.372000e+00
      vertex 1.032700e+01 1.196900e+01 1.950600e+01
    endloop
  endfacet
  facet normal -9.999950e-01 3.166638e-03 -1.841413e-04
    outer loop
      vertex 1.032700e+01 1.196900e+01 1.950600e+01
      vertex 1.034700e+01 1.799300e+01 1.450600e+01
      vertex 1.024700e+01 -1.442900e+01 2.000000e-03
    endloop
  endfacet
  facet normal -9.999955e-01 2.988925e-03 0.000000e+00
    outer loop
      vertex 1.034700e+01 1.799300e+01 1.732200e+01
      vertex 1.036501e+01 2.401701e+01 1.514000e+01
      vertex 1.034700e+01 1.799300e+01 1.450600e+01
    endloop
  endfacet
  facet normal -9.999956e-01 2.988925e-03 0.000000e+00
    outer loop
      vertex 1.034700e+01 1.799300e+01 1.950600e+01
      vertex 1.036501e+01 2.401701e+01 1.950600e+01
      vertex 1.036501e+01 2.401701e+01 1.732200e+01
    endloop
  endfacet
  facet normal 9.999951e-01 -3.154201e-03 0.000000e+00
    outer loop
      vertex 1.036501e+01 2.401701e+01 1.514000e+01
      vertex 1.036501e+01 2.401701e+01 1.950600e+01
      vertex 1.032700e+01 1.196900e+01 1.950600e+01
    endloop
  endfacet
  facet normal 9.999951e-01 -3.154201e-03 0.000000e+00
    outer loop
      vertex 1.036501e+01 2.401701e+01 1.232200e+01
      vertex 1.036501e+01 2.401701e+01 1.514000e+01
      vertex 1.032700e+01 1.196900e+01 1.950600e+01
    endloop
  endfacet
  facet normal 9.999951e-01 -3.154201e-03 0.000000e+00
    outer loop
      vertex 1.036501e+01 2.401701e+01 4.754000e+00
      vertex 1.036501e+01 2.401701e+01 9.506001e+00
      vertex 1.032700e+01 1.196900e+01 1.950600e+01
    endloop
  endfacet
  facet normal 9.999955e-01 -2.988925e-03 1.020951e-04
    outer loop
      vertex 1.034700e+01 1.799300e+01 2.000000e-03
      vertex 1.036501e+01 2.401701e+01 2.000000e-03
      vertex 1.032700e+01 1.196900e+01 1.950600e+01
    endloop
  endfacet
  facet normal 6.989329e-01 -7.151871e-01 0.000000e+00
    outer loop
      vertex 1.024700e+01 -1.442900e+01 1.973000e+01
      vertex 1.024700e+01 -1.442900e+01 1.729800e+01
      vertex 1.315100e+01 -1.159100e+01 1.729800e+01
    endloop
  endfacet
  facet normal 8.592775e-01 -2.604128e-03 5.115030e-01
    outer loop
      vertex 1.032700e+01 1.196900e+01 2.216200e+01
      vertex 1.024700e+01 -1.442900e+01 2.216200e+01
      vertex 1.315100e+01 -1.159100e+01 1.729800e+01
    endloop
  endfacet
  facet normal 9.928928e-01 1.190122e-01 0.000000e+00
    outer loop
      vertex 1.032700e+01 1.196900e+01 2.216200e+01
      vertex 1.315100e+01 -1.159100e+01 1.729800e+01
      vertex 1.315100e+01 -1.159100e+01 4.372000e+00
    endloop
  endfacet
  facet normal 9.928928e-01 1.190122e-01 0.000000e+00
    outer loop
      vertex 1.032700e+01 1.196900e+01 1.950600e+01
      vertex 1.032700e+01 1.196900e+01 2.216200e+01
      vertex 1.315100e+01 -1.159100e+01 4.372000e+00
    endloop
  endfacet
  facet normal 9.928928e-01 1.190122e-01 0.000000e+00
    outer loop
      vertex 1.032700e+01 1.196900e+01 1.950600e+01
      vertex 1.315100e+01 -1.159100e+01 4.372000e+00
      vertex 1.032700e+01 1.196900e+01 2.000000e-03
    endloop
  endfacet
  facet normal 8.336239e-01 -2.526191e-03 -5.523269e-01
    outer loop
      vertex 1.028700e+01 -1.230999e+00 2.000000e-03
      vertex 1.032700e+01 1.196900e+01 2.000000e-03
      vertex 1.315100e+01 -1.159100e+01 4.372000e+00
    endloop
  endfacet
  facet normal 6.989329e-01 -7.151873e-01 0.000000e+00
    outer loop
      vertex 1.024700e+01 -1.442900e+01 2.186000e+00
      vertex 1.024700e+01 -1.442900e+01 2.000000e-03
      vertex 1.315100e+01 -1.159100e+01 4.372000e+00
    endloop
  endfacet
  facet normal 0.000000e+00 0.000000e+00 -1.000000e+00
    outer loop
      vertex -1.878100e+01 2.379900e+01 2.000000e-03
      vertex -1.023300e+01 2.386300e+01 2.000000e-03
      vertex -1.348500e+01 -8.459000e+00 2.000000e-03
    endloop
  endfacet
  facet normal 0.000000e+00 0.000000e+00 -1.000000e+00
    outer loop
      vertex 1.024700e+01 -1.442900e+01 2.000000e-03
      vertex -1.348500e+01 -8.459000e+00 2.000000e-03
      vertex -1.023300e+01 2.386300e+01 2.000000e-03
    endloop
  endfacet
  facet normal 0.000000e+00 0.000000e+00 -1.000000e+00
    outer loop
      vertex -2.847900e+01 -2.570700e+01 2.000000e-03
      vertex -1.878100e+01 2.379900e+01 2.000000e-03
      vertex -1.775900e+01 -8.491000e+00 2.000000e-03
    endloop
  endfacet
  facet normal 0.000000e+00 0.000000e+00 -1.000000e+00
    outer loop
      vertex -1.348500e+01 -8.459000e+00 2.000000e-03
      vertex -1.775900e+01 -8.491000e+00 2.000000e-03
      vertex -1.878100e+01 2.379900e+01 2.000000e-03
    endloop
  endfacet
  facet normal 9.999999e-01 3.739107e-04 -1.454864e-05
    outer loop
      vertex 5.682900e+01 -6.586998e+00 1.203000e+01
      vertex 5.682900e+01 -7.055001e+00 2.000000e-03
      vertex 5.681700e+01 2.504100e+01 2.000000e-03
    endloop
  endfacet
  facet normal 0.000000e+00 0.000000e+00 -1.000000e+00
    outer loop
      vertex 5.682900e+01 -7.055001e+00 2.000000e-03
      vertex 5.520700e+01 -5.522999e+00 2.000000e-03
      vertex 5.681700e+01 2.504100e+01 2.000000e-03
    endloop
  endfacet
  facet normal 0.000000e+00 0.000000e+00 -1.000000e+00
    outer loop
      vertex -2.892100e+01 3.323500e+01 1.380000e-01
      vertex -3.884500e+01 3.687000e+00 1.380000e-01
      vertex -4.921300e+01 3.308300e+01 1.380000e-01
    endloop
  endfacet
  facet normal 0.000000e+00 0.000000e+00 -1.000000e+00
    outer loop
      vertex -4.878500e+01 -2.411300e+01 1.380000e-01
      vertex -4.921300e+01 3.308300e+01 1.380000e-01
      vertex -3.884500e+01 3.687000e+00 1.380000e-01
    endloop
  endfacet
  facet normal 0.000000e+00 0.000000e+00 -1.000000e+00
    outer loop
      vertex 5.189700e+01 2.057300e+01 2.000000e-03
      vertex 5.520700e+01 -5.522999e+00 2.000000e-03
      vertex 5.359701e+01 -3.608700e+01 2.000000e-03
    endloop
  endfacet
  facet normal 0.000000e+00 0.000000e+00 -1.000000e+00
    outer loop
      vertex 5.682900e+01 -7.055001e+00 2.000000e-03
      vertex 5.359701e+01 -3.608700e+01 2.000000e-03
      vertex 5.520700e+01 -5.522999e+00 2.000000e-03
    endloop
  endfacet
  facet normal -7.197764e-01 6.942060e-01 0.000000e+00
    outer loop
      vertex 1.036501e+01 2.401701e+01 9.506001e+00
      vertex 1.036501e+01 2.401701e+01 1.232200e+01
      vertex 2.312500e+01 3.724700e+01 1.514000e+01
    endloop
  endfacet
  facet normal 9.999951e-01 -3.154201e-03 0.000000e+00
    outer loop
      vertex 1.036501e+01 2.401701e+01 9.506001e+00
      vertex 1.036501e+01 2.401701e+01 1.232200e+01
      vertex 1.032700e+01 1.196900e+01 1.950600e+01
    endloop
  endfacet
  facet normal -7.197763e-01 6.942060e-01 0.000000e+00
    outer loop
      vertex 1.036501e+01 2.401701e+01 2.000000e-03
      vertex 1.036501e+01 2.401701e+01 4.754000e+00
      vertex 2.312500e+01 3.724700e+01 1.514000e+01
    endloop
  endfacet
  facet normal 9.999951e-01 -3.154201e-03 0.000000e+00
    outer loop
      vertex 1.036501e+01 2.401701e+01 2.000000e-03
      vertex 1.036501e+01 2.401701e+01 4.754000e+00
      vertex 1.032700e+01 1.196900e+01 1.950600e+01
    endloop
  endfacet
  facet normal -7.468999e-03 9.999722e-01 0.000000e+00
    outer loop
      vertex 1.036501e+01 2.401701e+01 1.732200e+01
      vertex 1.036501e+01 2.401701e+01 1.514000e+01
      vertex -1.684998e+00 2.392700e+01 1.950600e+01
    endloop
  endfacet
  facet normal -9.999955e-01 2.988925e-03 0.000000e+00
    outer loop
      vertex 1.036501e+01 2.401701e+01 1.514000e+01
      vertex 1.034700e+01 1.799300e+01 1.732200e+01
      vertex 1.036501e+01 2.401701e+01 1.732200e+01
    endloop
  endfacet
  facet normal 0.000000e+00 0.000000e+00 1.000000e+00
    outer loop
      vertex 1.032700e+01 1.196900e+01 1.950600e+01
      vertex 1.034700e+01 1.799300e+01 1.950600e+01
      vertex -1.684998e+00 2.392700e+01 1.950600e+01
    endloop
  endfacet
  facet normal -9.999941e-01 3.319475e-03 9.117491e-04
    outer loop
      vertex 1.032700e+01 1.196900e+01 1.950600e+01
      vertex 1.034700e+01 1.799300e+01 1.950600e+01
      vertex 1.036501e+01 2.401701e+01 1.732200e+01
    endloop
  endfacet
  facet normal 7.055120e-01 7.086980e-01 0.000000e+00
    outer loop
      vertex 1.032700e+01 1.196900e+01 2.083400e+01
      vertex 1.032700e+01 1.196900e+01 1.950600e+01
      vertex -1.684998e+00 2.392700e+01 1.950600e+01
    endloop
  endfacet
  facet normal -9.999954e-01 3.030588e-03 0.000000e+00
    outer loop
      vertex 1.032700e+01 1.196900e+01 2.083400e+01
      vertex 1.032700e+01 1.196900e+01 1.950600e+01
      vertex 1.024700e+01 -1.442900e+01 2.216200e+01
    endloop
  endfacet
  facet normal 9.999971e-01 2.416331e-03 0.000000e+00
    outer loop
      vertex 1.315100e+01 -1.159100e+01 4.372000e+00
      vertex 1.315100e+01 -1.159100e+01 1.083400e+01
      vertex 1.317300e+01 -2.069700e+01 1.729800e+01
    endloop
  endfacet
  facet normal -6.991858e-01 7.149400e-01 0.000000e+00
    outer loop
      vertex 1.315100e+01 -1.159100e+01 4.372000e+00
      vertex 1.169900e+01 -1.301100e+01 4.372000e+00
      vertex 1.315100e+01 -1.159100e+01 1.083400e+01
    endloop
  endfacet
  facet normal 2.481513e-02 -9.996920e-01 0.000000e+00
    outer loop
      vertex 3.584999e+00 -2.093500e+01 1.503000e+01
      vertex 3.584999e+00 -2.093500e+01 9.702001e+00
      vertex 1.317300e+01 -2.069700e+01 1.729800e+01
    endloop
  endfacet
  facet normal -6.987572e-01 7.153589e-01 0.000000e+00
    outer loop
      vertex 3.584999e+00 -2.093500e+01 9.702001e+00
      vertex 3.584999e+00 -2.093500e+01 1.503000e+01
      vertex 1.315100e+01 -1.159100e+01 1.729800e+01
    endloop
  endfacet
  facet normal 2.481513e-02 -9.996920e-01 0.000000e+00
    outer loop
      vertex 3.584999e+00 -2.093500e+01 1.729800e+01
      vertex 3.584999e+00 -2.093500e+01 1.616400e+01
      vertex 1.317300e+01 -2.069700e+01 1.729800e+01
    endloop
  endfacet
  facet normal -6.986781e-01 7.154362e-01 0.000000e+00
    outer loop
      vertex 3.584999e+00 -2.093500e+01 1.729800e+01
      vertex 6.915000e+00 -1.768300e+01 1.729800e+01
      vertex 3.584999e+00 -2.093500e+01 1.616400e+01
    endloop
  endfacet
  facet normal 0.000000e+00 0.000000e+00 1.000000e+00
    outer loop
      vertex 1.028700e+01 -1.230999e+00 2.216200e+01
      vertex 1.032700e+01 1.196900e+01 2.216200e+01
      vertex -1.312996e+00 -2.571700e+01 2.216200e+01
    endloop
  endfacet
  facet normal -9.999954e-01 3.030358e-03 0.000000e+00
    outer loop
      vertex 1.028700e+01 -1.230999e+00 2.216200e+01
      vertex 1.032700e+01 1.196900e+01 2.216200e+01
      vertex 1.032700e+01 1.196900e+01 2.083400e+01
    endloop
  endfacet
  facet normal 0.000000e+00 0.000000e+00 -1.000000e+00
    outer loop
      vertex 3.584999e+00 -2.093500e+01 4.372000e+00
      vertex 6.915000e+00 -1.768300e+01 4.372000e+00
      vertex 1.317300e+01 -2.069700e+01 4.372000e+00
    endloop
  endfacet
  facet normal -6.986781e-01 7.154362e-01 -1.145327e-04
    outer loop
      vertex 6.915000e+00 -1.768300e+01 4.372000e+00
      vertex 3.584999e+00 -2.093500e+01 4.372000e+00
      vertex 1.315100e+01 -1.159100e+01 1.729800e+01
    endloop
  endfacet
  facet normal 0.000000e+00 0.000000e+00 -1.000000e+00
    outer loop
      vertex 1.024700e+01 -1.442900e+01 4.372000e+00
      vertex 1.169900e+01 -1.301100e+01 4.372000e+00
      vertex 1.317300e+01 -2.069700e+01 4.372000e+00
    endloop
  endfacet
  facet normal -6.986799e-01 7.154345e-01 -2.223426e-04
    outer loop
      vertex 1.169900e+01 -1.301100e+01 4.372000e+00
      vertex 1.024700e+01 -1.442900e+01 4.372000e+00
      vertex 1.315100e+01 -1.159100e+01 1.083400e+01
    endloop
  endfacet
  facet normal 0.000000e+00 0.000000e+00 1.000000e+00
    outer loop
      vertex 1.024700e+01 -1.442900e+01 1.729800e+01
      vertex 6.915000e+00 -1.768300e+01 1.729800e+01
      vertex 1.317300e+01 -2.069700e+01 1.729800e+01
    endloop
  endfacet
  facet normal -6.986832e-01 7.154312e-01 2.952168e-05
    outer loop
      vertex 6.915000e+00 -1.768300e+01 1.729800e+01
      vertex 1.024700e+01 -1.442900e+01 1.729800e+01
      vertex 3.584999e+00 -2.093500e+01 1.616400e+01
    endloop
  endfacet
  facet normal 0.000000e+00 0.000000e+00 1.000000e+00
    outer loop
      vertex 1.315100e+01 -1.159100e+01 1.729800e+01
      vertex 1.169900e+01 -1.301100e+01 1.729800e+01
      vertex 1.317300e+01 -2.069700e+01 1.729800e+01
    endloop
  endfacet
  facet normal -6.991814e-01 7.149355e-01 3.533159e-03
    outer loop
      vertex 1.169900e+01 -1.301100e+01 1.729800e+01
      vertex 1.315100e+01 -1.159100e+01 1.729800e+01
      vertex 3.584999e+00 -2.093500e+01 1.503000e+01
    endloop
  endfacet
  facet normal 6.989329e-01 -7.151871e-01 -2.952890e-04
    outer loop
      vertex 1.315100e+01 -1.159100e+01 1.729800e+01
      vertex 1.169900e+01 -1.301100e+01 1.973000e+01
      vertex 1.024700e+01 -1.442900e+01 1.729800e+01
    endloop
  endfacet
  facet normal 6.987203e-01 -7.153947e-01 -5.433553e-04
    outer loop
      vertex 1.169900e+01 -1.301100e+01 1.973000e+01
      vertex 1.315100e+01 -1.159100e+01 1.729800e+01
      vertex 1.947900e+01 -5.411000e+00 1.797000e+01
    endloop
  endfacet
  facet normal 6.986799e-01 -7.154345e-01 0.000000e+00
    outer loop
      vertex 1.024700e+01 -1.442900e+01 2.216200e+01
      vertex 1.024700e+01 -1.442900e+01 1.973000e+01
      vertex 1.169900e+01 -1.301100e+01 1.973000e+01
    endloop
  endfacet
  facet normal 6.989329e-01 -7.151872e-01 0.000000e+00
    outer loop
      vertex 1.024700e+01 -1.442900e+01 2.216200e+01
      vertex 1.024700e+01 -1.442900e+01 1.973000e+01
      vertex 1.315100e+01 -1.159100e+01 1.729800e+01
    endloop
  endfacet
  facet normal 6.969672e-01 -7.170973e-01 2.874995e-03
    outer loop
      vertex 1.315100e+01 -1.159100e+01 4.372000e+00
      vertex 1.169900e+01 -1.301100e+01 2.186000e+00
      vertex 2.027100e+01 -4.636998e+00 1.282000e+01
    endloop
  endfacet
  facet normal 6.989329e-01 -7.151871e-01 3.285189e-04
    outer loop
      vertex 1.169900e+01 -1.301100e+01 2.186000e+00
      vertex 1.315100e+01 -1.159100e+01 4.372000e+00
      vertex 1.024700e+01 -1.442900e+01 4.372000e+00
    endloop
  endfacet
  facet normal 6.986799e-01 -7.154345e-01 0.000000e+00
    outer loop
      vertex 1.024700e+01 -1.442900e+01 4.372000e+00
      vertex 1.024700e+01 -1.442900e+01 2.186000e+00
      vertex 1.169900e+01 -1.301100e+01 2.186000e+00
    endloop
  endfacet
  facet normal 6.989329e-01 -7.151872e-01 0.000000e+00
    outer loop
      vertex 1.024700e+01 -1.442900e+01 4.372000e+00
      vertex 1.024700e+01 -1.442900e+01 2.186000e+00
      vertex 1.315100e+01 -1.159100e+01 4.372000e+00
    endloop
  endfacet
  facet normal -6.986916e-01 7.154229e-01 7.792157e-05
    outer loop
      vertex 3.584999e+00 -2.093500e+01 1.503000e+01
      vertex 6.915000e+00 -1.768300e+01 1.616400e+01
      vertex 1.169900e+01 -1.301100e+01 1.729800e+01
    endloop
  endfacet
  facet normal -6.986781e-01 7.154362e-01 0.000000e+00
    outer loop
      vertex 6.915000e+00 -1.768300e+01 1.616400e+01
      vertex 3.584999e+00 -2.093500e+01 1.503000e+01
      vertex 3.584999e+00 -2.093500e+01 1.616400e+01
    endloop
  endfacet
  facet normal -2.001136e-04 6.065106e-07 -1.000000e+00
    outer loop
      vertex 1.024700e+01 -1.442900e+01 2.000000e-03
      vertex 1.028700e+01 -1.230999e+00 2.000000e-03
      vertex 2.027100e+01 -4.636998e+00 0.000000e+00
    endloop
  endfacet
  facet normal 8.336233e-01 -2.526572e-03 -5.523275e-01
    outer loop
      vertex 1.024700e+01 -1.442900e+01 2.000000e-03
      vertex 1.028700e+01 -1.230999e+00 2.000000e-03
      vertex 1.315100e+01 -1.159100e+01 4.372000e+00
    endloop
  endfacet
  facet normal -2.000175e-04 6.639572e-07 -1.000000e+00
    outer loop
      vertex 1.032700e+01 1.196900e+01 2.000000e-03
      vertex 1.034700e+01 1.799300e+01 2.000000e-03
      vertex 2.027100e+01 -4.636998e+00 0.000000e+00
    endloop
  endfacet
  facet normal 9.999945e-01 -3.319476e-03 0.000000e+00
    outer loop
      vertex 1.032700e+01 1.196900e+01 2.000000e-03
      vertex 1.034700e+01 1.799300e+01 2.000000e-03
      vertex 1.032700e+01 1.196900e+01 1.950600e+01
    endloop
  endfacet
  facet normal -9.999954e-01 3.050875e-03 7.463741e-05
    outer loop
      vertex 1.034700e+01 1.799300e+01 1.450600e+01
      vertex 1.036501e+01 2.401701e+01 9.506001e+00
      vertex 1.024700e+01 -1.442900e+01 2.000000e-03
    endloop
  endfacet
  facet normal -9.999956e-01 2.988925e-03 0.000000e+00
    outer loop
      vertex 1.036501e+01 2.401701e+01 9.506001e+00
      vertex 1.034700e+01 1.799300e+01 1.450600e+01
      vertex 1.036501e+01 2.401701e+01 1.514000e+01
    endloop
  endfacet
  facet normal -9.999945e-01 3.319476e-03 0.000000e+00
    outer loop
      vertex 1.032700e+01 1.196900e+01 1.950600e+01
      vertex 1.034700e+01 1.799300e+01 1.732200e+01
      vertex 1.034700e+01 1.799300e+01 1.450600e+01
    endloop
  endfacet
  facet normal -9.999951e-01 2.988924e-03 -9.117501e-04
    outer loop
      vertex 1.034700e+01 1.799300e+01 1.732200e+01
      vertex 1.032700e+01 1.196900e+01 1.950600e+01
      vertex 1.036501e+01 2.401701e+01 1.732200e+01
    endloop
  endfacet
endsolid Default
