solid Leadership Louisville Center
facet normal -0.0 -0.0 1.0
outer loop
vertex -31.1491515986024 6.38720612489008 19.8900445208338
vertex -47.6211087822881 41.245494784674 19.8900445208338
vertex -51.7398195327599 9.01878083364507 19.8900445208338
endloop
endfacet
facet normal -0.0 -0.0 1.0
outer loop
vertex -47.6211087822881 41.245494784674 19.8900445208338
vertex -31.1491515986024 6.38720612489008 19.8900445208338
vertex -46.9476454155869 41.1594233095401 19.8900445208338
endloop
endfacet
facet normal -0.0 -0.0 1.0
outer loop
vertex -46.9476454155869 41.1594233095401 19.8900445208338
vertex -31.1491515986024 6.38720612489008 19.8900445208338
vertex -41.3419077844414 40.4429862604259 19.8900445208338
endloop
endfacet
facet normal -0.0 -0.0 1.0
outer loop
vertex -41.3419077844414 40.4429862604259 19.8900445208338
vertex -31.1491515986024 6.38720612489008 19.8900445208338
vertex -40.6684444177402 40.356914785292 19.8900445208338
endloop
endfacet
facet normal -0.0 -0.0 1.0
outer loop
vertex -40.6684444177402 40.356914785292 19.8900445208338
vertex -31.1491515986024 6.38720612489008 19.8900445208338
vertex -34.4639860164572 39.5639586819471 19.8900445208338
endloop
endfacet
facet normal -0.0 -0.0 1.0
outer loop
vertex -34.4639860164572 39.5639586819471 19.8900445208338
vertex -31.1491515986024 6.38720612489008 19.8900445208338
vertex -33.7905226497559 39.4778872068133 19.8900445208338
endloop
endfacet
facet normal -0.0 -0.0 1.0
outer loop
vertex -33.7905226497559 39.4778872068133 19.8900445208338
vertex -31.1491515986024 6.38720612489008 19.8900445208338
vertex -27.7039042148319 38.6999915510528 19.8900445208338
endloop
endfacet
facet normal -0.0 -0.0 1.0
outer loop
vertex -27.7039042148319 38.6999915510528 19.8900445208338
vertex -31.1491515986024 6.38720612489008 19.8900445208338
vertex -27.0304408481306 38.613920075919 19.8900445208338
endloop
endfacet
facet normal -0.126773084728407 -0.991931744117731 -8.70850639230292e-17
outer loop
vertex -31.1491515986024 6.38720612489008 19.8900445208338
vertex -51.7398195327599 9.01878083364507 -2.58013174047638
vertex -31.1491515986024 6.38720612489009 -2.58013174047638
endloop
endfacet
facet normal -0.126773084728407 -0.991931744117731 -8.70850639230292e-17
outer loop
vertex -51.7398195327599 9.01878083364507 -2.58013174047638
vertex -31.1491515986024 6.38720612489008 19.8900445208338
vertex -51.7398195327599 9.01878083364507 19.8900445208338
endloop
endfacet
facet normal 0.991931744117731 -0.126773084728408 3.83268198759685e-16
outer loop
vertex -27.0304408481306 38.613920075919 19.8900445208338
vertex -31.1491515986024 6.38720612489009 26.25725
vertex -31.1491515986024 6.38720612489008 19.8900445208338
endloop
endfacet
facet normal 0.991931744117731 -0.126773084728408 3.83268198759685e-16
outer loop
vertex -31.1491515986024 6.38720612489009 26.25725
vertex -27.0304408481306 38.613920075919 19.8900445208338
vertex -27.0304408481306 38.613920075919 26.25725
endloop
endfacet
facet normal 0.991931744117731 -0.126773084728408 3.83268198759685e-16
outer loop
vertex -27.0304408481306 38.613920075919 26.25725
vertex -27.0304408481306 38.613920075919 19.8900445208338
vertex -27.0304408481306 38.613920075919 20.9377945208338
endloop
endfacet
facet normal 0.991931744117731 -0.126773084728408 3.83268198759685e-16
outer loop
vertex -27.0304408481306 38.613920075919 26.25725
vertex -27.0304408481306 38.613920075919 20.9377945208338
vertex -27.0304408481306 38.613920075919 23.1737948386271
endloop
endfacet
facet normal 0.991931744117731 -0.126773084728408 3.83268198759685e-16
outer loop
vertex -27.0304408481306 38.613920075919 26.25725
vertex -27.0304408481306 38.613920075919 23.1737948386271
vertex -27.0304408481306 38.613920075919 25.52065
endloop
endfacet
facet normal -0.991931744117731 0.126773084728407 5.32248510335183e-16
outer loop
vertex -47.6211087822881 41.245494784674 19.8900445208338
vertex -51.7398195327599 9.01878083364507 -2.58013174047638
vertex -51.7398195327599 9.01878083364507 19.8900445208338
endloop
endfacet
facet normal -0.991931744117731 0.126773084728407 5.32248510335183e-16
outer loop
vertex -51.7398195327599 9.01878083364507 -2.58013174047638
vertex -47.6211087822881 41.245494784674 19.8900445208338
vertex -47.4818422100598 42.3351814021745 -2.58013174047638
endloop
endfacet
facet normal -0.991931744117731 0.126773084728407 5.32248510335183e-16
outer loop
vertex -47.4818422100598 42.3351814021745 -2.58013174047638
vertex -47.6211087822881 41.245494784674 19.8900445208338
vertex -47.4818422100598 42.3351814021745 19.8900445208338
endloop
endfacet
facet normal -0.0 -0.0 1.0
outer loop
vertex -34.4639860164572 39.5639586819471 19.8900445208338
vertex -40.5291778455118 41.4466014027926 19.8900445208338
vertex -40.6684444177402 40.356914785292 19.8900445208338
endloop
endfacet
facet normal -0.0 -0.0 1.0
outer loop
vertex -40.5291778455118 41.4466014027926 19.8900445208338
vertex -34.4639860164572 39.5639586819471 19.8900445208338
vertex -34.3247194442288 40.6536452994477 19.8900445208338
endloop
endfacet
facet normal -0.0 -0.0 1.0
outer loop
vertex -41.3419077844414 40.4429862604259 19.8900445208338
vertex -46.8083788433585 42.2491099270406 19.8900445208338
vertex -46.9476454155869 41.1594233095401 19.8900445208338
endloop
endfacet
facet normal -0.0 -0.0 1.0
outer loop
vertex -46.8083788433585 42.2491099270406 19.8900445208338
vertex -41.3419077844414 40.4429862604259 19.8900445208338
vertex -41.202641212213 41.5326728779264 19.8900445208338
endloop
endfacet
facet normal -0.0 -0.0 1.0
outer loop
vertex -46.9476454155869 41.1594233095401 19.8900445208338
vertex -47.4818422100598 42.3351814021745 19.8900445208338
vertex -47.6211087822881 41.245494784674 19.8900445208338
endloop
endfacet
facet normal -0.0 -0.0 1.0
outer loop
vertex -47.4818422100598 42.3351814021745 19.8900445208338
vertex -46.9476454155869 41.1594233095401 19.8900445208338
vertex -46.8083788433585 42.2491099270406 19.8900445208338
endloop
endfacet
facet normal 0.12677308472841 0.991931744117731 -6.2771309573887e-16
outer loop
vertex -46.9476454155869 41.1594233095401 20.9377945208338
vertex -41.3419077844414 40.4429862604259 19.8900445208338
vertex -46.9476454155869 41.1594233095401 19.8900445208338
endloop
endfacet
facet normal 0.12677308472841 0.991931744117731 -6.2771309573887e-16
outer loop
vertex -41.3419077844414 40.4429862604259 19.8900445208338
vertex -46.9476454155869 41.1594233095401 20.9377945208338
vertex -41.3419077844414 40.4429862604259 20.9377945208338
endloop
endfacet
facet normal 0.12677308472841 0.991931744117731 -6.2771309573887e-16
outer loop
vertex -41.3419077844414 40.4429862604259 20.9377945208338
vertex -46.9476454155869 41.1594233095401 20.9377945208338
vertex -46.9476454155869 41.1594233095401 23.1737948386271
endloop
endfacet
facet normal 0.12677308472841 0.991931744117731 -6.2771309573887e-16
outer loop
vertex -41.3419077844414 40.4429862604259 20.9377945208338
vertex -46.9476454155869 41.1594233095401 23.1737948386271
vertex -41.3419077844414 40.4429862604259 23.1737948386271
endloop
endfacet
facet normal 0.12677308472841 0.991931744117731 -6.2771309573887e-16
outer loop
vertex -41.3419077844414 40.4429862604259 23.1737948386271
vertex -46.9476454155869 41.1594233095401 23.1737948386271
vertex -46.9476454155869 41.1594233095401 24.0797486075068
endloop
endfacet
facet normal 0.12677308472841 0.991931744117731 -6.2771309573887e-16
outer loop
vertex -41.3419077844414 40.4429862604259 23.1737948386271
vertex -46.9476454155869 41.1594233095401 24.0797486075068
vertex -41.3419077844414 40.4429862604259 24.0797486075068
endloop
endfacet
facet normal 0.12677308472841 0.991931744117731 1.7849707187412e-15
outer loop
vertex -47.6211087822881 41.245494784674 26.25725
vertex -46.9476454155869 41.1594233095401 24.0797486075068
vertex -47.6211087822881 41.245494784674 24.0797486075068
endloop
endfacet
facet normal 0.12677308472841 0.991931744117731 1.7849707187412e-15
outer loop
vertex -46.9476454155869 41.1594233095401 24.0797486075068
vertex -47.6211087822881 41.245494784674 26.25725
vertex -46.9476454155869 41.1594233095401 25.52065
endloop
endfacet
facet normal 0.12677308472841 0.991931744117731 1.7849707187412e-15
outer loop
vertex -46.9476454155869 41.1594233095401 25.52065
vertex -47.6211087822881 41.245494784674 26.25725
vertex -46.9476454155869 41.1594233095401 26.25725
endloop
endfacet
facet normal 0.126773084728411 0.991931744117731 4.13137715559714e-15
outer loop
vertex -47.6211087822882 41.2454947846739 20.9377945208338
vertex -46.9476454155869 41.1594233095401 19.8900445208338
vertex -47.6211087822881 41.245494784674 19.8900445208338
endloop
endfacet
facet normal 0.126773084728411 0.991931744117731 4.13137715559714e-15
outer loop
vertex -46.9476454155869 41.1594233095401 19.8900445208338
vertex -47.6211087822882 41.2454947846739 20.9377945208338
vertex -46.9476454155869 41.1594233095401 20.9377945208338
endloop
endfacet
facet normal -0.087495896822855 -0.684608706371506 -0.723640371454977
outer loop
vertex -47.4818422100598 42.3351814021745 19.8900445208338
vertex -46.9476454155869 41.1594233095401 20.9377945208338
vertex -47.6211087822882 41.2454947846739 20.9377945208338
endloop
endfacet
facet normal -0.087495896822855 -0.684608706371506 -0.723640371454977
outer loop
vertex -46.9476454155869 41.1594233095401 20.9377945208338
vertex -47.4818422100598 42.3351814021745 19.8900445208338
vertex -46.8083788433585 42.2491099270406 19.8900445208338
endloop
endfacet
facet normal 0.991931744117733 -0.12677308472839 2.11835263744186e-14
outer loop
vertex -47.4818422100598 42.3351814021745 19.8900445208338
vertex -47.6211087822882 41.2454947846739 20.9377945208338
vertex -47.6211087822881 41.245494784674 19.8900445208338
endloop
endfacet
facet normal -0.0 -0.0 1.0
outer loop
vertex -46.9476454155869 41.1594233095401 26.25725
vertex -47.4818422100598 42.3351814021745 26.25725
vertex -47.6211087822881 41.245494784674 26.25725
endloop
endfacet
facet normal -0.0 -0.0 1.0
outer loop
vertex -47.4818422100598 42.3351814021745 26.25725
vertex -46.9476454155869 41.1594233095401 26.25725
vertex -46.8083788433585 42.2491099270406 26.25725
endloop
endfacet
facet normal 0.991931744117731 -0.126773084728405 1.51475870445229e-16
outer loop
vertex -46.8780121294727 41.7042666182904 24.8001993037534
vertex -46.9476454155869 41.1594233095401 24.0797486075068
vertex -46.9476454155869 41.1594233095401 23.1737948386271
endloop
endfacet
facet normal 0.991931744117731 -0.126773084728405 1.51475870445229e-16
outer loop
vertex -46.9476454155869 41.1594233095401 24.0797486075068
vertex -46.9476454155869 41.1594233095401 26.25725
vertex -46.9476454155869 41.1594233095401 25.52065
endloop
endfacet
facet normal 0.991931744117731 -0.126773084728405 1.51475870445229e-16
outer loop
vertex -46.9476454155869 41.1594233095401 26.25725
vertex -46.9476454155869 41.1594233095401 24.0797486075068
vertex -46.8083788433585 42.2491099270406 26.25725
endloop
endfacet
facet normal 0.991931744117731 -0.126773084728405 1.51475870445229e-16
outer loop
vertex -46.8083788433585 42.2491099270406 26.25725
vertex -46.9476454155869 41.1594233095401 24.0797486075068
vertex -46.8780121294727 41.7042666182904 24.8001993037534
endloop
endfacet
facet normal 0.991931744117731 -0.126773084728405 1.51475870445229e-16
outer loop
vertex -46.8083788433585 42.2491099270406 26.25725
vertex -46.8780121294727 41.7042666182904 24.8001993037534
vertex -46.8083788433585 42.2491099270406 25.52065
endloop
endfacet
facet normal 0.126773084728406 0.991931744117731 -0.0
outer loop
vertex -47.4818422100598 42.3351814021745 26.25725
vertex -46.8083788433585 42.2491099270406 25.52065
vertex -47.4818422100598 42.3351814021745 25.52065
endloop
endfacet
facet normal 0.126773084728406 0.991931744117731 -0.0
outer loop
vertex -46.8083788433585 42.2491099270406 25.52065
vertex -47.4818422100598 42.3351814021745 26.25725
vertex -46.8083788433585 42.2491099270406 26.25725
endloop
endfacet
facet normal 0.126773084728405 0.991931744117732 -1.6366040741279e-16
outer loop
vertex -47.6211087822881 41.2454947846739 23.1737948386271
vertex -46.9476454155869 41.1594233095401 20.9377945208338
vertex -47.6211087822882 41.2454947846739 20.9377945208338
endloop
endfacet
facet normal 0.126773084728405 0.991931744117732 -1.6366040741279e-16
outer loop
vertex -46.9476454155869 41.1594233095401 20.9377945208338
vertex -47.6211087822881 41.2454947846739 23.1737948386271
vertex -46.9476454155869 41.1594233095401 23.1737948386271
endloop
endfacet
facet normal -0.100815030849598 -0.788823823275773 0.606294734751497
outer loop
vertex -46.8083788433585 42.2491099270406 25.52065
vertex -47.5514754961739 41.7903380934242 24.8001993037534
vertex -46.8780121294727 41.7042666182904 24.8001993037534
endloop
endfacet
facet normal -0.100815030849598 -0.788823823275773 0.606294734751497
outer loop
vertex -47.5514754961739 41.7903380934242 24.8001993037534
vertex -46.8083788433585 42.2491099270406 25.52065
vertex -47.4818422100598 42.3351814021745 25.52065
endloop
endfacet
facet normal 0.991931744117734 -0.126773084728389 -1.38273670851295e-17
outer loop
vertex -46.8083788433585 42.2491099270406 19.8900445208338
vertex -46.9476454155869 41.1594233095401 20.9377945208338
vertex -46.9476454155869 41.1594233095401 19.8900445208338
endloop
endfacet
facet normal -0.120108383261428 -0.93978401130579 0.319968730291454
outer loop
vertex -46.8780121294727 41.7042666182904 24.8001993037534
vertex -47.6211087822881 41.2454947846739 23.1737948386271
vertex -46.9476454155869 41.1594233095401 23.1737948386271
endloop
endfacet
facet normal -0.120108383261428 -0.93978401130579 0.319968730291454
outer loop
vertex -47.6211087822881 41.2454947846739 23.1737948386271
vertex -46.8780121294727 41.7042666182904 24.8001993037534
vertex -47.5514754961739 41.7903380934242 24.8001993037534
endloop
endfacet
facet normal -0.991931744117732 0.1267730847284 2.40941306426944e-15
outer loop
vertex -47.4818422100598 42.3351814021745 26.25725
vertex -47.6211087822881 41.245494784674 24.0797486075068
vertex -47.6211087822881 41.245494784674 26.25725
endloop
endfacet
facet normal -0.991931744117732 0.1267730847284 2.40941306426944e-15
outer loop
vertex -47.6211087822881 41.245494784674 24.0797486075068
vertex -47.4818422100598 42.3351814021745 26.25725
vertex -47.5514754961739 41.7903380934242 24.8001993037534
endloop
endfacet
facet normal -0.991931744117732 0.1267730847284 2.40941306426944e-15
outer loop
vertex -47.5514754961739 41.7903380934242 24.8001993037534
vertex -47.4818422100598 42.3351814021745 26.25725
vertex -47.4818422100598 42.3351814021745 25.52065
endloop
endfacet
facet normal -0.991931744117732 0.1267730847284 2.40941306426944e-15
outer loop
vertex -47.5514754961739 41.7903380934242 24.8001993037534
vertex -47.6211087822881 41.2454947846739 23.1737948386271
vertex -47.6211087822881 41.245494784674 24.0797486075068
endloop
endfacet
facet normal -0.0 -0.0 1.0
outer loop
vertex -40.6684444177402 40.356914785292 19.8900445208338
vertex -41.202641212213 41.5326728779264 19.8900445208338
vertex -41.3419077844414 40.4429862604259 19.8900445208338
endloop
endfacet
facet normal -0.0 -0.0 1.0
outer loop
vertex -41.202641212213 41.5326728779264 19.8900445208338
vertex -40.6684444177402 40.356914785292 19.8900445208338
vertex -40.5291778455118 41.4466014027926 19.8900445208338
endloop
endfacet
facet normal 0.126773084728402 0.991931744117732 1.40857320835238e-15
outer loop
vertex -41.3419077844414 40.4429862604259 25.52065
vertex -40.6684444177402 40.356914785292 24.0797486075068
vertex -41.3419077844414 40.4429862604259 24.0797486075068
endloop
endfacet
facet normal 0.126773084728402 0.991931744117732 1.40857320835238e-15
outer loop
vertex -40.6684444177402 40.356914785292 24.0797486075068
vertex -41.3419077844414 40.4429862604259 25.52065
vertex -40.6684444177402 40.356914785292 25.52065
endloop
endfacet
facet normal 0.126773084728402 0.991931744117732 1.40857320835238e-15
outer loop
vertex -40.6684444177402 40.356914785292 25.52065
vertex -41.3419077844414 40.4429862604259 25.52065
vertex -41.3419077844414 40.4429862604259 26.25725
endloop
endfacet
facet normal 0.126773084728402 0.991931744117732 1.40857320835238e-15
outer loop
vertex -40.6684444177402 40.356914785292 25.52065
vertex -41.3419077844414 40.4429862604259 26.25725
vertex -40.6684444177402 40.356914785292 26.25725
endloop
endfacet
facet normal 0.126773084728407 0.991931744117731 -7.53360188570186e-15
outer loop
vertex -47.6211087822881 41.245494784674 24.0797486075068
vertex -46.9476454155869 41.1594233095401 23.1737948386271
vertex -47.6211087822881 41.2454947846739 23.1737948386271
endloop
endfacet
facet normal 0.126773084728407 0.991931744117731 -7.53360188570186e-15
outer loop
vertex -46.9476454155869 41.1594233095401 23.1737948386271
vertex -47.6211087822881 41.245494784674 24.0797486075068
vertex -46.9476454155869 41.1594233095401 24.0797486075068
endloop
endfacet
facet normal 0.126773084728404 0.991931744117732 -0.0
outer loop
vertex -41.3419077844414 40.4429862604259 20.9377945208338
vertex -40.6684444177402 40.356914785292 19.8900445208338
vertex -41.3419077844414 40.4429862604259 19.8900445208338
endloop
endfacet
facet normal 0.126773084728404 0.991931744117732 -0.0
outer loop
vertex -40.6684444177402 40.356914785292 19.8900445208338
vertex -41.3419077844414 40.4429862604259 20.9377945208338
vertex -40.6684444177402 40.356914785292 20.9377945208338
endloop
endfacet
facet normal 0.126773084728407 0.991931744117731 -6.24488647369563e-16
outer loop
vertex -40.6684444177402 40.356914785292 20.9377945208338
vertex -34.4639860164572 39.5639586819471 19.8900445208338
vertex -40.6684444177402 40.356914785292 19.8900445208338
endloop
endfacet
facet normal 0.126773084728407 0.991931744117731 -6.24488647369563e-16
outer loop
vertex -34.4639860164572 39.5639586819471 19.8900445208338
vertex -40.6684444177402 40.356914785292 20.9377945208338
vertex -34.4639860164572 39.5639586819471 20.9377945208338
endloop
endfacet
facet normal 0.126773084728407 0.991931744117731 -6.24488647369563e-16
outer loop
vertex -34.4639860164572 39.5639586819471 20.9377945208338
vertex -40.6684444177402 40.356914785292 20.9377945208338
vertex -40.6684444177402 40.356914785292 23.1737948386271
endloop
endfacet
facet normal 0.126773084728407 0.991931744117731 -6.24488647369563e-16
outer loop
vertex -34.4639860164572 39.5639586819471 20.9377945208338
vertex -40.6684444177402 40.356914785292 23.1737948386271
vertex -34.4639860164572 39.5639586819471 23.1737948386271
endloop
endfacet
facet normal 0.126773084728407 0.991931744117731 -6.24488647369563e-16
outer loop
vertex -34.4639860164572 39.5639586819471 23.1737948386271
vertex -40.6684444177402 40.356914785292 23.1737948386271
vertex -40.6684444177402 40.356914785292 24.0797486075068
endloop
endfacet
facet normal 0.126773084728407 0.991931744117731 -6.24488647369563e-16
outer loop
vertex -34.4639860164572 39.5639586819471 23.1737948386271
vertex -40.6684444177402 40.356914785292 24.0797486075068
vertex -34.4639860164572 39.5639586819471 24.0797486075068
endloop
endfacet
facet normal 0.126773084728407 0.991931744117731 1.41598675155422e-15
outer loop
vertex -40.6684444177402 40.356914785292 25.52065
vertex -34.4639860164572 39.5639586819471 24.0797486075068
vertex -40.6684444177402 40.356914785292 24.0797486075068
endloop
endfacet
facet normal 0.126773084728407 0.991931744117731 1.41598675155422e-15
outer loop
vertex -34.4639860164572 39.5639586819471 24.0797486075068
vertex -40.6684444177402 40.356914785292 25.52065
vertex -34.4639860164572 39.5639586819471 25.52065
endloop
endfacet
facet normal 0.126773084728407 0.991931744117731 1.41598675155422e-15
outer loop
vertex -34.4639860164572 39.5639586819471 25.52065
vertex -40.6684444177402 40.356914785292 25.52065
vertex -40.6684444177402 40.356914785292 26.25725
endloop
endfacet
facet normal 0.126773084728407 0.991931744117731 1.41598675155422e-15
outer loop
vertex -34.4639860164572 39.5639586819471 25.52065
vertex -40.6684444177402 40.356914785292 26.25725
vertex -34.4639860164572 39.5639586819471 26.25725
endloop
endfacet
facet normal 0.126773084728405 0.991931744117732 -1.6366040741279e-16
outer loop
vertex -41.3419077844414 40.4429862604259 23.1737948386271
vertex -40.6684444177402 40.356914785292 20.9377945208338
vertex -41.3419077844414 40.4429862604259 20.9377945208338
endloop
endfacet
facet normal 0.126773084728405 0.991931744117732 -1.6366040741279e-16
outer loop
vertex -40.6684444177402 40.356914785292 20.9377945208338
vertex -41.3419077844414 40.4429862604259 23.1737948386271
vertex -40.6684444177402 40.356914785292 23.1737948386271
endloop
endfacet
facet normal 0.991931744117731 -0.126773084728405 1.46742249493816e-16
outer loop
vertex -40.598811131626 40.9017580940423 24.8001993037534
vertex -40.6684444177402 40.356914785292 24.0797486075068
vertex -40.6684444177402 40.356914785292 23.1737948386271
endloop
endfacet
facet normal 0.991931744117731 -0.126773084728405 1.46742249493816e-16
outer loop
vertex -40.6684444177402 40.356914785292 24.0797486075068
vertex -40.6684444177402 40.356914785292 26.25725
vertex -40.6684444177402 40.356914785292 25.52065
endloop
endfacet
facet normal 0.991931744117731 -0.126773084728405 1.46742249493816e-16
outer loop
vertex -40.6684444177402 40.356914785292 26.25725
vertex -40.6684444177402 40.356914785292 24.0797486075068
vertex -40.5291778455118 41.4466014027926 26.25725
endloop
endfacet
facet normal 0.991931744117731 -0.126773084728405 1.46742249493816e-16
outer loop
vertex -40.5291778455118 41.4466014027926 26.25725
vertex -40.6684444177402 40.356914785292 24.0797486075068
vertex -40.598811131626 40.9017580940423 24.8001993037534
endloop
endfacet
facet normal 0.991931744117731 -0.126773084728405 1.46742249493816e-16
outer loop
vertex -40.5291778455118 41.4466014027926 26.25725
vertex -40.598811131626 40.9017580940423 24.8001993037534
vertex -40.5291778455118 41.4466014027926 25.52065
endloop
endfacet
facet normal -0.100815030849598 -0.788823823275773 0.606294734751497
outer loop
vertex -40.5291778455118 41.4466014027926 25.52065
vertex -41.2722744983272 40.9878295691761 24.8001993037534
vertex -40.598811131626 40.9017580940423 24.8001993037534
endloop
endfacet
facet normal -0.100815030849598 -0.788823823275773 0.606294734751497
outer loop
vertex -41.2722744983272 40.9878295691761 24.8001993037534
vertex -40.5291778455118 41.4466014027926 25.52065
vertex -41.202641212213 41.5326728779264 25.52065
endloop
endfacet
facet normal -0.120108383261428 -0.93978401130579 0.319968730291454
outer loop
vertex -40.598811131626 40.9017580940423 24.8001993037534
vertex -41.3419077844414 40.4429862604259 23.1737948386271
vertex -40.6684444177402 40.356914785292 23.1737948386271
endloop
endfacet
facet normal -0.120108383261428 -0.93978401130579 0.319968730291454
outer loop
vertex -41.3419077844414 40.4429862604259 23.1737948386271
vertex -40.598811131626 40.9017580940423 24.8001993037534
vertex -41.2722744983272 40.9878295691761 24.8001993037534
endloop
endfacet
facet normal 0.991931744117734 -0.126773084728389 1.38273670851295e-17
outer loop
vertex -40.5291778455118 41.4466014027926 19.8900445208338
vertex -40.6684444177402 40.356914785292 20.9377945208338
vertex -40.6684444177402 40.356914785292 19.8900445208338
endloop
endfacet
facet normal 0.991931744117731 -0.12677308472841 9.01115641899224e-18
outer loop
vertex -41.2722744983272 40.9878295691761 24.8001993037534
vertex -41.3419077844414 40.4429862604259 24.0797486075068
vertex -41.3419077844414 40.4429862604259 23.1737948386271
endloop
endfacet
facet normal 0.991931744117731 -0.12677308472841 9.01115641899224e-18
outer loop
vertex -41.3419077844414 40.4429862604259 24.0797486075068
vertex -41.2722744983272 40.9878295691761 24.8001993037534
vertex -41.3419077844414 40.4429862604259 25.52065
endloop
endfacet
facet normal 0.991931744117731 -0.12677308472841 9.01115641899224e-18
outer loop
vertex -41.3419077844414 40.4429862604259 25.52065
vertex -41.2722744983272 40.9878295691761 24.8001993037534
vertex -41.202641212213 41.5326728779264 25.52065
endloop
endfacet
facet normal 0.991931744117731 -0.12677308472841 -0.0
outer loop
vertex -41.202641212213 41.5326728779264 19.8900445208338
vertex -41.3419077844414 40.4429862604259 20.9377945208338
vertex -41.3419077844414 40.4429862604259 19.8900445208338
endloop
endfacet
facet normal -0.991931744117731 0.12677308472841 0.0
outer loop
vertex -41.202641212213 41.5326728779264 26.25725
vertex -41.3419077844414 40.4429862604259 25.52065
vertex -41.3419077844414 40.4429862604259 26.25725
endloop
endfacet
facet normal -0.991931744117731 0.12677308472841 0.0
outer loop
vertex -41.3419077844414 40.4429862604259 25.52065
vertex -41.202641212213 41.5326728779264 26.25725
vertex -41.202641212213 41.5326728779264 25.52065
endloop
endfacet
facet normal -0.0 -0.0 1.0
outer loop
vertex -40.6684444177402 40.356914785292 26.25725
vertex -41.202641212213 41.5326728779264 26.25725
vertex -41.3419077844414 40.4429862604259 26.25725
endloop
endfacet
facet normal -0.0 -0.0 1.0
outer loop
vertex -41.202641212213 41.5326728779264 26.25725
vertex -40.6684444177402 40.356914785292 26.25725
vertex -40.5291778455118 41.4466014027926 26.25725
endloop
endfacet
facet normal 0.126773084728406 0.991931744117731 -0.0
outer loop
vertex -41.202641212213 41.5326728779264 26.25725
vertex -40.5291778455118 41.4466014027926 25.52065
vertex -41.202641212213 41.5326728779264 25.52065
endloop
endfacet
facet normal 0.126773084728406 0.991931744117731 -0.0
outer loop
vertex -40.5291778455118 41.4466014027926 25.52065
vertex -41.202641212213 41.5326728779264 26.25725
vertex -40.5291778455118 41.4466014027926 26.25725
endloop
endfacet
facet normal -0.0874958968228549 -0.684608706371506 -0.723640371454978
outer loop
vertex -41.202641212213 41.5326728779264 19.8900445208338
vertex -40.6684444177402 40.356914785292 20.9377945208338
vertex -41.3419077844414 40.4429862604259 20.9377945208338
endloop
endfacet
facet normal -0.0874958968228549 -0.684608706371506 -0.723640371454978
outer loop
vertex -40.6684444177402 40.356914785292 20.9377945208338
vertex -41.202641212213 41.5326728779264 19.8900445208338
vertex -40.5291778455118 41.4466014027926 19.8900445208338
endloop
endfacet
facet normal 0.12677308472841 0.991931744117731 1.41788171609396e-15
outer loop
vertex -46.9476454155869 41.1594233095401 25.52065
vertex -41.3419077844414 40.4429862604259 24.0797486075068
vertex -46.9476454155869 41.1594233095401 24.0797486075068
endloop
endfacet
facet normal 0.12677308472841 0.991931744117731 1.41788171609396e-15
outer loop
vertex -41.3419077844414 40.4429862604259 24.0797486075068
vertex -46.9476454155869 41.1594233095401 25.52065
vertex -41.3419077844414 40.4429862604259 25.52065
endloop
endfacet
facet normal 0.12677308472841 0.991931744117731 1.41788171609396e-15
outer loop
vertex -41.3419077844414 40.4429862604259 25.52065
vertex -46.9476454155869 41.1594233095401 25.52065
vertex -46.9476454155869 41.1594233095401 26.25725
endloop
endfacet
facet normal 0.12677308472841 0.991931744117731 1.41788171609396e-15
outer loop
vertex -41.3419077844414 40.4429862604259 25.52065
vertex -46.9476454155869 41.1594233095401 26.25725
vertex -41.3419077844414 40.4429862604259 26.25725
endloop
endfacet
facet normal 0.126773084728402 0.991931744117732 1.40857320835238e-15
outer loop
vertex -34.4639860164572 39.5639586819471 25.52065
vertex -33.7905226497559 39.4778872068133 24.0797486075068
vertex -34.4639860164572 39.5639586819471 24.0797486075068
endloop
endfacet
facet normal 0.126773084728402 0.991931744117732 1.40857320835238e-15
outer loop
vertex -33.7905226497559 39.4778872068133 24.0797486075068
vertex -34.4639860164572 39.5639586819471 25.52065
vertex -33.7905226497559 39.4778872068133 25.52065
endloop
endfacet
facet normal 0.126773084728402 0.991931744117732 1.40857320835238e-15
outer loop
vertex -33.7905226497559 39.4778872068133 25.52065
vertex -34.4639860164572 39.5639586819471 25.52065
vertex -34.4639860164572 39.5639586819471 26.25725
endloop
endfacet
facet normal 0.126773084728402 0.991931744117732 1.40857320835238e-15
outer loop
vertex -33.7905226497559 39.4778872068133 25.52065
vertex -34.4639860164572 39.5639586819471 26.25725
vertex -33.7905226497559 39.4778872068133 26.25725
endloop
endfacet
facet normal -0.0 -0.0 1.0
outer loop
vertex -33.7905226497559 39.4778872068133 19.8900445208338
vertex -34.3247194442288 40.6536452994477 19.8900445208338
vertex -34.4639860164572 39.5639586819471 19.8900445208338
endloop
endfacet
facet normal -0.0 -0.0 1.0
outer loop
vertex -34.3247194442288 40.6536452994477 19.8900445208338
vertex -33.7905226497559 39.4778872068133 19.8900445208338
vertex -33.6512560775276 40.5675738243138 19.8900445208338
endloop
endfacet
facet normal 0.126773084728401 0.991931744117732 -3.16069800706463e-15
outer loop
vertex -34.4639860164572 39.5639586819471 24.0797486075068
vertex -33.7905226497559 39.4778872068133 23.1737948386271
vertex -34.4639860164572 39.5639586819471 23.1737948386271
endloop
endfacet
facet normal 0.126773084728401 0.991931744117732 -3.16069800706463e-15
outer loop
vertex -33.7905226497559 39.4778872068133 23.1737948386271
vertex -34.4639860164572 39.5639586819471 24.0797486075068
vertex -33.7905226497559 39.4778872068133 24.0797486075068
endloop
endfacet
facet normal 0.126773084728401 0.991931744117732 -3.16069800706462e-15
outer loop
vertex -41.3419077844414 40.4429862604259 24.0797486075068
vertex -40.6684444177402 40.356914785292 23.1737948386271
vertex -41.3419077844414 40.4429862604259 23.1737948386271
endloop
endfacet
facet normal 0.126773084728401 0.991931744117732 -3.16069800706462e-15
outer loop
vertex -40.6684444177402 40.356914785292 23.1737948386271
vertex -41.3419077844414 40.4429862604259 24.0797486075068
vertex -40.6684444177402 40.356914785292 24.0797486075068
endloop
endfacet
facet normal 0.126773084728405 0.991931744117731 -6.34306666617075e-16
outer loop
vertex -33.7905226497559 39.4778872068133 20.9377945208338
vertex -27.7039042148319 38.6999915510528 19.8900445208338
vertex -33.7905226497559 39.4778872068133 19.8900445208338
endloop
endfacet
facet normal 0.126773084728405 0.991931744117731 -6.34306666617075e-16
outer loop
vertex -27.7039042148319 38.6999915510528 19.8900445208338
vertex -33.7905226497559 39.4778872068133 20.9377945208338
vertex -27.7039042148319 38.6999915510528 20.9377945208338
endloop
endfacet
facet normal 0.126773084728405 0.991931744117731 -6.34306666617075e-16
outer loop
vertex -27.7039042148319 38.6999915510528 20.9377945208338
vertex -33.7905226497559 39.4778872068133 20.9377945208338
vertex -33.7905226497559 39.4778872068133 23.1737948386271
endloop
endfacet
facet normal 0.126773084728405 0.991931744117731 -6.34306666617075e-16
outer loop
vertex -27.7039042148319 38.6999915510528 20.9377945208338
vertex -33.7905226497559 39.4778872068133 23.1737948386271
vertex -27.7039042148319 38.6999915510528 23.1737948386271
endloop
endfacet
facet normal 0.126773084728405 0.991931744117731 -6.34306666617075e-16
outer loop
vertex -27.7039042148319 38.6999915510528 23.1737948386271
vertex -33.7905226497559 39.4778872068133 23.1737948386271
vertex -33.7905226497559 39.4778872068133 24.0797486075068
endloop
endfacet
facet normal 0.126773084728405 0.991931744117731 -6.34306666617075e-16
outer loop
vertex -27.7039042148319 38.6999915510528 23.1737948386271
vertex -33.7905226497559 39.4778872068133 24.0797486075068
vertex -27.7039042148319 38.6999915510528 24.0797486075068
endloop
endfacet
facet normal -0.0 -0.0 1.0
outer loop
vertex -33.7905226497559 39.4778872068133 26.25725
vertex -34.3247194442288 40.6536452994477 26.25725
vertex -34.4639860164572 39.5639586819471 26.25725
endloop
endfacet
facet normal -0.0 -0.0 1.0
outer loop
vertex -34.3247194442288 40.6536452994477 26.25725
vertex -33.7905226497559 39.4778872068133 26.25725
vertex -33.6512560775276 40.5675738243138 26.25725
endloop
endfacet
facet normal 0.126773084728405 0.991931744117731 0.0
outer loop
vertex -34.3247194442288 40.6536452994477 26.25725
vertex -33.6512560775276 40.5675738243138 25.52065
vertex -34.3247194442288 40.6536452994477 25.52065
endloop
endfacet
facet normal 0.126773084728405 0.991931744117731 0.0
outer loop
vertex -33.6512560775276 40.5675738243138 25.52065
vertex -34.3247194442288 40.6536452994477 26.25725
vertex -33.6512560775276 40.5675738243138 26.25725
endloop
endfacet
facet normal -0.991931744117731 0.12677308472841 0.0
outer loop
vertex -34.3247194442288 40.6536452994477 26.25725
vertex -34.4639860164572 39.5639586819471 25.52065
vertex -34.4639860164572 39.5639586819471 26.25725
endloop
endfacet
facet normal -0.991931744117731 0.12677308472841 0.0
outer loop
vertex -34.4639860164572 39.5639586819471 25.52065
vertex -34.3247194442288 40.6536452994477 26.25725
vertex -34.3247194442288 40.6536452994477 25.52065
endloop
endfacet
facet normal 0.991931744117734 -0.126773084728389 -2.76547341702589e-17
outer loop
vertex -33.6512560775276 40.5675738243138 19.8900445208338
vertex -33.7905226497559 39.4778872068133 20.9377945208338
vertex -33.7905226497559 39.4778872068133 19.8900445208338
endloop
endfacet
facet normal 0.991931744117731 -0.12677308472841 -0.0
outer loop
vertex -34.3247194442288 40.6536452994477 19.8900445208338
vertex -34.4639860164572 39.5639586819471 20.9377945208338
vertex -34.4639860164572 39.5639586819471 19.8900445208338
endloop
endfacet
facet normal -0.120108383261428 -0.93978401130579 0.319968730291454
outer loop
vertex -33.7208893636417 40.0227305155635 24.8001993037534
vertex -34.4639860164572 39.5639586819471 23.1737948386271
vertex -33.7905226497559 39.4778872068133 23.1737948386271
endloop
endfacet
facet normal -0.120108383261428 -0.93978401130579 0.319968730291454
outer loop
vertex -34.4639860164572 39.5639586819471 23.1737948386271
vertex -33.7208893636417 40.0227305155635 24.8001993037534
vertex -34.394352730343 40.1088019906974 24.8001993037534
endloop
endfacet
facet normal 0.991931744117731 -0.12677308472841 9.01115641899224e-18
outer loop
vertex -34.394352730343 40.1088019906974 24.8001993037534
vertex -34.4639860164572 39.5639586819471 24.0797486075068
vertex -34.4639860164572 39.5639586819471 23.1737948386271
endloop
endfacet
facet normal 0.991931744117731 -0.12677308472841 9.01115641899224e-18
outer loop
vertex -34.4639860164572 39.5639586819471 24.0797486075068
vertex -34.394352730343 40.1088019906974 24.8001993037534
vertex -34.4639860164572 39.5639586819471 25.52065
endloop
endfacet
facet normal 0.991931744117731 -0.12677308472841 9.01115641899224e-18
outer loop
vertex -34.4639860164572 39.5639586819471 25.52065
vertex -34.394352730343 40.1088019906974 24.8001993037534
vertex -34.3247194442288 40.6536452994477 25.52065
endloop
endfacet
facet normal -0.100815030849598 -0.788823823275776 0.606294734751492
outer loop
vertex -33.6512560775276 40.5675738243138 25.52065
vertex -34.394352730343 40.1088019906974 24.8001993037534
vertex -33.7208893636417 40.0227305155635 24.8001993037534
endloop
endfacet
facet normal -0.100815030849598 -0.788823823275776 0.606294734751492
outer loop
vertex -34.394352730343 40.1088019906974 24.8001993037534
vertex -33.6512560775276 40.5675738243138 25.52065
vertex -34.3247194442288 40.6536452994477 25.52065
endloop
endfacet
facet normal 0.991931744117731 -0.126773084728405 1.46742249493816e-16
outer loop
vertex -33.7208893636417 40.0227305155635 24.8001993037534
vertex -33.7905226497559 39.4778872068133 24.0797486075068
vertex -33.7905226497559 39.4778872068133 23.1737948386271
endloop
endfacet
facet normal 0.991931744117731 -0.126773084728405 1.46742249493816e-16
outer loop
vertex -33.7905226497559 39.4778872068133 24.0797486075068
vertex -33.7905226497559 39.4778872068133 26.25725
vertex -33.7905226497559 39.4778872068133 25.52065
endloop
endfacet
facet normal 0.991931744117731 -0.126773084728405 1.46742249493816e-16
outer loop
vertex -33.7905226497559 39.4778872068133 26.25725
vertex -33.7905226497559 39.4778872068133 24.0797486075068
vertex -33.6512560775276 40.5675738243138 26.25725
endloop
endfacet
facet normal 0.991931744117731 -0.126773084728405 1.46742249493816e-16
outer loop
vertex -33.6512560775276 40.5675738243138 26.25725
vertex -33.7905226497559 39.4778872068133 24.0797486075068
vertex -33.7208893636417 40.0227305155635 24.8001993037534
endloop
endfacet
facet normal 0.991931744117731 -0.126773084728405 1.46742249493816e-16
outer loop
vertex -33.6512560775276 40.5675738243138 26.25725
vertex -33.7208893636417 40.0227305155635 24.8001993037534
vertex -33.6512560775276 40.5675738243138 25.52065
endloop
endfacet
facet normal -0.0874958968228549 -0.684608706371506 -0.723640371454978
outer loop
vertex -34.3247194442288 40.6536452994477 19.8900445208338
vertex -33.7905226497559 39.4778872068133 20.9377945208338
vertex -34.4639860164572 39.5639586819471 20.9377945208338
endloop
endfacet
facet normal -0.0874958968228549 -0.684608706371506 -0.723640371454978
outer loop
vertex -33.7905226497559 39.4778872068133 20.9377945208338
vertex -34.3247194442288 40.6536452994477 19.8900445208338
vertex -33.6512560775276 40.5675738243138 19.8900445208338
endloop
endfacet
facet normal 0.126773084728405 0.991931744117732 -1.6366040741279e-16
outer loop
vertex -34.4639860164572 39.5639586819471 23.1737948386271
vertex -33.7905226497559 39.4778872068133 20.9377945208338
vertex -34.4639860164572 39.5639586819471 20.9377945208338
endloop
endfacet
facet normal 0.126773084728405 0.991931744117732 -1.6366040741279e-16
outer loop
vertex -33.7905226497559 39.4778872068133 20.9377945208338
vertex -34.4639860164572 39.5639586819471 23.1737948386271
vertex -33.7905226497559 39.4778872068133 23.1737948386271
endloop
endfacet
facet normal -0.0 -0.0 1.0
outer loop
vertex -27.0304408481306 38.613920075919 19.8900445208338
vertex -27.5646376426035 39.7896781685533 19.8900445208338
vertex -27.7039042148319 38.6999915510528 19.8900445208338
endloop
endfacet
facet normal -0.0 -0.0 1.0
outer loop
vertex -27.5646376426035 39.7896781685533 19.8900445208338
vertex -27.0304408481306 38.613920075919 19.8900445208338
vertex -26.8911742759023 39.7036066934195 19.8900445208338
endloop
endfacet
facet normal 0.991931744117733 -0.12677308472839 -0.0
outer loop
vertex -26.8911742759023 39.7036066934195 19.8900445208338
vertex -27.0304408481306 38.613920075919 20.9377945208338
vertex -27.0304408481306 38.613920075919 19.8900445208338
endloop
endfacet
facet normal 0.126773084728404 0.991931744117732 -0.0
outer loop
vertex -27.7039042148319 38.6999915510528 20.9377945208338
vertex -27.0304408481306 38.613920075919 19.8900445208338
vertex -27.7039042148319 38.6999915510528 19.8900445208338
endloop
endfacet
facet normal 0.126773084728404 0.991931744117732 -0.0
outer loop
vertex -27.0304408481306 38.613920075919 19.8900445208338
vertex -27.7039042148319 38.6999915510528 20.9377945208338
vertex -27.0304408481306 38.613920075919 20.9377945208338
endloop
endfacet
facet normal 0.126773084728405 0.991931744117731 -0.0
outer loop
vertex -27.7039042148319 38.6999915510528 26.25725
vertex -27.0304408481306 38.613920075919 25.52065
vertex -27.7039042148319 38.6999915510528 25.52065
endloop
endfacet
facet normal 0.126773084728405 0.991931744117731 -0.0
outer loop
vertex -27.0304408481306 38.613920075919 25.52065
vertex -27.7039042148319 38.6999915510528 26.25725
vertex -27.0304408481306 38.613920075919 26.25725
endloop
endfacet
facet normal 0.126773084728405 0.991931744117731 4.96764338340184e-19
outer loop
vertex -27.7039042148319 38.6999915510528 24.0797486075068
vertex -27.0304408481306 38.613920075919 23.1737948386271
vertex -27.7039042148319 38.6999915510528 23.1737948386271
endloop
endfacet
facet normal 0.126773084728405 0.991931744117731 4.96764338340184e-19
outer loop
vertex -27.0304408481306 38.613920075919 23.1737948386271
vertex -27.7039042148319 38.6999915510528 24.0797486075068
vertex -27.0304408481306 38.613920075919 25.52065
endloop
endfacet
facet normal 0.126773084728405 0.991931744117731 4.96764338340184e-19
outer loop
vertex -27.0304408481306 38.613920075919 25.52065
vertex -27.7039042148319 38.6999915510528 24.0797486075068
vertex -27.7039042148319 38.6999915510528 25.52065
endloop
endfacet
facet normal 0.991931744117731 -0.126773084728406 2.66038716963236e-16
outer loop
vertex -26.9608075620164 39.1587633846692 24.8001993037534
vertex -27.0304408481306 38.613920075919 25.52065
vertex -27.0304408481306 38.613920075919 23.1737948386271
endloop
endfacet
facet normal 0.991931744117731 -0.126773084728406 2.66038716963236e-16
outer loop
vertex -27.0304408481306 38.613920075919 25.52065
vertex -26.9608075620164 39.1587633846692 24.8001993037534
vertex -27.0304408481306 38.613920075919 26.25725
endloop
endfacet
facet normal 0.991931744117731 -0.126773084728406 2.66038716963236e-16
outer loop
vertex -27.0304408481306 38.613920075919 26.25725
vertex -26.9608075620164 39.1587633846692 24.8001993037534
vertex -26.8911742759022 39.7036066934195 26.25725
endloop
endfacet
facet normal 0.991931744117731 -0.126773084728406 2.66038716963236e-16
outer loop
vertex -26.8911742759022 39.7036066934195 26.25725
vertex -26.9608075620164 39.1587633846692 24.8001993037534
vertex -26.8911742759022 39.7036066934195 25.52065
endloop
endfacet
facet normal -0.100815030849598 -0.788823823275776 0.606294734751492
outer loop
vertex -26.8911742759022 39.7036066934195 25.52065
vertex -27.6342709287177 39.2448348598031 24.8001993037534
vertex -26.9608075620164 39.1587633846692 24.8001993037534
endloop
endfacet
facet normal -0.100815030849598 -0.788823823275776 0.606294734751492
outer loop
vertex -27.6342709287177 39.2448348598031 24.8001993037534
vertex -26.8911742759022 39.7036066934195 25.52065
vertex -27.5646376426035 39.7896781685533 25.52065
endloop
endfacet
facet normal -0.120108383261428 -0.93978401130579 0.319968730291454
outer loop
vertex -26.9608075620164 39.1587633846692 24.8001993037534
vertex -27.7039042148319 38.6999915510528 23.1737948386271
vertex -27.0304408481306 38.613920075919 23.1737948386271
endloop
endfacet
facet normal -0.120108383261428 -0.93978401130579 0.319968730291454
outer loop
vertex -27.7039042148319 38.6999915510528 23.1737948386271
vertex -26.9608075620164 39.1587633846692 24.8001993037534
vertex -27.6342709287177 39.2448348598031 24.8001993037534
endloop
endfacet
facet normal 0.991931744117731 -0.126773084728406 6.30780949329463e-17
outer loop
vertex -27.6342709287177 39.2448348598031 24.8001993037534
vertex -27.7039042148319 38.6999915510528 24.0797486075068
vertex -27.7039042148319 38.6999915510528 23.1737948386271
endloop
endfacet
facet normal 0.991931744117731 -0.126773084728406 6.30780949329463e-17
outer loop
vertex -27.7039042148319 38.6999915510528 24.0797486075068
vertex -27.6342709287177 39.2448348598031 24.8001993037534
vertex -27.7039042148319 38.6999915510528 25.52065
endloop
endfacet
facet normal 0.991931744117731 -0.126773084728406 6.30780949329463e-17
outer loop
vertex -27.7039042148319 38.6999915510528 25.52065
vertex -27.6342709287177 39.2448348598031 24.8001993037534
vertex -27.5646376426035 39.7896781685533 25.52065
endloop
endfacet
facet normal 0.126773084728405 0.991931744117732 -1.6366040741279e-16
outer loop
vertex -27.7039042148319 38.6999915510528 23.1737948386271
vertex -27.0304408481306 38.613920075919 20.9377945208338
vertex -27.7039042148319 38.6999915510528 20.9377945208338
endloop
endfacet
facet normal 0.126773084728405 0.991931744117732 -1.6366040741279e-16
outer loop
vertex -27.0304408481306 38.613920075919 20.9377945208338
vertex -27.7039042148319 38.6999915510528 23.1737948386271
vertex -27.0304408481306 38.613920075919 23.1737948386271
endloop
endfacet
facet normal 0.126773084728405 0.991931744117731 -0.0
outer loop
vertex -27.5646376426035 39.7896781685533 26.25725
vertex -26.8911742759022 39.7036066934195 25.52065
vertex -27.5646376426035 39.7896781685533 25.52065
endloop
endfacet
facet normal 0.126773084728405 0.991931744117731 -0.0
outer loop
vertex -26.8911742759022 39.7036066934195 25.52065
vertex -27.5646376426035 39.7896781685533 26.25725
vertex -26.8911742759022 39.7036066934195 26.25725
endloop
endfacet
facet normal -0.991931744117731 0.126773084728405 0.0
outer loop
vertex -27.5646376426035 39.7896781685533 26.25725
vertex -27.7039042148319 38.6999915510528 25.52065
vertex -27.7039042148319 38.6999915510528 26.25725
endloop
endfacet
facet normal -0.991931744117731 0.126773084728405 0.0
outer loop
vertex -27.7039042148319 38.6999915510528 25.52065
vertex -27.5646376426035 39.7896781685533 26.25725
vertex -27.5646376426035 39.7896781685533 25.52065
endloop
endfacet
facet normal -0.0 -0.0 1.0
outer loop
vertex -27.0304408481306 38.613920075919 26.25725
vertex -27.5646376426035 39.7896781685533 26.25725
vertex -27.7039042148319 38.6999915510528 26.25725
endloop
endfacet
facet normal -0.0 -0.0 1.0
outer loop
vertex -27.5646376426035 39.7896781685533 26.25725
vertex -27.0304408481306 38.613920075919 26.25725
vertex -26.8911742759022 39.7036066934195 26.25725
endloop
endfacet
facet normal -0.0874958968228548 -0.684608706371508 -0.723640371454976
outer loop
vertex -27.5646376426035 39.7896781685533 19.8900445208338
vertex -27.0304408481306 38.613920075919 20.9377945208338
vertex -27.7039042148319 38.6999915510528 20.9377945208338
endloop
endfacet
facet normal -0.0874958968228548 -0.684608706371508 -0.723640371454976
outer loop
vertex -27.0304408481306 38.613920075919 20.9377945208338
vertex -27.5646376426035 39.7896781685533 19.8900445208338
vertex -26.8911742759023 39.7036066934195 19.8900445208338
endloop
endfacet
facet normal 0.991931744117731 -0.126773084728405 1.38273670851296e-17
outer loop
vertex -27.5646376426035 39.7896781685533 19.8900445208338
vertex -27.7039042148319 38.6999915510528 20.9377945208338
vertex -27.7039042148319 38.6999915510528 19.8900445208338
endloop
endfacet
facet normal 0.126773084728404 0.991931744117732 -0.0
outer loop
vertex -34.4639860164572 39.5639586819471 20.9377945208338
vertex -33.7905226497559 39.4778872068133 19.8900445208338
vertex -34.4639860164572 39.5639586819471 19.8900445208338
endloop
endfacet
facet normal 0.126773084728404 0.991931744117732 -0.0
outer loop
vertex -33.7905226497559 39.4778872068133 19.8900445208338
vertex -34.4639860164572 39.5639586819471 20.9377945208338
vertex -33.7905226497559 39.4778872068133 20.9377945208338
endloop
endfacet
facet normal 0.126773084728406 0.991931744117731 1.40115966515051e-15
outer loop
vertex -33.7905226497559 39.4778872068133 25.52065
vertex -27.7039042148319 38.6999915510528 24.0797486075068
vertex -33.7905226497559 39.4778872068133 24.0797486075068
endloop
endfacet
facet normal 0.126773084728406 0.991931744117731 1.40115966515051e-15
outer loop
vertex -27.7039042148319 38.6999915510528 24.0797486075068
vertex -33.7905226497559 39.4778872068133 25.52065
vertex -27.7039042148319 38.6999915510528 25.52065
endloop
endfacet
facet normal 0.126773084728406 0.991931744117731 1.40115966515051e-15
outer loop
vertex -27.7039042148319 38.6999915510528 25.52065
vertex -33.7905226497559 39.4778872068133 25.52065
vertex -33.7905226497559 39.4778872068133 26.25725
endloop
endfacet
facet normal 0.126773084728406 0.991931744117731 1.40115966515051e-15
outer loop
vertex -27.7039042148319 38.6999915510528 25.52065
vertex -33.7905226497559 39.4778872068133 26.25725
vertex -27.7039042148319 38.6999915510528 26.25725
endloop
endfacet
facet normal -0.0 -0.0 1.0
outer loop
vertex -27.7039042148319 38.6999915510528 19.8900445208338
vertex -33.6512560775276 40.5675738243138 19.8900445208338
vertex -33.7905226497559 39.4778872068133 19.8900445208338
endloop
endfacet
facet normal -0.0 -0.0 1.0
outer loop
vertex -33.6512560775276 40.5675738243138 19.8900445208338
vertex -27.7039042148319 38.6999915510528 19.8900445208338
vertex -27.5646376426035 39.7896781685533 19.8900445208338
endloop
endfacet
facet normal 0.991931744117731 -0.126773084728407 -4.07013566726905e-16
outer loop
vertex -31.1491515986024 6.38720612489009 -2.58013174047638
vertex -27.0304408481306 38.613920075919 19.8900445208338
vertex -31.1491515986024 6.38720612489008 19.8900445208338
endloop
endfacet
facet normal 0.991931744117731 -0.126773084728407 -4.07013566726905e-16
outer loop
vertex -27.0304408481306 38.613920075919 19.8900445208338
vertex -31.1491515986024 6.38720612489009 -2.58013174047638
vertex -26.8911742759023 39.7036066934195 -2.58013174047638
endloop
endfacet
facet normal 0.991931744117731 -0.126773084728407 -4.07013566726905e-16
outer loop
vertex -27.0304408481306 38.613920075919 19.8900445208338
vertex -26.8911742759023 39.7036066934195 -2.58013174047638
vertex -26.8911742759023 39.7036066934195 19.8900445208338
endloop
endfacet
facet normal 0.126773084728407 0.991931744117731 2.71491217546557e-16
outer loop
vertex -47.4818422100598 42.3351814021745 19.8900445208338
vertex -26.8911742759023 39.7036066934195 -2.58013174047638
vertex -47.4818422100598 42.3351814021745 -2.58013174047638
endloop
endfacet
facet normal 0.126773084728407 0.991931744117731 2.71491217546557e-16
outer loop
vertex -26.8911742759023 39.7036066934195 -2.58013174047638
vertex -47.4818422100598 42.3351814021745 19.8900445208338
vertex -26.8911742759023 39.7036066934195 19.8900445208338
endloop
endfacet
facet normal 0.126773084728407 0.991931744117731 2.71491217546557e-16
outer loop
vertex -26.8911742759023 39.7036066934195 19.8900445208338
vertex -47.4818422100598 42.3351814021745 19.8900445208338
vertex -46.8083788433585 42.2491099270406 19.8900445208338
endloop
endfacet
facet normal 0.126773084728407 0.991931744117731 2.71491217546557e-16
outer loop
vertex -26.8911742759023 39.7036066934195 19.8900445208338
vertex -46.8083788433585 42.2491099270406 19.8900445208338
vertex -41.202641212213 41.5326728779264 19.8900445208338
endloop
endfacet
facet normal 0.126773084728407 0.991931744117731 2.71491217546557e-16
outer loop
vertex -26.8911742759023 39.7036066934195 19.8900445208338
vertex -41.202641212213 41.5326728779264 19.8900445208338
vertex -40.5291778455118 41.4466014027926 19.8900445208338
endloop
endfacet
facet normal 0.126773084728407 0.991931744117731 2.71491217546557e-16
outer loop
vertex -26.8911742759023 39.7036066934195 19.8900445208338
vertex -40.5291778455118 41.4466014027926 19.8900445208338
vertex -34.3247194442288 40.6536452994477 19.8900445208338
endloop
endfacet
facet normal 0.126773084728407 0.991931744117731 2.71491217546557e-16
outer loop
vertex -26.8911742759023 39.7036066934195 19.8900445208338
vertex -34.3247194442288 40.6536452994477 19.8900445208338
vertex -33.6512560775276 40.5675738243138 19.8900445208338
endloop
endfacet
facet normal 0.126773084728407 0.991931744117731 2.71491217546557e-16
outer loop
vertex -26.8911742759023 39.7036066934195 19.8900445208338
vertex -33.6512560775276 40.5675738243138 19.8900445208338
vertex -27.5646376426035 39.7896781685533 19.8900445208338
endloop
endfacet
facet normal -0.991931744117731 0.126773084728407 -2.31208093258612e-17
outer loop
vertex -47.6211087822881 41.245494784674 26.25725
vertex -47.6211087822881 41.2454947846739 23.1737948386271
vertex -51.7398195327599 9.01878083364507 26.25725
endloop
endfacet
facet normal -0.991931744117731 0.126773084728407 -2.31208093258612e-17
outer loop
vertex -47.6211087822881 41.2454947846739 23.1737948386271
vertex -47.6211087822881 41.245494784674 26.25725
vertex -47.6211087822881 41.245494784674 24.0797486075068
endloop
endfacet
facet normal -0.991931744117731 0.126773084728407 -2.31208093258612e-17
outer loop
vertex -51.7398195327599 9.01878083364507 26.25725
vertex -47.6211087822881 41.245494784674 19.8900445208338
vertex -51.7398195327599 9.01878083364507 19.8900445208338
endloop
endfacet
facet normal -0.991931744117731 0.126773084728407 -2.31208093258612e-17
outer loop
vertex -47.6211087822881 41.245494784674 19.8900445208338
vertex -51.7398195327599 9.01878083364507 26.25725
vertex -47.6211087822882 41.2454947846739 20.9377945208338
endloop
endfacet
facet normal -0.991931744117731 0.126773084728407 -2.31208093258612e-17
outer loop
vertex -47.6211087822882 41.2454947846739 20.9377945208338
vertex -51.7398195327599 9.01878083364507 26.25725
vertex -47.6211087822881 41.2454947846739 23.1737948386271
endloop
endfacet
facet normal -0.126773084728407 -0.991931744117731 2.68910539260598e-16
outer loop
vertex -31.1491515986024 6.38720612489009 26.25725
vertex -51.7398195327599 9.01878083364507 19.8900445208338
vertex -31.1491515986024 6.38720612489008 19.8900445208338
endloop
endfacet
facet normal -0.126773084728407 -0.991931744117731 2.68910539260598e-16
outer loop
vertex -51.7398195327599 9.01878083364507 19.8900445208338
vertex -31.1491515986024 6.38720612489009 26.25725
vertex -51.7398195327599 9.01878083364507 26.25725
endloop
endfacet
facet normal -0.0 -0.0 1.0
outer loop
vertex -31.1491515986024 6.38720612489009 26.25725
vertex -47.6211087822881 41.245494784674 26.25725
vertex -51.7398195327599 9.01878083364507 26.25725
endloop
endfacet
facet normal -0.0 -0.0 1.0
outer loop
vertex -47.6211087822881 41.245494784674 26.25725
vertex -31.1491515986024 6.38720612489009 26.25725
vertex -46.9476454155869 41.1594233095401 26.25725
endloop
endfacet
facet normal -0.0 -0.0 1.0
outer loop
vertex -46.9476454155869 41.1594233095401 26.25725
vertex -31.1491515986024 6.38720612489009 26.25725
vertex -41.3419077844414 40.4429862604259 26.25725
endloop
endfacet
facet normal -0.0 -0.0 1.0
outer loop
vertex -41.3419077844414 40.4429862604259 26.25725
vertex -31.1491515986024 6.38720612489009 26.25725
vertex -40.6684444177402 40.356914785292 26.25725
endloop
endfacet
facet normal -0.0 -0.0 1.0
outer loop
vertex -40.6684444177402 40.356914785292 26.25725
vertex -31.1491515986024 6.38720612489009 26.25725
vertex -34.4639860164572 39.5639586819471 26.25725
endloop
endfacet
facet normal -0.0 -0.0 1.0
outer loop
vertex -34.4639860164572 39.5639586819471 26.25725
vertex -31.1491515986024 6.38720612489009 26.25725
vertex -33.7905226497559 39.4778872068133 26.25725
endloop
endfacet
facet normal -0.0 -0.0 1.0
outer loop
vertex -33.7905226497559 39.4778872068133 26.25725
vertex -31.1491515986024 6.38720612489009 26.25725
vertex -27.7039042148319 38.6999915510528 26.25725
endloop
endfacet
facet normal -0.0 -0.0 1.0
outer loop
vertex -27.7039042148319 38.6999915510528 26.25725
vertex -31.1491515986024 6.38720612489009 26.25725
vertex -27.0304408481306 38.613920075919 26.25725
endloop
endfacet
facet normal 0.0 0.0 -1.0
outer loop
vertex -47.4818422100598 42.3351814021745 -2.58013174047638
vertex -31.1491515986024 6.38720612489009 -2.58013174047638
vertex -51.7398195327599 9.01878083364507 -2.58013174047638
endloop
endfacet
facet normal 0.0 0.0 -1.0
outer loop
vertex -31.1491515986024 6.38720612489009 -2.58013174047638
vertex -47.4818422100598 42.3351814021745 -2.58013174047638
vertex -26.8911742759023 39.7036066934195 -2.58013174047638
endloop
endfacet
endsolid Leadership Louisville Center
