solid LoftsAtArtspaceGOOG
facet normal 0.0864937554809831 0.996252392851729 0.0
outer loop
vertex -1.05733559868201 -8.41078060876252 4.61451162310906
vertex 20.2305079496942 -10.2589724402723 3.93358171750905
vertex -1.05733559868201 -8.41078060876252 3.93358171750905
endloop
endfacet
facet normal 0.0864937554809831 0.996252392851729 0.0
outer loop
vertex 20.2305079496942 -10.2589724402723 3.93358171750905
vertex -1.05733559868201 -8.41078060876252 4.61451162310906
vertex 20.2305079496942 -10.2589724402723 4.61451162310906
endloop
endfacet
facet normal 0.996252392851729 -0.086493755480983 0.0
outer loop
vertex -0.727160791046628 -4.60776106894815 3.93358171750905
vertex -1.05733559868201 -8.41078060876252 4.61451162310906
vertex -1.05733559868201 -8.41078060876252 3.93358171750905
endloop
endfacet
facet normal 0.996252392851729 -0.086493755480983 0.0
outer loop
vertex -1.05733559868201 -8.41078060876252 4.61451162310906
vertex -0.727160791046628 -4.60776106894815 3.93358171750905
vertex -0.727160791046628 -4.60776106894815 4.61451162310906
endloop
endfacet
facet normal -0.996252392851729 0.0864937554809794 0.0
outer loop
vertex 20.5606827573296 -6.45595290045796 4.61451162310906
vertex 20.2305079496942 -10.2589724402723 3.93358171750905
vertex 20.2305079496942 -10.2589724402723 4.61451162310906
endloop
endfacet
facet normal -0.996252392851729 0.0864937554809794 0.0
outer loop
vertex 20.2305079496942 -10.2589724402723 3.93358171750905
vertex 20.5606827573296 -6.45595290045796 4.61451162310906
vertex 20.5606827573296 -6.45595290045796 3.93358171750905
endloop
endfacet
facet normal -0.0864937554809827 -0.996252392851729 0.0
outer loop
vertex 20.5606827573296 -6.45595290045796 4.61451162310906
vertex -0.727160791046628 -4.60776106894815 3.93358171750905
vertex 20.5606827573296 -6.45595290045796 3.93358171750905
endloop
endfacet
facet normal -0.0864937554809827 -0.996252392851729 0.0
outer loop
vertex -0.727160791046628 -4.60776106894815 3.93358171750905
vertex 20.5606827573296 -6.45595290045796 4.61451162310906
vertex -0.727160791046628 -4.60776106894815 4.61451162310906
endloop
endfacet
facet normal 0.0 0.0 1.0
outer loop
vertex 20.2305079496942 -10.2589724402723 3.93358171750905
vertex -0.727160791046628 -4.60776106894815 3.93358171750905
vertex -1.05733559868201 -8.41078060876252 3.93358171750905
endloop
endfacet
facet normal 0.0 0.0 1.0
outer loop
vertex -0.727160791046628 -4.60776106894815 3.93358171750905
vertex 20.2305079496942 -10.2589724402723 3.93358171750905
vertex 20.5606827573296 -6.45595290045796 3.93358171750905
endloop
endfacet
facet normal 0.996252392851729 -0.0864937554809832 -1.70732111655153e-17
outer loop
vertex 0.14308019317364 13.1478053454098 38.14272
vertex -0.501778643312599 5.72019215728485 40.465698336
vertex -0.501778643312599 5.72019215728485 38.14272
endloop
endfacet
facet normal 0.996252392851729 -0.0864937554809832 -1.70732111655153e-17
outer loop
vertex 0.223163907834595 14.0702256047193 0.0
vertex 0.14308019317364 13.1478053454098 38.14272
vertex 0.14308019317364 13.1478053454098 0.0
endloop
endfacet
facet normal 0.996252392851729 -0.0864937554809832 -1.70732111655153e-17
outer loop
vertex -0.501778643312599 5.72019215728485 40.465698336
vertex -0.955997702216982 0.48840609601427 43.7008034736
vertex -0.955997702216982 0.48840609601427 40.465698336
endloop
endfacet
facet normal 0.996252392851729 -0.0864937554809832 -1.70732111655153e-17
outer loop
vertex -0.955997702216982 0.48840609601427 43.7008034736
vertex -0.501778643312599 5.72019215728485 40.465698336
vertex 0.223163907834595 14.0702256047193 43.7008034736
endloop
endfacet
facet normal 0.996252392851729 -0.0864937554809832 -1.70732111655153e-17
outer loop
vertex 0.223163907834595 14.0702256047193 43.7008034736
vertex -0.501778643312599 5.72019215728485 40.465698336
vertex 0.14308019317364 13.1478053454098 38.14272
endloop
endfacet
facet normal 0.996252392851729 -0.0864937554809832 -1.70732111655153e-17
outer loop
vertex 0.223163907834595 14.0702256047193 43.7008034736
vertex 0.14308019317364 13.1478053454098 38.14272
vertex 0.223163907834595 14.0702256047193 0.0
endloop
endfacet
facet normal 0.0 0.0 -1.0
outer loop
vertex -9.34926036433071 14.9012950508733 0.0
vertex 0.14308019317364 13.1478053454098 0.0
vertex -9.42934393972063 13.9788763957154 0.0
endloop
endfacet
facet normal 0.0 0.0 -1.0
outer loop
vertex 0.14308019317364 13.1478053454098 0.0
vertex -9.34926036433071 14.9012950508733 0.0
vertex 0.223163907834595 14.0702256047193 0.0
endloop
endfacet
facet normal -0.996252392851729 0.0864937554809832 0.0
outer loop
vertex -1.17584433069913 -4.56880675913116 4.61451162310906
vertex -1.54497344815148 -8.82050983859805 3.81908420710905
vertex -1.54497344815148 -8.82050983859805 4.61451162310906
endloop
endfacet
facet normal -0.996252392851729 0.0864937554809832 0.0
outer loop
vertex -1.54497344815148 -8.82050983859805 3.81908420710905
vertex -1.17584433069913 -4.56880675913116 4.61451162310906
vertex -1.17584433069913 -4.56880675913116 3.81908420710905
endloop
endfacet
facet normal 0.0 0.0 -1.0
outer loop
vertex -1.17584433069913 -4.56880675913116 3.81908420710905
vertex 20.6402371795297 -10.7466102897418 3.81908420710905
vertex -1.54497344815148 -8.82050983859805 3.81908420710905
endloop
endfacet
facet normal 0.0 0.0 -1.0
outer loop
vertex 20.6402371795297 -10.7466102897418 3.81908420710905
vertex -1.17584433069913 -4.56880675913116 3.81908420710905
vertex 21.009366296982 -6.49490721027492 3.81908420710905
endloop
endfacet
facet normal 0.99625239285173 -0.0864937554809756 -8.09467594368137e-15
outer loop
vertex 21.009366296982 -6.49490721027492 3.81908420710905
vertex 20.6402371795297 -10.7466102897418 4.61451162310906
vertex 20.6402371795297 -10.7466102897418 3.81908420710905
endloop
endfacet
facet normal 0.99625239285173 -0.0864937554809756 -8.09467594368137e-15
outer loop
vertex 20.6402371795297 -10.7466102897418 4.61451162310906
vertex 21.009366296982 -6.49490721027492 3.81908420710905
vertex 21.009366296982 -6.49490721027492 4.61451162310906
endloop
endfacet
facet normal -0.0864937554809829 -0.996252392851729 0.0
outer loop
vertex 25.8730138799197 -6.91716481066082 0.0
vertex 21.009366296982 -6.49490721027492 3.81908420710905
vertex -27.6168802896804 -2.27321930026082 0.0
endloop
endfacet
facet normal -0.0864937554809829 -0.996252392851729 0.0
outer loop
vertex 21.009366296982 -6.49490721027492 3.81908420710905
vertex 25.8730138799197 -6.91716481066082 0.0
vertex 25.8730138799197 -6.91716481066082 38.14272
endloop
endfacet
facet normal -0.0864937554809829 -0.996252392851729 0.0
outer loop
vertex 21.009366296982 -6.49490721027492 3.81908420710905
vertex 25.8730138799197 -6.91716481066082 38.14272
vertex 21.009366296982 -6.49490721027492 4.61451162310906
endloop
endfacet
facet normal -0.0864937554809829 -0.996252392851729 0.0
outer loop
vertex 21.009366296982 -6.49490721027492 4.61451162310906
vertex 25.8730138799197 -6.91716481066082 38.14272
vertex 20.5606827573296 -6.45595290045796 4.61451162310906
endloop
endfacet
facet normal -0.0864937554809829 -0.996252392851729 0.0
outer loop
vertex 20.5606827573296 -6.45595290045796 4.61451162310906
vertex 25.8730138799197 -6.91716481066082 38.14272
vertex -0.727160791046628 -4.60776106894815 4.61451162310906
endloop
endfacet
facet normal -0.0864937554809829 -0.996252392851729 0.0
outer loop
vertex -0.727160791046628 -4.60776106894815 4.61451162310906
vertex 25.8730138799197 -6.91716481066082 38.14272
vertex -1.17584433069913 -4.56880675913116 4.61451162310906
endloop
endfacet
facet normal -0.0864937554809829 -0.996252392851729 0.0
outer loop
vertex -27.6168802896804 -2.27321930026082 0.0
vertex -1.17584433069913 -4.56880675913116 3.81908420710905
vertex -27.6168802896804 -2.27321930026082 38.14272
endloop
endfacet
facet normal -0.0864937554809829 -0.996252392851729 0.0
outer loop
vertex -1.17584433069913 -4.56880675913116 3.81908420710905
vertex -27.6168802896804 -2.27321930026082 0.0
vertex 21.009366296982 -6.49490721027492 3.81908420710905
endloop
endfacet
facet normal -0.0864937554809829 -0.996252392851729 0.0
outer loop
vertex -27.6168802896804 -2.27321930026082 38.14272
vertex -1.17584433069913 -4.56880675913116 3.81908420710905
vertex -1.17584433069913 -4.56880675913116 4.61451162310906
endloop
endfacet
facet normal -0.0864937554809829 -0.996252392851729 0.0
outer loop
vertex -27.6168802896804 -2.27321930026082 38.14272
vertex -1.17584433069913 -4.56880675913116 4.61451162310906
vertex 25.8730138799197 -6.91716481066082 38.14272
endloop
endfacet
facet normal 0.0864939224334476 0.996252378357049 0.0
outer loop
vertex 0.14308019317364 13.1478053454098 38.14272
vertex 27.4194378345366 10.7796913881917 0.0
vertex 0.14308019317364 13.1478053454098 0.0
endloop
endfacet
facet normal 0.0864939224334476 0.996252378357049 0.0
outer loop
vertex 27.4194378345366 10.7796913881917 0.0
vertex 0.14308019317364 13.1478053454098 38.14272
vertex 27.4194378345366 10.7796913881917 38.14272
endloop
endfacet
facet normal 0.0 0.0 -1.0
outer loop
vertex -26.0703523094635 15.4236368985917 0.0
vertex 25.8730138799197 -6.91716481066082 0.0
vertex -27.6168802896804 -2.27321930026082 0.0
endloop
endfacet
facet normal 0.0 0.0 -1.0
outer loop
vertex 25.8730138799197 -6.91716481066082 0.0
vertex -26.0703523094635 15.4236368985917 0.0
vertex -9.42934393972063 13.9788763957154 0.0
endloop
endfacet
facet normal 0.0 0.0 -1.0
outer loop
vertex 25.8730138799197 -6.91716481066082 0.0
vertex -9.42934393972063 13.9788763957154 0.0
vertex 0.14308019317364 13.1478053454098 0.0
endloop
endfacet
facet normal 0.0 0.0 -1.0
outer loop
vertex 25.8730138799197 -6.91716481066082 0.0
vertex 0.14308019317364 13.1478053454098 0.0
vertex 27.4194378345366 10.7796913881917 0.0
endloop
endfacet
facet normal -0.0864937554809831 -0.996252392851729 7.04344835824843e-16
outer loop
vertex 20.6402371795297 -10.7466102897418 4.61451162310906
vertex -1.54497344815148 -8.82050983859805 3.81908420710905
vertex 20.6402371795297 -10.7466102897418 3.81908420710905
endloop
endfacet
facet normal -0.0864937554809831 -0.996252392851729 7.04344835824843e-16
outer loop
vertex -1.54497344815148 -8.82050983859805 3.81908420710905
vertex 20.6402371795297 -10.7466102897418 4.61451162310906
vertex -1.54497344815148 -8.82050983859805 4.61451162310906
endloop
endfacet
facet normal 0.0 0.0 1.0
outer loop
vertex -1.54497344815148 -8.82050983859805 4.61451162310906
vertex -1.05733559868201 -8.41078060876252 4.61451162310906
vertex -1.17584433069913 -4.56880675913116 4.61451162310906
endloop
endfacet
facet normal 0.0 0.0 1.0
outer loop
vertex -1.05733559868201 -8.41078060876252 4.61451162310906
vertex -1.54497344815148 -8.82050983859805 4.61451162310906
vertex 20.6402371795297 -10.7466102897418 4.61451162310906
endloop
endfacet
facet normal 0.0 0.0 1.0
outer loop
vertex -1.05733559868201 -8.41078060876252 4.61451162310906
vertex 20.6402371795297 -10.7466102897418 4.61451162310906
vertex 20.2305079496942 -10.2589724402723 4.61451162310906
endloop
endfacet
facet normal 0.0 0.0 1.0
outer loop
vertex 20.2305079496942 -10.2589724402723 4.61451162310906
vertex 20.6402371795297 -10.7466102897418 4.61451162310906
vertex 20.5606827573296 -6.45595290045796 4.61451162310906
endloop
endfacet
facet normal 0.0 0.0 1.0
outer loop
vertex 20.5606827573296 -6.45595290045796 4.61451162310906
vertex 20.6402371795297 -10.7466102897418 4.61451162310906
vertex 21.009366296982 -6.49490721027492 4.61451162310906
endloop
endfacet
facet normal 0.0 0.0 1.0
outer loop
vertex -0.727160791046628 -4.60776106894815 4.61451162310906
vertex -1.17584433069913 -4.56880675913116 4.61451162310906
vertex -1.05733559868201 -8.41078060876252 4.61451162310906
endloop
endfacet
facet normal -0.996252392851729 0.0864937554809813 -6.08767175556635e-20
outer loop
vertex -9.34926036433071 14.9012950508733 22.8113716439011
vertex -9.42934393972063 13.9788763957154 0.0
vertex -9.42934393972063 13.9788763957154 23.1015364215557
endloop
endfacet
facet normal -0.996252392851729 0.0864937554809813 -6.08767175556635e-20
outer loop
vertex -9.42934393972063 13.9788763957154 0.0
vertex -9.34926036433071 14.9012950508733 22.8113716439011
vertex -9.34926036433071 14.9012950508733 0.0
endloop
endfacet
facet normal -0.996252392851729 0.086493755480983 -1.51158017935928e-17
outer loop
vertex -9.34926036433071 14.9012950508733 43.7008034736
vertex -10.5284219743823 1.31947554216828 38.14272
vertex -10.5284219743823 1.31947554216828 43.7008034736
endloop
endfacet
facet normal -0.996252392851729 0.086493755480983 -1.51158017935928e-17
outer loop
vertex -10.5284219743823 1.31947554216828 38.14272
vertex -9.34926036433071 14.9012950508733 43.7008034736
vertex -9.42934393972063 13.9788763957154 38.14272
endloop
endfacet
facet normal -0.996252392851729 0.086493755480983 -1.51158017935928e-17
outer loop
vertex -9.42934393972063 13.9788763957154 38.14272
vertex -9.34926036433071 14.9012950508733 43.7008034736
vertex -9.42934393972063 13.9788763957154 23.1015364215557
endloop
endfacet
facet normal -0.996252392851729 0.086493755480983 -1.51158017935928e-17
outer loop
vertex -9.42934393972063 13.9788763957154 23.1015364215557
vertex -9.34926036433071 14.9012950508733 43.7008034736
vertex -9.34926036433071 14.9012950508733 22.8113716439011
endloop
endfacet
facet normal 0.0864937554809837 0.996252392851729 -1.64316377793037e-18
outer loop
vertex -9.34926036433071 14.9012950508733 22.8113716439011
vertex 0.223163907834595 14.0702256047193 0.0
vertex -9.34926036433071 14.9012950508733 0.0
endloop
endfacet
facet normal 0.0864937554809837 0.996252392851729 -1.64316377793037e-18
outer loop
vertex 0.223163907834595 14.0702256047193 0.0
vertex -9.34926036433071 14.9012950508733 22.8113716439011
vertex 0.223163907834595 14.0702256047193 43.7008034736
endloop
endfacet
facet normal 0.0864937554809837 0.996252392851729 -1.64316377793037e-18
outer loop
vertex 0.223163907834595 14.0702256047193 43.7008034736
vertex -9.34926036433071 14.9012950508733 22.8113716439011
vertex -9.34926036433071 14.9012950508733 43.7008034736
endloop
endfacet
facet normal 0.996252392851729 -0.0864937554809829 0.0
outer loop
vertex 9.0495038608974 7.4392703993443 38.14272
vertex 8.6288032234745 2.59355622753951 38.6744728608
vertex 8.6288032234745 2.59355622753951 38.14272
endloop
endfacet
facet normal 0.996252392851729 -0.0864937554809829 0.0
outer loop
vertex 8.6288032234745 2.59355622753951 38.6744728608
vertex 9.0495038608974 7.4392703993443 38.14272
vertex 9.0495038608974 7.4392703993443 38.6744728608
endloop
endfacet
facet normal 0.0864937554809837 0.996252392851729 0.0
outer loop
vertex 6.26305369035189 7.68118754949661 38.6744728608
vertex 9.0495038608974 7.4392703993443 38.14272
vertex 6.26305369035189 7.68118754949661 38.14272
endloop
endfacet
facet normal 0.0864937554809837 0.996252392851729 0.0
outer loop
vertex 9.0495038608974 7.4392703993443 38.14272
vertex 6.26305369035189 7.68118754949661 38.6744728608
vertex 9.0495038608974 7.4392703993443 38.6744728608
endloop
endfacet
facet normal -0.996252392851729 0.0864937554809828 0.0
outer loop
vertex 6.26305369035189 7.68118754949661 38.6744728608
vertex 5.84235305292898 2.83547337769181 38.14272
vertex 5.84235305292898 2.83547337769181 38.6744728608
endloop
endfacet
facet normal -0.996252392851729 0.0864937554809828 0.0
outer loop
vertex 5.84235305292898 2.83547337769181 38.14272
vertex 6.26305369035189 7.68118754949661 38.6744728608
vertex 6.26305369035189 7.68118754949661 38.14272
endloop
endfacet
facet normal -0.996252392851729 0.0864937554809811 2.81435416444509e-17
outer loop
vertex -17.8805640216786 10.0444162708038 38.6744728608
vertex -18.3270228126603 4.90201452917711 38.14272
vertex -18.3270228126603 4.90201452917711 38.6744728608
endloop
endfacet
facet normal -0.996252392851729 0.0864937554809811 2.81435416444509e-17
outer loop
vertex -18.3270228126603 4.90201452917711 38.14272
vertex -17.8805640216786 10.0444162708038 38.6744728608
vertex -17.8805640216786 10.0444162708038 38.14272
endloop
endfacet
facet normal -0.0864937554809817 -0.996252392851729 -1.40717708222696e-17
outer loop
vertex -15.8575512287268 4.68761718079376 38.6744728608
vertex -18.3270228126603 4.90201452917711 38.14272
vertex -15.8575512287268 4.68761718079376 38.14272
endloop
endfacet
facet normal -0.0864937554809817 -0.996252392851729 -1.40717708222696e-17
outer loop
vertex -18.3270228126603 4.90201452917711 38.14272
vertex -15.8575512287268 4.68761718079376 38.6744728608
vertex -18.3270228126603 4.90201452917711 38.6744728608
endloop
endfacet
facet normal 0.0 0.0 1.0
outer loop
vertex 5.84235305292898 2.83547337769181 38.14272
vertex 5.95646726446523 5.15949293448606 38.14272
vertex 5.7553536958285 2.84302658526656 38.14272
endloop
endfacet
facet normal 0.0 0.0 1.0
outer loop
vertex 5.95646726446523 5.15949293448606 38.14272
vertex 5.84235305292898 2.83547337769181 38.14272
vertex 6.26305369035189 7.68118754949661 38.14272
endloop
endfacet
facet normal 0.0 0.0 1.0
outer loop
vertex -27.6168802896804 -2.27321930026082 38.14272
vertex -18.3270228126603 4.90201452917711 38.14272
vertex -26.0703523094635 15.4236368985917 38.14272
endloop
endfacet
facet normal 0.0 0.0 1.0
outer loop
vertex -18.3270228126603 4.90201452917711 38.14272
vertex -27.6168802896804 -2.27321930026082 38.14272
vertex -10.2286829358197 -0.644303567169026 38.14272
endloop
endfacet
facet normal 0.0 0.0 1.0
outer loop
vertex -10.2286829358197 -0.644303567169026 38.14272
vertex -27.6168802896804 -2.27321930026082 38.14272
vertex 25.8730138799197 -6.91716481066082 38.14272
endloop
endfacet
facet normal 0.0 0.0 1.0
outer loop
vertex -18.3270228126603 4.90201452917711 38.14272
vertex -10.2286829358197 -0.644303567169026 38.14272
vertex -15.8575512287268 4.68761718079376 38.14272
endloop
endfacet
facet normal 0.0 0.0 1.0
outer loop
vertex -15.8575512287268 4.68761718079376 38.14272
vertex -10.2286829358197 -0.644303567169026 38.14272
vertex -15.4110924377451 9.83001892242045 38.14272
endloop
endfacet
facet normal 0.0 0.0 1.0
outer loop
vertex -15.4110924377451 9.83001892242045 38.14272
vertex -10.2286829358197 -0.644303567169026 38.14272
vertex -10.5284219743823 1.31947554216828 38.14272
endloop
endfacet
facet normal 0.0 0.0 1.0
outer loop
vertex -10.2286829358197 -0.644303567169026 38.14272
vertex 25.8730138799197 -6.91716481066082 38.14272
vertex 8.20872205015548 -2.24502283269168 38.14272
endloop
endfacet
facet normal 0.0 0.0 1.0
outer loop
vertex 8.20872205015548 -2.24502283269168 38.14272
vertex 25.8730138799197 -6.91716481066082 38.14272
vertex 8.6288032234745 2.59355622753951 38.14272
endloop
endfacet
facet normal 0.0 0.0 1.0
outer loop
vertex 8.6288032234745 2.59355622753951 38.14272
vertex 25.8730138799197 -6.91716481066082 38.14272
vertex 9.0495038608974 7.4392703993443 38.14272
endloop
endfacet
facet normal 0.0 0.0 1.0
outer loop
vertex 5.95646726446523 5.15949293448606 38.14272
vertex 0.14308019317364 13.1478053454098 38.14272
vertex -0.501778643312599 5.72019215728485 38.14272
endloop
endfacet
facet normal 0.0 0.0 1.0
outer loop
vertex 0.14308019317364 13.1478053454098 38.14272
vertex 5.95646726446523 5.15949293448606 38.14272
vertex 6.26305369035189 7.68118754949661 38.14272
endloop
endfacet
facet normal 0.0 0.0 1.0
outer loop
vertex 0.14308019317364 13.1478053454098 38.14272
vertex 6.26305369035189 7.68118754949661 38.14272
vertex 27.4194378345366 10.7796913881917 38.14272
endloop
endfacet
facet normal 0.0 0.0 1.0
outer loop
vertex 27.4194378345366 10.7796913881917 38.14272
vertex 6.26305369035189 7.68118754949661 38.14272
vertex 9.0495038608974 7.4392703993443 38.14272
endloop
endfacet
facet normal 0.0 0.0 1.0
outer loop
vertex 27.4194378345366 10.7796913881917 38.14272
vertex 9.0495038608974 7.4392703993443 38.14272
vertex 25.8730138799197 -6.91716481066082 38.14272
endloop
endfacet
facet normal 0.0 0.0 1.0
outer loop
vertex -10.0617072527683 1.27895578101108 38.14272
vertex -10.5284219743823 1.31947554216828 38.14272
vertex -10.2286829358197 -0.644303567169026 38.14272
endloop
endfacet
facet normal 0.0 0.0 1.0
outer loop
vertex -26.0703523094635 15.4236368985917 38.14272
vertex -17.8805640216786 10.0444162708038 38.14272
vertex -9.42934393972063 13.9788763957154 38.14272
endloop
endfacet
facet normal 0.0 0.0 1.0
outer loop
vertex -17.8805640216786 10.0444162708038 38.14272
vertex -26.0703523094635 15.4236368985917 38.14272
vertex -18.3270228126603 4.90201452917711 38.14272
endloop
endfacet
facet normal 0.0 0.0 1.0
outer loop
vertex -9.42934393972063 13.9788763957154 38.14272
vertex -17.8805640216786 10.0444162708038 38.14272
vertex -15.4110924377451 9.83001892242045 38.14272
endloop
endfacet
facet normal 0.0 0.0 1.0
outer loop
vertex -9.42934393972063 13.9788763957154 38.14272
vertex -15.4110924377451 9.83001892242045 38.14272
vertex -10.5284219743823 1.31947554216828 38.14272
endloop
endfacet
facet normal 0.0 0.0 1.0
outer loop
vertex 8.6288032234745 2.59355622753951 38.6744728608
vertex 6.26305369035189 7.68118754949661 38.6744728608
vertex 5.84235305292898 2.83547337769181 38.6744728608
endloop
endfacet
facet normal 0.0 0.0 1.0
outer loop
vertex 6.26305369035189 7.68118754949661 38.6744728608
vertex 8.6288032234745 2.59355622753951 38.6744728608
vertex 9.0495038608974 7.4392703993443 38.6744728608
endloop
endfacet
facet normal 0.0864937554809866 0.996252392851729 6.39910050370599e-30
outer loop
vertex -17.8805640216786 10.0444162708038 38.6744728608
vertex -15.4110924377451 9.83001892242045 38.14272
vertex -17.8805640216786 10.0444162708038 38.14272
endloop
endfacet
facet normal 0.0864937554809866 0.996252392851729 6.39910050370599e-30
outer loop
vertex -15.4110924377451 9.83001892242045 38.14272
vertex -17.8805640216786 10.0444162708038 38.6744728608
vertex -15.4110924377451 9.83001892242045 38.6744728608
endloop
endfacet
facet normal 0.0864937554809834 0.996252392851729 0.0
outer loop
vertex -9.52591974383441 2.16181062193631 43.7008034736
vertex -1.79833278198501 1.49090832656214 42.9213396528
vertex -9.52591974383441 2.16181062193631 42.9213396528
endloop
endfacet
facet normal 0.0864937554809834 0.996252392851729 0.0
outer loop
vertex -1.79833278198501 1.49090832656214 42.9213396528
vertex -9.52591974383441 2.16181062193631 43.7008034736
vertex -1.79833278198501 1.49090832656214 43.7008034736
endloop
endfacet
facet normal -0.996252392851729 0.0864937554809824 0.0
outer loop
vertex -0.779338322713285 13.2278905249513 43.7008034736
vertex -1.79833278198501 1.49090832656214 42.9213396528
vertex -1.79833278198501 1.49090832656214 43.7008034736
endloop
endfacet
facet normal -0.996252392851729 0.0864937554809824 0.0
outer loop
vertex -1.79833278198501 1.49090832656214 42.9213396528
vertex -0.779338322713285 13.2278905249513 43.7008034736
vertex -0.779338322713285 13.2278905249513 42.9213396528
endloop
endfacet
facet normal -0.0864937554809846 -0.996252392851729 0.0
outer loop
vertex -0.779338322713285 13.2278905249513 43.7008034736
vertex -8.50692528456268 13.8987928203254 42.9213396528
vertex -0.779338322713285 13.2278905249513 42.9213396528
endloop
endfacet
facet normal -0.0864937554809846 -0.996252392851729 0.0
outer loop
vertex -8.50692528456268 13.8987928203254 42.9213396528
vertex -0.779338322713285 13.2278905249513 43.7008034736
vertex -8.50692528456268 13.8987928203254 43.7008034736
endloop
endfacet
facet normal 0.0 0.0 1.0
outer loop
vertex -15.8575512287268 4.68761718079376 38.6744728608
vertex -17.8805640216786 10.0444162708038 38.6744728608
vertex -18.3270228126603 4.90201452917711 38.6744728608
endloop
endfacet
facet normal 0.0 0.0 1.0
outer loop
vertex -17.8805640216786 10.0444162708038 38.6744728608
vertex -15.8575512287268 4.68761718079376 38.6744728608
vertex -15.4110924377451 9.83001892242045 38.6744728608
endloop
endfacet
facet normal 0.996252392851729 -0.0864937554809826 7.53058959142323e-29
outer loop
vertex -15.4110924377451 9.83001892242045 38.14272
vertex -15.8575512287268 4.68761718079376 38.6744728608
vertex -15.8575512287268 4.68761718079376 38.14272
endloop
endfacet
facet normal 0.996252392851729 -0.0864937554809826 7.53058959142323e-29
outer loop
vertex -15.8575512287268 4.68761718079376 38.6744728608
vertex -15.4110924377451 9.83001892242045 38.14272
vertex -15.4110924377451 9.83001892242045 38.6744728608
endloop
endfacet
facet normal 0.996252392851729 -0.0864937554809821 0.0
outer loop
vertex -8.50692528456268 13.8987928203254 42.9213396528
vertex -9.52591974383441 2.16181062193631 43.7008034736
vertex -9.52591974383441 2.16181062193631 42.9213396528
endloop
endfacet
facet normal 0.996252392851729 -0.0864937554809821 0.0
outer loop
vertex -9.52591974383441 2.16181062193631 43.7008034736
vertex -8.50692528456268 13.8987928203254 42.9213396528
vertex -8.50692528456268 13.8987928203254 43.7008034736
endloop
endfacet
facet normal 0.0 0.0 1.0
outer loop
vertex -1.79833278198501 1.49090832656214 42.9213396528
vertex -8.50692528456268 13.8987928203254 42.9213396528
vertex -9.52591974383441 2.16181062193631 42.9213396528
endloop
endfacet
facet normal 0.0 0.0 1.0
outer loop
vertex -8.50692528456268 13.8987928203254 42.9213396528
vertex -1.79833278198501 1.49090832656214 42.9213396528
vertex -0.779338322713285 13.2278905249513 42.9213396528
endloop
endfacet
facet normal 0.0864939224334475 0.996252378357049 -1.27759203232677e-18
outer loop
vertex -26.0703523094635 15.4236368985917 38.14272
vertex -9.42934393972063 13.9788763957154 0.0
vertex -26.0703523094635 15.4236368985917 0.0
endloop
endfacet
facet normal 0.0864939224334475 0.996252378357049 -1.27759203232677e-18
outer loop
vertex -9.42934393972063 13.9788763957154 0.0
vertex -26.0703523094635 15.4236368985917 38.14272
vertex -9.42934393972063 13.9788763957154 23.1015364215557
endloop
endfacet
facet normal 0.0864939224334475 0.996252378357049 -1.27759203232677e-18
outer loop
vertex -9.42934393972063 13.9788763957154 23.1015364215557
vertex -26.0703523094635 15.4236368985917 38.14272
vertex -9.42934393972063 13.9788763957154 38.14272
endloop
endfacet
facet normal 0.996252392851729 -0.0864937554809843 0.0
outer loop
vertex -0.167337444312329 5.32215810167221 38.14272
vertex -0.621556503216719 0.0903720404016378 40.465698336
vertex -0.621556503216719 0.0903720404016378 38.14272
endloop
endfacet
facet normal 0.996252392851729 -0.0864937554809843 0.0
outer loop
vertex -0.621556503216719 0.0903720404016378 40.465698336
vertex -0.167337444312329 5.32215810167221 38.14272
vertex -0.167337444312329 5.32215810167221 40.465698336
endloop
endfacet
facet normal -0.99625239285173 0.0864937554809759 0.0
outer loop
vertex 5.55843320885258 4.8250517354858 40.465698336
vertex 5.35731964021584 2.50858538626631 38.14272
vertex 5.35731964021584 2.50858538626631 40.465698336
endloop
endfacet
facet normal -0.99625239285173 0.0864937554809759 0.0
outer loop
vertex 5.35731964021584 2.50858538626631 38.14272
vertex 5.55843320885258 4.8250517354858 40.465698336
vertex 5.55843320885258 4.8250517354858 38.14272
endloop
endfacet
facet normal -0.0864937554809839 -0.996252392851729 0.0
outer loop
vertex 5.55843320885258 4.8250517354858 40.465698336
vertex -0.167337444312329 5.32215810167221 38.14272
vertex 5.55843320885258 4.8250517354858 38.14272
endloop
endfacet
facet normal -0.0864937554809839 -0.996252392851729 0.0
outer loop
vertex -0.167337444312329 5.32215810167221 38.14272
vertex 5.55843320885258 4.8250517354858 40.465698336
vertex -0.167337444312329 5.32215810167221 40.465698336
endloop
endfacet
facet normal -0.0864937554809839 -0.996252392851729 0.0
outer loop
vertex 8.23076916786185 2.25911502853924 40.465698336
vertex 5.35731964021584 2.50858538626631 38.14272
vertex 8.23076916786185 2.25911502853924 38.14272
endloop
endfacet
facet normal -0.0864937554809839 -0.996252392851729 0.0
outer loop
vertex 5.35731964021584 2.50858538626631 38.14272
vertex 8.23076916786185 2.25911502853924 40.465698336
vertex 5.35731964021584 2.50858538626631 40.465698336
endloop
endfacet
facet normal 0.996252392851728 -0.0864937554809929 1.93109175586635e-30
outer loop
vertex -9.72726605376808 0.880921725398437 38.14272
vertex -9.83064888020711 -0.309862368168769 40.465698336
vertex -9.83064888020711 -0.309862368168769 38.14272
endloop
endfacet
facet normal 0.996252392851728 -0.0864937554809929 1.93109175586635e-30
outer loop
vertex -9.83064888020711 -0.309862368168769 40.465698336
vertex -9.72726605376808 0.880921725398437 38.14272
vertex -9.72726605376808 0.880921725398437 40.465698336
endloop
endfacet
facet normal 0.0864937554809832 0.996252392851729 -4.82772938966588e-31
outer loop
vertex -9.83064888020711 -0.309862368168769 40.465698336
vertex 7.8742808511552 -1.84698877707904 38.14272
vertex -9.83064888020711 -0.309862368168769 38.14272
endloop
endfacet
facet normal 0.0864937554809832 0.996252392851729 -4.82772938966588e-31
outer loop
vertex 7.8742808511552 -1.84698877707904 38.14272
vertex -9.83064888020711 -0.309862368168769 40.465698336
vertex 7.8742808511552 -1.84698877707904 40.465698336
endloop
endfacet
facet normal -0.996252392851729 0.086493755480985 0.0
outer loop
vertex 8.23076916786185 2.25911502853924 40.465698336
vertex 7.8742808511552 -1.84698877707904 38.14272
vertex 7.8742808511552 -1.84698877707904 40.465698336
endloop
endfacet
facet normal -0.996252392851729 0.086493755480985 0.0
outer loop
vertex 7.8742808511552 -1.84698877707904 38.14272
vertex 8.23076916786185 2.25911502853924 40.465698336
vertex 8.23076916786185 2.25911502853924 38.14272
endloop
endfacet
facet normal 0.99625239285173 -0.0864937554809758 0.0
outer loop
vertex 5.95646726446523 5.15949293448606 38.14272
vertex 5.7553536958285 2.84302658526656 40.465698336
vertex 5.7553536958285 2.84302658526656 38.14272
endloop
endfacet
facet normal 0.99625239285173 -0.0864937554809758 0.0
outer loop
vertex 5.7553536958285 2.84302658526656 40.465698336
vertex 5.95646726446523 5.15949293448606 38.14272
vertex 5.95646726446523 5.15949293448606 40.465698336
endloop
endfacet
facet normal 0.0864937554809826 0.996252392851729 0.0
outer loop
vertex -0.501778643312599 5.72019215728485 40.465698336
vertex 5.95646726446523 5.15949293448606 38.14272
vertex -0.501778643312599 5.72019215728485 38.14272
endloop
endfacet
facet normal 0.0864937554809826 0.996252392851729 0.0
outer loop
vertex 5.95646726446523 5.15949293448606 38.14272
vertex -0.501778643312599 5.72019215728485 40.465698336
vertex 5.95646726446523 5.15949293448606 40.465698336
endloop
endfacet
facet normal 0.0 0.0 1.0
outer loop
vertex 7.8742808511552 -1.84698877707904 38.14272
vertex -9.72726605376808 0.880921725398437 38.14272
vertex -9.83064888020711 -0.309862368168769 38.14272
endloop
endfacet
facet normal 0.0 0.0 1.0
outer loop
vertex -9.72726605376808 0.880921725398437 38.14272
vertex 7.8742808511552 -1.84698877707904 38.14272
vertex -0.621556503216719 0.0903720404016378 38.14272
endloop
endfacet
facet normal 0.0 0.0 1.0
outer loop
vertex -0.621556503216719 0.0903720404016378 38.14272
vertex 7.8742808511552 -1.84698877707904 38.14272
vertex -0.167337444312329 5.32215810167221 38.14272
endloop
endfacet
facet normal 0.0 0.0 1.0
outer loop
vertex -0.167337444312329 5.32215810167221 38.14272
vertex 7.8742808511552 -1.84698877707904 38.14272
vertex 5.35731964021584 2.50858538626631 38.14272
endloop
endfacet
facet normal 0.0 0.0 1.0
outer loop
vertex 5.35731964021584 2.50858538626631 38.14272
vertex 7.8742808511552 -1.84698877707904 38.14272
vertex 8.23076916786185 2.25911502853924 38.14272
endloop
endfacet
facet normal 0.0 0.0 1.0
outer loop
vertex 5.55843320885258 4.8250517354858 38.14272
vertex -0.167337444312329 5.32215810167221 38.14272
vertex 5.35731964021584 2.50858538626631 38.14272
endloop
endfacet
facet normal -0.0864937554809832 -0.996252392851729 -1.6765568578976e-31
outer loop
vertex -0.621556503216719 0.0903720404016378 40.465698336
vertex -9.72726605376808 0.880921725398437 38.14272
vertex -0.621556503216719 0.0903720404016378 38.14272
endloop
endfacet
facet normal -0.0864937554809832 -0.996252392851729 -1.6765568578976e-31
outer loop
vertex -9.72726605376808 0.880921725398437 38.14272
vertex -0.621556503216719 0.0903720404016378 40.465698336
vertex -9.72726605376808 0.880921725398437 40.465698336
endloop
endfacet
facet normal 0.996252392851729 -0.0864937554809827 0.0
outer loop
vertex 8.6288032234745 2.59355622753951 38.14272
vertex 8.20872205015548 -2.24502283269168 40.465698336
vertex 8.20872205015548 -2.24502283269168 38.14272
endloop
endfacet
facet normal 0.996252392851729 -0.0864937554809827 0.0
outer loop
vertex 8.20872205015548 -2.24502283269168 40.465698336
vertex 8.6288032234745 2.59355622753951 38.14272
vertex 8.6288032234745 2.59355622753951 40.465698336
endloop
endfacet
facet normal 0.996252392851729 -0.0864937554809827 0.0
outer loop
vertex 8.6288032234745 2.59355622753951 40.465698336
vertex 8.6288032234745 2.59355622753951 38.14272
vertex 8.6288032234745 2.59355622753951 38.6744728608
endloop
endfacet
facet normal 0.0864937554809806 0.996252392851729 -2.58246810288767e-16
outer loop
vertex 5.7553536958285 2.84302658526656 40.465698336
vertex 5.84235305292898 2.83547337769181 38.14272
vertex 5.7553536958285 2.84302658526656 38.14272
endloop
endfacet
facet normal 0.0864937554809806 0.996252392851729 -2.58246810288767e-16
outer loop
vertex 5.84235305292898 2.83547337769181 38.14272
vertex 5.7553536958285 2.84302658526656 40.465698336
vertex 5.84235305292898 2.83547337769181 38.6744728608
endloop
endfacet
facet normal 0.0864937554809806 0.996252392851729 -2.58246810288767e-16
outer loop
vertex 5.84235305292898 2.83547337769181 38.6744728608
vertex 5.7553536958285 2.84302658526656 40.465698336
vertex 8.6288032234745 2.59355622753951 38.6744728608
endloop
endfacet
facet normal 0.0864937554809806 0.996252392851729 -2.58246810288767e-16
outer loop
vertex 8.6288032234745 2.59355622753951 38.6744728608
vertex 5.7553536958285 2.84302658526656 40.465698336
vertex 8.6288032234745 2.59355622753951 40.465698336
endloop
endfacet
facet normal -0.0864937554809832 -0.996252392851729 0.0
outer loop
vertex 8.20872205015548 -2.24502283269168 40.465698336
vertex -10.2286829358197 -0.644303567169026 38.14272
vertex 8.20872205015548 -2.24502283269168 38.14272
endloop
endfacet
facet normal -0.0864937554809832 -0.996252392851729 0.0
outer loop
vertex -10.2286829358197 -0.644303567169026 38.14272
vertex 8.20872205015548 -2.24502283269168 40.465698336
vertex -10.2286829358197 -0.644303567169026 40.465698336
endloop
endfacet
facet normal -0.996252392851729 0.0864937554809845 0.0
outer loop
vertex -10.0617072527683 1.27895578101108 40.465698336
vertex -10.2286829358197 -0.644303567169026 38.14272
vertex -10.2286829358197 -0.644303567169026 40.465698336
endloop
endfacet
facet normal -0.996252392851729 0.0864937554809845 0.0
outer loop
vertex -10.2286829358197 -0.644303567169026 38.14272
vertex -10.0617072527683 1.27895578101108 40.465698336
vertex -10.0617072527683 1.27895578101108 38.14272
endloop
endfacet
facet normal 0.0 0.0 1.0
outer loop
vertex -10.2286829358197 -0.644303567169026 40.465698336
vertex -9.83064888020711 -0.309862368168769 40.465698336
vertex -10.0617072527683 1.27895578101108 40.465698336
endloop
endfacet
facet normal 0.0 0.0 1.0
outer loop
vertex -9.83064888020711 -0.309862368168769 40.465698336
vertex -10.2286829358197 -0.644303567169026 40.465698336
vertex 8.20872205015548 -2.24502283269168 40.465698336
endloop
endfacet
facet normal 0.0 0.0 1.0
outer loop
vertex -9.83064888020711 -0.309862368168769 40.465698336
vertex 8.20872205015548 -2.24502283269168 40.465698336
vertex 7.8742808511552 -1.84698877707904 40.465698336
endloop
endfacet
facet normal 0.0 0.0 1.0
outer loop
vertex 7.8742808511552 -1.84698877707904 40.465698336
vertex 8.20872205015548 -2.24502283269168 40.465698336
vertex 8.23076916786185 2.25911502853924 40.465698336
endloop
endfacet
facet normal 0.0 0.0 1.0
outer loop
vertex 8.23076916786185 2.25911502853924 40.465698336
vertex 8.20872205015548 -2.24502283269168 40.465698336
vertex 8.6288032234745 2.59355622753951 40.465698336
endloop
endfacet
facet normal 0.0 0.0 1.0
outer loop
vertex 5.35731964021584 2.50858538626631 40.465698336
vertex 5.7553536958285 2.84302658526656 40.465698336
vertex 5.55843320885258 4.8250517354858 40.465698336
endloop
endfacet
facet normal 0.0 0.0 1.0
outer loop
vertex 5.7553536958285 2.84302658526656 40.465698336
vertex 5.35731964021584 2.50858538626631 40.465698336
vertex 8.23076916786185 2.25911502853924 40.465698336
endloop
endfacet
facet normal 0.0 0.0 1.0
outer loop
vertex 5.7553536958285 2.84302658526656 40.465698336
vertex 8.23076916786185 2.25911502853924 40.465698336
vertex 8.6288032234745 2.59355622753951 40.465698336
endloop
endfacet
facet normal 0.0 0.0 1.0
outer loop
vertex -10.0617072527683 1.27895578101108 40.465698336
vertex -9.72726605376808 0.880921725398437 40.465698336
vertex -0.955997702216982 0.48840609601427 40.465698336
endloop
endfacet
facet normal 0.0 0.0 1.0
outer loop
vertex -9.72726605376808 0.880921725398437 40.465698336
vertex -10.0617072527683 1.27895578101108 40.465698336
vertex -9.83064888020711 -0.309862368168769 40.465698336
endloop
endfacet
facet normal 0.0 0.0 1.0
outer loop
vertex -0.955997702216982 0.48840609601427 40.465698336
vertex -9.72726605376808 0.880921725398437 40.465698336
vertex -0.621556503216719 0.0903720404016378 40.465698336
endloop
endfacet
facet normal 0.0 0.0 1.0
outer loop
vertex -0.955997702216982 0.48840609601427 40.465698336
vertex -0.621556503216719 0.0903720404016378 40.465698336
vertex -0.501778643312599 5.72019215728485 40.465698336
endloop
endfacet
facet normal 0.0 0.0 1.0
outer loop
vertex -0.501778643312599 5.72019215728485 40.465698336
vertex -0.621556503216719 0.0903720404016378 40.465698336
vertex -0.167337444312329 5.32215810167221 40.465698336
endloop
endfacet
facet normal 0.0 0.0 1.0
outer loop
vertex -0.501778643312599 5.72019215728485 40.465698336
vertex -0.167337444312329 5.32215810167221 40.465698336
vertex 5.95646726446523 5.15949293448606 40.465698336
endloop
endfacet
facet normal 0.0 0.0 1.0
outer loop
vertex 5.95646726446523 5.15949293448606 40.465698336
vertex -0.167337444312329 5.32215810167221 40.465698336
vertex 5.55843320885258 4.8250517354858 40.465698336
endloop
endfacet
facet normal 0.0 0.0 1.0
outer loop
vertex 5.95646726446523 5.15949293448606 40.465698336
vertex 5.55843320885258 4.8250517354858 40.465698336
vertex 5.7553536958285 2.84302658526656 40.465698336
endloop
endfacet
facet normal 0.996203736393994 -0.0870523727111743 0.0
outer loop
vertex 27.4194378345366 10.7796913881917 0.0
vertex 25.8730138799197 -6.91716481066082 38.14272
vertex 25.8730138799197 -6.91716481066082 0.0
endloop
endfacet
facet normal 0.996203736393994 -0.0870523727111743 0.0
outer loop
vertex 25.8730138799197 -6.91716481066082 38.14272
vertex 27.4194378345366 10.7796913881917 0.0
vertex 27.4194378345366 10.7796913881917 38.14272
endloop
endfacet
facet normal -0.996203228544145 0.0870581842116062 0.0
outer loop
vertex -26.0703523094635 15.4236368985917 38.14272
vertex -27.6168802896804 -2.27321930026082 0.0
vertex -27.6168802896804 -2.27321930026082 38.14272
endloop
endfacet
facet normal -0.996203228544145 0.0870581842116062 0.0
outer loop
vertex -27.6168802896804 -2.27321930026082 0.0
vertex -26.0703523094635 15.4236368985917 38.14272
vertex -26.0703523094635 15.4236368985917 0.0
endloop
endfacet
facet normal 0.0 0.0 1.0
outer loop
vertex -0.955997702216982 0.48840609601427 43.7008034736
vertex -9.52591974383441 2.16181062193631 43.7008034736
vertex -10.5284219743823 1.31947554216828 43.7008034736
endloop
endfacet
facet normal 0.0 0.0 1.0
outer loop
vertex -9.52591974383441 2.16181062193631 43.7008034736
vertex -0.955997702216982 0.48840609601427 43.7008034736
vertex -1.79833278198501 1.49090832656214 43.7008034736
endloop
endfacet
facet normal 0.0 0.0 1.0
outer loop
vertex -1.79833278198501 1.49090832656214 43.7008034736
vertex -0.955997702216982 0.48840609601427 43.7008034736
vertex -0.779338322713285 13.2278905249513 43.7008034736
endloop
endfacet
facet normal 0.0 0.0 1.0
outer loop
vertex -0.779338322713285 13.2278905249513 43.7008034736
vertex -0.955997702216982 0.48840609601427 43.7008034736
vertex 0.223163907834595 14.0702256047193 43.7008034736
endloop
endfacet
facet normal 0.0 0.0 1.0
outer loop
vertex -9.52591974383441 2.16181062193631 43.7008034736
vertex -9.34926036433071 14.9012950508733 43.7008034736
vertex -10.5284219743823 1.31947554216828 43.7008034736
endloop
endfacet
facet normal 0.0 0.0 1.0
outer loop
vertex -9.34926036433071 14.9012950508733 43.7008034736
vertex -9.52591974383441 2.16181062193631 43.7008034736
vertex -8.50692528456268 13.8987928203254 43.7008034736
endloop
endfacet
facet normal 0.0 0.0 1.0
outer loop
vertex -9.34926036433071 14.9012950508733 43.7008034736
vertex -8.50692528456268 13.8987928203254 43.7008034736
vertex 0.223163907834595 14.0702256047193 43.7008034736
endloop
endfacet
facet normal 0.0 0.0 1.0
outer loop
vertex 0.223163907834595 14.0702256047193 43.7008034736
vertex -8.50692528456268 13.8987928203254 43.7008034736
vertex -0.779338322713285 13.2278905249513 43.7008034736
endloop
endfacet
facet normal -0.0864937554809833 -0.996252392851729 -5.58115319070626e-16
outer loop
vertex -0.955997702216982 0.48840609601427 43.7008034736
vertex -10.0617072527683 1.27895578101108 40.465698336
vertex -0.955997702216982 0.48840609601427 40.465698336
endloop
endfacet
facet normal -0.0864937554809833 -0.996252392851729 -5.58115319070626e-16
outer loop
vertex -10.0617072527683 1.27895578101108 40.465698336
vertex -10.5284219743823 1.31947554216828 38.14272
vertex -10.0617072527683 1.27895578101108 38.14272
endloop
endfacet
facet normal -0.0864937554809833 -0.996252392851729 -5.58115319070626e-16
outer loop
vertex -10.5284219743823 1.31947554216828 38.14272
vertex -10.0617072527683 1.27895578101108 40.465698336
vertex -10.5284219743823 1.31947554216828 43.7008034736
endloop
endfacet
facet normal -0.0864937554809833 -0.996252392851729 -5.58115319070626e-16
outer loop
vertex -10.5284219743823 1.31947554216828 43.7008034736
vertex -10.0617072527683 1.27895578101108 40.465698336
vertex -0.955997702216982 0.48840609601427 43.7008034736
endloop
endfacet
endsolid LoftsAtArtspaceGOOG
