solid Louisville City Hall Complex
facet normal 0.992534661822689 -0.121962884028382 1.61493139332159e-17
outer loop
vertex 16.5403359474873 -3.66208657272989 0.0
vertex 13.5263144551115 -28.1902110631725 4.35507418474794
vertex 13.5263144551115 -28.1902110631725 0.0
endloop
endfacet
facet normal 0.992534661822689 -0.121962884028382 1.61493139332159e-17
outer loop
vertex 13.5263144551115 -28.1902110631725 4.35507418474794
vertex 16.5403359474873 -3.66208657272989 0.0
vertex 13.5263144551115 -28.1902110631725 14.0700125
endloop
endfacet
facet normal 0.992534661822689 -0.121962884028382 1.61493139332159e-17
outer loop
vertex 13.5263144551115 -28.1902110631725 14.0700125
vertex 16.5403359474873 -3.66208657272989 0.0
vertex 16.5403359474873 -3.66208657272989 14.0700125
endloop
endfacet
facet normal 0.998971150225048 -0.0453502041676238 0.0
outer loop
vertex 8.53916470732919 -25.0719275141633 10.5537
vertex 8.51757033060155 -25.5476069461295 11.15695
vertex 8.51757033060155 -25.5476069461295 10.5537
endloop
endfacet
facet normal 0.998971150225048 -0.0453502041676238 0.0
outer loop
vertex 8.51757033060155 -25.5476069461295 11.15695
vertex 8.53916470732919 -25.0719275141633 10.5537
vertex 8.53916470732919 -25.0719275141633 11.15695
endloop
endfacet
facet normal 0.976669530257939 0.214747825753225 0.0
outer loop
vertex 8.43690837715663 -24.6068674298284 10.5537
vertex 8.53916470732919 -25.0719275141633 11.15695
vertex 8.53916470732919 -25.0719275141633 10.5537
endloop
endfacet
facet normal 0.976669530257939 0.214747825753225 0.0
outer loop
vertex 8.53916470732919 -25.0719275141633 11.15695
vertex 8.43690837715663 -24.6068674298284 10.5537
vertex 8.43690837715663 -24.6068674298284 11.15695
endloop
endfacet
facet normal 0.302357692619204 0.953194537182201 0.0
outer loop
vertex 7.04164802202075 -23.4319796297418 11.15695
vertex 7.49553003442721 -23.575953092282 10.5537
vertex 7.04164802202075 -23.4319796297418 10.5537
endloop
endfacet
facet normal 0.302357692619204 0.953194537182201 0.0
outer loop
vertex 7.49553003442721 -23.575953092282 10.5537
vertex 7.04164802202075 -23.4319796297418 11.15695
vertex 7.49553003442721 -23.575953092282 11.15695
endloop
endfacet
facet normal -0.992534661822689 0.121962884028382 -0.0
outer loop
vertex -15.3922099384528 31.3063547354484 14.112875
vertex -16.7711436487824 20.0845841553153 11.5649375
vertex -16.7711436487824 20.0845841553153 14.112875
endloop
endfacet
facet normal -0.992534661822689 0.121962884028382 -0.0
outer loop
vertex -16.7711436487824 20.0845841553153 11.5649375
vertex -15.3922099384528 31.3063547354484 14.112875
vertex -15.3922099384528 31.3063547354484 11.5649375
endloop
endfacet
facet normal -0.121962884028382 -0.992534661822689 -0.0
outer loop
vertex -15.3922099384528 31.3063547354484 14.112875
vertex -19.9300784123061 31.8639690412262 11.5649375
vertex -15.3922099384528 31.3063547354484 11.5649375
endloop
endfacet
facet normal -0.121962884028382 -0.992534661822689 -0.0
outer loop
vertex -19.9300784123061 31.8639690412262 11.5649375
vertex -15.3922099384528 31.3063547354484 14.112875
vertex -19.9300784123061 31.8639690412262 14.112875
endloop
endfacet
facet normal 0.992534661822689 -0.121962884028382 -0.0
outer loop
vertex -47.5551770712853 36.2014178833012 0.0
vertex -54.9782239008733 -24.2073805260957 11.5649375
vertex -54.9782239008733 -24.2073805260957 0.0
endloop
endfacet
facet normal 0.992534661822689 -0.121962884028382 -0.0
outer loop
vertex -54.9782239008733 -24.2073805260957 11.5649375
vertex -47.5551770712853 36.2014178833012 0.0
vertex -47.5551770712853 36.2014178833012 11.5649375
endloop
endfacet
facet normal -0.121962884028382 -0.992534661822689 -0.0
outer loop
vertex -8.52162995226838 31.4049667732205 11.5649375
vertex -47.5551770712853 36.2014178833012 0.0
vertex -8.52162995226838 31.4049667732205 0.0
endloop
endfacet
facet normal -0.121962884028382 -0.992534661822689 -0.0
outer loop
vertex -47.5551770712853 36.2014178833012 0.0
vertex -8.52162995226838 31.4049667732205 11.5649375
vertex -47.5551770712853 36.2014178833012 11.5649375
endloop
endfacet
facet normal -0.121962884028382 -0.992534661822689 -1.08219341103357e-16
outer loop
vertex -10.0147003854045 19.2543508769505 15.17015
vertex -16.7711436487824 20.0845841553153 11.5649375
vertex -10.0147003854045 19.2543508769505 11.5649375
endloop
endfacet
facet normal -0.121962884028382 -0.992534661822689 -1.08219341103357e-16
outer loop
vertex -16.7711436487824 20.0845841553153 11.5649375
vertex -10.0147003854045 19.2543508769505 15.17015
vertex -16.7711436487824 20.0845841553153 14.112875
endloop
endfacet
facet normal -0.121962884028382 -0.992534661822689 -1.08219341103357e-16
outer loop
vertex -16.7711436487824 20.0845841553153 14.112875
vertex -10.0147003854045 19.2543508769505 15.17015
vertex -21.3090121226357 20.6421984610931 14.112875
endloop
endfacet
facet normal -0.121962884028382 -0.992534661822689 -1.08219341103357e-16
outer loop
vertex -21.3090121226357 20.6421984610931 14.112875
vertex -29.253022220736 21.6183602210619 11.5649375
vertex -21.3090121226357 20.6421984610931 11.5649375
endloop
endfacet
facet normal -0.121962884028382 -0.992534661822689 -1.08219341103357e-16
outer loop
vertex -29.253022220736 21.6183602210619 11.5649375
vertex -21.3090121226357 20.6421984610931 14.112875
vertex -29.253022220736 21.6183602210619 15.17015
endloop
endfacet
facet normal -0.121962884028382 -0.992534661822689 -1.08219341103357e-16
outer loop
vertex -29.253022220736 21.6183602210619 15.17015
vertex -21.3090121226357 20.6421984610931 14.112875
vertex -10.0147003854045 19.2543508769505 15.17015
endloop
endfacet
facet normal -0.0 -0.0 1.0
outer loop
vertex 11.5807732064925 -19.1368025891356 8.4375625
vertex -10.0841230050294 -3.82054813881634 8.4375625
vertex -11.6159280685314 -16.2863866830036 8.4375625
endloop
endfacet
facet normal -0.0 -0.0 1.0
outer loop
vertex -10.0841230050294 -3.82054813881634 8.4375625
vertex 11.5807732064925 -19.1368025891356 8.4375625
vertex 4.11089681474309 -5.5648353890774 8.4375625
endloop
endfacet
facet normal -0.0 -0.0 1.0
outer loop
vertex 4.11089681474309 -5.5648353890774 8.4375625
vertex 11.5807732064925 -19.1368025891356 8.4375625
vertex 4.74982987344678 -0.365194429453792 8.4375625
endloop
endfacet
facet normal -0.0 -0.0 1.0
outer loop
vertex 4.74982987344678 -0.365194429453792 8.4375625
vertex 11.5807732064925 -19.1368025891356 8.4375625
vertex 13.7515113286982 -1.47132308532475 8.4375625
endloop
endfacet
facet normal 0.121962884028381 0.992534661822689 -3.29661137149609e-18
outer loop
vertex 18.2016220163264 14.2513536800728 12.6793625
vertex 20.0561606252588 14.0234675558019 0.0
vertex 18.2016220163264 14.2513536800728 0.0
endloop
endfacet
facet normal 0.121962884028381 0.992534661822689 -3.29661137149609e-18
outer loop
vertex 20.0561606252588 14.0234675558019 0.0
vertex 18.2016220163264 14.2513536800728 12.6793625
vertex 20.0561606252588 14.0234675558019 4.67995
endloop
endfacet
facet normal 0.121962884028381 0.992534661822689 -3.29661137149609e-18
outer loop
vertex 20.0561606252588 14.0234675558019 4.67995
vertex 18.2016220163264 14.2513536800728 12.6793625
vertex 20.0561606252588 14.0234675558019 12.6793625
endloop
endfacet
facet normal 0.0 0.0 1.0
outer loop
vertex -7.55523160093333 -29.7735267901956 14.1970125
vertex -12.4518540277225 -23.0891570161609 14.1970125
vertex -13.1881759738589 -29.0813493099332 14.1970125
endloop
endfacet
facet normal 0.0 0.0 1.0
outer loop
vertex -12.4518540277225 -23.0891570161609 14.1970125
vertex -7.55523160093333 -29.7735267901956 14.1970125
vertex -6.81890965479693 -23.7813344964233 14.1970125
endloop
endfacet
facet normal 0.992534661822689 -0.121962884028382 0.0
outer loop
vertex -6.81890965479693 -23.7813344964233 10.5537
vertex -7.55523160093333 -29.7735267901956 14.1970125
vertex -7.55523160093333 -29.7735267901956 10.5537
endloop
endfacet
facet normal 0.992534661822689 -0.121962884028382 0.0
outer loop
vertex -7.55523160093333 -29.7735267901956 14.1970125
vertex -6.81890965479693 -23.7813344964233 10.5537
vertex -6.81890965479693 -23.7813344964233 14.1970125
endloop
endfacet
facet normal 0.121962884028382 0.992534661822689 0.0
outer loop
vertex -12.4518540277225 -23.0891570161609 14.1970125
vertex -6.81890965479693 -23.7813344964233 10.5537
vertex -12.4518540277225 -23.0891570161609 10.5537
endloop
endfacet
facet normal 0.121962884028382 0.992534661822689 0.0
outer loop
vertex -6.81890965479693 -23.7813344964233 10.5537
vertex -12.4518540277225 -23.0891570161609 14.1970125
vertex -6.81890965479693 -23.7813344964233 14.1970125
endloop
endfacet
facet normal -0.992534661822689 0.121962884028382 -0.0
outer loop
vertex 41.0324994098371 12.8549972553352 14.0700125
vertex 40.8619236447711 11.4668506839932 12.6793625
vertex 40.8619236447711 11.4668506839932 14.0700125
endloop
endfacet
facet normal -0.992534661822689 0.121962884028382 -0.0
outer loop
vertex 40.8619236447711 11.4668506839932 12.6793625
vertex 41.0324994098371 12.8549972553352 14.0700125
vertex 41.0324994098371 12.8549972553352 12.6793625
endloop
endfacet
facet normal -0.460211146236552 0.887809495826463 0.0
outer loop
vertex 5.67816084521529 -23.7317800203448 11.15695
vertex 6.10090850571961 -23.5126415831867 10.5537
vertex 5.67816084521529 -23.7317800203448 10.5537
endloop
endfacet
facet normal -0.460211146236552 0.887809495826463 0.0
outer loop
vertex 6.10090850571961 -23.5126415831867 10.5537
vertex 5.67816084521529 -23.7317800203448 11.15695
vertex 6.10090850571961 -23.5126415831867 11.15695
endloop
endfacet
facet normal -0.674311837638737 0.738446711428976 0.0
outer loop
vertex 5.3265351629814 -24.0528666421395 11.15695
vertex 5.67816084521529 -23.7317800203448 10.5537
vertex 5.3265351629814 -24.0528666421395 10.5537
endloop
endfacet
facet normal -0.674311837638737 0.738446711428976 0.0
outer loop
vertex 5.67816084521529 -23.7317800203448 10.5537
vertex 5.3265351629814 -24.0528666421395 11.15695
vertex 5.67816084521529 -23.7317800203448 11.15695
endloop
endfacet
facet normal -0.842459291658841 0.538760003988496 0.0
outer loop
vertex 5.3265351629814 -24.0528666421395 11.15695
vertex 5.06999416817325 -24.4540199259161 10.5537
vertex 5.06999416817325 -24.4540199259161 11.15695
endloop
endfacet
facet normal -0.842459291658841 0.538760003988496 0.0
outer loop
vertex 5.06999416817325 -24.4540199259161 10.5537
vertex 5.3265351629814 -24.0528666421395 11.15695
vertex 5.3265351629814 -24.0528666421395 10.5537
endloop
endfacet
facet normal -0.953194537182201 0.302357692619205 0.0
outer loop
vertex 5.06999416817325 -24.4540199259161 11.15695
vertex 4.926020705633 -24.9079019383226 10.5537
vertex 4.926020705633 -24.9079019383226 11.15695
endloop
endfacet
facet normal -0.953194537182201 0.302357692619205 0.0
outer loop
vertex 4.926020705633 -24.9079019383226 10.5537
vertex 5.06999416817325 -24.4540199259161 11.15695
vertex 5.06999416817325 -24.4540199259161 10.5537
endloop
endfacet
facet normal 0.121962884028381 0.992534661822689 3.7576013759923e-17
outer loop
vertex 18.2016220163264 14.2513536800728 4.67995
vertex 20.0561606252588 14.0234675558019 0.0
vertex 18.2016220163264 14.2513536800728 0.0
endloop
endfacet
facet normal 0.121962884028381 0.992534661822689 3.7576013759923e-17
outer loop
vertex 20.0561606252588 14.0234675558019 0.0
vertex 18.2016220163264 14.2513536800728 4.67995
vertex 20.0561606252588 14.0234675558019 4.67995
endloop
endfacet
facet normal 0.992534661822689 -0.121962884028382 -1.30929421399649e-16
outer loop
vertex 19.8111524760245 27.3497219519974 0.0
vertex 18.2016220163264 14.2513536800728 12.6793625
vertex 18.2016220163264 14.2513536800728 0.0
endloop
endfacet
facet normal 0.992534661822689 -0.121962884028382 -1.30929421399649e-16
outer loop
vertex 18.2016220163264 14.2513536800728 12.6793625
vertex 19.8111524760245 27.3497219519974 0.0
vertex 19.8111524760245 27.3497219519974 12.6793625
endloop
endfacet
facet normal 0.992534661822689 -0.121962884028382 -1.30929421399649e-16
outer loop
vertex 19.8111524760245 27.3497219519974 12.6793625
vertex 19.8111524760245 27.3497219519974 0.0
vertex 19.8111524760245 27.3497219519974 4.67995
endloop
endfacet
facet normal 0.121962884028382 0.992534661822689 4.65391979238451e-32
outer loop
vertex 13.5263144551115 -28.1902110631725 14.0700125
vertex 37.2051642554823 -31.0998734892934 4.35507418474794
vertex 13.5263144551115 -28.1902110631725 4.35507418474794
endloop
endfacet
facet normal 0.121962884028382 0.992534661822689 4.65391979238451e-32
outer loop
vertex 37.2051642554823 -31.0998734892934 4.35507418474794
vertex 13.5263144551115 -28.1902110631725 14.0700125
vertex 37.2051642554823 -31.0998734892934 14.0700125
endloop
endfacet
facet normal -0.887809495826464 -0.460211146236552 -0.0
outer loop
vertex 5.00668265907792 -25.8486414546237 11.15695
vertex 5.225821096236 -26.271389115128 10.5537
vertex 5.225821096236 -26.271389115128 11.15695
endloop
endfacet
facet normal -0.887809495826464 -0.460211146236552 -0.0
outer loop
vertex 5.225821096236 -26.271389115128 10.5537
vertex 5.00668265907792 -25.8486414546237 11.15695
vertex 5.00668265907792 -25.8486414546237 10.5537
endloop
endfacet
facet normal -0.0 -0.0 1.0
outer loop
vertex 18.2115191348256 -0.988235656014177 4.67995
vertex 9.0620765285844 28.6705708388085 4.67995
vertex 5.60790457845311 0.56049935506788 4.67995
endloop
endfacet
facet normal -0.0 -0.0 1.0
outer loop
vertex 9.0620765285844 28.6705708388085 4.67995
vertex 18.2115191348256 -0.988235656014177 4.67995
vertex 18.2016220163264 14.2513536800728 4.67995
endloop
endfacet
facet normal -0.0 -0.0 1.0
outer loop
vertex 18.2016220163264 14.2513536800728 4.67995
vertex 18.2115191348256 -0.988235656014177 4.67995
vertex 20.0561606252588 14.0234675558019 4.67995
endloop
endfacet
facet normal -0.0 -0.0 1.0
outer loop
vertex 19.8111524760245 27.3497219519974 4.67995
vertex 9.0620765285844 28.6705708388085 4.67995
vertex 18.2016220163264 14.2513536800728 4.67995
endloop
endfacet
facet normal -0.121962884028382 -0.992534661822689 0.0
outer loop
vertex 18.2115191348256 -0.988235656014177 4.67995
vertex 5.60790457845311 0.56049935506788 0.0
vertex 18.2115191348256 -0.988235656014177 0.0
endloop
endfacet
facet normal -0.121962884028382 -0.992534661822689 0.0
outer loop
vertex 5.60790457845311 0.56049935506788 0.0
vertex 18.2115191348256 -0.988235656014177 4.67995
vertex 5.60790457845311 0.56049935506788 4.67995
endloop
endfacet
facet normal -0.992534661822689 0.121962884028382 0.0
outer loop
vertex 9.0620765285844 28.6705708388085 4.67995
vertex 5.60790457845311 0.56049935506788 0.0
vertex 5.60790457845311 0.56049935506788 4.67995
endloop
endfacet
facet normal -0.992534661822689 0.121962884028382 0.0
outer loop
vertex 5.60790457845311 0.56049935506788 0.0
vertex 9.0620765285844 28.6705708388085 4.67995
vertex 9.0620765285844 28.6705708388085 0.0
endloop
endfacet
facet normal 0.992534661822689 -0.121962884028382 -0.0
outer loop
vertex 19.8111524760245 27.3497219519974 0.0
vertex 18.2016220163264 14.2513536800728 4.67995
vertex 18.2016220163264 14.2513536800728 0.0
endloop
endfacet
facet normal 0.992534661822689 -0.121962884028382 -0.0
outer loop
vertex 18.2016220163264 14.2513536800728 4.67995
vertex 19.8111524760245 27.3497219519974 0.0
vertex 19.8111524760245 27.3497219519974 4.67995
endloop
endfacet
facet normal 0.0 0.0 -1.0
outer loop
vertex 19.8111524760245 27.3497219519974 12.6793625
vertex 20.0561606252588 14.0234675558019 12.6793625
vertex 18.2016220163264 14.2513536800728 12.6793625
endloop
endfacet
facet normal 0.0 0.0 -1.0
outer loop
vertex 20.0561606252588 14.0234675558019 12.6793625
vertex 19.8111524760245 27.3497219519974 12.6793625
vertex 20.2267363903248 15.4116141271438 12.6793625
endloop
endfacet
facet normal 0.0 0.0 -1.0
outer loop
vertex 20.2267363903248 15.4116141271438 12.6793625
vertex 19.8111524760245 27.3497219519974 12.6793625
vertex 49.3727957417878 23.7171805325474 12.6793625
endloop
endfacet
facet normal 0.0 0.0 -1.0
outer loop
vertex 20.2267363903248 15.4116141271438 12.6793625
vertex 49.3727957417878 23.7171805325474 12.6793625
vertex 41.0324994098371 12.8549972553352 12.6793625
endloop
endfacet
facet normal 0.0 0.0 -1.0
outer loop
vertex 41.0324994098371 12.8549972553352 12.6793625
vertex 49.3727957417878 23.7171805325474 12.6793625
vertex 47.7632652820897 10.6188122606229 12.6793625
endloop
endfacet
facet normal 0.0 0.0 -1.0
outer loop
vertex 47.7632652820897 10.6188122606229 12.6793625
vertex 40.8619236447711 11.4668506839932 12.6793625
vertex 41.0324994098371 12.8549972553352 12.6793625
endloop
endfacet
facet normal -0.992534661822689 0.121962884028382 -0.0
outer loop
vertex 27.417370697025 -1.49702388482552 15.751175
vertex 26.5499055885763 -8.55645999865794 14.0700125
vertex 26.5499055885763 -8.55645999865794 15.751175
endloop
endfacet
facet normal -0.992534661822689 0.121962884028382 -0.0
outer loop
vertex 26.5499055885763 -8.55645999865794 14.0700125
vertex 27.417370697025 -1.49702388482552 15.751175
vertex 27.417370697025 -1.49702388482552 14.0700125
endloop
endfacet
facet normal -0.992534661822689 0.121962884028382 0.0
outer loop
vertex 44.2652081991158 -3.98608510693547 14.0700125
vertex 43.381157185164 -11.1804974165238 0.0
vertex 43.381157185164 -11.1804974165238 14.0700125
endloop
endfacet
facet normal -0.992534661822689 0.121962884028382 0.0
outer loop
vertex 43.381157185164 -11.1804974165238 0.0
vertex 44.2652081991158 -3.98608510693547 14.0700125
vertex 44.2652081991158 -3.98608510693547 0.0
endloop
endfacet
facet normal 0.121962884028382 0.992534661822689 0.0
outer loop
vertex 39.7083198891389 -10.7291783377849 14.0700125
vertex 43.381157185164 -11.1804974165238 0.0
vertex 39.7083198891389 -10.7291783377849 0.0
endloop
endfacet
facet normal 0.121962884028382 0.992534661822689 0.0
outer loop
vertex 43.381157185164 -11.1804974165238 0.0
vertex 39.7083198891389 -10.7291783377849 14.0700125
vertex 43.381157185164 -11.1804974165238 14.0700125
endloop
endfacet
facet normal 0.121962884028382 0.992534661822689 -5.36958968992342e-16
outer loop
vertex -36.3127728173806 -26.5009953824806 5.31034537909993
vertex -15.9446767818564 -29.0038316361764 0.0
vertex -36.3127728173806 -26.5009953824806 0.0
endloop
endfacet
facet normal 0.121962884028382 0.992534661822689 -5.36958968992342e-16
outer loop
vertex -15.9446767818564 -29.0038316361764 0.0
vertex -36.3127728173806 -26.5009953824806 5.31034537909993
vertex -15.9446767818564 -29.0038316361764 5.31034537909993
endloop
endfacet
facet normal 0.121962884028382 0.992534661822689 0.0
outer loop
vertex 4.74982987344678 -0.365194429453792 8.4375625
vertex 13.7515113286982 -1.47132308532475 0.0
vertex 4.74982987344678 -0.365194429453792 0.0
endloop
endfacet
facet normal 0.121962884028382 0.992534661822689 0.0
outer loop
vertex 13.7515113286982 -1.47132308532475 0.0
vertex 4.74982987344678 -0.365194429453792 8.4375625
vertex 13.7515113286982 -1.47132308532475 8.4375625
endloop
endfacet
facet normal 0.992534661822689 -0.121962884028382 9.89865785605607e-18
outer loop
vertex 13.7515113286982 -1.47132308532475 0.0
vertex 10.008525301165 -31.9317652160652 3.09027803393443
vertex 10.008525301165 -31.9317652160652 0.0
endloop
endfacet
facet normal 0.992534661822689 -0.121962884028382 9.89865785605607e-18
outer loop
vertex 10.008525301165 -31.9317652160652 3.09027803393443
vertex 13.7515113286982 -1.47132308532475 0.0
vertex 10.008525301165 -31.9317652160652 10.5537
endloop
endfacet
facet normal 0.992534661822689 -0.121962884028382 9.89865785605607e-18
outer loop
vertex 10.008525301165 -31.9317652160652 10.5537
vertex 13.7515113286982 -1.47132308532475 0.0
vertex 11.5807732064925 -19.1368025891356 8.4375625
endloop
endfacet
facet normal 0.992534661822689 -0.121962884028382 9.89865785605607e-18
outer loop
vertex 11.5807732064925 -19.1368025891356 8.4375625
vertex 13.7515113286982 -1.47132308532475 0.0
vertex 13.7515113286982 -1.47132308532475 8.4375625
endloop
endfacet
facet normal 0.992534661822689 -0.121962884028382 9.89865785605607e-18
outer loop
vertex 11.5807732064925 -19.1368025891356 10.5537
vertex 10.008525301165 -31.9317652160652 10.5537
vertex 11.5807732064925 -19.1368025891356 8.4375625
endloop
endfacet
facet normal -0.121962884028382 -0.992534661822689 3.43543679436034e-17
outer loop
vertex 10.008525301165 -31.9317652160652 10.5537
vertex -13.1881759738589 -29.0813493099332 3.09027803393443
vertex 10.008525301165 -31.9317652160652 3.09027803393443
endloop
endfacet
facet normal -0.121962884028382 -0.992534661822689 3.43543679436034e-17
outer loop
vertex -13.1881759738589 -29.0813493099332 3.09027803393443
vertex 10.008525301165 -31.9317652160652 10.5537
vertex -7.55523160093333 -29.7735267901956 10.5537
endloop
endfacet
facet normal -0.121962884028382 -0.992534661822689 3.43543679436034e-17
outer loop
vertex -13.1881759738589 -29.0813493099332 3.09027803393443
vertex -7.55523160093333 -29.7735267901956 10.5537
vertex -13.1881759738589 -29.0813493099332 14.1970125
endloop
endfacet
facet normal -0.121962884028382 -0.992534661822689 3.43543679436034e-17
outer loop
vertex -13.1881759738589 -29.0813493099332 14.1970125
vertex -7.55523160093333 -29.7735267901956 10.5537
vertex -7.55523160093333 -29.7735267901956 14.1970125
endloop
endfacet
facet normal 0.121962884028382 0.992534661822689 0.0
outer loop
vertex 40.8619236447711 11.4668506839932 12.6793625
vertex 47.7632652820897 10.6188122606229 0.0
vertex 40.8619236447711 11.4668506839932 0.0
endloop
endfacet
facet normal 0.121962884028382 0.992534661822689 0.0
outer loop
vertex 47.7632652820897 10.6188122606229 0.0
vertex 40.8619236447711 11.4668506839932 12.6793625
vertex 47.7632652820897 10.6188122606229 12.6793625
endloop
endfacet
facet normal -0.992534661822689 0.121962884028382 -0.0
outer loop
vertex 40.8619236447711 11.4668506839932 14.0700125
vertex 39.0419325078576 -3.34424780705586 0.0
vertex 39.0419325078576 -3.34424780705586 14.0700125
endloop
endfacet
facet normal -0.992534661822689 0.121962884028382 -0.0
outer loop
vertex 39.0419325078576 -3.34424780705586 0.0
vertex 40.8619236447711 11.4668506839932 14.0700125
vertex 40.8619236447711 11.4668506839932 0.0
endloop
endfacet
facet normal -0.992534661822689 0.121962884028382 -0.0
outer loop
vertex 40.8619236447711 11.4668506839932 0.0
vertex 40.8619236447711 11.4668506839932 14.0700125
vertex 40.8619236447711 11.4668506839932 12.6793625
endloop
endfacet
facet normal -0.121962884028382 -0.992534661822689 -0.0
outer loop
vertex 44.2652081991158 -3.98608510693547 14.0700125
vertex 39.0419325078576 -3.34424780705586 0.0
vertex 44.2652081991158 -3.98608510693547 0.0
endloop
endfacet
facet normal -0.121962884028382 -0.992534661822689 -0.0
outer loop
vertex 39.0419325078576 -3.34424780705586 0.0
vertex 44.2652081991158 -3.98608510693547 14.0700125
vertex 39.0419325078576 -3.34424780705586 14.0700125
endloop
endfacet
facet normal -0.998971150225048 0.0453502041676238 0.0
outer loop
vertex 4.926020705633 -24.9079019383226 11.15695
vertex 4.90442632890536 -25.3835813702888 10.5537
vertex 4.90442632890536 -25.3835813702888 11.15695
endloop
endfacet
facet normal -0.998971150225048 0.0453502041676238 0.0
outer loop
vertex 4.90442632890536 -25.3835813702888 10.5537
vertex 4.926020705633 -24.9079019383226 11.15695
vertex 4.926020705633 -24.9079019383226 10.5537
endloop
endfacet
facet normal 0.121962884028382 0.992534661822689 0.0
outer loop
vertex -11.6159280685314 -16.2863866830036 10.5537
vertex 11.5807732064925 -19.1368025891356 8.4375625
vertex -11.6159280685314 -16.2863866830036 8.4375625
endloop
endfacet
facet normal 0.121962884028382 0.992534661822689 0.0
outer loop
vertex 11.5807732064925 -19.1368025891356 8.4375625
vertex -11.6159280685314 -16.2863866830036 10.5537
vertex 11.5807732064925 -19.1368025891356 10.5537
endloop
endfacet
facet normal -0.302357692619199 -0.953194537182203 -0.0
outer loop
vertex 6.4019430142138 -27.0235292547103 11.15695
vertex 5.94806100180734 -26.8795557921701 10.5537
vertex 6.4019430142138 -27.0235292547103 10.5537
endloop
endfacet
facet normal -0.302357692619199 -0.953194537182203 -0.0
outer loop
vertex 5.94806100180734 -26.8795557921701 10.5537
vertex 6.4019430142138 -27.0235292547103 11.15695
vertex 5.94806100180734 -26.8795557921701 11.15695
endloop
endfacet
facet normal -0.0453502041676206 -0.998971150225048 -0.0
outer loop
vertex 6.87762244618002 -27.045123631438 11.15695
vertex 6.4019430142138 -27.0235292547103 10.5537
vertex 6.87762244618002 -27.045123631438 10.5537
endloop
endfacet
facet normal -0.0453502041676206 -0.998971150225048 -0.0
outer loop
vertex 6.4019430142138 -27.0235292547103 10.5537
vertex 6.87762244618002 -27.045123631438 11.15695
vertex 6.4019430142138 -27.0235292547103 11.15695
endloop
endfacet
facet normal 0.21474782575322 -0.97666953025794 0.0
outer loop
vertex 7.34268253051494 -26.9428673012654 11.15695
vertex 6.87762244618002 -27.045123631438 10.5537
vertex 7.34268253051494 -26.9428673012654 10.5537
endloop
endfacet
facet normal 0.21474782575322 -0.97666953025794 0.0
outer loop
vertex 6.87762244618002 -27.045123631438 10.5537
vertex 7.34268253051494 -26.9428673012654 11.15695
vertex 6.87762244618002 -27.045123631438 11.15695
endloop
endfacet
facet normal 0.460211146236553 -0.887809495826463 0.0
outer loop
vertex 7.76543019101926 -26.7237288641073 11.15695
vertex 7.34268253051494 -26.9428673012654 10.5537
vertex 7.76543019101926 -26.7237288641073 10.5537
endloop
endfacet
facet normal 0.460211146236553 -0.887809495826463 0.0
outer loop
vertex 7.34268253051494 -26.9428673012654 10.5537
vertex 7.76543019101926 -26.7237288641073 11.15695
vertex 7.34268253051494 -26.9428673012654 11.15695
endloop
endfacet
facet normal 0.674311837638734 -0.738446711428979 0.0
outer loop
vertex 8.11705587325315 -26.4026422423127 11.15695
vertex 7.76543019101926 -26.7237288641073 10.5537
vertex 8.11705587325315 -26.4026422423127 10.5537
endloop
endfacet
facet normal 0.674311837638734 -0.738446711428979 0.0
outer loop
vertex 7.76543019101926 -26.7237288641073 10.5537
vertex 8.11705587325315 -26.4026422423127 11.15695
vertex 7.76543019101926 -26.7237288641073 11.15695
endloop
endfacet
facet normal 0.0 0.0 -1.0
outer loop
vertex 16.5403359474873 -3.66208657272989 14.0700125
vertex 37.2051642554823 -31.0998734892934 14.0700125
vertex 13.5263144551115 -28.1902110631725 14.0700125
endloop
endfacet
facet normal 0.0 0.0 -1.0
outer loop
vertex 37.2051642554823 -31.0998734892934 14.0700125
vertex 16.5403359474873 -3.66208657272989 14.0700125
vertex 17.8629843331126 -3.82461390590142 14.0700125
endloop
endfacet
facet normal 0.0 0.0 -1.0
outer loop
vertex 37.2051642554823 -31.0998734892934 14.0700125
vertex 17.8629843331126 -3.82461390590142 14.0700125
vertex 23.2268623207441 -8.14812368932276 14.0700125
endloop
endfacet
facet normal 0.0 0.0 -1.0
outer loop
vertex 23.2268623207441 -8.14812368932276 14.0700125
vertex 17.8629843331126 -3.82461390590142 14.0700125
vertex 20.0561606252588 14.0234675558019 14.0700125
endloop
endfacet
facet normal 0.0 0.0 -1.0
outer loop
vertex 23.2268623207441 -8.14812368932276 14.0700125
vertex 20.0561606252588 14.0234675558019 14.0700125
vertex 20.2267363903248 15.4116141271438 14.0700125
endloop
endfacet
facet normal 0.0 0.0 -1.0
outer loop
vertex 37.2051642554823 -31.0998734892934 14.0700125
vertex 23.2268623207441 -8.14812368932276 14.0700125
vertex 26.5499055885763 -8.55645999865794 14.0700125
endloop
endfacet
facet normal 0.0 0.0 -1.0
outer loop
vertex 37.2051642554823 -31.0998734892934 14.0700125
vertex 26.5499055885763 -8.55645999865794 14.0700125
vertex 27.417370697025 -1.49702388482552 14.0700125
endloop
endfacet
facet normal 0.0 0.0 -1.0
outer loop
vertex 20.2267363903248 15.4116141271438 14.0700125
vertex 24.0943274291928 -1.08868757549035 14.0700125
vertex 23.2268623207441 -8.14812368932276 14.0700125
endloop
endfacet
facet normal 0.0 0.0 -1.0
outer loop
vertex 24.0943274291928 -1.08868757549035 14.0700125
vertex 20.2267363903248 15.4116141271438 14.0700125
vertex 41.0324994098371 12.8549972553352 14.0700125
endloop
endfacet
facet normal 0.0 0.0 -1.0
outer loop
vertex 24.0943274291928 -1.08868757549035 14.0700125
vertex 41.0324994098371 12.8549972553352 14.0700125
vertex 27.417370697025 -1.49702388482552 14.0700125
endloop
endfacet
facet normal 0.0 0.0 -1.0
outer loop
vertex 27.417370697025 -1.49702388482552 14.0700125
vertex 41.0324994098371 12.8549972553352 14.0700125
vertex 40.8619236447711 11.4668506839932 14.0700125
endloop
endfacet
facet normal 0.0 0.0 -1.0
outer loop
vertex 27.417370697025 -1.49702388482552 14.0700125
vertex 40.8619236447711 11.4668506839932 14.0700125
vertex 39.0419325078576 -3.34424780705586 14.0700125
endloop
endfacet
facet normal 0.0 0.0 -1.0
outer loop
vertex 27.417370697025 -1.49702388482552 14.0700125
vertex 39.0419325078576 -3.34424780705586 14.0700125
vertex 37.2051642554823 -31.0998734892934 14.0700125
endloop
endfacet
facet normal 0.0 0.0 -1.0
outer loop
vertex 39.0419325078576 -3.34424780705586 14.0700125
vertex 39.7083198891389 -10.7291783377849 14.0700125
vertex 37.2051642554823 -31.0998734892934 14.0700125
endloop
endfacet
facet normal 0.0 0.0 -1.0
outer loop
vertex 39.7083198891389 -10.7291783377849 14.0700125
vertex 39.0419325078576 -3.34424780705586 14.0700125
vertex 44.2652081991158 -3.98608510693547 14.0700125
endloop
endfacet
facet normal 0.0 0.0 -1.0
outer loop
vertex 39.7083198891389 -10.7291783377849 14.0700125
vertex 44.2652081991158 -3.98608510693547 14.0700125
vertex 43.381157185164 -11.1804974165238 14.0700125
endloop
endfacet
facet normal 0.992534661822689 -0.121962884028382 -7.06206480523785e-17
outer loop
vertex 18.2115191348256 -0.988235656014177 0.0
vertex 17.8629843331126 -3.82461390590142 14.0700125
vertex 17.8629843331126 -3.82461390590142 0.0
endloop
endfacet
facet normal 0.992534661822689 -0.121962884028382 -7.06206480523785e-17
outer loop
vertex 17.8629843331126 -3.82461390590142 14.0700125
vertex 18.2115191348256 -0.988235656014177 0.0
vertex 18.2115191348256 -0.988235656014177 4.67995
endloop
endfacet
facet normal 0.992534661822689 -0.121962884028382 -7.06206480523785e-17
outer loop
vertex 17.8629843331126 -3.82461390590142 14.0700125
vertex 18.2115191348256 -0.988235656014177 4.67995
vertex 20.0561606252588 14.0234675558019 14.0700125
endloop
endfacet
facet normal 0.992534661822689 -0.121962884028382 -7.06206480523785e-17
outer loop
vertex 20.0561606252588 14.0234675558019 14.0700125
vertex 18.2115191348256 -0.988235656014177 4.67995
vertex 20.0561606252588 14.0234675558019 4.67995
endloop
endfacet
facet normal 0.992534661822689 -0.121962884028382 -7.06206480523785e-17
outer loop
vertex 20.0561606252588 14.0234675558019 14.0700125
vertex 20.0561606252588 14.0234675558019 4.67995
vertex 20.0561606252588 14.0234675558019 12.6793625
endloop
endfacet
facet normal -0.121962884028382 -0.992534661822689 0.0
outer loop
vertex 49.3727957417878 23.7171805325474 12.6793625
vertex 19.8111524760245 27.3497219519974 0.0
vertex 49.3727957417878 23.7171805325474 0.0
endloop
endfacet
facet normal -0.121962884028382 -0.992534661822689 0.0
outer loop
vertex 19.8111524760245 27.3497219519974 0.0
vertex 49.3727957417878 23.7171805325474 12.6793625
vertex 19.8111524760245 27.3497219519974 4.67995
endloop
endfacet
facet normal -0.121962884028382 -0.992534661822689 0.0
outer loop
vertex 19.8111524760245 27.3497219519974 4.67995
vertex 49.3727957417878 23.7171805325474 12.6793625
vertex 19.8111524760245 27.3497219519974 12.6793625
endloop
endfacet
facet normal -0.992534661822689 0.121962884028382 -0.0
outer loop
vertex 49.3727957417878 23.7171805325474 12.6793625
vertex 47.7632652820897 10.6188122606229 0.0
vertex 47.7632652820897 10.6188122606229 12.6793625
endloop
endfacet
facet normal -0.992534661822689 0.121962884028382 -0.0
outer loop
vertex 47.7632652820897 10.6188122606229 0.0
vertex 49.3727957417878 23.7171805325474 12.6793625
vertex 49.3727957417878 23.7171805325474 0.0
endloop
endfacet
facet normal 0.0 0.0 -1.0
outer loop
vertex -19.9300784123061 31.8639690412262 14.112875
vertex -16.7711436487824 20.0845841553153 14.112875
vertex -21.3090121226357 20.6421984610931 14.112875
endloop
endfacet
facet normal 0.0 0.0 -1.0
outer loop
vertex -16.7711436487824 20.0845841553153 14.112875
vertex -19.9300784123061 31.8639690412262 14.112875
vertex -15.3922099384528 31.3063547354484 14.112875
endloop
endfacet
facet normal 0.992534661822689 -0.121962884028382 -0.0
outer loop
vertex -19.9300784123061 31.8639690412262 11.5649375
vertex -21.3090121226357 20.6421984610931 14.112875
vertex -21.3090121226357 20.6421984610931 11.5649375
endloop
endfacet
facet normal 0.992534661822689 -0.121962884028382 -0.0
outer loop
vertex -21.3090121226357 20.6421984610931 14.112875
vertex -19.9300784123061 31.8639690412262 11.5649375
vertex -19.9300784123061 31.8639690412262 14.112875
endloop
endfacet
facet normal 0.842459291658841 -0.538760003988495 0.0
outer loop
vertex 8.37359686806129 -26.001488958536 10.5537
vertex 8.11705587325315 -26.4026422423127 11.15695
vertex 8.11705587325315 -26.4026422423127 10.5537
endloop
endfacet
facet normal 0.842459291658841 -0.538760003988495 0.0
outer loop
vertex 8.11705587325315 -26.4026422423127 11.15695
vertex 8.37359686806129 -26.001488958536 10.5537
vertex 8.37359686806129 -26.001488958536 11.15695
endloop
endfacet
facet normal -4.64676756989448e-17 5.70995851362148e-18 1.0
outer loop
vertex -10.4648414288677 8.82264783481696 3.86475835705691e-17
vertex -10.9865955932737 11.3450620047302 0.0
vertex -11.2841787922023 8.92332819558238 0.0
endloop
endfacet
facet normal -4.64676756989448e-17 5.70995851362148e-18 1.0
outer loop
vertex -10.9865955932737 11.3450620047302 0.0
vertex -10.4648414288677 8.82264783481696 3.86475835705691e-17
vertex -10.1672582299391 11.2443816439648 3.86475835705691e-17
endloop
endfacet
facet normal 0.121962884028382 0.992534661822689 -0.0
outer loop
vertex -11.2841787922023 8.92332819558238 15.17015
vertex -10.4648414288677 8.82264783481696 3.86475835705691e-17
vertex -11.2841787922023 8.92332819558238 0.0
endloop
endfacet
facet normal 0.121962884028382 0.992534661822689 -0.0
outer loop
vertex -10.4648414288677 8.82264783481696 3.86475835705691e-17
vertex -11.2841787922023 8.92332819558238 15.17015
vertex -10.4648414288677 8.82264783481696 15.17015
endloop
endfacet
facet normal -0.121962884028382 -0.992534661822689 -1.16078481411427e-17
outer loop
vertex -10.1672582299391 11.2443816439648 3.86475835705691e-17
vertex -10.9865955932737 11.3450620047302 15.17015
vertex -10.9865955932737 11.3450620047302 0.0
endloop
endfacet
facet normal -0.121962884028382 -0.992534661822689 -1.16078481411427e-17
outer loop
vertex -10.9865955932737 11.3450620047302 15.17015
vertex -10.1672582299391 11.2443816439648 3.86475835705691e-17
vertex -10.1672582299391 11.2443816439648 15.17015
endloop
endfacet
facet normal -0.121962884028382 -0.992534661822689 -2.9975067773903e-17
outer loop
vertex 10.008525301165 -31.9317652160652 3.09027803393443
vertex -13.1881759738589 -29.0813493099332 0.0
vertex 10.008525301165 -31.9317652160652 0.0
endloop
endfacet
facet normal -0.121962884028382 -0.992534661822689 -2.9975067773903e-17
outer loop
vertex -13.1881759738589 -29.0813493099332 0.0
vertex 10.008525301165 -31.9317652160652 3.09027803393443
vertex -13.1881759738589 -29.0813493099332 3.09027803393443
endloop
endfacet
facet normal -0.976669530257939 -0.214747825753225 -0.0
outer loop
vertex 4.90442632890536 -25.3835813702888 11.15695
vertex 5.00668265907792 -25.8486414546237 10.5537
vertex 5.00668265907792 -25.8486414546237 11.15695
endloop
endfacet
facet normal -0.976669530257939 -0.214747825753225 -0.0
outer loop
vertex 5.00668265907792 -25.8486414546237 10.5537
vertex 4.90442632890536 -25.3835813702888 11.15695
vertex 4.90442632890536 -25.3835813702888 10.5537
endloop
endfacet
facet normal 0.121962884028382 0.992534661822689 -0.0
outer loop
vertex 9.0620765285844 28.6705708388085 4.67995
vertex 19.8111524760245 27.3497219519974 0.0
vertex 9.0620765285844 28.6705708388085 0.0
endloop
endfacet
facet normal 0.121962884028382 0.992534661822689 -0.0
outer loop
vertex 19.8111524760245 27.3497219519974 0.0
vertex 9.0620765285844 28.6705708388085 4.67995
vertex 19.8111524760245 27.3497219519974 4.67995
endloop
endfacet
facet normal 0.0 0.0 -1.0
outer loop
vertex -36.4267441115521 22.079215976146 15.17015
vertex -11.8144368870345 4.60808472601574 15.17015
vertex -38.1755595845642 7.84734545320545 15.17015
endloop
endfacet
facet normal 0.0 0.0 -1.0
outer loop
vertex -11.8144368870345 4.60808472601574 15.17015
vertex -36.4267441115521 22.079215976146 15.17015
vertex -29.3039432493539 21.2039645930676 15.17015
endloop
endfacet
facet normal 0.0 0.0 -1.0
outer loop
vertex -11.8144368870345 4.60808472601574 15.17015
vertex -29.3039432493539 21.2039645930676 15.17015
vertex -29.253022220736 21.6183602210619 15.17015
endloop
endfacet
facet normal 0.0 0.0 -1.0
outer loop
vertex -11.8144368870345 4.60808472601574 15.17015
vertex -29.253022220736 21.6183602210619 15.17015
vertex -10.9865955932737 11.3450620047302 15.17015
endloop
endfacet
facet normal 0.0 0.0 -1.0
outer loop
vertex -10.9865955932737 11.3450620047302 15.17015
vertex -29.253022220736 21.6183602210619 15.17015
vertex -10.0147003854045 19.2543508769505 15.17015
endloop
endfacet
facet normal 0.0 0.0 -1.0
outer loop
vertex -11.8144368870345 4.60808472601574 15.17015
vertex -10.9865955932737 11.3450620047302 15.17015
vertex -11.2841787922023 8.92332819558238 15.17015
endloop
endfacet
facet normal 0.0 0.0 -1.0
outer loop
vertex -10.9865955932737 11.3450620047302 15.17015
vertex -10.4648414288677 8.82264783481696 15.17015
vertex -11.2841787922023 8.92332819558238 15.17015
endloop
endfacet
facet normal 0.0 0.0 -1.0
outer loop
vertex -10.4648414288677 8.82264783481696 15.17015
vertex -10.9865955932737 11.3450620047302 15.17015
vertex -10.1672582299391 11.2443816439648 15.17015
endloop
endfacet
facet normal 0.121962884028382 0.992534661822689 0.0
outer loop
vertex -38.1755595845642 7.84734545320545 15.17015
vertex -11.8144368870345 4.60808472601574 11.5649375
vertex -38.1755595845642 7.84734545320545 11.5649375
endloop
endfacet
facet normal 0.121962884028382 0.992534661822689 0.0
outer loop
vertex -11.8144368870345 4.60808472601574 11.5649375
vertex -38.1755595845642 7.84734545320545 15.17015
vertex -11.8144368870345 4.60808472601574 15.17015
endloop
endfacet
facet normal 0.992534661822689 -0.121962884028382 -0.0
outer loop
vertex -36.4267441115521 22.079215976146 11.5649375
vertex -38.1755595845642 7.84734545320545 15.17015
vertex -38.1755595845642 7.84734545320545 11.5649375
endloop
endfacet
facet normal 0.992534661822689 -0.121962884028382 -0.0
outer loop
vertex -38.1755595845642 7.84734545320545 15.17015
vertex -36.4267441115521 22.079215976146 11.5649375
vertex -36.4267441115521 22.079215976146 15.17015
endloop
endfacet
facet normal -0.992534661822689 0.121962884028382 1.63743074036192e-16
outer loop
vertex -12.4518540277225 -23.0891570161609 14.1970125
vertex -13.1881759738589 -29.0813493099332 3.09027803393443
vertex -13.1881759738589 -29.0813493099332 14.1970125
endloop
endfacet
facet normal -0.992534661822689 0.121962884028382 1.63743074036192e-16
outer loop
vertex -13.1881759738589 -29.0813493099332 3.09027803393443
vertex -12.4518540277225 -23.0891570161609 14.1970125
vertex -13.1881759738589 -29.0813493099332 0.0
endloop
endfacet
facet normal -0.992534661822689 0.121962884028382 1.63743074036192e-16
outer loop
vertex -13.1881759738589 -29.0813493099332 0.0
vertex -12.4518540277225 -23.0891570161609 14.1970125
vertex -12.4518540277225 -23.0891570161609 10.5537
endloop
endfacet
facet normal -0.992534661822689 0.121962884028382 1.63743074036192e-16
outer loop
vertex -13.1881759738589 -29.0813493099332 0.0
vertex -12.4518540277225 -23.0891570161609 10.5537
vertex -10.0841230050294 -3.82054813881634 0.0
endloop
endfacet
facet normal -0.992534661822689 0.121962884028382 1.63743074036192e-16
outer loop
vertex -10.0841230050294 -3.82054813881634 0.0
vertex -12.4518540277225 -23.0891570161609 10.5537
vertex -11.6159280685314 -16.2863866830036 8.4375625
endloop
endfacet
facet normal -0.992534661822689 0.121962884028382 1.63743074036192e-16
outer loop
vertex -11.6159280685314 -16.2863866830036 8.4375625
vertex -12.4518540277225 -23.0891570161609 10.5537
vertex -11.6159280685314 -16.2863866830036 10.5537
endloop
endfacet
facet normal -0.992534661822689 0.121962884028382 1.63743074036192e-16
outer loop
vertex -10.0841230050294 -3.82054813881634 0.0
vertex -11.6159280685314 -16.2863866830036 8.4375625
vertex -10.0841230050294 -3.82054813881634 8.4375625
endloop
endfacet
facet normal -0.992534661822689 0.121962884028382 -5.93476918810607e-17
outer loop
vertex -10.0147003854045 19.2543508769505 15.17015
vertex -10.9865955932737 11.3450620047302 0.0
vertex -10.9865955932737 11.3450620047302 15.17015
endloop
endfacet
facet normal -0.992534661822689 0.121962884028382 -5.93476918810607e-17
outer loop
vertex -10.9865955932737 11.3450620047302 0.0
vertex -10.0147003854045 19.2543508769505 15.17015
vertex -10.0147003854045 19.2543508769505 11.5649375
endloop
endfacet
facet normal -0.992534661822689 0.121962884028382 -5.93476918810607e-17
outer loop
vertex -10.9865955932737 11.3450620047302 0.0
vertex -10.0147003854045 19.2543508769505 11.5649375
vertex -8.52162995226838 31.4049667732205 0.0
endloop
endfacet
facet normal -0.992534661822689 0.121962884028382 -5.93476918810607e-17
outer loop
vertex -8.52162995226838 31.4049667732205 0.0
vertex -10.0147003854045 19.2543508769505 11.5649375
vertex -8.52162995226838 31.4049667732205 11.5649375
endloop
endfacet
facet normal -0.992534661822689 0.121962884028382 1.60101077409345e-17
outer loop
vertex -11.8144368870345 4.60808472601574 11.5649375
vertex -15.9446767818564 -29.0038316361764 5.31034537909993
vertex -15.9446767818564 -29.0038316361764 11.5649375
endloop
endfacet
facet normal -0.992534661822689 0.121962884028382 1.60101077409345e-17
outer loop
vertex -11.2841787922023 8.92332819558238 15.17015
vertex -11.8144368870345 4.60808472601574 11.5649375
vertex -11.8144368870345 4.60808472601574 15.17015
endloop
endfacet
facet normal -0.992534661822689 0.121962884028382 1.60101077409345e-17
outer loop
vertex -15.9446767818564 -29.0038316361764 5.31034537909993
vertex -11.2841787922023 8.92332819558238 0.0
vertex -15.9446767818564 -29.0038316361764 0.0
endloop
endfacet
facet normal -0.992534661822689 0.121962884028382 1.60101077409345e-17
outer loop
vertex -11.2841787922023 8.92332819558238 0.0
vertex -15.9446767818564 -29.0038316361764 5.31034537909993
vertex -11.8144368870345 4.60808472601574 11.5649375
endloop
endfacet
facet normal -0.992534661822689 0.121962884028382 1.60101077409345e-17
outer loop
vertex -11.2841787922023 8.92332819558238 0.0
vertex -11.8144368870345 4.60808472601574 11.5649375
vertex -11.2841787922023 8.92332819558238 15.17015
endloop
endfacet
facet normal -0.992534661822689 0.121962884028382 -4.68171817935422e-17
outer loop
vertex -10.1672582299391 11.2443816439648 15.17015
vertex -10.4648414288677 8.82264783481696 3.86475835705691e-17
vertex -10.4648414288677 8.82264783481696 15.17015
endloop
endfacet
facet normal -0.992534661822689 0.121962884028382 -4.68171817935422e-17
outer loop
vertex -10.4648414288677 8.82264783481696 3.86475835705691e-17
vertex -10.1672582299391 11.2443816439648 15.17015
vertex -10.1672582299391 11.2443816439648 3.86475835705691e-17
endloop
endfacet
facet normal 0.121962884028382 0.992534661822689 -0.0
outer loop
vertex -54.9782239008733 -24.2073805260957 11.5649375
vertex -36.3127728173806 -26.5009953824806 0.0
vertex -54.9782239008733 -24.2073805260957 0.0
endloop
endfacet
facet normal 0.121962884028382 0.992534661822689 -0.0
outer loop
vertex -36.3127728173806 -26.5009953824806 0.0
vertex -54.9782239008733 -24.2073805260957 11.5649375
vertex -36.3127728173806 -26.5009953824806 5.31034537909993
endloop
endfacet
facet normal 0.121962884028382 0.992534661822689 -0.0
outer loop
vertex -36.3127728173806 -26.5009953824806 5.31034537909993
vertex -54.9782239008733 -24.2073805260957 11.5649375
vertex -36.3127728173806 -26.5009953824806 11.5649375
endloop
endfacet
facet normal 0.121962884028382 0.992534661822689 4.61505622135764e-16
outer loop
vertex -36.3127728173806 -26.5009953824806 11.5649375
vertex -15.9446767818564 -29.0038316361764 5.31034537909993
vertex -36.3127728173806 -26.5009953824806 5.31034537909993
endloop
endfacet
facet normal 0.121962884028382 0.992534661822689 4.61505622135764e-16
outer loop
vertex -15.9446767818564 -29.0038316361764 5.31034537909993
vertex -36.3127728173806 -26.5009953824806 11.5649375
vertex -15.9446767818564 -29.0038316361764 11.5649375
endloop
endfacet
facet normal -0.121962884028382 -0.992534661822689 0.0
outer loop
vertex -29.3039432493539 21.2039645930676 15.17015
vertex -36.4267441115521 22.079215976146 11.5649375
vertex -29.3039432493539 21.2039645930676 11.5649375
endloop
endfacet
facet normal -0.121962884028382 -0.992534661822689 0.0
outer loop
vertex -36.4267441115521 22.079215976146 11.5649375
vertex -29.3039432493539 21.2039645930676 15.17015
vertex -36.4267441115521 22.079215976146 15.17015
endloop
endfacet
facet normal 0.887809495826463 0.460211146236553 0.0
outer loop
vertex 8.21776993999855 -24.1841197693241 10.5537
vertex 8.43690837715663 -24.6068674298284 11.15695
vertex 8.43690837715663 -24.6068674298284 10.5537
endloop
endfacet
facet normal 0.887809495826463 0.460211146236553 0.0
outer loop
vertex 8.43690837715663 -24.6068674298284 11.15695
vertex 8.21776993999855 -24.1841197693241 10.5537
vertex 8.21776993999855 -24.1841197693241 11.15695
endloop
endfacet
facet normal -0.21474782575322 0.97666953025794 0.0
outer loop
vertex 6.10090850571961 -23.5126415831867 11.15695
vertex 6.56596859005453 -23.4103852530141 10.5537
vertex 6.10090850571961 -23.5126415831867 10.5537
endloop
endfacet
facet normal -0.21474782575322 0.97666953025794 0.0
outer loop
vertex 6.56596859005453 -23.4103852530141 10.5537
vertex 6.10090850571961 -23.5126415831867 11.15695
vertex 6.56596859005453 -23.4103852530141 11.15695
endloop
endfacet
facet normal 0.992534661822689 -0.121962884028382 0.0
outer loop
vertex 24.0943274291928 -1.08868757549035 14.0700125
vertex 23.2268623207441 -8.14812368932276 15.751175
vertex 23.2268623207441 -8.14812368932276 14.0700125
endloop
endfacet
facet normal 0.992534661822689 -0.121962884028382 0.0
outer loop
vertex 23.2268623207441 -8.14812368932276 15.751175
vertex 24.0943274291928 -1.08868757549035 14.0700125
vertex 24.0943274291928 -1.08868757549035 15.751175
endloop
endfacet
facet normal -0.121962884028381 -0.992534661822689 -0.0
outer loop
vertex 17.8629843331126 -3.82461390590142 14.0700125
vertex 16.5403359474873 -3.66208657272989 0.0
vertex 17.8629843331126 -3.82461390590142 0.0
endloop
endfacet
facet normal -0.121962884028381 -0.992534661822689 -0.0
outer loop
vertex 16.5403359474873 -3.66208657272989 0.0
vertex 17.8629843331126 -3.82461390590142 14.0700125
vertex 16.5403359474873 -3.66208657272989 14.0700125
endloop
endfacet
facet normal -0.121962884028382 -0.992534661822689 -0.0
outer loop
vertex 27.417370697025 -1.49702388482552 15.751175
vertex 24.0943274291928 -1.08868757549035 14.0700125
vertex 27.417370697025 -1.49702388482552 14.0700125
endloop
endfacet
facet normal -0.121962884028382 -0.992534661822689 -0.0
outer loop
vertex 24.0943274291928 -1.08868757549035 14.0700125
vertex 27.417370697025 -1.49702388482552 15.751175
vertex 24.0943274291928 -1.08868757549035 15.751175
endloop
endfacet
facet normal 0.953194537182202 -0.302357692619202 0.0
outer loop
vertex 8.51757033060155 -25.5476069461295 10.5537
vertex 8.37359686806129 -26.001488958536 11.15695
vertex 8.37359686806129 -26.001488958536 10.5537
endloop
endfacet
facet normal 0.953194537182202 -0.302357692619202 0.0
outer loop
vertex 8.37359686806129 -26.001488958536 11.15695
vertex 8.51757033060155 -25.5476069461295 10.5537
vertex 8.51757033060155 -25.5476069461295 11.15695
endloop
endfacet
facet normal 0.0453502041676208 0.998971150225048 0.0
outer loop
vertex 6.56596859005453 -23.4103852530141 11.15695
vertex 7.04164802202075 -23.4319796297418 10.5537
vertex 6.56596859005453 -23.4103852530141 10.5537
endloop
endfacet
facet normal 0.0453502041676208 0.998971150225048 0.0
outer loop
vertex 7.04164802202075 -23.4319796297418 10.5537
vertex 6.56596859005453 -23.4103852530141 11.15695
vertex 7.04164802202075 -23.4319796297418 11.15695
endloop
endfacet
facet normal -0.992534661822689 0.121962884028382 -7.80458485169462e-18
outer loop
vertex 39.7083198891389 -10.7291783377849 14.0700125
vertex 37.2051642554823 -31.0998734892934 4.35507418474794
vertex 37.2051642554823 -31.0998734892934 14.0700125
endloop
endfacet
facet normal -0.992534661822689 0.121962884028382 -7.80458485169462e-18
outer loop
vertex 37.2051642554823 -31.0998734892934 4.35507418474794
vertex 39.7083198891389 -10.7291783377849 14.0700125
vertex 37.2051642554823 -31.0998734892934 0.0
endloop
endfacet
facet normal -0.992534661822689 0.121962884028382 -7.80458485169462e-18
outer loop
vertex 37.2051642554823 -31.0998734892934 0.0
vertex 39.7083198891389 -10.7291783377849 14.0700125
vertex 39.7083198891389 -10.7291783377849 0.0
endloop
endfacet
facet normal 0.121962884028382 0.992534661822689 -0.0
outer loop
vertex 13.5263144551115 -28.1902110631725 4.35507418474794
vertex 37.2051642554823 -31.0998734892934 0.0
vertex 13.5263144551115 -28.1902110631725 0.0
endloop
endfacet
facet normal 0.121962884028382 0.992534661822689 -0.0
outer loop
vertex 37.2051642554823 -31.0998734892934 0.0
vertex 13.5263144551115 -28.1902110631725 4.35507418474794
vertex 37.2051642554823 -31.0998734892934 4.35507418474794
endloop
endfacet
facet normal 0.121962884028382 0.992534661822689 0.0
outer loop
vertex 23.2268623207441 -8.14812368932276 15.751175
vertex 26.5499055885763 -8.55645999865794 14.0700125
vertex 23.2268623207441 -8.14812368932276 14.0700125
endloop
endfacet
facet normal 0.121962884028382 0.992534661822689 0.0
outer loop
vertex 26.5499055885763 -8.55645999865794 14.0700125
vertex 23.2268623207441 -8.14812368932276 15.751175
vertex 26.5499055885763 -8.55645999865794 15.751175
endloop
endfacet
facet normal 0.992534661822689 -0.121962884028382 0.0
outer loop
vertex -29.253022220736 21.6183602210619 11.5649375
vertex -29.3039432493539 21.2039645930676 15.17015
vertex -29.3039432493539 21.2039645930676 11.5649375
endloop
endfacet
facet normal 0.992534661822689 -0.121962884028382 0.0
outer loop
vertex -29.3039432493539 21.2039645930676 15.17015
vertex -29.253022220736 21.6183602210619 11.5649375
vertex -29.253022220736 21.6183602210619 15.17015
endloop
endfacet
facet normal 0.0 0.0 -1.0
outer loop
vertex 24.0943274291928 -1.08868757549035 15.751175
vertex 26.5499055885763 -8.55645999865794 15.751175
vertex 23.2268623207441 -8.14812368932276 15.751175
endloop
endfacet
facet normal 0.0 0.0 -1.0
outer loop
vertex 26.5499055885763 -8.55645999865794 15.751175
vertex 24.0943274291928 -1.08868757549035 15.751175
vertex 27.417370697025 -1.49702388482552 15.751175
endloop
endfacet
facet normal 0.0 0.0 -1.0
outer loop
vertex -47.5551770712853 36.2014178833012 11.5649375
vertex -36.4267441115521 22.079215976146 11.5649375
vertex -38.1755595845642 7.84734545320545 11.5649375
endloop
endfacet
facet normal 0.0 0.0 -1.0
outer loop
vertex -36.4267441115521 22.079215976146 11.5649375
vertex -47.5551770712853 36.2014178833012 11.5649375
vertex -19.9300784123061 31.8639690412262 11.5649375
endloop
endfacet
facet normal 0.0 0.0 -1.0
outer loop
vertex -19.9300784123061 31.8639690412262 11.5649375
vertex -47.5551770712853 36.2014178833012 11.5649375
vertex -8.52162995226838 31.4049667732205 11.5649375
endloop
endfacet
facet normal 0.0 0.0 -1.0
outer loop
vertex -36.4267441115521 22.079215976146 11.5649375
vertex -19.9300784123061 31.8639690412262 11.5649375
vertex -29.253022220736 21.6183602210619 11.5649375
endloop
endfacet
facet normal 0.0 0.0 -1.0
outer loop
vertex -36.4267441115521 22.079215976146 11.5649375
vertex -29.253022220736 21.6183602210619 11.5649375
vertex -29.3039432493539 21.2039645930676 11.5649375
endloop
endfacet
facet normal 0.0 0.0 -1.0
outer loop
vertex -29.253022220736 21.6183602210619 11.5649375
vertex -19.9300784123061 31.8639690412262 11.5649375
vertex -21.3090121226357 20.6421984610931 11.5649375
endloop
endfacet
facet normal 0.0 0.0 -1.0
outer loop
vertex -19.9300784123061 31.8639690412262 11.5649375
vertex -8.52162995226838 31.4049667732205 11.5649375
vertex -15.3922099384528 31.3063547354484 11.5649375
endloop
endfacet
facet normal 0.0 0.0 -1.0
outer loop
vertex -15.3922099384528 31.3063547354484 11.5649375
vertex -8.52162995226838 31.4049667732205 11.5649375
vertex -10.0147003854045 19.2543508769505 11.5649375
endloop
endfacet
facet normal 0.0 0.0 -1.0
outer loop
vertex -10.0147003854045 19.2543508769505 11.5649375
vertex -16.7711436487824 20.0845841553153 11.5649375
vertex -15.3922099384528 31.3063547354484 11.5649375
endloop
endfacet
facet normal 0.0 0.0 -1.0
outer loop
vertex -47.5551770712853 36.2014178833012 11.5649375
vertex -36.3127728173806 -26.5009953824806 11.5649375
vertex -54.9782239008733 -24.2073805260957 11.5649375
endloop
endfacet
facet normal 0.0 0.0 -1.0
outer loop
vertex -36.3127728173806 -26.5009953824806 11.5649375
vertex -47.5551770712853 36.2014178833012 11.5649375
vertex -38.1755595845642 7.84734545320545 11.5649375
endloop
endfacet
facet normal 0.0 0.0 -1.0
outer loop
vertex -36.3127728173806 -26.5009953824806 11.5649375
vertex -38.1755595845642 7.84734545320545 11.5649375
vertex -11.8144368870345 4.60808472601574 11.5649375
endloop
endfacet
facet normal 0.0 0.0 -1.0
outer loop
vertex -36.3127728173806 -26.5009953824806 11.5649375
vertex -11.8144368870345 4.60808472601574 11.5649375
vertex -15.9446767818564 -29.0038316361764 11.5649375
endloop
endfacet
facet normal -0.992534661822689 0.121962884028382 0.0
outer loop
vertex 4.74982987344678 -0.365194429453792 8.4375625
vertex 4.11089681474309 -5.5648353890774 0.0
vertex 4.11089681474309 -5.5648353890774 8.4375625
endloop
endfacet
facet normal -0.992534661822689 0.121962884028382 0.0
outer loop
vertex 4.11089681474309 -5.5648353890774 0.0
vertex 4.74982987344678 -0.365194429453792 8.4375625
vertex 4.74982987344678 -0.365194429453792 0.0
endloop
endfacet
facet normal 0.121962884028382 0.992534661822689 0.0
outer loop
vertex -10.0841230050294 -3.82054813881634 8.4375625
vertex 4.11089681474309 -5.5648353890774 0.0
vertex -10.0841230050294 -3.82054813881634 0.0
endloop
endfacet
facet normal 0.121962884028382 0.992534661822689 0.0
outer loop
vertex 4.11089681474309 -5.5648353890774 0.0
vertex -10.0841230050294 -3.82054813881634 8.4375625
vertex 4.11089681474309 -5.5648353890774 8.4375625
endloop
endfacet
facet normal 0.0 0.0 1.0
outer loop
vertex 10.008525301165 -31.9317652160652 10.5537
vertex -6.81890965479693 -23.7813344964233 10.5537
vertex -7.55523160093333 -29.7735267901956 10.5537
endloop
endfacet
facet normal 0.0 0.0 1.0
outer loop
vertex -6.81890965479693 -23.7813344964233 10.5537
vertex 10.008525301165 -31.9317652160652 10.5537
vertex 5.225821096236 -26.271389115128 10.5537
endloop
endfacet
facet normal 0.0 0.0 1.0
outer loop
vertex -6.81890965479693 -23.7813344964233 10.5537
vertex 5.225821096236 -26.271389115128 10.5537
vertex 5.00668265907792 -25.8486414546237 10.5537
endloop
endfacet
facet normal 0.0 0.0 1.0
outer loop
vertex -6.81890965479693 -23.7813344964233 10.5537
vertex 5.00668265907792 -25.8486414546237 10.5537
vertex 4.90442632890536 -25.3835813702888 10.5537
endloop
endfacet
facet normal 0.0 0.0 1.0
outer loop
vertex 5.225821096236 -26.271389115128 10.5537
vertex 10.008525301165 -31.9317652160652 10.5537
vertex 5.54690771803066 -26.6230147973619 10.5537
endloop
endfacet
facet normal 0.0 0.0 1.0
outer loop
vertex 5.54690771803066 -26.6230147973619 10.5537
vertex 10.008525301165 -31.9317652160652 10.5537
vertex 5.94806100180734 -26.8795557921701 10.5537
endloop
endfacet
facet normal 0.0 0.0 1.0
outer loop
vertex 5.94806100180734 -26.8795557921701 10.5537
vertex 10.008525301165 -31.9317652160652 10.5537
vertex 6.4019430142138 -27.0235292547103 10.5537
endloop
endfacet
facet normal 0.0 0.0 1.0
outer loop
vertex 6.4019430142138 -27.0235292547103 10.5537
vertex 10.008525301165 -31.9317652160652 10.5537
vertex 6.87762244618002 -27.045123631438 10.5537
endloop
endfacet
facet normal 0.0 0.0 1.0
outer loop
vertex 6.87762244618002 -27.045123631438 10.5537
vertex 10.008525301165 -31.9317652160652 10.5537
vertex 7.34268253051494 -26.9428673012654 10.5537
endloop
endfacet
facet normal 0.0 0.0 1.0
outer loop
vertex 7.34268253051494 -26.9428673012654 10.5537
vertex 10.008525301165 -31.9317652160652 10.5537
vertex 7.76543019101926 -26.7237288641073 10.5537
endloop
endfacet
facet normal 0.0 0.0 1.0
outer loop
vertex 7.76543019101926 -26.7237288641073 10.5537
vertex 10.008525301165 -31.9317652160652 10.5537
vertex 8.11705587325315 -26.4026422423127 10.5537
endloop
endfacet
facet normal 0.0 0.0 1.0
outer loop
vertex 8.11705587325315 -26.4026422423127 10.5537
vertex 10.008525301165 -31.9317652160652 10.5537
vertex 8.37359686806129 -26.001488958536 10.5537
endloop
endfacet
facet normal 0.0 0.0 1.0
outer loop
vertex 8.37359686806129 -26.001488958536 10.5537
vertex 10.008525301165 -31.9317652160652 10.5537
vertex 8.51757033060155 -25.5476069461295 10.5537
endloop
endfacet
facet normal 0.0 0.0 1.0
outer loop
vertex 8.51757033060155 -25.5476069461295 10.5537
vertex 10.008525301165 -31.9317652160652 10.5537
vertex 8.53916470732919 -25.0719275141633 10.5537
endloop
endfacet
facet normal 0.0 0.0 1.0
outer loop
vertex -6.81890965479693 -23.7813344964233 10.5537
vertex -11.6159280685314 -16.2863866830036 10.5537
vertex -12.4518540277225 -23.0891570161609 10.5537
endloop
endfacet
facet normal 0.0 0.0 1.0
outer loop
vertex -11.6159280685314 -16.2863866830036 10.5537
vertex -6.81890965479693 -23.7813344964233 10.5537
vertex 11.5807732064925 -19.1368025891356 10.5537
endloop
endfacet
facet normal 0.0 0.0 1.0
outer loop
vertex 11.5807732064925 -19.1368025891356 10.5537
vertex -6.81890965479693 -23.7813344964233 10.5537
vertex 5.67816084521529 -23.7317800203448 10.5537
endloop
endfacet
facet normal 0.0 0.0 1.0
outer loop
vertex 5.67816084521529 -23.7317800203448 10.5537
vertex -6.81890965479693 -23.7813344964233 10.5537
vertex 5.3265351629814 -24.0528666421395 10.5537
endloop
endfacet
facet normal 0.0 0.0 1.0
outer loop
vertex 5.3265351629814 -24.0528666421395 10.5537
vertex -6.81890965479693 -23.7813344964233 10.5537
vertex 5.06999416817325 -24.4540199259161 10.5537
endloop
endfacet
facet normal 0.0 0.0 1.0
outer loop
vertex 5.06999416817325 -24.4540199259161 10.5537
vertex -6.81890965479693 -23.7813344964233 10.5537
vertex 4.926020705633 -24.9079019383226 10.5537
endloop
endfacet
facet normal 0.0 0.0 1.0
outer loop
vertex 4.926020705633 -24.9079019383226 10.5537
vertex -6.81890965479693 -23.7813344964233 10.5537
vertex 4.90442632890536 -25.3835813702888 10.5537
endloop
endfacet
facet normal 0.0 0.0 1.0
outer loop
vertex 11.5807732064925 -19.1368025891356 10.5537
vertex 5.67816084521529 -23.7317800203448 10.5537
vertex 6.10090850571961 -23.5126415831867 10.5537
endloop
endfacet
facet normal 0.0 0.0 1.0
outer loop
vertex 11.5807732064925 -19.1368025891356 10.5537
vertex 6.10090850571961 -23.5126415831867 10.5537
vertex 6.56596859005453 -23.4103852530141 10.5537
endloop
endfacet
facet normal 0.0 0.0 1.0
outer loop
vertex 11.5807732064925 -19.1368025891356 10.5537
vertex 6.56596859005453 -23.4103852530141 10.5537
vertex 7.04164802202075 -23.4319796297418 10.5537
endloop
endfacet
facet normal 0.0 0.0 1.0
outer loop
vertex 11.5807732064925 -19.1368025891356 10.5537
vertex 7.04164802202075 -23.4319796297418 10.5537
vertex 7.49553003442721 -23.575953092282 10.5537
endloop
endfacet
facet normal 0.0 0.0 1.0
outer loop
vertex 11.5807732064925 -19.1368025891356 10.5537
vertex 7.49553003442721 -23.575953092282 10.5537
vertex 7.89668331820388 -23.8324940870902 10.5537
endloop
endfacet
facet normal 0.0 0.0 1.0
outer loop
vertex 11.5807732064925 -19.1368025891356 10.5537
vertex 7.89668331820388 -23.8324940870902 10.5537
vertex 8.21776993999855 -24.1841197693241 10.5537
endloop
endfacet
facet normal 0.0 0.0 1.0
outer loop
vertex 11.5807732064925 -19.1368025891356 10.5537
vertex 8.21776993999855 -24.1841197693241 10.5537
vertex 8.43690837715663 -24.6068674298284 10.5537
endloop
endfacet
facet normal 0.0 0.0 1.0
outer loop
vertex 11.5807732064925 -19.1368025891356 10.5537
vertex 8.43690837715663 -24.6068674298284 10.5537
vertex 8.53916470732919 -25.0719275141633 10.5537
endloop
endfacet
facet normal 0.0 0.0 1.0
outer loop
vertex 11.5807732064925 -19.1368025891356 10.5537
vertex 8.53916470732919 -25.0719275141633 10.5537
vertex 10.008525301165 -31.9317652160652 10.5537
endloop
endfacet
facet normal -0.73844671142898 -0.674311837638733 -0.0
outer loop
vertex 5.225821096236 -26.271389115128 11.15695
vertex 5.54690771803066 -26.6230147973619 10.5537
vertex 5.54690771803066 -26.6230147973619 11.15695
endloop
endfacet
facet normal -0.73844671142898 -0.674311837638733 -0.0
outer loop
vertex 5.54690771803066 -26.6230147973619 10.5537
vertex 5.225821096236 -26.271389115128 11.15695
vertex 5.225821096236 -26.271389115128 10.5537
endloop
endfacet
facet normal -0.538760003988496 -0.842459291658841 -0.0
outer loop
vertex 5.94806100180734 -26.8795557921701 11.15695
vertex 5.54690771803066 -26.6230147973619 10.5537
vertex 5.94806100180734 -26.8795557921701 10.5537
endloop
endfacet
facet normal -0.538760003988496 -0.842459291658841 -0.0
outer loop
vertex 5.54690771803066 -26.6230147973619 10.5537
vertex 5.94806100180734 -26.8795557921701 11.15695
vertex 5.54690771803066 -26.6230147973619 11.15695
endloop
endfacet
facet normal 0.738446711428979 0.674311837638734 0.0
outer loop
vertex 7.89668331820388 -23.8324940870902 10.5537
vertex 8.21776993999855 -24.1841197693241 11.15695
vertex 8.21776993999855 -24.1841197693241 10.5537
endloop
endfacet
facet normal 0.738446711428979 0.674311837638734 0.0
outer loop
vertex 8.21776993999855 -24.1841197693241 11.15695
vertex 7.89668331820388 -23.8324940870902 10.5537
vertex 7.89668331820388 -23.8324940870902 11.15695
endloop
endfacet
facet normal 0.538760003988494 0.842459291658842 0.0
outer loop
vertex 7.49553003442721 -23.575953092282 11.15695
vertex 7.89668331820388 -23.8324940870902 10.5537
vertex 7.49553003442721 -23.575953092282 10.5537
endloop
endfacet
facet normal 0.538760003988494 0.842459291658842 0.0
outer loop
vertex 7.89668331820388 -23.8324940870902 10.5537
vertex 7.49553003442721 -23.575953092282 11.15695
vertex 7.89668331820388 -23.8324940870902 11.15695
endloop
endfacet
facet normal 0.0 0.0 -1.0
outer loop
vertex 16.5403359474873 -3.66208657272989 0.0
vertex 37.2051642554823 -31.0998734892934 0.0
vertex 13.5263144551115 -28.1902110631725 0.0
endloop
endfacet
facet normal 0.0 0.0 -1.0
outer loop
vertex 37.2051642554823 -31.0998734892934 0.0
vertex 16.5403359474873 -3.66208657272989 0.0
vertex 17.8629843331126 -3.82461390590142 0.0
endloop
endfacet
facet normal 0.0 0.0 -1.0
outer loop
vertex 37.2051642554823 -31.0998734892934 0.0
vertex 17.8629843331126 -3.82461390590142 0.0
vertex 18.2115191348256 -0.988235656014177 0.0
endloop
endfacet
facet normal 0.0 0.0 -1.0
outer loop
vertex 37.2051642554823 -31.0998734892934 0.0
vertex 18.2115191348256 -0.988235656014177 0.0
vertex 20.0561606252588 14.0234675558019 0.0
endloop
endfacet
facet normal 0.0 0.0 -1.0
outer loop
vertex 19.8111524760245 27.3497219519974 0.0
vertex 20.0561606252588 14.0234675558019 0.0
vertex 18.2016220163264 14.2513536800728 0.0
endloop
endfacet
facet normal 0.0 0.0 -1.0
outer loop
vertex 20.0561606252588 14.0234675558019 0.0
vertex 19.8111524760245 27.3497219519974 0.0
vertex 49.3727957417878 23.7171805325474 0.0
endloop
endfacet
facet normal 0.0 0.0 -1.0
outer loop
vertex 20.0561606252588 14.0234675558019 0.0
vertex 49.3727957417878 23.7171805325474 0.0
vertex 40.8619236447711 11.4668506839932 0.0
endloop
endfacet
facet normal 0.0 0.0 -1.0
outer loop
vertex 20.0561606252588 14.0234675558019 0.0
vertex 40.8619236447711 11.4668506839932 0.0
vertex 39.0419325078576 -3.34424780705586 0.0
endloop
endfacet
facet normal 0.0 0.0 -1.0
outer loop
vertex 20.0561606252588 14.0234675558019 0.0
vertex 39.0419325078576 -3.34424780705586 0.0
vertex 37.2051642554823 -31.0998734892934 0.0
endloop
endfacet
facet normal 0.0 0.0 -1.0
outer loop
vertex 40.8619236447711 11.4668506839932 0.0
vertex 49.3727957417878 23.7171805325474 0.0
vertex 47.7632652820897 10.6188122606229 0.0
endloop
endfacet
facet normal 0.0 0.0 -1.0
outer loop
vertex 39.0419325078576 -3.34424780705586 0.0
vertex 39.7083198891389 -10.7291783377849 0.0
vertex 37.2051642554823 -31.0998734892934 0.0
endloop
endfacet
facet normal 0.0 0.0 -1.0
outer loop
vertex 39.7083198891389 -10.7291783377849 0.0
vertex 39.0419325078576 -3.34424780705586 0.0
vertex 44.2652081991158 -3.98608510693547 0.0
endloop
endfacet
facet normal 0.0 0.0 -1.0
outer loop
vertex 39.7083198891389 -10.7291783377849 0.0
vertex 44.2652081991158 -3.98608510693547 0.0
vertex 43.381157185164 -11.1804974165238 0.0
endloop
endfacet
facet normal 0.0 0.0 1.0
outer loop
vertex 5.00668265907792 -25.8486414546237 11.15695
vertex 4.926020705633 -24.9079019383226 11.15695
vertex 4.90442632890536 -25.3835813702888 11.15695
endloop
endfacet
facet normal 0.0 0.0 1.0
outer loop
vertex 4.926020705633 -24.9079019383226 11.15695
vertex 5.00668265907792 -25.8486414546237 11.15695
vertex 5.06999416817325 -24.4540199259161 11.15695
endloop
endfacet
facet normal 0.0 0.0 1.0
outer loop
vertex 5.06999416817325 -24.4540199259161 11.15695
vertex 5.00668265907792 -25.8486414546237 11.15695
vertex 5.225821096236 -26.271389115128 11.15695
endloop
endfacet
facet normal 0.0 0.0 1.0
outer loop
vertex 5.06999416817325 -24.4540199259161 11.15695
vertex 5.225821096236 -26.271389115128 11.15695
vertex 5.3265351629814 -24.0528666421395 11.15695
endloop
endfacet
facet normal 0.0 0.0 1.0
outer loop
vertex 5.3265351629814 -24.0528666421395 11.15695
vertex 5.225821096236 -26.271389115128 11.15695
vertex 5.54690771803066 -26.6230147973619 11.15695
endloop
endfacet
facet normal 0.0 0.0 1.0
outer loop
vertex 5.3265351629814 -24.0528666421395 11.15695
vertex 5.54690771803066 -26.6230147973619 11.15695
vertex 5.67816084521529 -23.7317800203448 11.15695
endloop
endfacet
facet normal 0.0 0.0 1.0
outer loop
vertex 5.67816084521529 -23.7317800203448 11.15695
vertex 5.54690771803066 -26.6230147973619 11.15695
vertex 5.94806100180734 -26.8795557921701 11.15695
endloop
endfacet
facet normal 0.0 0.0 1.0
outer loop
vertex 5.67816084521529 -23.7317800203448 11.15695
vertex 5.94806100180734 -26.8795557921701 11.15695
vertex 6.10090850571961 -23.5126415831867 11.15695
endloop
endfacet
facet normal 0.0 0.0 1.0
outer loop
vertex 6.10090850571961 -23.5126415831867 11.15695
vertex 5.94806100180734 -26.8795557921701 11.15695
vertex 6.4019430142138 -27.0235292547103 11.15695
endloop
endfacet
facet normal 0.0 0.0 1.0
outer loop
vertex 6.10090850571961 -23.5126415831867 11.15695
vertex 6.4019430142138 -27.0235292547103 11.15695
vertex 6.56596859005453 -23.4103852530141 11.15695
endloop
endfacet
facet normal 0.0 0.0 1.0
outer loop
vertex 6.56596859005453 -23.4103852530141 11.15695
vertex 6.4019430142138 -27.0235292547103 11.15695
vertex 6.87762244618002 -27.045123631438 11.15695
endloop
endfacet
facet normal 0.0 0.0 1.0
outer loop
vertex 6.56596859005453 -23.4103852530141 11.15695
vertex 6.87762244618002 -27.045123631438 11.15695
vertex 7.04164802202075 -23.4319796297418 11.15695
endloop
endfacet
facet normal 0.0 0.0 1.0
outer loop
vertex 7.04164802202075 -23.4319796297418 11.15695
vertex 6.87762244618002 -27.045123631438 11.15695
vertex 7.34268253051494 -26.9428673012654 11.15695
endloop
endfacet
facet normal 0.0 0.0 1.0
outer loop
vertex 7.04164802202075 -23.4319796297418 11.15695
vertex 7.34268253051494 -26.9428673012654 11.15695
vertex 7.49553003442721 -23.575953092282 11.15695
endloop
endfacet
facet normal 0.0 0.0 1.0
outer loop
vertex 7.49553003442721 -23.575953092282 11.15695
vertex 7.34268253051494 -26.9428673012654 11.15695
vertex 7.76543019101926 -26.7237288641073 11.15695
endloop
endfacet
facet normal 0.0 0.0 1.0
outer loop
vertex 7.49553003442721 -23.575953092282 11.15695
vertex 7.76543019101926 -26.7237288641073 11.15695
vertex 7.89668331820388 -23.8324940870902 11.15695
endloop
endfacet
facet normal 0.0 0.0 1.0
outer loop
vertex 7.89668331820388 -23.8324940870902 11.15695
vertex 7.76543019101926 -26.7237288641073 11.15695
vertex 8.11705587325315 -26.4026422423127 11.15695
endloop
endfacet
facet normal 0.0 0.0 1.0
outer loop
vertex 7.89668331820388 -23.8324940870902 11.15695
vertex 8.11705587325315 -26.4026422423127 11.15695
vertex 8.21776993999855 -24.1841197693241 11.15695
endloop
endfacet
facet normal 0.0 0.0 1.0
outer loop
vertex 8.21776993999855 -24.1841197693241 11.15695
vertex 8.11705587325315 -26.4026422423127 11.15695
vertex 8.37359686806129 -26.001488958536 11.15695
endloop
endfacet
facet normal 0.0 0.0 1.0
outer loop
vertex 8.21776993999855 -24.1841197693241 11.15695
vertex 8.37359686806129 -26.001488958536 11.15695
vertex 8.43690837715663 -24.6068674298284 11.15695
endloop
endfacet
facet normal 0.0 0.0 1.0
outer loop
vertex 8.43690837715663 -24.6068674298284 11.15695
vertex 8.37359686806129 -26.001488958536 11.15695
vertex 8.51757033060155 -25.5476069461295 11.15695
endloop
endfacet
facet normal 0.0 0.0 1.0
outer loop
vertex 8.43690837715663 -24.6068674298284 11.15695
vertex 8.51757033060155 -25.5476069461295 11.15695
vertex 8.53916470732919 -25.0719275141633 11.15695
endloop
endfacet
facet normal 0.992534661822689 -0.121962884028378 -0.0
outer loop
vertex 20.2267363903248 15.4116141271438 12.6793625
vertex 20.0561606252588 14.0234675558019 14.0700125
vertex 20.0561606252588 14.0234675558019 12.6793625
endloop
endfacet
facet normal 0.992534661822689 -0.121962884028378 -0.0
outer loop
vertex 20.0561606252588 14.0234675558019 14.0700125
vertex 20.2267363903248 15.4116141271438 12.6793625
vertex 20.2267363903248 15.4116141271438 14.0700125
endloop
endfacet
facet normal -0.121962884028382 -0.992534661822689 -0.0
outer loop
vertex 41.0324994098371 12.8549972553352 14.0700125
vertex 20.2267363903248 15.4116141271438 12.6793625
vertex 41.0324994098371 12.8549972553352 12.6793625
endloop
endfacet
facet normal -0.121962884028382 -0.992534661822689 -0.0
outer loop
vertex 20.2267363903248 15.4116141271438 12.6793625
vertex 41.0324994098371 12.8549972553352 14.0700125
vertex 20.2267363903248 15.4116141271438 14.0700125
endloop
endfacet
facet normal 0.0 0.0 -1.0
outer loop
vertex 19.8111524760245 27.3497219519974 0.0
vertex 18.2016220163264 14.2513536800728 0.0
vertex 9.0620765285844 28.6705708388085 0.0
endloop
endfacet
facet normal 0.0 0.0 -1.0
outer loop
vertex 9.0620765285844 28.6705708388085 0.0
vertex 18.2115191348256 -0.988235656014177 0.0
vertex 5.60790457845311 0.56049935506788 0.0
endloop
endfacet
facet normal 0.0 0.0 -1.0
outer loop
vertex 18.2115191348256 -0.988235656014177 0.0
vertex 9.0620765285844 28.6705708388085 0.0
vertex 18.2016220163264 14.2513536800728 0.0
endloop
endfacet
facet normal 0.0 0.0 -1.0
outer loop
vertex 18.2115191348256 -0.988235656014177 0.0
vertex 18.2016220163264 14.2513536800728 0.0
vertex 20.0561606252588 14.0234675558019 0.0
endloop
endfacet
facet normal 0.0 0.0 -1.0
outer loop
vertex -10.0841230050294 -3.82054813881634 0.0
vertex 10.008525301165 -31.9317652160652 0.0
vertex -13.1881759738589 -29.0813493099332 0.0
endloop
endfacet
facet normal 0.0 0.0 -1.0
outer loop
vertex 10.008525301165 -31.9317652160652 0.0
vertex -10.0841230050294 -3.82054813881634 0.0
vertex 4.11089681474309 -5.5648353890774 0.0
endloop
endfacet
facet normal 0.0 0.0 -1.0
outer loop
vertex 10.008525301165 -31.9317652160652 0.0
vertex 4.11089681474309 -5.5648353890774 0.0
vertex 4.74982987344678 -0.365194429453792 0.0
endloop
endfacet
facet normal 0.0 0.0 -1.0
outer loop
vertex 10.008525301165 -31.9317652160652 0.0
vertex 4.74982987344678 -0.365194429453792 0.0
vertex 13.7515113286982 -1.47132308532475 0.0
endloop
endfacet
endsolid Louisville City Hall Complex
