solid Main Street shops
facet normal 3.54552197911634e-18 -2.29400941666888e-18 -1.0
outer loop
vertex -26.0075901093028 -7.07451591823167 0.0
vertex -19.3878231404523 -20.8184799189982 0.0
vertex -27.6585799701221 -19.7403913372502 0.0
endloop
endfacet
facet normal 3.54552197911634e-18 -2.29400941666888e-18 -1.0
outer loop
vertex -19.3878231404523 -20.8184799189982 0.0
vertex -26.0075901093028 -7.07451591823167 0.0
vertex -19.6260608187883 41.8825715204304 0.0
endloop
endfacet
facet normal 3.54552197911634e-18 -2.29400941666888e-18 -1.0
outer loop
vertex -19.3878231404523 -20.8184799189982 0.0
vertex -19.6260608187883 41.8825715204304 0.0
vertex -18.6394811043589 -15.0774349708052 0.0
endloop
endfacet
facet normal 3.54552197911634e-18 -2.29400941666888e-18 -1.0
outer loop
vertex -18.6394811043589 -15.0774349708052 0.0
vertex -19.6260608187883 41.8825715204304 0.0
vertex 77.0044457868159 29.2868383891751 0.0
endloop
endfacet
facet normal 3.54552197911634e-18 -2.29400941666888e-18 -1.0
outer loop
vertex -18.6394811043589 -15.0774349708052 0.0
vertex 77.0044457868159 29.2868383891751 0.0
vertex 52.9732462834101 -24.4121144075925 0.0
endloop
endfacet
facet normal 3.54552197911634e-18 -2.29400941666888e-18 -1.0
outer loop
vertex 52.9732462834101 -24.4121144075925 0.0
vertex 77.0044457868159 29.2868383891751 0.0
vertex 70.039437739191 -24.1465147265743 1.44382283906452e-15
endloop
endfacet
facet normal 3.54552197911634e-18 -2.29400941666888e-18 -1.0
outer loop
vertex 52.9732462834101 -24.4121144075925 0.0
vertex 70.039437739191 -24.1465147265743 1.44382283906452e-15
vertex 68.9719266354821 -32.3361244685055 0.0
endloop
endfacet
facet normal 3.54552197911634e-18 -2.29400941666888e-18 -1.0
outer loop
vertex 68.9719266354821 -32.3361244685055 0.0
vertex 52.2249042473167 -30.1531593557855 0.0
vertex 52.9732462834101 -24.4121144075925 0.0
endloop
endfacet
facet normal 0.0 0.0 -1.0
outer loop
vertex -41.2938081018769 44.7069504036664 14.728825
vertex -45.5218277491776 12.270912246958 14.728825
vertex -53.8613900025833 46.3451277586976 14.728825
endloop
endfacet
facet normal 0.0 0.0 -1.0
outer loop
vertex -60.2429192930978 -2.61195967996449 14.728825
vertex -45.5218277491776 12.270912246958 14.728825
vertex -26.0075901093028 -7.07451591823167 14.728825
endloop
endfacet
facet normal 0.0 0.0 -1.0
outer loop
vertex -45.5218277491776 12.270912246958 14.728825
vertex -60.2429192930978 -2.61195967996449 14.728825
vertex -53.8613900025833 46.3451277586976 14.728825
endloop
endfacet
facet normal 0.0 0.0 -1.0
outer loop
vertex -26.0075901093028 -7.07451591823167 14.728825
vertex -45.5218277491776 12.270912246958 14.728825
vertex -23.854080466089 9.44653336372199 14.728825
endloop
endfacet
facet normal 0.129255979755718 0.991611260372425 -0.0
outer loop
vertex -60.2429192930978 -2.61195967996449 14.728825
vertex -26.0075901093028 -7.07451591823167 0.0
vertex -60.2429192930978 -2.61195967996449 0.0
endloop
endfacet
facet normal 0.129255979755718 0.991611260372425 -0.0
outer loop
vertex -26.0075901093028 -7.07451591823167 0.0
vertex -60.2429192930978 -2.61195967996449 14.728825
vertex -26.0075901093028 -7.07451591823167 14.728825
endloop
endfacet
facet normal 0.991611260372425 -0.129255979755718 -0.0
outer loop
vertex -53.8613900025833 46.3451277586976 0.0
vertex -60.2429192930978 -2.61195967996449 14.728825
vertex -60.2429192930978 -2.61195967996449 0.0
endloop
endfacet
facet normal 0.991611260372425 -0.129255979755718 -0.0
outer loop
vertex -60.2429192930978 -2.61195967996449 14.728825
vertex -53.8613900025833 46.3451277586976 0.0
vertex -53.8613900025833 46.3451277586976 14.728825
endloop
endfacet
facet normal -0.129255979755718 -0.991611260372425 0.0
outer loop
vertex -19.6260608187883 41.8825715204304 17.7403125
vertex -41.2938081018769 44.7069504036664 14.728825
vertex -19.6260608187883 41.8825715204304 14.728825
endloop
endfacet
facet normal -0.129255979755718 -0.991611260372425 0.0
outer loop
vertex -41.2938081018769 44.7069504036664 14.728825
vertex -19.6260608187883 41.8825715204304 17.7403125
vertex -41.2938081018769 44.7069504036664 17.7403125
endloop
endfacet
facet normal -0.129255979755718 -0.991611260372425 0.0
outer loop
vertex -19.6260608187883 41.8825715204304 14.728825
vertex -53.8613900025833 46.3451277586976 0.0
vertex -19.6260608187883 41.8825715204304 0.0
endloop
endfacet
facet normal -0.129255979755718 -0.991611260372425 0.0
outer loop
vertex -53.8613900025833 46.3451277586976 0.0
vertex -19.6260608187883 41.8825715204304 14.728825
vertex -53.8613900025833 46.3451277586976 14.728825
endloop
endfacet
facet normal -0.129255979755718 -0.991611260372425 0.0
outer loop
vertex -53.8613900025833 46.3451277586976 14.728825
vertex -19.6260608187883 41.8825715204304 14.728825
vertex -41.2938081018769 44.7069504036664 14.728825
endloop
endfacet
facet normal -0.0 -0.0 1.0
outer loop
vertex -19.3878231404523 -20.8184799189982 14.728825
vertex -26.0075901093028 -7.07451591823167 14.728825
vertex -27.6585799701221 -19.7403913372502 14.728825
endloop
endfacet
facet normal -0.0 -0.0 1.0
outer loop
vertex -26.0075901093028 -7.07451591823167 14.728825
vertex -19.3878231404523 -20.8184799189982 14.728825
vertex -23.854080466089 9.44653336372199 14.728825
endloop
endfacet
facet normal -0.0 -0.0 1.0
outer loop
vertex -23.854080466089 9.44653336372199 14.728825
vertex -19.3878231404523 -20.8184799189982 14.728825
vertex -19.6260608187883 41.8825715204304 14.728825
endloop
endfacet
facet normal -0.0 -0.0 1.0
outer loop
vertex -19.6260608187883 41.8825715204304 14.728825
vertex -19.3878231404523 -20.8184799189982 14.728825
vertex -18.6394811043589 -15.0774349708052 14.728825
endloop
endfacet
facet normal -0.0 -0.0 1.0
outer loop
vertex -19.6260608187883 41.8825715204304 14.728825
vertex -18.6394811043589 -15.0774349708052 14.728825
vertex 3.33003820272071 38.8902567001247 14.728825
endloop
endfacet
facet normal -0.0 -0.0 1.0
outer loop
vertex 3.33003820272071 38.8902567001247 14.728825
vertex -18.6394811043589 -15.0774349708052 14.728825
vertex -3.95413891251963 -16.9916612093629 14.728825
endloop
endfacet
facet normal -0.129255979755718 -0.991611260372425 6.12077754043564e-16
outer loop
vertex 68.9719266354821 -32.3361244685054 12.90955
vertex 52.2249042473167 -30.1531593557855 0.0
vertex 68.9719266354821 -32.3361244685055 0.0
endloop
endfacet
facet normal -0.129255979755718 -0.991611260372425 6.12077754043564e-16
outer loop
vertex 52.2249042473167 -30.1531593557855 0.0
vertex 68.9719266354821 -32.3361244685054 12.90955
vertex 52.2249042473167 -30.1531593557855 12.90955
endloop
endfacet
facet normal -0.991611260372425 0.129255979755718 -1.75950743036879e-16
outer loop
vertex 52.2249042473167 -30.1531593557855 12.90955
vertex 52.9732462834101 -24.4121144075925 0.0
vertex 52.2249042473167 -30.1531593557855 0.0
endloop
endfacet
facet normal -0.991611260372425 0.129255979755718 -1.75950743036879e-16
outer loop
vertex 52.9732462834101 -24.4121144075925 0.0
vertex 52.2249042473167 -30.1531593557855 12.90955
vertex 52.9732462834101 -24.4121144075926 12.90955
endloop
endfacet
facet normal 0.991611260372425 -0.129255979755718 0.0
outer loop
vertex -18.6394811043589 -15.0774349708052 0.0
vertex -19.3878231404523 -20.8184799189982 14.728825
vertex -19.3878231404523 -20.8184799189982 0.0
endloop
endfacet
facet normal 0.991611260372425 -0.129255979755718 0.0
outer loop
vertex -19.3878231404523 -20.8184799189982 14.728825
vertex -18.6394811043589 -15.0774349708052 0.0
vertex -18.6394811043589 -15.0774349708052 14.728825
endloop
endfacet
facet normal -0.129255979755718 -0.991611260372425 -0.0
outer loop
vertex -19.3878231404523 -20.8184799189982 14.728825
vertex -27.6585799701221 -19.7403913372502 0.0
vertex -19.3878231404523 -20.8184799189982 0.0
endloop
endfacet
facet normal -0.129255979755718 -0.991611260372425 -0.0
outer loop
vertex -27.6585799701221 -19.7403913372502 0.0
vertex -19.3878231404523 -20.8184799189982 14.728825
vertex -27.6585799701221 -19.7403913372502 14.728825
endloop
endfacet
facet normal -0.991611260372425 0.129255979755718 0.0
outer loop
vertex -26.0075901093028 -7.07451591823167 14.728825
vertex -27.6585799701221 -19.7403913372502 0.0
vertex -27.6585799701221 -19.7403913372502 14.728825
endloop
endfacet
facet normal -0.991611260372425 0.129255979755718 0.0
outer loop
vertex -27.6585799701221 -19.7403913372502 0.0
vertex -26.0075901093028 -7.07451591823167 14.728825
vertex -26.0075901093028 -7.07451591823167 0.0
endloop
endfacet
facet normal 0.0 0.0 -1.0
outer loop
vertex -41.2938081018769 44.7069504036664 17.7403125
vertex -23.854080466089 9.44653336372199 17.7403125
vertex -45.5218277491776 12.270912246958 17.7403125
endloop
endfacet
facet normal 0.0 0.0 -1.0
outer loop
vertex -23.854080466089 9.44653336372199 17.7403125
vertex -41.2938081018769 44.7069504036664 17.7403125
vertex -19.6260608187883 41.8825715204304 17.7403125
endloop
endfacet
facet normal -0.991611260372425 0.129255979755718 -0.0
outer loop
vertex -19.6260608187883 41.8825715204304 17.7403125
vertex -23.854080466089 9.44653336372199 14.728825
vertex -23.854080466089 9.44653336372199 17.7403125
endloop
endfacet
facet normal -0.991611260372425 0.129255979755718 -0.0
outer loop
vertex -23.854080466089 9.44653336372199 14.728825
vertex -19.6260608187883 41.8825715204304 17.7403125
vertex -19.6260608187883 41.8825715204304 14.728825
endloop
endfacet
facet normal 0.129255979755718 0.991611260372425 0.0
outer loop
vertex -45.5218277491776 12.270912246958 17.7403125
vertex -23.854080466089 9.44653336372199 14.728825
vertex -45.5218277491776 12.270912246958 14.728825
endloop
endfacet
facet normal 0.129255979755718 0.991611260372425 0.0
outer loop
vertex -23.854080466089 9.44653336372199 14.728825
vertex -45.5218277491776 12.270912246958 17.7403125
vertex -23.854080466089 9.44653336372199 17.7403125
endloop
endfacet
facet normal 0.991611260372425 -0.129255979755718 0.0
outer loop
vertex -41.2938081018769 44.7069504036664 14.728825
vertex -45.5218277491776 12.270912246958 17.7403125
vertex -45.5218277491776 12.270912246958 14.728825
endloop
endfacet
facet normal 0.991611260372425 -0.129255979755718 0.0
outer loop
vertex -45.5218277491776 12.270912246958 17.7403125
vertex -41.2938081018769 44.7069504036664 14.728825
vertex -41.2938081018769 44.7069504036664 17.7403125
endloop
endfacet
facet normal 0.129255979755718 0.991611260372425 1.11839836277539e-16
outer loop
vertex -19.6260608187883 41.8825715204304 0.0
vertex 3.33003820272071 38.8902567001247 9.71900888236696
vertex 77.0044457868159 29.2868383891751 0.0
endloop
endfacet
facet normal 0.129255979755718 0.991611260372425 1.11839836277539e-16
outer loop
vertex 3.33003820272071 38.8902567001247 9.71900888236696
vertex -19.6260608187883 41.8825715204304 0.0
vertex -19.6260608187883 41.8825715204304 14.728825
endloop
endfacet
facet normal 0.129255979755718 0.991611260372425 1.11839836277539e-16
outer loop
vertex 3.33003820272071 38.8902567001247 9.71900888236696
vertex -19.6260608187883 41.8825715204304 14.728825
vertex 3.33003820272071 38.8902567001247 14.728825
endloop
endfacet
facet normal 0.129255979755718 0.991611260372425 1.11839836277539e-16
outer loop
vertex 77.0044457868159 29.2868383891751 0.0
vertex 17.1047846505867 37.094726113535 9.71900888236696
vertex 77.0044457868159 29.2868383891751 12.90955
endloop
endfacet
facet normal 0.129255979755718 0.991611260372425 1.11839836277539e-16
outer loop
vertex 17.1047846505867 37.094726113535 9.71900888236696
vertex 77.0044457868159 29.2868383891751 0.0
vertex 3.33003820272071 38.8902567001247 9.71900888236696
endloop
endfacet
facet normal 0.129255979755718 0.991611260372425 1.11839836277539e-16
outer loop
vertex 77.0044457868159 29.2868383891751 12.90955
vertex 17.1047846505867 37.094726113535 9.71900888236696
vertex 23.6364979300467 36.2433208974395 12.0909180408685
endloop
endfacet
facet normal 0.129255979755718 0.991611260372425 1.11839836277539e-16
outer loop
vertex 23.6364979300467 36.2433208974395 12.0909180408685
vertex 17.1047846505867 37.094726113535 9.71900888236696
vertex 17.1047846505867 37.094726113535 12.0909180408685
endloop
endfacet
facet normal 0.129255979755718 0.991611260372425 1.11839836277539e-16
outer loop
vertex 77.0044457868159 29.2868383891751 12.90955
vertex 23.6364979300467 36.2433208974395 12.0909180408685
vertex 23.6364979300467 36.2433208974395 12.90955
endloop
endfacet
facet normal -0.991611260372425 0.129255979755718 -7.3485754279386e-31
outer loop
vertex 17.1047846505867 37.094726113535 12.0909180408685
vertex 9.82060753534633 -18.7871917959527 9.71900888236696
vertex 9.82060753534633 -18.7871917959527 12.0909180408685
endloop
endfacet
facet normal -0.991611260372425 0.129255979755718 -7.3485754279386e-31
outer loop
vertex 9.82060753534633 -18.7871917959527 9.71900888236696
vertex 17.1047846505867 37.094726113535 12.0909180408685
vertex 17.1047846505867 37.094726113535 9.71900888236696
endloop
endfacet
facet normal 1.05673140543172e-17 8.10691128407093e-17 1.0
outer loop
vertex 9.82060753534633 -18.7871917959527 9.71900888236696
vertex 3.33003820272071 38.8902567001247 9.71900888236696
vertex -3.95413891251963 -16.9916612093629 9.71900888236696
endloop
endfacet
facet normal 1.05673140543172e-17 8.10691128407093e-17 1.0
outer loop
vertex 3.33003820272071 38.8902567001247 9.71900888236696
vertex 9.82060753534633 -18.7871917959527 9.71900888236696
vertex 17.1047846505867 37.094726113535 9.71900888236696
endloop
endfacet
facet normal 0.991611260372425 -0.129255979755718 -6.49117797189142e-16
outer loop
vertex 3.33003820272071 38.8902567001247 9.71900888236696
vertex -3.95413891251963 -16.9916612093629 14.728825
vertex -3.95413891251963 -16.9916612093629 9.71900888236696
endloop
endfacet
facet normal 0.991611260372425 -0.129255979755718 -6.49117797189142e-16
outer loop
vertex -3.95413891251963 -16.9916612093629 14.728825
vertex 3.33003820272071 38.8902567001247 9.71900888236696
vertex 3.33003820272071 38.8902567001247 14.728825
endloop
endfacet
facet normal -0.991611260372425 0.129255979755718 3.18364898663896e-16
outer loop
vertex 23.6364979300467 36.2433208974395 12.90955
vertex 16.3523208148064 -19.6385970120481 12.0909180408685
vertex 16.3523208148064 -19.6385970120481 12.90955
endloop
endfacet
facet normal -0.991611260372425 0.129255979755718 3.18364898663896e-16
outer loop
vertex 16.3523208148064 -19.6385970120481 12.0909180408685
vertex 23.6364979300467 36.2433208974395 12.90955
vertex 23.6364979300467 36.2433208974395 12.0909180408685
endloop
endfacet
facet normal 9.63195543085532e-16 -2.41818645704377e-16 1.0
outer loop
vertex 16.3523208148064 -19.6385970120481 12.0909180408685
vertex 17.1047846505867 37.094726113535 12.0909180408685
vertex 9.82060753534633 -18.7871917959527 12.0909180408685
endloop
endfacet
facet normal 9.63195543085532e-16 -2.41818645704377e-16 1.0
outer loop
vertex 17.1047846505867 37.094726113535 12.0909180408685
vertex 16.3523208148064 -19.6385970120481 12.0909180408685
vertex 23.6364979300467 36.2433208974395 12.0909180408685
endloop
endfacet
facet normal -4.08366604133878e-17 -2.41692935402763e-16 1.0
outer loop
vertex 68.9719266354821 -32.3361244685054 12.90955
vertex 52.9732462834101 -24.4121144075926 12.90955
vertex 52.2249042473167 -30.1531593557855 12.90955
endloop
endfacet
facet normal -4.08366604133878e-17 -2.41692935402763e-16 1.0
outer loop
vertex 52.9732462834101 -24.4121144075926 12.90955
vertex 23.6364979300467 36.2433208974395 12.90955
vertex 16.3523208148064 -19.6385970120481 12.90955
endloop
endfacet
facet normal -4.08366604133878e-17 -2.41692935402763e-16 1.0
outer loop
vertex 23.6364979300467 36.2433208974395 12.90955
vertex 52.9732462834101 -24.4121144075926 12.90955
vertex 77.0044457868159 29.2868383891751 12.90955
endloop
endfacet
facet normal -4.08366604133878e-17 -2.41692935402763e-16 1.0
outer loop
vertex 77.0044457868159 29.2868383891751 12.90955
vertex 52.9732462834101 -24.4121144075926 12.90955
vertex 70.039437739191 -24.1465147265743 12.90955
endloop
endfacet
facet normal -4.08366604133878e-17 -2.41692935402763e-16 1.0
outer loop
vertex 70.039437739191 -24.1465147265743 12.90955
vertex 52.9732462834101 -24.4121144075926 12.90955
vertex 68.9719266354821 -32.3361244685054 12.90955
endloop
endfacet
facet normal -0.129255979755718 -0.991611260372425 -6.29097059560652e-16
outer loop
vertex 52.9732462834101 -24.4121144075926 12.90955
vertex -18.6394811043589 -15.0774349708052 0.0
vertex 52.9732462834101 -24.4121144075925 0.0
endloop
endfacet
facet normal -0.129255979755718 -0.991611260372425 -6.29097059560652e-16
outer loop
vertex -18.6394811043589 -15.0774349708052 0.0
vertex 52.9732462834101 -24.4121144075926 12.90955
vertex 9.82060753534633 -18.7871917959527 9.71900888236696
endloop
endfacet
facet normal -0.129255979755718 -0.991611260372425 -6.29097059560652e-16
outer loop
vertex 9.82060753534633 -18.7871917959527 9.71900888236696
vertex 52.9732462834101 -24.4121144075926 12.90955
vertex 16.3523208148064 -19.6385970120481 12.0909180408685
endloop
endfacet
facet normal -0.129255979755718 -0.991611260372425 -6.29097059560652e-16
outer loop
vertex 16.3523208148064 -19.6385970120481 12.0909180408685
vertex 52.9732462834101 -24.4121144075926 12.90955
vertex 16.3523208148064 -19.6385970120481 12.90955
endloop
endfacet
facet normal -0.129255979755718 -0.991611260372425 -6.29097059560652e-16
outer loop
vertex 9.82060753534633 -18.7871917959527 12.0909180408685
vertex 9.82060753534633 -18.7871917959527 9.71900888236696
vertex 16.3523208148064 -19.6385970120481 12.0909180408685
endloop
endfacet
facet normal -0.129255979755718 -0.991611260372425 -6.29097059560652e-16
outer loop
vertex -18.6394811043589 -15.0774349708052 0.0
vertex -3.95413891251963 -16.9916612093629 9.71900888236696
vertex -18.6394811043589 -15.0774349708052 14.728825
endloop
endfacet
facet normal -0.129255979755718 -0.991611260372425 -6.29097059560652e-16
outer loop
vertex -3.95413891251963 -16.9916612093629 9.71900888236696
vertex -18.6394811043589 -15.0774349708052 0.0
vertex 9.82060753534633 -18.7871917959527 9.71900888236696
endloop
endfacet
facet normal -0.129255979755718 -0.991611260372425 -6.29097059560652e-16
outer loop
vertex -18.6394811043589 -15.0774349708052 14.728825
vertex -3.95413891251963 -16.9916612093629 9.71900888236696
vertex -3.95413891251963 -16.9916612093629 14.728825
endloop
endfacet
facet normal 0.991611260372425 -0.129255979755718 1.48616622789973e-17
outer loop
vertex 70.039437739191 -24.1465147265743 1.44382283906452e-15
vertex 68.9719266354821 -32.3361244685054 12.90955
vertex 68.9719266354821 -32.3361244685055 0.0
endloop
endfacet
facet normal 0.991611260372425 -0.129255979755718 1.48616622789973e-17
outer loop
vertex 68.9719266354821 -32.3361244685054 12.90955
vertex 70.039437739191 -24.1465147265743 1.44382283906452e-15
vertex 70.039437739191 -24.1465147265743 12.90955
endloop
endfacet
facet normal 0.991611260372425 -0.129255979755718 8.36707724646472e-18
outer loop
vertex 70.039437739191 -24.1465147265743 1.44382283906452e-15
vertex 77.0044457868159 29.2868383891751 12.90955
vertex 70.039437739191 -24.1465147265743 12.90955
endloop
endfacet
facet normal 0.991611260372425 -0.129255979755718 8.36707724646472e-18
outer loop
vertex 77.0044457868159 29.2868383891751 12.90955
vertex 70.039437739191 -24.1465147265743 1.44382283906452e-15
vertex 77.0044457868159 29.2868383891751 0.0
endloop
endfacet
endsolid Main Street shops
