solid Main Street Apartment Complex
facet normal 0.991684882932557 -0.128689910105808 -0.0
outer loop
vertex 60.6483496530908 -22.1043008154682 -6.69632526987398
vertex 61.152161196327 -18.221927357724 3.4574749800573
vertex 60.6483496530908 -22.1043008154682 16.7846375
endloop
endfacet
facet normal 0.991684882932557 -0.128689910105808 -0.0
outer loop
vertex 61.152161196327 -18.221927357724 3.4574749800573
vertex 60.6483496530908 -22.1043008154682 -6.69632526987398
vertex 64.9849286712889 11.3133917794968 -6.69632526987398
endloop
endfacet
facet normal 0.991684882932557 -0.128689910105808 -0.0
outer loop
vertex 61.152161196327 -18.221927357724 3.4574749800573
vertex 64.9849286712889 11.3133917794968 -6.69632526987398
vertex 61.7096828852546 -13.9256633354563 3.4574749800573
endloop
endfacet
facet normal 0.991684882932557 -0.128689910105808 -0.0
outer loop
vertex 61.7096828852546 -13.9256633354563 3.4574749800573
vertex 64.9849286712889 11.3133917794968 -6.69632526987398
vertex 61.7096828852546 -13.9256633354563 15.0208249800573
endloop
endfacet
facet normal 0.991684882932557 -0.128689910105808 -0.0
outer loop
vertex 60.6483496530908 -22.1043008154682 16.7846375
vertex 61.152161196327 -18.221927357724 15.0208249800573
vertex 64.9849286712889 11.3133917794968 16.7846375
endloop
endfacet
facet normal 0.991684882932557 -0.128689910105808 -0.0
outer loop
vertex 61.152161196327 -18.221927357724 15.0208249800573
vertex 60.6483496530908 -22.1043008154682 16.7846375
vertex 61.152161196327 -18.221927357724 3.4574749800573
endloop
endfacet
facet normal 0.991684882932557 -0.128689910105808 -0.0
outer loop
vertex 64.9849286712889 11.3133917794968 16.7846375
vertex 61.152161196327 -18.221927357724 15.0208249800573
vertex 61.7096828852546 -13.9256633354563 15.0208249800573
endloop
endfacet
facet normal 0.991684882932557 -0.128689910105808 -0.0
outer loop
vertex 64.9849286712889 11.3133917794968 16.7846375
vertex 61.7096828852546 -13.9256633354563 15.0208249800573
vertex 64.9849286712889 11.3133917794968 -6.69632526987398
endloop
endfacet
facet normal 0.128689910105807 0.991684882932557 6.66964774816921e-17
outer loop
vertex 11.511355781668 16.619774259222 10.8156375
vertex 21.3305972879151 15.3455415583974 -6.69632526987398
vertex 11.511355781668 16.619774259222 -6.69632526987398
endloop
endfacet
facet normal 0.128689910105807 0.991684882932557 6.66964774816921e-17
outer loop
vertex 21.3305972879151 15.3455415583974 -6.69632526987398
vertex 11.511355781668 16.619774259222 10.8156375
vertex 14.741818872065 16.2005604425568 10.8156375
endloop
endfacet
facet normal 0.128689910105807 0.991684882932557 6.66964774816921e-17
outer loop
vertex 21.3305972879151 15.3455415583974 -6.69632526987398
vertex 14.741818872065 16.2005604425568 10.8156375
vertex 21.3305972879151 15.3455415583974 13.45565
endloop
endfacet
facet normal 0.128689910105807 0.991684882932557 6.66964774816921e-17
outer loop
vertex 21.3305972879151 15.3455415583974 13.45565
vertex 14.741818872065 16.2005604425568 10.8156375
vertex 14.741818872065 16.2005604425568 15.3304875
endloop
endfacet
facet normal 0.128689910105807 0.991684882932557 6.66964774816921e-17
outer loop
vertex 21.3305972879151 15.3455415583974 13.45565
vertex 14.741818872065 16.2005604425568 15.3304875
vertex 21.3305972879151 15.3455415583974 15.3304875
endloop
endfacet
facet normal 0.128689910105808 0.991684882932557 1.71546488277466e-16
outer loop
vertex 41.0319579498515 14.4217437388343 13.45565
vertex 64.9849286712889 11.3133917794968 -6.69632526987398
vertex 41.0319579498515 14.4217437388343 -6.69632526987398
endloop
endfacet
facet normal 0.128689910105808 0.991684882932557 1.71546488277466e-16
outer loop
vertex 64.9849286712889 11.3133917794968 -6.69632526987398
vertex 41.0319579498515 14.4217437388343 13.45565
vertex 41.921296617463 14.3063351900521 13.45565
endloop
endfacet
facet normal 0.128689910105808 0.991684882932557 1.71546488277466e-16
outer loop
vertex 64.9849286712889 11.3133917794968 -6.69632526987398
vertex 41.921296617463 14.3063351900521 13.45565
vertex 64.9849286712889 11.3133917794968 16.7846375
endloop
endfacet
facet normal 0.128689910105808 0.991684882932557 1.71546488277466e-16
outer loop
vertex 64.9849286712889 11.3133917794968 16.7846375
vertex 41.921296617463 14.3063351900521 13.45565
vertex 41.921296617463 14.3063351900521 16.7846375
endloop
endfacet
facet normal 0.128689910105808 0.991684882932557 0.0
outer loop
vertex 22.3042683650234 22.8486541747872 13.45565
vertex 41.797247890021 20.3190706085356 -6.69632526987398
vertex 22.3042683650234 22.8486541747872 -6.69632526987398
endloop
endfacet
facet normal 0.128689910105808 0.991684882932557 0.0
outer loop
vertex 41.797247890021 20.3190706085356 -6.69632526987398
vertex 22.3042683650234 22.8486541747872 13.45565
vertex 41.797247890021 20.3190706085356 13.45565
endloop
endfacet
facet normal 0.991684882932557 -0.128689910105808 -8.92520291282963e-18
outer loop
vertex 41.0319579498515 14.4217437388343 -6.69632526987398
vertex 41.797247890021 20.3190706085356 13.45565
vertex 41.0319579498515 14.4217437388343 13.45565
endloop
endfacet
facet normal 0.991684882932557 -0.128689910105808 -8.92520291282963e-18
outer loop
vertex 41.797247890021 20.3190706085356 13.45565
vertex 41.0319579498515 14.4217437388343 -6.69632526987398
vertex 41.797247890021 20.3190706085356 -6.69632526987398
endloop
endfacet
facet normal 0.128689910105808 0.991684882932557 3.11264043491027e-16
outer loop
vertex 5.31877501553697 37.4351164282729 15.3304875
vertex 14.0652504805625 36.3000954546666 -6.69632526987398
vertex 5.31877501553697 37.4351164282729 -6.69632526987398
endloop
endfacet
facet normal 0.128689910105808 0.991684882932557 3.11264043491027e-16
outer loop
vertex 14.0652504805625 36.3000954546666 -6.69632526987398
vertex 5.31877501553697 37.4351164282729 15.3304875
vertex 8.97231098004627 36.9610008872044 10.8156375
endloop
endfacet
facet normal 0.128689910105808 0.991684882932557 3.11264043491027e-16
outer loop
vertex 8.97231098004627 36.9610008872044 10.8156375
vertex 5.31877501553697 37.4351164282729 15.3304875
vertex 8.97231098004627 36.9610008872044 15.3304875
endloop
endfacet
facet normal 0.128689910105808 0.991684882932557 3.11264043491027e-16
outer loop
vertex 14.0652504805625 36.3000954546666 10.8156375
vertex 14.0652504805625 36.3000954546666 -6.69632526987398
vertex 8.97231098004627 36.9610008872044 10.8156375
endloop
endfacet
facet normal -0.991684882932557 0.128689910105808 -1.58177781116851e-16
outer loop
vertex 21.3305972879151 15.3455415583974 13.45565
vertex 22.3042683650234 22.8486541747872 -6.69632526987398
vertex 21.3305972879151 15.3455415583974 -6.69632526987398
endloop
endfacet
facet normal -0.991684882932557 0.128689910105808 -1.58177781116851e-16
outer loop
vertex 22.3042683650234 22.8486541747872 -6.69632526987398
vertex 21.3305972879151 15.3455415583974 13.45565
vertex 22.3042683650234 22.8486541747872 13.45565
endloop
endfacet
facet normal 0.991684882932557 -0.128689910105808 0.0
outer loop
vertex 5.7073445473582 40.4294345559216 -6.69632526987398
vertex 5.31877501553697 37.4351164282729 15.3304875
vertex 5.31877501553697 37.4351164282729 -6.69632526987398
endloop
endfacet
facet normal 0.991684882932557 -0.128689910105808 0.0
outer loop
vertex 5.31877501553697 37.4351164282729 15.3304875
vertex 5.7073445473582 40.4294345559216 -6.69632526987398
vertex 5.7073445473582 40.4294345559216 15.3304875
endloop
endfacet
facet normal 3.8826229610203e-18 -4.01803991179478e-17 1.0
outer loop
vertex -26.5322462136602 -11.967562101315 15.3304875
vertex -17.5793447066124 -10.6647753782539 15.3304875
vertex -19.31142710595 43.6760943875214 15.3304875
endloop
endfacet
facet normal 3.8826229610203e-18 -4.01803991179478e-17 1.0
outer loop
vertex -17.5793447066124 -10.6647753782539 15.3304875
vertex -26.5322462136602 -11.967562101315 15.3304875
vertex -1.77008541987191 -15.1809218100511 15.3304875
endloop
endfacet
facet normal 3.8826229610203e-18 -4.01803991179478e-17 1.0
outer loop
vertex -17.5793447066124 -10.6647753782539 15.3304875
vertex -1.77008541987191 -15.1809218100511 15.3304875
vertex -1.61992842413658 -14.0238114925844 15.3304875
endloop
endfacet
facet normal 3.8826229610203e-18 -4.01803991179478e-17 1.0
outer loop
vertex -17.5793447066124 -10.6647753782539 15.3304875
vertex -1.61992842413658 -14.0238114925844 15.3304875
vertex 2.45459266942048 -13.2645584790742 15.3304875
endloop
endfacet
facet normal 3.8826229610203e-18 -4.01803991179478e-17 1.0
outer loop
vertex 2.45459266942048 -13.2645584790742 15.3304875
vertex -1.61992842413658 -14.0238114925844 15.3304875
vertex 2.29021839989257 -14.5312271565166 15.3304875
endloop
endfacet
facet normal 3.8826229610203e-18 -4.01803991179478e-17 1.0
outer loop
vertex 5.46794734574179 9.95636285784345 15.3304875
vertex 5.31877501553697 37.4351164282729 15.3304875
vertex -14.5659900302911 12.5561459586638 15.3304875
endloop
endfacet
facet normal 3.8826229610203e-18 -4.01803991179478e-17 1.0
outer loop
vertex 5.31877501553697 37.4351164282729 15.3304875
vertex 5.46794734574179 9.95636285784345 15.3304875
vertex 8.97231098004627 36.9610008872044 15.3304875
endloop
endfacet
facet normal 3.8826229610203e-18 -4.01803991179478e-17 1.0
outer loop
vertex -19.31142710595 43.6760943875214 15.3304875
vertex -14.5659900302911 12.5561459586638 15.3304875
vertex 5.7073445473582 40.4294345559216 15.3304875
endloop
endfacet
facet normal 3.8826229610203e-18 -4.01803991179478e-17 1.0
outer loop
vertex -14.5659900302911 12.5561459586638 15.3304875
vertex -19.31142710595 43.6760943875214 15.3304875
vertex -17.5793447066124 -10.6647753782539 15.3304875
endloop
endfacet
facet normal 3.8826229610203e-18 -4.01803991179478e-17 1.0
outer loop
vertex 5.7073445473582 40.4294345559216 15.3304875
vertex -14.5659900302911 12.5561459586638 15.3304875
vertex 5.31877501553697 37.4351164282729 15.3304875
endloop
endfacet
facet normal 0.0 0.0 -1.0
outer loop
vertex -33.4171528807826 45.5065796688665 -6.69632526987398
vertex -1.77008541987191 -15.1809218100511 -6.69632526987398
vertex -40.6379719884929 -10.13707681997 -6.69632526987398
endloop
endfacet
facet normal 0.0 0.0 -1.0
outer loop
vertex -1.77008541987191 -15.1809218100511 -6.69632526987398
vertex -33.4171528807826 45.5065796688665 -6.69632526987398
vertex -1.61992842413658 -14.0238114925844 -6.69632526987398
endloop
endfacet
facet normal 0.0 0.0 -1.0
outer loop
vertex -1.61992842413658 -14.0238114925844 -6.69632526987398
vertex -33.4171528807826 45.5065796688665 -6.69632526987398
vertex 5.7073445473582 40.4294345559216 -6.69632526987398
endloop
endfacet
facet normal 0.0 0.0 -1.0
outer loop
vertex -1.61992842413658 -14.0238114925844 -6.69632526987398
vertex 5.7073445473582 40.4294345559216 -6.69632526987398
vertex 5.31877501553697 37.4351164282729 -6.69632526987398
endloop
endfacet
facet normal 0.0 0.0 -1.0
outer loop
vertex 14.0652504805625 36.3000954546666 -6.69632526987398
vertex 11.511355781668 16.619774259222 -6.69632526987398
vertex 5.31877501553697 37.4351164282729 -6.69632526987398
endloop
endfacet
facet normal 0.0 0.0 -1.0
outer loop
vertex 41.797247890021 20.3190706085356 -6.69632526987398
vertex 41.0319579498515 14.4217437388343 -6.69632526987398
vertex 22.3042683650234 22.8486541747872 -6.69632526987398
endloop
endfacet
facet normal 0.0 0.0 -1.0
outer loop
vertex -1.61992842413658 -14.0238114925844 -6.69632526987398
vertex 11.511355781668 16.619774259222 -6.69632526987398
vertex 60.6483496530908 -22.1043008154682 -6.69632526987398
endloop
endfacet
facet normal 0.0 0.0 -1.0
outer loop
vertex 11.511355781668 16.619774259222 -6.69632526987398
vertex -1.61992842413658 -14.0238114925844 -6.69632526987398
vertex 5.31877501553697 37.4351164282729 -6.69632526987398
endloop
endfacet
facet normal 0.0 0.0 -1.0
outer loop
vertex 60.6483496530908 -22.1043008154682 -6.69632526987398
vertex 11.511355781668 16.619774259222 -6.69632526987398
vertex 21.3305972879151 15.3455415583974 -6.69632526987398
endloop
endfacet
facet normal 0.0 0.0 -1.0
outer loop
vertex 60.6483496530908 -22.1043008154682 -6.69632526987398
vertex 21.3305972879151 15.3455415583974 -6.69632526987398
vertex 22.3042683650234 22.8486541747872 -6.69632526987398
endloop
endfacet
facet normal 0.0 0.0 -1.0
outer loop
vertex 60.6483496530908 -22.1043008154682 -6.69632526987398
vertex 22.3042683650234 22.8486541747872 -6.69632526987398
vertex 41.0319579498515 14.4217437388343 -6.69632526987398
endloop
endfacet
facet normal 0.0 0.0 -1.0
outer loop
vertex 60.6483496530908 -22.1043008154682 -6.69632526987398
vertex 41.0319579498515 14.4217437388343 -6.69632526987398
vertex 64.9849286712889 11.3133917794968 -6.69632526987398
endloop
endfacet
facet normal -0.128689910105808 -0.991684882932557 1.1249384305322e-17
outer loop
vertex 60.6483496530908 -22.1043008154682 16.7846375
vertex -1.61992842413658 -14.0238114925844 -6.69632526987398
vertex 60.6483496530908 -22.1043008154682 -6.69632526987398
endloop
endfacet
facet normal -0.128689910105808 -0.991684882932557 1.1249384305322e-17
outer loop
vertex -1.61992842413658 -14.0238114925844 -6.69632526987398
vertex 60.6483496530908 -22.1043008154682 16.7846375
vertex 37.5847175992649 -19.1113574049129 13.45565
endloop
endfacet
facet normal -0.128689910105808 -0.991684882932557 1.1249384305322e-17
outer loop
vertex -1.61992842413658 -14.0238114925844 -6.69632526987398
vertex 37.5847175992649 -19.1113574049129 13.45565
vertex 10.6136209908057 -15.6113464057196 10.8156375
endloop
endfacet
facet normal -0.128689910105808 -0.991684882932557 1.1249384305322e-17
outer loop
vertex 37.5847175992649 -19.1113574049129 13.45565
vertex 60.6483496530908 -22.1043008154682 16.7846375
vertex 37.5847175992649 -19.1113574049129 16.7846375
endloop
endfacet
facet normal -0.128689910105808 -0.991684882932557 1.1249384305322e-17
outer loop
vertex 10.6136209908057 -15.6113464057196 10.8156375
vertex 17.2023994066558 -16.4663652898791 13.45565
vertex 10.6136209908057 -15.6113464057196 15.3304875
endloop
endfacet
facet normal -0.128689910105808 -0.991684882932557 1.1249384305322e-17
outer loop
vertex 17.2023994066558 -16.4663652898791 13.45565
vertex 10.6136209908057 -15.6113464057196 10.8156375
vertex 37.5847175992649 -19.1113574049129 13.45565
endloop
endfacet
facet normal -0.128689910105808 -0.991684882932557 1.1249384305322e-17
outer loop
vertex 10.6136209908057 -15.6113464057196 15.3304875
vertex 17.2023994066558 -16.4663652898791 13.45565
vertex 17.2023994066558 -16.4663652898791 15.3304875
endloop
endfacet
facet normal -0.128689910105808 -0.991684882932557 1.1249384305322e-17
outer loop
vertex 7.38315790040877 -15.1921325890544 15.3304875
vertex 2.29021839989257 -14.5312271565166 15.3304875
vertex 7.38315790040877 -15.1921325890544 10.8156375
endloop
endfacet
facet normal -0.128689910105808 -0.991684882932557 1.1249384305322e-17
outer loop
vertex -1.61992842413658 -14.0238114925844 -6.69632526987398
vertex 7.38315790040877 -15.1921325890544 10.8156375
vertex -1.61992842413658 -14.0238114925844 15.3304875
endloop
endfacet
facet normal -0.128689910105808 -0.991684882932557 1.1249384305322e-17
outer loop
vertex 7.38315790040877 -15.1921325890544 10.8156375
vertex -1.61992842413658 -14.0238114925844 -6.69632526987398
vertex 10.6136209908057 -15.6113464057196 10.8156375
endloop
endfacet
facet normal -0.128689910105808 -0.991684882932557 1.1249384305322e-17
outer loop
vertex -1.61992842413658 -14.0238114925844 15.3304875
vertex 7.38315790040877 -15.1921325890544 10.8156375
vertex 2.29021839989257 -14.5312271565166 15.3304875
endloop
endfacet
facet normal 0.991684882932557 -0.128689910105808 0.0
outer loop
vertex -1.61992842413658 -14.0238114925844 -6.69632526987398
vertex -1.77008541987191 -15.1809218100511 15.3304875
vertex -1.77008541987191 -15.1809218100511 -6.69632526987398
endloop
endfacet
facet normal 0.991684882932557 -0.128689910105808 0.0
outer loop
vertex -1.77008541987191 -15.1809218100511 15.3304875
vertex -1.61992842413658 -14.0238114925844 -6.69632526987398
vertex -1.61992842413658 -14.0238114925844 15.3304875
endloop
endfacet
facet normal -0.128689910105808 -0.991684882932557 3.82508434444225e-17
outer loop
vertex -40.6379719884929 -10.13707681997 -6.69632526987398
vertex -31.42453819595 -11.3326944873705 13.3961178297787
vertex -40.6379719884929 -10.13707681997 13.6731375
endloop
endfacet
facet normal -0.128689910105808 -0.991684882932557 3.82508434444225e-17
outer loop
vertex -31.42453819595 -11.3326944873705 13.3961178297787
vertex -40.6379719884929 -10.13707681997 -6.69632526987398
vertex -26.5322462136602 -11.967562101315 13.3961178297786
endloop
endfacet
facet normal -0.128689910105808 -0.991684882932557 3.82508434444225e-17
outer loop
vertex -40.6379719884929 -10.13707681997 13.6731375
vertex -31.42453819595 -11.3326944873705 13.3961178297787
vertex -31.42453819595 -11.3326944873705 13.6731375
endloop
endfacet
facet normal -0.128689910105808 -0.991684882932557 3.82508434444225e-17
outer loop
vertex -1.77008541987191 -15.1809218100511 15.3304875
vertex -40.6379719884929 -10.13707681997 -6.69632526987398
vertex -1.77008541987191 -15.1809218100511 -6.69632526987398
endloop
endfacet
facet normal -0.128689910105808 -0.991684882932557 3.82508434444225e-17
outer loop
vertex -40.6379719884929 -10.13707681997 -6.69632526987398
vertex -1.77008541987191 -15.1809218100511 15.3304875
vertex -26.5322462136602 -11.967562101315 13.3961178297786
endloop
endfacet
facet normal -0.128689910105808 -0.991684882932557 3.82508434444225e-17
outer loop
vertex -26.5322462136602 -11.967562101315 13.3961178297786
vertex -1.77008541987191 -15.1809218100511 15.3304875
vertex -26.5322462136602 -11.967562101315 15.3304875
endloop
endfacet
facet normal -0.991684882932557 0.128689910105808 1.30475689516313e-15
outer loop
vertex -19.31142710595 43.6760943875214 15.3304875
vertex -26.5322462136602 -11.967562101315 13.3961178297786
vertex -26.5322462136602 -11.967562101315 15.3304875
endloop
endfacet
facet normal -0.991684882932557 0.128689910105808 1.30475689516313e-15
outer loop
vertex -26.5322462136602 -11.967562101315 13.3961178297786
vertex -19.31142710595 43.6760943875214 15.3304875
vertex -19.31142710595 43.6760943875214 11.4617481595573
endloop
endfacet
facet normal -0.0 -0.0 1.0
outer loop
vertex 10.6136209908057 -15.6113464057196 10.8156375
vertex 11.511355781668 16.619774259222 10.8156375
vertex 7.38315790040877 -15.1921325890544 10.8156375
endloop
endfacet
facet normal -0.0 -0.0 1.0
outer loop
vertex 11.511355781668 16.619774259222 10.8156375
vertex 10.6136209908057 -15.6113464057196 10.8156375
vertex 14.741818872065 16.2005604425568 10.8156375
endloop
endfacet
facet normal -0.991684882932557 0.128689910105808 0.0
outer loop
vertex 14.741818872065 16.2005604425568 15.3304875
vertex 10.6136209908057 -15.6113464057196 10.8156375
vertex 10.6136209908057 -15.6113464057196 15.3304875
endloop
endfacet
facet normal -0.991684882932557 0.128689910105808 0.0
outer loop
vertex 10.6136209908057 -15.6113464057196 10.8156375
vertex 14.741818872065 16.2005604425568 15.3304875
vertex 14.741818872065 16.2005604425568 10.8156375
endloop
endfacet
facet normal 0.991684882932557 -0.128689910105808 -1.74453015101946e-15
outer loop
vertex 21.3305972879151 15.3455415583974 13.45565
vertex 17.2023994066558 -16.4663652898791 15.3304875
vertex 17.2023994066558 -16.4663652898791 13.45565
endloop
endfacet
facet normal 0.991684882932557 -0.128689910105808 -1.74453015101946e-15
outer loop
vertex 17.2023994066558 -16.4663652898791 15.3304875
vertex 21.3305972879151 15.3455415583974 13.45565
vertex 21.3305972879151 15.3455415583974 15.3304875
endloop
endfacet
facet normal -0.991684882932557 0.128689910105808 -3.14534028575863e-15
outer loop
vertex 41.921296617463 14.3063351900521 16.7846375
vertex 37.5847175992649 -19.1113574049129 13.45565
vertex 37.5847175992649 -19.1113574049129 16.7846375
endloop
endfacet
facet normal -0.991684882932557 0.128689910105808 -3.14534028575863e-15
outer loop
vertex 37.5847175992649 -19.1113574049129 13.45565
vertex 41.921296617463 14.3063351900521 16.7846375
vertex 41.921296617463 14.3063351900521 13.45565
endloop
endfacet
facet normal -0.0 -0.0 1.0
outer loop
vertex 17.2023994066558 -16.4663652898791 15.3304875
vertex 14.741818872065 16.2005604425568 15.3304875
vertex 10.6136209908057 -15.6113464057196 15.3304875
endloop
endfacet
facet normal -0.0 -0.0 1.0
outer loop
vertex 14.741818872065 16.2005604425568 15.3304875
vertex 17.2023994066558 -16.4663652898791 15.3304875
vertex 21.3305972879151 15.3455415583974 15.3304875
endloop
endfacet
facet normal 0.0 0.0 1.0
outer loop
vertex 60.6483496530908 -22.1043008154682 16.7846375
vertex 41.921296617463 14.3063351900521 16.7846375
vertex 37.5847175992649 -19.1113574049129 16.7846375
endloop
endfacet
facet normal 0.0 0.0 1.0
outer loop
vertex 41.921296617463 14.3063351900521 16.7846375
vertex 60.6483496530908 -22.1043008154682 16.7846375
vertex 64.9849286712889 11.3133917794968 16.7846375
endloop
endfacet
facet normal -0.0 -0.0 1.0
outer loop
vertex 41.921296617463 14.3063351900521 13.45565
vertex 41.0319579498515 14.4217437388343 13.45565
vertex 37.5847175992649 -19.1113574049129 13.45565
endloop
endfacet
facet normal -0.0 -0.0 1.0
outer loop
vertex 37.5847175992649 -19.1113574049129 13.45565
vertex 21.3305972879151 15.3455415583974 13.45565
vertex 17.2023994066558 -16.4663652898791 13.45565
endloop
endfacet
facet normal -0.0 -0.0 1.0
outer loop
vertex 21.3305972879151 15.3455415583974 13.45565
vertex 37.5847175992649 -19.1113574049129 13.45565
vertex 22.3042683650234 22.8486541747872 13.45565
endloop
endfacet
facet normal -0.0 -0.0 1.0
outer loop
vertex 22.3042683650234 22.8486541747872 13.45565
vertex 37.5847175992649 -19.1113574049129 13.45565
vertex 41.0319579498515 14.4217437388343 13.45565
endloop
endfacet
facet normal -0.0 -0.0 1.0
outer loop
vertex 22.3042683650234 22.8486541747872 13.45565
vertex 41.0319579498515 14.4217437388343 13.45565
vertex 41.797247890021 20.3190706085356 13.45565
endloop
endfacet
facet normal 0.991684882932557 -0.128689910105808 -0.0
outer loop
vertex 5.46794734574179 9.95636285784345 15.3304875
vertex 2.45459266942048 -13.2645584790742 16.2194875
vertex 2.45459266942048 -13.2645584790742 15.3304875
endloop
endfacet
facet normal 0.991684882932557 -0.128689910105808 -0.0
outer loop
vertex 2.45459266942048 -13.2645584790742 16.2194875
vertex 5.46794734574179 9.95636285784345 15.3304875
vertex 2.79454693340081 -10.644869769986 16.7559450905906
endloop
endfacet
facet normal 0.991684882932557 -0.128689910105808 -0.0
outer loop
vertex 2.79454693340081 -10.644869769986 16.7559450905906
vertex 5.46794734574179 9.95636285784345 15.3304875
vertex 4.54003475753212 2.80586531181389 19.510375
endloop
endfacet
facet normal 0.991684882932557 -0.128689910105808 -0.0
outer loop
vertex 4.54003475753212 2.80586531181389 19.510375
vertex 5.46794734574179 9.95636285784345 15.3304875
vertex 5.46794734574179 9.95636285784345 18.3940655775168
endloop
endfacet
facet normal -0.991684882932557 0.128689910105808 4.72663597460107e-16
outer loop
vertex -17.5793447066124 -10.6647753782539 16.2194875
vertex -14.5659900302911 12.5561459586638 15.3304875
vertex -17.5793447066124 -10.6647753782539 15.3304875
endloop
endfacet
facet normal -0.991684882932557 0.128689910105808 4.72663597460107e-16
outer loop
vertex -14.5659900302911 12.5561459586638 15.3304875
vertex -17.5793447066124 -10.6647753782539 16.2194875
vertex -15.4939026185007 5.40564841263423 19.510375
endloop
endfacet
facet normal -0.991684882932557 0.128689910105808 4.72663597460107e-16
outer loop
vertex -14.5659900302911 12.5561459586638 15.3304875
vertex -15.4939026185007 5.40564841263423 19.510375
vertex -14.5659900302911 12.5561459586638 18.3940655775168
endloop
endfacet
facet normal 0.128689910105808 0.991684882932557 -5.29355289188498e-16
outer loop
vertex -14.5659900302911 12.5561459586638 18.3940655775168
vertex 5.46794734574179 9.95636285784345 15.3304875
vertex -14.5659900302911 12.5561459586638 15.3304875
endloop
endfacet
facet normal 0.128689910105808 0.991684882932557 -5.29355289188498e-16
outer loop
vertex 5.46794734574179 9.95636285784345 15.3304875
vertex -14.5659900302911 12.5561459586638 18.3940655775168
vertex 5.46794734574179 9.95636285784345 18.3940655775168
endloop
endfacet
facet normal -0.128689910105808 -0.991684882932557 1.25445262523217e-15
outer loop
vertex 2.45459266942048 -13.2645584790742 16.2194875
vertex -17.5793447066124 -10.6647753782539 15.3304875
vertex 2.45459266942048 -13.2645584790742 15.3304875
endloop
endfacet
facet normal -0.128689910105808 -0.991684882932557 1.25445262523217e-15
outer loop
vertex -17.5793447066124 -10.6647753782539 15.3304875
vertex 2.45459266942048 -13.2645584790742 16.2194875
vertex -17.5793447066124 -10.6647753782539 16.2194875
endloop
endfacet
facet normal -0.128689910105808 -0.991684882932557 1.25445262523217e-15
outer loop
vertex -17.5793447066124 -10.6647753782539 16.2194875
vertex 2.45459266942048 -13.2645584790742 16.2194875
vertex -3.27743272635696 -12.5207195382955 16.2194875
endloop
endfacet
facet normal -0.0256111141810863 -0.197359332581402 0.979996614623452
outer loop
vertex -3.27743272635696 -12.5207195382955 16.2194875
vertex -15.4939026185007 5.40564841263423 19.510375
vertex -17.5793447066124 -10.6647753782539 16.2194875
endloop
endfacet
facet normal -0.0256111141810863 -0.197359332581402 0.979996614623452
outer loop
vertex -15.4939026185007 5.40564841263423 19.510375
vertex -3.27743272635696 -12.5207195382955 16.2194875
vertex -2.93747846237662 -9.90103082920727 16.7559450905906
endloop
endfacet
facet normal -0.0256111141810863 -0.197359332581402 0.979996614623452
outer loop
vertex -15.4939026185007 5.40564841263423 19.510375
vertex -2.93747846237662 -9.90103082920727 16.7559450905906
vertex 4.54003475753212 2.80586531181389 19.510375
endloop
endfacet
facet normal -0.0256111141810863 -0.197359332581402 0.979996614623452
outer loop
vertex 4.54003475753212 2.80586531181389 19.510375
vertex -2.93747846237662 -9.90103082920727 16.7559450905906
vertex 2.79454693340081 -10.644869769986 16.7559450905906
endloop
endfacet
facet normal 0.0196889784383263 0.151723334499338 0.988226883815886
outer loop
vertex 4.54003475753212 2.80586531181389 19.510375
vertex -14.5659900302911 12.5561459586638 18.3940655775168
vertex -15.4939026185007 5.40564841263423 19.510375
endloop
endfacet
facet normal 0.0196889784383263 0.151723334499338 0.988226883815886
outer loop
vertex -14.5659900302911 12.5561459586638 18.3940655775168
vertex 4.54003475753212 2.80586531181389 19.510375
vertex 5.46794734574179 9.95636285784345 18.3940655775168
endloop
endfacet
facet normal 0.991684882932557 -0.128689910105806 2.39348686960159e-31
outer loop
vertex 62.8318840879547 -15.0109662279572 3.4574749800573
vertex 62.4964313165297 -17.5959664201754 15.0208249800573
vertex 62.4964313165297 -17.5959664201754 3.4574749800573
endloop
endfacet
facet normal 0.991684882932557 -0.128689910105806 2.39348686960159e-31
outer loop
vertex 62.4964313165297 -17.5959664201754 15.0208249800573
vertex 62.8318840879547 -15.0109662279572 3.4574749800573
vertex 62.8318840879547 -15.0109662279572 15.0208249800573
endloop
endfacet
facet normal -0.0 -0.0 1.0
outer loop
vertex 62.4964313165297 -17.5959664201754 15.0208249800573
vertex 61.7096828852546 -13.9256633354563 15.0208249800573
vertex 61.152161196327 -18.221927357724 15.0208249800573
endloop
endfacet
facet normal -0.0 -0.0 1.0
outer loop
vertex 61.7096828852546 -13.9256633354563 15.0208249800573
vertex 62.4964313165297 -17.5959664201754 15.0208249800573
vertex 62.8318840879547 -15.0109662279572 15.0208249800573
endloop
endfacet
facet normal 0.695190422384255 0.718825623239184 -0.0
outer loop
vertex 61.7096828852546 -13.9256633354563 15.0208249800573
vertex 62.8318840879547 -15.0109662279572 3.4574749800573
vertex 61.7096828852546 -13.9256633354563 3.4574749800573
endloop
endfacet
facet normal 0.695190422384255 0.718825623239184 -0.0
outer loop
vertex 62.8318840879547 -15.0109662279572 3.4574749800573
vertex 61.7096828852546 -13.9256633354563 15.0208249800573
vertex 62.8318840879547 -15.0109662279572 15.0208249800573
endloop
endfacet
facet normal 0.422129354999207 -0.906535607490381 0.0
outer loop
vertex 62.4964313165297 -17.5959664201754 15.0208249800573
vertex 61.152161196327 -18.221927357724 3.4574749800573
vertex 62.4964313165297 -17.5959664201754 3.4574749800573
endloop
endfacet
facet normal 0.422129354999207 -0.906535607490381 0.0
outer loop
vertex 61.152161196327 -18.221927357724 3.4574749800573
vertex 62.4964313165297 -17.5959664201754 15.0208249800573
vertex 61.152161196327 -18.221927357724 15.0208249800573
endloop
endfacet
facet normal 0.991684882932557 -0.128689910105809 -0.0
outer loop
vertex 61.7096828852546 -13.9256633354563 3.4574749800573
vertex 61.152161196327 -18.221927357724 15.0208249800573
vertex 61.152161196327 -18.221927357724 3.4574749800573
endloop
endfacet
facet normal 0.991684882932557 -0.128689910105809 -0.0
outer loop
vertex 61.152161196327 -18.221927357724 15.0208249800573
vertex 61.7096828852546 -13.9256633354563 3.4574749800573
vertex 61.7096828852546 -13.9256633354563 15.0208249800573
endloop
endfacet
facet normal 0.0 0.0 -1.0
outer loop
vertex 61.7096828852546 -13.9256633354563 3.4574749800573
vertex 62.4964313165297 -17.5959664201754 3.4574749800573
vertex 61.152161196327 -18.221927357724 3.4574749800573
endloop
endfacet
facet normal 0.0 0.0 -1.0
outer loop
vertex 62.4964313165297 -17.5959664201754 3.4574749800573
vertex 61.7096828852546 -13.9256633354563 3.4574749800573
vertex 62.8318840879547 -15.0109662279572 3.4574749800573
endloop
endfacet
facet normal 0.0 0.0 1.0
outer loop
vertex 64.8266324882738 0.360571697773577 14.6527665627956
vertex 64.0398840569987 4.03087478249269 14.6527665627956
vertex 63.4823623680712 -0.265389239774991 14.6527665627956
endloop
endfacet
facet normal 0.0 0.0 1.0
outer loop
vertex 64.0398840569987 4.03087478249269 14.6527665627956
vertex 64.8266324882738 0.360571697773577 14.6527665627956
vertex 65.1620852596988 2.9455718899918 14.6527665627956
endloop
endfacet
facet normal 0.991684882932557 -0.128689910105806 2.39348686960159e-31
outer loop
vertex 65.1620852596988 2.9455718899918 3.08941656279561
vertex 64.8266324882738 0.360571697773577 14.6527665627956
vertex 64.8266324882738 0.360571697773577 3.08941656279561
endloop
endfacet
facet normal 0.991684882932557 -0.128689910105806 2.39348686960159e-31
outer loop
vertex 64.8266324882738 0.360571697773577 14.6527665627956
vertex 65.1620852596988 2.9455718899918 3.08941656279561
vertex 65.1620852596988 2.9455718899918 14.6527665627956
endloop
endfacet
facet normal 0.695190422384255 0.718825623239184 0.0
outer loop
vertex 64.0398840569987 4.03087478249269 14.6527665627956
vertex 65.1620852596988 2.9455718899918 3.08941656279561
vertex 64.0398840569987 4.03087478249269 3.08941656279561
endloop
endfacet
facet normal 0.695190422384255 0.718825623239184 0.0
outer loop
vertex 65.1620852596988 2.9455718899918 3.08941656279561
vertex 64.0398840569987 4.03087478249269 14.6527665627956
vertex 65.1620852596988 2.9455718899918 14.6527665627956
endloop
endfacet
facet normal 0.0 0.0 -1.0
outer loop
vertex 64.0398840569987 4.03087478249269 3.08941656279561
vertex 64.8266324882738 0.360571697773577 3.08941656279561
vertex 63.4823623680712 -0.265389239774991 3.08941656279561
endloop
endfacet
facet normal 0.0 0.0 -1.0
outer loop
vertex 64.8266324882738 0.360571697773577 3.08941656279561
vertex 64.0398840569987 4.03087478249269 3.08941656279561
vertex 65.1620852596988 2.9455718899918 3.08941656279561
endloop
endfacet
facet normal 0.422129354999207 -0.906535607490381 0.0
outer loop
vertex 64.8266324882738 0.360571697773577 14.6527665627956
vertex 63.4823623680712 -0.265389239774991 3.08941656279561
vertex 64.8266324882738 0.360571697773577 3.08941656279561
endloop
endfacet
facet normal 0.422129354999207 -0.906535607490381 0.0
outer loop
vertex 63.4823623680712 -0.265389239774991 3.08941656279561
vertex 64.8266324882738 0.360571697773577 14.6527665627956
vertex 63.4823623680712 -0.265389239774991 14.6527665627956
endloop
endfacet
facet normal -0.0256111141810863 -0.197359332581402 0.979996614623452
outer loop
vertex 2.45459266942048 -13.2645584790742 16.2194875
vertex -2.93747846237662 -9.90103082920727 16.7559450905906
vertex -3.27743272635696 -12.5207195382955 16.2194875
endloop
endfacet
facet normal -0.0256111141810863 -0.197359332581402 0.979996614623452
outer loop
vertex -2.93747846237662 -9.90103082920727 16.7559450905906
vertex 2.45459266942048 -13.2645584790742 16.2194875
vertex 2.79454693340081 -10.644869769986 16.7559450905906
endloop
endfacet
facet normal -0.128689910105808 -0.991684882932557 -3.8691831872022e-17
outer loop
vertex 2.79454693340081 -10.644869769986 18.1529450905906
vertex -2.93747846237662 -9.90103082920727 16.7559450905906
vertex 2.79454693340081 -10.644869769986 16.7559450905906
endloop
endfacet
facet normal -0.128689910105808 -0.991684882932557 -3.8691831872022e-17
outer loop
vertex -2.93747846237662 -9.90103082920727 16.7559450905906
vertex 2.79454693340081 -10.644869769986 18.1529450905906
vertex -2.93747846237662 -9.90103082920727 18.1529450905906
endloop
endfacet
facet normal 0.991684882932557 -0.128689910105808 1.82128917785236e-16
outer loop
vertex 2.79454693340081 -10.644869769986 16.7559450905906
vertex 2.45459266942048 -13.2645584790742 18.1529450905906
vertex 2.45459266942048 -13.2645584790742 16.2194875
endloop
endfacet
facet normal 0.991684882932557 -0.128689910105808 1.82128917785236e-16
outer loop
vertex 2.45459266942048 -13.2645584790742 18.1529450905906
vertex 2.79454693340081 -10.644869769986 16.7559450905906
vertex 2.79454693340081 -10.644869769986 18.1529450905906
endloop
endfacet
facet normal 0.991684882932557 -0.128689910105808 4.92240318338477e-18
outer loop
vertex -2.93747846237662 -9.90103082920727 16.7559450905906
vertex -3.27743272635696 -12.5207195382955 18.1529450905906
vertex -3.27743272635696 -12.5207195382955 16.2194875
endloop
endfacet
facet normal 0.991684882932557 -0.128689910105808 4.92240318338477e-18
outer loop
vertex -3.27743272635696 -12.5207195382955 18.1529450905906
vertex -2.93747846237662 -9.90103082920727 16.7559450905906
vertex -2.93747846237662 -9.90103082920727 18.1529450905906
endloop
endfacet
facet normal -0.128689910105808 -0.991684882932557 0.0
outer loop
vertex 2.45459266942048 -13.2645584790742 18.1529450905906
vertex -3.27743272635696 -12.5207195382955 16.2194875
vertex 2.45459266942048 -13.2645584790742 16.2194875
endloop
endfacet
facet normal -0.128689910105808 -0.991684882932557 0.0
outer loop
vertex -3.27743272635696 -12.5207195382955 16.2194875
vertex 2.45459266942048 -13.2645584790742 18.1529450905906
vertex -3.27743272635696 -12.5207195382955 18.1529450905906
endloop
endfacet
facet normal -0.0 -0.0 1.0
outer loop
vertex 2.45459266942048 -13.2645584790742 18.1529450905906
vertex -2.93747846237662 -9.90103082920727 18.1529450905906
vertex -3.27743272635696 -12.5207195382955 18.1529450905906
endloop
endfacet
facet normal -0.0 -0.0 1.0
outer loop
vertex -2.93747846237662 -9.90103082920727 18.1529450905906
vertex 2.45459266942048 -13.2645584790742 18.1529450905906
vertex 2.79454693340081 -10.644869769986 18.1529450905906
endloop
endfacet
facet normal -0.0 -0.0 1.0
outer loop
vertex 2.45459266942048 -13.2645584790742 15.3304875
vertex -14.5659900302911 12.5561459586638 15.3304875
vertex -17.5793447066124 -10.6647753782539 15.3304875
endloop
endfacet
facet normal -0.0 -0.0 1.0
outer loop
vertex -14.5659900302911 12.5561459586638 15.3304875
vertex 2.45459266942048 -13.2645584790742 15.3304875
vertex 5.46794734574179 9.95636285784345 15.3304875
endloop
endfacet
facet normal 0.991684882932557 -0.128689910105808 -0.0
outer loop
vertex 11.511355781668 16.619774259222 10.8156375
vertex 7.38315790040877 -15.1921325890544 15.3304875
vertex 7.38315790040877 -15.1921325890544 10.8156375
endloop
endfacet
facet normal 0.991684882932557 -0.128689910105808 -7.87938700727609e-18
outer loop
vertex 11.511355781668 16.619774259222 -6.69632526987398
vertex 14.0652504805625 36.3000954546666 10.8156375
vertex 11.511355781668 16.619774259222 10.8156375
endloop
endfacet
facet normal 0.991684882932557 -0.128689910105808 -7.87938700727609e-18
outer loop
vertex 14.0652504805625 36.3000954546666 10.8156375
vertex 11.511355781668 16.619774259222 -6.69632526987398
vertex 14.0652504805625 36.3000954546666 -6.69632526987398
endloop
endfacet
facet normal 0.991684882932557 -0.128689910105808 2.37124069681707e-16
outer loop
vertex 6.41841628115185 17.2806796917598 10.8156375
vertex 2.45459266942048 -13.2645584790742 15.3304875
vertex 2.29021839989257 -14.5312271565166 15.3304875
endloop
endfacet
facet normal 0.991684882932557 -0.128689910105808 2.37124069681707e-16
outer loop
vertex 2.45459266942048 -13.2645584790742 15.3304875
vertex 6.41841628115185 17.2806796917598 10.8156375
vertex 5.46794734574179 9.95636285784345 15.3304875
endloop
endfacet
facet normal 0.991684882932557 -0.128689910105808 2.37124069681707e-16
outer loop
vertex 5.46794734574179 9.95636285784345 15.3304875
vertex 6.41841628115185 17.2806796917598 10.8156375
vertex 8.97231098004627 36.9610008872044 15.3304875
endloop
endfacet
facet normal 0.991684882932557 -0.128689910105808 2.37124069681707e-16
outer loop
vertex 8.97231098004627 36.9610008872044 15.3304875
vertex 6.41841628115185 17.2806796917598 10.8156375
vertex 8.97231098004627 36.9610008872044 10.8156375
endloop
endfacet
facet normal 0.0179354579933678 0.138210700014253 0.99024043633258
outer loop
vertex 7.38315790040877 -15.1921325890544 15.3304875
vertex 6.41841628115185 17.2806796917598 10.8156375
vertex 2.29021839989257 -14.5312271565166 15.3304875
endloop
endfacet
facet normal 0.0179354579933678 0.138210700014253 0.99024043633258
outer loop
vertex 6.41841628115185 17.2806796917598 10.8156375
vertex 7.38315790040877 -15.1921325890544 15.3304875
vertex 11.511355781668 16.619774259222 10.8156375
endloop
endfacet
facet normal 8.26955269951849e-17 -1.07313120511554e-17 1.0
outer loop
vertex 11.511355781668 16.619774259222 10.8156375
vertex 8.97231098004627 36.9610008872044 10.8156375
vertex 6.41841628115185 17.2806796917598 10.8156375
endloop
endfacet
facet normal 8.26955269951849e-17 -1.07313120511554e-17 1.0
outer loop
vertex 8.97231098004627 36.9610008872044 10.8156375
vertex 11.511355781668 16.619774259222 10.8156375
vertex 14.0652504805625 36.3000954546666 10.8156375
endloop
endfacet
facet normal 0.00443388147910218 0.0341675056880739 0.999406284876218
outer loop
vertex -26.5322462136602 -11.967562101315 13.3961178297786
vertex -27.3947154134851 19.7211335165648 12.3165772886725
vertex -31.42453819595 -11.3326944873705 13.3961178297787
endloop
endfacet
facet normal 0.00443388147910218 0.0341675056880739 0.999406284876218
outer loop
vertex -27.3947154134851 19.7211335165648 12.3165772886725
vertex -26.5322462136602 -11.967562101315 13.3961178297786
vertex -24.2037190882397 44.3109620014659 11.4617481595573
endloop
endfacet
facet normal 0.00443388147910218 0.0341675056880739 0.999406284876218
outer loop
vertex -24.2037190882397 44.3109620014659 11.4617481595573
vertex -26.5322462136602 -11.967562101315 13.3961178297786
vertex -19.31142710595 43.6760943875214 11.4617481595573
endloop
endfacet
facet normal -0.991684882932557 0.128689910105808 -1.82508010504295e-16
outer loop
vertex -36.608149206028 20.9167511839653 13.084625943905
vertex -40.6379719884929 -10.13707681997 -6.69632526987398
vertex -40.6379719884929 -10.13707681997 13.6731375
endloop
endfacet
facet normal -0.991684882932557 0.128689910105808 -1.82508010504295e-16
outer loop
vertex -40.6379719884929 -10.13707681997 -6.69632526987398
vertex -36.608149206028 20.9167511839653 13.084625943905
vertex -36.608149206028 20.9167511839653 10.228713443905
endloop
endfacet
facet normal -0.991684882932557 0.128689910105808 -1.82508010504295e-16
outer loop
vertex -40.6379719884929 -10.13707681997 -6.69632526987398
vertex -36.608149206028 20.9167511839653 10.228713443905
vertex -33.4171528807826 45.5065796688665 -6.69632526987398
endloop
endfacet
facet normal -0.991684882932557 0.128689910105808 -1.82508010504295e-16
outer loop
vertex -33.4171528807826 45.5065796688665 -6.69632526987398
vertex -36.608149206028 20.9167511839653 10.228713443905
vertex -33.4171528807827 45.5065796688665 9.12753585246461
endloop
endfacet
facet normal 0.00241813953951392 0.0186341914776831 0.99982344416859
outer loop
vertex -31.42453819595 -11.3326944873705 13.6731375
vertex -36.608149206028 20.9167511839653 13.084625943905
vertex -40.6379719884929 -10.13707681997 13.6731375
endloop
endfacet
facet normal 0.00241813953951392 0.0186341914776831 0.99982344416859
outer loop
vertex -36.608149206028 20.9167511839653 13.084625943905
vertex -31.42453819595 -11.3326944873705 13.6731375
vertex -27.3947154134851 19.7211335165648 13.084625943905
endloop
endfacet
facet normal 0.00570942299487298 0.0439968329267449 0.999015355828669
outer loop
vertex -27.3947154134851 19.7211335165648 10.228713443905
vertex -33.4171528807827 45.5065796688665 9.12753585246461
vertex -36.608149206028 20.9167511839653 10.228713443905
endloop
endfacet
facet normal 0.00570942299487298 0.0439968329267449 0.999015355828669
outer loop
vertex -33.4171528807827 45.5065796688665 9.12753585246461
vertex -27.3947154134851 19.7211335165648 10.228713443905
vertex -24.2037190882398 44.3109620014659 9.12753585246461
endloop
endfacet
facet normal 0.128689910105808 0.991684882932557 -1.07229933697475e-16
outer loop
vertex -36.608149206028 20.9167511839653 13.084625943905
vertex -27.3947154134851 19.7211335165648 10.228713443905
vertex -36.608149206028 20.9167511839653 10.228713443905
endloop
endfacet
facet normal 0.128689910105808 0.991684882932557 -1.07229933697475e-16
outer loop
vertex -27.3947154134851 19.7211335165648 10.228713443905
vertex -36.608149206028 20.9167511839653 13.084625943905
vertex -27.3947154134851 19.7211335165648 12.3165772886725
endloop
endfacet
facet normal 0.128689910105808 0.991684882932557 -1.07229933697475e-16
outer loop
vertex -27.3947154134851 19.7211335165648 12.3165772886725
vertex -36.608149206028 20.9167511839653 13.084625943905
vertex -27.3947154134851 19.7211335165648 13.084625943905
endloop
endfacet
facet normal -0.991684882932557 0.128689910105808 5.97409309353764e-15
outer loop
vertex -24.2037190882397 44.3109620014659 11.4617481595573
vertex -27.3947154134851 19.7211335165648 10.228713443905
vertex -27.3947154134851 19.7211335165648 12.3165772886725
endloop
endfacet
facet normal -0.991684882932557 0.128689910105808 5.97409309353764e-15
outer loop
vertex -27.3947154134851 19.7211335165648 10.228713443905
vertex -24.2037190882397 44.3109620014659 11.4617481595573
vertex -24.2037190882398 44.3109620014659 9.12753585246461
endloop
endfacet
facet normal 0.991684882932557 -0.128689910105807 2.44933321382843e-14
outer loop
vertex -27.3947154134851 19.7211335165648 12.3165772886725
vertex -31.42453819595 -11.3326944873705 13.6731375
vertex -31.42453819595 -11.3326944873705 13.3961178297787
endloop
endfacet
facet normal 0.991684882932557 -0.128689910105807 2.44933321382843e-14
outer loop
vertex -31.42453819595 -11.3326944873705 13.6731375
vertex -27.3947154134851 19.7211335165648 12.3165772886725
vertex -27.3947154134851 19.7211335165648 13.084625943905
endloop
endfacet
facet normal 0.128689910105808 0.991684882932557 2.60619677264046e-16
outer loop
vertex -33.4171528807827 45.5065796688665 9.12753585246461
vertex 5.7073445473582 40.4294345559216 -6.69632526987398
vertex -33.4171528807826 45.5065796688665 -6.69632526987398
endloop
endfacet
facet normal 0.128689910105808 0.991684882932557 2.60619677264046e-16
outer loop
vertex 5.7073445473582 40.4294345559216 -6.69632526987398
vertex -33.4171528807827 45.5065796688665 9.12753585246461
vertex -24.2037190882398 44.3109620014659 9.12753585246461
endloop
endfacet
facet normal 0.128689910105808 0.991684882932557 2.60619677264046e-16
outer loop
vertex 5.7073445473582 40.4294345559216 -6.69632526987398
vertex -24.2037190882398 44.3109620014659 9.12753585246461
vertex 5.7073445473582 40.4294345559216 15.3304875
endloop
endfacet
facet normal 0.128689910105808 0.991684882932557 2.60619677264046e-16
outer loop
vertex 5.7073445473582 40.4294345559216 15.3304875
vertex -24.2037190882398 44.3109620014659 9.12753585246461
vertex -19.31142710595 43.6760943875214 11.4617481595573
endloop
endfacet
facet normal 0.128689910105808 0.991684882932557 2.60619677264046e-16
outer loop
vertex -19.31142710595 43.6760943875214 11.4617481595573
vertex -24.2037190882398 44.3109620014659 9.12753585246461
vertex -24.2037190882397 44.3109620014659 11.4617481595573
endloop
endfacet
facet normal 0.128689910105808 0.991684882932557 2.60619677264046e-16
outer loop
vertex 5.7073445473582 40.4294345559216 15.3304875
vertex -19.31142710595 43.6760943875214 11.4617481595573
vertex -19.31142710595 43.6760943875214 15.3304875
endloop
endfacet
endsolid Main Street Apartment Complex
