solid MedicalCenterPlazaGOOG
facet normal 0.141076883706598 0.989998642869593 -0.0
outer loop
vertex -15.6668413139893 27.0030284439329 28.7460701930396
vertex 22.5341365293901 21.5593089524925 1.98799731646101e-15
vertex -15.6668413139893 27.0030284439329 1.98799731646101e-15
endloop
endfacet
facet normal 0.141076883706598 0.989998642869593 -0.0
outer loop
vertex 22.5341365293901 21.5593089524925 1.98799731646101e-15
vertex -15.6668413139893 27.0030284439329 28.7460701930396
vertex 22.5341365293901 21.5593089524925 28.7460701930396
endloop
endfacet
facet normal 0.675023221488696 -0.737796483083935 0.0
outer loop
vertex -12.1235071433698 -5.84826528913178 51.8932776327
vertex -12.5448907343016 -6.23379668641399 51.039576
vertex -12.1235071433698 -5.84826528913178 51.039576
endloop
endfacet
facet normal 0.675023221488696 -0.737796483083935 0.0
outer loop
vertex -12.5448907343016 -6.23379668641399 51.039576
vertex -12.1235071433698 -5.84826528913178 51.8932776327
vertex -12.5448907343016 -6.23379668641399 51.8932776327
endloop
endfacet
facet normal 0.842978144212566 -0.537947811948276 0.0
outer loop
vertex -11.816264718216 -5.36680845702476 51.039576
vertex -12.1235071433698 -5.84826528913178 51.8932776327
vertex -12.1235071433698 -5.84826528913178 51.039576
endloop
endfacet
facet normal 0.842978144212566 -0.537947811948276 0.0
outer loop
vertex -12.1235071433698 -5.84826528913178 51.8932776327
vertex -11.816264718216 -5.36680845702476 51.039576
vertex -11.816264718216 -5.36680845702476 51.8932776327
endloop
endfacet
facet normal 0.953485499495586 -0.301438886429161 0.0
outer loop
vertex -11.6441015223723 -4.82223667755599 51.039576
vertex -11.816264718216 -5.36680845702476 51.8932776327
vertex -11.816264718216 -5.36680845702476 51.039576
endloop
endfacet
facet normal 0.953485499495586 -0.301438886429161 0.0
outer loop
vertex -11.816264718216 -5.36680845702476 51.8932776327
vertex -11.6441015223723 -4.82223667755599 51.039576
vertex -11.6441015223723 -4.82223667755599 51.8932776327
endloop
endfacet
facet normal 0.999014393697282 -0.0443873989512023 0.0
outer loop
vertex -11.6187501931223 -4.25166161754884 51.039576
vertex -11.6441015223723 -4.82223667755599 51.8932776327
vertex -11.6441015223723 -4.82223667755599 51.039576
endloop
endfacet
facet normal 0.999014393697282 -0.0443873989512023 0.0
outer loop
vertex -11.6441015223723 -4.82223667755599 51.8932776327
vertex -11.6187501931223 -4.25166161754884 51.039576
vertex -11.6187501931223 -4.25166161754884 51.8932776327
endloop
endfacet
facet normal 0.976462107917852 0.215689016411651 0.0
outer loop
vertex -11.7419383816593 -3.69396702442292 51.039576
vertex -11.6187501931223 -4.25166161754884 51.8932776327
vertex -11.6187501931223 -4.25166161754884 51.039576
endloop
endfacet
facet normal 0.976462107917852 0.215689016411651 0.0
outer loop
vertex -11.6187501931223 -4.25166161754884 51.8932776327
vertex -11.7419383816593 -3.69396702442292 51.039576
vertex -11.7419383816593 -3.69396702442292 51.8932776327
endloop
endfacet
facet normal -0.0443873989511817 -0.999014393697282 0.0
outer loop
vertex -13.6093934887846 -6.62031750980433 51.8932776327
vertex -14.1799685487917 -6.59496618055431 51.039576
vertex -13.6093934887846 -6.62031750980433 51.039576
endloop
endfacet
facet normal -0.0443873989511817 -0.999014393697282 0.0
outer loop
vertex -14.1799685487917 -6.59496618055431 51.039576
vertex -13.6093934887846 -6.62031750980433 51.8932776327
vertex -14.1799685487917 -6.59496618055431 51.8932776327
endloop
endfacet
facet normal 0.215689016411639 -0.976462107917855 0.0
outer loop
vertex -13.0516988956587 -6.49712932126733 51.8932776327
vertex -13.6093934887846 -6.62031750980433 51.039576
vertex -13.0516988956587 -6.49712932126733 51.039576
endloop
endfacet
facet normal 0.215689016411639 -0.976462107917855 0.0
outer loop
vertex -13.6093934887846 -6.62031750980433 51.039576
vertex -13.0516988956587 -6.49712932126733 51.8932776327
vertex -13.6093934887846 -6.62031750980433 51.8932776327
endloop
endfacet
facet normal 0.461066581748985 -0.887365543163755 0.0
outer loop
vertex -12.5448907343016 -6.23379668641399 51.8932776327
vertex -13.0516988956587 -6.49712932126733 51.039576
vertex -12.5448907343016 -6.23379668641399 51.039576
endloop
endfacet
facet normal 0.461066581748985 -0.887365543163755 0.0
outer loop
vertex -13.0516988956587 -6.49712932126733 51.039576
vertex -12.5448907343016 -6.23379668641399 51.8932776327
vertex -13.0516988956587 -6.49712932126733 51.8932776327
endloop
endfacet
facet normal -0.737796483083907 -0.675023221488727 0.0
outer loop
vertex -15.5915285576497 -5.694176968625 51.8932776327
vertex -15.2059971603675 -6.11556055955674 51.039576
vertex -15.2059971603675 -6.11556055955674 51.8932776327
endloop
endfacet
facet normal -0.737796483083907 -0.675023221488727 0.0
outer loop
vertex -15.2059971603675 -6.11556055955674 51.039576
vertex -15.5915285576497 -5.694176968625 51.8932776327
vertex -15.5915285576497 -5.694176968625 51.039576
endloop
endfacet
facet normal -0.537947811948321 -0.842978144212537 0.0
outer loop
vertex -14.7245403282605 -6.42280298471057 51.8932776327
vertex -15.2059971603675 -6.11556055955674 51.039576
vertex -14.7245403282605 -6.42280298471057 51.039576
endloop
endfacet
facet normal -0.537947811948321 -0.842978144212537 0.0
outer loop
vertex -15.2059971603675 -6.11556055955674 51.039576
vertex -14.7245403282605 -6.42280298471057 51.8932776327
vertex -15.2059971603675 -6.11556055955674 51.8932776327
endloop
endfacet
facet normal -0.301438886429167 -0.953485499495584 0.0
outer loop
vertex -14.1799685487917 -6.59496618055431 51.8932776327
vertex -14.7245403282605 -6.42280298471057 51.039576
vertex -14.1799685487917 -6.59496618055431 51.039576
endloop
endfacet
facet normal -0.301438886429167 -0.953485499495584 0.0
outer loop
vertex -14.7245403282605 -6.42280298471057 51.039576
vertex -14.1799685487917 -6.59496618055431 51.8932776327
vertex -14.7245403282605 -6.42280298471057 51.8932776327
endloop
endfacet
facet normal -0.953485499495583 0.30143888642917 0.0
outer loop
vertex -15.7805348559463 -3.5145273746661 51.8932776327
vertex -15.95269805179 -4.05909915413486 51.039576
vertex -15.95269805179 -4.05909915413486 51.8932776327
endloop
endfacet
facet normal -0.953485499495583 0.30143888642917 0.0
outer loop
vertex -15.95269805179 -4.05909915413486 51.039576
vertex -15.7805348559463 -3.5145273746661 51.8932776327
vertex -15.7805348559463 -3.5145273746661 51.039576
endloop
endfacet
facet normal -0.999014393697282 0.0443873989511923 0.0
outer loop
vertex -15.95269805179 -4.05909915413486 51.8932776327
vertex -15.9780493810401 -4.62967421414202 51.039576
vertex -15.9780493810401 -4.62967421414202 51.8932776327
endloop
endfacet
facet normal -0.999014393697282 0.0443873989511923 0.0
outer loop
vertex -15.9780493810401 -4.62967421414202 51.039576
vertex -15.95269805179 -4.05909915413486 51.8932776327
vertex -15.95269805179 -4.05909915413486 51.039576
endloop
endfacet
facet normal -0.976462107917857 -0.215689016411627 0.0
outer loop
vertex -15.9780493810401 -4.62967421414202 51.8932776327
vertex -15.8548611925031 -5.18736880726795 51.039576
vertex -15.8548611925031 -5.18736880726795 51.8932776327
endloop
endfacet
facet normal -0.976462107917857 -0.215689016411627 0.0
outer loop
vertex -15.8548611925031 -5.18736880726795 51.039576
vertex -15.9780493810401 -4.62967421414202 51.8932776327
vertex -15.9780493810401 -4.62967421414202 51.039576
endloop
endfacet
facet normal -0.887365543163753 -0.46106658174899 0.0
outer loop
vertex -15.8548611925031 -5.18736880726795 51.8932776327
vertex -15.5915285576497 -5.694176968625 51.039576
vertex -15.5915285576497 -5.694176968625 51.8932776327
endloop
endfacet
facet normal -0.887365543163753 -0.46106658174899 0.0
outer loop
vertex -15.5915285576497 -5.694176968625 51.039576
vertex -15.8548611925031 -5.18736880726795 51.8932776327
vertex -15.8548611925031 -5.18736880726795 51.039576
endloop
endfacet
facet normal -0.842978144212583 0.537947811948251 0.0
outer loop
vertex -15.4732924307925 -3.03307054255905 51.8932776327
vertex -15.7805348559463 -3.5145273746661 51.039576
vertex -15.7805348559463 -3.5145273746661 51.8932776327
endloop
endfacet
facet normal -0.842978144212583 0.537947811948251 0.0
outer loop
vertex -15.7805348559463 -3.5145273746661 51.039576
vertex -15.4732924307925 -3.03307054255905 51.8932776327
vertex -15.4732924307925 -3.03307054255905 51.039576
endloop
endfacet
facet normal -0.67502322148868 0.737796483083949 -0.0
outer loop
vertex -15.4732924307925 -3.03307054255905 51.8932776327
vertex -15.0519088398607 -2.64753914527686 51.039576
vertex -15.4732924307925 -3.03307054255905 51.039576
endloop
endfacet
facet normal -0.67502322148868 0.737796483083949 -0.0
outer loop
vertex -15.0519088398607 -2.64753914527686 51.039576
vertex -15.4732924307925 -3.03307054255905 51.8932776327
vertex -15.0519088398607 -2.64753914527686 51.8932776327
endloop
endfacet
facet normal -0.46106658174899 0.887365543163753 -0.0
outer loop
vertex -15.0519088398607 -2.64753914527686 51.8932776327
vertex -14.5451006785037 -2.38420651042352 51.039576
vertex -15.0519088398607 -2.64753914527686 51.039576
endloop
endfacet
facet normal -0.46106658174899 0.887365543163753 -0.0
outer loop
vertex -14.5451006785037 -2.38420651042352 51.039576
vertex -15.0519088398607 -2.64753914527686 51.8932776327
vertex -14.5451006785037 -2.38420651042352 51.8932776327
endloop
endfacet
facet normal -0.21568901641166 0.97646210791785 -0.0
outer loop
vertex -14.5451006785037 -2.38420651042352 51.8932776327
vertex -13.9874060853778 -2.2610183218865 51.039576
vertex -14.5451006785037 -2.38420651042352 51.039576
endloop
endfacet
facet normal -0.21568901641166 0.97646210791785 -0.0
outer loop
vertex -13.9874060853778 -2.2610183218865 51.039576
vertex -14.5451006785037 -2.38420651042352 51.8932776327
vertex -13.9874060853778 -2.2610183218865 51.8932776327
endloop
endfacet
facet normal 0.0443873989512414 0.99901439369728 0.0
outer loop
vertex -13.9874060853778 -2.2610183218865 51.8932776327
vertex -13.4168310253706 -2.28636965113656 51.039576
vertex -13.9874060853778 -2.2610183218865 51.039576
endloop
endfacet
facet normal 0.0443873989512414 0.99901439369728 0.0
outer loop
vertex -13.4168310253706 -2.28636965113656 51.039576
vertex -13.9874060853778 -2.2610183218865 51.8932776327
vertex -13.4168310253706 -2.28636965113656 51.8932776327
endloop
endfacet
facet normal 0.30143888642913 0.953485499495596 0.0
outer loop
vertex -13.4168310253706 -2.28636965113656 51.8932776327
vertex -12.8722592459018 -2.45853284698027 51.039576
vertex -13.4168310253706 -2.28636965113656 51.039576
endloop
endfacet
facet normal 0.30143888642913 0.953485499495596 0.0
outer loop
vertex -12.8722592459018 -2.45853284698027 51.039576
vertex -13.4168310253706 -2.28636965113656 51.8932776327
vertex -12.8722592459018 -2.45853284698027 51.8932776327
endloop
endfacet
facet normal 0.537947811948288 0.842978144212559 0.0
outer loop
vertex -12.8722592459018 -2.45853284698027 51.8932776327
vertex -12.3908024137948 -2.76577527213408 51.039576
vertex -12.8722592459018 -2.45853284698027 51.039576
endloop
endfacet
facet normal 0.537947811948288 0.842978144212559 0.0
outer loop
vertex -12.3908024137948 -2.76577527213408 51.039576
vertex -12.8722592459018 -2.45853284698027 51.8932776327
vertex -12.3908024137948 -2.76577527213408 51.8932776327
endloop
endfacet
facet normal -0.989852285986241 0.142100147529174 -9.57198046496396e-33
outer loop
vertex -18.4526659869867 24.9143949451982 51.039576
vertex -21.6274452230632 2.7992702322781 1.98799731646101e-15
vertex -21.6274452230632 2.7992702322781 51.039576
endloop
endfacet
facet normal -0.989852285986241 0.142100147529174 -9.57198046496396e-33
outer loop
vertex -21.6274452230632 2.7992702322781 1.98799731646101e-15
vertex -18.4526659869867 24.9143949451982 51.039576
vertex -18.4526659869867 24.9143949451982 1.98799731646101e-15
endloop
endfacet
facet normal 0.989852987946489 -0.142095257673885 0.0
outer loop
vertex 22.5341365293901 21.5593089524925 1.98799731646101e-15
vertex 17.2642931444389 -15.1510662281888 51.039576
vertex 17.2642931444389 -15.1510662281888 1.98799731646101e-15
endloop
endfacet
facet normal 0.989852987946489 -0.142095257673885 0.0
outer loop
vertex 17.2642931444389 -15.1510662281888 51.039576
vertex 22.5341365293901 21.5593089524925 1.98799731646101e-15
vertex 22.5341365293901 21.5593089524925 51.039576
endloop
endfacet
facet normal 0.989852987946489 -0.142095257673885 0.0
outer loop
vertex 22.5341365293901 21.5593089524925 51.039576
vertex 22.5341365293901 21.5593089524925 1.98799731646101e-15
vertex 22.5341365293901 21.5593089524925 28.7460701930396
endloop
endfacet
facet normal 0.887365543163753 0.46106658174899 0.0
outer loop
vertex -12.0052710165126 -3.18715886306587 51.039576
vertex -11.7419383816593 -3.69396702442292 51.8932776327
vertex -11.7419383816593 -3.69396702442292 51.039576
endloop
endfacet
facet normal 0.887365543163753 0.46106658174899 0.0
outer loop
vertex -11.7419383816593 -3.69396702442292 51.8932776327
vertex -12.0052710165126 -3.18715886306587 51.039576
vertex -12.0052710165126 -3.18715886306587 51.8932776327
endloop
endfacet
facet normal 0.737796483083959 0.67502322148867 0.0
outer loop
vertex -12.3908024137948 -2.76577527213408 51.039576
vertex -12.0052710165126 -3.18715886306587 51.8932776327
vertex -12.0052710165126 -3.18715886306587 51.039576
endloop
endfacet
facet normal 0.737796483083959 0.67502322148867 0.0
outer loop
vertex -12.0052710165126 -3.18715886306587 51.8932776327
vertex -12.3908024137948 -2.76577527213408 51.039576
vertex -12.3908024137948 -2.76577527213408 51.8932776327
endloop
endfacet
facet normal -0.141076216813706 -0.989998737903 0.0
outer loop
vertex 14.7884809648798 -17.0072830051593 51.039576
vertex -7.89277697658248 -13.7751717504166 1.98799731646101e-15
vertex 14.7884809648798 -17.0072830051593 1.98799731646101e-15
endloop
endfacet
facet normal -0.141076216813706 -0.989998737903 0.0
outer loop
vertex -7.89277697658248 -13.7751717504166 1.98799731646101e-15
vertex 14.7884809648798 -17.0072830051593 51.039576
vertex -7.89277697658248 -13.7751717504166 51.039576
endloop
endfacet
facet normal 0.0 0.0 1.0
outer loop
vertex -15.1664841021093 -9.71305405387035 51.039576
vertex -18.7181620579653 -0.685082903102099 51.039576
vertex -19.3754309004323 -4.53392811124109 51.039576
endloop
endfacet
facet normal 0.0 0.0 1.0
outer loop
vertex -18.7181620579653 -0.685082903102099 51.039576
vertex -15.1664841021093 -9.71305405387035 51.039576
vertex -15.9780493810401 -4.62967421414202 51.039576
endloop
endfacet
facet normal 0.0 0.0 1.0
outer loop
vertex -18.7181620579653 -0.685082903102099 51.039576
vertex -15.9780493810401 -4.62967421414202 51.039576
vertex -18.4526659869867 24.9143949451982 51.039576
endloop
endfacet
facet normal 0.0 0.0 1.0
outer loop
vertex -15.9780493810401 -4.62967421414202 51.039576
vertex -15.1664841021093 -9.71305405387035 51.039576
vertex -15.8548611925031 -5.18736880726795 51.039576
endloop
endfacet
facet normal 0.0 0.0 1.0
outer loop
vertex -15.8548611925031 -5.18736880726795 51.039576
vertex -15.1664841021093 -9.71305405387035 51.039576
vertex -15.5915285576497 -5.694176968625 51.039576
endloop
endfacet
facet normal 0.0 0.0 1.0
outer loop
vertex -15.5915285576497 -5.694176968625 51.039576
vertex -15.1664841021093 -9.71305405387035 51.039576
vertex -15.2059971603675 -6.11556055955674 51.039576
endloop
endfacet
facet normal 0.0 0.0 1.0
outer loop
vertex -15.2059971603675 -6.11556055955674 51.039576
vertex -15.1664841021093 -9.71305405387035 51.039576
vertex -14.7245403282605 -6.42280298471057 51.039576
endloop
endfacet
facet normal 0.0 0.0 1.0
outer loop
vertex -14.7245403282605 -6.42280298471057 51.039576
vertex -15.1664841021093 -9.71305405387035 51.039576
vertex -10.6733129505829 -10.3580798749398 51.039576
endloop
endfacet
facet normal 0.0 0.0 1.0
outer loop
vertex -14.7245403282605 -6.42280298471057 51.039576
vertex -10.6733129505829 -10.3580798749398 51.039576
vertex -14.1799685487917 -6.59496618055431 51.039576
endloop
endfacet
facet normal 0.0 0.0 1.0
outer loop
vertex -14.1799685487917 -6.59496618055431 51.039576
vertex -10.6733129505829 -10.3580798749398 51.039576
vertex -13.6093934887846 -6.62031750980433 51.039576
endloop
endfacet
facet normal 0.0 0.0 1.0
outer loop
vertex -13.6093934887846 -6.62031750980433 51.039576
vertex -10.6733129505829 -10.3580798749398 51.039576
vertex -13.0516988956587 -6.49712932126733 51.039576
endloop
endfacet
facet normal 0.0 0.0 1.0
outer loop
vertex -13.0516988956587 -6.49712932126733 51.039576
vertex -10.6733129505829 -10.3580798749398 51.039576
vertex -12.5448907343016 -6.23379668641399 51.039576
endloop
endfacet
facet normal 0.0 0.0 1.0
outer loop
vertex -12.5448907343016 -6.23379668641399 51.039576
vertex -10.6733129505829 -10.3580798749398 51.039576
vertex -12.1235071433698 -5.84826528913178 51.039576
endloop
endfacet
facet normal 0.0 0.0 1.0
outer loop
vertex -12.1235071433698 -5.84826528913178 51.039576
vertex -10.6733129505829 -10.3580798749398 51.039576
vertex -11.816264718216 -5.36680845702476 51.039576
endloop
endfacet
facet normal 0.0 0.0 1.0
outer loop
vertex -11.816264718216 -5.36680845702476 51.039576
vertex -10.6733129505829 -10.3580798749398 51.039576
vertex -11.6441015223723 -4.82223667755599 51.039576
endloop
endfacet
facet normal 0.0 0.0 1.0
outer loop
vertex -11.6441015223723 -4.82223667755599 51.039576
vertex -10.6733129505829 -10.3580798749398 51.039576
vertex -11.6187501931223 -4.25166161754884 51.039576
endloop
endfacet
facet normal 0.0 0.0 1.0
outer loop
vertex -12.8722592459018 -2.45853284698027 51.039576
vertex -13.0020453127322 2.08678332710099 51.039576
vertex -13.4168310253706 -2.28636965113656 51.039576
endloop
endfacet
facet normal 0.0 0.0 1.0
outer loop
vertex -13.0020453127322 2.08678332710099 51.039576
vertex -12.8722592459018 -2.45853284698027 51.039576
vertex -6.54847996169277 -5.83663634832252 51.039576
endloop
endfacet
facet normal 0.0 0.0 1.0
outer loop
vertex -6.54847996169277 -5.83663634832252 51.039576
vertex -12.8722592459018 -2.45853284698027 51.039576
vertex -12.3908024137948 -2.76577527213408 51.039576
endloop
endfacet
facet normal 0.0 0.0 1.0
outer loop
vertex -6.54847996169277 -5.83663634832252 51.039576
vertex -12.3908024137948 -2.76577527213408 51.039576
vertex -12.0052710165126 -3.18715886306587 51.039576
endloop
endfacet
facet normal 0.0 0.0 1.0
outer loop
vertex -6.54847996169277 -5.83663634832252 51.039576
vertex -12.0052710165126 -3.18715886306587 51.039576
vertex -11.7419383816593 -3.69396702442292 51.039576
endloop
endfacet
facet normal 0.0 0.0 1.0
outer loop
vertex -6.54847996169277 -5.83663634832252 51.039576
vertex -11.7419383816593 -3.69396702442292 51.039576
vertex -11.6187501931223 -4.25166161754884 51.039576
endloop
endfacet
facet normal 0.0 0.0 1.0
outer loop
vertex -6.54847996169277 -5.83663634832252 51.039576
vertex -11.6187501931223 -4.25166161754884 51.039576
vertex -10.6733129505829 -10.3580798749398 51.039576
endloop
endfacet
facet normal 0.0 0.0 1.0
outer loop
vertex -6.54847996169277 -5.83663634832252 51.039576
vertex -10.6733129505829 -10.3580798749398 51.039576
vertex -7.89277697658248 -13.7751717504166 51.039576
endloop
endfacet
facet normal 0.0 0.0 1.0
outer loop
vertex -6.54847996169277 -5.83663634832252 51.039576
vertex -7.89277697658248 -13.7751717504166 51.039576
vertex 14.7884809648798 -17.0072830051593 51.039576
endloop
endfacet
facet normal 0.0 0.0 1.0
outer loop
vertex -6.54847996169277 -5.83663634832252 51.039576
vertex 14.7884809648798 -17.0072830051593 51.039576
vertex 9.44947525306945 -8.13325355915999 51.039576
endloop
endfacet
facet normal 0.0 0.0 1.0
outer loop
vertex 9.44947525306945 -8.13325355915999 51.039576
vertex 14.7884809648798 -17.0072830051593 51.039576
vertex 12.4952199741788 13.083032469689 51.039576
endloop
endfacet
facet normal 0.0 0.0 1.0
outer loop
vertex -15.9780493810401 -4.62967421414202 51.039576
vertex -15.6668413139893 27.0030284439329 51.039576
vertex -18.4526659869867 24.9143949451982 51.039576
endloop
endfacet
facet normal 0.0 0.0 1.0
outer loop
vertex -15.6668413139893 27.0030284439329 51.039576
vertex -15.9780493810401 -4.62967421414202 51.039576
vertex -15.95269805179 -4.05909915413486 51.039576
endloop
endfacet
facet normal 0.0 0.0 1.0
outer loop
vertex -15.6668413139893 27.0030284439329 51.039576
vertex -15.95269805179 -4.05909915413486 51.039576
vertex -15.7805348559463 -3.5145273746661 51.039576
endloop
endfacet
facet normal 0.0 0.0 1.0
outer loop
vertex -15.6668413139893 27.0030284439329 51.039576
vertex -15.7805348559463 -3.5145273746661 51.039576
vertex -15.4732924307925 -3.03307054255905 51.039576
endloop
endfacet
facet normal 0.0 0.0 1.0
outer loop
vertex -15.6668413139893 27.0030284439329 51.039576
vertex -15.4732924307925 -3.03307054255905 51.039576
vertex -10.9218927389569 16.4447210957131 51.039576
endloop
endfacet
facet normal 0.0 0.0 1.0
outer loop
vertex -15.6668413139893 27.0030284439329 51.039576
vertex -10.9218927389569 16.4447210957131 51.039576
vertex 22.5341365293901 21.5593089524925 51.039576
endloop
endfacet
facet normal 0.0 0.0 1.0
outer loop
vertex -10.9218927389569 16.4447210957131 51.039576
vertex -15.4732924307925 -3.03307054255905 51.039576
vertex -15.0519088398607 -2.64753914527686 51.039576
endloop
endfacet
facet normal 0.0 0.0 1.0
outer loop
vertex -10.9218927389569 16.4447210957131 51.039576
vertex -15.0519088398607 -2.64753914527686 51.039576
vertex -14.5451006785037 -2.38420651042352 51.039576
endloop
endfacet
facet normal 0.0 0.0 1.0
outer loop
vertex -10.9218927389569 16.4447210957131 51.039576
vertex -14.5451006785037 -2.38420651042352 51.039576
vertex -13.9874060853778 -2.2610183218865 51.039576
endloop
endfacet
facet normal 0.0 0.0 1.0
outer loop
vertex -10.9218927389569 16.4447210957131 51.039576
vertex -13.9874060853778 -2.2610183218865 51.039576
vertex -13.0020453127322 2.08678332710099 51.039576
endloop
endfacet
facet normal 0.0 0.0 1.0
outer loop
vertex -13.0020453127322 2.08678332710099 51.039576
vertex -13.9874060853778 -2.2610183218865 51.039576
vertex -13.4168310253706 -2.28636965113656 51.039576
endloop
endfacet
facet normal 0.0 0.0 1.0
outer loop
vertex 22.5341365293901 21.5593089524925 51.039576
vertex -10.9218927389569 16.4447210957131 51.039576
vertex 12.4952199741788 13.083032469689 51.039576
endloop
endfacet
facet normal 0.0 0.0 1.0
outer loop
vertex 22.5341365293901 21.5593089524925 51.039576
vertex 12.4952199741788 13.083032469689 51.039576
vertex 14.7884809648798 -17.0072830051593 51.039576
endloop
endfacet
facet normal 0.0 0.0 1.0
outer loop
vertex 22.5341365293901 21.5593089524925 51.039576
vertex 14.7884809648798 -17.0072830051593 51.039576
vertex 17.2642931444389 -15.1510662281888 51.039576
endloop
endfacet
facet normal 0.0 0.0 1.0
outer loop
vertex -18.4526659869867 24.9143949451982 51.039576
vertex -21.6274452230632 2.7992702322781 51.039576
vertex -18.7181620579653 -0.685082903102099 51.039576
endloop
endfacet
facet normal 0.5998671350806 -0.800099631452355 0.0
outer loop
vertex 17.2642931444389 -15.1510662281888 51.039576
vertex 14.7884809648798 -17.0072830051593 1.98799731646101e-15
vertex 17.2642931444389 -15.1510662281888 1.98799731646101e-15
endloop
endfacet
facet normal 0.5998671350806 -0.800099631452355 0.0
outer loop
vertex 14.7884809648798 -17.0072830051593 1.98799731646101e-15
vertex 17.2642931444389 -15.1510662281888 51.039576
vertex 14.7884809648798 -17.0072830051593 51.039576
endloop
endfacet
facet normal -0.775652888997078 -0.631159722883587 0.0
outer loop
vertex -10.6733129505829 -10.3580798749398 51.039576
vertex -7.89277697658248 -13.7751717504166 1.98799731646101e-15
vertex -7.89277697658248 -13.7751717504166 51.039576
endloop
endfacet
facet normal -0.775652888997078 -0.631159722883587 0.0
outer loop
vertex -7.89277697658248 -13.7751717504166 1.98799731646101e-15
vertex -10.6733129505829 -10.3580798749398 51.039576
vertex -10.6733129505829 -10.3580798749398 1.98799731646101e-15
endloop
endfacet
facet normal -0.142100147529176 -0.989852285986241 -3.00405696375767e-34
outer loop
vertex -10.6733129505829 -10.3580798749398 51.039576
vertex -15.1664841021093 -9.71305405387035 1.98799731646101e-15
vertex -10.6733129505829 -10.3580798749398 1.98799731646101e-15
endloop
endfacet
facet normal -0.142100147529176 -0.989852285986241 -3.00405696375767e-34
outer loop
vertex -15.1664841021093 -9.71305405387035 1.98799731646101e-15
vertex -10.6733129505829 -10.3580798749398 51.039576
vertex -15.1664841021093 -9.71305405387035 51.039576
endloop
endfacet
facet normal -0.776047483935022 -0.630674482342612 0.0
outer loop
vertex -19.3754309004323 -4.53392811124109 51.039576
vertex -15.1664841021093 -9.71305405387035 1.98799731646101e-15
vertex -15.1664841021093 -9.71305405387035 51.039576
endloop
endfacet
facet normal -0.776047483935022 -0.630674482342612 0.0
outer loop
vertex -15.1664841021093 -9.71305405387035 1.98799731646101e-15
vertex -19.3754309004323 -4.53392811124109 51.039576
vertex -19.3754309004323 -4.53392811124109 1.98799731646101e-15
endloop
endfacet
facet normal -0.985730097165911 0.168333524709978 0.0
outer loop
vertex -18.7181620579653 -0.685082903102099 51.039576
vertex -19.3754309004323 -4.53392811124109 1.98799731646101e-15
vertex -19.3754309004323 -4.53392811124109 51.039576
endloop
endfacet
facet normal -0.985730097165911 0.168333524709978 0.0
outer loop
vertex -19.3754309004323 -4.53392811124109 1.98799731646101e-15
vertex -18.7181620579653 -0.685082903102099 51.039576
vertex -18.7181620579653 -0.685082903102099 1.98799731646101e-15
endloop
endfacet
facet normal -0.767608176925933 -0.640919407348885 0.0
outer loop
vertex -21.6274452230632 2.7992702322781 51.039576
vertex -18.7181620579653 -0.685082903102099 1.98799731646101e-15
vertex -18.7181620579653 -0.685082903102099 51.039576
endloop
endfacet
facet normal -0.767608176925933 -0.640919407348885 0.0
outer loop
vertex -18.7181620579653 -0.685082903102099 1.98799731646101e-15
vertex -21.6274452230632 2.7992702322781 51.039576
vertex -21.6274452230632 2.7992702322781 1.98799731646101e-15
endloop
endfacet
facet normal -0.599864889353331 0.800101315160221 -0.0
outer loop
vertex -18.4526659869867 24.9143949451982 51.039576
vertex -15.6668413139893 27.0030284439329 1.98799731646101e-15
vertex -18.4526659869867 24.9143949451982 1.98799731646101e-15
endloop
endfacet
facet normal -0.599864889353331 0.800101315160221 -0.0
outer loop
vertex -15.6668413139893 27.0030284439329 1.98799731646101e-15
vertex -18.4526659869867 24.9143949451982 51.039576
vertex -15.6668413139893 27.0030284439329 28.7460701930396
endloop
endfacet
facet normal -0.599864889353331 0.800101315160221 -0.0
outer loop
vertex -15.6668413139893 27.0030284439329 28.7460701930396
vertex -18.4526659869867 24.9143949451982 51.039576
vertex -15.6668413139893 27.0030284439329 51.039576
endloop
endfacet
facet normal 0.0 0.0 1.0
outer loop
vertex -3.51002970599147 8.2182392804621 55.80656606595
vertex -2.15887225315887 9.70991325018472 55.80656606595
vertex -2.50257163254282 15.2360692713402 55.80656606595
endloop
endfacet
facet normal 0.0 0.0 1.0
outer loop
vertex -2.15887225315887 9.70991325018472 55.80656606595
vertex -3.51002970599147 8.2182392804621 55.80656606595
vertex 4.18142396614274 7.1140778646655 55.80656606595
endloop
endfacet
facet normal 0.0 0.0 1.0
outer loop
vertex -2.15887225315887 9.70991325018472 55.80656606595
vertex 4.18142396614274 7.1140778646655 55.80656606595
vertex 2.00650683923255 9.11194424821994 55.80656606595
endloop
endfacet
facet normal 0.0 0.0 1.0
outer loop
vertex 2.00650683923255 9.11194424821994 55.80656606595
vertex 4.18142396614274 7.1140778646655 55.80656606595
vertex 2.43898743038633 12.1245512668746 55.80656606595
endloop
endfacet
facet normal 0.0 0.0 1.0
outer loop
vertex 11.2148323499231 4.16400853582758 55.80656606595
vertex 4.18142396614274 7.1140778646655 55.80656606595
vertex 3.90849441533572 5.21288392168218 55.80656606595
endloop
endfacet
facet normal 0.0 0.0 1.0
outer loop
vertex 4.18142396614274 7.1140778646655 55.80656606595
vertex 11.2148323499231 4.16400853582758 55.80656606595
vertex 5.81486881313942 7.28437752339306 55.80656606595
endloop
endfacet
facet normal 0.0 0.0 1.0
outer loop
vertex 5.81486881313942 7.28437752339306 55.80656606595
vertex 11.2148323499231 4.16400853582758 55.80656606595
vertex 8.95023285796682 6.83427431139337 55.80656606595
endloop
endfacet
facet normal 0.0 0.0 1.0
outer loop
vertex 8.95023285796682 6.83427431139337 55.80656606595
vertex 11.2148323499231 4.16400853582758 55.80656606595
vertex 9.763020976408 12.4960571529369 55.80656606595
endloop
endfacet
facet normal 0.0 0.0 1.0
outer loop
vertex -2.50257163254282 15.2360692713402 55.80656606595
vertex 6.62765693158062 12.9461603649366 55.80656606595
vertex 12.4952199741788 13.083032469689 55.80656606595
endloop
endfacet
facet normal 0.0 0.0 1.0
outer loop
vertex 6.62765693158062 12.9461603649366 55.80656606595
vertex -2.50257163254282 15.2360692713402 55.80656606595
vertex -1.72639166200508 12.7225202688394 55.80656606595
endloop
endfacet
facet normal 0.0 0.0 1.0
outer loop
vertex -1.72639166200508 12.7225202688394 55.80656606595
vertex -2.50257163254282 15.2360692713402 55.80656606595
vertex -2.15887225315887 9.70991325018472 55.80656606595
endloop
endfacet
facet normal 0.0 0.0 1.0
outer loop
vertex 6.62765693158062 12.9461603649366 55.80656606595
vertex -1.72639166200508 12.7225202688394 55.80656606595
vertex 2.43898743038633 12.1245512668746 55.80656606595
endloop
endfacet
facet normal 0.0 0.0 1.0
outer loop
vertex 6.62765693158062 12.9461603649366 55.80656606595
vertex 2.43898743038633 12.1245512668746 55.80656606595
vertex 4.18142396614274 7.1140778646655 55.80656606595
endloop
endfacet
facet normal 0.0 0.0 1.0
outer loop
vertex 6.62765693158062 12.9461603649366 55.80656606595
vertex 4.18142396614274 7.1140778646655 55.80656606595
vertex 5.81486881313942 7.28437752339306 55.80656606595
endloop
endfacet
facet normal 0.0 0.0 1.0
outer loop
vertex 12.4952199741788 13.083032469689 55.80656606595
vertex 6.62765693158062 12.9461603649366 55.80656606595
vertex 9.763020976408 12.4960571529369 55.80656606595
endloop
endfacet
facet normal 0.0 0.0 1.0
outer loop
vertex 12.4952199741788 13.083032469689 55.80656606595
vertex 9.763020976408 12.4960571529369 55.80656606595
vertex 11.2148323499231 4.16400853582758 55.80656606595
endloop
endfacet
facet normal -0.775357376530758 -0.631522714286145 0.0
outer loop
vertex -13.0020453127322 2.08678332710099 55.80656606595
vertex -6.54847996169277 -5.83663634832252 51.039576
vertex -6.54847996169277 -5.83663634832252 55.80656606595
endloop
endfacet
facet normal -0.775357376530758 -0.631522714286145 0.0
outer loop
vertex -6.54847996169277 -5.83663634832252 51.039576
vertex -13.0020453127322 2.08678332710099 55.80656606595
vertex -13.0020453127322 2.08678332710099 51.039576
endloop
endfacet
facet normal -0.142100147529173 -0.989852285986241 0.0
outer loop
vertex 9.44947525306945 -8.13325355915999 55.80656606595
vertex -6.54847996169277 -5.83663634832252 51.039576
vertex 9.44947525306945 -8.13325355915999 51.039576
endloop
endfacet
facet normal -0.142100147529173 -0.989852285986241 0.0
outer loop
vertex -6.54847996169277 -5.83663634832252 51.039576
vertex 9.44947525306945 -8.13325355915999 55.80656606595
vertex -6.54847996169277 -5.83663634832252 55.80656606595
endloop
endfacet
facet normal 0.989852285986241 -0.142100147529174 -6.15788249979907e-16
outer loop
vertex 12.4952199741788 13.083032469689 51.039576
vertex 9.44947525306945 -8.13325355915999 55.80656606595
vertex 9.44947525306945 -8.13325355915999 51.039576
endloop
endfacet
facet normal 0.989852285986241 -0.142100147529174 -6.15788249979907e-16
outer loop
vertex 9.44947525306945 -8.13325355915999 55.80656606595
vertex 12.4952199741788 13.083032469689 51.039576
vertex 11.2148323499231 4.16400853582758 55.80656606595
endloop
endfacet
facet normal 0.989852285986241 -0.142100147529174 -6.15788249979907e-16
outer loop
vertex 11.2148323499231 4.16400853582758 55.80656606595
vertex 12.4952199741788 13.083032469689 51.039576
vertex 12.4952199741788 13.083032469689 55.80656606595
endloop
endfacet
facet normal -0.989667524716426 0.143381276747215 0.0
outer loop
vertex -10.9218927389569 16.4447210957131 55.80656606595
vertex -13.0020453127322 2.08678332710099 51.039576
vertex -13.0020453127322 2.08678332710099 55.80656606595
endloop
endfacet
facet normal -0.989667524716426 0.143381276747215 0.0
outer loop
vertex -13.0020453127322 2.08678332710099 51.039576
vertex -10.9218927389569 16.4447210957131 55.80656606595
vertex -10.9218927389569 16.4447210957131 51.039576
endloop
endfacet
facet normal -0.989852285986241 0.142100147529172 0.0
outer loop
vertex 10.2033320151347 3.40646648151724 55.80656606595
vertex 8.69193319875909 -7.12175322437164 54.4438140099
vertex 8.69193319875909 -7.12175322437164 55.80656606595
endloop
endfacet
facet normal -0.989852285986241 0.142100147529172 0.0
outer loop
vertex 8.69193319875909 -7.12175322437164 54.4438140099
vertex 10.2033320151347 3.40646648151724 55.80656606595
vertex 10.2033320151347 3.40646648151724 54.4438140099
endloop
endfacet
facet normal -0.142100147529172 -0.989852285986241 0.0
outer loop
vertex 10.2033320151347 3.40646648151724 55.80656606595
vertex 2.89699408054736 4.45534186737181 54.4438140099
vertex 10.2033320151347 3.40646648151724 54.4438140099
endloop
endfacet
facet normal -0.142100147529172 -0.989852285986241 0.0
outer loop
vertex 2.89699408054736 4.45534186737181 54.4438140099
vertex 10.2033320151347 3.40646648151724 55.80656606595
vertex 2.89699408054736 4.45534186737181 55.80656606595
endloop
endfacet
facet normal -0.989852285986241 0.142100147529172 0.0
outer loop
vertex 3.16992363135436 6.35653581035515 55.80656606595
vertex 2.89699408054736 4.45534186737181 54.4438140099
vertex 2.89699408054736 4.45534186737181 55.80656606595
endloop
endfacet
facet normal -0.989852285986241 0.142100147529172 0.0
outer loop
vertex 2.89699408054736 4.45534186737181 54.4438140099
vertex 3.16992363135436 6.35653581035515 55.80656606595
vertex 3.16992363135436 6.35653581035515 54.4438140099
endloop
endfacet
facet normal -0.989852285986241 0.142100147529175 0.0
outer loop
vertex -3.51407196733119 14.4785272170298 55.80656606595
vertex -4.52153004077984 7.46069722615175 54.4438140099
vertex -4.52153004077984 7.46069722615175 55.80656606595
endloop
endfacet
facet normal -0.989852285986241 0.142100147529175 0.0
outer loop
vertex -4.52153004077984 7.46069722615175 54.4438140099
vertex -3.51407196733119 14.4785272170298 55.80656606595
vertex -3.51407196733119 14.4785272170298 54.4438140099
endloop
endfacet
facet normal 0.0 0.0 1.0
outer loop
vertex -6.07603512686776 -5.00170914558582 54.4438140099
vertex -10.1654948540817 15.4333850143672 54.4438140099
vertex -12.0614385931621 2.34692079934021 54.4438140099
endloop
endfacet
facet normal 0.0 0.0 1.0
outer loop
vertex -10.1654948540817 15.4333850143672 54.4438140099
vertex -6.07603512686776 -5.00170914558582 54.4438140099
vertex -4.52153004077984 7.46069722615175 54.4438140099
endloop
endfacet
facet normal 0.0 0.0 1.0
outer loop
vertex -10.1654948540817 15.4333850143672 54.4438140099
vertex -4.52153004077984 7.46069722615175 54.4438140099
vertex -3.51407196733119 14.4785272170298 54.4438140099
endloop
endfacet
facet normal 0.0 0.0 1.0
outer loop
vertex 8.69193319875909 -7.12175322437164 54.4438140099
vertex -4.52153004077984 7.46069722615175 54.4438140099
vertex -6.07603512686776 -5.00170914558582 54.4438140099
endloop
endfacet
facet normal 0.0 0.0 1.0
outer loop
vertex -4.52153004077984 7.46069722615175 54.4438140099
vertex 8.69193319875909 -7.12175322437164 54.4438140099
vertex 2.89699408054736 4.45534186737181 54.4438140099
endloop
endfacet
facet normal 0.0 0.0 1.0
outer loop
vertex 2.89699408054736 4.45534186737181 54.4438140099
vertex 8.69193319875909 -7.12175322437164 54.4438140099
vertex 10.2033320151347 3.40646648151724 54.4438140099
endloop
endfacet
facet normal 0.0 0.0 1.0
outer loop
vertex 3.16992363135436 6.35653581035515 54.4438140099
vertex -4.52153004077984 7.46069722615175 54.4438140099
vertex 2.89699408054736 4.45534186737181 54.4438140099
endloop
endfacet
facet normal 0.141076883706598 0.989998642869593 -0.0
outer loop
vertex -15.6668413139893 27.0030284439329 51.039576
vertex 22.5341365293901 21.5593089524925 28.7460701930396
vertex -15.6668413139893 27.0030284439329 28.7460701930396
endloop
endfacet
facet normal 0.141076883706598 0.989998642869593 -0.0
outer loop
vertex 22.5341365293901 21.5593089524925 28.7460701930396
vertex -15.6668413139893 27.0030284439329 51.039576
vertex 22.5341365293901 21.5593089524925 51.039576
endloop
endfacet
facet normal 0.0 0.0 -1.0
outer loop
vertex -18.4526659869867 24.9143949451982 1.98799731646101e-15
vertex -18.7181620579653 -0.685082903102099 1.98799731646101e-15
vertex -21.6274452230632 2.7992702322781 1.98799731646101e-15
endloop
endfacet
facet normal 0.0 0.0 -1.0
outer loop
vertex -18.7181620579653 -0.685082903102099 1.98799731646101e-15
vertex -15.1664841021093 -9.71305405387035 1.98799731646101e-15
vertex -19.3754309004323 -4.53392811124109 1.98799731646101e-15
endloop
endfacet
facet normal 0.0 0.0 -1.0
outer loop
vertex -15.1664841021093 -9.71305405387035 1.98799731646101e-15
vertex -18.7181620579653 -0.685082903102099 1.98799731646101e-15
vertex -18.4526659869867 24.9143949451982 1.98799731646101e-15
endloop
endfacet
facet normal 0.0 0.0 -1.0
outer loop
vertex -15.1664841021093 -9.71305405387035 1.98799731646101e-15
vertex -18.4526659869867 24.9143949451982 1.98799731646101e-15
vertex -15.6668413139893 27.0030284439329 1.98799731646101e-15
endloop
endfacet
facet normal 0.0 0.0 -1.0
outer loop
vertex -15.1664841021093 -9.71305405387035 1.98799731646101e-15
vertex -15.6668413139893 27.0030284439329 1.98799731646101e-15
vertex 22.5341365293901 21.5593089524925 1.98799731646101e-15
endloop
endfacet
facet normal 0.0 0.0 -1.0
outer loop
vertex -15.1664841021093 -9.71305405387035 1.98799731646101e-15
vertex 22.5341365293901 21.5593089524925 1.98799731646101e-15
vertex -10.6733129505829 -10.3580798749398 1.98799731646101e-15
endloop
endfacet
facet normal 0.0 0.0 -1.0
outer loop
vertex -10.6733129505829 -10.3580798749398 1.98799731646101e-15
vertex 22.5341365293901 21.5593089524925 1.98799731646101e-15
vertex -7.89277697658248 -13.7751717504166 1.98799731646101e-15
endloop
endfacet
facet normal 0.0 0.0 -1.0
outer loop
vertex -7.89277697658248 -13.7751717504166 1.98799731646101e-15
vertex 22.5341365293901 21.5593089524925 1.98799731646101e-15
vertex 14.7884809648798 -17.0072830051593 1.98799731646101e-15
endloop
endfacet
facet normal 0.0 0.0 -1.0
outer loop
vertex 14.7884809648798 -17.0072830051593 1.98799731646101e-15
vertex 22.5341365293901 21.5593089524925 1.98799731646101e-15
vertex 17.2642931444389 -15.1510662281888 1.98799731646101e-15
endloop
endfacet
facet normal -0.989852285986241 0.142100147529177 0.0
outer loop
vertex -1.72639166200508 12.7225202688394 58.43695348995
vertex -2.15887225315887 9.70991325018472 55.80656606595
vertex -2.15887225315887 9.70991325018472 58.43695348995
endloop
endfacet
facet normal -0.989852285986241 0.142100147529177 0.0
outer loop
vertex -2.15887225315887 9.70991325018472 55.80656606595
vertex -1.72639166200508 12.7225202688394 58.43695348995
vertex -1.72639166200508 12.7225202688394 55.80656606595
endloop
endfacet
facet normal -0.142100147529173 -0.989852285986241 0.0
outer loop
vertex 2.00650683923255 9.11194424821994 58.43695348995
vertex -2.15887225315887 9.70991325018472 55.80656606595
vertex 2.00650683923255 9.11194424821994 55.80656606595
endloop
endfacet
facet normal -0.142100147529173 -0.989852285986241 0.0
outer loop
vertex -2.15887225315887 9.70991325018472 55.80656606595
vertex 2.00650683923255 9.11194424821994 58.43695348995
vertex -2.15887225315887 9.70991325018472 58.43695348995
endloop
endfacet
facet normal 0.989852285986241 -0.142100147529172 3.93938753524608e-31
outer loop
vertex 2.43898743038633 12.1245512668746 55.80656606595
vertex 2.00650683923255 9.11194424821994 58.43695348995
vertex 2.00650683923255 9.11194424821994 55.80656606595
endloop
endfacet
facet normal 0.989852285986241 -0.142100147529172 3.93938753524608e-31
outer loop
vertex 2.00650683923255 9.11194424821994 58.43695348995
vertex 2.43898743038633 12.1245512668746 55.80656606595
vertex 2.43898743038633 12.1245512668746 58.43695348995
endloop
endfacet
facet normal 0.142100147529172 0.989852285986241 0.0
outer loop
vertex -1.72639166200508 12.7225202688394 58.43695348995
vertex 2.43898743038633 12.1245512668746 55.80656606595
vertex -1.72639166200508 12.7225202688394 55.80656606595
endloop
endfacet
facet normal 0.142100147529172 0.989852285986241 0.0
outer loop
vertex 2.43898743038633 12.1245512668746 55.80656606595
vertex -1.72639166200508 12.7225202688394 58.43695348995
vertex 2.43898743038633 12.1245512668746 58.43695348995
endloop
endfacet
facet normal 0.0 0.0 1.0
outer loop
vertex 8.95023285796682 6.83427431139337 58.43695348995
vertex 6.62765693158062 12.9461603649366 58.43695348995
vertex 5.81486881313942 7.28437752339306 58.43695348995
endloop
endfacet
facet normal 0.0 0.0 1.0
outer loop
vertex 6.62765693158062 12.9461603649366 58.43695348995
vertex 8.95023285796682 6.83427431139337 58.43695348995
vertex 9.763020976408 12.4960571529369 58.43695348995
endloop
endfacet
facet normal 0.142100147529172 0.989852285986241 -2.26210539838398e-31
outer loop
vertex 6.62765693158062 12.9461603649366 58.43695348995
vertex 9.763020976408 12.4960571529369 55.80656606595
vertex 6.62765693158062 12.9461603649366 55.80656606595
endloop
endfacet
facet normal 0.142100147529172 0.989852285986241 -2.26210539838398e-31
outer loop
vertex 9.763020976408 12.4960571529369 55.80656606595
vertex 6.62765693158062 12.9461603649366 58.43695348995
vertex 9.763020976408 12.4960571529369 58.43695348995
endloop
endfacet
facet normal -0.989852285986241 0.142100147529173 0.0
outer loop
vertex 6.62765693158062 12.9461603649366 58.43695348995
vertex 5.81486881313942 7.28437752339306 55.80656606595
vertex 5.81486881313942 7.28437752339306 58.43695348995
endloop
endfacet
facet normal -0.989852285986241 0.142100147529173 0.0
outer loop
vertex 5.81486881313942 7.28437752339306 55.80656606595
vertex 6.62765693158062 12.9461603649366 58.43695348995
vertex 6.62765693158062 12.9461603649366 55.80656606595
endloop
endfacet
facet normal -0.142100147529175 -0.989852285986241 0.0
outer loop
vertex 8.95023285796682 6.83427431139337 58.43695348995
vertex 5.81486881313942 7.28437752339306 55.80656606595
vertex 8.95023285796682 6.83427431139337 55.80656606595
endloop
endfacet
facet normal -0.142100147529175 -0.989852285986241 0.0
outer loop
vertex 5.81486881313942 7.28437752339306 55.80656606595
vertex 8.95023285796682 6.83427431139337 58.43695348995
vertex 5.81486881313942 7.28437752339306 58.43695348995
endloop
endfacet
facet normal 0.989852285986242 -0.142100147529171 0.0
outer loop
vertex 9.763020976408 12.4960571529369 55.80656606595
vertex 8.95023285796682 6.83427431139337 58.43695348995
vertex 8.95023285796682 6.83427431139337 55.80656606595
endloop
endfacet
facet normal 0.989852285986242 -0.142100147529171 0.0
outer loop
vertex 8.95023285796682 6.83427431139337 58.43695348995
vertex 9.763020976408 12.4960571529369 55.80656606595
vertex 9.763020976408 12.4960571529369 58.43695348995
endloop
endfacet
facet normal 0.0 0.0 1.0
outer loop
vertex -15.8548611925031 -5.18736880726795 51.8932776327
vertex -15.95269805179 -4.05909915413486 51.8932776327
vertex -15.9780493810401 -4.62967421414202 51.8932776327
endloop
endfacet
facet normal 0.0 0.0 1.0
outer loop
vertex -15.95269805179 -4.05909915413486 51.8932776327
vertex -15.8548611925031 -5.18736880726795 51.8932776327
vertex -15.7805348559463 -3.5145273746661 51.8932776327
endloop
endfacet
facet normal 0.0 0.0 1.0
outer loop
vertex -15.7805348559463 -3.5145273746661 51.8932776327
vertex -15.8548611925031 -5.18736880726795 51.8932776327
vertex -15.5915285576497 -5.694176968625 51.8932776327
endloop
endfacet
facet normal 0.0 0.0 1.0
outer loop
vertex -15.7805348559463 -3.5145273746661 51.8932776327
vertex -15.5915285576497 -5.694176968625 51.8932776327
vertex -15.4732924307925 -3.03307054255905 51.8932776327
endloop
endfacet
facet normal 0.0 0.0 1.0
outer loop
vertex -15.4732924307925 -3.03307054255905 51.8932776327
vertex -15.5915285576497 -5.694176968625 51.8932776327
vertex -15.2059971603675 -6.11556055955674 51.8932776327
endloop
endfacet
facet normal 0.0 0.0 1.0
outer loop
vertex -15.4732924307925 -3.03307054255905 51.8932776327
vertex -15.2059971603675 -6.11556055955674 51.8932776327
vertex -15.0519088398607 -2.64753914527686 51.8932776327
endloop
endfacet
facet normal 0.0 0.0 1.0
outer loop
vertex -15.0519088398607 -2.64753914527686 51.8932776327
vertex -15.2059971603675 -6.11556055955674 51.8932776327
vertex -14.7245403282605 -6.42280298471057 51.8932776327
endloop
endfacet
facet normal 0.0 0.0 1.0
outer loop
vertex -15.0519088398607 -2.64753914527686 51.8932776327
vertex -14.7245403282605 -6.42280298471057 51.8932776327
vertex -14.5451006785037 -2.38420651042352 51.8932776327
endloop
endfacet
facet normal 0.0 0.0 1.0
outer loop
vertex -14.5451006785037 -2.38420651042352 51.8932776327
vertex -14.7245403282605 -6.42280298471057 51.8932776327
vertex -14.1799685487917 -6.59496618055431 51.8932776327
endloop
endfacet
facet normal 0.0 0.0 1.0
outer loop
vertex -14.5451006785037 -2.38420651042352 51.8932776327
vertex -14.1799685487917 -6.59496618055431 51.8932776327
vertex -13.9874060853778 -2.2610183218865 51.8932776327
endloop
endfacet
facet normal 0.0 0.0 1.0
outer loop
vertex -13.9874060853778 -2.2610183218865 51.8932776327
vertex -14.1799685487917 -6.59496618055431 51.8932776327
vertex -13.6093934887846 -6.62031750980433 51.8932776327
endloop
endfacet
facet normal 0.0 0.0 1.0
outer loop
vertex -13.9874060853778 -2.2610183218865 51.8932776327
vertex -13.6093934887846 -6.62031750980433 51.8932776327
vertex -13.4168310253706 -2.28636965113656 51.8932776327
endloop
endfacet
facet normal 0.0 0.0 1.0
outer loop
vertex -13.4168310253706 -2.28636965113656 51.8932776327
vertex -13.6093934887846 -6.62031750980433 51.8932776327
vertex -13.0516988956587 -6.49712932126733 51.8932776327
endloop
endfacet
facet normal 0.0 0.0 1.0
outer loop
vertex -13.4168310253706 -2.28636965113656 51.8932776327
vertex -13.0516988956587 -6.49712932126733 51.8932776327
vertex -12.8722592459018 -2.45853284698027 51.8932776327
endloop
endfacet
facet normal 0.0 0.0 1.0
outer loop
vertex -12.8722592459018 -2.45853284698027 51.8932776327
vertex -13.0516988956587 -6.49712932126733 51.8932776327
vertex -12.5448907343016 -6.23379668641399 51.8932776327
endloop
endfacet
facet normal 0.0 0.0 1.0
outer loop
vertex -12.8722592459018 -2.45853284698027 51.8932776327
vertex -12.5448907343016 -6.23379668641399 51.8932776327
vertex -12.3908024137948 -2.76577527213408 51.8932776327
endloop
endfacet
facet normal 0.0 0.0 1.0
outer loop
vertex -12.3908024137948 -2.76577527213408 51.8932776327
vertex -12.5448907343016 -6.23379668641399 51.8932776327
vertex -12.1235071433698 -5.84826528913178 51.8932776327
endloop
endfacet
facet normal 0.0 0.0 1.0
outer loop
vertex -12.3908024137948 -2.76577527213408 51.8932776327
vertex -12.1235071433698 -5.84826528913178 51.8932776327
vertex -12.0052710165126 -3.18715886306587 51.8932776327
endloop
endfacet
facet normal 0.0 0.0 1.0
outer loop
vertex -12.0052710165126 -3.18715886306587 51.8932776327
vertex -12.1235071433698 -5.84826528913178 51.8932776327
vertex -11.816264718216 -5.36680845702476 51.8932776327
endloop
endfacet
facet normal 0.0 0.0 1.0
outer loop
vertex -12.0052710165126 -3.18715886306587 51.8932776327
vertex -11.816264718216 -5.36680845702476 51.8932776327
vertex -11.7419383816593 -3.69396702442292 51.8932776327
endloop
endfacet
facet normal 0.0 0.0 1.0
outer loop
vertex -11.7419383816593 -3.69396702442292 51.8932776327
vertex -11.816264718216 -5.36680845702476 51.8932776327
vertex -11.6441015223723 -4.82223667755599 51.8932776327
endloop
endfacet
facet normal 0.0 0.0 1.0
outer loop
vertex -11.7419383816593 -3.69396702442292 51.8932776327
vertex -11.6441015223723 -4.82223667755599 51.8932776327
vertex -11.6187501931223 -4.25166161754884 51.8932776327
endloop
endfacet
facet normal -0.142100147529172 -0.989852285986241 0.0
outer loop
vertex 3.16992363135436 6.35653581035515 55.80656606595
vertex -4.52153004077984 7.46069722615175 54.4438140099
vertex 3.16992363135436 6.35653581035515 54.4438140099
endloop
endfacet
facet normal -0.142100147529172 -0.989852285986241 0.0
outer loop
vertex -4.52153004077984 7.46069722615175 54.4438140099
vertex 3.16992363135436 6.35653581035515 55.80656606595
vertex -4.52153004077984 7.46069722615175 55.80656606595
endloop
endfacet
facet normal 0.0 0.0 1.0
outer loop
vertex 2.00650683923255 9.11194424821994 58.43695348995
vertex -1.72639166200508 12.7225202688394 58.43695348995
vertex -2.15887225315887 9.70991325018472 58.43695348995
endloop
endfacet
facet normal 0.0 0.0 1.0
outer loop
vertex -1.72639166200508 12.7225202688394 58.43695348995
vertex 2.00650683923255 9.11194424821994 58.43695348995
vertex 2.43898743038633 12.1245512668746 58.43695348995
endloop
endfacet
facet normal -0.142100147529174 -0.989852285986241 0.0
outer loop
vertex -3.51407196733119 14.4785272170298 55.80656606595
vertex -10.1654948540817 15.4333850143672 54.4438140099
vertex -3.51407196733119 14.4785272170298 54.4438140099
endloop
endfacet
facet normal -0.142100147529174 -0.989852285986241 0.0
outer loop
vertex -10.1654948540817 15.4333850143672 54.4438140099
vertex -3.51407196733119 14.4785272170298 55.80656606595
vertex -10.1654948540817 15.4333850143672 55.80656606595
endloop
endfacet
facet normal 0.989667524716426 -0.143381276747216 0.0
outer loop
vertex -10.1654948540817 15.4333850143672 54.4438140099
vertex -12.0614385931621 2.34692079934021 55.80656606595
vertex -12.0614385931621 2.34692079934021 54.4438140099
endloop
endfacet
facet normal 0.989667524716426 -0.143381276747216 0.0
outer loop
vertex -12.0614385931621 2.34692079934021 55.80656606595
vertex -10.1654948540817 15.4333850143672 54.4438140099
vertex -10.1654948540817 15.4333850143672 55.80656606595
endloop
endfacet
facet normal 0.775357376530759 0.631522714286144 0.0
outer loop
vertex -12.0614385931621 2.34692079934021 54.4438140099
vertex -6.07603512686776 -5.00170914558582 55.80656606595
vertex -6.07603512686776 -5.00170914558582 54.4438140099
endloop
endfacet
facet normal 0.775357376530759 0.631522714286144 0.0
outer loop
vertex -6.07603512686776 -5.00170914558582 55.80656606595
vertex -12.0614385931621 2.34692079934021 54.4438140099
vertex -12.0614385931621 2.34692079934021 55.80656606595
endloop
endfacet
facet normal 0.142100147529173 0.989852285986241 0.0
outer loop
vertex -6.07603512686776 -5.00170914558582 55.80656606595
vertex 8.69193319875909 -7.12175322437164 54.4438140099
vertex -6.07603512686776 -5.00170914558582 54.4438140099
endloop
endfacet
facet normal 0.142100147529173 0.989852285986241 0.0
outer loop
vertex 8.69193319875909 -7.12175322437164 54.4438140099
vertex -6.07603512686776 -5.00170914558582 55.80656606595
vertex 8.69193319875909 -7.12175322437164 55.80656606595
endloop
endfacet
facet normal 0.142100147529174 0.989852285986241 4.0681536055147e-16
outer loop
vertex -10.9218927389569 16.4447210957131 55.80656606595
vertex 12.4952199741788 13.083032469689 51.039576
vertex -10.9218927389569 16.4447210957131 51.039576
endloop
endfacet
facet normal 0.142100147529174 0.989852285986241 4.0681536055147e-16
outer loop
vertex 12.4952199741788 13.083032469689 51.039576
vertex -10.9218927389569 16.4447210957131 55.80656606595
vertex 12.4952199741788 13.083032469689 55.80656606595
endloop
endfacet
facet normal 0.142100147529174 0.989852285986241 4.0681536055147e-16
outer loop
vertex 12.4952199741788 13.083032469689 55.80656606595
vertex -10.9218927389569 16.4447210957131 55.80656606595
vertex -2.50257163254282 15.2360692713402 55.80656606595
endloop
endfacet
facet normal 0.0 0.0 1.0
outer loop
vertex -6.54847996169277 -5.83663634832252 55.80656606595
vertex -12.0614385931621 2.34692079934021 55.80656606595
vertex -13.0020453127322 2.08678332710099 55.80656606595
endloop
endfacet
facet normal 0.0 0.0 1.0
outer loop
vertex -12.0614385931621 2.34692079934021 55.80656606595
vertex -6.54847996169277 -5.83663634832252 55.80656606595
vertex -6.07603512686776 -5.00170914558582 55.80656606595
endloop
endfacet
facet normal 0.0 0.0 1.0
outer loop
vertex -6.07603512686776 -5.00170914558582 55.80656606595
vertex -6.54847996169277 -5.83663634832252 55.80656606595
vertex 9.44947525306945 -8.13325355915999 55.80656606595
endloop
endfacet
facet normal 0.0 0.0 1.0
outer loop
vertex -6.07603512686776 -5.00170914558582 55.80656606595
vertex 9.44947525306945 -8.13325355915999 55.80656606595
vertex 8.69193319875909 -7.12175322437164 55.80656606595
endloop
endfacet
facet normal 0.0 0.0 1.0
outer loop
vertex 8.69193319875909 -7.12175322437164 55.80656606595
vertex 9.44947525306945 -8.13325355915999 55.80656606595
vertex 10.2033320151347 3.40646648151724 55.80656606595
endloop
endfacet
facet normal 0.0 0.0 1.0
outer loop
vertex 10.2033320151347 3.40646648151724 55.80656606595
vertex 9.44947525306945 -8.13325355915999 55.80656606595
vertex 11.2148323499231 4.16400853582758 55.80656606595
endloop
endfacet
facet normal 0.0 0.0 1.0
outer loop
vertex 2.89699408054736 4.45534186737181 55.80656606595
vertex 3.90849441533572 5.21288392168218 55.80656606595
vertex 3.16992363135436 6.35653581035515 55.80656606595
endloop
endfacet
facet normal 0.0 0.0 1.0
outer loop
vertex 3.90849441533572 5.21288392168218 55.80656606595
vertex 2.89699408054736 4.45534186737181 55.80656606595
vertex 10.2033320151347 3.40646648151724 55.80656606595
endloop
endfacet
facet normal 0.0 0.0 1.0
outer loop
vertex 3.90849441533572 5.21288392168218 55.80656606595
vertex 10.2033320151347 3.40646648151724 55.80656606595
vertex 11.2148323499231 4.16400853582758 55.80656606595
endloop
endfacet
facet normal 0.0 0.0 1.0
outer loop
vertex -4.52153004077984 7.46069722615175 55.80656606595
vertex -3.51002970599147 8.2182392804621 55.80656606595
vertex -3.51407196733119 14.4785272170298 55.80656606595
endloop
endfacet
facet normal 0.0 0.0 1.0
outer loop
vertex -3.51002970599147 8.2182392804621 55.80656606595
vertex -4.52153004077984 7.46069722615175 55.80656606595
vertex 3.16992363135436 6.35653581035515 55.80656606595
endloop
endfacet
facet normal 0.0 0.0 1.0
outer loop
vertex -3.51002970599147 8.2182392804621 55.80656606595
vertex 3.16992363135436 6.35653581035515 55.80656606595
vertex 4.18142396614274 7.1140778646655 55.80656606595
endloop
endfacet
facet normal 0.0 0.0 1.0
outer loop
vertex 4.18142396614274 7.1140778646655 55.80656606595
vertex 3.16992363135436 6.35653581035515 55.80656606595
vertex 3.90849441533572 5.21288392168218 55.80656606595
endloop
endfacet
facet normal 0.0 0.0 1.0
outer loop
vertex -12.0614385931621 2.34692079934021 55.80656606595
vertex -10.9218927389569 16.4447210957131 55.80656606595
vertex -13.0020453127322 2.08678332710099 55.80656606595
endloop
endfacet
facet normal 0.0 0.0 1.0
outer loop
vertex -10.9218927389569 16.4447210957131 55.80656606595
vertex -12.0614385931621 2.34692079934021 55.80656606595
vertex -10.1654948540817 15.4333850143672 55.80656606595
endloop
endfacet
facet normal 0.0 0.0 1.0
outer loop
vertex -10.9218927389569 16.4447210957131 55.80656606595
vertex -10.1654948540817 15.4333850143672 55.80656606595
vertex -2.50257163254282 15.2360692713402 55.80656606595
endloop
endfacet
facet normal 0.0 0.0 1.0
outer loop
vertex -2.50257163254282 15.2360692713402 55.80656606595
vertex -10.1654948540817 15.4333850143672 55.80656606595
vertex -3.51407196733119 14.4785272170298 55.80656606595
endloop
endfacet
facet normal 0.0 0.0 1.0
outer loop
vertex -2.50257163254282 15.2360692713402 55.80656606595
vertex -3.51407196733119 14.4785272170298 55.80656606595
vertex -3.51002970599147 8.2182392804621 55.80656606595
endloop
endfacet
endsolid MedicalCenterPlazaGOOG
