solid meidinger
facet normal 0.838196684775444 0.545368057032547 -9.38126208965259e-17
outer loop
vertex 0.460047789479954 0.610553250550235 0.0750397269578219
vertex 0.463326545779932 0.605514006638917 0.080278621586507
vertex 0.459261582999206 0.611761600869279 0.0577452833886163
endloop
endfacet
facet normal 0.838196684775444 0.545368057032547 -9.38126208965259e-17
outer loop
vertex 0.463326545779932 0.605514006638917 0.080278621586507
vertex 0.460047789479954 0.610553250550235 0.0750397269578219
vertex 0.465442139281448 0.602262471393248 0.0943500220132886
endloop
endfacet
facet normal 0.838196684775444 0.545368057032547 -9.38126208965259e-17
outer loop
vertex 0.463326545779932 0.605514006638917 0.080278621586507
vertex 0.465442139281448 0.602262471393248 0.0943500220132886
vertex 0.471709736394958 0.592629565588978 0.093673533640385
endloop
endfacet
facet normal 0.838196684775444 0.545368057032547 -9.38126208965259e-17
outer loop
vertex 0.471709736394958 0.592629565588978 0.093673533640385
vertex 0.465442139281448 0.602262471393248 0.0943500220132886
vertex 0.485251819255151 0.571816228958794 0.103128763740547
endloop
endfacet
facet normal 0.838196684775444 0.545368057032547 -9.38126208965259e-17
outer loop
vertex 0.485251819255151 0.571816228958794 0.103128763740547
vertex 0.465442139281448 0.602262471393248 0.0943500220132886
vertex 0.470339370597634 0.594735732339001 0.102725037594589
endloop
endfacet
facet normal 0.838196684775444 0.545368057032547 -9.38126208965259e-17
outer loop
vertex 0.485251819255151 0.571816228958794 0.103128763740547
vertex 0.470339370597634 0.594735732339001 0.102725037594589
vertex 0.481966050154878 0.57686625110672 0.115650426518012
endloop
endfacet
facet normal 0.838196684775444 0.545368057032547 -9.38126208965259e-17
outer loop
vertex 0.485251819255151 0.571816228958794 0.103128763740547
vertex 0.481966050154878 0.57686625110672 0.115650426518012
vertex 0.498793902115341 0.551002892328613 0.103522730288728
endloop
endfacet
facet normal 0.838196684775444 0.545368057032547 -9.38126208965259e-17
outer loop
vertex 0.498793902115341 0.551002892328613 0.103522730288728
vertex 0.481966050154878 0.57686625110672 0.115650426518012
vertex 0.510841853460511 0.532485942636317 0.105971415080495
endloop
endfacet
facet normal 0.838196684775444 0.545368057032547 -9.38126208965259e-17
outer loop
vertex 0.510841853460511 0.532485942636317 0.105971415080495
vertex 0.481966050154878 0.57686625110672 0.115650426518012
vertex 0.501788589445929 0.546400244703638 0.115301090569278
endloop
endfacet
facet normal 0.838196684775444 0.545368057032547 -9.38126208965259e-17
outer loop
vertex 0.501788589445929 0.546400244703638 0.115301090569278
vertex 0.481966050154878 0.57686625110672 0.115650426518012
vertex 0.493020926408217 0.559875595884685 0.118095769923203
endloop
endfacet
facet normal 0.838196684775444 0.545368057032547 -9.38126208965259e-17
outer loop
vertex 0.51727991161822 0.522591048840106 0.0790967137060135
vertex 0.519766221626996 0.518769745447275 0.0831688725144753
vertex 0.518999539891044 0.519948087451479 0.0629440275789121
endloop
endfacet
facet normal 0.838196684775444 0.545368057032547 -9.38126208965259e-17
outer loop
vertex 0.519766221626996 0.518769745447275 0.0831688725144753
vertex 0.51727991161822 0.522591048840106 0.0790967137060135
vertex 0.510401398526924 0.533162894394611 0.0928855923080739
endloop
endfacet
facet normal 0.838196684775444 0.545368057032547 -9.38126208965259e-17
outer loop
vertex 0.519766221626996 0.518769745447275 0.0831688725144753
vertex 0.510401398526924 0.533162894394611 0.0928855923080739
vertex 0.510841853460511 0.532485942636317 0.105971415080495
endloop
endfacet
facet normal 0.838196684775444 0.545368057032547 -9.38126208965259e-17
outer loop
vertex 0.510841853460511 0.532485942636317 0.105971415080495
vertex 0.510401398526924 0.533162894394611 0.0928855923080739
vertex 0.498793902115341 0.551002892328613 0.103522730288728
endloop
endfacet
facet normal 0.838196684775444 0.545368057032547 8.63466120811598e-16
outer loop
vertex 0.494905709459686 0.556978801903281 1.49793442085126
vertex 0.500475320057375 0.548418657834934 1.50385283860512
vertex 0.518518691285135 0.520687121764462 1.49876514793078
endloop
endfacet
facet normal 0.838196684775444 0.545368057032547 8.63466120811598e-16
outer loop
vertex 0.500475320057375 0.548418657834934 1.50385283860512
vertex 0.494905709459686 0.556978801903281 1.49793442085126
vertex 0.472176652526511 0.591911944620003 1.52604505126583
endloop
endfacet
facet normal 0.838196684775444 0.545368057032547 8.63466120811598e-16
outer loop
vertex 0.500475320057375 0.548418657834934 1.50385283860512
vertex 0.472176652526511 0.591911944620003 1.52604505126583
vertex 0.470851065056817 0.593949289873634 1.52893995158133
endloop
endfacet
facet normal 0.838196684775444 0.545368057032547 8.63466120811598e-16
outer loop
vertex 0.509930004100043 0.533887398224159 1.49134446864691
vertex 0.534571850140551 0.496014417965127 1.49230546370788
vertex 0.524055401636876 0.512177543321891 1.48969698265481
endloop
endfacet
facet normal 0.838196684775444 0.545368057032547 8.63466120811598e-16
outer loop
vertex 0.534571850140551 0.496014417965127 1.49230546370788
vertex 0.509930004100043 0.533887398224159 1.49134446864691
vertex 0.494905709459686 0.556978801903281 1.49793442085126
endloop
endfacet
facet normal 0.838196684775444 0.545368057032547 8.63466120811598e-16
outer loop
vertex 0.534571850140551 0.496014417965127 1.49230546370788
vertex 0.494905709459686 0.556978801903281 1.49793442085126
vertex 0.518518691285135 0.520687121764462 1.49876514793078
endloop
endfacet
facet normal 0.838196684775444 0.545368057032547 8.63466120811598e-16
outer loop
vertex 0.534571850140551 0.496014417965127 1.49230546370788
vertex 0.518518691285135 0.520687121764462 1.49876514793078
vertex 0.551597734845533 0.46984669521155 1.50515462070133
endloop
endfacet
facet normal 0.838196684775444 0.545368057032548 -7.36309175232413e-17
outer loop
vertex 0.634477479656627 0.342465697296689 0.770377556593397
vertex 0.640727872837916 0.332859232863098 0.768850121889883
vertex 0.636977638414481 0.338623109240381 0.766177116306201
endloop
endfacet
facet normal 0.838196684775444 0.545368057032548 -7.36309175232413e-17
outer loop
vertex 0.632289836101823 0.345827968979936 0.808181535650056
vertex 0.64708244022912 0.323092659167032 0.818491714751308
vertex 0.639790312375385 0.33430020481101 0.807990609915344
endloop
endfacet
facet normal 0.838196684775444 0.545368057032548 -7.36309175232413e-17
outer loop
vertex 0.64708244022912 0.323092659167032 0.818491714751308
vertex 0.632289836101823 0.345827968979936 0.808181535650056
vertex 0.630102199973709 0.349190229248822 0.8123819841732
endloop
endfacet
facet normal 0.838196684775444 0.545368057032548 -7.36309175232413e-17
outer loop
vertex 0.64708244022912 0.323092659167032 0.818491714751308
vertex 0.630102199973709 0.349190229248822 0.8123819841732
vertex 0.640727872837916 0.332859232863099 0.847894813233575
endloop
endfacet
facet normal 0.838196684775444 0.545368057032548 -7.36309175232413e-17
outer loop
vertex 0.64708244022912 0.323092659167032 0.818491714751308
vertex 0.640727872837916 0.332859232863099 0.847894813233575
vertex 0.657291423680364 0.307402088416847 0.862978226298056
endloop
endfacet
facet normal 0.838196684775444 0.545368057032548 -7.36309175232413e-17
outer loop
vertex 0.657291423680364 0.307402088416847 0.862978226298056
vertex 0.640727872837916 0.332859232863099 0.847894813233575
vertex 0.646353228186415 0.324213412589994 0.887417165082383
endloop
endfacet
facet normal 0.838196684775444 0.545368057032548 -7.36309175232413e-17
outer loop
vertex 0.640727872837916 0.332859232863098 0.768850121889883
vertex 0.647444372641321 0.322536391626043 0.766289520517543
vertex 0.642413657674897 0.330268286724284 0.765329069029108
endloop
endfacet
facet normal 0.838196684775444 0.545368057032548 -7.36309175232413e-17
outer loop
vertex 0.647444372641321 0.322536391626043 0.766289520517543
vertex 0.640727872837916 0.332859232863098 0.768850121889883
vertex 0.665995135472511 0.294025026311094 0.7806962599003
endloop
endfacet
facet normal 0.838196684775444 0.545368057032548 -7.36309175232413e-17
outer loop
vertex 0.665995135472511 0.294025026311094 0.7806962599003
vertex 0.640727872837916 0.332859232863098 0.768850121889883
vertex 0.634477479656627 0.342465697296689 0.770377556593397
endloop
endfacet
facet normal 0.838196684775444 0.545368057032548 -7.36309175232413e-17
outer loop
vertex 0.665995135472511 0.294025026311094 0.7806962599003
vertex 0.634477479656627 0.342465697296689 0.770377556593397
vertex 0.634998343279504 0.341665162398678 0.777251006582249
endloop
endfacet
facet normal 0.838196684775444 0.545368057032548 -7.36309175232413e-17
outer loop
vertex 0.665995135472511 0.294025026311094 0.7806962599003
vertex 0.634998343279504 0.341665162398678 0.777251006582249
vertex 0.643540554225512 0.328536317019365 0.788515830828957
endloop
endfacet
facet normal 0.838196684775444 0.545368057032548 -7.36309175232413e-17
outer loop
vertex 0.665995135472511 0.294025026311094 0.7806962599003
vertex 0.643540554225512 0.328536317019365 0.788515830828957
vertex 0.667177273423583 0.292208154019513 0.783639166099254
endloop
endfacet
facet normal 0.838196684775444 0.545368057032548 -7.36309175232413e-17
outer loop
vertex 0.667177273423583 0.292208154019513 0.783639166099254
vertex 0.643540554225512 0.328536317019365 0.788515830828957
vertex 0.682321358274854 0.268932640258472 0.821340029307214
endloop
endfacet
facet normal 0.838196684775444 0.545368057032548 -7.36309175232413e-17
outer loop
vertex 0.682321358274854 0.268932640258472 0.821340029307214
vertex 0.643540554225512 0.328536317019365 0.788515830828957
vertex 0.650936848862469 0.317168673527275 0.803026450217404
endloop
endfacet
facet normal 0.838196684775444 0.545368057032548 -7.36309175232413e-17
outer loop
vertex 0.682321358274854 0.268932640258472 0.821340029307214
vertex 0.650936848862469 0.317168673527275 0.803026450217404
vertex 0.656666378420881 0.308362743991697 0.819446359896765
endloop
endfacet
facet normal 0.838196684775444 0.545368057032548 -7.36309175232413e-17
outer loop
vertex 0.682321358274854 0.268932640258472 0.821340029307214
vertex 0.656666378420881 0.308362743991697 0.819446359896765
vertex 0.659374885598563 0.304199937410437 0.837775568102984
endloop
endfacet
facet normal 0.838196684775444 0.545368057032548 -7.36309175232413e-17
outer loop
vertex 0.682321358274854 0.268932640258472 0.821340029307214
vertex 0.659374885598563 0.304199937410437 0.837775568102984
vertex 0.685593960517806 0.263902854748926 0.829487099975882
endloop
endfacet
facet normal 0.838196684775444 0.545368057032548 -7.36309175232413e-17
outer loop
vertex 0.685593960517806 0.263902854748926 0.829487099975882
vertex 0.659374885598563 0.304199937410437 0.837775568102984
vertex 0.686639951203394 0.262295232311821 0.893717162828985
endloop
endfacet
facet normal 0.838196684775444 0.545368057032548 -7.36309175232413e-17
outer loop
vertex 0.686639951203394 0.262295232311821 0.893717162828985
vertex 0.659374885598563 0.304199937410437 0.837775568102984
vertex 0.657291423680364 0.307402088416847 0.862978226298056
endloop
endfacet
facet normal 0.838196684775444 0.545368057032548 -7.36309175232413e-17
outer loop
vertex 0.686639951203394 0.262295232311821 0.893717162828985
vertex 0.657291423680364 0.307402088416847 0.862978226298056
vertex 0.646353228186415 0.324213412589994 0.887417165082383
endloop
endfacet
facet normal 0.838196684775444 0.545368057032548 -7.36309175232413e-17
outer loop
vertex 0.686639951203394 0.262295232311821 0.893717162828985
vertex 0.646353228186415 0.324213412589994 0.887417165082383
vertex 0.650489060234122 0.317856896716956 0.898479187473679
endloop
endfacet
facet normal 0.838196684775444 0.545368057032548 -7.36309175232413e-17
outer loop
vertex 0.686639951203394 0.262295232311821 0.893717162828985
vertex 0.650489060234122 0.317856896716956 0.898479187473679
vertex 0.667555149278987 0.291627382400837 0.903885395065667
endloop
endfacet
facet normal 0.838196684775444 0.545368057032547 5.77489553140858e-17
outer loop
vertex 0.516744655066078 0.523413704772598 1.64957450484553
vertex 0.522340429899991 0.514813347905244 1.62215551200117
vertex 0.515145859073519 0.525870954483714 1.61629496001437
endloop
endfacet
facet normal 0.838196684775444 0.545368057032547 5.77489553140858e-17
outer loop
vertex 0.522340429899991 0.514813347905244 1.62215551200117
vertex 0.516744655066078 0.523413704772598 1.64957450484553
vertex 0.523254024427156 0.513409210105048 1.64203951884644
endloop
endfacet
facet normal 0.838196684775444 0.545368057032547 5.77489553140858e-17
outer loop
vertex 0.523254024427156 0.513409210105048 1.64203951884644
vertex 0.516744655066078 0.523413704772598 1.64957450484553
vertex 0.528507198528374 0.50533540919315 1.65773741595314
endloop
endfacet
facet normal 0.838196684775444 0.545368057032547 5.77489553140858e-17
outer loop
vertex 0.528507198528374 0.50533540919315 1.65773741595314
vertex 0.516744655066078 0.523413704772598 1.64957450484553
vertex 0.513640676534728 0.528184326155794 1.66274103407551
endloop
endfacet
facet normal 0.838196684775444 0.545368057032547 5.77489553140858e-17
outer loop
vertex 0.528507198528374 0.50533540919315 1.65773741595314
vertex 0.513640676534728 0.528184326155794 1.66274103407551
vertex 0.532504184796422 0.499192290622546 1.66631892732789
endloop
endfacet
facet normal 0.838196684775444 0.545368057032547 5.77489553140858e-17
outer loop
vertex 0.532504184796422 0.499192290622546 1.66631892732789
vertex 0.513640676534728 0.528184326155794 1.66274103407551
vertex 0.506752902358397 0.538770405420312 1.68088794781998
endloop
endfacet
facet normal 0.838196684775444 0.545368057032547 5.77489553140858e-17
outer loop
vertex 0.532504184796422 0.499192290622546 1.66631892732789
vertex 0.506752902358397 0.538770405420312 1.68088794781998
vertex 0.537528958409175 0.491469527014289 1.67238878768419
endloop
endfacet
facet normal 0.838196684775444 0.545368057032547 5.77489553140858e-17
outer loop
vertex 0.450858422009155 0.624676735139922 1.7402047735289
vertex 0.453979875546987 0.619879255761815 1.73078193541021
vertex 0.445900822826334 0.632296255839568 1.72640704128329
endloop
endfacet
facet normal 0.838196684775444 0.545368057032547 5.77489553140858e-17
outer loop
vertex 0.453979875546987 0.619879255761815 1.73078193541021
vertex 0.450858422009155 0.624676735139922 1.7402047735289
vertex 0.471537674792672 0.59289401353886 1.73565429723743
endloop
endfacet
facet normal 0.838196684775444 0.545368057032547 5.77489553140858e-17
outer loop
vertex 0.471537674792672 0.59289401353886 1.73565429723743
vertex 0.450858422009155 0.624676735139922 1.7402047735289
vertex 0.488717425704326 0.566489808023469 1.73713604302224
endloop
endfacet
facet normal 0.838196684775444 0.545368057032547 5.77489553140858e-17
outer loop
vertex 0.488717425704326 0.566489808023469 1.73713604302224
vertex 0.450858422009155 0.624676735139922 1.7402047735289
vertex 0.50407813464287 0.542881356552834 1.74195172505883
endloop
endfacet
facet normal 0.838196684775444 0.545368057032547 5.77489553140858e-17
outer loop
vertex 0.50407813464287 0.542881356552834 1.74195172505883
vertex 0.450858422009155 0.624676735139922 1.7402047735289
vertex 0.443881059646171 0.635400505859008 1.74626231290776
endloop
endfacet
facet normal 0.838196684775444 0.545368057032547 5.77489553140858e-17
outer loop
vertex 0.459304702373467 0.611695329080733 1.78496325253366
vertex 0.470688818740436 0.594198652341337 1.77957877949152
vertex 0.458753857194631 0.612541943760069 1.77217511567516
endloop
endfacet
facet normal 0.838196684775444 0.545368057032547 5.77489553140858e-17
outer loop
vertex 0.485561616288896 0.571340090242398 1.79876098477927
vertex 0.50025079630218 0.548763736841361 1.79337650350118
vertex 0.486296071576215 0.570211278279527 1.7890016176102
endloop
endfacet
facet normal 0.838196684775444 0.545368057032547 5.77489553140858e-17
outer loop
vertex 0.500801641481016 0.547917122162024 1.80044363003121
vertex 0.518979502675792 0.519978883401444 1.79505915698906
vertex 0.50025079630218 0.548763736841361 1.79337650350118
endloop
endfacet
facet normal 0.838196684775444 0.545368057032547 5.77489553140858e-17
outer loop
vertex 0.5404359762321 0.487001621953959 1.61880066378324
vertex 0.552988226978415 0.467709595539211 1.60651632072817
vertex 0.549212311053741 0.47351294278194 1.60174886840008
endloop
endfacet
facet normal 0.838196684775444 0.545368057032547 5.77489553140858e-17
outer loop
vertex 0.552988226978415 0.467709595539211 1.60651632072817
vertex 0.5404359762321 0.487001621953959 1.61880066378324
vertex 0.557872613830635 0.46020259762487 1.64709928142284
endloop
endfacet
facet normal 0.838196684775444 0.545368057032547 5.77489553140858e-17
outer loop
vertex 0.557872613830635 0.46020259762487 1.64709928142284
vertex 0.5404359762321 0.487001621953959 1.61880066378324
vertex 0.542211138715924 0.484273307947129 1.62278342887375
endloop
endfacet
facet normal 0.838196684775444 0.545368057032547 5.77489553140858e-17
outer loop
vertex 0.557872613830635 0.46020259762487 1.64709928142284
vertex 0.542211138715924 0.484273307947129 1.62278342887375
vertex 0.547578513061373 0.476023988383413 1.64538840334291
endloop
endfacet
facet normal 0.838196684775444 0.545368057032547 5.77489553140858e-17
outer loop
vertex 0.557872613830635 0.46020259762487 1.64709928142284
vertex 0.547578513061373 0.476023988383413 1.64538840334291
vertex 0.547578513061373 0.476023988383413 1.66108630044962
endloop
endfacet
facet normal 0.838196684775444 0.545368057032547 5.77489553140858e-17
outer loop
vertex 0.557872613830635 0.46020259762487 1.64709928142284
vertex 0.547578513061373 0.476023988383413 1.66108630044962
vertex 0.564385124682466 0.450193274681991 1.68499659847241
endloop
endfacet
facet normal 0.838196684775444 0.545368057032547 5.77489553140858e-17
outer loop
vertex 0.564385124682466 0.450193274681991 1.68499659847241
vertex 0.547578513061373 0.476023988383413 1.66108630044962
vertex 0.543467333975785 0.482342614191474 1.67092364556952
endloop
endfacet
facet normal 0.838196684775444 0.545368057032547 5.77489553140858e-17
outer loop
vertex 0.564385124682466 0.450193274681991 1.68499659847241
vertex 0.543467333975785 0.482342614191474 1.67092364556952
vertex 0.537528958409175 0.491469527014289 1.67238878768419
endloop
endfacet
facet normal 0.838196684775444 0.545368057032547 5.77489553140858e-17
outer loop
vertex 0.564385124682466 0.450193274681991 1.68499659847241
vertex 0.537528958409175 0.491469527014289 1.67238878768419
vertex 0.506752902358397 0.538770405420312 1.68088794781998
endloop
endfacet
facet normal 0.838196684775444 0.545368057032547 5.77489553140858e-17
outer loop
vertex 0.564385124682466 0.450193274681991 1.68499659847241
vertex 0.506752902358397 0.538770405420312 1.68088794781998
vertex 0.508044359552292 0.536785516271612 1.69956085858686
endloop
endfacet
facet normal 0.838196684775444 0.545368057032547 5.77489553140858e-17
outer loop
vertex 0.564385124682466 0.450193274681991 1.68499659847241
vertex 0.508044359552292 0.536785516271612 1.69956085858686
vertex 0.562268561997633 0.453446299501963 1.7267731785649
endloop
endfacet
facet normal 0.838196684775444 0.545368057032547 5.77489553140858e-17
outer loop
vertex 0.562268561997633 0.453446299501963 1.7267731785649
vertex 0.508044359552292 0.536785516271612 1.69956085858686
vertex 0.502017554362993 0.54604833990845 1.73112071287427
endloop
endfacet
facet normal 0.838196684775444 0.545368057032547 5.77489553140858e-17
outer loop
vertex 0.562268561997633 0.453446299501963 1.7267731785649
vertex 0.502017554362993 0.54604833990845 1.73112071287427
vertex 0.553315469311874 0.467206644485355 1.76376186470763
endloop
endfacet
facet normal 0.838196684775444 0.545368057032547 5.77489553140858e-17
outer loop
vertex 0.553315469311874 0.467206644485355 1.76376186470763
vertex 0.502017554362993 0.54604833990845 1.73112071287427
vertex 0.50407813464287 0.542881356552834 1.74195172505883
endloop
endfacet
facet normal 0.838196684775444 0.545368057032547 5.77489553140858e-17
outer loop
vertex 0.553315469311874 0.467206644485355 1.76376186470763
vertex 0.50407813464287 0.542881356552834 1.74195172505883
vertex 0.443881059646171 0.635400505859008 1.74626231290776
endloop
endfacet
facet normal 0.838196684775444 0.545368057032547 5.77489553140858e-17
outer loop
vertex 0.553315469311874 0.467206644485355 1.76376186470763
vertex 0.443881059646171 0.635400505859008 1.74626231290776
vertex 0.44955213151568 0.626684422144808 1.75992914769644
endloop
endfacet
facet normal 0.838196684775444 0.545368057032547 5.77489553140858e-17
outer loop
vertex 0.553315469311874 0.467206644485355 1.76376186470763
vertex 0.44955213151568 0.626684422144808 1.75992914769644
vertex 0.446451668005169 0.631449641160235 1.76275227755647
endloop
endfacet
facet normal 0.838196684775444 0.545368057032547 5.77489553140858e-17
outer loop
vertex 0.553315469311874 0.467206644485355 1.76376186470763
vertex 0.446451668005169 0.631449641160235 1.76275227755647
vertex 0.458753857194631 0.612541943760069 1.77217511567516
endloop
endfacet
facet normal 0.838196684775444 0.545368057032547 5.77489553140858e-17
outer loop
vertex 0.553315469311874 0.467206644485355 1.76376186470763
vertex 0.458753857194631 0.612541943760069 1.77217511567516
vertex 0.536606518691733 0.492887259320197 1.78731896412232
endloop
endfacet
facet normal 0.838196684775444 0.545368057032547 5.77489553140858e-17
outer loop
vertex 0.536606518691733 0.492887259320197 1.78731896412232
vertex 0.458753857194631 0.612541943760069 1.77217511567516
vertex 0.470688818740436 0.594198652341337 1.77957877949152
endloop
endfacet
facet normal 0.838196684775444 0.545368057032547 5.77489553140858e-17
outer loop
vertex 0.536606518691733 0.492887259320197 1.78731896412232
vertex 0.470688818740436 0.594198652341337 1.77957877949152
vertex 0.471790509098104 0.59250542298267 1.78799202222309
endloop
endfacet
facet normal 0.838196684775444 0.545368057032547 5.77489553140858e-17
outer loop
vertex 0.536606518691733 0.492887259320197 1.78731896412232
vertex 0.471790509098104 0.59250542298267 1.78799202222309
vertex 0.486296071576215 0.570211278279527 1.7890016176102
endloop
endfacet
facet normal 0.838196684775444 0.545368057032547 5.77489553140858e-17
outer loop
vertex 0.536606518691733 0.492887259320197 1.78731896412232
vertex 0.486296071576215 0.570211278279527 1.7890016176102
vertex 0.518979502675792 0.519978883401444 1.79505915698906
endloop
endfacet
facet normal 0.838196684775444 0.545368057032547 5.77489553140858e-17
outer loop
vertex 0.536606518691733 0.492887259320197 1.78731896412232
vertex 0.518979502675792 0.519978883401444 1.79505915698906
vertex 0.524487947037447 0.511512748022463 1.80010710098082
endloop
endfacet
facet normal 0.838196684775444 0.545368057032547 5.77489553140858e-17
outer loop
vertex 0.518979502675792 0.519978883401444 1.79505915698906
vertex 0.486296071576215 0.570211278279527 1.7890016176102
vertex 0.50025079630218 0.548763736841361 1.79337650350118
endloop
endfacet
facet normal 0.838196684775444 0.545368057032547 5.77489553140858e-17
outer loop
vertex 0.524487947037447 0.511512748022463 1.80010710098082
vertex 0.518979502675792 0.519978883401444 1.79505915698906
vertex 0.516873579205302 0.523215556412621 1.8081421715078
endloop
endfacet
facet normal 0.838196684775444 0.545368057032547 5.77489553140858e-17
outer loop
vertex 0.471537674792672 0.59289401353886 1.73565429723743
vertex 0.458996115890531 0.612169607256046 1.72362796904985
vertex 0.453979875546987 0.619879255761815 1.73078193541021
endloop
endfacet
facet normal 0.838196684775444 0.545368057032547 6.17069155655913e-17
outer loop
vertex 0.512893744404703 0.529332314247628 0.0350011461147195
vertex 0.523491002744981 0.513044989212747 0.0342748590853182
vertex 0.521759447204664 0.515706282067513 0.0231672673121405
endloop
endfacet
facet normal 0.838196684775444 0.545368057032547 6.17069155655913e-17
outer loop
vertex 0.523491002744981 0.513044989212747 0.0342748590853182
vertex 0.512893744404703 0.529332314247628 0.0350011461147195
vertex 0.522711801637835 0.514242572709545 0.0388765753240934
endloop
endfacet
facet normal 0.838196684775444 0.545368057032547 6.17069155655913e-17
outer loop
vertex 0.522711801637835 0.514242572709545 0.0388765753240934
vertex 0.512893744404703 0.529332314247628 0.0350011461147195
vertex 0.516786437635763 0.523349487569298 0.0409465942482462
endloop
endfacet
facet normal 0.838196684775444 0.545368057032547 6.17069155655913e-17
outer loop
vertex 0.522711801637835 0.514242572709545 0.0388765753240934
vertex 0.516786437635763 0.523349487569298 0.0409465942482462
vertex 0.517924771292192 0.521599939746166 0.048367215880488
endloop
endfacet
facet normal 0.838196684775444 0.545368057032547 6.17069155655913e-17
outer loop
vertex 0.522711801637835 0.514242572709545 0.0388765753240934
vertex 0.517924771292192 0.521599939746166 0.048367215880488
vertex 0.518999539891044 0.519948087451479 0.0629440275789121
endloop
endfacet
facet normal 0.838196684775444 0.545368057032547 -1.6167983949115e-16
outer loop
vertex 0.513621151761229 0.528214334514749 0.016820069660055
vertex 0.522452067935453 0.514641767208479 0.0142811905992197
vertex 0.520547359069112 0.517569185924412 0.00666456165266402
endloop
endfacet
facet normal 0.838196684775444 0.545368057032547 -1.6167983949115e-16
outer loop
vertex 0.522452067935453 0.514641767208479 0.0142811905992197
vertex 0.513621151761229 0.528214334514749 0.016820069660055
vertex 0.522073777940904 0.515223175333186 0.0191345161811203
endloop
endfacet
facet normal 0.838196684775444 0.545368057032547 -1.6167983949115e-16
outer loop
vertex 0.522073777940904 0.515223175333186 0.0191345161811203
vertex 0.513621151761229 0.528214334514749 0.016820069660055
vertex 0.507733871836183 0.537262716523717 0.0177721451898942
endloop
endfacet
facet normal 0.838196684775444 0.545368057032547 -1.6167983949115e-16
outer loop
vertex 0.522073777940904 0.515223175333186 0.0191345161811203
vertex 0.507733871836183 0.537262716523717 0.0177721451898942
vertex 0.5054828488911 0.540722398376351 0.0222151835463539
endloop
endfacet
facet normal 0.838196684775444 0.545368057032547 -1.6167983949115e-16
outer loop
vertex 0.522073777940904 0.515223175333186 0.0191345161811203
vertex 0.5054828488911 0.540722398376351 0.0222151835463539
vertex 0.521759447204664 0.515706282067513 0.0231672673121405
endloop
endfacet
facet normal 0.838196684775444 0.545368057032547 -1.6167983949115e-16
outer loop
vertex 0.521759447204664 0.515706282067513 0.0231672673121405
vertex 0.5054828488911 0.540722398376351 0.0222151835463539
vertex 0.507919761939137 0.5369770150309 0.030641159052748
endloop
endfacet
facet normal 0.838196684775444 0.545368057032547 -1.6167983949115e-16
outer loop
vertex 0.521759447204664 0.515706282067513 0.0231672673121405
vertex 0.507919761939137 0.5369770150309 0.030641159052748
vertex 0.512893744404703 0.529332314247628 0.0350011461147195
endloop
endfacet
facet normal 0.838196684775444 0.545368057032547 -4.86490531999222e-17
outer loop
vertex 0.393639521702861 0.712618615719059 0.885531811906915
vertex 0.39882695782939 0.704645849973665 0.957909249109049
vertex 0.397106475486976 0.707290124013976 0.884857877343669
endloop
endfacet
facet normal 0.838196684775444 0.545368057032547 -4.86490531999222e-17
outer loop
vertex 0.39882695782939 0.704645849973665 0.957909249109049
vertex 0.393639521702861 0.712618615719059 0.885531811906915
vertex 0.358040024371062 0.767332822498143 0.889795181234006
endloop
endfacet
facet normal 0.838196684775444 0.545368057032547 -4.86490531999222e-17
outer loop
vertex 0.39882695782939 0.704645849973665 0.957909249109049
vertex 0.358040024371062 0.767332822498143 0.889795181234006
vertex 0.352947579707751 0.775159592289934 0.89011336721217
endloop
endfacet
facet normal 0.838196684775444 0.545368057032547 -4.86490531999222e-17
outer loop
vertex 0.39882695782939 0.704645849973665 0.957909249109049
vertex 0.352947579707751 0.775159592289934 0.89011336721217
vertex 0.354825077174282 0.772273995798118 0.962146034632518
endloop
endfacet
facet normal 0.838196684775444 0.545368057032547 -4.86490531999222e-17
outer loop
vertex 0.39882695782939 0.704645849973665 0.957909249109049
vertex 0.354825077174282 0.772273995798118 0.962146034632518
vertex 0.40685584324499 0.692305953914449 1.07668342226295
endloop
endfacet
facet normal 0.838196684775444 0.545368057032547 -4.86490531999222e-17
outer loop
vertex 0.40685584324499 0.692305953914449 1.07668342226295
vertex 0.354825077174282 0.772273995798118 0.962146034632518
vertex 0.352954571346868 0.775148846576734 0.988926133938798
endloop
endfacet
facet normal 0.838196684775444 0.545368057032547 -4.86490531999222e-17
outer loop
vertex 0.40685584324499 0.692305953914449 1.07668342226295
vertex 0.352954571346868 0.775148846576734 0.988926133938798
vertex 0.352957286394308 0.775144673718176 1.02729787265506
endloop
endfacet
facet normal 0.838196684775444 0.545368057032547 -4.86490531999222e-17
outer loop
vertex 0.40685584324499 0.692305953914449 1.07668342226295
vertex 0.352957286394308 0.775144673718176 1.02729787265506
vertex 0.357949501388951 0.767471950675019 1.14772042951934
endloop
endfacet
facet normal 0.838196684775444 0.545368057032547 -4.86490531999222e-17
outer loop
vertex 0.40685584324499 0.692305953914449 1.07668342226295
vertex 0.357949501388951 0.767471950675019 1.14772042951934
vertex 0.413859310430661 0.681542061711257 1.18392757366096
endloop
endfacet
facet normal 0.838196684775444 0.545368057032547 -4.86490531999222e-17
outer loop
vertex 0.413859310430661 0.681542061711257 1.18392757366096
vertex 0.357949501388951 0.767471950675019 1.14772042951934
vertex 0.36138606204537 0.762190171311348 1.19001603902265
endloop
endfacet
facet normal 0.838196684775444 0.545368057032547 -4.86490531999222e-17
outer loop
vertex 0.413859310430661 0.681542061711257 1.18392757366096
vertex 0.36138606204537 0.762190171311348 1.19001603902265
vertex 0.425143053177791 0.664199652964462 1.23792174753932
endloop
endfacet
facet normal 0.838196684775444 0.545368057032547 -4.86490531999222e-17
outer loop
vertex 0.425143053177791 0.664199652964462 1.23792174753932
vertex 0.36138606204537 0.762190171311348 1.19001603902265
vertex 0.417449648173449 0.676023936558119 1.24000861090433
endloop
endfacet
facet normal 0.838196684775444 0.545368057032547 -4.86490531999222e-17
outer loop
vertex 0.417449648173449 0.676023936558119 1.24000861090433
vertex 0.36138606204537 0.762190171311348 1.19001603902265
vertex 0.371493875398455 0.74665509269126 1.27211912411358
endloop
endfacet
facet normal 0.838196684775447 0.545368057032543 -4.27762540796432e-15
outer loop
vertex 0.682321358274854 0.268932640258472 0.821340029307214
vertex 0.670292204661054 0.287420699010215 0.7858826913491
vertex 0.667177273423583 0.292208154019513 0.783639166099254
endloop
endfacet
facet normal 0.838196684775447 0.545368057032543 -4.27762540796432e-15
outer loop
vertex 0.670292204661054 0.287420699010215 0.7858826913491
vertex 0.682321358274854 0.268932640258472 0.821340029307214
vertex 0.681506502286746 0.270185023083233 0.811238562875326
endloop
endfacet
facet normal 0.838196684775444 0.545368057032547 -1.80874147421876e-18
outer loop
vertex 0.483492131405205 0.574520759418627 0.00222152329620431
vertex 0.513967458413277 0.527682082792414 0.00222152329620431
vertex 0.499249262314005 0.550303032107654 1.02223784992361e-17
endloop
endfacet
facet normal 0.838196684775444 0.545368057032547 -1.80874147421876e-18
outer loop
vertex 0.513967458413277 0.527682082792414 0.00222152329620431
vertex 0.483492131405205 0.574520759418627 0.00222152329620431
vertex 0.469639709362746 0.595811068013664 0.0234846230767716
endloop
endfacet
facet normal 0.838196684775444 0.545368057032547 -1.80874147421876e-18
outer loop
vertex 0.513967458413277 0.527682082792414 0.00222152329620431
vertex 0.469639709362746 0.595811068013664 0.0234846230767716
vertex 0.520547359069112 0.517569185924412 0.00666456165266402
endloop
endfacet
facet normal 0.838196684775444 0.545368057032547 -1.80874147421876e-18
outer loop
vertex 0.520547359069112 0.517569185924412 0.00666456165266402
vertex 0.469639709362746 0.595811068013664 0.0234846230767716
vertex 0.513621151761229 0.528214334514749 0.016820069660055
endloop
endfacet
facet normal 0.838196684775444 0.545368057032547 -1.80874147421876e-18
outer loop
vertex 0.513621151761229 0.528214334514749 0.016820069660055
vertex 0.469639709362746 0.595811068013664 0.0234846230767716
vertex 0.507733871836183 0.537262716523717 0.0177721451898942
endloop
endfacet
facet normal 0.838196684775444 0.545368057032547 -1.80874147421876e-18
outer loop
vertex 0.507733871836183 0.537262716523717 0.0177721451898942
vertex 0.469639709362746 0.595811068013664 0.0234846230767716
vertex 0.5054828488911 0.540722398376351 0.0222151835463539
endloop
endfacet
facet normal 0.838196684775444 0.545368057032547 -1.80874147421876e-18
outer loop
vertex 0.5054828488911 0.540722398376351 0.0222151835463539
vertex 0.469639709362746 0.595811068013664 0.0234846230767716
vertex 0.507919761939137 0.5369770150309 0.030641159052748
endloop
endfacet
facet normal 0.838196684775444 0.545368057032547 -1.80874147421876e-18
outer loop
vertex 0.507919761939137 0.5369770150309 0.030641159052748
vertex 0.469639709362746 0.595811068013664 0.0234846230767716
vertex 0.461177008582229 0.608817711228291 0.0511249899537101
endloop
endfacet
facet normal 0.838196684775444 0.545368057032547 -1.80874147421876e-18
outer loop
vertex 0.507919761939137 0.5369770150309 0.030641159052748
vertex 0.461177008582229 0.608817711228291 0.0511249899537101
vertex 0.512893744404703 0.529332314247628 0.0350011461147195
endloop
endfacet
facet normal 0.838196684775444 0.545368057032547 -1.80874147421876e-18
outer loop
vertex 0.512893744404703 0.529332314247628 0.0350011461147195
vertex 0.461177008582229 0.608817711228291 0.0511249899537101
vertex 0.516786437635763 0.523349487569298 0.0409465942482462
endloop
endfacet
facet normal 0.838196684775444 0.545368057032547 -1.80874147421876e-18
outer loop
vertex 0.516786437635763 0.523349487569298 0.0409465942482462
vertex 0.461177008582229 0.608817711228291 0.0511249899537101
vertex 0.517924771292192 0.521599939746166 0.048367215880488
endloop
endfacet
facet normal 0.838196684775444 0.545368057032547 -1.80874147421876e-18
outer loop
vertex 0.517924771292192 0.521599939746166 0.048367215880488
vertex 0.461177008582229 0.608817711228291 0.0511249899537101
vertex 0.514485514746545 0.526885862523418 0.062550061030731
endloop
endfacet
facet normal 0.838196684775444 0.545368057032547 -1.80874147421876e-18
outer loop
vertex 0.514485514746545 0.526885862523418 0.062550061030731
vertex 0.461177008582229 0.608817711228291 0.0511249899537101
vertex 0.470420017047013 0.594611783776857 0.0684595757253575
endloop
endfacet
facet normal 0.838196684775444 0.545368057032547 -1.80874147421876e-18
outer loop
vertex 0.514485514746545 0.526885862523418 0.062550061030731
vertex 0.470420017047013 0.594611783776857 0.0684595757253575
vertex 0.504597646607787 0.542082899068792 0.0751570317522965
endloop
endfacet
facet normal 0.838196684775444 0.545368057032547 -1.80874147421876e-18
outer loop
vertex 0.504597646607787 0.542082899068792 0.0751570317522965
vertex 0.470420017047013 0.594611783776857 0.0684595757253575
vertex 0.480092934436679 0.579745113124673 0.075944973084609
endloop
endfacet
facet normal 0.838196684775444 0.545368057032547 -1.80874147421876e-18
outer loop
vertex 0.504597646607787 0.542082899068792 0.0751570317522965
vertex 0.480092934436679 0.579745113124673 0.075944973084609
vertex 0.492990150196205 0.559922897002795 0.079490680254196
endloop
endfacet
facet normal 0.838196684775444 0.545368057032547 0.0
outer loop
vertex 0.513967458413277 0.527682082792414 0.00222152329620431
vertex 0.544857751962991 0.480205628476415 1.40998324127395e-18
vertex 0.522740096785321 0.514199084832849 -7.04991620636974e-18
endloop
endfacet
facet normal 0.838196684775444 0.545368057032547 0.0
outer loop
vertex 0.544857751962991 0.480205628476415 1.40998324127395e-18
vertex 0.513967458413277 0.527682082792414 0.00222152329620431
vertex 0.550209641534194 0.471980108044809 0.0169770623662925
endloop
endfacet
facet normal 0.838196684775444 0.545368057032547 0.0
outer loop
vertex 0.550209641534194 0.471980108044809 0.0169770623662925
vertex 0.513967458413277 0.527682082792414 0.00222152329620431
vertex 0.520547359069112 0.517569185924412 0.00666456165266402
endloop
endfacet
facet normal 0.838196684775444 0.545368057032547 0.0
outer loop
vertex 0.550209641534194 0.471980108044809 0.0169770623662925
vertex 0.520547359069112 0.517569185924412 0.00666456165266402
vertex 0.522452067935453 0.514641767208479 0.0142811905992197
endloop
endfacet
facet normal 0.838196684775444 0.545368057032547 0.0
outer loop
vertex 0.550209641534194 0.471980108044809 0.0169770623662925
vertex 0.522452067935453 0.514641767208479 0.0142811905992197
vertex 0.522073777940904 0.515223175333186 0.0191345161811203
endloop
endfacet
facet normal 0.838196684775444 0.545368057032547 0.0
outer loop
vertex 0.550209641534194 0.471980108044809 0.0169770623662925
vertex 0.522073777940904 0.515223175333186 0.0191345161811203
vertex 0.540804196460067 0.486435690432357 0.0204950885163664
endloop
endfacet
facet normal 0.838196684775444 0.545368057032547 -1.17911116078778e-16
outer loop
vertex 0.45650076962915 0.616004798805469 1.63250648375034
vertex 0.515145859073519 0.525870954483714 1.61629496001437
vertex 0.449908613175291 0.626136532070543 1.60316116614048
endloop
endfacet
facet normal 0.838196684775444 0.545368057032547 -1.17911116078778e-16
outer loop
vertex 0.515145859073519 0.525870954483714 1.61629496001437
vertex 0.45650076962915 0.616004798805469 1.63250648375034
vertex 0.516744655066078 0.523413704772598 1.64957450484553
endloop
endfacet
facet normal 0.838196684775444 0.545368057032547 -1.17911116078778e-16
outer loop
vertex 0.516744655066078 0.523413704772598 1.64957450484553
vertex 0.45650076962915 0.616004798805469 1.63250648375034
vertex 0.456903712235059 0.615385501154877 1.64698133441884
endloop
endfacet
facet normal 0.838196684775444 0.545368057032547 -1.17911116078778e-16
outer loop
vertex 0.516744655066078 0.523413704772598 1.64957450484553
vertex 0.456903712235059 0.615385501154877 1.64698133441884
vertex 0.451101356534035 0.624303359928913 1.66455793350748
endloop
endfacet
facet normal 0.838196684775444 0.545368057032547 -1.17911116078778e-16
outer loop
vertex 0.516744655066078 0.523413704772598 1.64957450484553
vertex 0.451101356534035 0.624303359928913 1.66455793350748
vertex 0.513640676534728 0.528184326155794 1.66274103407551
endloop
endfacet
facet normal 0.838196684775444 0.545368057032547 -1.17911116078778e-16
outer loop
vertex 0.513640676534728 0.528184326155794 1.66274103407551
vertex 0.451101356534035 0.624303359928913 1.66455793350748
vertex 0.506752902358397 0.538770405420312 1.68088794781998
endloop
endfacet
facet normal 0.838196684775444 0.545368057032547 -1.17911116078778e-16
outer loop
vertex 0.506752902358397 0.538770405420312 1.68088794781998
vertex 0.451101356534035 0.624303359928913 1.66455793350748
vertex 0.454163708456233 0.619596716047405 1.6898150560233
endloop
endfacet
facet normal 0.838196684775444 0.545368057032547 -1.17911116078778e-16
outer loop
vertex 0.506752902358397 0.538770405420312 1.68088794781998
vertex 0.454163708456233 0.619596716047405 1.6898150560233
vertex 0.508044359552292 0.536785516271612 1.69956085858686
endloop
endfacet
facet normal 0.838196684775444 0.545368057032547 -1.17911116078778e-16
outer loop
vertex 0.508044359552292 0.536785516271612 1.69956085858686
vertex 0.454163708456233 0.619596716047405 1.6898150560233
vertex 0.455857001678915 0.616994229988124 1.71416273227349
endloop
endfacet
facet normal 0.838196684775444 0.545368057032547 -1.17911116078778e-16
outer loop
vertex 0.508044359552292 0.536785516271612 1.69956085858686
vertex 0.455857001678915 0.616994229988124 1.71416273227349
vertex 0.502017554362993 0.54604833990845 1.73112071287427
endloop
endfacet
facet normal 0.838196684775444 0.545368057032547 -1.17911116078778e-16
outer loop
vertex 0.502017554362993 0.54604833990845 1.73112071287427
vertex 0.455857001678915 0.616994229988124 1.71416273227349
vertex 0.458996115890531 0.612169607256046 1.72362796904985
endloop
endfacet
facet normal 0.838196684775444 0.545368057032547 -1.17911116078778e-16
outer loop
vertex 0.502017554362993 0.54604833990845 1.73112071287427
vertex 0.458996115890531 0.612169607256046 1.72362796904985
vertex 0.471537674792672 0.59289401353886 1.73565429723743
endloop
endfacet
facet normal 0.838196684775444 0.545368057032547 -1.17911116078778e-16
outer loop
vertex 0.502017554362993 0.54604833990845 1.73112071287427
vertex 0.471537674792672 0.59289401353886 1.73565429723743
vertex 0.488717425704326 0.566489808023469 1.73713604302224
endloop
endfacet
facet normal 0.838196684775444 0.545368057032547 -1.17911116078778e-16
outer loop
vertex 0.502017554362993 0.54604833990845 1.73112071287427
vertex 0.488717425704326 0.566489808023469 1.73713604302224
vertex 0.50407813464287 0.542881356552834 1.74195172505883
endloop
endfacet
facet normal 0.838196684775444 0.545368057032547 -1.17911116078778e-16
outer loop
vertex 0.500475320057375 0.548418657834934 1.50385283860512
vertex 0.551597734845533 0.46984669521155 1.50515462070133
vertex 0.518518691285135 0.520687121764462 1.49876514793078
endloop
endfacet
facet normal 0.838196684775444 0.545368057032547 -1.17911116078778e-16
outer loop
vertex 0.551597734845533 0.46984669521155 1.50515462070133
vertex 0.500475320057375 0.548418657834934 1.50385283860512
vertex 0.470851065056817 0.593949289873634 1.52893995158133
endloop
endfacet
facet normal 0.838196684775444 0.545368057032547 -1.17911116078778e-16
outer loop
vertex 0.551597734845533 0.46984669521155 1.50515462070133
vertex 0.470851065056817 0.593949289873634 1.52893995158133
vertex 0.564216917533373 0.450451798577748 1.5297515908461
endloop
endfacet
facet normal 0.838196684775444 0.545368057032547 -1.17911116078778e-16
outer loop
vertex 0.564216917533373 0.450451798577748 1.5297515908461
vertex 0.470851065056817 0.593949289873634 1.52893995158133
vertex 0.467978057287631 0.598364923602843 1.53521420453526
endloop
endfacet
facet normal 0.838196684775444 0.545368057032547 -1.17911116078778e-16
outer loop
vertex 0.564216917533373 0.450451798577748 1.5297515908461
vertex 0.467978057287631 0.598364923602843 1.53521420453526
vertex 0.563616001596484 0.451375368888907 1.53746108833655
endloop
endfacet
facet normal 0.838196684775444 0.545368057032547 -1.17911116078778e-16
outer loop
vertex 0.563616001596484 0.451375368888907 1.53746108833655
vertex 0.467978057287631 0.598364923602843 1.53521420453526
vertex 0.469452749816131 0.596098413174678 1.53569556474502
endloop
endfacet
facet normal 0.838196684775444 0.545368057032547 -1.17911116078778e-16
outer loop
vertex 0.563616001596484 0.451375368888907 1.53746108833655
vertex 0.469452749816131 0.596098413174678 1.53569556474502
vertex 0.466719444913569 0.60029933231225 1.54210534736209
endloop
endfacet
facet normal 0.838196684775444 0.545368057032547 -1.17911116078778e-16
outer loop
vertex 0.563616001596484 0.451375368888907 1.53746108833655
vertex 0.466719444913569 0.60029933231225 1.54210534736209
vertex 0.558808696381442 0.458763897135091 1.54553770318637
endloop
endfacet
facet normal 0.838196684775444 0.545368057032547 -1.17911116078778e-16
outer loop
vertex 0.558808696381442 0.458763897135091 1.54553770318637
vertex 0.466719444913569 0.60029933231225 1.54210534736209
vertex 0.46686348560661 0.600077950751994 1.55586334116106
endloop
endfacet
facet normal 0.838196684775444 0.545368057032547 -1.17911116078778e-16
outer loop
vertex 0.558808696381442 0.458763897135091 1.54553770318637
vertex 0.46686348560661 0.600077950751994 1.55586334116106
vertex 0.55324722543828 0.467311531062164 1.55645323266408
endloop
endfacet
facet normal 0.838196684775444 0.545368057032547 -1.17911116078778e-16
outer loop
vertex 0.55324722543828 0.467311531062164 1.55645323266408
vertex 0.46686348560661 0.600077950751994 1.55586334116106
vertex 0.461525209040759 0.608282548843524 1.58158782075315
endloop
endfacet
facet normal 0.838196684775444 0.545368057032547 -1.17911116078778e-16
outer loop
vertex 0.55324722543828 0.467311531062164 1.55645323266408
vertex 0.461525209040759 0.608282548843524 1.58158782075315
vertex 0.549212311053741 0.47351294278194 1.60174886840008
endloop
endfacet
facet normal 0.838196684775444 0.545368057032547 -1.17911116078778e-16
outer loop
vertex 0.549212311053741 0.47351294278194 1.60174886840008
vertex 0.461525209040759 0.608282548843524 1.58158782075315
vertex 0.460762109002059 0.609455386002471 1.59333618571294
endloop
endfacet
facet normal 0.838196684775444 0.545368057032547 -1.17911116078778e-16
outer loop
vertex 0.549212311053741 0.47351294278194 1.60174886840008
vertex 0.460762109002059 0.609455386002471 1.59333618571294
vertex 0.450530624247893 0.625180539851664 1.59691701451239
endloop
endfacet
facet normal 0.838196684775444 0.545368057032547 -1.17911116078778e-16
outer loop
vertex 0.549212311053741 0.47351294278194 1.60174886840008
vertex 0.450530624247893 0.625180539851664 1.59691701451239
vertex 0.449908613175291 0.626136532070543 1.60316116614048
endloop
endfacet
facet normal 0.838196684775444 0.545368057032547 -1.17911116078778e-16
outer loop
vertex 0.549212311053741 0.47351294278194 1.60174886840008
vertex 0.449908613175291 0.626136532070543 1.60316116614048
vertex 0.5404359762321 0.487001621953959 1.61880066378324
endloop
endfacet
facet normal 0.838196684775444 0.545368057032547 -1.17911116078778e-16
outer loop
vertex 0.5404359762321 0.487001621953959 1.61880066378324
vertex 0.449908613175291 0.626136532070543 1.60316116614048
vertex 0.515145859073519 0.525870954483714 1.61629496001437
endloop
endfacet
facet normal 0.838196684775444 0.545368057032547 -1.17911116078778e-16
outer loop
vertex 0.5404359762321 0.487001621953959 1.61880066378324
vertex 0.515145859073519 0.525870954483714 1.61629496001437
vertex 0.522340429899991 0.514813347905244 1.62215551200117
endloop
endfacet
facet normal 0.838196684775444 0.545368057032547 -1.17911116078778e-16
outer loop
vertex 0.5404359762321 0.487001621953959 1.61880066378324
vertex 0.522340429899991 0.514813347905244 1.62215551200117
vertex 0.542211138715924 0.484273307947129 1.62278342887375
endloop
endfacet
facet normal 0.838196684775444 0.545368057032547 -1.17911116078778e-16
outer loop
vertex 0.542211138715924 0.484273307947129 1.62278342887375
vertex 0.522340429899991 0.514813347905244 1.62215551200117
vertex 0.523254024427156 0.513409210105048 1.64203951884644
endloop
endfacet
facet normal 0.838196684775444 0.545368057032547 -1.17911116078778e-16
outer loop
vertex 0.542211138715924 0.484273307947129 1.62278342887375
vertex 0.523254024427156 0.513409210105048 1.64203951884644
vertex 0.547578513061373 0.476023988383413 1.64538840334291
endloop
endfacet
facet normal 0.838196684775444 0.545368057032547 -1.17911116078778e-16
outer loop
vertex 0.547578513061373 0.476023988383413 1.64538840334291
vertex 0.523254024427156 0.513409210105048 1.64203951884644
vertex 0.528507198528374 0.50533540919315 1.65773741595314
endloop
endfacet
facet normal 0.838196684775444 0.545368057032547 -1.17911116078778e-16
outer loop
vertex 0.547578513061373 0.476023988383413 1.64538840334291
vertex 0.528507198528374 0.50533540919315 1.65773741595314
vertex 0.547578513061373 0.476023988383413 1.66108630044962
endloop
endfacet
facet normal 0.838196684775444 0.545368057032547 -1.17911116078778e-16
outer loop
vertex 0.547578513061373 0.476023988383413 1.66108630044962
vertex 0.528507198528374 0.50533540919315 1.65773741595314
vertex 0.532504184796422 0.499192290622546 1.66631892732789
endloop
endfacet
facet normal 0.838196684775444 0.545368057032547 -1.17911116078778e-16
outer loop
vertex 0.547578513061373 0.476023988383413 1.66108630044962
vertex 0.532504184796422 0.499192290622546 1.66631892732789
vertex 0.543467333975785 0.482342614191474 1.67092364556952
endloop
endfacet
facet normal 0.838196684775444 0.545368057032547 -1.17911116078778e-16
outer loop
vertex 0.543467333975785 0.482342614191474 1.67092364556952
vertex 0.532504184796422 0.499192290622546 1.66631892732789
vertex 0.537528958409175 0.491469527014289 1.67238878768419
endloop
endfacet
facet normal 0.838196684775444 0.545368057032548 -2.89803903898878e-16
outer loop
vertex 0.388898064019097 0.719905940417096 0.7562136280089
vertex 0.392408899647528 0.714510005054554 0.765609486569245
vertex 0.390223781168033 0.717868395854558 0.753845102691587
endloop
endfacet
facet normal 0.838196684775444 0.545368057032548 -2.89803903898878e-16
outer loop
vertex 0.392408899647528 0.714510005054554 0.765609486569245
vertex 0.388898064019097 0.719905940417096 0.7562136280089
vertex 0.385934866487404 0.724460190185435 0.756543001426558
endloop
endfacet
facet normal 0.838196684775444 0.545368057032548 -2.89803903898878e-16
outer loop
vertex 0.392408899647528 0.714510005054554 0.765609486569245
vertex 0.385934866487404 0.724460190185435 0.756543001426558
vertex 0.369124630640572 0.750296474095747 0.778687594666975
endloop
endfacet
facet normal 0.838196684775444 0.545368057032548 -2.89803903898878e-16
outer loop
vertex 0.392408899647528 0.714510005054554 0.765609486569245
vertex 0.369124630640572 0.750296474095747 0.778687594666975
vertex 0.384351272933549 0.726894074696558 0.785633965734903
endloop
endfacet
facet normal 0.838196684775444 0.545368057032548 -2.89803903898878e-16
outer loop
vertex 0.384351272933549 0.726894074696558 0.785633965734903
vertex 0.369124630640572 0.750296474095747 0.778687594666975
vertex 0.355728979868273 0.770884753740956 0.827630355029955
endloop
endfacet
facet normal 0.838196684775444 0.545368057032548 -2.89803903898878e-16
outer loop
vertex 0.384351272933549 0.726894074696558 0.785633965734903
vertex 0.355728979868273 0.770884753740956 0.827630355029955
vertex 0.38025417485616 0.733191058873361 0.807911190673699
endloop
endfacet
facet normal 0.838196684775444 0.545368057032548 -2.89803903898878e-16
outer loop
vertex 0.38025417485616 0.733191058873361 0.807911190673699
vertex 0.355728979868273 0.770884753740956 0.827630355029955
vertex 0.380800460046052 0.732351452612588 0.826183529662499
endloop
endfacet
facet normal 0.838196684775444 0.545368057032548 -2.89803903898878e-16
outer loop
vertex 0.380800460046052 0.732351452612588 0.826183529662499
vertex 0.355728979868273 0.770884753740956 0.827630355029955
vertex 0.384214703492749 0.727103973408161 0.848210455921129
endloop
endfacet
facet normal 0.838196684775444 0.545368057032548 -2.89803903898878e-16
outer loop
vertex 0.384214703492749 0.727103973408161 0.848210455921129
vertex 0.355728979868273 0.770884753740956 0.827630355029955
vertex 0.354870231462176 0.772204596474253 0.865809275596096
endloop
endfacet
facet normal 0.838196684775444 0.545368057032548 -2.89803903898878e-16
outer loop
vertex 0.391179774680328 0.716399093458976 0.78938855300473
vertex 0.398008269000413 0.705904123635758 0.788387325340271
vertex 0.395550011639318 0.709682311858967 0.785884272651018
endloop
endfacet
facet normal 0.838196684775444 0.545368057032548 -2.89803903898878e-16
outer loop
vertex 0.398008269000413 0.705904123635758 0.788387325340271
vertex 0.391179774680328 0.716399093458976 0.78938855300473
vertex 0.399100831953506 0.704224922528576 0.820176188383588
endloop
endfacet
facet normal 0.838196684775444 0.545368057032548 -2.89803903898878e-16
outer loop
vertex 0.399100831953506 0.704224922528576 0.820176188383588
vertex 0.391179774680328 0.716399093458976 0.78938855300473
vertex 0.387492384925339 0.722066381500971 0.811165172347244
endloop
endfacet
facet normal 0.838196684775444 0.545368057032548 -2.89803903898878e-16
outer loop
vertex 0.399100831953506 0.704224922528576 0.820176188383588
vertex 0.387492384925339 0.722066381500971 0.811165172347244
vertex 0.387628954366138 0.721856482789371 0.825432608914154
endloop
endfacet
facet normal 0.838196684775444 0.545368057032548 -2.89803903898878e-16
outer loop
vertex 0.399100831953506 0.704224922528576 0.820176188383588
vertex 0.387628954366138 0.721856482789371 0.825432608914154
vertex 0.397325421796413 0.70695361719377 0.871238601608269
endloop
endfacet
facet normal 0.838196684775444 0.545368057032548 -2.89803903898878e-16
outer loop
vertex 0.397325421796413 0.70695361719377 0.871238601608269
vertex 0.387628954366138 0.721856482789371 0.825432608914154
vertex 0.384214703492749 0.727103973408161 0.848210455921129
endloop
endfacet
facet normal 0.838196684775444 0.545368057032548 -2.89803903898878e-16
outer loop
vertex 0.397325421796413 0.70695361719377 0.871238601608269
vertex 0.384214703492749 0.727103973408161 0.848210455921129
vertex 0.354870231462176 0.772204596474253 0.865809275596096
endloop
endfacet
facet normal 0.838196684775444 0.545368057032548 -2.89803903898878e-16
outer loop
vertex 0.397325421796413 0.70695361719377 0.871238601608269
vertex 0.354870231462176 0.772204596474253 0.865809275596096
vertex 0.358040024371062 0.767332822498143 0.889795181234006
endloop
endfacet
facet normal 0.838196684775444 0.545368057032548 -2.89803903898878e-16
outer loop
vertex 0.397325421796413 0.70695361719377 0.871238601608269
vertex 0.358040024371062 0.767332822498143 0.889795181234006
vertex 0.393639521702861 0.712618615719059 0.885531811906915
endloop
endfacet
facet normal 0.838196684775444 0.545368057032547 -5.92212055564183e-17
outer loop
vertex 0.459261582999206 0.611761600869279 0.0577452833886163
vertex 0.470420017047013 0.594611783776857 0.0684595757253575
vertex 0.461177008582229 0.608817711228291 0.0511249899537101
endloop
endfacet
facet normal 0.838196684775444 0.545368057032547 -5.92212055564183e-17
outer loop
vertex 0.470420017047013 0.594611783776857 0.0684595757253575
vertex 0.459261582999206 0.611761600869279 0.0577452833886163
vertex 0.463326545779932 0.605514006638917 0.080278621586507
endloop
endfacet
facet normal 0.838196684775444 0.545368057032547 -5.92212055564183e-17
outer loop
vertex 0.470420017047013 0.594611783776857 0.0684595757253575
vertex 0.463326545779932 0.605514006638917 0.080278621586507
vertex 0.480092934436679 0.579745113124673 0.075944973084609
endloop
endfacet
facet normal 0.838196684775444 0.545368057032547 -5.92212055564183e-17
outer loop
vertex 0.480092934436679 0.579745113124673 0.075944973084609
vertex 0.463326545779932 0.605514006638917 0.080278621586507
vertex 0.492990150196205 0.559922897002795 0.079490680254196
endloop
endfacet
facet normal 0.838196684775444 0.545368057032547 -5.92212055564183e-17
outer loop
vertex 0.514485514746545 0.526885862523418 0.062550061030731
vertex 0.518999539891044 0.519948087451479 0.0629440275789121
vertex 0.517924771292192 0.521599939746166 0.048367215880488
endloop
endfacet
facet normal 0.838196684775444 0.545368057032547 -5.92212055564183e-17
outer loop
vertex 0.518999539891044 0.519948087451479 0.0629440275789121
vertex 0.514485514746545 0.526885862523418 0.062550061030731
vertex 0.504597646607787 0.542082899068792 0.0751570317522965
endloop
endfacet
facet normal 0.838196684775444 0.545368057032547 -5.92212055564183e-17
outer loop
vertex 0.518999539891044 0.519948087451479 0.0629440275789121
vertex 0.504597646607787 0.542082899068792 0.0751570317522965
vertex 0.51727991161822 0.522591048840106 0.0790967137060135
endloop
endfacet
facet normal 0.838196684775444 0.545368057032547 -5.92212055564183e-17
outer loop
vertex 0.51727991161822 0.522591048840106 0.0790967137060135
vertex 0.504597646607787 0.542082899068792 0.0751570317522965
vertex 0.492990150196205 0.559922897002795 0.079490680254196
endloop
endfacet
facet normal 0.838196684775444 0.545368057032547 -5.92212055564183e-17
outer loop
vertex 0.51727991161822 0.522591048840106 0.0790967137060135
vertex 0.492990150196205 0.559922897002795 0.079490680254196
vertex 0.510401398526924 0.533162894394611 0.0928855923080739
endloop
endfacet
facet normal 0.838196684775444 0.545368057032547 -5.92212055564183e-17
outer loop
vertex 0.510401398526924 0.533162894394611 0.0928855923080739
vertex 0.492990150196205 0.559922897002795 0.079490680254196
vertex 0.463326545779932 0.605514006638917 0.080278621586507
endloop
endfacet
facet normal 0.838196684775444 0.545368057032547 -5.92212055564183e-17
outer loop
vertex 0.510401398526924 0.533162894394611 0.0928855923080739
vertex 0.463326545779932 0.605514006638917 0.080278621586507
vertex 0.471709736394958 0.592629565588978 0.093673533640385
endloop
endfacet
facet normal 0.838196684775444 0.545368057032547 -5.92212055564183e-17
outer loop
vertex 0.510401398526924 0.533162894394611 0.0928855923080739
vertex 0.471709736394958 0.592629565588978 0.093673533640385
vertex 0.498793902115341 0.551002892328613 0.103522730288728
endloop
endfacet
facet normal 0.838196684775444 0.545368057032547 -5.92212055564183e-17
outer loop
vertex 0.498793902115341 0.551002892328613 0.103522730288728
vertex 0.471709736394958 0.592629565588978 0.093673533640385
vertex 0.485251819255151 0.571816228958794 0.103128763740547
endloop
endfacet
facet normal 0.838196684775444 0.545368057032547 0.0
outer loop
vertex 0.521759447204664 0.515706282067513 0.0231672673121405
vertex 0.540804196460067 0.486435690432357 0.0204950885163664
vertex 0.522073777940904 0.515223175333186 0.0191345161811203
endloop
endfacet
facet normal 0.838196684775444 0.545368057032547 0.0
outer loop
vertex 0.540804196460067 0.486435690432357 0.0204950885163664
vertex 0.547009732421147 0.476898168748131 0.03678239120519
vertex 0.550209641534194 0.471980108044809 0.0169770623662925
endloop
endfacet
facet normal 0.838196684775444 0.545368057032547 0.0
outer loop
vertex 0.547009732421147 0.476898168748131 0.03678239120519
vertex 0.540804196460067 0.486435690432357 0.0204950885163664
vertex 0.521759447204664 0.515706282067513 0.0231672673121405
endloop
endfacet
facet normal 0.838196684775444 0.545368057032547 0.0
outer loop
vertex 0.547009732421147 0.476898168748131 0.03678239120519
vertex 0.521759447204664 0.515706282067513 0.0231672673121405
vertex 0.52508613737834 0.510593366782334 0.0255753348189918
endloop
endfacet
facet normal 0.838196684775444 0.545368057032547 0.0
outer loop
vertex 0.547009732421147 0.476898168748131 0.03678239120519
vertex 0.52508613737834 0.510593366782334 0.0255753348189918
vertex 0.527265335057577 0.507244075883 0.0458527829614342
endloop
endfacet
facet normal 0.838196684775444 0.545368057032547 0.0
outer loop
vertex 0.547009732421147 0.476898168748131 0.03678239120519
vertex 0.527265335057577 0.507244075883 0.0458527829614342
vertex 0.537006328987695 0.492272775834608 0.0520609514328567
endloop
endfacet
facet normal 0.838196684775444 0.545368057032547 0.0
outer loop
vertex 0.537006328987695 0.492272775834608 0.0520609514328567
vertex 0.527265335057577 0.507244075883 0.0458527829614342
vertex 0.528165720147037 0.50586024016458 0.0542308718946762
endloop
endfacet
facet normal 0.838196684775444 0.545368057032547 -5.87016477119562e-17
outer loop
vertex 0.415201076036758 0.679479851671132 0.993608012919959
vertex 0.416664481298081 0.677230689068544 0.906465187941815
vertex 0.411768409256275 0.68475564639038 0.905777509734517
endloop
endfacet
facet normal 0.838196684775444 0.545368057032547 -5.87016477119562e-17
outer loop
vertex 0.416664481298081 0.677230689068544 0.906465187941815
vertex 0.415201076036758 0.679479851671132 0.993608012919959
vertex 0.42973211949542 0.65714654429033 0.908300604155558
endloop
endfacet
facet normal 0.838196684775444 0.545368057032547 -5.87016477119562e-17
outer loop
vertex 0.42973211949542 0.65714654429033 0.908300604155558
vertex 0.415201076036758 0.679479851671132 0.993608012919959
vertex 0.612147949051001 0.376784792969561 0.927363182306021
endloop
endfacet
facet normal 0.838196684775444 0.545368057032547 -5.87016477119562e-17
outer loop
vertex 0.612147949051001 0.376784792969561 0.927363182306021
vertex 0.415201076036758 0.679479851671132 0.993608012919959
vertex 0.605177300417664 0.387498245104966 1.0870611855493
endloop
endfacet
facet normal 0.838196684775444 0.545368057032547 -5.87016477119562e-17
outer loop
vertex 0.605177300417664 0.387498245104966 1.0870611855493
vertex 0.415201076036758 0.679479851671132 0.993608012919959
vertex 0.421899551258465 0.66918471309181 1.13744505553218
endloop
endfacet
facet normal 0.838196684775444 0.545368057032547 -5.87016477119562e-17
outer loop
vertex 0.605177300417664 0.387498245104966 1.0870611855493
vertex 0.421899551258465 0.66918471309181 1.13744505553218
vertex 0.607626174432728 0.383734478499294 1.25509831067713
endloop
endfacet
facet normal 0.838196684775444 0.545368057032547 -5.87016477119562e-17
outer loop
vertex 0.607626174432728 0.383734478499294 1.25509831067713
vertex 0.421899551258465 0.66918471309181 1.13744505553218
vertex 0.427021956165402 0.661311896274422 1.23741208844702
endloop
endfacet
facet normal 0.838196684775444 0.545368057032547 -5.87016477119562e-17
outer loop
vertex 0.607626174432728 0.383734478499294 1.25509831067713
vertex 0.427021956165402 0.661311896274422 1.23741208844702
vertex 0.425143053177791 0.664199652964462 1.23792174753932
endloop
endfacet
facet normal 0.838196684775444 0.545368057032547 -5.87016477119562e-17
outer loop
vertex 0.607626174432728 0.383734478499294 1.25509831067713
vertex 0.425143053177791 0.664199652964462 1.23792174753932
vertex 0.417449648173449 0.676023936558119 1.24000861090433
endloop
endfacet
facet normal 0.838196684775444 0.545368057032547 -5.87016477119562e-17
outer loop
vertex 0.607626174432728 0.383734478499294 1.25509831067713
vertex 0.417449648173449 0.676023936558119 1.24000861090433
vertex 0.371493875398455 0.74665509269126 1.27211912411358
endloop
endfacet
facet normal 0.838196684775444 0.545368057032547 -5.87016477119562e-17
outer loop
vertex 0.605894484080429 0.386395978551667 0.88618173505877
vertex 0.612147949051001 0.376784792969561 0.927363182306021
vertex 0.615018217009043 0.372373370159177 0.881144708653768
endloop
endfacet
facet normal 0.838196684775444 0.545368057032547 -5.87016477119562e-17
outer loop
vertex 0.612147949051001 0.376784792969561 0.927363182306021
vertex 0.605894484080429 0.386395978551667 0.88618173505877
vertex 0.498438765126401 0.551548715727935 0.893858886703811
endloop
endfacet
facet normal 0.838196684775444 0.545368057032547 -5.87016477119562e-17
outer loop
vertex 0.612147949051001 0.376784792969561 0.927363182306021
vertex 0.498438765126401 0.551548715727935 0.893858886703811
vertex 0.42973211949542 0.65714654429033 0.908300604155558
endloop
endfacet
facet normal 0.838196684775444 0.545368057032547 -5.87016477119562e-17
outer loop
vertex 0.610641482853908 0.379100137544379 1.25496178276642
vertex 0.66613405466822 0.293811516172768 1.29639105553072
vertex 0.616941960487205 0.369416696432212 1.25489380942057
endloop
endfacet
facet normal 0.838196684775444 0.545368057032547 -5.87016477119562e-17
outer loop
vertex 0.66613405466822 0.293811516172768 1.29639105553072
vertex 0.610641482853908 0.379100137544379 1.25496178276642
vertex 0.609141620116275 0.381405333013916 1.25497796418861
endloop
endfacet
facet normal 0.838196684775444 0.545368057032547 -5.87016477119562e-17
outer loop
vertex 0.66613405466822 0.293811516172768 1.29639105553072
vertex 0.609141620116275 0.381405333013916 1.25497796418861
vertex 0.607626174432728 0.383734478499294 1.25509831067713
endloop
endfacet
facet normal 0.838196684775444 0.545368057032547 -5.87016477119562e-17
outer loop
vertex 0.66613405466822 0.293811516172768 1.29639105553072
vertex 0.607626174432728 0.383734478499294 1.25509831067713
vertex 0.371493875398455 0.74665509269126 1.27211912411358
endloop
endfacet
facet normal 0.838196684775444 0.545368057032547 -5.87016477119562e-17
outer loop
vertex 0.66613405466822 0.293811516172768 1.29639105553072
vertex 0.371493875398455 0.74665509269126 1.27211912411358
vertex 0.367735118831045 0.752432067072239 1.27484746767376
endloop
endfacet
facet normal 0.838196684775444 0.545368057032547 -5.87016477119562e-17
outer loop
vertex 0.66613405466822 0.293811516172768 1.29639105553072
vertex 0.367735118831045 0.752432067072239 1.27484746767376
vertex 0.387990121829053 0.721301390927717 1.4198734269578
endloop
endfacet
facet normal 0.838196684775444 0.545368057032547 -5.87016477119562e-17
outer loop
vertex 0.66613405466822 0.293811516172768 1.29639105553072
vertex 0.387990121829053 0.721301390927717 1.4198734269578
vertex 0.676705071585145 0.277564522568699 1.30530850655491
endloop
endfacet
facet normal 0.838196684775444 0.545368057032547 -5.87016477119562e-17
outer loop
vertex 0.676705071585145 0.277564522568699 1.30530850655491
vertex 0.387990121829053 0.721301390927717 1.4198734269578
vertex 0.640404299290348 0.333356545221891 1.46481421689619
endloop
endfacet
facet normal 0.838196684775444 0.545368057032547 -5.87016477119562e-17
outer loop
vertex 0.640404299290348 0.333356545221891 1.46481421689619
vertex 0.387990121829053 0.721301390927717 1.4198734269578
vertex 0.397861376457611 0.706129888311205 1.46576555942671
endloop
endfacet
facet normal 0.838196684775444 0.545368057032547 -5.87016477119562e-17
outer loop
vertex 0.640404299290348 0.333356545221891 1.46481421689619
vertex 0.397861376457611 0.706129888311205 1.46576555942671
vertex 0.631452669662931 0.347114641575875 1.48714541199889
endloop
endfacet
facet normal 0.838196684775444 0.545368057032547 -5.87016477119562e-17
outer loop
vertex 0.631452669662931 0.347114641575875 1.48714541199889
vertex 0.397861376457611 0.706129888311205 1.46576555942671
vertex 0.524055401636876 0.512177543321891 1.48969698265481
endloop
endfacet
facet normal 0.838196684775444 0.545368057032547 -5.87016477119562e-17
outer loop
vertex 0.524055401636876 0.512177543321891 1.48969698265481
vertex 0.397861376457611 0.706129888311205 1.46576555942671
vertex 0.414473988027991 0.680597340586425 1.49577194929856
endloop
endfacet
facet normal 0.838196684775444 0.545368057032547 -5.87016477119562e-17
outer loop
vertex 0.524055401636876 0.512177543321891 1.48969698265481
vertex 0.414473988027991 0.680597340586425 1.49577194929856
vertex 0.509930004100043 0.533887398224159 1.49134446864691
endloop
endfacet
facet normal 0.838196684775444 0.545368057032547 -5.87016477119562e-17
outer loop
vertex 0.509930004100043 0.533887398224159 1.49134446864691
vertex 0.414473988027991 0.680597340586425 1.49577194929856
vertex 0.494905709459686 0.556978801903281 1.49793442085126
endloop
endfacet
facet normal 0.838196684775444 0.545368057032547 -5.87016477119562e-17
outer loop
vertex 0.494905709459686 0.556978801903281 1.49793442085126
vertex 0.414473988027991 0.680597340586425 1.49577194929856
vertex 0.460700385764118 0.609550250769024 1.53283867104376
endloop
endfacet
facet normal 0.838196684775444 0.545368057032547 -5.87016477119562e-17
outer loop
vertex 0.494905709459686 0.556978801903281 1.49793442085126
vertex 0.460700385764118 0.609550250769024 1.53283867104376
vertex 0.472176652526511 0.591911944620003 1.52604505126583
endloop
endfacet
facet normal 0.838196684775444 0.545368057032547 -5.87016477119562e-17
outer loop
vertex 0.472176652526511 0.591911944620003 1.52604505126583
vertex 0.460700385764118 0.609550250769024 1.53283867104376
vertex 0.470851065056817 0.593949289873634 1.52893995158133
endloop
endfacet
facet normal 0.838196684775444 0.545368057032547 -5.87016477119562e-17
outer loop
vertex 0.470851065056817 0.593949289873634 1.52893995158133
vertex 0.460700385764118 0.609550250769024 1.53283867104376
vertex 0.467978057287631 0.598364923602843 1.53521420453526
endloop
endfacet
facet normal 0.838196684775444 0.545368057032547 -5.87016477119562e-17
outer loop
vertex 0.524055401636876 0.512177543321891 1.48969698265481
vertex 0.61131149557455 0.378070369786702 1.51084382380061
vertex 0.631452669662931 0.347114641575875 1.48714541199889
endloop
endfacet
facet normal 0.838196684775444 0.545368057032547 -5.87016477119562e-17
outer loop
vertex 0.61131149557455 0.378070369786702 1.51084382380061
vertex 0.524055401636876 0.512177543321891 1.48969698265481
vertex 0.534571850140551 0.496014417965127 1.49230546370788
endloop
endfacet
facet normal 0.838196684775444 0.545368057032547 -5.87016477119562e-17
outer loop
vertex 0.61131149557455 0.378070369786702 1.51084382380061
vertex 0.534571850140551 0.496014417965127 1.49230546370788
vertex 0.551597734845533 0.46984669521155 1.50515462070133
endloop
endfacet
facet normal 0.838196684775444 0.545368057032547 -5.87016477119562e-17
outer loop
vertex 0.61131149557455 0.378070369786702 1.51084382380061
vertex 0.551597734845533 0.46984669521155 1.50515462070133
vertex 0.564216917533373 0.450451798577748 1.5297515908461
endloop
endfacet
facet normal 0.838196684775444 0.545368057032547 -5.87016477119562e-17
outer loop
vertex 0.61131149557455 0.378070369786702 1.51084382380061
vertex 0.564216917533373 0.450451798577748 1.5297515908461
vertex 0.570226054622194 0.441216129709246 1.54186652135677
endloop
endfacet
facet normal 0.838196684775444 0.545368057032547 -5.87016477119562e-17
outer loop
vertex 0.570226054622194 0.441216129709246 1.54186652135677
vertex 0.564216917533373 0.450451798577748 1.5297515908461
vertex 0.563616001596484 0.451375368888907 1.53746108833655
endloop
endfacet
facet normal 0.838196684775444 0.545368057032547 -5.87016477119562e-17
outer loop
vertex 0.570226054622194 0.441216129709246 1.54186652135677
vertex 0.563616001596484 0.451375368888907 1.53746108833655
vertex 0.558808696381442 0.458763897135091 1.54553770318637
endloop
endfacet
facet normal 0.838196684775443 0.545368057032548 -1.85281400524683e-16
outer loop
vertex 0.647754585569822 0.32205961370535 0.941487659296402
vertex 0.650489060234122 0.317856896716956 0.898479187473679
vertex 0.648231705976302 0.321326309402332 0.897764101217282
endloop
endfacet
facet normal 0.838196684775443 0.545368057032548 -1.85281400524683e-16
outer loop
vertex 0.650489060234122 0.317856896716956 0.898479187473679
vertex 0.647754585569822 0.32205961370535 0.941487659296402
vertex 0.667555149278987 0.291627382400837 0.903885395065667
endloop
endfacet
facet normal 0.838196684775443 0.545368057032548 -1.85281400524683e-16
outer loop
vertex 0.610641482853908 0.379100137544379 1.25496178276642
vertex 0.616941960487205 0.369416696432212 1.25489380942057
vertex 0.632418637222699 0.345630009691486 1.10939118643961
endloop
endfacet
facet normal 0.838196684775443 0.545368057032548 -1.85281400524683e-16
outer loop
vertex 0.686639951203394 0.262295232311821 0.893717162828985
vertex 0.690047725482707 0.25705769581413 1.07083095797658
vertex 0.6930811727193 0.252395476631385 0.88420979887163
endloop
endfacet
facet normal 0.838196684775443 0.545368057032548 -1.85281400524683e-16
outer loop
vertex 0.690047725482707 0.25705769581413 1.07083095797658
vertex 0.686639951203394 0.262295232311821 0.893717162828985
vertex 0.667555149278987 0.291627382400837 0.903885395065667
endloop
endfacet
facet normal 0.838196684775443 0.545368057032548 -1.85281400524683e-16
outer loop
vertex 0.690047725482707 0.25705769581413 1.07083095797658
vertex 0.667555149278987 0.291627382400837 0.903885395065667
vertex 0.647754585569822 0.32205961370535 0.941487659296402
endloop
endfacet
facet normal 0.838196684775443 0.545368057032548 -1.85281400524683e-16
outer loop
vertex 0.690047725482707 0.25705769581413 1.07083095797658
vertex 0.647754585569822 0.32205961370535 0.941487659296402
vertex 0.642506246245154 0.330125983867274 0.961163255490438
endloop
endfacet
facet normal 0.838196684775443 0.545368057032548 -1.85281400524683e-16
outer loop
vertex 0.690047725482707 0.25705769581413 1.07083095797658
vertex 0.642506246245154 0.330125983867274 0.961163255490438
vertex 0.636542218884073 0.339292321898086 1.03112095006422
endloop
endfacet
facet normal 0.838196684775443 0.545368057032548 -1.85281400524683e-16
outer loop
vertex 0.690047725482707 0.25705769581413 1.07083095797658
vertex 0.636542218884073 0.339292321898086 1.03112095006422
vertex 0.632418637222699 0.345630009691486 1.10939118643961
endloop
endfacet
facet normal 0.838196684775443 0.545368057032548 -1.85281400524683e-16
outer loop
vertex 0.690047725482707 0.25705769581413 1.07083095797658
vertex 0.632418637222699 0.345630009691486 1.10939118643961
vertex 0.66613405466822 0.293811516172768 1.29639105553072
endloop
endfacet
facet normal 0.838196684775443 0.545368057032548 -1.85281400524683e-16
outer loop
vertex 0.66613405466822 0.293811516172768 1.29639105553072
vertex 0.632418637222699 0.345630009691486 1.10939118643961
vertex 0.616941960487205 0.369416696432212 1.25489380942057
endloop
endfacet
facet normal 0.838196684775444 0.545368057032547 -8.15192658349549e-17
outer loop
vertex 0.523491002744981 0.513044989212747 0.0342748590853182
vertex 0.52508613737834 0.510593366782334 0.0255753348189918
vertex 0.521759447204664 0.515706282067513 0.0231672673121405
endloop
endfacet
facet normal 0.838196684775444 0.545368057032547 -8.15192658349549e-17
outer loop
vertex 0.52508613737834 0.510593366782334 0.0255753348189918
vertex 0.523491002744981 0.513044989212747 0.0342748590853182
vertex 0.527265335057577 0.507244075883 0.0458527829614342
endloop
endfacet
facet normal 0.838196684775444 0.545368057032547 -8.15192658349549e-17
outer loop
vertex 0.527265335057577 0.507244075883 0.0458527829614342
vertex 0.523491002744981 0.513044989212747 0.0342748590853182
vertex 0.522711801637835 0.514242572709545 0.0388765753240934
endloop
endfacet
facet normal 0.838196684775444 0.545368057032547 -8.15192658349549e-17
outer loop
vertex 0.527265335057577 0.507244075883 0.0458527829614342
vertex 0.522711801637835 0.514242572709545 0.0388765753240934
vertex 0.518999539891044 0.519948087451479 0.0629440275789121
endloop
endfacet
facet normal 0.838196684775444 0.545368057032547 -8.15192658349549e-17
outer loop
vertex 0.527265335057577 0.507244075883 0.0458527829614342
vertex 0.518999539891044 0.519948087451479 0.0629440275789121
vertex 0.528165720147037 0.50586024016458 0.0542308718946762
endloop
endfacet
facet normal 0.838196684775444 0.545368057032547 -8.15192658349549e-17
outer loop
vertex 0.458398571410272 0.613087995848668 0.103742563807277
vertex 0.460047789479954 0.610553250550235 0.0750397269578219
vertex 0.454870008058745 0.61851117761579 0.0726717647914004
endloop
endfacet
facet normal 0.838196684775444 0.545368057032547 -8.15192658349549e-17
outer loop
vertex 0.460047789479954 0.610553250550235 0.0750397269578219
vertex 0.458398571410272 0.613087995848668 0.103742563807277
vertex 0.465442139281448 0.602262471393248 0.0943500220132886
endloop
endfacet
facet normal 0.838196684775444 0.545368057032547 -8.15192658349549e-17
outer loop
vertex 0.465442139281448 0.602262471393248 0.0943500220132886
vertex 0.458398571410272 0.613087995848668 0.103742563807277
vertex 0.470339370597634 0.594735732339001 0.102725037594589
endloop
endfacet
facet normal 0.838196684775444 0.545368057032547 -8.15192658349549e-17
outer loop
vertex 0.470339370597634 0.594735732339001 0.102725037594589
vertex 0.458398571410272 0.613087995848668 0.103742563807277
vertex 0.481966050154878 0.57686625110672 0.115650426518012
endloop
endfacet
facet normal 0.838196684775444 0.545368057032547 -8.15192658349549e-17
outer loop
vertex 0.481966050154878 0.57686625110672 0.115650426518012
vertex 0.458398571410272 0.613087995848668 0.103742563807277
vertex 0.444657728251316 0.634206814659812 0.217490437431277
endloop
endfacet
facet normal 0.838196684775444 0.545368057032547 -8.15192658349549e-17
outer loop
vertex 0.481966050154878 0.57686625110672 0.115650426518012
vertex 0.444657728251316 0.634206814659812 0.217490437431277
vertex 0.493020926408217 0.559875595884685 0.118095769923203
endloop
endfacet
facet normal 0.838196684775444 0.545368057032547 -8.15192658349549e-17
outer loop
vertex 0.493020926408217 0.559875595884685 0.118095769923203
vertex 0.444657728251316 0.634206814659812 0.217490437431277
vertex 0.535431878178524 0.494692608517457 0.168508084371897
endloop
endfacet
facet normal 0.838196684775444 0.545368057032547 -8.15192658349549e-17
outer loop
vertex 0.535431878178524 0.494692608517457 0.168508084371897
vertex 0.444657728251316 0.634206814659812 0.217490437431277
vertex 0.540801010409161 0.486440587193861 0.180346808408415
endloop
endfacet
facet normal 0.838196684775444 0.545368057032547 -8.15192658349549e-17
outer loop
vertex 0.540801010409161 0.486440587193861 0.180346808408415
vertex 0.444657728251316 0.634206814659812 0.217490437431277
vertex 0.572982092629237 0.436980271208129 0.408207489705989
endloop
endfacet
facet normal 0.838196684775444 0.545368057032547 -8.15192658349549e-17
outer loop
vertex 0.572982092629237 0.436980271208129 0.408207489705989
vertex 0.444657728251316 0.634206814659812 0.217490437431277
vertex 0.437645252488142 0.644984552484692 0.352779801941047
endloop
endfacet
facet normal 0.838196684775444 0.545368057032547 -8.15192658349549e-17
outer loop
vertex 0.572982092629237 0.436980271208129 0.408207489705989
vertex 0.437645252488142 0.644984552484692 0.352779801941047
vertex 0.439859721254768 0.641581052124175 0.444100127720812
endloop
endfacet
facet normal 0.838196684775444 0.545368057032547 -8.15192658349549e-17
outer loop
vertex 0.572982092629237 0.436980271208129 0.408207489705989
vertex 0.439859721254768 0.641581052124175 0.444100127720812
vertex 0.569956525112948 0.441630379752286 0.4273639164781
endloop
endfacet
facet normal 0.838196684775444 0.545368057032547 -8.15192658349549e-17
outer loop
vertex 0.569956525112948 0.441630379752286 0.4273639164781
vertex 0.439859721254768 0.641581052124175 0.444100127720812
vertex 0.563771302590851 0.451136680947905 0.435085745077112
endloop
endfacet
facet normal 0.838196684775444 0.545368057032547 -8.15192658349549e-17
outer loop
vertex 0.563771302590851 0.451136680947905 0.435085745077112
vertex 0.439859721254768 0.641581052124175 0.444100127720812
vertex 0.601937849718543 0.392477078759565 0.707197534984302
endloop
endfacet
facet normal 0.838196684775444 0.545368057032547 -8.15192658349549e-17
outer loop
vertex 0.601937849718543 0.392477078759565 0.707197534984302
vertex 0.439859721254768 0.641581052124175 0.444100127720812
vertex 0.440121489870782 0.641178730089923 0.5040370132084
endloop
endfacet
facet normal 0.838196684775444 0.545368057032547 -8.15192658349549e-17
outer loop
vertex 0.601937849718543 0.392477078759565 0.707197534984302
vertex 0.440121489870782 0.641178730089923 0.5040370132084
vertex 0.428015528739659 0.659784837204704 0.61161451458107
endloop
endfacet
facet normal 0.838196684775444 0.545368057032547 -8.15192658349549e-17
outer loop
vertex 0.601937849718543 0.392477078759565 0.707197534984302
vertex 0.428015528739659 0.659784837204704 0.61161451458107
vertex 0.422512817784297 0.668242160695851 0.756844140610581
endloop
endfacet
facet normal 0.838196684775444 0.545368057032547 -8.15192658349549e-17
outer loop
vertex 0.601937849718543 0.392477078759565 0.707197534984302
vertex 0.422512817784297 0.668242160695851 0.756844140610581
vertex 0.60658780744427 0.38533038378946 0.762335604464953
endloop
endfacet
facet normal 0.838196684775444 0.545368057032547 -8.15192658349549e-17
outer loop
vertex 0.60658780744427 0.38533038378946 0.762335604464953
vertex 0.422512817784297 0.668242160695851 0.756844140610581
vertex 0.418842034112815 0.673883926223347 0.793307134460978
endloop
endfacet
facet normal 0.838196684775444 0.545368057032547 -8.15192658349549e-17
outer loop
vertex 0.60658780744427 0.38533038378946 0.762335604464953
vertex 0.418842034112815 0.673883926223347 0.793307134460978
vertex 0.605894484080429 0.386395978551667 0.88618173505877
endloop
endfacet
facet normal 0.838196684775444 0.545368057032547 -8.15192658349549e-17
outer loop
vertex 0.605894484080429 0.386395978551667 0.88618173505877
vertex 0.418842034112815 0.673883926223347 0.793307134460978
vertex 0.498438765126401 0.551548715727935 0.893858886703811
endloop
endfacet
facet normal 0.838196684775444 0.545368057032547 -8.15192658349549e-17
outer loop
vertex 0.498438765126401 0.551548715727935 0.893858886703811
vertex 0.418842034112815 0.673883926223347 0.793307134460978
vertex 0.416664481298081 0.677230689068544 0.906465187941815
endloop
endfacet
facet normal 0.838196684775444 0.545368057032547 -8.15192658349549e-17
outer loop
vertex 0.498438765126401 0.551548715727935 0.893858886703811
vertex 0.416664481298081 0.677230689068544 0.906465187941815
vertex 0.42973211949542 0.65714654429033 0.908300604155558
endloop
endfacet
facet normal 0.838196684775444 0.545368057032547 -8.15192658349549e-17
outer loop
vertex 0.537006328987695 0.492272775834608 0.0520609514328567
vertex 0.539462219326584 0.488498225576879 0.0705277071386368
vertex 0.544503159009022 0.480750615727922 0.0477683905675897
endloop
endfacet
facet normal 0.838196684775444 0.545368057032547 -8.15192658349549e-17
outer loop
vertex 0.539462219326584 0.488498225576879 0.0705277071386368
vertex 0.537006328987695 0.492272775834608 0.0520609514328567
vertex 0.528165720147037 0.50586024016458 0.0542308718946762
endloop
endfacet
facet normal 0.838196684775444 0.545368057032547 -8.15192658349549e-17
outer loop
vertex 0.539462219326584 0.488498225576879 0.0705277071386368
vertex 0.528165720147037 0.50586024016458 0.0542308718946762
vertex 0.518999539891044 0.519948087451479 0.0629440275789121
endloop
endfacet
facet normal 0.838196684775444 0.545368057032547 -8.15192658349549e-17
outer loop
vertex 0.539462219326584 0.488498225576879 0.0705277071386368
vertex 0.518999539891044 0.519948087451479 0.0629440275789121
vertex 0.519766221626996 0.518769745447275 0.0831688725144753
endloop
endfacet
facet normal 0.838196684775444 0.545368057032547 -8.15192658349549e-17
outer loop
vertex 0.539462219326584 0.488498225576879 0.0705277071386368
vertex 0.519766221626996 0.518769745447275 0.0831688725144753
vertex 0.535431878178524 0.494692608517457 0.168508084371897
endloop
endfacet
facet normal 0.838196684775444 0.545368057032547 -8.15192658349549e-17
outer loop
vertex 0.535431878178524 0.494692608517457 0.168508084371897
vertex 0.519766221626996 0.518769745447275 0.0831688725144753
vertex 0.510841853460511 0.532485942636317 0.105971415080495
endloop
endfacet
facet normal 0.838196684775444 0.545368057032547 -8.15192658349549e-17
outer loop
vertex 0.535431878178524 0.494692608517457 0.168508084371897
vertex 0.510841853460511 0.532485942636317 0.105971415080495
vertex 0.501788589445929 0.546400244703638 0.115301090569278
endloop
endfacet
facet normal 0.838196684775444 0.545368057032547 -8.15192658349549e-17
outer loop
vertex 0.535431878178524 0.494692608517457 0.168508084371897
vertex 0.501788589445929 0.546400244703638 0.115301090569278
vertex 0.493020926408217 0.559875595884685 0.118095769923203
endloop
endfacet
facet normal 1.70934451431487e-31 3.23192730767955e-31 -1.0
outer loop
vertex -33.7442317429303 25.0105970300763 2.30990351279197e-14
vertex 1.66497702048263 -17.7306216895797 2.30990351279197e-14
vertex -38.0732889262634 -12.3825797649439 2.30990351279197e-14
endloop
endfacet
facet normal 1.70934451431487e-31 3.23192730767955e-31 -1.0
outer loop
vertex 1.66497702048263 -17.7306216895797 2.30990351279197e-14
vertex -33.7442317429303 25.0105970300763 2.30990351279197e-14
vertex -33.5033277858915 26.9413653849591 2.30990351279197e-14
endloop
endfacet
facet normal 1.70934451431487e-31 3.23192730767955e-31 -1.0
outer loop
vertex 1.66497702048263 -17.7306216895797 2.30990351279197e-14
vertex -33.5033277858915 26.9413653849591 2.30990351279197e-14
vertex 5.40335374385564 20.1261124525073 2.30990351279197e-14
endloop
endfacet
facet normal 1.70934451431487e-31 3.23192730767955e-31 -1.0
outer loop
vertex 5.40335374385564 20.1261124525073 2.30990351279197e-14
vertex -33.5033277858915 26.9413653849591 2.30990351279197e-14
vertex 5.64425770089448 22.0568808073901 2.30990351279197e-14
endloop
endfacet
facet normal -1.70934451431487e-31 -3.23192730767955e-31 1.0
outer loop
vertex 1.66497702048263 -17.7306216895797 116.7511
vertex -33.7442317429303 25.0105970300763 116.7511
vertex -38.0732889262634 -12.3825797649439 116.7511
endloop
endfacet
facet normal -1.70934451431487e-31 -3.23192730767955e-31 1.0
outer loop
vertex -33.7442317429303 25.0105970300763 116.7511
vertex 1.66497702048263 -17.7306216895797 116.7511
vertex -33.5033277858915 26.9413653849591 116.7511
endloop
endfacet
facet normal -1.70934451431487e-31 -3.23192730767955e-31 1.0
outer loop
vertex -33.5033277858915 26.9413653849591 116.7511
vertex 1.66497702048263 -17.7306216895797 116.7511
vertex 5.40335374385564 20.1261124525073 116.7511
endloop
endfacet
facet normal -1.70934451431487e-31 -3.23192730767955e-31 1.0
outer loop
vertex -33.5033277858915 26.9413653849591 116.7511
vertex 5.40335374385564 20.1261124525073 116.7511
vertex 5.64425770089448 22.0568808073901 116.7511
endloop
endfacet
facet normal 0.99515952899935 -0.098272640352196 1.38346045181118e-31
outer loop
vertex 5.40335374385564 20.1261124525073 2.30990351279197e-14
vertex 1.66497702048263 -17.7306216895797 116.7511
vertex 1.66497702048263 -17.7306216895797 2.30990351279197e-14
endloop
endfacet
facet normal 0.99515952899935 -0.098272640352196 1.38346045181118e-31
outer loop
vertex 1.66497702048263 -17.7306216895797 116.7511
vertex 5.40335374385564 20.1261124525073 2.30990351279197e-14
vertex 5.40335374385564 20.1261124525073 116.7511
endloop
endfacet
facet normal -0.13337918680849 -0.991065079864237 -3.43104127659572e-31
outer loop
vertex 1.66497702048263 -17.7306216895797 116.7511
vertex -38.0732889262634 -12.3825797649439 2.30990351279197e-14
vertex 1.66497702048263 -17.7306216895797 2.30990351279197e-14
endloop
endfacet
facet normal -0.13337918680849 -0.991065079864237 -3.43104127659572e-31
outer loop
vertex -38.0732889262634 -12.3825797649439 2.30990351279197e-14
vertex 1.66497702048263 -17.7306216895797 116.7511
vertex -38.0732889262634 -12.3825797649439 116.7511
endloop
endfacet
facet normal -0.993365122946334 0.115003184798571 -1.32632129019942e-31
outer loop
vertex -33.7442317429303 25.0105970300763 116.7511
vertex -38.0732889262634 -12.3825797649439 2.30990351279197e-14
vertex -38.0732889262634 -12.3825797649439 116.7511
endloop
endfacet
facet normal -0.993365122946334 0.115003184798571 -1.32632129019942e-31
outer loop
vertex -38.0732889262634 -12.3825797649439 2.30990351279197e-14
vertex -33.7442317429303 25.0105970300763 116.7511
vertex -33.7442317429303 25.0105970300763 2.30990351279197e-14
endloop
endfacet
facet normal 0.123811019044696 0.992305815544338 3.41869594904276e-31
outer loop
vertex -33.5033277858915 26.9413653849591 116.7511
vertex 5.64425770089448 22.0568808073901 2.30990351279197e-14
vertex -33.5033277858915 26.9413653849591 2.30990351279197e-14
endloop
endfacet
facet normal 0.123811019044696 0.992305815544338 3.41869594904276e-31
outer loop
vertex 5.64425770089448 22.0568808073901 2.30990351279197e-14
vertex -33.5033277858915 26.9413653849591 116.7511
vertex 5.64425770089448 22.0568808073901 116.7511
endloop
endfacet
facet normal -0.992305815544338 0.123811019044696 0.0
outer loop
vertex -33.5033277858915 26.9413653849591 116.7511
vertex -33.7442317429303 25.0105970300763 2.30990351279197e-14
vertex -33.7442317429303 25.0105970300763 116.7511
endloop
endfacet
facet normal -0.992305815544338 0.123811019044696 0.0
outer loop
vertex -33.7442317429303 25.0105970300763 2.30990351279197e-14
vertex -33.5033277858915 26.9413653849591 116.7511
vertex -33.5033277858915 26.9413653849591 2.30990351279197e-14
endloop
endfacet
facet normal 0.992305815544338 -0.123811019044696 0.0
outer loop
vertex 5.64425770089448 22.0568808073901 2.30990351279197e-14
vertex 5.40335374385564 20.1261124525073 116.7511
vertex 5.40335374385564 20.1261124525073 2.30990351279197e-14
endloop
endfacet
facet normal 0.992305815544338 -0.123811019044696 0.0
outer loop
vertex 5.40335374385564 20.1261124525073 116.7511
vertex 5.64425770089448 22.0568808073901 2.30990351279197e-14
vertex 5.64425770089448 22.0568808073901 116.7511
endloop
endfacet
endsolid meidinger
