solid Meidinger Tower
facet normal -0.993126129517259 0.117049095981421 0.0
outer loop
vertex -4.8578985527145 4.7788957748296 109.347
vertex -5.01695656924365 3.42933667742859 108.09605
vertex -5.01695656924365 3.42933667742859 109.347
endloop
endfacet
facet normal -0.993126129517259 0.117049095981421 0.0
outer loop
vertex -5.01695656924365 3.42933667742859 108.09605
vertex -4.8578985527145 4.7788957748296 109.347
vertex -4.8578985527145 4.7788957748296 108.09605
endloop
endfacet
facet normal -0.0 -0.0 1.0
outer loop
vertex 3.71103310740586 2.40066240230555 109.347
vertex -4.8578985527145 4.7788957748296 109.347
vertex -5.01695656924365 3.42933667742859 109.347
endloop
endfacet
facet normal -0.0 -0.0 1.0
outer loop
vertex -4.8578985527145 4.7788957748296 109.347
vertex 3.71103310740586 2.40066240230555 109.347
vertex 3.87009112393499 3.75022149970654 109.347
endloop
endfacet
facet normal -0.0 -0.0 1.0
outer loop
vertex -32.1878236462229 -13.3188390510623 108.09605
vertex -18.8485448424861 9.01877669491272 108.09605
vertex -27.8945103299351 23.10862415025 108.09605
endloop
endfacet
facet normal -0.0 -0.0 1.0
outer loop
vertex -18.8485448424861 9.01877669491272 108.09605
vertex -32.1878236462229 -13.3188390510623 108.09605
vertex 4.15765699309782 -17.6024899644768 108.09605
endloop
endfacet
facet normal -0.0 -0.0 1.0
outer loop
vertex -18.8485448424861 9.01877669491272 108.09605
vertex 4.15765699309782 -17.6024899644768 108.09605
vertex -16.584564861332 8.75194572325869 108.09605
endloop
endfacet
facet normal -0.0 -0.0 1.0
outer loop
vertex -16.584564861332 8.75194572325869 108.09605
vertex 4.15765699309782 -17.6024899644768 108.09605
vertex -14.6753158693741 8.16904990949534 108.09605
endloop
endfacet
facet normal -0.0 -0.0 1.0
outer loop
vertex -16.584564861332 8.75194572325869 108.09605
vertex -14.6753158693741 8.16904990949534 108.09605
vertex -15.9200888483552 14.3898234479152 108.09605
endloop
endfacet
facet normal -0.0 -0.0 1.0
outer loop
vertex -14.6753158693741 8.16904990949534 108.09605
vertex 4.15765699309782 -17.6024899644768 108.09605
vertex -12.8149423472559 7.94978769044816 108.09605
endloop
endfacet
facet normal -0.0 -0.0 1.0
outer loop
vertex -12.8149423472559 7.94978769044816 108.09605
vertex 4.15765699309782 -17.6024899644768 108.09605
vertex -10.6118907645958 8.17501074244313 108.09605
endloop
endfacet
facet normal -0.0 -0.0 1.0
outer loop
vertex -12.8149423472559 7.94978769044816 108.09605
vertex -10.6118907645958 8.17501074244313 108.09605
vertex -12.2181031543919 13.0137874811632 108.09605
endloop
endfacet
facet normal -0.0 -0.0 1.0
outer loop
vertex -10.6118907645958 8.17501074244313 108.09605
vertex 4.15765699309782 -17.6024899644768 108.09605
vertex -8.15241390484628 7.88513865624518 108.09605
endloop
endfacet
facet normal -0.0 -0.0 1.0
outer loop
vertex -8.15241390484628 7.88513865624518 108.09605
vertex 4.15765699309782 -17.6024899644768 108.09605
vertex -5.01695656924365 3.42933667742859 108.09605
endloop
endfacet
facet normal -0.0 -0.0 1.0
outer loop
vertex -8.15241390484628 7.88513865624518 108.09605
vertex -5.01695656924365 3.42933667742859 108.09605
vertex -7.6157789145003 12.438324022243 108.09605
endloop
endfacet
facet normal -0.0 -0.0 1.0
outer loop
vertex -5.01695656924365 3.42933667742859 108.09605
vertex 4.15765699309782 -17.6024899644768 108.09605
vertex 3.71103310740586 2.40066240230555 108.09605
endloop
endfacet
facet normal -0.0 -0.0 1.0
outer loop
vertex 3.71103310740586 2.40066240230555 108.09605
vertex 4.15765699309782 -17.6024899644768 108.09605
vertex 3.87009112393499 3.75022149970654 108.09605
endloop
endfacet
facet normal -0.0 -0.0 1.0
outer loop
vertex -27.8945103299351 23.10862415025 108.09605
vertex -18.1840688295092 14.6566544195693 108.09605
vertex 8.45097030938557 18.8249732368355 108.09605
endloop
endfacet
facet normal -0.0 -0.0 1.0
outer loop
vertex -18.1840688295092 14.6566544195693 108.09605
vertex -27.8945103299351 23.10862415025 108.09605
vertex -18.8485448424861 9.01877669491272 108.09605
endloop
endfacet
facet normal -0.0 -0.0 1.0
outer loop
vertex 8.45097030938557 18.8249732368355 108.09605
vertex -18.1840688295092 14.6566544195693 108.09605
vertex -15.9200888483552 14.3898234479152 108.09605
endloop
endfacet
facet normal -0.0 -0.0 1.0
outer loop
vertex 8.45097030938557 18.8249732368355 108.09605
vertex -15.9200888483552 14.3898234479152 108.09605
vertex -14.0784766765101 13.2330497002103 108.09605
endloop
endfacet
facet normal -0.0 -0.0 1.0
outer loop
vertex -14.0784766765101 13.2330497002103 108.09605
vertex -15.9200888483552 14.3898234479152 108.09605
vertex -14.6753158693741 8.16904990949534 108.09605
endloop
endfacet
facet normal -0.0 -0.0 1.0
outer loop
vertex 8.45097030938557 18.8249732368355 108.09605
vertex -14.0784766765101 13.2330497002103 108.09605
vertex -12.2181031543919 13.0137874811632 108.09605
endloop
endfacet
facet normal -0.0 -0.0 1.0
outer loop
vertex 8.45097030938557 18.8249732368355 108.09605
vertex -12.2181031543919 13.0137874811632 108.09605
vertex -10.0752557742498 12.7281961084409 108.09605
endloop
endfacet
facet normal -0.0 -0.0 1.0
outer loop
vertex -10.0752557742498 12.7281961084409 108.09605
vertex -12.2181031543919 13.0137874811632 108.09605
vertex -10.6118907645958 8.17501074244313 108.09605
endloop
endfacet
facet normal -0.0 -0.0 1.0
outer loop
vertex 8.45097030938557 18.8249732368355 108.09605
vertex -10.0752557742498 12.7281961084409 108.09605
vertex -7.6157789145003 12.438324022243 108.09605
endloop
endfacet
facet normal -0.0 -0.0 1.0
outer loop
vertex 8.45097030938557 18.8249732368355 108.09605
vertex -7.6157789145003 12.438324022243 108.09605
vertex -4.8578985527145 4.7788957748296 108.09605
endloop
endfacet
facet normal -0.0 -0.0 1.0
outer loop
vertex -4.8578985527145 4.7788957748296 108.09605
vertex -7.6157789145003 12.438324022243 108.09605
vertex -5.01695656924365 3.42933667742859 108.09605
endloop
endfacet
facet normal -0.0 -0.0 1.0
outer loop
vertex 8.45097030938557 18.8249732368355 108.09605
vertex -4.8578985527145 4.7788957748296 108.09605
vertex 3.87009112393499 3.75022149970654 108.09605
endloop
endfacet
facet normal -0.0 -0.0 1.0
outer loop
vertex 8.45097030938557 18.8249732368355 108.09605
vertex 3.87009112393499 3.75022149970654 108.09605
vertex 4.15765699309782 -17.6024899644768 108.09605
endloop
endfacet
facet normal -0.0 -0.0 1.0
outer loop
vertex -8.15241390484628 7.88513865624518 109.347
vertex -10.0752557742498 12.7281961084409 109.347
vertex -10.6118907645958 8.17501074244313 109.347
endloop
endfacet
facet normal -0.0 -0.0 1.0
outer loop
vertex -10.0752557742498 12.7281961084409 109.347
vertex -8.15241390484628 7.88513865624518 109.347
vertex -7.6157789145003 12.438324022243 109.347
endloop
endfacet
facet normal 0.99312612951726 -0.117049095981413 -0.0
outer loop
vertex -7.6157789145003 12.438324022243 108.09605
vertex -8.15241390484628 7.88513865624518 109.347
vertex -8.15241390484628 7.88513865624518 108.09605
endloop
endfacet
facet normal 0.99312612951726 -0.117049095981413 -0.0
outer loop
vertex -8.15241390484628 7.88513865624518 109.347
vertex -7.6157789145003 12.438324022243 108.09605
vertex -7.6157789145003 12.438324022243 109.347
endloop
endfacet
facet normal -0.117049095981411 -0.993126129517261 0.0
outer loop
vertex 3.71103310740586 2.40066240230555 109.347
vertex -5.01695656924365 3.42933667742859 108.09605
vertex 3.71103310740586 2.40066240230555 108.09605
endloop
endfacet
facet normal -0.117049095981411 -0.993126129517261 0.0
outer loop
vertex -5.01695656924365 3.42933667742859 108.09605
vertex 3.71103310740586 2.40066240230555 109.347
vertex -5.01695656924365 3.42933667742859 109.347
endloop
endfacet
facet normal -0.0 -0.0 1.0
outer loop
vertex 5.34450308948312 -19.106475438641 110.16615
vertex -32.1878236462229 -13.3188390510623 110.16615
vertex -33.6918091203871 -14.5056851474476 110.16615
endloop
endfacet
facet normal -0.0 -0.0 1.0
outer loop
vertex -32.1878236462229 -13.3188390510623 110.16615
vertex 5.34450308948312 -19.106475438641 110.16615
vertex 4.15765699309782 -17.6024899644768 110.16615
endloop
endfacet
facet normal -0.0 -0.0 1.0
outer loop
vertex 4.15765699309782 -17.6024899644768 110.16615
vertex 5.34450308948312 -19.106475438641 110.16615
vertex 8.45097030938557 18.8249732368355 110.16615
endloop
endfacet
facet normal -0.0 -0.0 1.0
outer loop
vertex 8.45097030938557 18.8249732368355 110.16615
vertex 5.34450308948312 -19.106475438641 110.16615
vertex 9.95495578354978 20.0118193332208 110.16615
endloop
endfacet
facet normal -0.0 -0.0 1.0
outer loop
vertex -32.1878236462229 -13.3188390510623 110.16615
vertex -29.0813564263204 24.6126096244142 110.16615
vertex -33.6918091203871 -14.5056851474476 110.16615
endloop
endfacet
facet normal -0.0 -0.0 1.0
outer loop
vertex -29.0813564263204 24.6126096244142 110.16615
vertex -32.1878236462229 -13.3188390510623 110.16615
vertex -27.8945103299351 23.10862415025 110.16615
endloop
endfacet
facet normal -0.0 -0.0 1.0
outer loop
vertex -29.0813564263204 24.6126096244142 110.16615
vertex -27.8945103299351 23.10862415025 110.16615
vertex 9.95495578354978 20.0118193332208 110.16615
endloop
endfacet
facet normal -0.0 -0.0 1.0
outer loop
vertex 9.95495578354978 20.0118193332208 110.16615
vertex -27.8945103299351 23.10862415025 110.16615
vertex 8.45097030938557 18.8249732368355 110.16615
endloop
endfacet
facet normal -0.117049095981407 -0.993126129517261 0.0
outer loop
vertex -8.15241390484628 7.88513865624518 109.347
vertex -10.6118907645958 8.17501074244313 108.09605
vertex -8.15241390484628 7.88513865624518 108.09605
endloop
endfacet
facet normal -0.117049095981407 -0.993126129517261 0.0
outer loop
vertex -10.6118907645958 8.17501074244313 108.09605
vertex -8.15241390484628 7.88513865624518 109.347
vertex -10.6118907645958 8.17501074244313 109.347
endloop
endfacet
facet normal -0.117049095981413 -0.99312612951726 0.0
outer loop
vertex -16.584564861332 8.75194572325869 109.347
vertex -18.8485448424861 9.01877669491272 108.09605
vertex -16.584564861332 8.75194572325869 108.09605
endloop
endfacet
facet normal -0.117049095981413 -0.99312612951726 0.0
outer loop
vertex -18.8485448424861 9.01877669491272 108.09605
vertex -16.584564861332 8.75194572325869 109.347
vertex -18.8485448424861 9.01877669491272 109.347
endloop
endfacet
facet normal -0.993126129517261 0.11704909598141 0.0
outer loop
vertex -14.0784766765101 13.2330497002103 109.347
vertex -14.6753158693741 8.16904990949534 108.09605
vertex -14.6753158693741 8.16904990949534 109.347
endloop
endfacet
facet normal -0.993126129517261 0.11704909598141 0.0
outer loop
vertex -14.6753158693741 8.16904990949534 108.09605
vertex -14.0784766765101 13.2330497002103 109.347
vertex -14.0784766765101 13.2330497002103 108.09605
endloop
endfacet
facet normal 0.117049095981413 0.99312612951726 -0.0
outer loop
vertex -18.1840688295092 14.6566544195693 109.347
vertex -15.9200888483552 14.3898234479152 108.09605
vertex -18.1840688295092 14.6566544195693 108.09605
endloop
endfacet
facet normal 0.117049095981413 0.99312612951726 -0.0
outer loop
vertex -15.9200888483552 14.3898234479152 108.09605
vertex -18.1840688295092 14.6566544195693 109.347
vertex -15.9200888483552 14.3898234479152 109.347
endloop
endfacet
facet normal 0.117049095981413 0.99312612951726 -0.0
outer loop
vertex -32.1878236462229 -13.3188390510623 110.16615
vertex 4.15765699309782 -17.6024899644768 108.09605
vertex -32.1878236462229 -13.3188390510623 108.09605
endloop
endfacet
facet normal 0.117049095981413 0.99312612951726 -0.0
outer loop
vertex 4.15765699309782 -17.6024899644768 108.09605
vertex -32.1878236462229 -13.3188390510623 110.16615
vertex 4.15765699309782 -17.6024899644768 110.16615
endloop
endfacet
facet normal -0.99312612951726 0.117049095981413 0.0
outer loop
vertex -18.1840688295092 14.6566544195693 109.347
vertex -18.8485448424861 9.01877669491272 108.09605
vertex -18.8485448424861 9.01877669491272 109.347
endloop
endfacet
facet normal -0.99312612951726 0.117049095981413 0.0
outer loop
vertex -18.8485448424861 9.01877669491272 108.09605
vertex -18.1840688295092 14.6566544195693 109.347
vertex -18.1840688295092 14.6566544195693 108.09605
endloop
endfacet
facet normal 0.99312612951726 -0.117049095981413 -0.0
outer loop
vertex 9.95495578354978 20.0118193332208 86.0373124755285
vertex 5.34450308948312 -19.106475438641 110.16615
vertex 5.34450308948312 -19.106475438641 86.0373124755285
endloop
endfacet
facet normal 0.99312612951726 -0.117049095981413 -0.0
outer loop
vertex 5.34450308948312 -19.106475438641 110.16615
vertex 9.95495578354978 20.0118193332208 86.0373124755285
vertex 9.95495578354978 20.0118193332208 110.16615
endloop
endfacet
facet normal -0.0 -0.0 1.0
outer loop
vertex -16.584564861332 8.75194572325869 109.347
vertex -18.1840688295092 14.6566544195693 109.347
vertex -18.8485448424861 9.01877669491272 109.347
endloop
endfacet
facet normal -0.0 -0.0 1.0
outer loop
vertex -18.1840688295092 14.6566544195693 109.347
vertex -16.584564861332 8.75194572325869 109.347
vertex -15.9200888483552 14.3898234479152 109.347
endloop
endfacet
facet normal -0.117049095981413 -0.99312612951726 0.0
outer loop
vertex 1.36700771329825 -18.6376908359452 16.7043998028722
vertex -31.0980868353951 -14.8113792981319 14.6787498028722
vertex 1.36700771329825 -18.6376908359452 14.6787498028722
endloop
endfacet
facet normal -0.117049095981413 -0.99312612951726 0.0
outer loop
vertex -31.0980868353951 -14.8113792981319 14.6787498028722
vertex 1.36700771329825 -18.6376908359452 16.7043998028722
vertex -31.0980868353951 -14.8113792981319 16.7043998028722
endloop
endfacet
facet normal 0.117049095981416 0.99312612951726 -0.0
outer loop
vertex -10.0752557742498 12.7281961084409 109.347
vertex -7.6157789145003 12.438324022243 108.09605
vertex -10.0752557742498 12.7281961084409 108.09605
endloop
endfacet
facet normal 0.117049095981416 0.99312612951726 -0.0
outer loop
vertex -7.6157789145003 12.438324022243 108.09605
vertex -10.0752557742498 12.7281961084409 109.347
vertex -7.6157789145003 12.438324022243 109.347
endloop
endfacet
facet normal -0.99312612951726 0.117049095981413 0.0
outer loop
vertex -29.0813564263204 24.6126096244142 9.0250036131451
vertex -33.6918091203871 -14.5056851474476 5.12948915010911e-30
vertex -33.6918091203871 -14.5056851474476 9.0250036131451
endloop
endfacet
facet normal -0.99312612951726 0.117049095981413 0.0
outer loop
vertex -33.6918091203871 -14.5056851474476 5.12948915010911e-30
vertex -29.0813564263204 24.6126096244142 9.0250036131451
vertex -29.0813564263204 24.6126096244142 5.12948915010911e-30
endloop
endfacet
facet normal 0.99312612951726 -0.117049095981413 -0.0
outer loop
vertex 9.50916929098676 16.229455956228 14.9412336161232
vertex 5.68285775317358 -16.2356385924653 16.9668836161232
vertex 5.68285775317358 -16.2356385924653 14.9412336161232
endloop
endfacet
facet normal 0.99312612951726 -0.117049095981413 -0.0
outer loop
vertex 5.68285775317358 -16.2356385924653 16.9668836161232
vertex 9.50916929098676 16.229455956228 14.9412336161232
vertex 9.50916929098676 16.229455956228 16.9668836161232
endloop
endfacet
facet normal -0.99312612951726 0.117049095981413 6.69525072386672e-16
outer loop
vertex -29.4477041227538 21.5042603734789 16.5599561541381
vertex -33.274015660567 -10.9608341752144 14.5343061541381
vertex -33.274015660567 -10.9608341752144 16.5599561541381
endloop
endfacet
facet normal -0.99312612951726 0.117049095981413 6.69525072386672e-16
outer loop
vertex -33.274015660567 -10.9608341752144 14.5343061541381
vertex -29.4477041227538 21.5042603734789 16.5599561541381
vertex -29.4477041227538 21.5042603734789 14.5343061541381
endloop
endfacet
facet normal -0.117049095981413 -0.99312612951726 1.9350176702848e-18
outer loop
vertex 5.34450308948312 -19.106475438641 9.0250036131451
vertex 1.36700771329825 -18.6376908359452 14.6787498028722
vertex -33.6918091203871 -14.5056851474476 9.0250036131451
endloop
endfacet
facet normal -0.117049095981413 -0.99312612951726 1.9350176702848e-18
outer loop
vertex 1.36700771329825 -18.6376908359452 14.6787498028722
vertex 5.34450308948312 -19.106475438641 9.0250036131451
vertex 5.34450308948312 -19.106475438641 86.0373124755285
endloop
endfacet
facet normal -0.117049095981413 -0.99312612951726 1.9350176702848e-18
outer loop
vertex 1.36700771329825 -18.6376908359452 14.6787498028722
vertex 5.34450308948312 -19.106475438641 86.0373124755285
vertex 1.36700771329825 -18.6376908359452 16.7043998028722
endloop
endfacet
facet normal -0.117049095981413 -0.99312612951726 1.9350176702848e-18
outer loop
vertex 1.36700771329825 -18.6376908359452 16.7043998028722
vertex 5.34450308948312 -19.106475438641 86.0373124755285
vertex -31.0980868353951 -14.8113792981319 16.7043998028722
endloop
endfacet
facet normal -0.117049095981413 -0.99312612951726 1.9350176702848e-18
outer loop
vertex -33.6918091203871 -14.5056851474476 9.0250036131451
vertex -31.0980868353951 -14.8113792981319 14.6787498028722
vertex -33.6918091203871 -14.5056851474476 110.16615
endloop
endfacet
facet normal -0.117049095981413 -0.99312612951726 1.9350176702848e-18
outer loop
vertex -31.0980868353951 -14.8113792981319 14.6787498028722
vertex -33.6918091203871 -14.5056851474476 9.0250036131451
vertex 1.36700771329825 -18.6376908359452 14.6787498028722
endloop
endfacet
facet normal -0.117049095981413 -0.99312612951726 1.9350176702848e-18
outer loop
vertex -33.6918091203871 -14.5056851474476 110.16615
vertex -31.0980868353951 -14.8113792981319 14.6787498028722
vertex -31.0980868353951 -14.8113792981319 16.7043998028722
endloop
endfacet
facet normal -0.117049095981413 -0.99312612951726 1.9350176702848e-18
outer loop
vertex -33.6918091203871 -14.5056851474476 110.16615
vertex -31.0980868353951 -14.8113792981319 16.7043998028722
vertex 5.34450308948312 -19.106475438641 86.0373124755285
endloop
endfacet
facet normal -0.117049095981413 -0.99312612951726 1.9350176702848e-18
outer loop
vertex -33.6918091203871 -14.5056851474476 110.16615
vertex 5.34450308948312 -19.106475438641 86.0373124755285
vertex 5.34450308948312 -19.106475438641 110.16615
endloop
endfacet
facet normal -0.117049095981413 -0.99312612951726 0.0
outer loop
vertex 5.34450308948312 -19.106475438641 9.0250036131451
vertex -33.6918091203871 -14.5056851474476 5.12948915010911e-30
vertex 5.34450308948312 -19.106475438641 5.12948915010911e-30
endloop
endfacet
facet normal -0.117049095981413 -0.99312612951726 0.0
outer loop
vertex -33.6918091203871 -14.5056851474476 5.12948915010911e-30
vertex 5.34450308948312 -19.106475438641 9.0250036131451
vertex -33.6918091203871 -14.5056851474476 9.0250036131451
endloop
endfacet
facet normal -0.117049095981411 -0.993126129517261 0.0
outer loop
vertex -12.8149423472559 7.94978769044816 109.347
vertex -14.6753158693741 8.16904990949534 108.09605
vertex -12.8149423472559 7.94978769044816 108.09605
endloop
endfacet
facet normal -0.117049095981411 -0.993126129517261 0.0
outer loop
vertex -14.6753158693741 8.16904990949534 108.09605
vertex -12.8149423472559 7.94978769044816 109.347
vertex -14.6753158693741 8.16904990949534 109.347
endloop
endfacet
facet normal 0.117049095981413 0.99312612951726 -1.61898241024364e-16
outer loop
vertex -29.0813564263204 24.6126096244142 9.0250036131451
vertex 9.95495578354978 20.0118193332208 5.12948915010911e-30
vertex -29.0813564263204 24.6126096244142 5.12948915010911e-30
endloop
endfacet
facet normal 0.117049095981413 0.99312612951726 -1.61898241024364e-16
outer loop
vertex 9.95495578354978 20.0118193332208 5.12948915010911e-30
vertex -29.0813564263204 24.6126096244142 9.0250036131451
vertex 9.9549557835498 20.0118193332208 9.0250036131451
endloop
endfacet
facet normal 0.117049095981414 0.99312612951726 -0.0
outer loop
vertex -4.8578985527145 4.7788957748296 109.347
vertex 3.87009112393499 3.75022149970654 108.09605
vertex -4.8578985527145 4.7788957748296 108.09605
endloop
endfacet
facet normal 0.117049095981414 0.99312612951726 -0.0
outer loop
vertex 3.87009112393499 3.75022149970654 108.09605
vertex -4.8578985527145 4.7788957748296 109.347
vertex 3.87009112393499 3.75022149970654 109.347
endloop
endfacet
facet normal 0.117049095981411 0.993126129517261 -0.0
outer loop
vertex -14.0784766765101 13.2330497002103 109.347
vertex -12.2181031543919 13.0137874811632 108.09605
vertex -14.0784766765101 13.2330497002103 108.09605
endloop
endfacet
facet normal 0.117049095981411 0.993126129517261 -0.0
outer loop
vertex -12.2181031543919 13.0137874811632 108.09605
vertex -14.0784766765101 13.2330497002103 109.347
vertex -12.2181031543919 13.0137874811632 109.347
endloop
endfacet
facet normal 0.99312612951726 -0.117049095981413 -0.0
outer loop
vertex -15.9200888483552 14.3898234479152 108.09605
vertex -16.584564861332 8.75194572325869 109.347
vertex -16.584564861332 8.75194572325869 108.09605
endloop
endfacet
facet normal 0.99312612951726 -0.117049095981413 -0.0
outer loop
vertex -16.584564861332 8.75194572325869 109.347
vertex -15.9200888483552 14.3898234479152 108.09605
vertex -15.9200888483552 14.3898234479152 109.347
endloop
endfacet
facet normal 0.993126129517261 -0.11704909598141 -0.0
outer loop
vertex -12.2181031543919 13.0137874811632 108.09605
vertex -12.8149423472559 7.94978769044816 109.347
vertex -12.8149423472559 7.94978769044816 108.09605
endloop
endfacet
facet normal 0.993126129517261 -0.11704909598141 -0.0
outer loop
vertex -12.8149423472559 7.94978769044816 109.347
vertex -12.2181031543919 13.0137874811632 108.09605
vertex -12.2181031543919 13.0137874811632 109.347
endloop
endfacet
facet normal 0.99312612951726 -0.117049095981413 -0.0
outer loop
vertex -27.8945103299351 23.10862415025 108.09605
vertex -32.1878236462229 -13.3188390510623 110.16615
vertex -32.1878236462229 -13.3188390510623 108.09605
endloop
endfacet
facet normal 0.99312612951726 -0.117049095981413 -0.0
outer loop
vertex -32.1878236462229 -13.3188390510623 110.16615
vertex -27.8945103299351 23.10862415025 108.09605
vertex -27.8945103299351 23.10862415025 110.16615
endloop
endfacet
facet normal -0.99312612951726 0.117049095981413 0.0
outer loop
vertex -29.0813564263204 24.6126096244142 110.16615
vertex -33.6918091203871 -14.5056851474476 9.0250036131451
vertex -33.6918091203871 -14.5056851474476 110.16615
endloop
endfacet
facet normal -0.99312612951726 0.117049095981413 0.0
outer loop
vertex -33.6918091203871 -14.5056851474476 9.0250036131451
vertex -29.0813564263204 24.6126096244142 110.16615
vertex -33.274015660567 -10.9608341752144 16.5599561541381
endloop
endfacet
facet normal -0.99312612951726 0.117049095981413 0.0
outer loop
vertex -33.274015660567 -10.9608341752144 16.5599561541381
vertex -29.0813564263204 24.6126096244142 110.16615
vertex -29.4477041227538 21.5042603734789 16.5599561541381
endloop
endfacet
facet normal -0.99312612951726 0.117049095981413 0.0
outer loop
vertex -29.4477041227538 21.5042603734789 16.5599561541381
vertex -29.0813564263204 24.6126096244142 110.16615
vertex -29.4477041227538 21.5042603734789 14.5343061541381
endloop
endfacet
facet normal -0.99312612951726 0.117049095981413 0.0
outer loop
vertex -33.6918091203871 -14.5056851474476 9.0250036131451
vertex -33.274015660567 -10.9608341752144 14.5343061541381
vertex -29.0813564263204 24.6126096244142 9.0250036131451
endloop
endfacet
facet normal -0.99312612951726 0.117049095981413 0.0
outer loop
vertex -33.274015660567 -10.9608341752144 14.5343061541381
vertex -33.6918091203871 -14.5056851474476 9.0250036131451
vertex -33.274015660567 -10.9608341752144 16.5599561541381
endloop
endfacet
facet normal -0.99312612951726 0.117049095981413 0.0
outer loop
vertex -29.0813564263204 24.6126096244142 9.0250036131451
vertex -33.274015660567 -10.9608341752144 14.5343061541381
vertex -29.4477041227538 21.5042603734789 14.5343061541381
endloop
endfacet
facet normal -0.99312612951726 0.117049095981413 0.0
outer loop
vertex -29.0813564263204 24.6126096244142 9.0250036131451
vertex -29.4477041227538 21.5042603734789 14.5343061541381
vertex -29.0813564263204 24.6126096244142 110.16615
endloop
endfacet
facet normal -0.117049095981413 -0.99312612951726 0.0
outer loop
vertex 8.45097030938557 18.8249732368355 110.16615
vertex -27.8945103299351 23.10862415025 108.09605
vertex 8.45097030938557 18.8249732368355 108.09605
endloop
endfacet
facet normal -0.117049095981413 -0.99312612951726 0.0
outer loop
vertex -27.8945103299351 23.10862415025 108.09605
vertex 8.45097030938557 18.8249732368355 110.16615
vertex -27.8945103299351 23.10862415025 110.16615
endloop
endfacet
facet normal -0.99312612951726 0.117049095981412 0.0
outer loop
vertex 8.45097030938557 18.8249732368355 110.16615
vertex 4.15765699309782 -17.6024899644768 108.09605
vertex 4.15765699309782 -17.6024899644768 110.16615
endloop
endfacet
facet normal -0.99312612951726 0.117049095981412 0.0
outer loop
vertex 4.15765699309782 -17.6024899644768 108.09605
vertex 8.45097030938557 18.8249732368355 110.16615
vertex 8.45097030938557 18.8249732368355 108.09605
endloop
endfacet
facet normal 0.99312612951726 -0.117049095981413 1.5091866088799e-16
outer loop
vertex 5.34450308948312 -19.106475438641 9.0250036131451
vertex 5.68285775317358 -16.2356385924653 14.9412336161232
vertex 5.34450308948312 -19.106475438641 86.0373124755285
endloop
endfacet
facet normal 0.99312612951726 -0.117049095981413 1.5091866088799e-16
outer loop
vertex 5.68285775317358 -16.2356385924653 14.9412336161232
vertex 5.34450308948312 -19.106475438641 9.0250036131451
vertex 9.9549557835498 20.0118193332208 9.0250036131451
endloop
endfacet
facet normal 0.99312612951726 -0.117049095981413 1.5091866088799e-16
outer loop
vertex 5.68285775317358 -16.2356385924653 14.9412336161232
vertex 9.9549557835498 20.0118193332208 9.0250036131451
vertex 9.50916929098676 16.229455956228 14.9412336161232
endloop
endfacet
facet normal 0.99312612951726 -0.117049095981413 1.5091866088799e-16
outer loop
vertex 9.50916929098676 16.229455956228 14.9412336161232
vertex 9.9549557835498 20.0118193332208 9.0250036131451
vertex 9.50916929098676 16.229455956228 16.9668836161232
endloop
endfacet
facet normal 0.99312612951726 -0.117049095981413 1.5091866088799e-16
outer loop
vertex 5.34450308948312 -19.106475438641 86.0373124755285
vertex 5.68285775317358 -16.2356385924653 16.9668836161232
vertex 9.95495578354978 20.0118193332208 86.0373124755285
endloop
endfacet
facet normal 0.99312612951726 -0.117049095981413 1.5091866088799e-16
outer loop
vertex 5.68285775317358 -16.2356385924653 16.9668836161232
vertex 5.34450308948312 -19.106475438641 86.0373124755285
vertex 5.68285775317358 -16.2356385924653 14.9412336161232
endloop
endfacet
facet normal 0.99312612951726 -0.117049095981413 1.5091866088799e-16
outer loop
vertex 9.95495578354978 20.0118193332208 86.0373124755285
vertex 5.68285775317358 -16.2356385924653 16.9668836161232
vertex 9.50916929098676 16.229455956228 16.9668836161232
endloop
endfacet
facet normal 0.99312612951726 -0.117049095981413 1.5091866088799e-16
outer loop
vertex 9.95495578354978 20.0118193332208 86.0373124755285
vertex 9.50916929098676 16.229455956228 16.9668836161232
vertex 9.9549557835498 20.0118193332208 9.0250036131451
endloop
endfacet
facet normal -0.99312612951726 0.117049095981413 0.0
outer loop
vertex -10.0752557742498 12.7281961084409 109.347
vertex -10.6118907645958 8.17501074244313 108.09605
vertex -10.6118907645958 8.17501074244313 109.347
endloop
endfacet
facet normal -0.99312612951726 0.117049095981413 0.0
outer loop
vertex -10.6118907645958 8.17501074244313 108.09605
vertex -10.0752557742498 12.7281961084409 109.347
vertex -10.0752557742498 12.7281961084409 108.09605
endloop
endfacet
facet normal 0.99312612951726 -0.117049095981413 -1.27349501293567e-15
outer loop
vertex 9.95495578354978 20.0118193332208 5.12948915010911e-30
vertex 5.34450308948312 -19.106475438641 9.0250036131451
vertex 5.34450308948312 -19.106475438641 5.12948915010911e-30
endloop
endfacet
facet normal 0.99312612951726 -0.117049095981413 -1.27349501293567e-15
outer loop
vertex 5.34450308948312 -19.106475438641 9.0250036131451
vertex 9.95495578354978 20.0118193332208 5.12948915010911e-30
vertex 9.9549557835498 20.0118193332208 9.0250036131451
endloop
endfacet
facet normal 0.993126129517261 -0.117049095981406 -0.0
outer loop
vertex 3.87009112393499 3.75022149970654 108.09605
vertex 3.71103310740586 2.40066240230555 109.347
vertex 3.71103310740586 2.40066240230555 108.09605
endloop
endfacet
facet normal 0.993126129517261 -0.117049095981406 -0.0
outer loop
vertex 3.71103310740586 2.40066240230555 109.347
vertex 3.87009112393499 3.75022149970654 108.09605
vertex 3.87009112393499 3.75022149970654 109.347
endloop
endfacet
facet normal -0.0 -0.0 1.0
outer loop
vertex -12.8149423472559 7.94978769044816 109.347
vertex -14.0784766765101 13.2330497002103 109.347
vertex -14.6753158693741 8.16904990949534 109.347
endloop
endfacet
facet normal -0.0 -0.0 1.0
outer loop
vertex -14.0784766765101 13.2330497002103 109.347
vertex -12.8149423472559 7.94978769044816 109.347
vertex -12.2181031543919 13.0137874811632 109.347
endloop
endfacet
facet normal 0.117049095981413 0.99312612951726 1.61251472523733e-17
outer loop
vertex -29.0813564263204 24.6126096244142 110.16615
vertex 9.9549557835498 20.0118193332208 9.0250036131451
vertex -29.0813564263204 24.6126096244142 9.0250036131451
endloop
endfacet
facet normal 0.117049095981413 0.99312612951726 1.61251472523733e-17
outer loop
vertex 9.9549557835498 20.0118193332208 9.0250036131451
vertex -29.0813564263204 24.6126096244142 110.16615
vertex 9.95495578354978 20.0118193332208 86.0373124755285
endloop
endfacet
facet normal 0.117049095981413 0.99312612951726 1.61251472523733e-17
outer loop
vertex 9.95495578354978 20.0118193332208 86.0373124755285
vertex -29.0813564263204 24.6126096244142 110.16615
vertex 9.95495578354978 20.0118193332208 110.16615
endloop
endfacet
facet normal 0.0 0.0 -1.0
outer loop
vertex -29.0813564263204 24.6126096244142 9.0250036131451
vertex 5.34450308948312 -19.106475438641 9.0250036131451
vertex -33.6918091203871 -14.5056851474476 9.0250036131451
endloop
endfacet
facet normal 0.0 0.0 -1.0
outer loop
vertex 5.34450308948312 -19.106475438641 9.0250036131451
vertex -29.0813564263204 24.6126096244142 9.0250036131451
vertex 9.9549557835498 20.0118193332208 9.0250036131451
endloop
endfacet
endsolid Meidinger Tower
