solid Aegon Center parking garage
facet normal 0.992114701314479 -0.125333233564295 -0.0
outer loop
vertex 27.0014676878756 59.3002313619606 -1.11182237899076e-19
vertex 26.4897258285709 55.2493774307584 16.12265
vertex 26.4897258285709 55.2493774307584 -1.11182237899076e-19
endloop
endfacet
facet normal 0.992114701314479 -0.125333233564295 -0.0
outer loop
vertex 26.4897258285709 55.2493774307584 16.12265
vertex 27.0014676878756 59.3002313619606 -1.11182237899076e-19
vertex 27.0014676878756 59.3002313619606 16.12265
endloop
endfacet
facet normal 0.992114701314477 -0.12533323356431 4.54130094188542e-15
outer loop
vertex 16.9485362163583 60.5702119463187 16.12265
vertex 16.8084637945268 59.4614245561295 17.34185
vertex 16.8084637945268 59.4614245561295 16.12265
endloop
endfacet
facet normal 0.992114701314477 -0.12533323356431 4.54130094188542e-15
outer loop
vertex 16.8084637945268 59.4614245561295 17.34185
vertex 16.9485362163583 60.5702119463187 16.12265
vertex 17.0058385707439 61.0238067877596 17.34185
endloop
endfacet
facet normal 0.992114701314477 -0.12533323356431 4.54130094188542e-15
outer loop
vertex 17.0058385707439 61.0238067877596 17.34185
vertex 16.9485362163583 60.5702119463187 16.12265
vertex 17.0058385707439 61.0238067877596 16.12265
endloop
endfacet
facet normal -0.125333233564304 -0.992114701314478 5.71618796510277e-19
outer loop
vertex 16.0493945887916 -66.538334580916 5.80049788504113e-15
vertex -19.6585993179788 -62.0273659051163 16.12265
vertex -19.6585993179788 -62.0273659051163 2.52065287830338e-17
endloop
endfacet
facet normal -0.125333233564304 -0.992114701314478 5.71618796510277e-19
outer loop
vertex -19.6585993179788 -62.0273659051163 16.12265
vertex 16.0493945887916 -66.538334580916 5.80049788504113e-15
vertex 16.0493945887916 -66.538334580916 16.12265
endloop
endfacet
facet normal 0.1253332335643 0.992114701314478 -0.0
outer loop
vertex 15.1915366663138 61.2530064196598 -7.1470319893812e-17
vertex 17.0058385707439 61.0238067877596 16.12265
vertex 17.0058385707439 61.0238067877596 -8.16446047831841e-17
endloop
endfacet
facet normal 0.1253332335643 0.992114701314478 -0.0
outer loop
vertex 17.0058385707439 61.0238067877596 16.12265
vertex 15.1915366663138 61.2530064196598 -7.1470319893812e-17
vertex 15.1915366663138 61.2530064196598 17.34185
endloop
endfacet
facet normal 0.1253332335643 0.992114701314478 -0.0
outer loop
vertex 17.0058385707439 61.0238067877596 16.12265
vertex 15.1915366663138 61.2530064196598 17.34185
vertex 17.0058385707439 61.0238067877596 17.34185
endloop
endfacet
facet normal 0.992114701314478 -0.125333233564305 -2.85809398255298e-19
outer loop
vertex 31.3570818700781 54.6344873673589 -1.11182237899076e-19
vertex 27.2459598302051 22.0916054942663 16.12265
vertex 27.2459598302051 22.0916054942663 2.48211167028218e-15
endloop
endfacet
facet normal 0.992114701314478 -0.125333233564305 -2.85809398255298e-19
outer loop
vertex 27.2459598302051 22.0916054942663 16.12265
vertex 31.3570818700781 54.6344873673589 -1.11182237899076e-19
vertex 31.3570818700781 54.6344873673589 16.12265
endloop
endfacet
facet normal 0.125333233564303 0.992114701314478 -0.0
outer loop
vertex 26.4897258285709 55.2493774307584 16.12265
vertex 31.3570818700781 54.6344873673589 -1.11182237899076e-19
vertex 26.4897258285709 55.2493774307584 -1.11182237899076e-19
endloop
endfacet
facet normal 0.125333233564303 0.992114701314478 -0.0
outer loop
vertex 31.3570818700781 54.6344873673589 -1.11182237899076e-19
vertex 26.4897258285709 55.2493774307584 16.12265
vertex 31.3570818700781 54.6344873673589 16.12265
endloop
endfacet
facet normal 0.125333233564296 0.992114701314479 -0.0
outer loop
vertex -12.6401700870133 64.3081348226479 16.12265
vertex -1.60130603026885 62.9136019876084 9.63048807870789e-17
vertex -12.6401700870133 64.3081348226479 -1.11182237899076e-19
endloop
endfacet
facet normal 0.125333233564296 0.992114701314479 -0.0
outer loop
vertex -1.60130603026885 62.9136019876084 9.63048807870789e-17
vertex -12.6401700870133 64.3081348226479 16.12265
vertex -1.60130603026885 62.9136019876084 16.12265
endloop
endfacet
facet normal 4.904725914292e-17 -3.59788907696654e-17 -1.0
outer loop
vertex -12.6401700870133 64.3081348226479 -1.11182237899076e-19
vertex -11.6999389866456 0.971917628353055 -1.11182237899076e-19
vertex -20.5009388962712 2.08374247664035 -1.11182237899076e-19
endloop
endfacet
facet normal 4.904725914292e-17 -3.59788907696654e-17 -1.0
outer loop
vertex -11.6999389866456 0.971917628353055 -1.11182237899076e-19
vertex -12.6401700870133 64.3081348226479 -1.11182237899076e-19
vertex -1.60130603026885 62.9136019876084 9.63048807870789e-17
endloop
endfacet
facet normal 4.904725914292e-17 -3.59788907696654e-17 -1.0
outer loop
vertex -11.6999389866456 0.971917628353055 -1.11182237899076e-19
vertex 16.0493945887916 -66.538334580916 5.80049788504113e-15
vertex -19.6585993179788 -62.0273659051163 2.52065287830338e-17
endloop
endfacet
facet normal 4.904725914292e-17 -3.59788907696654e-17 -1.0
outer loop
vertex 16.0493945887916 -66.538334580916 5.80049788504113e-15
vertex -11.6999389866456 0.971917628353055 -1.11182237899076e-19
vertex -1.60130603026885 62.9136019876084 9.63048807870789e-17
endloop
endfacet
facet normal 4.904725914292e-17 -3.59788907696654e-17 -1.0
outer loop
vertex 16.0493945887916 -66.538334580916 5.80049788504113e-15
vertex -1.60130603026885 62.9136019876084 9.63048807870789e-17
vertex 0.212995874161313 62.6844023557081 8.61305958976965e-17
endloop
endfacet
facet normal 4.904725914292e-17 -3.59788907696654e-17 -1.0
outer loop
vertex 16.0493945887916 -66.538334580916 5.80049788504113e-15
vertex 0.212995874161313 62.6844023557081 8.61305958976965e-17
vertex 15.1342343119283 60.7994115782188 1.00631026514731e-17
endloop
endfacet
facet normal 4.904725914292e-17 -3.59788907696654e-17 -1.0
outer loop
vertex 16.0493945887916 -66.538334580916 5.80049788504113e-15
vertex 15.1342343119283 60.7994115782188 1.00631026514731e-17
vertex 15.1915366663138 61.2530064196598 -7.1470319893812e-17
endloop
endfacet
facet normal 4.904725914292e-17 -3.59788907696654e-17 -1.0
outer loop
vertex 16.0493945887916 -66.538334580916 5.80049788504113e-15
vertex 15.1915366663138 61.2530064196598 -7.1470319893812e-17
vertex 16.9485362163583 60.5702119463187 -1.11182237899076e-19
endloop
endfacet
facet normal 4.904725914292e-17 -3.59788907696654e-17 -1.0
outer loop
vertex 16.9485362163583 60.5702119463187 -1.11182237899076e-19
vertex 15.1915366663138 61.2530064196598 -7.1470319893812e-17
vertex 17.0058385707439 61.0238067877596 -8.16446047831841e-17
endloop
endfacet
facet normal 4.904725914292e-17 -3.59788907696654e-17 -1.0
outer loop
vertex 16.9485362163583 60.5702119463187 -1.11182237899076e-19
vertex 21.886027608295 -20.3366268602269 4.92297747262602e-15
vertex 16.0493945887916 -66.538334580916 5.80049788504113e-15
endloop
endfacet
facet normal 4.904725914292e-17 -3.59788907696654e-17 -1.0
outer loop
vertex 21.886027608295 -20.3366268602269 4.92297747262602e-15
vertex 16.9485362163583 60.5702119463187 -1.11182237899076e-19
vertex 26.4897258285709 55.2493774307584 -1.11182237899076e-19
endloop
endfacet
facet normal 4.904725914292e-17 -3.59788907696654e-17 -1.0
outer loop
vertex 26.4897258285709 55.2493774307584 -1.11182237899076e-19
vertex 16.9485362163583 60.5702119463187 -1.11182237899076e-19
vertex 27.0014676878756 59.3002313619606 -1.11182237899076e-19
endloop
endfacet
facet normal 4.904725914292e-17 -3.59788907696654e-17 -1.0
outer loop
vertex 26.4897258285709 55.2493774307584 -1.11182237899076e-19
vertex 27.2459598302051 22.0916054942663 2.48211167028218e-15
vertex 21.886027608295 -20.3366268602269 4.92297747262602e-15
endloop
endfacet
facet normal 4.904725914292e-17 -3.59788907696654e-17 -1.0
outer loop
vertex 27.2459598302051 22.0916054942663 2.48211167028218e-15
vertex 26.4897258285709 55.2493774307584 -1.11182237899076e-19
vertex 31.3570818700781 54.6344873673589 -1.11182237899076e-19
endloop
endfacet
facet normal -0.992114701314478 0.125333233564303 3.75431429215254e-16
outer loop
vertex -13.6373850848325 -14.3645474284544 16.12265
vertex -19.6585993179788 -62.0273659051163 2.52065287830338e-17
vertex -19.6585993179788 -62.0273659051163 16.12265
endloop
endfacet
facet normal -0.992114701314478 0.125333233564303 3.75431429215254e-16
outer loop
vertex -19.6585993179788 -62.0273659051163 2.52065287830338e-17
vertex -13.6373850848325 -14.3645474284544 16.12265
vertex -11.6999389866456 0.971917628353055 -1.11182237899076e-19
endloop
endfacet
facet normal -0.992114701314478 0.125333233564303 3.75431429215254e-16
outer loop
vertex -11.6999389866456 0.971917628353055 -1.11182237899076e-19
vertex -13.6373850848325 -14.3645474284544 16.12265
vertex -11.6999389866456 0.971917628353055 16.12265
endloop
endfacet
facet normal 0.992114701314496 -0.12533323356416 -0.0
outer loop
vertex 0.270298228546839 63.137997197149 4.59717335241141e-18
vertex 0.212995874161313 62.6844023557081 17.34185
vertex 0.212995874161313 62.6844023557081 8.61305958976965e-17
endloop
endfacet
facet normal 0.992114701314496 -0.12533323356416 -0.0
outer loop
vertex 0.212995874161313 62.6844023557081 17.34185
vertex 0.270298228546839 63.137997197149 4.59717335241141e-18
vertex 0.270298228546839 63.137997197149 17.34185
endloop
endfacet
facet normal 0.1253332335643 0.992114701314478 -0.0
outer loop
vertex 16.9485362163583 60.5702119463187 -1.11182237899076e-19
vertex 18.8672969368569 60.3278160971113 6.35496630960212
vertex 27.0014676878756 59.3002313619606 -1.11182237899076e-19
endloop
endfacet
facet normal 0.1253332335643 0.992114701314478 -0.0
outer loop
vertex 18.8672969368569 60.3278160971113 6.35496630960212
vertex 16.9485362163583 60.5702119463187 -1.11182237899076e-19
vertex 16.9485362163583 60.5702119463187 16.12265
endloop
endfacet
facet normal 0.1253332335643 0.992114701314478 -0.0
outer loop
vertex 18.8672969368569 60.3278160971113 6.35496630960212
vertex 16.9485362163583 60.5702119463187 16.12265
vertex 18.8672969368569 60.3278160971113 12.6795663096021
endloop
endfacet
facet normal 0.1253332335643 0.992114701314478 -0.0
outer loop
vertex 18.8672969368569 60.3278160971113 12.6795663096021
vertex 16.9485362163583 60.5702119463187 16.12265
vertex 24.2159361088485 59.6521258349811 12.6795663096021
endloop
endfacet
facet normal 0.1253332335643 0.992114701314478 -0.0
outer loop
vertex 27.0014676878756 59.3002313619606 -1.11182237899076e-19
vertex 24.2159361088485 59.6521258349811 6.35496630960212
vertex 27.0014676878756 59.3002313619606 16.12265
endloop
endfacet
facet normal 0.1253332335643 0.992114701314478 -0.0
outer loop
vertex 24.2159361088485 59.6521258349811 6.35496630960212
vertex 27.0014676878756 59.3002313619606 -1.11182237899076e-19
vertex 18.8672969368569 60.3278160971113 6.35496630960212
endloop
endfacet
facet normal 0.1253332335643 0.992114701314478 -0.0
outer loop
vertex 27.0014676878756 59.3002313619606 16.12265
vertex 24.2159361088485 59.6521258349811 6.35496630960212
vertex 24.2159361088485 59.6521258349811 12.6795663096021
endloop
endfacet
facet normal 0.1253332335643 0.992114701314478 -0.0
outer loop
vertex 27.0014676878756 59.3002313619606 16.12265
vertex 24.2159361088485 59.6521258349811 12.6795663096021
vertex 16.9485362163583 60.5702119463187 16.12265
endloop
endfacet
facet normal 0.125333233564381 0.992114701314468 -0.0
outer loop
vertex -1.54400367588317 63.3671968290494 1.47714582417835e-17
vertex 0.270298228546839 63.137997197149 17.34185
vertex 0.270298228546839 63.137997197149 4.59717335241141e-18
endloop
endfacet
facet normal 0.125333233564381 0.992114701314468 -0.0
outer loop
vertex 0.270298228546839 63.137997197149 17.34185
vertex -1.54400367588317 63.3671968290494 1.47714582417835e-17
vertex -1.54400367588317 63.3671968290494 17.34185
endloop
endfacet
facet normal -0.0 -0.0 1.0
outer loop
vertex 16.8084637945268 59.4614245561295 17.34185
vertex -1.60130603026885 62.9136019876084 17.34185
vertex -1.74137845210025 61.8048145974192 17.34185
endloop
endfacet
facet normal -0.0 -0.0 1.0
outer loop
vertex -1.60130603026885 62.9136019876084 17.34185
vertex 16.8084637945268 59.4614245561295 17.34185
vertex 0.212995874161313 62.6844023557081 17.34185
endloop
endfacet
facet normal -0.0 -0.0 1.0
outer loop
vertex -1.60130603026885 62.9136019876084 17.34185
vertex 0.212995874161313 62.6844023557081 17.34185
vertex -1.54400367588317 63.3671968290494 17.34185
endloop
endfacet
facet normal -0.0 -0.0 1.0
outer loop
vertex 0.212995874161313 62.6844023557081 17.34185
vertex 16.8084637945268 59.4614245561295 17.34185
vertex 15.1342343119283 60.7994115782188 17.34185
endloop
endfacet
facet normal -0.0 -0.0 1.0
outer loop
vertex 15.1342343119283 60.7994115782188 17.34185
vertex 16.8084637945268 59.4614245561295 17.34185
vertex 15.1915366663138 61.2530064196598 17.34185
endloop
endfacet
facet normal -0.0 -0.0 1.0
outer loop
vertex 15.1915366663138 61.2530064196598 17.34185
vertex 16.8084637945268 59.4614245561295 17.34185
vertex 17.0058385707439 61.0238067877596 17.34185
endloop
endfacet
facet normal -0.0 -0.0 1.0
outer loop
vertex 0.270298228546839 63.137997197149 17.34185
vertex -1.54400367588317 63.3671968290494 17.34185
vertex 0.212995874161313 62.6844023557081 17.34185
endloop
endfacet
facet normal -0.992114701314457 0.12533323356447 -7.20598040852378e-20
outer loop
vertex -1.54400367588317 63.3671968290494 17.34185
vertex -1.60130603026885 62.9136019876084 16.12265
vertex -1.60130603026885 62.9136019876084 17.34185
endloop
endfacet
facet normal -0.992114701314457 0.12533323356447 -7.20598040852378e-20
outer loop
vertex -1.60130603026885 62.9136019876084 16.12265
vertex -1.54400367588317 63.3671968290494 17.34185
vertex -1.60130603026885 62.9136019876084 9.63048807870789e-17
endloop
endfacet
facet normal -0.992114701314457 0.12533323356447 -7.20598040852378e-20
outer loop
vertex -1.60130603026885 62.9136019876084 9.63048807870789e-17
vertex -1.54400367588317 63.3671968290494 17.34185
vertex -1.54400367588317 63.3671968290494 1.47714582417835e-17
endloop
endfacet
facet normal -0.992114701314478 0.125333233564304 0.0
outer loop
vertex -12.6401700870133 64.3081348226479 16.12265
vertex -20.5009388962712 2.08374247664035 -1.11182237899076e-19
vertex -20.5009388962712 2.08374247664035 16.12265
endloop
endfacet
facet normal -0.992114701314478 0.125333233564304 0.0
outer loop
vertex -20.5009388962712 2.08374247664035 -1.11182237899076e-19
vertex -12.6401700870133 64.3081348226479 16.12265
vertex -12.6401700870133 64.3081348226479 -1.11182237899076e-19
endloop
endfacet
facet normal -0.125333233564302 -0.992114701314478 0.0
outer loop
vertex 16.8084637945268 59.4614245561295 17.34185
vertex -1.74137845210025 61.8048145974192 16.12265
vertex 16.8084637945268 59.4614245561295 16.12265
endloop
endfacet
facet normal -0.125333233564302 -0.992114701314478 0.0
outer loop
vertex -1.74137845210025 61.8048145974192 16.12265
vertex 16.8084637945268 59.4614245561295 17.34185
vertex -1.74137845210025 61.8048145974192 17.34185
endloop
endfacet
facet normal 0.125333233564308 0.992114701314478 -0.0
outer loop
vertex 0.212995874161313 62.6844023557081 8.61305958976965e-17
vertex 15.1342343119283 60.7994115782188 17.34185
vertex 15.1342343119283 60.7994115782188 1.00631026514731e-17
endloop
endfacet
facet normal 0.125333233564308 0.992114701314478 -0.0
outer loop
vertex 15.1342343119283 60.7994115782188 17.34185
vertex 0.212995874161313 62.6844023557081 8.61305958976965e-17
vertex 0.212995874161313 62.6844023557081 17.34185
endloop
endfacet
facet normal 0.992114701314478 -0.125333233564304 -1.96095385766198e-17
outer loop
vertex 27.2459598302051 22.0916054942663 2.48211167028218e-15
vertex 21.886027608295 -20.3366268602269 16.12265
vertex 21.886027608295 -20.3366268602269 4.92297747262602e-15
endloop
endfacet
facet normal 0.992114701314478 -0.125333233564304 -1.96095385766198e-17
outer loop
vertex 21.886027608295 -20.3366268602269 16.12265
vertex 27.2459598302051 22.0916054942663 2.48211167028218e-15
vertex 22.0706088219379 -18.8755161042541 16.12265
endloop
endfacet
facet normal 0.992114701314478 -0.125333233564304 -1.96095385766198e-17
outer loop
vertex 22.0706088219379 -18.8755161042541 16.12265
vertex 27.2459598302051 22.0916054942663 2.48211167028218e-15
vertex 27.2459598302051 22.0916054942663 16.12265
endloop
endfacet
facet normal -0.992114701314486 0.125333233564237 0.0
outer loop
vertex -1.60130603026885 62.9136019876084 17.34185
vertex -1.74137845210025 61.8048145974192 16.12265
vertex -1.74137845210025 61.8048145974192 17.34185
endloop
endfacet
facet normal -0.992114701314486 0.125333233564237 0.0
outer loop
vertex -1.74137845210025 61.8048145974192 16.12265
vertex -1.60130603026885 62.9136019876084 17.34185
vertex -1.60130603026885 62.9136019876084 16.12265
endloop
endfacet
facet normal -0.125333233564308 -0.992114701314478 0.0
outer loop
vertex -11.6999389866456 0.971917628353055 16.12265
vertex -20.5009388962712 2.08374247664035 -1.11182237899076e-19
vertex -11.6999389866456 0.971917628353055 -1.11182237899076e-19
endloop
endfacet
facet normal -0.125333233564308 -0.992114701314478 0.0
outer loop
vertex -20.5009388962712 2.08374247664035 -1.11182237899076e-19
vertex -11.6999389866456 0.971917628353055 16.12265
vertex -20.5009388962712 2.08374247664035 16.12265
endloop
endfacet
facet normal 0.992114701314482 -0.125333233564272 -2.97718123174914e-21
outer loop
vertex 17.0058385707439 61.0238067877596 -8.16446047831841e-17
vertex 16.9485362163583 60.5702119463187 16.12265
vertex 16.9485362163583 60.5702119463187 -1.11182237899076e-19
endloop
endfacet
facet normal 0.992114701314482 -0.125333233564272 -2.97718123174914e-21
outer loop
vertex 16.9485362163583 60.5702119463187 16.12265
vertex 17.0058385707439 61.0238067877596 -8.16446047831841e-17
vertex 17.0058385707439 61.0238067877596 16.12265
endloop
endfacet
facet normal -0.0 -0.0 1.0
outer loop
vertex 27.2459598302051 22.0916054942663 16.12265
vertex 26.4897258285709 55.2493774307584 16.12265
vertex 22.0706088219379 -18.8755161042541 16.12265
endloop
endfacet
facet normal -0.0 -0.0 1.0
outer loop
vertex 26.4897258285709 55.2493774307584 16.12265
vertex 27.2459598302051 22.0916054942663 16.12265
vertex 31.3570818700781 54.6344873673589 16.12265
endloop
endfacet
facet normal -0.0 -0.0 1.0
outer loop
vertex 22.0706088219379 -18.8755161042541 16.12265
vertex -11.6999389866456 0.971917628353055 16.12265
vertex -13.6373850848325 -14.3645474284544 16.12265
endloop
endfacet
facet normal -0.0 -0.0 1.0
outer loop
vertex -11.6999389866456 0.971917628353055 16.12265
vertex 22.0706088219379 -18.8755161042541 16.12265
vertex -1.74137845210025 61.8048145974192 16.12265
endloop
endfacet
facet normal -0.0 -0.0 1.0
outer loop
vertex -1.74137845210025 61.8048145974192 16.12265
vertex 22.0706088219379 -18.8755161042541 16.12265
vertex 16.8084637945268 59.4614245561295 16.12265
endloop
endfacet
facet normal -0.0 -0.0 1.0
outer loop
vertex 16.8084637945268 59.4614245561295 16.12265
vertex 22.0706088219379 -18.8755161042541 16.12265
vertex 16.9485362163583 60.5702119463187 16.12265
endloop
endfacet
facet normal -0.0 -0.0 1.0
outer loop
vertex 16.9485362163583 60.5702119463187 16.12265
vertex 22.0706088219379 -18.8755161042541 16.12265
vertex 26.4897258285709 55.2493774307584 16.12265
endloop
endfacet
facet normal -0.0 -0.0 1.0
outer loop
vertex 16.9485362163583 60.5702119463187 16.12265
vertex 26.4897258285709 55.2493774307584 16.12265
vertex 27.0014676878756 59.3002313619606 16.12265
endloop
endfacet
facet normal -0.0 -0.0 1.0
outer loop
vertex -11.6999389866456 0.971917628353055 16.12265
vertex -12.6401700870133 64.3081348226479 16.12265
vertex -20.5009388962712 2.08374247664035 16.12265
endloop
endfacet
facet normal -0.0 -0.0 1.0
outer loop
vertex -12.6401700870133 64.3081348226479 16.12265
vertex -11.6999389866456 0.971917628353055 16.12265
vertex -1.60130603026885 62.9136019876084 16.12265
endloop
endfacet
facet normal -0.0 -0.0 1.0
outer loop
vertex -1.60130603026885 62.9136019876084 16.12265
vertex -11.6999389866456 0.971917628353055 16.12265
vertex -1.74137845210025 61.8048145974192 16.12265
endloop
endfacet
facet normal -0.992114701314512 0.125333233564035 0.0
outer loop
vertex 15.1915366663138 61.2530064196598 17.34185
vertex 15.1342343119283 60.7994115782188 1.00631026514731e-17
vertex 15.1342343119283 60.7994115782188 17.34185
endloop
endfacet
facet normal -0.992114701314512 0.125333233564035 0.0
outer loop
vertex 15.1342343119283 60.7994115782188 1.00631026514731e-17
vertex 15.1915366663138 61.2530064196598 17.34185
vertex 15.1915366663138 61.2530064196598 -7.1470319893812e-17
endloop
endfacet
facet normal 0.125333233564301 0.992114701314478 2.94162769975453e-17
outer loop
vertex 18.8672969368569 60.3278160971113 12.6795663096021
vertex 24.2159361088485 59.6521258349811 6.35496630960212
vertex 18.8672969368569 60.3278160971113 6.35496630960212
endloop
endfacet
facet normal 0.125333233564301 0.992114701314478 2.94162769975453e-17
outer loop
vertex 24.2159361088485 59.6521258349811 6.35496630960212
vertex 18.8672969368569 60.3278160971113 12.6795663096021
vertex 24.2159361088485 59.6521258349811 12.6795663096021
endloop
endfacet
facet normal 0.992114701314478 -0.125333233564304 -1.81067694913257e-17
outer loop
vertex 16.0493945887916 -66.538334580916 5.80049788504113e-15
vertex 16.9089152837198 -59.7345276952917 4.66267965192106
vertex 16.0493945887916 -66.538334580916 16.12265
endloop
endfacet
facet normal 0.992114701314478 -0.125333233564304 -1.81067694913257e-17
outer loop
vertex 16.9089152837198 -59.7345276952917 4.66267965192106
vertex 16.0493945887916 -66.538334580916 5.80049788504113e-15
vertex 21.886027608295 -20.3366268602269 4.92297747262602e-15
endloop
endfacet
facet normal 0.992114701314478 -0.125333233564304 -1.81067694913257e-17
outer loop
vertex 16.9089152837198 -59.7345276952917 4.66267965192106
vertex 21.886027608295 -20.3366268602269 4.92297747262602e-15
vertex 17.9224506769151 -51.7115689373044 4.66267965192106
endloop
endfacet
facet normal 0.992114701314478 -0.125333233564304 -1.81067694913257e-17
outer loop
vertex 17.9224506769151 -51.7115689373044 4.66267965192106
vertex 21.886027608295 -20.3366268602269 4.92297747262602e-15
vertex 18.5982690148264 -46.3619159411129 4.79788382773518
endloop
endfacet
facet normal 0.992114701314478 -0.125333233564304 -1.81067694913257e-17
outer loop
vertex 17.9224506769151 -51.7115689373044 4.66267965192106
vertex 18.5982690148264 -46.3619159411129 4.79788382773518
vertex 17.9224506769151 -51.7115689373044 14.1495796519211
endloop
endfacet
facet normal 0.992114701314478 -0.125333233564304 -1.81067694913257e-17
outer loop
vertex 18.5982690148264 -46.3619159411129 4.79788382773518
vertex 21.886027608295 -20.3366268602269 4.92297747262602e-15
vertex 19.6118044080216 -38.3389571831255 4.79788382773518
endloop
endfacet
facet normal 0.992114701314478 -0.125333233564304 -1.81067694913257e-17
outer loop
vertex 19.6118044080216 -38.3389571831255 4.79788382773518
vertex 21.886027608295 -20.3366268602269 4.92297747262602e-15
vertex 20.3091696480628 -32.8187428939479 4.82327413478718
endloop
endfacet
facet normal 0.992114701314478 -0.125333233564304 -1.81067694913257e-17
outer loop
vertex 19.6118044080216 -38.3389571831255 4.79788382773518
vertex 20.3091696480628 -32.8187428939479 4.82327413478718
vertex 19.6118044080216 -38.3389571831255 14.2847838277352
endloop
endfacet
facet normal 0.992114701314478 -0.125333233564304 -1.81067694913257e-17
outer loop
vertex 20.3091696480628 -32.8187428939479 4.82327413478718
vertex 21.886027608295 -20.3366268602269 4.92297747262602e-15
vertex 21.3227050412581 -24.7957841359606 4.82327413478718
endloop
endfacet
facet normal 0.992114701314478 -0.125333233564304 -1.81067694913257e-17
outer loop
vertex 21.3227050412581 -24.7957841359606 4.82327413478718
vertex 21.886027608295 -20.3366268602269 4.92297747262602e-15
vertex 21.3227050412581 -24.7957841359606 14.3101741347872
endloop
endfacet
facet normal 0.992114701314478 -0.125333233564304 -1.81067694913257e-17
outer loop
vertex 16.0493945887916 -66.538334580916 16.12265
vertex 16.9089152837198 -59.7345276952917 14.1495796519211
vertex 21.886027608295 -20.3366268602269 16.12265
endloop
endfacet
facet normal 0.992114701314478 -0.125333233564304 -1.81067694913257e-17
outer loop
vertex 16.9089152837198 -59.7345276952917 14.1495796519211
vertex 16.0493945887916 -66.538334580916 16.12265
vertex 16.9089152837198 -59.7345276952917 4.66267965192106
endloop
endfacet
facet normal 0.992114701314478 -0.125333233564304 -1.81067694913257e-17
outer loop
vertex 21.886027608295 -20.3366268602269 16.12265
vertex 16.9089152837198 -59.7345276952917 14.1495796519211
vertex 17.9224506769151 -51.7115689373044 14.1495796519211
endloop
endfacet
facet normal 0.992114701314478 -0.125333233564304 -1.81067694913257e-17
outer loop
vertex 21.886027608295 -20.3366268602269 16.12265
vertex 17.9224506769151 -51.7115689373044 14.1495796519211
vertex 18.5982690148264 -46.3619159411129 14.2847838277352
endloop
endfacet
facet normal 0.992114701314478 -0.125333233564304 -1.81067694913257e-17
outer loop
vertex 18.5982690148264 -46.3619159411129 14.2847838277352
vertex 17.9224506769151 -51.7115689373044 14.1495796519211
vertex 18.5982690148264 -46.3619159411129 4.79788382773518
endloop
endfacet
facet normal 0.992114701314478 -0.125333233564304 -1.81067694913257e-17
outer loop
vertex 21.886027608295 -20.3366268602269 16.12265
vertex 18.5982690148264 -46.3619159411129 14.2847838277352
vertex 19.6118044080216 -38.3389571831255 14.2847838277352
endloop
endfacet
facet normal 0.992114701314478 -0.125333233564304 -1.81067694913257e-17
outer loop
vertex 21.886027608295 -20.3366268602269 16.12265
vertex 19.6118044080216 -38.3389571831255 14.2847838277352
vertex 20.3091696480628 -32.8187428939479 14.3101741347872
endloop
endfacet
facet normal 0.992114701314478 -0.125333233564304 -1.81067694913257e-17
outer loop
vertex 20.3091696480628 -32.8187428939479 14.3101741347872
vertex 19.6118044080216 -38.3389571831255 14.2847838277352
vertex 20.3091696480628 -32.8187428939479 4.82327413478718
endloop
endfacet
facet normal 0.992114701314478 -0.125333233564304 -1.81067694913257e-17
outer loop
vertex 21.886027608295 -20.3366268602269 16.12265
vertex 20.3091696480628 -32.8187428939479 14.3101741347872
vertex 21.3227050412581 -24.7957841359606 14.3101741347872
endloop
endfacet
facet normal 0.992114701314478 -0.125333233564304 -1.81067694913257e-17
outer loop
vertex 21.886027608295 -20.3366268602269 16.12265
vertex 21.3227050412581 -24.7957841359606 14.3101741347872
vertex 21.886027608295 -20.3366268602269 4.92297747262602e-15
endloop
endfacet
facet normal -0.0 -0.0 1.0
outer loop
vertex 16.0493945887916 -66.538334580916 16.12265
vertex -13.6373850848325 -14.3645474284544 16.12265
vertex -19.6585993179788 -62.0273659051163 16.12265
endloop
endfacet
facet normal -0.0 -0.0 1.0
outer loop
vertex -13.6373850848325 -14.3645474284544 16.12265
vertex 16.0493945887916 -66.538334580916 16.12265
vertex 21.886027608295 -20.3366268602269 16.12265
endloop
endfacet
facet normal -0.0 -0.0 1.0
outer loop
vertex -13.6373850848325 -14.3645474284544 16.12265
vertex 21.886027608295 -20.3366268602269 16.12265
vertex 22.0706088219379 -18.8755161042541 16.12265
endloop
endfacet
facet normal 0.992114701314478 -0.125333233564305 1.50408184037114e-18
outer loop
vertex 17.9224506769151 -51.7115689373044 4.66267965192106
vertex 16.9089152837198 -59.7345276952917 14.1495796519211
vertex 16.9089152837198 -59.7345276952917 4.66267965192106
endloop
endfacet
facet normal 0.992114701314478 -0.125333233564305 1.50408184037114e-18
outer loop
vertex 16.9089152837198 -59.7345276952917 14.1495796519211
vertex 17.9224506769151 -51.7115689373044 4.66267965192106
vertex 17.9224506769151 -51.7115689373044 14.1495796519211
endloop
endfacet
facet normal 0.992114701314478 -0.125333233564305 1.50408184037113e-18
outer loop
vertex 21.3227050412581 -24.7957841359606 4.82327413478718
vertex 20.3091696480628 -32.8187428939479 14.3101741347872
vertex 20.3091696480628 -32.8187428939479 4.82327413478718
endloop
endfacet
facet normal 0.992114701314478 -0.125333233564305 1.50408184037113e-18
outer loop
vertex 20.3091696480628 -32.8187428939479 14.3101741347872
vertex 21.3227050412581 -24.7957841359606 4.82327413478718
vertex 21.3227050412581 -24.7957841359606 14.3101741347872
endloop
endfacet
facet normal 0.992114701314478 -0.125333233564305 1.50408184037114e-18
outer loop
vertex 19.6118044080216 -38.3389571831255 4.79788382773518
vertex 18.5982690148264 -46.3619159411129 14.2847838277352
vertex 18.5982690148264 -46.3619159411129 4.79788382773518
endloop
endfacet
facet normal 0.992114701314478 -0.125333233564305 1.50408184037114e-18
outer loop
vertex 18.5982690148264 -46.3619159411129 14.2847838277352
vertex 19.6118044080216 -38.3389571831255 4.79788382773518
vertex 19.6118044080216 -38.3389571831255 14.2847838277352
endloop
endfacet
endsolid Aegon Center parking garage
