solid Metro Development Center
facet normal 0.0 0.0 -1.0
outer loop
vertex -29.4833016633926 13.3705018037216 0.0
vertex 16.6450204037392 -18.2785584947473 0.0
vertex -32.5523094199868 -12.4254258208564 0.0
endloop
endfacet
facet normal 0.0 0.0 -1.0
outer loop
vertex 16.6450204037392 -18.2785584947473 0.0
vertex -29.4833016633926 13.3705018037216 0.0
vertex 19.7140281603335 7.5173691298307 0.0
endloop
endfacet
facet normal 0.0 0.0 -1.0
outer loop
vertex 16.6450204037392 -18.2785584947473 0.0
vertex 19.7140281603335 7.5173691298307 0.0
vertex 17.2772623462498 -12.9643759694076 0.0
endloop
endfacet
facet normal 0.118139405554896 0.992997019560047 -1.31486893295992e-16
outer loop
vertex -29.4833016633926 13.3705018037216 16.2229935332564
vertex 19.7140281603335 7.5173691298307 13.0379198423909
vertex -29.4833016633926 13.3705018037216 13.0379198423909
endloop
endfacet
facet normal 0.118139405554896 0.992997019560047 -1.31486893295992e-16
outer loop
vertex 19.7140281603335 7.5173691298307 13.0379198423909
vertex -29.4833016633926 13.3705018037216 16.2229935332564
vertex 19.7140281603335 7.5173691298307 16.2229935332564
endloop
endfacet
facet normal 0.992997019560047 -0.118139405554896 -0.0
outer loop
vertex 17.2772623462498 -12.9643759694076 0.0
vertex 16.6450204037392 -18.2785584947473 20.246975
vertex 16.6450204037392 -18.2785584947473 0.0
endloop
endfacet
facet normal 0.992997019560047 -0.118139405554896 -0.0
outer loop
vertex 16.6450204037392 -18.2785584947473 20.246975
vertex 17.2772623462498 -12.9643759694076 0.0
vertex 17.2772623462498 -12.9643759694076 20.246975
endloop
endfacet
facet normal -0.118139405554896 -0.992997019560047 0.0
outer loop
vertex 16.6450204037392 -18.2785584947473 20.246975
vertex -32.5523094199868 -12.4254258208564 0.0
vertex 16.6450204037392 -18.2785584947473 0.0
endloop
endfacet
facet normal -0.118139405554896 -0.992997019560047 0.0
outer loop
vertex -32.5523094199868 -12.4254258208564 0.0
vertex 16.6450204037392 -18.2785584947473 20.246975
vertex -32.5523094199868 -12.4254258208564 20.246975
endloop
endfacet
facet normal -0.992997019560047 0.118139405554896 -1.29676984251053e-16
outer loop
vertex -29.4833016633926 13.3705018037216 16.2229935332564
vertex -29.4833016633926 13.3705018037216 13.0379198423909
vertex -29.4833016633926 13.3705018037216 20.246975
endloop
endfacet
facet normal -0.992997019560047 0.118139405554896 -1.29676984251053e-16
outer loop
vertex -29.4833016633926 13.3705018037216 20.246975
vertex -32.5523094199868 -12.4254258208564 0.0
vertex -32.5523094199868 -12.4254258208564 20.246975
endloop
endfacet
facet normal -0.992997019560047 0.118139405554896 -1.29676984251053e-16
outer loop
vertex -32.5523094199868 -12.4254258208564 0.0
vertex -29.4833016633926 13.3705018037216 20.246975
vertex -29.4833016633926 13.3705018037216 0.0
endloop
endfacet
facet normal -0.992997019560047 0.118139405554896 -1.29676984251053e-16
outer loop
vertex -29.4833016633926 13.3705018037216 0.0
vertex -29.4833016633926 13.3705018037216 20.246975
vertex -29.4833016633926 13.3705018037216 13.0379198423909
endloop
endfacet
facet normal -0.992997019560047 0.118139405554896 -1.29676984251053e-16
outer loop
vertex -29.4833016633926 13.3705018037216 0.0
vertex -29.4833016633926 13.3705018037216 13.0379198423909
vertex -29.4833016633926 13.3705018037216 7.53893219178718
endloop
endfacet
facet normal 0.0 0.0 1.0
outer loop
vertex 4.92475436247915 -8.20202037783708 22.6425125
vertex -9.19473582757516 3.03001804533239 22.6425125
vertex -10.3153250078276 -6.38886899676327 22.6425125
endloop
endfacet
facet normal 0.0 0.0 1.0
outer loop
vertex -9.19473582757516 3.03001804533239 22.6425125
vertex 4.92475436247915 -8.20202037783708 22.6425125
vertex 6.04534354273158 1.21686666425858 22.6425125
endloop
endfacet
facet normal 0.992997019560047 -0.118139405554897 0.0
outer loop
vertex 6.04534354273158 1.21686666425858 19.3754375
vertex 4.92475436247915 -8.20202037783708 22.6425125
vertex 4.92475436247915 -8.20202037783708 19.3754375
endloop
endfacet
facet normal 0.992997019560047 -0.118139405554897 0.0
outer loop
vertex 4.92475436247915 -8.20202037783708 22.6425125
vertex 6.04534354273158 1.21686666425858 19.3754375
vertex 6.04534354273158 1.21686666425858 22.6425125
endloop
endfacet
facet normal 0.118139405554896 0.992997019560047 0.0
outer loop
vertex -9.19473582757516 3.03001804533239 22.6425125
vertex 6.04534354273158 1.21686666425858 19.3754375
vertex -9.19473582757516 3.03001804533239 19.3754375
endloop
endfacet
facet normal 0.118139405554896 0.992997019560047 0.0
outer loop
vertex 6.04534354273158 1.21686666425858 19.3754375
vertex -9.19473582757516 3.03001804533239 22.6425125
vertex 6.04534354273158 1.21686666425858 22.6425125
endloop
endfacet
facet normal -0.992997019560047 0.118139405554896 0.0
outer loop
vertex -9.19473582757516 3.03001804533239 22.6425125
vertex -10.3153250078276 -6.38886899676327 19.3754375
vertex -10.3153250078276 -6.38886899676327 22.6425125
endloop
endfacet
facet normal -0.992997019560047 0.118139405554896 0.0
outer loop
vertex -10.3153250078276 -6.38886899676327 19.3754375
vertex -9.19473582757516 3.03001804533239 22.6425125
vertex -9.19473582757516 3.03001804533239 19.3754375
endloop
endfacet
facet normal -0.118139405554896 -0.992997019560047 -0.0
outer loop
vertex 4.92475436247915 -8.20202037783708 22.6425125
vertex -10.3153250078276 -6.38886899676327 19.3754375
vertex 4.92475436247915 -8.20202037783708 19.3754375
endloop
endfacet
facet normal -0.118139405554896 -0.992997019560047 -0.0
outer loop
vertex -10.3153250078276 -6.38886899676327 19.3754375
vertex 4.92475436247915 -8.20202037783708 22.6425125
vertex -10.3153250078276 -6.38886899676327 22.6425125
endloop
endfacet
facet normal 0.0 0.0 1.0
outer loop
vertex -10.9165448806892 0.863822183485965 20.99376675
vertex -14.650759698142 3.19135476739258 20.99376675
vertex -14.8716892469851 1.33437586603883 20.99376675
endloop
endfacet
facet normal 0.0 0.0 1.0
outer loop
vertex -14.650759698142 3.19135476739258 20.99376675
vertex -10.9165448806892 0.863822183485965 20.99376675
vertex -10.6956153318461 2.72080108483972 20.99376675
endloop
endfacet
facet normal 0.992997019560047 -0.118139405554896 0.0
outer loop
vertex -10.6956153318461 2.72080108483972 19.3754375
vertex -10.9165448806892 0.863822183485965 20.99376675
vertex -10.9165448806892 0.863822183485965 19.3754375
endloop
endfacet
facet normal 0.992997019560047 -0.118139405554896 0.0
outer loop
vertex -10.9165448806892 0.863822183485965 20.99376675
vertex -10.6956153318461 2.72080108483972 19.3754375
vertex -10.6956153318461 2.72080108483972 20.99376675
endloop
endfacet
facet normal 0.118139405554896 0.992997019560047 0.0
outer loop
vertex -14.650759698142 3.19135476739258 20.99376675
vertex -10.6956153318461 2.72080108483972 19.3754375
vertex -14.650759698142 3.19135476739258 19.3754375
endloop
endfacet
facet normal 0.118139405554896 0.992997019560047 0.0
outer loop
vertex -10.6956153318461 2.72080108483972 19.3754375
vertex -14.650759698142 3.19135476739258 20.99376675
vertex -10.6956153318461 2.72080108483972 20.99376675
endloop
endfacet
facet normal -0.992997019560047 0.118139405554896 0.0
outer loop
vertex -14.650759698142 3.19135476739258 20.99376675
vertex -14.8716892469851 1.33437586603883 19.3754375
vertex -14.8716892469851 1.33437586603883 20.99376675
endloop
endfacet
facet normal -0.992997019560047 0.118139405554896 0.0
outer loop
vertex -14.8716892469851 1.33437586603883 19.3754375
vertex -14.650759698142 3.19135476739258 20.99376675
vertex -14.650759698142 3.19135476739258 19.3754375
endloop
endfacet
facet normal -0.118139405554896 -0.992997019560047 -0.0
outer loop
vertex -10.9165448806892 0.863822183485965 20.99376675
vertex -14.8716892469851 1.33437586603883 19.3754375
vertex -10.9165448806892 0.863822183485965 19.3754375
endloop
endfacet
facet normal -0.118139405554896 -0.992997019560047 -0.0
outer loop
vertex -14.8716892469851 1.33437586603883 19.3754375
vertex -10.9165448806892 0.863822183485965 20.99376675
vertex -14.8716892469851 1.33437586603883 20.99376675
endloop
endfacet
facet normal 0.118139405554896 0.992997019560047 0.0
outer loop
vertex -17.3364128289163 -3.05452111285563 20.99376675
vertex -11.9178650470909 -3.69917965795305 19.3754375
vertex -17.3364128289163 -3.05452111285563 19.3754375
endloop
endfacet
facet normal 0.118139405554896 0.992997019560047 0.0
outer loop
vertex -11.9178650470909 -3.69917965795305 19.3754375
vertex -17.3364128289163 -3.05452111285563 20.99376675
vertex -11.9178650470909 -3.69917965795305 20.99376675
endloop
endfacet
facet normal -0.992997019560047 0.118139405554896 0.0
outer loop
vertex -17.3364128289163 -3.05452111285563 20.99376675
vertex -17.7026477420334 -6.13283503762976 19.3754375
vertex -17.7026477420334 -6.13283503762976 20.99376675
endloop
endfacet
facet normal -0.992997019560047 0.118139405554896 0.0
outer loop
vertex -17.7026477420334 -6.13283503762976 19.3754375
vertex -17.3364128289163 -3.05452111285563 20.99376675
vertex -17.3364128289163 -3.05452111285563 19.3754375
endloop
endfacet
facet normal -0.118139405554896 -0.992997019560047 0.0
outer loop
vertex -12.2840999602081 -6.77749358272717 20.99376675
vertex -17.7026477420334 -6.13283503762976 19.3754375
vertex -12.2840999602081 -6.77749358272717 19.3754375
endloop
endfacet
facet normal -0.118139405554896 -0.992997019560047 0.0
outer loop
vertex -17.7026477420334 -6.13283503762976 19.3754375
vertex -12.2840999602081 -6.77749358272717 20.99376675
vertex -17.7026477420334 -6.13283503762976 20.99376675
endloop
endfacet
facet normal 0.0 0.0 1.0
outer loop
vertex -12.2840999602081 -6.77749358272717 20.99376675
vertex -17.3364128289163 -3.05452111285563 20.99376675
vertex -17.7026477420334 -6.13283503762976 20.99376675
endloop
endfacet
facet normal 0.0 0.0 1.0
outer loop
vertex -17.3364128289163 -3.05452111285563 20.99376675
vertex -12.2840999602081 -6.77749358272717 20.99376675
vertex -11.9178650470909 -3.69917965795305 20.99376675
endloop
endfacet
facet normal 0.992997019560047 -0.118139405554896 0.0
outer loop
vertex -11.9178650470909 -3.69917965795305 19.3754375
vertex -12.2840999602081 -6.77749358272717 20.99376675
vertex -12.2840999602081 -6.77749358272717 19.3754375
endloop
endfacet
facet normal 0.992997019560047 -0.118139405554896 0.0
outer loop
vertex -12.2840999602081 -6.77749358272717 20.99376675
vertex -11.9178650470909 -3.69917965795305 19.3754375
vertex -11.9178650470909 -3.69917965795305 20.99376675
endloop
endfacet
facet normal -0.0 -0.0 1.0
outer loop
vertex 16.6450204037392 -18.2785584947473 20.246975
vertex -31.6936790429055 -11.7493798322389 20.246975
vertex -32.5523094199868 -12.4254258208564 20.246975
endloop
endfacet
facet normal -0.0 -0.0 1.0
outer loop
vertex -31.6936790429055 -11.7493798322389 20.246975
vertex 16.6450204037392 -18.2785584947473 20.246975
vertex 15.9689744151218 -17.4199281176659 20.246975
endloop
endfacet
facet normal -0.0 -0.0 1.0
outer loop
vertex 15.9689744151218 -17.4199281176659 20.246975
vertex 16.6450204037392 -18.2785584947473 20.246975
vertex 18.8553977832522 6.84132314121324 20.246975
endloop
endfacet
facet normal -0.0 -0.0 1.0
outer loop
vertex 18.8553977832522 6.84132314121324 20.246975
vertex 16.6450204037392 -18.2785584947473 20.246975
vertex 17.2772623462498 -12.9643759694076 20.246975
endloop
endfacet
facet normal -0.0 -0.0 1.0
outer loop
vertex 18.8553977832522 6.84132314121324 20.246975
vertex 17.2772623462498 -12.9643759694076 20.246975
vertex 19.7140281603335 7.5173691298307 20.246975
endloop
endfacet
facet normal -0.0 -0.0 1.0
outer loop
vertex -31.6936790429055 -11.7493798322389 20.246975
vertex -29.4833016633926 13.3705018037216 20.246975
vertex -32.5523094199868 -12.4254258208564 20.246975
endloop
endfacet
facet normal -0.0 -0.0 1.0
outer loop
vertex -29.4833016633926 13.3705018037216 20.246975
vertex -31.6936790429055 -11.7493798322389 20.246975
vertex -28.8072556747751 12.5118714266403 20.246975
endloop
endfacet
facet normal -0.0 -0.0 1.0
outer loop
vertex -29.4833016633926 13.3705018037216 20.246975
vertex -28.8072556747751 12.5118714266403 20.246975
vertex 19.7140281603335 7.5173691298307 20.246975
endloop
endfacet
facet normal -0.0 -0.0 1.0
outer loop
vertex 19.7140281603335 7.5173691298307 20.246975
vertex -28.8072556747751 12.5118714266403 20.246975
vertex 18.8553977832522 6.84132314121324 20.246975
endloop
endfacet
facet normal 0.0 0.0 1.0
outer loop
vertex -31.6936790429055 -11.7493798322389 19.3754375
vertex -17.7026477420334 -6.13283503762976 19.3754375
vertex -28.8072556747751 12.5118714266403 19.3754375
endloop
endfacet
facet normal 0.0 0.0 1.0
outer loop
vertex -17.7026477420334 -6.13283503762976 19.3754375
vertex -31.6936790429055 -11.7493798322389 19.3754375
vertex 15.9689744151218 -17.4199281176659 19.3754375
endloop
endfacet
facet normal 0.0 0.0 1.0
outer loop
vertex -17.7026477420334 -6.13283503762976 19.3754375
vertex 15.9689744151218 -17.4199281176659 19.3754375
vertex -12.2840999602081 -6.77749358272717 19.3754375
endloop
endfacet
facet normal 0.0 0.0 1.0
outer loop
vertex -12.2840999602081 -6.77749358272717 19.3754375
vertex 15.9689744151218 -17.4199281176659 19.3754375
vertex -10.3153250078276 -6.38886899676327 19.3754375
endloop
endfacet
facet normal 0.0 0.0 1.0
outer loop
vertex -12.2840999602081 -6.77749358272717 19.3754375
vertex -10.3153250078276 -6.38886899676327 19.3754375
vertex -11.9178650470909 -3.69917965795305 19.3754375
endloop
endfacet
facet normal 0.0 0.0 1.0
outer loop
vertex -11.9178650470909 -3.69917965795305 19.3754375
vertex -10.3153250078276 -6.38886899676327 19.3754375
vertex -10.9165448806892 0.863822183485965 19.3754375
endloop
endfacet
facet normal 0.0 0.0 1.0
outer loop
vertex -10.9165448806892 0.863822183485965 19.3754375
vertex -10.3153250078276 -6.38886899676327 19.3754375
vertex -10.6956153318461 2.72080108483972 19.3754375
endloop
endfacet
facet normal 0.0 0.0 1.0
outer loop
vertex -10.3153250078276 -6.38886899676327 19.3754375
vertex 15.9689744151218 -17.4199281176659 19.3754375
vertex 4.92475436247915 -8.20202037783708 19.3754375
endloop
endfacet
facet normal 0.0 0.0 1.0
outer loop
vertex 4.92475436247915 -8.20202037783708 19.3754375
vertex 15.9689744151218 -17.4199281176659 19.3754375
vertex 6.04534354273158 1.21686666425858 19.3754375
endloop
endfacet
facet normal 0.0 0.0 1.0
outer loop
vertex -28.8072556747751 12.5118714266403 19.3754375
vertex -14.650759698142 3.19135476739258 19.3754375
vertex 18.8553977832522 6.84132314121324 19.3754375
endloop
endfacet
facet normal 0.0 0.0 1.0
outer loop
vertex -14.650759698142 3.19135476739258 19.3754375
vertex -28.8072556747751 12.5118714266403 19.3754375
vertex -17.3364128289163 -3.05452111285563 19.3754375
endloop
endfacet
facet normal 0.0 0.0 1.0
outer loop
vertex -17.3364128289163 -3.05452111285563 19.3754375
vertex -28.8072556747751 12.5118714266403 19.3754375
vertex -17.7026477420334 -6.13283503762976 19.3754375
endloop
endfacet
facet normal 0.0 0.0 1.0
outer loop
vertex -14.650759698142 3.19135476739258 19.3754375
vertex -17.3364128289163 -3.05452111285563 19.3754375
vertex -14.8716892469851 1.33437586603883 19.3754375
endloop
endfacet
facet normal 0.0 0.0 1.0
outer loop
vertex 18.8553977832522 6.84132314121324 19.3754375
vertex -14.650759698142 3.19135476739258 19.3754375
vertex -9.19473582757516 3.03001804533239 19.3754375
endloop
endfacet
facet normal 0.0 0.0 1.0
outer loop
vertex -9.19473582757516 3.03001804533239 19.3754375
vertex -14.650759698142 3.19135476739258 19.3754375
vertex -10.6956153318461 2.72080108483972 19.3754375
endloop
endfacet
facet normal 0.0 0.0 1.0
outer loop
vertex -9.19473582757516 3.03001804533239 19.3754375
vertex -10.6956153318461 2.72080108483972 19.3754375
vertex -10.3153250078276 -6.38886899676327 19.3754375
endloop
endfacet
facet normal 0.0 0.0 1.0
outer loop
vertex 18.8553977832522 6.84132314121324 19.3754375
vertex -9.19473582757516 3.03001804533239 19.3754375
vertex 6.04534354273158 1.21686666425858 19.3754375
endloop
endfacet
facet normal 0.0 0.0 1.0
outer loop
vertex 18.8553977832522 6.84132314121324 19.3754375
vertex 6.04534354273158 1.21686666425858 19.3754375
vertex 15.9689744151218 -17.4199281176659 19.3754375
endloop
endfacet
facet normal 0.0 0.0 1.0
outer loop
vertex -11.9178650470909 -3.69917965795305 19.3754375
vertex -14.8716892469851 1.33437586603883 19.3754375
vertex -17.3364128289163 -3.05452111285563 19.3754375
endloop
endfacet
facet normal 0.0 0.0 1.0
outer loop
vertex -14.8716892469851 1.33437586603883 19.3754375
vertex -11.9178650470909 -3.69917965795305 19.3754375
vertex -10.9165448806892 0.863822183485965 19.3754375
endloop
endfacet
facet normal 0.118139405554896 0.992997019560047 0.0
outer loop
vertex -31.6936790429055 -11.7493798322389 20.246975
vertex 15.9689744151218 -17.4199281176659 19.3754375
vertex -31.6936790429055 -11.7493798322389 19.3754375
endloop
endfacet
facet normal 0.118139405554896 0.992997019560047 0.0
outer loop
vertex 15.9689744151218 -17.4199281176659 19.3754375
vertex -31.6936790429055 -11.7493798322389 20.246975
vertex 15.9689744151218 -17.4199281176659 20.246975
endloop
endfacet
facet normal -0.992997019560047 0.118139405554896 -0.0
outer loop
vertex 18.8553977832522 6.84132314121324 20.246975
vertex 15.9689744151218 -17.4199281176659 19.3754375
vertex 15.9689744151218 -17.4199281176659 20.246975
endloop
endfacet
facet normal -0.992997019560047 0.118139405554896 -0.0
outer loop
vertex 15.9689744151218 -17.4199281176659 19.3754375
vertex 18.8553977832522 6.84132314121324 20.246975
vertex 18.8553977832522 6.84132314121324 19.3754375
endloop
endfacet
facet normal -0.118139405554896 -0.992997019560047 -0.0
outer loop
vertex 18.8553977832522 6.84132314121324 20.246975
vertex -28.8072556747751 12.5118714266403 19.3754375
vertex 18.8553977832522 6.84132314121324 19.3754375
endloop
endfacet
facet normal -0.118139405554896 -0.992997019560047 -0.0
outer loop
vertex -28.8072556747751 12.5118714266403 19.3754375
vertex 18.8553977832522 6.84132314121324 20.246975
vertex -28.8072556747751 12.5118714266403 20.246975
endloop
endfacet
facet normal 0.992997019560047 -0.118139405554896 -0.0
outer loop
vertex -28.8072556747751 12.5118714266403 19.3754375
vertex -31.6936790429055 -11.7493798322389 20.246975
vertex -31.6936790429055 -11.7493798322389 19.3754375
endloop
endfacet
facet normal 0.992997019560047 -0.118139405554896 -0.0
outer loop
vertex -31.6936790429055 -11.7493798322389 20.246975
vertex -28.8072556747751 12.5118714266403 19.3754375
vertex -28.8072556747751 12.5118714266403 20.246975
endloop
endfacet
facet normal 0.118139405554896 0.992997019560047 8.58478785053982e-17
outer loop
vertex -29.4833016633926 13.3705018037216 20.246975
vertex 19.7140281603335 7.5173691298307 16.2229935332564
vertex -29.4833016633926 13.3705018037216 16.2229935332564
endloop
endfacet
facet normal 0.118139405554896 0.992997019560047 8.58478785053982e-17
outer loop
vertex 19.7140281603335 7.5173691298307 16.2229935332564
vertex -29.4833016633926 13.3705018037216 20.246975
vertex 19.7140281603335 7.5173691298307 20.246975
endloop
endfacet
facet normal 0.118139405554896 0.992997019560047 7.80589468716623e-17
outer loop
vertex -29.4833016633926 13.3705018037216 7.53893219178718
vertex 19.7140281603335 7.5173691298307 0.0
vertex -29.4833016633926 13.3705018037216 0.0
endloop
endfacet
facet normal 0.118139405554896 0.992997019560047 7.80589468716623e-17
outer loop
vertex 19.7140281603335 7.5173691298307 0.0
vertex -29.4833016633926 13.3705018037216 7.53893219178718
vertex 19.7140281603335 7.5173691298307 7.53893219178718
endloop
endfacet
facet normal 0.118139405554896 0.992997019560047 -3.48207065542929e-17
outer loop
vertex -29.4833016633926 13.3705018037216 13.0379198423909
vertex 19.7140281603335 7.5173691298307 7.53893219178718
vertex -29.4833016633926 13.3705018037216 7.53893219178718
endloop
endfacet
facet normal 0.118139405554896 0.992997019560047 -3.48207065542929e-17
outer loop
vertex 19.7140281603335 7.5173691298307 7.53893219178718
vertex -29.4833016633926 13.3705018037216 13.0379198423909
vertex 19.7140281603335 7.5173691298307 13.0379198423909
endloop
endfacet
facet normal 0.992997019560047 -0.118139405554896 -4.34574458903386e-18
outer loop
vertex 19.7140281603335 7.5173691298307 0.0
vertex 17.2772623462498 -12.9643759694076 20.246975
vertex 17.2772623462498 -12.9643759694076 0.0
endloop
endfacet
facet normal 0.992997019560047 -0.118139405554896 -4.34574458903386e-18
outer loop
vertex 17.2772623462498 -12.9643759694076 20.246975
vertex 19.7140281603335 7.5173691298307 0.0
vertex 19.7140281603335 7.5173691298307 20.246975
endloop
endfacet
facet normal 0.992997019560047 -0.118139405554896 -4.34574458903386e-18
outer loop
vertex 19.7140281603335 7.5173691298307 20.246975
vertex 19.7140281603335 7.5173691298307 0.0
vertex 19.7140281603335 7.5173691298307 7.53893219178718
endloop
endfacet
facet normal 0.992997019560047 -0.118139405554896 -4.34574458903386e-18
outer loop
vertex 19.7140281603335 7.5173691298307 20.246975
vertex 19.7140281603335 7.5173691298307 7.53893219178718
vertex 19.7140281603335 7.5173691298307 13.0379198423909
endloop
endfacet
facet normal 0.992997019560047 -0.118139405554896 -4.34574458903386e-18
outer loop
vertex 19.7140281603335 7.5173691298307 20.246975
vertex 19.7140281603335 7.5173691298307 13.0379198423909
vertex 19.7140281603335 7.5173691298307 16.2229935332564
endloop
endfacet
endsolid Metro Development Center
