solid Museum Plaza
facet normal 0.0 0.0 -1.0
outer loop
vertex 0.857395460976888 14.8807285064202 31.207075
vertex 4.76435000327004 -0.42162831098541 31.207075
vertex -4.09263036062704 3.3957204798196 31.207075
endloop
endfacet
facet normal 0.0 0.0 -1.0
outer loop
vertex 4.76435000327004 -0.42162831098541 31.207075
vertex 0.857395460976888 14.8807285064202 31.207075
vertex 9.71437582487397 11.0633797156152 31.207075
endloop
endfacet
facet normal 0.918335964130195 -0.395801790022563 -0.0
outer loop
vertex 0.857395460976888 14.8807285064202 21.815425
vertex -4.09263036062704 3.3957204798196 31.207075
vertex -4.09263036062704 3.3957204798196 21.815425
endloop
endfacet
facet normal 0.918335964130195 -0.395801790022563 -0.0
outer loop
vertex -4.09263036062704 3.3957204798196 31.207075
vertex 0.857395460976888 14.8807285064202 21.815425
vertex 0.857395460976888 14.8807285064202 31.207075
endloop
endfacet
facet normal -0.918335964130195 0.395801790022563 -0.0
outer loop
vertex 9.71437582487397 11.0633797156152 31.207075
vertex 4.76435000327004 -0.42162831098541 0.0
vertex 4.76435000327004 -0.42162831098541 31.207075
endloop
endfacet
facet normal -0.918335964130195 0.395801790022563 -0.0
outer loop
vertex 4.76435000327004 -0.42162831098541 0.0
vertex 9.71437582487397 11.0633797156152 31.207075
vertex 9.71437582487397 11.0633797156152 0.0
endloop
endfacet
facet normal -0.918335964130195 0.395801790022563 -0.0
outer loop
vertex 9.71437582487397 11.0633797156152 0.0
vertex 9.71437582487397 11.0633797156152 31.207075
vertex 9.71437582487397 11.0633797156152 4.39074340239936
endloop
endfacet
facet normal 0.0 0.0 -1.0
outer loop
vertex -4.77673610510948 17.3090330117237 21.815425
vertex -4.09263036062704 3.3957204798196 21.815425
vertex -9.72676192671341 5.82402498512313 21.815425
endloop
endfacet
facet normal 0.0 0.0 -1.0
outer loop
vertex -4.09263036062704 3.3957204798196 21.815425
vertex -4.77673610510948 17.3090330117237 21.815425
vertex 0.857395460976888 14.8807285064202 21.815425
endloop
endfacet
facet normal -0.395801790022563 -0.918335964130195 1.44560782995891e-16
outer loop
vertex 9.71437582487397 11.0633797156152 4.39074340239936
vertex -4.77673610510948 17.3090330117237 0.0
vertex 9.71437582487397 11.0633797156152 0.0
endloop
endfacet
facet normal -0.395801790022563 -0.918335964130195 1.44560782995891e-16
outer loop
vertex -4.77673610510948 17.3090330117237 0.0
vertex 9.71437582487397 11.0633797156152 4.39074340239936
vertex -4.77673610510948 17.3090330117237 4.39074340239936
endloop
endfacet
facet normal 0.395801790022563 0.918335964130195 -0.0
outer loop
vertex -9.72676192671341 5.82402498512313 21.815425
vertex 4.76435000327004 -0.42162831098541 0.0
vertex -9.72676192671341 5.82402498512313 0.0
endloop
endfacet
facet normal 0.395801790022563 0.918335964130195 -0.0
outer loop
vertex 4.76435000327004 -0.42162831098541 0.0
vertex -9.72676192671341 5.82402498512313 21.815425
vertex -4.09263036062704 3.3957204798196 21.815425
endloop
endfacet
facet normal 0.395801790022563 0.918335964130195 -0.0
outer loop
vertex 4.76435000327004 -0.42162831098541 0.0
vertex -4.09263036062704 3.3957204798196 21.815425
vertex 4.76435000327004 -0.42162831098541 31.207075
endloop
endfacet
facet normal 0.395801790022563 0.918335964130195 -0.0
outer loop
vertex 4.76435000327004 -0.42162831098541 31.207075
vertex -4.09263036062704 3.3957204798196 21.815425
vertex -4.09263036062704 3.3957204798196 31.207075
endloop
endfacet
facet normal 0.918335964130195 -0.395801790022563 -0.0
outer loop
vertex -4.77673610510948 17.3090330117237 0.0
vertex -9.72676192671341 5.82402498512313 21.815425
vertex -9.72676192671341 5.82402498512313 0.0
endloop
endfacet
facet normal 0.918335964130195 -0.395801790022563 -0.0
outer loop
vertex -9.72676192671341 5.82402498512313 21.815425
vertex -4.77673610510948 17.3090330117237 0.0
vertex -4.77673610510948 17.3090330117237 21.815425
endloop
endfacet
facet normal 0.918335964130195 -0.395801790022563 -0.0
outer loop
vertex -4.77673610510948 17.3090330117237 21.815425
vertex -4.77673610510948 17.3090330117237 0.0
vertex -4.77673610510948 17.3090330117237 4.39074340239936
endloop
endfacet
facet normal -0.395801790022563 -0.918335964130195 -6.08115120085617e-17
outer loop
vertex 9.71437582487397 11.0633797156152 31.207075
vertex -4.77673610510948 17.3090330117237 4.39074340239936
vertex 9.71437582487397 11.0633797156152 4.39074340239936
endloop
endfacet
facet normal -0.395801790022563 -0.918335964130195 -6.08115120085617e-17
outer loop
vertex -4.77673610510948 17.3090330117237 4.39074340239936
vertex 9.71437582487397 11.0633797156152 31.207075
vertex 0.857395460976888 14.8807285064202 21.815425
endloop
endfacet
facet normal -0.395801790022563 -0.918335964130195 -6.08115120085617e-17
outer loop
vertex 0.857395460976888 14.8807285064202 21.815425
vertex 9.71437582487397 11.0633797156152 31.207075
vertex 0.857395460976888 14.8807285064202 31.207075
endloop
endfacet
facet normal -0.395801790022563 -0.918335964130195 -6.08115120085617e-17
outer loop
vertex -4.77673610510948 17.3090330117237 21.815425
vertex -4.77673610510948 17.3090330117237 4.39074340239936
vertex 0.857395460976888 14.8807285064202 21.815425
endloop
endfacet
endsolid Museum Plaza
