solid national_city_tower
facet normal 1.83435605122081e-16 1.38741794001877e-15 1.0
outer loop
vertex 3.90534222057185 25.1965437135406 157.39872
vertex 16.0274200893079 56.3863281333906 157.39872
vertex 12.5597395903314 90.6542075234895 157.39872
endloop
endfacet
facet normal 1.83435605122081e-16 1.38741794001877e-15 1.0
outer loop
vertex 16.0274200893079 56.3863281333906 157.39872
vertex 3.90534222057185 25.1965437135406 157.39872
vertex 32.321950648934 21.4394798813522 157.39872
endloop
endfacet
facet normal 1.83435605122081e-16 1.38741794001877e-15 1.0
outer loop
vertex 16.0274200893079 56.3863281333906 157.39872
vertex 32.321950648934 21.4394798813522 157.39872
vertex 27.0188685421037 54.9331084942677 157.39872
endloop
endfacet
facet normal 1.83435605122081e-16 1.38741794001877e-15 1.0
outer loop
vertex 27.0188685421037 54.9331084942677 157.39872
vertex 32.321950648934 21.4394798813522 157.39872
vertex 28.6876574174997 67.5550180863958 157.39872
endloop
endfacet
facet normal 1.83435605122081e-16 1.38741794001877e-15 1.0
outer loop
vertex 12.5597395903314 90.6542075234895 157.39872
vertex 17.6962089647039 69.0082377255187 157.39872
vertex 40.9763480186936 86.8971436913011 157.39872
endloop
endfacet
facet normal 1.83435605122081e-16 1.38741794001877e-15 1.0
outer loop
vertex 17.6962089647039 69.0082377255187 157.39872
vertex 12.5597395903314 90.6542075234895 157.39872
vertex 16.0274200893079 56.3863281333906 157.39872
endloop
endfacet
facet normal 1.83435605122081e-16 1.38741794001877e-15 1.0
outer loop
vertex 40.9763480186936 86.8971436913011 157.39872
vertex 17.6962089647039 69.0082377255187 157.39872
vertex 28.6876574174997 67.5550180863958 157.39872
endloop
endfacet
facet normal 1.83435605122081e-16 1.38741794001877e-15 1.0
outer loop
vertex 40.9763480186936 86.8971436913011 157.39872
vertex 28.6876574174997 67.5550180863958 157.39872
vertex 32.321950648934 21.4394798813522 157.39872
endloop
endfacet
facet normal 0.991372717193478 -0.131073016309308 8.05779119148445e-31
outer loop
vertex 28.6876574174997 67.5550180863958 157.39872
vertex 27.0188685421037 54.9331084942677 161.52622
vertex 27.0188685421037 54.9331084942677 157.39872
endloop
endfacet
facet normal 0.991372717193478 -0.131073016309308 8.05779119148445e-31
outer loop
vertex 27.0188685421037 54.9331084942677 161.52622
vertex 28.6876574174997 67.5550180863958 157.39872
vertex 28.6876574174997 67.5550180863958 161.52622
endloop
endfacet
facet normal 2.37825863099675e-16 1.79879946886723e-15 1.0
outer loop
vertex 27.0188685421037 54.9331084942677 161.52622
vertex 17.6962089647039 69.0082377255187 161.52622
vertex 16.0274200893079 56.3863281333906 161.52622
endloop
endfacet
facet normal 2.37825863099675e-16 1.79879946886723e-15 1.0
outer loop
vertex 17.6962089647039 69.0082377255187 161.52622
vertex 27.0188685421037 54.9331084942677 161.52622
vertex 28.6876574174997 67.5550180863958 161.52622
endloop
endfacet
facet normal -0.131073016309308 -0.991372717193478 1.36224023747028e-15
outer loop
vertex 32.321950648934 21.4394798813522 144.206396120508
vertex 3.90534222057182 25.1965437135404 4.70261172818776e-14
vertex 32.321950648934 21.439479881352 4.70261172818776e-14
endloop
endfacet
facet normal -0.131073016309308 -0.991372717193478 1.36224023747028e-15
outer loop
vertex 3.90534222057182 25.1965437135404 4.70261172818776e-14
vertex 32.321950648934 21.4394798813522 144.206396120508
vertex 3.90534222057186 25.1965437135406 144.206396120508
endloop
endfacet
facet normal -0.991372717193478 0.131073016309308 -4.02889559574223e-31
outer loop
vertex 17.6962089647039 69.0082377255187 161.52622
vertex 16.0274200893079 56.3863281333906 157.39872
vertex 16.0274200893079 56.3863281333906 161.52622
endloop
endfacet
facet normal -0.991372717193478 0.131073016309308 -4.02889559574223e-31
outer loop
vertex 16.0274200893079 56.3863281333906 157.39872
vertex 17.6962089647039 69.0082377255187 161.52622
vertex 17.6962089647039 69.0082377255187 157.39872
endloop
endfacet
facet normal -0.131073016309308 -0.991372717193478 1.81445327036993e-15
outer loop
vertex 27.0188685421037 54.9331084942677 161.52622
vertex 16.0274200893079 56.3863281333906 157.39872
vertex 27.0188685421037 54.9331084942677 157.39872
endloop
endfacet
facet normal -0.131073016309308 -0.991372717193478 1.81445327036993e-15
outer loop
vertex 16.0274200893079 56.3863281333906 157.39872
vertex 27.0188685421037 54.9331084942677 161.52622
vertex 16.0274200893079 56.3863281333906 161.52622
endloop
endfacet
facet normal 0.131073016309308 0.991372717193478 -1.81445327036993e-15
outer loop
vertex 17.6962089647039 69.0082377255187 161.52622
vertex 28.6876574174997 67.5550180863958 157.39872
vertex 17.6962089647039 69.0082377255187 157.39872
endloop
endfacet
facet normal 0.131073016309308 0.991372717193478 -1.81445327036993e-15
outer loop
vertex 28.6876574174997 67.5550180863958 157.39872
vertex 17.6962089647039 69.0082377255187 161.52622
vertex 28.6876574174997 67.5550180863958 161.52622
endloop
endfacet
facet normal 0.991372717193478 -0.131073016309308 6.36209339926531e-16
outer loop
vertex 40.9763480186936 86.8971436913011 148.270752243475
vertex 32.321950648934 21.4394798813522 157.39872
vertex 32.321950648934 21.4394798813522 148.270752243475
endloop
endfacet
facet normal 0.991372717193478 -0.131073016309308 6.36209339926531e-16
outer loop
vertex 32.321950648934 21.4394798813522 157.39872
vertex 40.9763480186936 86.8971436913011 148.270752243475
vertex 40.9763480186936 86.8971436913011 157.39872
endloop
endfacet
facet normal -1.85071032277181e-16 -1.39978751774099e-15 -1.0
outer loop
vertex 12.5597395903314 90.6542075234893 -4.62023817147334e-14
vertex 32.321950648934 21.439479881352 4.70261172818776e-14
vertex 3.90534222057182 25.1965437135404 4.70261172818776e-14
endloop
endfacet
facet normal -1.85071032277181e-16 -1.39978751774099e-15 -1.0
outer loop
vertex 32.321950648934 21.439479881352 4.70261172818776e-14
vertex 12.5597395903314 90.6542075234893 -4.62023817147334e-14
vertex 40.9763480186935 86.8971436913009 -4.62023817147335e-14
endloop
endfacet
facet normal 0.131073016309308 0.991372717193478 -1.28623019430315e-15
outer loop
vertex 12.5597395903314 90.6542075234895 157.39872
vertex 40.9763480186936 86.8971436913011 148.270752243475
vertex 12.5597395903314 90.6542075234895 148.270752243475
endloop
endfacet
facet normal 0.131073016309308 0.991372717193478 -1.28623019430315e-15
outer loop
vertex 40.9763480186936 86.8971436913011 148.270752243475
vertex 12.5597395903314 90.6542075234895 157.39872
vertex 40.9763480186936 86.8971436913011 157.39872
endloop
endfacet
facet normal 0.131073016309308 0.991372717193478 -1.29569924513388e-15
outer loop
vertex 12.5597395903314 90.6542075234893 -4.62023817147334e-14
vertex 40.9763480186936 86.8971436913011 144.206396120508
vertex 40.9763480186935 86.8971436913009 -4.62023817147335e-14
endloop
endfacet
facet normal 0.131073016309308 0.991372717193478 -1.29569924513388e-15
outer loop
vertex 40.9763480186936 86.8971436913011 144.206396120508
vertex 12.5597395903314 90.6542075234893 -4.62023817147334e-14
vertex 12.5597395903314 90.6542075234895 144.206396120508
endloop
endfacet
facet normal 0.131073016309307 0.991372717193478 -1.60136834289626e-29
outer loop
vertex 13.5649137608445 89.3427419284648 148.270752243475
vertex 39.6648824236689 85.891969520788 144.206396120508
vertex 13.5649137608445 89.3427419284648 144.206396120508
endloop
endfacet
facet normal 0.131073016309307 0.991372717193478 -1.60136834289626e-29
outer loop
vertex 39.6648824236689 85.891969520788 144.206396120508
vertex 13.5649137608445 89.3427419284648 148.270752243475
vertex 39.6648824236689 85.891969520788 148.270752243475
endloop
endfacet
facet normal -0.991372717193478 0.131073016309308 -5.08967471941225e-17
outer loop
vertex 3.90534222057185 25.1965437135406 157.39872
vertex 12.5597395903314 90.6542075234895 148.270752243475
vertex 3.90534222057185 25.1965437135406 148.270752243475
endloop
endfacet
facet normal -0.991372717193478 0.131073016309308 -5.08967471941225e-17
outer loop
vertex 12.5597395903314 90.6542075234895 148.270752243475
vertex 3.90534222057185 25.1965437135406 157.39872
vertex 12.5597395903314 90.6542075234895 157.39872
endloop
endfacet
facet normal -0.991372717193478 0.131073016309308 3.26279026490649e-17
outer loop
vertex 3.90534222057186 25.1965437135406 144.206396120508
vertex 12.5597395903314 90.6542075234893 -4.62023817147334e-14
vertex 3.90534222057182 25.1965437135404 4.70261172818776e-14
endloop
endfacet
facet normal -0.991372717193478 0.131073016309308 3.26279026490649e-17
outer loop
vertex 12.5597395903314 90.6542075234893 -4.62023817147334e-14
vertex 3.90534222057186 25.1965437135406 144.206396120508
vertex 12.5597395903314 90.6542075234895 144.206396120508
endloop
endfacet
facet normal -0.991372717193478 0.131073016309308 -1.23852359202211e-15
outer loop
vertex 5.2168078155965 26.2017178840537 148.270752243475
vertex 13.5649137608445 89.3427419284648 144.206396120508
vertex 5.21680781559651 26.2017178840537 144.206396120508
endloop
endfacet
facet normal -0.991372717193478 0.131073016309308 -1.23852359202211e-15
outer loop
vertex 13.5649137608445 89.3427419284648 144.206396120508
vertex 5.2168078155965 26.2017178840537 148.270752243475
vertex 13.5649137608445 89.3427419284648 148.270752243475
endloop
endfacet
facet normal 0.991372717193478 -0.131073016309308 -1.07672078741914e-16
outer loop
vertex 40.9763480186935 86.8971436913009 -4.62023817147335e-14
vertex 32.321950648934 21.4394798813522 144.206396120508
vertex 32.321950648934 21.439479881352 4.70261172818776e-14
endloop
endfacet
facet normal 0.991372717193478 -0.131073016309308 -1.07672078741914e-16
outer loop
vertex 32.321950648934 21.4394798813522 144.206396120508
vertex 40.9763480186935 86.8971436913009 -4.62023817147335e-14
vertex 40.9763480186936 86.8971436913011 144.206396120508
endloop
endfacet
facet normal 0.991372717193478 -0.131073016309308 3.07374003298673e-15
outer loop
vertex 39.6648824236689 85.891969520788 144.206396120508
vertex 31.3167764784209 22.7509454763769 148.270752243475
vertex 31.3167764784209 22.7509454763769 144.206396120508
endloop
endfacet
facet normal 0.991372717193478 -0.131073016309308 3.07374003298673e-15
outer loop
vertex 31.3167764784209 22.7509454763769 148.270752243475
vertex 39.6648824236689 85.891969520788 144.206396120508
vertex 39.6648824236689 85.891969520788 148.270752243475
endloop
endfacet
facet normal -1.94632626276123e-16 -1.41198891061683e-15 -1.0
outer loop
vertex 12.5597395903314 90.6542075234895 148.270752243475
vertex 5.2168078155965 26.2017178840537 148.270752243475
vertex 3.90534222057185 25.1965437135406 148.270752243475
endloop
endfacet
facet normal -1.94632626276123e-16 -1.41198891061683e-15 -1.0
outer loop
vertex 5.2168078155965 26.2017178840537 148.270752243475
vertex 12.5597395903314 90.6542075234895 148.270752243475
vertex 13.5649137608445 89.3427419284648 148.270752243475
endloop
endfacet
facet normal -1.94632626276123e-16 -1.41198891061683e-15 -1.0
outer loop
vertex 13.5649137608445 89.3427419284648 148.270752243475
vertex 12.5597395903314 90.6542075234895 148.270752243475
vertex 40.9763480186936 86.8971436913011 148.270752243475
endloop
endfacet
facet normal -1.94632626276123e-16 -1.41198891061683e-15 -1.0
outer loop
vertex 13.5649137608445 89.3427419284648 148.270752243475
vertex 40.9763480186936 86.8971436913011 148.270752243475
vertex 39.6648824236689 85.891969520788 148.270752243475
endloop
endfacet
facet normal -1.94632626276123e-16 -1.41198891061683e-15 -1.0
outer loop
vertex 5.2168078155965 26.2017178840537 148.270752243475
vertex 32.321950648934 21.4394798813522 148.270752243475
vertex 3.90534222057185 25.1965437135406 148.270752243475
endloop
endfacet
facet normal -1.94632626276123e-16 -1.41198891061683e-15 -1.0
outer loop
vertex 32.321950648934 21.4394798813522 148.270752243475
vertex 5.2168078155965 26.2017178840537 148.270752243475
vertex 31.3167764784209 22.7509454763769 148.270752243475
endloop
endfacet
facet normal -1.94632626276123e-16 -1.41198891061683e-15 -1.0
outer loop
vertex 32.321950648934 21.4394798813522 148.270752243475
vertex 31.3167764784209 22.7509454763769 148.270752243475
vertex 39.6648824236689 85.891969520788 148.270752243475
endloop
endfacet
facet normal -1.94632626276123e-16 -1.41198891061683e-15 -1.0
outer loop
vertex 32.321950648934 21.4394798813522 148.270752243475
vertex 39.6648824236689 85.891969520788 148.270752243475
vertex 40.9763480186936 86.8971436913011 148.270752243475
endloop
endfacet
facet normal -0.131073016309308 -0.991372717193478 1.34168027141399e-15
outer loop
vertex 32.321950648934 21.4394798813522 157.39872
vertex 3.90534222057185 25.1965437135406 148.270752243475
vertex 32.321950648934 21.4394798813522 148.270752243475
endloop
endfacet
facet normal -0.131073016309308 -0.991372717193478 1.34168027141399e-15
outer loop
vertex 3.90534222057185 25.1965437135406 148.270752243475
vertex 32.321950648934 21.4394798813522 157.39872
vertex 3.90534222057185 25.1965437135406 157.39872
endloop
endfacet
facet normal 1.86740103980751e-16 1.41241156650824e-15 1.0
outer loop
vertex 31.3167764784209 22.7509454763769 144.206396120508
vertex 13.5649137608445 89.3427419284648 144.206396120508
vertex 5.21680781559651 26.2017178840537 144.206396120508
endloop
endfacet
facet normal 1.86740103980751e-16 1.41241156650824e-15 1.0
outer loop
vertex 13.5649137608445 89.3427419284648 144.206396120508
vertex 31.3167764784209 22.7509454763769 144.206396120508
vertex 39.6648824236689 85.891969520788 144.206396120508
endloop
endfacet
facet normal -1.86740103980751e-16 -1.41241156650824e-15 -1.0
outer loop
vertex 13.5649137608445 89.3427419284648 148.270752243475
vertex 31.3167764784209 22.7509454763769 148.270752243475
vertex 5.2168078155965 26.2017178840537 148.270752243475
endloop
endfacet
facet normal -1.86740103980751e-16 -1.41241156650824e-15 -1.0
outer loop
vertex 31.3167764784209 22.7509454763769 148.270752243475
vertex 13.5649137608445 89.3427419284648 148.270752243475
vertex 39.6648824236689 85.891969520788 148.270752243475
endloop
endfacet
facet normal -0.131073016309308 -0.991372717193478 2.33295035200103e-15
outer loop
vertex 31.3167764784209 22.7509454763769 148.270752243475
vertex 5.21680781559651 26.2017178840537 144.206396120508
vertex 31.3167764784209 22.7509454763769 144.206396120508
endloop
endfacet
facet normal -0.131073016309308 -0.991372717193478 2.33295035200103e-15
outer loop
vertex 5.21680781559651 26.2017178840537 144.206396120508
vertex 31.3167764784209 22.7509454763769 148.270752243475
vertex 5.2168078155965 26.2017178840537 148.270752243475
endloop
endfacet
facet normal 1.82221045464376e-16 1.41878598671609e-15 1.0
outer loop
vertex 32.321950648934 21.4394798813522 144.206396120508
vertex 5.21680781559651 26.2017178840537 144.206396120508
vertex 3.90534222057186 25.1965437135406 144.206396120508
endloop
endfacet
facet normal 1.82221045464376e-16 1.41878598671609e-15 1.0
outer loop
vertex 5.21680781559651 26.2017178840537 144.206396120508
vertex 32.321950648934 21.4394798813522 144.206396120508
vertex 31.3167764784209 22.7509454763769 144.206396120508
endloop
endfacet
facet normal 1.82221045464376e-16 1.41878598671609e-15 1.0
outer loop
vertex 31.3167764784209 22.7509454763769 144.206396120508
vertex 32.321950648934 21.4394798813522 144.206396120508
vertex 39.6648824236689 85.891969520788 144.206396120508
endloop
endfacet
facet normal 1.82221045464376e-16 1.41878598671609e-15 1.0
outer loop
vertex 39.6648824236689 85.891969520788 144.206396120508
vertex 32.321950648934 21.4394798813522 144.206396120508
vertex 40.9763480186936 86.8971436913011 144.206396120508
endloop
endfacet
facet normal 1.82221045464376e-16 1.41878598671609e-15 1.0
outer loop
vertex 5.21680781559651 26.2017178840537 144.206396120508
vertex 12.5597395903314 90.6542075234895 144.206396120508
vertex 3.90534222057186 25.1965437135406 144.206396120508
endloop
endfacet
facet normal 1.82221045464376e-16 1.41878598671609e-15 1.0
outer loop
vertex 12.5597395903314 90.6542075234895 144.206396120508
vertex 5.21680781559651 26.2017178840537 144.206396120508
vertex 13.5649137608445 89.3427419284648 144.206396120508
endloop
endfacet
facet normal 1.82221045464376e-16 1.41878598671609e-15 1.0
outer loop
vertex 12.5597395903314 90.6542075234895 144.206396120508
vertex 13.5649137608445 89.3427419284648 144.206396120508
vertex 40.9763480186936 86.8971436913011 144.206396120508
endloop
endfacet
facet normal 1.82221045464376e-16 1.41878598671609e-15 1.0
outer loop
vertex 40.9763480186936 86.8971436913011 144.206396120508
vertex 13.5649137608445 89.3427419284648 144.206396120508
vertex 39.6648824236689 85.891969520788 144.206396120508
endloop
endfacet
endsolid national_city_tower
