solid Parking Garage
facet normal -0.992492374557083 0.122306526588092 -2.34549062193607e-15
outer loop
vertex -31.3657495366043 29.2912340845755 10.5690566189252
vertex -31.3884664450864 29.1068910321562 9.64830661892516
vertex -31.3884664450864 29.1068910321562 10.5690566189252
endloop
endfacet
facet normal -0.992492374557083 0.122306526588092 -2.34549062193607e-15
outer loop
vertex -31.3884664450864 29.1068910321562 9.64830661892516
vertex -31.3657495366043 29.2912340845755 10.5690566189252
vertex -31.3657495366043 29.2912340845755 9.64830661892516
endloop
endfacet
facet normal -0.330540138517972 0.0407330245314161 0.942912529103863
outer loop
vertex -38.9041107125942 -31.8810205165631 9.64830661892516
vertex -31.9381432135388 29.1746286370175 9.45268996625413
vertex -39.5215250859078 -32.3629596801542 9.45268996625413
endloop
endfacet
facet normal -0.330540138517972 0.0407330245314161 0.942912529103863
outer loop
vertex -31.9381432135388 29.1746286370175 9.45268996625413
vertex -38.9041107125942 -31.8810205165631 9.64830661892516
vertex -31.3884664450864 29.1068910321562 9.64830661892516
endloop
endfacet
facet normal -0.0407330245314149 -0.330540138517963 0.942912529103866
outer loop
vertex -27.6607476908048 -33.8245834900871 9.45268996625413
vertex -38.9041107125942 -31.8810205165631 9.64830661892516
vertex -39.5215250859078 -32.3629596801542 9.45268996625413
endloop
endfacet
facet normal -0.0407330245314149 -0.330540138517963 0.942912529103866
outer loop
vertex -38.9041107125942 -31.8810205165631 9.64830661892516
vertex -27.6607476908048 -33.8245834900871 9.45268996625413
vertex -27.5930100859435 -33.2749067216347 9.64830661892516
endloop
endfacet
facet normal -0.0561771330020593 -0.455865910711386 0.888273832316897
outer loop
vertex -27.7245601230346 -34.3424082878049 9.18290438463001
vertex -39.5215250859078 -32.3629596801542 9.45268996625413
vertex -40.1031623158554 -32.8169720456421 9.18290438463001
endloop
endfacet
facet normal -0.0561771330020593 -0.455865910711386 0.888273832316897
outer loop
vertex -39.5215250859078 -32.3629596801542 9.45268996625413
vertex -27.7245601230346 -34.3424082878049 9.18290438463001
vertex -27.6607476908048 -33.8245834900871 9.45268996625413
endloop
endfacet
facet normal -0.0705577826805117 -0.572561932953191 0.816819706077244
outer loop
vertex -27.7832393841382 -34.8185784547995 8.84405703836417
vertex -40.1031623158554 -32.8169720456421 9.18290438463001
vertex -40.6380117439537 -33.2344629515332 8.84405703836417
endloop
endfacet
facet normal -0.0705577826805117 -0.572561932953191 0.816819706077244
outer loop
vertex -40.1031623158554 -32.8169720456421 9.18290438463001
vertex -27.7832393841382 -34.8185784547995 8.84405703836417
vertex -27.7245601230346 -34.3424082878049 9.18290438463001
endloop
endfacet
facet normal -0.0836027412985771 -0.678419096229905 0.729902809638353
outer loop
vertex -27.8356746488954 -35.2440798722721 8.44256246252348
vertex -40.6380117439537 -33.2344629515332 8.84405703836417
vertex -41.1159484261834 -33.6075291042485 8.44256246252348
endloop
endfacet
facet normal -0.0836027412985771 -0.678419096229905 0.729902809638353
outer loop
vertex -40.6380117439537 -33.2344629515332 8.84405703836417
vertex -27.8356746488954 -35.2440798722721 8.44256246252348
vertex -27.7832393841382 -34.8185784547995 8.84405703836417
endloop
endfacet
facet normal -0.0950650618300388 -0.771433476079961 0.629168519557709
outer loop
vertex -27.8356746488954 -35.2440798722721 8.44256246252348
vertex -41.5279248028051 -33.9291081910825 7.98602113285095
vertex -27.8808732937893 -35.6108576039999 7.98602113285095
endloop
endfacet
facet normal -0.0950650618300388 -0.771433476079961 0.629168519557709
outer loop
vertex -41.5279248028051 -33.9291081910825 7.98602113285095
vertex -27.8356746488954 -35.2440798722721 8.44256246252348
vertex -41.1159484261834 -33.6075291042485 8.44256246252348
endloop
endfacet
facet normal -0.104727757310688 -0.849844267799282 0.516523781966886
outer loop
vertex -27.8808732937893 -35.6108576039999 7.98602113285095
vertex -41.8661419727983 -34.1931125730081 7.4830755852877
vertex -27.9179796878231 -35.9119683799593 7.4830755852877
endloop
endfacet
facet normal -0.104727757310688 -0.849844267799282 0.516523781966886
outer loop
vertex -41.8661419727983 -34.1931125730081 7.4830755852877
vertex -27.8808732937893 -35.6108576039999 7.98602113285095
vertex -41.5279248028051 -33.9291081910825 7.98602113285095
endloop
endfacet
facet normal -0.112407908500685 -0.912167119278737 0.394101013210105
outer loop
vertex -27.9440542785566 -36.1235583350885 6.98590256750764
vertex -42.124197330621 -34.3945445264656 6.94324680881922
vertex -27.9462913900057 -36.1417120355994 6.94324680881922
endloop
endfacet
facet normal -0.112407908500685 -0.912167119278737 0.394101013210105
outer loop
vertex -42.124197330621 -34.3945445264656 6.94324680881922
vertex -27.9440542785566 -36.1235583350885 6.98590256750764
vertex -41.8661419727983 -34.1931125730081 7.4830755852877
endloop
endfacet
facet normal -0.112407908500685 -0.912167119278737 0.394101013210105
outer loop
vertex -41.8661419727983 -34.1931125730081 7.4830755852877
vertex -27.9440542785566 -36.1235583350885 6.98590256750764
vertex -27.9179796878231 -35.9119683799593 7.4830755852877
endloop
endfacet
facet normal -0.117960126629333 -0.957222230467692 0.264217732228648
outer loop
vertex -27.9462913900057 -36.1417120355994 6.94324680881922
vertex -42.2972057704572 -34.5295908525519 6.37675400880424
vertex -27.9652724468807 -36.2957394185607 6.37675400880424
endloop
endfacet
facet normal -0.117960126629333 -0.957222230467692 0.264217732228648
outer loop
vertex -42.2972057704572 -34.5295908525519 6.37675400880424
vertex -27.9462913900057 -36.1417120355994 6.94324680881922
vertex -42.124197330621 -34.3945445264656 6.94324680881922
endloop
endfacet
facet normal -0.121279305670933 -0.984156687527965 0.129332688868516
outer loop
vertex -27.9652724468807 -36.2957394185607 6.37675400880424
vertex -42.3818921635022 -34.5956950626184 5.79432115274867
vertex -27.9745635383699 -36.3711347201164 5.79432115274867
endloop
endfacet
facet normal -0.121279305670933 -0.984156687527965 0.129332688868516
outer loop
vertex -42.3818921635022 -34.5956950626184 5.79432115274867
vertex -27.9652724468807 -36.2957394185607 6.37675400880424
vertex -42.2972057704572 -34.5295908525519 6.37675400880424
endloop
endfacet
facet normal -0.122302612049865 -0.992460608882427 -0.00800068137744691
outer loop
vertex -27.9745635383699 -36.3711347201164 5.79432115274867
vertex -42.3766533576467 -34.591605773769 5.20697396070145
vertex -27.9739887798668 -36.366470672764 5.20697396070145
endloop
endfacet
facet normal -0.122302612049865 -0.992460608882427 -0.00800068137744691
outer loop
vertex -42.3766533576467 -34.591605773769 5.20697396070145
vertex -27.9745635383699 -36.3711347201164 5.79432115274867
vertex -42.3818921635022 -34.5956950626184 5.79432115274867
endloop
endfacet
facet normal -0.121010674108877 -0.981976797506203 -0.145182595069716
outer loop
vertex -27.9739887798668 -36.366470672764 5.20697396070145
vertex -42.2815885258788 -34.5174003981099 4.62583118333696
vertex -27.9635590518124 -36.2818355690505 4.62583118333696
endloop
endfacet
facet normal -0.121010674108877 -0.981976797506203 -0.145182595069716
outer loop
vertex -42.2815885258788 -34.5174003981099 4.62583118333696
vertex -27.9739887798668 -36.366470672764 5.20697396070145
vertex -42.3766533576467 -34.591605773769 5.20697396070145
endloop
endfacet
facet normal -0.117427948823414 -0.952903716738147 -0.279616135910915
outer loop
vertex -27.9440542785566 -36.1235583350885 4.0782470121506
vertex -42.0984972888943 -34.3744836773028 4.06189411892516
vertex -27.9434717937238 -36.1188315901547 4.06189411892516
endloop
endfacet
facet normal -0.117427948823414 -0.952903716738147 -0.279616135910915
outer loop
vertex -42.0984972888943 -34.3744836773028 4.06189411892516
vertex -27.9440542785566 -36.1235583350885 4.0782470121506
vertex -42.2815885258788 -34.5174003981099 4.62583118333696
endloop
endfacet
facet normal -0.117427948823414 -0.952903716738147 -0.279616135910915
outer loop
vertex -42.2815885258788 -34.5174003981099 4.62583118333696
vertex -27.9440542785566 -36.1235583350885 4.0782470121506
vertex -27.9635590518124 -36.2818355690505 4.62583118333696
endloop
endfacet
facet normal 0.0 0.0 -1.0
outer loop
vertex -38.9041107125942 -31.8810205165631 4.06189411892516
vertex -27.9434717937238 -36.1188315901547 4.06189411892516
vertex -42.0984972888943 -34.3744836773028 4.06189411892516
endloop
endfacet
facet normal 0.0 0.0 -1.0
outer loop
vertex -27.9434717937238 -36.1188315901547 4.06189411892516
vertex -38.9041107125942 -31.8810205165631 4.06189411892516
vertex -27.5930100859435 -33.2749067216347 4.06189411892516
endloop
endfacet
facet normal 0.0 0.0 -1.0
outer loop
vertex -34.2323913136063 29.4573527399365 4.06189411892516
vertex -38.9041107125942 -31.8810205165631 4.06189411892516
vertex -42.0984972888943 -34.3744836773028 4.06189411892516
endloop
endfacet
facet normal 0.0 0.0 -1.0
outer loop
vertex -38.9041107125942 -31.8810205165631 4.06189411892516
vertex -34.2323913136063 29.4573527399365 4.06189411892516
vertex -31.3884664450864 29.1068910321562 4.06189411892516
endloop
endfacet
facet normal -0.122306526588083 -0.992492374557084 9.68990786743731e-16
outer loop
vertex -27.5930100859435 -33.2749067216347 18.5213625
vertex -38.9041107125942 -31.8810205165631 9.64830661892516
vertex -27.5930100859435 -33.2749067216347 9.64830661892516
endloop
endfacet
facet normal -0.122306526588083 -0.992492374557084 9.68990786743731e-16
outer loop
vertex -38.9041107125942 -31.8810205165631 9.64830661892516
vertex -27.5930100859435 -33.2749067216347 18.5213625
vertex -38.9041107125942 -31.8810205165631 18.5213625
endloop
endfacet
facet normal -0.992492374557084 0.122306526588082 -5.94436499634019e-17
outer loop
vertex -27.9434717937238 -36.1188315901547 4.06189411892516
vertex -27.9440542785566 -36.1235583350885 0.0
vertex -27.9440542785566 -36.1235583350885 4.0782470121506
endloop
endfacet
facet normal -0.992492374557084 0.122306526588082 -5.94436499634019e-17
outer loop
vertex -27.9440542785566 -36.1235583350885 0.0
vertex -27.9434717937238 -36.1188315901547 4.06189411892516
vertex -27.5930100859435 -33.2749067216347 0.0
endloop
endfacet
facet normal -0.992492374557084 0.122306526588082 -5.94436499634019e-17
outer loop
vertex -27.5930100859435 -33.2749067216347 0.0
vertex -27.9434717937238 -36.1188315901547 4.06189411892516
vertex -27.5930100859435 -33.2749067216347 4.06189411892516
endloop
endfacet
facet normal -0.992492374557084 0.122306526588083 -1.14874262310626e-17
outer loop
vertex -27.5930100859435 -33.2749067216347 22.018625
vertex -27.9440542785566 -36.1235583350885 6.98590256750764
vertex -27.9440542785566 -36.1235583350885 22.018625
endloop
endfacet
facet normal -0.992492374557084 0.122306526588083 -1.14874262310626e-17
outer loop
vertex -27.9440542785566 -36.1235583350885 6.98590256750764
vertex -27.5930100859435 -33.2749067216347 22.018625
vertex -27.9179796878231 -35.9119683799593 7.4830755852877
endloop
endfacet
facet normal -0.992492374557084 0.122306526588083 -1.14874262310626e-17
outer loop
vertex -27.9179796878231 -35.9119683799593 7.4830755852877
vertex -27.5930100859435 -33.2749067216347 22.018625
vertex -27.8808732937893 -35.6108576039999 7.98602113285095
endloop
endfacet
facet normal -0.992492374557084 0.122306526588083 -1.14874262310626e-17
outer loop
vertex -27.8808732937893 -35.6108576039999 7.98602113285095
vertex -27.5930100859435 -33.2749067216347 22.018625
vertex -27.8356746488954 -35.2440798722721 8.44256246252348
endloop
endfacet
facet normal -0.992492374557084 0.122306526588083 -1.14874262310626e-17
outer loop
vertex -27.8356746488954 -35.2440798722721 8.44256246252348
vertex -27.5930100859435 -33.2749067216347 22.018625
vertex -27.7832393841382 -34.8185784547995 8.84405703836417
endloop
endfacet
facet normal -0.992492374557084 0.122306526588083 -1.14874262310626e-17
outer loop
vertex -27.7832393841382 -34.8185784547995 8.84405703836417
vertex -27.5930100859435 -33.2749067216347 22.018625
vertex -27.7245601230346 -34.3424082878049 9.18290438463001
endloop
endfacet
facet normal -0.992492374557084 0.122306526588083 -1.14874262310626e-17
outer loop
vertex -27.7245601230346 -34.3424082878049 9.18290438463001
vertex -27.5930100859435 -33.2749067216347 22.018625
vertex -27.6607476908048 -33.8245834900871 9.45268996625413
endloop
endfacet
facet normal -0.992492374557084 0.122306526588083 -1.14874262310626e-17
outer loop
vertex -27.6607476908048 -33.8245834900871 9.45268996625413
vertex -27.5930100859435 -33.2749067216347 22.018625
vertex -27.5930100859435 -33.2749067216347 9.64830661892516
endloop
endfacet
facet normal -0.992492374557084 0.122306526588083 -1.14874262310626e-17
outer loop
vertex -27.5930100859435 -33.2749067216347 9.64830661892516
vertex -27.5930100859435 -33.2749067216347 22.018625
vertex -27.5930100859435 -33.2749067216347 18.5213625
endloop
endfacet
facet normal -0.992492374557084 0.122306526588083 -2.14173735398511e-17
outer loop
vertex -28.4547211340252 52.913632433024 18.5213625
vertex -31.3884664450864 29.1068910321562 10.5690566189252
vertex -38.9041107125942 -31.8810205165631 18.5213625
endloop
endfacet
facet normal -0.992492374557084 0.122306526588083 -2.14173735398511e-17
outer loop
vertex -31.3884664450864 29.1068910321562 10.5690566189252
vertex -28.4547211340252 52.913632433024 18.5213625
vertex -31.3657495366043 29.2912340845755 10.5690566189252
endloop
endfacet
facet normal -0.992492374557084 0.122306526588083 -2.14173735398511e-17
outer loop
vertex -31.3657495366043 29.2912340845755 10.5690566189252
vertex -28.4547211340252 52.913632433024 18.5213625
vertex -28.6697536235551 51.1686878900463 10.5690566189252
endloop
endfacet
facet normal -0.992492374557084 0.122306526588083 -2.14173735398511e-17
outer loop
vertex -28.6697536235551 51.1686878900463 10.5690566189252
vertex -28.4547211340252 52.913632433024 18.5213625
vertex -28.6697536235551 51.1686878900463 5.73511911892516
endloop
endfacet
facet normal -0.992492374557084 0.122306526588083 -2.14173735398511e-17
outer loop
vertex -28.6697536235551 51.1686878900463 5.73511911892516
vertex -28.4547211340252 52.913632433024 18.5213625
vertex -28.5956458330582 51.7700574082174 5.73511911892516
endloop
endfacet
facet normal -0.992492374557084 0.122306526588083 -2.14173735398511e-17
outer loop
vertex -28.5956458330582 51.7700574082174 5.73511911892516
vertex -28.4547211340252 52.913632433024 18.5213625
vertex -28.5956458330582 51.7700574082174 4.06189411892516
endloop
endfacet
facet normal -0.992492374557084 0.122306526588083 -2.14173735398511e-17
outer loop
vertex -31.3884664450864 29.1068910321562 4.06189411892516
vertex -38.9041107125942 -31.8810205165631 0.0
vertex -38.9041107125942 -31.8810205165631 4.06189411892516
endloop
endfacet
facet normal -0.992492374557084 0.122306526588083 -2.14173735398511e-17
outer loop
vertex -38.9041107125942 -31.8810205165631 0.0
vertex -31.3884664450864 29.1068910321562 4.06189411892516
vertex -28.4547211340252 52.913632433024 0.0
endloop
endfacet
facet normal -0.992492374557084 0.122306526588083 -2.14173735398511e-17
outer loop
vertex -28.4547211340252 52.913632433024 0.0
vertex -31.3884664450864 29.1068910321562 4.06189411892516
vertex -28.5956458330582 51.7700574082174 4.06189411892516
endloop
endfacet
facet normal -0.992492374557084 0.122306526588083 -2.14173735398511e-17
outer loop
vertex -28.4547211340252 52.913632433024 0.0
vertex -28.5956458330582 51.7700574082174 4.06189411892516
vertex -28.4547211340252 52.913632433024 18.5213625
endloop
endfacet
facet normal -0.992492374557084 0.122306526588083 -2.14173735398511e-17
outer loop
vertex -38.9041107125942 -31.8810205165631 18.5213625
vertex -31.3884664450864 29.1068910321562 9.64830661892516
vertex -38.9041107125942 -31.8810205165631 9.64830661892516
endloop
endfacet
facet normal -0.992492374557084 0.122306526588083 -2.14173735398511e-17
outer loop
vertex -31.3884664450864 29.1068910321562 9.64830661892516
vertex -38.9041107125942 -31.8810205165631 18.5213625
vertex -31.3884664450864 29.1068910321562 10.5690566189252
endloop
endfacet
facet normal -0.957222230467693 0.117960126629333 0.264217732228644
outer loop
vertex -42.124197330621 -34.3945445264656 6.94324680881922
vertex -34.4092991420123 29.4791533930934 6.37675400880424
vertex -42.2972057704572 -34.5295908525519 6.37675400880424
endloop
endfacet
facet normal -0.957222230467693 0.117960126629333 0.264217732228644
outer loop
vertex -34.4092991420123 29.4791533930934 6.37675400880424
vertex -42.124197330621 -34.3945445264656 6.94324680881922
vertex -34.2552717590511 29.4601723362184 6.94324680881922
endloop
endfacet
facet normal -0.984156687527966 0.121279305670934 0.129332688868504
outer loop
vertex -42.2972057704572 -34.5295908525519 6.37675400880424
vertex -34.4846944435681 29.4884444845826 5.79432115274867
vertex -42.3818921635022 -34.5956950626184 5.79432115274867
endloop
endfacet
facet normal -0.984156687527966 0.121279305670934 0.129332688868504
outer loop
vertex -34.4846944435681 29.4884444845826 5.79432115274867
vertex -42.2972057704572 -34.5295908525519 6.37675400880424
vertex -34.4092991420123 29.4791533930934 6.37675400880424
endloop
endfacet
facet normal -0.981976797506198 0.121010674108877 -0.145182595069748
outer loop
vertex -34.4800303962157 29.4878697260795 5.20697396070145
vertex -42.2815885258788 -34.5174003981099 4.62583118333696
vertex -42.3766533576467 -34.591605773769 5.20697396070145
endloop
endfacet
facet normal -0.981976797506198 0.121010674108877 -0.145182595069748
outer loop
vertex -42.2815885258788 -34.5174003981099 4.62583118333696
vertex -34.4800303962157 29.4878697260795 5.20697396070145
vertex -34.3953952925022 29.4774399980252 4.62583118333696
endloop
endfacet
facet normal -0.95290371673815 0.117427948823414 -0.279616135910905
outer loop
vertex -34.3953952925022 29.4774399980252 4.62583118333696
vertex -42.0984972888943 -34.3744836773028 4.06189411892516
vertex -42.2815885258788 -34.5174003981099 4.62583118333696
endloop
endfacet
facet normal -0.95290371673815 0.117427948823414 -0.279616135910905
outer loop
vertex -42.0984972888943 -34.3744836773028 4.06189411892516
vertex -34.3953952925022 29.4774399980252 4.62583118333696
vertex -34.2323913136063 29.4573527399365 4.06189411892516
endloop
endfacet
facet normal -0.992460608882427 0.122302612049865 -0.0080006813774211
outer loop
vertex -34.4846944435681 29.4884444845826 5.79432115274867
vertex -42.3766533576467 -34.591605773769 5.20697396070145
vertex -42.3818921635022 -34.5956950626184 5.79432115274867
endloop
endfacet
facet normal -0.992460608882427 0.122302612049865 -0.0080006813774211
outer loop
vertex -42.3766533576467 -34.591605773769 5.20697396070145
vertex -34.4846944435681 29.4884444845826 5.79432115274867
vertex -34.4800303962157 29.4878697260795 5.20697396070145
endloop
endfacet
facet normal -0.584464569202177 0.0720245648283391 0.808216325873588
outer loop
vertex -32.2698241336995 29.4026447377774 10.1226499785762
vertex -29.981370211852 51.330320637302 9.82345894388993
vertex -32.6773661249012 29.4528668318311 9.82345894388993
endloop
endfacet
facet normal -0.584464569202177 0.0720245648283391 0.808216325873588
outer loop
vertex -29.981370211852 51.330320637302 9.82345894388993
vertex -32.2698241336995 29.4026447377774 10.1226499785762
vertex -29.5738282206503 51.2800985432482 10.1226499785762
endloop
endfacet
facet normal -0.673382974160777 0.0829821313941197 0.734621900013657
outer loop
vertex -32.6773661249012 29.4528668318311 9.82345894388993
vertex -30.3518023131688 51.3759696163876 9.47875002671071
vertex -33.047798226218 29.4985158109167 9.47875002671071
endloop
endfacet
facet normal -0.673382974160777 0.0829821313941197 0.734621900013657
outer loop
vertex -30.3518023131688 51.3759696163876 9.47875002671071
vertex -32.6773661249012 29.4528668318311 9.82345894388993
vertex -29.981370211852 51.330320637302 9.82345894388993
endloop
endfacet
facet normal -0.753249300194214 0.0928241948486227 0.651152179300378
outer loop
vertex -30.3518023131688 51.3759696163876 9.47875002671071
vertex -33.3761408335522 29.5389780299356 9.09315704233276
vertex -33.047798226218 29.4985158109167 9.47875002671071
endloop
endfacet
facet normal -0.753249300194214 0.0928241948486227 0.651152179300378
outer loop
vertex -33.3761408335522 29.5389780299356 9.09315704233276
vertex -30.3518023131688 51.3759696163876 9.47875002671071
vertex -30.680144920503 51.4164318354065 9.09315704233276
endloop
endfacet
facet normal -0.822989928998428 0.101418451378723 0.558929221357324
outer loop
vertex -30.680144920503 51.4164318354065 9.09315704233276
vertex -33.6579801388478 29.5737095677997 8.67186339791294
vertex -33.3761408335522 29.5389780299356 9.09315704233276
endloop
endfacet
facet normal -0.822989928998428 0.101418451378723 0.558929221357324
outer loop
vertex -33.6579801388478 29.5737095677997 8.67186339791294
vertex -30.680144920503 51.4164318354065 9.09315704233276
vertex -30.9619842257986 51.4511633732705 8.67186339791294
endloop
endfacet
facet normal -0.881667358883498 0.108649371053609 0.459192750867273
outer loop
vertex -30.9619842257986 51.4511633732705 8.67186339791294
vertex -33.8895274635465 29.602243539194 8.22053241353252
vertex -33.6579801388478 29.5737095677997 8.67186339791294
endloop
endfacet
facet normal -0.881667358883498 0.108649371053609 0.459192750867273
outer loop
vertex -33.8895274635465 29.602243539194 8.22053241353252
vertex -30.9619842257986 51.4511633732705 8.67186339791294
vertex -31.1935315504973 51.4796973446648 8.22053241353252
endloop
endfacet
facet normal -0.928492807318805 0.114419750857894 0.35328349433686
outer loop
vertex -31.1935315504973 51.4796973446648 8.22053241353252
vertex -34.0676701886208 29.6241963707717 7.74523119193802
vertex -33.8895274635465 29.602243539194 8.22053241353252
endloop
endfacet
facet normal -0.928492807318805 0.114419750857894 0.35328349433686
outer loop
vertex -34.0676701886208 29.6241963707717 7.74523119193802
vertex -31.1935315504973 51.4796973446648 8.22053241353252
vertex -31.3716742755717 51.5016501762425 7.74523119193802
endloop
endfacet
facet normal -0.962836814292421 0.11865202136167 0.242625157125168
outer loop
vertex -31.3716742755717 51.5016501762425 7.74523119193802
vertex -34.1900135965488 29.6392729574117 7.25234906035655
vertex -34.0676701886208 29.6241963707717 7.74523119193802
endloop
endfacet
facet normal -0.962836814292421 0.11865202136167 0.242625157125168
outer loop
vertex -34.1900135965488 29.6392729574117 7.25234906035655
vertex -31.3716742755717 51.5016501762425 7.74523119193802
vertex -31.4940176834997 51.5167267628826 7.25234906035655
endloop
endfacet
facet normal -0.122306526588083 -0.992492374557084 2.22956870492491e-16
outer loop
vertex -31.3657495366043 29.2912340845755 9.64830661892516
vertex -34.2096744051242 29.6416957923558 5.73511911892516
vertex -31.3657495366043 29.2912340845755 5.73511911892516
endloop
endfacet
facet normal -0.122306526588083 -0.992492374557084 2.22956870492491e-16
outer loop
vertex -34.2096744051242 29.6416957923558 5.73511911892516
vertex -31.3657495366043 29.2912340845755 9.64830661892516
vertex -34.2096744051242 29.6416957923558 6.99700900231732
endloop
endfacet
facet normal -0.122306526588083 -0.992492374557084 2.22956870492491e-16
outer loop
vertex -34.2096744051242 29.6416957923558 6.99700900231732
vertex -31.3657495366043 29.2912340845755 9.64830661892516
vertex -34.0028111949289 29.6162036864551 7.4830755852877
endloop
endfacet
facet normal -0.122306526588083 -0.992492374557084 2.22956870492491e-16
outer loop
vertex -34.0028111949289 29.6162036864551 7.4830755852877
vertex -31.3657495366043 29.2912340845755 9.64830661892516
vertex -33.7017004189694 29.5790972924213 7.98602113285095
endloop
endfacet
facet normal -0.122306526588083 -0.992492374557084 2.22956870492491e-16
outer loop
vertex -33.7017004189694 29.5790972924213 7.98602113285095
vertex -31.3657495366043 29.2912340845755 9.64830661892516
vertex -33.3349226872416 29.5338986475274 8.44256246252348
endloop
endfacet
facet normal -0.122306526588083 -0.992492374557084 2.22956870492491e-16
outer loop
vertex -33.3349226872416 29.5338986475274 8.44256246252348
vertex -31.3657495366043 29.2912340845755 9.64830661892516
vertex -32.9094212697691 29.4814633827702 8.84405703836417
endloop
endfacet
facet normal -0.122306526588083 -0.992492374557084 2.22956870492491e-16
outer loop
vertex -32.9094212697691 29.4814633827702 8.84405703836417
vertex -31.3657495366043 29.2912340845755 9.64830661892516
vertex -32.4332511027744 29.4227841216666 9.18290438463001
endloop
endfacet
facet normal -0.122306526588083 -0.992492374557084 2.22956870492491e-16
outer loop
vertex -32.4332511027744 29.4227841216666 9.18290438463001
vertex -31.3657495366043 29.2912340845755 9.64830661892516
vertex -31.9154263050566 29.3589716894368 9.45268996625413
endloop
endfacet
facet normal -0.992492374557083 0.122306526588094 -6.91713701493464e-16
outer loop
vertex -34.2096744051242 29.6416957923558 10.5690566189252
vertex -34.2323913136063 29.4573527399365 6.99700900231732
vertex -34.2323913136063 29.4573527399365 10.5690566189252
endloop
endfacet
facet normal -0.992492374557083 0.122306526588094 -6.91713701493464e-16
outer loop
vertex -34.2323913136063 29.4573527399365 6.99700900231732
vertex -34.2096744051242 29.6416957923558 10.5690566189252
vertex -34.2096744051242 29.6416957923558 6.99700900231732
endloop
endfacet
facet normal -0.992492374557083 0.122306526588094 -6.91713701493464e-16
outer loop
vertex -34.2096744051242 29.6416957923558 6.99700900231732
vertex -34.2096744051242 29.6416957923558 10.5690566189252
vertex -34.2096744051242 29.6416957923558 7.09971528920415
endloop
endfacet
facet normal -0.0 -0.0 1.0
outer loop
vertex -31.3884664450864 29.1068910321562 10.5690566189252
vertex -34.2096744051242 29.6416957923558 10.5690566189252
vertex -34.2323913136063 29.4573527399365 10.5690566189252
endloop
endfacet
facet normal -0.0 -0.0 1.0
outer loop
vertex -34.2096744051242 29.6416957923558 10.5690566189252
vertex -31.3884664450864 29.1068910321562 10.5690566189252
vertex -31.3657495366043 29.2912340845755 10.5690566189252
endloop
endfacet
facet normal -0.984237703947277 0.121289289462342 0.128705285013136
outer loop
vertex -31.4940176834997 51.5167267628826 7.25234906035655
vertex -34.2096744051242 29.6416957923558 7.09971528920415
vertex -34.1900135965488 29.6392729574117 7.25234906035655
endloop
endfacet
facet normal -0.984237703947277 0.121289289462342 0.128705285013136
outer loop
vertex -34.2096744051242 29.6416957923558 7.09971528920415
vertex -31.4940176834997 51.5167267628826 7.25234906035655
vertex -34.2549130627601 29.6472706292259 6.74851168074733
endloop
endfacet
facet normal -0.984237703947277 0.121289289462342 0.128705285013136
outer loop
vertex -34.2549130627601 29.6472706292259 6.74851168074733
vertex -31.4940176834997 51.5167267628826 7.25234906035655
vertex -31.5589171497109 51.5247244346967 6.74851168074733
endloop
endfacet
facet normal -0.992407790746827 0.122296103181009 0.0130552675859911
outer loop
vertex -31.5589171497109 51.5247244346967 6.74851168074733
vertex -34.2614961638153 29.6480818759869 6.2404919830784
vertex -34.2549130627601 29.6472706292259 6.74851168074733
endloop
endfacet
facet normal -0.992407790746827 0.122296103181009 0.0130552675859911
outer loop
vertex -34.2614961638153 29.6480818759869 6.2404919830784
vertex -31.5589171497109 51.5247244346967 6.74851168074733
vertex -31.5655002507661 51.5255356814577 6.2404919830784
endloop
endfacet
facet normal -0.987237246742678 0.121658928232435 -0.102770247763013
outer loop
vertex -34.2614961638153 29.6480818759869 6.2404919830784
vertex -31.513678492075 51.5191495978266 5.73511911892516
vertex -34.2096744051242 29.6416957923558 5.73511911892516
endloop
endfacet
facet normal -0.987237246742678 0.121658928232435 -0.102770247763013
outer loop
vertex -31.513678492075 51.5191495978266 5.73511911892516
vertex -34.2614961638153 29.6480818759869 6.2404919830784
vertex -31.5655002507661 51.5255356814577 6.2404919830784
endloop
endfacet
facet normal -0.992492374557084 0.122306526588083 -3.03521457366536e-16
outer loop
vertex -28.6697536235551 51.1686878900463 10.5690566189252
vertex -31.3657495366043 29.2912340845755 9.64830661892516
vertex -31.3657495366043 29.2912340845755 10.5690566189252
endloop
endfacet
facet normal -0.992492374557084 0.122306526588083 -3.03521457366536e-16
outer loop
vertex -31.3657495366043 29.2912340845755 9.64830661892516
vertex -28.6697536235551 51.1686878900463 10.5690566189252
vertex -31.3657495366043 29.2912340845755 5.73511911892516
endloop
endfacet
facet normal -0.992492374557084 0.122306526588083 -3.03521457366536e-16
outer loop
vertex -31.3657495366043 29.2912340845755 5.73511911892516
vertex -28.6697536235551 51.1686878900463 10.5690566189252
vertex -28.6697536235551 51.1686878900463 5.73511911892516
endloop
endfacet
facet normal -0.0 -0.0 1.0
outer loop
vertex -28.6697536235551 51.1686878900463 5.73511911892516
vertex -31.4395707015781 52.1205191159977 5.73511911892516
vertex -31.513678492075 51.5191495978266 5.73511911892516
endloop
endfacet
facet normal -0.0 -0.0 1.0
outer loop
vertex -31.4395707015781 52.1205191159977 5.73511911892516
vertex -28.6697536235551 51.1686878900463 5.73511911892516
vertex -28.5956458330582 51.7700574082174 5.73511911892516
endloop
endfacet
facet normal 0.122306526588082 0.992492374557084 2.31975525031988e-15
outer loop
vertex -34.2096744051242 29.6416957923558 10.5690566189252
vertex -34.1900135965488 29.6392729574117 7.25234906035655
vertex -34.2096744051242 29.6416957923558 7.09971528920415
endloop
endfacet
facet normal 0.122306526588082 0.992492374557084 2.31975525031988e-15
outer loop
vertex -34.1900135965488 29.6392729574117 7.25234906035655
vertex -34.2096744051242 29.6416957923558 10.5690566189252
vertex -34.0676701886208 29.6241963707717 7.74523119193802
endloop
endfacet
facet normal 0.122306526588082 0.992492374557084 2.31975525031988e-15
outer loop
vertex -34.0676701886208 29.6241963707717 7.74523119193802
vertex -34.2096744051242 29.6416957923558 10.5690566189252
vertex -33.8895274635465 29.602243539194 8.22053241353252
endloop
endfacet
facet normal 0.122306526588082 0.992492374557084 2.31975525031988e-15
outer loop
vertex -33.8895274635465 29.602243539194 8.22053241353252
vertex -34.2096744051242 29.6416957923558 10.5690566189252
vertex -33.6579801388478 29.5737095677997 8.67186339791294
endloop
endfacet
facet normal 0.122306526588082 0.992492374557084 2.31975525031988e-15
outer loop
vertex -33.6579801388478 29.5737095677997 8.67186339791294
vertex -34.2096744051242 29.6416957923558 10.5690566189252
vertex -33.3761408335522 29.5389780299356 9.09315704233276
endloop
endfacet
facet normal 0.122306526588082 0.992492374557084 2.31975525031988e-15
outer loop
vertex -33.3761408335522 29.5389780299356 9.09315704233276
vertex -34.2096744051242 29.6416957923558 10.5690566189252
vertex -33.047798226218 29.4985158109167 9.47875002671071
endloop
endfacet
facet normal 0.122306526588082 0.992492374557084 2.31975525031988e-15
outer loop
vertex -33.047798226218 29.4985158109167 9.47875002671071
vertex -34.2096744051242 29.6416957923558 10.5690566189252
vertex -32.6773661249012 29.4528668318311 9.82345894388993
endloop
endfacet
facet normal 0.122306526588082 0.992492374557084 2.31975525031988e-15
outer loop
vertex -32.6773661249012 29.4528668318311 9.82345894388993
vertex -34.2096744051242 29.6416957923558 10.5690566189252
vertex -32.2698241336995 29.4026447377774 10.1226499785762
endloop
endfacet
facet normal 0.122306526588082 0.992492374557084 2.31975525031988e-15
outer loop
vertex -32.2698241336995 29.4026447377774 10.1226499785762
vertex -34.2096744051242 29.6416957923558 10.5690566189252
vertex -31.8306507134758 29.3485246488232 10.372301198283
endloop
endfacet
facet normal 0.122306526588082 0.992492374557084 2.31975525031988e-15
outer loop
vertex -31.8306507134758 29.3485246488232 10.372301198283
vertex -34.2096744051242 29.6416957923558 10.5690566189252
vertex -31.3657495366043 29.2912340845755 10.5690566189252
endloop
endfacet
facet normal -0.122306526587897 -0.992492374557107 -8.08225654875206e-19
outer loop
vertex -34.2096744051242 29.6416957923558 6.99700900231732
vertex -34.2614961638153 29.6480818759869 6.2404919830784
vertex -34.2096744051242 29.6416957923558 5.73511911892516
endloop
endfacet
facet normal -0.122306526587897 -0.992492374557107 -8.08225654875206e-19
outer loop
vertex -34.2614961638153 29.6480818759869 6.2404919830784
vertex -34.2096744051242 29.6416957923558 6.99700900231732
vertex -34.2549130627601 29.6472706292259 6.74851168074733
endloop
endfacet
facet normal -0.122306526587897 -0.992492374557107 -8.08225654875206e-19
outer loop
vertex -34.2549130627601 29.6472706292259 6.74851168074733
vertex -34.2096744051242 29.6416957923558 6.99700900231732
vertex -34.2096744051242 29.6416957923558 7.09971528920415
endloop
endfacet
facet normal 0.992492374557084 -0.122306526588084 1.05616867428192e-16
outer loop
vertex 17.9364796003599 -37.5883819186309 18.5213625
vertex 17.4279703412594 -41.7148302458628 22.018625
vertex 17.4279703412594 -41.7148302458628 18.5213625
endloop
endfacet
facet normal 0.992492374557084 -0.122306526588084 1.05616867428192e-16
outer loop
vertex 17.4279703412594 -41.7148302458628 22.018625
vertex 17.9364796003599 -37.5883819186309 18.5213625
vertex 17.9364796003599 -37.5883819186309 22.018625
endloop
endfacet
facet normal 0.0 0.0 1.0
outer loop
vertex -11.5981104493561 25.9318262519505 20.3962
vertex -15.1313522354651 33.6163872973781 20.3962
vertex -16.0113146359069 26.4756729242455 20.3962
endloop
endfacet
facet normal 0.0 0.0 1.0
outer loop
vertex -15.1313522354651 33.6163872973781 20.3962
vertex -11.5981104493561 25.9318262519505 20.3962
vertex -10.7181480489142 33.0725406250831 20.3962
endloop
endfacet
facet normal -0.122306526588083 -0.992492374557084 -0.0
outer loop
vertex -11.5981104493561 25.9318262519505 20.3962
vertex -16.0113146359069 26.4756729242455 18.5213625
vertex -11.5981104493561 25.9318262519505 18.5213625
endloop
endfacet
facet normal -0.122306526588083 -0.992492374557084 -0.0
outer loop
vertex -16.0113146359069 26.4756729242455 18.5213625
vertex -11.5981104493561 25.9318262519505 20.3962
vertex -16.0113146359069 26.4756729242455 20.3962
endloop
endfacet
facet normal 0.992492374557084 -0.122306526588084 0.0
outer loop
vertex -10.7181480489142 33.0725406250831 18.5213625
vertex -11.5981104493561 25.9318262519505 20.3962
vertex -11.5981104493561 25.9318262519505 18.5213625
endloop
endfacet
facet normal 0.992492374557084 -0.122306526588084 0.0
outer loop
vertex -11.5981104493561 25.9318262519505 20.3962
vertex -10.7181480489142 33.0725406250831 18.5213625
vertex -10.7181480489142 33.0725406250831 20.3962
endloop
endfacet
facet normal 0.122306526588082 0.992492374557084 0.0
outer loop
vertex -15.1313522354651 33.6163872973781 20.3962
vertex -10.7181480489142 33.0725406250831 18.5213625
vertex -15.1313522354651 33.6163872973781 18.5213625
endloop
endfacet
facet normal 0.122306526588082 0.992492374557084 0.0
outer loop
vertex -10.7181480489142 33.0725406250831 18.5213625
vertex -15.1313522354651 33.6163872973781 20.3962
vertex -10.7181480489142 33.0725406250831 20.3962
endloop
endfacet
facet normal -0.992492374557084 0.122306526588084 0.0
outer loop
vertex -15.1313522354651 33.6163872973781 20.3962
vertex -16.0113146359069 26.4756729242455 18.5213625
vertex -16.0113146359069 26.4756729242455 20.3962
endloop
endfacet
facet normal -0.992492374557084 0.122306526588084 0.0
outer loop
vertex -16.0113146359069 26.4756729242455 18.5213625
vertex -15.1313522354651 33.6163872973781 20.3962
vertex -15.1313522354651 33.6163872973781 18.5213625
endloop
endfacet
facet normal -0.384358349120836 0.0473651343337304 0.92196811415073
outer loop
vertex -31.3657495366043 29.2912340845755 10.5690566189252
vertex -29.1346548004266 51.225978454294 10.372301198283
vertex -31.8306507134758 29.3485246488232 10.372301198283
endloop
endfacet
facet normal -0.384358349120836 0.0473651343337304 0.92196811415073
outer loop
vertex -29.1346548004266 51.225978454294 10.372301198283
vertex -31.3657495366043 29.2912340845755 10.5690566189252
vertex -28.6697536235551 51.1686878900463 10.5690566189252
endloop
endfacet
facet normal -0.48768938791809 0.0600987943275119 0.8709461497891
outer loop
vertex -31.8306507134758 29.3485246488232 10.372301198283
vertex -29.5738282206503 51.2800985432482 10.1226499785762
vertex -32.2698241336995 29.4026447377774 10.1226499785762
endloop
endfacet
facet normal -0.48768938791809 0.0600987943275119 0.8709461497891
outer loop
vertex -29.5738282206503 51.2800985432482 10.1226499785762
vertex -31.8306507134758 29.3485246488232 10.372301198283
vertex -29.1346548004266 51.225978454294 10.372301198283
endloop
endfacet
facet normal 0.0 0.0 -1.0
outer loop
vertex -28.4547211340252 52.913632433024 0.0
vertex -27.5930100859435 -33.2749067216347 0.0
vertex -38.9041107125942 -31.8810205165631 0.0
endloop
endfacet
facet normal 0.0 0.0 -1.0
outer loop
vertex -27.5930100859435 -33.2749067216347 0.0
vertex -28.4547211340252 52.913632433024 0.0
vertex 9.19695342720492 48.2737524159468 0.0
endloop
endfacet
facet normal 0.0 0.0 -1.0
outer loop
vertex -27.5930100859435 -33.2749067216347 0.0
vertex 9.19695342720492 48.2737524159468 0.0
vertex -22.2744072916918 -33.9303272072147 0.0
endloop
endfacet
facet normal 0.0 0.0 -1.0
outer loop
vertex -27.5930100859435 -33.2749067216347 0.0
vertex -22.2744072916918 -33.9303272072147 0.0
vertex -22.625451484305 -36.7789788206684 0.0
endloop
endfacet
facet normal 0.0 0.0 -1.0
outer loop
vertex -22.2744072916918 -33.9303272072147 0.0
vertex 9.19695342720492 48.2737524159468 0.0
vertex -19.5016595736937 -34.2720176334456 0.0
endloop
endfacet
facet normal 0.0 0.0 -1.0
outer loop
vertex -19.5016595736937 -34.2720176334456 0.0
vertex 9.19695342720492 48.2737524159468 0.0
vertex 6.16880894269487 23.700981086619 0.0
endloop
endfacet
facet normal 0.0 0.0 -1.0
outer loop
vertex -19.5016595736937 -34.2720176334456 0.0
vertex 17.4279703412594 -41.7148302458628 0.0
vertex -19.8527037663068 -37.1206692468994 0.0
endloop
endfacet
facet normal 0.0 0.0 -1.0
outer loop
vertex 17.4279703412594 -41.7148302458628 0.0
vertex -19.5016595736937 -34.2720176334456 0.0
vertex 6.16880894269487 23.700981086619 0.0
endloop
endfacet
facet normal 0.0 0.0 -1.0
outer loop
vertex 17.4279703412594 -41.7148302458628 0.0
vertex 6.16880894269487 23.700981086619 0.0
vertex 25.2002596279315 21.3557029878503 0.0
endloop
endfacet
facet normal 0.0 0.0 -1.0
outer loop
vertex -22.625451484305 -36.7789788206684 0.0
vertex -27.9440542785566 -36.1235583350885 0.0
vertex -27.5930100859435 -33.2749067216347 0.0
endloop
endfacet
facet normal -0.0 -0.0 1.0
outer loop
vertex -13.7800845688856 18.2461711311337 18.5213625
vertex -16.0113146359069 26.4756729242455 18.5213625
vertex -19.0791432551672 -24.7546031135452 18.5213625
endloop
endfacet
facet normal -0.0 -0.0 1.0
outer loop
vertex -16.0113146359069 26.4756729242455 18.5213625
vertex -13.7800845688856 18.2461711311337 18.5213625
vertex -11.5981104493561 25.9318262519505 18.5213625
endloop
endfacet
facet normal -0.0 -0.0 1.0
outer loop
vertex -11.5981104493561 25.9318262519505 18.5213625
vertex -13.7800845688856 18.2461711311337 18.5213625
vertex 5.94147087668993 15.8158502467651 18.5213625
endloop
endfacet
facet normal -0.0 -0.0 1.0
outer loop
vertex -11.5981104493561 25.9318262519505 18.5213625
vertex 5.94147087668993 15.8158502467651 18.5213625
vertex -10.7181480489142 33.0725406250831 18.5213625
endloop
endfacet
facet normal -0.0 -0.0 1.0
outer loop
vertex -27.5930100859435 -33.2749067216347 18.5213625
vertex -28.4547211340252 52.913632433024 18.5213625
vertex -38.9041107125942 -31.8810205165631 18.5213625
endloop
endfacet
facet normal -0.0 -0.0 1.0
outer loop
vertex -28.4547211340252 52.913632433024 18.5213625
vertex -27.5930100859435 -33.2749067216347 18.5213625
vertex -15.1313522354651 33.6163872973781 18.5213625
endloop
endfacet
facet normal -0.0 -0.0 1.0
outer loop
vertex -28.4547211340252 52.913632433024 18.5213625
vertex -15.1313522354651 33.6163872973781 18.5213625
vertex 9.19695342720492 48.2737524159468 18.5213625
endloop
endfacet
facet normal -0.0 -0.0 1.0
outer loop
vertex -15.1313522354651 33.6163872973781 18.5213625
vertex -27.5930100859435 -33.2749067216347 18.5213625
vertex -16.0113146359069 26.4756729242455 18.5213625
endloop
endfacet
facet normal -0.0 -0.0 1.0
outer loop
vertex -16.0113146359069 26.4756729242455 18.5213625
vertex -27.5930100859435 -33.2749067216347 18.5213625
vertex -22.2744072916918 -33.9303272072147 18.5213625
endloop
endfacet
facet normal -0.0 -0.0 1.0
outer loop
vertex -16.0113146359069 26.4756729242455 18.5213625
vertex -22.2744072916918 -33.9303272072147 18.5213625
vertex -19.0791432551672 -24.7546031135452 18.5213625
endloop
endfacet
facet normal -0.0 -0.0 1.0
outer loop
vertex -19.0791432551672 -24.7546031135452 18.5213625
vertex -22.2744072916918 -33.9303272072147 18.5213625
vertex -19.5016595736937 -34.2720176334456 18.5213625
endloop
endfacet
facet normal -0.0 -0.0 1.0
outer loop
vertex 9.19695342720492 48.2737524159468 18.5213625
vertex -15.1313522354651 33.6163872973781 18.5213625
vertex -10.7181480489142 33.0725406250831 18.5213625
endloop
endfacet
facet normal -0.0 -0.0 1.0
outer loop
vertex 9.19695342720492 48.2737524159468 18.5213625
vertex -10.7181480489142 33.0725406250831 18.5213625
vertex 6.16880894269487 23.700981086619 18.5213625
endloop
endfacet
facet normal -0.0 -0.0 1.0
outer loop
vertex 6.16880894269487 23.700981086619 18.5213625
vertex -10.7181480489142 33.0725406250831 18.5213625
vertex 5.94147087668993 15.8158502467651 18.5213625
endloop
endfacet
facet normal -0.0 -0.0 1.0
outer loop
vertex 6.16880894269487 23.700981086619 18.5213625
vertex 5.94147087668993 15.8158502467651 18.5213625
vertex 6.02497670385423 15.8055596813843 18.5213625
endloop
endfacet
facet normal -0.0 -0.0 1.0
outer loop
vertex 11.7164868795504 -41.0109944061379 18.5213625
vertex -19.5016595736937 -34.2720176334456 18.5213625
vertex -19.8527037663068 -37.1206692468994 18.5213625
endloop
endfacet
facet normal -0.0 -0.0 1.0
outer loop
vertex -19.5016595736937 -34.2720176334456 18.5213625
vertex 11.7164868795504 -41.0109944061379 18.5213625
vertex -19.0791432551672 -24.7546031135452 18.5213625
endloop
endfacet
facet normal -0.0 -0.0 1.0
outer loop
vertex -19.0791432551672 -24.7546031135452 18.5213625
vertex 11.7164868795504 -41.0109944061379 18.5213625
vertex 0.725918017572582 -27.1952145632946 18.5213625
endloop
endfacet
facet normal -0.0 -0.0 1.0
outer loop
vertex 0.725918017572582 -27.1952145632946 18.5213625
vertex 11.7164868795504 -41.0109944061379 18.5213625
vertex 6.02497670385423 15.8055596813843 18.5213625
endloop
endfacet
facet normal -0.0 -0.0 1.0
outer loop
vertex 6.02497670385423 15.8055596813843 18.5213625
vertex 11.7164868795504 -41.0109944061379 18.5213625
vertex 6.16880894269487 23.700981086619 18.5213625
endloop
endfacet
facet normal -0.0 -0.0 1.0
outer loop
vertex 6.16880894269487 23.700981086619 18.5213625
vertex 11.7164868795504 -41.0109944061379 18.5213625
vertex 12.2249961386509 -36.884546078906 18.5213625
endloop
endfacet
facet normal -0.0 -0.0 1.0
outer loop
vertex 6.16880894269487 23.700981086619 18.5213625
vertex 12.2249961386509 -36.884546078906 18.5213625
vertex 25.2002596279315 21.3557029878503 18.5213625
endloop
endfacet
facet normal -0.0 -0.0 1.0
outer loop
vertex 25.2002596279315 21.3557029878503 18.5213625
vertex 12.2249961386509 -36.884546078906 18.5213625
vertex 17.9364796003599 -37.5883819186309 18.5213625
endloop
endfacet
facet normal 0.122306526588084 0.992492374557084 0.0
outer loop
vertex -28.4547211340252 52.913632433024 18.5213625
vertex 9.19695342720492 48.2737524159468 0.0
vertex -28.4547211340252 52.913632433024 0.0
endloop
endfacet
facet normal 0.122306526588084 0.992492374557084 0.0
outer loop
vertex 9.19695342720492 48.2737524159468 0.0
vertex -28.4547211340252 52.913632433024 18.5213625
vertex 9.19695342720492 48.2737524159468 18.5213625
endloop
endfacet
facet normal 0.992492374557084 -0.122306526588084 0.0
outer loop
vertex 9.19695342720492 48.2737524159468 0.0
vertex 6.16880894269487 23.700981086619 18.5213625
vertex 6.16880894269487 23.700981086619 0.0
endloop
endfacet
facet normal 0.992492374557084 -0.122306526588084 0.0
outer loop
vertex 6.16880894269487 23.700981086619 18.5213625
vertex 9.19695342720492 48.2737524159468 0.0
vertex 9.19695342720492 48.2737524159468 18.5213625
endloop
endfacet
facet normal 0.122306526588084 0.992492374557084 0.0
outer loop
vertex 6.16880894269487 23.700981086619 18.5213625
vertex 25.2002596279315 21.3557029878503 0.0
vertex 6.16880894269487 23.700981086619 0.0
endloop
endfacet
facet normal 0.122306526588084 0.992492374557084 0.0
outer loop
vertex 25.2002596279315 21.3557029878503 0.0
vertex 6.16880894269487 23.700981086619 18.5213625
vertex 25.2002596279315 21.3557029878503 18.5213625
endloop
endfacet
facet normal 0.992492374557084 -0.122306526588084 -0.0
outer loop
vertex 17.4279703412594 -41.7148302458628 0.0
vertex 17.9364796003599 -37.5883819186309 18.5213625
vertex 17.4279703412594 -41.7148302458628 18.5213625
endloop
endfacet
facet normal 0.992492374557084 -0.122306526588084 -0.0
outer loop
vertex 17.9364796003599 -37.5883819186309 18.5213625
vertex 17.4279703412594 -41.7148302458628 0.0
vertex 25.2002596279315 21.3557029878503 0.0
endloop
endfacet
facet normal 0.992492374557084 -0.122306526588084 -0.0
outer loop
vertex 17.9364796003599 -37.5883819186309 18.5213625
vertex 25.2002596279315 21.3557029878503 0.0
vertex 25.2002596279315 21.3557029878503 18.5213625
endloop
endfacet
facet normal 0.0 0.0 1.0
outer loop
vertex 0.725918017572582 -27.1952145632946 15.7527625
vertex 5.94147087668993 15.8158502467651 15.7527625
vertex 0.642412190408283 -27.1849239979138 15.7527625
endloop
endfacet
facet normal 0.0 0.0 1.0
outer loop
vertex 5.94147087668993 15.8158502467651 15.7527625
vertex 0.725918017572582 -27.1952145632946 15.7527625
vertex 6.02497670385423 15.8055596813843 15.7527625
endloop
endfacet
facet normal -0.122306526588084 -0.992492374557084 -0.0
outer loop
vertex 6.02497670385423 15.8055596813843 15.7527625
vertex 5.94147087668993 15.8158502467651 18.5213625
vertex 5.94147087668993 15.8158502467651 15.7527625
endloop
endfacet
facet normal -0.122306526588084 -0.992492374557084 -0.0
outer loop
vertex 5.94147087668993 15.8158502467651 18.5213625
vertex 6.02497670385423 15.8055596813843 15.7527625
vertex 6.02497670385423 15.8055596813843 18.5213625
endloop
endfacet
facet normal 0.992492374557084 -0.122306526588084 -1.6677863022981e-16
outer loop
vertex -13.7800845688856 18.2461711311337 18.5213625
vertex -19.0791432551672 -24.7546031135452 18.5213625
vertex -19.0791432551672 -24.7546031135452 15.7527625
endloop
endfacet
facet normal 0.122306526588084 0.992492374557084 0.0
outer loop
vertex -19.0791432551672 -24.7546031135452 15.7527625
vertex 0.725918017572582 -27.1952145632946 15.7527625
vertex 0.642412190408283 -27.1849239979138 15.7527625
endloop
endfacet
facet normal 0.122306526588084 0.992492374557084 0.0
outer loop
vertex 0.725918017572582 -27.1952145632946 15.7527625
vertex -19.0791432551672 -24.7546031135452 15.7527625
vertex -19.0791432551672 -24.7546031135452 18.5213625
endloop
endfacet
facet normal 0.122306526588084 0.992492374557084 0.0
outer loop
vertex 0.725918017572582 -27.1952145632946 15.7527625
vertex -19.0791432551672 -24.7546031135452 18.5213625
vertex 0.725918017572582 -27.1952145632946 18.5213625
endloop
endfacet
facet normal -0.992492374557084 0.122306526588084 -0.0
outer loop
vertex 6.02497670385423 15.8055596813843 18.5213625
vertex 0.725918017572582 -27.1952145632946 15.7527625
vertex 0.725918017572582 -27.1952145632946 18.5213625
endloop
endfacet
facet normal -0.992492374557084 0.122306526588084 -0.0
outer loop
vertex 0.725918017572582 -27.1952145632946 15.7527625
vertex 6.02497670385423 15.8055596813843 18.5213625
vertex 6.02497670385423 15.8055596813843 15.7527625
endloop
endfacet
facet normal 0.992492374557084 -0.122306526588084 -1.6677863022981e-16
outer loop
vertex 5.94147087668993 15.8158502467651 18.5213625
vertex 0.642412190408283 -27.1849239979138 15.7527625
vertex 5.94147087668993 15.8158502467651 15.7527625
endloop
endfacet
facet normal -0.00779966332238466 -0.0632926679182935 0.997964530151168
outer loop
vertex 0.642412190408283 -27.1849239979138 15.7527625
vertex -13.7800845688856 18.2461711311337 18.5213625
vertex -19.0791432551672 -24.7546031135452 15.7527625
endloop
endfacet
facet normal -0.00779966332238466 -0.0632926679182935 0.997964530151168
outer loop
vertex -13.7800845688856 18.2461711311337 18.5213625
vertex 0.642412190408283 -27.1849239979138 15.7527625
vertex 5.94147087668993 15.8158502467651 18.5213625
endloop
endfacet
facet normal 0.0 0.0 1.0
outer loop
vertex 17.4279703412594 -41.7148302458628 22.018625
vertex 12.2249961386509 -36.884546078906 22.018625
vertex 11.7164868795504 -41.0109944061379 22.018625
endloop
endfacet
facet normal 0.0 0.0 1.0
outer loop
vertex 12.2249961386509 -36.884546078906 22.018625
vertex 17.4279703412594 -41.7148302458628 22.018625
vertex 17.9364796003599 -37.5883819186309 22.018625
endloop
endfacet
facet normal 0.122306526588083 0.992492374557084 0.0
outer loop
vertex 12.2249961386509 -36.884546078906 22.018625
vertex 17.9364796003599 -37.5883819186309 18.5213625
vertex 12.2249961386509 -36.884546078906 18.5213625
endloop
endfacet
facet normal 0.122306526588083 0.992492374557084 0.0
outer loop
vertex 17.9364796003599 -37.5883819186309 18.5213625
vertex 12.2249961386509 -36.884546078906 22.018625
vertex 17.9364796003599 -37.5883819186309 22.018625
endloop
endfacet
facet normal -0.992492374557084 0.122306526588084 0.0
outer loop
vertex 12.2249961386509 -36.884546078906 22.018625
vertex 11.7164868795504 -41.0109944061379 18.5213625
vertex 11.7164868795504 -41.0109944061379 22.018625
endloop
endfacet
facet normal -0.992492374557084 0.122306526588084 0.0
outer loop
vertex 11.7164868795504 -41.0109944061379 18.5213625
vertex 12.2249961386509 -36.884546078906 22.018625
vertex 12.2249961386509 -36.884546078906 18.5213625
endloop
endfacet
facet normal 0.0 0.0 1.0
outer loop
vertex -22.625451484305 -36.7789788206684 22.018625
vertex -27.5930100859435 -33.2749067216347 22.018625
vertex -27.9440542785566 -36.1235583350885 22.018625
endloop
endfacet
facet normal 0.0 0.0 1.0
outer loop
vertex -27.5930100859435 -33.2749067216347 22.018625
vertex -22.625451484305 -36.7789788206684 22.018625
vertex -22.2744072916918 -33.9303272072147 22.018625
endloop
endfacet
facet normal 0.122306526588084 0.992492374557084 -0.0
outer loop
vertex -27.5930100859435 -33.2749067216347 22.018625
vertex -22.2744072916918 -33.9303272072147 18.5213625
vertex -27.5930100859435 -33.2749067216347 18.5213625
endloop
endfacet
facet normal 0.122306526588084 0.992492374557084 -0.0
outer loop
vertex -22.2744072916918 -33.9303272072147 18.5213625
vertex -27.5930100859435 -33.2749067216347 22.018625
vertex -22.2744072916918 -33.9303272072147 22.018625
endloop
endfacet
facet normal -0.122306526588084 -0.992492374557084 1.61520599406694e-18
outer loop
vertex -22.625451484305 -36.7789788206684 22.018625
vertex -27.9440542785566 -36.1235583350885 0.0
vertex -22.625451484305 -36.7789788206684 0.0
endloop
endfacet
facet normal -0.122306526588084 -0.992492374557084 1.61520599406694e-18
outer loop
vertex -27.9440542785566 -36.1235583350885 0.0
vertex -22.625451484305 -36.7789788206684 22.018625
vertex -27.9440542785566 -36.1235583350885 4.0782470121506
endloop
endfacet
facet normal -0.122306526588084 -0.992492374557084 1.61520599406694e-18
outer loop
vertex -27.9440542785566 -36.1235583350885 4.0782470121506
vertex -22.625451484305 -36.7789788206684 22.018625
vertex -27.9440542785566 -36.1235583350885 6.98590256750764
endloop
endfacet
facet normal -0.122306526588084 -0.992492374557084 1.61520599406694e-18
outer loop
vertex -27.9440542785566 -36.1235583350885 6.98590256750764
vertex -22.625451484305 -36.7789788206684 22.018625
vertex -27.9440542785566 -36.1235583350885 22.018625
endloop
endfacet
facet normal -0.122306526588084 -0.992492374557084 -8.944631396403e-17
outer loop
vertex 17.4279703412594 -41.7148302458628 22.018625
vertex 11.7164868795504 -41.0109944061379 18.5213625
vertex 17.4279703412594 -41.7148302458628 18.5213625
endloop
endfacet
facet normal -0.122306526588084 -0.992492374557084 -8.944631396403e-17
outer loop
vertex 11.7164868795504 -41.0109944061379 18.5213625
vertex 17.4279703412594 -41.7148302458628 22.018625
vertex 11.7164868795504 -41.0109944061379 22.018625
endloop
endfacet
facet normal -0.122306526588084 -0.992492374557084 -8.944631396403e-17
outer loop
vertex 17.4279703412594 -41.7148302458628 18.5213625
vertex -19.8527037663068 -37.1206692468994 0.0
vertex 17.4279703412594 -41.7148302458628 0.0
endloop
endfacet
facet normal -0.122306526588084 -0.992492374557084 -8.944631396403e-17
outer loop
vertex -19.8527037663068 -37.1206692468994 0.0
vertex 17.4279703412594 -41.7148302458628 18.5213625
vertex -19.8527037663068 -37.1206692468994 18.5213625
endloop
endfacet
facet normal -0.122306526588084 -0.992492374557084 -8.944631396403e-17
outer loop
vertex -19.8527037663068 -37.1206692468994 18.5213625
vertex 17.4279703412594 -41.7148302458628 18.5213625
vertex 11.7164868795504 -41.0109944061379 18.5213625
endloop
endfacet
facet normal -0.122306526588086 -0.992492374557083 4.7434991590616e-16
outer loop
vertex -19.5016595736937 -34.2720176334456 18.5213625
vertex -22.2744072916918 -33.9303272072147 0.0
vertex -19.5016595736937 -34.2720176334456 0.0
endloop
endfacet
facet normal -0.122306526588086 -0.992492374557083 4.7434991590616e-16
outer loop
vertex -22.2744072916918 -33.9303272072147 0.0
vertex -19.5016595736937 -34.2720176334456 18.5213625
vertex -22.2744072916918 -33.9303272072147 18.5213625
endloop
endfacet
facet normal -0.992492374557084 0.122306526588083 -0.0
outer loop
vertex -19.5016595736937 -34.2720176334456 18.5213625
vertex -19.8527037663068 -37.1206692468994 0.0
vertex -19.8527037663068 -37.1206692468994 18.5213625
endloop
endfacet
facet normal -0.992492374557084 0.122306526588083 -0.0
outer loop
vertex -19.8527037663068 -37.1206692468994 0.0
vertex -19.5016595736937 -34.2720176334456 18.5213625
vertex -19.5016595736937 -34.2720176334456 0.0
endloop
endfacet
facet normal 0.992492374557084 -0.122306526588084 -1.95201822235924e-17
outer loop
vertex -22.2744072916918 -33.9303272072147 0.0
vertex -22.625451484305 -36.7789788206684 22.018625
vertex -22.625451484305 -36.7789788206684 0.0
endloop
endfacet
facet normal 0.992492374557084 -0.122306526588084 -1.95201822235924e-17
outer loop
vertex -22.625451484305 -36.7789788206684 22.018625
vertex -22.2744072916918 -33.9303272072147 0.0
vertex -22.2744072916918 -33.9303272072147 22.018625
endloop
endfacet
facet normal 0.992492374557084 -0.122306526588084 -1.95201822235924e-17
outer loop
vertex -22.2744072916918 -33.9303272072147 22.018625
vertex -22.2744072916918 -33.9303272072147 0.0
vertex -22.2744072916918 -33.9303272072147 18.5213625
endloop
endfacet
facet normal -0.122306526588083 -0.992492374557084 -7.05939664268034e-16
outer loop
vertex -27.5930100859435 -33.2749067216347 4.06189411892516
vertex -38.9041107125942 -31.8810205165631 0.0
vertex -27.5930100859435 -33.2749067216347 0.0
endloop
endfacet
facet normal -0.122306526588083 -0.992492374557084 -7.05939664268034e-16
outer loop
vertex -38.9041107125942 -31.8810205165631 0.0
vertex -27.5930100859435 -33.2749067216347 4.06189411892516
vertex -38.9041107125942 -31.8810205165631 4.06189411892516
endloop
endfacet
facet normal -0.330540138517965 0.040733024531422 0.942912529103865
outer loop
vertex -31.3884664450864 29.1068910321562 9.64830661892516
vertex -31.9154263050566 29.3589716894368 9.45268996625413
vertex -31.9381432135388 29.1746286370175 9.45268996625413
endloop
endfacet
facet normal -0.330540138517965 0.040733024531422 0.942912529103865
outer loop
vertex -31.9154263050566 29.3589716894368 9.45268996625413
vertex -31.3884664450864 29.1068910321562 9.64830661892516
vertex -31.3657495366043 29.2912340845755 9.64830661892516
endloop
endfacet
facet normal -0.455865910711378 0.0561771330020677 0.888273832316901
outer loop
vertex -31.9381432135388 29.1746286370175 9.45268996625413
vertex -32.4332511027744 29.4227841216666 9.18290438463001
vertex -32.4559680112566 29.2384410692473 9.18290438463001
endloop
endfacet
facet normal -0.455865910711378 0.0561771330020677 0.888273832316901
outer loop
vertex -32.4332511027744 29.4227841216666 9.18290438463001
vertex -31.9381432135388 29.1746286370175 9.45268996625413
vertex -31.9154263050566 29.3589716894368 9.45268996625413
endloop
endfacet
facet normal -0.572561932953192 0.0705577826805236 0.816819706077242
outer loop
vertex -32.4559680112566 29.2384410692473 9.18290438463001
vertex -32.9094212697691 29.4814633827702 8.84405703836417
vertex -32.9321381782512 29.2971203303509 8.84405703836417
endloop
endfacet
facet normal -0.572561932953192 0.0705577826805236 0.816819706077242
outer loop
vertex -32.9094212697691 29.4814633827702 8.84405703836417
vertex -32.4559680112566 29.2384410692473 9.18290438463001
vertex -32.4332511027744 29.4227841216666 9.18290438463001
endloop
endfacet
facet normal -0.678419096229904 0.0836027412985909 0.729902809638353
outer loop
vertex -32.9321381782512 29.2971203303509 8.84405703836417
vertex -33.3349226872416 29.5338986475274 8.44256246252348
vertex -33.3576395957238 29.3495555951081 8.44256246252348
endloop
endfacet
facet normal -0.678419096229904 0.0836027412985909 0.729902809638353
outer loop
vertex -33.3349226872416 29.5338986475274 8.44256246252348
vertex -32.9321381782512 29.2971203303509 8.84405703836417
vertex -32.9094212697691 29.4814633827702 8.84405703836417
endloop
endfacet
facet normal -0.771433476079954 0.0950650618300539 0.629168519557715
outer loop
vertex -33.3349226872416 29.5338986475274 8.44256246252348
vertex -33.7244173274516 29.394754240002 7.98602113285095
vertex -33.3576395957238 29.3495555951081 8.44256246252348
endloop
endfacet
facet normal -0.771433476079954 0.0950650618300539 0.629168519557715
outer loop
vertex -33.7244173274516 29.394754240002 7.98602113285095
vertex -33.3349226872416 29.5338986475274 8.44256246252348
vertex -33.7017004189694 29.5790972924213 7.98602113285095
endloop
endfacet
facet normal -0.84984426779928 0.104727757310706 0.516523781966886
outer loop
vertex -33.7017004189694 29.5790972924213 7.98602113285095
vertex -34.025528103411 29.4318606340358 7.4830755852877
vertex -33.7244173274516 29.394754240002 7.98602113285095
endloop
endfacet
facet normal -0.84984426779928 0.104727757310706 0.516523781966886
outer loop
vertex -34.025528103411 29.4318606340358 7.4830755852877
vertex -33.7017004189694 29.5790972924213 7.98602113285095
vertex -34.0028111949289 29.6162036864551 7.4830755852877
endloop
endfacet
facet normal -0.912167119278736 0.112407908500704 0.394101013210104
outer loop
vertex -34.0028111949289 29.6162036864551 7.4830755852877
vertex -34.2323913136063 29.4573527399365 6.99700900231732
vertex -34.025528103411 29.4318606340358 7.4830755852877
endloop
endfacet
facet normal -0.912167119278736 0.112407908500704 0.394101013210104
outer loop
vertex -34.2323913136063 29.4573527399365 6.99700900231732
vertex -34.0028111949289 29.6162036864551 7.4830755852877
vertex -34.2096744051242 29.6416957923558 6.99700900231732
endloop
endfacet
facet normal 0.122306526588084 0.992492374557084 0.0
outer loop
vertex -31.4395707015781 52.1205191159977 5.73511911892516
vertex -28.5956458330582 51.7700574082174 4.06189411892516
vertex -31.4395707015781 52.1205191159977 4.06189411892516
endloop
endfacet
facet normal 0.122306526588084 0.992492374557084 0.0
outer loop
vertex -28.5956458330582 51.7700574082174 4.06189411892516
vertex -31.4395707015781 52.1205191159977 5.73511911892516
vertex -28.5956458330582 51.7700574082174 5.73511911892516
endloop
endfacet
facet normal 0.0 0.0 -1.0
outer loop
vertex -31.4395707015781 52.1205191159977 4.06189411892516
vertex -31.3884664450864 29.1068910321562 4.06189411892516
vertex -34.2323913136063 29.4573527399365 4.06189411892516
endloop
endfacet
facet normal 0.0 0.0 -1.0
outer loop
vertex -31.3884664450864 29.1068910321562 4.06189411892516
vertex -31.4395707015781 52.1205191159977 4.06189411892516
vertex -28.5956458330582 51.7700574082174 4.06189411892516
endloop
endfacet
facet normal -0.122306526588083 -0.992492374557084 -2.3553383809967e-16
outer loop
vertex -34.025528103411 29.4318606340358 7.4830755852877
vertex -34.2323913136063 29.4573527399365 10.5690566189252
vertex -34.2323913136063 29.4573527399365 6.99700900231732
endloop
endfacet
facet normal -0.122306526588083 -0.992492374557084 -2.3553383809967e-16
outer loop
vertex -34.2323913136063 29.4573527399365 10.5690566189252
vertex -34.025528103411 29.4318606340358 7.4830755852877
vertex -33.7244173274516 29.394754240002 7.98602113285095
endloop
endfacet
facet normal -0.122306526588083 -0.992492374557084 -2.3553383809967e-16
outer loop
vertex -34.2323913136063 29.4573527399365 10.5690566189252
vertex -33.7244173274516 29.394754240002 7.98602113285095
vertex -33.3576395957238 29.3495555951081 8.44256246252348
endloop
endfacet
facet normal -0.122306526588083 -0.992492374557084 -2.3553383809967e-16
outer loop
vertex -34.2323913136063 29.4573527399365 10.5690566189252
vertex -33.3576395957238 29.3495555951081 8.44256246252348
vertex -32.9321381782512 29.2971203303509 8.84405703836417
endloop
endfacet
facet normal -0.122306526588083 -0.992492374557084 -2.3553383809967e-16
outer loop
vertex -34.2323913136063 29.4573527399365 10.5690566189252
vertex -32.9321381782512 29.2971203303509 8.84405703836417
vertex -32.4559680112566 29.2384410692473 9.18290438463001
endloop
endfacet
facet normal -0.122306526588083 -0.992492374557084 -2.3553383809967e-16
outer loop
vertex -34.2323913136063 29.4573527399365 10.5690566189252
vertex -32.4559680112566 29.2384410692473 9.18290438463001
vertex -31.9381432135388 29.1746286370175 9.45268996625413
endloop
endfacet
facet normal -0.122306526588083 -0.992492374557084 -2.3553383809967e-16
outer loop
vertex -34.2323913136063 29.4573527399365 10.5690566189252
vertex -31.9381432135388 29.1746286370175 9.45268996625413
vertex -31.3884664450864 29.1068910321562 9.64830661892516
endloop
endfacet
facet normal -0.122306526588083 -0.992492374557084 -2.3553383809967e-16
outer loop
vertex -34.2323913136063 29.4573527399365 10.5690566189252
vertex -31.3884664450864 29.1068910321562 9.64830661892516
vertex -31.3884664450864 29.1068910321562 10.5690566189252
endloop
endfacet
facet normal -0.455865910711376 0.0561771330020581 0.888273832316902
outer loop
vertex -39.5215250859078 -32.3629596801542 9.45268996625413
vertex -32.4559680112566 29.2384410692473 9.18290438463001
vertex -40.1031623158554 -32.8169720456421 9.18290438463001
endloop
endfacet
facet normal -0.455865910711376 0.0561771330020581 0.888273832316902
outer loop
vertex -32.4559680112566 29.2384410692473 9.18290438463001
vertex -39.5215250859078 -32.3629596801542 9.45268996625413
vertex -31.9381432135388 29.1746286370175 9.45268996625413
endloop
endfacet
facet normal 0.122306526588077 0.992492374557085 3.28644139785249e-16
outer loop
vertex -34.3953952925022 29.4774399980252 4.62583118333696
vertex -34.2323913136063 29.4573527399365 5.73511911892516
vertex -34.2323913136063 29.4573527399365 4.06189411892516
endloop
endfacet
facet normal 0.122306526588077 0.992492374557085 3.28644139785249e-16
outer loop
vertex -34.2323913136063 29.4573527399365 5.73511911892516
vertex -34.3953952925022 29.4774399980252 4.62583118333696
vertex -34.4800303962157 29.4878697260795 5.20697396070145
endloop
endfacet
facet normal 0.122306526588077 0.992492374557085 3.28644139785249e-16
outer loop
vertex -34.2323913136063 29.4573527399365 5.73511911892516
vertex -34.4800303962157 29.4878697260795 5.20697396070145
vertex -34.4846944435681 29.4884444845826 5.79432115274867
endloop
endfacet
facet normal 0.122306526588077 0.992492374557085 3.28644139785249e-16
outer loop
vertex -34.2323913136063 29.4573527399365 5.73511911892516
vertex -34.4846944435681 29.4884444845826 5.79432115274867
vertex -34.2323913136063 29.4573527399365 6.99700900231732
endloop
endfacet
facet normal 0.122306526588077 0.992492374557085 3.28644139785249e-16
outer loop
vertex -34.2323913136063 29.4573527399365 6.99700900231732
vertex -34.4846944435681 29.4884444845826 5.79432115274867
vertex -34.4092991420123 29.4791533930934 6.37675400880424
endloop
endfacet
facet normal 0.122306526588077 0.992492374557085 3.28644139785249e-16
outer loop
vertex -34.2323913136063 29.4573527399365 6.99700900231732
vertex -34.4092991420123 29.4791533930934 6.37675400880424
vertex -34.2552717590511 29.4601723362184 6.94324680881922
endloop
endfacet
facet normal -0.992492374557081 0.122306526588103 0.0
outer loop
vertex -34.2096744051242 29.6416957923558 6.99700900231732
vertex -34.2323913136063 29.4573527399365 5.73511911892516
vertex -34.2323913136063 29.4573527399365 6.99700900231732
endloop
endfacet
facet normal -0.992492374557081 0.122306526588103 0.0
outer loop
vertex -34.2323913136063 29.4573527399365 5.73511911892516
vertex -34.2096744051242 29.6416957923558 6.99700900231732
vertex -34.2096744051242 29.6416957923558 5.73511911892516
endloop
endfacet
facet normal -0.0 -0.0 1.0
outer loop
vertex -31.3657495366043 29.2912340845755 5.73511911892516
vertex -31.513678492075 51.5191495978266 5.73511911892516
vertex -34.2096744051242 29.6416957923558 5.73511911892516
endloop
endfacet
facet normal -0.0 -0.0 1.0
outer loop
vertex -31.513678492075 51.5191495978266 5.73511911892516
vertex -31.3657495366043 29.2912340845755 5.73511911892516
vertex -28.6697536235551 51.1686878900463 5.73511911892516
endloop
endfacet
facet normal 0.122306526588083 0.992492374557084 -1.34561020943789e-16
outer loop
vertex -31.5655002507661 51.5255356814577 6.2404919830784
vertex -28.6697536235551 51.1686878900463 5.73511911892516
vertex -31.513678492075 51.5191495978266 5.73511911892516
endloop
endfacet
facet normal 0.122306526588083 0.992492374557084 -1.34561020943789e-16
outer loop
vertex -28.6697536235551 51.1686878900463 5.73511911892516
vertex -31.5655002507661 51.5255356814577 6.2404919830784
vertex -28.6697536235551 51.1686878900463 10.5690566189252
endloop
endfacet
facet normal 0.122306526588083 0.992492374557084 -1.34561020943789e-16
outer loop
vertex -28.6697536235551 51.1686878900463 10.5690566189252
vertex -31.5655002507661 51.5255356814577 6.2404919830784
vertex -31.5589171497109 51.5247244346967 6.74851168074733
endloop
endfacet
facet normal 0.122306526588083 0.992492374557084 -1.34561020943789e-16
outer loop
vertex -28.6697536235551 51.1686878900463 10.5690566189252
vertex -31.5589171497109 51.5247244346967 6.74851168074733
vertex -31.4940176834997 51.5167267628826 7.25234906035655
endloop
endfacet
facet normal 0.122306526588083 0.992492374557084 -1.34561020943789e-16
outer loop
vertex -28.6697536235551 51.1686878900463 10.5690566189252
vertex -31.4940176834997 51.5167267628826 7.25234906035655
vertex -31.3716742755717 51.5016501762425 7.74523119193802
endloop
endfacet
facet normal 0.122306526588083 0.992492374557084 -1.34561020943789e-16
outer loop
vertex -28.6697536235551 51.1686878900463 10.5690566189252
vertex -31.3716742755717 51.5016501762425 7.74523119193802
vertex -31.1935315504973 51.4796973446648 8.22053241353252
endloop
endfacet
facet normal 0.122306526588083 0.992492374557084 -1.34561020943789e-16
outer loop
vertex -28.6697536235551 51.1686878900463 10.5690566189252
vertex -31.1935315504973 51.4796973446648 8.22053241353252
vertex -30.9619842257986 51.4511633732705 8.67186339791294
endloop
endfacet
facet normal 0.122306526588083 0.992492374557084 -1.34561020943789e-16
outer loop
vertex -28.6697536235551 51.1686878900463 10.5690566189252
vertex -30.9619842257986 51.4511633732705 8.67186339791294
vertex -30.680144920503 51.4164318354065 9.09315704233276
endloop
endfacet
facet normal 0.122306526588083 0.992492374557084 -1.34561020943789e-16
outer loop
vertex -28.6697536235551 51.1686878900463 10.5690566189252
vertex -30.680144920503 51.4164318354065 9.09315704233276
vertex -30.3518023131688 51.3759696163876 9.47875002671071
endloop
endfacet
facet normal 0.122306526588083 0.992492374557084 -1.34561020943789e-16
outer loop
vertex -28.6697536235551 51.1686878900463 10.5690566189252
vertex -30.3518023131688 51.3759696163876 9.47875002671071
vertex -29.981370211852 51.330320637302 9.82345894388993
endloop
endfacet
facet normal 0.122306526588083 0.992492374557084 -1.34561020943789e-16
outer loop
vertex -28.6697536235551 51.1686878900463 10.5690566189252
vertex -29.981370211852 51.330320637302 9.82345894388993
vertex -29.5738282206503 51.2800985432482 10.1226499785762
endloop
endfacet
facet normal 0.122306526588083 0.992492374557084 -1.34561020943789e-16
outer loop
vertex -28.6697536235551 51.1686878900463 10.5690566189252
vertex -29.5738282206503 51.2800985432482 10.1226499785762
vertex -29.1346548004266 51.225978454294 10.372301198283
endloop
endfacet
facet normal -0.992492374557084 0.122306526588084 -1.08845654102356e-15
outer loop
vertex -34.2096744051242 29.6416957923558 5.73511911892516
vertex -34.2323913136063 29.4573527399365 4.06189411892516
vertex -34.2323913136063 29.4573527399365 5.73511911892516
endloop
endfacet
facet normal -0.992492374557084 0.122306526588084 -1.08845654102356e-15
outer loop
vertex -34.2323913136063 29.4573527399365 4.06189411892516
vertex -34.2096744051242 29.6416957923558 5.73511911892516
vertex -31.4395707015781 52.1205191159977 4.06189411892516
endloop
endfacet
facet normal -0.992492374557084 0.122306526588084 -1.08845654102356e-15
outer loop
vertex -31.4395707015781 52.1205191159977 4.06189411892516
vertex -34.2096744051242 29.6416957923558 5.73511911892516
vertex -31.513678492075 51.5191495978266 5.73511911892516
endloop
endfacet
facet normal -0.992492374557084 0.122306526588084 -1.08845654102356e-15
outer loop
vertex -31.4395707015781 52.1205191159977 4.06189411892516
vertex -31.513678492075 51.5191495978266 5.73511911892516
vertex -31.4395707015781 52.1205191159977 5.73511911892516
endloop
endfacet
facet normal -0.912167119278738 0.112407908500685 0.394101013210105
outer loop
vertex -41.8661419727983 -34.1931125730081 7.4830755852877
vertex -34.2552717590511 29.4601723362184 6.94324680881922
vertex -42.124197330621 -34.3945445264656 6.94324680881922
endloop
endfacet
facet normal -0.912167119278738 0.112407908500685 0.394101013210105
outer loop
vertex -34.2552717590511 29.4601723362184 6.94324680881922
vertex -41.8661419727983 -34.1931125730081 7.4830755852877
vertex -34.2323913136063 29.4573527399365 6.99700900231732
endloop
endfacet
facet normal -0.912167119278738 0.112407908500685 0.394101013210105
outer loop
vertex -34.2323913136063 29.4573527399365 6.99700900231732
vertex -41.8661419727983 -34.1931125730081 7.4830755852877
vertex -34.025528103411 29.4318606340358 7.4830755852877
endloop
endfacet
facet normal -0.572561932953192 0.0705577826805119 0.816819706077244
outer loop
vertex -40.1031623158554 -32.8169720456421 9.18290438463001
vertex -32.9321381782512 29.2971203303509 8.84405703836417
vertex -40.6380117439537 -33.2344629515332 8.84405703836417
endloop
endfacet
facet normal -0.572561932953192 0.0705577826805119 0.816819706077244
outer loop
vertex -32.9321381782512 29.2971203303509 8.84405703836417
vertex -40.1031623158554 -32.8169720456421 9.18290438463001
vertex -32.4559680112566 29.2384410692473 9.18290438463001
endloop
endfacet
facet normal -0.771433476079957 0.0950650618300384 0.629168519557714
outer loop
vertex -41.1159484261834 -33.6075291042485 8.44256246252348
vertex -33.7244173274516 29.394754240002 7.98602113285095
vertex -41.5279248028051 -33.9291081910825 7.98602113285095
endloop
endfacet
facet normal -0.771433476079957 0.0950650618300384 0.629168519557714
outer loop
vertex -33.7244173274516 29.394754240002 7.98602113285095
vertex -41.1159484261834 -33.6075291042485 8.44256246252348
vertex -33.3576395957238 29.3495555951081 8.44256246252348
endloop
endfacet
facet normal -0.849844267799283 0.104727757310689 0.516523781966885
outer loop
vertex -41.5279248028051 -33.9291081910825 7.98602113285095
vertex -34.025528103411 29.4318606340358 7.4830755852877
vertex -41.8661419727983 -34.1931125730081 7.4830755852877
endloop
endfacet
facet normal -0.849844267799283 0.104727757310689 0.516523781966885
outer loop
vertex -34.025528103411 29.4318606340358 7.4830755852877
vertex -41.5279248028051 -33.9291081910825 7.98602113285095
vertex -33.7244173274516 29.394754240002 7.98602113285095
endloop
endfacet
facet normal -0.678419096229928 0.0836027412985799 0.729902809638332
outer loop
vertex -40.6380117439537 -33.2344629515332 8.84405703836417
vertex -33.3576395957238 29.3495555951081 8.44256246252348
vertex -41.1159484261834 -33.6075291042485 8.44256246252348
endloop
endfacet
facet normal -0.678419096229928 0.0836027412985799 0.729902809638332
outer loop
vertex -33.3576395957238 29.3495555951081 8.44256246252348
vertex -40.6380117439537 -33.2344629515332 8.84405703836417
vertex -32.9321381782512 29.2971203303509 8.84405703836417
endloop
endfacet
endsolid Parking Garage
