solid PNC Center
facet normal 0.991054640071642 -0.133456736032577 -0.0
outer loop
vertex -47.8058615389643 28.3394148500715 16.2798125
vertex -51.34411450317 2.06421794230859 17.6164875
vertex -51.34411450317 2.06421794230859 16.2798125
endloop
endfacet
facet normal 0.991054640071642 -0.133456736032577 -0.0
outer loop
vertex -51.34411450317 2.06421794230859 17.6164875
vertex -47.8058615389643 28.3394148500715 16.2798125
vertex -47.8058615389643 28.3394148500715 17.6164875
endloop
endfacet
facet normal 0.133456736032571 0.991054640071642 0.0
outer loop
vertex -51.34411450317 2.06421794230859 17.6164875
vertex -48.2667411875515 1.64981475841705 16.2798125
vertex -51.34411450317 2.06421794230859 16.2798125
endloop
endfacet
facet normal 0.133456736032571 0.991054640071642 0.0
outer loop
vertex -48.2667411875515 1.64981475841705 16.2798125
vertex -51.34411450317 2.06421794230859 17.6164875
vertex -48.2667411875515 1.64981475841705 17.6164875
endloop
endfacet
facet normal 0.991054640071641 -0.133456736032578 -0.0
outer loop
vertex -48.2667411875515 1.64981475841705 16.2798125
vertex -48.4431072394048 0.340113957719578 17.6164875
vertex -48.4431072394048 0.340113957719578 16.2798125
endloop
endfacet
facet normal 0.991054640071641 -0.133456736032578 -0.0
outer loop
vertex -48.4431072394048 0.340113957719578 17.6164875
vertex -48.2667411875515 1.64981475841705 16.2798125
vertex -48.2667411875515 1.64981475841705 17.6164875
endloop
endfacet
facet normal 0.133456736032576 0.991054640071642 0.0
outer loop
vertex -48.4431072394048 0.340113957719578 17.6164875
vertex -10.1053158034321 -4.82250403009662 16.2798125
vertex -48.4431072394048 0.340113957719578 16.2798125
endloop
endfacet
facet normal 0.133456736032576 0.991054640071642 0.0
outer loop
vertex -10.1053158034321 -4.82250403009662 16.2798125
vertex -48.4431072394048 0.340113957719578 17.6164875
vertex -10.1053158034321 -4.82250403009662 17.6164875
endloop
endfacet
facet normal -0.991054640071642 0.133456736032575 -0.0
outer loop
vertex -9.7906678976996 -2.48591708637803 17.6164875
vertex -10.1053158034321 -4.82250403009662 16.2798125
vertex -10.1053158034321 -4.82250403009662 17.6164875
endloop
endfacet
facet normal -0.991054640071642 0.133456736032575 -0.0
outer loop
vertex -10.1053158034321 -4.82250403009662 16.2798125
vertex -9.7906678976996 -2.48591708637803 17.6164875
vertex -9.7906678976996 -2.48591708637803 16.2798125
endloop
endfacet
facet normal 0.133456736032576 0.991054640071642 0.0
outer loop
vertex -9.7906678976996 -2.48591708637803 17.6164875
vertex -5.29889856431989 -3.09078471930767 16.2798125
vertex -9.7906678976996 -2.48591708637803 16.2798125
endloop
endfacet
facet normal 0.133456736032576 0.991054640071642 0.0
outer loop
vertex -5.29889856431989 -3.09078471930767 16.2798125
vertex -9.7906678976996 -2.48591708637803 17.6164875
vertex -5.29889856431989 -3.09078471930767 17.6164875
endloop
endfacet
facet normal -0.991054640071642 0.133456736032576 -0.0
outer loop
vertex -1.89892745399343 22.1575260454341 17.6164875
vertex -5.29889856431989 -3.09078471930767 16.2798125
vertex -5.29889856431989 -3.09078471930767 17.6164875
endloop
endfacet
facet normal -0.991054640071642 0.133456736032576 -0.0
outer loop
vertex -5.29889856431989 -3.09078471930767 16.2798125
vertex -1.89892745399343 22.1575260454341 17.6164875
vertex -1.89892745399343 22.1575260454341 16.2798125
endloop
endfacet
facet normal -0.133456736032576 -0.991054640071642 -0.0
outer loop
vertex -1.89892745399343 22.1575260454341 17.6164875
vertex -47.8058615389643 28.3394148500715 16.2798125
vertex -1.89892745399343 22.1575260454341 16.2798125
endloop
endfacet
facet normal -0.133456736032576 -0.991054640071642 -0.0
outer loop
vertex -47.8058615389643 28.3394148500715 16.2798125
vertex -1.89892745399343 22.1575260454341 17.6164875
vertex -47.8058615389643 28.3394148500715 17.6164875
endloop
endfacet
facet normal 0.991054640071642 -0.133456736032576 1.10790035545514e-17
outer loop
vertex -1.45018919286359 17.6994055178581 -6.82899646527709e-18
vertex -1.53011124246826 17.105901432119 5.23744725524327
vertex -1.53011124246826 17.105901432119 -7.58660797185043e-18
endloop
endfacet
facet normal 0.991054640071642 -0.133456736032576 1.10790035545514e-17
outer loop
vertex -1.53011124246826 17.105901432119 5.23744725524327
vertex -1.45018919286359 17.6994055178581 -6.82899646527709e-18
vertex -1.53011124246826 17.105901432119 6.96368257849837
endloop
endfacet
facet normal 0.991054640071642 -0.133456736032576 1.10790035545514e-17
outer loop
vertex -0.729783827432229 23.0491623107186 0.0
vertex -0.804220221654315 22.4963949040139 10.309225
vertex -0.804220221654316 22.4963949040139 -3.52805446365762e-19
endloop
endfacet
facet normal 0.991054640071642 -0.133456736032576 1.10790035545514e-17
outer loop
vertex -4.30138182007189 -3.47365600706266 -3.38565358303829e-17
vertex -4.36171184681826 -3.92166900902941 17.6164875
vertex -4.36171184681826 -3.92166900902941 -3.44284271004518e-17
endloop
endfacet
facet normal 0.991054640071642 -0.133456736032576 1.10790035545514e-17
outer loop
vertex -4.36171184681826 -3.92166900902941 17.6164875
vertex -4.30138182007189 -3.47365600706266 -3.38565358303829e-17
vertex -4.30138182007189 -3.47365600706266 10.309225
endloop
endfacet
facet normal 0.991054640071642 -0.133456736032576 1.10790035545514e-17
outer loop
vertex -4.36171184681826 -3.92166900902941 17.6164875
vertex -4.30138182007189 -3.47365600706266 10.309225
vertex -0.729783827432229 23.0491623107186 17.6164875
endloop
endfacet
facet normal 0.991054640071642 -0.133456736032576 1.10790035545514e-17
outer loop
vertex -4.30138182007189 -3.47365600706266 10.309225
vertex -4.30138182007189 -3.47365600706266 -3.38565358303829e-17
vertex -4.30138182007189 -3.47365600706266 10.169525
endloop
endfacet
facet normal 0.991054640071642 -0.133456736032576 1.10790035545514e-17
outer loop
vertex -0.729783827432229 23.0491623107186 17.6164875
vertex -4.30138182007189 -3.47365600706266 10.309225
vertex -3.70466864505665 0.957558021327652 10.309225
endloop
endfacet
facet normal 0.991054640071642 -0.133456736032576 1.10790035545514e-17
outer loop
vertex -0.729783827432229 23.0491623107186 17.6164875
vertex -3.70466864505665 0.957558021327652 10.309225
vertex -1.53011124246826 17.105901432119 10.309225
endloop
endfacet
facet normal 0.991054640071642 -0.133456736032576 1.10790035545514e-17
outer loop
vertex -0.729783827432229 23.0491623107186 17.6164875
vertex -1.53011124246826 17.105901432119 10.309225
vertex -1.45018919286359 17.6994055178581 10.309225
endloop
endfacet
facet normal 0.991054640071642 -0.133456736032576 1.10790035545514e-17
outer loop
vertex -1.45018919286359 17.6994055178581 10.309225
vertex -1.53011124246826 17.105901432119 10.309225
vertex -1.53011124246826 17.105901432119 6.96368257849837
endloop
endfacet
facet normal 0.991054640071642 -0.133456736032576 1.10790035545514e-17
outer loop
vertex -1.45018919286359 17.6994055178581 10.309225
vertex -1.53011124246826 17.105901432119 6.96368257849837
vertex -1.45018919286359 17.6994055178581 -6.82899646527709e-18
endloop
endfacet
facet normal 0.991054640071642 -0.133456736032576 1.10790035545514e-17
outer loop
vertex -0.729783827432229 23.0491623107186 17.6164875
vertex -1.45018919286359 17.6994055178581 10.309225
vertex -0.804220221654315 22.4963949040139 10.309225
endloop
endfacet
facet normal 0.991054640071642 -0.133456736032576 1.10790035545514e-17
outer loop
vertex -0.729783827432229 23.0491623107186 17.6164875
vertex -0.804220221654315 22.4963949040139 10.309225
vertex -0.729783827432229 23.0491623107186 0.0
endloop
endfacet
facet normal -0.133456736032576 -0.991054640071642 1.57011502859468e-17
outer loop
vertex -1.53011124246826 17.105901432119 5.23744725524327
vertex -2.66760659379349 17.2590780691096 6.77743562848444e-17
vertex -1.53011124246826 17.105901432119 -7.58660797185043e-18
endloop
endfacet
facet normal -0.133456736032576 -0.991054640071642 1.57011502859468e-17
outer loop
vertex -2.66760659379349 17.2590780691096 6.77743562848444e-17
vertex -1.53011124246826 17.105901432119 5.23744725524327
vertex -2.66760659379349 17.2590780691096 5.23744725524327
endloop
endfacet
facet normal 0.0 0.0 -1.0
outer loop
vertex -2.78609126062191 16.379206566715 10.309225
vertex -3.70466864505665 0.957558021327652 10.309225
vertex -4.66554168718033 2.42233843552767 10.309225
endloop
endfacet
facet normal 0.0 0.0 -1.0
outer loop
vertex -3.70466864505665 0.957558021327652 10.309225
vertex -2.78609126062191 16.379206566715 10.309225
vertex -1.53011124246826 17.105901432119 10.309225
endloop
endfacet
facet normal 0.133456736032576 0.991054640071642 2.5977785591578e-17
outer loop
vertex -4.84216399638188 1.11073465831824 10.309225
vertex -3.70466864505665 0.957558021327652 6.96368257849837
vertex -4.84216399638188 1.11073465831824 6.96368257849837
endloop
endfacet
facet normal 0.133456736032576 0.991054640071642 2.5977785591578e-17
outer loop
vertex -3.70466864505665 0.957558021327652 6.96368257849837
vertex -4.84216399638188 1.11073465831824 10.309225
vertex -3.70466864505665 0.957558021327652 10.309225
endloop
endfacet
facet normal 0.991054640071642 -0.133456736032576 -8.80750992534522e-17
outer loop
vertex -4.66554168718033 2.42233843552767 4.88351696195395e-17
vertex -4.84216399638188 1.11073465831824 5.23744725524327
vertex -4.84216399638188 1.11073465831824 4.71608995722804e-17
endloop
endfacet
facet normal 0.991054640071642 -0.133456736032576 -8.80750992534522e-17
outer loop
vertex -4.84216399638188 1.11073465831824 5.23744725524327
vertex -4.66554168718033 2.42233843552767 4.88351696195395e-17
vertex -2.66760659379349 17.2590780691096 5.23744725524327
endloop
endfacet
facet normal 0.991054640071642 -0.133456736032576 -8.80750992534522e-17
outer loop
vertex -2.66760659379349 17.2590780691096 5.23744725524327
vertex -4.66554168718033 2.42233843552767 4.88351696195395e-17
vertex -2.78609126062191 16.379206566715 6.66511950623063e-17
endloop
endfacet
facet normal 0.991054640071642 -0.133456736032576 -8.80750992534522e-17
outer loop
vertex -2.66760659379349 17.2590780691096 5.23744725524327
vertex -2.78609126062191 16.379206566715 6.66511950623063e-17
vertex -2.66760659379349 17.2590780691096 6.77743562848444e-17
endloop
endfacet
facet normal 0.991054640071642 -0.133456736032576 1.89724646535053e-17
outer loop
vertex -2.66760659379349 17.2590780691096 6.96368257849837
vertex -4.84216399638188 1.11073465831824 10.309225
vertex -4.84216399638188 1.11073465831824 6.96368257849837
endloop
endfacet
facet normal 0.991054640071642 -0.133456736032576 1.89724646535053e-17
outer loop
vertex -4.84216399638188 1.11073465831824 10.309225
vertex -2.66760659379349 17.2590780691096 6.96368257849837
vertex -4.66554168718033 2.42233843552767 10.309225
endloop
endfacet
facet normal 0.991054640071642 -0.133456736032576 1.89724646535053e-17
outer loop
vertex -4.66554168718033 2.42233843552767 10.309225
vertex -2.66760659379349 17.2590780691096 6.96368257849837
vertex -2.78609126062191 16.379206566715 10.309225
endloop
endfacet
facet normal 0.991054640071642 -0.133456736032576 1.89724646535053e-17
outer loop
vertex -2.78609126062191 16.379206566715 10.309225
vertex -2.66760659379349 17.2590780691096 6.96368257849837
vertex -2.66760659379349 17.2590780691096 10.309225
endloop
endfacet
facet normal 0.991054640071642 -0.133456736032576 -4.87871238919195e-17
outer loop
vertex -1.53011124246826 17.105901432119 5.23744725524327
vertex -3.70466864505665 0.957558021327652 6.96368257849837
vertex -3.70466864505665 0.957558021327652 5.23744725524327
endloop
endfacet
facet normal 0.991054640071642 -0.133456736032576 -4.87871238919195e-17
outer loop
vertex -3.70466864505665 0.957558021327652 6.96368257849837
vertex -1.53011124246826 17.105901432119 5.23744725524327
vertex -1.53011124246826 17.105901432119 6.96368257849837
endloop
endfacet
facet normal -0.0 -0.0 1.0
outer loop
vertex -3.70466864505665 0.957558021327652 6.96368257849837
vertex -2.66760659379349 17.2590780691096 6.96368257849837
vertex -4.84216399638188 1.11073465831824 6.96368257849837
endloop
endfacet
facet normal -0.0 -0.0 1.0
outer loop
vertex -2.66760659379349 17.2590780691096 6.96368257849837
vertex -3.70466864505665 0.957558021327652 6.96368257849837
vertex -1.53011124246826 17.105901432119 6.96368257849837
endloop
endfacet
facet normal -5.91281149344939e-18 -4.39087560557597e-17 -1.0
outer loop
vertex -2.66760659379349 17.2590780691096 5.23744725524327
vertex -3.70466864505665 0.957558021327652 5.23744725524327
vertex -4.84216399638188 1.11073465831824 5.23744725524327
endloop
endfacet
facet normal -5.91281149344939e-18 -4.39087560557597e-17 -1.0
outer loop
vertex -3.70466864505665 0.957558021327652 5.23744725524327
vertex -2.66760659379349 17.2590780691096 5.23744725524327
vertex -1.53011124246826 17.105901432119 5.23744725524327
endloop
endfacet
facet normal 0.133456736032576 0.991054640071642 -4.43447728640496e-17
outer loop
vertex -4.84216399638188 1.11073465831824 4.71608995722804e-17
vertex -3.70466864505665 0.957558021327652 5.23744725524327
vertex -3.70466864505665 0.957558021327652 -2.82000646844144e-17
endloop
endfacet
facet normal 0.133456736032576 0.991054640071642 -4.43447728640496e-17
outer loop
vertex -3.70466864505665 0.957558021327652 5.23744725524327
vertex -4.84216399638188 1.11073465831824 4.71608995722804e-17
vertex -4.84216399638188 1.11073465831824 5.23744725524327
endloop
endfacet
facet normal 0.133456736032576 0.991054640071642 1.77425428273927e-15
outer loop
vertex -2.66760659379349 17.2590780691096 10.309225
vertex -1.53011124246826 17.105901432119 6.96368257849837
vertex -2.66760659379349 17.2590780691096 6.96368257849837
endloop
endfacet
facet normal 0.133456736032576 0.991054640071642 1.77425428273927e-15
outer loop
vertex -1.53011124246826 17.105901432119 6.96368257849837
vertex -2.66760659379349 17.2590780691096 10.309225
vertex -1.53011124246826 17.105901432119 10.309225
endloop
endfacet
facet normal -6.49028448917132e-17 1.00164093867854e-17 -1.0
outer loop
vertex -3.70466864505665 0.957558021327652 -2.82000646844144e-17
vertex -4.84216399638188 1.11073465831824 4.71608995722804e-17
vertex -4.66554168718033 2.42233843552767 4.88351696195395e-17
endloop
endfacet
facet normal 0.83614978128723 0.548501178898748 -3.64933800838725e-17
outer loop
vertex -4.66554168718033 2.42233843552767 4.88351696195395e-17
vertex -3.70466864505665 0.957558021327652 5.23744725524327
vertex -3.70466864505665 0.957558021327652 -2.82000646844144e-17
endloop
endfacet
facet normal 0.83614978128723 0.548501178898748 -3.64933800838725e-17
outer loop
vertex -3.70466864505665 0.957558021327652 5.23744725524327
vertex -4.66554168718033 2.42233843552767 4.88351696195395e-17
vertex -3.70466864505665 0.957558021327652 6.96368257849837
endloop
endfacet
facet normal 0.83614978128723 0.548501178898748 -3.64933800838725e-17
outer loop
vertex -3.70466864505665 0.957558021327652 6.96368257849837
vertex -4.66554168718033 2.42233843552767 10.309225
vertex -3.70466864505665 0.957558021327652 10.309225
endloop
endfacet
facet normal 0.83614978128723 0.548501178898748 -3.64933800838725e-17
outer loop
vertex -4.66554168718033 2.42233843552767 10.309225
vertex -3.70466864505665 0.957558021327652 6.96368257849837
vertex -4.66554168718033 2.42233843552767 4.88351696195395e-17
endloop
endfacet
facet normal -0.133456736032576 -0.991054640071642 3.79361173004102e-17
outer loop
vertex -3.70466864505665 0.957558021327652 5.23744725524327
vertex -4.84216399638188 1.11073465831824 4.71608995722804e-17
vertex -3.70466864505665 0.957558021327652 -2.82000646844144e-17
endloop
endfacet
facet normal -0.133456736032576 -0.991054640071642 3.79361173004102e-17
outer loop
vertex -4.84216399638188 1.11073465831824 4.71608995722804e-17
vertex -3.70466864505665 0.957558021327652 5.23744725524327
vertex -4.84216399638188 1.11073465831824 6.96368257849837
endloop
endfacet
facet normal -0.133456736032576 -0.991054640071642 3.79361173004102e-17
outer loop
vertex -4.84216399638188 1.11073465831824 6.96368257849837
vertex -3.70466864505665 0.957558021327652 5.23744725524327
vertex -3.70466864505665 0.957558021327652 6.96368257849837
endloop
endfacet
facet normal -0.991054640071642 0.133456736032575 6.86323141880237e-17
outer loop
vertex -4.66554168718033 2.42233843552767 10.309225
vertex -4.84216399638188 1.11073465831824 6.96368257849837
vertex -4.84216399638188 1.11073465831824 10.309225
endloop
endfacet
facet normal -0.991054640071642 0.133456736032575 6.86323141880237e-17
outer loop
vertex -4.84216399638188 1.11073465831824 6.96368257849837
vertex -4.66554168718033 2.42233843552767 10.309225
vertex -4.84216399638188 1.11073465831824 4.71608995722804e-17
endloop
endfacet
facet normal -0.991054640071642 0.133456736032575 6.86323141880237e-17
outer loop
vertex -4.84216399638188 1.11073465831824 4.71608995722804e-17
vertex -4.66554168718033 2.42233843552767 10.309225
vertex -4.66554168718033 2.42233843552767 4.88351696195395e-17
endloop
endfacet
facet normal -6.49028448917132e-17 1.00164093867854e-17 -1.0
outer loop
vertex -1.53011124246826 17.105901432119 -7.58660797185043e-18
vertex -2.78609126062191 16.379206566715 6.66511950623063e-17
vertex -2.66760659379349 17.2590780691096 6.77743562848444e-17
endloop
endfacet
facet normal 0.500803231233826 -0.865561161089013 2.28789824985408e-17
outer loop
vertex -1.53011124246826 17.105901432119 5.23744725524327
vertex -2.78609126062191 16.379206566715 6.66511950623063e-17
vertex -1.53011124246826 17.105901432119 -7.58660797185043e-18
endloop
endfacet
facet normal 0.500803231233826 -0.865561161089013 2.28789824985408e-17
outer loop
vertex -2.78609126062191 16.379206566715 6.66511950623063e-17
vertex -1.53011124246826 17.105901432119 5.23744725524327
vertex -2.78609126062191 16.379206566715 10.309225
endloop
endfacet
facet normal 0.500803231233826 -0.865561161089013 2.28789824985408e-17
outer loop
vertex -2.78609126062191 16.379206566715 10.309225
vertex -1.53011124246826 17.105901432119 5.23744725524327
vertex -1.53011124246826 17.105901432119 6.96368257849837
endloop
endfacet
facet normal 0.500803231233826 -0.865561161089013 2.28789824985408e-17
outer loop
vertex -2.78609126062191 16.379206566715 10.309225
vertex -1.53011124246826 17.105901432119 6.96368257849837
vertex -1.53011124246826 17.105901432119 10.309225
endloop
endfacet
facet normal -0.991054640071642 0.133456736032576 1.96593625233283e-17
outer loop
vertex -2.66760659379349 17.2590780691096 10.309225
vertex -2.78609126062191 16.379206566715 6.66511950623063e-17
vertex -2.78609126062191 16.379206566715 10.309225
endloop
endfacet
facet normal -0.991054640071642 0.133456736032576 1.96593625233283e-17
outer loop
vertex -2.78609126062191 16.379206566715 6.66511950623063e-17
vertex -2.66760659379349 17.2590780691096 10.309225
vertex -2.66760659379349 17.2590780691096 6.77743562848444e-17
endloop
endfacet
facet normal -0.991054640071642 0.133456736032576 1.96593625233283e-17
outer loop
vertex -2.66760659379349 17.2590780691096 6.77743562848444e-17
vertex -2.66760659379349 17.2590780691096 10.309225
vertex -2.66760659379349 17.2590780691096 6.96368257849837
endloop
endfacet
facet normal 0.133456736032576 0.991054640071642 -1.31245631470412e-16
outer loop
vertex -2.66760659379349 17.2590780691096 6.77743562848444e-17
vertex -1.53011124246826 17.105901432119 6.96368257849837
vertex -1.53011124246826 17.105901432119 -7.58660797185043e-18
endloop
endfacet
facet normal 0.133456736032576 0.991054640071642 -1.31245631470412e-16
outer loop
vertex -1.53011124246826 17.105901432119 6.96368257849837
vertex -2.66760659379349 17.2590780691096 6.77743562848444e-17
vertex -2.66760659379349 17.2590780691096 6.96368257849837
endloop
endfacet
facet normal 0.991054640071642 -0.133456736032576 -0.0
outer loop
vertex -4.29222463920346 22.9660942182713 4.77901342024045e-17
vertex -4.93819361041273 18.1691048321156 10.309225
vertex -4.93819361041273 18.1691048321156 4.13139431834932e-17
endloop
endfacet
facet normal 0.991054640071642 -0.133456736032576 -0.0
outer loop
vertex -4.93819361041273 18.1691048321156 10.309225
vertex -4.29222463920346 22.9660942182713 4.77901342024045e-17
vertex -4.29222463920346 22.9660942182713 10.309225
endloop
endfacet
facet normal -0.133456736032576 -0.991054640071642 1.47362189249811e-18
outer loop
vertex -0.804220221654315 22.4963949040139 10.309225
vertex -4.29222463920346 22.9660942182713 4.77901342024045e-17
vertex -0.804220221654316 22.4963949040139 -3.52805446365762e-19
endloop
endfacet
facet normal -0.133456736032576 -0.991054640071642 1.47362189249811e-18
outer loop
vertex -4.29222463920346 22.9660942182713 4.77901342024045e-17
vertex -0.804220221654315 22.4963949040139 10.309225
vertex -4.29222463920346 22.9660942182713 10.309225
endloop
endfacet
facet normal 0.0 0.0 -1.0
outer loop
vertex -0.804220221654315 22.4963949040139 10.309225
vertex -3.35576964265704 17.9560135158375 10.309225
vertex -3.8458572653168 19.3125220186318 10.309225
endloop
endfacet
facet normal 0.0 0.0 -1.0
outer loop
vertex -3.35576964265704 17.9560135158375 10.309225
vertex -0.804220221654315 22.4963949040139 10.309225
vertex -1.45018919286359 17.6994055178581 10.309225
endloop
endfacet
facet normal 0.133456736032576 0.991054640071642 -6.14009121874214e-20
outer loop
vertex -3.35576964265704 17.9560135158375 3.32927291510685e-17
vertex -1.45018919286359 17.6994055178581 10.309225
vertex -1.45018919286359 17.6994055178581 -6.82899646527709e-18
endloop
endfacet
facet normal 0.133456736032576 0.991054640071642 -6.14009121874214e-20
outer loop
vertex -1.45018919286359 17.6994055178581 10.309225
vertex -3.35576964265704 17.9560135158375 3.32927291510685e-17
vertex -3.35576964265704 17.9560135158375 10.309225
endloop
endfacet
facet normal -1.33780378740546e-17 3.15155760503536e-18 -1.0
outer loop
vertex -4.29222463920346 22.9660942182713 4.77901342024045e-17
vertex -3.8458572653168 19.3125220186318 3.03041713174869e-17
vertex -4.93819361041273 18.1691048321156 4.13139431834932e-17
endloop
endfacet
facet normal -1.33780378740546e-17 3.15155760503536e-18 -1.0
outer loop
vertex -3.8458572653168 19.3125220186318 3.03041713174869e-17
vertex -4.29222463920346 22.9660942182713 4.77901342024045e-17
vertex -0.804220221654316 22.4963949040139 -3.52805446365762e-19
endloop
endfacet
facet normal 0.723073536821564 -0.690771062182221 5.08497055648768e-18
outer loop
vertex -0.804220221654316 22.4963949040139 -3.52805446365762e-19
vertex -3.8458572653168 19.3125220186318 10.309225
vertex -3.8458572653168 19.3125220186318 3.03041713174869e-17
endloop
endfacet
facet normal 0.723073536821564 -0.690771062182221 5.08497055648768e-18
outer loop
vertex -3.8458572653168 19.3125220186318 10.309225
vertex -0.804220221654316 22.4963949040139 -3.52805446365762e-19
vertex -0.804220221654315 22.4963949040139 10.309225
endloop
endfacet
facet normal 3.05138191737979e-19 1.15097208981941e-18 -1.0
outer loop
vertex -48.6974978042488 29.5085584766327 0.0
vertex -49.3695718301873 1.25062115560113 -3.76001057291541e-18
vertex -52.4469451458058 1.66502433949267 -5.32705765763077e-18
endloop
endfacet
facet normal 3.05138191737979e-19 1.15097208981941e-18 -1.0
outer loop
vertex -4.93819361041273 18.1691048321156 4.13139431834932e-17
vertex -4.84216399638188 1.11073465831824 4.71608995722804e-17
vertex -6.27102368588149 1.30314680463073 9.06931898825046e-17
endloop
endfacet
facet normal 3.05138191737979e-19 1.15097208981941e-18 -1.0
outer loop
vertex -4.84216399638188 1.11073465831824 4.71608995722804e-17
vertex -4.93819361041273 18.1691048321156 4.13139431834932e-17
vertex -3.35576964265704 17.9560135158375 3.32927291510685e-17
endloop
endfacet
facet normal 3.05138191737979e-19 1.15097208981941e-18 -1.0
outer loop
vertex -4.84216399638188 1.11073465831824 4.71608995722804e-17
vertex -3.35576964265704 17.9560135158375 3.32927291510685e-17
vertex -4.66554168718033 2.42233843552767 4.88351696195395e-17
endloop
endfacet
facet normal 3.05138191737979e-19 1.15097208981941e-18 -1.0
outer loop
vertex -4.66554168718033 2.42233843552767 4.88351696195395e-17
vertex -3.35576964265704 17.9560135158375 3.32927291510685e-17
vertex -2.78609126062191 16.379206566715 6.66511950623063e-17
endloop
endfacet
facet normal 3.05138191737979e-19 1.15097208981941e-18 -1.0
outer loop
vertex -49.3695718301873 1.25062115560113 -3.76001057291541e-18
vertex -9.21367953814757 -5.99164765665782 -1.14363993529204e-17
vertex -49.612250865966 -0.551522307564935 1.56704708471537e-18
endloop
endfacet
facet normal 3.05138191737979e-19 1.15097208981941e-18 -1.0
outer loop
vertex -9.21367953814757 -5.99164765665782 -1.14363993529204e-17
vertex -49.3695718301873 1.25062115560113 -3.76001057291541e-18
vertex -48.6974978042488 29.5085584766327 0.0
endloop
endfacet
facet normal 3.05138191737979e-19 1.15097208981941e-18 -1.0
outer loop
vertex -9.21367953814757 -5.99164765665782 -1.14363993529204e-17
vertex -48.6974978042488 29.5085584766327 0.0
vertex -8.85348118019796 -3.31680137609977 -4.58648264533723e-17
endloop
endfacet
facet normal 3.05138191737979e-19 1.15097208981941e-18 -1.0
outer loop
vertex -8.85348118019796 -3.31680137609977 -4.58648264533723e-17
vertex -48.6974978042488 29.5085584766327 0.0
vertex -4.29222463920346 22.9660942182713 4.77901342024045e-17
endloop
endfacet
facet normal 3.05138191737979e-19 1.15097208981941e-18 -1.0
outer loop
vertex -4.29222463920346 22.9660942182713 4.77901342024045e-17
vertex -48.6974978042488 29.5085584766327 0.0
vertex -0.729783827432229 23.0491623107186 0.0
endloop
endfacet
facet normal 3.05138191737979e-19 1.15097208981941e-18 -1.0
outer loop
vertex -8.85348118019796 -3.31680137609977 -4.58648264533723e-17
vertex -4.29222463920346 22.9660942182713 4.77901342024045e-17
vertex -4.93819361041273 18.1691048321156 4.13139431834932e-17
endloop
endfacet
facet normal 3.05138191737979e-19 1.15097208981941e-18 -1.0
outer loop
vertex -8.85348118019796 -3.31680137609977 -4.58648264533723e-17
vertex -4.93819361041273 18.1691048321156 4.13139431834932e-17
vertex -6.86773686089673 -3.12806722375958 8.50367187365362e-17
endloop
endfacet
facet normal 3.05138191737979e-19 1.15097208981941e-18 -1.0
outer loop
vertex -6.86773686089673 -3.12806722375958 8.50367187365362e-17
vertex -4.93819361041273 18.1691048321156 4.13139431834932e-17
vertex -6.46618839934891 -0.146153550002005 8.88431493326014e-17
endloop
endfacet
facet normal 3.05138191737979e-19 1.15097208981941e-18 -1.0
outer loop
vertex -6.46618839934891 -0.146153550002005 8.88431493326014e-17
vertex -4.93819361041273 18.1691048321156 4.13139431834932e-17
vertex -6.27102368588149 1.30314680463073 9.06931898825046e-17
endloop
endfacet
facet normal 3.05138191737979e-19 1.15097208981941e-18 -1.0
outer loop
vertex -4.29222463920346 22.9660942182713 4.77901342024045e-17
vertex -0.729783827432229 23.0491623107186 0.0
vertex -0.804220221654316 22.4963949040139 -3.52805446365762e-19
endloop
endfacet
facet normal 3.05138191737979e-19 1.15097208981941e-18 -1.0
outer loop
vertex -6.86773686089673 -3.12806722375958 8.50367187365362e-17
vertex -4.36171184681826 -3.92166900902941 -3.44284271004518e-17
vertex -8.85348118019796 -3.31680137609977 -4.58648264533723e-17
endloop
endfacet
facet normal 3.05138191737979e-19 1.15097208981941e-18 -1.0
outer loop
vertex -4.36171184681826 -3.92166900902941 -3.44284271004518e-17
vertex -6.86773686089673 -3.12806722375958 8.50367187365362e-17
vertex -4.30138182007189 -3.47365600706266 -3.38565358303829e-17
endloop
endfacet
facet normal -5.64001057244934e-18 -4.240782269303e-18 -1.0
outer loop
vertex -3.35576964265704 17.9560135158375 3.32927291510685e-17
vertex -4.93819361041273 18.1691048321156 4.13139431834932e-17
vertex -3.8458572653168 19.3125220186318 3.03041713174869e-17
endloop
endfacet
facet normal 0.940501323299178 0.339790024680678 -0.0
outer loop
vertex -3.8458572653168 19.3125220186318 3.03041713174869e-17
vertex -3.35576964265704 17.9560135158375 10.309225
vertex -3.35576964265704 17.9560135158375 3.32927291510685e-17
endloop
endfacet
facet normal 0.940501323299178 0.339790024680678 -0.0
outer loop
vertex -3.35576964265704 17.9560135158375 10.309225
vertex -3.8458572653168 19.3125220186318 3.03041713174869e-17
vertex -3.8458572653168 19.3125220186318 10.309225
endloop
endfacet
facet normal 0.133456736032576 0.991054640071642 -0.0
outer loop
vertex -4.93819361041273 18.1691048321156 4.13139431834932e-17
vertex -3.35576964265704 17.9560135158375 10.309225
vertex -3.35576964265704 17.9560135158375 3.32927291510685e-17
endloop
endfacet
facet normal 0.133456736032576 0.991054640071642 -0.0
outer loop
vertex -3.35576964265704 17.9560135158375 10.309225
vertex -4.93819361041273 18.1691048321156 4.13139431834932e-17
vertex -4.93819361041273 18.1691048321156 10.309225
endloop
endfacet
facet normal 0.723073536821564 -0.690771062182221 -0.0
outer loop
vertex -3.8458572653168 19.3125220186318 3.03041713174869e-17
vertex -4.93819361041273 18.1691048321156 10.309225
vertex -4.93819361041273 18.1691048321156 4.13139431834932e-17
endloop
endfacet
facet normal 0.723073536821564 -0.690771062182221 -0.0
outer loop
vertex -4.93819361041273 18.1691048321156 10.309225
vertex -3.8458572653168 19.3125220186318 3.03041713174869e-17
vertex -3.8458572653168 19.3125220186318 10.309225
endloop
endfacet
facet normal 0.991054640071642 -0.133456736032575 -0.0
outer loop
vertex -6.46618839934891 -0.146153550002005 10.169525
vertex -6.86773686089673 -3.12806722375958 10.309225
vertex -6.86773686089673 -3.12806722375958 10.169525
endloop
endfacet
facet normal 0.991054640071642 -0.133456736032575 -0.0
outer loop
vertex -6.86773686089673 -3.12806722375958 10.309225
vertex -6.46618839934891 -0.146153550002005 10.169525
vertex -6.46618839934891 -0.146153550002005 10.309225
endloop
endfacet
facet normal -0.133456736032576 -0.991054640071642 -3.30440034898135e-17
outer loop
vertex -3.70466864505665 0.957558021327652 10.309225
vertex -6.27102368588149 1.30314680463073 6.96368257849837
vertex -3.70466864505665 0.957558021327652 6.96368257849837
endloop
endfacet
facet normal -0.133456736032576 -0.991054640071642 -3.30440034898135e-17
outer loop
vertex -6.27102368588149 1.30314680463073 6.96368257849837
vertex -3.70466864505665 0.957558021327652 10.309225
vertex -6.27102368588149 1.30314680463073 10.309225
endloop
endfacet
facet normal -0.133456736032576 -0.991054640071642 -3.30440034898135e-17
outer loop
vertex -6.27102368588149 1.30314680463073 10.309225
vertex -3.70466864505665 0.957558021327652 10.309225
vertex -4.84216399638188 1.11073465831824 10.309225
endloop
endfacet
facet normal 0.0 0.0 -1.0
outer loop
vertex -6.46618839934891 -0.146153550002005 10.309225
vertex -4.30138182007189 -3.47365600706266 10.309225
vertex -6.86773686089673 -3.12806722375958 10.309225
endloop
endfacet
facet normal 0.0 0.0 -1.0
outer loop
vertex -4.30138182007189 -3.47365600706266 10.309225
vertex -6.46618839934891 -0.146153550002005 10.309225
vertex -3.70466864505665 0.957558021327652 10.309225
endloop
endfacet
facet normal 0.133456736032576 0.991054640071642 -0.0
outer loop
vertex -6.86773686089673 -3.12806722375958 10.309225
vertex -4.30138182007189 -3.47365600706266 10.169525
vertex -6.86773686089673 -3.12806722375958 10.169525
endloop
endfacet
facet normal 0.133456736032576 0.991054640071642 -0.0
outer loop
vertex -4.30138182007189 -3.47365600706266 10.169525
vertex -6.86773686089673 -3.12806722375958 10.309225
vertex -4.30138182007189 -3.47365600706266 10.309225
endloop
endfacet
facet normal -0.133456736032576 -0.991054640071642 5.19426908476209e-17
outer loop
vertex -3.70466864505665 0.957558021327652 5.23744725524327
vertex -4.84216399638188 1.11073465831824 4.71608995722804e-17
vertex -3.70466864505665 0.957558021327652 -2.82000646844144e-17
endloop
endfacet
facet normal -0.133456736032576 -0.991054640071642 5.19426908476209e-17
outer loop
vertex -4.84216399638188 1.11073465831824 4.71608995722804e-17
vertex -3.70466864505665 0.957558021327652 5.23744725524327
vertex -6.27102368588149 1.30314680463073 9.06931898825046e-17
endloop
endfacet
facet normal -0.133456736032576 -0.991054640071642 5.19426908476209e-17
outer loop
vertex -6.27102368588149 1.30314680463073 9.06931898825046e-17
vertex -3.70466864505665 0.957558021327652 5.23744725524327
vertex -6.27102368588149 1.30314680463073 5.23744725524327
endloop
endfacet
facet normal -0.133456736032576 -0.991054640071642 0.0
outer loop
vertex -3.70466864505665 0.957558021327652 6.96368257849837
vertex -6.27102368588149 1.30314680463073 5.23744725524327
vertex -3.70466864505665 0.957558021327652 5.23744725524327
endloop
endfacet
facet normal -0.133456736032576 -0.991054640071642 0.0
outer loop
vertex -6.27102368588149 1.30314680463073 5.23744725524327
vertex -3.70466864505665 0.957558021327652 6.96368257849837
vertex -6.27102368588149 1.30314680463073 6.96368257849837
endloop
endfacet
facet normal -4.40714857895272e-17 1.18121790830702e-17 -1.0
outer loop
vertex -6.27102368588149 1.30314680463073 9.06931898825046e-17
vertex -3.70466864505665 0.957558021327652 -2.82000646844144e-17
vertex -6.46618839934891 -0.146153550002005 8.88431493326014e-17
endloop
endfacet
facet normal -4.40714857895272e-17 1.18121790830702e-17 -1.0
outer loop
vertex -3.70466864505665 0.957558021327652 -2.82000646844144e-17
vertex -6.27102368588149 1.30314680463073 9.06931898825046e-17
vertex -4.84216399638188 1.11073465831824 4.71608995722804e-17
endloop
endfacet
facet normal 0.371130836429549 -0.928580584683474 -1.7561425324406e-17
outer loop
vertex -3.70466864505665 0.957558021327652 5.23744725524327
vertex -6.46618839934891 -0.146153550002005 8.88431493326014e-17
vertex -3.70466864505665 0.957558021327652 -2.82000646844144e-17
endloop
endfacet
facet normal 0.371130836429549 -0.928580584683474 -1.7561425324406e-17
outer loop
vertex -6.46618839934891 -0.146153550002005 8.88431493326014e-17
vertex -3.70466864505665 0.957558021327652 5.23744725524327
vertex -6.46618839934891 -0.146153550002005 10.169525
endloop
endfacet
facet normal 0.371130836429549 -0.928580584683474 -1.7561425324406e-17
outer loop
vertex -6.46618839934891 -0.146153550002005 10.169525
vertex -3.70466864505665 0.957558021327652 5.23744725524327
vertex -3.70466864505665 0.957558021327652 6.96368257849837
endloop
endfacet
facet normal 0.371130836429549 -0.928580584683474 -1.7561425324406e-17
outer loop
vertex -6.46618839934891 -0.146153550002005 10.169525
vertex -3.70466864505665 0.957558021327652 6.96368257849837
vertex -3.70466864505665 0.957558021327652 10.309225
endloop
endfacet
facet normal 0.371130836429549 -0.928580584683474 -1.7561425324406e-17
outer loop
vertex -6.46618839934891 -0.146153550002005 10.169525
vertex -3.70466864505665 0.957558021327652 10.309225
vertex -6.46618839934891 -0.146153550002005 10.309225
endloop
endfacet
facet normal -0.991054640071642 0.133456736032576 6.6211191299569e-17
outer loop
vertex -6.27102368588149 1.30314680463073 10.309225
vertex -6.46618839934891 -0.146153550002005 10.169525
vertex -6.46618839934891 -0.146153550002005 10.309225
endloop
endfacet
facet normal -0.991054640071642 0.133456736032576 6.6211191299569e-17
outer loop
vertex -6.46618839934891 -0.146153550002005 10.169525
vertex -6.27102368588149 1.30314680463073 10.309225
vertex -6.46618839934891 -0.146153550002005 8.88431493326014e-17
endloop
endfacet
facet normal -0.991054640071642 0.133456736032576 6.6211191299569e-17
outer loop
vertex -6.46618839934891 -0.146153550002005 8.88431493326014e-17
vertex -6.27102368588149 1.30314680463073 10.309225
vertex -6.27102368588149 1.30314680463073 9.06931898825046e-17
endloop
endfacet
facet normal -0.991054640071642 0.133456736032576 6.6211191299569e-17
outer loop
vertex -6.27102368588149 1.30314680463073 9.06931898825046e-17
vertex -6.27102368588149 1.30314680463073 10.309225
vertex -6.27102368588149 1.30314680463073 6.96368257849837
endloop
endfacet
facet normal 0.133456736032576 0.991054640071642 -2.09540685350027e-17
outer loop
vertex -6.27102368588149 1.30314680463073 9.06931898825046e-17
vertex -4.84216399638188 1.11073465831824 6.96368257849837
vertex -4.84216399638188 1.11073465831824 4.71608995722804e-17
endloop
endfacet
facet normal 0.133456736032576 0.991054640071642 -2.09540685350027e-17
outer loop
vertex -4.84216399638188 1.11073465831824 6.96368257849837
vertex -6.27102368588149 1.30314680463073 9.06931898825046e-17
vertex -6.27102368588149 1.30314680463073 6.96368257849837
endloop
endfacet
facet normal 0.133456736032576 0.991054640071642 -2.09540685350027e-17
outer loop
vertex -4.84216399638188 1.11073465831824 6.96368257849837
vertex -6.27102368588149 1.30314680463073 6.96368257849837
vertex -6.27102368588149 1.30314680463073 10.309225
endloop
endfacet
facet normal 0.133456736032576 0.991054640071642 -2.09540685350027e-17
outer loop
vertex -4.84216399638188 1.11073465831824 6.96368257849837
vertex -6.27102368588149 1.30314680463073 10.309225
vertex -4.84216399638188 1.11073465831824 10.309225
endloop
endfacet
facet normal 0.133456736032576 0.991054640071642 -1.63155965386773e-17
outer loop
vertex -4.84216399638188 1.11073465831824 4.71608995722804e-17
vertex -3.70466864505665 0.957558021327652 6.96368257849837
vertex -3.70466864505665 0.957558021327652 -2.82000646844144e-17
endloop
endfacet
facet normal 0.133456736032576 0.991054640071642 -1.63155965386773e-17
outer loop
vertex -3.70466864505665 0.957558021327652 6.96368257849837
vertex -4.84216399638188 1.11073465831824 4.71608995722804e-17
vertex -4.84216399638188 1.11073465831824 6.96368257849837
endloop
endfacet
facet normal -4.53337093108181e-17 7.38120356057951e-18 -1.0
outer loop
vertex -4.30138182007189 -3.47365600706266 -3.38565358303829e-17
vertex -6.86773686089673 -3.12806722375958 8.50367187365362e-17
vertex -6.46618839934891 -0.146153550002005 8.88431493326014e-17
endloop
endfacet
facet normal -0.0 -0.0 1.0
outer loop
vertex -4.30138182007189 -3.47365600706266 10.169525
vertex -6.46618839934891 -0.146153550002005 10.169525
vertex -6.86773686089673 -3.12806722375958 10.169525
endloop
endfacet
facet normal 0.838221392334197 0.545330081174072 -0.0
outer loop
vertex -6.46618839934891 -0.146153550002005 8.88431493326014e-17
vertex -4.30138182007189 -3.47365600706266 10.169525
vertex -4.30138182007189 -3.47365600706266 -3.38565358303829e-17
endloop
endfacet
facet normal 0.838221392334197 0.545330081174072 -0.0
outer loop
vertex -4.30138182007189 -3.47365600706266 10.169525
vertex -6.46618839934891 -0.146153550002005 8.88431493326014e-17
vertex -6.46618839934891 -0.146153550002005 10.169525
endloop
endfacet
facet normal 0.133456736032576 0.991054640071642 -0.0
outer loop
vertex -6.86773686089673 -3.12806722375958 8.50367187365362e-17
vertex -4.30138182007189 -3.47365600706266 10.169525
vertex -4.30138182007189 -3.47365600706266 -3.38565358303829e-17
endloop
endfacet
facet normal 0.133456736032576 0.991054640071642 -0.0
outer loop
vertex -4.30138182007189 -3.47365600706266 10.169525
vertex -6.86773686089673 -3.12806722375958 8.50367187365362e-17
vertex -6.86773686089673 -3.12806722375958 10.169525
endloop
endfacet
facet normal 0.991054640071642 -0.133456736032575 -0.0
outer loop
vertex -6.46618839934891 -0.146153550002005 8.88431493326014e-17
vertex -6.86773686089673 -3.12806722375958 10.169525
vertex -6.86773686089673 -3.12806722375958 8.50367187365362e-17
endloop
endfacet
facet normal 0.991054640071642 -0.133456736032575 -0.0
outer loop
vertex -6.86773686089673 -3.12806722375958 10.169525
vertex -6.46618839934891 -0.146153550002005 8.88431493326014e-17
vertex -6.46618839934891 -0.146153550002005 10.169525
endloop
endfacet
facet normal 0.991054640071642 -0.133456736032576 -6.46458839781637e-17
outer loop
vertex -6.46618839934891 -0.146153550002005 10.169525
vertex -6.27102368588149 1.30314680463073 10.309225
vertex -6.46618839934891 -0.146153550002005 10.309225
endloop
endfacet
facet normal 0.991054640071642 -0.133456736032576 -6.46458839781637e-17
outer loop
vertex -6.27102368588149 1.30314680463073 10.309225
vertex -6.46618839934891 -0.146153550002005 10.169525
vertex -6.46618839934891 -0.146153550002005 8.88431493326014e-17
endloop
endfacet
facet normal 0.991054640071642 -0.133456736032576 -6.46458839781637e-17
outer loop
vertex -6.27102368588149 1.30314680463073 10.309225
vertex -6.46618839934891 -0.146153550002005 8.88431493326014e-17
vertex -6.27102368588149 1.30314680463073 9.06931898825046e-17
endloop
endfacet
facet normal 0.991054640071642 -0.133456736032576 -6.46458839781637e-17
outer loop
vertex -6.27102368588149 1.30314680463073 10.309225
vertex -6.27102368588149 1.30314680463073 9.06931898825046e-17
vertex -6.27102368588149 1.30314680463073 5.23744725524327
endloop
endfacet
facet normal 0.991054640071642 -0.133456736032576 -6.46458839781637e-17
outer loop
vertex -6.27102368588149 1.30314680463073 10.309225
vertex -6.27102368588149 1.30314680463073 5.23744725524327
vertex -6.27102368588149 1.30314680463073 6.96368257849837
endloop
endfacet
facet normal 0.133456736032576 0.991054640071642 0.0
outer loop
vertex -41.2452243645506 -13.2664466521054 127.9271
vertex -20.7246823627042 -16.0297701324211 125.6744375
vertex -41.2452243645506 -13.2664466521054 125.6744375
endloop
endfacet
facet normal 0.133456736032576 0.991054640071642 0.0
outer loop
vertex -20.7246823627042 -16.0297701324211 125.6744375
vertex -41.2452243645506 -13.2664466521054 127.9271
vertex -20.7246823627042 -16.0297701324211 127.9271
endloop
endfacet
facet normal 0.0 0.0 1.0
outer loop
vertex -10.1053158034321 -4.82250403009662 16.2798125
vertex -48.2667411875515 1.64981475841705 16.2798125
vertex -48.4431072394048 0.340113957719578 16.2798125
endloop
endfacet
facet normal 0.0 0.0 1.0
outer loop
vertex -48.2667411875515 1.64981475841705 16.2798125
vertex -10.1053158034321 -4.82250403009662 16.2798125
vertex -47.8058615389643 28.3394148500715 16.2798125
endloop
endfacet
facet normal 0.0 0.0 1.0
outer loop
vertex -47.8058615389643 28.3394148500715 16.2798125
vertex -10.1053158034321 -4.82250403009662 16.2798125
vertex -9.7906678976996 -2.48591708637803 16.2798125
endloop
endfacet
facet normal 0.0 0.0 1.0
outer loop
vertex -47.8058615389643 28.3394148500715 16.2798125
vertex -9.7906678976996 -2.48591708637803 16.2798125
vertex -1.89892745399343 22.1575260454341 16.2798125
endloop
endfacet
facet normal 0.0 0.0 1.0
outer loop
vertex -1.89892745399343 22.1575260454341 16.2798125
vertex -9.7906678976996 -2.48591708637803 16.2798125
vertex -5.29889856431989 -3.09078471930767 16.2798125
endloop
endfacet
facet normal 0.0 0.0 1.0
outer loop
vertex -47.8058615389643 28.3394148500715 16.2798125
vertex -51.34411450317 2.06421794230859 16.2798125
vertex -48.2667411875515 1.64981475841705 16.2798125
endloop
endfacet
facet normal -0.991054640071642 0.133456736032576 0.0
outer loop
vertex -41.2452243645506 -13.2664466521054 127.9271
vertex -42.8454223440664 -25.1495758202374 125.6744375
vertex -42.8454223440664 -25.1495758202374 127.9271
endloop
endfacet
facet normal -0.991054640071642 0.133456736032576 0.0
outer loop
vertex -42.8454223440664 -25.1495758202374 125.6744375
vertex -41.2452243645506 -13.2664466521054 127.9271
vertex -41.2452243645506 -13.2664466521054 125.6744375
endloop
endfacet
facet normal -0.133456736032576 -0.991054640071642 -0.0
outer loop
vertex -22.32488034222 -27.9128993005531 127.9271
vertex -42.8454223440664 -25.1495758202374 125.6744375
vertex -22.32488034222 -27.9128993005531 125.6744375
endloop
endfacet
facet normal -0.133456736032576 -0.991054640071642 -0.0
outer loop
vertex -42.8454223440664 -25.1495758202374 125.6744375
vertex -22.32488034222 -27.9128993005531 127.9271
vertex -42.8454223440664 -25.1495758202374 127.9271
endloop
endfacet
facet normal 0.991054640071642 -0.133456736032576 0.0
outer loop
vertex -20.7246823627042 -16.0297701324211 125.6744375
vertex -22.32488034222 -27.9128993005531 127.9271
vertex -22.32488034222 -27.9128993005531 125.6744375
endloop
endfacet
facet normal 0.991054640071642 -0.133456736032576 0.0
outer loop
vertex -22.32488034222 -27.9128993005531 127.9271
vertex -20.7246823627042 -16.0297701324211 125.6744375
vertex -20.7246823627042 -16.0297701324211 127.9271
endloop
endfacet
facet normal 0.0 0.0 1.0
outer loop
vertex -22.32488034222 -27.9128993005531 127.9271
vertex -41.2452243645506 -13.2664466521054 127.9271
vertex -42.8454223440664 -25.1495758202374 127.9271
endloop
endfacet
facet normal 0.0 0.0 1.0
outer loop
vertex -41.2452243645506 -13.2664466521054 127.9271
vertex -22.32488034222 -27.9128993005531 127.9271
vertex -20.7246823627042 -16.0297701324211 127.9271
endloop
endfacet
facet normal 0.991054640071642 -0.133456736032576 -0.0
outer loop
vertex -56.8118125148977 -0.552008196375823 125.6744375
vertex -61.0784913502259 -32.2365224678425 128.1604625
vertex -61.0784913502259 -32.2365224678425 125.6744375
endloop
endfacet
facet normal 0.991054640071642 -0.133456736032576 -0.0
outer loop
vertex -61.0784913502259 -32.2365224678425 128.1604625
vertex -56.8118125148977 -0.552008196375823 125.6744375
vertex -56.8118125148977 -0.552008196375823 128.1604625
endloop
endfacet
facet normal 0.133456736032576 0.991054640071642 0.0
outer loop
vertex -61.0784913502259 -32.2365224678425 128.1604625
vertex -2.31277724146862 -40.1499916939301 125.6744375
vertex -61.0784913502259 -32.2365224678425 125.6744375
endloop
endfacet
facet normal 0.133456736032576 0.991054640071642 0.0
outer loop
vertex -2.31277724146862 -40.1499916939301 125.6744375
vertex -61.0784913502259 -32.2365224678425 128.1604625
vertex -2.31277724146862 -40.1499916939301 128.1604625
endloop
endfacet
facet normal -0.991054640071642 0.133456736032576 -0.0
outer loop
vertex 1.95390159385961 -8.46547742246341 128.1604625
vertex -2.31277724146862 -40.1499916939301 125.6744375
vertex -2.31277724146862 -40.1499916939301 128.1604625
endloop
endfacet
facet normal -0.991054640071642 0.133456736032576 -0.0
outer loop
vertex -2.31277724146862 -40.1499916939301 125.6744375
vertex 1.95390159385961 -8.46547742246341 128.1604625
vertex 1.95390159385961 -8.46547742246341 125.6744375
endloop
endfacet
facet normal -0.133456736032576 -0.991054640071642 -0.0
outer loop
vertex 1.95390159385961 -8.46547742246341 128.1604625
vertex -56.8118125148977 -0.552008196375823 125.6744375
vertex 1.95390159385961 -8.46547742246341 125.6744375
endloop
endfacet
facet normal -0.133456736032576 -0.991054640071642 -0.0
outer loop
vertex -56.8118125148977 -0.552008196375823 125.6744375
vertex 1.95390159385961 -8.46547742246341 128.1604625
vertex -56.8118125148977 -0.552008196375823 128.1604625
endloop
endfacet
facet normal 0.0 0.0 1.0
outer loop
vertex -61.0784913502259 -32.2365224678425 125.6744375
vertex -42.8454223440664 -25.1495758202374 125.6744375
vertex -56.8118125148977 -0.552008196375823 125.6744375
endloop
endfacet
facet normal 0.0 0.0 1.0
outer loop
vertex -42.8454223440664 -25.1495758202374 125.6744375
vertex -61.0784913502259 -32.2365224678425 125.6744375
vertex -2.31277724146862 -40.1499916939301 125.6744375
endloop
endfacet
facet normal 0.0 0.0 1.0
outer loop
vertex -42.8454223440664 -25.1495758202374 125.6744375
vertex -2.31277724146862 -40.1499916939301 125.6744375
vertex -22.32488034222 -27.9128993005531 125.6744375
endloop
endfacet
facet normal 0.0 0.0 1.0
outer loop
vertex -22.32488034222 -27.9128993005531 125.6744375
vertex -2.31277724146862 -40.1499916939301 125.6744375
vertex -20.7246823627042 -16.0297701324211 125.6744375
endloop
endfacet
facet normal 0.0 0.0 1.0
outer loop
vertex -56.8118125148977 -0.552008196375823 125.6744375
vertex -41.2452243645506 -13.2664466521054 125.6744375
vertex 1.95390159385961 -8.46547742246341 125.6744375
endloop
endfacet
facet normal 0.0 0.0 1.0
outer loop
vertex -41.2452243645506 -13.2664466521054 125.6744375
vertex -56.8118125148977 -0.552008196375823 125.6744375
vertex -42.8454223440664 -25.1495758202374 125.6744375
endloop
endfacet
facet normal 0.0 0.0 1.0
outer loop
vertex 1.95390159385961 -8.46547742246341 125.6744375
vertex -41.2452243645506 -13.2664466521054 125.6744375
vertex -20.7246823627042 -16.0297701324211 125.6744375
endloop
endfacet
facet normal 0.0 0.0 1.0
outer loop
vertex 1.95390159385961 -8.46547742246341 125.6744375
vertex -20.7246823627042 -16.0297701324211 125.6744375
vertex -2.31277724146862 -40.1499916939301 125.6744375
endloop
endfacet
facet normal -0.133456736032573 -0.991054640071642 5.07659133275117e-18
outer loop
vertex -49.3695718301873 1.25062115560113 -3.76001057291541e-18
vertex -52.4469451458058 1.66502433949267 17.6164875
vertex -52.4469451458058 1.66502433949267 -5.32705765763077e-18
endloop
endfacet
facet normal -0.133456736032573 -0.991054640071642 5.07659133275117e-18
outer loop
vertex -52.4469451458058 1.66502433949267 17.6164875
vertex -49.3695718301873 1.25062115560113 -3.76001057291541e-18
vertex -49.3695718301873 1.25062115560113 17.6164875
endloop
endfacet
facet normal -0.991054640071642 0.133456736032576 -8.56399299777725e-16
outer loop
vertex -48.6974978042488 29.5085584766327 17.6164875
vertex -52.4469451458058 1.66502433949267 -5.32705765763077e-18
vertex -52.4469451458058 1.66502433949267 17.6164875
endloop
endfacet
facet normal -0.991054640071642 0.133456736032576 -8.56399299777725e-16
outer loop
vertex -52.4469451458058 1.66502433949267 -5.32705765763077e-18
vertex -48.6974978042488 29.5085584766327 17.6164875
vertex -48.6974978042488 29.5085584766327 0.0
endloop
endfacet
facet normal -0.991054640071642 0.133456736032573 -5.04660671695528e-19
outer loop
vertex -49.3695718301873 1.25062115560113 17.6164875
vertex -49.612250865966 -0.551522307564935 1.56704708471537e-18
vertex -49.612250865966 -0.551522307564935 17.6164875
endloop
endfacet
facet normal -0.991054640071642 0.133456736032573 -5.04660671695528e-19
outer loop
vertex -49.612250865966 -0.551522307564935 1.56704708471537e-18
vertex -49.3695718301873 1.25062115560113 17.6164875
vertex -49.3695718301873 1.25062115560113 -3.76001057291541e-18
endloop
endfacet
facet normal 0.133456736032576 0.991054640071642 1.05319139524001e-16
outer loop
vertex -48.6974978042488 29.5085584766327 17.6164875
vertex -0.729783827432229 23.0491623107186 0.0
vertex -48.6974978042488 29.5085584766327 0.0
endloop
endfacet
facet normal 0.133456736032576 0.991054640071642 1.05319139524001e-16
outer loop
vertex -0.729783827432229 23.0491623107186 0.0
vertex -48.6974978042488 29.5085584766327 17.6164875
vertex -0.729783827432229 23.0491623107186 17.6164875
endloop
endfacet
facet normal 0.133456736032576 0.991054640071642 -0.0
outer loop
vertex -49.612250865966 -0.551522307564935 1.56704708471537e-18
vertex -9.21367953814757 -5.99164765665782 17.6164875
vertex -9.21367953814757 -5.99164765665782 -1.14363993529204e-17
endloop
endfacet
facet normal 0.133456736032576 0.991054640071642 -0.0
outer loop
vertex -9.21367953814757 -5.99164765665782 17.6164875
vertex -49.612250865966 -0.551522307564935 1.56704708471537e-18
vertex -49.612250865966 -0.551522307564935 17.6164875
endloop
endfacet
facet normal 0.991054640071642 -0.133456736032576 2.52330335847769e-18
outer loop
vertex -8.85348118019796 -3.31680137609977 -4.58648264533723e-17
vertex -9.21367953814757 -5.99164765665782 17.6164875
vertex -9.21367953814757 -5.99164765665782 -1.14363993529204e-17
endloop
endfacet
facet normal 0.991054640071642 -0.133456736032576 2.52330335847769e-18
outer loop
vertex -9.21367953814757 -5.99164765665782 17.6164875
vertex -8.85348118019796 -3.31680137609977 -4.58648264533723e-17
vertex -8.85348118019796 -3.31680137609977 17.6164875
endloop
endfacet
facet normal -0.133456736032576 -0.991054640071642 4.06127306620093e-17
outer loop
vertex -4.36171184681826 -3.92166900902941 -3.44284271004518e-17
vertex -8.85348118019796 -3.31680137609977 17.6164875
vertex -8.85348118019796 -3.31680137609977 -4.58648264533723e-17
endloop
endfacet
facet normal -0.133456736032576 -0.991054640071642 4.06127306620093e-17
outer loop
vertex -8.85348118019796 -3.31680137609977 17.6164875
vertex -4.36171184681826 -3.92166900902941 -3.44284271004518e-17
vertex -4.36171184681826 -3.92166900902941 17.6164875
endloop
endfacet
facet normal -0.0 -0.0 1.0
outer loop
vertex -49.612250865966 -0.551522307564935 17.6164875
vertex -48.4431072394048 0.340113957719578 17.6164875
vertex -49.3695718301873 1.25062115560113 17.6164875
endloop
endfacet
facet normal -0.0 -0.0 1.0
outer loop
vertex -48.4431072394048 0.340113957719578 17.6164875
vertex -49.612250865966 -0.551522307564935 17.6164875
vertex -9.21367953814757 -5.99164765665782 17.6164875
endloop
endfacet
facet normal -0.0 -0.0 1.0
outer loop
vertex -48.4431072394048 0.340113957719578 17.6164875
vertex -9.21367953814757 -5.99164765665782 17.6164875
vertex -10.1053158034321 -4.82250403009662 17.6164875
endloop
endfacet
facet normal -0.0 -0.0 1.0
outer loop
vertex -10.1053158034321 -4.82250403009662 17.6164875
vertex -9.21367953814757 -5.99164765665782 17.6164875
vertex -9.7906678976996 -2.48591708637803 17.6164875
endloop
endfacet
facet normal -0.0 -0.0 1.0
outer loop
vertex -9.7906678976996 -2.48591708637803 17.6164875
vertex -9.21367953814757 -5.99164765665782 17.6164875
vertex -8.85348118019796 -3.31680137609977 17.6164875
endloop
endfacet
facet normal -0.0 -0.0 1.0
outer loop
vertex -9.7906678976996 -2.48591708637803 17.6164875
vertex -8.85348118019796 -3.31680137609977 17.6164875
vertex -5.29889856431989 -3.09078471930767 17.6164875
endloop
endfacet
facet normal -0.0 -0.0 1.0
outer loop
vertex -5.29889856431989 -3.09078471930767 17.6164875
vertex -8.85348118019796 -3.31680137609977 17.6164875
vertex -4.36171184681826 -3.92166900902941 17.6164875
endloop
endfacet
facet normal -0.0 -0.0 1.0
outer loop
vertex -5.29889856431989 -3.09078471930767 17.6164875
vertex -4.36171184681826 -3.92166900902941 17.6164875
vertex -1.89892745399343 22.1575260454341 17.6164875
endloop
endfacet
facet normal -0.0 -0.0 1.0
outer loop
vertex -1.89892745399343 22.1575260454341 17.6164875
vertex -4.36171184681826 -3.92166900902941 17.6164875
vertex -0.729783827432229 23.0491623107186 17.6164875
endloop
endfacet
facet normal -0.0 -0.0 1.0
outer loop
vertex -51.34411450317 2.06421794230859 17.6164875
vertex -48.6974978042488 29.5085584766327 17.6164875
vertex -52.4469451458058 1.66502433949267 17.6164875
endloop
endfacet
facet normal -0.0 -0.0 1.0
outer loop
vertex -48.6974978042488 29.5085584766327 17.6164875
vertex -51.34411450317 2.06421794230859 17.6164875
vertex -47.8058615389643 28.3394148500715 17.6164875
endloop
endfacet
facet normal -0.0 -0.0 1.0
outer loop
vertex -48.6974978042488 29.5085584766327 17.6164875
vertex -47.8058615389643 28.3394148500715 17.6164875
vertex -0.729783827432229 23.0491623107186 17.6164875
endloop
endfacet
facet normal -0.0 -0.0 1.0
outer loop
vertex -0.729783827432229 23.0491623107186 17.6164875
vertex -47.8058615389643 28.3394148500715 17.6164875
vertex -1.89892745399343 22.1575260454341 17.6164875
endloop
endfacet
facet normal -0.0 -0.0 1.0
outer loop
vertex -49.3695718301873 1.25062115560113 17.6164875
vertex -51.34411450317 2.06421794230859 17.6164875
vertex -52.4469451458058 1.66502433949267 17.6164875
endloop
endfacet
facet normal -0.0 -0.0 1.0
outer loop
vertex -51.34411450317 2.06421794230859 17.6164875
vertex -49.3695718301873 1.25062115560113 17.6164875
vertex -48.2667411875515 1.64981475841705 17.6164875
endloop
endfacet
facet normal -0.0 -0.0 1.0
outer loop
vertex -48.2667411875515 1.64981475841705 17.6164875
vertex -49.3695718301873 1.25062115560113 17.6164875
vertex -48.4431072394048 0.340113957719578 17.6164875
endloop
endfacet
facet normal 0.991054640071642 -0.133456736032576 -3.72715477228634e-18
outer loop
vertex 3.03490735757329 -7.6410586598656 0.0
vertex -1.4883584788708 -41.2309974576438 128.1604625
vertex -1.4883584788708 -41.2309974576438 0.0
endloop
endfacet
facet normal 0.991054640071642 -0.133456736032576 -3.72715477228634e-18
outer loop
vertex -1.4883584788708 -41.2309974576438 128.1604625
vertex 3.03490735757329 -7.6410586598656 0.0
vertex 3.03490735757329 -7.6410586598656 128.1604625
endloop
endfacet
facet normal 0.133456736032576 0.991054640071642 3.45936985734061e-17
outer loop
vertex -57.6362312774955 0.52899756733786 128.1604625
vertex -49.612250865966 -0.551522307564935 1.56704708471537e-18
vertex -57.6362312774955 0.52899756733786 0.0
endloop
endfacet
facet normal 0.133456736032576 0.991054640071642 3.45936985734061e-17
outer loop
vertex -49.612250865966 -0.551522307564935 1.56704708471537e-18
vertex -57.6362312774955 0.52899756733786 128.1604625
vertex -49.612250865966 -0.551522307564935 17.6164875
endloop
endfacet
facet normal 0.133456736032576 0.991054640071642 3.45936985734061e-17
outer loop
vertex -49.612250865966 -0.551522307564935 17.6164875
vertex -57.6362312774955 0.52899756733786 128.1604625
vertex -9.21367953814757 -5.99164765665782 17.6164875
endloop
endfacet
facet normal 0.133456736032576 0.991054640071642 3.45936985734061e-17
outer loop
vertex -9.21367953814757 -5.99164765665782 17.6164875
vertex 3.03490735757329 -7.6410586598656 0.0
vertex -9.21367953814757 -5.99164765665782 -1.14363993529204e-17
endloop
endfacet
facet normal 0.133456736032576 0.991054640071642 3.45936985734061e-17
outer loop
vertex 3.03490735757329 -7.6410586598656 0.0
vertex -9.21367953814757 -5.99164765665782 17.6164875
vertex 3.03490735757329 -7.6410586598656 128.1604625
endloop
endfacet
facet normal 0.133456736032576 0.991054640071642 3.45936985734061e-17
outer loop
vertex 3.03490735757329 -7.6410586598656 128.1604625
vertex -9.21367953814757 -5.99164765665782 17.6164875
vertex -57.6362312774955 0.52899756733786 128.1604625
endloop
endfacet
facet normal -0.991054640071642 0.133456736032576 1.91287837146927e-18
outer loop
vertex -57.6362312774955 0.52899756733786 128.1604625
vertex -62.1594971139396 -33.0609412304403 0.0
vertex -62.1594971139396 -33.0609412304403 128.1604625
endloop
endfacet
facet normal -0.991054640071642 0.133456736032576 1.91287837146927e-18
outer loop
vertex -62.1594971139396 -33.0609412304403 0.0
vertex -57.6362312774955 0.52899756733786 128.1604625
vertex -57.6362312774955 0.52899756733786 0.0
endloop
endfacet
facet normal -0.133456736032576 -0.991054640071642 -3.84988925152837e-18
outer loop
vertex -1.4883584788708 -41.2309974576438 128.1604625
vertex -62.1594971139396 -33.0609412304403 0.0
vertex -1.4883584788708 -41.2309974576438 0.0
endloop
endfacet
facet normal -0.133456736032576 -0.991054640071642 -3.84988925152837e-18
outer loop
vertex -62.1594971139396 -33.0609412304403 0.0
vertex -1.4883584788708 -41.2309974576438 128.1604625
vertex -62.1594971139396 -33.0609412304403 128.1604625
endloop
endfacet
facet normal -0.0 -0.0 1.0
outer loop
vertex -1.4883584788708 -41.2309974576438 128.1604625
vertex -61.0784913502259 -32.2365224678425 128.1604625
vertex -62.1594971139396 -33.0609412304403 128.1604625
endloop
endfacet
facet normal -0.0 -0.0 1.0
outer loop
vertex -61.0784913502259 -32.2365224678425 128.1604625
vertex -1.4883584788708 -41.2309974576438 128.1604625
vertex -2.31277724146862 -40.1499916939301 128.1604625
endloop
endfacet
facet normal -0.0 -0.0 1.0
outer loop
vertex -2.31277724146862 -40.1499916939301 128.1604625
vertex -1.4883584788708 -41.2309974576438 128.1604625
vertex 1.95390159385961 -8.46547742246341 128.1604625
endloop
endfacet
facet normal -0.0 -0.0 1.0
outer loop
vertex 1.95390159385961 -8.46547742246341 128.1604625
vertex -1.4883584788708 -41.2309974576438 128.1604625
vertex 3.03490735757329 -7.6410586598656 128.1604625
endloop
endfacet
facet normal -0.0 -0.0 1.0
outer loop
vertex -61.0784913502259 -32.2365224678425 128.1604625
vertex -57.6362312774955 0.52899756733786 128.1604625
vertex -62.1594971139396 -33.0609412304403 128.1604625
endloop
endfacet
facet normal -0.0 -0.0 1.0
outer loop
vertex -57.6362312774955 0.52899756733786 128.1604625
vertex -61.0784913502259 -32.2365224678425 128.1604625
vertex -56.8118125148977 -0.552008196375823 128.1604625
endloop
endfacet
facet normal -0.0 -0.0 1.0
outer loop
vertex -57.6362312774955 0.52899756733786 128.1604625
vertex -56.8118125148977 -0.552008196375823 128.1604625
vertex 3.03490735757329 -7.6410586598656 128.1604625
endloop
endfacet
facet normal -0.0 -0.0 1.0
outer loop
vertex 3.03490735757329 -7.6410586598656 128.1604625
vertex -56.8118125148977 -0.552008196375823 128.1604625
vertex 1.95390159385961 -8.46547742246341 128.1604625
endloop
endfacet
facet normal -5.982199912194e-20 -7.97296588344198e-20 -1.0
outer loop
vertex -57.6362312774955 0.52899756733786 0.0
vertex -1.4883584788708 -41.2309974576438 0.0
vertex -62.1594971139396 -33.0609412304403 0.0
endloop
endfacet
facet normal -5.982199912194e-20 -7.97296588344198e-20 -1.0
outer loop
vertex -1.4883584788708 -41.2309974576438 0.0
vertex -57.6362312774955 0.52899756733786 0.0
vertex -49.612250865966 -0.551522307564935 1.56704708471537e-18
endloop
endfacet
facet normal -5.982199912194e-20 -7.97296588344198e-20 -1.0
outer loop
vertex -1.4883584788708 -41.2309974576438 0.0
vertex -49.612250865966 -0.551522307564935 1.56704708471537e-18
vertex -9.21367953814757 -5.99164765665782 -1.14363993529204e-17
endloop
endfacet
facet normal -5.982199912194e-20 -7.97296588344198e-20 -1.0
outer loop
vertex -1.4883584788708 -41.2309974576438 0.0
vertex -9.21367953814757 -5.99164765665782 -1.14363993529204e-17
vertex 3.03490735757329 -7.6410586598656 0.0
endloop
endfacet
facet normal -3.46702457017068e-17 -2.85204211687095e-17 -1.0
outer loop
vertex -3.35576964265704 17.9560135158375 3.32927291510685e-17
vertex -2.66760659379349 17.2590780691096 6.77743562848444e-17
vertex -2.78609126062191 16.379206566715 6.66511950623063e-17
endloop
endfacet
facet normal -3.46702457017068e-17 -2.85204211687095e-17 -1.0
outer loop
vertex -2.66760659379349 17.2590780691096 6.77743562848444e-17
vertex -3.35576964265704 17.9560135158375 3.32927291510685e-17
vertex -1.45018919286359 17.6994055178581 -6.82899646527709e-18
endloop
endfacet
facet normal -3.46702457017068e-17 -2.85204211687095e-17 -1.0
outer loop
vertex -2.66760659379349 17.2590780691096 6.77743562848444e-17
vertex -1.45018919286359 17.6994055178581 -6.82899646527709e-18
vertex -1.53011124246826 17.105901432119 -7.58660797185043e-18
endloop
endfacet
endsolid PNC Center
