solid republic_bank
facet normal -0.00823218561628571 0.999966114985892 0.0
outer loop
vertex 32.6439161462865 23.2210980496001 17.7244375
vertex 36.9226493654309 23.256322569245 -1.11703399402814e-18
vertex 32.6439161462865 23.2210980496001 -1.11703399402814e-18
endloop
endfacet
facet normal -0.00823218561628571 0.999966114985892 0.0
outer loop
vertex 36.9226493654309 23.256322569245 -1.11703399402814e-18
vertex 32.6439161462865 23.2210980496001 17.7244375
vertex 36.9226493654309 23.256322569245 17.7244375
endloop
endfacet
facet normal -0.605161490853215 -0.796102738337405 0.0
outer loop
vertex 12.7411135696436 3.43667158893425 17.7244375
vertex 11.4610536433362 4.40971556439335 -1.11703399402814e-18
vertex 12.7411135696436 3.43667158893425 -1.11703399402814e-18
endloop
endfacet
facet normal -0.605161490853215 -0.796102738337405 0.0
outer loop
vertex 11.4610536433362 4.40971556439335 -1.11703399402814e-18
vertex 12.7411135696436 3.43667158893425 17.7244375
vertex 11.4610536433362 4.40971556439335 17.7244375
endloop
endfacet
facet normal 0.596681825620233 -0.802477911829669 0.0
outer loop
vertex 11.4610536433362 4.40971556439335 17.7244375
vertex 10.1234232740533 3.41512154631626 -1.11703399402814e-18
vertex 11.4610536433362 4.40971556439335 -1.11703399402814e-18
endloop
endfacet
facet normal 0.596681825620233 -0.802477911829669 0.0
outer loop
vertex 10.1234232740533 3.41512154631626 -1.11703399402814e-18
vertex 11.4610536433362 4.40971556439335 17.7244375
vertex 10.1234232740533 3.41512154631626 17.7244375
endloop
endfacet
facet normal 0.596681825620234 -0.802477911829669 0.0
outer loop
vertex 44.9387551367877 4.68531955593614 17.7244375
vertex 43.6011247675085 3.69072553785356 -1.11703399402814e-18
vertex 44.9387551367877 4.68531955593614 -1.11703399402814e-18
endloop
endfacet
facet normal 0.596681825620234 -0.802477911829669 0.0
outer loop
vertex 43.6011247675085 3.69072553785356 -1.11703399402814e-18
vertex 44.9387551367877 4.68531955593614 17.7244375
vertex 43.6011247675085 3.69072553785356 17.7244375
endloop
endfacet
facet normal 0.596681825620233 -0.802477911829669 0.0
outer loop
vertex 17.9780142839406 4.46336621199474 17.7244375
vertex 16.6403839146585 3.46877219391178 -1.11703399402814e-18
vertex 17.9780142839406 4.46336621199474 -1.11703399402814e-18
endloop
endfacet
facet normal 0.596681825620233 -0.802477911829669 0.0
outer loop
vertex 16.6403839146585 3.46877219391178 -1.11703399402814e-18
vertex 17.9780142839406 4.46336621199474 17.7244375
vertex 16.6403839146585 3.46877219391178 17.7244375
endloop
endfacet
facet normal -0.00823218561627295 0.999966114985892 0.0
outer loop
vertex 46.0573003016198 23.3315232594636 17.7244375
vertex 50.6413613158071 23.3692613793649 -1.11703399402814e-18
vertex 46.0573003016198 23.3315232594636 -1.11703399402814e-18
endloop
endfacet
facet normal -0.00823218561627295 0.999966114985892 0.0
outer loop
vertex 50.6413613158071 23.3692613793649 -1.11703399402814e-18
vertex 46.0573003016198 23.3315232594636 17.7244375
vertex 50.6413613158071 23.3692613793649 17.7244375
endloop
endfacet
facet normal 0.0 0.0 1.0
outer loop
vertex 41.677867923662 9.75333982604349 19.478625
vertex 47.8694845784988 15.5195057502235 19.478625
vertex 41.630820982867 15.4681461731938 19.478625
endloop
endfacet
facet normal 0.0 0.0 1.0
outer loop
vertex 47.8694845784988 15.5195057502235 19.478625
vertex 41.677867923662 9.75333982604349 19.478625
vertex 47.9165315192931 9.80469940307899 19.478625
endloop
endfacet
facet normal 0.605161490853211 0.796102738337408 0.0
outer loop
vertex 9.96190851258164 23.0343692252973 17.7244375
vertex 11.2419684388884 22.0613252498441 -1.11703399402814e-18
vertex 9.96190851258164 23.0343692252973 -1.11703399402814e-18
endloop
endfacet
facet normal 0.605161490853211 0.796102738337408 0.0
outer loop
vertex 11.2419684388884 22.0613252498441 -1.11703399402814e-18
vertex 9.96190851258164 23.0343692252973 17.7244375
vertex 11.2419684388884 22.0613252498441 17.7244375
endloop
endfacet
facet normal -0.60516149085322 -0.796102738337401 0.0
outer loop
vertex 46.2188150630944 3.71227558048291 17.7244375
vertex 44.9387551367877 4.68531955593614 -1.11703399402814e-18
vertex 46.2188150630944 3.71227558048291 -1.11703399402814e-18
endloop
endfacet
facet normal -0.60516149085322 -0.796102738337401 0.0
outer loop
vertex 44.9387551367877 4.68531955593614 -1.11703399402814e-18
vertex 46.2188150630944 3.71227558048291 17.7244375
vertex 44.9387551367877 4.68531955593614 17.7244375
endloop
endfacet
facet normal -0.596681825620225 0.802477911829675 0.0
outer loop
vertex 18.1383919536135 22.1180998121117 17.7244375
vertex 19.4760223228964 23.1126938301888 -1.11703399402814e-18
vertex 18.1383919536135 22.1180998121117 -1.11703399402814e-18
endloop
endfacet
facet normal -0.596681825620225 0.802477911829675 0.0
outer loop
vertex 19.4760223228964 23.1126938301888 -1.11703399402814e-18
vertex 18.1383919536135 22.1180998121117 17.7244375
vertex 19.4760223228964 23.1126938301888 17.7244375
endloop
endfacet
facet normal 0.60516149085323 0.796102738337394 0.0
outer loop
vertex 43.4396100060353 23.3099732168464 17.7244375
vertex 44.7196699323399 22.3369292413869 -1.11703399402814e-18
vertex 43.4396100060353 23.3099732168464 -1.11703399402814e-18
endloop
endfacet
facet normal 0.60516149085323 0.796102738337394 0.0
outer loop
vertex 44.7196699323399 22.3369292413869 -1.11703399402814e-18
vertex 43.4396100060353 23.3099732168464 17.7244375
vertex 44.7196699323399 22.3369292413869 17.7244375
endloop
endfacet
facet normal 0.999966114985893 0.00823218561627226 0.0
outer loop
vertex 50.6413613158071 23.3692613793649 -1.11703399402814e-18
vertex 50.8028760772795 3.75001370037792 17.7244375
vertex 50.8028760772795 3.75001370037792 -1.11703399402814e-18
endloop
endfacet
facet normal 0.999966114985893 0.00823218561627226 0.0
outer loop
vertex 50.8028760772795 3.75001370037792 17.7244375
vertex 50.6413613158071 23.3692613793649 -1.11703399402814e-18
vertex 50.6413613158071 23.3692613793649 17.7244375
endloop
endfacet
facet normal 0.605161490853222 0.7961027383374 0.0
outer loop
vertex 30.0262258506999 23.1995480069766 17.7244375
vertex 31.3062857770103 22.2265040315179 -1.11703399402814e-18
vertex 30.0262258506999 23.1995480069766 -1.11703399402814e-18
endloop
endfacet
facet normal 0.605161490853222 0.7961027383374 0.0
outer loop
vertex 31.3062857770103 22.2265040315179 -1.11703399402814e-18
vertex 30.0262258506999 23.1995480069766 17.7244375
vertex 31.3062857770103 22.2265040315179 17.7244375
endloop
endfacet
facet normal -0.596681825620243 0.802477911829661 0.0
outer loop
vertex 44.7196699323399 22.3369292413869 17.7244375
vertex 46.0573003016198 23.3315232594636 -1.11703399402814e-18
vertex 44.7196699323399 22.3369292413869 -1.11703399402814e-18
endloop
endfacet
facet normal -0.596681825620243 0.802477911829661 0.0
outer loop
vertex 46.0573003016198 23.3315232594636 -1.11703399402814e-18
vertex 44.7196699323399 22.3369292413869 17.7244375
vertex 46.0573003016198 23.3315232594636 17.7244375
endloop
endfacet
facet normal 0.00823218561627508 -0.999966114985892 0.0
outer loop
vertex 30.1877406121789 3.58030032798453 17.7244375
vertex 26.1544977249762 3.54709679880365 -1.11703399402814e-18
vertex 30.1877406121789 3.58030032798453 -1.11703399402814e-18
endloop
endfacet
facet normal 0.00823218561627508 -0.999966114985892 0.0
outer loop
vertex 26.1544977249762 3.54709679880365 -1.11703399402814e-18
vertex 30.1877406121789 3.58030032798453 17.7244375
vertex 26.1544977249762 3.54709679880365 17.7244375
endloop
endfacet
facet normal 0.00823218561627595 -0.999966114985892 0.0
outer loop
vertex 23.5368074293866 3.52554675617979 17.7244375
vertex 19.2580742102452 3.49032223653527 -1.11703399402814e-18
vertex 23.5368074293866 3.52554675617979 -1.11703399402814e-18
endloop
endfacet
facet normal 0.00823218561627595 -0.999966114985892 0.0
outer loop
vertex 19.2580742102452 3.49032223653527 -1.11703399402814e-18
vertex 23.5368074293866 3.52554675617979 17.7244375
vertex 19.2580742102452 3.49032223653527 17.7244375
endloop
endfacet
facet normal -0.00823218561627169 0.999966114985893 0.0
outer loop
vertex 39.5403396610175 23.2778726118685 17.7244375
vertex 43.4396100060353 23.3099732168464 -1.11703399402814e-18
vertex 39.5403396610175 23.2778726118685 -1.11703399402814e-18
endloop
endfacet
facet normal -0.00823218561627169 0.999966114985893 0.0
outer loop
vertex 43.4396100060353 23.3099732168464 -1.11703399402814e-18
vertex 39.5403396610175 23.2778726118685 17.7244375
vertex 43.4396100060353 23.3099732168464 17.7244375
endloop
endfacet
facet normal -0.605161490853217 -0.796102738337403 0.0
outer loop
vertex 26.1544977249762 3.54709679880365 17.7244375
vertex 24.8744377986687 4.52014077426275 -1.11703399402814e-18
vertex 26.1544977249762 3.54709679880365 -1.11703399402814e-18
endloop
endfacet
facet normal -0.605161490853217 -0.796102738337403 0.0
outer loop
vertex 24.8744377986687 4.52014077426275 -1.11703399402814e-18
vertex 26.1544977249762 3.54709679880365 17.7244375
vertex 24.8744377986687 4.52014077426275 17.7244375
endloop
endfacet
facet normal -0.605161490853217 -0.796102738337403 0.0
outer loop
vertex 39.3223915483663 3.6555010182149 17.7244375
vertex 38.0423316220625 4.62854499366851 -1.11703399402814e-18
vertex 39.3223915483663 3.6555010182149 -1.11703399402814e-18
endloop
endfacet
facet normal -0.605161490853217 -0.796102738337403 0.0
outer loop
vertex 38.0423316220625 4.62854499366851 -1.11703399402814e-18
vertex 39.3223915483663 3.6555010182149 17.7244375
vertex 38.0423316220625 4.62854499366851 17.7244375
endloop
endfacet
facet normal -0.00823218561627362 0.999966114985893 0.0
outer loop
vertex 12.5795988081646 23.0559192679263 17.7244375
vertex 16.8583320273097 23.0911437875654 -1.11703399402814e-18
vertex 12.5795988081646 23.0559192679263 -1.11703399402814e-18
endloop
endfacet
facet normal -0.00823218561627362 0.999966114985893 0.0
outer loop
vertex 16.8583320273097 23.0911437875654 -1.11703399402814e-18
vertex 12.5795988081646 23.0559192679263 17.7244375
vertex 16.8583320273097 23.0911437875654 17.7244375
endloop
endfacet
facet normal 0.596681825620231 -0.802477911829671 0.0
outer loop
vertex 38.0423316220625 4.62854499366851 17.7244375
vertex 36.7047012527767 3.63395097559104 -1.11703399402814e-18
vertex 38.0423316220625 4.62854499366851 -1.11703399402814e-18
endloop
endfacet
facet normal 0.596681825620231 -0.802477911829671 0.0
outer loop
vertex 36.7047012527767 3.63395097559104 -1.11703399402814e-18
vertex 38.0423316220625 4.62854499366851 17.7244375
vertex 36.7047012527767 3.63395097559104 17.7244375
endloop
endfacet
facet normal -0.999966114985893 -0.0082321856162722 0.0
outer loop
vertex 4.73400443995325 22.9913306902288 17.7244375
vertex 4.8955192014264 3.37208301123594 -1.11703399402814e-18
vertex 4.8955192014264 3.37208301123594 17.7244375
endloop
endfacet
facet normal -0.999966114985893 -0.0082321856162722 0.0
outer loop
vertex 4.8955192014264 3.37208301123594 -1.11703399402814e-18
vertex 4.73400443995325 22.9913306902288 17.7244375
vertex 4.73400443995325 22.9913306902288 -1.11703399402814e-18
endloop
endfacet
facet normal -0.00823218561624425 0.999966114985893 0.0
outer loop
vertex 4.73400443995325 22.9913306902288 17.7244375
vertex 9.96190851258164 23.0343692252973 -1.11703399402814e-18
vertex 4.73400443995325 22.9913306902288 -1.11703399402814e-18
endloop
endfacet
facet normal -0.00823218561624425 0.999966114985893 0.0
outer loop
vertex 9.96190851258164 23.0343692252973 -1.11703399402814e-18
vertex 4.73400443995325 22.9913306902288 17.7244375
vertex 9.96190851258164 23.0343692252973 17.7244375
endloop
endfacet
facet normal -0.00823218561627639 0.999966114985893 0.0
outer loop
vertex 25.9929829635001 23.1663444777961 17.7244375
vertex 30.0262258506999 23.1995480069766 -1.11703399402814e-18
vertex 25.9929829635001 23.1663444777961 -1.11703399402814e-18
endloop
endfacet
facet normal -0.00823218561627639 0.999966114985893 0.0
outer loop
vertex 30.0262258506999 23.1995480069766 -1.11703399402814e-18
vertex 25.9929829635001 23.1663444777961 17.7244375
vertex 30.0262258506999 23.1995480069766 17.7244375
endloop
endfacet
facet normal 0.00823218561628056 -0.999966114985893 0.0
outer loop
vertex 36.7047012527767 3.63395097559104 17.7244375
vertex 32.8054309077619 3.60185037061351 -1.11703399402814e-18
vertex 36.7047012527767 3.63395097559104 -1.11703399402814e-18
endloop
endfacet
facet normal 0.00823218561628056 -0.999966114985893 0.0
outer loop
vertex 32.8054309077619 3.60185037061351 -1.11703399402814e-18
vertex 36.7047012527767 3.63395097559104 17.7244375
vertex 32.8054309077619 3.60185037061351 17.7244375
endloop
endfacet
facet normal -0.999966114985892 -0.00823218561627222 0.0
outer loop
vertex 13.256572893171 12.1328777425542 18.970625
vertex 13.2815339089815 9.10085548615203 17.7244375
vertex 13.2815339089815 9.10085548615203 18.970625
endloop
endfacet
facet normal -0.999966114985892 -0.00823218561627222 0.0
outer loop
vertex 13.2815339089815 9.10085548615203 17.7244375
vertex 13.256572893171 12.1328777425542 18.970625
vertex 13.256572893171 12.1328777425542 17.7244375
endloop
endfacet
facet normal 0.00823218561627194 -0.999966114985893 0.0
outer loop
vertex 10.1234232740533 3.41512154631626 17.7244375
vertex 4.8955192014264 3.37208301123594 -1.11703399402814e-18
vertex 10.1234232740533 3.41512154631626 -1.11703399402814e-18
endloop
endfacet
facet normal 0.00823218561627194 -0.999966114985893 0.0
outer loop
vertex 4.8955192014264 3.37208301123594 -1.11703399402814e-18
vertex 10.1234232740533 3.41512154631626 17.7244375
vertex 4.8955192014264 3.37208301123594 17.7244375
endloop
endfacet
facet normal 0.605161490853242 0.796102738337384 0.0
outer loop
vertex 23.3752926679142 23.1447944351668 17.7244375
vertex 24.655352594215 22.1717504597128 -1.11703399402814e-18
vertex 23.3752926679142 23.1447944351668 -1.11703399402814e-18
endloop
endfacet
facet normal 0.605161490853242 0.796102738337384 0.0
outer loop
vertex 24.655352594215 22.1717504597128 -1.11703399402814e-18
vertex 23.3752926679142 23.1447944351668 17.7244375
vertex 24.655352594215 22.1717504597128 17.7244375
endloop
endfacet
facet normal -0.596681825620243 0.802477911829662 0.0
outer loop
vertex 24.655352594215 22.1717504597128 17.7244375
vertex 25.9929829635001 23.1663444777961 -1.11703399402814e-18
vertex 24.655352594215 22.1717504597128 -1.11703399402814e-18
endloop
endfacet
facet normal -0.596681825620243 0.802477911829662 0.0
outer loop
vertex 25.9929829635001 23.1663444777961 -1.11703399402814e-18
vertex 24.655352594215 22.1717504597128 17.7244375
vertex 25.9929829635001 23.1663444777961 17.7244375
endloop
endfacet
facet normal -0.596681825620228 0.802477911829673 0.0
outer loop
vertex 31.3062857770103 22.2265040315179 17.7244375
vertex 32.6439161462865 23.2210980496001 -1.11703399402814e-18
vertex 31.3062857770103 22.2265040315179 -1.11703399402814e-18
endloop
endfacet
facet normal -0.596681825620228 0.802477911829673 0.0
outer loop
vertex 32.6439161462865 23.2210980496001 -1.11703399402814e-18
vertex 31.3062857770103 22.2265040315179 17.7244375
vertex 32.6439161462865 23.2210980496001 17.7244375
endloop
endfacet
facet normal -0.00823218561628657 0.999966114985892 0.0
outer loop
vertex 19.4760223228964 23.1126938301888 17.7244375
vertex 23.3752926679142 23.1447944351668 -1.11703399402814e-18
vertex 19.4760223228964 23.1126938301888 -1.11703399402814e-18
endloop
endfacet
facet normal -0.00823218561628657 0.999966114985892 0.0
outer loop
vertex 23.3752926679142 23.1447944351668 -1.11703399402814e-18
vertex 19.4760223228964 23.1126938301888 17.7244375
vertex 23.3752926679142 23.1447944351668 17.7244375
endloop
endfacet
facet normal 0.605161490853199 0.796102738337417 0.0
outer loop
vertex 16.8583320273097 23.0911437875654 17.7244375
vertex 18.1383919536135 22.1180998121117 -1.11703399402814e-18
vertex 16.8583320273097 23.0911437875654 -1.11703399402814e-18
endloop
endfacet
facet normal 0.605161490853199 0.796102738337417 0.0
outer loop
vertex 18.1383919536135 22.1180998121117 -1.11703399402814e-18
vertex 16.8583320273097 23.0911437875654 17.7244375
vertex 18.1383919536135 22.1180998121117 17.7244375
endloop
endfacet
facet normal 0.00823218561627231 -0.999966114985893 0.0
outer loop
vertex 47.9165315192931 9.80469940307899 19.478625
vertex 41.677867923662 9.75333982604349 17.7244375
vertex 47.9165315192931 9.80469940307899 17.7244375
endloop
endfacet
facet normal 0.00823218561627231 -0.999966114985893 0.0
outer loop
vertex 41.677867923662 9.75333982604349 17.7244375
vertex 47.9165315192931 9.80469940307899 19.478625
vertex 41.677867923662 9.75333982604349 19.478625
endloop
endfacet
facet normal 0.00823218561627754 -0.999966114985892 0.0
outer loop
vertex 16.6403839146585 3.46877219391178 17.7244375
vertex 12.7411135696436 3.43667158893425 -1.11703399402814e-18
vertex 16.6403839146585 3.46877219391178 -1.11703399402814e-18
endloop
endfacet
facet normal 0.00823218561627754 -0.999966114985892 0.0
outer loop
vertex 12.7411135696436 3.43667158893425 -1.11703399402814e-18
vertex 16.6403839146585 3.46877219391178 17.7244375
vertex 12.7411135696436 3.43667158893425 17.7244375
endloop
endfacet
facet normal 0.0 0.0 1.0
outer loop
vertex 13.2815339089815 9.10085548615203 18.970625
vertex 22.4605860044875 12.2086494544294 18.970625
vertex 13.256572893171 12.1328777425542 18.970625
endloop
endfacet
facet normal 0.0 0.0 1.0
outer loop
vertex 22.4605860044875 12.2086494544294 18.970625
vertex 13.2815339089815 9.10085548615203 18.970625
vertex 22.4855470202981 9.17662719802725 18.970625
endloop
endfacet
facet normal 0.596681825620233 -0.802477911829669 0.0
outer loop
vertex 24.8744377986687 4.52014077426275 17.7244375
vertex 23.5368074293866 3.52554675617979 -1.11703399402814e-18
vertex 24.8744377986687 4.52014077426275 -1.11703399402814e-18
endloop
endfacet
facet normal 0.596681825620233 -0.802477911829669 0.0
outer loop
vertex 23.5368074293866 3.52554675617979 -1.11703399402814e-18
vertex 24.8744377986687 4.52014077426275 17.7244375
vertex 23.5368074293866 3.52554675617979 17.7244375
endloop
endfacet
facet normal 0.00823218561627205 -0.999966114985892 0.0
outer loop
vertex 22.4855470202981 9.17662719802725 18.970625
vertex 13.2815339089815 9.10085548615203 17.7244375
vertex 22.4855470202981 9.17662719802725 17.7244375
endloop
endfacet
facet normal 0.00823218561627205 -0.999966114985892 0.0
outer loop
vertex 13.2815339089815 9.10085548615203 17.7244375
vertex 22.4855470202981 9.17662719802725 18.970625
vertex 13.2815339089815 9.10085548615203 18.970625
endloop
endfacet
facet normal -0.00823218561627201 0.999966114985892 0.0
outer loop
vertex 13.256572893171 12.1328777425542 18.970625
vertex 22.4605860044875 12.2086494544294 17.7244375
vertex 13.256572893171 12.1328777425542 17.7244375
endloop
endfacet
facet normal -0.00823218561627201 0.999966114985892 0.0
outer loop
vertex 22.4605860044875 12.2086494544294 17.7244375
vertex 13.256572893171 12.1328777425542 18.970625
vertex 22.4605860044875 12.2086494544294 18.970625
endloop
endfacet
facet normal 0.999966114985892 0.0082321856162732 0.0
outer loop
vertex 22.4605860044875 12.2086494544294 17.7244375
vertex 22.4855470202981 9.17662719802725 18.970625
vertex 22.4855470202981 9.17662719802725 17.7244375
endloop
endfacet
facet normal 0.999966114985892 0.0082321856162732 0.0
outer loop
vertex 22.4855470202981 9.17662719802725 18.970625
vertex 22.4605860044875 12.2086494544294 17.7244375
vertex 22.4605860044875 12.2086494544294 18.970625
endloop
endfacet
facet normal -0.596681825620223 0.802477911829676 0.0
outer loop
vertex 38.2027092917354 22.2832785937855 17.7244375
vertex 39.5403396610175 23.2778726118685 -1.11703399402814e-18
vertex 38.2027092917354 22.2832785937855 -1.11703399402814e-18
endloop
endfacet
facet normal -0.596681825620223 0.802477911829676 0.0
outer loop
vertex 39.5403396610175 23.2778726118685 -1.11703399402814e-18
vertex 38.2027092917354 22.2832785937855 17.7244375
vertex 39.5403396610175 23.2778726118685 17.7244375
endloop
endfacet
facet normal -0.999966114985892 -0.00823218561627213 0.0
outer loop
vertex 13.1832446769264 19.5086163711096 18.970625
vertex 13.212439917411 15.9622615434678 17.7244375
vertex 13.212439917411 15.9622615434678 18.970625
endloop
endfacet
facet normal -0.999966114985892 -0.00823218561627213 0.0
outer loop
vertex 13.212439917411 15.9622615434678 17.7244375
vertex 13.1832446769264 19.5086163711096 18.970625
vertex 13.1832446769264 19.5086163711096 17.7244375
endloop
endfacet
facet normal 0.596681825620233 -0.802477911829669 0.0
outer loop
vertex 31.5253709814581 4.57489434606712 17.7244375
vertex 30.1877406121789 3.58030032798453 -1.11703399402814e-18
vertex 31.5253709814581 4.57489434606712 -1.11703399402814e-18
endloop
endfacet
facet normal 0.596681825620233 -0.802477911829669 0.0
outer loop
vertex 30.1877406121789 3.58030032798453 -1.11703399402814e-18
vertex 31.5253709814581 4.57489434606712 17.7244375
vertex 30.1877406121789 3.58030032798453 17.7244375
endloop
endfacet
facet normal 0.605161490853216 0.796102738337404 0.0
outer loop
vertex 36.9226493654309 23.256322569245 17.7244375
vertex 38.2027092917354 22.2832785937855 -1.11703399402814e-18
vertex 36.9226493654309 23.256322569245 -1.11703399402814e-18
endloop
endfacet
facet normal 0.605161490853216 0.796102738337404 0.0
outer loop
vertex 38.2027092917354 22.2832785937855 -1.11703399402814e-18
vertex 36.9226493654309 23.256322569245 17.7244375
vertex 38.2027092917354 22.2832785937855 17.7244375
endloop
endfacet
facet normal -0.596681825620253 0.802477911829654 0.0
outer loop
vertex 11.2419684388884 22.0613252498441 17.7244375
vertex 12.5795988081646 23.0559192679263 -1.11703399402814e-18
vertex 11.2419684388884 22.0613252498441 -1.11703399402814e-18
endloop
endfacet
facet normal -0.596681825620253 0.802477911829654 0.0
outer loop
vertex 12.5795988081646 23.0559192679263 -1.11703399402814e-18
vertex 11.2419684388884 22.0613252498441 17.7244375
vertex 12.5795988081646 23.0559192679263 17.7244375
endloop
endfacet
facet normal -0.605161490853217 -0.796102738337403 0.0
outer loop
vertex 32.8054309077619 3.60185037061351 17.7244375
vertex 31.5253709814581 4.57489434606712 -1.11703399402814e-18
vertex 32.8054309077619 3.60185037061351 -1.11703399402814e-18
endloop
endfacet
facet normal -0.605161490853217 -0.796102738337403 0.0
outer loop
vertex 31.5253709814581 4.57489434606712 -1.11703399402814e-18
vertex 32.8054309077619 3.60185037061351 17.7244375
vertex 31.5253709814581 4.57489434606712 17.7244375
endloop
endfacet
facet normal 0.00823218561627455 -0.999966114985892 0.0
outer loop
vertex 43.6011247675085 3.69072553785356 17.7244375
vertex 39.3223915483663 3.6555010182149 -1.11703399402814e-18
vertex 43.6011247675085 3.69072553785356 -1.11703399402814e-18
endloop
endfacet
facet normal 0.00823218561627455 -0.999966114985892 0.0
outer loop
vertex 39.3223915483663 3.6555010182149 -1.11703399402814e-18
vertex 43.6011247675085 3.69072553785356 17.7244375
vertex 39.3223915483663 3.6555010182149 17.7244375
endloop
endfacet
facet normal 0.999966114985892 0.00823218561627317 0.0
outer loop
vertex 22.4158318199805 19.5846233176885 17.7244375
vertex 22.445027060463 16.0382684900405 18.970625
vertex 22.445027060463 16.0382684900405 17.7244375
endloop
endfacet
facet normal 0.999966114985892 0.00823218561627317 0.0
outer loop
vertex 22.445027060463 16.0382684900405 18.970625
vertex 22.4158318199805 19.5846233176885 17.7244375
vertex 22.4158318199805 19.5846233176885 18.970625
endloop
endfacet
facet normal -0.00823218561627231 0.999966114985893 0.0
outer loop
vertex 41.630820982867 15.4681461731938 19.478625
vertex 47.8694845784988 15.5195057502235 17.7244375
vertex 41.630820982867 15.4681461731938 17.7244375
endloop
endfacet
facet normal -0.00823218561627231 0.999966114985893 0.0
outer loop
vertex 47.8694845784988 15.5195057502235 17.7244375
vertex 41.630820982867 15.4681461731938 19.478625
vertex 47.8694845784988 15.5195057502235 19.478625
endloop
endfacet
facet normal -0.00823218561627215 0.999966114985893 0.0
outer loop
vertex 13.1832446769264 19.5086163711096 18.970625
vertex 22.4158318199805 19.5846233176885 17.7244375
vertex 13.1832446769264 19.5086163711096 17.7244375
endloop
endfacet
facet normal -0.00823218561627215 0.999966114985893 0.0
outer loop
vertex 22.4158318199805 19.5846233176885 17.7244375
vertex 13.1832446769264 19.5086163711096 18.970625
vertex 22.4158318199805 19.5846233176885 18.970625
endloop
endfacet
facet normal -0.605161490853217 -0.796102738337403 0.0
outer loop
vertex 19.2580742102452 3.49032223653527 17.7244375
vertex 17.9780142839406 4.46336621199474 -1.11703399402814e-18
vertex 19.2580742102452 3.49032223653527 -1.11703399402814e-18
endloop
endfacet
facet normal -0.605161490853217 -0.796102738337403 0.0
outer loop
vertex 17.9780142839406 4.46336621199474 -1.11703399402814e-18
vertex 19.2580742102452 3.49032223653527 17.7244375
vertex 17.9780142839406 4.46336621199474 17.7244375
endloop
endfacet
facet normal 0.0082321856162722 -0.999966114985893 0.0
outer loop
vertex 22.445027060463 16.0382684900405 18.970625
vertex 13.212439917411 15.9622615434678 17.7244375
vertex 22.445027060463 16.0382684900405 17.7244375
endloop
endfacet
facet normal 0.0082321856162722 -0.999966114985893 0.0
outer loop
vertex 13.212439917411 15.9622615434678 17.7244375
vertex 22.445027060463 16.0382684900405 18.970625
vertex 13.212439917411 15.9622615434678 18.970625
endloop
endfacet
facet normal -0.999966114985892 -0.00823218561627198 0.0
outer loop
vertex 41.630820982867 15.4681461731938 19.478625
vertex 41.677867923662 9.75333982604349 17.7244375
vertex 41.677867923662 9.75333982604349 19.478625
endloop
endfacet
facet normal -0.999966114985892 -0.00823218561627198 0.0
outer loop
vertex 41.677867923662 9.75333982604349 17.7244375
vertex 41.630820982867 15.4681461731938 19.478625
vertex 41.630820982867 15.4681461731938 17.7244375
endloop
endfacet
facet normal 0.999966114985892 0.00823218561627198 0.0
outer loop
vertex 47.8694845784988 15.5195057502235 17.7244375
vertex 47.9165315192931 9.80469940307899 19.478625
vertex 47.9165315192931 9.80469940307899 17.7244375
endloop
endfacet
facet normal 0.999966114985892 0.00823218561627198 0.0
outer loop
vertex 47.9165315192931 9.80469940307899 19.478625
vertex 47.8694845784988 15.5195057502235 17.7244375
vertex 47.8694845784988 15.5195057502235 19.478625
endloop
endfacet
facet normal 0.0 0.0 1.0
outer loop
vertex 12.7411135696436 3.43667158893425 17.7244375
vertex 13.212439917411 15.9622615434678 17.7244375
vertex 13.1832446769264 19.5086163711096 17.7244375
endloop
endfacet
facet normal 0.0 0.0 1.0
outer loop
vertex 13.212439917411 15.9622615434678 17.7244375
vertex 12.7411135696436 3.43667158893425 17.7244375
vertex 13.2815339089815 9.10085548615203 17.7244375
endloop
endfacet
facet normal 0.0 0.0 1.0
outer loop
vertex 13.2815339089815 9.10085548615203 17.7244375
vertex 12.7411135696436 3.43667158893425 17.7244375
vertex 16.6403839146585 3.46877219391178 17.7244375
endloop
endfacet
facet normal 0.0 0.0 1.0
outer loop
vertex 13.212439917411 15.9622615434678 17.7244375
vertex 13.2815339089815 9.10085548615203 17.7244375
vertex 13.256572893171 12.1328777425542 17.7244375
endloop
endfacet
facet normal 0.0 0.0 1.0
outer loop
vertex 13.2815339089815 9.10085548615203 17.7244375
vertex 16.6403839146585 3.46877219391178 17.7244375
vertex 22.4855470202981 9.17662719802725 17.7244375
endloop
endfacet
facet normal 0.0 0.0 1.0
outer loop
vertex 22.4855470202981 9.17662719802725 17.7244375
vertex 16.6403839146585 3.46877219391178 17.7244375
vertex 17.9780142839406 4.46336621199474 17.7244375
endloop
endfacet
facet normal 0.0 0.0 1.0
outer loop
vertex 22.4855470202981 9.17662719802725 17.7244375
vertex 17.9780142839406 4.46336621199474 17.7244375
vertex 19.2580742102452 3.49032223653527 17.7244375
endloop
endfacet
facet normal 0.0 0.0 1.0
outer loop
vertex 22.4855470202981 9.17662719802725 17.7244375
vertex 19.2580742102452 3.49032223653527 17.7244375
vertex 23.5368074293866 3.52554675617979 17.7244375
endloop
endfacet
facet normal 0.0 0.0 1.0
outer loop
vertex 22.4855470202981 9.17662719802725 17.7244375
vertex 23.5368074293866 3.52554675617979 17.7244375
vertex 23.3752926679142 23.1447944351668 17.7244375
endloop
endfacet
facet normal 0.0 0.0 1.0
outer loop
vertex 23.3752926679142 23.1447944351668 17.7244375
vertex 23.5368074293866 3.52554675617979 17.7244375
vertex 24.655352594215 22.1717504597128 17.7244375
endloop
endfacet
facet normal 0.0 0.0 1.0
outer loop
vertex 24.655352594215 22.1717504597128 17.7244375
vertex 23.5368074293866 3.52554675617979 17.7244375
vertex 24.8744377986687 4.52014077426275 17.7244375
endloop
endfacet
facet normal 0.0 0.0 1.0
outer loop
vertex 24.655352594215 22.1717504597128 17.7244375
vertex 24.8744377986687 4.52014077426275 17.7244375
vertex 25.9929829635001 23.1663444777961 17.7244375
endloop
endfacet
facet normal 0.0 0.0 1.0
outer loop
vertex 25.9929829635001 23.1663444777961 17.7244375
vertex 24.8744377986687 4.52014077426275 17.7244375
vertex 26.1544977249762 3.54709679880365 17.7244375
endloop
endfacet
facet normal 0.0 0.0 1.0
outer loop
vertex 25.9929829635001 23.1663444777961 17.7244375
vertex 26.1544977249762 3.54709679880365 17.7244375
vertex 30.0262258506999 23.1995480069766 17.7244375
endloop
endfacet
facet normal 0.0 0.0 1.0
outer loop
vertex 30.0262258506999 23.1995480069766 17.7244375
vertex 26.1544977249762 3.54709679880365 17.7244375
vertex 30.1877406121789 3.58030032798453 17.7244375
endloop
endfacet
facet normal 0.0 0.0 1.0
outer loop
vertex 30.0262258506999 23.1995480069766 17.7244375
vertex 30.1877406121789 3.58030032798453 17.7244375
vertex 31.3062857770103 22.2265040315179 17.7244375
endloop
endfacet
facet normal 0.0 0.0 1.0
outer loop
vertex 31.3062857770103 22.2265040315179 17.7244375
vertex 30.1877406121789 3.58030032798453 17.7244375
vertex 31.5253709814581 4.57489434606712 17.7244375
endloop
endfacet
facet normal 0.0 0.0 1.0
outer loop
vertex 31.3062857770103 22.2265040315179 17.7244375
vertex 31.5253709814581 4.57489434606712 17.7244375
vertex 32.6439161462865 23.2210980496001 17.7244375
endloop
endfacet
facet normal 0.0 0.0 1.0
outer loop
vertex 32.6439161462865 23.2210980496001 17.7244375
vertex 31.5253709814581 4.57489434606712 17.7244375
vertex 32.8054309077619 3.60185037061351 17.7244375
endloop
endfacet
facet normal 0.0 0.0 1.0
outer loop
vertex 32.6439161462865 23.2210980496001 17.7244375
vertex 32.8054309077619 3.60185037061351 17.7244375
vertex 36.9226493654309 23.256322569245 17.7244375
endloop
endfacet
facet normal 0.0 0.0 1.0
outer loop
vertex 36.9226493654309 23.256322569245 17.7244375
vertex 32.8054309077619 3.60185037061351 17.7244375
vertex 36.7047012527767 3.63395097559104 17.7244375
endloop
endfacet
facet normal 0.0 0.0 1.0
outer loop
vertex 36.9226493654309 23.256322569245 17.7244375
vertex 36.7047012527767 3.63395097559104 17.7244375
vertex 38.0423316220625 4.62854499366851 17.7244375
endloop
endfacet
facet normal 0.0 0.0 1.0
outer loop
vertex 36.9226493654309 23.256322569245 17.7244375
vertex 38.0423316220625 4.62854499366851 17.7244375
vertex 38.2027092917354 22.2832785937855 17.7244375
endloop
endfacet
facet normal 0.0 0.0 1.0
outer loop
vertex 38.2027092917354 22.2832785937855 17.7244375
vertex 38.0423316220625 4.62854499366851 17.7244375
vertex 39.3223915483663 3.6555010182149 17.7244375
endloop
endfacet
facet normal 0.0 0.0 1.0
outer loop
vertex 38.2027092917354 22.2832785937855 17.7244375
vertex 39.3223915483663 3.6555010182149 17.7244375
vertex 39.5403396610175 23.2778726118685 17.7244375
endloop
endfacet
facet normal 0.0 0.0 1.0
outer loop
vertex 39.5403396610175 23.2778726118685 17.7244375
vertex 39.3223915483663 3.6555010182149 17.7244375
vertex 41.677867923662 9.75333982604349 17.7244375
endloop
endfacet
facet normal 0.0 0.0 1.0
outer loop
vertex 41.677867923662 9.75333982604349 17.7244375
vertex 39.3223915483663 3.6555010182149 17.7244375
vertex 43.6011247675085 3.69072553785356 17.7244375
endloop
endfacet
facet normal 0.0 0.0 1.0
outer loop
vertex 39.5403396610175 23.2778726118685 17.7244375
vertex 41.677867923662 9.75333982604349 17.7244375
vertex 41.630820982867 15.4681461731938 17.7244375
endloop
endfacet
facet normal 0.0 0.0 1.0
outer loop
vertex 41.677867923662 9.75333982604349 17.7244375
vertex 43.6011247675085 3.69072553785356 17.7244375
vertex 47.9165315192931 9.80469940307899 17.7244375
endloop
endfacet
facet normal 0.0 0.0 1.0
outer loop
vertex 47.9165315192931 9.80469940307899 17.7244375
vertex 43.6011247675085 3.69072553785356 17.7244375
vertex 44.9387551367877 4.68531955593614 17.7244375
endloop
endfacet
facet normal 0.0 0.0 1.0
outer loop
vertex 47.9165315192931 9.80469940307899 17.7244375
vertex 44.9387551367877 4.68531955593614 17.7244375
vertex 46.2188150630944 3.71227558048291 17.7244375
endloop
endfacet
facet normal 0.0 0.0 1.0
outer loop
vertex 47.9165315192931 9.80469940307899 17.7244375
vertex 46.2188150630944 3.71227558048291 17.7244375
vertex 50.8028760772795 3.75001370037792 17.7244375
endloop
endfacet
facet normal 0.0 0.0 1.0
outer loop
vertex 47.9165315192931 9.80469940307899 17.7244375
vertex 50.8028760772795 3.75001370037792 17.7244375
vertex 50.6413613158071 23.3692613793649 17.7244375
endloop
endfacet
facet normal 0.0 0.0 1.0
outer loop
vertex 41.630820982867 15.4681461731938 17.7244375
vertex 43.4396100060353 23.3099732168464 17.7244375
vertex 39.5403396610175 23.2778726118685 17.7244375
endloop
endfacet
facet normal 0.0 0.0 1.0
outer loop
vertex 43.4396100060353 23.3099732168464 17.7244375
vertex 41.630820982867 15.4681461731938 17.7244375
vertex 47.8694845784988 15.5195057502235 17.7244375
endloop
endfacet
facet normal 0.0 0.0 1.0
outer loop
vertex 43.4396100060353 23.3099732168464 17.7244375
vertex 47.8694845784988 15.5195057502235 17.7244375
vertex 44.7196699323399 22.3369292413869 17.7244375
endloop
endfacet
facet normal 0.0 0.0 1.0
outer loop
vertex 44.7196699323399 22.3369292413869 17.7244375
vertex 47.8694845784988 15.5195057502235 17.7244375
vertex 46.0573003016198 23.3315232594636 17.7244375
endloop
endfacet
facet normal 0.0 0.0 1.0
outer loop
vertex 46.0573003016198 23.3315232594636 17.7244375
vertex 47.8694845784988 15.5195057502235 17.7244375
vertex 50.6413613158071 23.3692613793649 17.7244375
endloop
endfacet
facet normal 0.0 0.0 1.0
outer loop
vertex 50.6413613158071 23.3692613793649 17.7244375
vertex 47.8694845784988 15.5195057502235 17.7244375
vertex 47.9165315192931 9.80469940307899 17.7244375
endloop
endfacet
facet normal 0.0 0.0 1.0
outer loop
vertex 13.256572893171 12.1328777425542 17.7244375
vertex 22.445027060463 16.0382684900405 17.7244375
vertex 13.212439917411 15.9622615434678 17.7244375
endloop
endfacet
facet normal 0.0 0.0 1.0
outer loop
vertex 22.445027060463 16.0382684900405 17.7244375
vertex 13.256572893171 12.1328777425542 17.7244375
vertex 22.4605860044875 12.2086494544294 17.7244375
endloop
endfacet
facet normal 0.0 0.0 1.0
outer loop
vertex 4.8955192014264 3.37208301123594 17.7244375
vertex 9.96190851258164 23.0343692252973 17.7244375
vertex 4.73400443995325 22.9913306902288 17.7244375
endloop
endfacet
facet normal 0.0 0.0 1.0
outer loop
vertex 9.96190851258164 23.0343692252973 17.7244375
vertex 4.8955192014264 3.37208301123594 17.7244375
vertex 10.1234232740533 3.41512154631626 17.7244375
endloop
endfacet
facet normal 0.0 0.0 1.0
outer loop
vertex 9.96190851258164 23.0343692252973 17.7244375
vertex 10.1234232740533 3.41512154631626 17.7244375
vertex 11.2419684388884 22.0613252498441 17.7244375
endloop
endfacet
facet normal 0.0 0.0 1.0
outer loop
vertex 11.2419684388884 22.0613252498441 17.7244375
vertex 10.1234232740533 3.41512154631626 17.7244375
vertex 11.4610536433362 4.40971556439335 17.7244375
endloop
endfacet
facet normal 0.0 0.0 1.0
outer loop
vertex 11.2419684388884 22.0613252498441 17.7244375
vertex 11.4610536433362 4.40971556439335 17.7244375
vertex 12.5795988081646 23.0559192679263 17.7244375
endloop
endfacet
facet normal 0.0 0.0 1.0
outer loop
vertex 12.5795988081646 23.0559192679263 17.7244375
vertex 11.4610536433362 4.40971556439335 17.7244375
vertex 12.7411135696436 3.43667158893425 17.7244375
endloop
endfacet
facet normal 0.0 0.0 1.0
outer loop
vertex 12.5795988081646 23.0559192679263 17.7244375
vertex 12.7411135696436 3.43667158893425 17.7244375
vertex 13.1832446769264 19.5086163711096 17.7244375
endloop
endfacet
facet normal 0.0 0.0 1.0
outer loop
vertex 12.5795988081646 23.0559192679263 17.7244375
vertex 13.1832446769264 19.5086163711096 17.7244375
vertex 16.8583320273097 23.0911437875654 17.7244375
endloop
endfacet
facet normal 0.0 0.0 1.0
outer loop
vertex 16.8583320273097 23.0911437875654 17.7244375
vertex 13.1832446769264 19.5086163711096 17.7244375
vertex 18.1383919536135 22.1180998121117 17.7244375
endloop
endfacet
facet normal 0.0 0.0 1.0
outer loop
vertex 18.1383919536135 22.1180998121117 17.7244375
vertex 13.1832446769264 19.5086163711096 17.7244375
vertex 22.4158318199805 19.5846233176885 17.7244375
endloop
endfacet
facet normal 0.0 0.0 1.0
outer loop
vertex 18.1383919536135 22.1180998121117 17.7244375
vertex 22.4158318199805 19.5846233176885 17.7244375
vertex 19.4760223228964 23.1126938301888 17.7244375
endloop
endfacet
facet normal 0.0 0.0 1.0
outer loop
vertex 19.4760223228964 23.1126938301888 17.7244375
vertex 22.4158318199805 19.5846233176885 17.7244375
vertex 23.3752926679142 23.1447944351668 17.7244375
endloop
endfacet
facet normal 0.0 0.0 1.0
outer loop
vertex 23.3752926679142 23.1447944351668 17.7244375
vertex 22.4158318199805 19.5846233176885 17.7244375
vertex 22.445027060463 16.0382684900405 17.7244375
endloop
endfacet
facet normal 0.0 0.0 1.0
outer loop
vertex 23.3752926679142 23.1447944351668 17.7244375
vertex 22.445027060463 16.0382684900405 17.7244375
vertex 22.4605860044875 12.2086494544294 17.7244375
endloop
endfacet
facet normal 0.0 0.0 1.0
outer loop
vertex 23.3752926679142 23.1447944351668 17.7244375
vertex 22.4605860044875 12.2086494544294 17.7244375
vertex 22.4855470202981 9.17662719802725 17.7244375
endloop
endfacet
facet normal 0.0 0.0 1.0
outer loop
vertex 13.212439917411 15.9622615434678 18.970625
vertex 22.4158318199805 19.5846233176885 18.970625
vertex 13.1832446769264 19.5086163711096 18.970625
endloop
endfacet
facet normal 0.0 0.0 1.0
outer loop
vertex 22.4158318199805 19.5846233176885 18.970625
vertex 13.212439917411 15.9622615434678 18.970625
vertex 22.445027060463 16.0382684900405 18.970625
endloop
endfacet
facet normal 0.00823218561626403 -0.999966114985893 0.0
outer loop
vertex 50.8028760772795 3.75001370037792 17.7244375
vertex 46.2188150630944 3.71227558048291 -1.11703399402814e-18
vertex 50.8028760772795 3.75001370037792 -1.11703399402814e-18
endloop
endfacet
facet normal 0.00823218561626403 -0.999966114985893 0.0
outer loop
vertex 46.2188150630944 3.71227558048291 -1.11703399402814e-18
vertex 50.8028760772795 3.75001370037792 17.7244375
vertex 46.2188150630944 3.71227558048291 17.7244375
endloop
endfacet
facet normal 0.0 0.0 -1.0
outer loop
vertex 4.73400443995325 22.9913306902288 -1.11703399402814e-18
vertex 11.4610536433362 4.40971556439335 -1.11703399402814e-18
vertex 4.8955192014264 3.37208301123594 -1.11703399402814e-18
endloop
endfacet
facet normal 0.0 0.0 -1.0
outer loop
vertex 11.4610536433362 4.40971556439335 -1.11703399402814e-18
vertex 4.73400443995325 22.9913306902288 -1.11703399402814e-18
vertex 17.9780142839406 4.46336621199474 -1.11703399402814e-18
endloop
endfacet
facet normal 0.0 0.0 -1.0
outer loop
vertex 17.9780142839406 4.46336621199474 -1.11703399402814e-18
vertex 4.73400443995325 22.9913306902288 -1.11703399402814e-18
vertex 24.8744377986687 4.52014077426275 -1.11703399402814e-18
endloop
endfacet
facet normal 0.0 0.0 -1.0
outer loop
vertex 24.8744377986687 4.52014077426275 -1.11703399402814e-18
vertex 4.73400443995325 22.9913306902288 -1.11703399402814e-18
vertex 44.9387551367877 4.68531955593614 -1.11703399402814e-18
endloop
endfacet
facet normal 0.0 0.0 -1.0
outer loop
vertex 44.9387551367877 4.68531955593614 -1.11703399402814e-18
vertex 4.73400443995325 22.9913306902288 -1.11703399402814e-18
vertex 50.8028760772795 3.75001370037792 -1.11703399402814e-18
endloop
endfacet
facet normal 0.0 0.0 -1.0
outer loop
vertex 4.8955192014264 3.37208301123594 -1.11703399402814e-18
vertex 11.4610536433362 4.40971556439335 -1.11703399402814e-18
vertex 10.1234232740533 3.41512154631626 -1.11703399402814e-18
endloop
endfacet
facet normal 0.0 0.0 -1.0
outer loop
vertex 11.4610536433362 4.40971556439335 -1.11703399402814e-18
vertex 17.9780142839406 4.46336621199474 -1.11703399402814e-18
vertex 12.7411135696436 3.43667158893425 -1.11703399402814e-18
endloop
endfacet
facet normal 0.0 0.0 -1.0
outer loop
vertex 12.7411135696436 3.43667158893425 -1.11703399402814e-18
vertex 17.9780142839406 4.46336621199474 -1.11703399402814e-18
vertex 16.6403839146585 3.46877219391178 -1.11703399402814e-18
endloop
endfacet
facet normal 0.0 0.0 -1.0
outer loop
vertex 17.9780142839406 4.46336621199474 -1.11703399402814e-18
vertex 24.8744377986687 4.52014077426275 -1.11703399402814e-18
vertex 19.2580742102452 3.49032223653527 -1.11703399402814e-18
endloop
endfacet
facet normal 0.0 0.0 -1.0
outer loop
vertex 19.2580742102452 3.49032223653527 -1.11703399402814e-18
vertex 24.8744377986687 4.52014077426275 -1.11703399402814e-18
vertex 23.5368074293866 3.52554675617979 -1.11703399402814e-18
endloop
endfacet
facet normal 0.0 0.0 -1.0
outer loop
vertex 24.8744377986687 4.52014077426275 -1.11703399402814e-18
vertex 44.9387551367877 4.68531955593614 -1.11703399402814e-18
vertex 38.0423316220625 4.62854499366851 -1.11703399402814e-18
endloop
endfacet
facet normal 0.0 0.0 -1.0
outer loop
vertex 24.8744377986687 4.52014077426275 -1.11703399402814e-18
vertex 38.0423316220625 4.62854499366851 -1.11703399402814e-18
vertex 31.5253709814581 4.57489434606712 -1.11703399402814e-18
endloop
endfacet
facet normal 0.0 0.0 -1.0
outer loop
vertex 24.8744377986687 4.52014077426275 -1.11703399402814e-18
vertex 31.5253709814581 4.57489434606712 -1.11703399402814e-18
vertex 26.1544977249762 3.54709679880365 -1.11703399402814e-18
endloop
endfacet
facet normal 0.0 0.0 -1.0
outer loop
vertex 26.1544977249762 3.54709679880365 -1.11703399402814e-18
vertex 31.5253709814581 4.57489434606712 -1.11703399402814e-18
vertex 30.1877406121789 3.58030032798453 -1.11703399402814e-18
endloop
endfacet
facet normal 0.0 0.0 -1.0
outer loop
vertex 31.5253709814581 4.57489434606712 -1.11703399402814e-18
vertex 38.0423316220625 4.62854499366851 -1.11703399402814e-18
vertex 32.8054309077619 3.60185037061351 -1.11703399402814e-18
endloop
endfacet
facet normal 0.0 0.0 -1.0
outer loop
vertex 32.8054309077619 3.60185037061351 -1.11703399402814e-18
vertex 38.0423316220625 4.62854499366851 -1.11703399402814e-18
vertex 36.7047012527767 3.63395097559104 -1.11703399402814e-18
endloop
endfacet
facet normal 0.0 0.0 -1.0
outer loop
vertex 38.0423316220625 4.62854499366851 -1.11703399402814e-18
vertex 44.9387551367877 4.68531955593614 -1.11703399402814e-18
vertex 39.3223915483663 3.6555010182149 -1.11703399402814e-18
endloop
endfacet
facet normal 0.0 0.0 -1.0
outer loop
vertex 39.3223915483663 3.6555010182149 -1.11703399402814e-18
vertex 44.9387551367877 4.68531955593614 -1.11703399402814e-18
vertex 43.6011247675085 3.69072553785356 -1.11703399402814e-18
endloop
endfacet
facet normal 0.0 0.0 -1.0
outer loop
vertex 44.9387551367877 4.68531955593614 -1.11703399402814e-18
vertex 50.8028760772795 3.75001370037792 -1.11703399402814e-18
vertex 46.2188150630944 3.71227558048291 -1.11703399402814e-18
endloop
endfacet
facet normal 0.0 0.0 -1.0
outer loop
vertex 4.73400443995325 22.9913306902288 -1.11703399402814e-18
vertex 11.2419684388884 22.0613252498441 -1.11703399402814e-18
vertex 50.8028760772795 3.75001370037792 -1.11703399402814e-18
endloop
endfacet
facet normal 0.0 0.0 -1.0
outer loop
vertex 11.2419684388884 22.0613252498441 -1.11703399402814e-18
vertex 4.73400443995325 22.9913306902288 -1.11703399402814e-18
vertex 9.96190851258164 23.0343692252973 -1.11703399402814e-18
endloop
endfacet
facet normal 0.0 0.0 -1.0
outer loop
vertex 50.8028760772795 3.75001370037792 -1.11703399402814e-18
vertex 11.2419684388884 22.0613252498441 -1.11703399402814e-18
vertex 12.5795988081646 23.0559192679263 -1.11703399402814e-18
endloop
endfacet
facet normal 0.0 0.0 -1.0
outer loop
vertex 50.8028760772795 3.75001370037792 -1.11703399402814e-18
vertex 12.5795988081646 23.0559192679263 -1.11703399402814e-18
vertex 18.1383919536135 22.1180998121117 -1.11703399402814e-18
endloop
endfacet
facet normal 0.0 0.0 -1.0
outer loop
vertex 18.1383919536135 22.1180998121117 -1.11703399402814e-18
vertex 12.5795988081646 23.0559192679263 -1.11703399402814e-18
vertex 16.8583320273097 23.0911437875654 -1.11703399402814e-18
endloop
endfacet
facet normal 0.0 0.0 -1.0
outer loop
vertex 50.8028760772795 3.75001370037792 -1.11703399402814e-18
vertex 18.1383919536135 22.1180998121117 -1.11703399402814e-18
vertex 19.4760223228964 23.1126938301888 -1.11703399402814e-18
endloop
endfacet
facet normal 0.0 0.0 -1.0
outer loop
vertex 50.8028760772795 3.75001370037792 -1.11703399402814e-18
vertex 19.4760223228964 23.1126938301888 -1.11703399402814e-18
vertex 24.655352594215 22.1717504597128 -1.11703399402814e-18
endloop
endfacet
facet normal 0.0 0.0 -1.0
outer loop
vertex 24.655352594215 22.1717504597128 -1.11703399402814e-18
vertex 19.4760223228964 23.1126938301888 -1.11703399402814e-18
vertex 23.3752926679142 23.1447944351668 -1.11703399402814e-18
endloop
endfacet
facet normal 0.0 0.0 -1.0
outer loop
vertex 50.8028760772795 3.75001370037792 -1.11703399402814e-18
vertex 24.655352594215 22.1717504597128 -1.11703399402814e-18
vertex 25.9929829635001 23.1663444777961 -1.11703399402814e-18
endloop
endfacet
facet normal 0.0 0.0 -1.0
outer loop
vertex 50.8028760772795 3.75001370037792 -1.11703399402814e-18
vertex 25.9929829635001 23.1663444777961 -1.11703399402814e-18
vertex 30.0262258506999 23.1995480069766 -1.11703399402814e-18
endloop
endfacet
facet normal 0.0 0.0 -1.0
outer loop
vertex 50.8028760772795 3.75001370037792 -1.11703399402814e-18
vertex 30.0262258506999 23.1995480069766 -1.11703399402814e-18
vertex 31.3062857770103 22.2265040315179 -1.11703399402814e-18
endloop
endfacet
facet normal 0.0 0.0 -1.0
outer loop
vertex 50.8028760772795 3.75001370037792 -1.11703399402814e-18
vertex 31.3062857770103 22.2265040315179 -1.11703399402814e-18
vertex 32.6439161462865 23.2210980496001 -1.11703399402814e-18
endloop
endfacet
facet normal 0.0 0.0 -1.0
outer loop
vertex 50.8028760772795 3.75001370037792 -1.11703399402814e-18
vertex 32.6439161462865 23.2210980496001 -1.11703399402814e-18
vertex 36.9226493654309 23.256322569245 -1.11703399402814e-18
endloop
endfacet
facet normal 0.0 0.0 -1.0
outer loop
vertex 50.8028760772795 3.75001370037792 -1.11703399402814e-18
vertex 36.9226493654309 23.256322569245 -1.11703399402814e-18
vertex 38.2027092917354 22.2832785937855 -1.11703399402814e-18
endloop
endfacet
facet normal 0.0 0.0 -1.0
outer loop
vertex 50.8028760772795 3.75001370037792 -1.11703399402814e-18
vertex 38.2027092917354 22.2832785937855 -1.11703399402814e-18
vertex 39.5403396610175 23.2778726118685 -1.11703399402814e-18
endloop
endfacet
facet normal 0.0 0.0 -1.0
outer loop
vertex 50.8028760772795 3.75001370037792 -1.11703399402814e-18
vertex 39.5403396610175 23.2778726118685 -1.11703399402814e-18
vertex 43.4396100060353 23.3099732168464 -1.11703399402814e-18
endloop
endfacet
facet normal 0.0 0.0 -1.0
outer loop
vertex 50.8028760772795 3.75001370037792 -1.11703399402814e-18
vertex 43.4396100060353 23.3099732168464 -1.11703399402814e-18
vertex 44.7196699323399 22.3369292413869 -1.11703399402814e-18
endloop
endfacet
facet normal 0.0 0.0 -1.0
outer loop
vertex 50.8028760772795 3.75001370037792 -1.11703399402814e-18
vertex 44.7196699323399 22.3369292413869 -1.11703399402814e-18
vertex 46.0573003016198 23.3315232594636 -1.11703399402814e-18
endloop
endfacet
facet normal 0.0 0.0 -1.0
outer loop
vertex 50.8028760772795 3.75001370037792 -1.11703399402814e-18
vertex 46.0573003016198 23.3315232594636 -1.11703399402814e-18
vertex 50.6413613158071 23.3692613793649 -1.11703399402814e-18
endloop
endfacet
endsolid republic_bank
