solid Republic Bank and garage
facet normal 0.0 0.0 -1.0
outer loop
vertex -19.9406923324916 6.80995556466753 0.0
vertex -15.0711542620635 -19.5757737090923 0.0
vertex -22.9577190455217 -18.640873858477 0.0
endloop
endfacet
facet normal 0.0 0.0 -1.0
outer loop
vertex -15.0711542620635 -19.5757737090923 0.0
vertex -19.9406923324916 6.80995556466753 0.0
vertex -17.8349386847135 24.5735294386764 0.0
endloop
endfacet
facet normal 0.0 0.0 -1.0
outer loop
vertex -15.0711542620635 -19.5757737090923 0.0
vertex -17.8349386847135 24.5735294386764 0.0
vertex -16.4487201502329 36.2672977808314 0.0
endloop
endfacet
facet normal 0.0 0.0 -1.0
outer loop
vertex -15.0711542620635 -19.5757737090923 0.0
vertex -16.4487201502329 36.2672977808314 0.0
vertex 37.4662804258322 29.87603271569 0.0
endloop
endfacet
facet normal 0.0 0.0 -1.0
outer loop
vertex -15.0711542620635 -19.5757737090923 0.0
vertex 37.4662804258322 29.87603271569 0.0
vertex 34.0101830815283 0.721321025608907 0.0
endloop
endfacet
facet normal 0.0 0.0 -1.0
outer loop
vertex -15.0711542620635 -19.5757737090923 0.0
vertex 34.0101830815283 0.721321025608907 0.0
vertex 30.9572815305434 -25.0321389236184 0.0
endloop
endfacet
facet normal 0.0 0.0 -1.0
outer loop
vertex 34.0101830815283 0.721321025608907 0.0
vertex 37.4662804258322 29.87603271569 0.0
vertex 36.4153170402525 21.010387031865 0.0
endloop
endfacet
facet normal 4.70059755648686e-17 -2.82390968968512e-17 1.0
outer loop
vertex 30.9572815305434 -25.0321389236184 25.8143375
vertex 30.1194748528227 1.18253863323373 25.8143375
vertex -15.0711542620635 -19.5757737090923 25.8143375
endloop
endfacet
facet normal 4.70059755648686e-17 -2.82390968968512e-17 1.0
outer loop
vertex 30.1194748528227 1.18253863323373 25.8143375
vertex 30.9572815305434 -25.0321389236184 25.8143375
vertex 34.0101830815283 0.721321025608907 25.8143375
endloop
endfacet
facet normal 4.70059755648686e-17 -2.82390968968512e-17 1.0
outer loop
vertex -15.0711542620635 -19.5757737090923 25.8143375
vertex -19.9406923324916 6.80995556466753 25.8143375
vertex -22.9577190455217 -18.640873858477 25.8143375
endloop
endfacet
facet normal 4.70059755648686e-17 -2.82390968968512e-17 1.0
outer loop
vertex -19.9406923324916 6.80995556466753 25.8143375
vertex -15.0711542620635 -19.5757737090923 25.8143375
vertex -17.8349386847135 24.5735294386764 25.8143375
endloop
endfacet
facet normal 4.70059755648686e-17 -2.82390968968512e-17 1.0
outer loop
vertex -17.8349386847135 24.5735294386764 25.8143375
vertex -15.0711542620635 -19.5757737090923 25.8143375
vertex -16.4487201502329 36.2672977808314 25.8143375
endloop
endfacet
facet normal 4.70059755648686e-17 -2.82390968968512e-17 1.0
outer loop
vertex -16.4487201502329 36.2672977808314 25.8143375
vertex -15.0711542620635 -19.5757737090923 25.8143375
vertex 37.4662804258322 29.87603271569 25.8143375
endloop
endfacet
facet normal 4.70059755648686e-17 -2.82390968968512e-17 1.0
outer loop
vertex 37.4662804258322 29.87603271569 25.8143375
vertex -15.0711542620635 -19.5757737090923 25.8143375
vertex 32.524608811547 21.4716046394898 25.8143375
endloop
endfacet
facet normal 4.70059755648686e-17 -2.82390968968512e-17 1.0
outer loop
vertex 32.524608811547 21.4716046394898 25.8143375
vertex -15.0711542620635 -19.5757737090923 25.8143375
vertex 30.1194748528227 1.18253863323373 25.8143375
endloop
endfacet
facet normal 4.70059755648686e-17 -2.82390968968512e-17 1.0
outer loop
vertex 37.4662804258322 29.87603271569 25.8143375
vertex 32.524608811547 21.4716046394898 25.8143375
vertex 36.4153170402525 21.010387031865 25.8143375
endloop
endfacet
facet normal 0.993046932376758 -0.117719115257935 -0.0
outer loop
vertex 34.0101830815283 0.721321025608907 0.0
vertex 30.9572815305434 -25.0321389236184 25.8143375
vertex 30.9572815305434 -25.0321389236184 0.0
endloop
endfacet
facet normal 0.993046932376758 -0.117719115257935 -0.0
outer loop
vertex 30.9572815305434 -25.0321389236184 25.8143375
vertex 34.0101830815283 0.721321025608907 0.0
vertex 34.0101830815283 0.721321025608907 25.8143375
endloop
endfacet
facet normal -0.117719115257936 -0.993046932376758 6.63395624138463e-18
outer loop
vertex -15.0711542620635 -19.5757737090923 25.8143375
vertex -22.9577190455217 -18.640873858477 0.0
vertex -15.0711542620635 -19.5757737090923 0.0
endloop
endfacet
facet normal -0.117719115257936 -0.993046932376758 6.63395624138463e-18
outer loop
vertex -22.9577190455217 -18.640873858477 0.0
vertex -15.0711542620635 -19.5757737090923 25.8143375
vertex -22.9577190455217 -18.640873858477 25.8143375
endloop
endfacet
facet normal 0.117719115257935 0.993046932376758 -0.0
outer loop
vertex -16.4487201502329 36.2672977808314 25.8143375
vertex 37.4662804258322 29.87603271569 0.0
vertex -16.4487201502329 36.2672977808314 0.0
endloop
endfacet
facet normal 0.117719115257935 0.993046932376758 -0.0
outer loop
vertex 37.4662804258322 29.87603271569 0.0
vertex -16.4487201502329 36.2672977808314 25.8143375
vertex 37.4662804258322 29.87603271569 25.8143375
endloop
endfacet
facet normal -0.11771911525793 -0.993046932376758 -0.0
outer loop
vertex -1.32773391348398 -48.9866521934552 17.7244375
vertex -5.20002358069952 -48.5276179839079 0.0
vertex -1.32773391348398 -48.9866521934552 0.0
endloop
endfacet
facet normal -0.11771911525793 -0.993046932376758 -0.0
outer loop
vertex -5.20002358069952 -48.5276179839079 0.0
vertex -1.32773391348398 -48.9866521934552 17.7244375
vertex -5.20002358069952 -48.5276179839079 17.7244375
endloop
endfacet
facet normal 0.490910739861952 -0.871209874535517 0.0
outer loop
vertex 0.124464046132409 -48.1683653539479 17.7244375
vertex -1.32773391348398 -48.9866521934552 0.0
vertex 0.124464046132409 -48.1683653539479 0.0
endloop
endfacet
facet normal 0.490910739861952 -0.871209874535517 0.0
outer loop
vertex -1.32773391348398 -48.9866521934552 0.0
vertex 0.124464046132409 -48.1683653539479 17.7244375
vertex -1.32773391348398 -48.9866521934552 17.7244375
endloop
endfacet
facet normal -0.700568377325064 -0.713585277799456 -0.0
outer loop
vertex 1.27184349117832 -49.2948148211661 17.7244375
vertex 0.124464046132409 -48.1683653539479 0.0
vertex 1.27184349117832 -49.2948148211661 0.0
endloop
endfacet
facet normal -0.700568377325064 -0.713585277799456 -0.0
outer loop
vertex 0.124464046132409 -48.1683653539479 0.0
vertex 1.27184349117832 -49.2948148211661 17.7244375
vertex 0.124464046132409 -48.1683653539479 17.7244375
endloop
endfacet
facet normal -0.117719115257932 -0.993046932376758 -0.0
outer loop
vertex 5.52097037062975 -49.7985205782248 17.7244375
vertex 1.27184349117832 -49.2948148211661 0.0
vertex 5.52097037062975 -49.7985205782248 0.0
endloop
endfacet
facet normal -0.117719115257932 -0.993046932376758 -0.0
outer loop
vertex 1.27184349117832 -49.2948148211661 0.0
vertex 5.52097037062975 -49.7985205782248 17.7244375
vertex 1.27184349117832 -49.2948148211661 17.7244375
endloop
endfacet
facet normal 0.490910739861952 -0.871209874535517 0.0
outer loop
vertex 6.97316833024614 -48.9802337387174 17.7244375
vertex 5.52097037062975 -49.7985205782248 0.0
vertex 6.97316833024614 -48.9802337387174 0.0
endloop
endfacet
facet normal 0.490910739861952 -0.871209874535517 0.0
outer loop
vertex 5.52097037062975 -49.7985205782248 0.0
vertex 6.97316833024614 -48.9802337387174 17.7244375
vertex 5.52097037062975 -49.7985205782248 17.7244375
endloop
endfacet
facet normal -0.700568377325064 -0.713585277799456 -0.0
outer loop
vertex 8.12054777529205 -50.1066832059356 17.7244375
vertex 6.97316833024614 -48.9802337387174 0.0
vertex 8.12054777529205 -50.1066832059356 0.0
endloop
endfacet
facet normal -0.700568377325064 -0.713585277799456 -0.0
outer loop
vertex 6.97316833024614 -48.9802337387174 0.0
vertex 8.12054777529205 -50.1066832059356 17.7244375
vertex 6.97316833024614 -48.9802337387174 17.7244375
endloop
endfacet
facet normal -0.117719115257933 -0.993046932376758 -0.0
outer loop
vertex 12.1258829727977 -50.5814890790411 17.7244375
vertex 8.12054777529205 -50.1066832059356 0.0
vertex 12.1258829727977 -50.5814890790411 0.0
endloop
endfacet
facet normal -0.117719115257933 -0.993046932376758 -0.0
outer loop
vertex 8.12054777529205 -50.1066832059356 0.0
vertex 12.1258829727977 -50.5814890790411 17.7244375
vertex 8.12054777529205 -50.1066832059356 17.7244375
endloop
endfacet
facet normal 0.490910739861952 -0.871209874535517 0.0
outer loop
vertex 13.5780809324141 -49.7632022395337 17.7244375
vertex 12.1258829727977 -50.5814890790411 0.0
vertex 13.5780809324141 -49.7632022395337 0.0
endloop
endfacet
facet normal 0.490910739861952 -0.871209874535517 0.0
outer loop
vertex 12.1258829727977 -50.5814890790411 0.0
vertex 13.5780809324141 -49.7632022395337 17.7244375
vertex 12.1258829727977 -50.5814890790411 17.7244375
endloop
endfacet
facet normal -0.700568377325064 -0.713585277799456 -0.0
outer loop
vertex 14.72546037746 -50.8896517067519 17.7244375
vertex 13.5780809324141 -49.7632022395337 0.0
vertex 14.72546037746 -50.8896517067519 0.0
endloop
endfacet
facet normal -0.700568377325064 -0.713585277799456 -0.0
outer loop
vertex 13.5780809324141 -49.7632022395337 0.0
vertex 14.72546037746 -50.8896517067519 17.7244375
vertex 13.5780809324141 -49.7632022395337 17.7244375
endloop
endfacet
facet normal -0.117719115257927 -0.993046932376759 -0.0
outer loop
vertex 18.5977500446756 -51.3486859162993 17.7244375
vertex 14.72546037746 -50.8896517067519 0.0
vertex 18.5977500446756 -51.3486859162993 0.0
endloop
endfacet
facet normal -0.117719115257927 -0.993046932376759 -0.0
outer loop
vertex 14.72546037746 -50.8896517067519 0.0
vertex 18.5977500446756 -51.3486859162993 17.7244375
vertex 14.72546037746 -50.8896517067519 17.7244375
endloop
endfacet
facet normal 0.490910739861949 -0.871209874535518 0.0
outer loop
vertex 20.049948004292 -50.5303990767919 17.7244375
vertex 18.5977500446756 -51.3486859162993 0.0
vertex 20.049948004292 -50.5303990767919 0.0
endloop
endfacet
facet normal 0.490910739861949 -0.871209874535518 0.0
outer loop
vertex 18.5977500446756 -51.3486859162993 0.0
vertex 20.049948004292 -50.5303990767919 17.7244375
vertex 18.5977500446756 -51.3486859162993 17.7244375
endloop
endfacet
facet normal -0.700568377325064 -0.713585277799456 -0.0
outer loop
vertex 21.1973274493379 -51.6568485440101 17.7244375
vertex 20.049948004292 -50.5303990767919 0.0
vertex 21.1973274493379 -51.6568485440101 0.0
endloop
endfacet
facet normal -0.700568377325064 -0.713585277799456 -0.0
outer loop
vertex 20.049948004292 -50.5303990767919 0.0
vertex 21.1973274493379 -51.6568485440101 17.7244375
vertex 20.049948004292 -50.5303990767919 17.7244375
endloop
endfacet
facet normal -0.117719115257933 -0.993046932376758 -0.0
outer loop
vertex 25.4464543287893 -52.1605543010688 17.7244375
vertex 21.1973274493379 -51.6568485440101 0.0
vertex 25.4464543287893 -52.1605543010688 0.0
endloop
endfacet
facet normal -0.117719115257933 -0.993046932376758 -0.0
outer loop
vertex 21.1973274493379 -51.6568485440101 0.0
vertex 25.4464543287893 -52.1605543010688 17.7244375
vertex 21.1973274493379 -51.6568485440101 17.7244375
endloop
endfacet
facet normal 0.490910739861952 -0.871209874535516 0.0
outer loop
vertex 26.8986522884057 -51.3422674615614 17.7244375
vertex 25.4464543287893 -52.1605543010688 0.0
vertex 26.8986522884057 -51.3422674615614 0.0
endloop
endfacet
facet normal 0.490910739861952 -0.871209874535516 0.0
outer loop
vertex 25.4464543287893 -52.1605543010688 0.0
vertex 26.8986522884057 -51.3422674615614 17.7244375
vertex 25.4464543287893 -52.1605543010688 17.7244375
endloop
endfacet
facet normal -0.700568377325067 -0.713585277799453 -0.0
outer loop
vertex 28.0460317334516 -52.4687169287796 17.7244375
vertex 26.8986522884057 -51.3422674615614 0.0
vertex 28.0460317334516 -52.4687169287796 0.0
endloop
endfacet
facet normal -0.700568377325067 -0.713585277799453 -0.0
outer loop
vertex 26.8986522884057 -51.3422674615614 0.0
vertex 28.0460317334516 -52.4687169287796 17.7244375
vertex 26.8986522884057 -51.3422674615614 17.7244375
endloop
endfacet
facet normal -0.117719115257944 -0.993046932376757 -0.0
outer loop
vertex 32.5983737175873 -53.008366821702 17.7244375
vertex 28.0460317334516 -52.4687169287796 0.0
vertex 32.5983737175873 -53.008366821702 0.0
endloop
endfacet
facet normal -0.117719115257944 -0.993046932376757 -0.0
outer loop
vertex 28.0460317334516 -52.4687169287796 0.0
vertex 32.5983737175873 -53.008366821702 17.7244375
vertex 28.0460317334516 -52.4687169287796 17.7244375
endloop
endfacet
facet normal 0.993046932376758 -0.117719115257935 0.0
outer loop
vertex 34.9080124585254 -33.5248729000766 0.0
vertex 32.5983737175873 -53.008366821702 17.7244375
vertex 32.5983737175873 -53.008366821702 0.0
endloop
endfacet
facet normal 0.993046932376758 -0.117719115257935 0.0
outer loop
vertex 32.5983737175873 -53.008366821702 17.7244375
vertex 34.9080124585254 -33.5248729000766 0.0
vertex 34.9080124585254 -33.5248729000766 17.7244375
endloop
endfacet
facet normal 0.117719115257935 0.993046932376758 0.0
outer loop
vertex 30.3556704743897 -32.9852230071543 17.7244375
vertex 34.9080124585254 -33.5248729000766 0.0
vertex 30.3556704743897 -32.9852230071543 0.0
endloop
endfacet
facet normal 0.117719115257935 0.993046932376758 0.0
outer loop
vertex 34.9080124585254 -33.5248729000766 0.0
vertex 30.3556704743897 -32.9852230071543 17.7244375
vertex 34.9080124585254 -33.5248729000766 17.7244375
endloop
endfacet
facet normal -0.490910739861963 0.871209874535511 0.0
outer loop
vertex 28.9034725147733 -33.8035098466617 17.7244375
vertex 30.3556704743897 -32.9852230071543 0.0
vertex 28.9034725147733 -33.8035098466617 0.0
endloop
endfacet
facet normal -0.490910739861963 0.871209874535511 0.0
outer loop
vertex 30.3556704743897 -32.9852230071543 0.0
vertex 28.9034725147733 -33.8035098466617 17.7244375
vertex 30.3556704743897 -32.9852230071543 17.7244375
endloop
endfacet
facet normal 0.700568377325076 0.713585277799444 0.0
outer loop
vertex 27.7560930697274 -32.6770603794435 17.7244375
vertex 28.9034725147733 -33.8035098466617 0.0
vertex 27.7560930697274 -32.6770603794435 0.0
endloop
endfacet
facet normal 0.700568377325076 0.713585277799444 0.0
outer loop
vertex 28.9034725147733 -33.8035098466617 0.0
vertex 27.7560930697274 -32.6770603794435 17.7244375
vertex 28.9034725147733 -33.8035098466617 17.7244375
endloop
endfacet
facet normal 0.117719115257936 0.993046932376758 0.0
outer loop
vertex 23.8838034025119 -32.2180261698961 17.7244375
vertex 27.7560930697274 -32.6770603794435 0.0
vertex 23.8838034025119 -32.2180261698961 0.0
endloop
endfacet
facet normal 0.117719115257936 0.993046932376758 0.0
outer loop
vertex 27.7560930697274 -32.6770603794435 0.0
vertex 23.8838034025119 -32.2180261698961 17.7244375
vertex 27.7560930697274 -32.6770603794435 17.7244375
endloop
endfacet
facet normal -0.490910739861941 0.871209874535523 0.0
outer loop
vertex 22.4316054428954 -33.0363130094035 17.7244375
vertex 23.8838034025119 -32.2180261698961 0.0
vertex 22.4316054428954 -33.0363130094035 0.0
endloop
endfacet
facet normal -0.490910739861941 0.871209874535523 0.0
outer loop
vertex 23.8838034025119 -32.2180261698961 0.0
vertex 22.4316054428954 -33.0363130094035 17.7244375
vertex 23.8838034025119 -32.2180261698961 17.7244375
endloop
endfacet
facet normal 0.700568377325064 0.713585277799456 0.0
outer loop
vertex 21.2842259978496 -31.9098635421853 17.7244375
vertex 22.4316054428954 -33.0363130094035 0.0
vertex 21.2842259978496 -31.9098635421853 0.0
endloop
endfacet
facet normal 0.700568377325064 0.713585277799456 0.0
outer loop
vertex 22.4316054428954 -33.0363130094035 0.0
vertex 21.2842259978496 -31.9098635421853 17.7244375
vertex 22.4316054428954 -33.0363130094035 17.7244375
endloop
endfacet
facet normal 0.117719115257922 0.993046932376759 0.0
outer loop
vertex 17.0350991183981 -31.4061577851266 17.7244375
vertex 21.2842259978496 -31.9098635421853 0.0
vertex 17.0350991183981 -31.4061577851266 0.0
endloop
endfacet
facet normal 0.117719115257922 0.993046932376759 0.0
outer loop
vertex 21.2842259978496 -31.9098635421853 0.0
vertex 17.0350991183981 -31.4061577851266 17.7244375
vertex 21.2842259978496 -31.9098635421853 17.7244375
endloop
endfacet
facet normal -0.490910739861946 0.87120987453552 0.0
outer loop
vertex 15.5829011587817 -32.224444624634 17.7244375
vertex 17.0350991183981 -31.4061577851266 0.0
vertex 15.5829011587817 -32.224444624634 0.0
endloop
endfacet
facet normal -0.490910739861946 0.87120987453552 0.0
outer loop
vertex 17.0350991183981 -31.4061577851266 0.0
vertex 15.5829011587817 -32.224444624634 17.7244375
vertex 17.0350991183981 -31.4061577851266 17.7244375
endloop
endfacet
facet normal 0.700568377325068 0.713585277799452 0.0
outer loop
vertex 14.4355217137358 -31.0979951574157 17.7244375
vertex 15.5829011587817 -32.224444624634 0.0
vertex 14.4355217137358 -31.0979951574157 0.0
endloop
endfacet
facet normal 0.700568377325068 0.713585277799452 0.0
outer loop
vertex 15.5829011587817 -32.224444624634 0.0
vertex 14.4355217137358 -31.0979951574157 17.7244375
vertex 15.5829011587817 -32.224444624634 17.7244375
endloop
endfacet
facet normal 0.117719115257931 0.993046932376758 0.0
outer loop
vertex 10.4301865162301 -30.6231892843103 17.7244375
vertex 14.4355217137358 -31.0979951574157 0.0
vertex 10.4301865162301 -30.6231892843103 0.0
endloop
endfacet
facet normal 0.117719115257931 0.993046932376758 0.0
outer loop
vertex 14.4355217137358 -31.0979951574157 0.0
vertex 10.4301865162301 -30.6231892843103 17.7244375
vertex 14.4355217137358 -31.0979951574157 17.7244375
endloop
endfacet
facet normal -0.490910739861962 0.871209874535511 0.0
outer loop
vertex 8.97798855661373 -31.4414761238177 17.7244375
vertex 10.4301865162301 -30.6231892843103 0.0
vertex 8.97798855661373 -31.4414761238177 0.0
endloop
endfacet
facet normal -0.490910739861962 0.871209874535511 0.0
outer loop
vertex 10.4301865162301 -30.6231892843103 0.0
vertex 8.97798855661373 -31.4414761238177 17.7244375
vertex 10.4301865162301 -30.6231892843103 17.7244375
endloop
endfacet
facet normal 0.700568377325086 0.713585277799434 0.0
outer loop
vertex 7.83060911156787 -30.3150266565995 17.7244375
vertex 8.97798855661373 -31.4414761238177 0.0
vertex 7.83060911156787 -30.3150266565995 0.0
endloop
endfacet
facet normal 0.700568377325086 0.713585277799434 0.0
outer loop
vertex 8.97798855661373 -31.4414761238177 0.0
vertex 7.83060911156787 -30.3150266565995 17.7244375
vertex 8.97798855661373 -31.4414761238177 17.7244375
endloop
endfacet
facet normal 0.117719115257921 0.99304693237676 0.0
outer loop
vertex 3.95831944435228 -29.8559924470521 17.7244375
vertex 7.83060911156787 -30.3150266565995 0.0
vertex 3.95831944435228 -29.8559924470521 0.0
endloop
endfacet
facet normal 0.117719115257921 0.99304693237676 0.0
outer loop
vertex 7.83060911156787 -30.3150266565995 0.0
vertex 3.95831944435228 -29.8559924470521 17.7244375
vertex 7.83060911156787 -30.3150266565995 17.7244375
endloop
endfacet
facet normal -0.490910739861943 0.871209874535522 0.0
outer loop
vertex 2.5061214847359 -30.6742792865595 17.7244375
vertex 3.95831944435228 -29.8559924470521 0.0
vertex 2.5061214847359 -30.6742792865595 0.0
endloop
endfacet
facet normal -0.490910739861943 0.871209874535522 0.0
outer loop
vertex 3.95831944435228 -29.8559924470521 0.0
vertex 2.5061214847359 -30.6742792865595 17.7244375
vertex 3.95831944435228 -29.8559924470521 17.7244375
endloop
endfacet
facet normal 0.700568377325049 0.713585277799471 0.0
outer loop
vertex 1.35874203968998 -29.5478298193413 17.7244375
vertex 2.5061214847359 -30.6742792865595 0.0
vertex 1.35874203968998 -29.5478298193413 0.0
endloop
endfacet
facet normal 0.700568377325049 0.713585277799471 0.0
outer loop
vertex 2.5061214847359 -30.6742792865595 0.0
vertex 1.35874203968998 -29.5478298193413 17.7244375
vertex 2.5061214847359 -30.6742792865595 17.7244375
endloop
endfacet
facet normal 0.117719115257934 0.993046932376758 0.0
outer loop
vertex -2.89038483976147 -29.0441240622826 17.7244375
vertex 1.35874203968998 -29.5478298193413 0.0
vertex -2.89038483976147 -29.0441240622826 0.0
endloop
endfacet
facet normal 0.117719115257934 0.993046932376758 0.0
outer loop
vertex 1.35874203968998 -29.5478298193413 0.0
vertex -2.89038483976147 -29.0441240622826 17.7244375
vertex 1.35874203968998 -29.5478298193413 17.7244375
endloop
endfacet
facet normal -0.490910739861974 0.871209874535505 0.0
outer loop
vertex -4.34258279937784 -29.86241090179 17.7244375
vertex -2.89038483976147 -29.0441240622826 0.0
vertex -4.34258279937784 -29.86241090179 0.0
endloop
endfacet
facet normal -0.490910739861974 0.871209874535505 0.0
outer loop
vertex -2.89038483976147 -29.0441240622826 0.0
vertex -4.34258279937784 -29.86241090179 17.7244375
vertex -2.89038483976147 -29.0441240622826 17.7244375
endloop
endfacet
facet normal 0.700568377325059 0.71358527779946 0.0
outer loop
vertex -5.48996224442377 -28.7359614345718 17.7244375
vertex -4.34258279937784 -29.86241090179 0.0
vertex -5.48996224442377 -28.7359614345718 0.0
endloop
endfacet
facet normal 0.700568377325059 0.71358527779946 0.0
outer loop
vertex -4.34258279937784 -29.86241090179 0.0
vertex -5.48996224442377 -28.7359614345718 17.7244375
vertex -4.34258279937784 -29.86241090179 17.7244375
endloop
endfacet
facet normal 0.117719115257963 0.993046932376754 0.0
outer loop
vertex -10.6816922683526 -28.1205163381227 17.7244375
vertex -5.48996224442377 -28.7359614345718 0.0
vertex -10.6816922683526 -28.1205163381227 0.0
endloop
endfacet
facet normal 0.117719115257963 0.993046932376754 0.0
outer loop
vertex -5.48996224442377 -28.7359614345718 0.0
vertex -10.6816922683526 -28.1205163381227 17.7244375
vertex -5.48996224442377 -28.7359614345718 17.7244375
endloop
endfacet
facet normal -0.993046932376758 0.117719115257935 0.0
outer loop
vertex -10.6816922683526 -28.1205163381227 17.7244375
vertex -12.9913310092907 -47.6040102597481 0.0
vertex -12.9913310092907 -47.6040102597481 17.7244375
endloop
endfacet
facet normal -0.993046932376758 0.117719115257935 0.0
outer loop
vertex -12.9913310092907 -47.6040102597481 0.0
vertex -10.6816922683526 -28.1205163381227 17.7244375
vertex -10.6816922683526 -28.1205163381227 0.0
endloop
endfacet
facet normal -0.117719115257936 -0.993046932376758 -0.0
outer loop
vertex -7.79960098536181 -48.2194553561971 17.7244375
vertex -12.9913310092907 -47.6040102597481 0.0
vertex -7.79960098536181 -48.2194553561971 0.0
endloop
endfacet
facet normal -0.117719115257936 -0.993046932376758 -0.0
outer loop
vertex -12.9913310092907 -47.6040102597481 0.0
vertex -7.79960098536181 -48.2194553561971 17.7244375
vertex -12.9913310092907 -47.6040102597481 17.7244375
endloop
endfacet
facet normal 0.490910739861952 -0.871209874535517 0.0
outer loop
vertex -6.34740302574542 -47.4011685166897 17.7244375
vertex -7.79960098536181 -48.2194553561971 0.0
vertex -6.34740302574542 -47.4011685166897 0.0
endloop
endfacet
facet normal 0.490910739861952 -0.871209874535517 0.0
outer loop
vertex -7.79960098536181 -48.2194553561971 0.0
vertex -6.34740302574542 -47.4011685166897 17.7244375
vertex -7.79960098536181 -48.2194553561971 17.7244375
endloop
endfacet
facet normal -0.700568377325063 -0.713585277799457 -0.0
outer loop
vertex -5.20002358069952 -48.5276179839079 17.7244375
vertex -6.34740302574542 -47.4011685166897 0.0
vertex -5.20002358069952 -48.5276179839079 0.0
endloop
endfacet
facet normal -0.700568377325063 -0.713585277799457 -0.0
outer loop
vertex -6.34740302574542 -47.4011685166897 0.0
vertex -5.20002358069952 -48.5276179839079 17.7244375
vertex -6.34740302574542 -47.4011685166897 17.7244375
endloop
endfacet
facet normal 0.0 0.0 1.0
outer loop
vertex 30.497217172466 -46.6384888763451 19.478625
vertex 24.974486235933 -40.2287908126071 19.478625
vertex 24.3017214922339 -45.9040540311402 19.478625
endloop
endfacet
facet normal 0.0 0.0 1.0
outer loop
vertex 24.974486235933 -40.2287908126071 19.478625
vertex 30.497217172466 -46.6384888763451 19.478625
vertex 31.1699819161651 -40.9632256578119 19.478625
endloop
endfacet
facet normal -0.117719115257935 -0.993046932376758 -0.0
outer loop
vertex 30.497217172466 -46.6384888763451 19.478625
vertex 24.3017214922339 -45.9040540311402 17.7244375
vertex 30.497217172466 -46.6384888763451 17.7244375
endloop
endfacet
facet normal -0.117719115257935 -0.993046932376758 -0.0
outer loop
vertex 24.3017214922339 -45.9040540311402 17.7244375
vertex 30.497217172466 -46.6384888763451 19.478625
vertex 24.3017214922339 -45.9040540311402 19.478625
endloop
endfacet
facet normal 0.993046932376758 -0.117719115257936 0.0
outer loop
vertex 31.1699819161651 -40.9632256578119 17.7244375
vertex 30.497217172466 -46.6384888763451 19.478625
vertex 30.497217172466 -46.6384888763451 17.7244375
endloop
endfacet
facet normal 0.993046932376758 -0.117719115257936 0.0
outer loop
vertex 30.497217172466 -46.6384888763451 19.478625
vertex 31.1699819161651 -40.9632256578119 17.7244375
vertex 31.1699819161651 -40.9632256578119 19.478625
endloop
endfacet
facet normal 0.117719115257935 0.993046932376758 0.0
outer loop
vertex 24.974486235933 -40.2287908126071 19.478625
vertex 31.1699819161651 -40.9632256578119 17.7244375
vertex 24.974486235933 -40.2287908126071 17.7244375
endloop
endfacet
facet normal 0.117719115257935 0.993046932376758 0.0
outer loop
vertex 31.1699819161651 -40.9632256578119 17.7244375
vertex 24.974486235933 -40.2287908126071 19.478625
vertex 31.1699819161651 -40.9632256578119 19.478625
endloop
endfacet
facet normal -0.993046932376758 0.117719115257936 0.0
outer loop
vertex 24.974486235933 -40.2287908126071 19.478625
vertex 24.3017214922339 -45.9040540311402 17.7244375
vertex 24.3017214922339 -45.9040540311402 19.478625
endloop
endfacet
facet normal -0.993046932376758 0.117719115257936 0.0
outer loop
vertex 24.3017214922339 -45.9040540311402 17.7244375
vertex 24.974486235933 -40.2287908126071 19.478625
vertex 24.974486235933 -40.2287908126071 17.7244375
endloop
endfacet
facet normal 0.0 0.0 1.0
outer loop
vertex 6.01310344356448 -37.2479032786053 18.970625
vertex -2.73811167909251 -32.6391983398394 18.970625
vertex -3.15559957837689 -36.1610144593403 18.970625
endloop
endfacet
facet normal 0.0 0.0 1.0
outer loop
vertex -2.73811167909251 -32.6391983398394 18.970625
vertex 6.01310344356448 -37.2479032786053 18.970625
vertex 6.43059134284886 -33.7260871591044 18.970625
endloop
endfacet
facet normal 0.0 0.0 1.0
outer loop
vertex -3.9508381945208 -42.976530771871 17.7244375
vertex -2.89038483976147 -29.0441240622826 17.7244375
vertex -4.34258279937784 -29.86241090179 17.7244375
endloop
endfacet
facet normal 0.0 0.0 1.0
outer loop
vertex -2.89038483976147 -29.0441240622826 17.7244375
vertex -3.9508381945208 -42.976530771871 17.7244375
vertex -3.59389912216933 -39.9654883420381 17.7244375
endloop
endfacet
facet normal 0.0 0.0 1.0
outer loop
vertex -2.89038483976147 -29.0441240622826 17.7244375
vertex -3.59389912216933 -39.9654883420381 17.7244375
vertex -3.15559957837689 -36.1610144593403 17.7244375
endloop
endfacet
facet normal 0.0 0.0 1.0
outer loop
vertex -2.89038483976147 -29.0441240622826 17.7244375
vertex -3.15559957837689 -36.1610144593403 17.7244375
vertex -2.73811167909251 -32.6391983398394 17.7244375
endloop
endfacet
facet normal 0.0 0.0 1.0
outer loop
vertex -2.89038483976147 -29.0441240622826 17.7244375
vertex -2.73811167909251 -32.6391983398394 17.7244375
vertex 1.35874203968998 -29.5478298193413 17.7244375
endloop
endfacet
facet normal 0.0 0.0 1.0
outer loop
vertex 1.35874203968998 -29.5478298193413 17.7244375
vertex -2.73811167909251 -32.6391983398394 17.7244375
vertex 2.5061214847359 -30.6742792865595 17.7244375
endloop
endfacet
facet normal 0.0 0.0 1.0
outer loop
vertex 2.5061214847359 -30.6742792865595 17.7244375
vertex -2.73811167909251 -32.6391983398394 17.7244375
vertex 6.43059134284886 -33.7260871591044 17.7244375
endloop
endfacet
facet normal 0.0 0.0 1.0
outer loop
vertex 2.5061214847359 -30.6742792865595 17.7244375
vertex 6.43059134284886 -33.7260871591044 17.7244375
vertex 3.95831944435228 -29.8559924470521 17.7244375
endloop
endfacet
facet normal 0.0 0.0 1.0
outer loop
vertex 3.95831944435228 -29.8559924470521 17.7244375
vertex 6.43059134284886 -33.7260871591044 17.7244375
vertex 7.83060911156787 -30.3150266565995 17.7244375
endloop
endfacet
facet normal 0.0 0.0 1.0
outer loop
vertex 7.83060911156787 -30.3150266565995 17.7244375
vertex 6.43059134284886 -33.7260871591044 17.7244375
vertex 6.97316833024614 -48.9802337387174 17.7244375
endloop
endfacet
facet normal 0.0 0.0 1.0
outer loop
vertex 7.83060911156787 -30.3150266565995 17.7244375
vertex 6.97316833024614 -48.9802337387174 17.7244375
vertex 8.12054777529205 -50.1066832059356 17.7244375
endloop
endfacet
facet normal 0.0 0.0 1.0
outer loop
vertex 7.83060911156787 -30.3150266565995 17.7244375
vertex 8.12054777529205 -50.1066832059356 17.7244375
vertex 8.97798855661373 -31.4414761238177 17.7244375
endloop
endfacet
facet normal 0.0 0.0 1.0
outer loop
vertex 8.97798855661373 -31.4414761238177 17.7244375
vertex 8.12054777529205 -50.1066832059356 17.7244375
vertex 12.1258829727977 -50.5814890790411 17.7244375
endloop
endfacet
facet normal 0.0 0.0 1.0
outer loop
vertex 8.97798855661373 -31.4414761238177 17.7244375
vertex 12.1258829727977 -50.5814890790411 17.7244375
vertex 10.4301865162301 -30.6231892843103 17.7244375
endloop
endfacet
facet normal 0.0 0.0 1.0
outer loop
vertex 10.4301865162301 -30.6231892843103 17.7244375
vertex 12.1258829727977 -50.5814890790411 17.7244375
vertex 14.4355217137358 -31.0979951574157 17.7244375
endloop
endfacet
facet normal 0.0 0.0 1.0
outer loop
vertex 14.4355217137358 -31.0979951574157 17.7244375
vertex 12.1258829727977 -50.5814890790411 17.7244375
vertex 13.5780809324141 -49.7632022395337 17.7244375
endloop
endfacet
facet normal 0.0 0.0 1.0
outer loop
vertex 14.4355217137358 -31.0979951574157 17.7244375
vertex 13.5780809324141 -49.7632022395337 17.7244375
vertex 14.72546037746 -50.8896517067519 17.7244375
endloop
endfacet
facet normal 0.0 0.0 1.0
outer loop
vertex 14.4355217137358 -31.0979951574157 17.7244375
vertex 14.72546037746 -50.8896517067519 17.7244375
vertex 15.5829011587817 -32.224444624634 17.7244375
endloop
endfacet
facet normal 0.0 0.0 1.0
outer loop
vertex 15.5829011587817 -32.224444624634 17.7244375
vertex 14.72546037746 -50.8896517067519 17.7244375
vertex 18.5977500446756 -51.3486859162993 17.7244375
endloop
endfacet
facet normal 0.0 0.0 1.0
outer loop
vertex 15.5829011587817 -32.224444624634 17.7244375
vertex 18.5977500446756 -51.3486859162993 17.7244375
vertex 17.0350991183981 -31.4061577851266 17.7244375
endloop
endfacet
facet normal 0.0 0.0 1.0
outer loop
vertex 17.0350991183981 -31.4061577851266 17.7244375
vertex 18.5977500446756 -51.3486859162993 17.7244375
vertex 21.2842259978496 -31.9098635421853 17.7244375
endloop
endfacet
facet normal 0.0 0.0 1.0
outer loop
vertex 21.2842259978496 -31.9098635421853 17.7244375
vertex 18.5977500446756 -51.3486859162993 17.7244375
vertex 20.049948004292 -50.5303990767919 17.7244375
endloop
endfacet
facet normal 0.0 0.0 1.0
outer loop
vertex 21.2842259978496 -31.9098635421853 17.7244375
vertex 20.049948004292 -50.5303990767919 17.7244375
vertex 21.1973274493379 -51.6568485440101 17.7244375
endloop
endfacet
facet normal 0.0 0.0 1.0
outer loop
vertex 21.2842259978496 -31.9098635421853 17.7244375
vertex 21.1973274493379 -51.6568485440101 17.7244375
vertex 25.4464543287893 -52.1605543010688 17.7244375
endloop
endfacet
facet normal 0.0 0.0 1.0
outer loop
vertex 21.2842259978496 -31.9098635421853 17.7244375
vertex 25.4464543287893 -52.1605543010688 17.7244375
vertex 24.3017214922339 -45.9040540311402 17.7244375
endloop
endfacet
facet normal 0.0 0.0 1.0
outer loop
vertex 21.2842259978496 -31.9098635421853 17.7244375
vertex 24.3017214922339 -45.9040540311402 17.7244375
vertex 22.4316054428954 -33.0363130094035 17.7244375
endloop
endfacet
facet normal 0.0 0.0 1.0
outer loop
vertex 22.4316054428954 -33.0363130094035 17.7244375
vertex 24.3017214922339 -45.9040540311402 17.7244375
vertex 23.8838034025119 -32.2180261698961 17.7244375
endloop
endfacet
facet normal 0.0 0.0 1.0
outer loop
vertex 24.3017214922339 -45.9040540311402 17.7244375
vertex 25.4464543287893 -52.1605543010688 17.7244375
vertex 30.497217172466 -46.6384888763451 17.7244375
endloop
endfacet
facet normal 0.0 0.0 1.0
outer loop
vertex 30.497217172466 -46.6384888763451 17.7244375
vertex 25.4464543287893 -52.1605543010688 17.7244375
vertex 26.8986522884057 -51.3422674615614 17.7244375
endloop
endfacet
facet normal 0.0 0.0 1.0
outer loop
vertex 30.497217172466 -46.6384888763451 17.7244375
vertex 26.8986522884057 -51.3422674615614 17.7244375
vertex 28.0460317334516 -52.4687169287796 17.7244375
endloop
endfacet
facet normal 0.0 0.0 1.0
outer loop
vertex 30.497217172466 -46.6384888763451 17.7244375
vertex 28.0460317334516 -52.4687169287796 17.7244375
vertex 32.5983737175873 -53.008366821702 17.7244375
endloop
endfacet
facet normal 0.0 0.0 1.0
outer loop
vertex 30.497217172466 -46.6384888763451 17.7244375
vertex 32.5983737175873 -53.008366821702 17.7244375
vertex 31.1699819161651 -40.9632256578119 17.7244375
endloop
endfacet
facet normal 0.0 0.0 1.0
outer loop
vertex 23.8838034025119 -32.2180261698961 17.7244375
vertex 24.974486235933 -40.2287908126071 17.7244375
vertex 27.7560930697274 -32.6770603794435 17.7244375
endloop
endfacet
facet normal 0.0 0.0 1.0
outer loop
vertex 24.974486235933 -40.2287908126071 17.7244375
vertex 23.8838034025119 -32.2180261698961 17.7244375
vertex 24.3017214922339 -45.9040540311402 17.7244375
endloop
endfacet
facet normal 0.0 0.0 1.0
outer loop
vertex 27.7560930697274 -32.6770603794435 17.7244375
vertex 24.974486235933 -40.2287908126071 17.7244375
vertex 31.1699819161651 -40.9632256578119 17.7244375
endloop
endfacet
facet normal 0.0 0.0 1.0
outer loop
vertex 27.7560930697274 -32.6770603794435 17.7244375
vertex 31.1699819161651 -40.9632256578119 17.7244375
vertex 28.9034725147733 -33.8035098466617 17.7244375
endloop
endfacet
facet normal 0.0 0.0 1.0
outer loop
vertex 28.9034725147733 -33.8035098466617 17.7244375
vertex 31.1699819161651 -40.9632256578119 17.7244375
vertex 30.3556704743897 -32.9852230071543 17.7244375
endloop
endfacet
facet normal 0.0 0.0 1.0
outer loop
vertex 30.3556704743897 -32.9852230071543 17.7244375
vertex 31.1699819161651 -40.9632256578119 17.7244375
vertex 34.9080124585254 -33.5248729000766 17.7244375
endloop
endfacet
facet normal 0.0 0.0 1.0
outer loop
vertex 34.9080124585254 -33.5248729000766 17.7244375
vertex 31.1699819161651 -40.9632256578119 17.7244375
vertex 32.5983737175873 -53.008366821702 17.7244375
endloop
endfacet
facet normal 0.0 0.0 1.0
outer loop
vertex -7.79960098536181 -48.2194553561971 17.7244375
vertex -10.6816922683526 -28.1205163381227 17.7244375
vertex -12.9913310092907 -47.6040102597481 17.7244375
endloop
endfacet
facet normal 0.0 0.0 1.0
outer loop
vertex -10.6816922683526 -28.1205163381227 17.7244375
vertex -7.79960098536181 -48.2194553561971 17.7244375
vertex -5.48996224442377 -28.7359614345718 17.7244375
endloop
endfacet
facet normal 0.0 0.0 1.0
outer loop
vertex -5.48996224442377 -28.7359614345718 17.7244375
vertex -7.79960098536181 -48.2194553561971 17.7244375
vertex -6.34740302574542 -47.4011685166897 17.7244375
endloop
endfacet
facet normal 0.0 0.0 1.0
outer loop
vertex -5.48996224442377 -28.7359614345718 17.7244375
vertex -6.34740302574542 -47.4011685166897 17.7244375
vertex -5.20002358069952 -48.5276179839079 17.7244375
endloop
endfacet
facet normal 0.0 0.0 1.0
outer loop
vertex -5.48996224442377 -28.7359614345718 17.7244375
vertex -5.20002358069952 -48.5276179839079 17.7244375
vertex -4.34258279937784 -29.86241090179 17.7244375
endloop
endfacet
facet normal 0.0 0.0 1.0
outer loop
vertex -4.34258279937784 -29.86241090179 17.7244375
vertex -5.20002358069952 -48.5276179839079 17.7244375
vertex -3.9508381945208 -42.976530771871 17.7244375
endloop
endfacet
facet normal 0.0 0.0 1.0
outer loop
vertex -3.9508381945208 -42.976530771871 17.7244375
vertex -5.20002358069952 -48.5276179839079 17.7244375
vertex -1.32773391348398 -48.9866521934552 17.7244375
endloop
endfacet
facet normal 0.0 0.0 1.0
outer loop
vertex -3.9508381945208 -42.976530771871 17.7244375
vertex -1.32773391348398 -48.9866521934552 17.7244375
vertex 5.18948851132791 -44.0600557674175 17.7244375
endloop
endfacet
facet normal 0.0 0.0 1.0
outer loop
vertex 5.18948851132791 -44.0600557674175 17.7244375
vertex -1.32773391348398 -48.9866521934552 17.7244375
vertex 0.124464046132409 -48.1683653539479 17.7244375
endloop
endfacet
facet normal 0.0 0.0 1.0
outer loop
vertex 5.18948851132791 -44.0600557674175 17.7244375
vertex 0.124464046132409 -48.1683653539479 17.7244375
vertex 1.27184349117832 -49.2948148211661 17.7244375
endloop
endfacet
facet normal 0.0 0.0 1.0
outer loop
vertex 5.18948851132791 -44.0600557674175 17.7244375
vertex 1.27184349117832 -49.2948148211661 17.7244375
vertex 5.52097037062975 -49.7985205782248 17.7244375
endloop
endfacet
facet normal 0.0 0.0 1.0
outer loop
vertex 5.18948851132791 -44.0600557674175 17.7244375
vertex 5.52097037062975 -49.7985205782248 17.7244375
vertex 5.54642758367937 -41.0490133375846 17.7244375
endloop
endfacet
facet normal 0.0 0.0 1.0
outer loop
vertex 5.54642758367937 -41.0490133375846 17.7244375
vertex 5.52097037062975 -49.7985205782248 17.7244375
vertex 6.97316833024614 -48.9802337387174 17.7244375
endloop
endfacet
facet normal 0.0 0.0 1.0
outer loop
vertex 5.54642758367937 -41.0490133375846 17.7244375
vertex 6.97316833024614 -48.9802337387174 17.7244375
vertex 6.01310344356448 -37.2479032786053 17.7244375
endloop
endfacet
facet normal 0.0 0.0 1.0
outer loop
vertex 6.01310344356448 -37.2479032786053 17.7244375
vertex 6.97316833024614 -48.9802337387174 17.7244375
vertex 6.43059134284886 -33.7260871591044 17.7244375
endloop
endfacet
facet normal 0.0 0.0 1.0
outer loop
vertex 5.54642758367937 -41.0490133375846 17.7244375
vertex -3.15559957837689 -36.1610144593403 17.7244375
vertex -3.59389912216933 -39.9654883420381 17.7244375
endloop
endfacet
facet normal 0.0 0.0 1.0
outer loop
vertex -3.15559957837689 -36.1610144593403 17.7244375
vertex 5.54642758367937 -41.0490133375846 17.7244375
vertex 6.01310344356448 -37.2479032786053 17.7244375
endloop
endfacet
facet normal -0.993046932376758 0.117719115257935 0.0
outer loop
vertex -2.73811167909251 -32.6391983398394 18.970625
vertex -3.15559957837689 -36.1610144593403 17.7244375
vertex -3.15559957837689 -36.1610144593403 18.970625
endloop
endfacet
facet normal -0.993046932376758 0.117719115257935 0.0
outer loop
vertex -3.15559957837689 -36.1610144593403 17.7244375
vertex -2.73811167909251 -32.6391983398394 18.970625
vertex -2.73811167909251 -32.6391983398394 17.7244375
endloop
endfacet
facet normal -0.117719115257935 -0.993046932376758 -0.0
outer loop
vertex 6.01310344356448 -37.2479032786053 18.970625
vertex -3.15559957837689 -36.1610144593403 17.7244375
vertex 6.01310344356448 -37.2479032786053 17.7244375
endloop
endfacet
facet normal -0.117719115257935 -0.993046932376758 -0.0
outer loop
vertex -3.15559957837689 -36.1610144593403 17.7244375
vertex 6.01310344356448 -37.2479032786053 18.970625
vertex -3.15559957837689 -36.1610144593403 18.970625
endloop
endfacet
facet normal 0.993046932376758 -0.117719115257934 0.0
outer loop
vertex 6.43059134284886 -33.7260871591044 17.7244375
vertex 6.01310344356448 -37.2479032786053 18.970625
vertex 6.01310344356448 -37.2479032786053 17.7244375
endloop
endfacet
facet normal 0.993046932376758 -0.117719115257934 0.0
outer loop
vertex 6.01310344356448 -37.2479032786053 18.970625
vertex 6.43059134284886 -33.7260871591044 17.7244375
vertex 6.43059134284886 -33.7260871591044 18.970625
endloop
endfacet
facet normal 0.117719115257935 0.993046932376758 0.0
outer loop
vertex -2.73811167909251 -32.6391983398394 18.970625
vertex 6.43059134284886 -33.7260871591044 17.7244375
vertex -2.73811167909251 -32.6391983398394 17.7244375
endloop
endfacet
facet normal 0.117719115257935 0.993046932376758 0.0
outer loop
vertex 6.43059134284886 -33.7260871591044 17.7244375
vertex -2.73811167909251 -32.6391983398394 18.970625
vertex 6.43059134284886 -33.7260871591044 18.970625
endloop
endfacet
facet normal 0.0 0.0 1.0
outer loop
vertex 5.18948851132791 -44.0600557674175 18.970625
vertex -3.59389912216933 -39.9654883420381 18.970625
vertex -3.9508381945208 -42.976530771871 18.970625
endloop
endfacet
facet normal 0.0 0.0 1.0
outer loop
vertex -3.59389912216933 -39.9654883420381 18.970625
vertex 5.18948851132791 -44.0600557674175 18.970625
vertex 5.54642758367937 -41.0490133375846 18.970625
endloop
endfacet
facet normal 0.993046932376758 -0.117719115257934 0.0
outer loop
vertex 5.54642758367937 -41.0490133375846 17.7244375
vertex 5.18948851132791 -44.0600557674175 18.970625
vertex 5.18948851132791 -44.0600557674175 17.7244375
endloop
endfacet
facet normal 0.993046932376758 -0.117719115257934 0.0
outer loop
vertex 5.18948851132791 -44.0600557674175 18.970625
vertex 5.54642758367937 -41.0490133375846 17.7244375
vertex 5.54642758367937 -41.0490133375846 18.970625
endloop
endfacet
facet normal 0.117719115257936 0.993046932376758 0.0
outer loop
vertex -3.59389912216933 -39.9654883420381 18.970625
vertex 5.54642758367937 -41.0490133375846 17.7244375
vertex -3.59389912216933 -39.9654883420381 17.7244375
endloop
endfacet
facet normal 0.117719115257936 0.993046932376758 0.0
outer loop
vertex 5.54642758367937 -41.0490133375846 17.7244375
vertex -3.59389912216933 -39.9654883420381 18.970625
vertex 5.54642758367937 -41.0490133375846 18.970625
endloop
endfacet
facet normal -0.993046932376758 0.117719115257935 0.0
outer loop
vertex -3.59389912216933 -39.9654883420381 18.970625
vertex -3.9508381945208 -42.976530771871 17.7244375
vertex -3.9508381945208 -42.976530771871 18.970625
endloop
endfacet
facet normal -0.993046932376758 0.117719115257935 0.0
outer loop
vertex -3.9508381945208 -42.976530771871 17.7244375
vertex -3.59389912216933 -39.9654883420381 18.970625
vertex -3.59389912216933 -39.9654883420381 17.7244375
endloop
endfacet
facet normal -0.117719115257936 -0.993046932376758 -0.0
outer loop
vertex 5.18948851132791 -44.0600557674175 18.970625
vertex -3.9508381945208 -42.976530771871 17.7244375
vertex 5.18948851132791 -44.0600557674175 17.7244375
endloop
endfacet
facet normal -0.117719115257936 -0.993046932376758 -0.0
outer loop
vertex -3.9508381945208 -42.976530771871 17.7244375
vertex 5.18948851132791 -44.0600557674175 18.970625
vertex -3.9508381945208 -42.976530771871 18.970625
endloop
endfacet
facet normal -0.117719115257935 -0.993046932376758 6.63395624138462e-18
outer loop
vertex 30.9572815305434 -25.0321389236184 25.8143375
vertex -15.0711542620635 -19.5757737090923 0.0
vertex 30.9572815305434 -25.0321389236184 0.0
endloop
endfacet
facet normal -0.117719115257935 -0.993046932376758 6.63395624138462e-18
outer loop
vertex -15.0711542620635 -19.5757737090923 0.0
vertex 30.9572815305434 -25.0321389236184 25.8143375
vertex -15.0711542620635 -19.5757737090923 25.8143375
endloop
endfacet
facet normal 0.0 0.0 -1.0
outer loop
vertex 36.4153170402525 21.010387031865 0.0
vertex 35.2742742318135 2.06703489855809 0.0
vertex 34.0101830815283 0.721321025608907 0.0
endloop
endfacet
facet normal 0.0 0.0 -1.0
outer loop
vertex 35.2742742318135 2.06703489855809 0.0
vertex 36.4153170402525 21.010387031865 0.0
vertex 36.3746185412321 3.54963891339395 0.0
endloop
endfacet
facet normal 0.0 0.0 -1.0
outer loop
vertex 36.3746185412321 3.54963891339395 0.0
vertex 36.4153170402525 21.010387031865 0.0
vertex 37.2965123738593 5.14932138983772 0.0
endloop
endfacet
facet normal 0.0 0.0 -1.0
outer loop
vertex 37.2965123738593 5.14932138983772 0.0
vertex 36.4153170402525 21.010387031865 0.0
vertex 37.3297436356107 19.4064243559342 0.0
endloop
endfacet
facet normal 0.0 0.0 -1.0
outer loop
vertex 37.2965123738593 5.14932138983772 0.0
vertex 37.3297436356107 19.4064243559342 0.0
vertex 38.714296784819 5.16762172284893 0.0
endloop
endfacet
facet normal 0.0 0.0 -1.0
outer loop
vertex 38.714296784819 5.16762172284893 0.0
vertex 37.3297436356107 19.4064243559342 0.0
vertex 38.0529566476387 17.7076497377724 0.0
endloop
endfacet
facet normal 0.0 0.0 -1.0
outer loop
vertex 38.714296784819 5.16762172284893 0.0
vertex 38.0529566476387 17.7076497377724 0.0
vertex 38.5752919550849 15.9367634933534 0.0
endloop
endfacet
facet normal 0.0 0.0 -1.0
outer loop
vertex 38.714296784819 5.16762172284893 0.0
vertex 38.5752919550849 15.9367634933534 0.0
vertex 39.9495030084558 15.5874906502328 0.0
endloop
endfacet
facet normal 0.0 0.0 -1.0
outer loop
vertex 38.714296784819 5.16762172284893 0.0
vertex 39.9495030084558 15.5874906502328 0.0
vertex 40.0790348887599 5.55224809453996 0.0
endloop
endfacet
facet normal 0.0 0.0 -1.0
outer loop
vertex 40.0790348887599 5.55224809453996 0.0
vertex 39.9495030084558 15.5874906502328 0.0
vertex 41.1864904919421 14.8944469980384 0.0
endloop
endfacet
facet normal 0.0 0.0 -1.0
outer loop
vertex 40.0790348887599 5.55224809453996 0.0
vertex 41.1864904919421 14.8944469980384 0.0
vertex 41.2977220392349 6.27698885330522 0.0
endloop
endfacet
facet normal 0.0 0.0 -1.0
outer loop
vertex 41.2977220392349 6.27698885330522 0.0
vertex 41.1864904919421 14.8944469980384 0.0
vertex 42.2019557527624 13.9048623163584 0.0
endloop
endfacet
facet normal 0.0 0.0 -1.0
outer loop
vertex 41.2977220392349 6.27698885330522 0.0
vertex 42.2019557527624 13.9048623163584 0.0
vertex 42.2873067209149 7.29245411412557 0.0
endloop
endfacet
facet normal 0.0 0.0 -1.0
outer loop
vertex 42.2873067209149 7.29245411412557 0.0
vertex 42.2019557527624 13.9048623163584 0.0
vertex 42.9266965115277 12.6861751658834 0.0
endloop
endfacet
facet normal 0.0 0.0 -1.0
outer loop
vertex 42.2873067209149 7.29245411412557 0.0
vertex 42.9266965115277 12.6861751658834 0.0
vertex 42.9803503731093 8.5294415976118 0.0
endloop
endfacet
facet normal 0.0 0.0 -1.0
outer loop
vertex 42.9803503731093 8.5294415976118 0.0
vertex 42.9266965115277 12.6861751658834 0.0
vertex 43.3113228832187 11.3214370619425 0.0
endloop
endfacet
facet normal 0.0 0.0 -1.0
outer loop
vertex 42.9803503731093 8.5294415976118 0.0
vertex 43.3113228832187 11.3214370619425 0.0
vertex 43.3296232162299 9.90365265098279 0.0
endloop
endfacet
facet normal 0.959147282359646 0.282907212248302 -0.0
outer loop
vertex 38.0529566476387 17.7076497377724 0.0
vertex 38.5752919550849 15.9367634933534 27.8114125
vertex 38.5752919550849 15.9367634933534 0.0
endloop
endfacet
facet normal 0.959147282359646 0.282907212248302 -0.0
outer loop
vertex 38.5752919550849 15.9367634933534 27.8114125
vertex 38.0529566476387 17.7076497377724 0.0
vertex 38.0529566476387 17.7076497377724 27.8114125
endloop
endfacet
facet normal 0.246330646686895 0.96918585034183 -0.0
outer loop
vertex 38.5752919550849 15.9367634933534 27.8114125
vertex 39.9495030084558 15.5874906502328 0.0
vertex 38.5752919550849 15.9367634933534 0.0
endloop
endfacet
facet normal 0.246330646686895 0.96918585034183 -0.0
outer loop
vertex 39.9495030084558 15.5874906502328 0.0
vertex 38.5752919550849 15.9367634933534 27.8114125
vertex 39.9495030084558 15.5874906502328 27.8114125
endloop
endfacet
facet normal 0.488780889753702 0.872406580564119 -0.0
outer loop
vertex 39.9495030084558 15.5874906502328 27.8114125
vertex 41.1864904919421 14.8944469980384 0.0
vertex 39.9495030084558 15.5874906502328 0.0
endloop
endfacet
facet normal 0.488780889753702 0.872406580564119 -0.0
outer loop
vertex 41.1864904919421 14.8944469980384 0.0
vertex 39.9495030084558 15.5874906502328 27.8114125
vertex 41.1864904919421 14.8944469980384 27.8114125
endloop
endfacet
facet normal 0.697921522932413 0.716174244041002 -0.0
outer loop
vertex 41.1864904919421 14.8944469980384 27.8114125
vertex 42.2019557527624 13.9048623163584 0.0
vertex 41.1864904919421 14.8944469980384 0.0
endloop
endfacet
facet normal 0.697921522932413 0.716174244041002 -0.0
outer loop
vertex 42.2019557527624 13.9048623163584 0.0
vertex 41.1864904919421 14.8944469980384 27.8114125
vertex 42.2019557527624 13.9048623163584 27.8114125
endloop
endfacet
facet normal 0.859499957693129 0.511135816320388 -0.0
outer loop
vertex 42.2019557527624 13.9048623163584 0.0
vertex 42.9266965115277 12.6861751658834 27.8114125
vertex 42.9266965115277 12.6861751658834 0.0
endloop
endfacet
facet normal 0.859499957693129 0.511135816320388 -0.0
outer loop
vertex 42.9266965115277 12.6861751658834 27.8114125
vertex 42.2019557527624 13.9048623163584 0.0
vertex 42.2019557527624 13.9048623163584 27.8114125
endloop
endfacet
facet normal 0.962504890727894 0.271264327409418 -0.0
outer loop
vertex 42.9266965115277 12.6861751658834 0.0
vertex 43.3113228832187 11.3214370619425 27.8114125
vertex 43.3113228832187 11.3214370619425 0.0
endloop
endfacet
facet normal 0.962504890727894 0.271264327409418 -0.0
outer loop
vertex 43.3113228832187 11.3214370619425 27.8114125
vertex 42.9266965115277 12.6861751658834 0.0
vertex 42.9266965115277 12.6861751658834 27.8114125
endloop
endfacet
facet normal 0.999916706074094 0.0129066228709884 -0.0
outer loop
vertex 43.3113228832187 11.3214370619425 0.0
vertex 43.3296232162299 9.90365265098279 27.8114125
vertex 43.3296232162299 9.90365265098279 0.0
endloop
endfacet
facet normal 0.999916706074094 0.0129066228709884 -0.0
outer loop
vertex 43.3296232162299 9.90365265098279 27.8114125
vertex 43.3113228832187 11.3214370619425 0.0
vertex 43.3113228832187 11.3214370619425 27.8114125
endloop
endfacet
facet normal 0.969185850341831 -0.246330646686891 -0.0
outer loop
vertex 43.3296232162299 9.90365265098279 0.0
vertex 42.9803503731093 8.5294415976118 27.8114125
vertex 42.9803503731093 8.5294415976118 0.0
endloop
endfacet
facet normal 0.969185850341831 -0.246330646686891 -0.0
outer loop
vertex 42.9803503731093 8.5294415976118 27.8114125
vertex 43.3296232162299 9.90365265098279 0.0
vertex 43.3296232162299 9.90365265098279 27.8114125
endloop
endfacet
facet normal 0.872406580564117 -0.488780889753706 -0.0
outer loop
vertex 42.9803503731093 8.5294415976118 0.0
vertex 42.2873067209149 7.29245411412557 27.8114125
vertex 42.2873067209149 7.29245411412557 0.0
endloop
endfacet
facet normal 0.872406580564117 -0.488780889753706 -0.0
outer loop
vertex 42.2873067209149 7.29245411412557 27.8114125
vertex 42.9803503731093 8.5294415976118 0.0
vertex 42.9803503731093 8.5294415976118 27.8114125
endloop
endfacet
facet normal 0.716174244041003 -0.697921522932413 -0.0
outer loop
vertex 42.2873067209149 7.29245411412557 0.0
vertex 41.2977220392349 6.27698885330522 27.8114125
vertex 41.2977220392349 6.27698885330522 0.0
endloop
endfacet
facet normal 0.716174244041003 -0.697921522932413 -0.0
outer loop
vertex 41.2977220392349 6.27698885330522 27.8114125
vertex 42.2873067209149 7.29245411412557 0.0
vertex 42.2873067209149 7.29245411412557 27.8114125
endloop
endfacet
facet normal 0.511135816320388 -0.859499957693129 0.0
outer loop
vertex 41.2977220392349 6.27698885330522 27.8114125
vertex 40.0790348887599 5.55224809453996 0.0
vertex 41.2977220392349 6.27698885330522 0.0
endloop
endfacet
facet normal 0.511135816320388 -0.859499957693129 0.0
outer loop
vertex 40.0790348887599 5.55224809453996 0.0
vertex 41.2977220392349 6.27698885330522 27.8114125
vertex 40.0790348887599 5.55224809453996 27.8114125
endloop
endfacet
facet normal 0.271264327409417 -0.962504890727895 0.0
outer loop
vertex 40.0790348887599 5.55224809453996 27.8114125
vertex 38.714296784819 5.16762172284893 0.0
vertex 40.0790348887599 5.55224809453996 0.0
endloop
endfacet
facet normal 0.271264327409417 -0.962504890727895 0.0
outer loop
vertex 38.714296784819 5.16762172284893 0.0
vertex 40.0790348887599 5.55224809453996 27.8114125
vertex 38.714296784819 5.16762172284893 27.8114125
endloop
endfacet
facet normal 0.0129066228709894 -0.999916706074094 0.0
outer loop
vertex 38.714296784819 5.16762172284893 27.8114125
vertex 37.2965123738593 5.14932138983772 0.0
vertex 38.714296784819 5.16762172284893 0.0
endloop
endfacet
facet normal 0.0129066228709894 -0.999916706074094 0.0
outer loop
vertex 37.2965123738593 5.14932138983772 0.0
vertex 38.714296784819 5.16762172284893 27.8114125
vertex 37.2965123738593 5.14932138983772 27.8114125
endloop
endfacet
facet normal 0.866419909666623 -0.499316072376286 -0.0
outer loop
vertex 37.2965123738593 5.14932138983772 0.0
vertex 36.3746185412321 3.54963891339395 27.8114125
vertex 36.3746185412321 3.54963891339395 0.0
endloop
endfacet
facet normal 0.866419909666623 -0.499316072376286 -0.0
outer loop
vertex 36.3746185412321 3.54963891339395 27.8114125
vertex 37.2965123738593 5.14932138983772 0.0
vertex 37.2965123738593 5.14932138983772 27.8114125
endloop
endfacet
facet normal 0.803007881577314 -0.5959684069854 -0.0
outer loop
vertex 36.3746185412321 3.54963891339395 0.0
vertex 35.2742742318135 2.06703489855809 27.8114125
vertex 35.2742742318135 2.06703489855809 0.0
endloop
endfacet
facet normal 0.803007881577314 -0.5959684069854 -0.0
outer loop
vertex 35.2742742318135 2.06703489855809 27.8114125
vertex 36.3746185412321 3.54963891339395 0.0
vertex 36.3746185412321 3.54963891339395 27.8114125
endloop
endfacet
facet normal 0.728865452617673 -0.684656959345653 -0.0
outer loop
vertex 35.2742742318135 2.06703489855809 0.0
vertex 34.0101830815283 0.721321025608907 25.8143375
vertex 34.0101830815283 0.721321025608907 0.0
endloop
endfacet
facet normal 0.728865452617673 -0.684656959345653 -0.0
outer loop
vertex 34.0101830815283 0.721321025608907 25.8143375
vertex 35.2742742318135 2.06703489855809 0.0
vertex 34.0101830815283 0.721321025608907 27.8114125
endloop
endfacet
facet normal 0.728865452617673 -0.684656959345653 -0.0
outer loop
vertex 34.0101830815283 0.721321025608907 27.8114125
vertex 35.2742742318135 2.06703489855809 0.0
vertex 35.2742742318135 2.06703489855809 27.8114125
endloop
endfacet
facet normal 0.868738151009829 0.495271667855152 -0.0
outer loop
vertex 36.4153170402525 21.010387031865 0.0
vertex 37.3297436356107 19.4064243559342 27.8114125
vertex 37.3297436356107 19.4064243559342 0.0
endloop
endfacet
facet normal 0.868738151009829 0.495271667855152 -0.0
outer loop
vertex 37.3297436356107 19.4064243559342 27.8114125
vertex 36.4153170402525 21.010387031865 0.0
vertex 36.4153170402525 21.010387031865 27.8114125
endloop
endfacet
facet normal 0.868738151009829 0.495271667855152 -0.0
outer loop
vertex 36.4153170402525 21.010387031865 27.8114125
vertex 36.4153170402525 21.010387031865 0.0
vertex 36.4153170402525 21.010387031865 25.8143375
endloop
endfacet
facet normal 0.920090188450229 0.39170658038591 -0.0
outer loop
vertex 37.3297436356107 19.4064243559342 0.0
vertex 38.0529566476387 17.7076497377724 27.8114125
vertex 38.0529566476387 17.7076497377724 0.0
endloop
endfacet
facet normal 0.920090188450229 0.39170658038591 -0.0
outer loop
vertex 38.0529566476387 17.7076497377724 27.8114125
vertex 37.3297436356107 19.4064243559342 0.0
vertex 37.3297436356107 19.4064243559342 27.8114125
endloop
endfacet
facet normal 0.993046932376758 -0.117719115257935 -0.0
outer loop
vertex 37.4662804258322 29.87603271569 0.0
vertex 36.4153170402525 21.010387031865 25.8143375
vertex 36.4153170402525 21.010387031865 0.0
endloop
endfacet
facet normal 0.993046932376758 -0.117719115257935 -0.0
outer loop
vertex 36.4153170402525 21.010387031865 25.8143375
vertex 37.4662804258322 29.87603271569 0.0
vertex 37.4662804258322 29.87603271569 25.8143375
endloop
endfacet
facet normal 0.993046932376758 -0.117719115257935 -0.0
outer loop
vertex 36.4153170402525 21.010387031865 0.0
vertex 34.0101830815283 0.721321025608907 25.8143375
vertex 34.0101830815283 0.721321025608907 0.0
endloop
endfacet
facet normal 0.993046932376758 -0.117719115257935 -0.0
outer loop
vertex 34.0101830815283 0.721321025608907 25.8143375
vertex 36.4153170402525 21.010387031865 0.0
vertex 36.4153170402525 21.010387031865 25.8143375
endloop
endfacet
facet normal 0.0 0.0 1.0
outer loop
vertex 34.0101830815283 0.721321025608907 27.8114125
vertex 32.524608811547 21.4716046394898 27.8114125
vertex 30.1194748528227 1.18253863323373 27.8114125
endloop
endfacet
facet normal 0.0 0.0 1.0
outer loop
vertex 32.524608811547 21.4716046394898 27.8114125
vertex 34.0101830815283 0.721321025608907 27.8114125
vertex 36.4153170402525 21.010387031865 27.8114125
endloop
endfacet
facet normal 0.0 0.0 1.0
outer loop
vertex 36.4153170402525 21.010387031865 27.8114125
vertex 34.0101830815283 0.721321025608907 27.8114125
vertex 35.2742742318135 2.06703489855809 27.8114125
endloop
endfacet
facet normal 0.0 0.0 1.0
outer loop
vertex 36.4153170402525 21.010387031865 27.8114125
vertex 35.2742742318135 2.06703489855809 27.8114125
vertex 36.3746185412321 3.54963891339395 27.8114125
endloop
endfacet
facet normal 0.0 0.0 1.0
outer loop
vertex 36.4153170402525 21.010387031865 27.8114125
vertex 36.3746185412321 3.54963891339395 27.8114125
vertex 37.2965123738593 5.14932138983772 27.8114125
endloop
endfacet
facet normal 0.0 0.0 1.0
outer loop
vertex 36.4153170402525 21.010387031865 27.8114125
vertex 37.2965123738593 5.14932138983772 27.8114125
vertex 37.3297436356107 19.4064243559342 27.8114125
endloop
endfacet
facet normal 0.0 0.0 1.0
outer loop
vertex 37.3297436356107 19.4064243559342 27.8114125
vertex 37.2965123738593 5.14932138983772 27.8114125
vertex 38.714296784819 5.16762172284893 27.8114125
endloop
endfacet
facet normal 0.0 0.0 1.0
outer loop
vertex 37.3297436356107 19.4064243559342 27.8114125
vertex 38.714296784819 5.16762172284893 27.8114125
vertex 38.0529566476387 17.7076497377724 27.8114125
endloop
endfacet
facet normal 0.0 0.0 1.0
outer loop
vertex 38.0529566476387 17.7076497377724 27.8114125
vertex 38.714296784819 5.16762172284893 27.8114125
vertex 38.5752919550849 15.9367634933534 27.8114125
endloop
endfacet
facet normal 0.0 0.0 1.0
outer loop
vertex 38.5752919550849 15.9367634933534 27.8114125
vertex 38.714296784819 5.16762172284893 27.8114125
vertex 39.9495030084558 15.5874906502328 27.8114125
endloop
endfacet
facet normal 0.0 0.0 1.0
outer loop
vertex 39.9495030084558 15.5874906502328 27.8114125
vertex 38.714296784819 5.16762172284893 27.8114125
vertex 40.0790348887599 5.55224809453996 27.8114125
endloop
endfacet
facet normal 0.0 0.0 1.0
outer loop
vertex 39.9495030084558 15.5874906502328 27.8114125
vertex 40.0790348887599 5.55224809453996 27.8114125
vertex 41.1864904919421 14.8944469980384 27.8114125
endloop
endfacet
facet normal 0.0 0.0 1.0
outer loop
vertex 41.1864904919421 14.8944469980384 27.8114125
vertex 40.0790348887599 5.55224809453996 27.8114125
vertex 41.2977220392349 6.27698885330522 27.8114125
endloop
endfacet
facet normal 0.0 0.0 1.0
outer loop
vertex 41.1864904919421 14.8944469980384 27.8114125
vertex 41.2977220392349 6.27698885330522 27.8114125
vertex 42.2019557527624 13.9048623163584 27.8114125
endloop
endfacet
facet normal 0.0 0.0 1.0
outer loop
vertex 42.2019557527624 13.9048623163584 27.8114125
vertex 41.2977220392349 6.27698885330522 27.8114125
vertex 42.2873067209149 7.29245411412557 27.8114125
endloop
endfacet
facet normal 0.0 0.0 1.0
outer loop
vertex 42.2019557527624 13.9048623163584 27.8114125
vertex 42.2873067209149 7.29245411412557 27.8114125
vertex 42.9266965115277 12.6861751658834 27.8114125
endloop
endfacet
facet normal 0.0 0.0 1.0
outer loop
vertex 42.9266965115277 12.6861751658834 27.8114125
vertex 42.2873067209149 7.29245411412557 27.8114125
vertex 42.9803503731093 8.5294415976118 27.8114125
endloop
endfacet
facet normal 0.0 0.0 1.0
outer loop
vertex 42.9266965115277 12.6861751658834 27.8114125
vertex 42.9803503731093 8.5294415976118 27.8114125
vertex 43.3113228832187 11.3214370619425 27.8114125
endloop
endfacet
facet normal 0.0 0.0 1.0
outer loop
vertex 43.3113228832187 11.3214370619425 27.8114125
vertex 42.9803503731093 8.5294415976118 27.8114125
vertex 43.3296232162299 9.90365265098279 27.8114125
endloop
endfacet
facet normal -0.993046932376758 0.117719115257935 0.0
outer loop
vertex 32.524608811547 21.4716046394898 27.8114125
vertex 30.1194748528227 1.18253863323373 25.8143375
vertex 30.1194748528227 1.18253863323373 27.8114125
endloop
endfacet
facet normal -0.993046932376758 0.117719115257935 0.0
outer loop
vertex 30.1194748528227 1.18253863323373 25.8143375
vertex 32.524608811547 21.4716046394898 27.8114125
vertex 32.524608811547 21.4716046394898 25.8143375
endloop
endfacet
facet normal 0.0 -0.0 1.0
outer loop
vertex 34.0101830815283 0.721321025608907 25.8143375
vertex 32.524608811547 21.4716046394898 25.8143375
vertex 30.1194748528227 1.18253863323373 25.8143375
endloop
endfacet
facet normal 0.0 -0.0 1.0
outer loop
vertex 32.524608811547 21.4716046394898 25.8143375
vertex 34.0101830815283 0.721321025608907 25.8143375
vertex 36.4153170402525 21.010387031865 25.8143375
endloop
endfacet
facet normal -0.117719115257935 -0.993046932376758 0.0
outer loop
vertex 34.0101830815283 0.721321025608907 27.8114125
vertex 30.1194748528227 1.18253863323373 25.8143375
vertex 34.0101830815283 0.721321025608907 25.8143375
endloop
endfacet
facet normal -0.117719115257935 -0.993046932376758 0.0
outer loop
vertex 30.1194748528227 1.18253863323373 25.8143375
vertex 34.0101830815283 0.721321025608907 27.8114125
vertex 30.1194748528227 1.18253863323373 27.8114125
endloop
endfacet
facet normal 0.117719115257935 0.993046932376758 0.0
outer loop
vertex 32.524608811547 21.4716046394898 27.8114125
vertex 36.4153170402525 21.010387031865 25.8143375
vertex 32.524608811547 21.4716046394898 25.8143375
endloop
endfacet
facet normal 0.117719115257935 0.993046932376758 0.0
outer loop
vertex 36.4153170402525 21.010387031865 25.8143375
vertex 32.524608811547 21.4716046394898 27.8114125
vertex 36.4153170402525 21.010387031865 27.8114125
endloop
endfacet
facet normal 0.0 0.0 -1.0
outer loop
vertex -22.6981241750455 16.1434292754277 0.0
vertex -22.6413028468927 12.8194271284242 0.0
vertex -22.7821404834723 14.4795063470007 0.0
endloop
endfacet
facet normal 0.0 0.0 -1.0
outer loop
vertex -22.6413028468927 12.8194271284242 0.0
vertex -22.6981241750455 16.1434292754277 0.0
vertex -22.3907847244359 17.7808787292814 0.0
endloop
endfacet
facet normal 0.0 0.0 -1.0
outer loop
vertex -22.6413028468927 12.8194271284242 0.0
vertex -22.3907847244359 17.7808787292814 0.0
vertex -22.2781773700998 11.1934387705536 0.0
endloop
endfacet
facet normal 0.0 0.0 -1.0
outer loop
vertex -22.2781773700998 11.1934387705536 0.0
vertex -22.3907847244359 17.7808787292814 0.0
vertex -21.8657219503886 19.3620198789377 0.0
endloop
endfacet
facet normal 0.0 0.0 -1.0
outer loop
vertex -22.2781773700998 11.1934387705536 0.0
vertex -21.8657219503886 19.3620198789377 0.0
vertex -21.6993803102897 9.63116727834047 0.0
endloop
endfacet
facet normal 0.0 0.0 -1.0
outer loop
vertex -21.6993803102897 9.63116727834047 0.0
vertex -21.8657219503886 19.3620198789377 0.0
vertex -21.1325026571605 20.8580438492887 0.0
endloop
endfacet
facet normal 0.0 0.0 -1.0
outer loop
vertex -21.6993803102897 9.63116727834047 0.0
vertex -21.1325026571605 20.8580438492887 0.0
vertex -20.9154575268327 8.16107771596552 0.0
endloop
endfacet
facet normal 0.0 0.0 -1.0
outer loop
vertex -20.9154575268327 8.16107771596552 0.0
vertex -21.1325026571605 20.8580438492887 0.0
vertex -20.2044863244222 22.2416926262541 0.0
endloop
endfacet
facet normal 0.0 0.0 -1.0
outer loop
vertex -20.9154575268327 8.16107771596552 0.0
vertex -20.2044863244222 22.2416926262541 0.0
vertex -19.9406923324916 6.80995556466753 0.0
endloop
endfacet
facet normal 0.0 0.0 -1.0
outer loop
vertex -19.9406923324916 6.80995556466753 0.0
vertex -20.2044863244222 22.2416926262541 0.0
vertex -19.0985816934546 23.4877557061306 0.0
endloop
endfacet
facet normal 0.0 0.0 -1.0
outer loop
vertex -19.9406923324916 6.80995556466753 0.0
vertex -19.0985816934546 23.4877557061306 0.0
vertex -17.8349386847135 24.5735294386764 0.0
endloop
endfacet
facet normal -0.651708229151942 0.758469764760363 -0.0
outer loop
vertex -19.0985816934546 23.4877557061306 25.8143375
vertex -17.8349386847135 24.5735294386764 0.0
vertex -19.0985816934546 23.4877557061306 0.0
endloop
endfacet
facet normal -0.651708229151942 0.758469764760363 -0.0
outer loop
vertex -17.8349386847135 24.5735294386764 0.0
vertex -19.0985816934546 23.4877557061306 25.8143375
vertex -17.8349386847135 24.5735294386764 25.8143375
endloop
endfacet
facet normal -0.810976908168368 -0.585078160947471 0.0
outer loop
vertex -20.9154575268327 8.16107771596552 25.8143375
vertex -19.9406923324916 6.80995556466753 0.0
vertex -19.9406923324916 6.80995556466753 25.8143375
endloop
endfacet
facet normal -0.810976908168368 -0.585078160947471 0.0
outer loop
vertex -19.9406923324916 6.80995556466753 0.0
vertex -20.9154575268327 8.16107771596552 25.8143375
vertex -20.9154575268327 8.16107771596552 0.0
endloop
endfacet
facet normal -0.882384088574152 -0.470529829268201 -0.0
outer loop
vertex -21.6993803102897 9.63116727834047 25.8143375
vertex -20.9154575268327 8.16107771596552 0.0
vertex -20.9154575268327 8.16107771596552 25.8143375
endloop
endfacet
facet normal -0.882384088574152 -0.470529829268201 -0.0
outer loop
vertex -20.9154575268327 8.16107771596552 0.0
vertex -21.6993803102897 9.63116727834047 25.8143375
vertex -21.6993803102897 9.63116727834047 0.0
endloop
endfacet
facet normal -0.937713961137762 -0.347408300256814 -0.0
outer loop
vertex -22.2781773700998 11.1934387705536 25.8143375
vertex -21.6993803102897 9.63116727834047 0.0
vertex -21.6993803102897 9.63116727834047 25.8143375
endloop
endfacet
facet normal -0.937713961137762 -0.347408300256814 -0.0
outer loop
vertex -21.6993803102897 9.63116727834047 0.0
vertex -22.2781773700998 11.1934387705536 25.8143375
vertex -22.2781773700998 11.1934387705536 0.0
endloop
endfacet
facet normal -0.975958398666526 -0.217956885810635 -0.0
outer loop
vertex -22.6413028468927 12.8194271284242 25.8143375
vertex -22.2781773700998 11.1934387705536 0.0
vertex -22.2781773700998 11.1934387705536 25.8143375
endloop
endfacet
facet normal -0.975958398666526 -0.217956885810635 -0.0
outer loop
vertex -22.2781773700998 11.1934387705536 0.0
vertex -22.6413028468927 12.8194271284242 25.8143375
vertex -22.6413028468927 12.8194271284242 0.0
endloop
endfacet
facet normal -0.996420575817192 -0.0845342302746948 -0.0
outer loop
vertex -22.7821404834723 14.4795063470007 25.8143375
vertex -22.6413028468927 12.8194271284242 0.0
vertex -22.6413028468927 12.8194271284242 25.8143375
endloop
endfacet
facet normal -0.996420575817192 -0.0845342302746948 -0.0
outer loop
vertex -22.6413028468927 12.8194271284242 0.0
vertex -22.7821404834723 14.4795063470007 25.8143375
vertex -22.7821404834723 14.4795063470007 0.0
endloop
endfacet
facet normal -0.998727665466706 0.0504286647793083 0.0
outer loop
vertex -22.6981241750455 16.1434292754277 25.8143375
vertex -22.7821404834723 14.4795063470007 0.0
vertex -22.7821404834723 14.4795063470007 25.8143375
endloop
endfacet
facet normal -0.998727665466706 0.0504286647793083 0.0
outer loop
vertex -22.7821404834723 14.4795063470007 0.0
vertex -22.6981241750455 16.1434292754277 25.8143375
vertex -22.6981241750455 16.1434292754277 0.0
endloop
endfacet
facet normal -0.982837631736366 0.184472734144782 0.0
outer loop
vertex -22.3907847244359 17.7808787292814 25.8143375
vertex -22.6981241750455 16.1434292754277 0.0
vertex -22.6981241750455 16.1434292754277 25.8143375
endloop
endfacet
facet normal -0.982837631736366 0.184472734144782 0.0
outer loop
vertex -22.6981241750455 16.1434292754277 0.0
vertex -22.3907847244359 17.7808787292814 25.8143375
vertex -22.3907847244359 17.7808787292814 0.0
endloop
endfacet
facet normal -0.949039995898387 0.315155653900083 0.0
outer loop
vertex -21.8657219503886 19.3620198789377 25.8143375
vertex -22.3907847244359 17.7808787292814 0.0
vertex -22.3907847244359 17.7808787292814 25.8143375
endloop
endfacet
facet normal -0.949039995898387 0.315155653900083 0.0
outer loop
vertex -22.3907847244359 17.7808787292814 0.0
vertex -21.8657219503886 19.3620198789377 25.8143375
vertex -21.8657219503886 19.3620198789377 0.0
endloop
endfacet
facet normal -0.897950561209809 0.440096341296982 0.0
outer loop
vertex -21.1325026571605 20.8580438492887 25.8143375
vertex -21.8657219503886 19.3620198789377 0.0
vertex -21.8657219503886 19.3620198789377 25.8143375
endloop
endfacet
facet normal -0.897950561209809 0.440096341296982 0.0
outer loop
vertex -21.8657219503886 19.3620198789377 0.0
vertex -21.1325026571605 20.8580438492887 25.8143375
vertex -21.1325026571605 20.8580438492887 0.0
endloop
endfacet
facet normal -0.830500192788902 0.557018338816234 0.0
outer loop
vertex -20.2044863244222 22.2416926262541 25.8143375
vertex -21.1325026571605 20.8580438492887 0.0
vertex -21.1325026571605 20.8580438492887 25.8143375
endloop
endfacet
facet normal -0.830500192788902 0.557018338816234 0.0
outer loop
vertex -21.1325026571605 20.8580438492887 0.0
vertex -20.2044863244222 22.2416926262541 25.8143375
vertex -20.2044863244222 22.2416926262541 0.0
endloop
endfacet
facet normal -0.747917856968146 0.663791291919513 0.0
outer loop
vertex -19.0985816934546 23.4877557061306 25.8143375
vertex -20.2044863244222 22.2416926262541 0.0
vertex -20.2044863244222 22.2416926262541 25.8143375
endloop
endfacet
facet normal -0.747917856968146 0.663791291919513 0.0
outer loop
vertex -20.2044863244222 22.2416926262541 0.0
vertex -19.0985816934546 23.4877557061306 25.8143375
vertex -19.0985816934546 23.4877557061306 0.0
endloop
endfacet
facet normal -0.0 -0.0 1.0
outer loop
vertex -22.6413028468927 12.8194271284242 25.8143375
vertex -22.6981241750455 16.1434292754277 25.8143375
vertex -22.7821404834723 14.4795063470007 25.8143375
endloop
endfacet
facet normal -0.0 -0.0 1.0
outer loop
vertex -22.6981241750455 16.1434292754277 25.8143375
vertex -22.6413028468927 12.8194271284242 25.8143375
vertex -22.3907847244359 17.7808787292814 25.8143375
endloop
endfacet
facet normal -0.0 -0.0 1.0
outer loop
vertex -22.3907847244359 17.7808787292814 25.8143375
vertex -22.6413028468927 12.8194271284242 25.8143375
vertex -22.2781773700998 11.1934387705536 25.8143375
endloop
endfacet
facet normal -0.0 -0.0 1.0
outer loop
vertex -22.3907847244359 17.7808787292814 25.8143375
vertex -22.2781773700998 11.1934387705536 25.8143375
vertex -21.8657219503886 19.3620198789377 25.8143375
endloop
endfacet
facet normal -0.0 -0.0 1.0
outer loop
vertex -21.8657219503886 19.3620198789377 25.8143375
vertex -22.2781773700998 11.1934387705536 25.8143375
vertex -21.6993803102897 9.63116727834047 25.8143375
endloop
endfacet
facet normal -0.0 -0.0 1.0
outer loop
vertex -21.8657219503886 19.3620198789377 25.8143375
vertex -21.6993803102897 9.63116727834047 25.8143375
vertex -21.1325026571605 20.8580438492887 25.8143375
endloop
endfacet
facet normal -0.0 -0.0 1.0
outer loop
vertex -21.1325026571605 20.8580438492887 25.8143375
vertex -21.6993803102897 9.63116727834047 25.8143375
vertex -20.9154575268327 8.16107771596552 25.8143375
endloop
endfacet
facet normal -0.0 -0.0 1.0
outer loop
vertex -21.1325026571605 20.8580438492887 25.8143375
vertex -20.9154575268327 8.16107771596552 25.8143375
vertex -20.2044863244222 22.2416926262541 25.8143375
endloop
endfacet
facet normal -0.0 -0.0 1.0
outer loop
vertex -20.2044863244222 22.2416926262541 25.8143375
vertex -20.9154575268327 8.16107771596552 25.8143375
vertex -19.9406923324916 6.80995556466753 25.8143375
endloop
endfacet
facet normal -0.0 -0.0 1.0
outer loop
vertex -20.2044863244222 22.2416926262541 25.8143375
vertex -19.9406923324916 6.80995556466753 25.8143375
vertex -19.0985816934546 23.4877557061306 25.8143375
endloop
endfacet
facet normal -0.0 -0.0 1.0
outer loop
vertex -19.0985816934546 23.4877557061306 25.8143375
vertex -19.9406923324916 6.80995556466753 25.8143375
vertex -17.8349386847135 24.5735294386764 25.8143375
endloop
endfacet
facet normal -0.993046932376758 0.117719115257936 -4.81771402939094e-19
outer loop
vertex -17.8349386847135 24.5735294386764 25.8143375
vertex -19.9406923324916 6.80995556466753 0.0
vertex -19.9406923324916 6.80995556466753 25.8143375
endloop
endfacet
facet normal -0.993046932376758 0.117719115257936 -4.81771402939094e-19
outer loop
vertex -19.9406923324916 6.80995556466753 0.0
vertex -17.8349386847135 24.5735294386764 25.8143375
vertex -17.8349386847135 24.5735294386764 0.0
endloop
endfacet
facet normal -0.993046932376758 0.117719115257936 -4.81771402939094e-19
outer loop
vertex -17.8349386847135 24.5735294386764 0.0
vertex -17.8349386847135 24.5735294386764 25.8143375
vertex -16.4487201502329 36.2672977808314 25.8143375
endloop
endfacet
facet normal -0.993046932376758 0.117719115257936 -4.81771402939094e-19
outer loop
vertex -17.8349386847135 24.5735294386764 0.0
vertex -16.4487201502329 36.2672977808314 25.8143375
vertex -16.4487201502329 36.2672977808314 0.0
endloop
endfacet
facet normal 0.993046932376758 -0.117719115257936 -0.0
outer loop
vertex -17.8349386847135 24.5735294386764 0.0
vertex -19.9406923324916 6.80995556466753 25.8143375
vertex -19.9406923324916 6.80995556466753 0.0
endloop
endfacet
facet normal 0.993046932376758 -0.117719115257936 -0.0
outer loop
vertex -19.9406923324916 6.80995556466753 25.8143375
vertex -17.8349386847135 24.5735294386764 0.0
vertex -17.8349386847135 24.5735294386764 25.8143375
endloop
endfacet
facet normal -0.993046932376758 0.117719115257936 7.22657104408644e-19
outer loop
vertex -19.9406923324916 6.80995556466753 25.8143375
vertex -22.9577190455217 -18.640873858477 0.0
vertex -22.9577190455217 -18.640873858477 25.8143375
endloop
endfacet
facet normal -0.993046932376758 0.117719115257936 7.22657104408644e-19
outer loop
vertex -22.9577190455217 -18.640873858477 0.0
vertex -19.9406923324916 6.80995556466753 25.8143375
vertex -19.9406923324916 6.80995556466753 0.0
endloop
endfacet
endsolid Republic Bank and garage
