solid Republic Plaza
facet normal 0.0 0.0 1.0
outer loop
vertex 51.0967958099205 29.8223491781981 27.016075
vertex 38.2071076758976 38.4654950613052 27.016075
vertex 37.4165959420456 31.3400615361684 27.016075
endloop
endfacet
facet normal 0.0 0.0 1.0
outer loop
vertex 38.2071076758976 38.4654950613052 27.016075
vertex 51.0967958099205 29.8223491781981 27.016075
vertex 51.8873075437726 36.9477827033348 27.016075
endloop
endfacet
facet normal 0.0 0.0 1.0
outer loop
vertex 36.8232871473225 25.9921556220108 27.016075
vertex 32.2108535563039 43.4161273095929 27.016075
vertex 30.3573822345655 26.7094977578225 27.016075
endloop
endfacet
facet normal 0.0 0.0 1.0
outer loop
vertex 32.2108535563039 43.4161273095929 27.016075
vertex 36.8232871473225 25.9921556220108 27.016075
vertex 38.2071076758976 38.4654950613052 27.016075
endloop
endfacet
facet normal 0.0 0.0 1.0
outer loop
vertex 32.2108535563039 43.4161273095929 27.016075
vertex 38.2071076758976 38.4654950613052 27.016075
vertex 38.6767584690608 42.6987851737812 27.016075
endloop
endfacet
facet normal 0.0 0.0 1.0
outer loop
vertex 38.2071076758976 38.4654950613052 27.016075
vertex 36.8232871473225 25.9921556220108 27.016075
vertex 37.4165959420456 31.3400615361684 27.016075
endloop
endfacet
facet normal 0.993902139742747 -0.110265754496984 -0.0
outer loop
vertex -62.288379852045 10.6275739895992 19.192875
vertex -68.4230359241906 -44.6683592265303 20.926425
vertex -68.4230359241906 -44.6683592265303 19.192875
endloop
endfacet
facet normal 0.993902139742747 -0.110265754496984 -0.0
outer loop
vertex -68.4230359241906 -44.6683592265303 20.926425
vertex -62.288379852045 10.6275739895992 19.192875
vertex -62.288379852045 10.6275739895992 20.926425
endloop
endfacet
facet normal 0.993902139742747 -0.110265754496984 -0.0
outer loop
vertex 2.67292446510515 3.42061975616453 19.192875
vertex 1.94052829716073 -3.18097764622077 20.926425
vertex 1.94052829716073 -3.18097764622077 19.192875
endloop
endfacet
facet normal 0.993902139742747 -0.110265754496984 -0.0
outer loop
vertex 1.94052829716073 -3.18097764622077 20.926425
vertex 2.67292446510515 3.42061975616453 19.192875
vertex 2.67292446510515 3.42061975616453 20.926425
endloop
endfacet
facet normal 0.439704436134856 -0.898142532587856 0.0
outer loop
vertex -11.53828643489 -45.2690392933208 20.926425
vertex -12.8238893117236 -45.8984330337806 0.0
vertex -11.53828643489 -45.2690392933208 0.0
endloop
endfacet
facet normal 0.439704436134856 -0.898142532587856 0.0
outer loop
vertex -12.8238893117236 -45.8984330337806 0.0
vertex -11.53828643489 -45.2690392933208 20.926425
vertex -12.8238893117236 -45.8984330337806 20.926425
endloop
endfacet
facet normal -0.993902139742747 0.110265754496984 -0.0
outer loop
vertex -2.58154908595901 4.00356295290874 20.926425
vertex -3.31394525390343 -2.59803444947656 19.192875
vertex -3.31394525390343 -2.59803444947656 20.926425
endloop
endfacet
facet normal -0.993902139742747 0.110265754496984 -0.0
outer loop
vertex -3.31394525390343 -2.59803444947656 19.192875
vertex -2.58154908595901 4.00356295290874 20.926425
vertex -2.58154908595901 4.00356295290874 19.192875
endloop
endfacet
facet normal 0.578521809757815 -0.815666914637674 0.0
outer loop
vertex -10.3707393096306 -44.4409421083533 20.926425
vertex -11.53828643489 -45.2690392933208 0.0
vertex -10.3707393096306 -44.4409421083533 0.0
endloop
endfacet
facet normal 0.578521809757815 -0.815666914637674 0.0
outer loop
vertex -11.53828643489 -45.2690392933208 0.0
vertex -10.3707393096306 -44.4409421083533 20.926425
vertex -11.53828643489 -45.2690392933208 20.926425
endloop
endfacet
facet normal 0.131595334000826 -0.991303519649361 0.0
outer loop
vertex -14.1940290709838 -46.31271346724 20.926425
vertex -15.6129827564355 -46.5010792709192 0.0
vertex -14.1940290709838 -46.31271346724 0.0
endloop
endfacet
facet normal 0.131595334000826 -0.991303519649361 0.0
outer loop
vertex -15.6129827564355 -46.5010792709192 0.0
vertex -14.1940290709838 -46.31271346724 20.926425
vertex -15.6129827564355 -46.5010792709192 20.926425
endloop
endfacet
facet normal -0.999872111096553 -0.0159925436163945 -0.0
outer loop
vertex -8.19743662707148 -36.883629158958 20.926425
vertex -8.1770212400903 -38.1600224938369 19.192875
vertex -8.1770212400903 -38.1600224938369 20.926425
endloop
endfacet
facet normal -0.999872111096553 -0.0159925436163945 -0.0
outer loop
vertex -8.1770212400903 -38.1600224938369 19.192875
vertex -8.19743662707148 -36.883629158958 20.926425
vertex -8.19743662707148 -36.883629158958 19.192875
endloop
endfacet
facet normal 0.110265754496984 0.993902139742747 0.0
outer loop
vertex 1.82830673350221 4.47603100644049 20.926425
vertex 60.2044780273481 -2.0003536545556 0.0
vertex 1.82830673350221 4.47603100644049 0.0
endloop
endfacet
facet normal 0.110265754496984 0.993902139742747 0.0
outer loop
vertex 60.2044780273481 -2.0003536545556 0.0
vertex 1.82830673350221 4.47603100644049 20.926425
vertex 60.2044780273481 -2.0003536545556 20.926425
endloop
endfacet
facet normal 0.702255678832245 -0.711924828579438 0.0
outer loop
vertex -9.35168879759902 -43.4357320350945 20.926425
vertex -10.3707393096306 -44.4409421083533 0.0
vertex -9.35168879759902 -43.4357320350945 0.0
endloop
endfacet
facet normal 0.702255678832245 -0.711924828579438 0.0
outer loop
vertex -10.3707393096306 -44.4409421083533 0.0
vertex -9.35168879759902 -43.4357320350945 20.926425
vertex -10.3707393096306 -44.4409421083533 20.926425
endloop
endfacet
facet normal -0.993902139742747 0.110265754496984 -4.78169312343354e-17
outer loop
vertex 30.3573822345655 26.7094977578225 27.016075
vertex 32.2108535563039 43.4161273095929 18.1594125
vertex 30.3573822345655 26.7094977578225 18.1594125
endloop
endfacet
facet normal -0.993902139742747 0.110265754496984 -4.78169312343354e-17
outer loop
vertex 32.2108535563039 43.4161273095929 18.1594125
vertex 30.3573822345655 26.7094977578225 27.016075
vertex 32.2108535563039 43.4161273095929 27.016075
endloop
endfacet
facet normal -0.989411415770957 0.145138038921952 -0.0
outer loop
vertex -8.1770212400903 -38.1600224938369 20.926425
vertex -8.36229816046985 -39.4230621591379 19.192875
vertex -8.36229816046985 -39.4230621591379 20.926425
endloop
endfacet
facet normal -0.989411415770957 0.145138038921952 -0.0
outer loop
vertex -8.36229816046985 -39.4230621591379 19.192875
vertex -8.1770212400903 -38.1600224938369 20.926425
vertex -8.1770212400903 -38.1600224938369 19.192875
endloop
endfacet
facet normal -0.131595334000825 0.991303519649361 -0.0
outer loop
vertex -15.6620179256861 -45.5433601967636 20.926425
vertex -14.3965628827058 -45.3753713056286 19.192875
vertex -15.6620179256861 -45.5433601967636 19.192875
endloop
endfacet
facet normal -0.131595334000825 0.991303519649361 -0.0
outer loop
vertex -14.3965628827058 -45.3753713056286 19.192875
vertex -15.6620179256861 -45.5433601967636 20.926425
vertex -14.3965628827058 -45.3753713056286 20.926425
endloop
endfacet
facet normal -0.110265754496984 -0.993902139742747 -0.0
outer loop
vertex -2.58154908595901 4.00356295290874 20.926425
vertex -62.288379852045 10.6275739895992 19.192875
vertex -2.58154908595901 4.00356295290874 19.192875
endloop
endfacet
facet normal -0.110265754496984 -0.993902139742747 -0.0
outer loop
vertex -62.288379852045 10.6275739895992 19.192875
vertex -2.58154908595901 4.00356295290874 20.926425
vertex -62.288379852045 10.6275739895992 20.926425
endloop
endfacet
facet normal -0.953154300434162 0.302484511279278 -0.0
outer loop
vertex -8.36229816046985 -39.4230621591379 20.926425
vertex -8.74843675741258 -40.6398175648378 19.192875
vertex -8.74843675741258 -40.6398175648378 20.926425
endloop
endfacet
facet normal -0.953154300434162 0.302484511279278 -0.0
outer loop
vertex -8.74843675741258 -40.6398175648378 19.192875
vertex -8.36229816046985 -39.4230621591379 20.926425
vertex -8.36229816046985 -39.4230621591379 19.192875
endloop
endfacet
facet normal 0.110265754496984 0.993902139742747 0.0
outer loop
vertex -23.3949630102837 -44.7922943992919 20.926425
vertex -16.9767703067009 -45.5043432345533 19.192875
vertex -23.3949630102837 -44.7922943992919 19.192875
endloop
endfacet
facet normal 0.110265754496984 0.993902139742747 0.0
outer loop
vertex -16.9767703067009 -45.5043432345533 19.192875
vertex -23.3949630102837 -44.7922943992919 20.926425
vertex -16.9767703067009 -45.5043432345533 20.926425
endloop
endfacet
facet normal -0.993902139742747 0.110265754496985 0.0
outer loop
vertex 40.6048987422764 60.0784580560408 24.7396
vertex 38.6767584690608 42.6987851737812 18.1594125
vertex 38.6767584690608 42.6987851737812 24.7396
endloop
endfacet
facet normal -0.993902139742747 0.110265754496985 0.0
outer loop
vertex 38.6767584690608 42.6987851737812 18.1594125
vertex 40.6048987422764 60.0784580560408 24.7396
vertex 40.6048987422764 60.0784580560408 18.1594125
endloop
endfacet
facet normal -0.110265754496984 -0.993902139742747 -0.0
outer loop
vertex 59.1490667770722 -2.84497138615854 20.926425
vertex 2.67292446510515 3.42061975616453 19.192875
vertex 59.1490667770722 -2.84497138615854 19.192875
endloop
endfacet
facet normal -0.110265754496984 -0.993902139742747 -0.0
outer loop
vertex 2.67292446510515 3.42061975616453 19.192875
vertex 59.1490667770722 -2.84497138615854 20.926425
vertex 2.67292446510515 3.42061975616453 20.926425
endloop
endfacet
facet normal -0.993902139742747 0.110265754496984 -0.0
outer loop
vertex 59.1490667770722 -2.84497138615854 20.926425
vertex 52.9632970144295 -58.6016279391658 19.192875
vertex 52.9632970144295 -58.6016279391658 20.926425
endloop
endfacet
facet normal -0.993902139742747 0.110265754496984 -0.0
outer loop
vertex 52.9632970144295 -58.6016279391658 19.192875
vertex 59.1490667770722 -2.84497138615854 20.926425
vertex 59.1490667770722 -2.84497138615854 19.192875
endloop
endfacet
facet normal 0.993902139742747 -0.110265754496984 0.0
outer loop
vertex -1.52613783568305 4.84818068451168 0.0
vertex -2.25853400362747 -1.75341671787362 20.926425
vertex -2.25853400362747 -1.75341671787362 0.0
endloop
endfacet
facet normal 0.993902139742747 -0.110265754496984 0.0
outer loop
vertex -2.25853400362747 -1.75341671787362 20.926425
vertex -1.52613783568305 4.84818068451168 0.0
vertex -1.52613783568305 4.84818068451168 20.926425
endloop
endfacet
facet normal 0.807679993198037 -0.589621088994975 0.0
outer loop
vertex -8.50770408387036 -42.2796174039073 0.0
vertex -9.35168879759902 -43.4357320350945 20.926425
vertex -9.35168879759902 -43.4357320350945 0.0
endloop
endfacet
facet normal 0.807679993198037 -0.589621088994975 0.0
outer loop
vertex -9.35168879759902 -43.4357320350945 20.926425
vertex -8.50770408387036 -42.2796174039073 0.0
vertex -8.50770408387036 -42.2796174039073 20.926425
endloop
endfacet
facet normal 0.110265754496985 0.993902139742747 -3.58729839746327e-16
outer loop
vertex 2.16447868627425 64.3431253217267 18.1594125
vertex 53.6635434681964 58.6297024332948 0.0
vertex 2.16447868627425 64.3431253217267 0.0
endloop
endfacet
facet normal 0.110265754496985 0.993902139742747 -3.58729839746327e-16
outer loop
vertex 53.6635434681964 58.6297024332948 0.0
vertex 2.16447868627425 64.3431253217267 18.1594125
vertex 40.6048987422764 60.0784580560408 18.1594125
endloop
endfacet
facet normal 0.110265754496985 0.993902139742747 -3.58729839746327e-16
outer loop
vertex 53.6635434681964 58.6297024332948 0.0
vertex 40.6048987422764 60.0784580560408 18.1594125
vertex 53.6635434681964 58.6297024332948 24.7396
endloop
endfacet
facet normal 0.110265754496985 0.993902139742747 -3.58729839746327e-16
outer loop
vertex 53.6635434681964 58.6297024332948 24.7396
vertex 40.6048987422764 60.0784580560408 18.1594125
vertex 40.6048987422764 60.0784580560408 24.7396
endloop
endfacet
facet normal 0.110265754496985 0.993902139742747 2.53707995991051e-17
outer loop
vertex 60.4345741584868 57.8785089526364 24.7396
vertex 66.9513312052376 57.1555251659032 0.0
vertex 60.4345741584868 57.8785089526364 0.0
endloop
endfacet
facet normal 0.110265754496985 0.993902139742747 2.53707995991051e-17
outer loop
vertex 66.9513312052376 57.1555251659032 0.0
vertex 60.4345741584868 57.8785089526364 24.7396
vertex 66.9513312052376 57.1555251659032 24.7396
endloop
endfacet
facet normal -0.110265754496984 -0.993902139742747 8.72326880749631e-16
outer loop
vertex 36.8232871473225 25.9921556220108 24.7396
vertex 30.3573822345655 26.7094977578225 18.1594125
vertex 36.8232871473225 25.9921556220108 18.1594125
endloop
endfacet
facet normal -0.110265754496984 -0.993902139742747 8.72326880749631e-16
outer loop
vertex 30.3573822345655 26.7094977578225 18.1594125
vertex 36.8232871473225 25.9921556220108 24.7396
vertex 30.3573822345655 26.7094977578225 27.016075
endloop
endfacet
facet normal -0.110265754496984 -0.993902139742747 8.72326880749631e-16
outer loop
vertex 30.3573822345655 26.7094977578225 27.016075
vertex 36.8232871473225 25.9921556220108 24.7396
vertex 36.8232871473225 25.9921556220108 27.016075
endloop
endfacet
facet normal 0.110265754496984 0.993902139742747 0.0
outer loop
vertex 32.2108535563039 43.4161273095929 27.016075
vertex 38.6767584690608 42.6987851737812 18.1594125
vertex 32.2108535563039 43.4161273095929 18.1594125
endloop
endfacet
facet normal 0.110265754496984 0.993902139742747 0.0
outer loop
vertex 38.6767584690608 42.6987851737812 18.1594125
vertex 32.2108535563039 43.4161273095929 27.016075
vertex 38.6767584690608 42.6987851737812 24.7396
endloop
endfacet
facet normal 0.110265754496984 0.993902139742747 0.0
outer loop
vertex 38.6767584690608 42.6987851737812 24.7396
vertex 32.2108535563039 43.4161273095929 27.016075
vertex 38.6767584690608 42.6987851737812 27.016075
endloop
endfacet
facet normal -0.0 -0.0 1.0
outer loop
vertex 34.6315988295289 6.23694042721768 18.1594125
vertex -2.42944349610242 11.6054872368679 18.1594125
vertex -3.80882122647322 10.5016076929036 18.1594125
endloop
endfacet
facet normal -0.0 -0.0 1.0
outer loop
vertex -2.42944349610242 11.6054872368679 18.1594125
vertex 34.6315988295289 6.23694042721768 18.1594125
vertex 33.5277192855647 7.61631815758848 18.1594125
endloop
endfacet
facet normal -0.0 -0.0 1.0
outer loop
vertex 33.5277192855647 7.61631815758848 18.1594125
vertex 34.6315988295289 6.23694042721768 18.1594125
vertex 35.4439094169517 24.8882760780465 18.1594125
endloop
endfacet
facet normal -0.0 -0.0 1.0
outer loop
vertex 35.4439094169517 24.8882760780465 18.1594125
vertex 34.6315988295289 6.23694042721768 18.1594125
vertex 36.8232871473225 25.9921556220108 18.1594125
endloop
endfacet
facet normal -0.0 -0.0 1.0
outer loop
vertex 35.4439094169517 24.8882760780465 18.1594125
vertex 30.3573822345655 26.7094977578225 18.1594125
vertex 28.9780045041947 25.6056182138582 18.1594125
endloop
endfacet
facet normal -0.0 -0.0 1.0
outer loop
vertex 30.3573822345655 26.7094977578225 18.1594125
vertex 35.4439094169517 24.8882760780465 18.1594125
vertex 36.8232871473225 25.9921556220108 18.1594125
endloop
endfacet
facet normal -0.0 -0.0 1.0
outer loop
vertex 30.3573822345655 26.7094977578225 18.1594125
vertex 31.1069740123396 44.7955050399637 18.1594125
vertex 28.9780045041947 25.6056182138582 18.1594125
endloop
endfacet
facet normal -0.0 -0.0 1.0
outer loop
vertex 31.1069740123396 44.7955050399637 18.1594125
vertex 30.3573822345655 26.7094977578225 18.1594125
vertex 32.2108535563039 43.4161273095929 18.1594125
endloop
endfacet
facet normal -0.0 -0.0 1.0
outer loop
vertex 31.1069740123396 44.7955050399637 18.1594125
vertex 32.2108535563039 43.4161273095929 18.1594125
vertex 37.5728789250965 44.078162904152 18.1594125
endloop
endfacet
facet normal -0.0 -0.0 1.0
outer loop
vertex 37.5728789250965 44.078162904152 18.1594125
vertex 32.2108535563039 43.4161273095929 18.1594125
vertex 38.6767584690608 42.6987851737812 18.1594125
endloop
endfacet
facet normal -0.0 -0.0 1.0
outer loop
vertex 37.5728789250965 44.078162904152 18.1594125
vertex 38.6767584690608 42.6987851737812 18.1594125
vertex 39.2255210119056 58.9745785120765 18.1594125
endloop
endfacet
facet normal -0.0 -0.0 1.0
outer loop
vertex 39.2255210119056 58.9745785120765 18.1594125
vertex 38.6767584690608 42.6987851737812 18.1594125
vertex 40.6048987422764 60.0784580560408 18.1594125
endloop
endfacet
facet normal -0.0 -0.0 1.0
outer loop
vertex -2.42944349610242 11.6054872368679 18.1594125
vertex 2.16447868627425 64.3431253217267 18.1594125
vertex -3.80882122647322 10.5016076929036 18.1594125
endloop
endfacet
facet normal -0.0 -0.0 1.0
outer loop
vertex 2.16447868627425 64.3431253217267 18.1594125
vertex -2.42944349610242 11.6054872368679 18.1594125
vertex 3.26835823023853 62.9637475913559 18.1594125
endloop
endfacet
facet normal -0.0 -0.0 1.0
outer loop
vertex 2.16447868627425 64.3431253217267 18.1594125
vertex 3.26835823023853 62.9637475913559 18.1594125
vertex 40.6048987422764 60.0784580560408 18.1594125
endloop
endfacet
facet normal -0.0 -0.0 1.0
outer loop
vertex 40.6048987422764 60.0784580560408 18.1594125
vertex 3.26835823023853 62.9637475913559 18.1594125
vertex 39.2255210119056 58.9745785120765 18.1594125
endloop
endfacet
facet normal 0.110265754496984 0.993902139742747 0.0
outer loop
vertex -63.1329975836479 11.6829852398752 20.926425
vertex -1.52613783568305 4.84818068451168 0.0
vertex -63.1329975836479 11.6829852398752 0.0
endloop
endfacet
facet normal 0.110265754496984 0.993902139742747 0.0
outer loop
vertex -1.52613783568305 4.84818068451168 0.0
vertex -63.1329975836479 11.6829852398752 20.926425
vertex -1.52613783568305 4.84818068451168 20.926425
endloop
endfacet
facet normal -0.993902139742747 0.110265754496984 -5.97711640429193e-17
outer loop
vertex 36.8232871473225 25.9921556220108 24.7396
vertex 34.6315988295289 6.23694042721768 18.1594125
vertex 34.6315988295289 6.23694042721768 24.7396
endloop
endfacet
facet normal -0.993902139742747 0.110265754496984 -5.97711640429193e-17
outer loop
vertex 34.6315988295289 6.23694042721768 18.1594125
vertex 36.8232871473225 25.9921556220108 24.7396
vertex 36.8232871473225 25.9921556220108 18.1594125
endloop
endfacet
facet normal 0.110265754496985 0.993902139742747 -2.06172468527172e-16
outer loop
vertex 53.6635434681964 58.6297024332948 24.7396
vertex 60.4345741584868 57.8785089526364 0.0
vertex 53.6635434681964 58.6297024332948 0.0
endloop
endfacet
facet normal 0.110265754496985 0.993902139742747 -2.06172468527172e-16
outer loop
vertex 60.4345741584868 57.8785089526364 0.0
vertex 53.6635434681964 58.6297024332948 24.7396
vertex 60.4345741584868 57.8785089526364 24.7396
endloop
endfacet
facet normal 0.984263650028563 0.176706160708819 0.0
outer loop
vertex -7.49589148918013 -35.3820532694925 0.0
vertex -7.24295396499127 -36.7909300725913 20.926425
vertex -7.24295396499127 -36.7909300725913 0.0
endloop
endfacet
facet normal 0.984263650028563 0.176706160708819 0.0
outer loop
vertex -7.24295396499127 -36.7909300725913 20.926425
vertex -7.49589148918013 -35.3820532694925 0.0
vertex -7.49589148918013 -35.3820532694925 20.926425
endloop
endfacet
facet normal -0.110265754496985 -0.993902139742747 -0.0
outer loop
vertex -3.60025478112819 -35.8142440292092 20.926425
vertex -7.49589148918013 -35.3820532694925 0.0
vertex -3.60025478112819 -35.8142440292092 0.0
endloop
endfacet
facet normal -0.110265754496985 -0.993902139742747 -0.0
outer loop
vertex -7.49589148918013 -35.3820532694925 0.0
vertex -3.60025478112819 -35.8142440292092 20.926425
vertex -7.49589148918013 -35.3820532694925 20.926425
endloop
endfacet
facet normal -0.993902139742747 0.110265754496984 0.0
outer loop
vertex -63.1329975836479 11.6829852398752 20.926425
vertex -69.4784471744666 -45.5129769581332 0.0
vertex -69.4784471744666 -45.5129769581332 20.926425
endloop
endfacet
facet normal -0.993902139742747 0.110265754496984 0.0
outer loop
vertex -69.4784471744666 -45.5129769581332 0.0
vertex -63.1329975836479 11.6829852398752 20.926425
vertex -63.1329975836479 11.6829852398752 0.0
endloop
endfacet
facet normal -0.993902139742747 0.110265754496984 0.0
outer loop
vertex -3.60025478112819 -35.8142440292092 20.926425
vertex -5.51526770591594 -53.0755909656564 0.0
vertex -5.51526770591594 -53.0755909656564 20.926425
endloop
endfacet
facet normal -0.993902139742747 0.110265754496984 0.0
outer loop
vertex -5.51526770591594 -53.0755909656564 0.0
vertex -3.60025478112819 -35.8142440292092 20.926425
vertex -3.60025478112819 -35.8142440292092 0.0
endloop
endfacet
facet normal -0.110265754496984 -0.993902139742747 -0.0
outer loop
vertex 53.8079147460324 -59.6570391894417 20.926425
vertex -5.51526770591594 -53.0755909656564 0.0
vertex 53.8079147460324 -59.6570391894417 0.0
endloop
endfacet
facet normal -0.110265754496984 -0.993902139742747 -0.0
outer loop
vertex -5.51526770591594 -53.0755909656564 0.0
vertex 53.8079147460324 -59.6570391894417 20.926425
vertex -5.51526770591594 -53.0755909656564 20.926425
endloop
endfacet
facet normal -0.892046078391342 0.451944459006446 -0.0
outer loop
vertex -8.74843675741258 -40.6398175648378 20.926425
vertex -9.32536943591149 -41.7785648668452 19.192875
vertex -9.32536943591149 -41.7785648668452 20.926425
endloop
endfacet
facet normal -0.892046078391342 0.451944459006446 -0.0
outer loop
vertex -9.32536943591149 -41.7785648668452 19.192875
vertex -8.74843675741258 -40.6398175648378 20.926425
vertex -8.74843675741258 -40.6398175648378 19.192875
endloop
endfacet
facet normal 0.0 0.0 1.0
outer loop
vertex -8.36229816046985 -39.4230621591379 19.192875
vertex -8.66291752894726 -34.2908733112781 19.192875
vertex -8.74843675741258 -40.6398175648378 19.192875
endloop
endfacet
facet normal 0.0 0.0 1.0
outer loop
vertex -8.66291752894726 -34.2908733112781 19.192875
vertex -8.36229816046985 -39.4230621591379 19.192875
vertex -8.19743662707148 -36.883629158958 19.192875
endloop
endfacet
facet normal 0.0 0.0 1.0
outer loop
vertex -8.19743662707148 -36.883629158958 19.192875
vertex -8.36229816046985 -39.4230621591379 19.192875
vertex -8.1770212400903 -38.1600224938369 19.192875
endloop
endfacet
facet normal 0.0 0.0 1.0
outer loop
vertex 52.9632970144295 -58.6016279391658 19.192875
vertex -2.54484353085223 -34.9696262976062 19.192875
vertex -4.45985645563998 -52.2309732340535 19.192875
endloop
endfacet
facet normal 0.0 0.0 1.0
outer loop
vertex -2.54484353085223 -34.9696262976062 19.192875
vertex 52.9632970144295 -58.6016279391658 19.192875
vertex 1.94052829716073 -3.18097764622077 19.192875
endloop
endfacet
facet normal 0.0 0.0 1.0
outer loop
vertex 1.94052829716073 -3.18097764622077 19.192875
vertex 52.9632970144295 -58.6016279391658 19.192875
vertex 2.67292446510515 3.42061975616453 19.192875
endloop
endfacet
facet normal 0.0 0.0 1.0
outer loop
vertex 2.67292446510515 3.42061975616453 19.192875
vertex 52.9632970144295 -58.6016279391658 19.192875
vertex 59.1490667770722 -2.84497138615854 19.192875
endloop
endfacet
facet normal 0.0 0.0 1.0
outer loop
vertex -2.54484353085223 -34.9696262976062 19.192875
vertex -3.31394525390343 -2.59803444947656 19.192875
vertex -8.66291752894726 -34.2908733112781 19.192875
endloop
endfacet
facet normal 0.0 0.0 1.0
outer loop
vertex -3.31394525390343 -2.59803444947656 19.192875
vertex -2.54484353085223 -34.9696262976062 19.192875
vertex 1.94052829716073 -3.18097764622077 19.192875
endloop
endfacet
facet normal 0.0 0.0 1.0
outer loop
vertex -23.9288560103388 -49.6046443221588 19.192875
vertex -62.288379852045 10.6275739895992 19.192875
vertex -68.4230359241906 -44.6683592265303 19.192875
endloop
endfacet
facet normal 0.0 0.0 1.0
outer loop
vertex -62.288379852045 10.6275739895992 19.192875
vertex -23.9288560103388 -49.6046443221588 19.192875
vertex -23.3949630102837 -44.7922943992919 19.192875
endloop
endfacet
facet normal 0.0 0.0 1.0
outer loop
vertex -62.288379852045 10.6275739895992 19.192875
vertex -23.3949630102837 -44.7922943992919 19.192875
vertex -2.58154908595901 4.00356295290874 19.192875
endloop
endfacet
facet normal 0.0 0.0 1.0
outer loop
vertex -2.58154908595901 4.00356295290874 19.192875
vertex -23.3949630102837 -44.7922943992919 19.192875
vertex -16.9767703067009 -45.5043432345533 19.192875
endloop
endfacet
facet normal 0.0 0.0 1.0
outer loop
vertex -2.58154908595901 4.00356295290874 19.192875
vertex -16.9767703067009 -45.5043432345533 19.192875
vertex -15.6620179256861 -45.5433601967636 19.192875
endloop
endfacet
facet normal 0.0 0.0 1.0
outer loop
vertex -2.58154908595901 4.00356295290874 19.192875
vertex -15.6620179256861 -45.5433601967636 19.192875
vertex -14.3965628827058 -45.3753713056286 19.192875
endloop
endfacet
facet normal 0.0 0.0 1.0
outer loop
vertex -2.58154908595901 4.00356295290874 19.192875
vertex -14.3965628827058 -45.3753713056286 19.192875
vertex -13.1746412049792 -45.0059066295759 19.192875
endloop
endfacet
facet normal 0.0 0.0 1.0
outer loop
vertex -2.58154908595901 4.00356295290874 19.192875
vertex -13.1746412049792 -45.0059066295759 19.192875
vertex -12.0281114341776 -44.4445990329636 19.192875
endloop
endfacet
facet normal 0.0 0.0 1.0
outer loop
vertex -2.58154908595901 4.00356295290874 19.192875
vertex -12.0281114341776 -44.4445990329636 19.192875
vertex -10.9868664571745 -43.706083202927 19.192875
endloop
endfacet
facet normal 0.0 0.0 1.0
outer loop
vertex -2.58154908595901 4.00356295290874 19.192875
vertex -10.9868664571745 -43.706083202927 19.192875
vertex -10.0780541240281 -42.8096140866323 19.192875
endloop
endfacet
facet normal 0.0 0.0 1.0
outer loop
vertex -2.58154908595901 4.00356295290874 19.192875
vertex -10.0780541240281 -42.8096140866323 19.192875
vertex -8.66291752894726 -34.2908733112781 19.192875
endloop
endfacet
facet normal 0.0 0.0 1.0
outer loop
vertex -8.66291752894726 -34.2908733112781 19.192875
vertex -10.0780541240281 -42.8096140866323 19.192875
vertex -9.32536943591149 -41.7785648668452 19.192875
endloop
endfacet
facet normal 0.0 0.0 1.0
outer loop
vertex -8.66291752894726 -34.2908733112781 19.192875
vertex -9.32536943591149 -41.7785648668452 19.192875
vertex -8.74843675741258 -40.6398175648378 19.192875
endloop
endfacet
facet normal 0.0 0.0 1.0
outer loop
vertex -2.58154908595901 4.00356295290874 19.192875
vertex -8.66291752894726 -34.2908733112781 19.192875
vertex -3.31394525390343 -2.59803444947656 19.192875
endloop
endfacet
facet normal 0.993902139742747 -0.110265754496984 0.0
outer loop
vertex 38.6767584690608 42.6987851737812 24.7396
vertex 38.2071076758976 38.4654950613052 27.016075
vertex 38.2071076758976 38.4654950613052 24.7396
endloop
endfacet
facet normal 0.993902139742747 -0.110265754496984 0.0
outer loop
vertex 38.2071076758976 38.4654950613052 27.016075
vertex 38.6767584690608 42.6987851737812 24.7396
vertex 38.6767584690608 42.6987851737812 27.016075
endloop
endfacet
facet normal 0.110265754496985 0.993902139742747 0.0
outer loop
vertex 38.2071076758976 38.4654950613052 27.016075
vertex 51.8873075437726 36.9477827033348 24.7396
vertex 38.2071076758976 38.4654950613052 24.7396
endloop
endfacet
facet normal 0.110265754496985 0.993902139742747 0.0
outer loop
vertex 51.8873075437726 36.9477827033348 24.7396
vertex 38.2071076758976 38.4654950613052 27.016075
vertex 51.8873075437726 36.9477827033348 27.016075
endloop
endfacet
facet normal 0.993902139742747 -0.110265754496985 0.0
outer loop
vertex 51.8873075437726 36.9477827033348 24.7396
vertex 51.0967958099205 29.8223491781981 27.016075
vertex 51.0967958099205 29.8223491781981 24.7396
endloop
endfacet
facet normal 0.993902139742747 -0.110265754496985 0.0
outer loop
vertex 51.0967958099205 29.8223491781981 27.016075
vertex 51.8873075437726 36.9477827033348 24.7396
vertex 51.8873075437726 36.9477827033348 27.016075
endloop
endfacet
facet normal -0.110265754496985 -0.993902139742747 -0.0
outer loop
vertex 51.0967958099205 29.8223491781981 27.016075
vertex 37.4165959420456 31.3400615361684 24.7396
vertex 51.0967958099205 29.8223491781981 24.7396
endloop
endfacet
facet normal -0.110265754496985 -0.993902139742747 -0.0
outer loop
vertex 37.4165959420456 31.3400615361684 24.7396
vertex 51.0967958099205 29.8223491781981 27.016075
vertex 37.4165959420456 31.3400615361684 27.016075
endloop
endfacet
facet normal 0.993902139742747 -0.110265754496985 0.0
outer loop
vertex 37.4165959420456 31.3400615361684 24.7396
vertex 36.8232871473225 25.9921556220108 27.016075
vertex 36.8232871473225 25.9921556220108 24.7396
endloop
endfacet
facet normal 0.993902139742747 -0.110265754496985 0.0
outer loop
vertex 36.8232871473225 25.9921556220108 27.016075
vertex 37.4165959420456 31.3400615361684 24.7396
vertex 37.4165959420456 31.3400615361684 27.016075
endloop
endfacet
facet normal 0.892046078391342 -0.451944459006446 0.0
outer loop
vertex -7.86078995210826 -41.0027410028492 0.0
vertex -8.50770408387036 -42.2796174039073 20.926425
vertex -8.50770408387036 -42.2796174039073 0.0
endloop
endfacet
facet normal 0.892046078391342 -0.451944459006446 0.0
outer loop
vertex -8.50770408387036 -42.2796174039073 20.926425
vertex -7.86078995210826 -41.0027410028492 0.0
vertex -7.86078995210826 -41.0027410028492 20.926425
endloop
endfacet
facet normal -0.993902139742747 0.110265754496985 -0.0
outer loop
vertex -23.3949630102837 -44.7922943992919 20.926425
vertex -23.9288560103388 -49.6046443221588 19.192875
vertex -23.9288560103388 -49.6046443221588 20.926425
endloop
endfacet
facet normal -0.993902139742747 0.110265754496985 -0.0
outer loop
vertex -23.9288560103388 -49.6046443221588 19.192875
vertex -23.3949630102837 -44.7922943992919 20.926425
vertex -23.3949630102837 -44.7922943992919 19.192875
endloop
endfacet
facet normal 0.999872111096553 0.0159925436163969 0.0
outer loop
vertex -7.24295396499127 -36.7909300725913 0.0
vertex -7.22006220857719 -38.2221488556363 20.926425
vertex -7.22006220857719 -38.2221488556363 0.0
endloop
endfacet
facet normal 0.999872111096553 0.0159925436163969 0.0
outer loop
vertex -7.22006220857719 -38.2221488556363 20.926425
vertex -7.24295396499127 -36.7909300725913 0.0
vertex -7.24295396499127 -36.7909300725913 20.926425
endloop
endfacet
facet normal 0.110265754496985 0.993902139742747 0.0
outer loop
vertex -8.66291752894726 -34.2908733112781 20.926425
vertex -2.54484353085223 -34.9696262976062 19.192875
vertex -8.66291752894726 -34.2908733112781 19.192875
endloop
endfacet
facet normal 0.110265754496985 0.993902139742747 0.0
outer loop
vertex -2.54484353085223 -34.9696262976062 19.192875
vertex -8.66291752894726 -34.2908733112781 20.926425
vertex -2.54484353085223 -34.9696262976062 20.926425
endloop
endfacet
facet normal 0.993902139742747 -0.110265754496984 0.0
outer loop
vertex 60.2044780273481 -2.0003536545556 0.0
vertex 53.8079147460324 -59.6570391894417 20.926425
vertex 53.8079147460324 -59.6570391894417 0.0
endloop
endfacet
facet normal 0.993902139742747 -0.110265754496984 0.0
outer loop
vertex 53.8079147460324 -59.6570391894417 20.926425
vertex 60.2044780273481 -2.0003536545556 0.0
vertex 60.2044780273481 -2.0003536545556 20.926425
endloop
endfacet
facet normal 0.289422872656668 -0.957201337641754 0.0
outer loop
vertex -12.8238893117236 -45.8984330337806 20.926425
vertex -14.1940290709838 -46.31271346724 0.0
vertex -12.8238893117236 -45.8984330337806 0.0
endloop
endfacet
facet normal 0.289422872656668 -0.957201337641754 0.0
outer loop
vertex -14.1940290709838 -46.31271346724 0.0
vertex -12.8238893117236 -45.8984330337806 20.926425
vertex -14.1940290709838 -46.31271346724 20.926425
endloop
endfacet
facet normal 0.110265754496985 0.993902139742747 0.0
outer loop
vertex -68.4230359241906 -44.6683592265303 20.926425
vertex -23.9288560103388 -49.6046443221588 19.192875
vertex -68.4230359241906 -44.6683592265303 19.192875
endloop
endfacet
facet normal 0.110265754496985 0.993902139742747 0.0
outer loop
vertex -23.9288560103388 -49.6046443221588 19.192875
vertex -68.4230359241906 -44.6683592265303 20.926425
vertex -23.9288560103388 -49.6046443221588 20.926425
endloop
endfacet
facet normal -0.110265754496984 -0.993902139742747 -0.0
outer loop
vertex -23.0842382787358 -50.6600555724348 20.926425
vertex -69.4784471744666 -45.5129769581332 0.0
vertex -23.0842382787358 -50.6600555724348 0.0
endloop
endfacet
facet normal -0.110265754496984 -0.993902139742747 -0.0
outer loop
vertex -69.4784471744666 -45.5129769581332 0.0
vertex -23.0842382787358 -50.6600555724348 20.926425
vertex -69.4784471744666 -45.5129769581332 20.926425
endloop
endfacet
facet normal -0.984263650028563 -0.176706160708819 -0.0
outer loop
vertex -8.66291752894726 -34.2908733112781 20.926425
vertex -8.19743662707148 -36.883629158958 19.192875
vertex -8.19743662707148 -36.883629158958 20.926425
endloop
endfacet
facet normal -0.984263650028563 -0.176706160708819 -0.0
outer loop
vertex -8.19743662707148 -36.883629158958 19.192875
vertex -8.66291752894726 -34.2908733112781 20.926425
vertex -8.66291752894726 -34.2908733112781 19.192875
endloop
endfacet
facet normal 0.0296632227868994 0.999559949784851 0.0
outer loop
vertex -16.9767703067009 -45.5043432345533 20.926425
vertex -15.6620179256861 -45.5433601967636 19.192875
vertex -16.9767703067009 -45.5043432345533 19.192875
endloop
endfacet
facet normal 0.0296632227868994 0.999559949784851 0.0
outer loop
vertex -15.6620179256861 -45.5433601967636 19.192875
vertex -16.9767703067009 -45.5043432345533 20.926425
vertex -15.6620179256861 -45.5433601967636 20.926425
endloop
endfacet
facet normal -0.993902139742747 0.110265754496984 0.0
outer loop
vertex 1.82830673350221 4.47603100644049 20.926425
vertex 1.09591056555779 -2.12556639594481 0.0
vertex 1.09591056555779 -2.12556639594481 20.926425
endloop
endfacet
facet normal -0.993902139742747 0.110265754496984 0.0
outer loop
vertex 1.09591056555779 -2.12556639594481 0.0
vertex 1.82830673350221 4.47603100644049 20.926425
vertex 1.82830673350221 4.47603100644049 0.0
endloop
endfacet
facet normal 0.993902139742747 -0.110265754496985 0.0
outer loop
vertex -22.5503452786808 -45.8477056495679 0.0
vertex -23.0842382787358 -50.6600555724348 20.926425
vertex -23.0842382787358 -50.6600555724348 0.0
endloop
endfacet
facet normal 0.993902139742747 -0.110265754496985 0.0
outer loop
vertex -23.0842382787358 -50.6600555724348 20.926425
vertex -22.5503452786808 -45.8477056495679 0.0
vertex -22.5503452786808 -45.8477056495679 20.926425
endloop
endfacet
facet normal 0.953154300434161 -0.30248451127928 0.0
outer loop
vertex -7.42781306504584 -39.6383941801085 0.0
vertex -7.86078995210826 -41.0027410028492 20.926425
vertex -7.86078995210826 -41.0027410028492 0.0
endloop
endfacet
facet normal 0.953154300434161 -0.30248451127928 0.0
outer loop
vertex -7.86078995210826 -41.0027410028492 20.926425
vertex -7.42781306504584 -39.6383941801085 0.0
vertex -7.42781306504584 -39.6383941801085 20.926425
endloop
endfacet
facet normal -0.110265754496985 -0.993902139742747 -0.0
outer loop
vertex -17.0437547112035 -46.4586192791391 20.926425
vertex -22.5503452786808 -45.8477056495679 0.0
vertex -17.0437547112035 -46.4586192791391 0.0
endloop
endfacet
facet normal -0.110265754496985 -0.993902139742747 -0.0
outer loop
vertex -22.5503452786808 -45.8477056495679 0.0
vertex -17.0437547112035 -46.4586192791391 20.926425
vertex -22.5503452786808 -45.8477056495679 20.926425
endloop
endfacet
facet normal 0.110265754496984 0.993902139742747 0.0
outer loop
vertex -4.45985645563998 -52.2309732340535 20.926425
vertex 52.9632970144295 -58.6016279391658 19.192875
vertex -4.45985645563998 -52.2309732340535 19.192875
endloop
endfacet
facet normal 0.110265754496984 0.993902139742747 0.0
outer loop
vertex 52.9632970144295 -58.6016279391658 19.192875
vertex -4.45985645563998 -52.2309732340535 20.926425
vertex 52.9632970144295 -58.6016279391658 20.926425
endloop
endfacet
facet normal 0.993902139742747 -0.110265754496984 -0.0
outer loop
vertex -2.54484353085223 -34.9696262976062 19.192875
vertex -4.45985645563998 -52.2309732340535 20.926425
vertex -4.45985645563998 -52.2309732340535 19.192875
endloop
endfacet
facet normal 0.993902139742747 -0.110265754496984 -0.0
outer loop
vertex -4.45985645563998 -52.2309732340535 20.926425
vertex -2.54484353085223 -34.9696262976062 19.192875
vertex -2.54484353085223 -34.9696262976062 20.926425
endloop
endfacet
facet normal 0.110265754496984 0.993902139742747 0.0
outer loop
vertex -2.25853400362747 -1.75341671787362 20.926425
vertex 1.09591056555779 -2.12556639594481 0.0
vertex -2.25853400362747 -1.75341671787362 0.0
endloop
endfacet
facet normal 0.110265754496984 0.993902139742747 0.0
outer loop
vertex 1.09591056555779 -2.12556639594481 0.0
vertex -2.25853400362747 -1.75341671787362 20.926425
vertex 1.09591056555779 -2.12556639594481 20.926425
endloop
endfacet
facet normal 0.989411415770958 -0.14513803892195 0.0
outer loop
vertex -7.22006220857719 -38.2221488556363 0.0
vertex -7.42781306504584 -39.6383941801085 20.926425
vertex -7.42781306504584 -39.6383941801085 0.0
endloop
endfacet
facet normal 0.989411415770958 -0.14513803892195 0.0
outer loop
vertex -7.42781306504584 -39.6383941801085 20.926425
vertex -7.22006220857719 -38.2221488556363 0.0
vertex -7.22006220857719 -38.2221488556363 20.926425
endloop
endfacet
facet normal -0.0296632227868985 -0.999559949784852 -0.0
outer loop
vertex -15.6129827564355 -46.5010792709192 20.926425
vertex -17.0437547112035 -46.4586192791391 0.0
vertex -15.6129827564355 -46.5010792709192 0.0
endloop
endfacet
facet normal -0.0296632227868985 -0.999559949784852 -0.0
outer loop
vertex -17.0437547112035 -46.4586192791391 0.0
vertex -15.6129827564355 -46.5010792709192 20.926425
vertex -17.0437547112035 -46.4586192791391 20.926425
endloop
endfacet
facet normal -0.110265754496985 -0.993902139742747 -0.0
outer loop
vertex 1.94052829716073 -3.18097764622077 20.926425
vertex -3.31394525390343 -2.59803444947656 19.192875
vertex 1.94052829716073 -3.18097764622077 19.192875
endloop
endfacet
facet normal -0.110265754496985 -0.993902139742747 -0.0
outer loop
vertex -3.31394525390343 -2.59803444947656 19.192875
vertex 1.94052829716073 -3.18097764622077 20.926425
vertex -3.31394525390343 -2.59803444947656 20.926425
endloop
endfacet
facet normal -0.289422872656666 0.957201337641754 -0.0
outer loop
vertex -14.3965628827058 -45.3753713056286 20.926425
vertex -13.1746412049792 -45.0059066295759 19.192875
vertex -14.3965628827058 -45.3753713056286 19.192875
endloop
endfacet
facet normal -0.289422872656666 0.957201337641754 -0.0
outer loop
vertex -13.1746412049792 -45.0059066295759 19.192875
vertex -14.3965628827058 -45.3753713056286 20.926425
vertex -13.1746412049792 -45.0059066295759 20.926425
endloop
endfacet
facet normal -0.439704436134856 0.898142532587856 -0.0
outer loop
vertex -13.1746412049792 -45.0059066295759 20.926425
vertex -12.0281114341776 -44.4445990329636 19.192875
vertex -13.1746412049792 -45.0059066295759 19.192875
endloop
endfacet
facet normal -0.439704436134856 0.898142532587856 -0.0
outer loop
vertex -12.0281114341776 -44.4445990329636 19.192875
vertex -13.1746412049792 -45.0059066295759 20.926425
vertex -12.0281114341776 -44.4445990329636 20.926425
endloop
endfacet
facet normal -0.578521809757816 0.815666914637674 -0.0
outer loop
vertex -12.0281114341776 -44.4445990329636 20.926425
vertex -10.9868664571745 -43.706083202927 19.192875
vertex -12.0281114341776 -44.4445990329636 19.192875
endloop
endfacet
facet normal -0.578521809757816 0.815666914637674 -0.0
outer loop
vertex -10.9868664571745 -43.706083202927 19.192875
vertex -12.0281114341776 -44.4445990329636 20.926425
vertex -10.9868664571745 -43.706083202927 20.926425
endloop
endfacet
facet normal -0.702255678832248 0.711924828579436 -0.0
outer loop
vertex -10.9868664571745 -43.706083202927 20.926425
vertex -10.0780541240281 -42.8096140866323 19.192875
vertex -10.9868664571745 -43.706083202927 19.192875
endloop
endfacet
facet normal -0.702255678832248 0.711924828579436 -0.0
outer loop
vertex -10.0780541240281 -42.8096140866323 19.192875
vertex -10.9868664571745 -43.706083202927 20.926425
vertex -10.0780541240281 -42.8096140866323 20.926425
endloop
endfacet
facet normal -0.807679993198036 0.589621088994975 -0.0
outer loop
vertex -9.32536943591149 -41.7785648668452 20.926425
vertex -10.0780541240281 -42.8096140866323 19.192875
vertex -10.0780541240281 -42.8096140866323 20.926425
endloop
endfacet
facet normal -0.807679993198036 0.589621088994975 -0.0
outer loop
vertex -10.0780541240281 -42.8096140866323 19.192875
vertex -9.32536943591149 -41.7785648668452 20.926425
vertex -9.32536943591149 -41.7785648668452 19.192875
endloop
endfacet
facet normal 0.0 0.0 1.0
outer loop
vertex 33.5277192855647 7.61631815758848 16.4703125
vertex 3.26835823023853 62.9637475913559 16.4703125
vertex -2.42944349610242 11.6054872368679 16.4703125
endloop
endfacet
facet normal 0.0 0.0 1.0
outer loop
vertex 3.26835823023853 62.9637475913559 16.4703125
vertex 33.5277192855647 7.61631815758848 16.4703125
vertex 28.9780045041947 25.6056182138582 16.4703125
endloop
endfacet
facet normal 0.0 0.0 1.0
outer loop
vertex 28.9780045041947 25.6056182138582 16.4703125
vertex 33.5277192855647 7.61631815758848 16.4703125
vertex 35.4439094169517 24.8882760780465 16.4703125
endloop
endfacet
facet normal 0.0 0.0 1.0
outer loop
vertex 3.26835823023853 62.9637475913559 16.4703125
vertex 31.1069740123396 44.7955050399637 16.4703125
vertex 39.2255210119056 58.9745785120765 16.4703125
endloop
endfacet
facet normal 0.0 0.0 1.0
outer loop
vertex 31.1069740123396 44.7955050399637 16.4703125
vertex 3.26835823023853 62.9637475913559 16.4703125
vertex 28.9780045041947 25.6056182138582 16.4703125
endloop
endfacet
facet normal 0.0 0.0 1.0
outer loop
vertex 39.2255210119056 58.9745785120765 16.4703125
vertex 31.1069740123396 44.7955050399637 16.4703125
vertex 37.5728789250965 44.078162904152 16.4703125
endloop
endfacet
facet normal -0.993902139742747 0.110265754496985 -0.0
outer loop
vertex 35.4439094169517 24.8882760780465 18.1594125
vertex 33.5277192855647 7.61631815758848 16.4703125
vertex 33.5277192855647 7.61631815758848 18.1594125
endloop
endfacet
facet normal -0.993902139742747 0.110265754496985 -0.0
outer loop
vertex 33.5277192855647 7.61631815758848 16.4703125
vertex 35.4439094169517 24.8882760780465 18.1594125
vertex 35.4439094169517 24.8882760780465 16.4703125
endloop
endfacet
facet normal -0.110265754496983 -0.993902139742747 -0.0
outer loop
vertex 35.4439094169517 24.8882760780465 18.1594125
vertex 28.9780045041947 25.6056182138582 16.4703125
vertex 35.4439094169517 24.8882760780465 16.4703125
endloop
endfacet
facet normal -0.110265754496983 -0.993902139742747 -0.0
outer loop
vertex 28.9780045041947 25.6056182138582 16.4703125
vertex 35.4439094169517 24.8882760780465 18.1594125
vertex 28.9780045041947 25.6056182138582 18.1594125
endloop
endfacet
facet normal -0.993902139742747 0.110265754496984 -0.0
outer loop
vertex 31.1069740123396 44.7955050399637 18.1594125
vertex 28.9780045041947 25.6056182138582 16.4703125
vertex 28.9780045041947 25.6056182138582 18.1594125
endloop
endfacet
facet normal -0.993902139742747 0.110265754496984 -0.0
outer loop
vertex 28.9780045041947 25.6056182138582 16.4703125
vertex 31.1069740123396 44.7955050399637 18.1594125
vertex 31.1069740123396 44.7955050399637 16.4703125
endloop
endfacet
facet normal 0.110265754496982 0.993902139742747 0.0
outer loop
vertex 31.1069740123396 44.7955050399637 18.1594125
vertex 37.5728789250965 44.078162904152 16.4703125
vertex 31.1069740123396 44.7955050399637 16.4703125
endloop
endfacet
facet normal 0.110265754496982 0.993902139742747 0.0
outer loop
vertex 37.5728789250965 44.078162904152 16.4703125
vertex 31.1069740123396 44.7955050399637 18.1594125
vertex 37.5728789250965 44.078162904152 18.1594125
endloop
endfacet
facet normal -0.993902139742747 0.110265754496984 -0.0
outer loop
vertex 39.2255210119056 58.9745785120765 18.1594125
vertex 37.5728789250965 44.078162904152 16.4703125
vertex 37.5728789250965 44.078162904152 18.1594125
endloop
endfacet
facet normal -0.993902139742747 0.110265754496984 -0.0
outer loop
vertex 37.5728789250965 44.078162904152 16.4703125
vertex 39.2255210119056 58.9745785120765 18.1594125
vertex 39.2255210119056 58.9745785120765 16.4703125
endloop
endfacet
facet normal -0.110265754496985 -0.993902139742747 -0.0
outer loop
vertex 39.2255210119056 58.9745785120765 18.1594125
vertex 3.26835823023853 62.9637475913559 16.4703125
vertex 39.2255210119056 58.9745785120765 16.4703125
endloop
endfacet
facet normal -0.110265754496985 -0.993902139742747 -0.0
outer loop
vertex 3.26835823023853 62.9637475913559 16.4703125
vertex 39.2255210119056 58.9745785120765 18.1594125
vertex 3.26835823023853 62.9637475913559 18.1594125
endloop
endfacet
facet normal 0.993902139742747 -0.110265754496984 -0.0
outer loop
vertex 3.26835823023853 62.9637475913559 16.4703125
vertex -2.42944349610242 11.6054872368679 18.1594125
vertex -2.42944349610242 11.6054872368679 16.4703125
endloop
endfacet
facet normal 0.993902139742747 -0.110265754496984 -0.0
outer loop
vertex -2.42944349610242 11.6054872368679 18.1594125
vertex 3.26835823023853 62.9637475913559 16.4703125
vertex 3.26835823023853 62.9637475913559 18.1594125
endloop
endfacet
facet normal 0.110265754496984 0.993902139742747 0.0
outer loop
vertex -2.42944349610242 11.6054872368679 18.1594125
vertex 33.5277192855647 7.61631815758848 16.4703125
vertex -2.42944349610242 11.6054872368679 16.4703125
endloop
endfacet
facet normal 0.110265754496984 0.993902139742747 0.0
outer loop
vertex 33.5277192855647 7.61631815758848 16.4703125
vertex -2.42944349610242 11.6054872368679 18.1594125
vertex 33.5277192855647 7.61631815758848 18.1594125
endloop
endfacet
facet normal 0.993902139742747 -0.110265754496984 0.0
outer loop
vertex 65.6201576350784 33.6822920523436 2.98341923199557
vertex 64.7557761156449 25.8910186362397 4.96461923199557
vertex 64.7557761156449 25.8910186362397 2.98341923199557
endloop
endfacet
facet normal 0.993902139742747 -0.110265754496984 0.0
outer loop
vertex 64.7557761156449 25.8910186362397 4.96461923199557
vertex 65.6201576350784 33.6822920523436 2.98341923199557
vertex 65.6201576350784 33.6822920523436 4.96461923199557
endloop
endfacet
facet normal 0.0 0.0 1.0
outer loop
vertex 64.7557761156449 25.8910186362397 4.96461923199557
vertex 64.3626353765456 33.821804419899 4.96461923199557
vertex 63.4982538571122 26.0305310037951 4.96461923199557
endloop
endfacet
facet normal 0.0 0.0 1.0
outer loop
vertex 64.3626353765456 33.821804419899 4.96461923199557
vertex 64.7557761156449 25.8910186362397 4.96461923199557
vertex 65.6201576350784 33.6822920523436 4.96461923199557
endloop
endfacet
facet normal -0.110265754496984 -0.993902139742747 -0.0
outer loop
vertex 64.7557761156449 25.8910186362397 4.96461923199557
vertex 63.4982538571122 26.0305310037951 2.98341923199557
vertex 64.7557761156449 25.8910186362397 2.98341923199557
endloop
endfacet
facet normal -0.110265754496984 -0.993902139742747 -0.0
outer loop
vertex 63.4982538571122 26.0305310037951 2.98341923199557
vertex 64.7557761156449 25.8910186362397 4.96461923199557
vertex 63.4982538571122 26.0305310037951 4.96461923199557
endloop
endfacet
facet normal 0.0 0.0 -1.0
outer loop
vertex 64.3626353765456 33.821804419899 2.98341923199557
vertex 64.7557761156449 25.8910186362397 2.98341923199557
vertex 63.4982538571122 26.0305310037951 2.98341923199557
endloop
endfacet
facet normal 0.0 0.0 -1.0
outer loop
vertex 64.7557761156449 25.8910186362397 2.98341923199557
vertex 64.3626353765456 33.821804419899 2.98341923199557
vertex 65.6201576350784 33.6822920523436 2.98341923199557
endloop
endfacet
facet normal 0.110265754496984 0.993902139742747 -0.0
outer loop
vertex 64.3626353765456 33.821804419899 4.96461923199557
vertex 65.6201576350784 33.6822920523436 2.98341923199557
vertex 64.3626353765456 33.821804419899 2.98341923199557
endloop
endfacet
facet normal 0.110265754496984 0.993902139742747 -0.0
outer loop
vertex 65.6201576350784 33.6822920523436 2.98341923199557
vertex 64.3626353765456 33.821804419899 4.96461923199557
vertex 65.6201576350784 33.6822920523436 4.96461923199557
endloop
endfacet
facet normal 0.0 0.0 1.0
outer loop
vertex 53.8079147460324 -59.6570391894417 20.926425
vertex -4.45985645563998 -52.2309732340535 20.926425
vertex -5.51526770591594 -53.0755909656564 20.926425
endloop
endfacet
facet normal 0.0 0.0 1.0
outer loop
vertex -4.45985645563998 -52.2309732340535 20.926425
vertex 53.8079147460324 -59.6570391894417 20.926425
vertex 52.9632970144295 -58.6016279391658 20.926425
endloop
endfacet
facet normal 0.0 0.0 1.0
outer loop
vertex 52.9632970144295 -58.6016279391658 20.926425
vertex 53.8079147460324 -59.6570391894417 20.926425
vertex 59.1490667770722 -2.84497138615854 20.926425
endloop
endfacet
facet normal 0.0 0.0 1.0
outer loop
vertex 59.1490667770722 -2.84497138615854 20.926425
vertex 53.8079147460324 -59.6570391894417 20.926425
vertex 60.2044780273481 -2.0003536545556 20.926425
endloop
endfacet
facet normal 0.0 0.0 1.0
outer loop
vertex -3.31394525390343 -2.59803444947656 20.926425
vertex -2.25853400362747 -1.75341671787362 20.926425
vertex -2.58154908595901 4.00356295290874 20.926425
endloop
endfacet
facet normal 0.0 0.0 1.0
outer loop
vertex -2.25853400362747 -1.75341671787362 20.926425
vertex -3.31394525390343 -2.59803444947656 20.926425
vertex 1.94052829716073 -3.18097764622077 20.926425
endloop
endfacet
facet normal 0.0 0.0 1.0
outer loop
vertex -2.25853400362747 -1.75341671787362 20.926425
vertex 1.94052829716073 -3.18097764622077 20.926425
vertex 1.09591056555779 -2.12556639594481 20.926425
endloop
endfacet
facet normal 0.0 0.0 1.0
outer loop
vertex 1.09591056555779 -2.12556639594481 20.926425
vertex 1.94052829716073 -3.18097764622077 20.926425
vertex 1.82830673350221 4.47603100644049 20.926425
endloop
endfacet
facet normal 0.0 0.0 1.0
outer loop
vertex 1.82830673350221 4.47603100644049 20.926425
vertex 1.94052829716073 -3.18097764622077 20.926425
vertex 2.67292446510515 3.42061975616453 20.926425
endloop
endfacet
facet normal 0.0 0.0 1.0
outer loop
vertex 1.82830673350221 4.47603100644049 20.926425
vertex 2.67292446510515 3.42061975616453 20.926425
vertex 60.2044780273481 -2.0003536545556 20.926425
endloop
endfacet
facet normal 0.0 0.0 1.0
outer loop
vertex 60.2044780273481 -2.0003536545556 20.926425
vertex 2.67292446510515 3.42061975616453 20.926425
vertex 59.1490667770722 -2.84497138615854 20.926425
endloop
endfacet
facet normal 0.0 0.0 1.0
outer loop
vertex -68.4230359241906 -44.6683592265303 20.926425
vertex -63.1329975836479 11.6829852398752 20.926425
vertex -69.4784471744666 -45.5129769581332 20.926425
endloop
endfacet
facet normal 0.0 0.0 1.0
outer loop
vertex -63.1329975836479 11.6829852398752 20.926425
vertex -68.4230359241906 -44.6683592265303 20.926425
vertex -62.288379852045 10.6275739895992 20.926425
endloop
endfacet
facet normal 0.0 0.0 1.0
outer loop
vertex -63.1329975836479 11.6829852398752 20.926425
vertex -62.288379852045 10.6275739895992 20.926425
vertex -1.52613783568305 4.84818068451168 20.926425
endloop
endfacet
facet normal 0.0 0.0 1.0
outer loop
vertex -1.52613783568305 4.84818068451168 20.926425
vertex -62.288379852045 10.6275739895992 20.926425
vertex -2.58154908595901 4.00356295290874 20.926425
endloop
endfacet
facet normal 0.0 0.0 1.0
outer loop
vertex -1.52613783568305 4.84818068451168 20.926425
vertex -2.58154908595901 4.00356295290874 20.926425
vertex -2.25853400362747 -1.75341671787362 20.926425
endloop
endfacet
facet normal 0.0 0.0 1.0
outer loop
vertex -4.45985645563998 -52.2309732340535 20.926425
vertex -3.60025478112819 -35.8142440292092 20.926425
vertex -5.51526770591594 -53.0755909656564 20.926425
endloop
endfacet
facet normal 0.0 0.0 1.0
outer loop
vertex -3.60025478112819 -35.8142440292092 20.926425
vertex -4.45985645563998 -52.2309732340535 20.926425
vertex -2.54484353085223 -34.9696262976062 20.926425
endloop
endfacet
facet normal 0.0 0.0 1.0
outer loop
vertex -8.66291752894726 -34.2908733112781 20.926425
vertex -7.49589148918013 -35.3820532694925 20.926425
vertex -2.54484353085223 -34.9696262976062 20.926425
endloop
endfacet
facet normal 0.0 0.0 1.0
outer loop
vertex -7.49589148918013 -35.3820532694925 20.926425
vertex -8.66291752894726 -34.2908733112781 20.926425
vertex -8.19743662707148 -36.883629158958 20.926425
endloop
endfacet
facet normal 0.0 0.0 1.0
outer loop
vertex -7.49589148918013 -35.3820532694925 20.926425
vertex -8.19743662707148 -36.883629158958 20.926425
vertex -8.1770212400903 -38.1600224938369 20.926425
endloop
endfacet
facet normal 0.0 0.0 1.0
outer loop
vertex -7.49589148918013 -35.3820532694925 20.926425
vertex -8.1770212400903 -38.1600224938369 20.926425
vertex -7.86078995210826 -41.0027410028492 20.926425
endloop
endfacet
facet normal 0.0 0.0 1.0
outer loop
vertex -2.54484353085223 -34.9696262976062 20.926425
vertex -7.49589148918013 -35.3820532694925 20.926425
vertex -3.60025478112819 -35.8142440292092 20.926425
endloop
endfacet
facet normal 0.0 0.0 1.0
outer loop
vertex -23.0842382787358 -50.6600555724348 20.926425
vertex -68.4230359241906 -44.6683592265303 20.926425
vertex -69.4784471744666 -45.5129769581332 20.926425
endloop
endfacet
facet normal 0.0 0.0 1.0
outer loop
vertex -68.4230359241906 -44.6683592265303 20.926425
vertex -23.0842382787358 -50.6600555724348 20.926425
vertex -23.9288560103388 -49.6046443221588 20.926425
endloop
endfacet
facet normal 0.0 0.0 1.0
outer loop
vertex -23.9288560103388 -49.6046443221588 20.926425
vertex -23.0842382787358 -50.6600555724348 20.926425
vertex -23.3949630102837 -44.7922943992919 20.926425
endloop
endfacet
facet normal 0.0 0.0 1.0
outer loop
vertex -23.3949630102837 -44.7922943992919 20.926425
vertex -23.0842382787358 -50.6600555724348 20.926425
vertex -22.5503452786808 -45.8477056495679 20.926425
endloop
endfacet
facet normal 0.0 0.0 1.0
outer loop
vertex -23.3949630102837 -44.7922943992919 20.926425
vertex -22.5503452786808 -45.8477056495679 20.926425
vertex -16.9767703067009 -45.5043432345533 20.926425
endloop
endfacet
facet normal 0.0 0.0 1.0
outer loop
vertex -16.9767703067009 -45.5043432345533 20.926425
vertex -22.5503452786808 -45.8477056495679 20.926425
vertex -17.0437547112035 -46.4586192791391 20.926425
endloop
endfacet
facet normal 0.0 0.0 1.0
outer loop
vertex -16.9767703067009 -45.5043432345533 20.926425
vertex -17.0437547112035 -46.4586192791391 20.926425
vertex -15.6129827564355 -46.5010792709192 20.926425
endloop
endfacet
facet normal 0.0 0.0 1.0
outer loop
vertex -16.9767703067009 -45.5043432345533 20.926425
vertex -15.6129827564355 -46.5010792709192 20.926425
vertex -15.6620179256861 -45.5433601967636 20.926425
endloop
endfacet
facet normal 0.0 0.0 1.0
outer loop
vertex -15.6620179256861 -45.5433601967636 20.926425
vertex -15.6129827564355 -46.5010792709192 20.926425
vertex -14.3965628827058 -45.3753713056286 20.926425
endloop
endfacet
facet normal 0.0 0.0 1.0
outer loop
vertex -14.3965628827058 -45.3753713056286 20.926425
vertex -15.6129827564355 -46.5010792709192 20.926425
vertex -14.1940290709838 -46.31271346724 20.926425
endloop
endfacet
facet normal 0.0 0.0 1.0
outer loop
vertex -14.3965628827058 -45.3753713056286 20.926425
vertex -14.1940290709838 -46.31271346724 20.926425
vertex -13.1746412049792 -45.0059066295759 20.926425
endloop
endfacet
facet normal 0.0 0.0 1.0
outer loop
vertex -13.1746412049792 -45.0059066295759 20.926425
vertex -14.1940290709838 -46.31271346724 20.926425
vertex -12.8238893117236 -45.8984330337806 20.926425
endloop
endfacet
facet normal 0.0 0.0 1.0
outer loop
vertex -13.1746412049792 -45.0059066295759 20.926425
vertex -12.8238893117236 -45.8984330337806 20.926425
vertex -12.0281114341776 -44.4445990329636 20.926425
endloop
endfacet
facet normal 0.0 0.0 1.0
outer loop
vertex -12.0281114341776 -44.4445990329636 20.926425
vertex -12.8238893117236 -45.8984330337806 20.926425
vertex -11.53828643489 -45.2690392933208 20.926425
endloop
endfacet
facet normal 0.0 0.0 1.0
outer loop
vertex -12.0281114341776 -44.4445990329636 20.926425
vertex -11.53828643489 -45.2690392933208 20.926425
vertex -10.9868664571745 -43.706083202927 20.926425
endloop
endfacet
facet normal 0.0 0.0 1.0
outer loop
vertex -10.9868664571745 -43.706083202927 20.926425
vertex -11.53828643489 -45.2690392933208 20.926425
vertex -10.3707393096306 -44.4409421083533 20.926425
endloop
endfacet
facet normal 0.0 0.0 1.0
outer loop
vertex -10.9868664571745 -43.706083202927 20.926425
vertex -10.3707393096306 -44.4409421083533 20.926425
vertex -10.0780541240281 -42.8096140866323 20.926425
endloop
endfacet
facet normal 0.0 0.0 1.0
outer loop
vertex -10.0780541240281 -42.8096140866323 20.926425
vertex -10.3707393096306 -44.4409421083533 20.926425
vertex -9.35168879759902 -43.4357320350945 20.926425
endloop
endfacet
facet normal 0.0 0.0 1.0
outer loop
vertex -10.0780541240281 -42.8096140866323 20.926425
vertex -9.35168879759902 -43.4357320350945 20.926425
vertex -9.32536943591149 -41.7785648668452 20.926425
endloop
endfacet
facet normal 0.0 0.0 1.0
outer loop
vertex -9.32536943591149 -41.7785648668452 20.926425
vertex -9.35168879759902 -43.4357320350945 20.926425
vertex -8.50770408387036 -42.2796174039073 20.926425
endloop
endfacet
facet normal 0.0 0.0 1.0
outer loop
vertex -9.32536943591149 -41.7785648668452 20.926425
vertex -8.50770408387036 -42.2796174039073 20.926425
vertex -8.74843675741258 -40.6398175648378 20.926425
endloop
endfacet
facet normal 0.0 0.0 1.0
outer loop
vertex -8.74843675741258 -40.6398175648378 20.926425
vertex -8.50770408387036 -42.2796174039073 20.926425
vertex -8.36229816046985 -39.4230621591379 20.926425
endloop
endfacet
facet normal 0.0 0.0 1.0
outer loop
vertex -8.36229816046985 -39.4230621591379 20.926425
vertex -8.50770408387036 -42.2796174039073 20.926425
vertex -7.86078995210826 -41.0027410028492 20.926425
endloop
endfacet
facet normal 0.0 0.0 1.0
outer loop
vertex -8.36229816046985 -39.4230621591379 20.926425
vertex -7.86078995210826 -41.0027410028492 20.926425
vertex -8.1770212400903 -38.1600224938369 20.926425
endloop
endfacet
facet normal 0.0 0.0 1.0
outer loop
vertex -7.42781306504584 -39.6383941801085 20.926425
vertex -7.49589148918013 -35.3820532694925 20.926425
vertex -7.86078995210826 -41.0027410028492 20.926425
endloop
endfacet
facet normal 0.0 0.0 1.0
outer loop
vertex -7.49589148918013 -35.3820532694925 20.926425
vertex -7.42781306504584 -39.6383941801085 20.926425
vertex -7.24295396499127 -36.7909300725913 20.926425
endloop
endfacet
facet normal 0.0 0.0 1.0
outer loop
vertex -7.24295396499127 -36.7909300725913 20.926425
vertex -7.42781306504584 -39.6383941801085 20.926425
vertex -7.22006220857719 -38.2221488556363 20.926425
endloop
endfacet
facet normal 0.0 0.0 -1.0
outer loop
vertex -63.1329975836479 11.6829852398752 0.0
vertex -23.0842382787358 -50.6600555724348 0.0
vertex -69.4784471744666 -45.5129769581332 0.0
endloop
endfacet
facet normal 0.0 0.0 -1.0
outer loop
vertex -23.0842382787358 -50.6600555724348 0.0
vertex -63.1329975836479 11.6829852398752 0.0
vertex -22.5503452786808 -45.8477056495679 0.0
endloop
endfacet
facet normal 0.0 0.0 -1.0
outer loop
vertex -22.5503452786808 -45.8477056495679 0.0
vertex -63.1329975836479 11.6829852398752 0.0
vertex -1.52613783568305 4.84818068451168 0.0
endloop
endfacet
facet normal 0.0 0.0 -1.0
outer loop
vertex -22.5503452786808 -45.8477056495679 0.0
vertex -1.52613783568305 4.84818068451168 0.0
vertex -17.0437547112035 -46.4586192791391 0.0
endloop
endfacet
facet normal 0.0 0.0 -1.0
outer loop
vertex -17.0437547112035 -46.4586192791391 0.0
vertex -1.52613783568305 4.84818068451168 0.0
vertex -15.6129827564355 -46.5010792709192 0.0
endloop
endfacet
facet normal 0.0 0.0 -1.0
outer loop
vertex -15.6129827564355 -46.5010792709192 0.0
vertex -1.52613783568305 4.84818068451168 0.0
vertex -14.1940290709838 -46.31271346724 0.0
endloop
endfacet
facet normal 0.0 0.0 -1.0
outer loop
vertex -14.1940290709838 -46.31271346724 0.0
vertex -1.52613783568305 4.84818068451168 0.0
vertex -12.8238893117236 -45.8984330337806 0.0
endloop
endfacet
facet normal 0.0 0.0 -1.0
outer loop
vertex -12.8238893117236 -45.8984330337806 0.0
vertex -1.52613783568305 4.84818068451168 0.0
vertex -11.53828643489 -45.2690392933208 0.0
endloop
endfacet
facet normal 0.0 0.0 -1.0
outer loop
vertex -11.53828643489 -45.2690392933208 0.0
vertex -1.52613783568305 4.84818068451168 0.0
vertex -10.3707393096306 -44.4409421083533 0.0
endloop
endfacet
facet normal 0.0 0.0 -1.0
outer loop
vertex -10.3707393096306 -44.4409421083533 0.0
vertex -1.52613783568305 4.84818068451168 0.0
vertex -9.35168879759902 -43.4357320350945 0.0
endloop
endfacet
facet normal 0.0 0.0 -1.0
outer loop
vertex -9.35168879759902 -43.4357320350945 0.0
vertex -1.52613783568305 4.84818068451168 0.0
vertex -7.49589148918013 -35.3820532694925 0.0
endloop
endfacet
facet normal 0.0 0.0 -1.0
outer loop
vertex -9.35168879759902 -43.4357320350945 0.0
vertex -7.49589148918013 -35.3820532694925 0.0
vertex -8.50770408387036 -42.2796174039073 0.0
endloop
endfacet
facet normal 0.0 0.0 -1.0
outer loop
vertex -8.50770408387036 -42.2796174039073 0.0
vertex -7.49589148918013 -35.3820532694925 0.0
vertex -7.86078995210826 -41.0027410028492 0.0
endloop
endfacet
facet normal 0.0 0.0 -1.0
outer loop
vertex -7.49589148918013 -35.3820532694925 0.0
vertex -1.52613783568305 4.84818068451168 0.0
vertex -2.25853400362747 -1.75341671787362 0.0
endloop
endfacet
facet normal 0.0 0.0 -1.0
outer loop
vertex -7.49589148918013 -35.3820532694925 0.0
vertex -2.25853400362747 -1.75341671787362 0.0
vertex -3.60025478112819 -35.8142440292092 0.0
endloop
endfacet
facet normal 0.0 0.0 -1.0
outer loop
vertex -3.60025478112819 -35.8142440292092 0.0
vertex 53.8079147460324 -59.6570391894417 0.0
vertex -5.51526770591594 -53.0755909656564 0.0
endloop
endfacet
facet normal 0.0 0.0 -1.0
outer loop
vertex 53.8079147460324 -59.6570391894417 0.0
vertex -3.60025478112819 -35.8142440292092 0.0
vertex -2.25853400362747 -1.75341671787362 0.0
endloop
endfacet
facet normal 0.0 0.0 -1.0
outer loop
vertex 53.8079147460324 -59.6570391894417 0.0
vertex -2.25853400362747 -1.75341671787362 0.0
vertex 1.09591056555779 -2.12556639594481 0.0
endloop
endfacet
facet normal 0.0 0.0 -1.0
outer loop
vertex 53.8079147460324 -59.6570391894417 0.0
vertex 1.09591056555779 -2.12556639594481 0.0
vertex 1.82830673350221 4.47603100644049 0.0
endloop
endfacet
facet normal 0.0 0.0 -1.0
outer loop
vertex 53.8079147460324 -59.6570391894417 0.0
vertex 1.82830673350221 4.47603100644049 0.0
vertex 60.2044780273481 -2.0003536545556 0.0
endloop
endfacet
facet normal 0.0 0.0 -1.0
outer loop
vertex -7.49589148918013 -35.3820532694925 0.0
vertex -7.42781306504584 -39.6383941801085 0.0
vertex -7.86078995210826 -41.0027410028492 0.0
endloop
endfacet
facet normal 0.0 0.0 -1.0
outer loop
vertex -7.42781306504584 -39.6383941801085 0.0
vertex -7.49589148918013 -35.3820532694925 0.0
vertex -7.24295396499127 -36.7909300725913 0.0
endloop
endfacet
facet normal 0.0 0.0 -1.0
outer loop
vertex -7.42781306504584 -39.6383941801085 0.0
vertex -7.24295396499127 -36.7909300725913 0.0
vertex -7.22006220857719 -38.2221488556363 0.0
endloop
endfacet
facet normal 0.110265754496984 0.993902139742747 2.9516693230263e-15
outer loop
vertex 63.2681834010659 39.9086610580892 26.6842875
vertex 65.0164075697664 39.7147091092167 24.7396
vertex 63.2681834010659 39.9086610580892 24.7396
endloop
endfacet
facet normal 0.110265754496984 0.993902139742747 2.9516693230263e-15
outer loop
vertex 65.0164075697664 39.7147091092167 24.7396
vertex 63.2681834010659 39.9086610580892 26.6842875
vertex 65.0164075697664 39.7147091092167 26.6842875
endloop
endfacet
facet normal 2.48306208724374e-16 -2.75476531908519e-17 1.0
outer loop
vertex 62.9676588246369 21.2479079625825 24.7396
vertex 63.2681834010659 39.9086610580892 24.7396
vertex 61.2194346559365 21.441859911455 24.7396
endloop
endfacet
facet normal 2.48306208724374e-16 -2.75476531908519e-17 1.0
outer loop
vertex 63.2681834010659 39.9086610580892 24.7396
vertex 62.9676588246369 21.2479079625825 24.7396
vertex 65.0164075697664 39.7147091092167 24.7396
endloop
endfacet
facet normal -0.110265754496984 -0.993902139742747 -0.0
outer loop
vertex 62.9676588246369 21.2479079625825 26.6842875
vertex 61.2194346559365 21.441859911455 24.7396
vertex 62.9676588246369 21.2479079625825 24.7396
endloop
endfacet
facet normal -0.110265754496984 -0.993902139742747 -0.0
outer loop
vertex 61.2194346559365 21.441859911455 24.7396
vertex 62.9676588246369 21.2479079625825 26.6842875
vertex 61.2194346559365 21.441859911455 26.6842875
endloop
endfacet
facet normal 2.48306208724374e-16 -2.75476531908519e-17 1.0
outer loop
vertex 62.9676588246369 21.2479079625825 26.6842875
vertex 61.7113374617987 25.8757229319572 26.6842875
vertex 61.2194346559365 21.441859911455 26.6842875
endloop
endfacet
facet normal 2.48306208724374e-16 -2.75476531908519e-17 1.0
outer loop
vertex 61.7113374617987 25.8757229319572 26.6842875
vertex 62.9676588246369 21.2479079625825 26.6842875
vertex 63.4595616304992 25.6817709830848 26.6842875
endloop
endfacet
facet normal -0.110265754496984 -0.993902139742747 -0.0
outer loop
vertex 63.4595616304992 25.6817709830848 27.6463125
vertex 61.7113374617987 25.8757229319572 26.6842875
vertex 63.4595616304992 25.6817709830848 26.6842875
endloop
endfacet
facet normal -0.110265754496984 -0.993902139742747 -0.0
outer loop
vertex 61.7113374617987 25.8757229319572 26.6842875
vertex 63.4595616304992 25.6817709830848 27.6463125
vertex 61.7113374617987 25.8757229319572 27.6463125
endloop
endfacet
facet normal 2.48306208724374e-16 -2.75476531908519e-17 1.0
outer loop
vertex 63.4595616304992 25.6817709830848 27.6463125
vertex 62.755317085513 35.2858393057206 27.6463125
vertex 61.7113374617987 25.8757229319572 27.6463125
endloop
endfacet
facet normal 2.48306208724374e-16 -2.75476531908519e-17 1.0
outer loop
vertex 62.755317085513 35.2858393057206 27.6463125
vertex 63.4595616304992 25.6817709830848 27.6463125
vertex 64.5035412542135 35.0918873568481 27.6463125
endloop
endfacet
facet normal 0.110265754496984 0.993902139742747 -0.0
outer loop
vertex 62.755317085513 35.2858393057206 27.6463125
vertex 64.5035412542135 35.0918873568481 26.6842875
vertex 62.755317085513 35.2858393057206 26.6842875
endloop
endfacet
facet normal 0.110265754496984 0.993902139742747 -0.0
outer loop
vertex 64.5035412542135 35.0918873568481 26.6842875
vertex 62.755317085513 35.2858393057206 27.6463125
vertex 64.5035412542135 35.0918873568481 27.6463125
endloop
endfacet
facet normal 2.48306208724374e-16 -2.75476531908518e-17 1.0
outer loop
vertex 64.5035412542135 35.0918873568481 26.6842875
vertex 63.2681834010659 39.9086610580892 26.6842875
vertex 62.755317085513 35.2858393057206 26.6842875
endloop
endfacet
facet normal 2.48306208724374e-16 -2.75476531908518e-17 1.0
outer loop
vertex 63.2681834010659 39.9086610580892 26.6842875
vertex 64.5035412542135 35.0918873568481 26.6842875
vertex 65.0164075697664 39.7147091092167 26.6842875
endloop
endfacet
facet normal -0.993902139742747 0.110265754496984 2.49829634926275e-16
outer loop
vertex 62.755317085513 35.2858393057206 27.6463125
vertex 61.7113374617987 25.8757229319572 26.6842875
vertex 61.7113374617987 25.8757229319572 27.6463125
endloop
endfacet
facet normal -0.993902139742747 0.110265754496984 2.49829634926275e-16
outer loop
vertex 61.7113374617987 25.8757229319572 26.6842875
vertex 61.2194346559365 21.441859911455 24.7396
vertex 61.2194346559365 21.441859911455 26.6842875
endloop
endfacet
facet normal -0.993902139742747 0.110265754496984 2.49829634926275e-16
outer loop
vertex 61.2194346559365 21.441859911455 24.7396
vertex 61.7113374617987 25.8757229319572 26.6842875
vertex 63.2681834010659 39.9086610580892 24.7396
endloop
endfacet
facet normal -0.993902139742747 0.110265754496984 2.49829634926275e-16
outer loop
vertex 63.2681834010659 39.9086610580892 24.7396
vertex 61.7113374617987 25.8757229319572 26.6842875
vertex 62.755317085513 35.2858393057206 26.6842875
endloop
endfacet
facet normal -0.993902139742747 0.110265754496984 2.49829634926275e-16
outer loop
vertex 62.755317085513 35.2858393057206 26.6842875
vertex 61.7113374617987 25.8757229319572 26.6842875
vertex 62.755317085513 35.2858393057206 27.6463125
endloop
endfacet
facet normal -0.993902139742747 0.110265754496984 2.49829634926275e-16
outer loop
vertex 63.2681834010659 39.9086610580892 24.7396
vertex 62.755317085513 35.2858393057206 26.6842875
vertex 63.2681834010659 39.9086610580892 26.6842875
endloop
endfacet
facet normal 0.993902139742747 -0.110265754496984 -2.49829634926275e-16
outer loop
vertex 65.0164075697664 39.7147091092167 24.7396
vertex 62.9676588246369 21.2479079625825 26.6842875
vertex 62.9676588246369 21.2479079625825 24.7396
endloop
endfacet
facet normal 0.993902139742747 -0.110265754496984 -2.49829634926275e-16
outer loop
vertex 62.9676588246369 21.2479079625825 26.6842875
vertex 65.0164075697664 39.7147091092167 24.7396
vertex 63.4595616304992 25.6817709830848 26.6842875
endloop
endfacet
facet normal 0.993902139742747 -0.110265754496984 -2.49829634926275e-16
outer loop
vertex 63.4595616304992 25.6817709830848 26.6842875
vertex 65.0164075697664 39.7147091092167 24.7396
vertex 63.4595616304992 25.6817709830848 27.6463125
endloop
endfacet
facet normal 0.993902139742747 -0.110265754496984 -2.49829634926275e-16
outer loop
vertex 63.4595616304992 25.6817709830848 27.6463125
vertex 65.0164075697664 39.7147091092167 24.7396
vertex 64.5035412542135 35.0918873568481 26.6842875
endloop
endfacet
facet normal 0.993902139742747 -0.110265754496984 -2.49829634926275e-16
outer loop
vertex 64.5035412542135 35.0918873568481 26.6842875
vertex 65.0164075697664 39.7147091092167 24.7396
vertex 65.0164075697664 39.7147091092167 26.6842875
endloop
endfacet
facet normal 0.993902139742747 -0.110265754496984 -2.49829634926275e-16
outer loop
vertex 64.5035412542135 35.0918873568481 27.6463125
vertex 63.4595616304992 25.6817709830848 27.6463125
vertex 64.5035412542135 35.0918873568481 26.6842875
endloop
endfacet
facet normal -0.993902139742747 0.110265754496984 -1.17786035659147e-16
outer loop
vertex -3.80882122647322 10.5016076929036 18.1594125
vertex 2.16447868627425 64.3431253217267 0.0
vertex -3.80882122647322 10.5016076929036 0.0
endloop
endfacet
facet normal -0.993902139742747 0.110265754496984 -1.17786035659147e-16
outer loop
vertex 2.16447868627425 64.3431253217267 0.0
vertex -3.80882122647322 10.5016076929036 18.1594125
vertex 2.16447868627425 64.3431253217267 18.1594125
endloop
endfacet
facet normal -0.110265754496985 -0.993902139742747 4.13261495124478e-16
outer loop
vertex 60.9780312924901 3.31400753708001 24.7396
vertex -3.80882122647322 10.5016076929036 0.0
vertex 60.9780312924901 3.31400753708001 0.0
endloop
endfacet
facet normal -0.110265754496985 -0.993902139742747 4.13261495124478e-16
outer loop
vertex -3.80882122647322 10.5016076929036 0.0
vertex 60.9780312924901 3.31400753708001 24.7396
vertex 34.6315988295289 6.23694042721768 18.1594125
endloop
endfacet
facet normal -0.110265754496985 -0.993902139742747 4.13261495124478e-16
outer loop
vertex 34.6315988295289 6.23694042721768 18.1594125
vertex 60.9780312924901 3.31400753708001 24.7396
vertex 34.6315988295289 6.23694042721768 24.7396
endloop
endfacet
facet normal -0.110265754496985 -0.993902139742747 4.13261495124478e-16
outer loop
vertex -3.80882122647322 10.5016076929036 18.1594125
vertex -3.80882122647322 10.5016076929036 0.0
vertex 34.6315988295289 6.23694042721768 18.1594125
endloop
endfacet
facet normal 0.993902139742747 -0.110265754496984 1.60050519058891e-16
outer loop
vertex 60.9780312924901 3.31400753708001 0.0
vertex 63.4982538571122 26.0305310037951 2.98341923199557
vertex 60.9780312924901 3.31400753708001 24.7396
endloop
endfacet
facet normal 0.993902139742747 -0.110265754496984 1.60050519058891e-16
outer loop
vertex 63.4982538571122 26.0305310037951 2.98341923199557
vertex 60.9780312924901 3.31400753708001 0.0
vertex 66.9513312052376 57.1555251659032 0.0
endloop
endfacet
facet normal 0.993902139742747 -0.110265754496984 1.60050519058891e-16
outer loop
vertex 60.9780312924901 3.31400753708001 24.7396
vertex 63.4982538571122 26.0305310037951 2.98341923199557
vertex 62.9676588246369 21.2479079625825 24.7396
endloop
endfacet
facet normal 0.993902139742747 -0.110265754496984 1.60050519058891e-16
outer loop
vertex 63.4982538571122 26.0305310037951 2.98341923199557
vertex 66.9513312052376 57.1555251659032 0.0
vertex 64.3626353765456 33.821804419899 2.98341923199557
endloop
endfacet
facet normal 0.993902139742747 -0.110265754496984 1.60050519058891e-16
outer loop
vertex 64.3626353765456 33.821804419899 2.98341923199557
vertex 66.9513312052376 57.1555251659032 0.0
vertex 64.3626353765456 33.821804419899 4.96461923199557
endloop
endfacet
facet normal 0.993902139742747 -0.110265754496984 1.60050519058891e-16
outer loop
vertex 64.3626353765456 33.821804419899 4.96461923199557
vertex 66.9513312052376 57.1555251659032 0.0
vertex 65.0164075697664 39.7147091092167 24.7396
endloop
endfacet
facet normal 0.993902139742747 -0.110265754496984 1.60050519058891e-16
outer loop
vertex 65.0164075697664 39.7147091092167 24.7396
vertex 66.9513312052376 57.1555251659032 0.0
vertex 66.9513312052376 57.1555251659032 24.7396
endloop
endfacet
facet normal 0.993902139742747 -0.110265754496984 1.60050519058891e-16
outer loop
vertex 62.9676588246369 21.2479079625825 24.7396
vertex 63.4982538571122 26.0305310037951 4.96461923199557
vertex 65.0164075697664 39.7147091092167 24.7396
endloop
endfacet
facet normal 0.993902139742747 -0.110265754496984 1.60050519058891e-16
outer loop
vertex 63.4982538571122 26.0305310037951 4.96461923199557
vertex 62.9676588246369 21.2479079625825 24.7396
vertex 63.4982538571122 26.0305310037951 2.98341923199557
endloop
endfacet
facet normal 0.993902139742747 -0.110265754496984 1.60050519058891e-16
outer loop
vertex 65.0164075697664 39.7147091092167 24.7396
vertex 63.4982538571122 26.0305310037951 4.96461923199557
vertex 64.3626353765456 33.821804419899 4.96461923199557
endloop
endfacet
facet normal -0.0 -0.0 1.0
outer loop
vertex 62.9676588246369 21.2479079625825 24.7396
vertex 61.2194346559365 21.441859911455 24.7396
vertex 60.9780312924901 3.31400753708001 24.7396
endloop
endfacet
facet normal -0.0 -0.0 1.0
outer loop
vertex 60.9780312924901 3.31400753708001 24.7396
vertex 36.8232871473225 25.9921556220108 24.7396
vertex 34.6315988295289 6.23694042721768 24.7396
endloop
endfacet
facet normal -0.0 -0.0 1.0
outer loop
vertex 36.8232871473225 25.9921556220108 24.7396
vertex 60.9780312924901 3.31400753708001 24.7396
vertex 37.4165959420456 31.3400615361684 24.7396
endloop
endfacet
facet normal -0.0 -0.0 1.0
outer loop
vertex 37.4165959420456 31.3400615361684 24.7396
vertex 60.9780312924901 3.31400753708001 24.7396
vertex 51.0967958099205 29.8223491781981 24.7396
endloop
endfacet
facet normal -0.0 -0.0 1.0
outer loop
vertex 51.0967958099205 29.8223491781981 24.7396
vertex 60.9780312924901 3.31400753708001 24.7396
vertex 51.8873075437726 36.9477827033348 24.7396
endloop
endfacet
facet normal -0.0 -0.0 1.0
outer loop
vertex 51.8873075437726 36.9477827033348 24.7396
vertex 60.9780312924901 3.31400753708001 24.7396
vertex 53.6635434681964 58.6297024332948 24.7396
endloop
endfacet
facet normal -0.0 -0.0 1.0
outer loop
vertex 53.6635434681964 58.6297024332948 24.7396
vertex 60.9780312924901 3.31400753708001 24.7396
vertex 60.4345741584868 57.8785089526364 24.7396
endloop
endfacet
facet normal -0.0 -0.0 1.0
outer loop
vertex 60.4345741584868 57.8785089526364 24.7396
vertex 60.9780312924901 3.31400753708001 24.7396
vertex 61.2194346559365 21.441859911455 24.7396
endloop
endfacet
facet normal -0.0 -0.0 1.0
outer loop
vertex 60.4345741584868 57.8785089526364 24.7396
vertex 61.2194346559365 21.441859911455 24.7396
vertex 63.2681834010659 39.9086610580892 24.7396
endloop
endfacet
facet normal -0.0 -0.0 1.0
outer loop
vertex 60.4345741584868 57.8785089526364 24.7396
vertex 63.2681834010659 39.9086610580892 24.7396
vertex 66.9513312052376 57.1555251659032 24.7396
endloop
endfacet
facet normal -0.0 -0.0 1.0
outer loop
vertex 66.9513312052376 57.1555251659032 24.7396
vertex 63.2681834010659 39.9086610580892 24.7396
vertex 65.0164075697664 39.7147091092167 24.7396
endloop
endfacet
facet normal -0.0 -0.0 1.0
outer loop
vertex 51.8873075437726 36.9477827033348 24.7396
vertex 38.6767584690608 42.6987851737812 24.7396
vertex 38.2071076758976 38.4654950613052 24.7396
endloop
endfacet
facet normal -0.0 -0.0 1.0
outer loop
vertex 38.6767584690608 42.6987851737812 24.7396
vertex 51.8873075437726 36.9477827033348 24.7396
vertex 40.6048987422764 60.0784580560408 24.7396
endloop
endfacet
facet normal -0.0 -0.0 1.0
outer loop
vertex 40.6048987422764 60.0784580560408 24.7396
vertex 51.8873075437726 36.9477827033348 24.7396
vertex 53.6635434681964 58.6297024332948 24.7396
endloop
endfacet
facet normal 0.0 0.0 -1.0
outer loop
vertex 2.16447868627425 64.3431253217267 0.0
vertex 60.9780312924901 3.31400753708001 0.0
vertex -3.80882122647322 10.5016076929036 0.0
endloop
endfacet
facet normal 0.0 0.0 -1.0
outer loop
vertex 60.9780312924901 3.31400753708001 0.0
vertex 2.16447868627425 64.3431253217267 0.0
vertex 53.6635434681964 58.6297024332948 0.0
endloop
endfacet
facet normal 0.0 0.0 -1.0
outer loop
vertex 60.9780312924901 3.31400753708001 0.0
vertex 53.6635434681964 58.6297024332948 0.0
vertex 60.4345741584868 57.8785089526364 0.0
endloop
endfacet
facet normal 0.0 0.0 -1.0
outer loop
vertex 60.9780312924901 3.31400753708001 0.0
vertex 60.4345741584868 57.8785089526364 0.0
vertex 66.9513312052376 57.1555251659032 0.0
endloop
endfacet
endsolid Republic Plaza
