solid Riverfront Park
facet normal -0.00823536128166652 0.999966088837297 -0.0
outer loop
vertex 8.19827687853552 79.2022131910528 10.12825
vertex 17.8372750224653 79.2815965151422 -8.02005
vertex 8.19827687853552 79.2022131910528 -8.02005
endloop
endfacet
facet normal -0.00823536128166652 0.999966088837297 -0.0
outer loop
vertex 17.8372750224653 79.2815965151422 -8.02005
vertex 8.19827687853552 79.2022131910528 10.12825
vertex 17.8372750224653 79.2815965151422 10.12825
endloop
endfacet
facet normal -0.0182437498222718 -0.149201487756422 0.988638498969008
outer loop
vertex 74.2450154776793 -24.5851112088932 10.12825
vertex 66.5474416940963 -76.7843520869145 2.10849655384944
vertex 64.8642523733276 -90.5498527805814 0.0
endloop
endfacet
facet normal 0.992607097336091 -0.121371950293389 -0.0
outer loop
vertex 66.5474416940963 -76.7843520869145 -6.096
vertex 64.8642523733276 -90.5498527805814 0.0
vertex 64.8642523733276 -90.5498527805814 -6.096
endloop
endfacet
facet normal 0.992607097336091 -0.121371950293389 -0.0
outer loop
vertex 64.8642523733276 -90.5498527805814 0.0
vertex 66.5474416940963 -76.7843520869145 -6.096
vertex 66.5474416940963 -76.7843520869145 2.10849655384944
endloop
endfacet
facet normal -0.0 1.0 -0.0
outer loop
vertex 17.8372750224653 79.2815965151422 10.12825
vertex 107.165648129822 79.2815965151422 -8.02005
vertex 17.8372750224653 79.2815965151422 -8.02005
endloop
endfacet
facet normal -0.0 1.0 -0.0
outer loop
vertex 107.165648129822 79.2815965151422 -8.02005
vertex 17.8372750224653 79.2815965151422 10.12825
vertex 107.165648129822 79.2815965151422 10.12825
endloop
endfacet
facet normal 0.827519173481686 -0.202483007126314 0.523653176582814
outer loop
vertex 74.2450154776793 -24.5851112088932 10.12825
vertex 66.5474416940963 -76.7843520869145 2.10849655384944
vertex 67.8429356018007 -76.942759801904 0.0
endloop
endfacet
facet normal -0.136765459894196 -0.990603456979598 -0.0
outer loop
vertex 65.7188832614989 66.8357038021484 7.56285
vertex -3.61315551146604 76.4078773105052 -8.02005
vertex 65.7188832614989 66.8357038021484 -8.02005
endloop
endfacet
facet normal -0.136765459894196 -0.990603456979598 -0.0
outer loop
vertex -3.61315551146604 76.4078773105052 -8.02005
vertex 65.7188832614989 66.8357038021484 7.56285
vertex -3.61315551146604 76.4078773105052 7.56285
endloop
endfacet
facet normal -0.992607097336091 0.121371950293389 -1.34610112364108e-15
outer loop
vertex -115.896311324895 -1.33540472650321 10.12825
vertex -123.981580521542 -67.4585540131809 -6.096
vertex -123.981580521542 -67.4585540131809 0.0
endloop
endfacet
facet normal -0.992607097336091 0.121371950293389 -1.34610112364108e-15
outer loop
vertex -123.981580521542 -67.4585540131809 -6.096
vertex -115.896311324895 -1.33540472650321 10.12825
vertex -122.298391200774 -53.6930533195141 -6.096
endloop
endfacet
facet normal -0.992607097336091 0.121371950293389 -1.34610112364108e-15
outer loop
vertex -122.298391200774 -53.6930533195141 -6.096
vertex -115.896311324895 -1.33540472650321 10.12825
vertex -122.298391200774 -53.6930533195141 -8.02005
endloop
endfacet
facet normal -0.992607097336091 0.121371950293389 -1.34610112364108e-15
outer loop
vertex -122.298391200774 -53.6930533195141 -8.02005
vertex -115.896311324895 -1.33540472650321 10.12825
vertex -112.959675297947 22.6810649404619 -8.02005
endloop
endfacet
facet normal -0.992607097336091 0.121371950293389 -1.34610112364108e-15
outer loop
vertex -112.959675297947 22.6810649404619 -8.02005
vertex -115.896311324895 -1.33540472650321 10.12825
vertex -112.959675297947 22.6810649404619 10.12825
endloop
endfacet
facet normal 0.00695432663672764 0.999975818378139 -0.0
outer loop
vertex -3.21640187017822 79.2815965151422 10.12825
vertex 8.19827687853552 79.2022131910528 -8.02005
vertex -3.21640187017822 79.2815965151422 -8.02005
endloop
endfacet
facet normal 0.00695432663672764 0.999975818378139 -0.0
outer loop
vertex 8.19827687853552 79.2022131910528 -8.02005
vertex -3.21640187017822 79.2815965151422 10.12825
vertex 8.19827687853552 79.2022131910528 10.12825
endloop
endfacet
facet normal 0.99260709733609 -0.12137195029339 1.39361230977705e-15
outer loop
vertex 81.9631744905508 38.535728458145 -8.02005
vertex 67.8429356018007 -76.942759801904 0.0
vertex 67.8429356018007 -76.942759801904 -8.02005
endloop
endfacet
facet normal 0.99260709733609 -0.12137195029339 1.39361230977705e-15
outer loop
vertex 67.8429356018007 -76.942759801904 0.0
vertex 81.9631744905508 38.535728458145 -8.02005
vertex 74.2450154776793 -24.5851112088932 10.12825
endloop
endfacet
facet normal 0.99260709733609 -0.12137195029339 1.39361230977705e-15
outer loop
vertex 74.2450154776793 -24.5851112088932 10.12825
vertex 81.9631744905508 38.535728458145 -8.02005
vertex 81.9631744905508 38.535728458145 10.12825
endloop
endfacet
facet normal -0.0 -0.0 1.0
outer loop
vertex 74.2450154776793 -24.5851112088932 10.12825
vertex -112.959675297947 22.6810649404619 10.12825
vertex -115.896311324895 -1.33540472650321 10.12825
endloop
endfacet
facet normal -0.0 -0.0 1.0
outer loop
vertex -112.959675297947 22.6810649404619 10.12825
vertex 74.2450154776793 -24.5851112088932 10.12825
vertex -79.7433367729216 28.0706436849043 10.12825
endloop
endfacet
facet normal -0.0 -0.0 1.0
outer loop
vertex -79.7433367729216 28.0706436849043 10.12825
vertex 74.2450154776793 -24.5851112088932 10.12825
vertex -23.6152695057058 34.2805617318187 10.12825
endloop
endfacet
facet normal -0.0 -0.0 1.0
outer loop
vertex -23.6152695057058 34.2805617318187 10.12825
vertex 74.2450154776793 -24.5851112088932 10.12825
vertex -9.42936950570575 34.2805617318187 10.12825
endloop
endfacet
facet normal -0.0 -0.0 1.0
outer loop
vertex -9.42936950570575 34.2805617318187 10.12825
vertex 74.2450154776793 -24.5851112088932 10.12825
vertex -3.21640187017822 79.2815965151422 10.12825
endloop
endfacet
facet normal -0.0 -0.0 1.0
outer loop
vertex -3.21640187017822 79.2815965151422 10.12825
vertex 74.2450154776793 -24.5851112088932 10.12825
vertex 8.19827687853552 79.2022131910528 10.12825
endloop
endfacet
facet normal -0.0 -0.0 1.0
outer loop
vertex 8.19827687853552 79.2022131910528 10.12825
vertex 74.2450154776793 -24.5851112088932 10.12825
vertex 17.8372750224653 79.2815965151422 10.12825
endloop
endfacet
facet normal -0.0 -0.0 1.0
outer loop
vertex 17.8372750224653 79.2815965151422 10.12825
vertex 74.2450154776793 -24.5851112088932 10.12825
vertex 81.9631744905508 38.535728458145 10.12825
endloop
endfacet
facet normal -0.0 -0.0 1.0
outer loop
vertex 17.8372750224653 79.2815965151422 10.12825
vertex 81.9631744905508 38.535728458145 10.12825
vertex 107.165648129822 79.2815965151422 10.12825
endloop
endfacet
facet normal -0.0 -0.0 1.0
outer loop
vertex 107.165648129822 79.2815965151422 10.12825
vertex 81.9631744905508 38.535728458145 10.12825
vertex 101.90871444691 36.096869124321 10.12825
endloop
endfacet
facet normal -0.0182437498223346 -0.149201487756432 0.988638498969005
outer loop
vertex 64.8642523733276 -90.5498527805814 0.0
vertex -115.896311324895 -1.33540472650321 10.12825
vertex -123.981580521542 -67.4585540131809 0.0
endloop
endfacet
facet normal -0.0182437498223346 -0.149201487756432 0.988638498969005
outer loop
vertex -115.896311324895 -1.33540472650321 10.12825
vertex 64.8642523733276 -90.5498527805814 0.0
vertex 66.5474416940963 -76.7843520869145 2.10849655384944
endloop
endfacet
facet normal -0.0182437498223346 -0.149201487756432 0.988638498969005
outer loop
vertex -115.896311324895 -1.33540472650321 10.12825
vertex 66.5474416940963 -76.7843520869145 2.10849655384944
vertex 74.2450154776793 -24.5851112088932 10.12825
endloop
endfacet
facet normal 0.0 0.0 -1.0
outer loop
vertex -122.298391200774 -53.6930533195141 -6.096
vertex 64.8642523733276 -90.5498527805814 -6.096
vertex -123.981580521542 -67.4585540131809 -6.096
endloop
endfacet
facet normal 0.0 0.0 -1.0
outer loop
vertex 64.8642523733276 -90.5498527805814 -6.096
vertex -122.298391200774 -53.6930533195141 -6.096
vertex 66.5474416940963 -76.7843520869145 -6.096
endloop
endfacet
facet normal -0.121371950293389 -0.992607097336091 -0.0
outer loop
vertex 64.8642523733276 -90.5498527805814 0.0
vertex -123.981580521542 -67.4585540131809 -6.096
vertex 64.8642523733276 -90.5498527805814 -6.096
endloop
endfacet
facet normal -0.121371950293389 -0.992607097336091 -0.0
outer loop
vertex -123.981580521542 -67.4585540131809 -6.096
vertex 64.8642523733276 -90.5498527805814 0.0
vertex -123.981580521542 -67.4585540131809 0.0
endloop
endfacet
facet normal -0.121371950293389 -0.992607097336091 3.98028635880011e-15
outer loop
vertex 67.8429356018007 -76.942759801904 -8.02005
vertex 66.5474416940963 -76.7843520869145 -6.096
vertex -122.298391200774 -53.6930533195141 -8.02005
endloop
endfacet
facet normal -0.121371950293389 -0.992607097336091 3.98028635880011e-15
outer loop
vertex 66.5474416940963 -76.7843520869145 -6.096
vertex 67.8429356018007 -76.942759801904 -8.02005
vertex 67.8429356018007 -76.942759801904 0.0
endloop
endfacet
facet normal -0.121371950293389 -0.992607097336091 3.98028635880011e-15
outer loop
vertex 66.5474416940963 -76.7843520869145 -6.096
vertex 67.8429356018007 -76.942759801904 0.0
vertex 66.5474416940963 -76.7843520869145 2.10849655384944
endloop
endfacet
facet normal -0.121371950293389 -0.992607097336091 3.98028635880011e-15
outer loop
vertex -122.298391200774 -53.6930533195141 -6.096
vertex -122.298391200774 -53.6930533195141 -8.02005
vertex 66.5474416940963 -76.7843520869145 -6.096
endloop
endfacet
facet normal 0.992672085160656 -0.120839278973335 -0.0
outer loop
vertex 107.165648129822 79.2815965151422 -8.02005
vertex 101.90871444691 36.096869124321 10.12825
vertex 101.90871444691 36.096869124321 -8.02005
endloop
endfacet
facet normal 0.992672085160656 -0.120839278973335 -0.0
outer loop
vertex 101.90871444691 36.096869124321 10.12825
vertex 107.165648129822 79.2815965151422 -8.02005
vertex 107.165648129822 79.2815965151422 10.12825
endloop
endfacet
facet normal 0.136765459894196 0.990603456979598 -0.0
outer loop
vertex -8.88992254437983 38.1878203712442 7.56285
vertex 60.4421162285851 28.6156468628874 -8.02005
vertex -8.88992254437983 38.1878203712442 -8.02005
endloop
endfacet
facet normal 0.136765459894196 0.990603456979598 -0.0
outer loop
vertex 60.4421162285851 28.6156468628874 -8.02005
vertex -8.88992254437983 38.1878203712442 7.56285
vertex 60.4421162285851 28.6156468628874 7.56285
endloop
endfacet
facet normal -0.0 0.0 -1.0
outer loop
vertex -3.61315551146604 76.4078773105052 7.56285
vertex 60.4421162285851 28.6156468628874 7.56285
vertex -8.88992254437983 38.1878203712442 7.56285
endloop
endfacet
facet normal -0.0 0.0 -1.0
outer loop
vertex 60.4421162285851 28.6156468628874 7.56285
vertex -3.61315551146604 76.4078773105052 7.56285
vertex 65.7188832614989 66.8357038021484 7.56285
endloop
endfacet
facet normal 0.0 0.0 -1.0
outer loop
vertex -3.21640187017822 79.2815965151422 -8.02005
vertex 65.7188832614989 66.8357038021484 -8.02005
vertex -3.61315551146604 76.4078773105052 -8.02005
endloop
endfacet
facet normal 0.0 0.0 -1.0
outer loop
vertex 65.7188832614989 66.8357038021484 -8.02005
vertex -3.21640187017822 79.2815965151422 -8.02005
vertex 8.19827687853552 79.2022131910528 -8.02005
endloop
endfacet
facet normal 0.0 0.0 -1.0
outer loop
vertex 65.7188832614989 66.8357038021484 -8.02005
vertex 8.19827687853552 79.2022131910528 -8.02005
vertex 17.8372750224653 79.2815965151422 -8.02005
endloop
endfacet
facet normal 0.0 0.0 -1.0
outer loop
vertex 65.7188832614989 66.8357038021484 -8.02005
vertex 17.8372750224653 79.2815965151422 -8.02005
vertex 107.165648129822 79.2815965151422 -8.02005
endloop
endfacet
facet normal 0.0 0.0 -1.0
outer loop
vertex 65.7188832614989 66.8357038021484 -8.02005
vertex 107.165648129822 79.2815965151422 -8.02005
vertex 81.9631744905508 38.535728458145 -8.02005
endloop
endfacet
facet normal 0.0 0.0 -1.0
outer loop
vertex 65.7188832614989 66.8357038021484 -8.02005
vertex 81.9631744905508 38.535728458145 -8.02005
vertex 67.8429356018007 -76.942759801904 -8.02005
endloop
endfacet
facet normal 0.0 0.0 -1.0
outer loop
vertex 81.9631744905508 38.535728458145 -8.02005
vertex 107.165648129822 79.2815965151422 -8.02005
vertex 101.90871444691 36.096869124321 -8.02005
endloop
endfacet
facet normal 0.0 0.0 -1.0
outer loop
vertex -112.959675297947 22.6810649404619 -8.02005
vertex 67.8429356018007 -76.942759801904 -8.02005
vertex -122.298391200774 -53.6930533195141 -8.02005
endloop
endfacet
facet normal 0.0 0.0 -1.0
outer loop
vertex 67.8429356018007 -76.942759801904 -8.02005
vertex -112.959675297947 22.6810649404619 -8.02005
vertex -79.7433367729216 28.0706436849043 -8.02005
endloop
endfacet
facet normal 0.0 0.0 -1.0
outer loop
vertex 67.8429356018007 -76.942759801904 -8.02005
vertex -79.7433367729216 28.0706436849043 -8.02005
vertex -23.6152695057058 34.2805617318187 -8.02005
endloop
endfacet
facet normal 0.0 0.0 -1.0
outer loop
vertex 67.8429356018007 -76.942759801904 -8.02005
vertex -23.6152695057058 34.2805617318187 -8.02005
vertex -9.42936950570575 34.2805617318187 -8.02005
endloop
endfacet
facet normal 0.0 0.0 -1.0
outer loop
vertex 67.8429356018007 -76.942759801904 -8.02005
vertex -9.42936950570575 34.2805617318187 -8.02005
vertex -8.88992254437983 38.1878203712442 -8.02005
endloop
endfacet
facet normal 0.0 0.0 -1.0
outer loop
vertex 67.8429356018007 -76.942759801904 -8.02005
vertex -8.88992254437983 38.1878203712442 -8.02005
vertex 60.4421162285851 28.6156468628874 -8.02005
endloop
endfacet
facet normal 0.0 0.0 -1.0
outer loop
vertex 67.8429356018007 -76.942759801904 -8.02005
vertex 60.4421162285851 28.6156468628874 -8.02005
vertex 65.7188832614989 66.8357038021484 -8.02005
endloop
endfacet
facet normal -0.160162236817202 0.987090703987081 0.0
outer loop
vertex -112.959675297947 22.6810649404619 10.12825
vertex -79.7433367729216 28.0706436849043 -8.02005
vertex -112.959675297947 22.6810649404619 -8.02005
endloop
endfacet
facet normal -0.160162236817202 0.987090703987081 0.0
outer loop
vertex -79.7433367729216 28.0706436849043 -8.02005
vertex -112.959675297947 22.6810649404619 10.12825
vertex -79.7433367729216 28.0706436849043 10.12825
endloop
endfacet
facet normal -0.109967373204519 0.993935197500571 0.0
outer loop
vertex -79.7433367729216 28.0706436849043 10.12825
vertex -23.6152695057058 34.2805617318187 -8.02005
vertex -79.7433367729216 28.0706436849043 -8.02005
endloop
endfacet
facet normal -0.109967373204519 0.993935197500571 0.0
outer loop
vertex -23.6152695057058 34.2805617318187 -8.02005
vertex -79.7433367729216 28.0706436849043 10.12825
vertex -23.6152695057058 34.2805617318187 10.12825
endloop
endfacet
facet normal -0.0 1.0 0.0
outer loop
vertex -23.6152695057058 34.2805617318187 10.12825
vertex -9.42936950570575 34.2805617318187 -8.02005
vertex -23.6152695057058 34.2805617318187 -8.02005
endloop
endfacet
facet normal -0.0 1.0 0.0
outer loop
vertex -9.42936950570575 34.2805617318187 -8.02005
vertex -23.6152695057058 34.2805617318187 10.12825
vertex -9.42936950570575 34.2805617318187 10.12825
endloop
endfacet
facet normal -0.12137195029339 -0.99260709733609 -0.0
outer loop
vertex 101.90871444691 36.096869124321 10.12825
vertex 81.9631744905508 38.535728458145 -8.02005
vertex 101.90871444691 36.096869124321 -8.02005
endloop
endfacet
facet normal -0.12137195029339 -0.99260709733609 -0.0
outer loop
vertex 81.9631744905508 38.535728458145 -8.02005
vertex 101.90871444691 36.096869124321 10.12825
vertex 81.9631744905508 38.535728458145 10.12825
endloop
endfacet
facet normal -0.990603456979598 0.136765459894196 1.69529464319466e-17
outer loop
vertex -9.42936950570575 34.2805617318187 10.12825
vertex -8.88992254437983 38.1878203712442 7.56285
vertex -9.42936950570575 34.2805617318187 -8.02005
endloop
endfacet
facet normal -0.990603456979598 0.136765459894196 1.69529464319466e-17
outer loop
vertex -8.88992254437983 38.1878203712442 7.56285
vertex -9.42936950570575 34.2805617318187 10.12825
vertex -3.21640187017822 79.2815965151422 10.12825
endloop
endfacet
facet normal -0.990603456979598 0.136765459894196 1.69529464319466e-17
outer loop
vertex -8.88992254437983 38.1878203712442 7.56285
vertex -3.21640187017822 79.2815965151422 10.12825
vertex -3.61315551146604 76.4078773105052 7.56285
endloop
endfacet
facet normal -0.990603456979598 0.136765459894196 1.69529464319466e-17
outer loop
vertex -3.61315551146604 76.4078773105052 7.56285
vertex -3.21640187017822 79.2815965151422 10.12825
vertex -3.61315551146604 76.4078773105052 -8.02005
endloop
endfacet
facet normal -0.990603456979598 0.136765459894196 1.69529464319466e-17
outer loop
vertex -3.61315551146604 76.4078773105052 -8.02005
vertex -3.21640187017822 79.2815965151422 10.12825
vertex -3.21640187017822 79.2815965151422 -8.02005
endloop
endfacet
facet normal -0.990603456979598 0.136765459894196 1.69529464319466e-17
outer loop
vertex -8.88992254437983 38.1878203712442 -8.02005
vertex -9.42936950570575 34.2805617318187 -8.02005
vertex -8.88992254437983 38.1878203712442 7.56285
endloop
endfacet
facet normal -0.990603456979598 0.136765459894196 0.0
outer loop
vertex 65.7188832614989 66.8357038021484 7.56285
vertex 60.4421162285851 28.6156468628874 -8.02005
vertex 60.4421162285851 28.6156468628874 7.56285
endloop
endfacet
facet normal -0.990603456979598 0.136765459894196 0.0
outer loop
vertex 60.4421162285851 28.6156468628874 -8.02005
vertex 65.7188832614989 66.8357038021484 7.56285
vertex 65.7188832614989 66.8357038021484 -8.02005
endloop
endfacet
endsolid Riverfront Park
