solid Shops on 1st Street (LaGrange)
facet normal 0.959941249622708 0.280201351304367 -5.84379587513893e-15
outer loop
vertex -8.6715301881867 17.670232892471 5.57507232923007
vertex -8.45032674475492 16.9124124575578 6.68790982923001
vertex -8.45032674475493 16.9124124575578 5.57507232923007
endloop
endfacet
facet normal 0.959941249622708 0.280201351304367 -5.84379587513893e-15
outer loop
vertex -8.45032674475492 16.9124124575578 6.68790982923001
vertex -8.6715301881867 17.670232892471 5.57507232923007
vertex -8.45032674475492 16.9124124575578 6.85777232923001
endloop
endfacet
facet normal 0.959941249622708 0.280201351304367 -5.84379587513893e-15
outer loop
vertex -8.45032674475492 16.9124124575578 6.85777232923001
vertex -8.6715301881867 17.670232892471 5.57507232923007
vertex -8.6715301881867 17.670232892471 6.85777232923001
endloop
endfacet
facet normal -0.959941249622709 -0.280201351304366 -1.94187903783923e-17
outer loop
vertex -3.21132961045623 -2.6590676715893 5.97535
vertex -1.71522110907819 -7.7845827974031 -1.3192125
vertex -1.71522110907819 -7.7845827974031 5.97535
endloop
endfacet
facet normal -0.959941249622709 -0.280201351304366 -1.94187903783923e-17
outer loop
vertex -1.71522110907819 -7.7845827974031 -1.3192125
vertex -3.21132961045623 -2.6590676715893 5.97535
vertex -3.21132961045623 -2.6590676715893 -1.3192125
endloop
endfacet
facet normal -0.959941249622709 -0.280201351304366 -1.94187903783923e-17
outer loop
vertex -3.21132961045623 -2.6590676715893 -1.3192125
vertex -3.21132961045623 -2.6590676715893 5.97535
vertex -3.21132961045623 -2.6590676715893 2.5479375
endloop
endfacet
facet normal 0.295353830037974 -0.955387939573187 4.07578417521084e-17
outer loop
vertex 3.90159739929644 0.648907894868787 4.41789084840629
vertex -3.50825964462253 -1.64181566077191 2.5479375
vertex -2.32111393932386 -1.27481497304109 2.5479375
endloop
endfacet
facet normal 0.295353830037974 -0.955387939573187 4.07578417521084e-17
outer loop
vertex -3.50825964462253 -1.64181566077191 2.5479375
vertex 3.90159739929644 0.648907894868787 4.41789084840629
vertex -3.07367023849491 -1.50746432528084 5.57507232923001
endloop
endfacet
facet normal 0.295353830037974 -0.955387939573187 4.07578417521084e-17
outer loop
vertex -3.50825964462253 -1.64181566077191 2.5479375
vertex -3.07367023849491 -1.50746432528084 5.57507232923001
vertex -3.50825964462253 -1.64181566077191 6.4912875
endloop
endfacet
facet normal 0.295353830037974 -0.955387939573187 4.07578417521084e-17
outer loop
vertex -3.07367023849491 -1.50746432528084 5.57507232923001
vertex 3.90159739929644 0.648907894868787 4.41789084840629
vertex 3.90159739929644 0.648907894868787 5.57507232923001
endloop
endfacet
facet normal 0.295353830037974 -0.955387939573187 4.07578417521084e-17
outer loop
vertex -3.50825964462253 -1.64181566077191 6.4912875
vertex -3.07367023849491 -1.50746432528084 5.57507232923001
vertex -3.07367023849491 -1.50746432528084 6.4912875
endloop
endfacet
facet normal -0.959941249622709 -0.280201351304366 -2.10936717967155e-17
outer loop
vertex -3.50825964462253 -1.64181566077191 2.5479375
vertex -3.21132961045623 -2.6590676715893 -1.3192125
vertex -3.21132961045623 -2.6590676715893 2.5479375
endloop
endfacet
facet normal -0.959941249622709 -0.280201351304366 -2.10936717967155e-17
outer loop
vertex -3.21132961045623 -2.6590676715893 -1.3192125
vertex -3.50825964462253 -1.64181566077191 2.5479375
vertex -3.50825964462253 -1.64181566077191 -1.3192125
endloop
endfacet
facet normal -0.295353830037975 0.955387939573187 -2.87687972125537e-17
outer loop
vertex -6.27782137812258 7.84642034875173 -1.3192125
vertex -5.84323197199495 7.9807716842428 5.57507232923001
vertex 3.74213436501835 10.9440440291069 -1.3192125
endloop
endfacet
facet normal -0.295353830037975 0.955387939573187 -2.87687972125537e-17
outer loop
vertex -5.84323197199495 7.9807716842428 5.57507232923001
vertex -6.27782137812258 7.84642034875173 -1.3192125
vertex -6.27782137812258 7.84642034875173 6.4912875
endloop
endfacet
facet normal -0.295353830037975 0.955387939573187 -2.87687972125537e-17
outer loop
vertex -5.84323197199495 7.9807716842428 5.57507232923001
vertex -6.27782137812258 7.84642034875173 6.4912875
vertex -5.84323197199495 7.9807716842428 6.4912875
endloop
endfacet
facet normal -0.295353830037975 0.955387939573187 -2.87687972125537e-17
outer loop
vertex 3.74213436501835 10.9440440291069 5.57507232923001
vertex 3.74213436501835 10.9440440291069 -1.3192125
vertex -5.84323197199495 7.9807716842428 5.57507232923001
endloop
endfacet
facet normal 0.959941249622709 0.280201351304366 0.0
outer loop
vertex -1.99119334558139 -2.28186810262677 5.88366337344635
vertex 3.74790332864126 -21.9434279327737 5.97535
vertex 3.74790332864126 -21.9434279327737 5.88366337344621
endloop
endfacet
facet normal 0.959941249622709 0.280201351304366 0.0
outer loop
vertex 3.74790332864126 -21.9434279327737 5.97535
vertex -1.99119334558139 -2.28186810262677 5.88366337344635
vertex -1.99119334558139 -2.28186810262677 5.97535000000014
endloop
endfacet
facet normal -0.295353830037973 0.955387939573187 0.0
outer loop
vertex -4.98759190396211 3.42622577095939 1.3033375
vertex -4.230464688555 3.66028820113448 -1.3192125
vertex -4.98759190396211 3.42622577095939 -1.3192125
endloop
endfacet
facet normal -0.295353830037973 0.955387939573187 0.0
outer loop
vertex -4.230464688555 3.66028820113448 -1.3192125
vertex -4.98759190396211 3.42622577095939 1.3033375
vertex -4.230464688555 3.66028820113448 1.3033375
endloop
endfacet
facet normal 0.959941249622709 0.280201351304366 -3.23146909523639e-15
outer loop
vertex -8.45032674475493 16.9124124575578 5.57507232923007
vertex -5.99402977910899 8.49738959035766 6.70571564811082
vertex -5.99402977910899 8.49738959035766 5.57507232923007
endloop
endfacet
facet normal 0.959941249622709 0.280201351304366 -3.23146909523639e-15
outer loop
vertex -5.99402977910899 8.49738959035766 6.70571564811082
vertex -8.45032674475493 16.9124124575578 5.57507232923007
vertex -6.78190579546503 11.1965724607038 6.70571564811082
endloop
endfacet
facet normal 0.959941249622709 0.280201351304366 -3.23146909523639e-15
outer loop
vertex -6.78190579546503 11.1965724607038 6.70571564811082
vertex -8.45032674475493 16.9124124575578 5.57507232923007
vertex -7.08195265107209 12.224502383868 6.975475
endloop
endfacet
facet normal 0.959941249622709 0.280201351304366 -3.23146909523639e-15
outer loop
vertex -7.08195265107209 12.224502383868 6.975475
vertex -8.45032674475493 16.9124124575578 5.57507232923007
vertex -7.08195265107209 12.224502383868 7.1501
endloop
endfacet
facet normal 0.959941249622709 0.280201351304366 -3.23146909523639e-15
outer loop
vertex -7.08195265107209 12.224502383868 7.1501
vertex -8.45032674475493 16.9124124575578 5.57507232923007
vertex -7.36738431910431 13.2023621651191 6.9262625
endloop
endfacet
facet normal 0.959941249622709 0.280201351304366 -3.23146909523639e-15
outer loop
vertex -7.36738431910431 13.2023621651191 6.9262625
vertex -8.45032674475493 16.9124124575578 5.57507232923007
vertex -7.64661643574373 14.1589829156396 6.68790982923001
endloop
endfacet
facet normal 0.959941249622709 0.280201351304366 -3.23146909523639e-15
outer loop
vertex -7.64661643574373 14.1589829156396 6.68790982923001
vertex -8.45032674475493 16.9124124575578 5.57507232923007
vertex -8.45032674475492 16.9124124575578 6.68790982923001
endloop
endfacet
facet normal 0.959941249622709 0.280201351304366 -3.23146909523639e-15
outer loop
vertex -7.36738431910431 13.2023621651191 7.1501
vertex -7.08195265107209 12.224502383868 7.1501
vertex -7.36738431910431 13.2023621651191 6.9262625
endloop
endfacet
facet normal 0.959941249622708 0.280201351304366 -8.01979368799835e-16
outer loop
vertex 3.08971914787165 -0.711127147178281 6.15473749999996
vertex 8.8288158220943 -20.3726869773253 6.3674625
vertex 8.8288158220943 -20.3726869773253 6.1547375
endloop
endfacet
facet normal 0.959941249622708 0.280201351304366 -8.01979368799835e-16
outer loop
vertex 8.8288158220943 -20.3726869773253 6.3674625
vertex 3.08971914787165 -0.711127147178281 6.15473749999996
vertex 3.08971914787164 -0.711127147178281 6.36746249999996
endloop
endfacet
facet normal 0.959941249622709 0.280201351304366 0.0
outer loop
vertex -5.84323197199495 7.9807716842428 5.57507232923001
vertex -3.07367023849491 -1.50746432528084 6.4912875
vertex -3.07367023849491 -1.50746432528084 5.57507232923001
endloop
endfacet
facet normal 0.959941249622709 0.280201351304366 0.0
outer loop
vertex -3.07367023849491 -1.50746432528084 6.4912875
vertex -5.84323197199495 7.9807716842428 5.57507232923001
vertex -5.84323197199495 7.9807716842428 6.4912875
endloop
endfacet
facet normal -0.959941249622709 -0.280201351304366 -8.51779962469446e-17
outer loop
vertex -6.27782137812258 7.84642034875173 6.4912875
vertex -3.50825964462253 -1.64181566077191 2.5479375
vertex -3.50825964462253 -1.64181566077191 6.4912875
endloop
endfacet
facet normal -0.959941249622709 -0.280201351304366 -8.51779962469446e-17
outer loop
vertex -3.50825964462253 -1.64181566077191 2.5479375
vertex -6.27782137812258 7.84642034875173 6.4912875
vertex -3.50825964462253 -1.64181566077191 -1.3192125
endloop
endfacet
facet normal -0.959941249622709 -0.280201351304366 -8.51779962469446e-17
outer loop
vertex -3.50825964462253 -1.64181566077191 -1.3192125
vertex -6.27782137812258 7.84642034875173 6.4912875
vertex -4.98759190396211 3.42622577095939 1.3033375
endloop
endfacet
facet normal -0.959941249622709 -0.280201351304366 -8.51779962469446e-17
outer loop
vertex -4.98759190396211 3.42622577095939 1.3033375
vertex -6.27782137812258 7.84642034875173 6.4912875
vertex -5.46981808936883 5.07828349611033 1.3033375
endloop
endfacet
facet normal -0.959941249622709 -0.280201351304366 -8.51779962469446e-17
outer loop
vertex -5.46981808936883 5.07828349611033 1.3033375
vertex -6.27782137812258 7.84642034875173 6.4912875
vertex -5.46981808936883 5.07828349611033 -1.3192125
endloop
endfacet
facet normal -0.959941249622709 -0.280201351304366 -8.51779962469446e-17
outer loop
vertex -5.46981808936883 5.07828349611033 -1.3192125
vertex -6.27782137812258 7.84642034875173 6.4912875
vertex -6.27782137812258 7.84642034875173 -1.3192125
endloop
endfacet
facet normal -0.959941249622709 -0.280201351304366 -8.51779962469446e-17
outer loop
vertex -4.98759190396211 3.42622577095939 -1.3192125
vertex -3.50825964462253 -1.64181566077191 -1.3192125
vertex -4.98759190396211 3.42622577095939 1.3033375
endloop
endfacet
facet normal 0.295353830037975 -0.955387939573187 -4.47016681696259e-16
outer loop
vertex -6.33300302817517 8.03546705342017 0.0
vertex -5.89841362204755 8.16981838891124 5.57507232923007
vertex -6.33300302817517 8.03546705342017 6.89780314811082
endloop
endfacet
facet normal 0.295353830037975 -0.955387939573187 -4.47016681696259e-16
outer loop
vertex -5.89841362204755 8.16981838891124 5.57507232923007
vertex -6.33300302817517 8.03546705342017 0.0
vertex 3.68695271496575 11.1330907337754 1.08286712929839e-15
endloop
endfacet
facet normal 0.295353830037975 -0.955387939573187 -4.47016681696259e-16
outer loop
vertex -5.89841362204755 8.16981838891124 5.57507232923007
vertex 3.68695271496575 11.1330907337754 1.08286712929839e-15
vertex 3.68695271496575 11.1330907337754 5.57507232923004
endloop
endfacet
facet normal 0.295353830037975 -0.955387939573187 -4.47016681696259e-16
outer loop
vertex -6.33300302817517 8.03546705342017 6.89780314811082
vertex -5.89841362204755 8.16981838891124 5.57507232923007
vertex -5.89841362204755 8.16981838891124 6.89780314811082
endloop
endfacet
facet normal 1.4478050349494e-15 6.90061538027458e-16 1.0
outer loop
vertex -6.42861918523662 8.36303825486659 6.70571564811082
vertex -6.78190579546503 11.1965724607038 6.70571564811082
vertex -7.21649520159266 11.0622211252127 6.70571564811082
endloop
endfacet
facet normal 1.4478050349494e-15 6.90061538027458e-16 1.0
outer loop
vertex -6.78190579546503 11.1965724607038 6.70571564811082
vertex -6.42861918523662 8.36303825486659 6.70571564811082
vertex -5.99402977910899 8.49738959035766 6.70571564811082
endloop
endfacet
facet normal 0.144205028950004 0.0420926218063446 0.988652173828084
outer loop
vertex 8.8288158220943 -20.3726869773253 6.1547375
vertex 4.19852743346275 -0.368344115948607 5.97841222399933
vertex 3.08971914787165 -0.711127147178281 6.15473749999996
endloop
endfacet
facet normal 0.144205028950004 0.0420926218063446 0.988652173828084
outer loop
vertex 4.19852743346275 -0.368344115948607 5.97841222399933
vertex 8.8288158220943 -20.3726869773253 6.1547375
vertex 9.9376241076854 -20.0299039460956 5.97841222399938
endloop
endfacet
facet normal 0.959941249622709 0.280201351304366 5.03216663839174e-16
outer loop
vertex 12.5477228069073 -19.2230038213811 -1.3192125
vertex 6.80862613268469 0.438556008765895 5.97841222399933
vertex 12.5477228069073 -19.2230038213811 5.97841222399938
endloop
endfacet
facet normal 0.959941249622709 0.280201351304366 5.03216663839174e-16
outer loop
vertex 6.80862613268469 0.438556008765895 5.97841222399933
vertex 12.5477228069073 -19.2230038213811 -1.3192125
vertex 12.3687473171992 -18.6098520487629 -1.3192125
endloop
endfacet
facet normal 0.959941249622709 0.280201351304366 5.03216663839174e-16
outer loop
vertex 6.80862613268469 0.438556008765895 5.97841222399933
vertex 12.3687473171992 -18.6098520487629 -1.3192125
vertex 6.8086261326847 0.438556008765898 5.57507232923001
endloop
endfacet
facet normal 0.959941249622709 0.280201351304366 5.03216663839174e-16
outer loop
vertex 6.8086261326847 0.438556008765898 5.57507232923001
vertex 12.3687473171992 -18.6098520487629 -1.3192125
vertex 3.74213436501835 10.9440440291069 -1.3192125
endloop
endfacet
facet normal 0.959941249622709 0.280201351304366 5.03216663839174e-16
outer loop
vertex 6.8086261326847 0.438556008765898 5.57507232923001
vertex 3.74213436501835 10.9440440291069 -1.3192125
vertex 3.74213436501835 10.9440440291069 5.57507232923001
endloop
endfacet
facet normal -0.959941249622709 -0.280201351304366 -3.64886887075184e-17
outer loop
vertex -1.71522110907819 -7.7845827974031 5.97535
vertex 1.65842548404648 -19.3423519206209 -1.3192125
vertex 1.65842548404648 -19.3423519206209 5.97535
endloop
endfacet
facet normal -0.959941249622709 -0.280201351304366 -3.64886887075184e-17
outer loop
vertex 1.65842548404648 -19.3423519206209 -1.3192125
vertex -1.71522110907819 -7.7845827974031 5.97535
vertex -1.71522110907819 -7.7845827974031 -1.3192125
endloop
endfacet
facet normal 0.0 0.0 1.0
outer loop
vertex -3.50825964462253 -1.64181566077191 6.4912875
vertex -5.84323197199495 7.9807716842428 6.4912875
vertex -6.27782137812258 7.84642034875173 6.4912875
endloop
endfacet
facet normal 0.0 0.0 1.0
outer loop
vertex -5.84323197199495 7.9807716842428 6.4912875
vertex -3.50825964462253 -1.64181566077191 6.4912875
vertex -3.07367023849491 -1.50746432528084 6.4912875
endloop
endfacet
facet normal 0.0 0.0 -1.0
outer loop
vertex -4.71269087396172 5.31234592628543 1.3033375
vertex -4.98759190396211 3.42622577095939 1.3033375
vertex -5.46981808936883 5.07828349611033 1.3033375
endloop
endfacet
facet normal 0.0 0.0 -1.0
outer loop
vertex -4.98759190396211 3.42622577095939 1.3033375
vertex -4.71269087396172 5.31234592628543 1.3033375
vertex -4.230464688555 3.66028820113448 1.3033375
endloop
endfacet
facet normal -0.959941249622709 -0.280201351304366 -2.00937694575614e-16
outer loop
vertex -7.80197372523194 13.068010829628 7.1501
vertex -7.51654205719972 12.0901510483769 6.975475
vertex -7.51654205719972 12.0901510483769 7.1501
endloop
endfacet
facet normal -0.959941249622709 -0.280201351304366 -2.00937694575614e-16
outer loop
vertex -9.10611959431432 17.53588155698 6.85777232923001
vertex -8.88491615088255 16.7780611220667 6.68790982923001
vertex -8.88491615088255 16.7780611220667 6.85777232923001
endloop
endfacet
facet normal -0.959941249622709 -0.280201351304366 -2.00937694575614e-16
outer loop
vertex -6.42861918523662 8.36303825486659 6.89780314811082
vertex -6.33300302817517 8.03546705342017 0.0
vertex -6.33300302817517 8.03546705342017 6.89780314811082
endloop
endfacet
facet normal -0.959941249622709 -0.280201351304366 -2.00937694575614e-16
outer loop
vertex -6.33300302817517 8.03546705342017 0.0
vertex -6.42861918523662 8.36303825486659 6.89780314811082
vertex -6.42861918523662 8.36303825486659 6.70571564811082
endloop
endfacet
facet normal -0.959941249622709 -0.280201351304366 -2.00937694575614e-16
outer loop
vertex -6.33300302817517 8.03546705342017 0.0
vertex -6.42861918523662 8.36303825486659 6.70571564811082
vertex -9.10611959431432 17.53588155698 0.0
endloop
endfacet
facet normal -0.959941249622709 -0.280201351304366 -2.00937694575614e-16
outer loop
vertex -9.10611959431432 17.53588155698 0.0
vertex -6.42861918523662 8.36303825486659 6.70571564811082
vertex -7.21649520159266 11.0622211252127 6.70571564811082
endloop
endfacet
facet normal -0.959941249622709 -0.280201351304366 -2.00937694575614e-16
outer loop
vertex -9.10611959431432 17.53588155698 0.0
vertex -7.21649520159266 11.0622211252127 6.70571564811082
vertex -7.51654205719972 12.0901510483769 6.975475
endloop
endfacet
facet normal -0.959941249622709 -0.280201351304366 -2.00937694575614e-16
outer loop
vertex -9.10611959431432 17.53588155698 0.0
vertex -7.51654205719972 12.0901510483769 6.975475
vertex -7.80197372523194 13.068010829628 6.9262625
endloop
endfacet
facet normal -0.959941249622709 -0.280201351304366 -2.00937694575614e-16
outer loop
vertex -7.80197372523194 13.068010829628 6.9262625
vertex -7.51654205719972 12.0901510483769 6.975475
vertex -7.80197372523194 13.068010829628 7.1501
endloop
endfacet
facet normal -0.959941249622709 -0.280201351304366 -2.00937694575614e-16
outer loop
vertex -9.10611959431432 17.53588155698 0.0
vertex -7.80197372523194 13.068010829628 6.9262625
vertex -8.08120584187136 14.0246315801485 6.68790982923001
endloop
endfacet
facet normal -0.959941249622709 -0.280201351304366 -2.00937694575614e-16
outer loop
vertex -9.10611959431432 17.53588155698 0.0
vertex -8.08120584187136 14.0246315801485 6.68790982923001
vertex -8.88491615088255 16.7780611220667 6.68790982923001
endloop
endfacet
facet normal -0.959941249622709 -0.280201351304366 -2.00937694575614e-16
outer loop
vertex -9.10611959431432 17.53588155698 0.0
vertex -8.88491615088255 16.7780611220667 6.68790982923001
vertex -9.10611959431432 17.53588155698 6.85777232923001
endloop
endfacet
facet normal -0.959941249622708 -0.280201351304366 -6.23939203223354e-16
outer loop
vertex 1.31216594660587 -1.26064962317338 6.36746250000014
vertex 7.05126262082853 -20.9222094533203 6.1547375
vertex 7.05126262082853 -20.9222094533203 6.3674625
endloop
endfacet
facet normal -0.959941249622708 -0.280201351304366 -6.23939203223354e-16
outer loop
vertex 7.05126262082853 -20.9222094533203 6.1547375
vertex 1.31216594660587 -1.26064962317338 6.36746250000014
vertex 1.31216594660588 -1.26064962317338 6.15473750000014
endloop
endfacet
facet normal -0.295353830037974 0.955387939573187 -4.21236303949372e-16
outer loop
vertex -9.10611959431432 17.53588155698 0.0
vertex -8.6715301881867 17.670232892471 5.57507232923007
vertex 0.91383614882661 20.6335052373352 0.0
endloop
endfacet
facet normal -0.295353830037974 0.955387939573187 -4.21236303949372e-16
outer loop
vertex -8.6715301881867 17.670232892471 5.57507232923007
vertex -9.10611959431432 17.53588155698 0.0
vertex -9.10611959431432 17.53588155698 6.85777232923001
endloop
endfacet
facet normal -0.295353830037974 0.955387939573187 -4.21236303949372e-16
outer loop
vertex 0.91383614882661 20.6335052373352 0.0
vertex -8.6715301881867 17.670232892471 5.57507232923007
vertex 0.913836148826609 20.6335052373352 5.57507232923001
endloop
endfacet
facet normal -0.295353830037974 0.955387939573187 -4.21236303949372e-16
outer loop
vertex -8.6715301881867 17.670232892471 5.57507232923007
vertex -9.10611959431432 17.53588155698 6.85777232923001
vertex -8.6715301881867 17.670232892471 6.85777232923001
endloop
endfacet
facet normal 4.83998988262932e-14 1.15941874606224e-14 1.0
outer loop
vertex 7.05126262082853 -20.9222094533203 6.3674625
vertex 3.08971914787164 -0.711127147178281 6.36746249999996
vertex 1.31216594660587 -1.26064962317338 6.36746250000014
endloop
endfacet
facet normal 4.83998988262932e-14 1.15941874606224e-14 1.0
outer loop
vertex 3.08971914787164 -0.711127147178281 6.36746249999996
vertex 7.05126262082853 -20.9222094533203 6.3674625
vertex 8.8288158220943 -20.3726869773253 6.3674625
endloop
endfacet
facet normal -0.295353830037974 0.955387939573187 5.88466270001936e-16
outer loop
vertex -3.21132961045623 -2.6590676715893 5.97535
vertex -2.02418390515755 -2.29206698385848 2.5479375
vertex -3.21132961045623 -2.6590676715893 2.5479375
endloop
endfacet
facet normal -0.295353830037974 0.955387939573187 5.88466270001936e-16
outer loop
vertex -2.02418390515755 -2.29206698385848 2.5479375
vertex -3.21132961045623 -2.6590676715893 5.97535
vertex 4.19852743346275 -0.36834411594861 4.41789084840629
endloop
endfacet
facet normal -0.295353830037974 0.955387939573187 5.88466270001936e-16
outer loop
vertex 4.19852743346275 -0.36834411594861 4.41789084840629
vertex -3.21132961045623 -2.6590676715893 5.97535
vertex -1.99119334558139 -2.28186810262677 5.88366337344635
endloop
endfacet
facet normal -0.295353830037974 0.955387939573187 5.88466270001936e-16
outer loop
vertex 4.19852743346275 -0.36834411594861 4.41789084840629
vertex -1.99119334558139 -2.28186810262677 5.88366337344635
vertex 4.19852743346275 -0.36834411594861 5.57507232923001
endloop
endfacet
facet normal -0.295353830037974 0.955387939573187 5.88466270001936e-16
outer loop
vertex -1.99119334558139 -2.28186810262677 5.88366337344635
vertex -3.21132961045623 -2.6590676715893 5.97535
vertex -1.99119334558139 -2.28186810262677 5.97535000000014
endloop
endfacet
facet normal -0.295353830037974 0.955387939573187 5.88466270001936e-16
outer loop
vertex 4.19852743346275 -0.36834411594861 5.57507232923001
vertex -0.47853622956761 -1.81423704487189 5.88366337344635
vertex 4.19852743346275 -0.368344115948607 5.97841222399933
endloop
endfacet
facet normal -0.295353830037974 0.955387939573187 5.88466270001936e-16
outer loop
vertex -0.47853622956761 -1.81423704487189 5.88366337344635
vertex 4.19852743346275 -0.36834411594861 5.57507232923001
vertex -1.99119334558139 -2.28186810262677 5.88366337344635
endloop
endfacet
facet normal -0.295353830037974 0.955387939573187 5.88466270001936e-16
outer loop
vertex 4.19852743346275 -0.368344115948607 5.97841222399933
vertex -0.47853622956761 -1.81423704487189 5.88366337344635
vertex 1.31216594660588 -1.26064962317338 6.15473750000014
endloop
endfacet
facet normal -0.295353830037974 0.955387939573187 5.88466270001936e-16
outer loop
vertex 4.19852743346275 -0.368344115948607 5.97841222399933
vertex 1.31216594660588 -1.26064962317338 6.15473750000014
vertex 3.08971914787165 -0.711127147178281 6.15473749999996
endloop
endfacet
facet normal -0.295353830037974 0.955387939573187 5.88466270001936e-16
outer loop
vertex 3.08971914787165 -0.711127147178281 6.15473749999996
vertex 1.31216594660588 -1.26064962317338 6.15473750000014
vertex 3.08971914787164 -0.711127147178281 6.36746249999996
endloop
endfacet
facet normal -0.295353830037974 0.955387939573187 5.88466270001936e-16
outer loop
vertex 3.08971914787164 -0.711127147178281 6.36746249999996
vertex 1.31216594660588 -1.26064962317338 6.15473750000014
vertex 1.31216594660587 -1.26064962317338 6.36746250000014
endloop
endfacet
facet normal -4.86005107451417e-14 -1.63224323214639e-14 1.0
outer loop
vertex -1.71522110907819 -7.7845827974031 5.97535
vertex -1.99119334558139 -2.28186810262677 5.97535000000014
vertex -3.21132961045623 -2.6590676715893 5.97535
endloop
endfacet
facet normal -4.86005107451417e-14 -1.63224323214639e-14 1.0
outer loop
vertex -1.99119334558139 -2.28186810262677 5.97535000000014
vertex -1.71522110907819 -7.7845827974031 5.97535
vertex 3.74790332864126 -21.9434279327737 5.97535
endloop
endfacet
facet normal -4.86005107451417e-14 -1.63224323214639e-14 1.0
outer loop
vertex 3.74790332864126 -21.9434279327737 5.97535
vertex -1.71522110907819 -7.7845827974031 5.97535
vertex 1.65842548404648 -19.3423519206209 5.97535
endloop
endfacet
facet normal -4.86005107451417e-14 -1.63224323214639e-14 1.0
outer loop
vertex 3.74790332864126 -21.9434279327737 5.97535
vertex 1.65842548404648 -19.3423519206209 5.97535
vertex 2.52776706376642 -22.3206275017363 5.97535
endloop
endfacet
facet normal 3.0472882891758e-15 8.8948599383204e-16 1.0
outer loop
vertex -6.33300302817517 8.03546705342017 6.89780314811082
vertex -5.99402977910899 8.49738959035766 6.89780314811082
vertex -6.42861918523662 8.36303825486659 6.89780314811082
endloop
endfacet
facet normal 3.0472882891758e-15 8.8948599383204e-16 1.0
outer loop
vertex -5.99402977910899 8.49738959035766 6.89780314811082
vertex -6.33300302817517 8.03546705342017 6.89780314811082
vertex -5.89841362204755 8.16981838891124 6.89780314811082
endloop
endfacet
facet normal -0.264927312566926 -0.0773307647815557 0.961162562667921
outer loop
vertex -2.02418390515755 -2.29206698385848 2.5479375
vertex 3.90159739929644 0.648907894868787 4.41789084840629
vertex -2.32111393932386 -1.27481497304109 2.5479375
endloop
endfacet
facet normal -0.264927312566926 -0.0773307647815557 0.961162562667921
outer loop
vertex 3.90159739929644 0.648907894868787 4.41789084840629
vertex -2.02418390515755 -2.29206698385848 2.5479375
vertex 4.19852743346275 -0.36834411594861 4.41789084840629
endloop
endfacet
facet normal 0.0 0.0 1.0
outer loop
vertex -3.21132961045623 -2.6590676715893 2.5479375
vertex -2.32111393932386 -1.27481497304109 2.5479375
vertex -3.50825964462253 -1.64181566077191 2.5479375
endloop
endfacet
facet normal 0.0 0.0 1.0
outer loop
vertex -2.32111393932386 -1.27481497304109 2.5479375
vertex -3.21132961045623 -2.6590676715893 2.5479375
vertex -2.02418390515755 -2.29206698385848 2.5479375
endloop
endfacet
facet normal 4.20210748949152e-15 2.52307109337442e-15 1.0
outer loop
vertex -8.45032674475493 16.9124124575578 5.57507232923007
vertex 0.913836148826609 20.6335052373352 5.57507232923001
vertex -8.6715301881867 17.670232892471 5.57507232923007
endloop
endfacet
facet normal 4.20210748949152e-15 2.52307109337442e-15 1.0
outer loop
vertex 0.913836148826609 20.6335052373352 5.57507232923001
vertex -8.45032674475493 16.9124124575578 5.57507232923007
vertex -5.99402977910899 8.49738959035766 5.57507232923007
endloop
endfacet
facet normal 4.20210748949152e-15 2.52307109337442e-15 1.0
outer loop
vertex 0.913836148826609 20.6335052373352 5.57507232923001
vertex -5.99402977910899 8.49738959035766 5.57507232923007
vertex -5.89841362204755 8.16981838891124 5.57507232923007
endloop
endfacet
facet normal 4.20210748949152e-15 2.52307109337442e-15 1.0
outer loop
vertex 0.913836148826609 20.6335052373352 5.57507232923001
vertex -5.89841362204755 8.16981838891124 5.57507232923007
vertex 3.68695271496575 11.1330907337754 5.57507232923004
endloop
endfacet
facet normal 0.072158973260134 -0.23341431792456 0.96969626108687
outer loop
vertex -7.21649520159266 11.0622211252127 6.70571564811082
vertex -7.08195265107209 12.224502383868 6.975475
vertex -7.51654205719972 12.0901510483769 6.975475
endloop
endfacet
facet normal 0.072158973260134 -0.23341431792456 0.96969626108687
outer loop
vertex -7.08195265107209 12.224502383868 6.975475
vertex -7.21649520159266 11.0622211252127 6.70571564811082
vertex -6.78190579546503 11.1965724607038 6.70571564811082
endloop
endfacet
facet normal -0.959941249622709 -0.280201351304366 0.0
outer loop
vertex -4.71269087396172 5.31234592628543 1.3033375
vertex -4.230464688555 3.66028820113448 -1.3192125
vertex -4.230464688555 3.66028820113448 1.3033375
endloop
endfacet
facet normal -0.959941249622709 -0.280201351304366 0.0
outer loop
vertex -4.230464688555 3.66028820113448 -1.3192125
vertex -4.71269087396172 5.31234592628543 1.3033375
vertex -4.71269087396172 5.31234592628543 -1.3192125
endloop
endfacet
facet normal -0.959941249622709 -0.280201351304366 -2.90042078383389e-17
outer loop
vertex 1.65842548404648 -19.3423519206209 5.97535
vertex 2.52776706376642 -22.3206275017363 -1.3192125
vertex 2.52776706376642 -22.3206275017363 5.97535
endloop
endfacet
facet normal -0.959941249622709 -0.280201351304366 -2.90042078383389e-17
outer loop
vertex 2.52776706376642 -22.3206275017363 -1.3192125
vertex 1.65842548404648 -19.3423519206209 5.97535
vertex 1.65842548404648 -19.3423519206209 -1.3192125
endloop
endfacet
facet normal -0.295353830037974 0.955387939573187 -6.57166693533631e-16
outer loop
vertex 4.19852743346275 -0.368344115948607 5.97841222399933
vertex 6.8086261326847 0.438556008765898 5.57507232923001
vertex 4.19852743346275 -0.36834411594861 5.57507232923001
endloop
endfacet
facet normal -0.295353830037974 0.955387939573187 -6.57166693533631e-16
outer loop
vertex 6.8086261326847 0.438556008765898 5.57507232923001
vertex 4.19852743346275 -0.368344115948607 5.97841222399933
vertex 6.80862613268469 0.438556008765895 5.97841222399933
endloop
endfacet
facet normal 3.04728828917578e-15 8.89485993832039e-16 1.0
outer loop
vertex -8.08120584187136 14.0246315801485 6.68790982923001
vertex -8.45032674475492 16.9124124575578 6.68790982923001
vertex -8.88491615088255 16.7780611220667 6.68790982923001
endloop
endfacet
facet normal 3.04728828917578e-15 8.89485993832039e-16 1.0
outer loop
vertex -8.45032674475492 16.9124124575578 6.68790982923001
vertex -8.08120584187136 14.0246315801485 6.68790982923001
vertex -7.64661643574373 14.1589829156396 6.68790982923001
endloop
endfacet
facet normal 0.959941249622709 0.280201351304364 -3.80906068365159e-15
outer loop
vertex -5.99402977910899 8.49738959035766 5.57507232923007
vertex -5.89841362204755 8.16981838891124 6.89780314811082
vertex -5.89841362204755 8.16981838891124 5.57507232923007
endloop
endfacet
facet normal 0.959941249622709 0.280201351304364 -3.80906068365159e-15
outer loop
vertex -5.89841362204755 8.16981838891124 6.89780314811082
vertex -5.99402977910899 8.49738959035766 5.57507232923007
vertex -5.99402977910899 8.49738959035766 6.89780314811082
endloop
endfacet
facet normal 0.959941249622709 0.280201351304364 -3.80906068365159e-15
outer loop
vertex -5.99402977910899 8.49738959035766 6.89780314811082
vertex -5.99402977910899 8.49738959035766 5.57507232923007
vertex -5.99402977910899 8.49738959035766 6.70571564811082
endloop
endfacet
facet normal -0.137419148125018 -0.0401118620695441 0.989700467944675
outer loop
vertex 5.26056044465504 -21.4757968750189 5.88366337344621
vertex 1.31216594660588 -1.26064962317338 6.15473750000014
vertex -0.47853622956761 -1.81423704487189 5.88366337344635
endloop
endfacet
facet normal -0.137419148125018 -0.0401118620695441 0.989700467944675
outer loop
vertex 1.31216594660588 -1.26064962317338 6.15473750000014
vertex 5.26056044465504 -21.4757968750189 5.88366337344621
vertex 7.05126262082853 -20.9222094533203 6.1547375
endloop
endfacet
facet normal 0.0 0.0 1.0
outer loop
vertex -3.07367023849491 -1.50746432528084 5.57507232923001
vertex 3.74213436501835 10.9440440291069 5.57507232923001
vertex -5.84323197199495 7.9807716842428 5.57507232923001
endloop
endfacet
facet normal 0.0 0.0 1.0
outer loop
vertex 3.74213436501835 10.9440440291069 5.57507232923001
vertex -3.07367023849491 -1.50746432528084 5.57507232923001
vertex 3.90159739929644 0.648907894868787 5.57507232923001
endloop
endfacet
facet normal 0.0 0.0 1.0
outer loop
vertex 3.74213436501835 10.9440440291069 5.57507232923001
vertex 3.90159739929644 0.648907894868787 5.57507232923001
vertex 6.8086261326847 0.438556008765898 5.57507232923001
endloop
endfacet
facet normal 0.0 0.0 1.0
outer loop
vertex 6.8086261326847 0.438556008765898 5.57507232923001
vertex 3.90159739929644 0.648907894868787 5.57507232923001
vertex 4.19852743346275 -0.36834411594861 5.57507232923001
endloop
endfacet
facet normal 0.959941249622709 0.280201351304365 1.36845509310627e-15
outer loop
vertex 3.68695271496575 11.1330907337754 1.08286712929839e-15
vertex 0.913836148826609 20.6335052373352 5.57507232923001
vertex 3.68695271496575 11.1330907337754 5.57507232923004
endloop
endfacet
facet normal 0.959941249622709 0.280201351304365 1.36845509310627e-15
outer loop
vertex 0.913836148826609 20.6335052373352 5.57507232923001
vertex 3.68695271496575 11.1330907337754 1.08286712929839e-15
vertex 0.91383614882661 20.6335052373352 0.0
endloop
endfacet
facet normal 0.295353830037973 -0.955387939573187 0.0
outer loop
vertex -4.71269087396172 5.31234592628543 1.3033375
vertex -5.46981808936883 5.07828349611033 -1.3192125
vertex -4.71269087396172 5.31234592628543 -1.3192125
endloop
endfacet
facet normal 0.295353830037973 -0.955387939573187 0.0
outer loop
vertex -5.46981808936883 5.07828349611033 -1.3192125
vertex -4.71269087396172 5.31234592628543 1.3033375
vertex -5.46981808936883 5.07828349611033 1.3033375
endloop
endfacet
facet normal 6.09457657835162e-15 1.77897198766409e-15 1.0
outer loop
vertex -7.51654205719972 12.0901510483769 7.1501
vertex -7.36738431910431 13.2023621651191 7.1501
vertex -7.80197372523194 13.068010829628 7.1501
endloop
endfacet
facet normal 6.09457657835162e-15 1.77897198766409e-15 1.0
outer loop
vertex -7.36738431910431 13.2023621651191 7.1501
vertex -7.51654205719972 12.0901510483769 7.1501
vertex -7.08195265107209 12.224502383868 7.1501
endloop
endfacet
facet normal 0.295353830037975 -0.955387939573187 6.19739455413592e-17
outer loop
vertex -8.45032674475492 16.9124124575578 6.85777232923001
vertex -8.88491615088255 16.7780611220667 6.68790982923001
vertex -8.45032674475492 16.9124124575578 6.68790982923001
endloop
endfacet
facet normal 0.295353830037975 -0.955387939573187 6.19739455413592e-17
outer loop
vertex -8.88491615088255 16.7780611220667 6.68790982923001
vertex -8.45032674475492 16.9124124575578 6.85777232923001
vertex -8.88491615088255 16.7780611220667 6.85777232923001
endloop
endfacet
facet normal -0.295353830037967 0.955387939573189 -7.51287348311443e-15
outer loop
vertex -7.80197372523194 13.068010829628 6.9262625
vertex -7.36738431910431 13.2023621651191 7.1501
vertex -7.36738431910431 13.2023621651191 6.9262625
endloop
endfacet
facet normal -0.295353830037967 0.955387939573189 -7.51287348311443e-15
outer loop
vertex -7.36738431910431 13.2023621651191 7.1501
vertex -7.80197372523194 13.068010829628 6.9262625
vertex -7.80197372523194 13.068010829628 7.1501
endloop
endfacet
facet normal 0.295353830037974 -0.955387939573187 -9.89824180745258e-17
outer loop
vertex 12.5477228069073 -19.2230038213811 5.97841222399938
vertex 2.52776706376642 -22.3206275017363 -1.3192125
vertex 12.5477228069073 -19.2230038213811 -1.3192125
endloop
endfacet
facet normal 0.295353830037974 -0.955387939573187 -9.89824180745258e-17
outer loop
vertex 2.52776706376642 -22.3206275017363 -1.3192125
vertex 12.5477228069073 -19.2230038213811 5.97841222399938
vertex 5.26056044465504 -21.4757968750189 5.88366337344621
endloop
endfacet
facet normal 0.295353830037974 -0.955387939573187 -9.89824180745258e-17
outer loop
vertex 5.26056044465504 -21.4757968750189 5.88366337344621
vertex 12.5477228069073 -19.2230038213811 5.97841222399938
vertex 9.9376241076854 -20.0299039460956 5.97841222399938
endloop
endfacet
facet normal 0.295353830037974 -0.955387939573187 -9.89824180745258e-17
outer loop
vertex 5.26056044465504 -21.4757968750189 5.88366337344621
vertex 9.9376241076854 -20.0299039460956 5.97841222399938
vertex 7.05126262082853 -20.9222094533203 6.1547375
endloop
endfacet
facet normal 0.295353830037974 -0.955387939573187 -9.89824180745258e-17
outer loop
vertex 7.05126262082853 -20.9222094533203 6.1547375
vertex 9.9376241076854 -20.0299039460956 5.97841222399938
vertex 8.8288158220943 -20.3726869773253 6.1547375
endloop
endfacet
facet normal 0.295353830037974 -0.955387939573187 -9.89824180745258e-17
outer loop
vertex 7.05126262082853 -20.9222094533203 6.1547375
vertex 8.8288158220943 -20.3726869773253 6.1547375
vertex 8.8288158220943 -20.3726869773253 6.3674625
endloop
endfacet
facet normal 0.295353830037974 -0.955387939573187 -9.89824180745258e-17
outer loop
vertex 7.05126262082853 -20.9222094533203 6.1547375
vertex 8.8288158220943 -20.3726869773253 6.3674625
vertex 7.05126262082853 -20.9222094533203 6.3674625
endloop
endfacet
facet normal 0.295353830037974 -0.955387939573187 -9.89824180745258e-17
outer loop
vertex 2.52776706376642 -22.3206275017363 -1.3192125
vertex 3.74790332864126 -21.9434279327737 5.88366337344621
vertex 2.52776706376642 -22.3206275017363 5.97535
endloop
endfacet
facet normal 0.295353830037974 -0.955387939573187 -9.89824180745258e-17
outer loop
vertex 3.74790332864126 -21.9434279327737 5.88366337344621
vertex 2.52776706376642 -22.3206275017363 -1.3192125
vertex 5.26056044465504 -21.4757968750189 5.88366337344621
endloop
endfacet
facet normal 0.295353830037974 -0.955387939573187 -9.89824180745258e-17
outer loop
vertex 2.52776706376642 -22.3206275017363 5.97535
vertex 3.74790332864126 -21.9434279327737 5.88366337344621
vertex 3.74790332864126 -21.9434279327737 5.97535
endloop
endfacet
facet normal -6.14270384293488e-16 1.98699477408346e-15 1.0
outer loop
vertex 9.9376241076854 -20.0299039460956 5.97841222399938
vertex 6.80862613268469 0.438556008765895 5.97841222399933
vertex 4.19852743346275 -0.368344115948607 5.97841222399933
endloop
endfacet
facet normal -6.14270384293488e-16 1.98699477408346e-15 1.0
outer loop
vertex 6.80862613268469 0.438556008765895 5.97841222399933
vertex 9.9376241076854 -20.0299039460956 5.97841222399938
vertex 12.5477228069073 -19.2230038213811 5.97841222399938
endloop
endfacet
facet normal -0.295353830037973 0.955387939573187 5.74966311536054e-16
outer loop
vertex -6.42861918523662 8.36303825486659 6.89780314811082
vertex -5.99402977910899 8.49738959035766 6.70571564811082
vertex -6.42861918523662 8.36303825486659 6.70571564811082
endloop
endfacet
facet normal -0.295353830037973 0.955387939573187 5.74966311536054e-16
outer loop
vertex -5.99402977910899 8.49738959035766 6.70571564811082
vertex -6.42861918523662 8.36303825486659 6.89780314811082
vertex -5.99402977910899 8.49738959035766 6.89780314811082
endloop
endfacet
facet normal 6.09457657835158e-15 1.77897198766408e-15 1.0
outer loop
vertex -8.88491615088255 16.7780611220667 6.85777232923001
vertex -8.6715301881867 17.670232892471 6.85777232923001
vertex -9.10611959431432 17.53588155698 6.85777232923001
endloop
endfacet
facet normal 6.09457657835158e-15 1.77897198766408e-15 1.0
outer loop
vertex -8.6715301881867 17.670232892471 6.85777232923001
vertex -8.88491615088255 16.7780611220667 6.85777232923001
vertex -8.45032674475492 16.9124124575578 6.85777232923001
endloop
endfacet
facet normal 2.07298113326557e-15 -6.70552053931396e-15 1.0
outer loop
vertex 3.74790332864126 -21.9434279327737 5.88366337344621
vertex -0.47853622956761 -1.81423704487189 5.88366337344635
vertex -1.99119334558139 -2.28186810262677 5.88366337344635
endloop
endfacet
facet normal 2.07298113326557e-15 -6.70552053931396e-15 1.0
outer loop
vertex -0.47853622956761 -1.81423704487189 5.88366337344635
vertex 3.74790332864126 -21.9434279327737 5.88366337344621
vertex 5.26056044465504 -21.4757968750189 5.88366337344621
endloop
endfacet
facet normal -0.959941249622708 -0.280201351304366 -2.37008603147656e-16
outer loop
vertex 3.90159739929644 0.648907894868787 5.57507232923001
vertex 4.19852743346275 -0.36834411594861 4.41789084840629
vertex 4.19852743346275 -0.36834411594861 5.57507232923001
endloop
endfacet
facet normal -0.959941249622708 -0.280201351304366 -2.37008603147656e-16
outer loop
vertex 4.19852743346275 -0.36834411594861 4.41789084840629
vertex 3.90159739929644 0.648907894868787 5.57507232923001
vertex 3.90159739929644 0.648907894868787 4.41789084840629
endloop
endfacet
facet normal 0.295353830037971 -0.955387939573188 8.53669880904928e-15
outer loop
vertex -7.08195265107209 12.224502383868 6.975475
vertex -7.51654205719972 12.0901510483769 7.1501
vertex -7.51654205719972 12.0901510483769 6.975475
endloop
endfacet
facet normal 0.295353830037971 -0.955387939573188 8.53669880904928e-15
outer loop
vertex -7.51654205719972 12.0901510483769 7.1501
vertex -7.08195265107209 12.224502383868 6.975475
vertex -7.08195265107209 12.224502383868 7.1501
endloop
endfacet
facet normal -0.068712994547077 0.222267530012395 0.972561396253503
outer loop
vertex -7.80197372523194 13.068010829628 6.9262625
vertex -7.64661643574373 14.1589829156396 6.68790982923001
vertex -8.08120584187136 14.0246315801485 6.68790982923001
endloop
endfacet
facet normal -0.068712994547077 0.222267530012395 0.972561396253503
outer loop
vertex -7.64661643574373 14.1589829156396 6.68790982923001
vertex -7.80197372523194 13.068010829628 6.9262625
vertex -7.36738431910431 13.2023621651191 6.9262625
endloop
endfacet
endsolid Shops on 1st Street (LaGrange)
