solid Taylor Place
facet normal 0.0 0.0 -1.0
outer loop
vertex -17.7905983825425 38.5405144890941 0.141034131487697
vertex -11.3270174456909 -19.369072974354 0.141034131487697
vertex -24.9688644204649 -17.625587061497 0.141034131487697
endloop
endfacet
facet normal 0.0 0.0 -1.0
outer loop
vertex -11.3270174456909 -19.369072974354 0.141034131487697
vertex -17.7905983825425 38.5405144890941 0.141034131487697
vertex -4.16636628049826 36.7992798316952 0.141034131487697
endloop
endfacet
facet normal 0.991971454043654 -0.126461987816572 0.0
outer loop
vertex -4.16636628049826 36.7992798316952 0.141034131487697
vertex -11.3270174456909 -19.369072974354 19.733535979902
vertex -11.3270174456909 -19.369072974354 0.141034131487697
endloop
endfacet
facet normal 0.991971454043654 -0.126461987816572 0.0
outer loop
vertex -11.3270174456909 -19.369072974354 19.733535979902
vertex -4.16636628049826 36.7992798316952 0.141034131487697
vertex -6.56701062180012 17.9685568690216 19.733535979902
endloop
endfacet
facet normal 0.991971454043654 -0.126461987816572 0.0
outer loop
vertex -6.56701062180012 17.9685568690216 19.733535979902
vertex -4.16636628049826 36.7992798316952 0.141034131487697
vertex -5.3110659742324 27.8202226522067 19.733535979902
endloop
endfacet
facet normal 0.991971454043654 -0.126461987816572 0.0
outer loop
vertex -5.3110659742324 27.8202226522067 19.733535979902
vertex -4.16636628049826 36.7992798316952 0.141034131487697
vertex -4.16636628049826 36.7992798316952 19.733535979902
endloop
endfacet
facet normal 0.126773084728407 0.991931744117731 0.0
outer loop
vertex -17.7905983825425 38.5405144890941 19.733535979902
vertex -4.16636628049826 36.7992798316952 0.141034131487697
vertex -17.7905983825425 38.5405144890941 0.141034131487697
endloop
endfacet
facet normal 0.126773084728407 0.991931744117731 0.0
outer loop
vertex -4.16636628049826 36.7992798316952 0.141034131487697
vertex -17.7905983825425 38.5405144890941 19.733535979902
vertex -4.16636628049826 36.7992798316952 19.733535979902
endloop
endfacet
facet normal -0.991931744117731 0.126773084728407 0.0
outer loop
vertex -17.7905983825425 38.5405144890941 19.733535979902
vertex -24.9688644204649 -17.625587061497 0.141034131487697
vertex -24.9688644204649 -17.625587061497 19.733535979902
endloop
endfacet
facet normal -0.991931744117731 0.126773084728407 0.0
outer loop
vertex -24.9688644204649 -17.625587061497 0.141034131487697
vertex -17.7905983825425 38.5405144890941 19.733535979902
vertex -17.7905983825425 38.5405144890941 0.141034131487697
endloop
endfacet
facet normal -0.126773084728407 -0.991931744117731 -0.0
outer loop
vertex -11.3270174456909 -19.369072974354 19.733535979902
vertex -24.9688644204649 -17.625587061497 0.141034131487697
vertex -11.3270174456909 -19.369072974354 0.141034131487697
endloop
endfacet
facet normal -0.126773084728407 -0.991931744117731 -0.0
outer loop
vertex -24.9688644204649 -17.625587061497 0.141034131487697
vertex -11.3270174456909 -19.369072974354 19.733535979902
vertex -24.9688644204649 -17.625587061497 19.733535979902
endloop
endfacet
facet normal -0.0 -0.0 1.0
outer loop
vertex -6.56701062180012 17.9685568690216 19.733535979902
vertex -8.48095016176722 28.2253472982004 19.733535979902
vertex -9.73998437543893 18.3740763746695 19.733535979902
endloop
endfacet
facet normal -0.0 -0.0 1.0
outer loop
vertex -8.48095016176722 28.2253472982004 19.733535979902
vertex -6.56701062180012 17.9685568690216 19.733535979902
vertex -5.3110659742324 27.8202226522067 19.733535979902
endloop
endfacet
facet normal -0.0 -0.0 1.0
outer loop
vertex -9.73998437543893 18.3740763746695 19.733535979902
vertex -11.650834349302 28.630471944194 19.733535979902
vertex -12.9098685629737 18.7792010206632 19.733535979902
endloop
endfacet
facet normal -0.0 -0.0 1.0
outer loop
vertex -11.650834349302 28.630471944194 19.733535979902
vertex -9.73998437543893 18.3740763746695 19.733535979902
vertex -8.48095016176722 28.2253472982004 19.733535979902
endloop
endfacet
facet normal -0.0 -0.0 1.0
outer loop
vertex -11.3270174456909 -19.369072974354 19.733535979902
vertex -17.7905983825425 38.5405144890941 19.733535979902
vertex -24.9688644204649 -17.625587061497 19.733535979902
endloop
endfacet
facet normal -0.0 -0.0 1.0
outer loop
vertex -17.7905983825425 38.5405144890941 19.733535979902
vertex -11.3270174456909 -19.369072974354 19.733535979902
vertex -12.9098685629737 18.7792010206632 19.733535979902
endloop
endfacet
facet normal -0.0 -0.0 1.0
outer loop
vertex -12.9098685629737 18.7792010206632 19.733535979902
vertex -11.3270174456909 -19.369072974354 19.733535979902
vertex -9.73998437543893 18.3740763746695 19.733535979902
endloop
endfacet
facet normal -0.0 -0.0 1.0
outer loop
vertex -9.73998437543893 18.3740763746695 19.733535979902
vertex -11.3270174456909 -19.369072974354 19.733535979902
vertex -6.56701062180012 17.9685568690216 19.733535979902
endloop
endfacet
facet normal -0.0 -0.0 1.0
outer loop
vertex -17.7905983825425 38.5405144890941 19.733535979902
vertex -11.650834349302 28.630471944194 19.733535979902
vertex -4.16636628049826 36.7992798316952 19.733535979902
endloop
endfacet
facet normal -0.0 -0.0 1.0
outer loop
vertex -11.650834349302 28.630471944194 19.733535979902
vertex -17.7905983825425 38.5405144890941 19.733535979902
vertex -12.9098685629737 18.7792010206632 19.733535979902
endloop
endfacet
facet normal -0.0 -0.0 1.0
outer loop
vertex -4.16636628049826 36.7992798316952 19.733535979902
vertex -11.650834349302 28.630471944194 19.733535979902
vertex -8.48095016176722 28.2253472982004 19.733535979902
endloop
endfacet
facet normal -0.0 -0.0 1.0
outer loop
vertex -4.16636628049826 36.7992798316952 19.733535979902
vertex -8.48095016176722 28.2253472982004 19.733535979902
vertex -5.3110659742324 27.8202226522067 19.733535979902
endloop
endfacet
facet normal -0.991931744117731 0.126773084728407 0.0
outer loop
vertex -8.48095016176722 28.2253472982004 21.422635979902
vertex -9.73998437543893 18.3740763746695 19.733535979902
vertex -9.73998437543893 18.3740763746695 21.422635979902
endloop
endfacet
facet normal -0.991931744117731 0.126773084728407 0.0
outer loop
vertex -9.73998437543893 18.3740763746695 19.733535979902
vertex -8.48095016176722 28.2253472982004 21.422635979902
vertex -8.48095016176722 28.2253472982004 19.733535979902
endloop
endfacet
facet normal -0.126773084728408 -0.991931744117731 -2.01191917494074e-17
outer loop
vertex -8.48095016176722 28.2253472982004 21.422635979902
vertex -11.650834349302 28.630471944194 19.733535979902
vertex -8.48095016176722 28.2253472982004 19.733535979902
endloop
endfacet
facet normal -0.126773084728406 -0.991931744117731 2.01191917494074e-17
outer loop
vertex -8.48095016176722 28.2253472982004 21.422635979902
vertex -8.48095016176722 28.2253472982004 19.733535979902
vertex -5.3110659742324 27.8202226522067 19.733535979902
endloop
endfacet
facet normal 0.126773084728408 0.991931744117731 -0.0
outer loop
vertex -9.73998437543893 18.3740763746695 21.422635979902
vertex -9.73998437543893 18.3740763746695 19.733535979902
vertex -12.9098685629737 18.7792010206632 19.733535979902
endloop
endfacet
facet normal 0.46352868751337 -0.0592409325789309 -0.884099354009102
outer loop
vertex -11.650834349302 28.630471944194 19.733535979902
vertex -9.73998437543893 18.3740763746695 21.422635979902
vertex -12.9098685629737 18.7792010206632 19.733535979902
endloop
endfacet
facet normal 0.46352868751337 -0.0592409325789309 -0.884099354009102
outer loop
vertex -9.73998437543893 18.3740763746695 21.422635979902
vertex -11.650834349302 28.630471944194 19.733535979902
vertex -8.48095016176722 28.2253472982004 21.422635979902
endloop
endfacet
facet normal 0.126773084728407 0.991931744117731 -4.01600603673961e-17
outer loop
vertex -9.73998437543893 18.3740763746695 21.422635979902
vertex -6.56701062180012 17.9685568690216 19.733535979902
vertex -9.73998437543893 18.3740763746695 19.733535979902
endloop
endfacet
facet normal -0.46352868751337 0.0592409325789309 -0.884099354009102
outer loop
vertex -5.3110659742324 27.8202226522067 19.733535979902
vertex -9.73998437543893 18.3740763746695 21.422635979902
vertex -8.48095016176722 28.2253472982004 21.422635979902
endloop
endfacet
facet normal -0.463194350357209 0.0590505684944847 -0.884287297295195
outer loop
vertex -5.3110659742324 27.8202226522067 19.733535979902
vertex -6.56701062180012 17.9685568690216 19.733535979902
vertex -9.73998437543893 18.3740763746695 21.422635979902
endloop
endfacet
facet normal -0.147644904556884 -0.989040435047217 6.3997439310345e-16
outer loop
vertex -4.6607271358429 37.3373112675177 4.69481572875645
vertex -7.67482030333849 37.7872579858429 0.0
vertex -4.6607271358429 37.3373112675177 0.0
endloop
endfacet
facet normal -0.147644904556884 -0.989040435047217 6.3997439310345e-16
outer loop
vertex -7.67482030333849 37.7872579858429 0.0
vertex -4.6607271358429 37.3373112675177 4.69481572875645
vertex -10.2505893730619 38.1717712625339 0.0
endloop
endfacet
facet normal -0.147644904556884 -0.989040435047217 6.3997439310345e-16
outer loop
vertex -10.2505893730619 38.1717712625339 0.0
vertex -4.6607271358429 37.3373112675177 4.69481572875645
vertex -10.2505893730619 38.1717712625339 4.69481572875645
endloop
endfacet
facet normal -0.147644904556884 -0.989040435047217 6.3997439310345e-16
outer loop
vertex -10.2505893730619 38.1717712625339 4.69481572875645
vertex -4.6607271358429 37.3373112675177 4.69481572875645
vertex -7.6748203033385 37.7872579858429 4.69481572875645
endloop
endfacet
facet normal -0.147644904556884 -0.989040435047217 6.3997439310345e-16
outer loop
vertex -13.177479300038 38.4314568091189 4.69481572875645
vertex -16.1915724675336 38.881403527444 -7.21911419532262e-16
vertex -13.177479300038 38.4314568091189 -7.21911419532262e-16
endloop
endfacet
facet normal -0.147644904556884 -0.989040435047217 6.3997439310345e-16
outer loop
vertex -16.1915724675336 38.881403527444 -7.21911419532262e-16
vertex -13.177479300038 38.4314568091189 4.69481572875645
vertex -18.767341537257 39.2659168041351 -7.21911419532262e-16
endloop
endfacet
facet normal -0.147644904556884 -0.989040435047217 6.3997439310345e-16
outer loop
vertex -18.767341537257 39.2659168041351 -7.21911419532262e-16
vertex -13.177479300038 38.4314568091189 4.69481572875645
vertex -18.767341537257 39.2659168041351 4.69481572875645
endloop
endfacet
facet normal -0.147644904556884 -0.989040435047217 6.3997439310345e-16
outer loop
vertex -18.767341537257 39.2659168041351 4.69481572875645
vertex -13.177479300038 38.4314568091189 4.69481572875645
vertex -16.1915724675337 38.881403527444 4.69481572875645
endloop
endfacet
endsolid Taylor Place
