solid The 800
facet normal -0.134620561066818 -0.990897221985235 -0.0
outer loop
vertex 18.4576750461555 -18.3444930694294 6.80085
vertex -39.4226754155224 -10.4810284426093 0.0
vertex 18.4576750461555 -18.3444930694294 0.0
endloop
endfacet
facet normal -0.134620561066818 -0.990897221985235 -0.0
outer loop
vertex -39.4226754155224 -10.4810284426093 0.0
vertex 18.4576750461555 -18.3444930694294 6.80085
vertex -39.4226754155224 -10.4810284426093 6.80085
endloop
endfacet
facet normal 0.251886365542649 0.967756818035252 0.0
outer loop
vertex -6.54118917836705 29.8042245987234 90.185875
vertex 19.9311718194177 22.9140362013919 0.0
vertex -6.54118917836705 29.8042245987234 0.0
endloop
endfacet
facet normal 0.251886365542649 0.967756818035252 0.0
outer loop
vertex 19.9311718194177 22.9140362013919 0.0
vertex -6.54118917836705 29.8042245987234 90.185875
vertex 16.1051752959457 23.9098611244678 87.9300375
endloop
endfacet
facet normal 0.251886365542649 0.967756818035252 0.0
outer loop
vertex 16.1051752959457 23.9098611244678 87.9300375
vertex -6.54118917836705 29.8042245987234 90.185875
vertex 16.1051752959457 23.9098611244678 90.185875
endloop
endfacet
facet normal 0.251886365542649 0.967756818035252 0.0
outer loop
vertex 19.9311718194177 22.9140362013919 87.9300375
vertex 19.9311718194177 22.9140362013919 0.0
vertex 16.1051752959457 23.9098611244678 87.9300375
endloop
endfacet
facet normal 0.0 0.0 1.0
outer loop
vertex -35.4599032599081 0.0458622735105819 6.80085
vertex -34.1368445994642 -1.9084397258058 6.80085
vertex -33.1302171875139 -0.270642444856602 6.80085
endloop
endfacet
facet normal 0.0 0.0 1.0
outer loop
vertex -34.1368445994642 -1.9084397258058 6.80085
vertex -35.4599032599081 0.0458622735105819 6.80085
vertex -34.4736517811973 -4.38756548549065 6.80085
endloop
endfacet
facet normal 0.0 0.0 1.0
outer loop
vertex -33.1302171875139 -0.270642444856602 6.80085
vertex -34.1368445994642 -1.9084397258058 6.80085
vertex -31.6577188397794 -2.24524690753887 6.80085
endloop
endfacet
facet normal 0.0 0.0 1.0
outer loop
vertex -33.1302171875139 -0.270642444856602 6.80085
vertex -31.6577188397794 -2.24524690753887 6.80085
vertex -32.7855027305751 2.26668614040462 6.80085
endloop
endfacet
facet normal 0.0 0.0 1.0
outer loop
vertex -39.4226754155224 -10.4810284426093 6.80085
vertex -35.4599032599081 0.0458622735105819 6.80085
vertex -35.9415509337648 15.1423722550472 6.80085
endloop
endfacet
facet normal 0.0 0.0 1.0
outer loop
vertex -35.4599032599081 0.0458622735105819 6.80085
vertex -39.4226754155224 -10.4810284426093 6.80085
vertex -34.4736517811973 -4.38756548549065 6.80085
endloop
endfacet
facet normal 0.0 0.0 1.0
outer loop
vertex -34.4736517811973 -4.38756548549065 6.80085
vertex -39.4226754155224 -10.4810284426093 6.80085
vertex 18.4576750461555 -18.3444930694294 6.80085
endloop
endfacet
facet normal 0.0 0.0 1.0
outer loop
vertex -34.4736517811973 -4.38756548549065 6.80085
vertex 18.4576750461555 -18.3444930694294 6.80085
vertex -31.9945260215125 -4.72437266722373 6.80085
endloop
endfacet
facet normal 0.0 0.0 1.0
outer loop
vertex -31.9945260215125 -4.72437266722373 6.80085
vertex 18.4576750461555 -18.3444930694294 6.80085
vertex -31.6577188397794 -2.24524690753887 6.80085
endloop
endfacet
facet normal 0.0 0.0 1.0
outer loop
vertex -31.6577188397794 -2.24524690753887 6.80085
vertex 18.4576750461555 -18.3444930694294 6.80085
vertex -30.6062617930511 3.34262663335101 6.80085
endloop
endfacet
facet normal 0.0 0.0 1.0
outer loop
vertex -30.6062617930511 3.34262663335101 6.80085
vertex 18.4576750461555 -18.3444930694294 6.80085
vertex -30.2671037997704 5.83905593577478 6.80085
endloop
endfacet
facet normal 0.0 0.0 1.0
outer loop
vertex -30.2671037997704 5.83905593577478 6.80085
vertex 18.4576750461555 -18.3444930694294 6.80085
vertex -9.45124266790031 8.38428773502469 6.80085
endloop
endfacet
facet normal 0.0 0.0 1.0
outer loop
vertex -9.45124266790031 8.38428773502469 6.80085
vertex 18.4576750461555 -18.3444930694294 6.80085
vertex 17.881905280307 7.83006608107586 6.80085
endloop
endfacet
facet normal 0.0 0.0 1.0
outer loop
vertex 17.881905280307 7.83006608107586 6.80085
vertex 18.4576750461555 -18.3444930694294 6.80085
vertex 21.9387995279131 7.27890762822714 6.80085
endloop
endfacet
facet normal 0.0 0.0 1.0
outer loop
vertex -35.9415509337648 15.1423722550472 6.80085
vertex -32.7635331021942 6.17821392905548 6.80085
vertex -9.45124266790031 8.38428773502469 6.80085
endloop
endfacet
facet normal 0.0 0.0 1.0
outer loop
vertex -32.7635331021942 6.17821392905548 6.80085
vertex -35.9415509337648 15.1423722550472 6.80085
vertex -35.1151888029693 2.5831908587718 6.80085
endloop
endfacet
facet normal 0.0 0.0 1.0
outer loop
vertex -35.1151888029693 2.5831908587718 6.80085
vertex -35.9415509337648 15.1423722550472 6.80085
vertex -35.4599032599081 0.0458622735105819 6.80085
endloop
endfacet
facet normal 0.0 0.0 1.0
outer loop
vertex -32.7635331021942 6.17821392905548 6.80085
vertex -35.1151888029693 2.5831908587718 6.80085
vertex -33.1026910954749 3.68178462663171 6.80085
endloop
endfacet
facet normal 0.0 0.0 1.0
outer loop
vertex -9.45124266790031 8.38428773502469 6.80085
vertex -32.7635331021942 6.17821392905548 6.80085
vertex -30.2671037997704 5.83905593577478 6.80085
endloop
endfacet
facet normal 0.0 0.0 1.0
outer loop
vertex -32.7855027305751 2.26668614040462 6.80085
vertex -33.1026910954749 3.68178462663171 6.80085
vertex -35.1151888029693 2.5831908587718 6.80085
endloop
endfacet
facet normal 0.0 0.0 1.0
outer loop
vertex -33.1026910954749 3.68178462663171 6.80085
vertex -32.7855027305751 2.26668614040462 6.80085
vertex -30.6062617930511 3.34262663335101 6.80085
endloop
endfacet
facet normal 0.0 0.0 1.0
outer loop
vertex -30.6062617930511 3.34262663335101 6.80085
vertex -32.7855027305751 2.26668614040462 6.80085
vertex -31.6577188397794 -2.24524690753887 6.80085
endloop
endfacet
facet normal -0.990897221985235 0.134620561066818 0.0
outer loop
vertex -35.9415509337648 15.1423722550472 6.80085
vertex -39.4226754155224 -10.4810284426093 0.0
vertex -39.4226754155224 -10.4810284426093 6.80085
endloop
endfacet
facet normal -0.990897221985235 0.134620561066818 0.0
outer loop
vertex -39.4226754155224 -10.4810284426093 0.0
vertex -35.9415509337648 15.1423722550472 6.80085
vertex -35.9415509337648 15.1423722550472 0.0
endloop
endfacet
facet normal -0.247197860568449 -0.968965023997452 0.0
outer loop
vertex -9.45124266790031 8.38428773502469 6.80085
vertex -35.9415509337648 15.1423722550472 0.0
vertex -9.45124266790031 8.38428773502469 0.0
endloop
endfacet
facet normal -0.247197860568449 -0.968965023997452 0.0
outer loop
vertex -35.9415509337648 15.1423722550472 0.0
vertex -9.45124266790031 8.38428773502469 6.80085
vertex -35.9415509337648 15.1423722550472 6.80085
endloop
endfacet
facet normal -0.0202723725533405 -0.999794494339241 0.0
outer loop
vertex 17.881905280307 7.83006608107586 6.80085
vertex -9.45124266790031 8.38428773502469 0.0
vertex 17.881905280307 7.83006608107586 0.0
endloop
endfacet
facet normal -0.0202723725533405 -0.999794494339241 0.0
outer loop
vertex -9.45124266790031 8.38428773502469 0.0
vertex 17.881905280307 7.83006608107586 6.80085
vertex -9.45124266790031 8.38428773502469 6.80085
endloop
endfacet
facet normal -0.0 -0.0 1.0
outer loop
vertex -33.190256668679 14.4404748291549 87.9300375
vertex -33.8922843946541 30.2263423753632 87.9300375
vertex -35.9415509337648 15.1423722550472 87.9300375
endloop
endfacet
facet normal -0.0 -0.0 1.0
outer loop
vertex -33.8922843946541 30.2263423753632 87.9300375
vertex -33.190256668679 14.4404748291549 87.9300375
vertex -31.0694684675462 30.1827769980505 87.9300375
endloop
endfacet
facet normal -0.0 -0.0 1.0
outer loop
vertex 17.881905280307 7.83006608107586 87.9300375
vertex 16.1051752959457 23.9098611244678 87.9300375
vertex 13.9315009686502 7.91016661013024 87.9300375
endloop
endfacet
facet normal -0.0 -0.0 1.0
outer loop
vertex 16.1051752959457 23.9098611244678 87.9300375
vertex 17.881905280307 7.83006608107586 87.9300375
vertex 19.9311718194177 22.9140362013919 87.9300375
endloop
endfacet
facet normal 0.0 0.0 1.0
outer loop
vertex -33.190256668679 14.4404748291549 90.185875
vertex -27.8051229382796 16.2419078772249 90.185875
vertex -31.0694684675462 30.1827769980505 90.185875
endloop
endfacet
facet normal 0.0 0.0 1.0
outer loop
vertex -27.8051229382796 16.2419078772249 90.185875
vertex -33.190256668679 14.4404748291549 90.185875
vertex -9.45124266790031 8.38428773502469 90.185875
endloop
endfacet
facet normal 0.0 0.0 1.0
outer loop
vertex -27.8051229382796 16.2419078772249 90.185875
vertex -9.45124266790031 8.38428773502469 90.185875
vertex -20.1915641331561 15.207550796268 90.185875
endloop
endfacet
facet normal 0.0 0.0 1.0
outer loop
vertex -20.1915641331561 15.207550796268 90.185875
vertex -9.45124266790031 8.38428773502469 90.185875
vertex -16.6444666568424 13.3160784289242 90.185875
endloop
endfacet
facet normal 0.0 0.0 1.0
outer loop
vertex -20.1915641331561 15.207550796268 90.185875
vertex -16.6444666568424 13.3160784289242 90.185875
vertex -19.3369372805225 21.4981751065343 90.185875
endloop
endfacet
facet normal 0.0 0.0 1.0
outer loop
vertex -16.6444666568424 13.3160784289242 90.185875
vertex -9.45124266790031 8.38428773502469 90.185875
vertex 9.63804171423286 9.74540939821597 90.185875
endloop
endfacet
facet normal 0.0 0.0 1.0
outer loop
vertex 9.63804171423286 9.74540939821597 90.185875
vertex -9.45124266790031 8.38428773502469 90.185875
vertex 13.9315009686502 7.91016661013024 90.185875
endloop
endfacet
facet normal 0.0 0.0 1.0
outer loop
vertex 9.63804171423286 9.74540939821597 90.185875
vertex 13.9315009686502 7.91016661013024 90.185875
vertex 10.737794098242 17.8403213013494 90.185875
endloop
endfacet
facet normal 0.0 0.0 1.0
outer loop
vertex -31.0694684675462 30.1827769980505 90.185875
vertex -26.950496085646 22.5325321874912 90.185875
vertex -6.54118917836705 29.8042245987234 90.185875
endloop
endfacet
facet normal 0.0 0.0 1.0
outer loop
vertex -26.950496085646 22.5325321874912 90.185875
vertex -31.0694684675462 30.1827769980505 90.185875
vertex -27.8051229382796 16.2419078772249 90.185875
endloop
endfacet
facet normal 0.0 0.0 1.0
outer loop
vertex -6.54118917836705 29.8042245987234 90.185875
vertex -26.950496085646 22.5325321874912 90.185875
vertex -19.3369372805225 21.4981751065343 90.185875
endloop
endfacet
facet normal 0.0 0.0 1.0
outer loop
vertex -6.54118917836705 29.8042245987234 90.185875
vertex -19.3369372805225 21.4981751065343 90.185875
vertex -15.5447142728333 21.4109903320576 90.185875
endloop
endfacet
facet normal 0.0 0.0 1.0
outer loop
vertex -15.5447142728333 21.4109903320576 90.185875
vertex -19.3369372805225 21.4981751065343 90.185875
vertex -16.6444666568424 13.3160784289242 90.185875
endloop
endfacet
facet normal 0.0 0.0 1.0
outer loop
vertex -6.54118917836705 29.8042245987234 90.185875
vertex -15.5447142728333 21.4109903320576 90.185875
vertex 10.737794098242 17.8403213013494 90.185875
endloop
endfacet
facet normal 0.0 0.0 1.0
outer loop
vertex -6.54118917836705 29.8042245987234 90.185875
vertex 10.737794098242 17.8403213013494 90.185875
vertex 16.1051752959457 23.9098611244678 90.185875
endloop
endfacet
facet normal 0.0 0.0 1.0
outer loop
vertex 16.1051752959457 23.9098611244678 90.185875
vertex 10.737794098242 17.8403213013494 90.185875
vertex 13.9315009686502 7.91016661013024 90.185875
endloop
endfacet
facet normal 0.990897221985235 -0.134620561066818 0.0
outer loop
vertex 16.1051752959457 23.9098611244678 87.9300375
vertex 13.9315009686502 7.91016661013024 90.185875
vertex 13.9315009686502 7.91016661013024 87.9300375
endloop
endfacet
facet normal 0.990897221985235 -0.134620561066818 0.0
outer loop
vertex 13.9315009686502 7.91016661013024 90.185875
vertex 16.1051752959457 23.9098611244678 87.9300375
vertex 16.1051752959457 23.9098611244678 90.185875
endloop
endfacet
facet normal -0.991047070891294 0.133512932998221 0.0
outer loop
vertex -31.0694684675462 30.1827769980505 90.185875
vertex -33.190256668679 14.4404748291549 87.9300375
vertex -33.190256668679 14.4404748291549 90.185875
endloop
endfacet
facet normal -0.991047070891294 0.133512932998221 0.0
outer loop
vertex -33.190256668679 14.4404748291549 87.9300375
vertex -31.0694684675462 30.1827769980505 90.185875
vertex -31.0694684675462 30.1827769980505 87.9300375
endloop
endfacet
facet normal 0.0 0.0 -1.0
outer loop
vertex -35.9415509337648 15.1423722550472 0.0
vertex 18.4576750461555 -18.3444930694294 0.0
vertex -39.4226754155224 -10.4810284426093 0.0
endloop
endfacet
facet normal 0.0 0.0 -1.0
outer loop
vertex 18.4576750461555 -18.3444930694294 0.0
vertex -35.9415509337648 15.1423722550472 0.0
vertex -9.45124266790031 8.38428773502469 0.0
endloop
endfacet
facet normal 0.0 0.0 -1.0
outer loop
vertex 18.4576750461555 -18.3444930694294 0.0
vertex -9.45124266790031 8.38428773502469 0.0
vertex 17.881905280307 7.83006608107586 0.0
endloop
endfacet
facet normal 0.0 0.0 -1.0
outer loop
vertex 18.4576750461555 -18.3444930694294 0.0
vertex 17.881905280307 7.83006608107586 0.0
vertex 21.9387995279131 7.27890762822714 0.0
endloop
endfacet
facet normal 0.0 0.0 -1.0
outer loop
vertex -33.8922843946541 30.2263423753632 0.0
vertex 17.881905280307 7.83006608107586 0.0
vertex -35.9415509337648 15.1423722550472 0.0
endloop
endfacet
facet normal 0.0 0.0 -1.0
outer loop
vertex 17.881905280307 7.83006608107586 0.0
vertex -33.8922843946541 30.2263423753632 0.0
vertex -6.54118917836705 29.8042245987234 0.0
endloop
endfacet
facet normal 0.0 0.0 -1.0
outer loop
vertex 17.881905280307 7.83006608107586 0.0
vertex -6.54118917836705 29.8042245987234 0.0
vertex 19.9311718194177 22.9140362013919 0.0
endloop
endfacet
facet normal 0.0 0.0 1.0
outer loop
vertex 9.63804171423286 9.74540939821597 92.878275
vertex -15.5447142728333 21.4109903320576 92.878275
vertex -16.6444666568424 13.3160784289242 92.878275
endloop
endfacet
facet normal 0.0 0.0 1.0
outer loop
vertex -15.5447142728333 21.4109903320576 92.878275
vertex 9.63804171423286 9.74540939821597 92.878275
vertex 10.737794098242 17.8403213013494 92.878275
endloop
endfacet
facet normal -0.134620561066818 -0.990897221985235 -0.0
outer loop
vertex 9.63804171423286 9.74540939821597 92.878275
vertex -16.6444666568424 13.3160784289242 90.185875
vertex 9.63804171423286 9.74540939821597 90.185875
endloop
endfacet
facet normal -0.134620561066818 -0.990897221985235 -0.0
outer loop
vertex -16.6444666568424 13.3160784289242 90.185875
vertex 9.63804171423286 9.74540939821597 92.878275
vertex -16.6444666568424 13.3160784289242 92.878275
endloop
endfacet
facet normal 0.990897221985235 -0.134620561066817 0.0
outer loop
vertex 10.737794098242 17.8403213013494 90.185875
vertex 9.63804171423286 9.74540939821597 92.878275
vertex 9.63804171423286 9.74540939821597 90.185875
endloop
endfacet
facet normal 0.990897221985235 -0.134620561066817 0.0
outer loop
vertex 9.63804171423286 9.74540939821597 92.878275
vertex 10.737794098242 17.8403213013494 90.185875
vertex 10.737794098242 17.8403213013494 92.878275
endloop
endfacet
facet normal 0.0 0.0 -1.0
outer loop
vertex 17.881905280307 7.83006608107586 0.0
vertex -9.45124266790031 8.38428773502469 0.0
vertex -35.9415509337648 15.1423722550472 0.0
endloop
endfacet
facet normal 0.990897221985235 -0.134620561066818 1.32438777209165e-18
outer loop
vertex 19.9311718194177 22.9140362013919 0.0
vertex 17.881905280307 7.83006608107586 6.80085
vertex 17.881905280307 7.83006608107586 0.0
endloop
endfacet
facet normal 0.990897221985235 -0.134620561066818 1.32438777209165e-18
outer loop
vertex 17.881905280307 7.83006608107586 6.80085
vertex 19.9311718194177 22.9140362013919 0.0
vertex 17.881905280307 7.83006608107586 87.9300375
endloop
endfacet
facet normal 0.990897221985235 -0.134620561066818 1.32438777209165e-18
outer loop
vertex 17.881905280307 7.83006608107586 87.9300375
vertex 19.9311718194177 22.9140362013919 0.0
vertex 19.9311718194177 22.9140362013919 87.9300375
endloop
endfacet
facet normal -0.0202723725533405 -0.999794494339241 0.0
outer loop
vertex 17.881905280307 7.83006608107586 87.9300375
vertex -9.45124266790031 8.38428773502469 6.80085
vertex 17.881905280307 7.83006608107586 6.80085
endloop
endfacet
facet normal -0.0202723725533405 -0.999794494339241 0.0
outer loop
vertex -9.45124266790031 8.38428773502469 6.80085
vertex 17.881905280307 7.83006608107586 87.9300375
vertex 13.9315009686502 7.91016661013024 87.9300375
endloop
endfacet
facet normal -0.0202723725533405 -0.999794494339241 0.0
outer loop
vertex -9.45124266790031 8.38428773502469 6.80085
vertex 13.9315009686502 7.91016661013024 87.9300375
vertex -9.45124266790031 8.38428773502469 90.185875
endloop
endfacet
facet normal -0.0202723725533405 -0.999794494339241 0.0
outer loop
vertex -9.45124266790031 8.38428773502469 90.185875
vertex 13.9315009686502 7.91016661013024 87.9300375
vertex 13.9315009686502 7.91016661013024 90.185875
endloop
endfacet
facet normal 0.134620561066818 0.990897221985235 0.0
outer loop
vertex -15.5447142728333 21.4109903320576 92.878275
vertex 10.737794098242 17.8403213013494 90.185875
vertex -15.5447142728333 21.4109903320576 90.185875
endloop
endfacet
facet normal 0.134620561066818 0.990897221985235 0.0
outer loop
vertex 10.737794098242 17.8403213013494 90.185875
vertex -15.5447142728333 21.4109903320576 92.878275
vertex 10.737794098242 17.8403213013494 92.878275
endloop
endfacet
facet normal -0.990897221985235 0.134620561066818 0.0
outer loop
vertex -15.5447142728333 21.4109903320576 92.878275
vertex -16.6444666568424 13.3160784289242 90.185875
vertex -16.6444666568424 13.3160784289242 92.878275
endloop
endfacet
facet normal -0.990897221985235 0.134620561066818 0.0
outer loop
vertex -16.6444666568424 13.3160784289242 90.185875
vertex -15.5447142728333 21.4109903320576 92.878275
vertex -15.5447142728333 21.4109903320576 90.185875
endloop
endfacet
facet normal 0.0 0.0 1.0
outer loop
vertex -20.1915641331561 15.207550796268 92.0003875
vertex -26.950496085646 22.5325321874912 92.0003875
vertex -27.8051229382796 16.2419078772249 92.0003875
endloop
endfacet
facet normal 0.0 0.0 1.0
outer loop
vertex -26.950496085646 22.5325321874912 92.0003875
vertex -20.1915641331561 15.207550796268 92.0003875
vertex -19.3369372805225 21.4981751065343 92.0003875
endloop
endfacet
facet normal 0.990897221985235 -0.134620561066818 0.0
outer loop
vertex -19.3369372805225 21.4981751065343 90.185875
vertex -20.1915641331561 15.207550796268 92.0003875
vertex -20.1915641331561 15.207550796268 90.185875
endloop
endfacet
facet normal 0.990897221985235 -0.134620561066818 0.0
outer loop
vertex -20.1915641331561 15.207550796268 92.0003875
vertex -19.3369372805225 21.4981751065343 90.185875
vertex -19.3369372805225 21.4981751065343 92.0003875
endloop
endfacet
facet normal 0.134620561066818 0.990897221985235 0.0
outer loop
vertex -26.950496085646 22.5325321874912 92.0003875
vertex -19.3369372805225 21.4981751065343 90.185875
vertex -26.950496085646 22.5325321874912 90.185875
endloop
endfacet
facet normal 0.134620561066818 0.990897221985235 0.0
outer loop
vertex -19.3369372805225 21.4981751065343 90.185875
vertex -26.950496085646 22.5325321874912 92.0003875
vertex -19.3369372805225 21.4981751065343 92.0003875
endloop
endfacet
facet normal -0.990897221985235 0.134620561066818 0.0
outer loop
vertex -26.950496085646 22.5325321874912 92.0003875
vertex -27.8051229382796 16.2419078772249 90.185875
vertex -27.8051229382796 16.2419078772249 92.0003875
endloop
endfacet
facet normal -0.990897221985235 0.134620561066818 0.0
outer loop
vertex -27.8051229382796 16.2419078772249 90.185875
vertex -26.950496085646 22.5325321874912 92.0003875
vertex -26.950496085646 22.5325321874912 90.185875
endloop
endfacet
facet normal -0.134620561066818 -0.990897221985235 -0.0
outer loop
vertex -20.1915641331561 15.207550796268 92.0003875
vertex -27.8051229382796 16.2419078772249 90.185875
vertex -20.1915641331561 15.207550796268 90.185875
endloop
endfacet
facet normal -0.134620561066818 -0.990897221985235 -0.0
outer loop
vertex -27.8051229382796 16.2419078772249 90.185875
vertex -20.1915641331561 15.207550796268 92.0003875
vertex -27.8051229382796 16.2419078772249 92.0003875
endloop
endfacet
facet normal 0.0 0.0 1.0
outer loop
vertex -30.6062617930511 3.34262663335101 7.5739625
vertex -32.7635331021942 6.17821392905548 7.5739625
vertex -33.1026910954749 3.68178462663171 7.5739625
endloop
endfacet
facet normal 0.0 0.0 1.0
outer loop
vertex -32.7635331021942 6.17821392905548 7.5739625
vertex -30.6062617930511 3.34262663335101 7.5739625
vertex -30.2671037997704 5.83905593577478 7.5739625
endloop
endfacet
facet normal 0.990897221985235 -0.134620561066817 0.0
outer loop
vertex -30.2671037997704 5.83905593577478 6.80085
vertex -30.6062617930511 3.34262663335101 7.5739625
vertex -30.6062617930511 3.34262663335101 6.80085
endloop
endfacet
facet normal 0.990897221985235 -0.134620561066817 0.0
outer loop
vertex -30.6062617930511 3.34262663335101 7.5739625
vertex -30.2671037997704 5.83905593577478 6.80085
vertex -30.2671037997704 5.83905593577478 7.5739625
endloop
endfacet
facet normal 0.134620561066818 0.990897221985235 0.0
outer loop
vertex -32.7635331021942 6.17821392905548 7.5739625
vertex -30.2671037997704 5.83905593577478 6.80085
vertex -32.7635331021942 6.17821392905548 6.80085
endloop
endfacet
facet normal 0.134620561066818 0.990897221985235 0.0
outer loop
vertex -30.2671037997704 5.83905593577478 6.80085
vertex -32.7635331021942 6.17821392905548 7.5739625
vertex -30.2671037997704 5.83905593577478 7.5739625
endloop
endfacet
facet normal -0.990897221985235 0.134620561066817 0.0
outer loop
vertex -32.7635331021942 6.17821392905548 7.5739625
vertex -33.1026910954749 3.68178462663171 6.80085
vertex -33.1026910954749 3.68178462663171 7.5739625
endloop
endfacet
facet normal -0.990897221985235 0.134620561066817 0.0
outer loop
vertex -33.1026910954749 3.68178462663171 6.80085
vertex -32.7635331021942 6.17821392905548 7.5739625
vertex -32.7635331021942 6.17821392905548 6.80085
endloop
endfacet
facet normal -0.134620561066818 -0.990897221985235 -0.0
outer loop
vertex -30.6062617930511 3.34262663335101 7.5739625
vertex -33.1026910954749 3.68178462663171 6.80085
vertex -30.6062617930511 3.34262663335101 6.80085
endloop
endfacet
facet normal -0.134620561066818 -0.990897221985235 -0.0
outer loop
vertex -33.1026910954749 3.68178462663171 6.80085
vertex -30.6062617930511 3.34262663335101 7.5739625
vertex -33.1026910954749 3.68178462663171 7.5739625
endloop
endfacet
facet normal 0.0 0.0 1.0
outer loop
vertex -33.1302171875139 -0.270642444856602 7.5739625
vertex -35.1151888029693 2.5831908587718 7.5739625
vertex -35.4599032599081 0.0458622735105819 7.5739625
endloop
endfacet
facet normal 0.0 0.0 1.0
outer loop
vertex -35.1151888029693 2.5831908587718 7.5739625
vertex -33.1302171875139 -0.270642444856602 7.5739625
vertex -32.7855027305751 2.26668614040462 7.5739625
endloop
endfacet
facet normal -0.134620561066818 -0.990897221985234 -0.0
outer loop
vertex -33.1302171875139 -0.270642444856602 7.5739625
vertex -35.4599032599081 0.0458622735105819 6.80085
vertex -33.1302171875139 -0.270642444856602 6.80085
endloop
endfacet
facet normal -0.134620561066818 -0.990897221985234 -0.0
outer loop
vertex -35.4599032599081 0.0458622735105819 6.80085
vertex -33.1302171875139 -0.270642444856602 7.5739625
vertex -35.4599032599081 0.0458622735105819 7.5739625
endloop
endfacet
facet normal 0.990897221985235 -0.134620561066818 0.0
outer loop
vertex -32.7855027305751 2.26668614040462 6.80085
vertex -33.1302171875139 -0.270642444856602 7.5739625
vertex -33.1302171875139 -0.270642444856602 6.80085
endloop
endfacet
facet normal 0.990897221985235 -0.134620561066818 0.0
outer loop
vertex -33.1302171875139 -0.270642444856602 7.5739625
vertex -32.7855027305751 2.26668614040462 6.80085
vertex -32.7855027305751 2.26668614040462 7.5739625
endloop
endfacet
facet normal 0.134620561066818 0.990897221985235 0.0
outer loop
vertex -35.1151888029693 2.5831908587718 7.5739625
vertex -32.7855027305751 2.26668614040462 6.80085
vertex -35.1151888029693 2.5831908587718 6.80085
endloop
endfacet
facet normal 0.134620561066818 0.990897221985235 0.0
outer loop
vertex -32.7855027305751 2.26668614040462 6.80085
vertex -35.1151888029693 2.5831908587718 7.5739625
vertex -32.7855027305751 2.26668614040462 7.5739625
endloop
endfacet
facet normal -0.990897221985235 0.134620561066818 0.0
outer loop
vertex -35.1151888029693 2.5831908587718 7.5739625
vertex -35.4599032599081 0.0458622735105819 6.80085
vertex -35.4599032599081 0.0458622735105819 7.5739625
endloop
endfacet
facet normal -0.990897221985235 0.134620561066818 0.0
outer loop
vertex -35.4599032599081 0.0458622735105819 6.80085
vertex -35.1151888029693 2.5831908587718 7.5739625
vertex -35.1151888029693 2.5831908587718 6.80085
endloop
endfacet
facet normal 0.0 0.0 1.0
outer loop
vertex -31.9945260215125 -4.72437266722373 7.5739625
vertex -34.1368445994642 -1.9084397258058 7.5739625
vertex -34.4736517811973 -4.38756548549065 7.5739625
endloop
endfacet
facet normal 0.0 0.0 1.0
outer loop
vertex -34.1368445994642 -1.9084397258058 7.5739625
vertex -31.9945260215125 -4.72437266722373 7.5739625
vertex -31.6577188397794 -2.24524690753887 7.5739625
endloop
endfacet
facet normal -0.134620561066819 -0.990897221985234 -0.0
outer loop
vertex -31.9945260215125 -4.72437266722373 7.5739625
vertex -34.4736517811973 -4.38756548549065 6.80085
vertex -31.9945260215125 -4.72437266722373 6.80085
endloop
endfacet
facet normal -0.134620561066819 -0.990897221985234 -0.0
outer loop
vertex -34.4736517811973 -4.38756548549065 6.80085
vertex -31.9945260215125 -4.72437266722373 7.5739625
vertex -34.4736517811973 -4.38756548549065 7.5739625
endloop
endfacet
facet normal 0.990897221985235 -0.134620561066818 0.0
outer loop
vertex -31.6577188397794 -2.24524690753887 6.80085
vertex -31.9945260215125 -4.72437266722373 7.5739625
vertex -31.9945260215125 -4.72437266722373 6.80085
endloop
endfacet
facet normal 0.990897221985235 -0.134620561066818 0.0
outer loop
vertex -31.9945260215125 -4.72437266722373 7.5739625
vertex -31.6577188397794 -2.24524690753887 6.80085
vertex -31.6577188397794 -2.24524690753887 7.5739625
endloop
endfacet
facet normal 0.134620561066818 0.990897221985235 0.0
outer loop
vertex -34.1368445994642 -1.9084397258058 7.5739625
vertex -31.6577188397794 -2.24524690753887 6.80085
vertex -34.1368445994642 -1.9084397258058 6.80085
endloop
endfacet
facet normal 0.134620561066818 0.990897221985235 0.0
outer loop
vertex -31.6577188397794 -2.24524690753887 6.80085
vertex -34.1368445994642 -1.9084397258058 7.5739625
vertex -31.6577188397794 -2.24524690753887 7.5739625
endloop
endfacet
facet normal -0.990897221985235 0.134620561066818 0.0
outer loop
vertex -34.1368445994642 -1.9084397258058 7.5739625
vertex -34.4736517811973 -4.38756548549065 6.80085
vertex -34.4736517811973 -4.38756548549065 7.5739625
endloop
endfacet
facet normal -0.990897221985235 0.134620561066818 0.0
outer loop
vertex -34.4736517811973 -4.38756548549065 6.80085
vertex -34.1368445994642 -1.9084397258058 7.5739625
vertex -34.1368445994642 -1.9084397258058 6.80085
endloop
endfacet
facet normal -0.990897221985234 0.134620561066818 6.62193886045822e-19
outer loop
vertex -33.8922843946541 30.2263423753632 87.9300375
vertex -35.9415509337648 15.1423722550472 6.80085
vertex -35.9415509337648 15.1423722550472 87.9300375
endloop
endfacet
facet normal -0.990897221985234 0.134620561066818 6.62193886045822e-19
outer loop
vertex -35.9415509337648 15.1423722550472 6.80085
vertex -33.8922843946541 30.2263423753632 87.9300375
vertex -35.9415509337648 15.1423722550472 0.0
endloop
endfacet
facet normal -0.990897221985234 0.134620561066818 6.62193886045822e-19
outer loop
vertex -35.9415509337648 15.1423722550472 0.0
vertex -33.8922843946541 30.2263423753632 87.9300375
vertex -33.8922843946541 30.2263423753632 0.0
endloop
endfacet
facet normal 0.134620561066818 0.990897221985235 -0.0
outer loop
vertex 17.881905280307 7.83006608107586 6.80085
vertex 21.9387995279131 7.27890762822714 0.0
vertex 17.881905280307 7.83006608107586 0.0
endloop
endfacet
facet normal 0.134620561066818 0.990897221985235 -0.0
outer loop
vertex 21.9387995279131 7.27890762822714 0.0
vertex 17.881905280307 7.83006608107586 6.80085
vertex 21.9387995279131 7.27890762822714 6.80085
endloop
endfacet
facet normal 0.990897221985235 -0.134620561066818 0.0
outer loop
vertex 21.9387995279131 7.27890762822714 0.0
vertex 18.4576750461555 -18.3444930694294 6.80085
vertex 18.4576750461555 -18.3444930694294 0.0
endloop
endfacet
facet normal 0.990897221985235 -0.134620561066818 0.0
outer loop
vertex 18.4576750461555 -18.3444930694294 6.80085
vertex 21.9387995279131 7.27890762822714 0.0
vertex 21.9387995279131 7.27890762822714 6.80085
endloop
endfacet
facet normal 0.0154314666678672 0.999880927829148 0.0
outer loop
vertex -33.8922843946541 30.2263423753632 87.9300375
vertex -6.54118917836705 29.8042245987234 0.0
vertex -33.8922843946541 30.2263423753632 0.0
endloop
endfacet
facet normal 0.0154314666678672 0.999880927829148 0.0
outer loop
vertex -6.54118917836705 29.8042245987234 0.0
vertex -33.8922843946541 30.2263423753632 87.9300375
vertex -31.0694684675462 30.1827769980505 87.9300375
endloop
endfacet
facet normal 0.0154314666678672 0.999880927829148 0.0
outer loop
vertex -6.54118917836705 29.8042245987234 0.0
vertex -31.0694684675462 30.1827769980505 87.9300375
vertex -6.54118917836705 29.8042245987234 90.185875
endloop
endfacet
facet normal 0.0154314666678672 0.999880927829148 0.0
outer loop
vertex -6.54118917836705 29.8042245987234 90.185875
vertex -31.0694684675462 30.1827769980505 87.9300375
vertex -31.0694684675462 30.1827769980505 90.185875
endloop
endfacet
facet normal -0.247197860568449 -0.968965023997452 9.59732111965101e-19
outer loop
vertex -9.45124266790031 8.38428773502469 90.185875
vertex -35.9415509337648 15.1423722550472 6.80085
vertex -9.45124266790031 8.38428773502469 6.80085
endloop
endfacet
facet normal -0.247197860568449 -0.968965023997452 9.59732111965101e-19
outer loop
vertex -35.9415509337648 15.1423722550472 6.80085
vertex -9.45124266790031 8.38428773502469 90.185875
vertex -33.190256668679 14.4404748291549 87.9300375
endloop
endfacet
facet normal -0.247197860568449 -0.968965023997452 9.59732111965101e-19
outer loop
vertex -33.190256668679 14.4404748291549 87.9300375
vertex -9.45124266790031 8.38428773502469 90.185875
vertex -33.190256668679 14.4404748291549 90.185875
endloop
endfacet
facet normal -0.247197860568449 -0.968965023997452 9.59732111965101e-19
outer loop
vertex -35.9415509337648 15.1423722550472 87.9300375
vertex -35.9415509337648 15.1423722550472 6.80085
vertex -33.190256668679 14.4404748291549 87.9300375
endloop
endfacet
endsolid The 800
