solid The Meyer Building
facet normal 0.152697432132218 0.988272985677655 1.52862082377405e-15
outer loop
vertex 20.2341880845613 29.5321682831167 11.690697684299
vertex 20.8526384601968 29.4366119078749 7.95689768429903
vertex 20.2341880845613 29.5321682831167 7.95689768429903
endloop
endfacet
facet normal 0.152697432132218 0.988272985677655 1.52862082377405e-15
outer loop
vertex 20.8526384601968 29.4366119078749 7.95689768429903
vertex 20.2341880845613 29.5321682831167 11.690697684299
vertex 20.8526384601968 29.4366119078749 11.690697684299
endloop
endfacet
facet normal -0.991963325254139 0.126525733946701 1.33392589325312e-17
outer loop
vertex 24.0069443065712 28.4556156296019 23.9014
vertex 17.5569407465831 -22.1124923725386 0.0
vertex 17.5569407465831 -22.1124923725386 23.9014
endloop
endfacet
facet normal -0.991963325254139 0.126525733946701 1.33392589325312e-17
outer loop
vertex 17.5569407465831 -22.1124923725386 0.0
vertex 24.0069443065712 28.4556156296019 23.9014
vertex 24.0069443065712 28.4556156296019 0.0
endloop
endfacet
facet normal -0.991963325254139 0.126525733946701 1.33392589325312e-17
outer loop
vertex 24.0069443065712 28.4556156296019 0.0
vertex 24.0069443065712 28.4556156296019 23.9014
vertex 24.0069443065712 28.4556156296019 3.79095
endloop
endfacet
facet normal -0.991963325254139 0.126525733946701 0.0
outer loop
vertex -4.27527927526776 -19.3277748415323 29.39415
vertex -4.95257785537114 -24.6378041197839 0.0
vertex -4.95257785537114 -24.6378041197839 29.39415
endloop
endfacet
facet normal -0.991963325254139 0.126525733946701 0.0
outer loop
vertex -4.95257785537114 -24.6378041197839 0.0
vertex -4.27527927526776 -19.3277748415323 29.39415
vertex -4.27527927526776 -19.3277748415323 0.0
endloop
endfacet
facet normal -0.126525733946697 -0.991963325254139 1.95693028654956e-15
outer loop
vertex 22.7623813438762 28.2302738734993 12.662247684299
vertex 17.1563006112025 28.945334058899 11.690697684299
vertex 22.7623813438762 28.2302738734993 11.690697684299
endloop
endfacet
facet normal -0.126525733946697 -0.991963325254139 1.95693028654956e-15
outer loop
vertex 17.1563006112025 28.945334058899 11.690697684299
vertex 22.7623813438762 28.2302738734993 12.662247684299
vertex 17.1563006112025 28.945334058899 12.662247684299
endloop
endfacet
facet normal -0.126525733946697 -0.991963325254139 1.95693028654956e-15
outer loop
vertex 17.1563006112025 28.945334058899 12.662247684299
vertex 22.7623813438762 28.2302738734993 12.662247684299
vertex 22.4883734044383 28.2652238104193 13.1995750575131
endloop
endfacet
facet normal -0.126525733946697 -0.991963325254139 1.95693028654956e-15
outer loop
vertex 17.1563006112025 28.945334058899 12.662247684299
vertex 22.4883734044383 28.2652238104193 13.1995750575131
vertex 17.4303085506404 28.910384121979 13.1995750575131
endloop
endfacet
facet normal -0.126525733946697 -0.991963325254139 1.95693028654956e-15
outer loop
vertex 17.4303085506404 28.910384121979 13.1995750575131
vertex 22.4883734044383 28.2652238104193 13.1995750575131
vertex 22.1142794875116 28.3129397956771 13.6715914566352
endloop
endfacet
facet normal -0.126525733946697 -0.991963325254139 1.95693028654956e-15
outer loop
vertex 17.4303085506404 28.910384121979 13.1995750575131
vertex 22.1142794875116 28.3129397956771 13.6715914566352
vertex 17.8044024675671 28.8626681367212 13.6715914566352
endloop
endfacet
facet normal -0.126525733946697 -0.991963325254139 1.95693028654956e-15
outer loop
vertex 17.8044024675671 28.8626681367212 13.6715914566352
vertex 22.1142794875116 28.3129397956771 13.6715914566352
vertex 21.6549042887379 28.3715334782277 14.0596169224072
endloop
endfacet
facet normal -0.126525733946697 -0.991963325254139 1.95693028654956e-15
outer loop
vertex 17.8044024675671 28.8626681367212 13.6715914566352
vertex 21.6549042887379 28.3715334782277 14.0596169224072
vertex 18.2637776663408 28.8040744541706 14.0596169224072
endloop
endfacet
facet normal -0.126525733946697 -0.991963325254139 1.95693028654956e-15
outer loop
vertex 18.2637776663408 28.8040744541706 14.0596169224072
vertex 21.6549042887379 28.3715334782277 14.0596169224072
vertex 21.1284274942747 28.4386860242236 14.3482954207905
endloop
endfacet
facet normal -0.126525733946697 -0.991963325254139 1.95693028654956e-15
outer loop
vertex 18.2637776663408 28.8040744541706 14.0596169224072
vertex 21.1284274942747 28.4386860242236 14.3482954207905
vertex 18.790254460804 28.7369219081747 14.3482954207905
endloop
endfacet
facet normal -0.126525733946697 -0.991963325254139 1.95693028654956e-15
outer loop
vertex 18.790254460804 28.7369219081747 14.3482954207905
vertex 21.1284274942747 28.4386860242236 14.3482954207905
vertex 20.555684323172 28.5117398844237 14.5262025550936
endloop
endfacet
facet normal -0.126525733946697 -0.991963325254139 1.95693028654956e-15
outer loop
vertex 18.790254460804 28.7369219081747 14.3482954207905
vertex 20.555684323172 28.5117398844237 14.5262025550936
vertex 19.3629976319068 28.6638680479746 14.5262025550936
endloop
endfacet
facet normal -0.126525733946697 -0.991963325254139 1.95693028654956e-15
outer loop
vertex 19.3629976319068 28.6638680479746 14.5262025550936
vertex 20.555684323172 28.5117398844237 14.5262025550936
vertex 19.9593409775394 28.5878039661991 14.586297684299
endloop
endfacet
facet normal 0.1265257339467 0.991963325254139 -0.0
outer loop
vertex 9.9309781754751 -21.1397946056002 23.9014
vertex 17.5569407465831 -22.1124923725386 0.0
vertex 9.9309781754751 -21.1397946056002 0.0
endloop
endfacet
facet normal 0.1265257339467 0.991963325254139 -0.0
outer loop
vertex 17.5569407465831 -22.1124923725386 0.0
vertex 9.9309781754751 -21.1397946056002 23.9014
vertex 17.5569407465831 -22.1124923725386 23.9014
endloop
endfacet
facet normal -0.126525733946701 -0.991963325254139 -5.79411993389943e-16
outer loop
vertex -1.74846547405169 0.482476736286825 10.2252728502436
vertex -18.8186663566875 2.65979482890863 0.0
vertex -1.74846547405168 0.482476736286831 0.0
endloop
endfacet
facet normal -0.126525733946701 -0.991963325254139 -5.79411993389943e-16
outer loop
vertex -18.8186663566875 2.65979482890863 0.0
vertex -1.74846547405169 0.482476736286825 10.2252728502436
vertex -18.8186663566875 2.65979482890862 10.2252728502436
endloop
endfacet
facet normal 0.126525733946701 0.991963325254139 5.29894498973286e-18
outer loop
vertex -4.27527927526776 -19.3277748415323 29.39415
vertex 9.9309781754751 -21.1397946056002 0.0
vertex -4.27527927526776 -19.3277748415323 0.0
endloop
endfacet
facet normal 0.126525733946701 0.991963325254139 5.29894498973286e-18
outer loop
vertex 9.9309781754751 -21.1397946056002 0.0
vertex -4.27527927526776 -19.3277748415323 29.39415
vertex 9.9309781754751 -21.1397946056002 23.9014
endloop
endfacet
facet normal 0.126525733946701 0.991963325254139 5.29894498973286e-18
outer loop
vertex 9.9309781754751 -21.1397946056002 23.9014
vertex -4.27527927526776 -19.3277748415323 29.39415
vertex 9.9309781754751 -21.1397946056002 29.39415
endloop
endfacet
facet normal 0.356713942186453 0.934213660491967 -0.0
outer loop
vertex 22.6656879924948 28.9561986598579 11.690697684299
vertex 23.2503086364142 28.732970994287 7.95689768429903
vertex 22.6656879924948 28.9561986598579 7.95689768429903
endloop
endfacet
facet normal 0.356713942186453 0.934213660491967 -0.0
outer loop
vertex 23.2503086364142 28.732970994287 7.95689768429903
vertex 22.6656879924948 28.9561986598579 11.690697684299
vertex 23.2503086364142 28.732970994287 11.690697684299
endloop
endfacet
facet normal 0.0 0.0 -1.0
outer loop
vertex 12.2740768125999 30.8163477366827 2.07984561674272
vertex 15.0757354344722 29.5947986304291 2.07984561674272
vertex 12.1656126271741 29.9659871761086 2.07984561674272
endloop
endfacet
facet normal 0.0 0.0 -1.0
outer loop
vertex 15.0757354344722 29.5947986304291 2.07984561674272
vertex 12.2740768125999 30.8163477366827 2.07984561674272
vertex 15.184199619898 30.4451591910032 2.07984561674272
endloop
endfacet
facet normal -0.63708296756532 0.081260453893777 0.766499857189252
outer loop
vertex 18.2637776663408 28.8040744541706 14.0596169224072
vertex 17.8526087722007 29.240606163643 13.6715914566352
vertex 17.8044024675671 28.8626681367212 13.6715914566352
endloop
endfacet
facet normal -0.63708296756532 0.081260453893777 0.766499857189252
outer loop
vertex 17.8526087722007 29.240606163643 13.6715914566352
vertex 18.2637776663408 28.8040744541706 14.0596169224072
vertex 18.3119839709745 29.1820124810924 14.0596169224072
endloop
endfacet
facet normal 0.0986677077347597 -0.0125851468700008 0.995040852190818
outer loop
vertex 20.555684323172 28.5117398844237 14.5262025550936
vertex 20.007547282173 28.965741993121 14.586297684299
vertex 19.9593409775394 28.5878039661991 14.586297684299
endloop
endfacet
facet normal 0.0986677077347597 -0.0125851468700008 0.995040852190818
outer loop
vertex 20.007547282173 28.965741993121 14.586297684299
vertex 20.555684323172 28.5117398844237 14.5262025550936
vertex 20.6038906278056 28.8896779113455 14.5262025550936
endloop
endfacet
facet normal 0.882215595824873 -0.1125273212418 0.45720153593083
outer loop
vertex 22.8105876485099 28.6082119004211 12.662247684299
vertex 22.4883734044383 28.2652238104193 13.1995750575131
vertex 22.7623813438762 28.2302738734993 12.662247684299
endloop
endfacet
facet normal 0.882215595824873 -0.1125273212418 0.45720153593083
outer loop
vertex 22.4883734044383 28.2652238104193 13.1995750575131
vertex 22.8105876485099 28.6082119004211 12.662247684299
vertex 22.536579709072 28.6431618373411 13.1995750575131
endloop
endfacet
facet normal 0.126525733946703 0.991963325254139 -0.0
outer loop
vertex 7.9409137274622 31.3690462343992 2.30209561674272
vertex 10.8510365347603 30.9978576887197 2.07984561674272
vertex 7.9409137274622 31.3690462343992 2.07984561674272
endloop
endfacet
facet normal 0.126525733946703 0.991963325254139 -0.0
outer loop
vertex 10.8510365347603 30.9978576887197 2.07984561674272
vertex 7.9409137274622 31.3690462343992 2.30209561674272
vertex 10.8510365347603 30.9978576887197 2.30209561674272
endloop
endfacet
facet normal 0.0 0.0 -1.0
outer loop
vertex 7.9409137274622 31.3690462343992 2.07984561674272
vertex 10.7425723493345 30.1474971281456 2.07984561674272
vertex 7.83244954203639 30.518685673825 2.07984561674272
endloop
endfacet
facet normal 0.0 0.0 -1.0
outer loop
vertex 10.7425723493345 30.1474971281456 2.07984561674272
vertex 7.9409137274622 31.3690462343992 2.07984561674272
vertex 10.8510365347603 30.9978576887197 2.07984561674272
endloop
endfacet
facet normal 0.0870551181836761 0.682513207552293 0.725670123344421
outer loop
vertex 10.7425723493345 30.1474971281456 3.11489561674272
vertex 7.9409137274622 31.3690462343992 2.30209561674272
vertex 7.83244954203639 30.518685673825 3.11489561674272
endloop
endfacet
facet normal 0.0870551181836761 0.682513207552293 0.725670123344421
outer loop
vertex 7.9409137274622 31.3690462343992 2.30209561674272
vertex 10.7425723493345 30.1474971281456 3.11489561674272
vertex 10.8510365347603 30.9978576887197 2.30209561674272
endloop
endfacet
facet normal -0.0581210074850643 0.998309545426127 1.54414496988844e-15
outer loop
vertex 17.7359601665129 29.5849894784903 11.690697684299
vertex 18.3606913109607 29.6213609663609 7.95689768429903
vertex 17.7359601665129 29.5849894784903 7.95689768429903
endloop
endfacet
facet normal -0.0581210074850643 0.998309545426127 1.54414496988844e-15
outer loop
vertex 18.3606913109607 29.6213609663609 7.95689768429903
vertex 17.7359601665129 29.5849894784903 11.690697684299
vertex 18.3606913109607 29.6213609663609 11.690697684299
endloop
endfacet
facet normal 0.0 0.0 -1.0
outer loop
vertex -22.022778738007 -22.4604860271621 29.39415
vertex -17.0345314972298 -10.9996625623745 29.39415
vertex -4.95257785537114 -24.6378041197839 29.39415
endloop
endfacet
facet normal 0.0 0.0 -1.0
outer loop
vertex -17.0345314972298 -10.9996625623745 29.39415
vertex -22.022778738007 -22.4604860271621 29.39415
vertex -18.8186663566875 2.65979482890863 29.39415
endloop
endfacet
facet normal 0.0 0.0 -1.0
outer loop
vertex -4.95257785537114 -24.6378041197839 29.39415
vertex -17.0345314972298 -10.9996625623745 29.39415
vertex -4.27527927526776 -19.3277748415323 29.39415
endloop
endfacet
facet normal 0.0 0.0 -1.0
outer loop
vertex -4.27527927526776 -19.3277748415323 29.39415
vertex -17.0345314972298 -10.9996625623745 29.39415
vertex -2.54770105883286 -12.8474696406352 29.39415
endloop
endfacet
facet normal 0.0 0.0 -1.0
outer loop
vertex -4.27527927526776 -19.3277748415323 29.39415
vertex -2.54770105883286 -12.8474696406352 29.39415
vertex -2.84336639391951 -15.165489539089 29.39415
endloop
endfacet
facet normal 0.0 0.0 -1.0
outer loop
vertex -18.8186663566875 2.65979482890863 29.39415
vertex -15.8824008164845 -1.96694371894286 29.39415
vertex -17.0345314972298 -10.9996625623745 29.39415
endloop
endfacet
facet normal 0.0 0.0 -1.0
outer loop
vertex -15.8824008164845 -1.96694371894286 29.39415
vertex -18.8186663566875 2.65979482890863 29.39415
vertex -1.74846547405168 0.482476736286831 29.39415
endloop
endfacet
facet normal 0.0 0.0 -1.0
outer loop
vertex -15.8824008164845 -1.96694371894286 29.39415
vertex -1.74846547405168 0.482476736286831 29.39415
vertex 11.398425760156 -5.44663547508492 29.39415
endloop
endfacet
facet normal 0.0 0.0 -1.0
outer loop
vertex 11.398425760156 -5.44663547508492 29.39415
vertex -1.74846547405168 0.482476736286831 29.39415
vertex 2.17472428472036 31.2403331606082 29.39415
endloop
endfacet
facet normal 0.0 0.0 -1.0
outer loop
vertex 11.398425760156 -5.44663547508492 29.39415
vertex 2.17472428472036 31.2403331606082 29.39415
vertex 16.3809817354632 29.4283133965403 29.39415
endloop
endfacet
facet normal 0.0 0.0 -1.0
outer loop
vertex -2.84336639391951 -15.165489539089 29.39415
vertex 9.9309781754751 -21.1397946056002 29.39415
vertex -4.27527927526776 -19.3277748415323 29.39415
endloop
endfacet
facet normal 0.0 0.0 -1.0
outer loop
vertex 9.9309781754751 -21.1397946056002 29.39415
vertex -2.84336639391951 -15.165489539089 29.39415
vertex 9.95062974432412 -16.7973742169705 29.39415
endloop
endfacet
facet normal 0.0 0.0 -1.0
outer loop
vertex 9.9309781754751 -21.1397946056002 29.39415
vertex 9.95062974432412 -16.7973742169705 29.39415
vertex 16.3809817354632 29.4283133965403 29.39415
endloop
endfacet
facet normal 0.0 0.0 -1.0
outer loop
vertex 16.3809817354632 29.4283133965403 29.39415
vertex 9.95062974432412 -16.7973742169705 29.39415
vertex 11.398425760156 -5.44663547508492 29.39415
endloop
endfacet
facet normal 0.991963325254139 -0.126525733946701 3.8790077411354e-19
outer loop
vertex 2.17472428472036 31.2403331606082 10.2252728502436
vertex -1.74846547405168 0.482476736286831 29.39415
vertex -1.74846547405169 0.482476736286825 10.2252728502436
endloop
endfacet
facet normal 0.991963325254139 -0.126525733946701 3.8790077411354e-19
outer loop
vertex -1.74846547405168 0.482476736286831 29.39415
vertex 2.17472428472036 31.2403331606082 10.2252728502436
vertex 2.17472428472036 31.2403331606082 29.39415
endloop
endfacet
facet normal -0.126525733946701 -0.991963325254139 0.0
outer loop
vertex 10.7425723493345 30.1474971281456 3.11489561674272
vertex 7.83244954203639 30.518685673825 2.07984561674272
vertex 10.7425723493345 30.1474971281456 2.07984561674272
endloop
endfacet
facet normal -0.126525733946701 -0.991963325254139 0.0
outer loop
vertex 7.83244954203639 30.518685673825 2.07984561674272
vertex 10.7425723493345 30.1474971281456 3.11489561674272
vertex 7.83244954203639 30.518685673825 3.11489561674272
endloop
endfacet
facet normal -0.991963325254139 0.1265257339467 -1.48277723986645e-17
outer loop
vertex 7.9409137274622 31.3690462343992 2.30209561674272
vertex 7.83244954203639 30.518685673825 2.07984561674272
vertex 7.83244954203639 30.518685673825 3.11489561674272
endloop
endfacet
facet normal -0.991963325254139 0.1265257339467 -1.48277723986645e-17
outer loop
vertex 7.83244954203639 30.518685673825 2.07984561674272
vertex 7.9409137274622 31.3690462343992 2.30209561674272
vertex 7.9409137274622 31.3690462343992 2.07984561674272
endloop
endfacet
facet normal 0.126525733946703 0.991963325254139 -0.0
outer loop
vertex 12.2740768125999 30.8163477366827 2.30209561674272
vertex 15.184199619898 30.4451591910032 2.07984561674272
vertex 12.2740768125999 30.8163477366827 2.07984561674272
endloop
endfacet
facet normal 0.126525733946703 0.991963325254139 -0.0
outer loop
vertex 15.184199619898 30.4451591910032 2.07984561674272
vertex 12.2740768125999 30.8163477366827 2.30209561674272
vertex 15.184199619898 30.4451591910032 2.30209561674272
endloop
endfacet
facet normal 0.0870551181836761 0.682513207552293 0.725670123344421
outer loop
vertex 15.0757354344722 29.5947986304291 3.11489561674272
vertex 12.2740768125999 30.8163477366827 2.30209561674272
vertex 12.1656126271741 29.9659871761086 3.11489561674272
endloop
endfacet
facet normal 0.0870551181836761 0.682513207552293 0.725670123344421
outer loop
vertex 12.2740768125999 30.8163477366827 2.30209561674272
vertex 15.0757354344722 29.5947986304291 3.11489561674272
vertex 15.184199619898 30.4451591910032 2.30209561674272
endloop
endfacet
facet normal -0.126525733946701 -0.991963325254139 0.0
outer loop
vertex 6.45568849781053 30.6942926717403 3.11489561674272
vertex 3.54556569051246 31.0654812174197 2.07984561674272
vertex 6.45568849781053 30.6942926717403 2.07984561674272
endloop
endfacet
facet normal -0.126525733946701 -0.991963325254139 0.0
outer loop
vertex 3.54556569051246 31.0654812174197 2.07984561674272
vertex 6.45568849781053 30.6942926717403 3.11489561674272
vertex 3.54556569051246 31.0654812174197 3.11489561674272
endloop
endfacet
facet normal 0.0870551181836761 0.682513207552293 0.725670123344421
outer loop
vertex 6.45568849781053 30.6942926717403 3.11489561674272
vertex 3.65402987593827 31.9158417779938 2.30209561674272
vertex 3.54556569051246 31.0654812174197 3.11489561674272
endloop
endfacet
facet normal 0.0870551181836761 0.682513207552293 0.725670123344421
outer loop
vertex 3.65402987593827 31.9158417779938 2.30209561674272
vertex 6.45568849781053 30.6942926717403 3.11489561674272
vertex 6.56415268323634 31.5446532323144 2.30209561674272
endloop
endfacet
facet normal 0.126525733946703 0.991963325254139 -0.0
outer loop
vertex 3.65402987593827 31.9158417779938 2.30209561674272
vertex 6.56415268323634 31.5446532323144 2.07984561674272
vertex 3.65402987593827 31.9158417779938 2.07984561674272
endloop
endfacet
facet normal 0.126525733946703 0.991963325254139 -0.0
outer loop
vertex 6.56415268323634 31.5446532323144 2.07984561674272
vertex 3.65402987593827 31.9158417779938 2.30209561674272
vertex 6.56415268323634 31.5446532323144 2.30209561674272
endloop
endfacet
facet normal 0.991963325254139 -0.126525733946701 1.0452192551315e-17
outer loop
vertex -1.74846547405168 0.482476736286831 0.0
vertex 2.17472428472036 31.2403331606082 10.2252728502436
vertex -1.74846547405169 0.482476736286825 10.2252728502436
endloop
endfacet
facet normal 0.991963325254139 -0.126525733946701 1.0452192551315e-17
outer loop
vertex 2.17472428472036 31.2403331606082 10.2252728502436
vertex -1.74846547405168 0.482476736286831 0.0
vertex 2.17472428472036 31.2403331606082 0.0
endloop
endfacet
facet normal -0.126525733946701 -0.991963325254139 3.13965864514615e-16
outer loop
vertex -1.74846547405168 0.482476736286831 29.39415
vertex -18.8186663566875 2.65979482890862 10.2252728502436
vertex -1.74846547405169 0.482476736286825 10.2252728502436
endloop
endfacet
facet normal -0.126525733946701 -0.991963325254139 3.13965864514615e-16
outer loop
vertex -18.8186663566875 2.65979482890862 10.2252728502436
vertex -1.74846547405168 0.482476736286831 29.39415
vertex -18.8186663566875 2.65979482890863 29.39415
endloop
endfacet
facet normal 0.0 0.0 -1.0
outer loop
vertex -15.8824008164845 -1.96694371894286 32.5247
vertex -2.54770105883286 -12.8474696406352 32.5247
vertex -17.0345314972298 -10.9996625623745 32.5247
endloop
endfacet
facet normal 0.0 0.0 -1.0
outer loop
vertex -2.54770105883286 -12.8474696406352 32.5247
vertex -15.8824008164845 -1.96694371894286 32.5247
vertex 11.398425760156 -5.44663547508492 32.5247
endloop
endfacet
facet normal 0.0 0.0 -1.0
outer loop
vertex -2.54770105883286 -12.8474696406352 32.5247
vertex 11.398425760156 -5.44663547508492 32.5247
vertex 9.95062974432412 -16.7973742169705 32.5247
endloop
endfacet
facet normal 0.0 0.0 -1.0
outer loop
vertex 9.95062974432412 -16.7973742169705 32.5247
vertex -2.84336639391951 -15.165489539089 32.5247
vertex -2.54770105883286 -12.8474696406352 32.5247
endloop
endfacet
facet normal -0.991963325254139 0.126525733946701 0.0
outer loop
vertex 11.398425760156 -5.44663547508492 32.5247
vertex 9.95062974432412 -16.7973742169705 29.39415
vertex 9.95062974432412 -16.7973742169705 32.5247
endloop
endfacet
facet normal -0.991963325254139 0.126525733946701 0.0
outer loop
vertex 9.95062974432412 -16.7973742169705 29.39415
vertex 11.398425760156 -5.44663547508492 32.5247
vertex 11.398425760156 -5.44663547508492 29.39415
endloop
endfacet
facet normal 0.991963325254139 -0.126525733946704 -0.0
outer loop
vertex 10.8510365347603 30.9978576887197 2.07984561674272
vertex 10.7425723493345 30.1474971281456 3.11489561674272
vertex 10.7425723493345 30.1474971281456 2.07984561674272
endloop
endfacet
facet normal 0.991963325254139 -0.126525733946704 -0.0
outer loop
vertex 10.7425723493345 30.1474971281456 3.11489561674272
vertex 10.8510365347603 30.9978576887197 2.07984561674272
vertex 10.8510365347603 30.9978576887197 2.30209561674272
endloop
endfacet
facet normal 0.0 0.0 -1.0
outer loop
vertex 3.65402987593827 31.9158417779938 2.07984561674272
vertex 6.45568849781053 30.6942926717403 2.07984561674272
vertex 3.54556569051246 31.0654812174197 2.07984561674272
endloop
endfacet
facet normal 0.0 0.0 -1.0
outer loop
vertex 6.45568849781053 30.6942926717403 2.07984561674272
vertex 3.65402987593827 31.9158417779938 2.07984561674272
vertex 6.56415268323634 31.5446532323144 2.07984561674272
endloop
endfacet
facet normal 0.126525733946701 0.991963325254139 -0.0
outer loop
vertex -2.84336639391951 -15.165489539089 32.5247
vertex 9.95062974432412 -16.7973742169705 29.39415
vertex -2.84336639391951 -15.165489539089 29.39415
endloop
endfacet
facet normal 0.126525733946701 0.991963325254139 -0.0
outer loop
vertex 9.95062974432412 -16.7973742169705 29.39415
vertex -2.84336639391951 -15.165489539089 32.5247
vertex 9.95062974432412 -16.7973742169705 32.5247
endloop
endfacet
facet normal 0.991963325254139 -0.126525733946701 -0.0
outer loop
vertex -2.54770105883286 -12.8474696406352 29.39415
vertex -2.84336639391951 -15.165489539089 32.5247
vertex -2.84336639391951 -15.165489539089 29.39415
endloop
endfacet
facet normal 0.991963325254139 -0.126525733946701 -0.0
outer loop
vertex -2.84336639391951 -15.165489539089 32.5247
vertex -2.54770105883286 -12.8474696406352 29.39415
vertex -2.54770105883286 -12.8474696406352 32.5247
endloop
endfacet
facet normal 0.126525733946701 0.991963325254139 -0.0
outer loop
vertex -17.0345314972298 -10.9996625623745 32.5247
vertex -2.54770105883286 -12.8474696406352 29.39415
vertex -17.0345314972298 -10.9996625623745 29.39415
endloop
endfacet
facet normal 0.126525733946701 0.991963325254139 -0.0
outer loop
vertex -2.54770105883286 -12.8474696406352 29.39415
vertex -17.0345314972298 -10.9996625623745 32.5247
vertex -2.54770105883286 -12.8474696406352 32.5247
endloop
endfacet
facet normal 0.991963325254139 -0.126525733946701 -0.0
outer loop
vertex -15.8824008164845 -1.96694371894286 29.39415
vertex -17.0345314972298 -10.9996625623745 32.5247
vertex -17.0345314972298 -10.9996625623745 29.39415
endloop
endfacet
facet normal 0.991963325254139 -0.126525733946701 -0.0
outer loop
vertex -17.0345314972298 -10.9996625623745 32.5247
vertex -15.8824008164845 -1.96694371894286 29.39415
vertex -15.8824008164845 -1.96694371894286 32.5247
endloop
endfacet
facet normal -0.126525733946701 -0.991963325254139 0.0
outer loop
vertex 11.398425760156 -5.44663547508492 32.5247
vertex -15.8824008164845 -1.96694371894286 29.39415
vertex 11.398425760156 -5.44663547508492 29.39415
endloop
endfacet
facet normal -0.126525733946701 -0.991963325254139 0.0
outer loop
vertex -15.8824008164845 -1.96694371894286 29.39415
vertex 11.398425760156 -5.44663547508492 32.5247
vertex -15.8824008164845 -1.96694371894286 32.5247
endloop
endfacet
facet normal 0.40557773248389 0.914060557574402 -0.0
outer loop
vertex 23.2503086364142 28.732970994287 11.690697684299
vertex 23.8223176899631 28.4791649056464 7.95689768429903
vertex 23.2503086364142 28.732970994287 7.95689768429903
endloop
endfacet
facet normal 0.40557773248389 0.914060557574402 -0.0
outer loop
vertex 23.8223176899631 28.4791649056464 7.95689768429903
vertex 23.2503086364142 28.732970994287 11.690697684299
vertex 23.8223176899631 28.4791649056464 11.690697684299
endloop
endfacet
facet normal 0.473969289764067 -0.060455170800014 0.878463593260465
outer loop
vertex 21.6549042887379 28.3715334782277 14.0596169224072
vertex 21.1766337989084 28.8166240511454 14.3482954207905
vertex 21.1284274942747 28.4386860242236 14.3482954207905
endloop
endfacet
facet normal 0.473969289764067 -0.060455170800014 0.878463593260465
outer loop
vertex 21.1766337989084 28.8166240511454 14.3482954207905
vertex 21.6549042887379 28.3715334782277 14.0596169224072
vertex 21.7031105933716 28.7494715051495 14.0596169224072
endloop
endfacet
facet normal 0.774984208043893 -0.0988498699734937 0.624202034992521
outer loop
vertex 22.536579709072 28.6431618373411 13.1995750575131
vertex 22.1142794875116 28.3129397956771 13.6715914566352
vertex 22.4883734044383 28.2652238104193 13.1995750575131
endloop
endfacet
facet normal 0.774984208043893 -0.0988498699734937 0.624202034992521
outer loop
vertex 22.1142794875116 28.3129397956771 13.6715914566352
vertex 22.536579709072 28.6431618373411 13.1995750575131
vertex 22.1624857921453 28.6908778225989 13.6715914566352
endloop
endfacet
facet normal 0.991963325254141 -0.126525733946688 -0.0
outer loop
vertex 22.8105876485099 28.6082119004211 11.690697684299
vertex 22.7623813438762 28.2302738734993 12.662247684299
vertex 22.7623813438762 28.2302738734993 11.690697684299
endloop
endfacet
facet normal 0.991963325254141 -0.126525733946688 -0.0
outer loop
vertex 22.7623813438762 28.2302738734993 12.662247684299
vertex 22.8105876485099 28.6082119004211 11.690697684299
vertex 22.8105876485099 28.6082119004211 12.662247684299
endloop
endfacet
facet normal -0.0 -0.0 1.0
outer loop
vertex 17.2045069158362 29.3232720858209 11.690697684299
vertex 17.1140235152786 29.5156591833478 11.690697684299
vertex 16.496618934795 29.4135637771294 11.690697684299
endloop
endfacet
facet normal -0.0 -0.0 1.0
outer loop
vertex 17.1140235152786 29.5156591833478 11.690697684299
vertex 17.2045069158362 29.3232720858209 11.690697684299
vertex 17.7359601665129 29.5849894784903 11.690697684299
endloop
endfacet
facet normal -0.0 -0.0 1.0
outer loop
vertex 17.7359601665129 29.5849894784903 11.690697684299
vertex 17.2045069158362 29.3232720858209 11.690697684299
vertex 22.8105876485099 28.6082119004211 11.690697684299
endloop
endfacet
facet normal -0.0 -0.0 1.0
outer loop
vertex 17.7359601665129 29.5849894784903 11.690697684299
vertex 22.8105876485099 28.6082119004211 11.690697684299
vertex 18.3606913109607 29.6213609663609 11.690697684299
endloop
endfacet
facet normal -0.0 -0.0 1.0
outer loop
vertex 18.3606913109607 29.6213609663609 11.690697684299
vertex 22.8105876485099 28.6082119004211 11.690697684299
vertex 18.9864715637808 29.6246720316582 11.690697684299
endloop
endfacet
facet normal -0.0 -0.0 1.0
outer loop
vertex 18.9864715637808 29.6246720316582 11.690697684299
vertex 22.8105876485099 28.6082119004211 11.690697684299
vertex 19.6115526091145 29.5949134238698 11.690697684299
endloop
endfacet
facet normal -0.0 -0.0 1.0
outer loop
vertex 19.6115526091145 29.5949134238698 11.690697684299
vertex 22.8105876485099 28.6082119004211 11.690697684299
vertex 20.2341880845613 29.5321682831167 11.690697684299
endloop
endfacet
facet normal -0.0 -0.0 1.0
outer loop
vertex 20.2341880845613 29.5321682831167 11.690697684299
vertex 22.8105876485099 28.6082119004211 11.690697684299
vertex 20.8526384601968 29.4366119078749 11.690697684299
endloop
endfacet
facet normal -0.0 -0.0 1.0
outer loop
vertex 20.8526384601968 29.4366119078749 11.690697684299
vertex 22.8105876485099 28.6082119004211 11.690697684299
vertex 21.4651758985018 29.3085112652235 11.690697684299
endloop
endfacet
facet normal -0.0 -0.0 1.0
outer loop
vertex 21.4651758985018 29.3085112652235 11.690697684299
vertex 22.8105876485099 28.6082119004211 11.690697684299
vertex 22.0700890816254 29.1482242449873 11.690697684299
endloop
endfacet
facet normal -0.0 -0.0 1.0
outer loop
vertex 22.0700890816254 29.1482242449873 11.690697684299
vertex 22.8105876485099 28.6082119004211 11.690697684299
vertex 22.6656879924948 28.9561986598579 11.690697684299
endloop
endfacet
facet normal -0.0 -0.0 1.0
outer loop
vertex 22.6656879924948 28.9561986598579 11.690697684299
vertex 22.8105876485099 28.6082119004211 11.690697684299
vertex 23.2503086364142 28.732970994287 11.690697684299
endloop
endfacet
facet normal -0.0 -0.0 1.0
outer loop
vertex 23.2503086364142 28.732970994287 11.690697684299
vertex 22.8105876485099 28.6082119004211 11.690697684299
vertex 23.8223176899631 28.4791649056464 11.690697684299
endloop
endfacet
facet normal -0.991963325254142 0.12652573394668 0.0
outer loop
vertex 17.2045069158362 29.3232720858209 12.662247684299
vertex 17.1563006112025 28.945334058899 11.690697684299
vertex 17.1563006112025 28.945334058899 12.662247684299
endloop
endfacet
facet normal -0.991963325254142 0.12652573394668 0.0
outer loop
vertex 17.1563006112025 28.945334058899 11.690697684299
vertex 17.2045069158362 29.3232720858209 12.662247684299
vertex 17.2045069158362 29.3232720858209 11.690697684299
endloop
endfacet
facet normal -0.882215595824874 0.112527321241793 0.457201535930829
outer loop
vertex 17.4785148552741 29.2883221489008 13.1995750575131
vertex 17.1563006112025 28.945334058899 12.662247684299
vertex 17.4303085506404 28.910384121979 13.1995750575131
endloop
endfacet
facet normal -0.882215595824874 0.112527321241793 0.457201535930829
outer loop
vertex 17.1563006112025 28.945334058899 12.662247684299
vertex 17.4785148552741 29.2883221489008 13.1995750575131
vertex 17.2045069158362 29.3232720858209 12.662247684299
endloop
endfacet
facet normal 0.0 0.0 -1.0
outer loop
vertex 17.1140235152786 29.5156591833478 7.95689768429903
vertex 23.8223176899631 28.4791649056464 7.95689768429903
vertex 16.496618934795 29.4135637771294 7.95689768429903
endloop
endfacet
facet normal 0.0 0.0 -1.0
outer loop
vertex 23.8223176899631 28.4791649056464 7.95689768429903
vertex 17.1140235152786 29.5156591833478 7.95689768429903
vertex 17.7359601665129 29.5849894784903 7.95689768429903
endloop
endfacet
facet normal 0.0 0.0 -1.0
outer loop
vertex 23.8223176899631 28.4791649056464 7.95689768429903
vertex 17.7359601665129 29.5849894784903 7.95689768429903
vertex 18.3606913109607 29.6213609663609 7.95689768429903
endloop
endfacet
facet normal 0.0 0.0 -1.0
outer loop
vertex 23.8223176899631 28.4791649056464 7.95689768429903
vertex 18.3606913109607 29.6213609663609 7.95689768429903
vertex 18.9864715637808 29.6246720316582 7.95689768429903
endloop
endfacet
facet normal 0.0 0.0 -1.0
outer loop
vertex 23.8223176899631 28.4791649056464 7.95689768429903
vertex 18.9864715637808 29.6246720316582 7.95689768429903
vertex 19.6115526091145 29.5949134238698 7.95689768429903
endloop
endfacet
facet normal 0.0 0.0 -1.0
outer loop
vertex 23.8223176899631 28.4791649056464 7.95689768429903
vertex 19.6115526091145 29.5949134238698 7.95689768429903
vertex 20.2341880845613 29.5321682831167 7.95689768429903
endloop
endfacet
facet normal 0.0 0.0 -1.0
outer loop
vertex 23.8223176899631 28.4791649056464 7.95689768429903
vertex 20.2341880845613 29.5321682831167 7.95689768429903
vertex 20.8526384601968 29.4366119078749 7.95689768429903
endloop
endfacet
facet normal 0.0 0.0 -1.0
outer loop
vertex 23.8223176899631 28.4791649056464 7.95689768429903
vertex 20.8526384601968 29.4366119078749 7.95689768429903
vertex 21.4651758985018 29.3085112652235 7.95689768429903
endloop
endfacet
facet normal 0.0 0.0 -1.0
outer loop
vertex 23.8223176899631 28.4791649056464 7.95689768429903
vertex 21.4651758985018 29.3085112652235 7.95689768429903
vertex 22.0700890816254 29.1482242449873 7.95689768429903
endloop
endfacet
facet normal 0.0 0.0 -1.0
outer loop
vertex 23.8223176899631 28.4791649056464 7.95689768429903
vertex 22.0700890816254 29.1482242449873 7.95689768429903
vertex 22.6656879924948 28.9561986598579 7.95689768429903
endloop
endfacet
facet normal 0.0 0.0 -1.0
outer loop
vertex 23.8223176899631 28.4791649056464 7.95689768429903
vertex 22.6656879924948 28.9561986598579 7.95689768429903
vertex 23.2503086364142 28.732970994287 7.95689768429903
endloop
endfacet
facet normal 0.0 0.0 -1.0
outer loop
vertex 17.2045069158362 29.3232720858209 11.690697684299
vertex 22.7623813438762 28.2302738734993 11.690697684299
vertex 17.1563006112025 28.945334058899 11.690697684299
endloop
endfacet
facet normal 0.0 0.0 -1.0
outer loop
vertex 22.7623813438762 28.2302738734993 11.690697684299
vertex 17.2045069158362 29.3232720858209 11.690697684299
vertex 22.8105876485099 28.6082119004211 11.690697684299
endloop
endfacet
facet normal -0.126525733946701 -0.991963325254139 -9.0909922679304e-17
outer loop
vertex 23.8223176899631 28.4791649056464 11.690697684299
vertex 16.496618934795 29.4135637771294 7.95689768429903
vertex 23.8223176899631 28.4791649056464 7.95689768429903
endloop
endfacet
facet normal -0.126525733946701 -0.991963325254139 -9.0909922679304e-17
outer loop
vertex 16.496618934795 29.4135637771294 7.95689768429903
vertex 23.8223176899631 28.4791649056464 11.690697684299
vertex 16.496618934795 29.4135637771294 11.690697684299
endloop
endfacet
facet normal -0.126525733946701 -0.991963325254139 -9.0909922679304e-17
outer loop
vertex 16.496618934795 29.4135637771294 11.690697684299
vertex 23.8223176899631 28.4791649056464 11.690697684299
vertex 22.8105876485099 28.6082119004211 11.690697684299
endloop
endfacet
facet normal -0.126525733946701 -0.991963325254139 -9.0909922679304e-17
outer loop
vertex 16.496618934795 29.4135637771294 11.690697684299
vertex 22.8105876485099 28.6082119004211 11.690697684299
vertex 17.2045069158362 29.3232720858209 11.690697684299
endloop
endfacet
facet normal 0.126525733946701 0.991963325254139 -0.0
outer loop
vertex -22.022778738007 -22.4604860271621 29.39415
vertex -4.95257785537114 -24.6378041197839 0.0
vertex -22.022778738007 -22.4604860271621 0.0
endloop
endfacet
facet normal 0.126525733946701 0.991963325254139 -0.0
outer loop
vertex -4.95257785537114 -24.6378041197839 0.0
vertex -22.022778738007 -22.4604860271621 29.39415
vertex -4.95257785537114 -24.6378041197839 29.39415
endloop
endfacet
facet normal 0.292098367428844 -0.0372573858152419 0.955662299637073
outer loop
vertex 21.1284274942747 28.4386860242236 14.3482954207905
vertex 20.6038906278056 28.8896779113455 14.5262025550936
vertex 20.555684323172 28.5117398844237 14.5262025550936
endloop
endfacet
facet normal 0.292098367428844 -0.0372573858152419 0.955662299637073
outer loop
vertex 20.6038906278056 28.8896779113455 14.5262025550936
vertex 21.1284274942747 28.4386860242236 14.3482954207905
vertex 21.1766337989084 28.8166240511454 14.3482954207905
endloop
endfacet
facet normal -0.126525733946701 -0.991963325254139 0.0
outer loop
vertex 15.0757354344722 29.5947986304291 3.11489561674272
vertex 12.1656126271741 29.9659871761086 2.07984561674272
vertex 15.0757354344722 29.5947986304291 2.07984561674272
endloop
endfacet
facet normal -0.126525733946701 -0.991963325254139 0.0
outer loop
vertex 12.1656126271741 29.9659871761086 2.07984561674272
vertex 15.0757354344722 29.5947986304291 3.11489561674272
vertex 12.1656126271741 29.9659871761086 3.11489561674272
endloop
endfacet
facet normal 0.991963325254139 -0.126525733946703 -0.0
outer loop
vertex 15.184199619898 30.4451591910032 2.07984561674272
vertex 15.0757354344722 29.5947986304291 3.11489561674272
vertex 15.0757354344722 29.5947986304291 2.07984561674272
endloop
endfacet
facet normal 0.991963325254139 -0.126525733946703 -0.0
outer loop
vertex 15.0757354344722 29.5947986304291 3.11489561674272
vertex 15.184199619898 30.4451591910032 2.07984561674272
vertex 15.184199619898 30.4451591910032 2.30209561674272
endloop
endfacet
facet normal -0.126525733946701 -0.991963325254139 0.0
outer loop
vertex 17.2045069158362 29.3232720858209 12.662247684299
vertex 16.496618934795 29.4135637771294 11.690697684299
vertex 17.2045069158362 29.3232720858209 11.690697684299
endloop
endfacet
facet normal -0.126525733946701 -0.991963325254139 0.0
outer loop
vertex 24.0069443065712 28.4556156296019 23.9014
vertex 23.8223176899631 28.4791649056464 7.95689768429903
vertex 24.0069443065712 28.4556156296019 3.79095
endloop
endfacet
facet normal -0.126525733946701 -0.991963325254139 0.0
outer loop
vertex 23.8223176899631 28.4791649056464 7.95689768429903
vertex 24.0069443065712 28.4556156296019 23.9014
vertex 23.8223176899631 28.4791649056464 11.690697684299
endloop
endfacet
facet normal -0.126525733946701 -0.991963325254139 0.0
outer loop
vertex 23.8223176899631 28.4791649056464 11.690697684299
vertex 24.0069443065712 28.4556156296019 23.9014
vertex 22.8105876485099 28.6082119004211 11.690697684299
endloop
endfacet
facet normal -0.126525733946701 -0.991963325254139 0.0
outer loop
vertex 22.8105876485099 28.6082119004211 11.690697684299
vertex 24.0069443065712 28.4556156296019 23.9014
vertex 22.8105876485099 28.6082119004211 12.662247684299
endloop
endfacet
facet normal -0.126525733946701 -0.991963325254139 0.0
outer loop
vertex 22.8105876485099 28.6082119004211 12.662247684299
vertex 24.0069443065712 28.4556156296019 23.9014
vertex 22.536579709072 28.6431618373411 13.1995750575131
endloop
endfacet
facet normal -0.126525733946701 -0.991963325254139 0.0
outer loop
vertex 22.536579709072 28.6431618373411 13.1995750575131
vertex 24.0069443065712 28.4556156296019 23.9014
vertex 22.1624857921453 28.6908778225989 13.6715914566352
endloop
endfacet
facet normal -0.126525733946701 -0.991963325254139 0.0
outer loop
vertex 22.1624857921453 28.6908778225989 13.6715914566352
vertex 24.0069443065712 28.4556156296019 23.9014
vertex 21.7031105933716 28.7494715051495 14.0596169224072
endloop
endfacet
facet normal -0.126525733946701 -0.991963325254139 0.0
outer loop
vertex 21.7031105933716 28.7494715051495 14.0596169224072
vertex 24.0069443065712 28.4556156296019 23.9014
vertex 21.1766337989084 28.8166240511454 14.3482954207905
endloop
endfacet
facet normal -0.126525733946701 -0.991963325254139 0.0
outer loop
vertex 21.1766337989084 28.8166240511454 14.3482954207905
vertex 24.0069443065712 28.4556156296019 23.9014
vertex 20.6038906278056 28.8896779113455 14.5262025550936
endloop
endfacet
facet normal -0.126525733946701 -0.991963325254139 0.0
outer loop
vertex 20.6038906278056 28.8896779113455 14.5262025550936
vertex 24.0069443065712 28.4556156296019 23.9014
vertex 20.007547282173 28.965741993121 14.586297684299
endloop
endfacet
facet normal -0.126525733946701 -0.991963325254139 0.0
outer loop
vertex 16.3809817354632 29.4283133965403 3.79095
vertex 16.496618934795 29.4135637771294 7.95689768429903
vertex 16.3809817354632 29.4283133965403 23.9014
endloop
endfacet
facet normal -0.126525733946701 -0.991963325254139 0.0
outer loop
vertex 16.496618934795 29.4135637771294 7.95689768429903
vertex 16.3809817354632 29.4283133965403 3.79095
vertex 24.0069443065712 28.4556156296019 3.79095
endloop
endfacet
facet normal -0.126525733946701 -0.991963325254139 0.0
outer loop
vertex 16.496618934795 29.4135637771294 7.95689768429903
vertex 24.0069443065712 28.4556156296019 3.79095
vertex 23.8223176899631 28.4791649056464 7.95689768429903
endloop
endfacet
facet normal -0.126525733946701 -0.991963325254139 0.0
outer loop
vertex 16.3809817354632 29.4283133965403 23.9014
vertex 16.496618934795 29.4135637771294 7.95689768429903
vertex 16.496618934795 29.4135637771294 11.690697684299
endloop
endfacet
facet normal -0.126525733946701 -0.991963325254139 0.0
outer loop
vertex 16.3809817354632 29.4283133965403 23.9014
vertex 16.496618934795 29.4135637771294 11.690697684299
vertex 17.2045069158362 29.3232720858209 12.662247684299
endloop
endfacet
facet normal -0.126525733946701 -0.991963325254139 0.0
outer loop
vertex 16.3809817354632 29.4283133965403 23.9014
vertex 17.2045069158362 29.3232720858209 12.662247684299
vertex 17.4785148552741 29.2883221489008 13.1995750575131
endloop
endfacet
facet normal -0.126525733946701 -0.991963325254139 0.0
outer loop
vertex 16.3809817354632 29.4283133965403 23.9014
vertex 17.4785148552741 29.2883221489008 13.1995750575131
vertex 17.8526087722007 29.240606163643 13.6715914566352
endloop
endfacet
facet normal -0.126525733946701 -0.991963325254139 0.0
outer loop
vertex 16.3809817354632 29.4283133965403 23.9014
vertex 17.8526087722007 29.240606163643 13.6715914566352
vertex 18.3119839709745 29.1820124810924 14.0596169224072
endloop
endfacet
facet normal -0.126525733946701 -0.991963325254139 0.0
outer loop
vertex 16.3809817354632 29.4283133965403 23.9014
vertex 18.3119839709745 29.1820124810924 14.0596169224072
vertex 18.8384607654377 29.1148599350965 14.3482954207905
endloop
endfacet
facet normal -0.126525733946701 -0.991963325254139 0.0
outer loop
vertex 16.3809817354632 29.4283133965403 23.9014
vertex 18.8384607654377 29.1148599350965 14.3482954207905
vertex 19.4112039365404 29.0418060748964 14.5262025550936
endloop
endfacet
facet normal -0.126525733946701 -0.991963325254139 0.0
outer loop
vertex 16.3809817354632 29.4283133965403 23.9014
vertex 19.4112039365404 29.0418060748964 14.5262025550936
vertex 20.007547282173 28.965741993121 14.586297684299
endloop
endfacet
facet normal -0.126525733946701 -0.991963325254139 0.0
outer loop
vertex 16.3809817354632 29.4283133965403 23.9014
vertex 20.007547282173 28.965741993121 14.586297684299
vertex 24.0069443065712 28.4556156296019 23.9014
endloop
endfacet
facet normal -0.0986677077347599 0.0125851468700006 0.995040852190818
outer loop
vertex 19.9593409775394 28.5878039661991 14.586297684299
vertex 19.4112039365404 29.0418060748964 14.5262025550936
vertex 19.3629976319068 28.6638680479746 14.5262025550936
endloop
endfacet
facet normal -0.0986677077347599 0.0125851468700006 0.995040852190818
outer loop
vertex 19.4112039365404 29.0418060748964 14.5262025550936
vertex 19.9593409775394 28.5878039661991 14.586297684299
vertex 20.007547282173 28.965741993121 14.586297684299
endloop
endfacet
facet normal -0.991963325254139 0.1265257339467 -1.48277723986645e-17
outer loop
vertex 12.2740768125999 30.8163477366827 2.30209561674272
vertex 12.1656126271741 29.9659871761086 2.07984561674272
vertex 12.1656126271741 29.9659871761086 3.11489561674272
endloop
endfacet
facet normal -0.991963325254139 0.1265257339467 -1.48277723986645e-17
outer loop
vertex 12.1656126271741 29.9659871761086 2.07984561674272
vertex 12.2740768125999 30.8163477366827 2.30209561674272
vertex 12.2740768125999 30.8163477366827 2.07984561674272
endloop
endfacet
facet normal -0.292098367428844 0.0372573858152408 0.955662299637073
outer loop
vertex 19.3629976319068 28.6638680479746 14.5262025550936
vertex 18.8384607654377 29.1148599350965 14.3482954207905
vertex 18.790254460804 28.7369219081747 14.3482954207905
endloop
endfacet
facet normal -0.292098367428844 0.0372573858152408 0.955662299637073
outer loop
vertex 18.8384607654377 29.1148599350965 14.3482954207905
vertex 19.3629976319068 28.6638680479746 14.5262025550936
vertex 19.4112039365404 29.0418060748964 14.5262025550936
endloop
endfacet
facet normal -0.473969289764067 0.0604551708000117 0.878463593260465
outer loop
vertex 18.790254460804 28.7369219081747 14.3482954207905
vertex 18.3119839709745 29.1820124810924 14.0596169224072
vertex 18.2637776663408 28.8040744541706 14.0596169224072
endloop
endfacet
facet normal -0.473969289764067 0.0604551708000117 0.878463593260465
outer loop
vertex 18.3119839709745 29.1820124810924 14.0596169224072
vertex 18.790254460804 28.7369219081747 14.3482954207905
vertex 18.8384607654377 29.1148599350965 14.3482954207905
endloop
endfacet
facet normal -0.774984208043893 0.0988498699734876 0.624202034992522
outer loop
vertex 17.8526087722007 29.240606163643 13.6715914566352
vertex 17.4303085506404 28.910384121979 13.1995750575131
vertex 17.8044024675671 28.8626681367212 13.6715914566352
endloop
endfacet
facet normal -0.774984208043893 0.0988498699734876 0.624202034992522
outer loop
vertex 17.4303085506404 28.910384121979 13.1995750575131
vertex 17.8526087722007 29.240606163643 13.6715914566352
vertex 17.4785148552741 29.2883221489008 13.1995750575131
endloop
endfacet
facet normal -0.126525733946701 -0.991963325254139 -1.69449223558775e-15
outer loop
vertex 24.0069443065712 28.4556156296019 23.9014
vertex 23.4589341675346 28.5255147713207 24.2062784845583
vertex 16.3809817354632 29.4283133965403 23.9014
endloop
endfacet
facet normal -0.126525733946701 -0.991963325254139 -1.69449223558775e-15
outer loop
vertex 23.4589341675346 28.5255147713207 24.2062784845583
vertex 24.0069443065712 28.4556156296019 23.9014
vertex 24.0069443065712 28.4556156296019 24.3459784845583
endloop
endfacet
facet normal -0.126525733946701 -0.991963325254139 -1.69449223558775e-15
outer loop
vertex 23.4589341675346 28.5255147713207 24.2062784845583
vertex 24.0069443065712 28.4556156296019 24.3459784845583
vertex 23.4589341675346 28.5255147713207 24.3459784845583
endloop
endfacet
facet normal -0.126525733946701 -0.991963325254139 -1.69449223558775e-15
outer loop
vertex 21.7834089148478 28.7392293885301 24.7587284845583
vertex 18.5457398175508 29.1521967315587 24.2062784845583
vertex 21.7834089148478 28.7392293885301 24.2062784845583
endloop
endfacet
facet normal -0.126525733946701 -0.991963325254139 -1.69449223558775e-15
outer loop
vertex 18.5457398175508 29.1521967315587 24.2062784845583
vertex 21.7834089148478 28.7392293885301 24.7587284845583
vertex 18.5457398175508 29.1521967315587 24.7587284845583
endloop
endfacet
facet normal -0.126525733946701 -0.991963325254139 -1.69449223558775e-15
outer loop
vertex 16.3809817354632 29.4283133965403 23.9014
vertex 16.8135238608258 29.3731422944631 24.2062784845583
vertex 16.3809817354632 29.4283133965403 24.3142284845583
endloop
endfacet
facet normal -0.126525733946701 -0.991963325254139 -1.69449223558775e-15
outer loop
vertex 16.8135238608258 29.3731422944631 24.2062784845583
vertex 16.3809817354632 29.4283133965403 23.9014
vertex 23.4589341675346 28.5255147713207 24.2062784845583
endloop
endfacet
facet normal -0.126525733946701 -0.991963325254139 -1.69449223558775e-15
outer loop
vertex 16.8135238608258 29.3731422944631 24.2062784845583
vertex 23.4589341675346 28.5255147713207 24.2062784845583
vertex 21.7834089148478 28.7392293885301 24.2062784845583
endloop
endfacet
facet normal -0.126525733946701 -0.991963325254139 -1.69449223558775e-15
outer loop
vertex 16.8135238608258 29.3731422944631 24.2062784845583
vertex 21.7834089148478 28.7392293885301 24.2062784845583
vertex 18.5457398175508 29.1521967315587 24.2062784845583
endloop
endfacet
facet normal -0.126525733946701 -0.991963325254139 -1.69449223558775e-15
outer loop
vertex 16.3809817354632 29.4283133965403 24.3142284845583
vertex 16.8135238608258 29.3731422944631 24.2062784845583
vertex 16.8135238608258 29.3731422944631 24.3142284845583
endloop
endfacet
facet normal -0.110788610497593 0.993843993685132 2.30585675164662e-15
outer loop
vertex 17.1140235152786 29.5156591833478 11.690697684299
vertex 17.7359601665129 29.5849894784903 7.95689768429903
vertex 17.1140235152786 29.5156591833478 7.95689768429903
endloop
endfacet
facet normal -0.110788610497593 0.993843993685132 2.30585675164662e-15
outer loop
vertex 17.7359601665129 29.5849894784903 7.95689768429903
vertex 17.1140235152786 29.5156591833478 11.690697684299
vertex 17.7359601665129 29.5849894784903 11.690697684299
endloop
endfacet
facet normal 0.100265647870455 0.994960702669768 1.53896511488167e-15
outer loop
vertex 19.6115526091145 29.5949134238698 11.690697684299
vertex 20.2341880845613 29.5321682831167 7.95689768429903
vertex 19.6115526091145 29.5949134238698 7.95689768429903
endloop
endfacet
facet normal 0.100265647870455 0.994960702669768 1.53896511488167e-15
outer loop
vertex 20.2341880845613 29.5321682831167 7.95689768429903
vertex 19.6115526091145 29.5949134238698 11.690697684299
vertex 20.2341880845613 29.5321682831167 11.690697684299
endloop
endfacet
facet normal 0.306853558213646 0.951756740880581 8.55533854888337e-16
outer loop
vertex 22.0700890816254 29.1482242449873 11.690697684299
vertex 22.6656879924948 28.9561986598579 7.95689768429903
vertex 22.0700890816254 29.1482242449873 7.95689768429903
endloop
endfacet
facet normal 0.306853558213646 0.951756740880581 8.55533854888337e-16
outer loop
vertex 22.6656879924948 28.9561986598579 7.95689768429903
vertex 22.0700890816254 29.1482242449873 11.690697684299
vertex 22.6656879924948 28.9561986598579 11.690697684299
endloop
endfacet
facet normal -0.00529102498123249 0.999986002429358 7.75401090783919e-16
outer loop
vertex 18.3606913109607 29.6213609663609 11.690697684299
vertex 18.9864715637808 29.6246720316582 7.95689768429903
vertex 18.3606913109607 29.6213609663609 7.95689768429903
endloop
endfacet
facet normal -0.00529102498123249 0.999986002429358 7.75401090783919e-16
outer loop
vertex 18.9864715637808 29.6246720316582 7.95689768429903
vertex 18.3606913109607 29.6213609663609 11.690697684299
vertex 18.9864715637808 29.6246720316582 11.690697684299
endloop
endfacet
facet normal 0.047553739681084 0.998868680979809 1.5267463584246e-15
outer loop
vertex 18.9864715637808 29.6246720316582 11.690697684299
vertex 19.6115526091145 29.5949134238698 7.95689768429903
vertex 18.9864715637808 29.6246720316582 7.95689768429903
endloop
endfacet
facet normal 0.047553739681084 0.998868680979809 1.5267463584246e-15
outer loop
vertex 19.6115526091145 29.5949134238698 7.95689768429903
vertex 18.9864715637808 29.6246720316582 11.690697684299
vertex 19.6115526091145 29.5949134238698 11.690697684299
endloop
endfacet
facet normal 0.991963325254139 -0.126525733946703 -0.0
outer loop
vertex 6.56415268323634 31.5446532323144 2.07984561674272
vertex 6.45568849781053 30.6942926717403 3.11489561674272
vertex 6.45568849781053 30.6942926717403 2.07984561674272
endloop
endfacet
facet normal 0.991963325254139 -0.126525733946703 -0.0
outer loop
vertex 6.45568849781053 30.6942926717403 3.11489561674272
vertex 6.56415268323634 31.5446532323144 2.07984561674272
vertex 6.56415268323634 31.5446532323144 2.30209561674272
endloop
endfacet
facet normal 0.637082967565319 -0.0812604538937812 0.766499857189252
outer loop
vertex 22.1142794875116 28.3129397956771 13.6715914566352
vertex 21.7031105933716 28.7494715051495 14.0596169224072
vertex 21.6549042887379 28.3715334782277 14.0596169224072
endloop
endfacet
facet normal 0.637082967565319 -0.0812604538937812 0.766499857189252
outer loop
vertex 21.7031105933716 28.7494715051495 14.0596169224072
vertex 22.1142794875116 28.3129397956771 13.6715914566352
vertex 22.1624857921453 28.6908778225989 13.6715914566352
endloop
endfacet
facet normal 0.256135881381713 0.966640786574213 2.24139396180918e-15
outer loop
vertex 21.4651758985018 29.3085112652235 11.690697684299
vertex 22.0700890816254 29.1482242449873 7.95689768429903
vertex 21.4651758985018 29.3085112652235 7.95689768429903
endloop
endfacet
facet normal 0.256135881381713 0.966640786574213 2.24139396180918e-15
outer loop
vertex 22.0700890816254 29.1482242449873 7.95689768429903
vertex 21.4651758985018 29.3085112652235 11.690697684299
vertex 22.0700890816254 29.1482242449873 11.690697684299
endloop
endfacet
facet normal 0.204702607626793 0.978824214264641 2.19131385246406e-15
outer loop
vertex 20.8526384601968 29.4366119078749 11.690697684299
vertex 21.4651758985018 29.3085112652235 7.95689768429903
vertex 20.8526384601968 29.4366119078749 7.95689768429903
endloop
endfacet
facet normal 0.204702607626793 0.978824214264641 2.19131385246406e-15
outer loop
vertex 21.4651758985018 29.3085112652235 7.95689768429903
vertex 20.8526384601968 29.4366119078749 11.690697684299
vertex 21.4651758985018 29.3085112652235 11.690697684299
endloop
endfacet
facet normal -0.991963325254139 0.126525733946701 -6.07423436701645e-17
outer loop
vertex 16.3809817354632 29.4283133965403 29.39415
vertex 9.9309781754751 -21.1397946056002 23.9014
vertex 9.9309781754751 -21.1397946056002 29.39415
endloop
endfacet
facet normal -0.991963325254139 0.126525733946701 -6.07423436701645e-17
outer loop
vertex 9.9309781754751 -21.1397946056002 23.9014
vertex 16.3809817354632 29.4283133965403 29.39415
vertex 16.3809817354632 29.4283133965403 23.9014
endloop
endfacet
facet normal -0.991963325254139 0.126525733946701 -6.07423436701645e-17
outer loop
vertex 16.3809817354632 29.4283133965403 23.9014
vertex 16.3809817354632 29.4283133965403 29.39415
vertex 16.3809817354632 29.4283133965403 24.3142284845583
endloop
endfacet
facet normal -0.991963325254139 0.126525733946701 0.0
outer loop
vertex 3.65402987593827 31.9158417779938 2.30209561674272
vertex 3.54556569051246 31.0654812174197 2.07984561674272
vertex 3.54556569051246 31.0654812174197 3.11489561674272
endloop
endfacet
facet normal -0.991963325254139 0.126525733946701 0.0
outer loop
vertex 3.54556569051246 31.0654812174197 2.07984561674272
vertex 3.65402987593827 31.9158417779938 2.30209561674272
vertex 3.65402987593827 31.9158417779938 2.07984561674272
endloop
endfacet
facet normal -0.126525733946701 -0.991963325254139 4.13244079200103e-19
outer loop
vertex 24.0069443065712 28.4556156296019 3.79095
vertex 16.3809817354632 29.4283133965403 0.0
vertex 24.0069443065712 28.4556156296019 0.0
endloop
endfacet
facet normal -0.126525733946701 -0.991963325254139 4.13244079200103e-19
outer loop
vertex 16.3809817354632 29.4283133965403 0.0
vertex 24.0069443065712 28.4556156296019 3.79095
vertex 16.3809817354632 29.4283133965403 3.79095
endloop
endfacet
facet normal 0.0 0.0 -1.0
outer loop
vertex 16.3809817354632 29.4283133965403 23.9014
vertex 17.5569407465831 -22.1124923725386 23.9014
vertex 9.9309781754751 -21.1397946056002 23.9014
endloop
endfacet
facet normal 0.0 0.0 -1.0
outer loop
vertex 17.5569407465831 -22.1124923725386 23.9014
vertex 16.3809817354632 29.4283133965403 23.9014
vertex 24.0069443065712 28.4556156296019 23.9014
endloop
endfacet
facet normal -0.126525733946701 -0.991963325254139 5.3777464775062e-18
outer loop
vertex 16.3809817354632 29.4283133965403 0.0
vertex 15.0757354344722 29.5947986304291 2.07984561674272
vertex 2.17472428472036 31.2403331606082 0.0
endloop
endfacet
facet normal -0.126525733946701 -0.991963325254139 5.3777464775062e-18
outer loop
vertex 15.0757354344722 29.5947986304291 2.07984561674272
vertex 16.3809817354632 29.4283133965403 0.0
vertex 16.3809817354632 29.4283133965403 3.79095
endloop
endfacet
facet normal -0.126525733946701 -0.991963325254139 5.3777464775062e-18
outer loop
vertex 15.0757354344722 29.5947986304291 2.07984561674272
vertex 16.3809817354632 29.4283133965403 3.79095
vertex 15.0757354344722 29.5947986304291 3.11489561674272
endloop
endfacet
facet normal -0.126525733946701 -0.991963325254139 5.3777464775062e-18
outer loop
vertex 15.0757354344722 29.5947986304291 3.11489561674272
vertex 16.3809817354632 29.4283133965403 3.79095
vertex 12.1656126271741 29.9659871761086 3.11489561674272
endloop
endfacet
facet normal -0.126525733946701 -0.991963325254139 5.3777464775062e-18
outer loop
vertex 12.1656126271741 29.9659871761086 3.11489561674272
vertex 16.3809817354632 29.4283133965403 3.79095
vertex 10.7425723493345 30.1474971281456 3.11489561674272
endloop
endfacet
facet normal -0.126525733946701 -0.991963325254139 5.3777464775062e-18
outer loop
vertex 10.7425723493345 30.1474971281456 3.11489561674272
vertex 16.3809817354632 29.4283133965403 3.79095
vertex 7.83244954203639 30.518685673825 3.11489561674272
endloop
endfacet
facet normal -0.126525733946701 -0.991963325254139 5.3777464775062e-18
outer loop
vertex 7.83244954203639 30.518685673825 3.11489561674272
vertex 16.3809817354632 29.4283133965403 3.79095
vertex 6.45568849781053 30.6942926717403 3.11489561674272
endloop
endfacet
facet normal -0.126525733946701 -0.991963325254139 5.3777464775062e-18
outer loop
vertex 6.45568849781053 30.6942926717403 3.11489561674272
vertex 16.3809817354632 29.4283133965403 3.79095
vertex 3.54556569051246 31.0654812174197 3.11489561674272
endloop
endfacet
facet normal -0.126525733946701 -0.991963325254139 5.3777464775062e-18
outer loop
vertex 2.17472428472036 31.2403331606082 0.0
vertex 3.54556569051246 31.0654812174197 2.07984561674272
vertex 2.17472428472036 31.2403331606082 10.2252728502436
endloop
endfacet
facet normal -0.126525733946701 -0.991963325254139 5.3777464775062e-18
outer loop
vertex 3.54556569051246 31.0654812174197 2.07984561674272
vertex 2.17472428472036 31.2403331606082 0.0
vertex 15.0757354344722 29.5947986304291 2.07984561674272
endloop
endfacet
facet normal -0.126525733946701 -0.991963325254139 5.3777464775062e-18
outer loop
vertex 3.54556569051246 31.0654812174197 2.07984561674272
vertex 15.0757354344722 29.5947986304291 2.07984561674272
vertex 12.1656126271741 29.9659871761086 2.07984561674272
endloop
endfacet
facet normal -0.126525733946701 -0.991963325254139 5.3777464775062e-18
outer loop
vertex 3.54556569051246 31.0654812174197 2.07984561674272
vertex 12.1656126271741 29.9659871761086 2.07984561674272
vertex 10.7425723493345 30.1474971281456 2.07984561674272
endloop
endfacet
facet normal -0.126525733946701 -0.991963325254139 5.3777464775062e-18
outer loop
vertex 3.54556569051246 31.0654812174197 2.07984561674272
vertex 10.7425723493345 30.1474971281456 2.07984561674272
vertex 7.83244954203639 30.518685673825 2.07984561674272
endloop
endfacet
facet normal -0.126525733946701 -0.991963325254139 5.3777464775062e-18
outer loop
vertex 3.54556569051246 31.0654812174197 2.07984561674272
vertex 7.83244954203639 30.518685673825 2.07984561674272
vertex 6.45568849781053 30.6942926717403 2.07984561674272
endloop
endfacet
facet normal -0.126525733946701 -0.991963325254139 5.3777464775062e-18
outer loop
vertex 2.17472428472036 31.2403331606082 10.2252728502436
vertex 3.54556569051246 31.0654812174197 2.07984561674272
vertex 3.54556569051246 31.0654812174197 3.11489561674272
endloop
endfacet
facet normal -0.126525733946701 -0.991963325254139 5.3777464775062e-18
outer loop
vertex 2.17472428472036 31.2403331606082 10.2252728502436
vertex 3.54556569051246 31.0654812174197 3.11489561674272
vertex 16.3809817354632 29.4283133965403 3.79095
endloop
endfacet
facet normal -0.126525733946701 -0.991963325254139 5.3777464775062e-18
outer loop
vertex 2.17472428472036 31.2403331606082 10.2252728502436
vertex 16.3809817354632 29.4283133965403 3.79095
vertex 16.3809817354632 29.4283133965403 23.9014
endloop
endfacet
facet normal -0.126525733946701 -0.991963325254139 5.3777464775062e-18
outer loop
vertex 2.17472428472036 31.2403331606082 10.2252728502436
vertex 16.3809817354632 29.4283133965403 23.9014
vertex 2.17472428472036 31.2403331606082 29.39415
endloop
endfacet
facet normal -0.126525733946701 -0.991963325254139 5.3777464775062e-18
outer loop
vertex 2.17472428472036 31.2403331606082 29.39415
vertex 16.3809817354632 29.4283133965403 23.9014
vertex 16.3809817354632 29.4283133965403 24.3142284845583
endloop
endfacet
facet normal -0.126525733946701 -0.991963325254139 5.3777464775062e-18
outer loop
vertex 2.17472428472036 31.2403331606082 29.39415
vertex 16.3809817354632 29.4283133965403 24.3142284845583
vertex 16.3809817354632 29.4283133965403 29.39415
endloop
endfacet
facet normal -0.126525733946701 -0.991963325254139 5.3777464775062e-18
outer loop
vertex 7.83244954203639 30.518685673825 3.11489561674272
vertex 6.45568849781053 30.6942926717403 2.07984561674272
vertex 7.83244954203639 30.518685673825 2.07984561674272
endloop
endfacet
facet normal -0.126525733946701 -0.991963325254139 5.3777464775062e-18
outer loop
vertex 6.45568849781053 30.6942926717403 2.07984561674272
vertex 7.83244954203639 30.518685673825 3.11489561674272
vertex 6.45568849781053 30.6942926717403 3.11489561674272
endloop
endfacet
facet normal -0.126525733946701 -0.991963325254139 5.3777464775062e-18
outer loop
vertex 12.1656126271741 29.9659871761086 3.11489561674272
vertex 10.7425723493345 30.1474971281456 2.07984561674272
vertex 12.1656126271741 29.9659871761086 2.07984561674272
endloop
endfacet
facet normal -0.126525733946701 -0.991963325254139 5.3777464775062e-18
outer loop
vertex 10.7425723493345 30.1474971281456 2.07984561674272
vertex 12.1656126271741 29.9659871761086 3.11489561674272
vertex 10.7425723493345 30.1474971281456 3.11489561674272
endloop
endfacet
facet normal -0.163146690344721 0.98660182314324 7.00359951631586e-16
outer loop
vertex 16.496618934795 29.4135637771294 11.690697684299
vertex 17.1140235152786 29.5156591833478 7.95689768429903
vertex 16.496618934795 29.4135637771294 7.95689768429903
endloop
endfacet
facet normal -0.163146690344721 0.98660182314324 7.00359951631586e-16
outer loop
vertex 17.1140235152786 29.5156591833478 7.95689768429903
vertex 16.496618934795 29.4135637771294 11.690697684299
vertex 17.1140235152786 29.5156591833478 11.690697684299
endloop
endfacet
facet normal 0.991963325254139 -0.126525733946701 3.55614941429655e-18
outer loop
vertex -18.8186663566875 2.65979482890863 0.0
vertex -22.022778738007 -22.4604860271621 29.39415
vertex -22.022778738007 -22.4604860271621 0.0
endloop
endfacet
facet normal 0.991963325254139 -0.126525733946701 3.55614941429655e-18
outer loop
vertex -22.022778738007 -22.4604860271621 29.39415
vertex -18.8186663566875 2.65979482890863 0.0
vertex -18.8186663566875 2.65979482890862 10.2252728502436
endloop
endfacet
facet normal 0.991963325254139 -0.126525733946701 3.55614941429655e-18
outer loop
vertex -18.8186663566875 2.65979482890863 29.39415
vertex -22.022778738007 -22.4604860271621 29.39415
vertex -18.8186663566875 2.65979482890862 10.2252728502436
endloop
endfacet
endsolid The Meyer Building
