solid The Kentucky Center
facet normal 0.630740461864502 -0.775993859361628 -2.13058337761256e-15
outer loop
vertex 27.3118427811635 44.7061571904793 12.2670090079093
vertex 13.8206803025134 33.7403203475523 10.7696
vertex 28.0849085095121 45.3345176197117 10.7696
endloop
endfacet
facet normal 0.630740461864502 -0.775993859361628 -2.13058337761256e-15
outer loop
vertex 13.8206803025134 33.7403203475523 10.7696
vertex 27.3118427811635 44.7061571904793 12.2670090079093
vertex 13.8206803025134 33.7403203475523 15.1336375
endloop
endfacet
facet normal 0.630740461864502 -0.775993859361628 -2.13058337761256e-15
outer loop
vertex 13.8206803025134 33.7403203475523 15.1336375
vertex 27.3118427811635 44.7061571904793 12.2670090079093
vertex 26.4289957824306 43.9885647546389 13.6599711248361
endloop
endfacet
facet normal 0.630740461864502 -0.775993859361628 -2.13058337761256e-15
outer loop
vertex 13.8206803025134 33.7403203475523 15.1336375
vertex 26.4289957824306 43.9885647546389 13.6599711248361
vertex 25.4448074454739 43.188600426668 14.9351697672885
endloop
endfacet
facet normal 0.630740461864502 -0.775993859361628 -2.13058337761256e-15
outer loop
vertex 13.8206803025134 33.7403203475523 15.1336375
vertex 25.4448074454739 43.188600426668 14.9351697672885
vertex 24.3686865158732 42.3139117883884 16.080414159233
endloop
endfacet
facet normal 0.630740461864502 -0.775993859361628 -2.13058337761256e-15
outer loop
vertex 13.8206803025134 33.7403203475523 15.1336375
vertex 24.3686865158732 42.3139117883884 16.080414159233
vertex 13.8206803025134 33.7403203475523 19.5532375
endloop
endfacet
facet normal 0.630740461864502 -0.775993859361628 -2.13058337761256e-15
outer loop
vertex 13.8206803025134 33.7403203475523 19.5532375
vertex 24.3686865158732 42.3139117883884 16.080414159233
vertex 23.2109206059279 41.3728607788216 17.0847558747372
endloop
endfacet
facet normal 0.630740461864502 -0.775993859361628 -2.13058337761256e-15
outer loop
vertex 13.8206803025134 33.7403203475523 19.5532375
vertex 23.2109206059279 41.3728607788216 17.0847558747372
vertex 21.9825778460745 40.3744437548581 17.9385935038658
endloop
endfacet
facet normal 0.630740461864502 -0.775993859361628 -2.13058337761256e-15
outer loop
vertex 13.8206803025134 33.7403203475523 19.5532375
vertex 21.9825778460745 40.3744437548581 17.9385935038658
vertex 20.6954010746283 39.3282054869533 18.6337644412339
endloop
endfacet
facet normal 0.630740461864502 -0.775993859361628 -2.13058337761256e-15
outer loop
vertex 13.8206803025134 33.7403203475523 19.5532375
vertex 20.6954010746283 39.3282054869533 18.6337644412339
vertex 19.3616955773809 38.2441479120427 19.1636229197269
endloop
endfacet
facet normal 0.630740461864502 -0.775993859361628 -2.13058337761256e-15
outer loop
vertex 13.8206803025134 33.7403203475523 19.5532375
vertex 19.3616955773809 38.2441479120427 19.1636229197269
vertex 17.9942114502548 37.132634515989 19.5231035433933
endloop
endfacet
facet normal 0.630740461864502 -0.775993859361628 -2.13058337761256e-15
outer loop
vertex 13.8206803025134 33.7403203475523 19.5532375
vertex 17.9942114502548 37.132634515989 19.5231035433933
vertex 16.6060217096167 36.0042912596571 19.7087697121415
endloop
endfacet
facet normal 0.630740461864502 -0.775993859361628 -2.13058337761256e-15
outer loop
vertex 13.8206803025134 33.7403203475523 19.5532375
vertex 16.6060217096167 36.0042912596571 19.7087697121415
vertex 15.2103973155012 34.869904995753 19.7188464753051
endloop
endfacet
facet normal 1.36356147766144e-17 -1.39180721450741e-17 -1.0
outer loop
vertex 28.0849085095121 45.3345176197117 10.7696
vertex 33.7422817980085 -1.87716213875224 10.7696
vertex 21.8394140510601 12.6832634059241 10.7696
endloop
endfacet
facet normal 1.36356147766144e-17 -1.39180721450741e-17 -1.0
outer loop
vertex 33.7422817980085 -1.87716213875224 10.7696
vertex 28.0849085095121 45.3345176197117 10.7696
vertex 32.2164974316958 48.6927404633257 10.7696
endloop
endfacet
facet normal 1.36356147766144e-17 -1.39180721450741e-17 -1.0
outer loop
vertex 33.7422817980085 -1.87716213875224 10.7696
vertex 32.2164974316958 48.6927404633257 10.7696
vertex 48.950831714011 25.9981875021336 10.7696
endloop
endfacet
facet normal 1.36356147766144e-17 -1.39180721450741e-17 -1.0
outer loop
vertex 33.7422817980085 -1.87716213875224 10.7696
vertex 48.950831714011 25.9981875021336 10.7696
vertex 46.9376846297515 8.33092702300743 10.7696
endloop
endfacet
facet normal 0.993570482901269 -0.113215261812788 -0.0
outer loop
vertex -24.0644297226896 47.6307817273577 -3.07975
vertex -24.4135977795755 44.5665033841474 5.133975
vertex -24.4135977795755 44.5665033841474 -3.07975
endloop
endfacet
facet normal 0.993570482901269 -0.113215261812788 -0.0
outer loop
vertex -24.4135977795755 44.5665033841474 5.133975
vertex -24.0644297226896 47.6307817273577 -3.07975
vertex -24.0644297226896 47.6307817273577 5.133975
endloop
endfacet
facet normal 0.113215261812788 0.993570482901269 0.0
outer loop
vertex -44.2276477165555 49.928337908272 5.133975
vertex -24.0644297226896 47.6307817273577 -3.07975
vertex -44.2276477165555 49.928337908272 -3.07975
endloop
endfacet
facet normal 0.113215261812788 0.993570482901269 0.0
outer loop
vertex -24.0644297226896 47.6307817273577 -3.07975
vertex -44.2276477165555 49.928337908272 5.133975
vertex -24.0644297226896 47.6307817273577 5.133975
endloop
endfacet
facet normal 6.14273689173077e-17 -1.02747689555776e-16 1.0
outer loop
vertex -6.08636746565879 -21.7824919517609 -0.765863358125968
vertex 1.66635990523249 -10.0656575005884 -0.765863358125967
vertex -8.88026846401581 -18.1274396208079 -0.765863358125968
endloop
endfacet
facet normal 6.14273689173077e-17 -1.02747689555776e-16 1.0
outer loop
vertex 1.66635990523249 -10.0656575005884 -0.765863358125967
vertex -6.08636746565879 -21.7824919517609 -0.765863358125968
vertex 4.46026090358951 -13.7207098315413 -0.765863358125968
endloop
endfacet
facet normal 0.794477284024922 0.607293870517712 -0.0
outer loop
vertex -8.88026846401581 -18.1274396208079 -0.765863358125968
vertex -6.08636746565879 -21.7824919517609 10.6576737673081
vertex -6.08636746565879 -21.7824919517609 -0.765863358125968
endloop
endfacet
facet normal 0.794477284024922 0.607293870517712 -0.0
outer loop
vertex -6.08636746565879 -21.7824919517609 10.6576737673081
vertex -8.88026846401581 -18.1274396208079 -0.765863358125968
vertex -8.88026846401581 -18.1274396208079 10.6576737673081
endloop
endfacet
facet normal -7.22285997078886e-17 9.44912908077392e-17 -1.0
outer loop
vertex 1.66635990523249 -10.0656575005884 10.6576737673081
vertex -6.08636746565879 -21.7824919517609 10.6576737673081
vertex -8.88026846401581 -18.1274396208079 10.6576737673081
endloop
endfacet
facet normal -7.22285997078886e-17 9.44912908077392e-17 -1.0
outer loop
vertex -6.08636746565879 -21.7824919517609 10.6576737673081
vertex 1.66635990523249 -10.0656575005884 10.6576737673081
vertex 4.46026090358952 -13.7207098315413 10.6576737673081
endloop
endfacet
facet normal 0.769063862907219 0.63917194460507 -0.0
outer loop
vertex 49.4862211843529 -31.14128473118 -4.3703875
vertex 52.3376737925601 -34.5722068426309 8.448675
vertex 52.3376737925601 -34.5722068426309 -4.3703875
endloop
endfacet
facet normal 0.769063862907219 0.63917194460507 -0.0
outer loop
vertex 52.3376737925601 -34.5722068426309 8.448675
vertex 49.4862211843529 -31.14128473118 -4.3703875
vertex 49.4862211843529 -31.14128473118 8.448675
endloop
endfacet
facet normal 0.769063862907219 0.63917194460507 -0.0
outer loop
vertex 46.0737851933608 -27.0353767242545 -4.3703875
vertex 49.4862211843529 -31.14128473118 8.448675
vertex 49.4862211843529 -31.14128473118 -4.3703875
endloop
endfacet
facet normal 0.769063862907219 0.63917194460507 -0.0
outer loop
vertex 49.4862211843529 -31.14128473118 8.448675
vertex 46.0737851933608 -27.0353767242545 -4.3703875
vertex 46.0737851933608 -27.0353767242545 8.448675
endloop
endfacet
facet normal -0.992740607520807 0.120275043875356 7.82539747607192e-17
outer loop
vertex 56.2541574693975 -2.2458633268627 8.448675
vertex 52.3376737925601 -34.5722068426309 -4.3703875
vertex 52.3376737925601 -34.5722068426309 8.448675
endloop
endfacet
facet normal -0.992740607520807 0.120275043875356 7.82539747607192e-17
outer loop
vertex 52.3376737925601 -34.5722068426309 -4.3703875
vertex 56.2541574693975 -2.2458633268627 8.448675
vertex 56.2541574693975 -2.2458633268627 7.6581
endloop
endfacet
facet normal -0.992740607520807 0.120275043875356 7.82539747607192e-17
outer loop
vertex 52.3376737925601 -34.5722068426309 -4.3703875
vertex 56.2541574693975 -2.2458633268627 7.6581
vertex 60.0580055769992 29.150795195007 -4.3703875
endloop
endfacet
facet normal -0.992740607520807 0.120275043875356 7.82539747607192e-17
outer loop
vertex 60.0580055769992 29.150795195007 -4.3703875
vertex 56.2541574693975 -2.2458633268627 7.6581
vertex 60.0580055769992 29.150795195007 7.6581
endloop
endfacet
facet normal -0.607293870517712 0.794477284024922 6.05383154854742e-17
outer loop
vertex -20.8997553693817 -27.3150663423891 -1.07315
vertex -8.88026846401581 -18.1274396208079 -0.765863358125968
vertex 9.06474693068776 -4.4103729724837 -1.07315
endloop
endfacet
facet normal -0.607293870517712 0.794477284024922 6.05383154854742e-17
outer loop
vertex -8.88026846401581 -18.1274396208079 -0.765863358125968
vertex -20.8997553693817 -27.3150663423891 -1.07315
vertex -20.8997553693817 -27.3150663423891 11.9237125
endloop
endfacet
facet normal -0.607293870517712 0.794477284024922 6.05383154854742e-17
outer loop
vertex -8.88026846401581 -18.1274396208079 -0.765863358125968
vertex -20.8997553693817 -27.3150663423891 11.9237125
vertex -8.88026846401581 -18.1274396208079 10.6576737673081
endloop
endfacet
facet normal -0.607293870517712 0.794477284024922 6.05383154854742e-17
outer loop
vertex -8.88026846401581 -18.1274396208079 10.6576737673081
vertex -20.8997553693817 -27.3150663423891 11.9237125
vertex 1.66635990523249 -10.0656575005884 10.6576737673081
endloop
endfacet
facet normal -0.607293870517712 0.794477284024922 6.05383154854742e-17
outer loop
vertex 1.66635990523249 -10.0656575005884 10.6576737673081
vertex -20.8997553693817 -27.3150663423891 11.9237125
vertex -3.77202489344982 -14.222727589521 11.9237125
endloop
endfacet
facet normal -0.607293870517712 0.794477284024922 6.05383154854742e-17
outer loop
vertex 1.66635990523249 -10.0656575005884 10.6576737673081
vertex -3.77202489344982 -14.222727589521 11.9237125
vertex 1.66635990523249 -10.0656575005884 12.9270125
endloop
endfacet
facet normal -0.607293870517712 0.794477284024922 6.05383154854742e-17
outer loop
vertex 1.66635990523249 -10.0656575005884 12.9270125
vertex -3.77202489344982 -14.222727589521 11.9237125
vertex -3.77202489344982 -14.222727589521 17.7911125
endloop
endfacet
facet normal -0.607293870517712 0.794477284024922 6.05383154854742e-17
outer loop
vertex 1.66635990523249 -10.0656575005884 12.9270125
vertex -3.77202489344982 -14.222727589521 17.7911125
vertex 9.06474693068776 -4.4103729724837 12.9270125
endloop
endfacet
facet normal -0.607293870517712 0.794477284024922 6.05383154854742e-17
outer loop
vertex 9.06474693068776 -4.4103729724837 12.9270125
vertex -3.77202489344982 -14.222727589521 17.7911125
vertex 9.06474693068776 -4.4103729724837 17.7911125
endloop
endfacet
facet normal -0.607293870517712 0.794477284024922 6.05383154854742e-17
outer loop
vertex 9.06474693068776 -4.4103729724837 -1.07315
vertex 1.66635990523249 -10.0656575005884 -0.765863358125967
vertex 9.06474693068776 -4.4103729724837 0.0
endloop
endfacet
facet normal -0.607293870517712 0.794477284024922 6.05383154854742e-17
outer loop
vertex 1.66635990523249 -10.0656575005884 -0.765863358125967
vertex 9.06474693068776 -4.4103729724837 -1.07315
vertex -8.88026846401581 -18.1274396208079 -0.765863358125968
endloop
endfacet
facet normal -0.607293870517712 0.794477284024922 6.05383154854742e-17
outer loop
vertex 9.06474693068776 -4.4103729724837 0.0
vertex 1.66635990523249 -10.0656575005884 -0.765863358125967
vertex 1.66635990523249 -10.0656575005884 0.0
endloop
endfacet
facet normal -0.607293870517712 0.794477284024922 1.46182908610766e-16
outer loop
vertex -6.08636746565879 -21.7824919517609 10.6576737673081
vertex 4.46026090358951 -13.7207098315413 -0.765863358125968
vertex -6.08636746565879 -21.7824919517609 -0.765863358125968
endloop
endfacet
facet normal -0.607293870517712 0.794477284024922 1.46182908610766e-16
outer loop
vertex 4.46026090358951 -13.7207098315413 -0.765863358125968
vertex -6.08636746565879 -21.7824919517609 10.6576737673081
vertex 4.46026090358952 -13.7207098315413 10.6576737673081
endloop
endfacet
facet normal -0.794477284024922 -0.607293870517712 3.80737505326791e-16
outer loop
vertex 1.66635990523249 -10.0656575005884 10.6576737673081
vertex 4.46026090358951 -13.7207098315413 -0.765863358125968
vertex 4.46026090358952 -13.7207098315413 10.6576737673081
endloop
endfacet
facet normal -0.794477284024922 -0.607293870517712 3.80737505326791e-16
outer loop
vertex 4.46026090358951 -13.7207098315413 -0.765863358125968
vertex 1.66635990523249 -10.0656575005884 10.6576737673081
vertex 1.66635990523249 -10.0656575005884 -0.765863358125967
endloop
endfacet
facet normal -0.794477284024922 -0.607293870517712 3.80737505326791e-16
outer loop
vertex 1.66635990523249 -10.0656575005884 -0.765863358125967
vertex 1.66635990523249 -10.0656575005884 10.6576737673081
vertex 1.66635990523249 -10.0656575005884 0.0
endloop
endfacet
facet normal 0.0 0.0 -1.0
outer loop
vertex 9.06474693068776 -4.4103729724837 0.0
vertex 11.2137138697674 -10.9866686739762 0.0
vertex 1.66635990523249 -10.0656575005884 0.0
endloop
endfacet
facet normal 0.0 0.0 -1.0
outer loop
vertex 11.2137138697674 -10.9866686739762 0.0
vertex 9.06474693068776 -4.4103729724837 0.0
vertex 12.2918990416739 -1.94355644337992 0.0
endloop
endfacet
facet normal -0.0 -0.0 1.0
outer loop
vertex 11.2137138697674 -10.9866686739762 12.9270125
vertex 9.06474693068776 -4.4103729724837 12.9270125
vertex 1.66635990523249 -10.0656575005884 12.9270125
endloop
endfacet
facet normal -0.0 -0.0 1.0
outer loop
vertex 9.06474693068776 -4.4103729724837 12.9270125
vertex 11.2137138697674 -10.9866686739762 12.9270125
vertex 12.2918990416739 -1.94355644337992 12.9270125
endloop
endfacet
facet normal -0.607293870517712 0.794477284024922 5.63862557098037e-17
outer loop
vertex 1.66635990523249 -10.0656575005884 10.6576737673081
vertex 9.06474693068776 -4.4103729724837 0.0
vertex 1.66635990523249 -10.0656575005884 0.0
endloop
endfacet
facet normal -0.607293870517712 0.794477284024922 5.63862557098037e-17
outer loop
vertex 9.06474693068776 -4.4103729724837 0.0
vertex 1.66635990523249 -10.0656575005884 10.6576737673081
vertex 9.06474693068776 -4.4103729724837 12.9270125
endloop
endfacet
facet normal -0.607293870517712 0.794477284024922 5.63862557098037e-17
outer loop
vertex 9.06474693068776 -4.4103729724837 12.9270125
vertex 1.66635990523249 -10.0656575005884 10.6576737673081
vertex 1.66635990523249 -10.0656575005884 12.9270125
endloop
endfacet
facet normal -0.607293870517713 0.794477284024921 -0.0
outer loop
vertex 9.06474693068776 -4.4103729724837 12.9270125
vertex 12.2918990416739 -1.94355644337992 0.0
vertex 9.06474693068776 -4.4103729724837 0.0
endloop
endfacet
facet normal -0.607293870517713 0.794477284024921 -0.0
outer loop
vertex 12.2918990416739 -1.94355644337992 0.0
vertex 9.06474693068776 -4.4103729724837 12.9270125
vertex 12.2918990416739 -1.94355644337992 12.9270125
endloop
endfacet
facet normal 0.992967324086306 -0.118388738049195 0.0
outer loop
vertex 12.2918990416739 -1.94355644337992 0.0
vertex 11.2137138697674 -10.9866686739762 12.9270125
vertex 11.2137138697674 -10.9866686739762 0.0
endloop
endfacet
facet normal 0.992967324086306 -0.118388738049195 0.0
outer loop
vertex 11.2137138697674 -10.9866686739762 12.9270125
vertex 12.2918990416739 -1.94355644337992 0.0
vertex 12.2918990416739 -1.94355644337992 12.9270125
endloop
endfacet
facet normal -0.0960219329145192 -0.995379218388329 8.01299364056368e-18
outer loop
vertex 11.2137138697674 -10.9866686739762 12.9270125
vertex 1.66635990523249 -10.0656575005884 0.0
vertex 11.2137138697674 -10.9866686739762 0.0
endloop
endfacet
facet normal -0.0960219329145192 -0.995379218388329 8.01299364056368e-18
outer loop
vertex 1.66635990523249 -10.0656575005884 0.0
vertex 11.2137138697674 -10.9866686739762 12.9270125
vertex 1.66635990523249 -10.0656575005884 10.6576737673081
endloop
endfacet
facet normal -0.0960219329145192 -0.995379218388329 8.01299364056368e-18
outer loop
vertex 1.66635990523249 -10.0656575005884 10.6576737673081
vertex 11.2137138697674 -10.9866686739762 12.9270125
vertex 1.66635990523249 -10.0656575005884 12.9270125
endloop
endfacet
facet normal -0.9923191289224 0.123704269832088 3.28915279708584e-17
outer loop
vertex 13.8206803025134 33.7403203475523 15.1336375
vertex 12.3301126841057 21.7834270025938 10.7696
vertex 12.3301126841057 21.7834270025938 15.1336375
endloop
endfacet
facet normal -0.9923191289224 0.123704269832088 3.28915279708584e-17
outer loop
vertex 12.3301126841057 21.7834270025938 10.7696
vertex 13.8206803025134 33.7403203475523 15.1336375
vertex 13.8206803025134 33.7403203475523 10.7696
endloop
endfacet
facet normal -0.9923191289224 0.123704269832088 3.28915279708584e-17
outer loop
vertex 9.06474693068776 -4.4103729724837 17.7911125
vertex 9.06474693068776 -4.4103729724837 0.0
vertex 9.06474693068776 -4.4103729724837 12.9270125
endloop
endfacet
facet normal -0.9923191289224 0.123704269832088 3.28915279708584e-17
outer loop
vertex 9.06474693068776 -4.4103729724837 0.0
vertex 9.06474693068776 -4.4103729724837 17.7911125
vertex 9.06474693068776 -4.4103729724837 -1.07315
endloop
endfacet
facet normal -0.9923191289224 0.123704269832088 3.28915279708584e-17
outer loop
vertex 9.06474693068776 -4.4103729724837 -1.07315
vertex 9.06474693068776 -4.4103729724837 17.7911125
vertex 12.3301126841057 21.7834270025938 17.7911125
endloop
endfacet
facet normal -0.9923191289224 0.123704269832088 3.28915279708584e-17
outer loop
vertex 9.06474693068776 -4.4103729724837 -1.07315
vertex 12.3301126841057 21.7834270025938 17.7911125
vertex 12.3301126841057 21.7834270025938 -1.07315
endloop
endfacet
facet normal -0.9923191289224 0.123704269832088 3.28915279708584e-17
outer loop
vertex 12.3301126841057 21.7834270025938 -1.07315
vertex 12.3301126841057 21.7834270025938 17.7911125
vertex 12.3301126841057 21.7834270025938 15.1336375
endloop
endfacet
facet normal -0.9923191289224 0.123704269832088 3.28915279708584e-17
outer loop
vertex 12.3301126841057 21.7834270025938 -1.07315
vertex 12.3301126841057 21.7834270025938 15.1336375
vertex 12.3301126841057 21.7834270025938 10.7696
endloop
endfacet
facet normal -0.607293870517712 0.794477284024922 -2.41798409547389e-17
outer loop
vertex 9.06474693068776 -4.4103729724837 17.7911125
vertex 12.2918990416739 -1.94355644337992 12.9270125
vertex 9.06474693068776 -4.4103729724837 12.9270125
endloop
endfacet
facet normal -0.607293870517712 0.794477284024922 -2.41798409547389e-17
outer loop
vertex 12.2918990416739 -1.94355644337992 12.9270125
vertex 9.06474693068776 -4.4103729724837 17.7911125
vertex 19.3188323582437 3.4277910041774 13.5981924556793
endloop
endfacet
facet normal -0.607293870517712 0.794477284024922 -2.41798409547389e-17
outer loop
vertex 19.3188323582437 3.4277910041774 13.5981924556793
vertex 9.06474693068776 -4.4103729724837 17.7911125
vertex 18.6724012754934 2.9336627991801 14.8840443049759
endloop
endfacet
facet normal -0.607293870517712 0.794477284024922 -2.41798409547389e-17
outer loop
vertex 18.6724012754934 2.9336627991801 14.8840443049759
vertex 9.06474693068776 -4.4103729724837 17.7911125
vertex 17.9011967695035 2.3441585064575 16.0558715554107
endloop
endfacet
facet normal -0.607293870517712 0.794477284024922 -2.41798409547389e-17
outer loop
vertex 17.9011967695035 2.3441585064575 16.0558715554107
vertex 9.06474693068776 -4.4103729724837 17.7911125
vertex 17.0177644157087 1.66886789177979 17.0946114978677
endloop
endfacet
facet normal -0.607293870517712 0.794477284024922 -2.41798409547389e-17
outer loop
vertex 17.0177644157087 1.66886789177979 17.0946114978677
vertex 9.06474693068776 -4.4103729724837 17.7911125
vertex 16.03647545695 0.918776250591804 17.983366422072
endloop
endfacet
facet normal -0.607293870517712 0.794477284024922 -2.41798409547389e-17
outer loop
vertex 16.03647545695 0.918776250591804 17.983366422072
vertex 9.06474693068776 -4.4103729724837 17.7911125
vertex 9.06474693068776 -4.4103729724837 19.5532375
endloop
endfacet
facet normal -0.607293870517712 0.794477284024922 -2.41798409547389e-17
outer loop
vertex 16.03647545695 0.918776250591804 17.983366422072
vertex 9.06474693068776 -4.4103729724837 19.5532375
vertex 14.9732930191684 0.106085704632043 18.7076785002258
endloop
endfacet
facet normal -0.607293870517712 0.794477284024922 -2.41798409547389e-17
outer loop
vertex 14.9732930191684 0.106085704632043 18.7076785002258
vertex 9.06474693068776 -4.4103729724837 19.5532375
vertex 13.8455124311259 -0.755983296179784 19.2557649798372
endloop
endfacet
facet normal -0.607293870517712 0.794477284024922 -2.41798409547389e-17
outer loop
vertex 13.8455124311259 -0.755983296179784 19.2557649798372
vertex 9.06474693068776 -4.4103729724837 19.5532375
vertex 12.6714798725078 -1.65340703751695 19.6187098597404
endloop
endfacet
facet normal -0.607293870517712 0.794477284024922 -2.41798409547389e-17
outer loop
vertex 12.6714798725078 -1.65340703751695 19.6187098597404
vertex 9.06474693068776 -4.4103729724837 19.5532375
vertex 10.2614948974142 -3.49558570372055 19.7686658247484
endloop
endfacet
facet normal -0.607293870517712 0.794477284024922 -2.41798409547389e-17
outer loop
vertex 12.6714798725078 -1.65340703751695 19.6187098597404
vertex 10.2614948974142 -3.49558570372055 19.7686658247484
vertex 11.4702939272983 -2.57158667153007 19.7906089312149
endloop
endfacet
facet normal -0.607293870517712 0.794477284024922 -2.41798409547389e-17
outer loop
vertex 9.06474693068776 -4.4103729724837 -1.07315
vertex 20.1975117817922 4.09944850628711 -3.4210625
vertex 9.06474693068776 -4.4103729724837 -3.4210625
endloop
endfacet
facet normal -0.607293870517712 0.794477284024922 -2.41798409547389e-17
outer loop
vertex 20.1975117817922 4.09944850628711 -3.4210625
vertex 9.06474693068776 -4.4103729724837 -1.07315
vertex 12.2918990416739 -1.94355644337992 0.0
endloop
endfacet
facet normal -0.607293870517712 0.794477284024922 -2.41798409547389e-17
outer loop
vertex 20.1975117817922 4.09944850628711 -3.4210625
vertex 12.2918990416739 -1.94355644337992 0.0
vertex 20.1975117817922 4.09944850628711 8.448675
endloop
endfacet
facet normal -0.607293870517712 0.794477284024922 -2.41798409547389e-17
outer loop
vertex 12.2918990416739 -1.94355644337992 0.0
vertex 9.06474693068776 -4.4103729724837 -1.07315
vertex 9.06474693068776 -4.4103729724837 0.0
endloop
endfacet
facet normal -0.607293870517712 0.794477284024922 -2.41798409547389e-17
outer loop
vertex 20.1975117817922 4.09944850628711 8.448675
vertex 12.2918990416739 -1.94355644337992 0.0
vertex 12.2918990416739 -1.94355644337992 12.9270125
endloop
endfacet
facet normal -0.607293870517712 0.794477284024922 -2.41798409547389e-17
outer loop
vertex 20.1975117817922 4.09944850628711 8.448675
vertex 12.2918990416739 -1.94355644337992 12.9270125
vertex 20.1975117817922 4.09944850628711 10.7696
endloop
endfacet
facet normal -0.607293870517712 0.794477284024922 -2.41798409547389e-17
outer loop
vertex 20.1975117817922 4.09944850628711 10.7696
vertex 12.2918990416739 -1.94355644337992 12.9270125
vertex 19.8299741949747 3.81850488694482 12.2192336127057
endloop
endfacet
facet normal -0.607293870517712 0.794477284024922 -2.41798409547389e-17
outer loop
vertex 19.8299741949747 3.81850488694482 12.2192336127057
vertex 12.2918990416739 -1.94355644337992 12.9270125
vertex 19.3188323582437 3.4277910041774 13.5981924556793
endloop
endfacet
facet normal 0.0 0.0 -1.0
outer loop
vertex 46.9376846297515 8.33092702300743 8.448675
vertex 45.8673453047506 -1.0623079788949 8.448675
vertex 33.7422817980085 -1.87716213875224 8.448675
endloop
endfacet
facet normal 0.0 0.0 -1.0
outer loop
vertex 33.7422817980085 -1.87716213875224 8.448675
vertex 46.0737851933608 -27.0353767242545 8.448675
vertex 32.7080550249862 -10.9534755071776 8.448675
endloop
endfacet
facet normal 0.0 0.0 -1.0
outer loop
vertex 46.0737851933608 -27.0353767242545 8.448675
vertex 33.7422817980085 -1.87716213875224 8.448675
vertex 45.8673453047506 -1.0623079788949 8.448675
endloop
endfacet
facet normal 0.0 0.0 -1.0
outer loop
vertex 46.0737851933608 -27.0353767242545 8.448675
vertex 45.8673453047506 -1.0623079788949 8.448675
vertex 56.2541574693975 -2.2458633268627 8.448675
endloop
endfacet
facet normal 0.0 0.0 -1.0
outer loop
vertex 46.0737851933608 -27.0353767242545 8.448675
vertex 56.2541574693975 -2.2458633268627 8.448675
vertex 49.4862211843529 -31.14128473118 8.448675
endloop
endfacet
facet normal 0.0 0.0 -1.0
outer loop
vertex 49.4862211843529 -31.14128473118 8.448675
vertex 56.2541574693975 -2.2458633268627 8.448675
vertex 52.3376737925601 -34.5722068426309 8.448675
endloop
endfacet
facet normal 0.113215261812788 0.993570482901269 0.0
outer loop
vertex -20.7591555092217 -12.2870798692941 17.7911125
vertex -3.77202489344982 -14.222727589521 11.9237125
vertex -20.7591555092217 -12.2870798692941 11.9237125
endloop
endfacet
facet normal 0.113215261812788 0.993570482901269 0.0
outer loop
vertex -3.77202489344982 -14.222727589521 11.9237125
vertex -20.7591555092217 -12.2870798692941 17.7911125
vertex -3.77202489344982 -14.222727589521 17.7911125
endloop
endfacet
facet normal -0.113215261812788 -0.993570482901269 0.0
outer loop
vertex -6.64485646948252 36.0723251158653 -1.07315
vertex -15.1384217773685 37.0401489759787 -4.2338625
vertex -6.64485646948252 36.0723251158653 -4.2338625
endloop
endfacet
facet normal -0.113215261812788 -0.993570482901269 0.0
outer loop
vertex -15.1384217773685 37.0401489759787 -4.2338625
vertex -6.64485646948252 36.0723251158653 -1.07315
vertex -15.1384217773685 37.0401489759787 -1.07315
endloop
endfacet
facet normal 0.689847697081185 -0.723954525389396 1.24936129925282e-16
outer loop
vertex -15.1384217773685 37.0401489759787 -1.07315
vertex -26.5054357997859 26.2086558765517 -4.2338625
vertex -15.1384217773685 37.0401489759787 -4.2338625
endloop
endfacet
facet normal 0.689847697081185 -0.723954525389396 1.24936129925282e-16
outer loop
vertex -26.5054357997859 26.2086558765517 -4.2338625
vertex -15.1384217773685 37.0401489759787 -1.07315
vertex -26.5054357997859 26.2086558765517 -3.07975
endloop
endfacet
facet normal 0.689847697081185 -0.723954525389396 1.24936129925282e-16
outer loop
vertex -26.5054357997859 26.2086558765517 -3.07975
vertex -15.1384217773685 37.0401489759787 -1.07315
vertex -26.5054357997859 26.2086558765517 -1.07315
endloop
endfacet
facet normal -0.99357048290127 0.113215261812789 0.0
outer loop
vertex -24.4135977795755 44.5665033841474 -3.07975
vertex -25.6318906041832 33.8748371663696 -4.2338625
vertex -25.6318906041832 33.8748371663696 -3.07975
endloop
endfacet
facet normal -0.99357048290127 0.113215261812789 0.0
outer loop
vertex -25.6318906041832 33.8748371663696 -4.2338625
vertex -24.4135977795755 44.5665033841474 -3.07975
vertex -24.4135977795755 44.5665033841474 -4.2338625
endloop
endfacet
facet normal 0.0 0.0 -1.0
outer loop
vertex -58.7097668611618 -5.99041377388899 11.9237125
vertex -20.8997553693817 -27.3150663423891 11.9237125
vertex -60.6238831407229 -22.7885857319904 11.9237125
endloop
endfacet
facet normal 0.0 0.0 -1.0
outer loop
vertex -20.8997553693817 -27.3150663423891 11.9237125
vertex -58.7097668611618 -5.99041377388899 11.9237125
vertex -50.7034268743709 -6.90271933586571 11.9237125
endloop
endfacet
facet normal 0.0 0.0 -1.0
outer loop
vertex -20.8997553693817 -27.3150663423891 11.9237125
vertex -50.7034268743709 -6.90271933586571 11.9237125
vertex -50.0867117873263 -1.49046398233651 11.9237125
endloop
endfacet
facet normal 0.0 0.0 -1.0
outer loop
vertex -20.8997553693817 -27.3150663423891 11.9237125
vertex -50.0867117873263 -1.49046398233651 11.9237125
vertex -29.9234937934603 -3.78802016325085 11.9237125
endloop
endfacet
facet normal 0.0 0.0 -1.0
outer loop
vertex -20.8997553693817 -27.3150663423891 11.9237125
vertex -29.9234937934603 -3.78802016325085 11.9237125
vertex -29.4937612090068 -0.0167122616714625 11.9237125
endloop
endfacet
facet normal 0.0 0.0 -1.0
outer loop
vertex -20.8997553693817 -27.3150663423891 11.9237125
vertex -29.4937612090068 -0.0167122616714625 11.9237125
vertex -20.7591555092217 -12.2870798692941 11.9237125
endloop
endfacet
facet normal 0.0 0.0 -1.0
outer loop
vertex -20.8997553693817 -27.3150663423891 11.9237125
vertex -20.7591555092217 -12.2870798692941 11.9237125
vertex -3.77202489344982 -14.222727589521 11.9237125
endloop
endfacet
facet normal -0.993570482901269 0.113215261812789 0.0
outer loop
vertex -25.6318906041832 33.8748371663696 5.133975
vertex -26.5054357997859 26.2086558765517 0.0
vertex -26.5054357997859 26.2086558765517 5.133975
endloop
endfacet
facet normal -0.993570482901269 0.113215261812789 0.0
outer loop
vertex -26.5054357997859 26.2086558765517 0.0
vertex -25.6318906041832 33.8748371663696 5.133975
vertex -25.6318906041832 33.8748371663696 0.0
endloop
endfacet
facet normal -0.113215261812788 -0.993570482901269 0.0
outer loop
vertex -30.7378793929675 -10.9350203151224 -1.07315
vertex -50.9010973868334 -8.63746413420809 -3.07975
vertex -30.7378793929675 -10.9350203151224 -3.07975
endloop
endfacet
facet normal -0.113215261812788 -0.993570482901269 0.0
outer loop
vertex -50.9010973868334 -8.63746413420809 -3.07975
vertex -30.7378793929675 -10.9350203151224 -1.07315
vertex -50.9010973868334 -8.63746413420809 -1.07315
endloop
endfacet
facet normal 0.99357048290127 -0.113215261812788 0.0
outer loop
vertex -26.5054357997859 26.2086558765517 -3.07975
vertex -30.7378793929675 -10.9350203151224 -1.07315
vertex -30.7378793929675 -10.9350203151224 -3.07975
endloop
endfacet
facet normal 0.99357048290127 -0.113215261812788 0.0
outer loop
vertex -30.7378793929675 -10.9350203151224 -1.07315
vertex -26.5054357997859 26.2086558765517 -3.07975
vertex -26.5054357997859 26.2086558765517 -1.07315
endloop
endfacet
facet normal -0.9923191289224 0.123704269832088 0.0
outer loop
vertex 13.8206803025134 33.7403203475523 -1.07315
vertex 12.3301126841057 21.7834270025938 -3.4210625
vertex 12.3301126841057 21.7834270025938 -1.07315
endloop
endfacet
facet normal -0.9923191289224 0.123704269832088 0.0
outer loop
vertex 12.3301126841057 21.7834270025938 -3.4210625
vertex 13.8206803025134 33.7403203475523 -1.07315
vertex 13.8206803025134 33.7403203475523 -3.4210625
endloop
endfacet
facet normal -0.9923191289224 0.123704269832088 0.0
outer loop
vertex 12.3301126841057 21.7834270025938 -1.07315
vertex 9.06474693068776 -4.4103729724837 -3.4210625
vertex 9.06474693068776 -4.4103729724837 -1.07315
endloop
endfacet
facet normal -0.9923191289224 0.123704269832088 0.0
outer loop
vertex 9.06474693068776 -4.4103729724837 -3.4210625
vertex 12.3301126841057 21.7834270025938 -1.07315
vertex 12.3301126841057 21.7834270025938 -3.4210625
endloop
endfacet
facet normal -0.993570482901269 0.113215261812789 0.0
outer loop
vertex 24.5706774445289 42.4780933087648 -3.4210625
vertex 20.1975117817922 4.09944850628711 -4.3703875
vertex 20.1975117817922 4.09944850628711 -3.4210625
endloop
endfacet
facet normal -0.993570482901269 0.113215261812789 0.0
outer loop
vertex 20.1975117817922 4.09944850628711 -4.3703875
vertex 24.5706774445289 42.4780933087648 -3.4210625
vertex 24.5706774445289 42.4780933087648 -4.3703875
endloop
endfacet
facet normal 0.0 0.0 -1.0
outer loop
vertex -26.5054357997859 26.2086558765517 17.7911125
vertex -20.7591555092217 -12.2870798692941 17.7911125
vertex -29.4937612090068 -0.0167122616714625 17.7911125
endloop
endfacet
facet normal 0.0 0.0 -1.0
outer loop
vertex -20.7591555092217 -12.2870798692941 17.7911125
vertex -26.5054357997859 26.2086558765517 17.7911125
vertex -15.1384217773685 37.0401489759787 17.7911125
endloop
endfacet
facet normal 0.0 0.0 -1.0
outer loop
vertex -20.7591555092217 -12.2870798692941 17.7911125
vertex -15.1384217773685 37.0401489759787 17.7911125
vertex -3.77202489344982 -14.222727589521 17.7911125
endloop
endfacet
facet normal 0.0 0.0 -1.0
outer loop
vertex -3.77202489344982 -14.222727589521 17.7911125
vertex -15.1384217773685 37.0401489759787 17.7911125
vertex 1.84870883840343 35.1045012557518 17.7911125
endloop
endfacet
facet normal 0.0 0.0 -1.0
outer loop
vertex -3.77202489344982 -14.222727589521 17.7911125
vertex 1.84870883840343 35.1045012557518 17.7911125
vertex 9.06474693068776 -4.4103729724837 17.7911125
endloop
endfacet
facet normal 0.0 0.0 -1.0
outer loop
vertex 9.06474693068776 -4.4103729724837 17.7911125
vertex 1.84870883840343 35.1045012557518 17.7911125
vertex 12.3301126841057 21.7834270025938 17.7911125
endloop
endfacet
facet normal 0.113215261812788 0.993570482901269 -8.10113193079468e-18
outer loop
vertex -60.6238831407229 -22.7885857319904 4.06549578635554
vertex -20.8997553693817 -27.3150663423891 -1.07315
vertex -60.6238831407229 -22.7885857319904 -1.07315
endloop
endfacet
facet normal 0.113215261812788 0.993570482901269 -8.10113193079468e-18
outer loop
vertex -20.8997553693817 -27.3150663423891 -1.07315
vertex -60.6238831407229 -22.7885857319904 4.06549578635554
vertex -20.8997553693817 -27.3150663423891 11.9237125
endloop
endfacet
facet normal 0.113215261812788 0.993570482901269 -8.10113193079468e-18
outer loop
vertex -20.8997553693817 -27.3150663423891 11.9237125
vertex -60.6238831407229 -22.7885857319904 4.06549578635554
vertex -60.6238831407229 -22.7885857319904 11.9237125
endloop
endfacet
facet normal 0.993570482901269 -0.113215261812789 -5.32440596144537e-17
outer loop
vertex -60.6238831407229 -22.7885857319904 -1.07315
vertex -58.7097668611618 -5.99041377388899 4.06549578635554
vertex -60.6238831407229 -22.7885857319904 4.06549578635554
endloop
endfacet
facet normal 0.993570482901269 -0.113215261812789 -5.32440596144537e-17
outer loop
vertex -58.7097668611618 -5.99041377388899 4.06549578635554
vertex -60.6238831407229 -22.7885857319904 -1.07315
vertex -58.7097668611618 -5.99041377388899 -1.07315
endloop
endfacet
facet normal -0.113215261812789 -0.993570482901269 0.0
outer loop
vertex -50.7034268743709 -6.90271933586571 11.9237125
vertex -58.7097668611618 -5.99041377388899 -1.07315
vertex -50.7034268743709 -6.90271933586571 -1.07315
endloop
endfacet
facet normal -0.113215261812789 -0.993570482901269 0.0
outer loop
vertex -58.7097668611618 -5.99041377388899 -1.07315
vertex -50.7034268743709 -6.90271933586571 11.9237125
vertex -58.7097668611618 -5.99041377388899 4.06549578635554
endloop
endfacet
facet normal -0.113215261812789 -0.993570482901269 0.0
outer loop
vertex -58.7097668611618 -5.99041377388899 4.06549578635554
vertex -50.7034268743709 -6.90271933586571 11.9237125
vertex -58.7097668611618 -5.99041377388899 11.9237125
endloop
endfacet
facet normal 0.9923191289224 -0.123704269832088 1.89673591572208e-16
outer loop
vertex 13.8206803025134 33.7403203475523 15.1336375
vertex 12.3301126841057 21.7834270025938 17.7911125
vertex 12.3301126841057 21.7834270025938 15.1336375
endloop
endfacet
facet normal 0.9923191289224 -0.123704269832088 1.89673591572208e-16
outer loop
vertex 12.3301126841057 21.7834270025938 17.7911125
vertex 9.06474693068776 -4.4103729724837 19.5532375
vertex 9.06474693068776 -4.4103729724837 17.7911125
endloop
endfacet
facet normal 0.9923191289224 -0.123704269832088 1.89673591572208e-16
outer loop
vertex 9.06474693068776 -4.4103729724837 19.5532375
vertex 12.3301126841057 21.7834270025938 17.7911125
vertex 13.8206803025134 33.7403203475523 19.5532375
endloop
endfacet
facet normal 0.9923191289224 -0.123704269832088 1.89673591572208e-16
outer loop
vertex 13.8206803025134 33.7403203475523 19.5532375
vertex 12.3301126841057 21.7834270025938 17.7911125
vertex 13.8206803025134 33.7403203475523 15.1336375
endloop
endfacet
facet normal 0.993570482901269 -0.113215261812789 1.6377779915741e-17
outer loop
vertex -58.7097668611618 -5.99041377388899 4.06549578635554
vertex -60.6238831407229 -22.7885857319904 11.9237125
vertex -60.6238831407229 -22.7885857319904 4.06549578635554
endloop
endfacet
facet normal 0.993570482901269 -0.113215261812789 1.6377779915741e-17
outer loop
vertex -60.6238831407229 -22.7885857319904 11.9237125
vertex -58.7097668611618 -5.99041377388899 4.06549578635554
vertex -58.7097668611618 -5.99041377388899 11.9237125
endloop
endfacet
facet normal 0.0 0.0 -1.0
outer loop
vertex 21.8394140510601 12.6832634059241 8.448675
vertex 32.7080550249862 -10.9534755071776 8.448675
vertex 20.1975117817922 4.09944850628711 8.448675
endloop
endfacet
facet normal 0.0 0.0 -1.0
outer loop
vertex 32.7080550249862 -10.9534755071776 8.448675
vertex 21.8394140510601 12.6832634059241 8.448675
vertex 33.7422817980085 -1.87716213875224 8.448675
endloop
endfacet
facet normal -0.982193363581098 0.187872820113101 0.0
outer loop
vertex 21.8394140510601 12.6832634059241 10.7696
vertex 20.1975117817922 4.09944850628711 8.448675
vertex 20.1975117817922 4.09944850628711 10.7696
endloop
endfacet
facet normal -0.982193363581098 0.187872820113101 0.0
outer loop
vertex 20.1975117817922 4.09944850628711 8.448675
vertex 21.8394140510601 12.6832634059241 10.7696
vertex 21.8394140510601 12.6832634059241 8.448675
endloop
endfacet
facet normal 0.77422324449127 0.632912606676001 -0.0
outer loop
vertex 21.8394140510601 12.6832634059241 8.448675
vertex 33.7422817980085 -1.87716213875224 10.7696
vertex 33.7422817980085 -1.87716213875224 8.448675
endloop
endfacet
facet normal 0.77422324449127 0.632912606676001 -0.0
outer loop
vertex 33.7422817980085 -1.87716213875224 10.7696
vertex 21.8394140510601 12.6832634059241 8.448675
vertex 21.8394140510601 12.6832634059241 10.7696
endloop
endfacet
facet normal -0.611884326326047 0.790947261956523 -0.0
outer loop
vertex 33.7422817980085 -1.87716213875224 10.7696
vertex 46.9376846297515 8.33092702300743 8.448675
vertex 33.7422817980085 -1.87716213875224 8.448675
endloop
endfacet
facet normal -0.611884326326047 0.790947261956523 -0.0
outer loop
vertex 46.9376846297515 8.33092702300743 8.448675
vertex 33.7422817980085 -1.87716213875224 10.7696
vertex 46.9376846297515 8.33092702300743 10.7696
endloop
endfacet
facet normal 0.0 0.0 -1.0
outer loop
vertex 55.1724808622374 29.7426987546786 7.6581
vertex 59.3376438786579 24.8146321541658 7.6581
vertex 54.6402718172567 25.3498877972387 7.6581
endloop
endfacet
facet normal 0.0 0.0 -1.0
outer loop
vertex 59.3376438786579 24.8146321541658 7.6581
vertex 55.1724808622374 29.7426987546786 7.6581
vertex 60.0580055769992 29.150795195007 7.6581
endloop
endfacet
facet normal 0.0 0.0 -1.0
outer loop
vertex 60.0580055769992 29.150795195007 7.6581
vertex 56.2541574693975 -2.2458633268627 7.6581
vertex 59.3376438786579 24.8146321541658 7.6581
endloop
endfacet
facet normal -0.0 -0.0 1.0
outer loop
vertex 54.6402718172567 25.3498877972387 7.6581
vertex 48.950831714011 25.9981875021336 7.6581
vertex 54.6353761159936 25.3094790699609 7.6581
endloop
endfacet
facet normal -0.993570482901269 0.113215261812788 -0.0
outer loop
vertex 59.3376438786579 24.8146321541658 12.182475
vertex 56.2541574693975 -2.2458633268627 8.448675
vertex 56.2541574693975 -2.2458633268627 12.182475
endloop
endfacet
facet normal -0.993570482901269 0.113215261812788 -0.0
outer loop
vertex 56.2541574693975 -2.2458633268627 8.448675
vertex 59.3376438786579 24.8146321541658 12.182475
vertex 56.2541574693975 -2.2458633268627 7.6581
endloop
endfacet
facet normal -0.993570482901269 0.113215261812788 -0.0
outer loop
vertex 56.2541574693975 -2.2458633268627 7.6581
vertex 59.3376438786579 24.8146321541658 12.182475
vertex 59.3376438786579 24.8146321541658 7.6581
endloop
endfacet
facet normal 0.113215261812787 0.99357048290127 0.0
outer loop
vertex 45.8673453047506 -1.0623079788949 12.182475
vertex 56.2541574693975 -2.2458633268627 8.448675
vertex 45.8673453047506 -1.0623079788949 8.448675
endloop
endfacet
facet normal 0.113215261812787 0.99357048290127 0.0
outer loop
vertex 56.2541574693975 -2.2458633268627 8.448675
vertex 45.8673453047506 -1.0623079788949 12.182475
vertex 56.2541574693975 -2.2458633268627 12.182475
endloop
endfacet
facet normal 0.993570482901269 -0.113215261812788 9.39072884196923e-17
outer loop
vertex 46.9376846297515 8.33092702300743 8.448675
vertex 45.8673453047506 -1.0623079788949 12.182475
vertex 45.8673453047506 -1.0623079788949 8.448675
endloop
endfacet
facet normal 0.993570482901269 -0.113215261812788 9.39072884196923e-17
outer loop
vertex 45.8673453047506 -1.0623079788949 12.182475
vertex 46.9376846297515 8.33092702300743 8.448675
vertex 46.9376846297515 8.33092702300743 10.7696
endloop
endfacet
facet normal 0.993570482901269 -0.113215261812788 9.39072884196923e-17
outer loop
vertex 45.8673453047506 -1.0623079788949 12.182475
vertex 46.9376846297515 8.33092702300743 10.7696
vertex 48.950831714011 25.9981875021336 12.182475
endloop
endfacet
facet normal 0.993570482901269 -0.113215261812788 9.39072884196923e-17
outer loop
vertex 48.950831714011 25.9981875021336 12.182475
vertex 46.9376846297515 8.33092702300743 10.7696
vertex 48.950831714011 25.9981875021336 10.7696
endloop
endfacet
facet normal 4.28917826489488e-17 -1.63174330360909e-17 -1.0
outer loop
vertex 48.950831714011 25.9981875021336 12.182475
vertex 56.2541574693975 -2.2458633268627 12.182475
vertex 45.8673453047506 -1.0623079788949 12.182475
endloop
endfacet
facet normal 4.28917826489488e-17 -1.63174330360909e-17 -1.0
outer loop
vertex 56.2541574693975 -2.2458633268627 12.182475
vertex 48.950831714011 25.9981875021336 12.182475
vertex 48.9557274152743 26.0385962294115 12.182475
endloop
endfacet
facet normal 4.28917826489488e-17 -1.63174330360909e-17 -1.0
outer loop
vertex 56.2541574693975 -2.2458633268627 12.182475
vertex 48.9557274152743 26.0385962294115 12.182475
vertex 54.6402718172568 25.3498877972387 12.182475
endloop
endfacet
facet normal 4.28917826489488e-17 -1.63174330360909e-17 -1.0
outer loop
vertex 56.2541574693975 -2.2458633268627 12.182475
vertex 54.6402718172568 25.3498877972387 12.182475
vertex 59.3376438786579 24.8146321541658 12.182475
endloop
endfacet
facet normal -0.11321526181279 -0.993570482901269 -1.12459321999483e-15
outer loop
vertex 59.3376438786579 24.8146321541658 12.182475
vertex 54.6402718172567 25.3498877972387 7.6581
vertex 59.3376438786579 24.8146321541658 7.6581
endloop
endfacet
facet normal -0.11321526181279 -0.993570482901269 -1.12459321999483e-15
outer loop
vertex 54.6402718172567 25.3498877972387 7.6581
vertex 59.3376438786579 24.8146321541658 12.182475
vertex 54.6402718172568 25.3498877972387 12.182475
endloop
endfacet
facet normal 4.015970091946e-15 3.52439174690945e-14 1.0
outer loop
vertex 54.6402718172567 25.3498877972387 7.6581
vertex 48.9557274152743 26.0385962294115 7.6581
vertex 48.950831714011 25.9981875021336 7.6581
endloop
endfacet
facet normal 0.992740607520807 -0.120275043875359 -0.0
outer loop
vertex 48.9557274152743 26.0385962294115 10.7696
vertex 48.950831714011 25.9981875021336 12.182475
vertex 48.950831714011 25.9981875021336 10.7696
endloop
endfacet
facet normal 0.992740607520807 -0.120275043875359 -0.0
outer loop
vertex 48.950831714011 25.9981875021336 12.182475
vertex 48.9557274152743 26.0385962294115 10.7696
vertex 48.9557274152743 26.0385962294115 12.182475
endloop
endfacet
facet normal 0.992740607520784 -0.120275043875544 -0.0
outer loop
vertex 48.9557274152743 26.0385962294115 7.6581
vertex 48.950831714011 25.9981875021336 10.7696
vertex 48.950831714011 25.9981875021336 7.6581
endloop
endfacet
facet normal 0.992740607520784 -0.120275043875544 -0.0
outer loop
vertex 48.950831714011 25.9981875021336 10.7696
vertex 48.9557274152743 26.0385962294115 7.6581
vertex 48.9557274152743 26.0385962294115 10.7696
endloop
endfacet
facet normal -0.120275043875358 -0.992740607520807 0.0
outer loop
vertex 54.6353761159936 25.3094790699609 7.6581
vertex 48.950831714011 25.9981875021336 -4.3703875
vertex 54.6353761159936 25.3094790699609 -4.3703875
endloop
endfacet
facet normal -0.120275043875358 -0.992740607520807 0.0
outer loop
vertex 48.950831714011 25.9981875021336 -4.3703875
vertex 54.6353761159936 25.3094790699609 7.6581
vertex 48.950831714011 25.9981875021336 7.6581
endloop
endfacet
facet normal -0.120275043875358 -0.992740607520807 -1.08570298720167e-15
outer loop
vertex 54.6402718172567 25.3498877972387 7.6581
vertex 48.9557274152743 26.0385962294115 10.7696
vertex 48.9557274152743 26.0385962294115 7.6581
endloop
endfacet
facet normal -0.120275043875358 -0.992740607520807 -1.08570298720167e-15
outer loop
vertex 48.9557274152743 26.0385962294115 10.7696
vertex 54.6402718172567 25.3498877972387 7.6581
vertex 54.6402718172568 25.3498877972387 12.182475
endloop
endfacet
facet normal -0.120275043875358 -0.992740607520807 -1.08570298720167e-15
outer loop
vertex 48.9557274152743 26.0385962294115 10.7696
vertex 54.6402718172568 25.3498877972387 12.182475
vertex 48.9557274152743 26.0385962294115 12.182475
endloop
endfacet
facet normal 0.992740607520809 -0.120275043875342 6.49077588959513e-16
outer loop
vertex 55.1724808622374 29.7426987546786 -4.3703875
vertex 54.6353761159936 25.3094790699609 7.6581
vertex 54.6353761159936 25.3094790699609 -4.3703875
endloop
endfacet
facet normal 0.992740607520809 -0.120275043875342 6.49077588959513e-16
outer loop
vertex 54.6353761159936 25.3094790699609 7.6581
vertex 55.1724808622374 29.7426987546786 -4.3703875
vertex 54.6402718172567 25.3498877972387 7.6581
endloop
endfacet
facet normal 0.992740607520809 -0.120275043875342 6.49077588959513e-16
outer loop
vertex 54.6402718172567 25.3498877972387 7.6581
vertex 55.1724808622374 29.7426987546786 -4.3703875
vertex 55.1724808622374 29.7426987546786 7.6581
endloop
endfacet
facet normal -0.993570482901269 0.113215261812789 1.18749695869745e-17
outer loop
vertex -29.9234937934603 -3.78802016325085 24.26335
vertex -29.4937612090068 -0.0167122616714625 17.7911125
vertex -29.9234937934603 -3.78802016325085 11.9237125
endloop
endfacet
facet normal -0.993570482901269 0.113215261812789 1.18749695869745e-17
outer loop
vertex -29.4937612090068 -0.0167122616714625 17.7911125
vertex -29.9234937934603 -3.78802016325085 24.26335
vertex -25.6318906041832 33.8748371663696 24.26335
endloop
endfacet
facet normal -0.993570482901269 0.113215261812789 1.18749695869745e-17
outer loop
vertex -29.4937612090068 -0.0167122616714625 17.7911125
vertex -25.6318906041832 33.8748371663696 24.26335
vertex -26.5054357997859 26.2086558765517 17.7911125
endloop
endfacet
facet normal -0.993570482901269 0.113215261812789 1.18749695869745e-17
outer loop
vertex -26.5054357997859 26.2086558765517 17.7911125
vertex -25.6318906041832 33.8748371663696 24.26335
vertex -26.5054357997859 26.2086558765517 5.133975
endloop
endfacet
facet normal -0.993570482901269 0.113215261812789 1.18749695869745e-17
outer loop
vertex -26.5054357997859 26.2086558765517 5.133975
vertex -25.6318906041832 33.8748371663696 24.26335
vertex -25.6318906041832 33.8748371663696 5.133975
endloop
endfacet
facet normal -0.993570482901269 0.113215261812789 1.18749695869745e-17
outer loop
vertex -29.4937612090068 -0.0167122616714625 11.9237125
vertex -29.9234937934603 -3.78802016325085 11.9237125
vertex -29.4937612090068 -0.0167122616714625 17.7911125
endloop
endfacet
facet normal 0.993570482901269 -0.113215261812788 3.93381580716487e-16
outer loop
vertex -44.2276477165555 49.928337908272 -3.07975
vertex -50.9010973868334 -8.63746413420809 -1.07315
vertex -50.9010973868334 -8.63746413420809 -3.07975
endloop
endfacet
facet normal 0.993570482901269 -0.113215261812788 3.93381580716487e-16
outer loop
vertex -50.9010973868334 -8.63746413420809 -1.07315
vertex -44.2276477165555 49.928337908272 -3.07975
vertex -50.7034268743709 -6.90271933586571 -1.07315
endloop
endfacet
facet normal 0.993570482901269 -0.113215261812788 3.93381580716487e-16
outer loop
vertex -50.7034268743709 -6.90271933586571 -1.07315
vertex -44.2276477165555 49.928337908272 -3.07975
vertex -50.7034268743709 -6.90271933586571 11.9237125
endloop
endfacet
facet normal 0.993570482901269 -0.113215261812788 3.93381580716487e-16
outer loop
vertex -50.7034268743709 -6.90271933586571 11.9237125
vertex -44.2276477165555 49.928337908272 -3.07975
vertex -50.0867117873263 -1.49046398233651 11.9237125
endloop
endfacet
facet normal 0.993570482901269 -0.113215261812788 3.93381580716487e-16
outer loop
vertex -50.0867117873263 -1.49046398233651 11.9237125
vertex -44.2276477165555 49.928337908272 -3.07975
vertex -50.0867117873263 -1.49046398233651 24.26335
endloop
endfacet
facet normal 0.993570482901269 -0.113215261812788 3.93381580716487e-16
outer loop
vertex -50.0867117873263 -1.49046398233651 24.26335
vertex -44.2276477165555 49.928337908272 -3.07975
vertex -45.7951085980492 36.172393347284 5.133975
endloop
endfacet
facet normal 0.993570482901269 -0.113215261812788 3.93381580716487e-16
outer loop
vertex -45.7951085980492 36.172393347284 5.133975
vertex -44.2276477165555 49.928337908272 -3.07975
vertex -44.2276477165555 49.928337908272 5.133975
endloop
endfacet
facet normal 0.993570482901269 -0.113215261812788 3.93381580716487e-16
outer loop
vertex -45.7951085980492 36.172393347284 24.26335
vertex -50.0867117873263 -1.49046398233651 24.26335
vertex -45.7951085980492 36.172393347284 5.133975
endloop
endfacet
facet normal -0.113215261812788 -0.993570482901269 0.0
outer loop
vertex -25.6318906041832 33.8748371663696 24.26335
vertex -45.7951085980492 36.172393347284 5.133975
vertex -25.6318906041832 33.8748371663696 5.133975
endloop
endfacet
facet normal -0.113215261812788 -0.993570482901269 0.0
outer loop
vertex -45.7951085980492 36.172393347284 5.133975
vertex -25.6318906041832 33.8748371663696 24.26335
vertex -45.7951085980492 36.172393347284 24.26335
endloop
endfacet
facet normal -0.858434953488115 0.145046137795419 -0.491986837771592
outer loop
vertex 25.4448074454739 43.188600426668 14.9351697672885
vertex 18.6724012754934 2.9336627991801 14.8840443049759
vertex 17.9011967695035 2.3441585064575 16.0558715554107
endloop
endfacet
facet normal -0.768850055729381 0.124792397546643 -0.627133517936562
outer loop
vertex 25.4448074454739 43.188600426668 14.9351697672885
vertex 17.9011967695035 2.3441585064575 16.0558715554107
vertex 24.3686865158732 42.3139117883884 16.080414159233
endloop
endfacet
facet normal -0.824288638899729 0.139373521318336 -0.548746992097597
outer loop
vertex 26.4289957824306 43.9885647546389 13.6599711248361
vertex 18.6724012754934 2.9336627991801 14.8840443049759
vertex 25.4448074454739 43.188600426668 14.9351697672885
endloop
endfacet
facet normal -0.905253294095327 0.159287701836549 -0.393883106483625
outer loop
vertex 26.4289957824306 43.9885647546389 13.6599711248361
vertex 19.3188323582437 3.4277910041774 13.5981924556793
vertex 18.6724012754934 2.9336627991801 14.8840443049759
endloop
endfacet
facet normal -0.938562798866078 0.172093396810682 -0.29913832144818
outer loop
vertex 27.3118427811635 44.7061571904793 12.2670090079093
vertex 19.8299741949747 3.81850488694482 12.2192336127057
vertex 19.3188323582437 3.4277910041774 13.5981924556793
endloop
endfacet
facet normal -0.868438557194622 0.152952599048163 -0.471614222455318
outer loop
vertex 27.3118427811635 44.7061571904793 12.2670090079093
vertex 19.3188323582437 3.4277910041774 13.5981924556793
vertex 26.4289957824306 43.9885647546389 13.6599711248361
endloop
endfacet
facet normal -0.902908388377214 0.165683038552821 -0.396617665937823
outer loop
vertex 28.0849085095121 45.3345176197117 10.7696
vertex 19.8299741949747 3.81850488694482 12.2192336127057
vertex 27.3118427811635 44.7061571904793 12.2670090079093
endloop
endfacet
facet normal -0.960719005566309 0.183765229540867 -0.207964739211904
outer loop
vertex 19.8299741949747 3.81850488694482 12.2192336127057
vertex 21.8394140510601 12.6832634059241 10.7696
vertex 20.1975117817922 4.09944850628711 10.7696
endloop
endfacet
facet normal -0.960719005566309 0.183765229540867 -0.207964739211904
outer loop
vertex 21.8394140510601 12.6832634059241 10.7696
vertex 19.8299741949747 3.81850488694482 12.2192336127057
vertex 28.0849085095121 45.3345176197117 10.7696
endloop
endfacet
facet normal -0.0 -0.0 1.0
outer loop
vertex -15.1384217773685 37.0401489759787 5.133975
vertex -25.6318906041832 33.8748371663696 5.133975
vertex -26.5054357997859 26.2086558765517 5.133975
endloop
endfacet
facet normal -0.0 -0.0 1.0
outer loop
vertex -25.6318906041832 33.8748371663696 5.133975
vertex -15.1384217773685 37.0401489759787 5.133975
vertex -24.4135977795755 44.5665033841474 5.133975
endloop
endfacet
facet normal -0.0 -0.0 1.0
outer loop
vertex -24.4135977795755 44.5665033841474 5.133975
vertex -15.1384217773685 37.0401489759787 5.133975
vertex -15.135069096375 43.5092346023308 5.133975
endloop
endfacet
facet normal -0.0 -0.0 1.0
outer loop
vertex -15.135069096375 43.5092346023308 5.133975
vertex -15.1384217773685 37.0401489759787 5.133975
vertex -6.64485646948252 36.0723251158653 5.133975
endloop
endfacet
facet normal -0.0 -0.0 1.0
outer loop
vertex -15.135069096375 43.5092346023308 5.133975
vertex -6.64485646948252 36.0723251158653 5.133975
vertex -12.0522077723896 45.3131905532066 5.133975
endloop
endfacet
facet normal -0.0 -0.0 1.0
outer loop
vertex -12.0522077723896 45.3131905532066 5.133975
vertex -6.64485646948252 36.0723251158653 5.133975
vertex -8.33442767673456 52.3170591412064 5.133975
endloop
endfacet
facet normal -0.0 -0.0 1.0
outer loop
vertex -8.33442767673456 52.3170591412064 5.133975
vertex -6.64485646948252 36.0723251158653 5.133975
vertex -5.22176744900005 46.8442831447577 5.133975
endloop
endfacet
facet normal -0.0 -0.0 1.0
outer loop
vertex -5.22176744900005 46.8442831447577 5.133975
vertex -6.64485646948252 36.0723251158653 5.133975
vertex 1.84870883840343 35.1045012557518 5.133975
endloop
endfacet
facet normal -0.0 -0.0 1.0
outer loop
vertex -5.22176744900005 46.8442831447577 5.133975
vertex 1.84870883840343 35.1045012557518 5.133975
vertex 3.31976038112073 48.3274267710389 5.133975
endloop
endfacet
facet normal -0.0 -0.0 1.0
outer loop
vertex 3.31976038112073 48.3274267710389 5.133975
vertex 1.84870883840343 35.1045012557518 5.133975
vertex 13.8206803025134 33.7403203475523 5.133975
endloop
endfacet
facet normal -0.0 -0.0 1.0
outer loop
vertex -8.33442767673456 52.3170591412064 5.133975
vertex -13.1908697651506 47.2591011597659 5.133975
vertex -12.0522077723896 45.3131905532066 5.133975
endloop
endfacet
facet normal -0.0 -0.0 1.0
outer loop
vertex -25.6318906041832 33.8748371663696 5.133975
vertex -44.2276477165555 49.928337908272 5.133975
vertex -45.7951085980492 36.172393347284 5.133975
endloop
endfacet
facet normal -0.0 -0.0 1.0
outer loop
vertex -44.2276477165555 49.928337908272 5.133975
vertex -25.6318906041832 33.8748371663696 5.133975
vertex -24.0644297226896 47.6307817273577 5.133975
endloop
endfacet
facet normal -0.0 -0.0 1.0
outer loop
vertex -24.0644297226896 47.6307817273577 5.133975
vertex -25.6318906041832 33.8748371663696 5.133975
vertex -24.4135977795755 44.5665033841474 5.133975
endloop
endfacet
facet normal 0.0220092431318998 -0.00505113149787852 -0.999745007132995
outer loop
vertex 16.6060217096167 36.0042912596571 19.7087697121415
vertex 11.4702939272983 -2.57158667153007 19.7906089312149
vertex 10.2614948974142 -3.49558570372055 19.7686658247484
endloop
endfacet
facet normal -0.00688668413798639 -0.000410176848820958 -0.999976202385105
outer loop
vertex 16.6060217096167 36.0042912596571 19.7087697121415
vertex 10.2614948974142 -3.49558570372055 19.7686658247484
vertex 15.2103973155012 34.869904995753 19.7188464753051
endloop
endfacet
facet normal 0.113215261812789 0.993570482901269 5.18526934980284e-18
outer loop
vertex -15.1384217773685 37.0401489759787 17.7911125
vertex -6.64485646948252 36.0723251158653 5.133975
vertex -15.1384217773685 37.0401489759787 5.133975
endloop
endfacet
facet normal 0.113215261812789 0.993570482901269 5.18526934980284e-18
outer loop
vertex -6.64485646948252 36.0723251158653 5.133975
vertex -15.1384217773685 37.0401489759787 17.7911125
vertex 1.84870883840343 35.1045012557518 5.133975
endloop
endfacet
facet normal 0.113215261812789 0.993570482901269 5.18526934980284e-18
outer loop
vertex 1.84870883840343 35.1045012557518 5.133975
vertex -15.1384217773685 37.0401489759787 17.7911125
vertex 1.84870883840343 35.1045012557518 15.1336375
endloop
endfacet
facet normal 0.113215261812789 0.993570482901269 5.18526934980284e-18
outer loop
vertex 1.84870883840343 35.1045012557518 15.1336375
vertex -15.1384217773685 37.0401489759787 17.7911125
vertex 1.84870883840343 35.1045012557518 17.7911125
endloop
endfacet
facet normal -0.785892671137988 -0.61836292697056 -0.0
outer loop
vertex 1.84870883840343 35.1045012557518 17.7911125
vertex 12.3301126841057 21.7834270025938 15.1336375
vertex 12.3301126841057 21.7834270025938 17.7911125
endloop
endfacet
facet normal -0.785892671137988 -0.61836292697056 -0.0
outer loop
vertex 12.3301126841057 21.7834270025938 15.1336375
vertex 1.84870883840343 35.1045012557518 17.7911125
vertex 1.84870883840343 35.1045012557518 15.1336375
endloop
endfacet
facet normal -0.155818358691537 0.018949036626543 -0.987603955594347
outer loop
vertex 17.9942114502548 37.132634515989 19.5231035433933
vertex 12.6714798725078 -1.65340703751695 19.6187098597404
vertex 11.4702939272983 -2.57158667153007 19.7906089312149
endloop
endfacet
facet normal -0.146424409049503 0.0173956191106024 -0.989068897938997
outer loop
vertex 17.9942114502548 37.132634515989 19.5231035433933
vertex 11.4702939272983 -2.57158667153007 19.7906089312149
vertex 16.6060217096167 36.0042912596571 19.7087697121415
endloop
endfacet
facet normal -0.281547122815723 0.0362740431150967 -0.958861518380143
outer loop
vertex 19.3616955773809 38.2441479120427 19.1636229197269
vertex 12.6714798725078 -1.65340703751695 19.6187098597404
vertex 17.9942114502548 37.132634515989 19.5231035433933
endloop
endfacet
facet normal -0.325480543431879 0.0438044429600629 -0.944533528586597
outer loop
vertex 19.3616955773809 38.2441479120427 19.1636229197269
vertex 13.8455124311259 -0.755983296179784 19.2557649798372
vertex 12.6714798725078 -1.65340703751695 19.6187098597404
endloop
endfacet
facet normal -0.477681251178316 0.0680382096088329 -0.875894642240688
outer loop
vertex 20.6954010746283 39.3282054869533 18.6337644412339
vertex 14.9732930191684 0.106085704632043 18.7076785002258
vertex 13.8455124311259 -0.755983296179784 19.2557649798372
endloop
endfacet
facet normal -0.407244974136346 0.0554469415791627 -0.911634338816943
outer loop
vertex 20.6954010746283 39.3282054869533 18.6337644412339
vertex 13.8455124311259 -0.755983296179784 19.2557649798372
vertex 19.3616955773809 38.2441479120427 19.1636229197269
endloop
endfacet
facet normal -0.607081765336186 0.0905934230766723 -0.789458397821919
outer loop
vertex 21.9825778460745 40.3744437548581 17.9385935038658
vertex 16.03647545695 0.918776250591804 17.983366422072
vertex 14.9732930191684 0.106085704632043 18.7076785002258
endloop
endfacet
facet normal -0.519938827842844 0.0742501297428732 -0.850970348211132
outer loop
vertex 21.9825778460745 40.3744437548581 17.9385935038658
vertex 14.9732930191684 0.106085704632043 18.7076785002258
vertex 20.6954010746283 39.3282054869533 18.6337644412339
endloop
endfacet
facet normal -0.712407355875504 0.110951578231327 -0.692939756820498
outer loop
vertex 23.2109206059279 41.3728607788216 17.0847558747372
vertex 17.0177644157087 1.66886789177979 17.0946114978677
vertex 16.03647545695 0.918776250591804 17.983366422072
endloop
endfacet
facet normal -0.617784038572609 0.0922159786714592 -0.780921951902098
outer loop
vertex 23.2109206059279 41.3728607788216 17.0847558747372
vertex 16.03647545695 0.918776250591804 17.983366422072
vertex 21.9825778460745 40.3744437548581 17.9385935038658
endloop
endfacet
facet normal -0.689847697081185 0.723954525389396 -0.0
outer loop
vertex -26.5054357997859 26.2086558765517 17.7911125
vertex -15.1384217773685 37.0401489759787 5.133975
vertex -26.5054357997859 26.2086558765517 5.133975
endloop
endfacet
facet normal -0.689847697081185 0.723954525389396 -0.0
outer loop
vertex -15.1384217773685 37.0401489759787 5.133975
vertex -26.5054357997859 26.2086558765517 17.7911125
vertex -15.1384217773685 37.0401489759787 17.7911125
endloop
endfacet
facet normal -0.700486470623062 0.109089057397801 -0.705278868271343
outer loop
vertex 24.3686865158732 42.3139117883884 16.080414159233
vertex 17.0177644157087 1.66886789177979 17.0946114978677
vertex 23.2109206059279 41.3728607788216 17.0847558747372
endloop
endfacet
facet normal 0.814672673651969 0.579921059114732 -0.0
outer loop
vertex -29.4937612090068 -0.0167122616714625 11.9237125
vertex -20.7591555092217 -12.2870798692941 17.7911125
vertex -20.7591555092217 -12.2870798692941 11.9237125
endloop
endfacet
facet normal 0.814672673651969 0.579921059114732 -0.0
outer loop
vertex -20.7591555092217 -12.2870798692941 17.7911125
vertex -29.4937612090068 -0.0167122616714625 11.9237125
vertex -29.4937612090068 -0.0167122616714625 17.7911125
endloop
endfacet
facet normal 0.113215261812788 0.993570482901269 0.0
outer loop
vertex -50.0867117873263 -1.49046398233651 24.26335
vertex -29.9234937934603 -3.78802016325085 11.9237125
vertex -50.0867117873263 -1.49046398233651 11.9237125
endloop
endfacet
facet normal 0.113215261812788 0.993570482901269 0.0
outer loop
vertex -29.9234937934603 -3.78802016325085 11.9237125
vertex -50.0867117873263 -1.49046398233651 24.26335
vertex -29.9234937934603 -3.78802016325085 24.26335
endloop
endfacet
facet normal -0.804852009507765 -0.593475562084331 -6.82206816081534e-17
outer loop
vertex 32.2164974316958 48.6927404633257 10.7696
vertex 48.950831714011 25.9981875021336 7.6581
vertex 48.950831714011 25.9981875021336 10.7696
endloop
endfacet
facet normal -0.804852009507765 -0.593475562084331 -6.82206816081534e-17
outer loop
vertex 48.950831714011 25.9981875021336 7.6581
vertex 32.2164974316958 48.6927404633257 10.7696
vertex 48.950831714011 25.9981875021336 -4.3703875
endloop
endfacet
facet normal -0.804852009507765 -0.593475562084331 -6.82206816081534e-17
outer loop
vertex 48.950831714011 25.9981875021336 -4.3703875
vertex 32.2164974316958 48.6927404633257 10.7696
vertex 32.2164974316958 48.6927404633257 -4.3703875
endloop
endfacet
facet normal 0.811581739598974 0.584238889453195 -0.0
outer loop
vertex 3.31976038112073 48.3274267710389 -4.2338625
vertex 13.8206803025134 33.7403203475523 -3.4210625
vertex 13.8206803025134 33.7403203475523 -4.2338625
endloop
endfacet
facet normal 0.811581739598974 0.584238889453195 -0.0
outer loop
vertex 13.8206803025134 33.7403203475523 -3.4210625
vertex 3.31976038112073 48.3274267710389 -4.2338625
vertex 13.8206803025134 33.7403203475523 -1.07315
endloop
endfacet
facet normal 0.811581739598974 0.584238889453195 -0.0
outer loop
vertex 13.8206803025134 33.7403203475523 -1.07315
vertex 3.31976038112073 48.3274267710389 -4.2338625
vertex 13.8206803025134 33.7403203475523 5.133975
endloop
endfacet
facet normal 0.811581739598974 0.584238889453195 -0.0
outer loop
vertex 13.8206803025134 33.7403203475523 5.133975
vertex 3.31976038112073 48.3274267710389 -4.2338625
vertex 3.31976038112073 48.3274267710389 5.133975
endloop
endfacet
facet normal 0.811581739598974 0.584238889453195 -0.0
outer loop
vertex 3.31976038112073 48.3274267710389 5.133975
vertex 3.31976038112073 48.3274267710389 -4.2338625
vertex 3.31976038112073 48.3274267710389 0.0
endloop
endfacet
facet normal -0.993570482901269 0.113215261812789 0.0
outer loop
vertex -25.6318906041832 33.8748371663696 -3.07975
vertex -26.5054357997859 26.2086558765517 -4.2338625
vertex -26.5054357997859 26.2086558765517 -3.07975
endloop
endfacet
facet normal -0.993570482901269 0.113215261812789 0.0
outer loop
vertex -26.5054357997859 26.2086558765517 -4.2338625
vertex -25.6318906041832 33.8748371663696 -3.07975
vertex -25.6318906041832 33.8748371663696 -4.2338625
endloop
endfacet
facet normal -0.9923191289224 0.123704269832088 -5.17486732451628e-16
outer loop
vertex 13.8206803025134 33.7403203475523 -1.07315
vertex 12.3301126841057 21.7834270025938 -1.07315
vertex 13.8206803025134 33.7403203475523 5.133975
endloop
endfacet
facet normal -0.9923191289224 0.123704269832088 -5.17486732451628e-16
outer loop
vertex 13.8206803025134 33.7403203475523 10.7696
vertex 12.3301126841057 21.7834270025938 -1.07315
vertex 12.3301126841057 21.7834270025938 10.7696
endloop
endfacet
facet normal -0.9923191289224 0.123704269832088 -5.17486732451628e-16
outer loop
vertex 12.3301126841057 21.7834270025938 -1.07315
vertex 13.8206803025134 33.7403203475523 10.7696
vertex 13.8206803025134 33.7403203475523 5.133975
endloop
endfacet
facet normal 0.769063862907219 0.63917194460507 1.45981476359702e-16
outer loop
vertex 20.1975117817922 4.09944850628711 -4.3703875
vertex 46.0737851933608 -27.0353767242545 8.448675
vertex 46.0737851933608 -27.0353767242545 -4.3703875
endloop
endfacet
facet normal 0.769063862907219 0.63917194460507 1.45981476359702e-16
outer loop
vertex 46.0737851933608 -27.0353767242545 8.448675
vertex 20.1975117817922 4.09944850628711 -4.3703875
vertex 32.7080550249862 -10.9534755071776 8.448675
endloop
endfacet
facet normal 0.769063862907219 0.63917194460507 1.45981476359702e-16
outer loop
vertex 32.7080550249862 -10.9534755071776 8.448675
vertex 20.1975117817922 4.09944850628711 -4.3703875
vertex 20.1975117817922 4.09944850628711 8.448675
endloop
endfacet
facet normal 0.769063862907219 0.63917194460507 1.45981476359702e-16
outer loop
vertex 20.1975117817922 4.09944850628711 8.448675
vertex 20.1975117817922 4.09944850628711 -4.3703875
vertex 20.1975117817922 4.09944850628711 -3.4210625
endloop
endfacet
facet normal -0.120275043875356 -0.992740607520807 -0.0
outer loop
vertex 60.0580055769992 29.150795195007 7.6581
vertex 55.1724808622374 29.7426987546786 -4.3703875
vertex 60.0580055769992 29.150795195007 -4.3703875
endloop
endfacet
facet normal -0.120275043875356 -0.992740607520807 -0.0
outer loop
vertex 55.1724808622374 29.7426987546786 -4.3703875
vertex 60.0580055769992 29.150795195007 7.6581
vertex 55.1724808622374 29.7426987546786 7.6581
endloop
endfacet
facet normal -0.13143543767851 0.0163849757343057 0.991189315061681
outer loop
vertex 15.2103973155012 34.869904995753 19.7188464753051
vertex 13.8206803025134 33.7403203475523 19.5532375
vertex 9.06474693068776 -4.4103729724837 19.5532375
endloop
endfacet
facet normal -0.863093284055398 -0.505044535678259 0.0
outer loop
vertex -13.1908697651506 47.2591011597659 5.133975
vertex -12.0522077723896 45.3131905532066 -4.2338625
vertex -12.0522077723896 45.3131905532066 5.133975
endloop
endfacet
facet normal -0.863093284055398 -0.505044535678259 0.0
outer loop
vertex -12.0522077723896 45.3131905532066 -4.2338625
vertex -13.1908697651506 47.2591011597659 5.133975
vertex -13.1908697651506 47.2591011597659 -4.2338625
endloop
endfacet
facet normal 0.0 0.0 -1.0
outer loop
vertex -45.7951085980492 36.172393347284 24.26335
vertex -29.9234937934603 -3.78802016325085 24.26335
vertex -50.0867117873263 -1.49046398233651 24.26335
endloop
endfacet
facet normal 0.0 0.0 -1.0
outer loop
vertex -29.9234937934603 -3.78802016325085 24.26335
vertex -45.7951085980492 36.172393347284 24.26335
vertex -25.6318906041832 33.8748371663696 24.26335
endloop
endfacet
facet normal -0.171079234864391 0.985257273709874 -0.0
outer loop
vertex 3.31976038112073 48.3274267710389 5.133975
vertex 4.36457645702636 48.5088477456508 0.0
vertex 3.31976038112073 48.3274267710389 0.0
endloop
endfacet
facet normal -0.171079234864391 0.985257273709874 -0.0
outer loop
vertex 4.36457645702636 48.5088477456508 0.0
vertex 3.31976038112073 48.3274267710389 5.133975
vertex 4.36457645702636 48.5088477456508 5.133975
endloop
endfacet
facet normal 0.869243053585186 0.494384985404999 0.0
outer loop
vertex -8.33442767673456 52.3170591412064 -4.2338625
vertex -5.22176744900005 46.8442831447577 5.133975
vertex -5.22176744900005 46.8442831447577 -4.2338625
endloop
endfacet
facet normal 0.869243053585186 0.494384985404999 0.0
outer loop
vertex -5.22176744900005 46.8442831447577 5.133975
vertex -8.33442767673456 52.3170591412064 -4.2338625
vertex -8.33442767673456 52.3170591412064 5.133975
endloop
endfacet
facet normal -0.171079234864391 0.985257273709875 0.0
outer loop
vertex -5.22176744900005 46.8442831447577 5.133975
vertex 3.31976038112073 48.3274267710389 -4.2338625
vertex -5.22176744900005 46.8442831447577 -4.2338625
endloop
endfacet
facet normal -0.171079234864391 0.985257273709875 0.0
outer loop
vertex 3.31976038112073 48.3274267710389 -4.2338625
vertex -5.22176744900005 46.8442831447577 5.133975
vertex 3.31976038112073 48.3274267710389 0.0
endloop
endfacet
facet normal -0.171079234864391 0.985257273709875 0.0
outer loop
vertex 3.31976038112073 48.3274267710389 0.0
vertex -5.22176744900005 46.8442831447577 5.133975
vertex 3.31976038112073 48.3274267710389 5.133975
endloop
endfacet
facet normal 0.0 0.0 -1.0
outer loop
vertex 13.8206803025134 33.7403203475523 15.1336375
vertex 12.3301126841057 21.7834270025938 15.1336375
vertex 1.84870883840343 35.1045012557518 15.1336375
endloop
endfacet
facet normal 0.113215261812789 0.993570482901269 0.0
outer loop
vertex 1.84870883840343 35.1045012557518 15.1336375
vertex 13.8206803025134 33.7403203475523 5.133975
vertex 1.84870883840343 35.1045012557518 5.133975
endloop
endfacet
facet normal 0.113215261812789 0.993570482901269 0.0
outer loop
vertex 13.8206803025134 33.7403203475523 5.133975
vertex 1.84870883840343 35.1045012557518 15.1336375
vertex 13.8206803025134 33.7403203475523 10.7696
endloop
endfacet
facet normal 0.113215261812789 0.993570482901269 0.0
outer loop
vertex 13.8206803025134 33.7403203475523 10.7696
vertex 1.84870883840343 35.1045012557518 15.1336375
vertex 13.8206803025134 33.7403203475523 15.1336375
endloop
endfacet
facet normal -0.113215261812789 -0.993570482901269 6.90166454353722e-18
outer loop
vertex 13.8206803025134 33.7403203475523 -3.4210625
vertex 1.84870883840343 35.1045012557518 -4.2338625
vertex 13.8206803025134 33.7403203475523 -4.2338625
endloop
endfacet
facet normal -0.113215261812789 -0.993570482901269 6.90166454353722e-18
outer loop
vertex 1.84870883840343 35.1045012557518 -4.2338625
vertex 13.8206803025134 33.7403203475523 -3.4210625
vertex 1.84870883840343 35.1045012557518 -1.07315
endloop
endfacet
facet normal -0.113215261812789 -0.993570482901269 6.90166454353722e-18
outer loop
vertex 1.84870883840343 35.1045012557518 -1.07315
vertex 13.8206803025134 33.7403203475523 -3.4210625
vertex 13.8206803025134 33.7403203475523 -1.07315
endloop
endfacet
facet normal -0.113215261812789 -0.993570482901269 0.0
outer loop
vertex 1.84870883840343 35.1045012557518 -1.07315
vertex -6.64485646948252 36.0723251158653 -4.2338625
vertex 1.84870883840343 35.1045012557518 -4.2338625
endloop
endfacet
facet normal -0.113215261812789 -0.993570482901269 0.0
outer loop
vertex -6.64485646948252 36.0723251158653 -4.2338625
vertex 1.84870883840343 35.1045012557518 -1.07315
vertex -6.64485646948252 36.0723251158653 -1.07315
endloop
endfacet
facet normal 0.113215261812788 0.993570482901269 -0.0
outer loop
vertex -24.4135977795755 44.5665033841474 -3.07975
vertex -15.135069096375 43.5092346023308 -4.2338625
vertex -24.4135977795755 44.5665033841474 -4.2338625
endloop
endfacet
facet normal 0.113215261812788 0.993570482901269 -0.0
outer loop
vertex -15.135069096375 43.5092346023308 -4.2338625
vertex -24.4135977795755 44.5665033841474 -3.07975
vertex -15.135069096375 43.5092346023308 5.133975
endloop
endfacet
facet normal 0.113215261812788 0.993570482901269 -0.0
outer loop
vertex -15.135069096375 43.5092346023308 5.133975
vertex -24.4135977795755 44.5665033841474 -3.07975
vertex -24.4135977795755 44.5665033841474 5.133975
endloop
endfacet
facet normal -0.505044535678258 0.863093284055398 -0.0
outer loop
vertex -15.135069096375 43.5092346023308 5.133975
vertex -12.0522077723896 45.3131905532066 -4.2338625
vertex -15.135069096375 43.5092346023308 -4.2338625
endloop
endfacet
facet normal -0.505044535678258 0.863093284055398 -0.0
outer loop
vertex -12.0522077723896 45.3131905532066 -4.2338625
vertex -15.135069096375 43.5092346023308 5.133975
vertex -12.0522077723896 45.3131905532066 5.133975
endloop
endfacet
facet normal 0.630740461864503 -0.775993859361628 4.82165195676143e-17
outer loop
vertex 32.2164974316958 48.6927404633257 10.7696
vertex 24.5706774445289 42.4780933087648 -4.3703875
vertex 32.2164974316958 48.6927404633257 -4.3703875
endloop
endfacet
facet normal 0.630740461864503 -0.775993859361628 4.82165195676143e-17
outer loop
vertex 24.5706774445289 42.4780933087648 -4.3703875
vertex 32.2164974316958 48.6927404633257 10.7696
vertex 24.5706774445289 42.4780933087648 -3.4210625
endloop
endfacet
facet normal 0.630740461864503 -0.775993859361628 4.82165195676143e-17
outer loop
vertex 24.5706774445289 42.4780933087648 -3.4210625
vertex 32.2164974316958 48.6927404633257 10.7696
vertex 13.8206803025134 33.7403203475523 -3.4210625
endloop
endfacet
facet normal 0.630740461864503 -0.775993859361628 4.82165195676143e-17
outer loop
vertex 13.8206803025134 33.7403203475523 -3.4210625
vertex 32.2164974316958 48.6927404633257 10.7696
vertex 13.8206803025134 33.7403203475523 -1.07315
endloop
endfacet
facet normal 0.630740461864503 -0.775993859361628 4.82165195676143e-17
outer loop
vertex 13.8206803025134 33.7403203475523 -1.07315
vertex 32.2164974316958 48.6927404633257 10.7696
vertex 13.8206803025134 33.7403203475523 5.133975
endloop
endfacet
facet normal 0.630740461864503 -0.775993859361628 4.82165195676143e-17
outer loop
vertex 13.8206803025134 33.7403203475523 5.133975
vertex 32.2164974316958 48.6927404633257 10.7696
vertex 28.0849085095121 45.3345176197117 10.7696
endloop
endfacet
facet normal 0.630740461864503 -0.775993859361628 4.82165195676143e-17
outer loop
vertex 13.8206803025134 33.7403203475523 10.7696
vertex 13.8206803025134 33.7403203475523 5.133975
vertex 28.0849085095121 45.3345176197117 10.7696
endloop
endfacet
facet normal -0.795218499422827 0.129037757672433 -0.592432945801107
outer loop
vertex 24.3686865158732 42.3139117883884 16.080414159233
vertex 17.9011967695035 2.3441585064575 16.0558715554107
vertex 17.0177644157087 1.66886789177979 17.0946114978677
endloop
endfacet
facet normal -0.196803746785753 0.0266591013776075 0.980080393419248
outer loop
vertex 15.2103973155012 34.869904995753 19.7188464753051
vertex 9.06474693068776 -4.4103729724837 19.5532375
vertex 10.2614948974142 -3.49558570372055 19.7686658247484
endloop
endfacet
facet normal -0.721330148041544 0.692591378466671 0.0
outer loop
vertex -8.33442767673456 52.3170591412064 5.133975
vertex -13.1908697651506 47.2591011597659 -4.2338625
vertex -13.1908697651506 47.2591011597659 5.133975
endloop
endfacet
facet normal -0.721330148041544 0.692591378466671 0.0
outer loop
vertex -13.1908697651506 47.2591011597659 -4.2338625
vertex -8.33442767673456 52.3170591412064 5.133975
vertex -8.33442767673456 52.3170591412064 -4.2338625
endloop
endfacet
endsolid The Kentucky Center
