solid TheOaksOfSecondGOOG
facet normal 0.629708233977664 -0.776831732140708 0.0
outer loop
vertex 5.49264275829947 4.7251626832724 9.72732037500001
vertex 4.93792889404418 4.2755056039194 9.45000000000001
vertex 5.49264275829947 4.7251626832724 9.45000000000001
endloop
endfacet
facet normal 0.629708233977664 -0.776831732140708 0.0
outer loop
vertex 4.93792889404418 4.2755056039194 9.45000000000001
vertex 5.49264275829947 4.7251626832724 9.72732037500001
vertex 4.93792889404418 4.2755056039194 9.72732037500001
endloop
endfacet
facet normal -0.100814798459546 -0.994905209761996 0.0
outer loop
vertex -7.54053730281294 0.557899391447179 9.72732037500001
vertex -10.516288302813 0.859435391447179 0.0
vertex -7.54053730281294 0.557899391447179 0.0
endloop
endfacet
facet normal -0.100814798459546 -0.994905209761996 0.0
outer loop
vertex -10.516288302813 0.859435391447179 0.0
vertex -7.54053730281294 0.557899391447179 9.72732037500001
vertex -10.516288302813 0.859435391447179 9.72732037500001
endloop
endfacet
facet normal 0.0624107060673802 0.998050551709767 -0.0
outer loop
vertex -10.2220963028129 5.53456099144718 9.72732037500001
vertex 4.83647869718705 4.59290899144718 0.0
vertex -10.2220963028129 5.53456099144718 0.0
endloop
endfacet
facet normal 0.0624107060673802 0.998050551709767 -0.0
outer loop
vertex 4.83647869718705 4.59290899144718 0.0
vertex -10.2220963028129 5.53456099144718 9.72732037500001
vertex 4.83647869718705 4.59290899144718 9.72732037500001
endloop
endfacet
facet normal -0.998025952058055 0.0628028583633922 0.0
outer loop
vertex -10.2220963028129 5.53456099144718 9.72732037500001
vertex -10.516288302813 0.859435391447179 0.0
vertex -10.516288302813 0.859435391447179 9.72732037500001
endloop
endfacet
facet normal -0.998025952058055 0.0628028583633922 0.0
outer loop
vertex -10.516288302813 0.859435391447179 0.0
vertex -10.2220963028129 5.53456099144718 9.72732037500001
vertex -10.2220963028129 5.53456099144718 0.0
endloop
endfacet
facet normal -0.0 -0.0 1.0
outer loop
vertex -7.86278230281295 -3.46834600855282 9.72732037500001
vertex -7.52811560741802 -3.17821584309142 9.72732037500001
vertex -7.54053730281294 0.557899391447179 9.72732037500001
endloop
endfacet
facet normal -0.0 -0.0 1.0
outer loop
vertex -7.52811560741802 -3.17821584309142 9.72732037500001
vertex -7.86278230281295 -3.46834600855282 9.72732037500001
vertex -1.73642560281293 -3.85147600855282 9.72732037500001
endloop
endfacet
facet normal -0.0 -0.0 1.0
outer loop
vertex -7.52811560741802 -3.17821584309142 9.72732037500001
vertex -1.73642560281293 -3.85147600855282 9.72732037500001
vertex -1.57718418709228 -3.55037509968015 9.72732037500001
endloop
endfacet
facet normal -0.0 -0.0 1.0
outer loop
vertex -1.57718418709228 -3.55037509968015 9.72732037500001
vertex -1.73642560281293 -3.85147600855282 9.72732037500001
vertex -0.812333052812946 -5.04139300855282 9.72732037500001
endloop
endfacet
facet normal -0.0 -0.0 1.0
outer loop
vertex -1.57718418709228 -3.55037509968015 9.72732037500001
vertex -0.812333052812946 -5.04139300855282 9.72732037500001
vertex -0.653090627651828 -4.74029339949624 9.72732037500001
endloop
endfacet
facet normal -0.0 -0.0 1.0
outer loop
vertex -0.653090627651828 -4.74029339949624 9.72732037500001
vertex -0.812333052812946 -5.04139300855282 9.72732037500001
vertex 2.45804869718705 -5.24594500855282 9.72732037500001
endloop
endfacet
facet normal -0.0 -0.0 1.0
outer loop
vertex -0.653090627651828 -4.74029339949624 9.72732037500001
vertex 2.45804869718705 -5.24594500855282 9.72732037500001
vertex 2.34577352998831 -4.92786283574741 9.72732037500001
endloop
endfacet
facet normal -0.0 -0.0 1.0
outer loop
vertex 2.34577352998831 -4.92786283574741 9.72732037500001
vertex 2.45804869718705 -5.24594500855282 9.72732037500001
vertex 3.37658019234462 -3.98454101093662 9.72732037500001
endloop
endfacet
facet normal -0.0 -0.0 1.0
outer loop
vertex 3.37658019234462 -3.98454101093662 9.72732037500001
vertex 2.45804869718705 -5.24594500855282 9.72732037500001
vertex 3.48720769718705 -4.30413100855282 9.72732037500001
endloop
endfacet
facet normal -0.0 -0.0 1.0
outer loop
vertex 3.37658019234462 -3.98454101093662 9.72732037500001
vertex 3.48720769718705 -4.30413100855282 9.72732037500001
vertex 8.30271075212829 -4.35282135236806 9.72732037500001
endloop
endfacet
facet normal -0.0 -0.0 1.0
outer loop
vertex 8.30271075212829 -4.35282135236806 9.72732037500001
vertex 3.48720769718705 -4.30413100855282 9.72732037500001
vertex 8.59282669718706 -4.68583000855282 9.72732037500001
endloop
endfacet
facet normal -0.0 -0.0 1.0
outer loop
vertex 8.30271075212829 -4.35282135236806 9.72732037500001
vertex 8.59282669718706 -4.68583000855282 9.72732037500001
vertex 8.78026059674498 3.23769566077428 9.72732037500001
endloop
endfacet
facet normal -0.0 -0.0 1.0
outer loop
vertex 8.78026059674498 3.23769566077428 9.72732037500001
vertex 8.59282669718706 -4.68583000855282 9.72732037500001
vertex 9.09775369718706 3.33983899144718 9.72732037500001
endloop
endfacet
facet normal -0.0 -0.0 1.0
outer loop
vertex -10.2220963028129 5.53456099144718 9.72732037500001
vertex -9.93174578372048 5.20534517371047 9.72732037500001
vertex 4.83647869718705 4.59290899144718 9.72732037500001
endloop
endfacet
facet normal -0.0 -0.0 1.0
outer loop
vertex -9.93174578372048 5.20534517371047 9.72732037500001
vertex -10.2220963028129 5.53456099144718 9.72732037500001
vertex -10.1876806055326 1.13818006594022 9.72732037500001
endloop
endfacet
facet normal -0.0 -0.0 1.0
outer loop
vertex 4.83647869718705 4.59290899144718 9.72732037500001
vertex -9.93174578372048 5.20534517371047 9.72732037500001
vertex 4.93792889404418 4.2755056039194 9.72732037500001
endloop
endfacet
facet normal -0.0 -0.0 1.0
outer loop
vertex 4.83647869718705 4.59290899144718 9.72732037500001
vertex 4.93792889404418 4.2755056039194 9.72732037500001
vertex 5.39119369718706 5.04256699144718 9.72732037500001
endloop
endfacet
facet normal -0.0 -0.0 1.0
outer loop
vertex 5.39119369718706 5.04256699144718 9.72732037500001
vertex 4.93792889404418 4.2755056039194 9.72732037500001
vertex 5.49264275829947 4.7251626832724 9.72732037500001
endloop
endfacet
facet normal -0.0 -0.0 1.0
outer loop
vertex 5.39119369718706 5.04256699144718 9.72732037500001
vertex 5.49264275829947 4.7251626832724 9.72732037500001
vertex 7.83040069718706 4.89001699144717 9.72732037500001
endloop
endfacet
facet normal -0.0 -0.0 1.0
outer loop
vertex 7.83040069718706 4.89001699144717 9.72732037500001
vertex 5.49264275829947 4.7251626832724 9.72732037500001
vertex 7.67580312109514 4.58862604929896 9.72732037500001
endloop
endfacet
facet normal -0.0 -0.0 1.0
outer loop
vertex 7.83040069718706 4.89001699144717 9.72732037500001
vertex 7.67580312109514 4.58862604929896 9.72732037500001
vertex 8.78026059674498 3.23769566077428 9.72732037500001
endloop
endfacet
facet normal -0.0 -0.0 1.0
outer loop
vertex 7.83040069718706 4.89001699144717 9.72732037500001
vertex 8.78026059674498 3.23769566077428 9.72732037500001
vertex 9.09775369718706 3.33983899144718 9.72732037500001
endloop
endfacet
facet normal -0.0 -0.0 1.0
outer loop
vertex -10.516288302813 0.859435391447179 9.72732037500001
vertex -10.1876806055326 1.13818006594022 9.72732037500001
vertex -10.2220963028129 5.53456099144718 9.72732037500001
endloop
endfacet
facet normal -0.0 -0.0 1.0
outer loop
vertex -10.1876806055326 1.13818006594022 9.72732037500001
vertex -10.516288302813 0.859435391447179 9.72732037500001
vertex -7.54053730281294 0.557899391447179 9.72732037500001
endloop
endfacet
facet normal -0.0 -0.0 1.0
outer loop
vertex -10.1876806055326 1.13818006594022 9.72732037500001
vertex -7.54053730281294 0.557899391447179 9.72732037500001
vertex -7.20682327087553 0.836126635642078 9.72732037500001
endloop
endfacet
facet normal -0.0 -0.0 1.0
outer loop
vertex -7.20682327087553 0.836126635642078 9.72732037500001
vertex -7.54053730281294 0.557899391447179 9.72732037500001
vertex -7.52811560741802 -3.17821584309142 9.72732037500001
endloop
endfacet
facet normal -0.0624160489814258 -0.998050217589049 0.0
outer loop
vertex -1.73642560281293 -3.85147600855282 9.72732037500001
vertex -7.86278230281295 -3.46834600855282 0.0
vertex -1.73642560281293 -3.85147600855282 0.0
endloop
endfacet
facet normal -0.0624160489814258 -0.998050217589049 0.0
outer loop
vertex -7.86278230281295 -3.46834600855282 0.0
vertex -1.73642560281293 -3.85147600855282 9.72732037500001
vertex -7.86278230281295 -3.46834600855282 9.72732037500001
endloop
endfacet
facet normal 0.675108276122583 -0.737718656068013 0.0
outer loop
vertex 3.48720769718705 -4.30413100855282 9.72732037500001
vertex 2.45804869718705 -5.24594500855282 0.0
vertex 3.48720769718705 -4.30413100855282 0.0
endloop
endfacet
facet normal 0.675108276122583 -0.737718656068013 0.0
outer loop
vertex 2.45804869718705 -5.24594500855282 0.0
vertex 3.48720769718705 -4.30413100855282 9.72732037500001
vertex 2.45804869718705 -5.24594500855282 9.72732037500001
endloop
endfacet
facet normal -0.0745525205619439 -0.997217088540836 0.0
outer loop
vertex 8.59282669718706 -4.68583000855282 9.72732037500001
vertex 3.48720769718705 -4.30413100855282 0.0
vertex 8.59282669718706 -4.68583000855282 0.0
endloop
endfacet
facet normal -0.0745525205619439 -0.997217088540836 0.0
outer loop
vertex 3.48720769718705 -4.30413100855282 0.0
vertex 8.59282669718706 -4.68583000855282 9.72732037500001
vertex 3.48720769718705 -4.30413100855282 9.72732037500001
endloop
endfacet
facet normal 0.0 0.0 -1.0
outer loop
vertex -1.73642560281293 -3.85147600855282 0.0
vertex -7.86278230281295 -3.46834600855282 0.0
vertex -7.54053730281294 0.557899391447179 0.0
endloop
endfacet
facet normal 0.0 0.0 -1.0
outer loop
vertex -10.2220963028129 5.53456099144718 0.0
vertex -7.54053730281294 0.557899391447179 0.0
vertex -10.516288302813 0.859435391447179 0.0
endloop
endfacet
facet normal 0.0 0.0 -1.0
outer loop
vertex -7.54053730281294 0.557899391447179 0.0
vertex -10.2220963028129 5.53456099144718 0.0
vertex 4.83647869718705 4.59290899144718 0.0
endloop
endfacet
facet normal 0.0 0.0 -1.0
outer loop
vertex -7.54053730281294 0.557899391447179 0.0
vertex 4.83647869718705 4.59290899144718 0.0
vertex -1.73642560281293 -3.85147600855282 0.0
endloop
endfacet
facet normal 0.0 0.0 -1.0
outer loop
vertex -1.73642560281293 -3.85147600855282 0.0
vertex 4.83647869718705 4.59290899144718 0.0
vertex -0.812333052812946 -5.04139300855282 0.0
endloop
endfacet
facet normal 0.0 0.0 -1.0
outer loop
vertex -0.812333052812946 -5.04139300855282 0.0
vertex 4.83647869718705 4.59290899144718 0.0
vertex 2.45804869718705 -5.24594500855282 0.0
endloop
endfacet
facet normal 0.0 0.0 -1.0
outer loop
vertex 2.45804869718705 -5.24594500855282 0.0
vertex 4.83647869718705 4.59290899144718 0.0
vertex 3.48720769718705 -4.30413100855282 0.0
endloop
endfacet
facet normal 0.0 0.0 -1.0
outer loop
vertex 3.48720769718705 -4.30413100855282 0.0
vertex 4.83647869718705 4.59290899144718 0.0
vertex 8.59282669718706 -4.68583000855282 0.0
endloop
endfacet
facet normal 0.0 0.0 -1.0
outer loop
vertex 8.59282669718706 -4.68583000855282 0.0
vertex 4.83647869718705 4.59290899144718 0.0
vertex 5.39119369718706 5.04256699144718 0.0
endloop
endfacet
facet normal 0.0 0.0 -1.0
outer loop
vertex 8.59282669718706 -4.68583000855282 0.0
vertex 5.39119369718706 5.04256699144718 0.0
vertex 7.83040069718706 4.89001699144717 0.0
endloop
endfacet
facet normal 0.0 0.0 -1.0
outer loop
vertex 8.59282669718706 -4.68583000855282 0.0
vertex 7.83040069718706 4.89001699144717 0.0
vertex 8.65724460876325 -3.66192588779519 0.0
endloop
endfacet
facet normal 0.0 0.0 -1.0
outer loop
vertex 8.65724460876325 -3.66192588779519 0.0
vertex 7.83040069718706 4.89001699144717 0.0
vertex 9.09775369718706 3.33983899144718 0.0
endloop
endfacet
facet normal 0.0 0.0 -1.0
outer loop
vertex 8.65724460876325 -3.66192588779519 0.0
vertex 9.09775369718706 3.33983899144718 0.0
vertex 8.89747906360769 0.15653146738069 0.0
endloop
endfacet
facet normal 0.0 0.0 -1.0
outer loop
vertex 8.89747906360769 0.15653146738069 0.0
vertex 10.366777137897 -3.76947943022734 8.23838738917131e-16
vertex 8.65724460876325 -3.66192588779519 0.0
endloop
endfacet
facet normal 0.0 0.0 -1.0
outer loop
vertex 10.366777137897 -3.76947943022734 8.23838738917131e-16
vertex 8.89747906360769 0.15653146738069 0.0
vertex 10.6070115927415 0.0489779249485334 8.23838738917131e-16
endloop
endfacet
facet normal 0.100814798459544 0.994905209761996 -0.0
outer loop
vertex -10.1876806055326 1.13818006594022 9.72732037500001
vertex -7.20682327087553 0.836126635642078 9.45000000000001
vertex -10.1876806055326 1.13818006594022 9.45000000000001
endloop
endfacet
facet normal 0.100814798459544 0.994905209761996 -0.0
outer loop
vertex -7.20682327087553 0.836126635642078 9.45000000000001
vertex -10.1876806055326 1.13818006594022 9.72732037500001
vertex -7.20682327087553 0.836126635642078 9.72732037500001
endloop
endfacet
facet normal 0.998025952058055 -0.0628028583633916 -0.0
outer loop
vertex -9.93174578372048 5.20534517371047 9.45000000000001
vertex -10.1876806055326 1.13818006594022 9.72732037500001
vertex -10.1876806055326 1.13818006594022 9.45000000000001
endloop
endfacet
facet normal 0.998025952058055 -0.0628028583633916 -0.0
outer loop
vertex -10.1876806055326 1.13818006594022 9.72732037500001
vertex -9.93174578372048 5.20534517371047 9.45000000000001
vertex -9.93174578372048 5.20534517371047 9.72732037500001
endloop
endfacet
facet normal 0.0745525205619435 0.997217088540836 -0.0
outer loop
vertex 3.37658019234462 -3.98454101093662 9.72732037500001
vertex 8.30271075212829 -4.35282135236806 9.45000000000001
vertex 3.37658019234462 -3.98454101093662 9.45000000000001
endloop
endfacet
facet normal 0.0745525205619435 0.997217088540836 -0.0
outer loop
vertex 8.30271075212829 -4.35282135236806 9.45000000000001
vertex 3.37658019234462 -3.98454101093662 9.72732037500001
vertex 8.30271075212829 -4.35282135236806 9.72732037500001
endloop
endfacet
facet normal -0.0624107060673811 -0.998050551709767 0.0
outer loop
vertex 4.93792889404418 4.2755056039194 9.72732037500001
vertex -9.93174578372048 5.20534517371047 9.45000000000001
vertex 4.93792889404418 4.2755056039194 9.45000000000001
endloop
endfacet
facet normal -0.0624107060673811 -0.998050551709767 0.0
outer loop
vertex -9.93174578372048 5.20534517371047 9.45000000000001
vertex 4.93792889404418 4.2755056039194 9.72732037500001
vertex -9.93174578372048 5.20534517371047 9.72732037500001
endloop
endfacet
facet normal 0.0627898637158389 0.998026769688342 -1.77233770109845e-16
outer loop
vertex 8.89747906360769 0.156531467380692 7.6053796507487
vertex 10.6070115927415 0.0489779249485334 8.23838738917131e-16
vertex 8.89747906360769 0.15653146738069 0.0
endloop
endfacet
facet normal 0.0627898637158389 0.998026769688342 -1.77233770109845e-16
outer loop
vertex 10.6070115927415 0.0489779249485334 8.23838738917131e-16
vertex 8.89747906360769 0.156531467380692 7.6053796507487
vertex 10.6070115927415 0.0489779249485352 7.6053796507487
endloop
endfacet
facet normal -4.80008824353597e-16 3.01992787958722e-17 1.0
outer loop
vertex 10.366777137897 -3.76947943022734 7.6053796507487
vertex 8.89747906360769 0.156531467380692 7.6053796507487
vertex 8.65724460876325 -3.66192588779519 7.6053796507487
endloop
endfacet
facet normal -4.80008824353597e-16 3.01992787958722e-17 1.0
outer loop
vertex 8.89747906360769 0.156531467380692 7.6053796507487
vertex 10.366777137897 -3.76947943022734 7.6053796507487
vertex 10.6070115927415 0.0489779249485352 7.6053796507487
endloop
endfacet
facet normal -0.0624248394397418 -0.998049667812641 0.0
outer loop
vertex 2.45804869718705 -5.24594500855282 9.72732037500001
vertex -0.812333052812946 -5.04139300855282 0.0
vertex 2.45804869718705 -5.24594500855282 0.0
endloop
endfacet
facet normal -0.0624248394397418 -0.998049667812641 0.0
outer loop
vertex -0.812333052812946 -5.04139300855282 0.0
vertex 2.45804869718705 -5.24594500855282 9.72732037500001
vertex -0.812333052812946 -5.04139300855282 9.72732037500001
endloop
endfacet
facet normal 0.0624188655665163 0.998050041441505 -0.0
outer loop
vertex 5.39119369718706 5.04256699144718 9.72732037500001
vertex 7.83040069718706 4.89001699144717 0.0
vertex 5.39119369718706 5.04256699144718 0.0
endloop
endfacet
facet normal 0.0624188655665163 0.998050041441505 -0.0
outer loop
vertex 7.83040069718706 4.89001699144717 0.0
vertex 5.39119369718706 5.04256699144718 9.72732037500001
vertex 7.83040069718706 4.89001699144717 9.72732037500001
endloop
endfacet
facet normal 0.774195758715991 0.632946227720943 -0.0
outer loop
vertex 7.83040069718706 4.89001699144717 0.0
vertex 9.09775369718706 3.33983899144718 9.72732037500001
vertex 9.09775369718706 3.33983899144718 0.0
endloop
endfacet
facet normal 0.774195758715991 0.632946227720943 -0.0
outer loop
vertex 9.09775369718706 3.33983899144718 9.72732037500001
vertex 7.83040069718706 4.89001699144717 0.0
vertex 7.83040069718706 4.89001699144717 9.72732037500001
endloop
endfacet
facet normal -0.774195758715993 -0.63294622772094 0.0
outer loop
vertex 7.67580312109514 4.58862604929896 9.72732037500001
vertex 8.78026059674498 3.23769566077428 9.45000000000001
vertex 8.78026059674498 3.23769566077428 9.72732037500001
endloop
endfacet
facet normal -0.774195758715993 -0.63294622772094 0.0
outer loop
vertex 8.78026059674498 3.23769566077428 9.45000000000001
vertex 7.67580312109514 4.58862604929896 9.72732037500001
vertex 7.67580312109514 4.58862604929896 9.45000000000001
endloop
endfacet
facet normal -0.629708233977662 0.776831732140709 -0.0
outer loop
vertex 4.83647869718705 4.59290899144718 9.72732037500001
vertex 5.39119369718706 5.04256699144718 0.0
vertex 4.83647869718705 4.59290899144718 0.0
endloop
endfacet
facet normal -0.629708233977662 0.776831732140709 -0.0
outer loop
vertex 5.39119369718706 5.04256699144718 0.0
vertex 4.83647869718705 4.59290899144718 9.72732037500001
vertex 5.39119369718706 5.04256699144718 9.72732037500001
endloop
endfacet
facet normal 0.998026769688342 -0.0627898637158389 4.80957864991429e-16
outer loop
vertex 10.6070115927415 0.0489779249485334 8.23838738917131e-16
vertex 10.366777137897 -3.76947943022734 7.6053796507487
vertex 10.366777137897 -3.76947943022734 8.23838738917131e-16
endloop
endfacet
facet normal 0.998026769688342 -0.0627898637158389 4.80957864991429e-16
outer loop
vertex 10.366777137897 -3.76947943022734 7.6053796507487
vertex 10.6070115927415 0.0489779249485334 8.23838738917131e-16
vertex 10.6070115927415 0.0489779249485352 7.6053796507487
endloop
endfacet
facet normal -0.0627898637158389 -0.998026769688342 -0.0
outer loop
vertex 10.366777137897 -3.76947943022734 8.23838738917131e-16
vertex 8.65724460876325 -3.66192588779519 7.6053796507487
vertex 8.65724460876325 -3.66192588779519 0.0
endloop
endfacet
facet normal -0.0627898637158389 -0.998026769688342 -0.0
outer loop
vertex 8.65724460876325 -3.66192588779519 7.6053796507487
vertex 10.366777137897 -3.76947943022734 8.23838738917131e-16
vertex 10.366777137897 -3.76947943022734 7.6053796507487
endloop
endfacet
facet normal -0.998026769688342 0.0627898637158385 0.0
outer loop
vertex 8.78026059674498 3.23769566077428 9.72732037500001
vertex 8.30271075212829 -4.35282135236806 9.45000000000001
vertex 8.30271075212829 -4.35282135236806 9.72732037500001
endloop
endfacet
facet normal -0.998026769688342 0.0627898637158385 0.0
outer loop
vertex 8.30271075212829 -4.35282135236806 9.45000000000001
vertex 8.78026059674498 3.23769566077428 9.72732037500001
vertex 8.78026059674498 3.23769566077428 9.45000000000001
endloop
endfacet
facet normal -0.996812417003255 0.079780983374044 0.0
outer loop
vertex -7.54053730281294 0.557899391447179 9.72732037500001
vertex -7.86278230281295 -3.46834600855282 0.0
vertex -7.86278230281295 -3.46834600855282 9.72732037500001
endloop
endfacet
facet normal -0.996812417003255 0.079780983374044 0.0
outer loop
vertex -7.86278230281295 -3.46834600855282 0.0
vertex -7.54053730281294 0.557899391447179 9.72732037500001
vertex -7.54053730281294 0.557899391447179 0.0
endloop
endfacet
facet normal -0.0 -0.0 1.0
outer loop
vertex -1.57718418709228 -3.55037509968015 9.45000000000001
vertex -7.20682327087553 0.836126635642078 9.45000000000001
vertex -7.52811560741802 -3.17821584309142 9.45000000000001
endloop
endfacet
facet normal -0.0 -0.0 1.0
outer loop
vertex -7.20682327087553 0.836126635642078 9.45000000000001
vertex -9.93174578372048 5.20534517371047 9.45000000000001
vertex -10.1876806055326 1.13818006594022 9.45000000000001
endloop
endfacet
facet normal -0.0 -0.0 1.0
outer loop
vertex -9.93174578372048 5.20534517371047 9.45000000000001
vertex -7.20682327087553 0.836126635642078 9.45000000000001
vertex 4.93792889404418 4.2755056039194 9.45000000000001
endloop
endfacet
facet normal -0.0 -0.0 1.0
outer loop
vertex 4.93792889404418 4.2755056039194 9.45000000000001
vertex -7.20682327087553 0.836126635642078 9.45000000000001
vertex -1.57718418709228 -3.55037509968015 9.45000000000001
endloop
endfacet
facet normal -0.0 -0.0 1.0
outer loop
vertex 4.93792889404418 4.2755056039194 9.45000000000001
vertex -1.57718418709228 -3.55037509968015 9.45000000000001
vertex -0.653090627651828 -4.74029339949624 9.45000000000001
endloop
endfacet
facet normal -0.0 -0.0 1.0
outer loop
vertex 4.93792889404418 4.2755056039194 9.45000000000001
vertex -0.653090627651828 -4.74029339949624 9.45000000000001
vertex 2.34577352998831 -4.92786283574741 9.45000000000001
endloop
endfacet
facet normal -0.0 -0.0 1.0
outer loop
vertex 4.93792889404418 4.2755056039194 9.45000000000001
vertex 2.34577352998831 -4.92786283574741 9.45000000000001
vertex 3.37658019234462 -3.98454101093662 9.45000000000001
endloop
endfacet
facet normal -0.0 -0.0 1.0
outer loop
vertex 4.93792889404418 4.2755056039194 9.45000000000001
vertex 3.37658019234462 -3.98454101093662 9.45000000000001
vertex 8.30271075212829 -4.35282135236806 9.45000000000001
endloop
endfacet
facet normal -0.0 -0.0 1.0
outer loop
vertex 4.93792889404418 4.2755056039194 9.45000000000001
vertex 8.30271075212829 -4.35282135236806 9.45000000000001
vertex 5.49264275829947 4.7251626832724 9.45000000000001
endloop
endfacet
facet normal -0.0 -0.0 1.0
outer loop
vertex 5.49264275829947 4.7251626832724 9.45000000000001
vertex 8.30271075212829 -4.35282135236806 9.45000000000001
vertex 7.67580312109514 4.58862604929896 9.45000000000001
endloop
endfacet
facet normal -0.0 -0.0 1.0
outer loop
vertex 7.67580312109514 4.58862604929896 9.45000000000001
vertex 8.30271075212829 -4.35282135236806 9.45000000000001
vertex 8.78026059674498 3.23769566077428 9.45000000000001
endloop
endfacet
facet normal 0.998026769688342 -0.0627898637158383 1.12711592673355e-16
outer loop
vertex 9.09775369718706 3.33983899144718 0.0
vertex 8.89747906360769 0.156531467380692 7.6053796507487
vertex 8.89747906360769 0.15653146738069 0.0
endloop
endfacet
facet normal 0.998026769688342 -0.0627898637158383 1.12711592673355e-16
outer loop
vertex 8.65724460876325 -3.66192588779519 0.0
vertex 8.59282669718706 -4.68583000855282 9.72732037500001
vertex 8.59282669718706 -4.68583000855282 0.0
endloop
endfacet
facet normal 0.998026769688342 -0.0627898637158383 1.12711592673355e-16
outer loop
vertex 8.59282669718706 -4.68583000855282 9.72732037500001
vertex 8.65724460876325 -3.66192588779519 0.0
vertex 8.65724460876325 -3.66192588779519 7.6053796507487
endloop
endfacet
facet normal 0.998026769688342 -0.0627898637158383 1.12711592673355e-16
outer loop
vertex 8.59282669718706 -4.68583000855282 9.72732037500001
vertex 8.65724460876325 -3.66192588779519 7.6053796507487
vertex 9.09775369718706 3.33983899144718 9.72732037500001
endloop
endfacet
facet normal 0.998026769688342 -0.0627898637158383 1.12711592673355e-16
outer loop
vertex 9.09775369718706 3.33983899144718 9.72732037500001
vertex 8.65724460876325 -3.66192588779519 7.6053796507487
vertex 8.89747906360769 0.156531467380692 7.6053796507487
endloop
endfacet
facet normal 0.998026769688342 -0.0627898637158383 1.12711592673355e-16
outer loop
vertex 9.09775369718706 3.33983899144718 9.72732037500001
vertex 8.89747906360769 0.156531467380692 7.6053796507487
vertex 9.09775369718706 3.33983899144718 0.0
endloop
endfacet
facet normal 0.0624160489814267 0.998050217589049 -0.0
outer loop
vertex -7.52811560741802 -3.17821584309142 9.72732037500001
vertex -1.57718418709228 -3.55037509968015 9.45000000000001
vertex -7.52811560741802 -3.17821584309142 9.45000000000001
endloop
endfacet
facet normal 0.0624160489814267 0.998050217589049 -0.0
outer loop
vertex -1.57718418709228 -3.55037509968015 9.45000000000001
vertex -7.52811560741802 -3.17821584309142 9.72732037500001
vertex -1.57718418709228 -3.55037509968015 9.72732037500001
endloop
endfacet
facet normal -0.0624188655665141 -0.998050041441505 0.0
outer loop
vertex 7.67580312109514 4.58862604929896 9.72732037500001
vertex 5.49264275829947 4.7251626832724 9.45000000000001
vertex 7.67580312109514 4.58862604929896 9.45000000000001
endloop
endfacet
facet normal -0.0624188655665141 -0.998050041441505 0.0
outer loop
vertex 5.49264275829947 4.7251626832724 9.45000000000001
vertex 7.67580312109514 4.58862604929896 9.72732037500001
vertex 5.49264275829947 4.7251626832724 9.72732037500001
endloop
endfacet
facet normal 0.996812417003255 -0.0797809833740422 -0.0
outer loop
vertex -7.20682327087553 0.836126635642078 9.45000000000001
vertex -7.52811560741802 -3.17821584309142 9.72732037500001
vertex -7.52811560741802 -3.17821584309142 9.45000000000001
endloop
endfacet
facet normal 0.996812417003255 -0.0797809833740422 -0.0
outer loop
vertex -7.52811560741802 -3.17821584309142 9.72732037500001
vertex -7.20682327087553 0.836126635642078 9.45000000000001
vertex -7.20682327087553 0.836126635642078 9.72732037500001
endloop
endfacet
facet normal 0.0624248394397435 0.998049667812641 -0.0
outer loop
vertex -0.653090627651828 -4.74029339949624 9.72732037500001
vertex 2.34577352998831 -4.92786283574741 9.45000000000001
vertex -0.653090627651828 -4.74029339949624 9.45000000000001
endloop
endfacet
facet normal 0.0624248394397435 0.998049667812641 -0.0
outer loop
vertex 2.34577352998831 -4.92786283574741 9.45000000000001
vertex -0.653090627651828 -4.74029339949624 9.72732037500001
vertex 2.34577352998831 -4.92786283574741 9.72732037500001
endloop
endfacet
facet normal 0.789801832593411 0.613362099605193 -0.0
outer loop
vertex -1.57718418709228 -3.55037509968015 9.45000000000001
vertex -0.653090627651828 -4.74029339949624 9.72732037500001
vertex -0.653090627651828 -4.74029339949624 9.45000000000001
endloop
endfacet
facet normal 0.789801832593411 0.613362099605193 -0.0
outer loop
vertex -0.653090627651828 -4.74029339949624 9.72732037500001
vertex -1.57718418709228 -3.55037509968015 9.45000000000001
vertex -1.57718418709228 -3.55037509968015 9.72732037500001
endloop
endfacet
facet normal -0.675108276122582 0.737718656068013 -0.0
outer loop
vertex 2.34577352998831 -4.92786283574741 9.72732037500001
vertex 3.37658019234462 -3.98454101093662 9.45000000000001
vertex 2.34577352998831 -4.92786283574741 9.45000000000001
endloop
endfacet
facet normal -0.675108276122582 0.737718656068013 -0.0
outer loop
vertex 3.37658019234462 -3.98454101093662 9.45000000000001
vertex 2.34577352998831 -4.92786283574741 9.72732037500001
vertex 3.37658019234462 -3.98454101093662 9.72732037500001
endloop
endfacet
facet normal -0.789801832593414 -0.613362099605188 0.0
outer loop
vertex -1.73642560281293 -3.85147600855282 9.72732037500001
vertex -0.812333052812946 -5.04139300855282 0.0
vertex -0.812333052812946 -5.04139300855282 9.72732037500001
endloop
endfacet
facet normal -0.789801832593414 -0.613362099605188 0.0
outer loop
vertex -0.812333052812946 -5.04139300855282 0.0
vertex -1.73642560281293 -3.85147600855282 9.72732037500001
vertex -1.73642560281293 -3.85147600855282 0.0
endloop
endfacet
endsolid TheOaksOfSecondGOOG
