solid ThePlazaOfStJamesCtGOOG
facet normal 5.35259795090753e-17 -1.07325741330007e-18 1.0
outer loop
vertex -14.7658353110994 -11.4224490557662 12.312
vertex -12.0869894372695 -8.71266014448223 12.312
vertex -12.7234041110994 12.1638113442338 12.312
endloop
endfacet
facet normal 5.35259795090753e-17 -1.07325741330007e-18 1.0
outer loop
vertex -12.0869894372695 -8.71266014448223 12.312
vertex -14.7658353110994 -11.4224490557662 12.312
vertex 7.24465108890058 -13.3155486557662 12.312
endloop
endfacet
facet normal 5.35259795090753e-17 -1.07325741330007e-18 1.0
outer loop
vertex -12.0869894372695 -8.71266014448223 12.312
vertex 7.24465108890058 -13.3155486557662 12.312
vertex 3.8341291900043 -10.0912477414491 12.312
endloop
endfacet
facet normal 5.35259795090753e-17 -1.07325741330007e-18 1.0
outer loop
vertex 3.8341291900043 -10.0912477414491 12.312
vertex 7.24465108890058 -13.3155486557662 12.312
vertex 7.77675550032456 -7.17034796266829 12.312
endloop
endfacet
facet normal 5.35259795090753e-17 -1.07325741330007e-18 1.0
outer loop
vertex -10.5839949658588 8.64521637211678 12.312
vertex -12.7234041110994 12.1638113442338 12.312
vertex -12.0869894372695 -8.71266014448223 12.312
endloop
endfacet
facet normal 0.854451298272209 0.519531499411669 5.59822166021524e-17
outer loop
vertex -12.7234041110994 12.1638113442338 12.312
vertex -10.5839949658588 8.64521637211678 16.262208
vertex -10.5839949658588 8.64521637211678 12.312
endloop
endfacet
facet normal 0.0655817314356036 0.762494117298118 0.64366276697326
outer loop
vertex -10.5839949658588 8.64521637211678 16.262208
vertex -7.19472497100882 11.6882924617487 12.312
vertex -12.7234041110994 12.1638113442338 12.312
endloop
endfacet
facet normal 1.6088004554608e-16 1.8704917609562e-15 1.0
outer loop
vertex -7.19472497100882 11.6882924617487 12.312
vertex -12.7234041110994 12.1638113442338 12.312
vertex -10.5839949658588 8.64521637211678 12.312
endloop
endfacet
facet normal 0.0 0.0 -1.0
outer loop
vertex -12.7234041110994 12.1638113442338 0.0
vertex 7.24465108890058 -13.3155486557662 0.0
vertex -14.7658353110994 -11.4224490557662 0.0
endloop
endfacet
facet normal 0.0 0.0 -1.0
outer loop
vertex 7.24465108890058 -13.3155486557662 0.0
vertex -12.7234041110994 12.1638113442338 0.0
vertex 9.28695268890058 10.2707117442338 0.0
endloop
endfacet
facet normal 0.0856931126286847 0.996321579836554 3.07844782136977e-17
outer loop
vertex -12.7234041110994 12.1638113442338 12.312
vertex 9.28695268890058 10.2707117442338 0.0
vertex -12.7234041110994 12.1638113442338 0.0
endloop
endfacet
facet normal 0.0856931126286847 0.996321579836554 3.07844782136977e-17
outer loop
vertex 9.28695268890058 10.2707117442338 0.0
vertex -12.7234041110994 12.1638113442338 12.312
vertex 9.28695268890058 10.2707117442338 12.312
endloop
endfacet
facet normal 0.0856931126286847 0.996321579836554 3.07844782136977e-17
outer loop
vertex 9.28695268890058 10.2707117442338 12.312
vertex -12.7234041110994 12.1638113442338 12.312
vertex -7.19472497100882 11.6882924617487 12.312
endloop
endfacet
facet normal 2.18494189615572e-16 1.68582308992666e-16 1.0
outer loop
vertex 3.8341291900043 -10.0912477414491 12.312
vertex -10.5839949658588 8.64521637211678 12.312
vertex -12.0869894372695 -8.71266014448223 12.312
endloop
endfacet
facet normal 2.18494189615572e-16 1.68582308992666e-16 1.0
outer loop
vertex -10.5839949658588 8.64521637211678 12.312
vertex 3.8341291900043 -10.0912477414491 12.312
vertex -7.19472497100882 11.6882924617487 12.312
endloop
endfacet
facet normal 2.18494189615572e-16 1.68582308992666e-16 1.0
outer loop
vertex -7.19472497100882 11.6882924617487 12.312
vertex 3.8341291900043 -10.0912477414491 12.312
vertex 9.28695268890058 10.2707117442338 12.312
endloop
endfacet
facet normal 2.18494189615572e-16 1.68582308992666e-16 1.0
outer loop
vertex 9.28695268890058 10.2707117442338 12.312
vertex 3.8341291900043 -10.0912477414491 12.312
vertex 7.77675550032456 -7.17034796266829 12.312
endloop
endfacet
facet normal 0.66808283000083 -0.744086911763728 -1.05085467181742e-16
outer loop
vertex -10.5839949658588 8.64521637211678 16.262208
vertex -10.5839949658588 8.64521637211678 12.312
vertex -7.19472497100882 11.6882924617487 12.312
endloop
endfacet
facet normal -0.0688314133624164 -0.800281658559456 0.595660560644952
outer loop
vertex -12.0869894372695 -8.71266014448223 16.262208
vertex -14.7658353110994 -11.4224490557662 12.312
vertex 7.24465108890058 -13.3155486557662 12.312
endloop
endfacet
facet normal -0.848081853506211 0.0734388923203321 0.524751273317399
outer loop
vertex -12.7234041110994 12.1638113442338 12.312
vertex -14.7658353110994 -11.4224490557662 12.312
vertex -12.0869894372695 -8.71266014448223 16.262208
endloop
endfacet
facet normal -0.848093103735889 0.0734352064860934 0.524733606550953
outer loop
vertex -12.7234041110994 12.1638113442338 12.312
vertex -12.0869894372695 -8.71266014448223 16.262208
vertex -10.5839949658588 8.64521637211678 16.262208
endloop
endfacet
facet normal 0.729333601158019 -0.0631519857458529 0.681237348446362
outer loop
vertex 7.77675550032456 -7.17034796266829 12.312
vertex 3.8341291900043 -10.0912477414491 16.262208
vertex 7.24465108890058 -13.3155486557662 12.312
endloop
endfacet
facet normal -0.595284904478455 0.803514705839337 0.0
outer loop
vertex 3.8341291900043 -10.0912477414491 16.262208
vertex 7.77675550032456 -7.17034796266829 12.312
vertex 3.8341291900043 -10.0912477414491 12.312
endloop
endfacet
facet normal 0.086265825199681 0.996272155288212 0.0
outer loop
vertex -12.0869894372695 -8.71266014448223 16.262208
vertex 3.8341291900043 -10.0912477414491 12.312
vertex -12.0869894372695 -8.71266014448223 12.312
endloop
endfacet
facet normal 0.086265825199681 0.996272155288212 0.0
outer loop
vertex 3.8341291900043 -10.0912477414491 12.312
vertex -12.0869894372695 -8.71266014448223 16.262208
vertex 3.8341291900043 -10.0912477414491 16.262208
endloop
endfacet
facet normal 0.996272155288212 -0.086265825199681 0.0
outer loop
vertex -10.5839949658588 8.64521637211678 12.312
vertex -12.0869894372695 -8.71266014448223 16.262208
vertex -12.0869894372695 -8.71266014448223 12.312
endloop
endfacet
facet normal 0.996272155288212 -0.086265825199681 0.0
outer loop
vertex -12.0869894372695 -8.71266014448223 16.262208
vertex -10.5839949658588 8.64521637211678 12.312
vertex -10.5839949658588 8.64521637211678 16.262208
endloop
endfacet
facet normal 0.996272155288212 -0.086265825199681 7.42552311661971e-17
outer loop
vertex 9.28695268890058 10.2707117442338 0.0
vertex 7.24465108890058 -13.3155486557662 12.312
vertex 7.24465108890058 -13.3155486557662 0.0
endloop
endfacet
facet normal 0.996272155288212 -0.086265825199681 7.42552311661971e-17
outer loop
vertex 7.24465108890058 -13.3155486557662 12.312
vertex 9.28695268890058 10.2707117442338 0.0
vertex 7.77675550032456 -7.17034796266829 12.312
endloop
endfacet
facet normal 0.996272155288212 -0.086265825199681 7.42552311661971e-17
outer loop
vertex 7.77675550032456 -7.17034796266829 12.312
vertex 9.28695268890058 10.2707117442338 0.0
vertex 9.28695268890058 10.2707117442338 12.312
endloop
endfacet
facet normal -0.996271684794146 0.0862712586985653 0.0
outer loop
vertex -12.7234041110994 12.1638113442338 12.312
vertex -14.7658353110994 -11.4224490557662 0.0
vertex -14.7658353110994 -11.4224490557662 12.312
endloop
endfacet
facet normal -0.996271684794146 0.0862712586985653 0.0
outer loop
vertex -14.7658353110994 -11.4224490557662 0.0
vertex -12.7234041110994 12.1638113442338 12.312
vertex -12.7234041110994 12.1638113442338 0.0
endloop
endfacet
facet normal -0.0693867630268893 -0.801338186811051 0.594173869734296
outer loop
vertex -12.0869894372695 -8.71266014448223 16.262208
vertex 7.24465108890058 -13.3155486557662 12.312
vertex 3.8341291900043 -10.0912477414491 16.262208
endloop
endfacet
facet normal -0.0856926117640346 -0.996321622915541 0.0
outer loop
vertex 7.24465108890058 -13.3155486557662 12.312
vertex -14.7658353110994 -11.4224490557662 0.0
vertex 7.24465108890058 -13.3155486557662 0.0
endloop
endfacet
facet normal -0.0856926117640346 -0.996321622915541 0.0
outer loop
vertex -14.7658353110994 -11.4224490557662 0.0
vertex 7.24465108890058 -13.3155486557662 12.312
vertex -14.7658353110994 -11.4224490557662 12.312
endloop
endfacet
endsolid ThePlazaOfStJamesCtGOOG
