solid UK Main Street
facet normal 0.123637884921926 0.967400478519303 -0.221020332939428
outer loop
vertex 10.4797435410311 34.9480344439305 17.4674006578238
vertex 16.7331188238638 34.1398396199336 17.4222672691085
vertex 10.478613431649 34.9391919410218 17.4222672691085
endloop
endfacet
facet normal 0.125006336490685 0.978107881863219 -0.166368227959021
outer loop
vertex 16.7331188238638 34.1398396199336 17.4222672691085
vertex 10.4797435410311 34.9480344439305 17.4674006578238
vertex 16.7342489332459 34.1486821228423 17.4674006578238
endloop
endfacet
facet normal 0.991931744117731 -0.126773084728407 1.79647738280001e-17
outer loop
vertex 9.53407353281076 -22.1888484989617 18.152385979902
vertex 16.7316597888457 34.1284234494329 17.2848752710318
vertex 16.7316597888457 34.1284234494329 18.152385979902
endloop
endfacet
facet normal 0.991931744117731 -0.126773084728407 1.79647738280001e-17
outer loop
vertex 16.7316597888457 34.1284234494329 17.2848752710318
vertex 9.53407353281076 -22.1888484989617 18.152385979902
vertex 16.7316597888457 34.1284234494329 0.141034131487697
endloop
endfacet
facet normal 0.991931744117731 -0.126773084728407 1.79647738280001e-17
outer loop
vertex 16.7316597888457 34.1284234494329 0.141034131487697
vertex 9.53407353281076 -22.1888484989617 18.152385979902
vertex 9.53407353281076 -22.1888484989617 0.141034131487697
endloop
endfacet
facet normal 0.119755335658287 0.937021602191137 -0.328099339542958
outer loop
vertex 10.4829498695922 34.9731222540806 17.5558297939023
vertex 16.7356959093962 34.1600039391376 17.5119676020497
vertex 10.4811905171814 34.9593562602258 17.5119676020497
endloop
endfacet
facet normal 0.121885738789703 0.953690869948935 -0.274986529225945
outer loop
vertex 16.7356959093962 34.1600039391376 17.5119676020497
vertex 10.4829498695922 34.9731222540806 17.5558297939023
vertex 16.737455261807 34.1737699329924 17.5558297939023
endloop
endfacet
facet normal -3.04049376839496e-16 3.88588001546203e-17 -1.0
outer loop
vertex -4.14875140776853 36.7970285762371 2.62852218622334
vertex 9.96000507104212 35.7236577653778 2.62852218622334
vertex 9.86823403500723 35.0055983758109 2.62852218622334
endloop
endfacet
facet normal -3.04049376839496e-16 3.88588001546203e-17 -1.0
outer loop
vertex 9.96000507104212 35.7236577653778 2.62852218622334
vertex -4.14875140776853 36.7970285762371 2.62852218622334
vertex -4.05698037173363 37.5150879658039 2.62852218622334
endloop
endfacet
facet normal 0.0 0.0 -1.0
outer loop
vertex 9.53407353281076 -22.1888484989617 0.141034131487697
vertex -4.14875140776853 36.7970285762371 0.141034131487697
vertex 16.7316597888457 34.1284234494329 0.141034131487697
endloop
endfacet
facet normal 0.0 0.0 -1.0
outer loop
vertex -4.14875140776853 36.7970285762371 0.141034131487697
vertex 9.53407353281076 -22.1888484989617 0.141034131487697
vertex -11.3463376638035 -19.5202433721576 0.141034131487697
endloop
endfacet
facet normal 0.124733048162125 0.975969546514091 -0.178675994395621
outer loop
vertex -4.05698037173363 37.5150879658039 2.62852218622334
vertex 9.96312553791064 35.7480737535979 2.76406633907366
vertex 9.96000507104212 35.7236577653778 2.62852218622334
endloop
endfacet
facet normal 0.125895524688325 0.98506530505464 -0.117459191386031
outer loop
vertex 9.96312553791064 35.7480737535979 2.76406633907366
vertex -4.05698037173363 37.5150879658039 2.62852218622334
vertex -4.05385990486512 37.539503954024 2.76406633907367
endloop
endfacet
facet normal 0.125895524688325 0.98506530505464 -0.117459191386031
outer loop
vertex -4.05385990486512 37.539503954024 2.76406633907367
vertex 9.96409991687077 35.7556977490494 2.90161276921691
vertex 9.96312553791064 35.7480737535979 2.76406633907366
endloop
endfacet
facet normal 0.126770735135341 0.99191335980568 0.00608829633426154
outer loop
vertex 9.96409991687077 35.7556977490494 2.90161276921691
vertex -4.05385990486512 37.539503954024 2.76406633907367
vertex -4.05288552590499 37.5471279494756 2.90161276921691
endloop
endfacet
facet normal 0.111170748327437 0.869851786911645 0.480623484156711
outer loop
vertex -4.07025311900868 37.4112358004806 3.4299166810706
vertex 9.93740706914711 35.5468404584446 3.54639510354566
vertex 9.94673232376708 35.6198056000544 3.4299166810706
endloop
endfacet
facet normal 0.102794581970742 0.804312754545145 0.585247184353297
outer loop
vertex 9.93740706914711 35.5468404584446 3.54639510354566
vertex -4.07025311900868 37.4112358004806 3.4299166810706
vertex -4.07957837362865 37.3382706588707 3.54639510354566
endloop
endfacet
facet normal 0.122714271130895 0.96017369342854 0.251013318588095
outer loop
vertex -4.05740162051048 37.511791918896 3.17428980284497
vertex 9.95416249753058 35.6779427451441 3.30524527278137
vertex 9.95958382226527 35.7203617184698 3.17428980284497
endloop
endfacet
facet normal 0.117844707810421 0.922071958758929 0.368640648479721
outer loop
vertex 9.95416249753058 35.6779427451441 3.30524527278137
vertex -4.05740162051048 37.511791918896 3.17428980284497
vertex -4.06282294524519 37.4693729455702 3.30524527278137
endloop
endfacet
facet normal 0.0814727399537851 0.637480717721294 0.766146544192407
outer loop
vertex -4.1033161550083 37.1525351856363 3.74779184272825
vertex 9.89962022545537 35.25117856895 3.82962644434941
vertex 9.91366928776745 35.3611049852102 3.74779184272825
endloop
endfacet
facet normal 0.068853536738723 0.538742185947699 0.839652337315192
outer loop
vertex 9.89962022545537 35.25117856895 3.82962644434941
vertex -4.1033161550083 37.1525351856363 3.74779184272825
vertex -4.11736521732039 37.0426087693761 3.82962644434941
endloop
endfacet
facet normal 0.0551800727106399 0.431754625847189 0.900301673126959
outer loop
vertex 9.88439744594395 35.1320684418799 3.89714784672996
vertex -4.14875140776853 36.7970285762371 3.94932218622334
vertex 9.86823403500723 35.0055983758109 3.94932218622334
endloop
endfacet
facet normal 0.0480128745062226 0.375675124188176 0.925506869206193
outer loop
vertex -4.14875140776853 36.7970285762371 3.94932218622334
vertex 9.88439744594395 35.1320684418799 3.89714784672996
vertex -4.1325879968318 36.923498642306 3.89714784672996
endloop
endfacet
facet normal 0.117844707810421 0.922071958758929 0.368640648479721
outer loop
vertex -4.06282294524519 37.4693729455702 3.30524527278137
vertex 9.94673232376708 35.6198056000544 3.4299166810706
vertex 9.95416249753058 35.6779427451441 3.30524527278137
endloop
endfacet
facet normal 0.111170748327437 0.869851786911645 0.480623484156711
outer loop
vertex 9.94673232376708 35.6198056000544 3.4299166810706
vertex -4.06282294524519 37.4693729455702 3.30524527278137
vertex -4.07025311900868 37.4112358004806 3.4299166810706
endloop
endfacet
facet normal 0.126770735135341 0.99191335980568 0.00608829633426115
outer loop
vertex -4.05288552590499 37.5471279494756 2.90161276921691
vertex 9.96291328857916 35.7464130158315 3.0390554147405
vertex 9.96409991687077 35.7556977490494 2.90161276921691
endloop
endfacet
facet normal 0.125704877270959 0.983573590739851 0.129542562231141
outer loop
vertex 9.96291328857916 35.7464130158315 3.0390554147405
vertex -4.05288552590499 37.5471279494756 2.90161276921691
vertex -4.0540721541966 37.5378432162577 3.0390554147405
endloop
endfacet
facet normal -0.147644904556884 -0.989040435047217 6.3997439310345e-16
outer loop
vertex 5.49344555752254 36.5011263212612 5.27507385253534
vertex 2.10682402101064 37.006684431739 0.0
vertex 5.49344555752254 36.5011263212612 0.0
endloop
endfacet
facet normal -0.147644904556884 -0.989040435047217 6.3997439310345e-16
outer loop
vertex 2.10682402101064 37.006684431739 0.0
vertex 5.49344555752254 36.5011263212612 5.27507385253534
vertex -0.787298529240336 37.4387218212794 0.0
endloop
endfacet
facet normal -0.147644904556884 -0.989040435047217 6.3997439310345e-16
outer loop
vertex -0.787298529240336 37.4387218212794 0.0
vertex 5.49344555752254 36.5011263212612 5.27507385253534
vertex -0.787298529240336 37.4387218212794 5.27507385253534
endloop
endfacet
facet normal -0.147644904556884 -0.989040435047217 6.3997439310345e-16
outer loop
vertex -0.787298529240336 37.4387218212794 5.27507385253534
vertex 5.49344555752254 36.5011263212612 5.27507385253534
vertex 2.10682402101062 37.006684431739 5.27507385253534
endloop
endfacet
facet normal 0.0928444616140683 0.726458371962899 0.680909788263179
outer loop
vertex -4.09065592413015 37.251594736982 3.65289706411811
vertex 9.91366928776745 35.3611049852102 3.74779184272825
vertex 9.9263295186456 35.4601645365558 3.65289706411811
endloop
endfacet
facet normal 0.0814727399537851 0.637480717721294 0.766146544192406
outer loop
vertex 9.91366928776745 35.3611049852102 3.74779184272825
vertex -4.09065592413015 37.251594736982 3.65289706411811
vertex -4.1033161550083 37.1525351856363 3.74779184272825
endloop
endfacet
facet normal 0.125704877270959 0.983573590739851 0.129542562231141
outer loop
vertex -4.0540721541966 37.5378432162577 3.0390554147405
vertex 9.95958382226527 35.7203617184698 3.17428980284497
vertex 9.96291328857916 35.7464130158315 3.0390554147405
endloop
endfacet
facet normal 0.122714271130895 0.96017369342854 0.251013318588095
outer loop
vertex 9.95958382226527 35.7203617184698 3.17428980284497
vertex -4.0540721541966 37.5378432162577 3.0390554147405
vertex -4.05740162051048 37.511791918896 3.17428980284497
endloop
endfacet
facet normal 0.102794581970742 0.804312754545145 0.585247184353296
outer loop
vertex -4.07957837362865 37.3382706588707 3.54639510354566
vertex 9.9263295186456 35.4601645365558 3.65289706411811
vertex 9.93740706914711 35.5468404584446 3.54639510354566
endloop
endfacet
facet normal 0.0928444616140682 0.726458371962899 0.68090978826318
outer loop
vertex 9.9263295186456 35.4601645365558 3.65289706411811
vertex -4.07957837362865 37.3382706588707 3.54639510354566
vertex -4.09065592413015 37.251594736982 3.65289706411811
endloop
endfacet
facet normal 0.126773084728411 0.991931744117731 0.0
outer loop
vertex 10.5318950146167 35.3560918976311 18.152385979902
vertex 16.7864004068315 34.5567395765429 17.796785979902
vertex 10.5318950146167 35.3560918976311 17.796785979902
endloop
endfacet
facet normal 0.126773084728411 0.991931744117731 0.0
outer loop
vertex 16.7864004068315 34.5567395765429 17.796785979902
vertex 10.5318950146167 35.3560918976311 18.152385979902
vertex 16.7864004068315 34.5567395765429 18.152385979902
endloop
endfacet
facet normal 0.121885738789703 0.953690869948935 -0.274986529225944
outer loop
vertex 10.4811905171814 34.9593562602258 17.5119676020497
vertex 16.7342489332459 34.1486821228423 17.4674006578238
vertex 10.4797435410311 34.9480344439305 17.4674006578238
endloop
endfacet
facet normal 0.123637884921926 0.967400478519304 -0.221020332939427
outer loop
vertex 16.7342489332459 34.1486821228423 17.4674006578238
vertex 10.4811905171814 34.9593562602258 17.5119676020497
vertex 16.7356959093962 34.1600039391376 17.5119676020497
endloop
endfacet
facet normal 0.991931744117731 -0.126773084728408 -1.82158807584297e-15
outer loop
vertex 16.7316597888457 34.1284234494329 18.152385979902
vertex 16.7864004068315 34.5567395765429 17.796785979902
vertex 16.7864004068315 34.5567395765429 18.152385979902
endloop
endfacet
facet normal 0.991931744117731 -0.126773084728408 -1.82158807584297e-15
outer loop
vertex 16.7864004068315 34.5567395765429 17.796785979902
vertex 16.7316597888457 34.1284234494329 18.152385979902
vertex 16.7542000433105 34.304788913537 17.796785979902
endloop
endfacet
facet normal 0.991931744117731 -0.126773084728408 -1.82158807584297e-15
outer loop
vertex 16.7542000433105 34.304788913537 17.796785979902
vertex 16.7316597888457 34.1284234494329 18.152385979902
vertex 16.750713671713 34.2775099160532 17.7599052086086
endloop
endfacet
facet normal 0.991931744117731 -0.126773084728408 -1.82158807584297e-15
outer loop
vertex 16.750713671713 34.2775099160532 17.7599052086086
vertex 16.7316597888457 34.1284234494329 18.152385979902
vertex 16.747493070647 34.2523104311676 17.7215502418884
endloop
endfacet
facet normal 0.991931744117731 -0.126773084728408 -1.82158807584297e-15
outer loop
vertex 16.747493070647 34.2523104311676 17.7215502418884
vertex 16.7316597888457 34.1284234494329 18.152385979902
vertex 16.7445482348411 34.2292686622994 17.6818401095374
endloop
endfacet
facet normal 0.991931744117731 -0.126773084728408 -1.82158807584297e-15
outer loop
vertex 16.7445482348411 34.2292686622994 17.6818401095374
vertex 16.7316597888457 34.1284234494329 18.152385979902
vertex 16.7418883032216 34.2084561166689 17.6408980469368
endloop
endfacet
facet normal 0.991931744117731 -0.126773084728408 -1.82158807584297e-15
outer loop
vertex 16.7418883032216 34.2084561166689 17.6408980469368
vertex 16.7316597888457 34.1284234494329 18.152385979902
vertex 16.7395215305501 34.1899373833831 17.5988511126081
endloop
endfacet
facet normal 0.991931744117731 -0.126773084728408 -1.82158807584297e-15
outer loop
vertex 16.7395215305501 34.1899373833831 17.5988511126081
vertex 16.7316597888457 34.1284234494329 18.152385979902
vertex 16.737455261807 34.1737699329924 17.5558297939023
endloop
endfacet
facet normal 0.991931744117731 -0.126773084728408 -1.82158807584297e-15
outer loop
vertex 16.737455261807 34.1737699329924 17.5558297939023
vertex 16.7316597888457 34.1284234494329 18.152385979902
vertex 16.7356959093962 34.1600039391376 17.5119676020497
endloop
endfacet
facet normal 0.991931744117731 -0.126773084728408 -1.82158807584297e-15
outer loop
vertex 16.7356959093962 34.1600039391376 17.5119676020497
vertex 16.7316597888457 34.1284234494329 18.152385979902
vertex 16.7342489332459 34.1486821228423 17.4674006578238
endloop
endfacet
facet normal 0.991931744117731 -0.126773084728408 -1.82158807584297e-15
outer loop
vertex 16.7342489332459 34.1486821228423 17.4674006578238
vertex 16.7316597888457 34.1284234494329 18.152385979902
vertex 16.7331188238638 34.1398396199336 17.4222672691085
endloop
endfacet
facet normal 0.991931744117731 -0.126773084728408 -1.82158807584297e-15
outer loop
vertex 16.7331188238638 34.1398396199336 17.4222672691085
vertex 16.7316597888457 34.1284234494329 18.152385979902
vertex 16.7323090884016 34.1335038720029 17.3767075016763
endloop
endfacet
facet normal 0.991931744117731 -0.126773084728408 -1.82158807584297e-15
outer loop
vertex 16.7323090884016 34.1335038720029 17.3767075016763
vertex 16.7316597888457 34.1284234494329 18.152385979902
vertex 16.7318222397712 34.1296945412436 17.3308627445125
endloop
endfacet
facet normal 0.991931744117731 -0.126773084728408 -1.82158807584297e-15
outer loop
vertex 16.7318222397712 34.1296945412436 17.3308627445125
vertex 16.7316597888457 34.1284234494329 18.152385979902
vertex 16.7316597888457 34.1284234494329 17.2848752710318
endloop
endfacet
facet normal -0.126773084728407 -0.991931744117731 0.0
outer loop
vertex 9.53407353281076 -22.1888484989617 18.152385979902
vertex -11.3463376638035 -19.5202433721576 0.141034131487697
vertex 9.53407353281076 -22.1888484989617 0.141034131487697
endloop
endfacet
facet normal -0.126773084728407 -0.991931744117731 0.0
outer loop
vertex -11.3463376638035 -19.5202433721576 0.141034131487697
vertex 9.53407353281076 -22.1888484989617 18.152385979902
vertex 3.27956814059599 -21.3894961778736 14.082035979902
endloop
endfacet
facet normal -0.126773084728407 -0.991931744117731 0.0
outer loop
vertex 3.27956814059599 -21.3894961778736 14.082035979902
vertex 9.53407353281076 -22.1888484989617 18.152385979902
vertex 3.27956814059599 -21.3894961778736 18.152385979902
endloop
endfacet
facet normal -0.126773084728407 -0.991931744117731 0.0
outer loop
vertex -11.3463376638035 -19.5202433721576 14.082035979902
vertex -11.3463376638035 -19.5202433721576 0.141034131487697
vertex 3.27956814059599 -21.3894961778736 14.082035979902
endloop
endfacet
facet normal -0.991931744117731 0.126773084728407 1.19037035875767e-16
outer loop
vertex -4.05385990486512 37.539503954024 2.76406633907367
vertex -4.0540721541966 37.5378432162577 3.0390554147405
vertex -4.05288552590499 37.5471279494756 2.90161276921691
endloop
endfacet
facet normal -0.991931744117731 0.126773084728407 1.19037035875767e-16
outer loop
vertex -4.0540721541966 37.5378432162577 3.0390554147405
vertex -4.05385990486512 37.539503954024 2.76406633907367
vertex -4.05698037173363 37.5150879658039 2.62852218622334
endloop
endfacet
facet normal -0.991931744117731 0.126773084728407 1.19037035875767e-16
outer loop
vertex -4.0540721541966 37.5378432162577 3.0390554147405
vertex -4.05698037173363 37.5150879658039 2.62852218622334
vertex -4.05740162051048 37.511791918896 3.17428980284497
endloop
endfacet
facet normal -0.991931744117731 0.126773084728407 1.19037035875767e-16
outer loop
vertex -4.05740162051048 37.511791918896 3.17428980284497
vertex -4.05698037173363 37.5150879658039 2.62852218622334
vertex -4.14875140776853 36.7970285762371 2.62852218622334
endloop
endfacet
facet normal -0.991931744117731 0.126773084728407 1.19037035875767e-16
outer loop
vertex -4.05740162051048 37.511791918896 3.17428980284497
vertex -4.14875140776853 36.7970285762371 2.62852218622334
vertex -4.06282294524519 37.4693729455702 3.30524527278137
endloop
endfacet
facet normal -0.991931744117731 0.126773084728407 1.19037035875767e-16
outer loop
vertex -4.06282294524519 37.4693729455702 3.30524527278137
vertex -4.14875140776853 36.7970285762371 2.62852218622334
vertex -4.07025311900868 37.4112358004806 3.4299166810706
endloop
endfacet
facet normal -0.991931744117731 0.126773084728407 1.19037035875767e-16
outer loop
vertex -4.07025311900868 37.4112358004806 3.4299166810706
vertex -4.14875140776853 36.7970285762371 2.62852218622334
vertex -4.07957837362865 37.3382706588707 3.54639510354566
endloop
endfacet
facet normal -0.991931744117731 0.126773084728407 1.19037035875767e-16
outer loop
vertex -4.07957837362865 37.3382706588707 3.54639510354566
vertex -4.14875140776853 36.7970285762371 2.62852218622334
vertex -4.09065592413015 37.251594736982 3.65289706411811
endloop
endfacet
facet normal -0.991931744117731 0.126773084728407 1.19037035875767e-16
outer loop
vertex -4.09065592413015 37.251594736982 3.65289706411811
vertex -4.14875140776853 36.7970285762371 2.62852218622334
vertex -4.1033161550083 37.1525351856363 3.74779184272825
endloop
endfacet
facet normal -0.991931744117731 0.126773084728407 1.19037035875767e-16
outer loop
vertex -4.1033161550083 37.1525351856363 3.74779184272825
vertex -4.14875140776853 36.7970285762371 2.62852218622334
vertex -4.11736521732039 37.0426087693761 3.82962644434941
endloop
endfacet
facet normal -0.991931744117731 0.126773084728407 1.19037035875767e-16
outer loop
vertex -4.11736521732039 37.0426087693761 3.82962644434941
vertex -4.14875140776853 36.7970285762371 2.62852218622334
vertex -4.1325879968318 36.923498642306 3.89714784672996
endloop
endfacet
facet normal -0.991931744117731 0.126773084728407 1.19037035875767e-16
outer loop
vertex -4.1325879968318 36.923498642306 3.89714784672996
vertex -4.14875140776853 36.7970285762371 2.62852218622334
vertex -4.14875140776853 36.7970285762371 3.94932218622334
endloop
endfacet
facet normal -0.991931744117731 0.126773084728407 1.19037035875767e-16
outer loop
vertex -4.14875140776853 36.7970285762371 3.94932218622334
vertex -4.14875140776853 36.7970285762371 2.62852218622334
vertex -4.14875140776853 36.7970285762371 0.141034131487697
endloop
endfacet
facet normal -0.991931744117731 0.126773084728407 1.19037035875767e-16
outer loop
vertex -4.14875140776853 36.7970285762371 3.94932218622334
vertex -4.14875140776853 36.7970285762371 0.141034131487697
vertex -4.14875140776853 36.7970285762371 14.082035979902
endloop
endfacet
facet normal -0.991931744117731 0.126773084728407 1.19037035875767e-16
outer loop
vertex -4.14875140776853 36.7970285762371 14.082035979902
vertex -4.14875140776853 36.7970285762371 0.141034131487697
vertex -11.3463376638035 -19.5202433721576 0.141034131487697
endloop
endfacet
facet normal -0.991931744117731 0.126773084728407 1.19037035875767e-16
outer loop
vertex -4.14875140776853 36.7970285762371 14.082035979902
vertex -11.3463376638035 -19.5202433721576 0.141034131487697
vertex -11.3463376638035 -19.5202433721576 14.082035979902
endloop
endfacet
facet normal -0.991931744117731 0.126773084728407 -1.04536976513345e-16
outer loop
vertex 3.27956814059599 -21.3894961778736 14.082035979902
vertex 10.477154396631 34.9277757705211 17.2848752710318
vertex 10.477154396631 34.9277757705211 14.082035979902
endloop
endfacet
facet normal -0.991931744117731 0.126773084728407 -1.04536976513345e-16
outer loop
vertex 10.4996946510957 35.1041412346252 17.796785979902
vertex 10.5318950146167 35.3560918976311 18.152385979902
vertex 10.5318950146167 35.3560918976311 17.796785979902
endloop
endfacet
facet normal -0.991931744117731 0.126773084728407 -1.04536976513345e-16
outer loop
vertex 10.5318950146167 35.3560918976311 18.152385979902
vertex 10.4996946510957 35.1041412346252 17.796785979902
vertex 3.27956814059599 -21.3894961778736 18.152385979902
endloop
endfacet
facet normal -0.991931744117731 0.126773084728407 -1.04536976513345e-16
outer loop
vertex 3.27956814059599 -21.3894961778736 18.152385979902
vertex 10.4996946510957 35.1041412346252 17.796785979902
vertex 10.4962082794982 35.0768622371414 17.7599052086086
endloop
endfacet
facet normal -0.991931744117731 0.126773084728407 -1.04536976513345e-16
outer loop
vertex 3.27956814059599 -21.3894961778736 18.152385979902
vertex 10.4962082794982 35.0768622371414 17.7599052086086
vertex 10.4929876784322 35.0516627522558 17.7215502418884
endloop
endfacet
facet normal -0.991931744117731 0.126773084728407 -1.04536976513345e-16
outer loop
vertex 3.27956814059599 -21.3894961778736 18.152385979902
vertex 10.4929876784322 35.0516627522558 17.7215502418884
vertex 10.4900428426264 35.0286209833876 17.6818401095374
endloop
endfacet
facet normal -0.991931744117731 0.126773084728407 -1.04536976513345e-16
outer loop
vertex 3.27956814059599 -21.3894961778736 18.152385979902
vertex 10.4900428426264 35.0286209833876 17.6818401095374
vertex 10.4873829110068 35.007808437757 17.6408980469368
endloop
endfacet
facet normal -0.991931744117731 0.126773084728407 -1.04536976513345e-16
outer loop
vertex 3.27956814059599 -21.3894961778736 18.152385979902
vertex 10.4873829110068 35.007808437757 17.6408980469368
vertex 10.4850161383354 34.9892897044713 17.5988511126081
endloop
endfacet
facet normal -0.991931744117731 0.126773084728407 -1.04536976513345e-16
outer loop
vertex 3.27956814059599 -21.3894961778736 18.152385979902
vertex 10.4850161383354 34.9892897044713 17.5988511126081
vertex 10.4829498695922 34.9731222540806 17.5558297939023
endloop
endfacet
facet normal -0.991931744117731 0.126773084728407 -1.04536976513345e-16
outer loop
vertex 3.27956814059599 -21.3894961778736 18.152385979902
vertex 10.4829498695922 34.9731222540806 17.5558297939023
vertex 10.4811905171814 34.9593562602258 17.5119676020497
endloop
endfacet
facet normal -0.991931744117731 0.126773084728407 -1.04536976513345e-16
outer loop
vertex 3.27956814059599 -21.3894961778736 18.152385979902
vertex 10.4811905171814 34.9593562602258 17.5119676020497
vertex 10.4797435410311 34.9480344439305 17.4674006578238
endloop
endfacet
facet normal -0.991931744117731 0.126773084728407 -1.04536976513345e-16
outer loop
vertex 3.27956814059599 -21.3894961778736 18.152385979902
vertex 10.4797435410311 34.9480344439305 17.4674006578238
vertex 10.478613431649 34.9391919410218 17.4222672691085
endloop
endfacet
facet normal -0.991931744117731 0.126773084728407 -1.04536976513345e-16
outer loop
vertex 3.27956814059599 -21.3894961778736 18.152385979902
vertex 10.478613431649 34.9391919410218 17.4222672691085
vertex 10.4778036961869 34.9328561930911 17.3767075016763
endloop
endfacet
facet normal -0.991931744117731 0.126773084728407 -1.04536976513345e-16
outer loop
vertex 3.27956814059599 -21.3894961778736 18.152385979902
vertex 10.4778036961869 34.9328561930911 17.3767075016763
vertex 10.4773168475564 34.9290468623318 17.3308627445125
endloop
endfacet
facet normal -0.991931744117731 0.126773084728407 -1.04536976513345e-16
outer loop
vertex 3.27956814059599 -21.3894961778736 18.152385979902
vertex 10.4773168475564 34.9290468623318 17.3308627445125
vertex 10.477154396631 34.9277757705211 17.2848752710318
endloop
endfacet
facet normal -0.991931744117731 0.126773084728407 -1.04536976513345e-16
outer loop
vertex 3.27956814059599 -21.3894961778736 18.152385979902
vertex 10.477154396631 34.9277757705211 17.2848752710318
vertex 3.27956814059599 -21.3894961778736 14.082035979902
endloop
endfacet
facet normal 0.125986846679338 0.985779850906486 -0.111199820191324
outer loop
vertex 10.4778036961869 34.9328561930911 17.3767075016763
vertex 16.7318222397712 34.1296945412436 17.3308627445125
vertex 10.4773168475564 34.9290468623318 17.3308627445125
endloop
endfacet
facet normal 0.126576372598329 0.99039257666196 -0.0556863178234403
outer loop
vertex 16.7318222397712 34.1296945412436 17.3308627445125
vertex 10.4778036961869 34.9328561930911 17.3767075016763
vertex 16.7323090884016 34.1335038720029 17.3767075016763
endloop
endfacet
facet normal 0.126576372598329 0.99039257666196 -0.0556863178234403
outer loop
vertex 10.4773168475564 34.9290468623318 17.3308627445125
vertex 16.7316597888457 34.1284234494329 17.2848752710318
vertex 10.477154396631 34.9277757705211 17.2848752710318
endloop
endfacet
facet normal 0.126723897153575 0.991546877590262 -0.0278539661666244
outer loop
vertex 16.7316597888457 34.1284234494329 17.2848752710318
vertex 10.4773168475564 34.9290468623318 17.3308627445125
vertex 16.7318222397712 34.1296945412436 17.3308627445125
endloop
endfacet
facet normal 0.117253286964778 0.917444406213484 -0.380193934990478
outer loop
vertex 10.4850161383354 34.9892897044713 17.5988511126081
vertex 16.737455261807 34.1737699329924 17.5558297939023
vertex 10.4829498695922 34.9731222540806 17.5558297939023
endloop
endfacet
facet normal 0.119755335658287 0.937021602191137 -0.328099339542959
outer loop
vertex 16.737455261807 34.1737699329924 17.5558297939023
vertex 10.4850161383354 34.9892897044713 17.5988511126081
vertex 16.7395215305501 34.1899373833831 17.5988511126081
endloop
endfacet
facet normal 0.125006336490685 0.978107881863219 -0.166368227959022
outer loop
vertex 10.478613431649 34.9391919410218 17.4222672691085
vertex 16.7323090884016 34.1335038720029 17.3767075016763
vertex 10.4778036961869 34.9328561930911 17.3767075016763
endloop
endfacet
facet normal 0.125986846679338 0.985779850906486 -0.111199820191325
outer loop
vertex 16.7323090884016 34.1335038720029 17.3767075016763
vertex 10.478613431649 34.9391919410218 17.4222672691085
vertex 16.7331188238638 34.1398396199336 17.4222672691085
endloop
endfacet
facet normal 0.068853536738723 0.538742185947698 0.839652337315192
outer loop
vertex -4.11736521732039 37.0426087693761 3.82962644434941
vertex 9.88439744594395 35.1320684418799 3.89714784672996
vertex 9.89962022545537 35.25117856895 3.82962644434941
endloop
endfacet
facet normal 0.0551800727106399 0.431754625847189 0.900301673126959
outer loop
vertex 9.88439744594395 35.1320684418799 3.89714784672996
vertex -4.11736521732039 37.0426087693761 3.82962644434941
vertex -4.1325879968318 36.923498642306 3.89714784672996
endloop
endfacet
facet normal 0.0 0.0 1.0
outer loop
vertex -4.14875140776853 36.7970285762371 14.082035979902
vertex 3.27956814059599 -21.3894961778736 14.082035979902
vertex 10.477154396631 34.9277757705211 14.082035979902
endloop
endfacet
facet normal 0.0 0.0 1.0
outer loop
vertex 3.27956814059599 -21.3894961778736 14.082035979902
vertex -4.14875140776853 36.7970285762371 14.082035979902
vertex -11.3463376638035 -19.5202433721576 14.082035979902
endloop
endfacet
facet normal 0.111166441318196 0.869818086862464 -0.480685466902809
outer loop
vertex 10.4900428426264 35.0286209833876 17.6818401095374
vertex 16.7418883032216 34.2084561166689 17.6408980469368
vertex 10.4873829110068 35.007808437757 17.6408980469368
endloop
endfacet
facet normal 0.114387357501348 0.895020037371559 -0.431108646569832
outer loop
vertex 16.7418883032216 34.2084561166689 17.6408980469368
vertex 10.4900428426264 35.0286209833876 17.6818401095374
vertex 16.7445482348411 34.2292686622994 17.6818401095374
endloop
endfacet
facet normal 0.0 0.0 1.0
outer loop
vertex 16.7864004068315 34.5567395765429 18.152385979902
vertex 9.53407353281076 -22.1888484989617 18.152385979902
vertex 16.7316597888457 34.1284234494329 18.152385979902
endloop
endfacet
facet normal 0.0 0.0 1.0
outer loop
vertex 9.53407353281076 -22.1888484989617 18.152385979902
vertex 16.7864004068315 34.5567395765429 18.152385979902
vertex 10.5318950146167 35.3560918976311 18.152385979902
endloop
endfacet
facet normal 0.0 0.0 1.0
outer loop
vertex 9.53407353281076 -22.1888484989617 18.152385979902
vertex 10.5318950146167 35.3560918976311 18.152385979902
vertex 3.27956814059599 -21.3894961778736 18.152385979902
endloop
endfacet
facet normal 0.991931744117731 -0.126773084728408 -3.1994239910282e-16
outer loop
vertex 9.96291328857916 35.7464130158315 3.0390554147405
vertex 9.96312553791064 35.7480737535979 2.76406633907366
vertex 9.96409991687077 35.7556977490494 2.90161276921691
endloop
endfacet
facet normal 0.991931744117731 -0.126773084728408 -3.1994239910282e-16
outer loop
vertex 9.96312553791064 35.7480737535979 2.76406633907366
vertex 9.96291328857916 35.7464130158315 3.0390554147405
vertex 9.96000507104212 35.7236577653778 2.62852218622334
endloop
endfacet
facet normal 0.991931744117731 -0.126773084728408 -3.1994239910282e-16
outer loop
vertex 9.96000507104212 35.7236577653778 2.62852218622334
vertex 9.96291328857916 35.7464130158315 3.0390554147405
vertex 9.95958382226527 35.7203617184698 3.17428980284497
endloop
endfacet
facet normal 0.991931744117731 -0.126773084728408 -3.1994239910282e-16
outer loop
vertex 9.96000507104212 35.7236577653778 2.62852218622334
vertex 9.95958382226527 35.7203617184698 3.17428980284497
vertex 9.86823403500723 35.0055983758109 2.62852218622334
endloop
endfacet
facet normal 0.991931744117731 -0.126773084728408 -3.1994239910282e-16
outer loop
vertex 9.86823403500723 35.0055983758109 2.62852218622334
vertex 9.95958382226527 35.7203617184698 3.17428980284497
vertex 9.95416249753058 35.6779427451441 3.30524527278137
endloop
endfacet
facet normal 0.991931744117731 -0.126773084728408 -3.1994239910282e-16
outer loop
vertex 9.86823403500723 35.0055983758109 2.62852218622334
vertex 9.95416249753058 35.6779427451441 3.30524527278137
vertex 9.94673232376708 35.6198056000544 3.4299166810706
endloop
endfacet
facet normal 0.991931744117731 -0.126773084728408 -3.1994239910282e-16
outer loop
vertex 9.86823403500723 35.0055983758109 2.62852218622334
vertex 9.94673232376708 35.6198056000544 3.4299166810706
vertex 9.93740706914711 35.5468404584446 3.54639510354566
endloop
endfacet
facet normal 0.991931744117731 -0.126773084728408 -3.1994239910282e-16
outer loop
vertex 9.86823403500723 35.0055983758109 2.62852218622334
vertex 9.93740706914711 35.5468404584446 3.54639510354566
vertex 9.9263295186456 35.4601645365558 3.65289706411811
endloop
endfacet
facet normal 0.991931744117731 -0.126773084728408 -3.1994239910282e-16
outer loop
vertex 9.86823403500723 35.0055983758109 2.62852218622334
vertex 9.9263295186456 35.4601645365558 3.65289706411811
vertex 9.91366928776745 35.3611049852102 3.74779184272825
endloop
endfacet
facet normal 0.991931744117731 -0.126773084728408 -3.1994239910282e-16
outer loop
vertex 9.86823403500723 35.0055983758109 2.62852218622334
vertex 9.91366928776745 35.3611049852102 3.74779184272825
vertex 9.89962022545537 35.25117856895 3.82962644434941
endloop
endfacet
facet normal 0.991931744117731 -0.126773084728408 -3.1994239910282e-16
outer loop
vertex 9.86823403500723 35.0055983758109 2.62852218622334
vertex 9.89962022545537 35.25117856895 3.82962644434941
vertex 9.88439744594395 35.1320684418799 3.89714784672996
endloop
endfacet
facet normal 0.991931744117731 -0.126773084728408 -3.1994239910282e-16
outer loop
vertex 9.86823403500723 35.0055983758109 2.62852218622334
vertex 9.88439744594395 35.1320684418799 3.89714784672996
vertex 9.86823403500723 35.0055983758109 3.94932218622334
endloop
endfacet
facet normal 0.126773084728408 0.991931744117731 -3.50953033446242e-16
outer loop
vertex -4.14875140776853 36.7970285762371 2.62852218622334
vertex 16.7316597888457 34.1284234494329 0.141034131487697
vertex -4.14875140776853 36.7970285762371 0.141034131487697
endloop
endfacet
facet normal 0.126773084728408 0.991931744117731 -3.50953033446242e-16
outer loop
vertex 16.7316597888457 34.1284234494329 0.141034131487697
vertex -4.14875140776853 36.7970285762371 2.62852218622334
vertex 9.86823403500723 35.0055983758109 2.62852218622334
endloop
endfacet
facet normal 0.126773084728408 0.991931744117731 -3.50953033446242e-16
outer loop
vertex 9.86823403500723 35.0055983758109 2.62852218622334
vertex 16.7316597888457 34.1284234494329 17.2848752710318
vertex 16.7316597888457 34.1284234494329 0.141034131487697
endloop
endfacet
facet normal 0.126773084728408 0.991931744117731 -3.50953033446242e-16
outer loop
vertex 16.7316597888457 34.1284234494329 17.2848752710318
vertex 9.86823403500723 35.0055983758109 2.62852218622334
vertex 9.86823403500723 35.0055983758109 3.94932218622334
endloop
endfacet
facet normal 0.126773084728408 0.991931744117731 -3.50953033446242e-16
outer loop
vertex 16.7316597888457 34.1284234494329 17.2848752710318
vertex 9.86823403500723 35.0055983758109 3.94932218622334
vertex -4.14875140776853 36.7970285762371 3.94932218622334
endloop
endfacet
facet normal 0.126773084728408 0.991931744117731 -3.50953033446242e-16
outer loop
vertex 16.7316597888457 34.1284234494329 17.2848752710318
vertex -4.14875140776853 36.7970285762371 3.94932218622334
vertex 10.477154396631 34.9277757705211 14.082035979902
endloop
endfacet
facet normal 0.126773084728408 0.991931744117731 -3.50953033446242e-16
outer loop
vertex 10.477154396631 34.9277757705211 14.082035979902
vertex -4.14875140776853 36.7970285762371 3.94932218622334
vertex -4.14875140776853 36.7970285762371 14.082035979902
endloop
endfacet
facet normal 0.126773084728408 0.991931744117731 -3.50953033446242e-16
outer loop
vertex 16.7316597888457 34.1284234494329 17.2848752710318
vertex 10.477154396631 34.9277757705211 14.082035979902
vertex 10.477154396631 34.9277757705211 17.2848752710318
endloop
endfacet
facet normal 0.101629307169671 0.795195100996829 -0.597776074525282
outer loop
vertex 10.4996946510957 35.1041412346252 17.796785979902
vertex 16.750713671713 34.2775099160532 17.7599052086086
vertex 10.4962082794982 35.0768622371414 17.7599052086086
endloop
endfacet
facet normal 0.103700702255367 0.811402662282516 -0.575214641670905
outer loop
vertex 16.750713671713 34.2775099160532 17.7599052086086
vertex 10.4996946510957 35.1041412346252 17.796785979902
vertex 16.7542000433105 34.304788913537 17.796785979902
endloop
endfacet
facet normal 0.103700702255367 0.811402662282516 -0.575214641670906
outer loop
vertex 10.4962082794982 35.0768622371414 17.7599052086086
vertex 16.747493070647 34.2523104311676 17.7215502418884
vertex 10.4929876784322 35.0516627522558 17.7215502418884
endloop
endfacet
facet normal 0.107600534121969 0.841916765757174 -0.528770540587925
outer loop
vertex 16.747493070647 34.2523104311676 17.7215502418884
vertex 10.4962082794982 35.0768622371414 17.7599052086086
vertex 16.750713671713 34.2775099160532 17.7599052086086
endloop
endfacet
facet normal 0.114387357501348 0.895020037371558 -0.431108646569833
outer loop
vertex 10.4873829110068 35.007808437757 17.6408980469368
vertex 16.7395215305501 34.1899373833831 17.5988511126081
vertex 10.4850161383354 34.9892897044713 17.5988511126081
endloop
endfacet
facet normal 0.117253286964778 0.917444406213484 -0.380193934990478
outer loop
vertex 16.7395215305501 34.1899373833831 17.5988511126081
vertex 10.4873829110068 35.007808437757 17.6408980469368
vertex 16.7418883032216 34.2084561166689 17.6408980469368
endloop
endfacet
facet normal 0.0 0.0 -1.0
outer loop
vertex 10.4996946510957 35.1041412346252 17.796785979902
vertex 16.7864004068315 34.5567395765429 17.796785979902
vertex 16.7542000433105 34.304788913537 17.796785979902
endloop
endfacet
facet normal 0.0 0.0 -1.0
outer loop
vertex 16.7864004068315 34.5567395765429 17.796785979902
vertex 10.4996946510957 35.1041412346252 17.796785979902
vertex 10.5318950146167 35.3560918976311 17.796785979902
endloop
endfacet
facet normal 0.107600534121969 0.841916765757174 -0.528770540587925
outer loop
vertex 10.4929876784322 35.0516627522558 17.7215502418884
vertex 16.7445482348411 34.2292686622994 17.6818401095374
vertex 10.4900428426264 35.0286209833876 17.6818401095374
endloop
endfacet
facet normal 0.111166441318196 0.869818086862464 -0.480685466902809
outer loop
vertex 16.7445482348411 34.2292686622994 17.6818401095374
vertex 10.4929876784322 35.0516627522558 17.7215502418884
vertex 16.747493070647 34.2523104311676 17.7215502418884
endloop
endfacet
endsolid UK Main Street
