solid West Broadway building
facet normal 0.137071829509649 0.990561110459561 5.0288375356575e-32
outer loop
vertex -13.7003047960149 29.7917596827366 32.5837501857074
vertex -12.1702469587574 29.5800333946824 14.4592626857074
vertex -13.7003047960149 29.7917596827366 14.4592626857074
endloop
endfacet
facet normal 0.137071829509649 0.990561110459561 5.0288375356575e-32
outer loop
vertex -12.1702469587574 29.5800333946824 14.4592626857074
vertex -13.7003047960149 29.7917596827366 32.5837501857074
vertex -12.1702469587574 29.5800333946824 32.5837501857074
endloop
endfacet
facet normal -0.901153954539603 0.124699849322056 0.4151764658512
outer loop
vertex -11.5423994593727 31.7045597502253 4.19852582246093
vertex -11.9222955816105 30.4303725026998 3.75665603892624
vertex -11.7225438347264 30.4027312626955 4.19852582246093
endloop
endfacet
facet normal -0.901153954539603 0.124699849322056 0.4151764658512
outer loop
vertex -11.9222955816105 30.4303725026998 3.75665603892624
vertex -11.5423994593727 31.7045597502253 4.19852582246093
vertex -11.7145099662524 31.9319527371136 3.75665603892624
endloop
endfacet
facet normal 0.990561110459561 -0.137071829509646 6.05664188126437e-17
outer loop
vertex 33.3940021161756 24.1595954991916 0.0
vertex 31.1555114412628 7.98295426935443 4.23684959613699
vertex 31.1555114412628 7.98295426935443 0.0
endloop
endfacet
facet normal 0.990561110459561 -0.137071829509646 6.05664188126437e-17
outer loop
vertex 31.1555114412628 7.98295426935443 4.23684959613699
vertex 33.3940021161756 24.1595954991916 0.0
vertex 31.1794713520156 8.15610258062086 27.0129
endloop
endfacet
facet normal 0.990561110459561 -0.137071829509646 6.05664188126437e-17
outer loop
vertex 31.1794713520156 8.15610258062086 27.0129
vertex 33.3940021161756 24.1595954991916 0.0
vertex 31.1794713520156 8.15610258062086 32.2553334869097
endloop
endfacet
facet normal 0.990561110459561 -0.137071829509646 6.05664188126437e-17
outer loop
vertex 31.1794713520156 8.15610258062086 32.2553334869097
vertex 33.3940021161756 24.1595954991916 0.0
vertex 33.2738860719763 23.2915667980959 14.334456287147
endloop
endfacet
facet normal 0.990561110459561 -0.137071829509646 6.05664188126437e-17
outer loop
vertex 33.2738860719763 23.2915667980959 14.334456287147
vertex 33.3940021161756 24.1595954991916 0.0
vertex 33.3940021161756 24.1595954991916 14.334456287147
endloop
endfacet
facet normal 0.990561110459561 -0.137071829509646 6.05664188126437e-17
outer loop
vertex 31.1794713520156 8.15610258062086 32.2553334869097
vertex 31.071278778314 7.37423984242927 37.1935375
vertex 31.071278778314 7.37423984242927 32.2553334869097
endloop
endfacet
facet normal 0.990561110459561 -0.137071829509646 6.05664188126437e-17
outer loop
vertex 31.071278778314 7.37423984242927 37.1935375
vertex 31.1794713520156 8.15610258062086 32.2553334869097
vertex 33.3940021161756 24.1595954991916 37.1935375
endloop
endfacet
facet normal 0.990561110459561 -0.137071829509646 6.05664188126437e-17
outer loop
vertex 33.3940021161756 24.1595954991916 37.1935375
vertex 31.1794713520156 8.15610258062086 32.2553334869097
vertex 33.2738860719763 23.2915667980959 32.458943787147
endloop
endfacet
facet normal 0.990561110459561 -0.137071829509646 6.05664188126437e-17
outer loop
vertex 33.2738860719763 23.2915667980959 32.458943787147
vertex 31.1794713520156 8.15610258062086 32.2553334869097
vertex 33.2738860719763 23.2915667980959 14.334456287147
endloop
endfacet
facet normal 0.990561110459561 -0.137071829509646 6.05664188126437e-17
outer loop
vertex 33.3940021161756 24.1595954991916 37.1935375
vertex 33.2738860719763 23.2915667980959 32.458943787147
vertex 33.3940021161756 24.1595954991916 32.458943787147
endloop
endfacet
facet normal 0.990561110459561 -0.137071829509646 6.05664188126437e-17
outer loop
vertex 30.4606633437729 2.96157602181366 0.0
vertex 26.2399166358486 -27.5400052361775 27.0129
vertex 26.2399166358486 -27.5400052361775 0.0
endloop
endfacet
facet normal 0.990561110459561 -0.137071829509646 6.05664188126437e-17
outer loop
vertex 26.2399166358486 -27.5400052361775 27.0129
vertex 30.4606633437729 2.96157602181366 0.0
vertex 30.4606633437729 2.96157602181366 4.23684959613699
endloop
endfacet
facet normal 0.990561110459561 -0.137071829509646 6.05664188126437e-17
outer loop
vertex 26.2399166358486 -27.5400052361775 27.0129
vertex 30.4606633437729 2.96157602181366 4.23684959613699
vertex 31.1794713520156 8.15610258062086 27.0129
endloop
endfacet
facet normal 0.990561110459561 -0.137071829509646 6.05664188126437e-17
outer loop
vertex 31.1794713520156 8.15610258062086 27.0129
vertex 30.4606633437729 2.96157602181366 4.23684959613699
vertex 31.1555114412628 7.98295426935443 4.23684959613699
endloop
endfacet
facet normal 0.990561110459561 -0.137071829509648 -7.61854141364916e-17
outer loop
vertex 16.3794939445144 4.76476347605242 27.0129
vertex 16.25894456271 3.89360322428806 37.1935375
vertex 16.25894456271 3.89360322428806 27.0129
endloop
endfacet
facet normal 0.990561110459561 -0.137071829509648 -7.61854141364916e-17
outer loop
vertex 16.25894456271 3.89360322428806 37.1935375
vertex 16.3794939445144 4.76476347605242 27.0129
vertex 16.3794939445144 4.76476347605242 32.2553334869097
endloop
endfacet
facet normal 0.990561110459561 -0.137071829509648 -7.61854141364916e-17
outer loop
vertex 16.25894456271 3.89360322428806 37.1935375
vertex 16.3794939445144 4.76476347605242 32.2553334869097
vertex 17.0098428268686 9.32003271784622 37.1935375
endloop
endfacet
facet normal 0.990561110459561 -0.137071829509648 -7.61854141364916e-17
outer loop
vertex 17.0098428268686 9.32003271784622 37.1935375
vertex 16.3794939445144 4.76476347605242 32.2553334869097
vertex 17.0098428268686 9.32003271784622 32.2553334869097
endloop
endfacet
facet normal 0.990561110459561 -0.137071829509648 -7.61854141364916e-17
outer loop
vertex 17.1180354005702 10.1018954560378 27.0129
vertex 17.0098428268686 9.32003271784622 32.2553334869097
vertex 17.0098428268686 9.32003271784622 27.0129
endloop
endfacet
facet normal 0.990561110459561 -0.137071829509648 -7.61854141364916e-17
outer loop
vertex 17.0098428268686 9.32003271784622 32.2553334869097
vertex 17.1180354005702 10.1018954560378 27.0129
vertex 17.1180354005702 10.1018954560378 32.2553334869097
endloop
endfacet
facet normal -0.137071829509646 -0.990561110459561 -0.0
outer loop
vertex 26.2399166358486 -27.5400052361775 27.0129
vertex -20.7342742321426 -21.0398123515369 0.0
vertex 26.2399166358486 -27.5400052361775 0.0
endloop
endfacet
facet normal -0.137071829509646 -0.990561110459561 -0.0
outer loop
vertex -20.7342742321426 -21.0398123515369 0.0
vertex 26.2399166358486 -27.5400052361775 27.0129
vertex -20.7342742321426 -21.0398123515369 27.0129
endloop
endfacet
facet normal 0.0 0.0 -1.0
outer loop
vertex -16.8357252323695 7.13338005576522 0.0
vertex 26.2399166358486 -27.5400052361775 0.0
vertex -20.7342742321426 -21.0398123515369 0.0
endloop
endfacet
facet normal 0.0 0.0 -1.0
outer loop
vertex 26.2399166358486 -27.5400052361775 0.0
vertex -16.8357252323695 7.13338005576522 0.0
vertex 16.0770296841762 2.57898004654165 0.0
endloop
endfacet
facet normal 0.0 0.0 -1.0
outer loop
vertex 26.2399166358486 -27.5400052361775 0.0
vertex 16.0770296841762 2.57898004654165 0.0
vertex 16.7063333070465 7.12669563271701 0.0
endloop
endfacet
facet normal 0.0 0.0 -1.0
outer loop
vertex 26.2399166358486 -27.5400052361775 0.0
vertex 16.7063333070465 7.12669563271701 0.0
vertex 28.935323053804 3.17264950527983 -2.55259951071083e-17
endloop
endfacet
facet normal 0.0 0.0 -1.0
outer loop
vertex 28.935323053804 3.17264950527983 -2.55259951071083e-17
vertex 16.7063333070465 7.12669563271701 0.0
vertex 29.242428968523 5.39197624076621 -2.55259951071083e-17
endloop
endfacet
facet normal 0.0 0.0 -1.0
outer loop
vertex 30.4606633437729 2.96157602181366 0.0
vertex 26.2399166358486 -27.5400052361775 0.0
vertex 28.935323053804 3.17264950527983 -2.55259951071083e-17
endloop
endfacet
facet normal -0.137071829509645 -0.990561110459561 0.0
outer loop
vertex 31.1794713520156 8.15610258062086 32.2553334869097
vertex 17.1180354005702 10.1018954560378 27.0129
vertex 31.1794713520156 8.15610258062086 27.0129
endloop
endfacet
facet normal -0.137071829509645 -0.990561110459561 0.0
outer loop
vertex 17.1180354005702 10.1018954560378 27.0129
vertex 31.1794713520156 8.15610258062086 32.2553334869097
vertex 17.1180354005702 10.1018954560378 32.2553334869097
endloop
endfacet
facet normal 0.0 0.0 -1.0
outer loop
vertex 17.1180354005702 10.1018954560378 32.2553334869097
vertex 31.071278778314 7.37423984242927 32.2553334869097
vertex 17.0098428268686 9.32003271784622 32.2553334869097
endloop
endfacet
facet normal 0.0 0.0 -1.0
outer loop
vertex 31.071278778314 7.37423984242927 32.2553334869097
vertex 17.1180354005702 10.1018954560378 32.2553334869097
vertex 31.1794713520156 8.15610258062086 32.2553334869097
endloop
endfacet
facet normal -0.137071829509645 -0.990561110459561 0.0
outer loop
vertex 31.071278778314 7.37423984242927 37.1935375
vertex 17.0098428268686 9.32003271784622 32.2553334869097
vertex 31.071278778314 7.37423984242927 32.2553334869097
endloop
endfacet
facet normal -0.137071829509645 -0.990561110459561 0.0
outer loop
vertex 17.0098428268686 9.32003271784622 32.2553334869097
vertex 31.071278778314 7.37423984242927 37.1935375
vertex 17.0098428268686 9.32003271784622 37.1935375
endloop
endfacet
facet normal 0.137071829509647 0.990561110459561 0.0
outer loop
vertex 31.7438282347188 23.5032930861501 32.458943787147
vertex 33.2738860719763 23.2915667980959 14.334456287147
vertex 31.7438282347188 23.5032930861501 14.334456287147
endloop
endfacet
facet normal 0.137071829509647 0.990561110459561 0.0
outer loop
vertex 33.2738860719763 23.2915667980959 14.334456287147
vertex 31.7438282347188 23.5032930861501 32.458943787147
vertex 33.2738860719763 23.2915667980959 32.458943787147
endloop
endfacet
facet normal 0.0 -0.0 1.0
outer loop
vertex 33.2738860719763 23.2915667980959 14.334456287147
vertex 31.8639442789181 24.3713217872459 14.334456287147
vertex 31.7438282347188 23.5032930861501 14.334456287147
endloop
endfacet
facet normal 0.0 -0.0 1.0
outer loop
vertex 31.8639442789181 24.3713217872459 14.334456287147
vertex 33.2738860719763 23.2915667980959 14.334456287147
vertex 33.3940021161756 24.1595954991916 14.334456287147
endloop
endfacet
facet normal 0.990561110459561 -0.137071829509647 -0.0
outer loop
vertex 31.8639442789181 24.3713217872459 14.334456287147
vertex 31.7438282347188 23.5032930861501 32.458943787147
vertex 31.7438282347188 23.5032930861501 14.334456287147
endloop
endfacet
facet normal 0.990561110459561 -0.137071829509647 -0.0
outer loop
vertex 31.7438282347188 23.5032930861501 32.458943787147
vertex 31.8639442789181 24.3713217872459 14.334456287147
vertex 31.8639442789181 24.3713217872459 32.458943787147
endloop
endfacet
facet normal -0.0 -0.0 -1.0
outer loop
vertex 31.8639442789181 24.3713217872459 32.458943787147
vertex 33.2738860719763 23.2915667980959 32.458943787147
vertex 31.7438282347188 23.5032930861501 32.458943787147
endloop
endfacet
facet normal -0.0 -0.0 -1.0
outer loop
vertex 33.2738860719763 23.2915667980959 32.458943787147
vertex 31.8639442789181 24.3713217872459 32.458943787147
vertex 33.3940021161756 24.1595954991916 32.458943787147
endloop
endfacet
facet normal -0.990561110459561 0.137071829509646 -7.94417487746398e-17
outer loop
vertex -15.7864506578604 14.7160510642499 40.5749125
vertex -16.6538103538358 8.44800323351164 27.0129
vertex -16.6538103538358 8.44800323351164 40.5749125
endloop
endfacet
facet normal -0.990561110459561 0.137071829509646 -7.94417487746398e-17
outer loop
vertex -13.5801887518156 30.6597883838322 37.1935375
vertex -13.7003047960149 29.7917596827366 32.5837501857074
vertex -15.7864506578604 14.7160510642499 37.1935375
endloop
endfacet
facet normal -0.990561110459561 0.137071829509646 -7.94417487746398e-17
outer loop
vertex -13.7003047960149 29.7917596827366 32.5837501857074
vertex -13.5801887518156 30.6597883838322 37.1935375
vertex -13.5801887518156 30.6597883838322 32.5837501857074
endloop
endfacet
facet normal -0.990561110459561 0.137071829509646 -7.94417487746398e-17
outer loop
vertex -16.6538103538358 8.44800323351164 27.0129
vertex -20.7342742321426 -21.0398123515369 0.0
vertex -20.7342742321426 -21.0398123515369 27.0129
endloop
endfacet
facet normal -0.990561110459561 0.137071829509646 -7.94417487746398e-17
outer loop
vertex -20.7342742321426 -21.0398123515369 0.0
vertex -16.6538103538358 8.44800323351164 27.0129
vertex -16.8357252323695 7.13338005576522 0.0
endloop
endfacet
facet normal -0.990561110459561 0.137071829509646 -7.94417487746398e-17
outer loop
vertex -16.8357252323695 7.13338005576522 0.0
vertex -16.6538103538358 8.44800323351164 27.0129
vertex -13.5801887518156 30.6597883838322 0.0
endloop
endfacet
facet normal -0.990561110459561 0.137071829509646 -7.94417487746398e-17
outer loop
vertex -13.5801887518156 30.6597883838322 0.0
vertex -16.6538103538358 8.44800323351164 27.0129
vertex -15.7864506578604 14.7160510642499 37.1935375
endloop
endfacet
facet normal -0.990561110459561 0.137071829509646 -7.94417487746398e-17
outer loop
vertex -15.7864506578604 14.7160510642499 37.1935375
vertex -16.6538103538358 8.44800323351164 27.0129
vertex -15.7864506578604 14.7160510642499 40.5749125
endloop
endfacet
facet normal -0.990561110459561 0.137071829509646 -7.94417487746398e-17
outer loop
vertex -13.5801887518156 30.6597883838322 0.0
vertex -15.7864506578604 14.7160510642499 37.1935375
vertex -13.7003047960149 29.7917596827366 14.4592626857074
endloop
endfacet
facet normal -0.990561110459561 0.137071829509646 -7.94417487746398e-17
outer loop
vertex -13.7003047960149 29.7917596827366 14.4592626857074
vertex -15.7864506578604 14.7160510642499 37.1935375
vertex -13.7003047960149 29.7917596827366 32.5837501857074
endloop
endfacet
facet normal -0.990561110459561 0.137071829509646 -7.94417487746398e-17
outer loop
vertex -13.5801887518156 30.6597883838322 0.0
vertex -13.7003047960149 29.7917596827366 14.4592626857074
vertex -13.5801887518156 30.6597883838322 14.4592626857074
endloop
endfacet
facet normal 0.990348990800077 -0.137042476823079 0.0206938630387325
outer loop
vertex -2.0264646313219 29.4975752604048 8.29995783233188
vertex -2.09699563282972 29.0707675018174 8.84888935749014
vertex -2.08574093013414 29.0692100989749 8.29995783233188
endloop
endfacet
facet normal 0.990348990800077 -0.137042476823079 0.0206938630387325
outer loop
vertex -2.09699563282972 29.0707675018174 8.84888935749014
vertex -2.0264646313219 29.4975752604048 8.29995783233188
vertex -2.03927673685995 29.4878779605517 8.84888935749014
endloop
endfacet
facet normal -0.990561110459561 0.137071829509645 6.46545917960447e-18
outer loop
vertex -2.03927673685995 29.4878779605517 8.84888935749014
vertex -2.09699563282972 29.0707675018174 2.943225
vertex -2.09699563282972 29.0707675018174 8.84888935749014
endloop
endfacet
facet normal -0.990561110459561 0.137071829509645 6.46545917960447e-18
outer loop
vertex -2.09699563282972 29.0707675018174 2.943225
vertex -2.03927673685995 29.4878779605517 8.84888935749014
vertex -2.03927673685995 29.4878779605517 2.943225
endloop
endfacet
facet normal 0.11757907415659 0.849695073597619 0.5139975128582
outer loop
vertex -11.901829451589 32.1794398780517 3.33759671158763
vertex -0.29078041465018 30.8112898758041 2.943225
vertex -12.1035188252136 32.4459125642555 2.943225
endloop
endfacet
facet normal 0.11757907415659 0.849695073597619 0.5139975128582
outer loop
vertex -0.29078041465018 30.8112898758041 2.943225
vertex -11.901829451589 32.1794398780517 3.33759671158763
vertex -0.557253100853955 30.6096005021795 3.33759671158763
endloop
endfacet
facet normal 0.12142640234296 0.877498114486662 0.463953325116221
outer loop
vertex -11.7145099662524 31.9319527371136 3.75665603892624
vertex -0.557253100853955 30.6096005021795 3.33759671158763
vertex -11.901829451589 32.1794398780517 3.33759671158763
endloop
endfacet
facet normal 0.12142640234296 0.877498114486662 0.463953325116221
outer loop
vertex -0.557253100853955 30.6096005021795 3.33759671158763
vertex -11.7145099662524 31.9319527371136 3.75665603892624
vertex -0.804740241792054 30.4222810168429 3.75665603892624
endloop
endfacet
facet normal 0.124699849322056 0.901153954539601 0.415176465851203
outer loop
vertex -11.5423994593727 31.7045597502253 4.19852582246093
vertex -0.804740241792054 30.4222810168429 3.75665603892624
vertex -11.7145099662524 31.9319527371136 3.75665603892624
endloop
endfacet
facet normal 0.124699849322056 0.901153954539601 0.415176465851203
outer loop
vertex -0.804740241792054 30.4222810168429 3.75665603892624
vertex -11.5423994593727 31.7045597502253 4.19852582246093
vertex -1.03213322868041 30.2501705099632 4.19852582246093
endloop
endfacet
facet normal 0.127471058136319 0.921180328231349 0.367665516763799
outer loop
vertex -11.3862688931057 31.4982795152085 4.66122672410737
vertex -1.03213322868041 30.2501705099632 4.19852582246093
vertex -11.5423994593727 31.7045597502253 4.19852582246093
endloop
endfacet
facet normal 0.127471058136319 0.921180328231349 0.367665516763799
outer loop
vertex -1.03213322868041 30.2501705099632 4.19852582246093
vertex -11.3862688931057 31.4982795152085 4.66122672410737
vertex -1.23841346369716 30.0940399436963 4.66122672410737
endloop
endfacet
facet normal 0.129801044458436 0.938018170455008 0.321362102236308
outer loop
vertex -11.2468176481005 31.3140360561547 5.14268609361789
vertex -1.23841346369716 30.0940399436963 4.66122672410737
vertex -11.3862688931057 31.4982795152085 4.66122672410737
endloop
endfacet
facet normal 0.129801044458436 0.938018170455008 0.321362102236308
outer loop
vertex -1.23841346369716 30.0940399436963 4.66122672410737
vertex -11.2468176481005 31.3140360561547 5.14268609361789
vertex -1.422656922751 29.9545886986911 5.14268609361789
endloop
endfacet
facet normal 0.131740964440261 0.952037165446709 0.276169429692254
outer loop
vertex -11.1246703906511 31.1526546842954 5.64074725293566
vertex -1.422656922751 29.9545886986911 5.14268609361789
vertex -11.2468176481005 31.3140360561547 5.14268609361789
endloop
endfacet
facet normal 0.131740964440261 0.952037165446709 0.276169429692254
outer loop
vertex -1.422656922751 29.9545886986911 5.14268609361789
vertex -11.1246703906511 31.1526546842954 5.64074725293566
vertex -1.58403829461022 29.8324414412417 5.64074725293566
endloop
endfacet
facet normal 0.133333057789287 0.963542562007103 0.231965572664021
outer loop
vertex -11.020374274529 31.0148583010541 6.15317915694809
vertex -1.58403829461022 29.8324414412417 5.64074725293566
vertex -11.1246703906511 31.1526546842954 5.64074725293566
endloop
endfacet
facet normal 0.133333057789287 0.963542562007103 0.231965572664021
outer loop
vertex -1.58403829461022 29.8324414412417 5.64074725293566
vertex -11.020374274529 31.0148583010541 6.15317915694809
vertex -1.72183467785157 29.7281453251196 6.15317915694809
endloop
endfacet
facet normal 0.134611602220738 0.972782070929689 0.18861272233153
outer loop
vertex -10.9343964900296 30.9012641598374 6.67768638736448
vertex -1.72183467785157 29.7281453251196 6.15317915694809
vertex -11.020374274529 31.0148583010541 6.15317915694809
endloop
endfacet
facet normal 0.134611602220738 0.972782070929689 0.18861272233153
outer loop
vertex -1.72183467785157 29.7281453251196 6.15317915694809
vertex -10.9343964900296 30.9012641598374 6.67768638736448
vertex -1.83542881906826 29.6421675406201 6.67768638736448
endloop
endfacet
facet normal 0.135603788073784 0.979952185488538 0.145963443424302
outer loop
vertex -10.8671221712117 30.8123811010736 7.21191943495077
vertex -1.83542881906826 29.6421675406201 6.67768638736448
vertex -10.9343964900296 30.9012641598374 6.67768638736448
endloop
endfacet
facet normal 0.135603788073784 0.979952185488538 0.145963443424302
outer loop
vertex -1.83542881906826 29.6421675406201 6.67768638736448
vertex -10.8671221712117 30.8123811010736 7.21191943495077
vertex -1.92431187783211 29.5748932218022 7.21191943495077
endloop
endfacet
facet normal 0.136330466848326 0.985203590802326 0.103864760525988
outer loop
vertex -10.8188526707054 30.7486072728818 7.75348522406252
vertex -1.92431187783211 29.5748932218022 7.21191943495077
vertex -10.8671221712117 30.8123811010736 7.21191943495077
endloop
endfacet
facet normal 0.136330466848326 0.985203590802326 0.103864760525988
outer loop
vertex -1.92431187783211 29.5748932218022 7.21191943495077
vertex -10.8188526707054 30.7486072728818 7.75348522406252
vertex -1.98808570602387 29.5266237212959 7.75348522406252
endloop
endfacet
facet normal 0.136806753565504 0.988645516843241 0.0621607127101022
outer loop
vertex -10.7898042098143 30.7102283475838 8.29995783233188
vertex -1.98808570602387 29.5266237212959 7.75348522406252
vertex -10.8188526707054 30.7486072728818 7.75348522406252
endloop
endfacet
facet normal 0.136806753565504 0.988645516843241 0.0621607127101022
outer loop
vertex -1.98808570602387 29.5266237212959 7.75348522406252
vertex -10.7898042098143 30.7102283475838 8.29995783233188
vertex -2.0264646313219 29.4975752604048 8.29995783233188
endloop
endfacet
facet normal 0.13704247682308 0.990348990800077 0.0206938630387274
outer loop
vertex -10.7801069099611 30.6974162420457 8.84888935749014
vertex -2.0264646313219 29.4975752604048 8.29995783233188
vertex -10.7898042098143 30.7102283475838 8.29995783233188
endloop
endfacet
facet normal 0.13704247682308 0.990348990800077 0.0206938630387274
outer loop
vertex -2.0264646313219 29.4975752604048 8.29995783233188
vertex -10.7801069099611 30.6974162420457 8.84888935749014
vertex -2.03927673685995 29.4878779605517 8.84888935749014
endloop
endfacet
facet normal -0.137071829509646 -0.990561110459561 -9.57359041483604e-16
outer loop
vertex -2.03927673685995 29.4878779605517 8.84888935749014
vertex -10.7801069099611 30.6974162420457 2.943225
vertex -2.03927673685995 29.4878779605517 2.943225
endloop
endfacet
facet normal -0.137071829509646 -0.990561110459561 -9.57359041483604e-16
outer loop
vertex -10.7801069099611 30.6974162420457 2.943225
vertex -2.03927673685995 29.4878779605517 8.84888935749014
vertex -10.7801069099611 30.6974162420457 8.84888935749014
endloop
endfacet
facet normal -0.84969507359762 0.117579074156591 0.513997512858199
outer loop
vertex -11.901829451589 32.1794398780517 3.33759671158763
vertex -12.373779924662 30.4928479867901 2.943225
vertex -12.1396988947478 30.4604563305006 3.33759671158763
endloop
endfacet
facet normal -0.84969507359762 0.117579074156591 0.513997512858199
outer loop
vertex -12.373779924662 30.4928479867901 2.943225
vertex -11.901829451589 32.1794398780517 3.33759671158763
vertex -12.1035188252136 32.4459125642555 2.943225
endloop
endfacet
facet normal -0.877498114486661 0.12142640234296 0.463953325116224
outer loop
vertex -11.7145099662524 31.9319527371136 3.75665603892624
vertex -12.1396988947478 30.4604563305006 3.33759671158763
vertex -11.9222955816105 30.4303725026998 3.75665603892624
endloop
endfacet
facet normal -0.877498114486661 0.12142640234296 0.463953325116224
outer loop
vertex -12.1396988947478 30.4604563305006 3.33759671158763
vertex -11.7145099662524 31.9319527371136 3.75665603892624
vertex -11.901829451589 32.1794398780517 3.33759671158763
endloop
endfacet
facet normal 0.84969507359762 -0.117579074156591 0.513997512858198
outer loop
vertex -0.29078041465018 30.8112898758041 2.943225
vertex -0.795122544012798 28.8906169546284 3.33759671158763
vertex -0.561041514098612 28.8582252983388 2.943225
endloop
endfacet
facet normal 0.84969507359762 -0.117579074156591 0.513997512858198
outer loop
vertex -0.795122544012798 28.8906169546284 3.33759671158763
vertex -0.29078041465018 30.8112898758041 2.943225
vertex -0.557253100853955 30.6096005021795 3.33759671158763
endloop
endfacet
facet normal 0.87749811448666 -0.12142640234296 0.463953325116225
outer loop
vertex -0.557253100853955 30.6096005021795 3.33759671158763
vertex -1.01252585715014 28.9207007824291 3.75665603892624
vertex -0.795122544012798 28.8906169546284 3.33759671158763
endloop
endfacet
facet normal 0.87749811448666 -0.12142640234296 0.463953325116225
outer loop
vertex -1.01252585715014 28.9207007824291 3.75665603892624
vertex -0.557253100853955 30.6096005021795 3.33759671158763
vertex -0.804740241792054 30.4222810168429 3.75665603892624
endloop
endfacet
facet normal 0.9011539545396 -0.124699849322056 0.415176465851205
outer loop
vertex -0.804740241792054 30.4222810168429 3.75665603892624
vertex -1.21227760403419 28.9483420224334 4.19852582246093
vertex -1.01252585715014 28.9207007824291 3.75665603892624
endloop
endfacet
facet normal 0.9011539545396 -0.124699849322056 0.415176465851205
outer loop
vertex -1.21227760403419 28.9483420224334 4.19852582246093
vertex -0.804740241792054 30.4222810168429 3.75665603892624
vertex -1.03213322868041 30.2501705099632 4.19852582246093
endloop
endfacet
facet normal 0.921180328231355 -0.12747105813632 0.367665516763783
outer loop
vertex -1.03213322868041 30.2501705099632 4.19852582246093
vertex -1.39348300467603 28.9734168568083 4.66122672410737
vertex -1.21227760403419 28.9483420224334 4.19852582246093
endloop
endfacet
facet normal 0.921180328231355 -0.12747105813632 0.367665516763783
outer loop
vertex -1.39348300467603 28.9734168568083 4.66122672410737
vertex -1.03213322868041 30.2501705099632 4.19852582246093
vertex -1.23841346369716 30.0940399436963 4.66122672410737
endloop
endfacet
facet normal 0.938018170455004 -0.129801044458436 0.32136210223632
outer loop
vertex -1.23841346369716 30.0940399436963 4.66122672410737
vertex -1.55533035670554 28.9958129638326 5.14268609361789
vertex -1.39348300467603 28.9734168568083 4.66122672410737
endloop
endfacet
facet normal 0.938018170455004 -0.129801044458436 0.32136210223632
outer loop
vertex -1.55533035670554 28.9958129638326 5.14268609361789
vertex -1.23841346369716 30.0940399436963 4.66122672410737
vertex -1.422656922751 29.9545886986911 5.14268609361789
endloop
endfacet
facet normal 0.952037165446714 -0.131740964440262 0.276169429692237
outer loop
vertex -1.422656922751 29.9545886986911 5.14268609361789
vertex -1.69709467135986 29.0154300210375 5.64074725293566
vertex -1.55533035670554 28.9958129638326 5.14268609361789
endloop
endfacet
facet normal 0.952037165446714 -0.131740964440262 0.276169429692237
outer loop
vertex -1.69709467135986 29.0154300210375 5.64074725293566
vertex -1.422656922751 29.9545886986911 5.14268609361789
vertex -1.58403829461022 29.8324414412417 5.64074725293566
endloop
endfacet
facet normal 0.963542562007099 -0.133333057789287 0.231965572664038
outer loop
vertex -1.58403829461022 29.8324414412417 5.64074725293566
vertex -1.81814092104159 29.0321801545972 6.15317915694809
vertex -1.69709467135986 29.0154300210375 5.64074725293566
endloop
endfacet
facet normal 0.963542562007099 -0.133333057789287 0.231965572664038
outer loop
vertex -1.81814092104159 29.0321801545972 6.15317915694809
vertex -1.58403829461022 29.8324414412417 5.64074725293566
vertex -1.72183467785157 29.7281453251196 6.15317915694809
endloop
endfacet
facet normal 0.972782070929692 -0.134611602220738 0.188612722331515
outer loop
vertex -1.72183467785157 29.7281453251196 6.15317915694809
vertex -1.91792688389967 29.0459883329558 6.67768638736448
vertex -1.81814092104159 29.0321801545972 6.15317915694809
endloop
endfacet
facet normal 0.972782070929692 -0.134611602220738 0.188612722331515
outer loop
vertex -1.91792688389967 29.0459883329558 6.67768638736448
vertex -1.72183467785157 29.7281453251196 6.15317915694809
vertex -1.83542881906826 29.6421675406201 6.67768638736448
endloop
endfacet
facet normal 0.988645516843242 -0.136806753565504 0.0621607127100983
outer loop
vertex -1.98808570602387 29.5266237212959 7.75348522406252
vertex -2.08574093013414 29.0692100989749 8.29995783233188
vertex -2.05202723703955 29.0645448667715 7.75348522406252
endloop
endfacet
facet normal 0.988645516843242 -0.136806753565504 0.0621607127100983
outer loop
vertex -2.08574093013414 29.0692100989749 8.29995783233188
vertex -1.98808570602387 29.5266237212959 7.75348522406252
vertex -2.0264646313219 29.4975752604048 8.29995783233188
endloop
endfacet
facet normal 0.979952185488537 -0.135603788073783 0.145963443424307
outer loop
vertex -1.83542881906826 29.6421675406201 6.67768638736448
vertex -1.99600557269051 29.0567927029288 7.21191943495077
vertex -1.91792688389967 29.0459883329558 6.67768638736448
endloop
endfacet
facet normal 0.979952185488537 -0.135603788073783 0.145963443424307
outer loop
vertex -1.99600557269051 29.0567927029288 7.21191943495077
vertex -1.83542881906826 29.6421675406201 6.67768638736448
vertex -1.92431187783211 29.5748932218022 7.21191943495077
endloop
endfacet
facet normal 0.985203590802325 -0.136330466848325 0.103864760525996
outer loop
vertex -1.92431187783211 29.5748932218022 7.21191943495077
vertex -2.05202723703955 29.0645448667715 7.75348522406252
vertex -1.99600557269051 29.0567927029288 7.21191943495077
endloop
endfacet
facet normal 0.985203590802325 -0.136330466848325 0.103864760525996
outer loop
vertex -2.05202723703955 29.0645448667715 7.75348522406252
vertex -1.92431187783211 29.5748932218022 7.21191943495077
vertex -1.98808570602387 29.5266237212959 7.75348522406252
endloop
endfacet
facet normal -0.990561110459561 0.137071829509649 -0.0
outer loop
vertex -12.0501309145581 30.448062095778 32.5837501857074
vertex -12.1702469587574 29.5800333946824 14.4592626857074
vertex -12.1702469587574 29.5800333946824 32.5837501857074
endloop
endfacet
facet normal -0.990561110459561 0.137071829509649 -0.0
outer loop
vertex -12.1702469587574 29.5800333946824 14.4592626857074
vertex -12.0501309145581 30.448062095778 32.5837501857074
vertex -12.0501309145581 30.448062095778 14.4592626857074
endloop
endfacet
facet normal -6.89311961319368e-33 -4.98137089364161e-32 1.0
outer loop
vertex -12.1702469587574 29.5800333946824 14.4592626857074
vertex -13.5801887518156 30.6597883838322 14.4592626857074
vertex -13.7003047960149 29.7917596827366 14.4592626857074
endloop
endfacet
facet normal -6.89311961319368e-33 -4.98137089364161e-32 1.0
outer loop
vertex -13.5801887518156 30.6597883838322 14.4592626857074
vertex -12.1702469587574 29.5800333946824 14.4592626857074
vertex -12.0501309145581 30.448062095778 14.4592626857074
endloop
endfacet
facet normal 6.89311961319368e-33 4.98137089364161e-32 -1.0
outer loop
vertex -13.5801887518156 30.6597883838322 32.5837501857074
vertex -12.1702469587574 29.5800333946824 32.5837501857074
vertex -13.7003047960149 29.7917596827366 32.5837501857074
endloop
endfacet
facet normal 6.89311961319368e-33 4.98137089364161e-32 -1.0
outer loop
vertex -12.1702469587574 29.5800333946824 32.5837501857074
vertex -13.5801887518156 30.6597883838322 32.5837501857074
vertex -12.0501309145581 30.448062095778 32.5837501857074
endloop
endfacet
facet normal 0.137071829509646 0.990561110459561 5.68060016531631e-16
outer loop
vertex -12.1035188252136 32.4459125642555 2.943225
vertex -0.29078041465018 30.8112898758041 1.120029733095e-15
vertex -12.1035188252136 32.4459125642555 1.120029733095e-15
endloop
endfacet
facet normal 0.137071829509646 0.990561110459561 5.68060016531631e-16
outer loop
vertex -0.29078041465018 30.8112898758041 1.120029733095e-15
vertex -12.1035188252136 32.4459125642555 2.943225
vertex -0.29078041465018 30.8112898758041 2.943225
endloop
endfacet
facet normal -0.990561110459561 0.137071829509646 -4.8592776793165e-16
outer loop
vertex -12.1035188252136 32.4459125642555 2.943225
vertex -12.373779924662 30.4928479867901 0.0
vertex -12.373779924662 30.4928479867901 2.943225
endloop
endfacet
facet normal -0.990561110459561 0.137071829509646 -4.8592776793165e-16
outer loop
vertex -12.373779924662 30.4928479867901 0.0
vertex -12.1035188252136 32.4459125642555 2.943225
vertex -12.1035188252136 32.4459125642555 1.120029733095e-15
endloop
endfacet
facet normal 0.990561110459561 -0.137071829509646 -5.69424620510959e-18
outer loop
vertex -0.29078041465018 30.8112898758041 1.120029733095e-15
vertex -0.561041514098612 28.8582252983388 2.943225
vertex -0.561041514098612 28.8582252983388 0.0
endloop
endfacet
facet normal 0.990561110459561 -0.137071829509646 -5.69424620510959e-18
outer loop
vertex -0.561041514098612 28.8582252983388 2.943225
vertex -0.29078041465018 30.8112898758041 1.120029733095e-15
vertex -0.29078041465018 30.8112898758041 2.943225
endloop
endfacet
facet normal -1.68381355014368e-18 1.67447309411707e-17 -1.0
outer loop
vertex -0.29078041465018 30.8112898758041 1.120029733095e-15
vertex -0.561041514098612 28.8582252983388 0.0
vertex -12.1035188252136 32.4459125642555 1.120029733095e-15
endloop
endfacet
facet normal -1.68381355014368e-18 1.67447309411707e-17 -1.0
outer loop
vertex -13.5801887518156 30.6597883838322 0.0
vertex 16.0770296841762 2.57898004654165 0.0
vertex -16.8357252323695 7.13338005576522 0.0
endloop
endfacet
facet normal -1.68381355014368e-18 1.67447309411707e-17 -1.0
outer loop
vertex 16.0770296841762 2.57898004654165 0.0
vertex -13.5801887518156 30.6597883838322 0.0
vertex -12.373779924662 30.4928479867901 0.0
endloop
endfacet
facet normal -1.68381355014368e-18 1.67447309411707e-17 -1.0
outer loop
vertex 16.0770296841762 2.57898004654165 0.0
vertex -12.373779924662 30.4928479867901 0.0
vertex -12.1035188252136 32.4459125642555 1.120029733095e-15
endloop
endfacet
facet normal -1.68381355014368e-18 1.67447309411707e-17 -1.0
outer loop
vertex 16.0770296841762 2.57898004654165 0.0
vertex -12.1035188252136 32.4459125642555 1.120029733095e-15
vertex -0.561041514098612 28.8582252983388 0.0
endloop
endfacet
facet normal -1.68381355014368e-18 1.67447309411707e-17 -1.0
outer loop
vertex 16.0770296841762 2.57898004654165 0.0
vertex -0.561041514098612 28.8582252983388 0.0
vertex 16.7063333070465 7.12669563271701 0.0
endloop
endfacet
facet normal -1.68381355014368e-18 1.67447309411707e-17 -1.0
outer loop
vertex 16.7063333070465 7.12669563271701 0.0
vertex -0.561041514098612 28.8582252983388 0.0
vertex 33.3940021161756 24.1595954991916 0.0
endloop
endfacet
facet normal -1.68381355014368e-18 1.67447309411707e-17 -1.0
outer loop
vertex 16.7063333070465 7.12669563271701 0.0
vertex 33.3940021161756 24.1595954991916 0.0
vertex 29.6301711512939 8.1940277528206 -2.55259951071083e-17
endloop
endfacet
facet normal -1.68381355014368e-18 1.67447309411707e-17 -1.0
outer loop
vertex 16.7063333070465 7.12669563271701 0.0
vertex 29.6301711512939 8.1940277528206 -2.55259951071083e-17
vertex 29.242428968523 5.39197624076621 -2.55259951071083e-17
endloop
endfacet
facet normal -1.68381355014368e-18 1.67447309411707e-17 -1.0
outer loop
vertex 29.6301711512939 8.1940277528206 -2.55259951071083e-17
vertex 33.3940021161756 24.1595954991916 0.0
vertex 31.1555114412628 7.98295426935443 0.0
endloop
endfacet
facet normal -0.92118032823135 0.127471058136319 0.367665516763797
outer loop
vertex -11.3862688931057 31.4982795152085 4.66122672410737
vertex -11.7225438347264 30.4027312626955 4.19852582246093
vertex -11.5413384340846 30.3776564283206 4.66122672410737
endloop
endfacet
facet normal -0.92118032823135 0.127471058136319 0.367665516763797
outer loop
vertex -11.7225438347264 30.4027312626955 4.19852582246093
vertex -11.3862688931057 31.4982795152085 4.66122672410737
vertex -11.5423994593727 31.7045597502253 4.19852582246093
endloop
endfacet
facet normal -0.938018170455008 0.129801044458436 0.321362102236307
outer loop
vertex -11.2468176481005 31.3140360561547 5.14268609361789
vertex -11.5413384340846 30.3776564283206 4.66122672410737
vertex -11.3794910820551 30.3552603212963 5.14268609361789
endloop
endfacet
facet normal -0.938018170455008 0.129801044458436 0.321362102236307
outer loop
vertex -11.5413384340846 30.3776564283206 4.66122672410737
vertex -11.2468176481005 31.3140360561547 5.14268609361789
vertex -11.3862688931057 31.4982795152085 4.66122672410737
endloop
endfacet
facet normal -0.952037165446708 0.13174096444026 0.276169429692261
outer loop
vertex -11.1246703906511 31.1526546842954 5.64074725293566
vertex -11.3794910820551 30.3552603212963 5.14268609361789
vertex -11.2377267674008 30.3356432640913 5.64074725293566
endloop
endfacet
facet normal -0.952037165446708 0.13174096444026 0.276169429692261
outer loop
vertex -11.3794910820551 30.3552603212963 5.14268609361789
vertex -11.1246703906511 31.1526546842954 5.64074725293566
vertex -11.2468176481005 31.3140360561547 5.14268609361789
endloop
endfacet
facet normal -0.963542562007104 0.133333057789287 0.231965572664015
outer loop
vertex -11.020374274529 31.0148583010541 6.15317915694809
vertex -11.2377267674008 30.3356432640913 5.64074725293566
vertex -11.116680517719 30.3188931305317 6.15317915694809
endloop
endfacet
facet normal -0.963542562007104 0.133333057789287 0.231965572664015
outer loop
vertex -11.2377267674008 30.3356432640913 5.64074725293566
vertex -11.020374274529 31.0148583010541 6.15317915694809
vertex -11.1246703906511 31.1526546842954 5.64074725293566
endloop
endfacet
facet normal -0.972782070929689 0.134611602220737 0.188612722331531
outer loop
vertex -10.9343964900296 30.9012641598374 6.67768638736448
vertex -11.116680517719 30.3188931305317 6.15317915694809
vertex -11.016894554861 30.3050849521731 6.67768638736448
endloop
endfacet
facet normal -0.972782070929689 0.134611602220737 0.188612722331531
outer loop
vertex -11.116680517719 30.3188931305317 6.15317915694809
vertex -10.9343964900296 30.9012641598374 6.67768638736448
vertex -11.020374274529 31.0148583010541 6.15317915694809
endloop
endfacet
facet normal -0.979952185488538 0.135603788073783 0.145963443424301
outer loop
vertex -10.8671221712117 30.8123811010736 7.21191943495077
vertex -11.016894554861 30.3050849521731 6.67768638736448
vertex -10.9388158660701 30.2942805822001 7.21191943495077
endloop
endfacet
facet normal -0.979952185488538 0.135603788073783 0.145963443424301
outer loop
vertex -11.016894554861 30.3050849521731 6.67768638736448
vertex -10.8671221712117 30.8123811010736 7.21191943495077
vertex -10.9343964900296 30.9012641598374 6.67768638736448
endloop
endfacet
facet normal -0.985203590802326 0.136330466848326 0.103864760525987
outer loop
vertex -10.8188526707054 30.7486072728818 7.75348522406252
vertex -10.9388158660701 30.2942805822001 7.21191943495077
vertex -10.8827942017211 30.2865284183574 7.75348522406252
endloop
endfacet
facet normal -0.985203590802326 0.136330466848326 0.103864760525987
outer loop
vertex -10.9388158660701 30.2942805822001 7.21191943495077
vertex -10.8188526707054 30.7486072728818 7.75348522406252
vertex -10.8671221712117 30.8123811010736 7.21191943495077
endloop
endfacet
facet normal -0.988645516843241 0.136806753565505 0.062160712710101
outer loop
vertex -10.7898042098143 30.7102283475838 8.29995783233188
vertex -10.8827942017211 30.2865284183574 7.75348522406252
vertex -10.8490805086265 30.2818631861539 8.29995783233188
endloop
endfacet
facet normal -0.988645516843241 0.136806753565505 0.062160712710101
outer loop
vertex -10.8827942017211 30.2865284183574 7.75348522406252
vertex -10.7898042098143 30.7102283475838 8.29995783233188
vertex -10.8188526707054 30.7486072728818 7.75348522406252
endloop
endfacet
facet normal -0.990348990800077 0.13704247682308 0.0206938630387277
outer loop
vertex -10.7801069099611 30.6974162420457 8.84888935749014
vertex -10.8490805086265 30.2818631861539 8.29995783233188
vertex -10.8378258059309 30.2803057833115 8.84888935749014
endloop
endfacet
facet normal -0.990348990800077 0.13704247682308 0.0206938630387277
outer loop
vertex -10.8490805086265 30.2818631861539 8.29995783233188
vertex -10.7801069099611 30.6974162420457 8.84888935749014
vertex -10.7898042098143 30.7102283475838 8.29995783233188
endloop
endfacet
facet normal 0.990561110459561 -0.137071829509645 -3.76441287169939e-16
outer loop
vertex -10.8378258059309 30.2803057833115 2.943225
vertex -10.7801069099611 30.6974162420457 8.84888935749014
vertex -10.8378258059309 30.2803057833115 8.84888935749014
endloop
endfacet
facet normal 0.990561110459561 -0.137071829509645 -3.76441287169939e-16
outer loop
vertex -10.7801069099611 30.6974162420457 8.84888935749014
vertex -10.8378258059309 30.2803057833115 2.943225
vertex -10.7801069099611 30.6974162420457 2.943225
endloop
endfacet
facet normal 0.137071829509646 0.990561110459561 2.16813825296744e-16
outer loop
vertex -13.5801887518156 30.6597883838322 37.1935375
vertex -12.0501309145581 30.448062095778 32.5837501857074
vertex -13.5801887518156 30.6597883838322 32.5837501857074
endloop
endfacet
facet normal 0.137071829509646 0.990561110459561 2.16813825296744e-16
outer loop
vertex -13.5801887518156 30.6597883838322 14.4592626857074
vertex -12.373779924662 30.4928479867901 0.0
vertex -13.5801887518156 30.6597883838322 0.0
endloop
endfacet
facet normal 0.137071829509646 0.990561110459561 2.16813825296744e-16
outer loop
vertex -12.373779924662 30.4928479867901 0.0
vertex -13.5801887518156 30.6597883838322 14.4592626857074
vertex -12.373779924662 30.4928479867901 2.943225
endloop
endfacet
facet normal 0.137071829509646 0.990561110459561 2.16813825296744e-16
outer loop
vertex -12.373779924662 30.4928479867901 2.943225
vertex -13.5801887518156 30.6597883838322 14.4592626857074
vertex -12.1396988947478 30.4604563305006 3.33759671158763
endloop
endfacet
facet normal 0.137071829509646 0.990561110459561 2.16813825296744e-16
outer loop
vertex -12.1396988947478 30.4604563305006 3.33759671158763
vertex -13.5801887518156 30.6597883838322 14.4592626857074
vertex -11.9222955816105 30.4303725026998 3.75665603892624
endloop
endfacet
facet normal 0.137071829509646 0.990561110459561 2.16813825296744e-16
outer loop
vertex -11.9222955816105 30.4303725026998 3.75665603892624
vertex -13.5801887518156 30.6597883838322 14.4592626857074
vertex -11.7225438347264 30.4027312626955 4.19852582246093
endloop
endfacet
facet normal 0.137071829509646 0.990561110459561 2.16813825296744e-16
outer loop
vertex -11.7225438347264 30.4027312626955 4.19852582246093
vertex -13.5801887518156 30.6597883838322 14.4592626857074
vertex -11.5413384340846 30.3776564283206 4.66122672410737
endloop
endfacet
facet normal 0.137071829509646 0.990561110459561 2.16813825296744e-16
outer loop
vertex -11.5413384340846 30.3776564283206 4.66122672410737
vertex -13.5801887518156 30.6597883838322 14.4592626857074
vertex -11.3794910820551 30.3552603212963 5.14268609361789
endloop
endfacet
facet normal 0.137071829509646 0.990561110459561 2.16813825296744e-16
outer loop
vertex -11.3794910820551 30.3552603212963 5.14268609361789
vertex -13.5801887518156 30.6597883838322 14.4592626857074
vertex -11.2377267674008 30.3356432640913 5.64074725293566
endloop
endfacet
facet normal 0.137071829509646 0.990561110459561 2.16813825296744e-16
outer loop
vertex -11.2377267674008 30.3356432640913 5.64074725293566
vertex -13.5801887518156 30.6597883838322 14.4592626857074
vertex -11.116680517719 30.3188931305317 6.15317915694809
endloop
endfacet
facet normal 0.137071829509646 0.990561110459561 2.16813825296744e-16
outer loop
vertex -11.116680517719 30.3188931305317 6.15317915694809
vertex -13.5801887518156 30.6597883838322 14.4592626857074
vertex -11.016894554861 30.3050849521731 6.67768638736448
endloop
endfacet
facet normal 0.137071829509646 0.990561110459561 2.16813825296744e-16
outer loop
vertex -11.016894554861 30.3050849521731 6.67768638736448
vertex -13.5801887518156 30.6597883838322 14.4592626857074
vertex -10.9388158660701 30.2942805822001 7.21191943495077
endloop
endfacet
facet normal 0.137071829509646 0.990561110459561 2.16813825296744e-16
outer loop
vertex -10.9388158660701 30.2942805822001 7.21191943495077
vertex -13.5801887518156 30.6597883838322 14.4592626857074
vertex -10.8827942017211 30.2865284183574 7.75348522406252
endloop
endfacet
facet normal 0.137071829509646 0.990561110459561 2.16813825296744e-16
outer loop
vertex -10.8827942017211 30.2865284183574 7.75348522406252
vertex -13.5801887518156 30.6597883838322 14.4592626857074
vertex -10.8490805086265 30.2818631861539 8.29995783233188
endloop
endfacet
facet normal 0.137071829509646 0.990561110459561 2.16813825296744e-16
outer loop
vertex -10.8490805086265 30.2818631861539 8.29995783233188
vertex -13.5801887518156 30.6597883838322 14.4592626857074
vertex -10.8378258059309 30.2803057833115 8.84888935749014
endloop
endfacet
facet normal 0.137071829509646 0.990561110459561 2.16813825296744e-16
outer loop
vertex -10.8378258059309 30.2803057833115 8.84888935749014
vertex -13.5801887518156 30.6597883838322 14.4592626857074
vertex -2.09699563282972 29.0707675018174 8.84888935749014
endloop
endfacet
facet normal 0.137071829509646 0.990561110459561 2.16813825296744e-16
outer loop
vertex -2.09699563282972 29.0707675018174 8.84888935749014
vertex -13.5801887518156 30.6597883838322 14.4592626857074
vertex 31.8639442789181 24.3713217872459 14.334456287147
endloop
endfacet
facet normal 0.137071829509646 0.990561110459561 2.16813825296744e-16
outer loop
vertex 31.8639442789181 24.3713217872459 14.334456287147
vertex -13.5801887518156 30.6597883838322 14.4592626857074
vertex -12.0501309145581 30.448062095778 14.4592626857074
endloop
endfacet
facet normal 0.137071829509646 0.990561110459561 2.16813825296744e-16
outer loop
vertex 31.8639442789181 24.3713217872459 14.334456287147
vertex -12.0501309145581 30.448062095778 14.4592626857074
vertex 31.8639442789181 24.3713217872459 32.458943787147
endloop
endfacet
facet normal 0.137071829509646 0.990561110459561 2.16813825296744e-16
outer loop
vertex 31.8639442789181 24.3713217872459 32.458943787147
vertex -12.0501309145581 30.448062095778 14.4592626857074
vertex -12.0501309145581 30.448062095778 32.5837501857074
endloop
endfacet
facet normal 0.137071829509646 0.990561110459561 2.16813825296744e-16
outer loop
vertex 31.8639442789181 24.3713217872459 32.458943787147
vertex -12.0501309145581 30.448062095778 32.5837501857074
vertex 33.3940021161756 24.1595954991916 32.458943787147
endloop
endfacet
facet normal 0.137071829509646 0.990561110459561 2.16813825296744e-16
outer loop
vertex 33.3940021161756 24.1595954991916 32.458943787147
vertex -12.0501309145581 30.448062095778 32.5837501857074
vertex 33.3940021161756 24.1595954991916 37.1935375
endloop
endfacet
facet normal 0.137071829509646 0.990561110459561 2.16813825296744e-16
outer loop
vertex 33.3940021161756 24.1595954991916 37.1935375
vertex -12.0501309145581 30.448062095778 32.5837501857074
vertex -13.5801887518156 30.6597883838322 37.1935375
endloop
endfacet
facet normal 0.137071829509646 0.990561110459561 2.16813825296744e-16
outer loop
vertex -0.561041514098612 28.8582252983388 2.943225
vertex 33.3940021161756 24.1595954991916 0.0
vertex -0.561041514098612 28.8582252983388 0.0
endloop
endfacet
facet normal 0.137071829509646 0.990561110459561 2.16813825296744e-16
outer loop
vertex 33.3940021161756 24.1595954991916 0.0
vertex -0.561041514098612 28.8582252983388 2.943225
vertex 33.3940021161756 24.1595954991916 14.334456287147
endloop
endfacet
facet normal 0.137071829509646 0.990561110459561 2.16813825296744e-16
outer loop
vertex 33.3940021161756 24.1595954991916 14.334456287147
vertex -0.561041514098612 28.8582252983388 2.943225
vertex -0.795122544012798 28.8906169546284 3.33759671158763
endloop
endfacet
facet normal 0.137071829509646 0.990561110459561 2.16813825296744e-16
outer loop
vertex 33.3940021161756 24.1595954991916 14.334456287147
vertex -0.795122544012798 28.8906169546284 3.33759671158763
vertex -1.01252585715014 28.9207007824291 3.75665603892624
endloop
endfacet
facet normal 0.137071829509646 0.990561110459561 2.16813825296744e-16
outer loop
vertex 33.3940021161756 24.1595954991916 14.334456287147
vertex -1.01252585715014 28.9207007824291 3.75665603892624
vertex -1.21227760403419 28.9483420224334 4.19852582246093
endloop
endfacet
facet normal 0.137071829509646 0.990561110459561 2.16813825296744e-16
outer loop
vertex 33.3940021161756 24.1595954991916 14.334456287147
vertex -1.21227760403419 28.9483420224334 4.19852582246093
vertex -1.39348300467603 28.9734168568083 4.66122672410737
endloop
endfacet
facet normal 0.137071829509646 0.990561110459561 2.16813825296744e-16
outer loop
vertex 33.3940021161756 24.1595954991916 14.334456287147
vertex -1.39348300467603 28.9734168568083 4.66122672410737
vertex -1.55533035670554 28.9958129638326 5.14268609361789
endloop
endfacet
facet normal 0.137071829509646 0.990561110459561 2.16813825296744e-16
outer loop
vertex 33.3940021161756 24.1595954991916 14.334456287147
vertex -1.55533035670554 28.9958129638326 5.14268609361789
vertex -1.69709467135986 29.0154300210375 5.64074725293566
endloop
endfacet
facet normal 0.137071829509646 0.990561110459561 2.16813825296744e-16
outer loop
vertex 33.3940021161756 24.1595954991916 14.334456287147
vertex -1.69709467135986 29.0154300210375 5.64074725293566
vertex -1.81814092104159 29.0321801545972 6.15317915694809
endloop
endfacet
facet normal 0.137071829509646 0.990561110459561 2.16813825296744e-16
outer loop
vertex 33.3940021161756 24.1595954991916 14.334456287147
vertex -1.81814092104159 29.0321801545972 6.15317915694809
vertex -1.91792688389967 29.0459883329558 6.67768638736448
endloop
endfacet
facet normal 0.137071829509646 0.990561110459561 2.16813825296744e-16
outer loop
vertex 33.3940021161756 24.1595954991916 14.334456287147
vertex -1.91792688389967 29.0459883329558 6.67768638736448
vertex -1.99600557269051 29.0567927029288 7.21191943495077
endloop
endfacet
facet normal 0.137071829509646 0.990561110459561 2.16813825296744e-16
outer loop
vertex 33.3940021161756 24.1595954991916 14.334456287147
vertex -1.99600557269051 29.0567927029288 7.21191943495077
vertex -2.05202723703955 29.0645448667715 7.75348522406252
endloop
endfacet
facet normal 0.137071829509646 0.990561110459561 2.16813825296744e-16
outer loop
vertex 33.3940021161756 24.1595954991916 14.334456287147
vertex -2.05202723703955 29.0645448667715 7.75348522406252
vertex -2.08574093013414 29.0692100989749 8.29995783233188
endloop
endfacet
facet normal 0.137071829509646 0.990561110459561 2.16813825296744e-16
outer loop
vertex 33.3940021161756 24.1595954991916 14.334456287147
vertex -2.08574093013414 29.0692100989749 8.29995783233188
vertex -2.09699563282972 29.0707675018174 8.84888935749014
endloop
endfacet
facet normal 0.137071829509646 0.990561110459561 2.16813825296744e-16
outer loop
vertex 33.3940021161756 24.1595954991916 14.334456287147
vertex -2.09699563282972 29.0707675018174 8.84888935749014
vertex 31.8639442789181 24.3713217872459 14.334456287147
endloop
endfacet
facet normal 0.137071829509647 0.990561110459561 4.73175531580243e-16
outer loop
vertex -10.8378258059309 30.2803057833115 8.84888935749014
vertex -2.09699563282972 29.0707675018174 2.943225
vertex -10.8378258059309 30.2803057833115 2.943225
endloop
endfacet
facet normal 0.137071829509647 0.990561110459561 4.73175531580243e-16
outer loop
vertex -2.09699563282972 29.0707675018174 2.943225
vertex -10.8378258059309 30.2803057833115 8.84888935749014
vertex -2.09699563282972 29.0707675018174 8.84888935749014
endloop
endfacet
facet normal -1.17498499190359e-16 -8.4911279182381e-16 1.0
outer loop
vertex -2.09699563282972 29.0707675018174 2.943225
vertex -10.7801069099611 30.6974162420457 2.943225
vertex -10.8378258059309 30.2803057833115 2.943225
endloop
endfacet
facet normal -1.17498499190359e-16 -8.4911279182381e-16 1.0
outer loop
vertex -10.7801069099611 30.6974162420457 2.943225
vertex -2.09699563282972 29.0707675018174 2.943225
vertex -2.03927673685995 29.4878779605517 2.943225
endloop
endfacet
facet normal -0.0 -0.0 1.0
outer loop
vertex -2.09699563282972 29.0707675018174 8.84888935749014
vertex -10.7801069099611 30.6974162420457 8.84888935749014
vertex -10.8378258059309 30.2803057833115 8.84888935749014
endloop
endfacet
facet normal -0.0 -0.0 1.0
outer loop
vertex -10.7801069099611 30.6974162420457 8.84888935749014
vertex -2.09699563282972 29.0707675018174 8.84888935749014
vertex -2.03927673685995 29.4878779605517 8.84888935749014
endloop
endfacet
facet normal -0.0 -0.0 1.0
outer loop
vertex 16.25894456271 3.89360322428806 37.1935375
vertex 1.07563586722895 12.3827098650667 37.1935375
vertex 0.208276171253551 6.11466203432844 37.1935375
endloop
endfacet
facet normal -0.0 -0.0 1.0
outer loop
vertex 1.07563586722895 12.3827098650667 37.1935375
vertex -13.5801887518156 30.6597883838322 37.1935375
vertex -15.7864506578604 14.7160510642499 37.1935375
endloop
endfacet
facet normal -0.0 -0.0 1.0
outer loop
vertex -13.5801887518156 30.6597883838322 37.1935375
vertex 1.07563586722895 12.3827098650667 37.1935375
vertex 33.3940021161756 24.1595954991916 37.1935375
endloop
endfacet
facet normal -0.0 -0.0 1.0
outer loop
vertex 33.3940021161756 24.1595954991916 37.1935375
vertex 1.07563586722895 12.3827098650667 37.1935375
vertex 17.0098428268686 9.32003271784622 37.1935375
endloop
endfacet
facet normal -0.0 -0.0 1.0
outer loop
vertex 17.0098428268686 9.32003271784622 37.1935375
vertex 1.07563586722895 12.3827098650667 37.1935375
vertex 16.25894456271 3.89360322428806 37.1935375
endloop
endfacet
facet normal -0.0 -0.0 1.0
outer loop
vertex 33.3940021161756 24.1595954991916 37.1935375
vertex 17.0098428268686 9.32003271784622 37.1935375
vertex 31.071278778314 7.37423984242927 37.1935375
endloop
endfacet
facet normal 0.0 0.0 1.0
outer loop
vertex 0.208276171253551 6.11466203432844 40.5749125
vertex -15.7864506578604 14.7160510642499 40.5749125
vertex -16.6538103538358 8.44800323351164 40.5749125
endloop
endfacet
facet normal 0.0 0.0 1.0
outer loop
vertex -15.7864506578604 14.7160510642499 40.5749125
vertex 0.208276171253551 6.11466203432844 40.5749125
vertex 1.07563586722895 12.3827098650667 40.5749125
endloop
endfacet
facet normal 0.990561110459561 -0.137071829509647 0.0
outer loop
vertex 1.07563586722895 12.3827098650667 37.1935375
vertex 0.208276171253551 6.11466203432844 40.5749125
vertex 0.208276171253551 6.11466203432844 37.1935375
endloop
endfacet
facet normal 0.990561110459561 -0.137071829509647 0.0
outer loop
vertex 0.208276171253551 6.11466203432844 40.5749125
vertex 1.07563586722895 12.3827098650667 37.1935375
vertex 1.07563586722895 12.3827098650667 40.5749125
endloop
endfacet
facet normal 0.137071829509646 0.990561110459561 0.0
outer loop
vertex -15.7864506578604 14.7160510642499 40.5749125
vertex 1.07563586722895 12.3827098650667 37.1935375
vertex -15.7864506578604 14.7160510642499 37.1935375
endloop
endfacet
facet normal 0.137071829509646 0.990561110459561 0.0
outer loop
vertex 1.07563586722895 12.3827098650667 37.1935375
vertex -15.7864506578604 14.7160510642499 40.5749125
vertex 1.07563586722895 12.3827098650667 40.5749125
endloop
endfacet
facet normal 0.0 0.0 1.0
outer loop
vertex -1.50139781939265 1.69296395341144 27.892375
vertex -5.16482828636157 4.27690661920147 27.892375
vertex -5.44683986839472 2.23892619054197 27.892375
endloop
endfacet
facet normal 0.0 0.0 1.0
outer loop
vertex -5.16482828636157 4.27690661920147 27.892375
vertex -1.50139781939265 1.69296395341144 27.892375
vertex -1.2193862373595 3.73094438207094 27.892375
endloop
endfacet
facet normal -0.137071829509647 -0.990561110459561 -0.0
outer loop
vertex -1.50139781939265 1.69296395341144 27.892375
vertex -5.44683986839472 2.23892619054197 27.0129
vertex -1.50139781939265 1.69296395341144 27.0129
endloop
endfacet
facet normal -0.137071829509647 -0.990561110459561 -0.0
outer loop
vertex -5.44683986839472 2.23892619054197 27.0129
vertex -1.50139781939265 1.69296395341144 27.892375
vertex -5.44683986839472 2.23892619054197 27.892375
endloop
endfacet
facet normal 0.990561110459561 -0.137071829509646 0.0
outer loop
vertex -1.2193862373595 3.73094438207094 27.0129
vertex -1.50139781939265 1.69296395341144 27.892375
vertex -1.50139781939265 1.69296395341144 27.0129
endloop
endfacet
facet normal 0.990561110459561 -0.137071829509646 0.0
outer loop
vertex -1.50139781939265 1.69296395341144 27.892375
vertex -1.2193862373595 3.73094438207094 27.0129
vertex -1.2193862373595 3.73094438207094 27.892375
endloop
endfacet
facet normal 0.137071829509646 0.990561110459561 0.0
outer loop
vertex -5.16482828636157 4.27690661920147 27.892375
vertex -1.2193862373595 3.73094438207094 27.0129
vertex -5.16482828636157 4.27690661920147 27.0129
endloop
endfacet
facet normal 0.137071829509646 0.990561110459561 0.0
outer loop
vertex -1.2193862373595 3.73094438207094 27.0129
vertex -5.16482828636157 4.27690661920147 27.892375
vertex -1.2193862373595 3.73094438207094 27.892375
endloop
endfacet
facet normal -0.990561110459561 0.137071829509647 0.0
outer loop
vertex -5.16482828636157 4.27690661920147 27.892375
vertex -5.44683986839472 2.23892619054197 27.0129
vertex -5.44683986839472 2.23892619054197 27.892375
endloop
endfacet
facet normal -0.990561110459561 0.137071829509647 0.0
outer loop
vertex -5.44683986839472 2.23892619054197 27.0129
vertex -5.16482828636157 4.27690661920147 27.892375
vertex -5.16482828636157 4.27690661920147 27.0129
endloop
endfacet
facet normal 0.0 0.0 1.0
outer loop
vertex -1.89212539884956 -1.5072301627125 27.892375
vertex -5.8397663971361 1.0727700481748 27.892375
vertex -6.11590273787689 -0.922752454887629 27.892375
endloop
endfacet
facet normal 0.0 0.0 1.0
outer loop
vertex -5.8397663971361 1.0727700481748 27.892375
vertex -1.89212539884956 -1.5072301627125 27.892375
vertex -1.61598905810877 0.488292340349929 27.892375
endloop
endfacet
facet normal 0.990561110459561 -0.137071829509646 0.0
outer loop
vertex -1.61598905810877 0.488292340349929 27.0129
vertex -1.89212539884956 -1.5072301627125 27.892375
vertex -1.89212539884956 -1.5072301627125 27.0129
endloop
endfacet
facet normal 0.990561110459561 -0.137071829509646 0.0
outer loop
vertex -1.89212539884956 -1.5072301627125 27.892375
vertex -1.61598905810877 0.488292340349929 27.0129
vertex -1.61598905810877 0.488292340349929 27.892375
endloop
endfacet
facet normal 0.137071829509646 0.990561110459561 0.0
outer loop
vertex -5.8397663971361 1.0727700481748 27.892375
vertex -1.61598905810877 0.488292340349929 27.0129
vertex -5.8397663971361 1.0727700481748 27.0129
endloop
endfacet
facet normal 0.137071829509646 0.990561110459561 0.0
outer loop
vertex -1.61598905810877 0.488292340349929 27.0129
vertex -5.8397663971361 1.0727700481748 27.892375
vertex -1.61598905810877 0.488292340349929 27.892375
endloop
endfacet
facet normal -0.990561110459561 0.137071829509646 0.0
outer loop
vertex -5.8397663971361 1.0727700481748 27.892375
vertex -6.11590273787689 -0.922752454887629 27.0129
vertex -6.11590273787689 -0.922752454887629 27.892375
endloop
endfacet
facet normal -0.990561110459561 0.137071829509646 0.0
outer loop
vertex -6.11590273787689 -0.922752454887629 27.0129
vertex -5.8397663971361 1.0727700481748 27.892375
vertex -5.8397663971361 1.0727700481748 27.0129
endloop
endfacet
facet normal -0.137071829509647 -0.990561110459561 -0.0
outer loop
vertex -1.89212539884956 -1.5072301627125 27.892375
vertex -6.11590273787689 -0.922752454887629 27.0129
vertex -1.89212539884956 -1.5072301627125 27.0129
endloop
endfacet
facet normal -0.137071829509647 -0.990561110459561 -0.0
outer loop
vertex -6.11590273787689 -0.922752454887629 27.0129
vertex -1.89212539884956 -1.5072301627125 27.892375
vertex -6.11590273787689 -0.922752454887629 27.892375
endloop
endfacet
facet normal 0.0 0.0 1.0
outer loop
vertex -10.1747274033696 3.37189602594527 27.892375
vertex -11.9174874380446 4.81342324851787 27.892375
vertex -12.0804709835252 3.63560894213981 27.892375
endloop
endfacet
facet normal 0.0 0.0 1.0
outer loop
vertex -11.9174874380446 4.81342324851787 27.892375
vertex -10.1747274033696 3.37189602594527 27.892375
vertex -10.0117438578891 4.54971033232333 27.892375
endloop
endfacet
facet normal -0.990561110459561 0.137071829509646 0.0
outer loop
vertex -11.9174874380446 4.81342324851787 27.892375
vertex -12.0804709835252 3.63560894213981 27.0129
vertex -12.0804709835252 3.63560894213981 27.892375
endloop
endfacet
facet normal -0.990561110459561 0.137071829509646 0.0
outer loop
vertex -12.0804709835252 3.63560894213981 27.0129
vertex -11.9174874380446 4.81342324851787 27.892375
vertex -11.9174874380446 4.81342324851787 27.0129
endloop
endfacet
facet normal -0.137071829509646 -0.990561110459561 -0.0
outer loop
vertex -10.1747274033696 3.37189602594527 27.892375
vertex -12.0804709835252 3.63560894213981 27.0129
vertex -10.1747274033696 3.37189602594527 27.0129
endloop
endfacet
facet normal -0.137071829509646 -0.990561110459561 -0.0
outer loop
vertex -12.0804709835252 3.63560894213981 27.0129
vertex -10.1747274033696 3.37189602594527 27.892375
vertex -12.0804709835252 3.63560894213981 27.892375
endloop
endfacet
facet normal 0.990561110459561 -0.137071829509646 0.0
outer loop
vertex -10.0117438578891 4.54971033232333 27.0129
vertex -10.1747274033696 3.37189602594527 27.892375
vertex -10.1747274033696 3.37189602594527 27.0129
endloop
endfacet
facet normal 0.990561110459561 -0.137071829509646 0.0
outer loop
vertex -10.1747274033696 3.37189602594527 27.892375
vertex -10.0117438578891 4.54971033232333 27.0129
vertex -10.0117438578891 4.54971033232333 27.892375
endloop
endfacet
facet normal 0.137071829509646 0.990561110459561 0.0
outer loop
vertex -11.9174874380446 4.81342324851787 27.892375
vertex -10.0117438578891 4.54971033232333 27.0129
vertex -11.9174874380446 4.81342324851787 27.0129
endloop
endfacet
facet normal 0.137071829509646 0.990561110459561 0.0
outer loop
vertex -10.0117438578891 4.54971033232333 27.0129
vertex -11.9174874380446 4.81342324851787 27.892375
vertex -10.0117438578891 4.54971033232333 27.892375
endloop
endfacet
facet normal 0.0 0.0 1.0
outer loop
vertex -9.42543177894857 5.46304148342163 27.892375
vertex -12.3598046429506 7.46691316379813 27.892375
vertex -12.5767533677091 5.89911494823214 27.892375
endloop
endfacet
facet normal 0.0 0.0 1.0
outer loop
vertex -12.3598046429506 7.46691316379813 27.892375
vertex -9.42543177894857 5.46304148342163 27.892375
vertex -9.20848305419004 7.03083969898761 27.892375
endloop
endfacet
facet normal 0.137071829509647 0.990561110459561 0.0
outer loop
vertex -12.3598046429506 7.46691316379813 27.892375
vertex -9.20848305419004 7.03083969898761 27.0129
vertex -12.3598046429506 7.46691316379813 27.0129
endloop
endfacet
facet normal 0.137071829509647 0.990561110459561 0.0
outer loop
vertex -9.20848305419004 7.03083969898761 27.0129
vertex -12.3598046429506 7.46691316379813 27.892375
vertex -9.20848305419004 7.03083969898761 27.892375
endloop
endfacet
facet normal -0.990561110459561 0.137071829509647 0.0
outer loop
vertex -12.3598046429506 7.46691316379813 27.892375
vertex -12.5767533677091 5.89911494823214 27.0129
vertex -12.5767533677091 5.89911494823214 27.892375
endloop
endfacet
facet normal -0.990561110459561 0.137071829509647 0.0
outer loop
vertex -12.5767533677091 5.89911494823214 27.0129
vertex -12.3598046429506 7.46691316379813 27.892375
vertex -12.3598046429506 7.46691316379813 27.0129
endloop
endfacet
facet normal -0.137071829509646 -0.990561110459561 -0.0
outer loop
vertex -9.42543177894857 5.46304148342163 27.892375
vertex -12.5767533677091 5.89911494823214 27.0129
vertex -9.42543177894857 5.46304148342163 27.0129
endloop
endfacet
facet normal -0.137071829509646 -0.990561110459561 -0.0
outer loop
vertex -12.5767533677091 5.89911494823214 27.0129
vertex -9.42543177894857 5.46304148342163 27.892375
vertex -12.5767533677091 5.89911494823214 27.892375
endloop
endfacet
facet normal 0.990561110459561 -0.137071829509646 0.0
outer loop
vertex -9.20848305419004 7.03083969898761 27.0129
vertex -9.42543177894857 5.46304148342163 27.892375
vertex -9.42543177894857 5.46304148342163 27.0129
endloop
endfacet
facet normal 0.990561110459561 -0.137071829509646 0.0
outer loop
vertex -9.42543177894857 5.46304148342163 27.892375
vertex -9.20848305419004 7.03083969898761 27.0129
vertex -9.20848305419004 7.03083969898761 27.892375
endloop
endfacet
facet normal -0.137071829509646 -0.990561110459561 2.49650896088258e-17
outer loop
vertex 15.8981707343017 3.94352637206456 30.0268175897049
vertex 8.2240325902753 5.00545798254686 29.5983810506332
vertex 15.8981707343017 3.94352637206456 29.5983810506332
endloop
endfacet
facet normal -0.137071829509646 -0.990561110459561 2.49650896088258e-17
outer loop
vertex 8.2240325902753 5.00545798254686 29.5983810506332
vertex 15.8981707343017 3.94352637206456 30.0268175897049
vertex 7.62321459630381 5.08859795318206 29.5983810506332
endloop
endfacet
facet normal -0.137071829509646 -0.990561110459561 2.49650896088258e-17
outer loop
vertex 7.62321459630381 5.08859795318206 29.5983810506332
vertex 15.8981707343017 3.94352637206456 30.0268175897049
vertex 0.640242533108279 6.05488740873407 29.5983810506332
endloop
endfacet
facet normal -0.137071829509646 -0.990561110459561 2.49650896088258e-17
outer loop
vertex 16.25894456271 3.89360322428806 37.1935375
vertex 15.8981707343017 3.94352637206456 27.0129
vertex 16.25894456271 3.89360322428806 27.0129
endloop
endfacet
facet normal -0.137071829509646 -0.990561110459561 2.49650896088258e-17
outer loop
vertex 15.8981707343017 3.94352637206456 27.0129
vertex 16.25894456271 3.89360322428806 37.1935375
vertex 15.9749627853854 3.93290004439765 30.0268175897049
endloop
endfacet
facet normal -0.137071829509646 -0.990561110459561 2.49650896088258e-17
outer loop
vertex 15.8981707343017 3.94352637206456 27.0129
vertex 15.9749627853854 3.93290004439765 30.0268175897049
vertex 15.8981707343017 3.94352637206456 29.5983810506332
endloop
endfacet
facet normal -0.137071829509646 -0.990561110459561 2.49650896088258e-17
outer loop
vertex 15.9749627853854 3.93290004439765 30.0268175897049
vertex 16.25894456271 3.89360322428806 37.1935375
vertex 15.9749627853854 3.93290004439765 32.4175925897049
endloop
endfacet
facet normal -0.137071829509646 -0.990561110459561 2.49650896088258e-17
outer loop
vertex 15.9749627853854 3.93290004439765 32.4175925897049
vertex 16.25894456271 3.89360322428806 37.1935375
vertex 8.2240325902753 5.00545798254686 32.4175925897049
endloop
endfacet
facet normal -0.137071829509646 -0.990561110459561 2.49650896088258e-17
outer loop
vertex 8.2240325902753 5.00545798254686 32.4175925897049
vertex 16.25894456271 3.89360322428806 37.1935375
vertex 7.62321459630381 5.08859795318207 32.4175925897049
endloop
endfacet
facet normal -0.137071829509646 -0.990561110459561 2.49650896088258e-17
outer loop
vertex 7.62321459630381 5.08859795318207 32.4175925897049
vertex 16.25894456271 3.89360322428806 37.1935375
vertex 0.678984987538111 6.04952630677649 32.4175925897049
endloop
endfacet
facet normal -0.137071829509646 -0.990561110459561 2.49650896088258e-17
outer loop
vertex 0.640242533108279 6.05488740873407 29.5983810506332
vertex -16.6538103538358 8.44800323351164 27.0129
vertex 0.640242533108279 6.05488740873408 27.0129
endloop
endfacet
facet normal -0.137071829509646 -0.990561110459561 2.49650896088258e-17
outer loop
vertex -16.6538103538358 8.44800323351164 27.0129
vertex 0.640242533108279 6.05488740873407 29.5983810506332
vertex -16.6538103538358 8.44800323351164 40.5749125
endloop
endfacet
facet normal -0.137071829509646 -0.990561110459561 2.49650896088258e-17
outer loop
vertex -16.6538103538358 8.44800323351164 40.5749125
vertex 0.640242533108279 6.05488740873407 29.5983810506332
vertex 0.678984987538111 6.04952630677649 30.0268175897049
endloop
endfacet
facet normal -0.137071829509646 -0.990561110459561 2.49650896088258e-17
outer loop
vertex 0.678984987538111 6.04952630677649 30.0268175897049
vertex 0.640242533108279 6.05488740873407 29.5983810506332
vertex 15.8981707343017 3.94352637206456 30.0268175897049
endloop
endfacet
facet normal -0.137071829509646 -0.990561110459561 2.49650896088258e-17
outer loop
vertex 0.678984987538111 6.04952630677649 30.0268175897049
vertex 15.8981707343017 3.94352637206456 30.0268175897049
vertex 8.2240325902753 5.00545798254686 30.0268175897049
endloop
endfacet
facet normal -0.137071829509646 -0.990561110459561 2.49650896088258e-17
outer loop
vertex 0.678984987538111 6.04952630677649 30.0268175897049
vertex 8.2240325902753 5.00545798254686 30.0268175897049
vertex 7.62321459630382 5.08859795318207 30.0268175897049
endloop
endfacet
facet normal -0.137071829509646 -0.990561110459561 2.49650896088258e-17
outer loop
vertex -16.6538103538358 8.44800323351164 40.5749125
vertex 0.678984987538111 6.04952630677649 30.0268175897049
vertex 0.678984987538111 6.04952630677649 32.4175925897049
endloop
endfacet
facet normal -0.137071829509646 -0.990561110459561 2.49650896088258e-17
outer loop
vertex -16.6538103538358 8.44800323351164 40.5749125
vertex 0.678984987538111 6.04952630677649 32.4175925897049
vertex 0.208276171253551 6.11466203432844 37.1935375
endloop
endfacet
facet normal -0.137071829509646 -0.990561110459561 2.49650896088258e-17
outer loop
vertex 0.208276171253551 6.11466203432844 37.1935375
vertex 0.678984987538111 6.04952630677649 32.4175925897049
vertex 16.25894456271 3.89360322428806 37.1935375
endloop
endfacet
facet normal -0.137071829509646 -0.990561110459561 2.49650896088258e-17
outer loop
vertex -16.6538103538358 8.44800323351164 40.5749125
vertex 0.208276171253551 6.11466203432844 37.1935375
vertex 0.208276171253551 6.11466203432844 40.5749125
endloop
endfacet
facet normal -0.137071829509646 -0.990561110459561 2.49650896088258e-17
outer loop
vertex 8.2240325902753 5.00545798254686 32.4175925897049
vertex 7.62321459630382 5.08859795318207 30.0268175897049
vertex 8.2240325902753 5.00545798254686 30.0268175897049
endloop
endfacet
facet normal -0.137071829509646 -0.990561110459561 2.49650896088258e-17
outer loop
vertex 7.62321459630382 5.08859795318207 30.0268175897049
vertex 8.2240325902753 5.00545798254686 32.4175925897049
vertex 7.62321459630381 5.08859795318207 32.4175925897049
endloop
endfacet
facet normal -0.137071829509646 -0.990561110459561 2.49650896088258e-17
outer loop
vertex 15.8981707343017 3.94352637206456 30.0268175897049
vertex 15.8981707343017 3.94352637206456 29.5983810506332
vertex 15.9749627853854 3.93290004439765 30.0268175897049
endloop
endfacet
facet normal -0.137071829509646 -0.990561110459561 2.49650896088258e-17
outer loop
vertex 8.2240325902753 5.00545798254686 29.5983810506332
vertex 7.62321459630381 5.08859795318206 27.0129
vertex 8.2240325902753 5.00545798254686 27.0129
endloop
endfacet
facet normal -0.137071829509646 -0.990561110459561 2.49650896088258e-17
outer loop
vertex 7.62321459630381 5.08859795318206 27.0129
vertex 8.2240325902753 5.00545798254686 29.5983810506332
vertex 7.62321459630381 5.08859795318206 29.5983810506332
endloop
endfacet
facet normal -0.137071829509646 -0.990561110459561 0.0
outer loop
vertex 16.8340536232456 10.1411922761474 32.4175925897049
vertex 9.08312342813552 11.2137502142966 30.0268175897049
vertex 16.8340536232456 10.1411922761474 30.0268175897049
endloop
endfacet
facet normal -0.137071829509646 -0.990561110459561 0.0
outer loop
vertex 9.08312342813552 11.2137502142966 30.0268175897049
vertex 16.8340536232456 10.1411922761474 32.4175925897049
vertex 9.08312342813552 11.2137502142966 32.4175925897049
endloop
endfacet
facet normal -0.0 -0.0 -1.0
outer loop
vertex 9.08312342813552 11.2137502142966 32.4175925897049
vertex 15.9749627853854 3.93290004439765 32.4175925897049
vertex 8.2240325902753 5.00545798254686 32.4175925897049
endloop
endfacet
facet normal -0.0 -0.0 -1.0
outer loop
vertex 15.9749627853854 3.93290004439765 32.4175925897049
vertex 9.08312342813552 11.2137502142966 32.4175925897049
vertex 16.8340536232456 10.1411922761474 32.4175925897049
endloop
endfacet
facet normal 0.990561110459561 -0.137071829509646 -0.0
outer loop
vertex 9.08312342813552 11.2137502142966 30.0268175897049
vertex 8.2240325902753 5.00545798254686 32.4175925897049
vertex 8.2240325902753 5.00545798254686 30.0268175897049
endloop
endfacet
facet normal 0.990561110459561 -0.137071829509646 -0.0
outer loop
vertex 8.2240325902753 5.00545798254686 32.4175925897049
vertex 9.08312342813552 11.2137502142966 30.0268175897049
vertex 9.08312342813552 11.2137502142966 32.4175925897049
endloop
endfacet
facet normal -0.0 -0.0 1.0
outer loop
vertex 16.0955121671898 4.804060296162 30.0268175897049
vertex 15.8981707343017 3.94352637206456 30.0268175897049
vertex 15.9749627853854 3.93290004439765 30.0268175897049
endloop
endfacet
facet normal -0.137071829509646 -0.990561110459561 -4.65598208066275e-17
outer loop
vertex 8.48230543416404 11.2968901849318 32.4175925897049
vertex 1.53807582539834 12.2578185385262 30.0268175897049
vertex 8.48230543416405 11.2968901849318 30.0268175897049
endloop
endfacet
facet normal -0.137071829509646 -0.990561110459561 -4.65598208066275e-17
outer loop
vertex 1.53807582539834 12.2578185385262 30.0268175897049
vertex 8.48230543416404 11.2968901849318 32.4175925897049
vertex 1.53807582539834 12.2578185385262 32.4175925897049
endloop
endfacet
facet normal -0.990561110459561 0.137071829509646 -6.28249708330041e-16
outer loop
vertex 8.48230543416404 11.2968901849318 32.4175925897049
vertex 7.62321459630382 5.08859795318207 30.0268175897049
vertex 7.62321459630381 5.08859795318207 32.4175925897049
endloop
endfacet
facet normal -0.990561110459561 0.137071829509646 -6.28249708330041e-16
outer loop
vertex 7.62321459630382 5.08859795318207 30.0268175897049
vertex 8.48230543416404 11.2968901849318 32.4175925897049
vertex 8.48230543416405 11.2968901849318 30.0268175897049
endloop
endfacet
facet normal 6.38203981960574e-18 4.61203478010111e-17 -1.0
outer loop
vertex 1.53807582539834 12.2578185385262 32.4175925897049
vertex 7.62321459630381 5.08859795318207 32.4175925897049
vertex 0.678984987538111 6.04952630677649 32.4175925897049
endloop
endfacet
facet normal 6.38203981960574e-18 4.61203478010111e-17 -1.0
outer loop
vertex 7.62321459630381 5.08859795318207 32.4175925897049
vertex 1.53807582539834 12.2578185385262 32.4175925897049
vertex 8.48230543416404 11.2968901849318 32.4175925897049
endloop
endfacet
facet normal 0.990561110459561 -0.137071829509646 -0.0
outer loop
vertex 1.53807582539834 12.2578185385262 30.0268175897049
vertex 0.678984987538111 6.04952630677649 32.4175925897049
vertex 0.678984987538111 6.04952630677649 30.0268175897049
endloop
endfacet
facet normal 0.990561110459561 -0.137071829509646 -0.0
outer loop
vertex 0.678984987538111 6.04952630677649 32.4175925897049
vertex 1.53807582539834 12.2578185385262 30.0268175897049
vertex 1.53807582539834 12.2578185385262 32.4175925897049
endloop
endfacet
facet normal -6.38203981960574e-18 -4.61203478010111e-17 1.0
outer loop
vertex 7.62321459630382 5.08859795318207 30.0268175897049
vertex 1.53807582539834 12.2578185385262 30.0268175897049
vertex 0.678984987538111 6.04952630677649 30.0268175897049
endloop
endfacet
facet normal -6.38203981960574e-18 -4.61203478010111e-17 1.0
outer loop
vertex 1.53807582539834 12.2578185385262 30.0268175897049
vertex 7.62321459630382 5.08859795318207 30.0268175897049
vertex 8.48230543416405 11.2968901849318 30.0268175897049
endloop
endfacet
facet normal -0.137071829509647 -0.990561110459561 9.78179787157721e-16
outer loop
vertex 16.7572615721619 10.1518186038143 29.5983810506332
vertex 9.08312342813553 11.2137502142966 27.0129
vertex 16.7572615721619 10.1518186038143 27.0129
endloop
endfacet
facet normal -0.137071829509647 -0.990561110459561 9.78179787157721e-16
outer loop
vertex 9.08312342813553 11.2137502142966 27.0129
vertex 16.7572615721619 10.1518186038143 29.5983810506332
vertex 9.08312342813553 11.2137502142966 29.5983810506332
endloop
endfacet
facet normal 0.0 0.0 -1.0
outer loop
vertex 9.08312342813553 11.2137502142966 29.5983810506332
vertex 15.8981707343017 3.94352637206456 29.5983810506332
vertex 8.2240325902753 5.00545798254686 29.5983810506332
endloop
endfacet
facet normal 0.0 0.0 -1.0
outer loop
vertex 15.8981707343017 3.94352637206456 29.5983810506332
vertex 9.08312342813553 11.2137502142966 29.5983810506332
vertex 16.7572615721619 10.1518186038143 29.5983810506332
endloop
endfacet
facet normal 0.990561110459561 -0.137071829509647 0.0
outer loop
vertex 9.08312342813553 11.2137502142966 27.0129
vertex 8.2240325902753 5.00545798254686 29.5983810506332
vertex 8.2240325902753 5.00545798254686 27.0129
endloop
endfacet
facet normal 0.990561110459561 -0.137071829509647 0.0
outer loop
vertex 8.2240325902753 5.00545798254686 29.5983810506332
vertex 9.08312342813553 11.2137502142966 27.0129
vertex 9.08312342813553 11.2137502142966 29.5983810506332
endloop
endfacet
facet normal -0.137071829509647 -0.990561110459561 -1.12004327645887e-15
outer loop
vertex 8.48230543416405 11.2968901849318 29.5983810506332
vertex 1.49933337096851 12.2631796404838 27.0129
vertex 8.48230543416405 11.2968901849318 27.0129
endloop
endfacet
facet normal -0.137071829509647 -0.990561110459561 -1.12004327645887e-15
outer loop
vertex 1.49933337096851 12.2631796404838 27.0129
vertex 8.48230543416405 11.2968901849318 29.5983810506332
vertex 1.49933337096851 12.2631796404838 29.5983810506332
endloop
endfacet
facet normal -0.990561110459561 0.137071829509647 0.0
outer loop
vertex 8.48230543416405 11.2968901849318 29.5983810506332
vertex 7.62321459630381 5.08859795318206 27.0129
vertex 7.62321459630381 5.08859795318206 29.5983810506332
endloop
endfacet
facet normal -0.990561110459561 0.137071829509647 0.0
outer loop
vertex 7.62321459630381 5.08859795318206 27.0129
vertex 8.48230543416405 11.2968901849318 29.5983810506332
vertex 8.48230543416405 11.2968901849318 27.0129
endloop
endfacet
facet normal 1.53526381034197e-16 1.10947131169187e-15 -1.0
outer loop
vertex 1.49933337096851 12.2631796404838 29.5983810506332
vertex 7.62321459630381 5.08859795318206 29.5983810506332
vertex 0.640242533108279 6.05488740873407 29.5983810506332
endloop
endfacet
facet normal 1.53526381034197e-16 1.10947131169187e-15 -1.0
outer loop
vertex 7.62321459630381 5.08859795318206 29.5983810506332
vertex 1.49933337096851 12.2631796404838 29.5983810506332
vertex 8.48230543416405 11.2968901849318 29.5983810506332
endloop
endfacet
facet normal 0.990561110459561 -0.137071829509647 -3.1238665005116e-16
outer loop
vertex 0.640242533108279 6.05488740873408 27.0129
vertex 1.49933337096851 12.2631796404838 29.5983810506332
vertex 0.640242533108279 6.05488740873407 29.5983810506332
endloop
endfacet
facet normal 0.990561110459561 -0.137071829509647 -3.1238665005116e-16
outer loop
vertex 1.49933337096851 12.2631796404838 29.5983810506332
vertex 0.640242533108279 6.05488740873408 27.0129
vertex 1.49933337096851 12.2631796404838 27.0129
endloop
endfacet
facet normal -0.137071829509651 -0.99056111045956 8.53556487695799e-17
outer loop
vertex 17.0098428268686 9.32003271784622 32.2553334869097
vertex 16.725861049544 9.35932953795581 27.0129
vertex 17.0098428268686 9.32003271784622 27.0129
endloop
endfacet
facet normal -0.137071829509651 -0.99056111045956 8.53556487695799e-17
outer loop
vertex 16.725861049544 9.35932953795581 27.0129
vertex 17.0098428268686 9.32003271784622 32.2553334869097
vertex 16.725861049544 9.35932953795581 29.6341167434549
endloop
endfacet
facet normal -0.137071829509651 -0.99056111045956 8.53556487695799e-17
outer loop
vertex 16.725861049544 9.35932953795581 29.6341167434549
vertex 17.0098428268686 9.32003271784622 32.2553334869097
vertex 16.725861049544 9.35932953795581 30.0268175897049
endloop
endfacet
facet normal -0.137071829509651 -0.99056111045956 8.53556487695799e-17
outer loop
vertex 16.725861049544 9.35932953795581 30.0268175897049
vertex 17.0098428268686 9.32003271784622 32.2553334869097
vertex 16.725861049544 9.35932953795581 32.2553334869097
endloop
endfacet
facet normal -3.3243435954325e-16 4.60015897790708e-17 -1.0
outer loop
vertex 16.725861049544 9.35932953795581 32.2553334869097
vertex 16.3794939445144 4.76476347605242 32.2553334869097
vertex 16.0955121671898 4.804060296162 32.2553334869097
endloop
endfacet
facet normal -3.3243435954325e-16 4.60015897790708e-17 -1.0
outer loop
vertex 16.3794939445144 4.76476347605242 32.2553334869097
vertex 16.725861049544 9.35932953795581 32.2553334869097
vertex 17.0098428268686 9.32003271784622 32.2553334869097
endloop
endfacet
facet normal 0.137071829509647 0.990561110459561 -0.0
outer loop
vertex 16.0955121671898 4.804060296162 29.6341167434549
vertex 16.3794939445144 4.76476347605242 27.0129
vertex 16.0955121671898 4.804060296162 27.0129
endloop
endfacet
facet normal 0.137071829509647 0.990561110459561 -0.0
outer loop
vertex 16.3794939445144 4.76476347605242 27.0129
vertex 16.0955121671898 4.804060296162 29.6341167434549
vertex 16.3794939445144 4.76476347605242 32.2553334869097
endloop
endfacet
facet normal 0.137071829509647 0.990561110459561 -0.0
outer loop
vertex 16.3794939445144 4.76476347605242 32.2553334869097
vertex 16.0955121671898 4.804060296162 29.6341167434549
vertex 16.0955121671898 4.804060296162 30.0268175897049
endloop
endfacet
facet normal 0.137071829509647 0.990561110459561 -0.0
outer loop
vertex 16.3794939445144 4.76476347605242 32.2553334869097
vertex 16.0955121671898 4.804060296162 30.0268175897049
vertex 16.0955121671898 4.804060296162 32.2553334869097
endloop
endfacet
facet normal -0.990561110459561 0.137071829509648 2.51722591776164e-16
outer loop
vertex 15.9749627853854 3.93290004439765 32.4175925897049
vertex 16.0955121671898 4.804060296162 32.2553334869097
vertex 15.9749627853854 3.93290004439765 30.0268175897049
endloop
endfacet
facet normal -0.990561110459561 0.137071829509648 2.51722591776164e-16
outer loop
vertex 16.0955121671898 4.804060296162 32.2553334869097
vertex 15.9749627853854 3.93290004439765 32.4175925897049
vertex 16.8340536232456 10.1411922761474 32.4175925897049
endloop
endfacet
facet normal -0.990561110459561 0.137071829509648 2.51722591776164e-16
outer loop
vertex 16.0955121671898 4.804060296162 32.2553334869097
vertex 16.8340536232456 10.1411922761474 32.4175925897049
vertex 16.725861049544 9.35932953795581 32.2553334869097
endloop
endfacet
facet normal -0.990561110459561 0.137071829509648 2.51722591776164e-16
outer loop
vertex 16.725861049544 9.35932953795581 32.2553334869097
vertex 16.8340536232456 10.1411922761474 32.4175925897049
vertex 16.725861049544 9.35932953795581 30.0268175897049
endloop
endfacet
facet normal -0.990561110459561 0.137071829509648 2.51722591776164e-16
outer loop
vertex 16.725861049544 9.35932953795581 30.0268175897049
vertex 16.8340536232456 10.1411922761474 32.4175925897049
vertex 16.8340536232456 10.1411922761474 30.0268175897049
endloop
endfacet
facet normal -0.990561110459561 0.137071829509648 2.51722591776164e-16
outer loop
vertex 16.0955121671898 4.804060296162 30.0268175897049
vertex 15.9749627853854 3.93290004439765 30.0268175897049
vertex 16.0955121671898 4.804060296162 32.2553334869097
endloop
endfacet
facet normal -0.0 -0.0 1.0
outer loop
vertex 17.0098428268686 9.32003271784622 27.0129
vertex 16.8340536232456 10.1411922761474 27.0129
vertex 16.725861049544 9.35932953795581 27.0129
endloop
endfacet
facet normal -0.0 -0.0 1.0
outer loop
vertex 16.8340536232456 10.1411922761474 27.0129
vertex 17.0098428268686 9.32003271784622 27.0129
vertex 17.1180354005702 10.1018954560378 27.0129
endloop
endfacet
facet normal -0.974698831185135 0.223522232644387 -7.78947343249919e-17
outer loop
vertex 16.0955121671898 4.804060296162 30.0268175897049
vertex 15.8981707343017 3.94352637206456 29.5983810506332
vertex 15.8981707343017 3.94352637206456 30.0268175897049
endloop
endfacet
facet normal -0.974698831185135 0.223522232644387 -7.78947343249919e-17
outer loop
vertex 15.8981707343017 3.94352637206456 29.5983810506332
vertex 16.0955121671898 4.804060296162 27.0129
vertex 15.8981707343017 3.94352637206456 27.0129
endloop
endfacet
facet normal -0.974698831185135 0.223522232644387 -7.78947343249919e-17
outer loop
vertex 16.0955121671898 4.804060296162 27.0129
vertex 15.8981707343017 3.94352637206456 29.5983810506332
vertex 16.0955121671898 4.804060296162 30.0268175897049
endloop
endfacet
facet normal -0.974698831185135 0.223522232644387 -7.78947343249919e-17
outer loop
vertex 16.0955121671898 4.804060296162 27.0129
vertex 16.0955121671898 4.804060296162 30.0268175897049
vertex 16.0955121671898 4.804060296162 29.6341167434549
endloop
endfacet
facet normal -0.0 -0.0 1.0
outer loop
vertex 15.8981707343017 3.94352637206456 30.0268175897049
vertex 9.08312342813552 11.2137502142966 30.0268175897049
vertex 8.2240325902753 5.00545798254686 30.0268175897049
endloop
endfacet
facet normal -0.0 -0.0 1.0
outer loop
vertex 9.08312342813552 11.2137502142966 30.0268175897049
vertex 15.8981707343017 3.94352637206456 30.0268175897049
vertex 16.8340536232456 10.1411922761474 30.0268175897049
endloop
endfacet
facet normal -0.0 -0.0 1.0
outer loop
vertex 16.8340536232456 10.1411922761474 30.0268175897049
vertex 15.8981707343017 3.94352637206456 30.0268175897049
vertex 16.0955121671898 4.804060296162 30.0268175897049
endloop
endfacet
facet normal -0.0 -0.0 1.0
outer loop
vertex 16.8340536232456 10.1411922761474 30.0268175897049
vertex 16.0955121671898 4.804060296162 30.0268175897049
vertex 16.725861049544 9.35932953795581 30.0268175897049
endloop
endfacet
facet normal -0.0 -0.0 1.0
outer loop
vertex 16.25894456271 3.89360322428806 27.0129
vertex 16.0955121671898 4.804060296162 27.0129
vertex 15.8981707343017 3.94352637206456 27.0129
endloop
endfacet
facet normal -0.0 -0.0 1.0
outer loop
vertex 16.0955121671898 4.804060296162 27.0129
vertex 16.25894456271 3.89360322428806 27.0129
vertex 16.3794939445144 4.76476347605242 27.0129
endloop
endfacet
facet normal -0.990561110459561 0.137071829509645 7.30242183656713e-15
outer loop
vertex 16.8340536232456 10.1411922761474 30.0268175897049
vertex 16.725861049544 9.35932953795581 29.6341167434549
vertex 16.725861049544 9.35932953795581 30.0268175897049
endloop
endfacet
facet normal -0.990561110459561 0.137071829509645 7.30242183656713e-15
outer loop
vertex 16.725861049544 9.35932953795581 29.6341167434549
vertex 16.8340536232456 10.1411922761474 30.0268175897049
vertex 16.8340536232456 10.1411922761474 29.6341167434549
endloop
endfacet
facet normal -0.0 -0.0 1.0
outer loop
vertex -16.6538103538358 8.44800323351164 27.0129
vertex -12.3598046429506 7.46691316379813 27.0129
vertex 0.640242533108279 6.05488740873408 27.0129
endloop
endfacet
facet normal -0.0 -0.0 1.0
outer loop
vertex -12.3598046429506 7.46691316379813 27.0129
vertex -16.6538103538358 8.44800323351164 27.0129
vertex -12.5767533677091 5.89911494823214 27.0129
endloop
endfacet
facet normal -0.0 -0.0 1.0
outer loop
vertex 0.640242533108279 6.05488740873408 27.0129
vertex -12.3598046429506 7.46691316379813 27.0129
vertex -9.20848305419004 7.03083969898761 27.0129
endloop
endfacet
facet normal -0.0 -0.0 1.0
outer loop
vertex 0.640242533108279 6.05488740873408 27.0129
vertex -9.20848305419004 7.03083969898761 27.0129
vertex -5.16482828636157 4.27690661920147 27.0129
endloop
endfacet
facet normal -0.0 -0.0 1.0
outer loop
vertex -5.16482828636157 4.27690661920147 27.0129
vertex -9.20848305419004 7.03083969898761 27.0129
vertex -5.8397663971361 1.0727700481748 27.0129
endloop
endfacet
facet normal -0.0 -0.0 1.0
outer loop
vertex -5.8397663971361 1.0727700481748 27.0129
vertex -9.20848305419004 7.03083969898761 27.0129
vertex -6.11590273787689 -0.922752454887629 27.0129
endloop
endfacet
facet normal -0.0 -0.0 1.0
outer loop
vertex -5.16482828636157 4.27690661920147 27.0129
vertex -5.8397663971361 1.0727700481748 27.0129
vertex -5.44683986839472 2.23892619054197 27.0129
endloop
endfacet
facet normal -0.0 -0.0 1.0
outer loop
vertex 0.640242533108279 6.05488740873408 27.0129
vertex -5.16482828636157 4.27690661920147 27.0129
vertex -1.2193862373595 3.73094438207094 27.0129
endloop
endfacet
facet normal -0.0 -0.0 1.0
outer loop
vertex -1.61598905810877 0.488292340349929 27.0129
vertex -5.44683986839472 2.23892619054197 27.0129
vertex -5.8397663971361 1.0727700481748 27.0129
endloop
endfacet
facet normal -0.0 -0.0 1.0
outer loop
vertex -5.44683986839472 2.23892619054197 27.0129
vertex -1.61598905810877 0.488292340349929 27.0129
vertex -1.50139781939265 1.69296395341144 27.0129
endloop
endfacet
facet normal -0.0 -0.0 1.0
outer loop
vertex -12.5767533677091 5.89911494823214 27.0129
vertex -11.9174874380446 4.81342324851787 27.0129
vertex -9.42543177894857 5.46304148342163 27.0129
endloop
endfacet
facet normal -0.0 -0.0 1.0
outer loop
vertex -11.9174874380446 4.81342324851787 27.0129
vertex -12.5767533677091 5.89911494823214 27.0129
vertex -12.0804709835252 3.63560894213981 27.0129
endloop
endfacet
facet normal -0.0 -0.0 1.0
outer loop
vertex -9.42543177894857 5.46304148342163 27.0129
vertex -11.9174874380446 4.81342324851787 27.0129
vertex -10.0117438578891 4.54971033232333 27.0129
endloop
endfacet
facet normal -0.0 -0.0 1.0
outer loop
vertex -20.7342742321426 -21.0398123515369 27.0129
vertex -12.0804709835252 3.63560894213981 27.0129
vertex -16.6538103538358 8.44800323351164 27.0129
endloop
endfacet
facet normal -0.0 -0.0 1.0
outer loop
vertex -12.0804709835252 3.63560894213981 27.0129
vertex -20.7342742321426 -21.0398123515369 27.0129
vertex 26.2399166358486 -27.5400052361775 27.0129
endloop
endfacet
facet normal -0.0 -0.0 1.0
outer loop
vertex -16.6538103538358 8.44800323351164 27.0129
vertex -12.0804709835252 3.63560894213981 27.0129
vertex -12.5767533677091 5.89911494823214 27.0129
endloop
endfacet
facet normal -0.0 -0.0 1.0
outer loop
vertex -12.0804709835252 3.63560894213981 27.0129
vertex 26.2399166358486 -27.5400052361775 27.0129
vertex -6.11590273787689 -0.922752454887629 27.0129
endloop
endfacet
facet normal -0.0 -0.0 1.0
outer loop
vertex -12.0804709835252 3.63560894213981 27.0129
vertex -6.11590273787689 -0.922752454887629 27.0129
vertex -10.1747274033696 3.37189602594527 27.0129
endloop
endfacet
facet normal -0.0 -0.0 1.0
outer loop
vertex -10.1747274033696 3.37189602594527 27.0129
vertex -6.11590273787689 -0.922752454887629 27.0129
vertex -10.0117438578891 4.54971033232333 27.0129
endloop
endfacet
facet normal -0.0 -0.0 1.0
outer loop
vertex -10.0117438578891 4.54971033232333 27.0129
vertex -6.11590273787689 -0.922752454887629 27.0129
vertex -9.42543177894857 5.46304148342163 27.0129
endloop
endfacet
facet normal -0.0 -0.0 1.0
outer loop
vertex -9.42543177894857 5.46304148342163 27.0129
vertex -6.11590273787689 -0.922752454887629 27.0129
vertex -9.20848305419004 7.03083969898761 27.0129
endloop
endfacet
facet normal -0.0 -0.0 1.0
outer loop
vertex -6.11590273787689 -0.922752454887629 27.0129
vertex 26.2399166358486 -27.5400052361775 27.0129
vertex -1.89212539884956 -1.5072301627125 27.0129
endloop
endfacet
facet normal -0.0 -0.0 1.0
outer loop
vertex -1.89212539884956 -1.5072301627125 27.0129
vertex 26.2399166358486 -27.5400052361775 27.0129
vertex -1.61598905810877 0.488292340349929 27.0129
endloop
endfacet
facet normal -0.0 -0.0 1.0
outer loop
vertex -1.61598905810877 0.488292340349929 27.0129
vertex 26.2399166358486 -27.5400052361775 27.0129
vertex -1.50139781939265 1.69296395341144 27.0129
endloop
endfacet
facet normal -0.0 -0.0 1.0
outer loop
vertex -1.50139781939265 1.69296395341144 27.0129
vertex 26.2399166358486 -27.5400052361775 27.0129
vertex -1.2193862373595 3.73094438207094 27.0129
endloop
endfacet
facet normal -0.0 -0.0 1.0
outer loop
vertex -1.2193862373595 3.73094438207094 27.0129
vertex 26.2399166358486 -27.5400052361775 27.0129
vertex 0.640242533108279 6.05488740873408 27.0129
endloop
endfacet
facet normal -0.0 -0.0 1.0
outer loop
vertex 0.640242533108279 6.05488740873408 27.0129
vertex 26.2399166358486 -27.5400052361775 27.0129
vertex 1.49933337096851 12.2631796404838 27.0129
endloop
endfacet
facet normal -0.0 -0.0 1.0
outer loop
vertex 1.49933337096851 12.2631796404838 27.0129
vertex 26.2399166358486 -27.5400052361775 27.0129
vertex 7.62321459630381 5.08859795318206 27.0129
endloop
endfacet
facet normal -0.0 -0.0 1.0
outer loop
vertex 7.62321459630381 5.08859795318206 27.0129
vertex 26.2399166358486 -27.5400052361775 27.0129
vertex 8.2240325902753 5.00545798254686 27.0129
endloop
endfacet
facet normal -0.0 -0.0 1.0
outer loop
vertex 8.2240325902753 5.00545798254686 27.0129
vertex 26.2399166358486 -27.5400052361775 27.0129
vertex 9.08312342813553 11.2137502142966 27.0129
endloop
endfacet
facet normal -0.0 -0.0 1.0
outer loop
vertex 9.08312342813553 11.2137502142966 27.0129
vertex 26.2399166358486 -27.5400052361775 27.0129
vertex 15.8981707343017 3.94352637206456 27.0129
endloop
endfacet
facet normal -0.0 -0.0 1.0
outer loop
vertex 15.8981707343017 3.94352637206456 27.0129
vertex 26.2399166358486 -27.5400052361775 27.0129
vertex 16.25894456271 3.89360322428806 27.0129
endloop
endfacet
facet normal -0.0 -0.0 1.0
outer loop
vertex 16.25894456271 3.89360322428806 27.0129
vertex 26.2399166358486 -27.5400052361775 27.0129
vertex 16.3794939445144 4.76476347605242 27.0129
endloop
endfacet
facet normal -0.0 -0.0 1.0
outer loop
vertex 16.3794939445144 4.76476347605242 27.0129
vertex 26.2399166358486 -27.5400052361775 27.0129
vertex 16.725861049544 9.35932953795581 27.0129
endloop
endfacet
facet normal -0.0 -0.0 1.0
outer loop
vertex 16.725861049544 9.35932953795581 27.0129
vertex 26.2399166358486 -27.5400052361775 27.0129
vertex 17.0098428268686 9.32003271784622 27.0129
endloop
endfacet
facet normal -0.0 -0.0 1.0
outer loop
vertex 17.0098428268686 9.32003271784622 27.0129
vertex 26.2399166358486 -27.5400052361775 27.0129
vertex 17.1180354005702 10.1018954560378 27.0129
endloop
endfacet
facet normal -0.0 -0.0 1.0
outer loop
vertex 17.1180354005702 10.1018954560378 27.0129
vertex 26.2399166358486 -27.5400052361775 27.0129
vertex 31.1794713520156 8.15610258062086 27.0129
endloop
endfacet
facet normal -0.0 -0.0 1.0
outer loop
vertex 15.8981707343017 3.94352637206456 27.0129
vertex 16.7572615721619 10.1518186038143 27.0129
vertex 9.08312342813553 11.2137502142966 27.0129
endloop
endfacet
facet normal -0.0 -0.0 1.0
outer loop
vertex 16.7572615721619 10.1518186038143 27.0129
vertex 15.8981707343017 3.94352637206456 27.0129
vertex 16.0955121671898 4.804060296162 27.0129
endloop
endfacet
facet normal -0.0 -0.0 1.0
outer loop
vertex 16.7572615721619 10.1518186038143 27.0129
vertex 16.0955121671898 4.804060296162 27.0129
vertex 16.3794939445144 4.76476347605242 27.0129
endloop
endfacet
facet normal -0.0 -0.0 1.0
outer loop
vertex 16.7572615721619 10.1518186038143 27.0129
vertex 16.3794939445144 4.76476347605242 27.0129
vertex 16.725861049544 9.35932953795581 27.0129
endloop
endfacet
facet normal -0.0 -0.0 1.0
outer loop
vertex 16.7572615721619 10.1518186038143 27.0129
vertex 16.725861049544 9.35932953795581 27.0129
vertex 16.8340536232456 10.1411922761474 27.0129
endloop
endfacet
facet normal -0.0 -0.0 1.0
outer loop
vertex 8.48230543416405 11.2968901849318 27.0129
vertex 1.49933337096851 12.2631796404838 27.0129
vertex 7.62321459630381 5.08859795318206 27.0129
endloop
endfacet
facet normal 0.0 0.0 -1.0
outer loop
vertex 15.0824493332855 10.5470299282044 29.6341167434549
vertex 16.0955121671898 4.804060296162 29.6341167434549
vertex 14.3217143866899 5.04951482126493 29.6341167434549
endloop
endfacet
facet normal 0.0 0.0 -1.0
outer loop
vertex 16.0955121671898 4.804060296162 29.6341167434549
vertex 15.0824493332855 10.5470299282044 29.6341167434549
vertex 16.8562471137854 10.3015754031015 29.6341167434549
endloop
endfacet
facet normal 0.0 0.0 -1.0
outer loop
vertex 16.0955121671898 4.804060296162 29.6341167434549
vertex 16.8562471137854 10.3015754031015 29.6341167434549
vertex 16.725861049544 9.35932953795581 29.6341167434549
endloop
endfacet
facet normal 0.0 0.0 -1.0
outer loop
vertex 16.725861049544 9.35932953795581 29.6341167434549
vertex 16.8562471137854 10.3015754031015 29.6341167434549
vertex 16.8340536232456 10.1411922761474 29.6341167434549
endloop
endfacet
facet normal -0.990561110459561 0.137071829509647 3.65121091828356e-15
outer loop
vertex 16.725861049544 9.35932953795581 30.0268175897049
vertex 16.0955121671898 4.804060296162 29.6341167434549
vertex 16.0955121671898 4.804060296162 30.0268175897049
endloop
endfacet
facet normal -0.990561110459561 0.137071829509647 3.65121091828356e-15
outer loop
vertex 16.0955121671898 4.804060296162 29.6341167434549
vertex 16.725861049544 9.35932953795581 30.0268175897049
vertex 16.725861049544 9.35932953795581 29.6341167434549
endloop
endfacet
facet normal -0.990561110459561 0.137071829509647 -1.67442282115728e-15
outer loop
vertex 16.725861049544 9.35932953795581 29.6341167434549
vertex 16.8340536232456 10.1411922761474 27.0129
vertex 16.725861049544 9.35932953795581 27.0129
endloop
endfacet
facet normal -0.990561110459561 0.137071829509647 -1.67442282115728e-15
outer loop
vertex 16.8340536232456 10.1411922761474 27.0129
vertex 16.725861049544 9.35932953795581 29.6341167434549
vertex 16.8340536232456 10.1411922761474 29.6341167434549
endloop
endfacet
facet normal 0.990561110459561 -0.137071829509646 1.65766670068079e-17
outer loop
vertex 29.242428968523 5.39197624076621 -2.55259951071083e-17
vertex 28.935323053804 3.17264950527983 4.23684959613699
vertex 28.935323053804 3.17264950527983 -2.55259951071083e-17
endloop
endfacet
facet normal 0.990561110459561 -0.137071829509646 1.65766670068079e-17
outer loop
vertex 28.935323053804 3.17264950527983 4.23684959613699
vertex 29.242428968523 5.39197624076621 -2.55259951071083e-17
vertex 29.6301711512939 8.1940277528206 4.23684959613699
endloop
endfacet
facet normal 0.990561110459561 -0.137071829509646 1.65766670068079e-17
outer loop
vertex 29.6301711512939 8.1940277528206 4.23684959613699
vertex 29.242428968523 5.39197624076621 -2.55259951071083e-17
vertex 29.6301711512939 8.1940277528206 -2.55259951071083e-17
endloop
endfacet
facet normal -0.137071829509646 -0.990561110459561 3.37560898096225e-16
outer loop
vertex 31.1555114412628 7.98295426935443 0.0
vertex 29.6301711512939 8.1940277528206 4.23684959613699
vertex 29.6301711512939 8.1940277528206 -2.55259951071083e-17
endloop
endfacet
facet normal -0.137071829509646 -0.990561110459561 3.37560898096225e-16
outer loop
vertex 29.6301711512939 8.1940277528206 4.23684959613699
vertex 31.1555114412628 7.98295426935443 0.0
vertex 31.1555114412628 7.98295426935443 4.23684959613699
endloop
endfacet
facet normal 1.6420201677982e-17 -2.27219407379535e-18 -1.0
outer loop
vertex 29.6301711512939 8.1940277528206 4.23684959613699
vertex 30.4606633437729 2.96157602181366 4.23684959613699
vertex 28.935323053804 3.17264950527983 4.23684959613699
endloop
endfacet
facet normal 1.6420201677982e-17 -2.27219407379535e-18 -1.0
outer loop
vertex 30.4606633437729 2.96157602181366 4.23684959613699
vertex 29.6301711512939 8.1940277528206 4.23684959613699
vertex 31.1555114412628 7.98295426935443 4.23684959613699
endloop
endfacet
facet normal 0.137071829509646 0.990561110459561 0.0
outer loop
vertex 28.935323053804 3.17264950527983 4.23684959613699
vertex 30.4606633437729 2.96157602181366 0.0
vertex 28.935323053804 3.17264950527983 -2.55259951071083e-17
endloop
endfacet
facet normal 0.137071829509646 0.990561110459561 0.0
outer loop
vertex 30.4606633437729 2.96157602181366 0.0
vertex 28.935323053804 3.17264950527983 4.23684959613699
vertex 30.4606633437729 2.96157602181366 4.23684959613699
endloop
endfacet
endsolid West Broadway building
