solid WHAS11 Studios
facet normal 0.0 0.0 -1.0
outer loop
vertex -22.5846401676091 15.913514768424 0.0
vertex -2.15348233112373 -15.9424742742289 0.0
vertex -26.3378088128589 -12.7790069127182 0.0
endloop
endfacet
facet normal 0.0 0.0 -1.0
outer loop
vertex -2.15348233112373 -15.9424742742289 0.0
vertex -22.5846401676091 15.913514768424 0.0
vertex 1.59968631412607 12.7500474069133 0.0
endloop
endfacet
facet normal 0.0 0.0 -1.0
outer loop
vertex -2.15348233112373 -15.9424742742289 0.0
vertex 1.59968631412607 12.7500474069133 0.0
vertex -0.628491895538984 -4.284106299763 0.0
endloop
endfacet
facet normal 0.0 0.0 -1.0
outer loop
vertex -0.628491895538984 -4.284106299763 0.0
vertex 1.59968631412607 12.7500474069133 0.0
vertex -0.0556978358268795 0.094835210877569 0.0
endloop
endfacet
facet normal -0.0 -0.0 1.0
outer loop
vertex -2.15348233112373 -15.9424742742289 5.9055
vertex -25.9295027151644 -12.4651627684058 5.9055
vertex -26.3378088128589 -12.7790069127182 5.9055
endloop
endfacet
facet normal -0.0 -0.0 1.0
outer loop
vertex -25.9295027151644 -12.4651627684058 5.9055
vertex -2.15348233112373 -15.9424742742289 5.9055
vertex -2.46732647543607 -15.5341681765345 5.9055
endloop
endfacet
facet normal -0.0 -0.0 1.0
outer loop
vertex -2.46732647543607 -15.5341681765345 5.9055
vertex -2.15348233112373 -15.9424742742289 5.9055
vertex -0.416772956830274 0.142066187568627 5.9055
endloop
endfacet
facet normal -0.0 -0.0 1.0
outer loop
vertex -0.416772956830274 0.142066187568627 5.9055
vertex -2.15348233112373 -15.9424742742289 5.9055
vertex -0.055697835826881 0.094835210877569 5.9055
endloop
endfacet
facet normal -0.0 -0.0 1.0
outer loop
vertex -0.416772956830274 0.142066187568627 5.9055
vertex -0.055697835826881 0.094835210877569 5.9055
vertex 1.19138021643161 12.4362032626009 5.9055
endloop
endfacet
facet normal -0.0 -0.0 1.0
outer loop
vertex 1.19138021643161 12.4362032626009 5.9055
vertex -0.055697835826881 0.094835210877569 5.9055
vertex 1.59968631412607 12.7500474069133 5.9055
endloop
endfacet
facet normal -0.0 -0.0 1.0
outer loop
vertex -25.9295027151644 -12.4651627684058 5.9055
vertex -22.5846401676091 15.913514768424 5.9055
vertex -26.3378088128589 -12.7790069127182 5.9055
endloop
endfacet
facet normal -0.0 -0.0 1.0
outer loop
vertex -22.5846401676091 15.913514768424 5.9055
vertex -25.9295027151644 -12.4651627684058 5.9055
vertex -22.2707960232968 15.5052086707295 5.9055
endloop
endfacet
facet normal -0.0 -0.0 1.0
outer loop
vertex -22.5846401676091 15.913514768424 5.9055
vertex -22.2707960232968 15.5052086707295 5.9055
vertex 1.59968631412607 12.7500474069133 5.9055
endloop
endfacet
facet normal -0.0 -0.0 1.0
outer loop
vertex 1.59968631412607 12.7500474069133 5.9055
vertex -22.2707960232968 15.5052086707295 5.9055
vertex 1.19138021643161 12.4362032626009 5.9055
endloop
endfacet
facet normal 0.991553072495276 -0.129701597619991 1.78480999162832e-17
outer loop
vertex -0.628491895538984 -4.284106299763 0.0
vertex -2.15348233112373 -15.9424742742289 5.9055
vertex -2.15348233112373 -15.9424742742289 0.0
endloop
endfacet
facet normal 0.991553072495276 -0.129701597619991 1.78480999162832e-17
outer loop
vertex -2.15348233112373 -15.9424742742289 5.9055
vertex -0.628491895538984 -4.284106299763 0.0
vertex -0.628491895538984 -4.284106299763 5.65785
endloop
endfacet
facet normal 0.991553072495276 -0.129701597619991 1.78480999162832e-17
outer loop
vertex -2.15348233112373 -15.9424742742289 5.9055
vertex -0.628491895538984 -4.284106299763 5.65785
vertex -0.055697835826881 0.094835210877569 5.9055
endloop
endfacet
facet normal 0.991553072495276 -0.129701597619991 1.78480999162832e-17
outer loop
vertex -0.628491895538984 -4.284106299763 5.65785
vertex -0.628491895538984 -4.284106299763 0.0
vertex -0.628491895538984 -4.284106299763 5.0292
endloop
endfacet
facet normal 0.991553072495276 -0.129701597619991 1.78480999162832e-17
outer loop
vertex -0.055697835826881 0.094835210877569 5.9055
vertex -0.628491895538984 -4.284106299763 5.65785
vertex -0.0556978358268795 0.094835210877569 5.0292
endloop
endfacet
facet normal -0.129701597619991 -0.991553072495276 -0.0
outer loop
vertex -2.15348233112373 -15.9424742742289 5.9055
vertex -26.3378088128589 -12.7790069127182 0.0
vertex -2.15348233112373 -15.9424742742289 0.0
endloop
endfacet
facet normal -0.129701597619991 -0.991553072495276 -0.0
outer loop
vertex -26.3378088128589 -12.7790069127182 0.0
vertex -2.15348233112373 -15.9424742742289 5.9055
vertex -26.3378088128589 -12.7790069127182 5.9055
endloop
endfacet
facet normal -0.991553072495276 0.129701597619991 0.0
outer loop
vertex -22.5846401676091 15.913514768424 5.9055
vertex -26.3378088128589 -12.7790069127182 0.0
vertex -26.3378088128589 -12.7790069127182 5.9055
endloop
endfacet
facet normal -0.991553072495276 0.129701597619991 0.0
outer loop
vertex -26.3378088128589 -12.7790069127182 0.0
vertex -22.5846401676091 15.913514768424 5.9055
vertex -22.5846401676091 15.913514768424 0.0
endloop
endfacet
facet normal 0.991553072495276 -0.129701597619991 8.8839074254732e-17
outer loop
vertex 1.59968631412607 12.7500474069133 0.0
vertex -0.0556978358268795 0.094835210877569 5.0292
vertex -0.0556978358268795 0.094835210877569 0.0
endloop
endfacet
facet normal 0.991553072495276 -0.129701597619991 8.8839074254732e-17
outer loop
vertex -0.0556978358268795 0.094835210877569 5.0292
vertex 1.59968631412607 12.7500474069133 0.0
vertex -0.055697835826881 0.094835210877569 5.9055
endloop
endfacet
facet normal 0.991553072495276 -0.129701597619991 8.8839074254732e-17
outer loop
vertex -0.055697835826881 0.094835210877569 5.9055
vertex 1.59968631412607 12.7500474069133 0.0
vertex 1.59968631412607 12.7500474069133 5.9055
endloop
endfacet
facet normal 0.0 0.0 1.0
outer loop
vertex -2.46732647543607 -15.5341681765345 5.4737
vertex -22.2707960232968 15.5052086707295 5.4737
vertex -25.9295027151644 -12.4651627684058 5.4737
endloop
endfacet
facet normal 0.0 0.0 1.0
outer loop
vertex -22.2707960232968 15.5052086707295 5.4737
vertex -2.46732647543607 -15.5341681765345 5.4737
vertex -0.416772956830274 0.142066187568627 5.4737
endloop
endfacet
facet normal 0.0 0.0 1.0
outer loop
vertex -22.2707960232968 15.5052086707295 5.4737
vertex -0.416772956830274 0.142066187568627 5.4737
vertex 1.19138021643161 12.4362032626009 5.4737
endloop
endfacet
facet normal 0.991553072495276 -0.129701597619991 -0.0
outer loop
vertex -22.2707960232968 15.5052086707295 5.4737
vertex -25.9295027151644 -12.4651627684058 5.9055
vertex -25.9295027151644 -12.4651627684058 5.4737
endloop
endfacet
facet normal 0.991553072495276 -0.129701597619991 -0.0
outer loop
vertex -25.9295027151644 -12.4651627684058 5.9055
vertex -22.2707960232968 15.5052086707295 5.4737
vertex -22.2707960232968 15.5052086707295 5.9055
endloop
endfacet
facet normal 0.129701597619991 0.991553072495276 0.0
outer loop
vertex -25.9295027151644 -12.4651627684058 5.9055
vertex -2.46732647543607 -15.5341681765345 5.4737
vertex -25.9295027151644 -12.4651627684058 5.4737
endloop
endfacet
facet normal 0.129701597619991 0.991553072495276 0.0
outer loop
vertex -2.46732647543607 -15.5341681765345 5.4737
vertex -25.9295027151644 -12.4651627684058 5.9055
vertex -2.46732647543607 -15.5341681765345 5.9055
endloop
endfacet
facet normal -0.991553072495276 0.129701597619991 -0.0
outer loop
vertex -0.416772956830274 0.142066187568627 5.9055
vertex -2.46732647543607 -15.5341681765345 5.4737
vertex -2.46732647543607 -15.5341681765345 5.9055
endloop
endfacet
facet normal -0.991553072495276 0.129701597619991 -0.0
outer loop
vertex -2.46732647543607 -15.5341681765345 5.4737
vertex -0.416772956830274 0.142066187568627 5.9055
vertex -0.416772956830274 0.142066187568627 5.4737
endloop
endfacet
facet normal -0.991553072495276 0.129701597619991 -0.0
outer loop
vertex 1.19138021643161 12.4362032626009 5.9055
vertex -0.416772956830274 0.142066187568627 5.4737
vertex -0.416772956830274 0.142066187568627 5.9055
endloop
endfacet
facet normal -0.991553072495276 0.129701597619991 -0.0
outer loop
vertex -0.416772956830274 0.142066187568627 5.4737
vertex 1.19138021643161 12.4362032626009 5.9055
vertex 1.19138021643161 12.4362032626009 5.4737
endloop
endfacet
facet normal -0.129701597619991 -0.991553072495276 -0.0
outer loop
vertex 1.19138021643161 12.4362032626009 5.9055
vertex -22.2707960232968 15.5052086707295 5.4737
vertex 1.19138021643161 12.4362032626009 5.4737
endloop
endfacet
facet normal -0.129701597619991 -0.991553072495276 -0.0
outer loop
vertex -22.2707960232968 15.5052086707295 5.4737
vertex 1.19138021643161 12.4362032626009 5.9055
vertex -22.2707960232968 15.5052086707295 5.9055
endloop
endfacet
facet normal 0.0 0.0 -1.0
outer loop
vertex -0.0556978358268795 0.094835210877569 0.0
vertex 5.3719411003198 -5.06900200284026 0.0
vertex -0.628491895538984 -4.284106299763 0.0
endloop
endfacet
facet normal 0.0 0.0 -1.0
outer loop
vertex 5.3719411003198 -5.06900200284026 0.0
vertex -0.0556978358268795 0.094835210877569 0.0
vertex 12.4551734787286 -1.54166821201279 0.0
endloop
endfacet
facet normal 0.0 0.0 -1.0
outer loop
vertex 5.3719411003198 -5.06900200284026 0.0
vertex 16.6034053850108 -17.854186389828 0.0
vertex 3.91663080930458 -16.1946736751199 0.0
endloop
endfacet
facet normal 0.0 0.0 -1.0
outer loop
vertex 16.6034053850108 -17.854186389828 0.0
vertex 5.3719411003198 -5.06900200284026 0.0
vertex 12.4551734787286 -1.54166821201279 0.0
endloop
endfacet
facet normal 0.0 0.0 -1.0
outer loop
vertex 16.6034053850108 -17.854186389828 0.0
vertex 12.4551734787286 -1.54166821201279 0.0
vertex 12.8072879967246 1.15020481496408 0.0
endloop
endfacet
facet normal 0.0 0.0 -1.0
outer loop
vertex 16.6034053850108 -17.854186389828 0.0
vertex 12.8072879967246 1.15020481496408 0.0
vertex 25.0851939168973 -0.455825217565456 0.0
endloop
endfacet
facet normal 0.0 0.0 -1.0
outer loop
vertex 16.6034053850108 -17.854186389828 0.0
vertex 25.0851939168973 -0.455825217565456 0.0
vertex 17.8500850630591 -18.0172602085156 0.0
endloop
endfacet
facet normal 0.0 0.0 -1.0
outer loop
vertex 16.6034053850108 -17.854186389828 0.0
vertex 17.8500850630591 -18.0172602085156 0.0
vertex 17.8047867800903 -18.3635601190845 3.21885378663645e-18
endloop
endfacet
facet normal 0.0 0.0 -1.0
outer loop
vertex 17.8500850630591 -18.0172602085156 0.0
vertex 25.0851939168973 -0.455825217565456 0.0
vertex 22.7049750481741 -18.6523114274625 0.0
endloop
endfacet
facet normal 0.0 0.0 -1.0
outer loop
vertex 17.8047867800903 -18.3635601190845 3.21885378663645e-18
vertex 16.558107102042 -18.2004863003969 3.21885378663645e-18
vertex 16.6034053850108 -17.854186389828 0.0
endloop
endfacet
facet normal 0.991553072495276 -0.129701597619991 4.38568010452432e-16
outer loop
vertex 24.1602853391893 -7.5266397551829 5.65785
vertex 24.1602853391893 -7.5266397551829 8.2296
vertex 22.7049750481741 -18.6523114274625 8.2296
endloop
endfacet
facet normal 0.991553072495276 -0.129701597619991 4.38568010452432e-16
outer loop
vertex 24.1602853391893 -7.5266397551829 8.2296
vertex 24.1602853391893 -7.5266397551829 5.65785
vertex 24.1602853391893 -7.5266397551829 5.7658
endloop
endfacet
facet normal 0.991553072495276 -0.129701597619991 4.38568010452432e-16
outer loop
vertex 25.0851939168973 -0.455825217565456 0.0
vertex 22.7049750481741 -18.6523114274625 8.2296
vertex 22.7049750481741 -18.6523114274625 0.0
endloop
endfacet
facet normal 0.991553072495276 -0.129701597619991 4.38568010452432e-16
outer loop
vertex 22.7049750481741 -18.6523114274625 8.2296
vertex 25.0851939168973 -0.455825217565456 0.0
vertex 24.1602853391893 -7.5266397551829 5.65785
endloop
endfacet
facet normal 0.991553072495276 -0.129701597619991 4.38568010452432e-16
outer loop
vertex 24.1602853391893 -7.5266397551829 5.65785
vertex 25.0851939168973 -0.455825217565456 0.0
vertex 25.0851939168973 -0.455825217565456 5.65785
endloop
endfacet
facet normal -0.991553072495276 0.129701597619991 2.78224645474015e-16
outer loop
vertex 5.37194110031981 -5.06900200284026 7.8867
vertex 3.91663080930458 -16.1946736751199 0.0
vertex 3.91663080930458 -16.1946736751199 7.8867
endloop
endfacet
facet normal -0.991553072495276 0.129701597619991 2.78224645474015e-16
outer loop
vertex 3.91663080930458 -16.1946736751199 0.0
vertex 5.37194110031981 -5.06900200284026 7.8867
vertex 5.3719411003198 -5.06900200284026 0.0
endloop
endfacet
facet normal -0.991553072495276 0.129701597619991 2.78224645474015e-16
outer loop
vertex 5.3719411003198 -5.06900200284026 0.0
vertex 5.37194110031981 -5.06900200284026 7.8867
vertex 5.3719411003198 -5.06900200284026 5.0292
endloop
endfacet
facet normal 0.991553072495276 -0.129701597619991 -0.0
outer loop
vertex -0.0556978358268795 0.094835210877569 0.0
vertex -0.628491895538984 -4.284106299763 5.0292
vertex -0.628491895538984 -4.284106299763 0.0
endloop
endfacet
facet normal 0.991553072495276 -0.129701597619991 -0.0
outer loop
vertex -0.628491895538984 -4.284106299763 5.0292
vertex -0.0556978358268795 0.094835210877569 0.0
vertex -0.0556978358268795 0.094835210877569 5.0292
endloop
endfacet
facet normal 0.129701597619991 0.991553072495276 -0.0
outer loop
vertex -0.0556978358268795 0.094835210877569 5.0292
vertex 12.4551734787286 -1.54166821201279 0.0
vertex -0.0556978358268795 0.094835210877569 0.0
endloop
endfacet
facet normal 0.129701597619991 0.991553072495276 -0.0
outer loop
vertex 12.4551734787286 -1.54166821201279 0.0
vertex -0.0556978358268795 0.094835210877569 5.0292
vertex 12.4551734787286 -1.54166821201279 5.0292
endloop
endfacet
facet normal -0.129701597619991 -0.991553072495276 -5.58996947851595e-17
outer loop
vertex 11.8823794190165 -5.92060972265336 5.65785
vertex 5.3719411003198 -5.06900200284026 5.0292
vertex 11.8823794190165 -5.92060972265336 5.0292
endloop
endfacet
facet normal -0.129701597619991 -0.991553072495276 -5.58996947851595e-17
outer loop
vertex 5.3719411003198 -5.06900200284026 5.0292
vertex 11.8823794190165 -5.92060972265336 5.65785
vertex -0.628491895538984 -4.284106299763 5.0292
endloop
endfacet
facet normal -0.129701597619991 -0.991553072495276 -5.58996947851595e-17
outer loop
vertex -0.628491895538984 -4.284106299763 5.0292
vertex 11.8823794190165 -5.92060972265336 5.65785
vertex -0.628491895538984 -4.284106299763 5.65785
endloop
endfacet
facet normal -0.129701597619991 -0.991553072495276 -5.58996947851595e-17
outer loop
vertex 5.3719411003198 -5.06900200284026 5.0292
vertex -0.628491895538984 -4.284106299763 0.0
vertex 5.3719411003198 -5.06900200284026 0.0
endloop
endfacet
facet normal -0.129701597619991 -0.991553072495276 -5.58996947851595e-17
outer loop
vertex -0.628491895538984 -4.284106299763 0.0
vertex 5.3719411003198 -5.06900200284026 5.0292
vertex -0.628491895538984 -4.284106299763 5.0292
endloop
endfacet
facet normal 0.129701597619991 0.991553072495276 -3.37835382654345e-16
outer loop
vertex 5.37194110031981 -5.06900200284026 7.8867
vertex 11.8823794190165 -5.92060972265336 5.0292
vertex 5.3719411003198 -5.06900200284026 5.0292
endloop
endfacet
facet normal 0.129701597619991 0.991553072495276 -3.37835382654345e-16
outer loop
vertex 11.8823794190165 -5.92060972265336 5.0292
vertex 5.37194110031981 -5.06900200284026 7.8867
vertex 11.8823794190165 -5.92060972265336 5.65785
endloop
endfacet
facet normal 0.129701597619991 0.991553072495276 -3.37835382654345e-16
outer loop
vertex 11.8823794190165 -5.92060972265336 5.65785
vertex 5.37194110031981 -5.06900200284026 7.8867
vertex 12.1400638642547 -5.95431652580521 5.7658
endloop
endfacet
facet normal 0.129701597619991 0.991553072495276 -3.37835382654345e-16
outer loop
vertex 12.1400638642547 -5.95431652580521 5.7658
vertex 5.37194110031981 -5.06900200284026 7.8867
vertex 12.7896538423314 -6.03928712424473 7.8867
endloop
endfacet
facet normal 0.129701597619991 0.991553072495276 -3.37835382654345e-16
outer loop
vertex 12.1400638642547 -5.95431652580521 5.7658
vertex 12.7896538423314 -6.03928712424473 7.8867
vertex 18.0213323791029 -6.72362473891812 8.2296
endloop
endfacet
facet normal 0.129701597619991 0.991553072495276 -3.37835382654345e-16
outer loop
vertex 18.0213323791029 -6.72362473891812 8.2296
vertex 12.7896538423314 -6.03928712424473 7.8867
vertex 12.7896538423314 -6.03928712424473 8.2296
endloop
endfacet
facet normal -0.991553072495276 0.129701597619991 2.50882401273248e-18
outer loop
vertex 12.8072879967246 1.15020481496408 5.65785
vertex 12.4551734787286 -1.54166821201279 5.0292
vertex 12.4551734787286 -1.54166821201279 5.65785
endloop
endfacet
facet normal -0.991553072495276 0.129701597619991 2.50882401273248e-18
outer loop
vertex 12.4551734787286 -1.54166821201279 5.0292
vertex 12.8072879967246 1.15020481496408 5.65785
vertex 12.4551734787286 -1.54166821201279 0.0
endloop
endfacet
facet normal -0.991553072495276 0.129701597619991 2.50882401273248e-18
outer loop
vertex 12.4551734787286 -1.54166821201279 0.0
vertex 12.8072879967246 1.15020481496408 5.65785
vertex 12.8072879967246 1.15020481496408 0.0
endloop
endfacet
facet normal 0.129701597619991 0.991553072495276 -0.0
outer loop
vertex 12.8072879967246 1.15020481496408 5.65785
vertex 25.0851939168973 -0.455825217565456 0.0
vertex 12.8072879967246 1.15020481496408 0.0
endloop
endfacet
facet normal 0.129701597619991 0.991553072495276 -0.0
outer loop
vertex 25.0851939168973 -0.455825217565456 0.0
vertex 12.8072879967246 1.15020481496408 5.65785
vertex 25.0851939168973 -0.455825217565456 5.65785
endloop
endfacet
facet normal 0.129701597619991 0.991553072495276 -0.0
outer loop
vertex 25.0851939168973 -0.455825217565456 5.65785
vertex 12.8072879967246 1.15020481496408 5.65785
vertex 18.9462409568109 0.347189798699313 8.2296
endloop
endfacet
facet normal 0.129701597619998 0.991553072495275 9.09558372134586e-17
outer loop
vertex 24.1602853391893 -7.5266397551829 5.7658
vertex 24.1602853391893 -7.5266397551829 5.65785
vertex 23.9026008939511 -7.49293295203104 5.7658
endloop
endfacet
facet normal 0.129701597619991 0.991553072495276 -1.18624132463249e-15
outer loop
vertex 18.0213323791029 -6.72362473891812 8.2296
vertex 18.0213323791029 -6.72362473891812 5.7658
vertex 12.1400638642547 -5.95431652580521 5.7658
endloop
endfacet
facet normal -0.380366033437828 0.0497543536354683 0.923496716237308
outer loop
vertex 12.1400638642547 -5.95431652580521 5.7658
vertex 12.4551734787286 -1.54166821201279 5.65785
vertex 11.8823794190165 -5.92060972265336 5.65785
endloop
endfacet
facet normal -0.380366033437828 0.0497543536354683 0.923496716237308
outer loop
vertex 12.4551734787286 -1.54166821201279 5.65785
vertex 12.1400638642547 -5.95431652580521 5.7658
vertex 18.0213323791029 -6.72362473891812 8.2296
endloop
endfacet
facet normal -0.380366033437828 0.0497543536354683 0.923496716237308
outer loop
vertex 12.4551734787286 -1.54166821201279 5.65785
vertex 18.0213323791029 -6.72362473891812 8.2296
vertex 12.8072879967246 1.15020481496408 5.65785
endloop
endfacet
facet normal -0.380366033437828 0.0497543536354683 0.923496716237308
outer loop
vertex 12.8072879967246 1.15020481496408 5.65785
vertex 18.0213323791029 -6.72362473891812 8.2296
vertex 18.9462409568109 0.347189798699313 8.2296
endloop
endfacet
facet normal 0.380366033437828 -0.0497543536354685 0.923496716237308
outer loop
vertex 23.9026008939511 -7.49293295203104 5.7658
vertex 18.9462409568109 0.347189798699313 8.2296
vertex 18.0213323791029 -6.72362473891812 8.2296
endloop
endfacet
facet normal 0.380366033437828 -0.0497543536354685 0.923496716237308
outer loop
vertex 18.9462409568109 0.347189798699313 8.2296
vertex 23.9026008939511 -7.49293295203104 5.7658
vertex 25.0851939168973 -0.455825217565456 5.65785
endloop
endfacet
facet normal 0.380366033437828 -0.0497543536354685 0.923496716237308
outer loop
vertex 25.0851939168973 -0.455825217565456 5.65785
vertex 23.9026008939511 -7.49293295203104 5.7658
vertex 24.1602853391893 -7.5266397551829 5.65785
endloop
endfacet
facet normal -0.129701597619991 -0.991553072495276 1.36623910613429e-14
outer loop
vertex 18.0213323791029 -6.72362473891812 5.7658
vertex 11.8823794190165 -5.92060972265336 5.65785
vertex 18.0213323791029 -6.72362473891812 5.65785
endloop
endfacet
facet normal -0.129701597619991 -0.991553072495276 1.36623910613429e-14
outer loop
vertex 11.8823794190165 -5.92060972265336 5.65785
vertex 18.0213323791029 -6.72362473891812 5.7658
vertex 12.1400638642547 -5.95431652580521 5.7658
endloop
endfacet
facet normal 0.129701597619991 0.991553072495276 -8.78500302065469e-15
outer loop
vertex 18.0213323791029 -6.72362473891812 5.7658
vertex 24.1602853391893 -7.5266397551829 5.65785
vertex 18.0213323791029 -6.72362473891812 5.65785
endloop
endfacet
facet normal 0.129701597619991 0.991553072495276 -8.78500302065469e-15
outer loop
vertex 24.1602853391893 -7.5266397551829 5.65785
vertex 18.0213323791029 -6.72362473891812 5.7658
vertex 23.9026008939511 -7.49293295203104 5.7658
endloop
endfacet
facet normal 0.129701597619992 0.991553072495276 5.63541889682904e-16
outer loop
vertex 18.0213323791029 -6.72362473891812 8.2296
vertex 24.1602853391893 -7.5266397551829 5.7658
vertex 23.9026008939511 -7.49293295203104 5.7658
endloop
endfacet
facet normal 0.129701597619992 0.991553072495276 5.63541889682904e-16
outer loop
vertex 24.1602853391893 -7.5266397551829 5.7658
vertex 18.0213323791029 -6.72362473891812 8.2296
vertex 24.1602853391893 -7.5266397551829 8.2296
endloop
endfacet
facet normal -0.129701597619991 -0.991553072495276 1.14230646075721e-15
outer loop
vertex 18.0213323791029 -6.72362473891812 8.2296
vertex 18.0213323791029 -6.72362473891812 5.7658
vertex 23.9026008939511 -7.49293295203104 5.7658
endloop
endfacet
facet normal 0.0182786838084918 0.139738333405742 0.990019741164395
outer loop
vertex 11.8823794190165 -5.92060972265336 5.65785
vertex -0.0556978358268795 0.094835210877569 5.0292
vertex -0.628491895538984 -4.284106299763 5.65785
endloop
endfacet
facet normal 0.0182786838084918 0.139738333405742 0.990019741164395
outer loop
vertex -0.0556978358268795 0.094835210877569 5.0292
vertex 11.8823794190165 -5.92060972265336 5.65785
vertex 12.4551734787286 -1.54166821201279 5.0292
endloop
endfacet
facet normal -0.991553072495276 0.12970159761999 0.0
outer loop
vertex 12.4551734787286 -1.54166821201279 5.0292
vertex 11.8823794190165 -5.92060972265336 5.65785
vertex 12.4551734787286 -1.54166821201279 5.65785
endloop
endfacet
facet normal -0.0 -0.0 1.0
outer loop
vertex 17.4669818504423 -18.3193730349288 8.2296
vertex 16.8683381152518 -17.8888413158498 8.2296
vertex 16.823039832283 -18.2351412264188 8.2296
endloop
endfacet
facet normal -0.0 -0.0 1.0
outer loop
vertex 16.8683381152518 -17.8888413158498 8.2296
vertex 12.7896538423314 -6.03928712424473 8.2296
vertex 11.3343435513161 -17.1649587965243 8.2296
endloop
endfacet
facet normal -0.0 -0.0 1.0
outer loop
vertex 12.7896538423314 -6.03928712424473 8.2296
vertex 16.8683381152518 -17.8888413158498 8.2296
vertex 18.0213323791029 -6.72362473891812 8.2296
endloop
endfacet
facet normal -0.0 -0.0 1.0
outer loop
vertex 18.0213323791029 -6.72362473891812 8.2296
vertex 16.8683381152518 -17.8888413158498 8.2296
vertex 17.4669818504423 -18.3193730349288 8.2296
endloop
endfacet
facet normal -0.0 -0.0 1.0
outer loop
vertex 18.0213323791029 -6.72362473891812 8.2296
vertex 17.4669818504423 -18.3193730349288 8.2296
vertex 17.5122801334111 -17.9730731243598 8.2296
endloop
endfacet
facet normal -0.0 -0.0 1.0
outer loop
vertex 18.0213323791029 -6.72362473891812 8.2296
vertex 17.5122801334111 -17.9730731243598 8.2296
vertex 22.7049750481741 -18.6523114274625 8.2296
endloop
endfacet
facet normal -0.0 -0.0 1.0
outer loop
vertex 18.0213323791029 -6.72362473891812 8.2296
vertex 22.7049750481741 -18.6523114274625 8.2296
vertex 24.1602853391893 -7.5266397551829 8.2296
endloop
endfacet
facet normal 0.0 0.0 1.0
outer loop
vertex 11.3343435513161 -17.1649587965243 7.8867
vertex 5.37194110031981 -5.06900200284026 7.8867
vertex 3.91663080930458 -16.1946736751199 7.8867
endloop
endfacet
facet normal 0.0 0.0 1.0
outer loop
vertex 5.37194110031981 -5.06900200284026 7.8867
vertex 11.3343435513161 -17.1649587965243 7.8867
vertex 12.7896538423314 -6.03928712424473 7.8867
endloop
endfacet
facet normal -0.991553072495276 0.129701597619991 0.0
outer loop
vertex 12.7896538423314 -6.03928712424473 8.2296
vertex 11.3343435513161 -17.1649587965243 7.8867
vertex 11.3343435513161 -17.1649587965243 8.2296
endloop
endfacet
facet normal -0.991553072495276 0.129701597619991 0.0
outer loop
vertex 11.3343435513161 -17.1649587965243 7.8867
vertex 12.7896538423314 -6.03928712424473 8.2296
vertex 12.7896538423314 -6.03928712424473 7.8867
endloop
endfacet
facet normal -0.129701597619991 -0.991553072495276 1.67000091403697e-16
outer loop
vertex 22.7049750481741 -18.6523114274625 8.2296
vertex 17.8500850630591 -18.0172602085156 0.0
vertex 22.7049750481741 -18.6523114274625 0.0
endloop
endfacet
facet normal -0.129701597619991 -0.991553072495276 1.67000091403697e-16
outer loop
vertex 17.8500850630591 -18.0172602085156 0.0
vertex 22.7049750481741 -18.6523114274625 8.2296
vertex 17.8500850630591 -18.0172602085156 1.7018
endloop
endfacet
facet normal -0.129701597619991 -0.991553072495276 1.67000091403697e-16
outer loop
vertex 17.8500850630591 -18.0172602085156 1.7018
vertex 22.7049750481741 -18.6523114274625 8.2296
vertex 17.5122801334111 -17.9730731243598 1.7018
endloop
endfacet
facet normal -0.129701597619991 -0.991553072495276 1.67000091403697e-16
outer loop
vertex 17.5122801334111 -17.9730731243598 1.7018
vertex 22.7049750481741 -18.6523114274625 8.2296
vertex 17.5122801334111 -17.9730731243598 8.2296
endloop
endfacet
facet normal -0.129701597619991 -0.991553072495276 8.54774080150256e-17
outer loop
vertex 16.8683381152518 -17.8888413158498 8.2296
vertex 16.6034053850108 -17.854186389828 1.7018
vertex 16.8683381152518 -17.8888413158498 1.7018
endloop
endfacet
facet normal -0.129701597619991 -0.991553072495276 8.54774080150256e-17
outer loop
vertex 16.6034053850108 -17.854186389828 1.7018
vertex 16.8683381152518 -17.8888413158498 8.2296
vertex 11.3343435513161 -17.1649587965243 7.8867
endloop
endfacet
facet normal -0.129701597619991 -0.991553072495276 8.54774080150256e-17
outer loop
vertex 11.3343435513161 -17.1649587965243 7.8867
vertex 16.8683381152518 -17.8888413158498 8.2296
vertex 11.3343435513161 -17.1649587965243 8.2296
endloop
endfacet
facet normal -0.129701597619991 -0.991553072495276 8.54774080150256e-17
outer loop
vertex 16.6034053850108 -17.854186389828 1.7018
vertex 3.91663080930458 -16.1946736751199 0.0
vertex 16.6034053850108 -17.854186389828 0.0
endloop
endfacet
facet normal -0.129701597619991 -0.991553072495276 8.54774080150256e-17
outer loop
vertex 3.91663080930458 -16.1946736751199 0.0
vertex 16.6034053850108 -17.854186389828 1.7018
vertex 3.91663080930458 -16.1946736751199 7.8867
endloop
endfacet
facet normal -0.129701597619991 -0.991553072495276 8.54774080150256e-17
outer loop
vertex 3.91663080930458 -16.1946736751199 7.8867
vertex 16.6034053850108 -17.854186389828 1.7018
vertex 11.3343435513161 -17.1649587965243 7.8867
endloop
endfacet
facet normal -0.12970159761999 -0.991553072495276 9.21647469330409e-18
outer loop
vertex 17.4669818504423 -18.3193730349288 8.2296
vertex 16.823039832283 -18.2351412264188 1.7018
vertex 17.4669818504423 -18.3193730349288 1.7018
endloop
endfacet
facet normal -0.12970159761999 -0.991553072495276 9.21647469330409e-18
outer loop
vertex 16.823039832283 -18.2351412264188 1.7018
vertex 17.4669818504423 -18.3193730349288 8.2296
vertex 16.823039832283 -18.2351412264188 8.2296
endloop
endfacet
facet normal -0.12970159761999 -0.991553072495276 9.21647469330409e-18
outer loop
vertex 17.8047867800903 -18.3635601190845 1.7018
vertex 16.558107102042 -18.2004863003969 3.21885378663645e-18
vertex 17.8047867800903 -18.3635601190845 3.21885378663645e-18
endloop
endfacet
facet normal -0.12970159761999 -0.991553072495276 9.21647469330409e-18
outer loop
vertex 16.558107102042 -18.2004863003969 3.21885378663645e-18
vertex 17.8047867800903 -18.3635601190845 1.7018
vertex 16.558107102042 -18.2004863003969 1.7018
endloop
endfacet
facet normal -0.12970159761999 -0.991553072495276 9.21647469330409e-18
outer loop
vertex 16.558107102042 -18.2004863003969 1.7018
vertex 17.8047867800903 -18.3635601190845 1.7018
vertex 17.4669818504423 -18.3193730349288 1.7018
endloop
endfacet
facet normal -0.12970159761999 -0.991553072495276 9.21647469330409e-18
outer loop
vertex 16.558107102042 -18.2004863003969 1.7018
vertex 17.4669818504423 -18.3193730349288 1.7018
vertex 16.823039832283 -18.2351412264188 1.7018
endloop
endfacet
facet normal 1.19539149214576e-18 9.13862379972063e-18 1.0
outer loop
vertex 17.8047867800903 -18.3635601190845 1.7018
vertex 17.5122801334111 -17.9730731243598 1.7018
vertex 17.4669818504423 -18.3193730349288 1.7018
endloop
endfacet
facet normal 1.19539149214576e-18 9.13862379972063e-18 1.0
outer loop
vertex 17.5122801334111 -17.9730731243598 1.7018
vertex 17.8047867800903 -18.3635601190845 1.7018
vertex 17.8500850630591 -18.0172602085156 1.7018
endloop
endfacet
facet normal 0.991553072495276 -0.12970159761999 0.0
outer loop
vertex 17.5122801334111 -17.9730731243598 1.7018
vertex 17.4669818504423 -18.3193730349288 8.2296
vertex 17.4669818504423 -18.3193730349288 1.7018
endloop
endfacet
facet normal 0.991553072495276 -0.12970159761999 0.0
outer loop
vertex 17.4669818504423 -18.3193730349288 8.2296
vertex 17.5122801334111 -17.9730731243598 1.7018
vertex 17.5122801334111 -17.9730731243598 8.2296
endloop
endfacet
facet normal -0.991553072495276 0.12970159761999 0.0
outer loop
vertex 16.8683381152518 -17.8888413158498 8.2296
vertex 16.823039832283 -18.2351412264188 1.7018
vertex 16.823039832283 -18.2351412264188 8.2296
endloop
endfacet
facet normal -0.991553072495276 0.12970159761999 0.0
outer loop
vertex 16.823039832283 -18.2351412264188 1.7018
vertex 16.8683381152518 -17.8888413158498 8.2296
vertex 16.8683381152518 -17.8888413158498 1.7018
endloop
endfacet
facet normal 1.19539149214576e-18 9.13862379972063e-18 1.0
outer loop
vertex 16.823039832283 -18.2351412264188 1.7018
vertex 16.6034053850108 -17.854186389828 1.7018
vertex 16.558107102042 -18.2004863003969 1.7018
endloop
endfacet
facet normal 1.19539149214576e-18 9.13862379972063e-18 1.0
outer loop
vertex 16.6034053850108 -17.854186389828 1.7018
vertex 16.823039832283 -18.2351412264188 1.7018
vertex 16.8683381152518 -17.8888413158498 1.7018
endloop
endfacet
facet normal -0.991553072495276 0.12970159761999 0.0
outer loop
vertex 16.6034053850108 -17.854186389828 1.7018
vertex 16.558107102042 -18.2004863003969 3.21885378663645e-18
vertex 16.558107102042 -18.2004863003969 1.7018
endloop
endfacet
facet normal -0.991553072495276 0.12970159761999 0.0
outer loop
vertex 16.558107102042 -18.2004863003969 3.21885378663645e-18
vertex 16.6034053850108 -17.854186389828 1.7018
vertex 16.6034053850108 -17.854186389828 0.0
endloop
endfacet
facet normal 0.991553072495276 -0.12970159761999 0.0
outer loop
vertex 17.8500850630591 -18.0172602085156 0.0
vertex 17.8047867800903 -18.3635601190845 1.7018
vertex 17.8047867800903 -18.3635601190845 3.21885378663645e-18
endloop
endfacet
facet normal 0.991553072495276 -0.12970159761999 0.0
outer loop
vertex 17.8047867800903 -18.3635601190845 1.7018
vertex 17.8500850630591 -18.0172602085156 0.0
vertex 17.8500850630591 -18.0172602085156 1.7018
endloop
endfacet
facet normal 0.129701597619991 0.991553072495276 -1.09927185726931e-16
outer loop
vertex -22.5846401676091 15.913514768424 5.9055
vertex 1.59968631412607 12.7500474069133 0.0
vertex -22.5846401676091 15.913514768424 0.0
endloop
endfacet
facet normal 0.129701597619991 0.991553072495276 -1.09927185726931e-16
outer loop
vertex 1.59968631412607 12.7500474069133 0.0
vertex -22.5846401676091 15.913514768424 5.9055
vertex 1.59968631412607 12.7500474069133 5.9055
endloop
endfacet
endsolid WHAS11 Studios
